<?xml version="1.0" standalone="no"?>
<!DOCTYPE svg PUBLIC "-//W3C//DTD SVG 20010904//EN"
 "http://www.w3.org/TR/2001/REC-SVG-20010904/DTD/svg10.dtd">
<svg version="1.0" xmlns="http://www.w3.org/2000/svg"
 width="512.000000pt" height="512.000000pt" viewBox="0 0 512.000000 512.000000"
 preserveAspectRatio="xMidYMid meet">
<metadata>
Created by potrace 1.14, written by Peter Selinger 2001-2017
</metadata>
<g transform="translate(0.000000,512.000000) scale(0.100000,-0.100000)"
fill="#000000" stroke="none">
<path d="M65 3486 c-23 -35 -18 -312 5 -326 9 -6 141 -10 308 -10 l292 0 0
-763 c0 -580 3 -766 12 -775 8 -8 65 -12 189 -12 172 0 178 1 193 22 14 20 16
110 16 775 l0 753 275 0 275 0 0 -758 c0 -723 1 -760 18 -775 16 -14 44 -17
186 -17 96 0 176 4 187 10 18 10 19 24 19 284 l0 274 288 5 c213 4 303 9 348
21 190 48 332 167 420 351 89 185 85 423 -9 615 -56 115 -160 222 -267 273
-158 77 -47 71 -1467 75 l-1272 3 -16 -25z m2513 -370 c119 -55 168 -147 160
-300 -7 -121 -49 -196 -138 -241 -73 -37 -139 -45 -355 -45 l-205 0 0 311 0
311 238 -4 237 -3 63 -29z"/>
<path d="M3342 3498 c-17 -17 -17 -319 0 -336 9 -9 121 -12 444 -12 l432 0
206 -296 c119 -170 203 -301 199 -307 -3 -7 -97 -141 -207 -299 l-200 -288
-431 0 c-322 0 -434 -3 -443 -12 -17 -17 -17 -319 0 -336 18 -18 1047 -17
1070 1 9 6 159 216 332 465 234 334 316 459 315 480 0 19 -95 162 -322 487
l-322 460 -531 3 c-404 2 -533 -1 -542 -10z"/>
<path d="M4925 3485 c-37 -36 -34 -86 6 -119 35 -30 49 -32 88 -11 33 16 41
33 41 80 0 67 -87 99 -135 50z m101 -30 c9 -14 13 -32 9 -45 -9 -27 -27 -15
-19 14 6 26 -9 42 -46 49 -21 4 -20 4 7 6 24 1 37 -5 49 -24z m-69 -72 c6 -2
13 3 15 12 2 13 6 13 20 -5 17 -19 17 -20 -12 -20 -37 0 -66 38 -54 72 7 20 9
18 14 -16 3 -22 10 -41 17 -43z"/>
</g>
</svg>
