<?xml version="1.0" standalone="no"?>
<!DOCTYPE svg PUBLIC "-//W3C//DTD SVG 20010904//EN"
 "http://www.w3.org/TR/2001/REC-SVG-20010904/DTD/svg10.dtd">
<svg version="1.0" xmlns="http://www.w3.org/2000/svg"
 width="512.000000pt" height="512.000000pt" viewBox="0 0 512.000000 512.000000"
 preserveAspectRatio="xMidYMid meet">
<metadata>
Created by potrace 1.14, written by Peter Selinger 2001-2017
</metadata>
<g transform="translate(0.000000,512.000000) scale(0.100000,-0.100000)"
fill="#000000" stroke="none">
<path d="M333 5036 l-28 -24 -3 -379 c-2 -208 0 -392 3 -410 3 -17 14 -42 24
-55 l19 -23 1138 -5 1137 -5 539 -775 c297 -426 541 -780 544 -786 3 -6 -240
-362 -539 -790 l-544 -779 -1137 -5 -1138 -5 -19 -23 c-10 -13 -21 -38 -24
-55 -3 -18 -5 -204 -3 -414 l3 -383 28 -27 27 -28 1348 -3 1348 -2 42 22 c37
20 140 164 868 1207 454 652 830 1195 835 1208 13 34 11 110 -2 136 -7 12
-382 553 -835 1203 -693 993 -830 1184 -863 1202 l-39 22 -1350 0 -1351 0 -28
-24z"/>
</g>
</svg>
