<?xml version="1.0" standalone="no"?>
<!DOCTYPE svg PUBLIC "-//W3C//DTD SVG 20010904//EN"
 "http://www.w3.org/TR/2001/REC-SVG-20010904/DTD/svg10.dtd">
<svg version="1.0" xmlns="http://www.w3.org/2000/svg"
 width="512.000000pt" height="512.000000pt" viewBox="0 0 512.000000 512.000000"
 preserveAspectRatio="xMidYMid meet">
<metadata>
Created by potrace 1.14, written by Peter Selinger 2001-2017
</metadata>
<g transform="translate(0.000000,512.000000) scale(0.100000,-0.100000)"
fill="#000000" stroke="none">
<path d="M400 5003 c-24 -9 -50 -44 -51 -67 0 -12 -1 -189 -1 -393 0 -413 -1
-411 64 -431 21 -7 416 -10 1120 -9 l1087 2 43 -64 c24 -35 48 -69 54 -75 6
-6 13 -16 15 -22 2 -6 32 -50 67 -100 56 -79 178 -254 495 -712 51 -73 146
-210 212 -305 66 -95 133 -192 149 -215 15 -23 26 -47 23 -54 -3 -7 -63 -95
-134 -195 -153 -219 -257 -367 -337 -482 -32 -46 -71 -101 -85 -122 -14 -20
-69 -98 -121 -173 -113 -163 -250 -359 -280 -401 -12 -16 -39 -56 -61 -88
l-41 -57 -1105 0 -1105 0 -29 -29 c-23 -23 -29 -39 -30 -73 -1 -65 -1 -698 0
-734 1 -35 27 -69 62 -82 13 -4 614 -8 1334 -7 1213 1 1312 2 1342 18 21 11
68 69 140 172 59 85 197 282 305 437 108 156 201 288 205 293 4 6 22 30 38 55
17 25 34 50 38 55 10 13 297 424 457 655 69 99 157 225 195 280 39 54 106 151
150 215 44 64 86 123 93 130 6 7 12 18 12 24 0 6 4 11 9 11 15 0 38 82 34 120
-6 48 -17 67 -161 272 -71 101 -150 215 -177 253 -27 39 -112 160 -189 270
-76 110 -163 234 -191 275 -475 682 -842 1208 -880 1258 -84 114 82 102 -1430
101 -726 0 -1327 -3 -1335 -6z"/>
</g>
</svg>
