<svg xmlns="http://www.w3.org/2000/svg" viewBox="0 0 100 120" xml:space="preserve" enable-background="new 0 0 100 120"><style>.st0,.st12,.st3,.st5,.st6,.st9{fill-rule:evenodd;clip-rule:evenodd;fill:#dfa676}.st12,.st3,.st5,.st6,.st9{fill:#fff}.st12,.st5,.st6,.st9{fill:#2f3541}.st12,.st6,.st9{fill:#fc9001}.st12,.st9{fill:#505868}.st12{fill:#00284c}.st13{display:none}.st14{display:inline}.st15,.st19{fill-rule:evenodd;clip-rule:evenodd;fill:#c8ced9}.st19{fill:#ffddc0}.st20,.st30,.st31,.st32,.st39,.st42{fill-rule:evenodd;clip-rule:evenodd;fill:#9b9ea2}.st30,.st31,.st32,.st39,.st42{fill:#a7b3ca}.st31,.st32,.st39,.st42{fill:#fdfdfd}.st32,.st39,.st42{fill:#fcede5}.st39,.st42{fill:#cdcae6}.st42{fill:#fa9000}</style><g id="Layer_1"><g id="Group-6" transform="translate(704 16)"><g id="Group-162" transform="translate(92)"><path id="Fill-1" class="st0" d="m-707.5 36.5.3-.5c.2-.3.4-.5.6-.7.4-.6 1.2-1.5 1.1-2.3-.1-.3-.3-.9-.7-1.2-.5-.3-1.2-.2-1.2-.2s-.1 1.3-.1 1.5c.1.4 0 3.4 0 3.4"/><path id="Fill-3" class="st0" d="M-761.4 69.5c-.4-.2-.4-.7-.6-1.1-.4-.7-.9-1.5-1.3-2.3-.9-1.6-1.4-3.4-1.9-5.2-.7-2.6-1.3-5.1-1.6-7.8-.2-1.4-.4-3-.2-4.4.2-1.5 1.4-2.7 1.9-4.1.6-1.5.8-3.1.8-4.7 0-1.2.1-2.4 0-3.6-.1-.5-.2-1.4-.6-1.8-.5-.5-1.2-.3-1.8-.7-.9-.7-1.4-1.7-1.7-2.9-.1-.4-.2-1.2-.2-1.6.1-.4.2-1 .5-1.2.4-.3.8-.2 1.1-.5.4-.5.6-1.2 1-1.8l1.5-2.4c1-1.5 2.2-3 3.4-4.3 1.8-1.9 3.8-4.1 6.5-4.5.6-.1 1.2 0 1.7.2 3.5 1.2 4.3 4.9 5.1 8 .2.8.5 1.5.8 2.3.3.9.6 1.9 1.1 2.7.4.6.8 1 1 1.7.3 1.7-.4 3.2-1.6 4.4-.2.2-.8.4-.8.4s-.4 1.5-.5 1.9c-.2.7-.5 1.1-.7 1.8-.3.8-.9 1.6-1.4 2.2-.3.4-.9 1.1-.9 1.1s-.2 2.4.2 3.1c.3.5.7 1 1.2 1.4.4.4 1 .9 1 .9s-.7 3.4-1.3 4.8c-.7 1.7-1.6 3.3-2.6 4.9-1.6 2.7-3.4 5.4-5.2 8-.8 1.1-1.6 2.2-2.5 3.3-.4.4-.7.9-1.2 1.2l-.2.6z"/><path id="Fill-5" d="M-765.1 41.5s-.9.2-1.2.5c-.5.4-1 1.2-1.4 1.9-.4.7-.8 1.5-1.2 2-.3.3-1.6 2-1.6 2s-.6.2-.8.3c-.9.7-2.5 1.1-3.5 1.6-1.8.9-2.6 1-4.3 2-1 .6-1.8 1.1-2.7 1.8-1.5 1.1-2.7 3.7-3.2 4.9-.5 1.2-.9 2.8-1.1 3.4-.7 2.8-1.3 6.4-1.5 8.3-.2 1.4-.4 3.4-.6 4.3-.2.9-.2 2.1-.3 3.1-.3 2.2-.5 5.2-.7 6.7-.2 1.5-.4 1.8-.3 3 .1 1.2 4.4 1.3 6.7 1.1 2.2-.1 4.1-.7 5.9-.9 2.4-.3 5.8.3 8.6.6s7.2.7 10.3 1c4.2.4 9.5.5 13.7.1 1.8-.2 5.8-.9 6-1.1.1-.2.5-2 .7-2.4.3-1.4 1.5-6.5 1.5-6.5s2.1-.3 3-.8l1.6-.8c.5-.3.8-.6 1.2-.9 2.9-2.2 4.7-4.9 6-8.2.3-.7.9-3.3.9-3.3s.9-.5.8-1.2c-.3-1.7-1.3-3.3-2.2-4.8-2.2-4-6.1-7.3-10.3-9.1-1-.4-2-1-3.1-1.2-.9-.2-2.3-.5-2.3-.5s-1.3-.2-2.1-.3c-.8-.1-4-.7-4-.7s-.8-2-1.2-2.7c-.7-1.1-1.1-2.2-2.4-2.7-.8-.3-1.3-.4-1.3-.4s-.3 1.4.1 2.6c.5 1.4 1.6 2.2 1.6 2.2.1 1.2-2.9 6.9-3.3 7.6-1.8 2.8-6 8.1-8.1 11.6-1.3 2.1-.9 3.4-1.3 3.3-.2 0-4.1-7.2-4.9-14.1-.2-1.4-.3-3.1-.3-5 .1-1.5.4-3.4.4-3.4s.8-.8 1.2-2c.8-1.2 1-2.9 1-2.9" fill-rule="evenodd" clip-rule="evenodd" fill="#fc9590"/><path id="Fill-7" d="M-731.2 20.9s.2-.9.7-1.5c.6-.6 1.5-.9 1.5-.9l19.1.2s1.2.1 1.8.7c.6.6.6 1.6.6 1.6l-.4 41.8s0 1.1-.5 1.7c-.5.6-1.5.8-1.5.8l-18.8-.3s-1.4 0-2.1-.7c-.7-.6-.7-1.8-.7-1.8l.3-41.6z" fill-rule="evenodd" clip-rule="evenodd" fill="#858d97"/><path id="Fill-9" class="st3" d="m-728.7 20.5 3.7.1s-.1.7.2 1.1c.3.4.8.3.8.3l9.1.1s.6 0 .9-.4c.3-.4.2-1 .2-1l3.8.1s.7 0 1 .5c.4.5.4 1.3.4 1.3l-.3 40.5s-.1.6-.4.9c-.3.3-.8.4-.8.4l-18.7-.4s-.9-.1-1.3-.5c-.4-.5-.4-1.3-.4-1.3l.2-39.9s0-.8.4-1.3c.5-.3 1.2-.5 1.2-.5"/><path id="Fill-11" class="st0" d="M-707.5 52.5s.1.1.6-.4c.5-.4 1-1 1.4-1.6.5-.8.8-1.3 1-2.2.1-.5.2-1.4-.2-1.9-.2-.3-.5-.6-.8-.8-.5-.3-1-.7-1.6-.9-.5-.1-1-.4-1.6-.3-.9.2-.9 1.9-.6 2.7.4.9 1.8 2.1 1.8 2.1v3.3z"/><path id="Fill-13" class="st0" d="M-707.7 60.4c0 .3 0 .1.7-.3.6-.4 1.2-1 1.6-1.6.3-.4.5-.6.7-1 .1-.2.2-.6.2-.8.1-.4 0-.7-.1-1.1-.1-.3-.5-.7-.7-.9-.6-.5-1-.6-1.8-.9-.5-.2-1.1-.4-1.6-.3-.7.2-.9 1.5-.7 2.1.4 1.1 1.7 2.1 1.7 2.1s-.1 2.1 0 2.7"/><path id="Fill-15" class="st0" d="m-707.7 44.5 1.4-1.4c.6-.6 1.4-1.4 1.7-2.3.1-.4.2-1 .1-1.4-.3-.7-.9-1-1.5-1.3-.8-.3-2.2-1.1-3-.2-.1.2-.3.8-.4 1-.1.9-.1 1.7.4 2.4.2.3.4.6.7.8l.6.6v1.8z"/><path id="Fill-17" class="st0" d="M-728.5 65.1c.3-.2-1.1.1-2.3-.4-.9-.3-1.1-1.8-1.1-1.8v-16s.4-3.4.2-4.7c-.2-1.5-.9-2.5-2.1-3.3-.4-.2-1.1-.6-1.6-.3-.9.6-.7 1.8-.8 2.7-.1 1.2.3 2.3-.3 3.3-.7 1.2-2.4 2.3-3.3 3.4-1.9 2.4-3.7 4.7-4.4 7.7-.2.9-.4 2.1-.2 3 .1.6.3 1.2.5 1.8.4 1.1 1.3 3.1 1.3 3.1s-.1 1-.1 1.3c0 .8.1 1.7.2 2.5.3 2 1.5 3.8 3.3 4.6.4.2 1.1.2 1.5.3.5.1 1.1.3 1.6.2 1.4-.3 2.6-.7 3.6-1.7.3-.3.8-.8 1-1.3.2-.8.7-1.5.8-2.3.1-.3.2-1.2.2-1.2s.3-.1.4-.1c.6-.3 1.1-.5 1.6-.8"/><path id="Fill-19" class="st3" d="M-752.5 37.6c0-.2-.5.1-.7.1-.5.1-.9.1-1.4.1-.7 0-1.5.1-2.2-.1-.1 0-.7-.2-.8-.1 0 0 .1.5.1.6.3.6.4 1.2.9 1.6.5.5 1.4.9 2.1.7 1-.4 2-1.8 2-2.9"/><path id="Fill-21" d="M-769.1 28.6s-1.1-2-1.2-3.7c-.1-.9-.3-2.7-.2-3.6.1-1.5.5-2.6 1-4 .3-.9 1-1.9 1.5-2.6.2-.3.9-1.2.9-1.2s-.9.1-.9-.3c-.1-.5.6-1.1.3-1.6-.4-.5-1.6-.3-1.6-1.3 0-.5.7-.7.8-1.1.1-.6-.9-1.3-.4-1.9.5-.6 1.6.1 2-.6.1-.2 0-.9-.2-1.1-.2-.2-.5-.3-.4-.6.1-.4.5-.8.9-.8.1 0 .5.1.7-.1.3-.3-.5-1.2-.1-1.3.1 0 .3-.3.4-.3.4 0 .7.3.9 0 .4-.6.1-1.5.8-1.9.3-.2.6-.1.9.2.1.1.3.4.4.2.4-.4-.2-1.1.2-1.5.1-.1.3-.1.4-.1.7-.1.9.9 1.6.8.3-.1.4-.4.5-.7.1-.3.1-.7.4-.8.4-.2.8 0 1 .3.1.2.3.5.5.6.2.1.5-.3.7-.1.3.1.4.6.5.6.1 0 .7-.5 1.1-.3.4.2.3 1 .4 1.3 0 .1 0 .4.2.5 1.1.3.8-1.7 1.9-1.3.6.2 1.1.8 1.2 1.4.1.3 0 1 .2 1.3.5.5 1.2-.4 1.7.1.1.1.3.7.3.9 0 .1-.2.5-.1.6.1.1.3 0 .4.1.4.1.9 0 1.2.4.1.2.2.4.2.6 0 .1-.2.7-.1.8.2.2.5-.2.7-.2.2 0 .4.3.6.5.3.5.4 1.2 0 1.6-.3.3-.8.2-.9.8 0 .4.4.5.5.8.1.2-.3.6-.3.8 0 .3.3.7.2 1-.1.3-.6.5-.6.5s.7.6 1 .9c.5.4 1.1 1.2 1.4 1.8 1.1 2.2 1.6 4.4 2 6.9.1.7 0 1.6.1 2.2 0 .6-.3 1.7-.4 2.4-.1.9-.5 1.8-.8 2.4s-.5 1-.6 1.1c0 0-.7-.6-.8-.6-.9-.2-.9-.6-1.4-1.3-.3-.5-.7-1.6-.9-2.1-.3-1-.6-1.9-.8-2.8-.2-.7-.2-1.7-.5-2.4-.4-.9-.9-1.8-2-2.1-.7-.2-1.5 0-2.2-.2-1.3-.3-2.5-.9-3.8-.6-.9.2-1.6 1.6-2 2.3-.6 1.1-1 2.1-1.6 3.2-.4.7-1.6 1.9-1.6 1.9s.2-.3-.6 1.1c-.8 1.4-1.9 1.8-2.8 2-.4.1-1 0-1.6.1-.7-.3-1.2.1-1.2.1" fill-rule="evenodd" clip-rule="evenodd" fill="#9b745c"/><path id="Fill-23" class="st5" d="M-707 44.5c-.1 0-.2-.1-.2-.1v-1.7c0-.1.1-.1.2-.1s.2.1.2.1v1.7s-.1.1-.2.1"/><path id="Fill-25" class="st5" d="M-731.3 42.5c-.1 0-.2-.1-.2-.2l.1-21c0-.1 0-1.3.9-2.1 1-.9 2.1-.8 2.1-.8l18.4.2c.1 0 1.3 0 1.9.8.6.8.6 1.7.6 1.7l-.1 16.1c0 .1-.1.2-.2.2s-.2-.1-.2-.2v-.4l.1-15.7s0-.8-.5-1.5-1.7-.7-1.7-.7l-18.4-.2s-1-.1-1.9.7c-.8.7-.8 1.8-.8 1.9l-.1 21c.1.1 0 .2 0 .2"/><path id="Fill-27" class="st5" d="M-723.7 65.5h-.1l-5.1-.1c-.1 0-1.3-.1-2-.8-.6-.7-.7-1.8-.7-1.9l.1-16.1c0-.1.1-.2.2-.2s.2.1.2.2l-.1 16.1s0 1.1.6 1.6c.6.6 1.7.7 1.7.7l5.2.1c.1 0 .2.1.2.2s-.1.2-.2.2"/><path id="Fill-29" class="st5" d="m-716.7 64.5-11.9-.2s-1 0-1.5-.6-.4-1.6-.4-1.6l.2-19.4c0-.1.1-.2.2-.2s.2.1.2.2l-.2 19.4s-.1.9.3 1.4c.4.5 1.3.5 1.3.5l11.9.2c.1 0 .2.1.2.2-.1 0-.2.1-.3.1"/><path id="Fill-31" class="st5" d="M-709.9 63.5s-.1 0 0 0l-6.4-.1c-.1 0-.2-.1-.2-.2s.1-.1.2-.1l6.4.1c.3 0 .5-.1.7-.3.2-.2.4-.6.4-.9v-5.5h.4V62c0 .4-.2.8-.5 1.1-.4.3-.7.4-1 .4"/><path id="Fill-33" class="st5" d="M-709 53.5c-.1 0-.2-.1-.2-.1l.1-4.7c0-.1.1-.1.2-.1s.2.1.2.1l-.1 4.7s-.1.1-.2.1"/><path id="Fill-35" class="st5" d="M-709 44.5c-.1 0-.2-.1-.2-.1v-2.7c0-.1.1-.1.2-.1s.2.1.2.1v2.7s-.1.1-.2.1"/><path id="Fill-37" class="st5" d="M-730.3 42.5c-.1 0-.2-.1-.2-.2l.1-20.7c0-1 .7-2 2-2.1l3.5.1c.1 0 .1 0 .1.1v.1s-.2.6.1.9c.1.2.4.3.7.3 1.3.1 8.3.2 9 .1.4 0 .7-.2.9-.4.2-.3.1-.8.1-.8v-.1l.1-.1 3.5.1s1 0 1.4.5c.5.5.5 1.4.5 1.4l-.1 15.2c0 .1-.1.2-.2.2s-.2-.1-.2-.2v-.7l.1-14.5s0-.8-.4-1.2c-.4-.4-1.2-.4-1.2-.4l-3.3-.1c0 .2 0 .6-.2.9-.2.3-.6.5-1.2.5-.7 0-7.8 0-9.1-.1-.4 0-.7-.2-.9-.5-.2-.3-.2-.7-.2-1l-3.3-.1c-1.2.1-1.6 1.2-1.6 1.8l-.1 20.7c.2.2.2.3.1.3"/><path id="Fill-39" class="st5" d="M-707 52.5c-.1 0-.1 0-.1-.1s0-.2.1-.2c.4-.2 2.2-1.9 2.6-2.6.9-1.6.8-2.7-.1-3.4-1.5-1-3.5-1.7-4.1-1.2-.6.6-.8 2 .5 3.2 1.2 1.1 1.7 1.2 2.5 1.3h.2c.1 0 .1.1.1.2s-.1.1-.2.1h-.2c-.8-.2-1.4-.3-2.7-1.4-1.4-1.2-1.2-2.9-.5-3.6.8-.8 3.2.2 4.6 1.1.8.5 1.4 1.6.2 3.8-.5.8-2.3 2.5-2.9 2.8.1 0 0 0 0 0"/><path id="Fill-41" class="st5" d="M-707.3 44.5h-.1c-.1-.1-.1-.2 0-.2 0 0 2.3-1.9 3-2.8.5-.7.6-1.3.5-1.8-.1-.4-.4-.6-.9-.8-.2-.1-.5-.2-.7-.3-.9-.4-1.6-.7-2.6-.6-.4 0-.7.3-.8.6-.4.8-.3 2.1.3 2.8.9 1.1 2 1.6 2 1.6.1 0 .1.1.1.2s-.1.1-.2.1c0 0-1.2-.5-2.1-1.7-.6-.8-.8-2.2-.3-3.1.3-.5.6-.7 1.1-.7 1.1-.1 1.9.3 2.8.7.2.1.5.2.7.3.5.2.9.6 1.1 1 .2.6 0 1.3-.5 2.1-.7 1-2.9 2.8-3 2.9-.3-.3-.3-.3-.4-.3"/><path id="Fill-43" class="st5" d="M-707.4 37.5c-.1 0-.1-.1-.1-.2.2-.8.6-1.4.9-1.9.4-.6.7-1.1.8-1.9.1-.7-.2-1.2-.4-1.4-.3-.3-.7-.4-1-.3-.1 0-.1 0-.2-.1 0-.1 0-.2.1-.2.4-.2.9 0 1.3.3.4.4.5 1 .5 1.7-.1.8-.5 1.4-.8 2-.3.5-.7 1-.9 1.8-.1.2-.1.2-.2.2"/><path id="Fill-45" class="st5" d="M-707 53.5c-.1 0-.2-.1-.2-.2l.1-3.7c0-.1.1-.1.2-.1s.2.1.2.2l-.1 3.7s-.1.1-.2.1"/><path id="Fill-47" class="st5" d="M-710.2 65.5h-.3l-13.9-.2c-.1 0-.2-.1-.2-.2s.1-.2.2-.2l13.9.2s1.2.1 1.9-.5c.6-.5.7-2 .7-2l.1-5c0-.1.1-.2.2-.2s.2.1.2.2l-.1 5c0 .1-.1 1.6-.8 2.2-.6.6-1.4.7-1.9.7"/><path id="Fill-49" class="st5" d="M-731.9 49.5c-.2-.1-.2-.2-.1-.2.9-1.2 1.3-3.3 1.1-5.4-.1-1-.4-1.9-.7-2.5-.5-.8-1.6-1.6-2.6-1.6-.5 0-.9.3-1.2.9-.2.5-.2 1-.1 1.7.1.5.1 1 .1 1.7-.1 1.6-.3 2.1-.8 3.3 0 .1-.1.1-.2.1s-.1-.1-.1-.2c.5-1.2.7-1.7.8-3.2 0-.6 0-1.2-.1-1.7-.1-.7-.2-1.3.1-1.9.4-.8 1-1 1.5-1.1 1.1-.1 2.4.8 2.9 1.7.4.7.7 1.6.8 2.6.2 2.1-.3 4.4-1.2 5.6 0 .2-.1.2-.2.2"/><path id="Fill-51" class="st5" d="M-741.2 66.5c-.1 0-.1 0-.2-.1-.3-.6-.6-1.4-1.1-2.2-.9-1.8-1.9-3.7-2.1-5.3-.4-4 2.4-9 7.7-13.4.1-.1.2-.1.2 0 .1.1.1.2 0 .2-5.1 4.3-8 9.2-7.6 13.2.2 1.5 1.2 3.4 2 5.1l1.1 2.2c.2.2.2.3 0 .3.1 0 .1 0 0 0"/><path id="Fill-53" class="st5" d="M-734.3 68.5h-.1c-.1-.1-.1-.2 0-.2 1-.8 2.4-1.2 3.4-1.5 1-.3 2.3-.7 3.3-1.2.1 0 .2 0 .2.1s0 .2-.1.2c-1 .5-2.3 1-3.3 1.2-1 .3-2.4.7-3.3 1.4h-.1"/><path id="Fill-55" class="st5" d="M-737.3 59.5c-.1 0-.2-.1-.2-.1 0-.1.1-.2.2-.2 2.5-.3 4.8-2.6 5.5-5.5 0-.1.1-.1.2-.1s.2.1.1.2c-.7 3-3.2 5.4-5.8 5.7"/><path id="Fill-57" class="st5" d="M-736.2 79.5h-.8c-1.6-.2-3.3-1.3-4.6-3.2-2.1-2.8-3.7-7.9-2.6-12.7 0-.1.1-.1.2-.1s.1.1.1.2c-1.1 4.7.5 9.6 2.5 12.4 1.3 1.8 2.9 2.9 4.4 3h.8c5 0 11.7-5.6 13.3-13.6 0-.1.1-.1.2-.1s.1.1.1.2c-1.6 8.2-8.4 13.9-13.6 13.9"/><path id="Fill-59" class="st5" d="M-737.4 88.5c-.1 0-.1-.1-.1-.2.2-.9.5-2.3.7-3.6.5-2.3 1-4.7 1-5.1 0-.1.1-.1.1-.1.1 0 .1.1.1.2 0 .4-.5 2.7-1 5.1-.3 1.3-.5 2.7-.7 3.6 0 .1 0 .1-.1.1"/><path id="Fill-61" class="st5" d="M-778.8 88.5c-.1 0-.1-.1-.1-.2 0-2.9-.5-5.2-.9-7.2-.3-1.3-.6-2.6-.6-3.8-.2-2.8.4-5 .8-6.6 0-.2.1-.4.1-.5V70c.4-1.6 1-4.3.6-8.3 0-.1.1-.2.1-.2.1 0 .2.1.2.1.4 4.1-.2 6.8-.6 8.4v.2c0 .2-.1.3-.1.5-.4 1.6-.9 3.7-.7 6.5.1 1.2.3 2.5.6 3.8.4 2 .9 4.3.9 7.3-.1.1-.2.2-.3.2"/><path id="Fill-63" class="st5" d="M-748.6 46.5c-.1 0-.1 0 0 0-1.5-1.2-2-2.8-1.8-4.9 0-.1.1-.1.2-.1s.1.1.1.2c-.2 2 .3 3.5 1.6 4.6.1.1.1.1 0 .2h-.1"/><path id="Fill-65" class="st5" d="M-739.6 48.5c-.1 0-.1 0 0 0-.3-.1-.8-.1-1.4-.1-1.2-.1-2.8-.2-4.3-.6-.1 0-.1-.1-.1-.2s.1-.1.2-.1c1.5.4 3.1.5 4.3.6.6 0 1.1.1 1.4.1.1 0 .1.1.1.2-.1.1-.2.1-.2.1"/><path id="Fill-67" class="st5" d="M-766.4 46.5c-.2-.1-.2-.2-.1-.3 1.2-1.4 2.2-4.9 1.4-10.6 0-.1 0-.2.1-.2s.2 0 .2.1c.9 5.8-.2 9.4-1.4 10.8-.1.2-.1.2-.2.2"/><path id="Fill-69" class="st5" d="M-789.3 88.5c-.1 0-.2-.1-.2-.2.3-2.7.7-5.3.9-7.9 1.3-11.5 2.4-20.6 5.9-24.9 1.8-2.3 5.4-3.8 8.9-5.3 1.4-.6 2.8-1.2 4.1-1.8.1 0 .2 0 .2.1s0 .2-.1.2c-1.3.6-2.7 1.2-4.1 1.8-3.4 1.4-7 2.9-8.8 5.2-3.4 4.2-4.5 13.3-5.8 24.7-.3 2.5-.6 5.1-1 7.9.1.1 0 .2 0 .2"/><path id="Fill-71" class="st5" d="M-753.3 18.5c-.1 0-.2-.1-.2-.2.2-1 1.3-2 2.9-1.7.1 0 .2.1.1.2 0 .1-.1.2-.2.1-1.5-.3-2.3.8-2.4 1.5-.1 0-.1.1-.2.1"/><path id="Fill-73" class="st5" d="M-769.3 39.5c-.1 0-.2-.1-.2-.2s.1-.2.2-.2c.3 0 .6-.1.7-.3.1-.1.1-.3 0-.6-.1-.2-.2-.3-.3-.5-.2-.3-.4-.6-.4-1.1 0-.6.5-.7.8-.8.3-.1.5-.1.6-.3.2-.3.1-.5-.2-.9-.2-.3-.4-.7-.2-1.1.1-.3.5-.4.7-.5.3-.1.5-.2.6-.4.1-.3 0-.6-.1-1-.2-.5-.3-1 .1-1.4.3-.3.7-.4 1.1-.6.5-.2.9-.3 1.1-.7.1-.2.1-.4.1-.6 0-.3 0-.5-.1-.8 0-.1 0-.2.1-.2s.2 0 .2.1c.1.3.1.6.1.9 0 .3 0 .5-.1.7-.2.6-.8.8-1.3.9-.4.1-.7.2-1 .5-.3.3-.2.7 0 1.1.1.4.3.8.1 1.2-.2.4-.5.5-.8.6-.3.1-.4.1-.5.3-.1.3 0 .5.2.8.2.4.5.8.2 1.2-.2.3-.5.4-.8.4-.4.1-.6.1-.6.5s.2.6.4.9c.1.1.2.3.3.5.2.3.2.6 0 .9-.2.5-.5.7-1 .7z"/><path id="Fill-75" class="st5" d="M-745.6 40.5c-.1 0-.1 0-.2-.1 0-.1 0-.2.1-.2.2-.1.4-.2.4-.3 0-.1-.1-.3-.2-.4-.2-.2-.3-.5-.2-.7.1-.3.4-.4.6-.4.1 0 .2-.1.3-.1.1-.2.1-.3-.1-.5-.1-.1-.2-.3-.2-.4 0-.2.3-.3.6-.4h.1c.1 0 .2-.2.2-.3 0-.3-.2-.5-.4-.7-.2-.2-.5-.5-.5-.8 0-.4.4-.6.7-.8.4-.2.6-.4.5-.8-.2-.5-.6-.9-1.1-1.2-.4-.3-.7-.6-1-1-.3-.5-.3-1-.4-1.6 0-.3-.1-.7-.1-1 0-.1 0-.2.1-.2s.2 0 .2.1c.1.3.1.6.2 1 0 .5.1 1.1.3 1.5.2.4.6.6.9.9.5.4 1 .8 1.2 1.4.2.6-.3.9-.6 1.1-.3.2-.5.3-.5.6 0 .2.2.4.4.6.2.2.5.5.5.9 0 .2-.1.5-.4.6h-.1c-.1 0-.2.1-.3.1 0 .1.1.2.1.3.1.2.3.5.1.9-.1.2-.3.2-.5.3-.2 0-.3.1-.3.2-.1.1.1.3.2.5.2.2.3.4.2.7-.1-.1-.3.1-.8.2.1 0 .1 0 0 0"/><path id="Fill-77" class="st5" d="M-767.1 13.5H-767.4c-.2 0-.5 0-.7-.4-.2-.4 0-.5.2-.7l.1-.1c.1-.2 0-.7-.2-.9-.1-.1-.3-.1-.5-.2-.4-.1-1-.2-1-.8 0-.4.2-.6.4-.9.2-.2.4-.4.4-.7 0-.2-.1-.4-.2-.5-.2-.4-.4-.8-.2-1.2.3-.5.8-.4 1.2-.4.4.1.6.1.7-.1.2-.3.2-.6.1-.9 0-.1-.1-.1-.2-.2-.2-.1-.4-.3-.3-.6 0-.3.3-.9.6-1 .2-.1.3 0 .5 0 .3.1.3.1.4-.1.1-.2 0-.3-.1-.5s-.2-.4-.1-.7c.3-.6.8-.5 1.1-.4.1 0 .3.1.3 0 .1-.1.2-.5.2-.8.1-.5.2-1 .5-1.2.6-.2 1 .1 1.2.2l.1.1v-.6c0-.3-.1-.6.1-.8.1-.1.3-.2.5-.1.4 0 .6.3.8.4.3.3.5.4.9.3.2-.1.2-.3.3-.6 0-.3.1-.8.6-.9.7-.1 1.2.2 1.5.8.1-.1.4-.3.7-.1.3.1.4.4.5.5.2-.1.6-.3.9-.2.2 0 .4.2.5.4.2.3.2.6.2.9 0 .2 0 .3.1.4h.3c.3-.1.4-.3.5-.6.1-.3.3-.7.8-.7.6 0 1.5.8 1.6 1.4v.4c0 .4 0 .9.4 1 .1 0 .2 0 .4-.1.3-.1.7-.3 1.1.1.5.5.3 1 .2 1.3v.1h.2c.4 0 1.1-.1 1.4.5.3.5.1.9-.1 1.1 0 .1-.1.1-.1.2 0 0 0 .1.1.1l.2-.1c.1-.1.2-.1.3-.1.5-.1.9.7 1 1 .2.5-.1 1.2-.6 1.5-.1.1-.3.1-.4.1-.1 0-.2 0-.2.2s.1.3.2.5c.1.1.1.2.2.3.1.3 0 .5-.1.6-.1.1-.1.2-.1.2 0 .2.1.3.1.5.1.2.2.4.1.6-.1.2-.2.3-.5.4-.1 0-.1 0-.2.1h-.1c-.1 0-.2 0-.2-.1s0-.2.1-.2.1 0 .2-.1h.1c.2-.1.3-.2.3-.2 0-.1 0-.2-.1-.4s-.2-.4-.2-.7c0-.1.1-.2.2-.3.1-.2.1-.2.1-.3 0-.1-.1-.2-.2-.2-.1-.2-.3-.4-.3-.8.1-.3.3-.4.4-.4.1 0 .2 0 .3-.1.3-.2.5-.8.4-1.1-.1-.3-.4-.8-.7-.8-.1 0-.1.1-.2.1-.1.1-.3.2-.5.1-.1 0-.2-.1-.3-.2-.1-.2 0-.4.1-.5.1-.2.3-.4 0-.7-.2-.4-.8-.4-1.1-.3-.3 0-.4 0-.5-.1-.1-.1 0-.3 0-.4.1-.3.2-.6-.1-.9-.3-.3-.5-.2-.8-.1-.2.1-.4.2-.7.1-.5-.2-.6-.8-.6-1.3v-.4c-.1-.4-.9-1.1-1.3-1.1-.3 0-.4.2-.5.5-.1.3-.3.7-.7.8-.3.1-.4 0-.5-.1-.2-.1-.2-.4-.2-.6 0-.2 0-.5-.2-.7l-.3-.3c-.3-.1-.7.2-.8.3h-.2c-.1 0-.1-.1-.1-.2s-.1-.3-.3-.4c-.2-.1-.3 0-.4.1-.1.1-.2.1-.3.1 0 0-.1 0-.2-.1-.3-.6-.7-.9-1.2-.8-.3.1-.3.2-.3.6 0 .3-.1.7-.5.9-.6.2-1-.1-1.2-.3-.2-.2-.4-.3-.7-.4h-.2c-.1.1-.1.3 0 .5v.7c0 .1-.1.2-.2.3-.1.1-.3 0-.4-.1-.2-.2-.5-.4-.9-.2-.2.1-.3.5-.3.9-.1.4-.1.8-.3 1-.2.2-.4.1-.6.1-.4-.1-.6-.1-.7.2-.1.1 0 .2.1.4s.2.4.1.7c-.2.4-.6.3-.8.3-.1 0-.2-.1-.3 0-.2.1-.4.6-.4.8 0 .1.1.2.2.3.1.1.2.1.3.3.2.3.2.8-.1 1.2-.2.3-.6.3-1 .2-.5-.1-.7-.1-.9.2-.1.2 0 .5.2.9.1.2.2.4.3.7.1.4-.2.7-.4.9-.2.2-.4.4-.3.6 0 .4.3.5.8.6.3.1.5.1.7.3.2.2.4.9.2 1.3l-.2.2c-.1.1-.1.1-.1.3.1.2.2.2.4.2.1 0 .3 0 .5.1.1.1.1.2 0 .2.1-.1.1-.1 0-.1"/><path id="Fill-79" class="st5" d="M-756 43.5c-3.5 0-6.5-2.9-7.5-5 0-.1 0-.2.1-.2s.2 0 .2.1c.9 2 3.8 4.8 7.2 4.8h.2c2.8-.1 4.7-1.5 6.5-4.7 1.1-1.9 1.5-4.7 1.5-5.8 0-.1.1-.2.2-.2s.2.1.2.2c0 1.1-.5 4-1.5 5.9-1.9 3.4-3.8 4.8-6.7 4.9h-.4"/><path id="Fill-81" class="st5" d="M-747.3 34.5h-.1c-.1 0-.1-.1-.1-.2s.1-.1.2-.1c0 0 .2 0 .4-.1.6-.3 1.6-1.3 1.9-2.5.2-.8.3-1.8-.2-2.4-.2-.3-.6-.4-1.2-.4-.1 0-.2-.1-.2-.2s.1-.2.2-.2c.6 0 1.1.1 1.4.5.6.7.5 1.8.3 2.7-.3 1.3-1.4 2.3-2 2.7-.2.1-.4.2-.6.2"/><path id="Fill-83" class="st5" d="M-745.7 28.5c-2.6-.9-2.9-2.3-3.5-4.7-.2-.6-.3-1.3-.5-2.1-.4-1.4-1.2-3-2.6-2.9-.1 0-.2-.1-.2-.1 0-.1.1-.2.2-.2 1.3 0 2.3 1.1 3 3.2.2.8.4 1.5.6 2.1.6 2.3.9 3.6 3.2 4.4.1 0 .1.1.1.2-.1.1-.2.1-.3.1"/><path id="Fill-85" class="st5" d="M-766.5 27.5c-.3 0-.6 0-.8-.1-.1 0-.1-.1-.1-.2s.1-.1.2-.1c2.8.7 5.4-2.7 6.8-5.8 1-2.3 1.8-3.3 2.8-3.7.6-.2 1.3-.1 2.1.3.1 0 .1.1.1.2s-.1.1-.2.1c-.7-.4-1.3-.4-1.9-.3-.9.3-1.7 1.4-2.6 3.5-1.4 3-3.8 6.1-6.4 6.1"/><path id="Fill-87" class="st5" d="M-752.3 26.5c-.1 0-.1 0-.2-.1 0-.1 0-.2.1-.3.7-.4 2.4-1.1 3.8-.1.1.1.1.2 0 .3-.1.1-.2.1-.2.1-1.2-1-2.8-.3-3.5.1"/><path id="Fill-89" class="st5" d="M-762.3 27.5c-.1 0-.1 0-.1-.1v-.3c1.2-1 3.4-.7 3.9-.2.1.1.1.2 0 .3-.1.1-.2.1-.2 0-.4-.4-2.4-.6-3.6.3"/><path id="Fill-91" class="st5" d="M-755.4 34.5s-.1 0-.1-.1 0-.2.1-.2c.4-.2.6-.4.6-.6.1-.3 0-.5-.2-.9-.2-.6-.5-1.2-.2-2.1 0-.1.1-.1.2-.1s.1.1.1.2c-.3.8 0 1.4.2 1.9.2.4.3.8.2 1.1-.1.3-.4.6-.9.8.1 0 0 0 0 0"/><path id="Fill-93" class="st5" d="M-749.5 30.5c0-.6-.4-1-1-1s-1 .4-1 1 .4 1 1 1c.5 0 1-.4 1-1"/><path id="Fill-95" class="st5" d="M-744.4 29.5c-.1 0-.1 0 0 0-.2-.1-.2-.2-.1-.2 2.6-4.2 2-10.5.1-14.3-1.8-3.5-4.3-4.6-5.8-4-.1 0-.2 0-.2-.1s0-.2.1-.2c1.6-.7 4.3.3 6.2 4.1 1.9 3.9 2.6 10.3-.1 14.6-.1.1-.2.1-.2.1"/><path id="Fill-97" class="st5" d="M-768.9 28.5c-.1 0-.1 0-.1-.1-1.3-2-2.6-8 .1-12.5 2.4-4 5.3-5.6 7.8-6.7 2.1-.9 5.4-.9 7.2 0 .7.4 1.2.9 1.4 1.4 0 .1 0 .2-.1.2s-.2 0-.2-.1c-.1-.5-.5-.9-1.2-1.2-1.8-.9-5-.9-7 0-2.5 1.1-5.3 2.7-7.7 6.6-2.7 4.4-1.4 10.2-.1 12.2.1 0 .1.1-.1.2.1 0 0 0 0 0"/><path id="Fill-99" class="st5" d="M-766.1 34.5c-.4 0-.8-.1-1.2-.4-1.2-.7-1.9-2.3-2.1-3.4-.3-1.2-.1-2.2.5-2.8.5-.5 1.2-.6 2.1-.4.1 0 .2.1.1.2 0 .1-.1.1-.2.1-.8-.2-1.4-.1-1.8.3-.5.5-.6 1.3-.4 2.4.3 1.1 1 2.6 2 3.2.4.3.9.4 1.4.3.1 0 .2 0 .2.1s0 .2-.1.2c-.2.2-.3.2-.5.2"/><path id="Fill-101" class="st5" d="M-758.5 30.5c0-.6-.4-1-1-1s-1 .4-1 1 .4 1 1 1 1-.4 1-1"/><path id="Fill-103" class="st5" d="M-758.1 37.9c.2.6.8 2.3 2.6 2.3s2.4-1.7 2.6-2.3c-.4.1-1.3.2-2.4.2-1.1 0-2.3-.1-2.8-.2m2.7 2.6s-.1 0 0 0c-2.5-.1-3.1-2.7-3.1-2.8v-.1s.1-.1.1 0c0 0 1.6.2 3 .2 1.6 0 2.6-.2 2.6-.2h.1s.1.1 0 .1c.2 0-.3 2.8-2.7 2.8"/><path id="Fill-105" class="st5" d="M-766.6 32.5s-.1 0-.1-.1c-.2-.5-.5-1.2-.7-1.5-.1-.1-.1-.2 0-.3 0-.1.1-.1.2-.1.3.4.7 1.1.8 1.7-.1.1-.1.2-.2.3"/><path id="Fill-107" class="st5" d="M-763.3 89.5c-.1 0-.2-.1-.2-.2.1-1.9.1-3.4.2-4.9.1-2.7.1-5.1.4-8.1l.1-.8c.4-4.3.6-7.1 1.9-9.3.6-1.1 1.5-2.3 2.7-3.9l.7-.9c1-1.3 2.2-2.8 3.3-4.5 2.3-3.4 5.1-7.8 5.5-12.3 0-.1.1-.2.2-.1.1 0 .2.1.1.2-.4 4.6-3.1 9.1-5.5 12.5-1.1 1.6-2.3 3.1-3.3 4.5l-.7.9c-1.2 1.6-2.1 2.8-2.7 3.8-1.3 2.2-1.5 5-1.9 9.2l-.1.8c-.3 3-.3 5.3-.4 8.1 0 1.4-.1 3.1-.2 4.9 0 0 0 .1-.1.1"/><path id="Fill-109" class="st5" d="M-761.7 69.5c-.1 0-.1 0-.1-.1-5.3-7.8-7.2-18.5-4.4-24.8 0-.1.1-.1.2-.1s.1.1.1.2c-2.7 6.3-.8 16.8 4.4 24.5 0 .1 0 .2-.2.3.1 0 .1 0 0 0"/><path id="Fill-111" class="st5" d="M-765.6 62.5c-.1 0-.1 0-.1-.1-.5-.7-1.2-1.1-1.8-1.5-.7-.4-1.3-.8-1.6-1.4-.2-.4 0-1 .2-1.5s.4-1 .2-1.3c-.2-.2-1.1-.7-2.1-1.2-2.3-1.2-3.8-2-3.7-2.7.1-.6.5-1 1.2-1.5.5-.5 1.2-1.1 2-2.1.5-.6.9-1.1 1.4-1.7 1.2-1.4 2.3-2.7 2.8-3.9.7-1.7 2-2 2.5-2.1.1 0 .2.1.2.1 0 .1-.1.2-.1.2-.4 0-1.6.3-2.2 1.9-.5 1.3-1.6 2.5-2.8 4-.4.5-.9 1.1-1.4 1.7-.8 1-1.5 1.7-2 2.1-.6.5-1 .9-1.1 1.4-.1.5 2.1 1.6 3.6 2.4 1.1.5 1.9 1 2.2 1.3.4.4.1 1-.1 1.6-.2.5-.4.9-.3 1.2.3.5.8.9 1.5 1.3.6.4 1.3.9 1.9 1.6-.2 0-.2.1-.4.2.1 0 0 0 0 0"/><path id="Fill-113" class="st5" d="M-742.7 52.5s-.1 0-.1-.1c-.4-.5-1-1.1-1.6-2-.9-1.3-1.8-3.7-2.3-5-.1-.2-.2-.5-.2-.6-.6-1.6-1.4-2.5-2.6-3-.1 0-.1-.1-.1-.2s.1-.1.2-.1c1.2.5 2.1 1.5 2.7 3.2.1.2.1.4.2.6.5 1.3 1.4 3.7 2.2 4.9.6.8 1.1 1.4 1.5 1.9.1.1.1.2 0 .2.2.2.2.2.1.2"/><path id="Fill-115" class="st5" d="M-757.3 63.5c-.1 0-.1 0 0 0-.2-.1-.2-.2-.1-.3 1.1-1.6 1.6-1.8 2.6-2.3.4-.2 1-.4 1.6-.8.5-.3.6-.9.8-1.5.2-.7.3-1.4 1.1-1.9.6-.4 2.3-.8 4.1-1.3 1.3-.3 2.6-.7 3.6-1 .1 0 .2 0 .2.1s0 .2-.1.2c-1 .3-2.3.7-3.6 1-1.8.5-3.4.9-4 1.3-.6.4-.8 1-.9 1.7-.1.6-.3 1.3-.9 1.7-.7.4-1.2.6-1.7.8-1 .4-1.5.7-2.5 2.1-.1.2-.2.2-.2.2"/><path id="Fill-117" class="st5" d="M-735.8 72.5c-1.7 0-3.3-.6-4.1-1.1-2.5-1.9-2.7-5.2-2.6-6.9v-.9c.1 0 .1-.1.2 0s.1.1.1.6v.4c-.1 1.7.1 4.8 2.5 6.7 1 .8 3.5 1.5 5.9.8 2-.6 3.3-2.2 4-4.6 0-.1.1-.1.2-.1s.1.1.1.2c-.8 3.2-2.7 4.4-4.2 4.8-.7 0-1.4.1-2.1.1"/><path id="Fill-119" class="st6" d="M-708.4 18c1.1.1 1.7.6 2.3 1.3.6.7 1.1 1.7 1.4 2.2.1.1.4-.4.8-.8.5-.5 1.1-.9 1.3-1 .3-.2-1.4-.1-1.8-.5-.3-.3 1-1.7.8-2-.2-.2-1.8.8-2.3.4-.4-.4.3-2.6.1-3.2 0-.1-1.6 2.6-1.9 2.6-.3 0-.7-.9-.8-.8 0 .1-.1 1.8.1 1.8"/><g id="Group-123" transform="translate(80 15)"><defs><filter id="Adobe_OpacityMaskFilter" filterUnits="userSpaceOnUse" x="-789.3" y="-1.2" width="6.5" height="7.2"><feColorMatrix values="1 0 0 0 0 0 1 0 0 0 0 0 1 0 0 0 0 0 1 0"/></filter></defs><mask maskUnits="userSpaceOnUse" x="-789.3" y="-1.2" width="6.5" height="7.2" id="mask-2_1_"><g filter="url(#Adobe_OpacityMaskFilter)"><path id="path-1_1_" class="st3" d="M-789.3-1.2h6.5v7.3h-6.5z"/></g></mask><path id="Fill-121" d="M-789 2.3c1 .1 1.7.5 2.4 1.3.5.6 1 1.4 1.4 2.1l.2-.2.5-.5c.3-.3.8-.6 1.1-.8h-.1c-.6-.1-1.2-.1-1.4-.3-.3-.2 0-.8.4-1.4.1-.2.3-.4.4-.6-.1 0-.4.1-.6.2-.7.2-1.3.5-1.7.2-.3-.3-.2-.9 0-1.9.1-.3.1-.7.1-.9-.1.2-.3.4-.4.6-.9 1.4-1.2 1.7-1.4 1.7-.3 0-.5-.3-.7-.6l-.1-.1c-.1.3-.1 1-.1 1.2zm3.9 3.7c-.1 0-.1.1-.2 0-.1 0-.1-.1-.1-.1-.5-.9-1-1.7-1.4-2.2-.6-.7-1.3-1.1-2.3-1.2-.2 0-.2-.2-.2-.3 0-.1-.1-1.6.2-1.7.2-.1.3.1.5.4.1.1.3.4.4.4.2-.1.8-1 1.2-1.6.7-1 .7-1 .8-1 .1 0 .1.1.1.1.1.3 0 .8-.1 1.5-.1.6-.3 1.4-.1 1.6.2.2.9-.1 1.3-.2.6-.2.9-.3 1-.1.1.2 0 .5-.4 1-.2.3-.5.8-.5.9.2.1.9.2 1.3.3.5.1.7.1.7.2 0 0 0 .1-.1.2-.2.1-.8.5-1.3.9-.2.2-.4.3-.5.5-.1.3-.2.4-.3.4z" mask="url(#mask-2_1_)" fill-rule="evenodd" clip-rule="evenodd" fill="#2f3541"/></g><path id="Fill-124" class="st5" d="M-707.6 60.5c-.1 0-.1 0-.1-.1s0-.2.1-.2c.3-.2 1.8-1.5 2.3-2.1.4-.5 1.1-2.1-.1-3.1-1.2-.9-2.9-1.6-3.3-1.1-.5.5-.6 1.8.4 2.9 1 1 1.4 1.1 2 1.2h.2c.1 0 .1.1.1.2s-.1.1-.2.1h-.2c-.6-.1-1.1-.3-2.2-1.3-1.2-1.1-1-2.6-.4-3.3.7-.8 2.6.1 3.8 1 1.3 1 .8 2.6.2 3.5-.6.7-2.1 2.1-2.6 2.3.1 0 0 0 0 0"/><path id="Fill-126" class="st9" d="M-726.2 56.5c0 .9.8 1.7 1.7 1.7 1 0 1.8-.8 1.8-1.7 0-1-.8-1.8-1.8-1.8-1 .1-1.7.8-1.7 1.8m1.7 2c-1.1 0-2-.9-2-2s.9-2 2.1-2c1.1 0 2 .9 1.9 2 0 1.1-.9 2-2 2"/><path id="Fill-128" class="st9" d="M-713.5 54.8c-1 0-1.8.8-1.8 1.8 0 .9.8 1.7 1.7 1.7 1 0 1.8-.8 1.8-1.7 0-1.1-.7-1.8-1.7-1.8m0 3.7c-1.1 0-2-.9-2-2s.9-2 2-2 2 .9 2 2-.9 2-2 2"/><path id="Fill-130" class="st9" d="M-717.6 57c0 .3-.2.4-.4.4-.3 0-.4-.2-.4-.4s.2-.4.4-.4c.3 0 .4.1.4.4"/><path id="Fill-132" class="st9" d="M-721 56.6c.3.1.4.2.4.4s-.2.4-.4.4c-.3 0-.4-.2-.4-.4 0-.3.2-.4.4-.4"/><path id="Fill-134" class="st9" d="M-719.6 57c0 .3-.2.4-.4.4-.3 0-.4-.2-.4-.4 0-.3.2-.4.4-.4.3 0 .4.2.4.4"/><path id="Fill-136" class="st9" d="M-717 56.6c.2 0 .4.2.4.4 0 .3-.2.4-.4.4-.3 0-.4-.1-.4-.4 0-.3.2-.4.4-.4"/><path id="Fill-138" class="st9" d="M-719 56.6c.2 0 .4.1.4.4 0 .3-.1.4-.4.4-.2 0-.4-.1-.4-.4 0-.2.1-.4.4-.4"/><path id="Fill-140" d="M-723.3 57.2c.6 0 .8-.3.6-.8-.1-.2-.2-.4-.4-.6-.7-.5-1.8-.6-2.5-.1-.3.2-.5.4-.6.8-.1.3.1.6.4.6.4.1.8-.1.8-.4 0-.4.3-.4.6-.4.4 0 .6.1.6.4 0 .4.2.5.5.5m-3.2-.7c0-1.1.9-2 2-2s2 .9 2 2-.9 2-2 2-2-.9-2-2" fill-rule="evenodd" clip-rule="evenodd" fill="#f39083"/><path id="Fill-142" d="M-712.8 58c.1 0 .3 0 .5-.1.3-.2.4-.4.3-.7-.2-.4-.6-.6-.8-.4-.3.2-.5 0-.6-.1-.3-.3-.3-.5-.1-.8.2-.2.2-.4 0-.7-.1-.2-.3-.4-.6-.4s-.4.3-.5.5c0 .1 0 .1-.1.2-.4 1.2.7 2.5 1.9 2.5m-.7-3.5c1.1 0 2 .9 2 2s-.9 2-2 2-2-.9-2-2 .9-2 2-2" fill-rule="evenodd" clip-rule="evenodd" fill="#bedca7"/><path id="Fill-144" class="st9" d="M-724 57.2c.1 0 .2 0 .2-.1.1-.1 0-.3-.1-.4-.4-1-1.9-1.1-2.3-.1-.1.1-.1.3-.1.4.1.1.2.1.3.1.1 0 .2-.1.2-.3 0-.1 0-.3.1-.4.4-.5 1.2-.2 1.3.5.2.2.3.3.4.3m0 .3c-.2 0-.4-.1-.5-.5-.1-.4-.2-.5-.5-.5-.2 0-.4 0-.5.5 0 .4-.3.5-.7.4-.3-.1-.4-.3-.3-.7.1-.4.3-.7.5-.9.6-.5 1.5-.5 2.1.1.2.2.3.4.4.6.1.7-.1 1-.5 1"/><path id="Fill-146" class="st9" d="M-713.4 57.2h.1c.2 0 .3 0 .4-.2.1-.1-.1-.2-.2-.3-.2-.1-.3-.1-.4 0-.1.1-.2.1-.3.1-.7-.1-1.1-.9-.8-1.5.1-.2 0-.4-.2-.5-.2-.1-.3.1-.3.2s-.1.2-.1.3c-.1.9.9 1.9 1.8 1.9m.1.3c-1.2 0-2.4-1.3-2.1-2.4 0-.1 0-.1.1-.2.1-.2.2-.4.5-.5.3 0 .5.2.6.4.2.2.1.4 0 .6-.2.3-.2.5.2.7.2.2.4.3.7.1.3-.2.7 0 .9.3.2.3.1.5-.3.7-.3.3-.5.3-.6.3"/><path id="Fill-148" class="st3" d="M-722.8 56.5c-.2 0-.3-.1-.3-.2-.2-.5-1.2-.7-1.6-.4-.1.1-.1.2-.1.3 0 .1-.1.2-.2.2s-.3 0-.4-.1c-.1-.1 0-.2.1-.3.6-.8 2.3-.7 2.8 0 .1.1.1.2.1.3-.2.2-.3.2-.4.2"/><path id="Fill-150" class="st3" d="M-713 57.5c-.8 0-1.6-.8-1.5-1.6 0-.1 0-.2.1-.2.1-.1.1-.3.3-.2.2.1.3.3.2.4-.3.5.1 1.2.7 1.2.1 0 .2 0 .3-.1.1-.1.2-.1.4 0 .1.1.2.2.1.3-.1.1-.2.1-.4.2h-.2"/><path id="Fill-152" class="st5" d="M-719 28.6c-4.6 0-8.4 3.8-8.4 8.4 0 4.6 3.8 8.4 8.4 8.4 4.6 0 8.4-3.8 8.4-8.4 0-4.6-3.8-8.4-8.4-8.4m0 16.9c-4.7 0-8.5-3.8-8.5-8.5s3.8-8.5 8.5-8.5 8.5 3.8 8.5 8.5-3.8 8.5-8.5 8.5"/><path id="Fill-154" class="st5" d="M-719 28.8c-4.5 0-8.2 3.7-8.2 8.2 0 4.5 3.7 8.2 8.2 8.2 4.5 0 8.2-3.7 8.2-8.2 0-4.5-3.7-8.2-8.2-8.2m0 16.7c-4.7 0-8.5-3.8-8.5-8.5s3.8-8.5 8.5-8.5 8.5 3.8 8.5 8.5-3.8 8.5-8.5 8.5"/><path id="Fill-156" class="st12" d="M-712.2 34.7c0 .1.1.1 0 0 .1 0 0 0 0 0m.1.1c.1.1.1.1 0 .1v-.1h-.1v.1-.3h.1c.1 0 .1 0 .1.1l-.1.1m.1 0c0-.1-.1-.2-.2-.3-.1 0-.2.1-.3.2 0 .1.1.2.2.3.2 0 .3-.1.3-.2m.1 0c0 .2-.1.3-.3.3-.2 0-.3-.1-.3-.3 0-.2.1-.3.3-.3.1 0 .2 0 .2.1.1 0 .1.1.1.2"/><path id="Fill-158" class="st12" d="M-718.9 36.9c-.2.1-.4.1-.6.1h-1v-1.6h1c.2 0 .4 0 .6.1.2.1.3.3.3.7.1.4-.1.6-.3.7m-4-1.5h1.5v4c0 .1.1.1.1.1h.8c.1 0 .1 0 .1-.1V38h1.1c.4 0 .8-.1 1.1-.3.4-.3.7-.9.7-1.4 0-.5-.2-1-.6-1.4-.3-.3-.8-.4-1.2-.4h-6.1c-.1 0-.1.1-.1.1v.7c0 .1.1.1.1.1h1.5v4c0 .1.1.1.1.1h.8c.1 0 .1-.1.1-.1v-4"/><path id="Fill-160" class="st6" d="M-716.4 34.5h2.3s.1 0 .1.1l1.4 2.3v.2l-1.4 2.3-.1.1h-2.3s-.1 0-.1-.1v-.7c0-.1 0-.1.1-.1h2l1-1.6-1-1.6h-2s-.1 0-.1-.1l.1-.8c-.1 0-.1 0 0 0"/></g></g></g></svg>