<svg xmlns="http://www.w3.org/2000/svg" viewBox="0 0 750 471">
  <path fill="#0a2540" d="M680 239.7c0-43.4-21-77.6-61.2-77.6-40.3 0-64.7 34.2-64.7 77.3 0 51 28.8 76.8 70.2 76.8 20.2 0 35.4-4.6 46.9-11v-33.9c-11.5 5.8-24.7 9.3-41.5 9.3-16.4 0-31-5.8-32.9-25.8h82.9c0-2.2.3-11 .3-15.1zm-83.7-16.1c0-19.1 11.7-27.1 22.4-27.1 10.3 0 21.4 8 21.4 27.1h-43.8zm-107.6-61.5c-16.6 0-27.3 7.8-33.2 13.2l-2.2-10.5H416v197.6l42.4-9 .2-48c6.1 4.4 15.1 10.7 30 10.7 30.3 0 58-24.4 58-78.1-.3-49.1-28.2-75.9-57.9-75.9zm-10.2 116.8c-10 0-15.9-3.6-20-8l-.2-62.9c4.4-4.9 10.5-8.3 20.2-8.3 15.4 0 26.1 17.3 26.1 39.5 0 22.7-10.5 39.7-26.1 39.7zM357.7 152.1l42.5-9.1v-34.4l-42.5 9zm0 12.9h42.5v148.3h-42.5zm-45.6 12.5l-2.7-12.5h-36.6v148.3h42.4V212.8c10-13 26.9-10.7 32.2-8.8v-39c-5.4-2-25.3-5.8-35.3 12.5zm-84.7-49.3l-41.3 8.8-.2 135.7c0 25.1 18.8 43.5 43.9 43.5 13.9 0 24.1-2.5 29.7-5.6v-34.4c-5.4 2.2-32.2 10-32.2-15.1v-60.2h32.2V165h-32.2l.1-36.8zM112.9 208c0-6.6 5.4-9.1 14.4-9.1 12.9 0 29.1 3.9 42 10.8v-39.8c-14.1-5.6-28-7.8-42-7.8-34.4 0-57.3 18-57.3 48 0 46.8 64.4 39.3 64.4 59.5 0 7.8-6.8 10.3-16.3 10.3-14.1 0-32-5.8-46.3-13.6v40.3c15.8 6.8 31.7 9.7 46.3 9.7 35.2 0 59.5-17.5 59.5-47.8-.2-50.5-64.7-41.5-64.7-60.5z"/>
</svg>