<svg xmlns="http://www.w3.org/2000/svg" viewBox="0 0 750 471">
  <path d="M72 27.2h606c39.8 0 72 32.2 72 72v272.6c0 39.8-32.2 72-72 72H72c-39.8 0-72-32.2-72-72V99.2c0-39.8 32.2-72 72-72z" fill="#ffb3c7"/>
  <path d="M675.5 262.9c-9.8 0-17.8 8-17.8 17.9 0 9.9 8 17.9 17.8 17.9s17.8-8 17.8-17.9c-.1-9.9-8-17.9-17.8-17.9zM617 249c0-13.6-11.5-24.5-25.6-24.5s-25.7 11-25.7 24.5c0 13.6 11.5 24.5 25.7 24.5S617 262.6 617 249zm.1-47.7h28.3v95.4h-28.3v-6.1c-8 5.5-17.7 8.7-28.1 8.7-27.6 0-49.9-22.5-49.9-50.3s22.3-50.3 49.9-50.3c10.4 0 20.1 3.2 28.1 8.7v-6.1zm-226.5 12.4v-12.4h-29v95.4h29v-44.5c0-15 16.1-23.1 27.3-23.1h.3v-27.8c-11.4 0-21.9 5-27.6 12.4zM318.4 249c0-13.6-11.5-24.5-25.6-24.5-14.2 0-25.6 11-25.6 24.5 0 13.6 11.5 24.5 25.6 24.5 14.1.1 25.6-10.9 25.6-24.5zm.1-47.7h28.3v95.4h-28.3v-6.1c-8 5.5-17.6 8.7-28.1 8.7-27.6 0-49.9-22.5-49.9-50.3 0-27.8 22.3-50.3 49.9-50.3 10.4 0 20.1 3.2 28.1 8.7v-6.1zm170.4-2.6c-11.3 0-22 3.5-29.2 13.3v-10.7h-28.2v95.4H460v-50.1c0-14.5 9.6-21.6 21.2-21.6 12.4 0 19.6 7.5 19.6 21.4v50.3h28.3V236c.1-22.2-17.4-37.3-40.2-37.3zm-289.6 98h29.6V158.8h-29.6v137.9zm-130.1 0h31.4v-138H69.2v138zm109.7-137.9c0 29.9-11.5 57.7-32.1 78.3l43.4 59.7h-38.8l-47.1-64.9 12.2-9.2c20.2-15.2 31.7-38.6 31.7-63.9h30.7z" fill="#0a0b09" transform="translate(4.414 8.4)"/>
</svg>