<svg version="1.1" id="Layer_1" xmlns="http://www.w3.org/2000/svg" x="0" y="0" viewBox="0 0 750 471" xml:space="preserve"><style>.st1{fill:#6ec5d1}</style><path d="M50 0h650c27.6 0 50 22.4 50 50v370.9c0 27.6-22.4 50-50 50H50c-27.6 0-50-22.4-50-50V50C0 22.4 22.4 0 50 0z" fill="#383c59"/><path class="st1" d="m354.5 156-17.8-10.3v41.1l17.8-10.2 17.8-10.3-17.8-10.3z"/><path d="M316.1 222.4V110.1l97.3 56.2-76.8 44.3v21.6c0 .9 1 1.5 1.8 1.1l114.3-66c.8-.4.8-1.6 0-2L297.3 75.5c-.8-.4-1.8.1-1.8 1.1V256c0 .9 1 1.5 1.8 1.1l18.8-10.9v-23.8zM167 267.6h25.1c6.8 0 12.2 1.8 16.2 5.3 4 3.6 6.1 8.5 6.1 14.8 0 6.5-2 11.5-6.1 15-4 3.5-9.4 5.2-16.3 5.2h-12.1v19.4h-13l.1-59.7zm23.2 29.5c7.3 0 11-3.1 11-9.3 0-3.5-1-5.9-2.9-7.2-2-1.3-4.6-2-8.1-2H180v18.6l10.2-.1zm30.1-10.8h12.5v5.9c1.7-2 3.9-3.5 6.9-4.5 2.9-1.1 6.3-1.6 10.1-1.6v9.8c-3.9 0-7.4.6-10.3 1.8-3 1.2-5.1 3-6.1 5.4v24.1h-12.9l-.2-40.9zm43.5 39.6c-3.7-1.8-6.6-4.4-8.6-7.6-2-3.3-3-7.1-3-11.5 0-4.3 1-8 3-11.3s4.9-5.9 8.6-7.7c3.7-1.8 8.1-2.8 13-2.8s9.2.9 12.9 2.8c3.7 1.9 6.6 4.4 8.6 7.7s3 7.1 3 11.3c0 4.4-1 8.2-3 11.5s-4.9 5.8-8.6 7.6c-3.7 1.8-8 2.7-13 2.7-4.8-.1-9.1-1-12.9-2.7zm21.4-10.6c2-2.1 3-5 3-8.5 0-3.7-1-6.5-3-8.6-2-2-4.8-3.1-8.3-3.1-3.6 0-6.3 1.1-8.4 3.1s-3 4.9-3 8.6c0 3.6 1.1 6.3 3.1 8.5 2 2.1 4.8 3.2 8.3 3.2s6.3-1.1 8.3-3.2zm85.3 7.6c-4.5-3.7-6.8-9.1-6.8-15.9s2-12.1 6.1-16c4-3.9 9.7-5.9 17.2-5.9 4.9 0 9.1.9 12.5 2.8s6 4.4 7.8 7.6 2.7 6.9 2.7 10.9v5.2h-33.8c.9 5.3 5.8 7.8 14.7 7.8 2.6 0 5.3-.3 8.1-.7 2.8-.4 5.2-1.1 7.2-1.9v9.1c-2 .9-4.5 1.5-7.7 2-3.1.5-6.2.8-9.4.8-8-.2-14.1-2-18.6-5.8zm27.1-19.8c-.2-2.8-1.2-4.8-3-6.3-1.9-1.5-4.5-2.2-7.8-2.2-3.2 0-5.8.8-7.7 2.3-1.9 1.5-2.9 3.7-3 6.3l21.5-.1zm19.4-16.8h12.5v5.1c1.9-2.1 4.1-3.7 6.7-4.7s5.3-1.6 8.2-1.6c5.6 0 9.7 1.5 12.5 4.5s4.1 7 4.1 12.1v25.7h-12.8v-24.2c0-5.3-2.4-7.9-7.3-7.9-2.1 0-4.2.5-6.1 1.6s-3.5 2.6-4.8 4.6v25.9h-13v-41.1zm59.5 41.3c-3.5-.6-6.2-1.6-8.2-2.8v-10.1c2.3 1.3 5 2.5 8.2 3.3 3.2.9 6.1 1.2 8.9 1.2 2.3 0 4-.2 5.1-.6s1.6-1.2 1.6-2.2c0-.9-.4-1.5-1-2s-1.6-1.1-2.9-1.4c-1.2-.4-3.4-1.1-6.3-2-3.5-1.1-6.1-2-8.2-3.1-2-1.1-3.5-2.4-4.5-4s-1.5-3.7-1.5-6.1c0-4.3 1.7-7.5 5.1-9.6s8-3.2 13.8-3.2c2.9 0 5.8.3 8.8.9s5.4 1.3 7 2.3v9.8c-1.7-1.1-3.8-2-6.4-2.7-2.7-.7-5.3-1-7.8-1-2.3 0-4.1.3-5.4.7-1.2.4-2 1.3-2 2.6 0 1.1.6 1.9 1.9 2.5 1.2.5 3.5 1.2 6.9 2.1l1.7.4c3.6 1 6.4 2 8.4 3.2s3.4 2.6 4.2 4.2c.8 1.6 1.2 3.7 1.2 6.1 0 3.7-1.6 6.8-4.9 9s-7.9 3.4-14.1 3.4c-2.9 0-6.2-.2-9.6-.9zm38.1-49.6c-1.3-1.3-2-2.9-2-5 0-2 .7-3.6 2-4.9s3-2 5.1-2c2 0 3.7.7 5.1 2 1.3 1.3 2 2.9 2 4.9s-.7 3.7-2 5-3 2-5.1 2-3.8-.6-5.1-2zm-1.4 8.3h13v41h-13v-41zm32.3 39.6c-3.7-1.8-6.6-4.4-8.6-7.6-2-3.3-3-7.1-3-11.5 0-4.3 1-8 3-11.3s4.9-5.9 8.6-7.7c3.7-1.8 8.1-2.8 13-2.8s9.2.9 12.9 2.8c3.7 1.8 6.6 4.4 8.6 7.7s3 7.1 3 11.3c0 4.4-1 8.2-3 11.5s-4.9 5.8-8.6 7.6c-3.7 1.8-8 2.7-13 2.7-4.8-.1-9.2-1-12.9-2.7zm21.3-10.6c2-2.1 3-5 3-8.5 0-3.7-1-6.5-3-8.6-2-2-4.8-3.1-8.3-3.1-3.6 0-6.3 1.1-8.4 3.1s-3 4.9-3 8.6c0 3.6 1.1 6.3 3.1 8.5 2 2.1 4.8 3.2 8.3 3.2s6.2-1.1 8.3-3.2zm-211.3-20c-1.8-3.3-4.4-5.8-7.7-7.6-3.3-1.8-7-2.7-11.3-2.7-6.1 0-11.2 2-15.3 5.8v-4.5h-12.5v66.1l12.9-7.5v-21.4c1.8 1.6 4 2.9 6.7 3.7 2.6.9 5.3 1.2 8.3 1.2 4.3 0 8-.9 11.3-2.8s5.8-4.5 7.7-7.8c1.8-3.3 2.8-7.1 2.8-11.3-.1-4.1-1.1-7.9-2.9-11.2zm-13.7 20c-2.2 2.1-5 3.2-8.5 3.2-2.7 0-5.1-.7-7.2-2.1s-3.7-3.3-4.5-5.7v-7.8c.9-2.3 2.4-4.2 4.5-5.6s4.5-2.1 7.1-2.1c3.5 0 6.3 1.1 8.5 3.1 2.2 2.1 3.3 4.9 3.3 8.5s-1 6.3-3.2 8.5z" fill="#fff"/><path class="st1" d="M262.7 369.3H280v3.9h-12.7v7.2h9.4v3.5h-9.4V395h-4.6v-25.7zm31.3 0h4.6V395H294v-25.7zm20.2 0h4.5l11.9 17.9v-17.9h4.6V395h-4.5l-12-17.9V395h-4.6l.1-25.7zm46.1 0h4.5L375 395h-4.7l-2.3-5.9h-10.9l-2.3 5.9H350l10.3-25.7zm6.3 16-4.2-11-4.2 11h8.4zm23.2-16h4.5l12 17.9v-17.9h4.6V395h-4.5l-12-17.9V395h-4.6v-25.7zm42.3 24.7c-2-1.1-3.7-2.7-4.8-4.6-1.2-2-1.7-4.4-1.7-7s.5-5.1 1.7-7c1.2-2 2.8-3.6 4.8-4.7s4.5-1.7 7.1-1.7c3.6 0 6.5.9 8.9 2.5v4.5c-2.1-1.8-5-2.8-8.5-2.8-1.9 0-3.6.4-5 1.2-1.4.7-2.5 1.8-3.3 3.2-.8 1.3-1.2 3-1.2 4.8 0 1.9.4 3.5 1.2 4.8.8 1.3 1.9 2.4 3.3 3.2 1.4.7 3 1.2 4.9 1.2 1.8 0 3.5-.3 4.8-.7 1.4-.4 2.8-1.2 3.9-2.2v4.5c-2.2 1.8-5.3 2.7-9.2 2.7-2.4-.3-4.8-.8-6.9-1.9zm31.1-24.7h17.4v3.8h-12.7v7h9.4v3.8h-9.4v7h12.7v3.8h-17.4v-25.4z"/></svg>