<svg version="1.1" id="Layer_2" xmlns="http://www.w3.org/2000/svg" x="0" y="0" viewBox="0 0 270 220" xml:space="preserve" enable-background="new 0 0 270 220"><style>.st0,.st1,.st19,.st4,.st9{fill-rule:evenodd;clip-rule:evenodd;fill:#fff}.st1,.st19,.st4,.st9{fill:#cc9f81}.st19,.st4,.st9{fill:#2f3541}.st19,.st9{fill:#e1e6eb}.st19{fill:#384154}</style><g id="Group-140"><path id="Fill-1_00000063635408987791712380000012433816003316195463_" class="st0" d="M110 147.8s1.6 2.2 4.3 6.2c3.5 5.4 9 14.4 14.1 20.4 3.1 3.7 6.2 6.5 8.9 8.3 3 2 5.7 3 7.8 2.8 2.4-.3 5.4-5 6.5-9.1.6-2.4.6-4.1.4-6.1-.3-4.7-2-10.3-3-14.9-1-3.8-1.7-7.5-2-9.2-.3-1.7-1.1-2.4-1.1-2.4l-26.8-31.2s-1.7-2.4-6.8-4.4c-5-2-8.1-2.6-14.2-4.8-6.1-2.2-9.9-4.1-9.9-4.1s.1-1-.7-1.8c-.8-.8-1.1-2-1.5-2.6-1-1.1-1.4-.9-1.4-.9l-25.1.6s-.7.3-1.3 1.4c-.3.6-.8 1.8-1.3 2.4-.7.9-1 1.1-2.4 1.6-2 .8-5.7 2.3-8.3 2.9-3.3.8-6.3 1.4-10 3.3-2.8 1.5-5.9 4-8.5 6.5-5 4.9-10.2 13.7-13.9 20.1-4.3 7.3-5.8 9.4-7.5 12.8C5 148 3.1 152 3 154c-.2 3.3-.2 5.7 5.1 14.3 3.4 5.5 7.5 11.3 11.6 16.3 4 5 4.4 3.8 4.4 3.8l7.9-10.8s-.4-1.4-1-2.2c-1.2-1.9-3.8-5.2-5.1-8.2-1.4-3.1-1.6-5.3-2.3-8-.7-2.7-1.3-4.2-1.3-4.2s1.3-.9 3.3-3.1c1.9-2.1 4.4-5.5 6.1-7.4 2.8-3.2 4.5-4.2 4.5-4.2s.9 6.2 1.7 13.8c.8 7.6 1.5 17.2 1.5 17.2l1.1 22.5v11.4s16.5 3.5 33.1 2.8c16.6-.7 32.5-3.2 32.5-3.2l.1-16.4.4-12 3.4-28.6z"/><path id="Fill-3_00000065038351598936792650000015249821056843941769_" class="st1" d="M145.3 146.3s-.6-2.6-.9-3.6c-.3-1.2-.6-2.1-.8-3.3-.1-.8-.2-2.6-.1-3.4.6-4.6 2.2-10.4 2.5-15.1.1-2.1.3-2.2-.8-4-1.1-1.8-3.4-3.1-5-4.3-.8-.5-2.8-1.4-2.8-1.4s-.9-1.3-1.9-1.7c-.7-.3-3.4-1.1-3.4-1.1l-2-.6s-1.2-7.8-1.7-11.3c-.2-1.3-.2-3.3-.4-4.6-.1-.9-.4-2.3-.7-2.6-.3-.3-1-.3-1.4-.1-1.1.5-1.3 2.2-1.5 3.2-.7 3.4 1.1 14.3 1 14.5 0 0-1.2.9-1.4 1.5-.3.7-1 4.7-1 4.7s-.7-1.1-.8-1.3c-.3-.5-1.5-1.9-2-2.2-1.1-.7-1.5-.9-2.7-1.1-.7-.2-1.1.1-1.3 1-.1.8.5 2.1.9 2.8.8 1.6 1.8 3.9 2.3 5.7 1 3.3 1.1 5.6 2.5 8.8 1.1 2.5 3.4 5.2 5 7.2 1.2 1.5 1.6 2 2.6 3.6.5.7 1.5 3.2 1.6 4 .3 1.7.7 3.3 1 5 .2.7.6 3 .6 3s2.3 1 3.5 1.2c2.4.3 4.9-.3 6.8-1.7 1-.7 2.3-2.8 2.3-2.8"/><path id="Fill-5_00000080187349961019000000000007584533970285491853_" class="st1" d="M30.6 177.2s-.1 0 1.6 2.1c.4.5.8.8 1.2 1.2.1.1.4.5.4.5s1.3-1.8 1.7-2.5c1.1-2.2 2.5-5.2 2.9-5.9.4-.7 1.3-1.6 2.3-1.6.9.1 1.9.6 2.6 1 .8.5 1.7.8 2.5 1.4 1 .7 2.9 1.6 3.1 2.8.2.8-1.2 1-1.7 1-.9-.1-1.7-.5-2.6-.7-.9-.2-2-.3-2.9-.3-.7 0-1.1.3-1.6.8-.1.1-.4.8-.4.8.2.3 1.7.8 2.1 1 2.1 1.1 4.6 2.2 6.9 3.2.7.3 2.1 1.7 1 2.5-.6.5-1.8.2-2.3.1-1.2-.2-2.1-.6-3.2-.8-1.3-.2-2.9-1.2-4.3-1.4-.7-.1-1.2 0-1.8.3-.1.1-.7.5-.7.6 0 .2 2.3.6 3.2.8 2.6.7 5.4 1.5 7.9 2.2 1 .2 2.2.5 2.5 1.7.1.4-.5.7-1 1-.5.3-1.5.3-2.3.3-2.7-.1-5.2-1.1-7.9-1-.5 0-2.2.2-2.3.9 0 .1 2.1.5 2.9.7 1.2.3 6.2 1.8 7.2 2 .8.2 2.1.6 2 1.7-.1.8-1.7.8-2.3.8-.6 0-1.8-.2-2.4-.3-1.5-.3-2.9-.2-4.5-.3-1.6-.2-2.2 1.5-3.5 2.1-1 .4-1.7.4-2.6.2-3.2-.8-7.2-3.7-9.2-6.3-.6-.7-1.8-1.5-1.8-1.5s-.3-3.6-.1-4.6c.4-2.2 1.5-5 3.6-6.1.9-.5 1.7-.3 2.6-.5.3 0 1.2.1 1.2.1"/><path id="Fill-7_00000059299443437653299360000004296184337416288140_" d="M84.7 93s-3.9 3.3-13 2.9c-8.8-.4-10.7-2.5-10.7-2.5s-.6.5-.8 2c-.2 1.5-.1 3 .3 5.4.4 2.4.3 2.7 1.7 4.9 1.4 2.1 3.1 2.4 3.6 3.9.9 2.5.5 3.4 1 5.5S68 118 68 118s1.2-2.2 2.1-4.2c.9-2 .6-3.2 1.4-3.9.8-.7 1.7-1.3 2.6-1.9 2.1-1.4 4.2-2.5 7-5 3.8-3.6 5.2-7.3 5.2-7.3s-.1-1.5-.5-2.2c-.6-.6-1.1-.5-1.1-.5" fill-rule="evenodd" clip-rule="evenodd" fill="#a5a7b2"/><path id="Fill-9_00000039814129981692555480000018390097391177552773_" d="M99 52c-.1-2.4-.2-5.8-1.4-9.8-1.2-4.2-3.6-8.8-7.1-11.9-3.6-3.1-8.9-5.3-13.4-6.1-3.5-.6-6.3-.2-7.7-.1-3.5.2-11.3 2.1-16.7 8.2-4.5 5.1-6.9 14-6.7 18.5.1 1.6.2 8.3 2.7 13.8C51.4 70.8 56.6 76.1 59 82c2.7 6.4 2.9 10.9 2.9 10.9s.8.8 3.2 1.4c2.4.6 6.5.8 9.2.7 8.1-.6 9.6-2.8 9.6-2.8s1.3-7.6 3.6-12.5c2.6-5.4 5.7-8.7 8.1-14.1 2-4.2 3.5-10.8 3.4-13.6" fill-rule="evenodd" clip-rule="evenodd" fill="#ffdd8f"/><path id="Fill-11_00000026843992260366163500000006322295688655225256_" class="st0" d="M36.4 79c.1 0 .1 0 .2-.1l6.2-4c.2-.1.3-.4.2-.7-.1-.2-.3-.3-.5-.2l-6.2 4c-.2.1-.3.4-.2.7 0 .2.2.3.3.3"/><path id="Fill-13_00000080922186147073101690000014267517247676065442_" class="st0" d="M108.6 79c.2 0 .3-.1.4-.3.1-.2 0-.5-.2-.6l-7.1-3.1c-.2-.1-.5 0-.6.2-.1.2 0 .5.2.6l7.1 3.1c0 .1.1.1.2.1"/><path id="Fill-15" class="st0" d="M29.4 61s.1 0 0 0l7.2-.6c.2 0 .4-.1.3-.3 0-.1-.2-.2-.5-.2l-7.2.6c-.2 0-.4.1-.3.3.1.1.3.2.5.2"/><path id="Fill-17" class="st0" d="M115.6 57c.2 0 .4-.1.4-.3 0-.2-.2-.3-.4-.3l-7.2-.3c-.2 0-.4.1-.4.3 0 .2.2.3.4.3l7.2.3"/><path id="Fill-19" class="st0" d="M106.4 40h.2l7.1-3c.2-.1.3-.4.2-.6-.1-.2-.3-.4-.6-.3l-7.1 3c-.2.1-.3.4-.2.6.1.2.3.3.4.3"/><path id="Fill-21" class="st0" d="M36.6 41c.2 0 .4-.1.4-.2.1-.2-.1-.3-.3-.4L29.5 39c-.2 0-.5 0-.5.2-.1.2.1.3.3.4l7.1 1.4h.2"/><path id="Fill-23" class="st0" d="M46.6 28c.1 0 .3 0 .3-.1.2-.2.1-.4-.1-.5l-6.1-4.2c-.2-.1-.5-.1-.6.1-.2.2-.1.4.1.5l6.1 4.2h.3"/><path id="Fill-25_00000096742702590883934200000014515274488654234524_" class="st0" d="M96.4 27c.1 0 .2 0 .3-.1l5.2-5.2c.2-.2.2-.4 0-.6-.2-.2-.4-.2-.6 0l-5.2 5.2c-.2.2-.2.4 0 .6.1.1.2.1.3.1"/><path id="Fill-27_00000009558853777920269720000003868904418391945367_" class="st0" d="M81.5 18c.2 0 .4-.1.5-.3l2.9-7.1c.1-.2-.1-.5-.4-.5-.3-.1-.6.1-.7.3l-2.8 7c-.1.2.1.5.4.5 0 .1.1.1.1.1"/><path id="Fill-29_00000168806823899735337240000016921350190188447405_" class="st0" d="M60.5 18h.2c.3-.1.4-.3.2-.5l-4-6.2c-.1-.2-.4-.3-.7-.2-.3.1-.4.3-.2.5l4 6.2c.1.1.3.2.5.2"/><path id="Fill-31_00000161619361339023142290000012240313438588194494_" class="st4" d="M133.4 133c.2 0 .4-.1.4-.3.7-3.4 1.7-6.4 5.1-12.1.1-.2.1-.4-.1-.6-.2-.1-.4-.1-.6.1-3.5 5.8-4.5 8.8-5.2 12.3 0 .3.1.5.4.6"/><path id="Fill-33_00000149367401944706821820000018100676639496603298_" class="st4" d="M146 146h.1c.2-.1.4-.3.3-.5l-.6-2.1c-.9-3.3-1.4-5.2-1.2-8.3.1-1.2.5-3.2.9-5.5.9-4.8 2-10.3 1.2-12.3-.7-2-2.5-3.3-4.2-4.5-.4-.3-.7-.5-1.1-.8-1.5-1.2-3.5-2.3-4.7-2-1.8.4-3.4 3-4 4.6-.8 1.9-1 3.7-.7 5.2.4 1.6 2.6 2.5 3.9 2.4 1.1-.1 2-.6 2.8-1.7.6-.9.8-1.8.5-2.5-.1-.4-.5-.9-1.4-1.1-.2-.1-.4.1-.5.3-.1.2.1.5.3.5.4.1.7.3.8.6.2.4 0 1.1-.5 1.7-.6.9-1.3 1.3-2.1 1.4-.9.1-2.7-.7-3-1.8-.3-1.3-.1-2.9.6-4.6.6-1.5 2-3.7 3.4-4.1.6-.2 2.2.4 4 1.8.3.3.7.5 1.1.8 1.5 1.1 3.2 2.3 3.9 4.1.7 1.8-.4 7.4-1.3 11.9-.4 2.3-.8 4.3-.9 5.6-.2 3.2.3 5.3 1.2 8.6.2.6.4 1.3.6 2.1.2.1.4.2.6.2"/><path id="Fill-35_00000016765248142892155430000008748975084368080031_" class="st4" d="M136.5 120c.2 0 .4-.1.5-.2.3-.6 1-1.4 1.6-2.3.5-.7 1-1.3 1.3-1.8.1-.2 0-.5-.2-.6-.2-.1-.6 0-.7.2-.3.5-.8 1.1-1.3 1.8-.7.9-1.3 1.8-1.7 2.4-.1.2 0 .5.2.6.2-.1.2-.1.3-.1"/><path id="Fill-37_00000167366159507715763730000014361542259006276486_" class="st4" d="M132.7 125h.4c1.2-.2 2.1-1.4 3.1-2.8.1-.2.1-.5-.1-.6-.2-.1-.5-.1-.6.1-.9 1.2-1.7 2.3-2.5 2.5-.5.1-1-.1-1.6-.4-1.3-.8-3.4-2.5-3.4-4.5v-.7c0-2 0-6.1 1.1-7.1.7-.6 3.4-.7 7.9-.3h.6c.2 0 .5-.2.5-.4s-.2-.4-.4-.4h-.6c-3.4-.3-7.4-.5-8.7.6-1.3 1.2-1.4 4.5-1.4 7.7v.7c0 2.4 2.4 4.3 3.8 5.2.7.2 1.3.4 1.9.4"/><path id="Fill-39_00000121267269683072554000000015852976562837097149_" class="st4" d="M127.8 125c.5 0 .9-.2 1.1-.6.5-.8.4-2.2.1-2.9-.1-.2-.3-.3-.5-.2-.2.1-.3.3-.2.6.2.5.3 1.6 0 2.1-.1.2-.3.2-.5.2-.8 0-1.8-1.4-2.6-3.5-.7-1.9-.2-6.4 0-8.6v-.1c.2-2.8.7-4.3 1.7-5 .4-.3 1.4-.1 1.8 0 1.9.4 3.7.9 5.2 1.4l.4.1c1.3.4 3.4.9 3.9 2.2.1.2.3.3.5.2.2-.1.3-.3.2-.6-.7-1.7-2.9-2.3-4.5-2.7l-.4-.1c-1.5-.5-3.3-.9-5.2-1.4-.9-.2-1.8-.3-2.4.1-1.6 1.1-2 3.6-2.1 5.7v.1c-.2 2.4-.6 6.9.1 9 .6 1.5 1.8 4 3.4 4"/><path id="Fill-41_00000085948278853296814890000014182461882692009344_" class="st4" d="M133.6 150c.3 0 .5-.3.4-.5-.6-3.7-1.6-7.2-2.9-10.7-.6-1.5-2.6-3.9-4.5-6.2-1.3-1.6-2.6-3-3.1-4-1.4-2.4-1.7-3.9-2.2-6-.2-1.1-.5-2.2-1-3.7-.7-2.4-1.7-4.2-2.5-5.7-1.1-2.1-1.1-2.9-.9-3.2.1-.1.3-.2.7-.2 2 .2 4 1.8 5.4 4.5.1.2.4.3.6.2.2-.1.3-.4.2-.6-1.6-2.9-3.9-4.8-6.1-5-.9-.1-1.3.3-1.5.6-.6.9.1 2.7.8 4.1.8 1.5 1.7 3.2 2.4 5.5.4 1.5.7 2.7.9 3.7.5 2.1.8 3.7 2.3 6.2.6 1 1.9 2.5 3.2 4.1 1.8 2.1 3.8 4.6 4.4 6 1.3 3.4 2.2 6.8 2.8 10.5.2.3.4.4.6.4"/><path id="Fill-43" class="st4" d="m130.1 107 .9-.1s-.9-5.1-1.4-7.9c-.4-2.1-.5-4-.6-5.7-.2-2.9-.3-5-2-5.3-.6-.1-1.1.1-1.5.4-1.2 1-1.4 3.5-1.5 6-.1 2.5.6 8.6 1.2 11.9 0 .2.3.4.5.3.2 0 .4-.3.3-.5-.6-3.3-1.3-9.3-1.2-11.7.1-1.4.2-4.5 1.2-5.4.2-.2.5-.2.8-.2 1 .2 1.1 2 1.2 4.5.1 1.6.2 3.6.6 5.7.6 2.9 1.5 8 1.5 8"/><path id="Fill-45" class="st4" d="M138.7 151c.6 0 1.2 0 1.8-.2 3.2-.6 5.5-2.4 6.5-5.3.1-.2 0-.4-.3-.5-.2-.1-.4 0-.5.3-1.1 3.5-4.1 4.5-5.8 4.7-2.9.5-5.8-.4-6.7-1.5-.1-.2-.4-.2-.6-.1-.2.1-.2.4-.1.6 1 1.3 3.3 2 5.7 2"/><path id="Fill-47" class="st4" d="M144.7 187h.6c1.5-.1 2.8-.9 3.8-2.3 4.4-6.5 4.2-12 3.5-16.5-.6-3.8-1.2-6.2-2.3-10.6-.2-1-.5-2-.8-3.2-.3-1.3-.6-2.6-.8-3.9-.8-3.9-1.3-6.1-2.2-6.5-.2-.1-.5 0-.6.2-.1.2 0 .5.2.6.6.3 1.2 3.4 1.7 5.9.3 1.3.5 2.6.8 3.9.3 1.2.6 2.2.8 3.2 1.1 4.4 1.7 6.8 2.3 10.5.8 4.6.9 9.7-3.3 15.9-.8 1.2-1.9 1.8-3.2 1.9-5.3.4-13.4-8.3-16.1-11.2-1.6-1.7-5.2-7.4-9.1-13.4-3.9-6.1-8-12.4-10.3-15.3-.1-.2-.4-.2-.6-.1-.2.2-.2.4-.1.6 2.3 2.9 6.4 9.2 10.3 15.2 3.9 6.1 7.6 11.8 9.2 13.6 9.8 10.6 14.3 11.5 16.2 11.5"/><path id="Fill-49" class="st4" d="M133.7 177h.1c.2-.1.2-.3.2-.5-.9-3.8-.9-6.6-.9-11.3 0-3 0-6.6-.2-11.7l-.1-1.6c-.1-2.7-.2-3.9.1-4.1.2-.1.2-.4.1-.6-.1-.2-.3-.3-.4-.2-.6.4-.6 1.3-.4 4.9l.1 1.6c.2 5.1.2 8.7.2 11.7 0 4.8 0 7.6 1 11.5-.1.2.1.3.2.3"/><path id="Fill-51" class="st4" d="M117.6 112c.1 0 .2 0 .3-.1.1-.2.1-.4-.1-.6-3-2.4-6.8-3.5-11.5-4.9-1.5-.4-3.1-.9-4.7-1.4-6.7-2.2-13-4.9-13-4.9-.2-.1-.5 0-.6.2s0 .4.2.5c.1 0 6.4 2.8 13.1 5 1.7.5 3.2 1 4.8 1.4 4.6 1.4 8.3 2.4 11.2 4.7.1.1.2.1.3.1"/><g id="Group-55" transform="translate(62 85)"><defs><filter id="Adobe_OpacityMaskFilter" filterUnits="userSpaceOnUse" x="3.3" y="10.3" width="20.5" height="113.7"><feColorMatrix values="1 0 0 0 0 0 1 0 0 0 0 0 1 0 0 0 0 0 1 0"/></filter></defs><mask maskUnits="userSpaceOnUse" x="3.3" y="10.3" width="20.5" height="113.7" id="mask-2_00000069356592739011187350000009209880515451767460_"><g filter="url(#Adobe_OpacityMaskFilter)"><path id="path-1_00000039102994123285652810000003602397378954444165_" class="st0" d="M3.3 10.3h20.4V124H3.3z"/></g></mask><path id="Fill-53" d="M4.9 124c.3 0 .4-.2.4-.5-.6-8-.8-16.2-.6-22l.1-1.1c.2-5.3.3-7.3.2-14.3 0-4.2-.3-9.7-.6-14.2-.2-3-.3-5.5-.3-6.9-.2-13.8.6-30.1 3-33.4 1.3-1.8 1.5-3.2 1.7-4.4.2-1 .3-1.6 1-2.1.5-.3 1.1-.7 1.7-1.1 1.6-1.1 3.7-2.4 5.8-4.2 4.4-3.7 6.4-8 6.4-9.2 0-.2-.2-.4-.4-.4s-.4.2-.4.4c0 .8-1.7 4.9-6.1 8.6-2.1 1.7-4.1 3-5.7 4.1-.6.4-1.2.8-1.7 1.1-1 .7-1.2 1.6-1.3 2.7-.2 1.1-.4 2.4-1.6 4-2.5 3.5-3.4 19.6-3.2 34 0 1.3.2 3.9.3 6.9.2 4.4.5 9.9.6 14.1.1 7 0 9-.2 14.3l-.1 1.1c-.3 5.8-.1 14 .6 22.1 0 .2.2.4.4.4" mask="url(#mask-2_00000069356592739011187350000009209880515451767460_)" fill-rule="evenodd" clip-rule="evenodd" fill="#2f3541"/></g><path id="Fill-56_00000122683672905778711210000017039297797038721464_" class="st4" d="M106.5 205c.3 0 .5-.2.5-.4.2-3.1.1-6.7.1-10.5-.1-2.8-.1-5.7-.1-8.6.1-6.7.7-11.4 1.5-16.9.1-.5.2-1.3.3-2.1.7-4 1.7-10.7 2.2-15.1 0-.2-.2-.4-.4-.5-.3 0-.5.1-.5.4-.5 4.3-1.6 11-2.2 15.1-.1.8-.2 1.5-.3 2.1-.8 5.5-1.3 10.3-1.5 17-.1 2.9 0 5.8.1 8.6.1 3.8.2 7.3-.1 10.4-.1.3.1.5.4.5"/><path id="Fill-58_00000170985109258107836750000010241070514543202971_" class="st4" d="M67.6 119c.1 0 .2 0 .2-.1.2-.1.2-.4.1-.6-.8-1.3-1.1-3.5-1.3-5.6-.1-.7-.2-1.4-.3-2-.2-1.4-1-2.1-1.8-2.8-.5-.4-1-.9-1.4-1.5-1.9-2.8-2-5.1-2.2-8 0-.7-.1-1.3-.1-2 0-.2-.2-.4-.4-.4s-.4.2-.4.5c.1.7.1 1.4.1 2 .2 2.9.3 5.5 2.3 8.5.5.7 1.1 1.2 1.6 1.7.8.7 1.4 1.2 1.5 2.3.1.7.2 1.3.3 2 .3 2.3.5 4.5 1.5 5.9 0 0 .2.1.3.1"/><path id="Fill-60_00000070797422579229363060000003922465424395929986_" class="st4" d="M39.6 173c.3 0 .4-.2.4-.5-.4-5.2-.8-10.3-1.1-13.6l-.1-1.1c-.3-3.1-.6-6.1-1-9.3-.7-6-1.6-12.8-1.9-22 0-.2-.2-.4-.4-.4s-.4.2-.4.4c.3 9.2 1.1 16.1 1.9 22.1.4 3.2.8 6.2 1 9.3v1.1c.3 3.4.7 8.5 1.1 13.6.1.2.3.4.5.4"/><path id="Fill-62_00000116938079764199215290000017842099342196697509_" class="st4" d="M40.5 184c.3 0 .5-.1.5-.2v-.1l-.1-.4c0-.1-.2-.2-.5-.2s-.5.1-.4.3l.1.4v.1s.2.1.4.1"/><path id="Fill-64_00000141428087226907990400000006717792092670664891_" class="st4" d="M40.5 190s.1 0 0 0c.3 0 .5-.2.5-.4l-.1-.8v-.5c0-.2-.2-.4-.5-.4s-.5.2-.5.4v.5l.1.8c.1.2.3.4.5.4"/><path id="Fill-66_00000057109638243451479920000018411538804221875876_" class="st4" d="M40.6 206c.3 0 .5-.2.4-.4-.2-2.6-.1-4.8-.1-7.1 0-1.3.1-2.6.1-4.1 0-.2-.2-.4-.4-.4s-.4.2-.4.4c0 1.5 0 2.8-.1 4.1-.1 2.3-.1 4.5.1 7.1-.1.2.1.4.4.4"/><path id="Fill-68_00000072964672296785307440000005476163474613358981_" class="st4" d="M24.6 189c.2 0 .3-.1.4-.1.2-.1.3-.3.2-.6-.1-.2-.3-.3-.6-.2-.1.1-1.5.3-8.9-10.2l-1.5-2.1c-2.6-3.7-5.1-7.2-7.4-11.2-3-5.3-3.1-8.5-2.7-10.1 1.2-5.4 4.5-11 7.6-15.9l3.3-5.4c2.5-4.1 5-8.4 7.9-12.4 4.2-5.8 11-12.7 17.7-14.6 1.1-.3 2.1-.6 3.1-.8 5-1.4 8.4-2.3 13.1-4.4.2-.1.3-.3.2-.6-.1-.2-.3-.3-.6-.2-4.7 2.1-8 3-13 4.3-1 .3-2 .5-3.1.8-6.9 1.9-13.9 9-18.2 14.9-2.9 4.1-5.5 8.4-8 12.5l-3.3 5.4c-3.1 4.9-6.4 10.6-7.7 16.1-.6 2.7.3 6.3 2.8 10.7 2.3 4.1 4.8 7.6 7.5 11.3l1.5 2.1c6.7 9.5 8.8 10.7 9.7 10.7"/><path id="Fill-70_00000122722180055503669160000013292934264960603052_" class="st4" d="M23.4 154c.1 0 .1 0 .2-.1 1.6-1 3.3-3.1 5.2-5.6 2.1-2.7 4.4-5.7 7-7.6.2-.1.2-.4.1-.6-.1-.2-.4-.2-.6-.1-2.7 1.9-5.1 5-7.2 7.7-1.8 2.3-3.5 4.5-4.9 5.4-.2.1-.3.4-.1.6 0 .2.2.3.3.3"/><path id="Fill-72_00000098923595901820468210000006071100593997160862_" class="st4" d="M32.6 179c.3 0 .5-.3.4-.5-.2-1.2-.8-2.2-1.9-3.8-.9-1.4-2.2-3.2-3.7-6.1-1.5-2.8-2.1-5.3-2.6-7.7-.6-2.7-1.1-5.2-3-7.8-.1-.2-.4-.2-.6-.1-.2.1-.2.4-.1.6 1.8 2.5 2.3 4.9 2.8 7.5.5 2.5 1.1 5 2.7 7.9 1.6 2.9 2.9 4.8 3.8 6.1 1 1.5 1.7 2.4 1.8 3.4 0 .3.2.5.4.5"/><path id="Fill-74_00000182489858173405862860000012502343418420636559_" class="st4" d="M109.4 142c.2 0 .4-.2.4-.4.4-6.9 2.2-19.1 5.2-24 .1-.2.1-.5-.1-.6-.2-.1-.4-.1-.5.1-3.1 5-4.8 17.3-5.3 24.4-.1.3 0 .5.3.5"/><path id="Fill-76_00000054952846073143527430000008836829539521797300_" class="st4" d="M79.3 118.7c-.8-.6-1.7-1.5-2.6-2.7-.2-.2-.4-.5-.5-.7-.1-.1-.2-.3-.3-.4l-.4-.6c-1.4-2.1-3-4.6-5.1-4.4-.2 0-.4-.2-.5-.4 0-.2.2-.4.4-.5 2.6-.2 4.3 2.5 5.8 4.8l.4.6c.1.2.2.3.3.5.2.2.3.5.5.7.8 1.1 1.6 2 2.4 2.6.1.1.2.1.2.1.2-.1.5-1.1.9-2.1.3-.9.7-2 1.2-3.3 1-2.4 1.8-4.1 2.6-5.4.6-1.2 1.2-2.2 1.6-3.3.4-1 1.5-4.1.8-4.8-1.1-1.1-1.4-1.9-1.6-2.6-.3-.7-.5-1.2-1.7-1.8-.2-.1-.3-.4-.2-.6.1-.2.4-.3.6-.2 1.5.8 1.8 1.5 2.1 2.3.2.6.5 1.3 1.5 2.3.8.9.3 2.9-.7 5.6-.4 1.2-1 2.2-1.6 3.4-.7 1.4-1.6 3-2.5 5.4-.5 1.3-.9 2.4-1.2 3.3-.5 1.6-.8 2.4-1.4 2.6h-.2c-.3-.1-.5-.2-.8-.4z"/><path id="Fill-78_00000124862581251176818300000001449315236301194636_" class="st4" d="M58.2 119c.1 0 .2 0 .2-.1.4-.2.8-.9 1.6-2.4 1.2-2.2 3-5.6 4.7-5.9.2 0 .4-.2.3-.5 0-.2-.2-.4-.4-.4-2.1.3-3.9 3.8-5.2 6.3-.4.7-.8 1.6-1.1 1.9-.4-1.1-.6-6-.7-7.7v-.8c0-.7-.2-1.6-.3-2.5-.4-2.1-.8-4.8.1-5.7.8-.8 1.2-1.7 1.5-2.5.4-.8.7-1.5 1.3-2 .2-.1.2-.4.1-.6-.1-.2-.4-.2-.5-.1-.8.7-1.2 1.5-1.6 2.4-.3.8-.7 1.5-1.4 2.2-1.2 1.2-.8 4-.3 6.5.2.9.3 1.8.3 2.4v.8c.3 6.1.5 8.2 1.1 8.5.1.2.2.2.3.2"/><path id="Fill-80_00000072247036170525165760000013739358830457249193_" class="st4" d="M62.4 95c.3 0 .4-.2.4-.5-.4-4-1.7-8.4-3.9-13.2-.8-1.8-2.1-3.6-3.5-5.7-4-5.8-9-13-8.5-24.7.9-18.7 14.7-26.6 27.2-26.1 17.8.8 25.4 15.2 25 29.2-.3 9.1-4.4 15.6-7.7 20.8-1.6 2.5-3 4.7-3.7 6.8l-.3.9c-1.3 3.6-2.7 7.6-3.1 11.2 0 .2.1.4.4.5.2 0 .4-.1.5-.4.4-3.5 1.8-7.5 3.1-11l.3-.9c.7-2 2.1-4.1 3.6-6.6 3.4-5.3 7.6-12 7.9-21.3.3-9.5-2.6-17.4-8.2-22.8-4.5-4.3-11-7-17.6-7.3C61.2 23.5 46.9 31.7 46 51c-.5 12 4.8 19.6 8.6 25.2 1.4 2.1 2.7 3.8 3.5 5.5 2.2 4.7 3.5 9 3.8 12.9.1.2.3.4.5.4"/><path id="Fill-82_00000000907212460555967330000005944016584689030577_" class="st4" d="M72.1 97c5 0 10.2-1 12.8-3.2.2-.2.2-.4 0-.6-.2-.2-.4-.2-.6 0-4.6 4-19.5 3.9-22.6.6-.2-.2-.4-.2-.6 0-.2.2-.2.4 0 .6 1.6 1.7 6.2 2.6 11 2.6"/><path id="Fill-84_00000144317341725655341710000004825615078377427607_" class="st4" d="M60.2 100s.1 0 0 0c.1 0 .2-.2.2-.5V97c0-2.6.5-3.2.5-3.2.1-.1.1-.4.1-.6 0-.2-.2-.3-.2-.2 0 0-.7.7-.7 4l.1 2.6c-.1.2-.1.4 0 .4"/><path id="Fill-86_00000152221742389306382410000002868962510943701670_" class="st4" d="M69.5 113c.2 0 .4-.1.4-.2 0-.2-.1-.3-.4-.3-1.5-.1-2.8-.2-4-.4-.2 0-.5.1-.5.2-.1.1.1.3.3.3 1.3.1 2.7.3 4.2.4"/><path id="Fill-88_00000121280982028655550850000013750784407756767933_" class="st4" d="M83.8 97c.1 0 .2-.2.2-.4 0-2.2-.2-2.6-.6-3.4-.1-.2-.2-.2-.3 0-.1.2-.1.4 0 .6.4.7.5.9.5 2.8 0 .2.1.4.2.4"/><path id="Fill-90_00000106859202301102878330000014474493214421304454_" class="st4" d="M72.3 104c3.5 0 7-.7 9.4-2.1.2-.1.3-.4.2-.7-.1-.3-.3-.4-.5-.3-6.8 3.6-17.1 2-20.8-1.9-.2-.2-.4-.1-.6.1-.1.2-.1.6.1.7 2.7 2.9 7.5 4.2 12.2 4.2"/><path id="Fill-92_00000111896486471847535760000007210753807615022736_" class="st4" d="M72.1 109h1.5c.2 0 .4-.2.4-.5s-.2-.5-.4-.5c-4.9.3-9.3-.8-11.9-2.9-.2-.2-.4-.1-.6.1-.1.2-.1.5.1.7 2.5 2 6.5 3.1 10.9 3.1"/><path id="Fill-94_00000075854210046258368830000015690519616164181144_" class="st4" d="M132.4 121c.2 0 .4-.2.3-.4-.1-1.7 0-4 .3-5.1.1-.2-.1-.4-.2-.5-.2-.1-.4.1-.4.3-.4 1.5-.3 4.5-.3 5.3-.1.2.1.4.3.4"/><path id="Fill-96_00000045612480722745747840000015007130828886579632_" class="st4" d="M137.5 158c3.9 0 8.8-2 10.4-5.4.1-.2 0-.5-.2-.6-.2-.1-.5 0-.6.2-1.9 3.9-9 5.9-12.6 4.4-.2-.1-.5 0-.6.2-.1.2 0 .5.2.6 1.1.4 2.2.6 3.4.6"/><path id="Fill-98_00000083787152819852836460000006690528317010322345_" class="st4" d="M34.9 196h.1c1.1 0 2.1-.5 2.8-1.3.1-.2.1-.4 0-.5-.2-.1-.4-.1-.6 0-.6.7-1.4 1-2.3 1h-.1c-3.5 0-8.5-4.6-11.2-7.1-.2-.1-.4-.1-.6 0-.2.1-.2.4 0 .5 4.2 3.9 8.5 7.4 11.9 7.4"/><path id="Fill-100_00000142154565735881640960000001189478161418989480_" class="st4" d="M35.4 182c.1 0 .2-.1.3-.2 1.6-2.3 2.5-4.5 3.2-6.3.6-1.4 1-2.5 1.6-3 1.2-1.1 2.5-.4 4.5.8.2.1.4.3.6.4 1.7 1 3.8 2.4 3.6 3.3 0 .1-.1.2-.2.3-.5.3-1.8 0-3.4-.7-1.6-.7-4.3-.8-5 1.4-.1.2 0 .5.2.6.2.1.4 0 .5-.2.6-1.6 2.9-1.4 4-.9 1.3.6 3.1 1.2 4.1.7.3-.2.5-.5.6-.9.3-1.7-1.8-3-4-4.3-.2-.1-.4-.3-.6-.4-1.8-1.1-3.7-2.3-5.4-.7-.6.6-1.1 1.8-1.8 3.3-.7 1.7-1.6 3.9-3.1 6.2-.1.2-.1.5.1.6h.2"/><path id="Fill-102_00000116222058802035333090000017725597334315787158_" class="st4" d="M49.1 185c.8 0 1.5-.2 1.8-1 .4-1.3-.8-2-1.3-2.4l-.1-.1c-.7-.4-1.4-.7-2.2-1-.8-.3-1.9-.7-3.4-1.4-.4-.2-.9-.4-1.3-.7-1.9-1-3.9-2.2-6-.9-.2.1-.4.4-1 1.1-.8 1-2.1 2.6-3.4 3.8-.2.2-.2.4 0 .6.2.2.4.2.6 0 1.4-1.2 2.7-2.8 3.5-3.9.3-.4.7-.9.8-.9 1.6-1 3.3 0 5.1 1 .4.2.9.5 1.4.7 1.5.7 2.6 1.1 3.4 1.4.8.3 1.4.5 2.1.9l.1.1c.6.4 1.2.8 1 1.4-.2.6-1.5.4-2.7.2h-.3c-1.1-.2-2.9-.8-4.4-1.3-.4-.1-.7-.3-1.1-.4-2-.7-3.7-.2-4.2.7-.1.2 0 .5.2.6.2.1.5 0 .6-.2.2-.4 1.4-1 3.2-.3.4.1.7.2 1.1.4 1.7.6 3.4 1.2 4.6 1.4h.3c.4.1 1.1.2 1.6.2"/><path id="Fill-104_00000025423654461568439580000005892182562153720993_" class="st4" d="M49.7 190c.3 0 .7 0 1-.1 1.3-.2 2.1-.8 2.3-1.5.1-.7-.3-1.4-1.2-1.9-.6-.3-1.6-.6-3-.9-1.5-.3-3.3-.7-5.4-1.4-4.2-1.4-5.3-1.4-8-.9-.2 0-.4.3-.4.5s.3.4.5.4c2.5-.5 3.6-.4 7.6.9 2.2.7 4 1.1 5.5 1.4 1.3.3 2.3.5 2.8.8.5.3.8.7.8 1-.1.3-.5.7-1.5.8-1.3.2-3.4-.2-5.4-.5-3.5-.6-6.7-1.2-7.2.8-.1.2.1.5.3.5.2.1.5-.1.5-.3.3-1.2 3.6-.6 6.2-.1 1.6.2 3.3.5 4.6.5"/><path id="Fill-106_00000150097053688222580300000009743402129512029117_" class="st4" d="M48.7 195h.5c.9-.1 1.6-.6 1.8-1.4.1-.6-.1-1.1-.7-1.5-.8-.5-2.2-.9-3.4-1.2l-.5-.1c-.3-.1-.7-.2-1.2-.3-2.5-.7-5.9-1.6-7.8-1.5-.2 0-.4.2-.4.5s.2.4.5.4c1.8-.1 5.2.8 7.5 1.4l1.2.3.5.1c1 .3 2.5.6 3.1 1.1.2.2.3.3.3.6-.1.3-.4.6-1 .7-1 .1-2.9-.2-4.8-.6-1.9-.3-4.7-.1-6 .1-.2 0-.4.3-.4.5s.3.4.5.4c1.2-.2 3.9-.4 5.7-.1 1.8.3 3.4.6 4.6.6"/><path id="Fill-108_00000059992645817951552730000016023373534372432016_" class="st4" d="M35.5 182c.2 0 .3-.1.4-.2.2-.2.1-.5-.1-.7-1.4-1-2.5-2.3-3.5-3.5l-.4-.5c-.2-.2-.5-.2-.7-.1-.2.2-.3.5-.1.7l.4.5c1 1.2 2.2 2.6 3.7 3.7.1.1.2.1.3.1"/><path id="Fill-110_00000151529061130967122640000010206278955193860274_" class="st4" d="M23.7 189s.1 0 0 0c.3-.1.4-.3.4-.5-.8-3.9-.1-7.6 1.9-9.4 1.2-1.2 2.9-1.6 4.6-1 .2.1.4-.1.5-.3.1-.2 0-.4-.2-.5-2-.7-3.8-.3-5.3 1.1-2.2 2.1-2.9 5.9-2.1 10.2-.1.3 0 .4.2.4"/><path id="Fill-112_00000162324085346276104240000010039041179792085679_" class="st4" d="M18.5 179c.2 0 .4-.1.4-.3.5-2.7 2-4.9 4.1-6.1 1.6-.9 3.5-1.1 5.5-.6.2.1.5-.1.6-.3.1-.2-.1-.4-.3-.5-2.2-.6-4.4-.3-6.2.7-2.3 1.2-3.9 3.7-4.5 6.6-.1.3 0 .5.4.5-.1 0-.1 0 0 0"/><path id="Fill-114_00000089566092830174375210000014601936641212132536_" class="st0" d="M67.6 74c.1 0 .2 0 .2-.1.2-.1.3-.4.1-.6-.1-.2-9.6-15.8-11.1-22-.1-.2-.3-.4-.5-.3-.2.1-.4.3-.3.5 1.5 6.4 10.8 21.6 11.2 22.3.1.1.2.2.4.2"/><path id="Fill-116_00000121270965154454993710000002653939256747959462_" class="st0" d="M76.4 74c.2 0 .3-.1.4-.2.4-.7 9.1-16.9 10.2-22.3 0-.2-.1-.4-.3-.5-.2 0-.5.1-.5.3-1.1 5.2-10 21.9-10.1 22-.1.2 0 .5.2.6 0 .1.1.1.1.1"/><path id="Fill-118_00000145747626946713308750000007211803597304608686_" class="st0" d="M75.5 61c.2 0 .3-.1.4-.3l.2-.3c.9-2 3.2-6.6 3.9-10.9 0-.2-.1-.5-.4-.5-.3 0-.5.1-.5.4-.8 4.2-2.9 8.7-3.9 10.7l-.2.3c-.1.2 0 .5.2.6h.3"/><path id="Fill-120_00000071546775244376573030000016330487573325057700_" class="st0" d="M68.6 61c.1 0 .1 0 .2-.1.2-.1.3-.4.2-.6-1.9-3.7-3.3-7.1-4.1-10-.1-.2-.3-.4-.5-.3-.2.1-.4.3-.3.5.8 3 2.2 6.5 4.2 10.2 0 .2.1.3.3.3"/><path id="Fill-122_00000083087981530531126850000005481507240616358540_" class="st0" d="M81.9 49c.1 0 .1 0 0 0 .1 0 .1 0 0 0zM57 52.7c-.1-.2 0-.5.2-.6.8-.4 1.2-1.2 1.3-1.6 0-.1-.1-.2 0-.4s.2-.3.5-.3c.2 0 .4.2.4.4v.1l.1.1c.2.2.4.2.7 0 0-.1 0-.3-.1-.5V49.6c-.1-.4.1-.6.2-.6.2-.1.4 0 .5.2.2.4.6.8 1 1 .2.1.4 0 .6-.1.1-.1.2-.2.1-.6V49.2c-.1-.2.1-.4.3-.5.2-.1.4 0 .5.2.1.3.3.6.4.6.3.3.6.3 1.1.2.2-.1.2-.1.2-.4-.4-.5-.2-.8-.1-1 .1-.2.4-.2.5-.1.3.1.4.5.4.8.2.2.6.3.9.2.3-.1.4-.3.5-.5-.1-.1-.2-.2-.2-.3v-.1c-.1-.2-.2-.6 0-.8.2-.1.4-.2.6-.1.3.2.4.7.4.9.4.3 1.1.5 1.4.2.1-.1.1-.3.1-.9v-.1c0-.2.2-.5.4-.5s.4.2.4.4v.2c.1.1.1.2.2.3.1.3.5.7.8.7h.4c.1-.1.1-.2.1-.3V48c0-.2.2-.4.4-.4s.4.2.4.4v.3l.1.1c0 .1.1.1.1.1.3.3.8.5 1.2.4l.5-.5.1-.7c0-.2.2-.4.4-.4.1 0 .3.1.3.2.2.2.1.4.1.5.1.3.5.6.8.7.2.1.6 0 .7-.2l.1-.1v-.1c-.1-.3-.1-.8.2-.9 0 0 .4-.1.6.3.1.2.1.4.1.6.1.2.2.3.3.4.7.5.9.3 1.6-.4l.1-.1c.1-.1.3-.2.5-.2.3.1.3.4.3.6v.2c.1.2.3.3.5.4h.1v-.4c.1-.2.3-.3.5-.3s.4.1.5.4v.3c0 .2 0 .3-.1.4.1.3.5.6.8.7.3.1.5 0 .8-.1.3-.1.5-.2.8-.2.4 0 .5.4.6.6.1.3.3.8 1.3 1.1.2.1.3.3.3.6-.1.2-.3.4-.5.3-1.3-.4-1.6-1.2-1.8-1.6-.1 0-.2.1-.4.1-.2-.1-.6.1-1.1-.1-.5-.1-1-.6-1.2-1-.3 0-.6 0-.8-.1-.3-.1-.6-.4-.8-.7-.5.5-1.2.8-2.2.1-.1-.1-.2-.1-.3-.2-.4.5-1.1.6-1.6.4-.3-.1-.6-.3-.8-.5-.2.3-.5.6-.7.7h-.1c-.8.3-1.6-.1-2.1-.6-.2.2-.6.4-1.1.3-.4-.1-.7-.3-1-.6-.1.2-.2.3-.3.4-.6.4-1.3.3-2 0-.2.4-.5.7-.9.8-.4.1-.8.1-1.2-.1-.1.3-.3.5-.7.7-.6.2-1.2.1-1.7-.2-.1.2-.2.4-.5.5-.4.2-.8.3-1.2.2l-.6-.3c0 .2-.1.3-.3.4-.6.4-1.1.4-1.5.1-.3.6-.8 1.3-1.6 1.7h-.2c-.3 0-.5-.1-.6-.3z"/><path id="Fill-124_00000057117175355179367910000000167978952770282647_" class="st4" d="M77.1 94.6c-.1-5 0-10.3 0-14.1 0-3.4.1-6.3 0-6.7-.1-.5-.5-.8-1.1-1.2-.8-.5-1.8-1.1-1.8-2.6-.1-.8-.1-4.8-.1-7.1 0-1.2 1.3-1.5 1.8-1.6.2-.3.2-1.6 0-2-.8-.5-6.1-.5-6.7 0-.2.3-.1 1.8.1 2 .1 0 .2.1.3.1.5.2 1.5.5 1.5 1.5v7.4c0 1.1-.9 1.8-1.7 2.4-.7.5-1.2.9-1.2 1.5v.4c0 8.5 0 15.5-.2 20.2 0 .2-.2.4-.5.4-.2 0-.4-.2-.4-.4.1-4.7.2-11.6.2-20.1v-.4c0-1 .8-1.6 1.6-2.1.7-.5 1.3-1 1.3-1.7v-7.4c0-.3-.2-.5-.9-.7-.1 0-.2-.1-.3-.1-.4-.2-.6-.6-.7-1.4 0-.2-.2-1.6.4-2 .9-.6 5.5-.6 7.2-.2.5.1.8.3.9.5.3.6.3 2.1 0 2.8-.1.2-.3.4-.5.5h-.1c-.7.2-1.1.3-1.1.8 0 3.9 0 6.4.1 7 0 1.1.7 1.5 1.4 2 .6.4 1.4.9 1.5 1.8.1.5.1 2.5 0 6.8 0 3.8-.1 9.1 0 14.1 0 .2-.2.4-.4.4-.4-.4-.6-.6-.6-.8z"/><path id="Fill-126_00000039134597466397245250000009515674976301926296_" d="M84.9 130.2h-4.5c-.3 0-.4.1-.4.4v.7c0 .2.1.3.3.3H82c.2 0 .3.1.3.3v5.5c0 .3.1.4.3.3h.8c.3 0 .4-.1.4-.4v-5.5c0-.2.1-.3.3-.3h1.6c.2 0 .3 0 .2.3v5.6c0 .3.1.4.4.4h.9c.3 0 .3-.1.3-.3v-1.6c0-.3.1-.3.3-.3h1.3c1.8 0 2.8-1.2 2.6-3-.1-1.3-1.2-2.2-2.5-2.2-1.4-.2-2.8-.2-4.3-.2m14.1 3.9v3.7c0 .2 0 .2-.2.2H80.2c-.2 0-.2 0-.2-.2v-7.6c0-.2 0-.2.2-.2h18.6c.3 0 .1.2.2.3-.1 0-.2-.2-.2 0-.1-.1-.2-.2-.2 0 0 .1-.2.1-.1.3 0 .1.1.1.2.1h.2c0 .2.1.1.2.1v3.1c-.1 0-.1-.1-.1-.1-.7-1.1-1.4-2.2-2.2-3.2-.1-.1-.2-.3-.4-.3h-3.7c-.2 0-.2.1-.2.3v.8c0 .2.1.3.3.3h2.8c.2 0 .3 0 .4.2.4.7.9 1.3 1.3 2 .1.1.1.3 0 .4-.4.7-.9 1.3-1.3 2-.1.2-.2.2-.4.2h-2.8c-.3 0-.4.1-.4.4v.7c0 .3.1.4.4.4h3.3c.3 0 .4-.1.6-.3.8-1.4 1.5-2.5 2.3-3.6" fill-rule="evenodd" clip-rule="evenodd" fill="#fdfdfd"/><path id="Fill-128_00000088816271903366408660000004614123353302909841_" d="M99 134.6c-.8 1-1.6 2.1-2.4 3.1-.2.2-.3.3-.6.3h-3.5c-.3 0-.5-.1-.4-.4v-.6c0-.3.1-.4.4-.4h3c.2 0 .3-.1.4-.2.5-.6.9-1.2 1.4-1.8.1-.1.1-.2 0-.4-.5-.6-.9-1.2-1.4-1.8-.1-.1-.2-.2-.4-.2h-3c-.2 0-.3-.1-.3-.3v-.8c0-.2.1-.2.3-.2h3.9c.2 0 .3.1.4.2.8 1 1.5 2 2.3 3l.1.1v.4z" fill-rule="evenodd" clip-rule="evenodd" fill="#f99702"/><path id="Fill-130_00000150063807282159884490000018417384704461473181_" class="st9" d="M98.9 130.1c.1-.3.2 0 .2 0v.8c-.1.1-.2.2-.2-.1v-.7"/><path id="Fill-132_00000003784760669690640820000010764547178812104612_" d="M87.7 133.4v.9c0 .1 0 .2.2.2h1.5c.7 0 1.1-.5 1.1-1.1 0-.7-.4-1.1-1.1-1.1H88c-.2 0-.2.1-.2.2-.1.3-.1.6-.1.9M85 131h4.5c1.3 0 2.4.9 2.5 2.1.2 1.7-.9 2.8-2.7 2.8H88c-.2 0-.3 0-.3.3v1.5c0 .2-.1.3-.3.3h-.9c-.3 0-.4-.1-.4-.4v-5.1c0-.2-.1-.2-.3-.2h-1.6c-.2 0-.3.1-.3.3v5.1c0 .3-.1.4-.4.4h-.8c-.3 0-.3-.1-.3-.3v-5.2c0-.2-.1-.3-.3-.3h-1.8c-.2 0-.3-.1-.3-.3v-.7c0-.3.1-.3.4-.3H85" fill-rule="evenodd" clip-rule="evenodd" fill="#033259"/><path id="Fill-134_00000033358655507680094150000014461842080880776834_" d="M99.2 130.9c0 .1 0 .2.1.3h-.2c-.1 0-.2 0-.2-.1-.1-.1.1-.2.1-.3 0-.1.1 0 .2.1" fill-rule="evenodd" clip-rule="evenodd" fill="#7c94a8"/><path id="Fill-136_00000101805209350379682470000016232733467395916709_" class="st9" d="M99 131"/></g><g id="Group-48" transform="translate(138 55)"><path id="Fill-1_00000170987201858752438270000007453468879066263222_" d="M105.2 64.8c-2.4.5-4.1.2-5.2-1-2.2-2.2-1.2-6.9-1.2-6.9 0-.1 0-.2-.1-.3-.1-.1-.2-.1-.3-.1l-9.5 1.8c-1 .2-2 0-2.8-.5-.8-.5-1.3-1.3-1.5-2.2l-1.2-6.1v-.1l-.5-2.7c1.1.1 4.6 0 6.4-1.9 1.1-1.2 1.4-2.8 1-4.9-.6-2.5-1.7-4.2-3.4-5-2.4-1-5.2.1-6.3.7L79 27c-.1-.9.1-1.8.6-2.6.6-.8 1.4-1.3 2.4-1.5l9.3-1.7c.1-.1.2-.1.2-.2v-.3s-2.8-4-1.6-6.8c.7-1.5 2.3-2.4 4.8-2.8 2.3-.4 4 0 5.1 1.2 2.1 2.2 1.1 6.6 1.1 6.7 0 .1 0 .2.1.3.1.1.2.1.3.1l9.1-1.7c2-.4 4 .8 4.3 2.7l1.9 9.4c.1.1.1.2.2.2s.2 0 .3-.1c0 0 3.3-2.6 6.1-1.7 1.6.5 2.7 2.1 3.4 4.7.6 2.7.4 4.7-.8 5.9-2.2 2.1-6.7 1.1-6.8 1-.1 0-.2 0-.3.1s-.1.2-.1.3l1.6 8.7c.4 1.8-1 3.7-3 4.1l-8.8 1.9c-.1.1-.2.1-.2.2v.3s2.6 3.7 1.5 6.6c-.6 1.3-2.1 2.3-4.5 2.8" fill-rule="evenodd" clip-rule="evenodd" fill="#fa9700"/><path id="Fill-3_00000087411393649089301100000004366152319915209375_" d="M105.7 65.1c-2.4.5-4.1.2-5.2-1-2.2-2.2-1.2-6.9-1.2-6.9 0-.1 0-.2-.1-.3-.1-.1-.2-.1-.3-.1l-9.5 1.8c-1 .2-2 0-2.8-.5-.8-.5-1.3-1.3-1.5-2.2l-1.2-6.1v-.1l-.5-2.7c1.1.1 4.6 0 6.4-1.9 1.1-1.2 1.4-2.8 1-4.9-.6-2.5-1.7-4.2-3.3-4.9-2.4-1-5.2.1-6.2.7l-1.6-8.5c-.1-.9.1-1.8.6-2.6.6-.8 1.4-1.3 2.4-1.5l9.3-1.7c.1-.1.2-.1.2-.2v-.3s-2.8-4-1.6-6.8c.7-1.5 2.3-2.4 4.7-2.8 2.3-.4 4 0 5.1 1.2 2.1 2.2 1.1 6.6 1.1 6.7 0 .1 0 .2.1.3.1.1.2.1.3.1l9-1.7c2-.4 4 .8 4.3 2.7l1.9 9.4c.1.1.1.2.2.2s.2 0 .3-.1c0 0 3.3-2.6 6-1.7 1.6.5 2.7 2.1 3.4 4.7.6 2.7.4 4.6-.8 5.8-2.2 2.1-6.7 1.1-6.8 1-.1 0-.2 0-.3.1-.1.1-.1.2-.1.3l1.5 8.7c.4 1.8-1 3.7-3 4l-8.7 1.9c-.1.1-.2.1-.2.2v.3s2.6 3.7 1.4 6.5c-.4 1.5-1.9 2.5-4.3 2.9m5.1-2.6c1.1-2.6-.6-5.7-1.3-6.7l8.3-1.8c2.3-.4 3.9-2.6 3.5-4.8l-1.5-8.2c1.3.2 4.9.7 6.9-1.3 1.4-1.3 1.7-3.5.9-6.4-.7-2.8-2-4.5-3.8-5.1-2.5-.8-5.2.8-6.2 1.5l-1.8-8.9c-.5-2.2-2.7-3.6-5-3.2l-8.6 1.6c.2-1.2.5-4.7-1.4-6.7-1.2-1.3-3.1-1.7-5.6-1.3-1.5.2-2.8.7-3.7 1.3-.7.5-1.2 1.1-1.5 1.8-1.1 2.6.7 5.9 1.4 7L82.6 23c-1.1.2-2.1.8-2.8 1.7-.6.9-.9 1.9-.7 3l1.7 8.9c0 .1.1.2.2.2h.3s3.4-1.9 6-.8c1.5.7 2.5 2.1 3 4.5.3 1.9.1 3.3-.9 4.4-2 2.2-6.2 1.7-6.3 1.7-.1 0-.2 0-.3.1-.1.1-.1.2-.1.3l.5 3 1.2 6.3c.2 1 .9 2 1.8 2.6 1 .6 2.1.9 3.2.6l9-1.7c-.2 1.3-.6 5 1.5 7 1.3 1.3 3.2 1.6 5.8 1.1 2.7-.6 4.4-1.7 5.1-3.4" fill-rule="evenodd" clip-rule="evenodd" fill="#f1f6f8"/><path id="Fill-5_00000064316815568446675580000011084676766931516804_" d="M119.7 149s-.1-10.2-.4-19.9c-.1-1.9-.1-4.4-.3-6.1-.2-4-.7-7-.3-10.4.5-5.2 2.3-10.3 3.9-14.4 2-5.1 4.1-9.1 5.7-13.8.8-2.2.1-3.9.1-3.9s1.3-3.2-.1-6.6c-1.3-3.3-5.2-6.8-5.2-6.8l-2.8-5.3s-2.2-9.9-3.8-10.6c-2.4-1.1-12.4-3-15.7-1.8-1.4.5-9.4 4.6-7.7 6.5.4.4 1.2 1.3 2.5 1.4 2 .1 4.8-1 6.7-1.4 1.4-.3 2.2 0 2.2 0s-6.6 4.4-8.4 8.5c-.7 1.5-.2 2.4 0 3.9.3 3.4 1.4 6.9 1.4 6.9s-3.4 8.6-3.8 17.7c-.3 5.7 2.3 10 2.5 17.6.2 7-.3 15.2-.7 21.9-.4 7.6-.7 13.4-.7 13.4s2.1 6.7 12.3 7.1c7.8.4 12.6-3.9 12.6-3.9" fill-rule="evenodd" clip-rule="evenodd" fill="#ffedde"/><path id="Fill-7_00000138575604779566377890000014156286125894043552_" d="M57.9 41.2c-.2 2.4-1.1 3.9-2.5 4.7-2.8 1.4-7-.9-7-1-.1-.1-.2 0-.3 0-.1 0-.1.1-.2.2l-1.1 9.6c-.1 1-.6 1.9-1.3 2.5-.7.6-1.6.9-2.6.8l-6.3-.7h-.1l-2.8-.4c.4-1 1.4-4.4.1-6.7-.8-1.4-2.3-2.2-4.5-2.4-2.6-.2-4.6.3-5.8 1.7-1.7 2-1.5 5-1.3 6.1l-8.7-1.1c-.9-.1-1.7-.6-2.3-1.4-.6-.8-.8-1.7-.7-2.7l1.1-9.4c0-.1-.1-.2-.1-.3-.1-.1-.2-.1-.3-.1 0 0-4.7 1.5-7-.6-1.2-1.1-1.6-2.9-1.3-5.4.3-2.3 1.3-3.8 2.7-4.5 2.8-1.3 6.7.9 6.8 1 .1.1.2 0 .3 0 .1 0 .1-.1.2-.2l1.1-9.1c.2-2.1 2-3.5 3.9-3.3l9.6 1c.1 0 .2-.1.3-.1 0-.1.1-.2 0-.3 0 0-1.5-3.9.2-6.3.9-1.4 2.9-2 5.5-1.8 2.8.2 4.6 1 5.4 2.5 1.4 2.7-1 6.7-1 6.8-.1.1 0 .2 0 .3s.1.1.2.2l8.8 1.2c1.9.2 3.2 2.1 3 4.1l-.6 8.9c0 .1.1.2.1.3.1.1.2.1.3.1 0 0 4.4-1.3 6.8.6 1.2 1 1.7 2.7 1.4 5.2" fill-rule="evenodd" clip-rule="evenodd" fill="#002f57"/><g id="Group-11"><defs><filter id="Adobe_OpacityMaskFilter_00000126290360386772851420000004591801018185389970_" filterUnits="userSpaceOnUse" x="3" y="10.4" width="56.5" height="48.4"><feColorMatrix values="1 0 0 0 0 0 1 0 0 0 0 0 1 0 0 0 0 0 1 0"/></filter></defs><mask maskUnits="userSpaceOnUse" x="3" y="10.4" width="56.5" height="48.4" id="mask-4_00000085960481164491865210000015752192504160618936_"><g filter="url(#Adobe_OpacityMaskFilter_00000126290360386772851420000004591801018185389970_)"><path id="path-3_00000162347017337625454550000001107620384918400188_" class="st0" d="M3 10.4h56.5v48.4H3z"/></g></mask><path id="Fill-9_00000113326617229026426850000012245959319149321118_" d="M58.7 41.3c-.2 2.4-1.1 4-2.5 4.7-2.8 1.4-7-.9-7.1-1-.1-.1-.2 0-.3 0-.1 0-.1.1-.2.2l-1.2 9.6c-.1 1-.6 1.9-1.3 2.5-.7.6-1.6.9-2.6.8l-6.3-.7h-.1l-2.6-.4c.4-1 1.4-4.4.1-6.7-.8-1.4-2.3-2.2-4.5-2.4-2.6-.2-4.6.3-5.8 1.7-1.7 2-1.5 5-1.3 6.2l-8.7-1.1c-.9-.1-1.7-.6-2.3-1.4-.6-.8-.8-1.7-.7-2.7l1.2-9.4c0-.1-.1-.2-.1-.3-.1-.1-.2-.1-.3-.1 0 0-4.7 1.5-7.1-.6-1.2-1.1-1.6-2.9-1.3-5.4C4 32.5 5 31 6.4 30.3c2.8-1.3 6.8.9 6.8 1 .1.1.2 0 .3 0 .1 0 .1-.1.2-.2l1.1-9.2c.2-2.1 2-3.5 3.9-3.3l9.7 1c.1 0 .2-.1.3-.1 0-.1.1-.2 0-.3 0 0-1.5-4 .2-6.3.9-1.4 2.9-2 5.6-1.8 2.8.2 4.6 1 5.4 2.6 1.4 2.7-1 6.8-1.1 6.8-.1.1 0 .2 0 .3 0 .1.1.1.2.2l8.9 1.2c1.9.2 3.3 2.1 3 4.1l-.8 9c0 .1.1.2.1.3.1.1.2.1.3.1 0 0 4.4-1.3 6.8.6 1.2.8 1.7 2.5 1.4 5m-.9-5.7c-2.2-1.8-5.7-1.2-6.9-.8l.8-8.5c.3-2.4-1.3-4.5-3.6-4.8l-8.4-1.1c.6-1.2 2.2-4.5.8-7-.9-1.7-2.9-2.7-6-2.9-2.9-.2-5 .5-6.1 2-1.5 2.2-.8 5.2-.4 6.4l-9.2-1c-2.3-.2-4.3 1.5-4.6 3.8l-1.1 8.7c-1.1-.6-4.4-2-7-.7-1.6.8-2.6 2.4-3 5-.3 1.5-.2 2.9.1 3.9.2.8.7 1.5 1.3 2 2.2 1.9 5.9 1.2 7.2.8l-1 9c-.1 1.1.1 2.3.8 3.2.7.9 1.6 1.5 2.7 1.6l9.1 1.1c.1 0 .2 0 .2-.1.1-.1.1-.2.1-.3 0 0-.8-3.8 1-6 1.1-1.2 2.8-1.7 5.3-1.5 1.9.2 3.3.9 4 2.2 1.5 2.6-.2 6.5-.2 6.5v.3c0 .1.1.1.2.2l3.1.4 6.4.8c1.1.1 2.2-.2 3-.9.9-.7 1.5-1.7 1.6-2.9l1.1-9.2c1.2.6 4.7 2.1 7.3.8 1.6-.8 2.6-2.6 2.9-5.2.4-2.8-.1-4.7-1.5-5.8" mask="url(#mask-4_00000085960481164491865210000015752192504160618936_)" fill-rule="evenodd" clip-rule="evenodd" fill="#f1f6f8"/></g><path id="Fill-12" d="m34.7 54.2-.8 2.6c.1.3 1.5.5 1.8.3l1.4-3.1s3.8.4 4.4 4.2c4.6.7 3.6-.5 3.6-.5s1 1.2 2.8 2.8c1.8 1.6 4.2 3.7 4.5 5 .5 1.7-.9 2.6-2 2.9-1.4.3-2.6-.1-2.6-.1s-.3 2.8-1.2 3.8c-1 .9-2.6.2-2.6.2s-.2 3.9 3 8.1c.8 1.1 2 2.6 3.3 4 2.8 3 6.1 6.2 7.6 9.9 2.2 5.5 1.7 12 3.3 18.9 3.5 15.5 7.8 31.4 7.8 31.4s.5 5.9-11 9.4c-9.5 2.9-13.5-1.6-13.5-1.6s-.8-7.2-2.7-18.9c-1.5-9-2.3-18.9-5.9-27.1-2.2-5-7.9-9.2-11.9-13-4.5-4.2-7.8-7.5-9.1-10.6-.5-1.2-1-2.6-.7-3.6 1.2-6 2.8-10.8 3.6-14 1-3.9 1.6-5.8 2.7-7 .5-.5 2.7-1.4 3.6-1.6 2.3-.7 4.4-1.1 5.7-1.5 2.7-.6 4.9-.9 4.9-.9" fill-rule="evenodd" clip-rule="evenodd" fill="#ffddc0"/><path id="Fill-14" class="st19" d="M32.3 91.1c-.6-2.6-.9-4.6-1.2-5.9-.2-1.7-.1-3.6 0-5.3.1-.8.1-1.7.1-2.5V75c0-2.1 0-4.3.2-6.3.2-2.1 1.1-4.6 2.3-6.8.4-.6.6-1.6.9-2.6.8-2.7 1.8-5.7 3.8-5.1 3 .8 3.5 4.4 3.5 6.5 0 1.9-.2 3.9-.4 5.8-.3 2.6-.6 5.3-.2 7.8.6 4 3.1 6.9 5.7 10 1.2 1.4 2.4 2.8 3.4 4.4 1.4 2.2 3.2 4.9 3.5 8.2 0 .2-.1.3-.3.3-.2 0-.3-.1-.4-.3-.3-3.2-2-5.8-3.4-7.9-1-1.5-2.2-2.9-3.4-4.3-2.6-3-5.2-6-5.8-10.3-.4-2.6-.1-5.3.3-8 .2-1.9.5-3.9.4-5.7-.1-1.9-.5-5.2-3.1-5.9-1.4-.4-2.3 2.5-3 4.7-.3 1.1-.7 2.1-1 2.7-1.2 2.2-2 4.6-2.2 6.6-.2 2.1-.2 4.2-.2 6.3v2.4c0 .9-.1 1.7-.1 2.6-.1 1.7-.2 3.5 0 5.2.2 1.3.6 3.2 1.2 5.8 0 .2-.1.3-.2.4-.2-.1-.4-.2-.4-.4"/><path id="Fill-16" class="st19" d="M43.6 76c-.4-1.2-.6-2.5-.6-3.7 0-.2.1-.3.3-.3.1 0 .3.1.3.3 0 1.9.6 3.9 1.5 5.6 1.7 3.1 4.6 6.1 7.2 8.7.5.5.9 1 1.4 1.5 2.4 2.5 4.1 5.6 5 9.1.5 1.9.7 3.7.9 5.8.2 2.4.6 5.4 1.5 9.9 1.1 5.4 3.8 15.8 6.6 26.8l1.3 4.9c0 .2-.1.3-.2.4-.2 0-.4-.1-.4-.2l-1.2-4.8c-2.9-11.1-5.6-21.5-6.7-26.8-.9-4.6-1.2-7.6-1.5-10-.2-2.1-.4-3.8-.9-5.7-.9-3.4-2.5-6.4-4.8-8.8-.5-.5-.9-1-1.4-1.5-2.6-2.6-5.5-5.7-7.2-8.8-.5-.9-.8-1.7-1.1-2.4"/><path id="Fill-18" class="st19" d="M24 74.8c0-.1 0-.2.1-.3 1-1.2 1.1-3.5 1.1-5.5.1-2 .1-3.8 1.1-4.4.7-.5 1.8-1 3-1.5 1.5-.7 3.1-1.3 4.2-2.1.1-.1.4-.1.4.1.1.1.1.3-.1.4-1.2.9-2.8 1.6-4.3 2.2-1.1.5-2.2.9-2.9 1.4-.7.4-.7 2.2-.8 3.9-.1 2.1-.1 4.5-1.3 5.8-.1.1-.3.2-.5 0 .1.2 0 .1 0 0"/><path id="Fill-20" class="st19" d="M13.4 82.2c-.1-.3-.2-.6-.2-.9-.4-1.8.2-4.1 1.3-7.6.5-1.6 1-3.4 1.5-5.5.1-.3.2-.7.3-1.1.9-3.6 1.9-7.7 3.1-8.6 1.7-1.4 5.1-2.1 6-2.3 1.6-.3 5.9-1.5 8-2.2.2 0 .5 0 .6.1 0 .2.1.3-.1.4-2.2.7-6.7 2-8.4 2.3-2 .4-4.6 1.2-5.8 2.2-1.1.9-2.3 5.7-2.9 8.3-.1.5-.2.8-.3 1.1-.5 2.1-1.1 3.9-1.6 5.5-1 3.4-1.7 5.6-1.3 7.3.8 3.5 3.2 5.9 5.7 8.5.5.5 1 1 1.5 1.6 1.3 1.4 2.9 2.8 4.6 4.2 4.2 3.7 9 7.8 11 13.9 0 0 0 .1.1.1 2 6.3 4.8 24.8 7.4 43.1 0 .2-.1.3-.3.3-.2 0-.3-.1-.3-.3-2.5-17.5-5.4-36.7-7.4-43 0 0 0-.1-.1-.1-1.9-5.9-6.6-10-10.8-13.6-1.7-1.5-3.2-2.8-4.6-4.3-.5-.5-1-1-1.5-1.6-2.1-2.3-4.5-4.6-5.5-7.8"/><path id="Fill-22" class="st19" d="M41 68.4c-.1-.1 0-.3.2-.4.1-.1.3 0 .4.2.4 1.1 1.8 3.7 3.1 4.1.5.2 1 .1 1.5-.3.8-.6 1.2-1.9 1.2-3.4 0-.1.1-.3.3-.3.1 0 .3.1.3.3 0 1.7-.5 3.1-1.5 3.9-.6.5-1.4.6-2 .4-1.6-.5-3.1-3.5-3.5-4.5.1 0 .1 0 0 0"/><path id="Fill-24" class="st19" d="M41 64.1c0-.1 0-.2.1-.3.1-.1.3-.1.5 0 1.6 1.7 5 4.6 7.8 4.6 1.3 0 2.4-.5 2.8-1.3.3-.6.3-1.2-.1-1.8-.5-.8-1.8-1.9-3.2-3.1-1.6-1.4-2.7-2.3-3.8-3.8-.1-.1-.1-.3 0-.4.1-.1.5 0 .6.2 1.1 1.4 2.2 2.1 3.7 3.5 1.4 1.3 2.7 2.4 3.2 3.2.5.8.6 1.7.2 2.5-.5 1-1.8 1.6-3.4 1.6-2.8 0-6.2-2.6-8.3-4.8l-.1-.1"/><path id="Fill-26" class="st19" d="M30 74.8v-.2c.1-.1.2-.9.2-1.6.3-2.3.5-4.3 1.1-4.9.1-.1.3-.1.5 0 .1.1.2.3 0 .5-.5.5-.8 3.1-1 4.5-.1 1.2-.2 1.6-.3 1.8.1.1-.2.1-.3.1-.1-.1-.2-.1-.2-.2"/><path id="Fill-28" class="st19" d="M22 78.4v-.3c.1-.2.3-.2.5-.1.4.3.8.6 1.3.9 1.6 1.1 3.5 2.4 5.9 3.4.1.1.3.3.2.4-.1.2-.3.3-.4.2-2.6-1-4.5-2.3-6.1-3.5-.4-.3-.9-.6-1.3-.9 0 .1-.1 0-.1-.1"/><path id="Fill-30" class="st19" d="M103 71c-.1 1 0 2 .2 3.2v.1c.4 2.5 1.4 6.2 3.1 9.3.8 1.5 2.2 2.3 3.3 2.1 1.1-.3 1.9-1.4 2-3.2.3-3.8.1-4.9-.8-7.5-.1-.2-.2-.2-.4-.2-.2.1-.2.3-.2.4 1 2.5 1.1 3.6.8 7.3-.1 1.5-.7 2.5-1.5 2.6-.9.2-1.9-.5-2.6-1.8-1.6-3-2.6-6.7-3-9.1v-.1c-.4-2.7-.6-4.1 2-6.6.4-.4.9-.8 1.3-1.3 2.3-2.2 4.6-4.5 6.4-3.3 1.8 1.2 3.4 3.3 4.8 5.2.5.7.9 1.3 1.4 1.8l.6.7c2.6 3.2 6.5 8.2 7 10.5.3 1.7-1.1 5-2.5 8.2-.6 1.3-1.2 2.7-1.7 3.9l-.4 1.1c-2.2 5.8-4.5 11.8-5.2 18.1-.3 2-.1 4.3.1 7.2.2 2.3.4 4.9.4 8 0 1.5.1 3.6.1 6.2.1 4.1.2 9.3.3 14.7 0 .2.1.3.3.3.2 0 .3-.1.3-.3-.1-5.4-.2-10.5-.3-14.7 0-2.6-.1-4.7-.1-6.2-.1-3.2-.2-5.8-.4-8.1-.2-2.9-.4-5.2-.2-7.1.7-6.2 3-12.2 5.2-18l.4-1.1c.5-1.2 1.1-2.6 1.7-3.9 1.5-3.4 2.9-6.7 2.5-8.6-.5-2.5-4.3-7.2-7.1-10.7l-.6-.7c-.4-.5-.9-1.2-1.4-1.8-1.4-2-3.1-4.1-5-5.4-2.2-1.5-4.7 1-7.1 3.4-.5.4-.9.9-1.3 1.3-1.6 1.6-2.3 2.9-2.4 4.1"/><path id="Fill-32" class="st19" d="M111 75.3v.2c0 .1 2.5 5 2.4 8.3 0 .2.1.3.3.3.2 0 .3-.1.3-.3.1-3.3-2.3-8.3-2.4-8.5-.1-.2-.3-.2-.4-.2-.1 0-.2.1-.2.2"/><path id="Fill-34" class="st19" d="M105 101.7c0 .1.1.3.2.3s.3-.1.4-.2c1.3-4.4 3.3-11 7.3-14.3.1-.1.1-.3.1-.4-.1-.1-.3-.1-.4-.1-4.2 3.4-6.2 10.1-7.5 14.5l-.1.2"/><path id="Fill-36" class="st19" d="M99.1 66.9c-.4 2.9.5 8.7.9 11.4v.3c.2 1.6 1.3 3 2.5 3.3.6.2 1.8.2 2.9-1.3.1-.1.1-.3 0-.4-.1-.1-.3-.1-.4.1-.7.9-1.5 1.3-2.3 1.1-1-.3-1.8-1.4-2-2.8v-.3c-.4-2.7-1.4-10-.7-12.1.8-2 7.7-7.5 10-8.2 4.6-1.4 8.2 3.2 11 7 .8 1 1.5 1.9 2.2 2.7 3.1 3.5 6.7 7.4 4.7 12.8 0 .1 0 .3.2.4.1 0 .3 0 .4-.2 2.1-5.7-1.6-9.8-4.8-13.4-.7-.7-1.4-1.7-2.1-2.7-3-3.9-6.7-8.8-11.7-7.2-2.2.7-9.5 6.3-10.4 8.6-.3.2-.4.5-.4.9"/><path id="Fill-38" class="st19" d="M95 65v.3c.2 4.2.7 10.1 2.8 11.4.5.3 1.1.4 1.7.1.2-.1.2-.2.2-.4-.1-.2-.3-.2-.4-.2-.4.2-.8.2-1.2-.1-1.4-.9-2.2-4.6-2.5-10.9-.1-3.1 9.8-10.1 12.1-11.2 6.4-2.8 12.4 8.6 14.7 12.8.1.2.3.2.4.1.2-.1.2-.2.1-.4-2.4-4.5-8.6-16.2-15.5-13.1-2 1.1-11.9 8-12.4 11.6"/><path id="Fill-40" class="st19" d="M92 54.6v.6c.1.6.7 1.4 2.5 1.7 1.7.3 3.3-.2 4.9-.7 1.4-.4 2.9-.9 4.5-.8.2 0 .3-.1.3-.3 0-.2-.1-.3-.3-.3-1.7-.2-3.3.3-4.7.8-1.5.5-3 .9-4.6.7-1.2-.2-1.9-.6-2-1.2-.2-.7.5-1.6 1.6-2.5 2.9-2.1 5.2-3.4 6.9-3.8 2.8-.6 13.8.5 15.1 2.6 1.2 2 3.2 10.3 3.2 10.4.1.2.2.3.4.2.2-.1.3-.2.2-.4-.1-.3-2-8.5-3.3-10.5-1.6-2.5-12.9-3.5-15.8-2.9-1.8.4-4.1 1.6-7.1 3.9-1 .7-1.7 1.6-1.8 2.5"/><path id="Fill-42" class="st19" d="M93.3 89c-.3 1.8-.3 3.7-.3 5.7.1 2.8.6 5 1.1 7.3.5 2.4 1.1 4.9 1.4 8.5.3 4.2-.1 11.1-.5 19.8-.3 4.7-.5 9.9-.8 15.4 0 .2.1.3.3.3.2 0 .3-.1.3-.3.2-5.4.5-10.7.8-15.4.4-8.8.8-15.7.5-19.9-.2-3.7-.8-6.3-1.4-8.6-.5-2.3-1-4.4-1.1-7.2-.2-6.4 1.2-11.5 3.4-19.2 0-.1-.1-.3-.2-.4-.1 0-.3.1-.4.2-1.5 5.4-2.7 9.6-3.1 13.8"/><path id="Fill-44_00000155138180803655309340000004850951406688294280_" class="st19" d="M111 75.6c0 .2.1.3.2.3s.3-.1.3-.2.4-3.1.6-4.4c0-.2-.1-.3-.2-.3s-.2.1-.3.2c-.2 1.3-.6 4.4-.6 4.4"/><path id="Fill-46_00000155832010085036628480000009965552802548419230_" class="st19" d="M107 74.3c0 .2.1.3.2.4.5.1.9.3 1.4.6.7.3 1.3.7 2 .7.2 0 .3-.1.3-.3 0-.2-.1-.3-.2-.4-.6-.1-1.2-.4-1.9-.7-.5-.2-1-.5-1.5-.6-.1-.1-.3 0-.3.3 0-.1 0-.1 0 0"/></g></svg>