<svg version="1.1" id="Layer_6" xmlns="http://www.w3.org/2000/svg" x="0" y="0" viewBox="0 0 270 220" xml:space="preserve" enable-background="new 0 0 270 220"><style>.st0,.st10,.st7{fill-rule:evenodd;clip-rule:evenodd;fill:#bec7d3}.st10,.st7{fill:#b4c2d2}.st10{fill:#384154}</style><g id="Group-448" transform="translate(1252 2699)"><path id="Fill-1_00000170272940610714350970000003870546610441149066_" class="st0" d="M-1069.8-2588.5c-.2 0-.3-.1-.3-.3v-75.4s-.1-4.3-.2-6.1c-.1-2.2-.2-3.7-1.6-5.5-1.2-1.6-4.1-2.4-4.2-2.4l-22.1-6.2c-.1 0-5-1.5-7.7-1.3-2.2.2-3.8.9-5 3.9-.8 2.1-.9 8.5-.9 8.6 0 .2-.2.3-.3.3-.2 0-.3-.2-.3-.3 0-.3.1-6.6 1-8.8 1.4-3.6 3.5-4.2 5.6-4.4 2.8-.2 7.7 1.3 7.9 1.3l22.1 6.2c.1 0 3.2.8 4.6 2.6 1.5 2 1.6 3.7 1.7 5.9.1 1.8.2 6.1.2 6.1v75.4c-.2.2-.3.4-.5.4"/><path id="Fill-3_00000173853219620108843450000009682718585216040342_" class="st0" d="M-1070-2539.5c-.3 0-.5-.2-.5-.3v-45.3c0-.2.2-.3.5-.3s.5.2.5.3v45.3c0 .1-.2.3-.5.3"/><path id="Fill-5_00000146464593237452246380000016924195622477623202_" class="st0" d="M-1072.8-2588.5c-.2 0-.3-.2-.3-.3v-73.6s-.1-3.9-.1-5.6c-.1-2.1-.4-3.1-1.6-4.8-1-1.5-3.5-2.1-3.6-2.2l-19.2-5c-.1 0-5.3-1.4-7-1.7-1.9-.3-3 .4-3.6 2.4-.7 2.4-.6 6.8-.6 6.9 0 .2-.1.3-.3.3-.2 0-.3-.1-.3-.3 0-.2-.1-4.6.6-7.1.6-2.3 2-3.2 4.3-2.9 1.7.3 6.9 1.7 7.1 1.7l19.2 5c.1 0 2.8.7 4 2.4 1.2 1.8 1.6 2.9 1.7 5.1.1 1.7.1 5.6.1 5.6v73.6c-.1.3-.2.5-.4.5"/><path id="Fill-7_00000088134994783639638460000006106158538822647170_" class="st0" d="M-1073-2539.5c-.3 0-.5-.2-.5-.3v-45.3c0-.2.2-.3.5-.3s.5.2.5.3v45.3c0 .1-.2.3-.5.3"/><path id="Fill-9_00000016785813239935938670000000744719766727438727_" class="st0" d="M-1111.6-2670.9c-3.2 0-6.1.3-8.4.7-2.8.6-3.8 1.3-3.8 1.8s1 1.3 3.7 2c2.5.6 5.9 1 9.6 1.1 3.6.1 7-.2 9.6-.7 2.8-.6 3.8-1.3 3.8-1.8 0-1.3-5.4-3-13.3-3.1h-1.2zm2.3 6.4h-1.2c-3.7-.1-7.1-.5-9.7-1.1-1.9-.5-4.2-1.3-4.2-2.6s2.4-2.1 4.3-2.5c2.6-.5 6.1-.8 9.8-.7 6.8.1 14 1.5 13.9 3.8 0 1.3-2.4 2.1-4.3 2.5-2.4.3-5.4.6-8.6.6z"/><path id="Fill-11_00000163778285268776247150000016632375657342031039_" class="st0" d="M-1099.8-2666.5c-.1 0-.3-.1-.3-.2-.1-.2 0-.3.2-.4 1.8-.6 2.8-1.3 2.8-1.9 0-1.6-5.8-3.6-14.2-3.8-6.4-.2-12.2.8-13.9 2.3-.3.3-.5.5-.5.8 0 .3.2.7.7 1.1.1.1.2.3.1.4-.1.1-.3.2-.5 0-.7-.5-1-1-1-1.6 0-.4.2-.9.7-1.2 1.9-1.7 7.7-2.7 14.4-2.5 7.3.2 15 1.8 14.9 4.5 0 1-1.1 1.9-3.3 2.5h-.1"/><path id="Fill-13_00000159430489745698479550000005464262106805000375_" class="st0" d="M-1111.9-2663.5h-.2c-.2 0-.4-.2-.4-.5s.2-.5.4-.5h.2c.2 0 .4.3.4.5 0 .3-.2.5-.4.5"/><path id="Fill-15_00000065796808193621032260000013045823176397228212_" class="st0" d="M-1122.9-2667.5h-.2c-.2-.1-.4-.4-.3-.6.1-.2.3-.4.6-.3l-.1.5.2-.4s.1 0 .1.1c.2.1.3.4.2.6-.2 0-.4.1-.5.1"/><path id="Fill-17_00000158020803604219994440000010649893288408580760_" class="st0" d="M-1119.9-2668.5h-.2c-.1 0-.3-.2-.3-.3-.1-.2-.1-.5.1-.6.2-.1.4-.1.5.1.2.1.3.4.2.6 0 .1-.1.2-.3.2"/><path id="Fill-19_00000149377655923664413820000015660553648781915010_" class="st0" d="M-1118.9-2668.5c-.1 0-.2 0-.3-.1-.2-.1-.3-.3-.3-.5s.3-.4.5-.5c.2 0 .3.1.4.2.2.2.2.4.1.6-.1.2-.3.3-.4.3"/><path id="Fill-21_00000095316163235118862540000010827114206305530555_" class="st0" d="M-1117-2668.5c-.2 0-.4-.1-.5-.3v-.2c0-.2.2-.4.5-.4s.5.2.5.4v.1c.1.1-.1.4-.5.4.1 0 .1 0 0 0"/><path id="Fill-23_00000058588059117990594520000007801313606937030047_" class="st0" d="M-1116-2668.5c-.3 0-.5-.1-.5-.4v-.2c0-.2.2-.4.5-.4s.5.2.5.4v.1c0 .3-.2.5-.5.5"/><path id="Fill-25_00000024687149730459046180000004921119063719872678_" class="st0" d="M-1115-2670.5c-.3 0-.5-.1-.5-.4v-.2c0-.2.2-.4.5-.4s.5.2.5.4v.2c0 .2-.2.4-.5.4"/><path id="Fill-27_00000127759992443409907510000016546495251065496467_" class="st0" d="M-1112-2670.5c-.2 0-.5-.1-.5-.3v-.2c0-.2.2-.4.5-.4s.5.2.5.4v.2c.1.1-.1.3-.5.3.1 0 .1 0 0 0"/><path id="Fill-29_00000168102949372377904430000014132302056049046409_" class="st0" d="M-1111-2670.5c-.3 0-.5-.2-.5-.4V-2671.2c.1-.2.4-.4.6-.3.3.1.4.3.3.5v.1c.1.2-.1.4-.4.4"/><path id="Fill-31_00000137845375062378407250000003549572381527514241_" class="st0" d="M-1108-2670.5c-.3 0-.5-.3-.5-.5 0-.1.1-.2.1-.3.1-.2.4-.3.6-.2.2.1.3.3.2.5v.1c0 .3-.2.4-.4.4"/><path id="Fill-33_00000013900878121855349920000006950269260697376700_" class="st0" d="M-1107-2668.5s-.1 0 0 0c-.3 0-.5-.3-.4-.5 0-.2.1-.3.1-.4.2-.2.5-.2.7-.1.2.1.3.4.1.5-.1.4-.3.5-.5.5"/><path id="Fill-35_00000172422950046703722020000012947187224158495374_" class="st0" d="M-1105-2668.5h-.2c-.2-.1-.3-.4-.2-.6 0 0 .1-.2.2-.2.2-.2.5-.2.6 0 .2.2.2.4 0 .6-.1.1-.3.2-.4.2"/><path id="Fill-37_00000017490388014426784590000012720016978875075972_" class="st0" d="M-1104.1-2668.5c-.1 0-.1 0-.2-.1-.2-.1-.2-.3-.1-.5l.1-.1.1-.1c.1-.2.4-.2.6-.1.2.1.2.3.1.5l-.2.2c-.1.1-.2.2-.4.2"/><path id="Fill-39_00000043453409954157817940000003609748105572705181_" class="st0" d="M-1101-2668.5h-.1c-.2-.1-.4-.3-.3-.5v-.1c0-.1.1-.2.1-.3.1-.2.4-.2.6-.1.2.1.3.3.1.5v.1c0 .3-.2.4-.4.4"/><path id="Fill-41_00000103950778952997296950000001968140691561339798_" class="st0" d="M-1100.1-2667.5c-.1 0-.2 0-.2-.1-.2-.1-.2-.4-.1-.6l.1-.1c.1-.1.2-.2.3-.2.2-.1.5 0 .5.3.1.2 0 .4-.2.5 0 0 0 .1-.1.1 0 0-.1.1-.3.1"/><path id="Fill-43_00000058559399344057989880000000097312505130515078_" class="st0" d="M-1099.1-2667.5c-.1 0-.2-.1-.3-.1-.1-.2-.1-.4 0-.6l.1-.1c.1-.1.1-.1.2-.1.2-.1.5 0 .5.2.1.2 0 .5-.2.6l-.1.1h-.2"/><path id="Fill-45_00000060711093693228482410000005819295111378975664_" class="st0" d="M-1119.9-2666.5H-1120.2c-.2-.1-.4-.3-.3-.6.1-.2.3-.4.5-.3l-.1.4.2-.4s.1.1.2.1c.2.1.3.4.2.6-.1.1-.2.2-.4.2"/><path id="Fill-47_00000147189621860050277310000016534886069199772599_" class="st0" d="M-1118.9-2667.5c-.1 0-.3-.1-.4-.2 0 0-.1-.1-.1-.2-.1-.2-.1-.5.1-.6.2-.1.5-.1.6.1l-.3.3.4-.2c.1.2.1.5-.1.6 0 .2-.1.2-.2.2"/><path id="Fill-49_00000176746317122985190030000015313108775836671380_" class="st0" d="M-1116.9-2667.5c-.2 0-.3-.1-.4-.2 0 0 0-.1-.1-.1-.1-.1-.1-.2-.1-.3 0-.2.2-.4.5-.4.2 0 .4.1.4.3v.1c.1.2 0 .4-.2.5 0 .1 0 .1-.1.1"/><path id="Fill-51_00000100344407152809680870000002209773620833835435_" class="st0" d="M-1115-2667.5c-.3 0-.5-.2-.5-.4v-.2c0-.2.2-.4.5-.4s.5.2.5.4v.2c0 .2-.2.4-.5.4"/><path id="Fill-53_00000120528790504562722900000005074932065606578048_" class="st0" d="M-1112-2667.5s-.1 0 0 0c-.3 0-.5-.2-.5-.5v-.1c0-.1 0-.2.1-.3.1-.2.4-.2.7-.1.2.1.3.3.1.5v.1c0 .3-.2.4-.4.4"/><path id="Fill-55_00000080910162457300666330000011395500711953469061_" class="st0" d="M-1111-2667.5h-.1c-.2-.1-.4-.3-.3-.5 0-.1.2-.3.3-.4.2-.1.5 0 .6.2.1.2.1.3-.1.5 0 .1-.2.2-.4.2"/><path id="Fill-57_00000090275316770491061700000017417322352126021041_" class="st0" d="M-1108-2667.5h-.2c-.2-.1-.3-.3-.2-.5l.1-.1c0-.1.1-.2.2-.2.2-.1.4-.2.6 0 .2.2.2.4 0 .5v.1c-.2.1-.4.2-.5.2"/><path id="Fill-59_00000104687114566817958050000005945337415102809747_" class="st0" d="M-1107.1-2667.5c-.1 0-.2 0-.2-.1-.2-.1-.2-.4-.1-.6 0-.1.1-.1.1-.1l.2-.2c.2-.1.5-.1.6.1.1.2.1.4-.1.5l-.1.1c-.1.2-.2.3-.4.3"/><path id="Fill-61_00000131357628094636459040000017362050341900531352_" class="st0" d="M-1105.1-2667.5c-.1 0-.2 0-.3-.1-.2-.2-.2-.4 0-.6l.2-.2c.2-.2.4-.2.6 0 .2.2.2.4 0 .6l-.2.2c0 .1-.1.1-.3.1"/><path id="Fill-63_00000111163452157910955150000001289489416335100088_" class="st0" d="M-1103.1-2666.5c-.2 0-.4-.2-.4-.4 0-.1 0-.3.1-.4 0 0 .1-.1.2-.1h.1c.2-.1.5 0 .5.2.1.2 0 .5-.2.6 0 0-.1.1-.3.1"/><path id="Fill-65_00000024703049303095787290000000672637173086679938_" class="st0" d="M-1101-2666.5c-.1 0-.3-.1-.4-.2-.1-.2-.1-.5.1-.6.1-.2.4-.3.6-.1.2.1.3.4.1.6l-.4-.3.3.3c0 .1-.1.2-.2.2.1.1 0 .1-.1.1"/><path id="Fill-67_00000023241246772674778850000008571727902918538168_" class="st0" d="m-1117.7-2666.5-.4-.2-.4-.3.2-.3c.2-.2.4-.3.6-.1.2.2.2.5.1.7l-.1.2z"/><path id="Fill-69_00000128460719060941790540000000836340315141682849_" class="st0" d="M-1117-2666.5h-.1c-.2-.1-.4-.3-.3-.5v-.1c0-.1.1-.1.1-.2.1-.2.4-.2.6-.1.2.1.3.3.1.5v.1c-.1.2-.2.3-.4.3"/><path id="Fill-71_00000062910037767399841540000001566438274904286353_" class="st0" d="M-1115-2666.5h-.1c-.2-.1-.4-.3-.3-.5l.1-.2c.1-.2.3-.3.6-.3.2.1.4.3.3.5l-.1.2c-.1.2-.3.3-.5.3"/><path id="Fill-73_00000119103270835554504150000013397940036890015154_" class="st0" d="M-1112-2666.5c-.3 0-.5-.2-.5-.4v-.3c0-.2.2-.4.5-.4s.5.2.5.4v.3c0 .2-.2.4-.5.4"/><path id="Fill-75_00000012457703258392972710000014943770030642788793_" class="st0" d="M-1110.9-2666.5c-.2 0-.3-.1-.4-.2 0 0 0-.1-.1-.1-.1-.2-.1-.4.1-.6.2-.2.5-.2.7 0 .1.1.1.2.1.3.1.2 0 .4-.2.5-.1.1-.2.1-.2.1"/><path id="Fill-77_00000158002406919011392260000015994044345183663525_" class="st0" d="M-1107.9-2665.5c-.1 0-.3-.1-.4-.2l-.2-.3v-.2c0-.2.2-.4.4-.4s.4.1.4.3l.1.2c.1.2 0 .4-.2.5 0 .1 0 .1-.1.1"/><path id="Fill-79_00000064350098730556724950000004094365080241695648_" class="st0" d="M-1106.9-2665.5c-.2 0-.3-.1-.4-.2 0-.1-.1-.3-.1-.3 0-.2.2-.4.5-.4.2 0 .5.2.5.4.1.2 0 .5-.2.6-.2-.1-.3-.1-.3-.1"/><path id="Fill-81_00000178917609142588629460000014925936304032158129_" class="st0" d="M-1103.9-2665.5c-.1 0-.2-.1-.3-.2 0 0 0-.1-.1-.1-.1-.1-.2-.2-.2-.3 0-.2.2-.4.4-.4v.4-.4c.2 0 .4.1.5.3.1.2.1.5-.1.6 0 .1-.1.1-.2.1"/><path id="Fill-83_00000029029947275292929160000017397161913603644038_" class="st0" d="M-1078.3-2589.8c-.8 0-1.4.6-1.4 1.4v.8c0 .8.6 1.4 1.4 1.4h10.3c.3 0 .9-.1 1.4-.5.3-.3.5-.8.4-1.4-.1-1.5-.9-1.7-1.8-1.7h-2.5c-.2.1-.9.3-1.6.3-.7 0-1.4-.2-1.6-.3h-4.6zm10.3 4.3h-10.3c-1.2 0-2.1-.9-2.1-2.1v-.8c0-1.2 1-2.1 2.1-2.1H-1073.4s.7.3 1.4.3 1.3-.3 1.4-.3h2.6c.6 0 2.4 0 2.5 2.4 0 .8-.2 1.5-.6 1.9-.6.6-1.5.7-1.9.7z"/><path id="Fill-85_00000168110188439275173570000015671444588461911482_" class="st0" d="M-1067.2-2585.5h-.2c-1.4-.3-2.2-1.4-2.1-2.6.1-1 .9-2.1 2.3-2.3.3 0 .6.1.6.3.1.2-.1.4-.4.4-.9.1-1.4.9-1.5 1.6-.1.7.2 1.6 1.3 1.9.3.1.4.3.3.5.1.1-.1.2-.3.2"/><path id="Fill-87_00000164486299628964594830000014965516952635973521_" class="st0" d="M-1089.4-2539.9c-.3 0-.6.1-.9.3-.3.2-.4.5-.4.8l-.1 1.8c0 .3.1.6.3.9.2.2.5.4.9.4l33.9 1.5c.7 0 1.4-1 1.5-2 0-.8-.1-1.4-.5-1.8-.2-.2-.5-.4-.8-.4l-33.9-1.5m33.8 6.4c-.1 0-.1 0 0 0l-34-1.5c-.5 0-1-.2-1.4-.6-.4-.4-.5-.8-.5-1.3l.1-1.8c0-.5.3-1 .6-1.3s.9-.5 1.4-.5l33.9 1.5c.5 0 .9.2 1.3.6.3.4.7 1.1.7 2.3-.1 1.4-1.1 2.6-2.1 2.6"/><path id="Fill-89_00000174593989586581691610000013701002785141309597_" class="st0" d="M-1086-2534.5c-.1 0-.2-.1-.3-.3-.4-1.6-.3-4 .2-5.5.1-.2.2-.3.4-.2.1.1.2.3.2.5-.4 1.3-.5 3.6-.2 5 .1.2 0 .4-.3.5.1 0 .1 0 0 0"/><path id="Fill-91_00000083798970725236229990000011170079931303930788_" class="st0" d="M-1064-2533.5c-.1 0-.2-.1-.3-.3-.4-1.6-.3-4 .2-5.5.1-.2.2-.3.4-.2.1.1.2.3.2.5-.4 1.3-.5 3.6-.2 5 .1.2 0 .4-.3.5.1 0 .1 0 0 0"/><path id="Fill-93_00000004526500375813274890000015752904093626368690_" class="st0" d="M-1056.2-2533.5h-.2c-1.8-.7-2.2-2.3-2-3.5.2-1.3 1.2-2.3 2.4-2.5.2 0 .5.1.5.3 0 .2-.1.4-.4.4-.8.1-1.5.9-1.7 1.9-.2.9.1 2.2 1.5 2.7.2.1.3.3.2.5 0 .1-.2.2-.3.2"/><path id="Fill-95_00000172435497106592644050000006037437374933355199_" class="st0" d="M-1068-2497.5s-.1 0 0 0c-.3 0-.4-.2-.4-.4 1.9-11.6 1.4-27.8-1.1-36.2-.1-.2.1-.4.3-.4.2-.1.4.1.5.2 2.5 8.5 3 24.8 1.1 36.5-.1.2-.2.3-.4.3"/><path id="Fill-97_00000158722480635111283220000011212989379564596926_" class="st0" d="M-1066-2497.5s-.1 0 0 0c-.3 0-.4-.2-.4-.4 1.9-11.6 1.4-27.8-1.1-36.2-.1-.2.1-.4.3-.4.2-.1.4.1.5.2 2.5 8.5 3 24.8 1.1 36.5-.1.2-.2.3-.4.3"/><path id="Fill-99_00000008853666262054490670000006940292995179437984_" class="st0" d="M-1068.3-2532.5c-.1 0-.2-.2-.2-.5s.1-.5.2-.5c.2 0 .4 0 .7-.1l.1.4v.5c-.3.2-.5.2-.8.2"/><path id="Fill-101_00000112599360570809613640000002027774067125991050_" class="st0" d="M-1067.4-2528.5c-.1 0-.2 0-.5-.1h-.1c-.3 0-.5-.3-.4-.5.1-.2.3-.4.6-.3h.5c.2 0 .5-.1 1.3-.1.3 0 .5.2.5.4s-.2.5-.5.5c-.7 0-1 .1-1.2.1h-.2"/><path id="Fill-103_00000023960094461879663420000014894510966113811861_" class="st0" d="M-1067.8-2525.5h-.2c-.3 0-.5-.2-.5-.5s.2-.5.5-.5h2c.3 0 .5.2.5.5s-.2.5-.5.5h-1.8"/><path id="Fill-105_00000106869119058039947710000011336674974150171268_" class="st0" d="M-1066.8-2520.5h-.2c-.3 0-.5-.2-.5-.5s.2-.5.5-.5h2c.3 0 .5.2.5.5s-.2.5-.5.5h-1.8"/><path id="Fill-107_00000115489661626841240320000011064136361267306687_" class="st0" d="M-1066.9-2515.5c-.3 0-.6-.2-.6-.5s.2-.5.5-.5h2c.3 0 .5.2.5.5s-.2.5-.5.5h-1.9"/><path id="Fill-109_00000122705705831556760550000006122037820650367670_" class="st0" d="M-1065.8-2510.5c-.4 0-.6 0-1.1-.1-.3 0-.6-.3-.5-.5 0-.3.3-.4.6-.4h.1c.7.1.9.1 1.8 0 .3 0 .6.2.6.4 0 .3-.2.5-.5.5-.5.1-.8.1-1 .1"/><path id="Fill-111_00000110469889165617695130000008403996575977045182_" class="st0" d="M-1065-2506.5c-.5 0-.8-.1-1-.1-.4 0-.4 0-.8-.1l-.4-.1c-.3-.1-.4-.3-.4-.5.1-.2.3-.3.6-.3l.4.1c.4.1.4.1.7.1.2 0 .4 0 .9.1.3 0 .5.2.4.4.1.3-.1.4-.4.4"/><path id="Fill-113_00000090993725852187673660000003875810903500944301_" class="st0" d="M-1066-2501.5s-.1 0-.2-.1h-.1c-.1 0-.2-.3-.2-.5s.1-.4.2-.3l.1.1h.1c.1 0 .1-.1.3-.1.1 0 .2.1.2.3 0 .2 0 .4-.2.5-.1.1-.2.1-.3.1h.1"/><path id="Fill-115_00000087376610538748415950000013979296400953780917_" class="st0" d="M-1073.8-2538.5c-.1 0-.2-.1-.3-.2-.7-1.3-1.8-2-3-2-1.1 0-2.1.6-2.8 1.7-.1.2-.3.2-.5.1-.1-.1-.2-.4-.1-.5.8-1.3 2-2 3.3-2 1.4 0 2.8.9 3.6 2.4.1.2 0 .4-.1.5h-.1"/><path id="Fill-117_00000078045327865644278900000003753011654957004681_" class="st0" d="M-1077.9-2531.5c-1.5 0-2.8-1-3.6-2.5-.1-.2 0-.4.1-.5.2-.1.4 0 .4.1.6 1.3 1.8 2.1 3 2.1 1.1 0 2.1-.7 2.8-1.8.1-.2.3-.2.4-.1.2.1.2.3.1.5-.6 1.4-1.8 2.2-3.2 2.2"/><path id="Fill-119_00000078726394867774106680000008322132569936972675_" class="st0" d="M-1061.9-2531.5c-1.4 0-2.8-1-3.5-2.5-.1-.2 0-.4.1-.5.2-.1.3 0 .4.1.6 1.3 1.7 2.1 2.9 2.1s2.2-.7 2.9-2c.1-.2.3-.2.4-.1.2.1.2.3.1.5-.7 1.5-1.9 2.4-3.3 2.4"/><path id="Fill-121_00000059303666885774473810000000626902989890392988_" class="st0" d="M-1058.8-2537.5c-.1 0-.2-.1-.3-.2-.7-1.3-1.8-2-3-2-1 0-2 .5-2.7 1.5-.1.2-.4.2-.5 0-.1-.1-.2-.4 0-.6.9-1.2 2-1.8 3.2-1.8 1.4 0 2.7.9 3.6 2.4.1.2.1.4-.1.6-.1.1-.2.1-.2.1"/><path id="Fill-123_00000076583721853437791420000004517070670057073320_" class="st0" d="M-1243.1-2602.5c-.2 0-.3-.1-.3-.3 0-.2.1-.3.3-.4l245.3-10.3c.2 0 .3.1.4.3 0 .2-.1.3-.3.4l-245.4 10.3"/><path id="Fill-125_00000063607934128118396910000001471639373839385772_" class="st0" d="M-1229.1-2629.5c-.2 0-.3-.1-.3-.3 0-.2.1-.4.3-.4l198.3-23.3c.2 0 .4.1.4.3 0 .2-.1.4-.3.4l-198.4 23.3"/><path id="Fill-127_00000047033504257432194260000003859765515482113935_" class="st0" d="M-1190.1-2667.5c-.2 0-.3-.1-.3-.3 0-.2.1-.4.3-.4l71.3-11.3c.2 0 .4.1.4.3 0 .2-.1.4-.3.4l-71.4 11.3"/><g id="Group-131" transform="translate(0 111)"><defs><filter id="Adobe_OpacityMaskFilter" filterUnits="userSpaceOnUse" x="-1249.5" y="-2686.2" width="264.9" height="7.4"><feColorMatrix values="1 0 0 0 0 0 1 0 0 0 0 0 1 0 0 0 0 0 1 0"/></filter></defs><mask maskUnits="userSpaceOnUse" x="-1249.5" y="-2686.2" width="264.9" height="7.4" id="mask-2_00000171720154117400362340000013946919673459369368_"><g filter="url(#Adobe_OpacityMaskFilter)"><path id="path-1_00000011740737645737390160000018420643809075900802_" fill-rule="evenodd" clip-rule="evenodd" fill="#fff" d="M-1249.5-2686.2h265v7.4h-265z"/></g></mask><path id="Fill-129_00000047759471264065159620000017959446716793343414_" d="m-984.9-2678.8-264.3-6.8c-.2 0-.3-.1-.3-.3 0-.2.1-.3.3-.3l264.3 6.8c.2 0 .3.1.3.3.1.1-.1.3-.3.3" mask="url(#mask-2_00000171720154117400362340000013946919673459369368_)" fill-rule="evenodd" clip-rule="evenodd" fill="#bec7d3"/></g><path id="Fill-132_00000042716288065170161140000008706435158713723326_" class="st0" d="m-994.8-2524.5-253.3-19.3c-.2 0-.3-.2-.3-.4s.2-.3.4-.3l253.3 19.3c.2 0 .3.2.3.4-.1.2-.2.3-.4.3"/><path id="Fill-134_00000137815950695837255640000007426911727058741915_" class="st0" d="M-1034-2497.5c-.3 0-.5-.2-.5-.3v-157.3c0-.2.2-.3.5-.3s.5.2.5.3v157.3c0 .1-.2.3-.5.3"/><path id="Fill-136_00000103260318907636120350000011145092849515892123_" class="st0" d="M-1089-2494.5c-.3 0-.5-.2-.5-.3v-182.3c0-.2.2-.3.5-.3s.5.2.5.3v182.3c0 .1-.2.3-.5.3"/><path id="Fill-138_00000006704671401727479040000001437717452625784472_" class="st0" d="M-1141-2497.5c-.3 0-.5-.2-.5-.3v-182.3c0-.2.2-.3.5-.3s.5.2.5.3v182.3c0 .1-.2.3-.5.3"/><path id="Fill-140_00000075852341304844449390000002949772119682821011_" class="st0" d="M-1196-2495.5c-.3 0-.5-.2-.5-.3v-166.3c0-.2.2-.3.5-.3s.5.2.5.3v166.3c0 .1-.2.3-.5.3"/><path id="Fill-142_00000109020162803072731560000006801756040228893065_" class="st0" d="M-1239-2522.5c-.3 0-.5-.2-.5-.3v-90.3c0-.2.2-.3.5-.3s.5.2.5.3v90.3c0 .1-.2.3-.5.3"/><path id="Fill-144_00000058560937684885533010000015576564179460572834_" class="st0" d="M-1127-2656.5c-.2 0-.4-.2-.4-.5v-.4l.2-1.2v-.3c0-.3.2-.5.4-.5s.4.2.4.5v.4l-.2 1.2v.3c0 .3-.2.5-.4.5"/><path id="Fill-146_00000057135213613377977940000007301699296253118399_" class="st0" d="M-1120-2657.5c-.1 0-.1 0 0 0-.3 0-.5-.3-.4-.6 0-.4.1-.6.1-.8v-1.2c0-.3.2-.5.4-.5s.4.2.4.5v.5c0 .4 0 .5-.1.9 0 .2-.1.4-.1.8 0 .2-.1.4-.3.4"/><path id="Fill-148_00000073700620971265726820000002077375782206637212_" class="st0" d="M-1131.1-2647.5c-.3 0-.4-.3-.4-.5.1-.8.2-1.2.2-1.4v-.7c0-.2.2-.4.4-.4s.4.2.4.4v.1c0 .4 0 .5-.1.8 0 .2-.1.5-.2 1.4 0 .2-.1.3-.3.3"/><path id="Fill-150_00000021816636678490186050000002934083123224701613_" class="st0" d="M-1123-2648.5c-.3 0-.5-.2-.5-.5v-2c0-.3.2-.5.5-.5s.5.2.5.5v2c0 .3-.2.5-.5.5"/><path id="Fill-152_00000095337323608829703500000011704014472681221294_" class="st0" d="M-1127.1-2641.5c-.2 0-.3-.2-.3-.3V-2642.1l.3-1.4v-.6c0-.2.1-.3.3-.3.2 0 .3.2.3.3v.7l-.3 1.4v.2c0 .1-.2.3-.3.3"/><path id="Fill-154_00000058574410952585484610000018105478939287676073_" class="st0" d="M-1129.1-2631.5c-.1 0-.1 0 0 0-.3-.1-.4-.3-.3-.6l.3-2c0-.3.2-.4.4-.4.2.1.3.3.2.6l-.3 2c-.1.3-.2.4-.3.4"/><path id="Fill-156_00000033340347608482777520000012381445118427377551_" class="st0" d="M-1115-2651.5c-.2 0-.4-.2-.4-.5V-2653.6l.1-.2v-.2c0-.3.2-.5.4-.5s.4.2.4.5v.5l-.1.2v1.2c0 .4-.2.6-.4.6"/><path id="Fill-158_00000110431762767399504830000000078926435688157606_" class="st0" d="M-1112-2657.5c-.3 0-.5-.2-.5-.5v-2c0-.3.2-.5.5-.5s.5.2.5.5v2c0 .3-.2.5-.5.5"/><path id="Fill-160_00000050621797524988771860000006225522799497811880_" class="st0" d="M-1110-2648.5c-.3 0-.5-.1-.5-.2v-.6c0-.1.2-.2.5-.2s.5.1.5.2v.6c0 .1-.2.2-.5.2"/><path id="Fill-162_00000137109239466976485770000006937056293684970430_" class="st0" d="M-1103.8-2655.5c-.1 0-.2 0-.3-.1l-.1-.1-.2-.2c0-.1-.1-.1-.1-.3-.1-.1.1-.2.2-.2.2 0 .4 0 .4.1.1.2.1.3.2.3 0 .1 0 .1.1.2l.1.1c.1.1 0 .2-.1.3-.1-.1-.2-.1-.2-.1"/><path id="Fill-164_00000172413660471002986190000014463656094608143771_" class="st0" d="M-1097.8-2657.5c-.1 0-.2-.1-.3-.3-.2-.7-.3-1-.3-1.2-.1-.4-.1-.4-.1-.9v-.2c0-.2.1-.4.3-.4s.3.2.3.4v.2c0 .4 0 .4.1.6.1.2.2.5.3 1.3.1.2 0 .4-.3.5.1 0 .1 0 0 0"/><path id="Fill-166_00000114781785781081036950000017888819762885735854_" class="st0" d="M-1098.8-2649.5c-.2 0-.3-.2-.3-.4v-.3l-.1-1-.1-.2-.1-.5c-.1-.2 0-.5.2-.5.2-.1.4 0 .4.3l.1.4.1.2v.1l.1 1.5c0 .2-.1.4-.3.4"/><path id="Fill-168_00000067214117783867293860000001744663219623495066_" class="st0" d="M-1115.8-2639.5c-.2 0-.3-.1-.4-.3-.2-1-.3-2.1-.3-3.2 0-.2.2-.4.4-.4s.4.2.4.4c0 1 .1 2.1.2 3.1.1.1-.1.3-.3.4"/><path id="Fill-170_00000047740797763303453050000004590270327821239461_" class="st0" d="M-1110-2638.5c-.3 0-.5-.2-.5-.4v-2.2c0-.2.2-.4.5-.4s.5.2.5.4v2.2c0 .2-.2.4-.5.4"/><path id="Fill-172_00000080166672762242914340000017623788166582350468_" class="st0" d="M-1137.2-2632.5c-.2-.1-.3-.3-.3-.5.1-.7.2-1 .2-1.2.1-.3.1-.3.2-.8v-.2c.1-.2.2-.3.4-.3.2.1.2.3.2.5v.2c-.1.4-.1.4-.1.7 0 .2-.1.5-.2 1.3-.1.2-.2.3-.4.3"/><path id="Fill-174_00000025405039726720101360000012627343045871306127_" class="st0" d="M-1127.1-2611.5c-.3 0-.4-.3-.4-.5.1-.8.2-1.2.2-1.4v-.7c0-.2.2-.4.4-.4s.4.2.4.4v.1c0 .4 0 .5-.1.8 0 .2-.1.5-.2 1.4 0 .2-.1.3-.3.3"/><path id="Fill-176_00000062158269257256316720000018056483788827824049_" class="st0" d="M-1118-2607.5c-.2 0-.4-.2-.4-.4 0-.7 0-1.1-.1-1.3 0-.4 0-.5.2-.9l.1-.1c.1-.2.3-.3.5-.2.2.1.3.4.2.6l-.1.1c-.1.1-.1.2-.1.3v.1c0 .2.1.6.1 1.4 0 .2-.2.4-.4.4"/><path id="Fill-178_00000014614903086951890540000015804582248807380910_" class="st0" d="M-1109.8-2618.5c-.2 0-.3-.1-.4-.4-.1-.7-.2-1-.2-1.2-.1-.3-.1-.4-.1-.8v-.2c0-.2.2-.4.4-.4s.4.2.4.4v.8c0 .2.1.5.2 1.2.1.3-.1.6-.3.6"/><path id="Fill-180_00000111164382021396425630000008991974740778582454_" class="st0" d="M-1100.9-2622.5c-.2 0-.4-.2-.4-.5-.1-.7-.1-1-.1-1.1V-2625c0-.3.2-.5.4-.5s.4.2.4.5v.8c0 .2.1.5.1 1.2.1.2-.1.5-.4.5"/><path id="Fill-182_00000027603597981819097510000002160365667890045862_" class="st0" d="M-1104-2632.5c-.3 0-.5-.2-.5-.4v-2.2c0-.2.2-.4.5-.4s.5.2.5.4v2.2c0 .2-.2.4-.5.4"/><path id="Fill-184_00000157305957514393421380000002690640396575307921_" class="st0" d="M-1094.8-2637.5c-.1 0-.2-.1-.3-.3-.2-.9-.5-2-.4-2.3 0-.2.2-.4.3-.4.2 0 .3.2.2.5 0 .1 0 .5.4 1.9.1.2 0 .5-.2.6.1 0 .1 0 0 0"/><path id="Fill-186_00000152261690892081019630000008071608045234081708_" class="st0" d="M-1085.7-2630.5c-.1 0-.2-.1-.2-.3-.2-.8-.3-1.1-.4-1.3-.1-.3-.1-.4-.1-.9v-.1c0-.2.1-.4.3-.4.1 0 .3.2.3.4v.1c0 .3 0 .3.1.5s.2.6.4 1.4c-.1.2-.2.5-.4.6"/><path id="Fill-188_00000176016075914992772250000016985611297278705805_" class="st0" d="M-1094.8-2621.5c-.2 0-.3-.2-.4-.4l-.1-.8c0-.4 0-.4-.1-.8l-.1-.6c0-.2.1-.4.3-.5.2 0 .4.1.4.3l.1.6c.1.4.1.4.1.9l.1.8c0 .3-.1.5-.3.5"/><path id="Fill-190_00000150090608988127405250000005429764065019362480_" class="st0" d="M-1100.9-2612.5c-.2 0-.4-.2-.4-.4-.1-.8-.1-1.2-.1-1.4V-2615.1c0-.2.2-.4.4-.4s.4.2.4.4v.7c0 .2.1.6.1 1.4 0 .3-.1.5-.4.5"/><path id="Fill-192_00000160167500200631513400000003569742257803078041_" class="st0" d="M-1107-2606.5c-.3 0-.5-.2-.5-.4v-3.2c0-.2.2-.4.5-.4s.5.2.5.4v3.2c0 .2-.2.4-.5.4"/><path id="Fill-194_00000091009308518297680280000016787873304371790527_" class="st0" d="M-1104-2599.5c-.2 0-.4-.1-.4-.2v-.5l.1-.2c.1-.1.3-.2.5-.1.2 0 .3.1.3.2l-.1.2v.4c0 .1-.2.2-.4.2"/><path id="Fill-196_00000070830005978213497630000007873200770789485450_" class="st0" d="M-1094.8-2602.5c-.2 0-.3-.2-.4-.4-.1-.6-.2-.9-.2-1.1-.1-.3-.1-.4-.1-.8v-.2c0-.3.2-.5.4-.5s.4.2.4.5v.8c0 .2.1.5.2 1.2.1.2-.1.4-.3.5"/><path id="Fill-198_00000049899886254934583590000015576434271388046780_" class="st0" d="M-1087.8-2609.5c-.1 0-.2-.1-.3-.3-.2-.7-.3-1.1-.3-1.3-.1-.3-.1-.4-.1-.9v-.2c0-.2.1-.4.3-.4s.3.2.3.4v.2c0 .4 0 .4.1.6.1.2.2.6.3 1.3.1.3 0 .5-.3.6.1 0 .1 0 0 0"/><path id="Fill-200_00000114050719315485166290000015130146785049283735_" class="st0" d="M-1087.8-2595.5c-.2 0-.3-.2-.4-.4-.1-.7-.2-1.1-.2-1.3-.1-.3-.1-.3-.1-.8v-.1c0-.3.2-.5.4-.5s.4.2.4.5v.7c0 .2.1.5.2 1.3.1.3-.1.5-.3.6"/><path id="Fill-202_00000013194603085017968320000010493873921170346889_" class="st0" d="M-1123.1-2598.5c-.1 0-.1 0 0 0-.2 0-.3-.2-.3-.4l.1-.7c0-.5 0-.5.1-.9l.1-.7c0-.2.2-.3.4-.3s.3.2.3.4l-.1.7c-.1.4-.1.4-.1.8l-.1.7c-.1.3-.3.4-.4.4"/><path id="Fill-204_00000125599390938758187730000008032290864823038365_" class="st0" d="M-1126.1-2579.5c-.3 0-.4-.3-.4-.5.1-.8.2-1.1.2-1.3v-.7c0-.2.2-.4.4-.4s.4.2.4.4v.1c0 .4 0 .5-.1.8 0 .2-.1.5-.2 1.3 0 .1-.1.3-.3.3"/><path id="Fill-206_00000176025575628002954330000007789385831206887331_" class="st0" d="M-1117-2576.5c-.3 0-.5-.2-.5-.5v-1.9c0-.3.2-.5.5-.5s.5.2.5.5v1.9c0 .3-.2.5-.5.5"/><path id="Fill-208_00000072278672936841854770000011114153894872383917_" class="st0" d="M-1119.1-2569.5c-.2 0-.4-.3-.4-.6 0-.6.1-.9.1-1.1 0-.4 0-.4.2-.9l.1-.2c.1-.3.3-.4.5-.2.2.1.3.4.2.7l-.1.2c-.1.3-.1.3-.1.4 0 .2 0 .5-.1 1.2-.1.3-.2.5-.4.5"/><path id="Fill-210_00000061459713446748970810000011012984023988589713_" class="st0" d="M-1118.1-2561.5c-.2 0-.4-.2-.4-.4.1-.7.1-1.1.1-1.3 0-.4 0-.4.2-.8l.1-.2c.1-.2.3-.3.5-.3.2.1.3.3.2.5l-.1.2c-.1.4-.1.4-.1.6 0 .2 0 .6-.1 1.3 0 .2-.2.4-.4.4"/><path id="Fill-212_00000096780405710131319590000012429106852095635122_" class="st0" d="M-1110.9-2571.5c-.2 0-.4-.2-.4-.4-.1-.7-.1-1-.1-1.2-.1-.4-.1-.4.1-.9l.1-.3c.1-.2.3-.3.5-.3.2.1.4.3.3.5l-.1.3c-.1.4-.1.4-.1.6 0 .2.1.6.1 1.2 0 .3-.1.5-.4.5"/><path id="Fill-214_00000090261529111944005580000007863698223710046909_" class="st0" d="M-1077.9-2579.5c-.2 0-.3-.1-.4-.2l-.1-.3c-.1-.2 0-.4.3-.4.2-.1.5 0 .5.2l.1.3c.1.2-.1.4-.3.4h-.1"/><path id="Fill-216_00000041283689807633139360000010644624706340998792_" class="st0" d="M-1080.8-2560.5c-.2 0-.3-.1-.4-.3-.1-.6-.2-1-.2-1.2-.1-.4-.1-.5 0-1l.1-.3c0-.2.2-.3.4-.3s.3.2.3.4l-.1.3c-.1.4-.1.4 0 .7 0 .2.1.6.2 1.2.1.3-.1.5-.3.5"/><path id="Fill-218_00000163774173443709981470000011288547736002840449_" class="st0" d="M-1107.1-2512.5c-.3 0-.4-.2-.4-.5l.2-2.1c0-.2.2-.4.4-.4s.4.2.4.5l-.2 2.1c0 .2-.2.4-.4.4"/><path id="Fill-220_00000063625022406777164930000001076523040901068468_" class="st0" d="M-1100-2514.5c-.3 0-.5-.2-.4-.4l.1-.5-.1-.9.1-.8c0-.2.2-.4.5-.4.2 0 .4.2.4.4l-.1.7.1.9-.1.6c-.1.2-.3.4-.5.4"/><path id="Fill-222_00000137826790060833590900000011796007203315577985_" class="st0" d="M-1101-2504.5c-.2 0-.4-.2-.4-.4 0-.8.1-1.2.1-1.4 0-.2 0-.2-.1-.5l-.1-.2c-.1-.2 0-.4.2-.5.2-.1.4 0 .5.2l.1.2c.2.4.2.5.2.9 0 .2-.1.6-.1 1.4 0 .1-.1.3-.4.3"/><path id="Fill-224_00000171690794350644452040000000780975548376161687_" class="st0" d="M-1085.8-2510.5c-.2 0-.3-.1-.3-.3l-.1-.6-.2-2.1v-.5c0-.2.2-.4.4-.4s.3.2.3.5v.4l.2 2 .1.6c0 .1-.2.3-.4.4"/><path id="Fill-226_00000023971362129047178410000006781803324514041736_" class="st0" d="M-1083.9-2503.5c-.2 0-.4-.2-.4-.4l-.1-1.1-.1-.4V-2506c0-.3.2-.4.4-.4s.4.3.3.5v.3l.1.4v.1l.1 1.1c.1.2 0 .5-.3.5.1 0 .1 0 0 0"/><path id="Fill-228_00000059304503034360268650000000863207762863405716_" class="st0" d="M-1079.7-2617.5c-.1 0-.2-.1-.2-.2l-.3-.9v-.1l-.1-.5-.2-.9c0-.2 0-.4.2-.4.1-.1.3.1.3.2l.2 1.4.3.9c.1.2 0 .4-.1.5h-.1"/><path id="Fill-230_00000180334601113082827090000017390784369084989877_" d="M-1095.6-2561.7c.1 0-.6 4.8-1.6 8.5-1.4 5.4-3.4 10.4-3.5 10.4-.2-.1-2.9-1.2-2.8-1.4 0 0 4.2-10.2 6.4-15.2.8-1.7 1.5-2.3 1.5-2.3m-46.8-51.8c-4.4.3-8.6 4.8-11.5 7.2-1 .9-1.9 1.9-2.9 2.8-1.5 1.3-3.1 2.5-4.4 4-1.6 1.9-3.7 5-3.2 7.7.4 2.1 2.3 3.5 3.6 4.9.6.7 1.7 1.4 1.5 2.3-.3 1.6-1.2 3-2.3 4-2.5 2.5-6.4 4-9 5.7-3 1.9-5.3 4.1-8.2 6.4-2.3 1.8-3.4 3.7-4.9 6.2-1 1.7-2.5 4.9-2.9 6.9-.6 3.1-.8 4-1.3 7.2-.4 2.9-.5 7.3-.9 10.2-.4 3.2-.6 7.2-1.1 10.4-.7 4.8-1.1 9.8-1.4 14.6-.2 3.8-.4 8.1-.1 11.8.1.9.4 3.4.4 3.4s1.5 1.3 3.5 1.9c2 .6 3.1.8 5.1 1.1 5.7.7 11.8.8 16.4.4 4.6-.4 10.3-.5 13.8-.1 6 .6 12.2 1.9 18.4 2.6 3.7.4 7.8.6 11.4.1 2.4-.3 5.4-.9 7.7-1.8 2.5-1 1.4-4.1 1.2-6.3-.2-3.6-1.4-7-2.8-10.5-1-2.6-2.9-7-2.9-7s1.1-1.7 1.5-2.2c1.7-2.2 4.7-7.4 4.7-7.4s1.3.8 1.7 1c1.3.6 3.1 1.1 4.4 1.5 2.1.5 3.2.9 5.3 1.4 1.7.4 4.2.7 5.5 1 1.2.2 5.4.4 6.7-1.5 3.5-4.8 4.3-11.4 4.5-16.5.1-1.9.4-3.5.4-5.4v-9.3c0-.9 0-2.7-.1-3.7-.1-1.2.3-7.4.3-8.4s.1-2.2.3-3.1c.2-.9.1-1.9.3-2.8.3-1.6.3-5.7.3-5.7l-.6-3.3s2.1-3.2 1.3-4c-.4-.4-2 .8-2.3 1-.1.1-1.4 1.2-1.4 1.2s-.7-2-1-2.3c-.3-.3-.8-1.1-1.3-1.4-.8-.4-1.6-.2-1.6-.2s-.9-2.1-1.9-2.4c-.9-.2-2.1.4-2.1.4s-1.2-1.2-2.6-.9c-.4.1-1.9 1.3-2.2 1.5-1.4 1.2-2.2 2.3-3.5 3.6-.9.9-3.9 1.5-3.9 1.5s-.2.9-.4 1.4c-.7 2-.2 3.9-.1 6 .1 1.7.4 3.2.5 4.8.1 1.4-.6 4.4-1.1 5.8-1.7 4.4-3.4 6.9-6 10.9-.7 1-2.6 3.3-2.6 3.3-.7-.5-1.8-1.6-2.5-2.2-1-1-1.6-1.5-2.4-2.6-2.5-3.4-4.8-7.8-7.7-10.7-1.5-1.5-2.2-1.9-4.1-3-.6-.4-3-1.2-3.7-1.3-.2 0-1.3-.1-1.5-.4-.4-.6 1.1-2.3 1.5-2.6.9-.9 2-3.4 3-4.2 1.7-1.2 4.9-2.8 5.5-5 1.1-3.9 1.1-5.6.4-9.4-.3-1.4-1.5-3.6-2.3-4.8-1.1-1.5-2-4.3-2.9-6-1.5-3-2.4-6.5-5.3-8.7-1.3-.7-2.8-1.1-4.2-1" fill-rule="evenodd" clip-rule="evenodd" fill="#ffedde"/><path id="Fill-232_00000103951086955227366420000001198138952227450261_" d="M-1161.4-2587.5s-2.1-1.2-3.3-2.2c-1.1-.9-2.8-3-3.6-4.2-1-1.5-1.7-2.8-2.5-4.5-.8-1.7-.9-3.3-.5-5.2.4-2 2-4.2 2.8-5.8.6-1.2.3-1.9 1-3 1-1.5 1.7-2.9 3.4-4.2 2-1.6 5.1-3.1 7.2-3.9 2.7-1.1 4.4-.6 7.2-1 .9-.1 4.4.1 5.3.1 2.8-.1 4.4.1 6.5 1.7 1 .8 2.1 1.8 2.8 2.8.8 1.1 1.9 3.4 1.4 4.9-.1.3-1.6 2.3-1.6 2.3s-1.8-2.2-2.5-2.7c-1.8-1.3-3.9-.6-5.7.7-1.8 1.3-2.8 4-3.6 5.9-.5 1.3-1.3 3.4-2.3 4.8-1.1 1.6-2.4 2.5-2.4 2.5s-.8 2.1-1.9 3.2c-1 1-2.7 1.4-4 1.6-1.6.2-4.2-.4-4.9 1.7-.3.8-.3 2.1.1 2.8.6.6 1.1 1.7 1.1 1.7" fill-rule="evenodd" clip-rule="evenodd" fill="#fccc9c"/><path id="Fill-234_00000058549623077058315610000003427832797510527637_" d="M-1130.1-2591.4c-.4-.4-1.1.2-1.5.5-1.3.9-2.6 1.8-3.5 3.1-.2.3-.5.6-.3 1.1.4 1 2.1 1.3 2.8 1.1.9-.3 1.4-.3 2.1-.8 1.3-.8 1.2-4 .4-5" fill-rule="evenodd" clip-rule="evenodd" fill="#f2cece"/><path id="Fill-236_00000168808619730454268090000016454323969487990432_" class="st7" d="M-1099.5-2588s-4.6-3-6.1-3.9c-1.3-.8-2.8-1.7-4.2-2.3-2.9-1.3-3-1.2-6.3-1.2-2 0-4.8.8-6.7 2.2-1.2.9-2.6 2.1-2.7 3.3-.3 2.6 3.4 3.8 5.7 4.9 3 1.5 7.7.9 10 .9.9 0 2.1-.6 3.3-.5 1.8.2 3.3 1.2 3.3 1.2l3.7-4.6z"/><path id="Fill-238_00000038376085342348887910000015866094056431581883_" class="st7" d="M-1084.3-2580.1c-.1-.1-.5-.5-.7-.4-.3.2-1.8 2.5-2.2 3.8-.1.2-.3.4-.2.6.2.4 1.3.6 1.6.9 1.1.8 2.2 1.4 3.4 2 .3.2 1 .9 2 .6 1-.3.5-.8.8-1.3.5-.7 1-.3 1.2-1.2.1-1.1-.8-1.8-1.7-2.5-1.1-.6-2.7-1.5-4.2-2.5"/><path id="Fill-240_00000063628804588369495800000000777401251799818885_" d="M-1079.6-2574.5c-.7-.3-1 .9-.7 1.6.4 1.2.9 2.1 1.4 3.4.4 1.2.9 3 1.1 4.1.3 1.9.3 4.4.3 6.4 0 3.8-.2 7-.6 10.8-.6 5.9-.7 12.8-1 17.6-.2 3.2.2 10.5.3 12.3.1 3.7 1 8.3 1.7 11.1.8 3.1 1 4.2 2 7.3.4 1.1.9 2 1.1 2.1.2.1 2 .6 1.7-.6-.6-2.3-1.8-4.2-2.3-6.5-.4-1.9-.9-3.8-1.2-5.7-.6-4.3-1.3-9.6-1.3-14 0-4.6.1-11.3.2-12.8s.1-2.8.3-4.1c.2-1.3.2-2.7.3-4 .3-3.7.6-9.2.6-14 0-3.7.1-6.9-.8-10.4-.2-.7-.8-2.4-1.3-3-.8-.6-.9-1.2-1.8-1.6" fill-rule="evenodd" clip-rule="evenodd" fill="#c0c5cc"/><path id="Fill-242_00000134250005761907623380000006385137021270272409_" d="M-1107.6-2585.2s.3-1 .1-1.6c-.4-1.3-.8-1.6-2-2.4-3-2-6.9-2.5-10.6-2.3-1.3.1-3.2.2-4.2.9-.4.2-1.1 1.1-1.1 1.1s.5.8.7 1.1c.9.8 2.6 1.8 3.7 2.2 3.6 1.3 6 1.6 9.8 1.7.6 0 3.6-.7 3.6-.7" fill-rule="evenodd" clip-rule="evenodd" fill="#dde6f2"/><path id="Fill-244_00000124152249595743933200000008970429626094919345_" class="st10" d="M-1135.1-2604.5h-.2c-.2-.1-.2-.2-.1-.3.6-.4 2.3-.8 3.6-.7.2 0 .4.1.3.2 0 .1-.2.2-.5.2-1-.1-2.4.3-2.8.5 0 .1-.2.1-.3.1"/><path id="Fill-246_00000129917130820468021650000015610645551432013465_" class="st10" d="M-1146.1-2597.5h-.2c-.2-.1-.3-.3-.2-.5 1-1.8 2.7-3.1 4.5-3.4.2 0 .4.1.5.3 0 .2-.1.4-.3.4-1.6.3-3.1 1.5-3.9 3-.1.1-.2.2-.4.2"/><path id="Fill-248_00000037689909306462155690000008498045364037201823_" class="st10" d="M-1142.1-2593.5c-.1 0-.1 0-.2-.1-.2-.1-.2-.4-.1-.6.6-1.3 1.8-2.1 3.5-2.3.2 0 .4.2.4.4 0 .3-.1.5-.3.5-1 .1-2.4.5-3 1.9 0 .1-.2.2-.3.2"/><path id="Fill-250_00000082334980075605944340000005913691205083053190_" class="st10" d="M-1133.1-2599.5c-.1 0-.1 0-.2-.1-.2-.1-.2-.4-.1-.7.7-1.5 1.6-2.2 2.5-2.3.2 0 .4.2.4.5s-.2.5-.4.5c-.7 0-1.3.6-1.9 1.8 0 .2-.2.3-.3.3"/><path id="Fill-252_00000168814090245750665750000003473228338908991638_" class="st10" d="M-1156.7-2585.5h-.5c-2.2-.4-4.1-2.8-4.8-4.3-.6-1.4-.4-2.9.5-3.8.8-.8 2.1-1 3.3-.5.2.1.2.3.2.4-.1.2-.3.2-.4.2-1-.4-1.9-.2-2.6.4-.7.7-.9 1.9-.4 3.1.7 1.7 2.6 3.7 4.3 4 .8.1 1.5-.1 2.1-.7.1-.1.3-.1.5 0 .1.1.1.3 0 .5-.7.4-1.4.7-2.2.7"/><path id="Fill-254_00000171721397487810244030000014023458151451702439_" class="st10" d="M-1156.9-2588.5c-.1 0-.2 0-.3-.1-1-1.1-2.3-1.9-3-2-.2 0-.4-.2-.3-.5 0-.2.2-.4.4-.4.9.1 2.4 1.1 3.4 2.2.2.2.2.5 0 .6 0 .2-.1.2-.2.2"/><path id="Fill-256_00000101795341801155312170000005521906163783911612_" class="st10" d="M-1132.3-2594.5c-.1 0-.2 0-.2-.1-.1-.1-.2-.3 0-.5.6-.7.5-1.3.3-1.6-.2-.3-.5-.4-.8-.6-.7-.4-1.8-1-2.3-2.8-.1-.2 0-.4.2-.4.2-.1.4 0 .4.2.5 1.6 1.3 2.1 2 2.5.4.2.8.4 1.1.8.4.5.4 1.5-.4 2.4-.2.1-.2.1-.3.1"/><path id="Fill-258_00000111149670239435926940000005479210316873691832_" class="st10" d="M-1134.9-2607.5c-.2 0-.3-.1-.4-.2-.5-1.4-2.1-3.9-4.1-5.1-.2-.1-.2-.3-.1-.5s.4-.2.5-.1c2.2 1.3 3.8 4 4.4 5.5.1.2 0 .4-.2.4h-.1"/><path id="Fill-260_00000080915861474832979990000006219404140203002522_" class="st10" d="M-1138.9-2578.5c-3.5 0-7.5-.8-9.4-1.9-.2-.1-.2-.3-.1-.5s.3-.2.5-.1c2.2 1.4 8 2.2 11.6 1.6 4.3-.6 7-2 8.5-4.1 1.9-2.8 2.9-9.3-.9-14.5-.1-.2-.1-.4.1-.5.2-.1.4-.1.5.1 4 5.4 2.9 12.3.9 15.2-1.6 2.3-4.5 3.8-9 4.4-.8.2-1.7.3-2.7.3"/><path id="Fill-262_00000141423180434746835980000002158599465899088315_" class="st10" d="M-1130.4-2590.8c-.5.2-1.7.7-2.4 1.3-1 .8-1.9 1.6-2 2.3 0 .1.1.3.4.5.7.5 2.3.8 3.5 0 1.3-.9.7-3.2.5-4.1m-2.3 5.3c-.9 0-1.6-.3-2.1-.6-.5-.4-.7-.8-.6-1.2.2-.8 1-1.6 2.2-2.6 1.1-.9 2.8-1.5 2.9-1.6.2-.1.3 0 .4.2.1.1 1.3 3.7-.7 5.1-.7.5-1.4.7-2.1.7"/><path id="Fill-264_00000132785933514703118910000012433419764221818034_" class="st10" d="M-1160.8-2587.5c-1.1 0-5.9-3-7.6-6.6-.1-.2 0-.3.2-.4.2-.1.4 0 .4.2 1.6 3.4 6.2 6.2 7 6.2.2 0 .3.1.3.3 0 .2-.1.3-.3.3"/><path id="Fill-266_00000152256536272339719900000011493868897685562032_" class="st10" d="M-1171.1-2598.5c-.1 0-.3-.1-.4-.2-2.2-3.3-.6-8.4 2.3-10.7.2-.1.4-.1.6 0 .2.1.2.3 0 .5-2.7 2.2-4.2 6.9-2.2 9.9.1.2 0 .4-.2.5h-.1"/><path id="Fill-268_00000007417691349856397080000004826617176073073817_" class="st10" d="M-1154.1-2621.5c-.2 0-.3-.1-.3-.2s.1-.3.3-.3c2.1-.4 4.1-.5 6.2-.5.9 0 1.9.1 2.8.2 2.2.2 4.3.3 6.3-.1.2 0 .4 0 .4.2.1.1-.1.3-.2.3-2.2.5-4.4.3-6.6.2-.9-.1-1.8-.1-2.8-.2-2-.1-4.1 0-6.1.4"/><path id="Fill-270_00000023977419714355847100000006524881866417143184_" class="st10" d="M-1167.1-2611.5c-.2 0-.3-.2-.3-.4.1-2.7 2.2-5.2 4.3-6.6.7-.4 1.4-.8 2-1.2 1.7-1 3.4-1.9 5.1-3.8.1-.1.3-.1.5 0 .1.1.1.4 0 .5-1.8 2-3.5 3-5.2 3.9-.7.4-1.3.7-2 1.2-1.9 1.2-3.9 3.6-4 6-.1.2-.3.4-.4.4"/><path id="Fill-272_00000099636099405930041740000016810644284752386957_" class="st10" d="M-1134.4-2610.5c-.1 0-.2 0-.2-.1-.1-.1-.1-.4 0-.5 1.2-1.3 1.7-2.8 1.4-4.4-.5-2.2-2.5-4.4-5-5.3-.2-.1-.3-.3-.2-.5.1-.2.3-.3.4-.2 2.7 1 4.9 3.3 5.4 5.8.3 1.3.2 3.2-1.6 5.1 0 .1-.1.1-.2.1"/><path id="Fill-274_00000131361912249169706240000015883071722482071720_" class="st10" d="M-1157.1-2597.5c-.2 0-.4-.2-.4-.3 0-.2.2-.3.3-.3 2.5 0 4.8-1.4 6.7-4 1.1-1.5 1.6-3.2 2.1-4.9.7-2.3 1.4-4.4 3.3-5.4.2-.1.4 0 .4.1.1.2 0 .4-.1.4-1.7.9-2.3 2.8-3 5-.5 1.7-1.1 3.5-2.2 5.1-1.9 2.8-4.3 4.3-7.1 4.3"/><path id="Fill-276_00000025426133621501251580000002972437886919574153_" class="st10" d="M-1156.3-2594.5c-.7 0-1.4-.3-2-.9-.2-.2-.2-.5-.1-.7s.3-.3.5-.1c.7.6 1.3.9 2 .7.7-.2 1.4-.8 1.8-1.7.1-.2.3-.3.5-.2.2.1.2.4.1.7-.5 1.1-1.4 2-2.3 2.2h-.5"/><path id="Fill-278_00000088134499554620546010000006025888375680862342_" class="st10" d="M-1138.2-2613.5c-.1 0-.1 0-.2-.1s-.1-.4 0-.5c.4-.6.5-2.2.3-2.9-.1-.2 0-.4.1-.5.1-.1.3 0 .4.1.4 1 .1 2.9-.4 3.7-.1.2-.1.2-.2.2"/><path id="Fill-280_00000141448113712002109060000001626620785745280145_" class="st10" d="M-1141.8-2613.5c-.1 0-.2-.1-.3-.2-.8-1.6-2.4-3.2-4-3.1-.2 0-.3-.1-.4-.3s.1-.4.3-.4c2-.1 3.7 1.7 4.6 3.5.1.2 0 .4-.1.5h-.1"/><path id="Fill-282_00000183929949952391593580000008017913244623621805_" class="st10" d="M-1191.5-2497.5c-.2 0-.3-.1-.3-.3-1.6-8.6 0-21.3 1.3-31.5.3-2.2.5-4.2.7-6 .2-2 .4-4 .5-6.1.7-9.3 1.4-18.9 7.9-26 5.8-6.4 12.5-10 16.9-12.3 4.2-2.2 5.2-5 5.4-5.5.1-.2.3-.3.4-.2.2.1.3.2.2.4-.3.8-1.5 3.7-5.8 5.9-4.4 2.3-10.9 5.8-16.7 12.1-6.3 7-7 16.5-7.7 25.6-.2 2.1-.3 4.1-.5 6.1-.2 1.8-.4 3.9-.7 6-1.2 10.2-2.8 22.8-1.3 31.3.1.3 0 .5-.3.5.1 0 0 0 0 0"/><path id="Fill-284_00000119796859824108088380000006193895994438833334_" class="st10" d="M-1142.1-2568.5c-.1 0-.2 0-.2-.1-.1-.1-.2-.3 0-.5 1.2-1.3 2.3-2.4 3.2-3.3 1.7-1.6 3-2.8 4-5 .1-.2.3-.2.5-.2.2.1.3.3.2.4-1 2.3-2.5 3.6-4.2 5.2-1 .9-2 1.9-3.2 3.2-.1.3-.2.3-.3.3"/><path id="Fill-286_00000162350403587229632070000006801757938703620487_" class="st10" d="M-1134-2506.5c-6.7 0-19.6-4.8-29-14.9-.6-.6-1.2-1.2-1.7-1.9-4.1-4.4-8.7-9.4-11.5-10-.2 0-.3-.2-.3-.4s.2-.3.4-.3c3 .7 7.5 5.5 11.8 10.2.6.6 1.2 1.3 1.7 1.9 9.7 10.3 24 15.4 29.9 14.5 4.2-.6 9.1-4.3 13.7-10.5 3.9-5.1 9-13.8 13.6-23.3 2.2-4.5 4.3-9.5 5.9-13.5 1.5-3.5 2.5-6.1 3.1-6.9.6-.8 1.2-1.6 1.8-2.3 1.4-1.7 2.8-3.4 3.8-6.2 1.4-4 3.1-7.4 5.4-10.5.2-.3.6-.7.9-1.1 1.1-1.3 2.5-2.8 2.1-4.1 0-.1-.1-.2-.1-.2-.2-.1-.9.3-1.6 1.1-.6.6-1.3 1.2-2.1 1.8-1.2 1-2.5 2-3.3 3.1-.1.2-.3.2-.5.1s-.2-.3-.1-.5c.8-1.3 2.1-2.3 3.4-3.3.8-.6 1.5-1.1 2.1-1.7.7-.7 1.6-1.4 2.3-1.2.2.1.5.2.6.7.5 1.6-1 3.3-2.2 4.7-.3.4-.7.8-.9 1.1-2.2 3.1-3.9 6.4-5.3 10.4-1 3-2.5 4.7-3.9 6.4-.6.7-1.2 1.4-1.7 2.2-.5.8-1.6 3.4-3 6.7-1.7 4-3.8 9-6 13.5-4.7 9.5-9.8 18.3-13.7 23.4-4.8 6.3-9.8 10.1-14.2 10.7-.3.3-.8.3-1.4.3"/><path id="Fill-288_00000180363581714226030000000006290241492932768162_" class="st10" d="M-1089-2582.5c-.3 0-.5-.2-.5-.4.2-1.5 1.2-2.8 2.1-3.5.2-.1.5-.1.7 0 .2.1.2.4 0 .5-.8.6-1.7 1.8-1.8 3 0 .3-.2.4-.5.4"/><path id="Fill-290_00000161599890788983333770000013265537953923472049_" class="st10" d="M-1093.1-2582.5c-.1 0-.2 0-.2-.1-.1-.1-.1-.3 0-.5.6-.6 1.1-1.3 1.5-2 1-1.5 1.9-2.9 4-2.3.7.2 2.1 2.1 2.4 3.7 0 .2-.1.3-.3.4-.2 0-.4-.1-.4-.3-.2-1.5-1.6-3-1.9-3.2-1.5-.5-2.1.3-3.2 2-.4.7-.9 1.4-1.6 2.1-.2.2-.2.2-.3.2"/><path id="Fill-292_00000144338558752500466110000006027837086016983208_" class="st10" d="M-1096.1-2585.5c-.1 0-.2 0-.2-.1-.1-.1-.1-.4 0-.5 1.5-1.7 2.4-2.9 3.6-4.5.5-.7 1.4-1 2.3-.7 1.1.4 1.8 1.4 2 2.8 0 .2-.1.4-.3.4-.2 0-.4-.1-.4-.3-.1-1.1-.7-1.9-1.5-2.2-.6-.2-1.2 0-1.6.5-1.2 1.6-2.2 2.9-3.7 4.6h-.2"/><path id="Fill-294_00000049903260376364104620000013886050854674984577_" class="st10" d="M-1104.1-2580.5s-.1 0 0 0c-.3-.1-.4-.3-.3-.4.5-2 2.8-5.1 4.6-7l.5-.5c1.3-1.4 2.3-2.5 3.8-2.9 1.7-.5 3 1.1 3.1 1.1.1.1.1.4 0 .5-.1.1-.4.1-.5 0 0 0-1.1-1.2-2.3-.9-1.2.3-2.2 1.4-3.4 2.7l-.5.5c-1.8 2-4 4.9-4.5 6.8-.2 0-.4.1-.5.1"/><path id="Fill-296_00000103967172884158441980000015179992839709356203_" class="st10" d="M-1141.1-2523.5c-.1 0-.1 0 0 0-.3-.1-.4-.3-.3-.4 1.3-4.5 4.6-7.2 8.4-10.3 1.8-1.4 3.6-2.9 5.4-4.8 5.7-5.7 15-18 16.8-21.4l.2-.5c1.5-2.8 1.8-3.5 3-7.7.7-2.4.3-4.9-.1-7.3-.1-.9-.3-1.7-.3-2.5-.1-.8-.3-3.4.8-5.9.1-.2.3-.2.4-.2.2.1.2.3.2.4-1 2.4-.8 4.8-.7 5.6.1.8.2 1.6.3 2.5.4 2.5.7 5 0 7.6-1.2 4.3-1.6 5-3.1 7.8l-.2.5c-1.8 3.4-11.2 15.8-16.9 21.5-1.9 1.8-3.7 3.3-5.5 4.8-3.7 3-6.9 5.6-8.2 10 0 .2-.1.3-.2.3"/><path id="Fill-298_00000050630503171896236290000008067707427890260363_" class="st10" d="M-1136.8-2533.5c-.1 0-.2 0-.3-.1-1.5-1.9-3.2-3.9-5-5.9-4.4-5.1-9.4-11-12.4-16.3l-1.8-3.3c-1-1.8-2-3.8-3.1-5.5-.9-1.4-4.3-5.2-8.8-5.2-.2 0-.3-.2-.3-.3s.2-.3.3-.3c4.6 0 8.1 3.6 9.4 5.5 1.1 1.8 2.1 3.7 3.1 5.5.6 1.1 1.2 2.2 1.7 3.3 3 5.3 7.9 11.1 12.4 16.2 1.8 2.1 3.5 4.1 5 6 .1.1.1.4-.1.5 0-.1 0-.1-.1-.1"/><path id="Fill-300_00000157296681554995803740000015737037410169142207_" class="st10" d="M-1103.1-2534.5c-.1 0-.1 0 0 0-.2 0-.3-.2-.3-.4.6-4.3 2.1-9.1 3.6-13.8 1.6-5.3 3.4-10.7 3.8-15.5 0-.2.2-.3.4-.3s.3.2.3.4c-.4 4.9-2.2 10.3-3.8 15.6-1.5 4.6-3 9.4-3.5 13.7-.2.2-.4.3-.5.3"/><path id="Fill-302_00000018235930268383059220000010978139442289642165_" class="st10" d="M-1115.8-2552.5c-.1 0-.1 0-.2-.1-3.4-2.3-5.7-5.5-7.9-8.6-3.5-4.9-6.7-9.5-14.3-10.7-.2 0-.3-.2-.3-.4s.2-.3.4-.3c7.9 1.2 11.4 6.2 14.7 11 2.1 3.1 4.4 6.2 7.7 8.4.2.1.2.3.1.5 0 .2-.1.2-.2.2"/><path id="Fill-304_00000013167236615622598150000008079568250090495905_" class="st10" d="M-1099.9-2542.5c-1 0-3.2-1.8-3.4-2-.2-.2-.2-.5-.1-.7.1-.2.4-.3.5-.2.9.7 2.4 1.9 3 1.9.2 0 .4.2.4.5s-.1.5-.4.5"/><path id="Fill-306_00000070803325066171308520000004134942290961193630_" class="st10" d="M-1083.7-2578.5c-.1 0-.3-.1-.3-.3-.1-1.3-.2-2.4-.4-3.2 0-.2 0-.4.2-.4.1-.1.3 0 .3.2.3.9.4 2.1.5 3.4-.1.1-.2.3-.3.3"/><path id="Fill-308_00000148642517391197457990000014009266179783673243_" class="st10" d="M-1094-2522.5c-1.2 0-2.5-.1-3.9-.4-5-.8-10.2-1.9-15.4-4.5-.2-.1-.2-.3-.1-.5s.3-.2.5-.1c5.1 2.6 10.3 3.7 15.2 4.5 4.4.7 7.4.6 8.9-2 1.6-2.9 3.7-8.1 4-18.6.1-4.5.1-8.4 0-11.9-.1-3.8-.1-7.2.1-10.3.2-2.4.5-5.3.7-6.8 0-.2.2-.3.4-.3s.3.2.3.4c-.2 1.5-.5 4.4-.7 6.8-.2 3.1-.2 6.4-.1 10.3.1 3.4.1 7.3 0 11.9-.3 10.7-2.5 15.9-4.1 18.9-1.2 1.9-3.2 2.6-5.8 2.6"/><path id="Fill-310_00000152978662902877263440000003555581829227277719_" class="st10" d="M-1123.8-2542.5c-.2 0-.3-.1-.4-.3-.2-1.1-.5-2.2-.8-3.5-.9-3.5-2-7.6-1-11 .1-.2.3-.3.5-.2.2.1.3.2.3.4-.9 3.2.1 7.2 1 10.6.3 1.2.6 2.4.9 3.5-.1.3-.3.5-.5.5"/><path id="Fill-312_00000010299254778329476830000011788921511376638386_" class="st10" d="M-1112.8-2494.5c-.2 0-.3-.2-.3-.4.4-7.7-2-14.1-3.8-18.7-.7-1.9-1.3-3.4-1.5-4.6 0-.2.1-.4.3-.4.2 0 .3.1.4.3.2 1.1.8 2.7 1.5 4.5 1.8 4.7 4.3 11 3.8 19-.1.2-.3.3-.4.3"/><path id="Fill-314_00000173859595923610865490000015203512505046313646_" class="st10" d="M-1103.3-2582.5h-.2s-1.9-1.1-3.1-1.2c-.6 0-1.1.1-1.7.2-.6.1-1.3.3-2.3.4-2.2.2-4 0-6.4-.5-3.3-.7-7.3-2.5-8.2-4.5-.3-.6-.3-1.3 0-2 .7-1.9 3.6-3.7 5.8-4.7 2.4-1 6.7-1.2 10.1.5 1.7.9 4.1 2.5 6.2 3.9 1.3.9 2.6 1.8 3.5 2.4.2.1.2.3.1.5s-.3.2-.5.1c-1-.6-2.2-1.5-3.6-2.4-2.1-1.4-4.4-3.1-6.1-3.9-3.3-1.6-7.3-1.5-9.6-.5s-4.8 2.7-5.4 4.3c-.2.5-.2 1 0 1.4.8 1.8 4.6 3.5 7.8 4.2 2.4.5 4.1.7 6.2.5 1-.1 1.7-.3 2.2-.4.6-.2 1.2-.3 1.9-.3 1.3.1 3.3 1.2 3.4 1.3.2.1.2.3.1.5 0 .1-.1.2-.2.2"/><path id="Fill-316_00000172408712501836582960000013751286622591510924_" class="st10" d="M-1080.7-2571.5c-.8 0-1.8-.8-2.8-1.5-.2-.1-.4-.3-.5-.4-.9-.6-3.5-2.4-3.5-2.4l.3-.7s2.5 1.8 3.5 2.4c.2.1.4.3.6.4.8.6 1.9 1.4 2.5 1.4.2 0 .5-.1.7-.3.1-.1.3-.1.4.1.1.2.1.4-.1.5-.3.3-.6.5-1.1.5.1 0 .1 0 0 0"/><path id="Fill-318_00000121259721983026372200000013237203043270644909_" class="st10" d="M-1078.9-2573.5c-.2-.1-.4-.2-.3-.4.1-.5.1-1 0-1.3-.2-.7-3.2-2.7-5.1-3.9-.4-.2-.7-.5-1.1-.7-.2-.1-.2-.3-.1-.5s.3-.2.4-.1c.3.2.7.5 1.1.7 3.1 2 5.1 3.4 5.3 4.3.1.5.1 1.1 0 1.7.1.1 0 .2-.2.2"/><path id="Fill-320_00000090998824019549695290000018192638692714151598_" class="st10" d="M-1081-2572.5c-.1 0-.1 0 0 0-.3 0-.5-.2-.4-.5.2-1.2 1.1-2.6 2.1-3.2.6-.3 1.1-.4 1.6-.3.2.1.3.3.3.5-.1.2-.3.3-.5.3-.3-.1-.6 0-.8.2-.8.5-1.6 1.7-1.7 2.6-.2.2-.4.4-.6.4"/><path id="Fill-322_00000170279613378005647000000009875546171791215261_" class="st10" d="M-1073.8-2495.5c-.1 0-.3-.1-.3-.2-6.7-14.7-4.9-37-3.8-50.3.5-5.5.6-10.9.5-14.8-.1-3.1-.5-7.7-2.7-11.1-.3-.5-.4-1.1-.2-1.6.1-.2.3-.7.7-.9.2-.1.5-.1.7 0 .2.1.3.3.2.4-.1.2-.3.3-.5.2h-.2c-.1.1-.3.2-.3.5-.1.3-.1.7.2 1 2.2 3.5 2.6 8.2 2.8 11.4.2 3.9 0 9.4-.5 14.9-1.1 13.3-2.9 35.5 3.7 50 .1.2 0 .4-.2.5h-.1"/><path id="Fill-324_00000141424326774635387540000011463912263566520967_" class="st10" d="M-1072.8-2497.5c-.1 0-.2-.1-.3-.2-5.3-13.1-4.8-30.9-3.6-48.3.4-5.2.5-12 .3-16.6v-.4c-.2-4-.4-8.2-3-10.9-.1-.1-.1-.3 0-.5.1-.1.3-.1.4 0 2.8 2.8 3 7.2 3.2 11.3v.4c.2 4.6.1 11.4-.3 16.7-1.3 17.3-1.7 35 3.5 48 .1.2 0 .4-.2.4.1.1.1.1 0 .1"/><path id="Fill-326_00000099641175089471326890000014708457733776244922_" class="st10" d="M-1079-2571.5c-.1 0-.2 0-.3-.1-.2-.2-.3-.5-.2-.8.3-.6 1.1-2.2 2.4-2.2.3 0 .5.3.5.6s-.2.6-.5.6c-.7 0-1.3 1.2-1.5 1.6 0 .2-.2.3-.4.3"/><path id="Fill-328_00000153672164505632466470000010958785457306903432_" class="st10" d="M-1079-2568.5c-.1 0-.2 0-.3-.1-.2-.1-.1-.2 0-.3l.2-.1c.6-.2 1.3-.6 2.2-.6.3 0 .5.1.5.2s-.2.2-.5.2c-.6 0-1.1.2-1.6.4l-.2.1c-.1.2-.2.2-.3.2"/><path id="Fill-330_00000146473312137349681570000014012444516407906176_" class="st10" d="M-1079-2564.5c-.1 0-.3 0-.4-.1-.2-.1-.1-.3.1-.4.7-.3 1.5-.5 2.3-.5.3 0 .5.1.5.3 0 .2-.2.3-.5.3-.6 0-1.2.1-1.7.4h-.3"/><path id="Fill-332_00000164510085669244533010000018251171152338010302_" class="st10" d="M-1076.9-2562.5c-.2 0-.4-.1-.5-.2-.1-.2 0-.4.2-.5.6-.2 1.4-.3 2.2-.3.3 0 .5.2.5.4s-.2.4-.5.4c-.6 0-1.2.1-1.7.2h-.2"/><path id="Fill-334_00000069363067475583161180000001070444347711255465_" class="st10" d="M-1077-2558.5c-.1 0-.3 0-.3-.1-.2-.2-.2-.4 0-.6.4-.4 1.3-.3 2-.3h.4c.3 0 .5.2.5.4s-.2.4-.5.4h-.5c-.3 0-1.1-.1-1.2 0-.1.2-.3.2-.4.2"/><path id="Fill-336_00000011732655332038154870000004240246876458369715_" class="st10" d="M-1077-2554.5c-.2 0-.4-.1-.5-.3-.1-.2.1-.4.4-.5.8-.2 1.4-.2 2.1-.2.3 0 .5.2.5.4s-.2.4-.5.4c-.6 0-1.1.1-1.8.2h-.2"/><path id="Fill-338_00000138561964396741491580000014277011251327929007_" class="st10" d="M-1078.9-2551.5c-.2 0-.4-.1-.5-.2-.1-.2 0-.5.2-.6.6-.2 1.3-.2 1.8-.2h.3c.3 0 .5.2.5.4s-.2.4-.5.4h-.4c-.5 0-1 0-1.4.1.1.1 0 .1 0 .1"/><path id="Fill-340_00000114075825930805260570000012007862881059420596_" class="st10" d="M-1078.9-2547.5c-.3 0-.5-.2-.5-.4s.2-.4.5-.4c.2 0 .4 0 .6-.1.5-.1 1-.1 1.5 0 .3.1.4.3.3.6-.1.2-.4.4-.7.3-.3-.1-.6 0-1 0h-.7"/><path id="Fill-342_00000039115832613696621900000011588657653002065537_" class="st10" d="M-1078.9-2543.5c-.3 0-.5-.2-.5-.4s.2-.4.5-.4.6 0 .9-.1c.3 0 .7-.1 1.1-.1.3 0 .5.2.5.4s-.2.4-.5.4-.6 0-.9.1c-.4.1-.8.1-1.1.1"/><path id="Fill-344_00000057854874184446289880000005777478392320854656_" class="st10" d="M-1079-2537.5c-.3 0-.5-.2-.5-.4s.2-.4.5-.4.5 0 .7-.1c.4-.1.9-.2 1.5.1.2.1.3.3.2.6-.1.2-.4.3-.6.2-.3-.1-.5-.1-.9 0-.2-.1-.5 0-.9 0"/><path id="Fill-346_00000000180463210561625620000013830130172181261245_" class="st10" d="M-1078.9-2533.5c-.3 0-.5-.2-.5-.4s.2-.4.5-.5c.4 0 .7-.1 1.1-.1l.8-.1c.3 0 .6.1.6.4 0 .2-.2.4-.5.5l-.8.1c-.4 0-.8.1-1.2.1"/><path id="Fill-348_00000046323211417399395950000006681755499144996752_" class="st10" d="M-1079-2529.5c-.2 0-.4-.1-.5-.2-.1-.2.1-.4.3-.4h.2c.6-.1 1.3-.3 2-.3.3 0 .5.2.5.3 0 .2-.2.3-.5.3-.5 0-1.1.1-1.7.3H-1079"/><path id="Fill-350_00000036944618191391779740000013473422478191518631_" class="st10" d="M-1079-2524.5c-.2 0-.5-.2-.5-.4s.2-.4.5-.4.6 0 1-.1.7-.1 1.1-.1c.2 0 .5.2.5.4s-.2.4-.5.4-.7 0-1 .1c-.4 0-.7.1-1.1.1"/><path id="Fill-352_00000054968986572183137400000002562351604810549414_" class="st10" d="M-1079-2518.5c-.2 0-.3-.1-.4-.2-.1-.2-.1-.4.2-.4.7-.3 1.4-.4 2.3-.4.3 0 .5.1.5.3 0 .2-.2.3-.5.3-.7 0-1.3.1-1.8.3-.1.1-.2.1-.3.1"/><path id="Fill-354_00000039098913166553328180000005239049823502748039_" class="st10" d="M-1079.1-2513.5c-.2 0-.3 0-.4-.1-.1-.1 0-.3.2-.3.8-.2 1.4-.4 2.2-.5.2 0 .5 0 .5.2.1.1 0 .3-.3.3-.7.1-1.3.3-2.1.5.1-.1 0-.1-.1-.1"/><path id="Fill-356_00000008133565748637323490000015765071312914738606_" class="st10" d="M-1077-2508.5c-.2 0-.3-.1-.4-.2-.1-.2 0-.3.2-.4.6-.2 1.4-.4 2.2-.4.3 0 .5.1.5.3s-.2.3-.5.3c-.7 0-1.3.2-1.8.3 0 .1-.1.1-.2.1"/><path id="Fill-358_00000023984945954209009570000003732156832860131204_" class="st10" d="M-1076-2503.5c-.2 0-.3-.1-.4-.2-.1-.2 0-.4.2-.4l.2-.1c.9-.3 1.2-.4 2.2-.2.2 0 .4.2.3.4-.1.2-.3.3-.5.2-.8-.1-.9-.1-1.7.2l-.2.1h-.1"/><path id="Fill-360_00000121972648041179806230000015972975258367765940_" class="st10" d="M-1075-2498.5c-.2 0-.4-.1-.4-.1-.1-.1 0-.3.2-.4.2 0 .3-.1.5-.2.5-.2 1.1-.3 1.7-.3.3 0 .5.1.5.3s-.2.3-.5.3c-.4 0-.8.1-1.2.3-.2.1-.4.1-.6.2 0-.1-.1-.1-.2-.1"/><path id="Fill-362_00000011739165071448101580000016487726489929078197_" class="st10" d="M-1106.9-2585.5c-.2 0-.4-.2-.3-.4.4-2.7-3.5-4.2-5.2-4.8-4.9-1.6-12-1.7-13.4.7-.1.2-.3.2-.5.1s-.2-.3-.1-.4c1.6-2.7 8.9-2.7 14.3-1 4 1.3 6 3.3 5.7 5.5-.1.2-.3.3-.5.3"/><path id="Fill-364_00000032634927715350661770000006251202193400347324_" class="st10" d="M-1107.9-2584.5s-.1 0 0 0c-.3-.1-.4-.2-.3-.4.6-2.3-2.5-3.9-3.9-4.5-4.6-1.9-11.4-2.1-12.8.4-.1.2-.3.2-.5.1s-.2-.3-.1-.5c1.6-2.8 8.8-2.7 13.6-.7 3.2 1.3 4.8 3.3 4.2 5.3.1.2 0 .3-.2.3"/><path id="Fill-366_00000108285217439809962430000012059757724312376973_" class="st10" d="M-1123.8-2587.5c-.1 0-.2 0-.2-.1s-.1-.1-.2-.1l-.2-.2c-.1-.1-.1-.3 0-.5.1-.1.3-.1.5 0l.1.1.2.2c.1.1.1.3 0 .5 0 .1-.1.1-.2.1"/><path id="Fill-368_00000119106604842344225760000004255331376168290716_" class="st10" d="M-1122.8-2589.5c-.1 0-.2-.1-.3-.1l-.3-.4c-.1-.1 0-.3.1-.4.2-.1.4 0 .5.1l.3.4c.1.1.1.3-.1.4h-.2"/><path id="Fill-370_00000119825479637889603770000013642142970202030489_" class="st10" d="M-1119.8-2589.5c-.1 0-.2 0-.3-.1-.1-.1-.3-.5-.3-.6 0-.2.2-.3.4-.3s.4.1.4.3c0 .1.1.2.1.3.1.1.1.3 0 .4h-.3z"/><path id="Fill-372_00000049933403571566433470000009216930109561809045_" class="st10" d="M-1118.9-2589.5c-.3 0-.5-.1-.5-.3v-.1c0-.1-.1-.2-.1-.3 0-.2.2-.3.5-.3s.5.1.5.3v.1c0 .1.1.2.1.3-.1.2-.3.3-.5.3"/><path id="Fill-374_00000173143566049337859930000012014912311689370518_" class="st10" d="M-1118-2589.5s-.1 0 0 0c-.3 0-.5-.2-.5-.3v-.4c0-.2.2-.3.5-.3s.5.1.5.3c0 .1 0 .2-.1.4v.1c0 .1-.2.2-.4.2"/><path id="Fill-376_00000026878090361523203440000018349375869939823514_" class="st10" d="M-1117-2589.5c-.1 0-.1 0 0 0-.3 0-.5-.2-.4-.4 0-.1 0-.1.1-.2v-.1c0-.2.2-.3.4-.3s.4.1.4.3c0 .1-.1.2-.1.3v.1c0 .2-.2.3-.4.3"/><path id="Fill-378_00000050641641726552461420000003628661160416884925_" class="st10" d="M-1116.1-2589.5h-.1c-.2-.1-.3-.2-.2-.4.1-.1.2-.3.2-.4v-.1c.1-.1.3-.2.5-.1s.3.2.2.4v.1c-.1.1-.2.2-.2.4-.1 0-.3.1-.4.1"/><path id="Fill-380_00000063607985736609412070000010873158589117756564_" class="st10" d="M-1114.1-2587.5c-.1 0-.1 0 0 0-.3 0-.4-.2-.3-.4.1-.2.2-.3.3-.4l.1-.1c.1-.1.3-.2.5-.1s.2.3.1.4c0 .1-.1.1-.2.2l-.1.1c-.2.2-.3.3-.4.3"/><path id="Fill-382_00000116919942916276117230000005482070404836238000_" class="st10" d="m-1112-2587.5-.5-.5c.2-.2.3-.3.5-.4.2-.1.4-.1.5.1.1.2.1.4-.1.5-.1.1-.3.2-.4.3"/><path id="Fill-384_00000056428378433347620000000000114780280454398906_" class="st10" d="M-1111.2-2586.5c-.1 0-.2-.1-.2-.2-.1-.2 0-.4.1-.5.1 0 .1-.1.2-.1.1-.1.2-.1.2-.2.1-.1.3 0 .4.2.1.2 0 .4-.1.5-.1 0-.1.1-.2.1-.1.1-.2.1-.2.2h-.2"/><path id="Fill-386_00000119112352746668951830000015950099597094490520_" class="st10" d="m-1110.1-2585.5-.2-.3-.2-.3c.2-.2.4-.4.7-.4.2 0 .3.2.3.4s-.1.4-.3.4c0 0-.2.1-.3.2"/><path id="Fill-388_00000082354167075099170540000016563029458434149814_" class="st10" d="M-1110.2-2585.5c-.1 0-.2-.1-.3-.3 0-.2 0-.4.2-.5l.4-.2c.2-.1.3.1.4.3 0 .2 0 .4-.2.5l-.5.2c.1 0 0 0 0 0"/><path id="Fill-390_00000173881236857424073000000001902490651965914805_" class="st10" d="M-1121.9-2586.5c-.1 0-.2 0-.2-.1l-.1-.1c-.1 0-.1 0-.1-.1-.2-.2-.2-.4 0-.6.2-.2.4-.2.5 0l.2.1c.2.1.2.4.1.6-.1.1-.2.2-.4.2"/><path id="Fill-392_00000080908906895786054030000001125361582788401312_" class="st10" d="M-1119.9-2586.5c-.1 0-.3-.1-.4-.2l-.1-.2-.1-.1c-.1-.2 0-.4.2-.5.2-.1.4 0 .5.1l.2.3c.1.2 0 .4-.2.5.1.1 0 .1-.1.1"/><path id="Fill-394_00000087378435966625125220000014549451217952793991_" class="st10" d="M-1119-2587.5c-.2 0-.3-.1-.4-.2l-.1-.1V-2588.1c0-.1 0-.2.1-.2.1-.2.4-.3.7-.2.2.1.3.3.3.4.1.2 0 .4-.2.5-.2.1-.3.1-.4.1"/><path id="Fill-396_00000105387165555764663980000014659471466254487954_" class="st10" d="M-1117-2586.5h-.1c-.2-.1-.4-.3-.3-.5l.1-.2c.1-.2.3-.3.6-.3.2.1.4.3.3.5l-.1.2c-.1.2-.3.3-.5.3"/><path id="Fill-398_00000143581255379341306570000018209501011053046427_" class="st10" d="M-1116.1-2586.5h-.2c-.2-.1-.3-.3-.2-.5 0-.1.1-.1.1-.1 0-.1.1-.3.5-.3.2 0 .4.2.4.4 0 .1-.1.2-.2.3 0 0 0 .1-.1.1 0 0-.1.1-.3.1"/><path id="Fill-400_00000108995964755243646310000002153724091503792825_" class="st10" d="M-1115.1-2586.5c-.1 0-.2 0-.2-.1-.2-.1-.2-.4-.1-.5l.1-.1c.1-.1.1-.2.3-.2.2-.1.4 0 .5.2.1.2 0 .4-.1.5 0 0-.1.1-.1.2-.1-.1-.3 0-.4 0"/><path id="Fill-402_00000007396637716280095060000002923830740947862658_" class="st10" d="M-1114.1-2585.5c-.1 0-.2-.1-.3-.2-.1-.2-.1-.4.1-.6l.1-.1c.1-.1.1-.1.2-.1.2-.1.4 0 .5.2.1.2 0 .4-.2.5h-.1l-.1.1c0 .2-.1.2-.2.2"/><path id="Fill-404_00000105400851777067325930000016225226207619063992_" class="st10" d="M-1112-2583.5c-.1 0-.3-.1-.4-.2-.1-.2-.1-.5.1-.6.1-.1.3-.1.4-.1.2 0 .4.2.4.5 0 .2-.1.4-.3.5-.1-.1-.2-.1-.2-.1"/><path id="Fill-406_00000116211742682096670950000008366932511616641199_" class="st10" d="M-1119.9-2585.5h-.1l-.2-.1-.1-.1c-.2-.1-.2-.4-.1-.6.1-.2.3-.3.5-.2 0 0 .1 0 .1.1l.1.1c.2.1.3.3.2.5 0 .2-.2.3-.4.3"/><path id="Fill-408_00000052071579127536671520000015134842114062499749_" class="st10" d="M-1118-2585.5c-.3 0-.5-.2-.5-.4v-.3c0-.2.2-.4.5-.4s.5.2.5.4v.3c0 .2-.2.4-.5.4"/><path id="Fill-410_00000096740169192736654260000001076163219735641777_" class="st10" d="M-1117-2585.5c-.3 0-.5-.2-.5-.5 0-.2 0-.2.1-.3.1-.2.4-.3.6-.2.2.1.3.3.2.5v.1c0 .3-.2.4-.4.4"/><path id="Fill-412_00000067222529608064666800000009303405387605521281_" class="st10" d="M-1116-2585.5c-.1 0-.2 0-.3-.1-.2-.1-.2-.4-.1-.6.1-.1.1-.2.2-.2.2-.1.5-.1.6.1.1.2.1.5-.1.6-.1.1-.2.2-.3.2"/><path id="Fill-414_00000168081383071602356720000011664822479334911417_" class="st10" d="M-1115-2583.5c-.2 0-.3-.1-.4-.3-.1-.2-.1-.5.2-.6l.1-.1c.2-.1.5 0 .6.2.1.2 0 .5-.2.7-.1.1-.2.1-.3.1"/><path id="Fill-416_00000036251934509465754980000009268602033421343678_" class="st10" d="M-1129-2536.5c-.2 0-.3-.1-.4-.3-.2-.7 0-1.5.5-2.3.5-.7 1.2-1.2 1.8-1.4.2-.1.5 0 .5.2.1.2 0 .4-.3.5-.4.1-1 .6-1.4 1.1-.4.6-.6 1.2-.4 1.6.1.2 0 .4-.3.5.1.1.1.1 0 .1"/><path id="Fill-418_00000074426342795761552240000001319319454758534072_" class="st10" d="M-1112-2609.5c-.1 0-.2 0-.3-.1-.2-.2-.3-.5-.1-.8l6-7.9c.2-.2.5-.3.7-.1.2.2.3.5.1.8l-6 7.9c-.1.1-.2.2-.4.2"/><path id="Fill-420_00000016034216676425619070000008889994070383631501_" class="st10" d="M-1114-2612.5c-.1 0-.2 0-.3-.1-.2-.2-.3-.6-.1-.8 1.1-1.7 2.1-1.7 3.1-1.6.6 0 1.3 0 2.2-.3.3-.1.6.1.7.4.1.3 0 .7-.3.8-1.1.4-1.9.4-2.5.4-.9 0-1.4 0-2.2 1.2-.3-.1-.4 0-.6 0"/><path id="Fill-422_00000044150030984224173140000004394107911894748085_" class="st10" d="M-1113-2614.5c-.1 0-.3-.1-.4-.2-.2-.3-.2-.7 0-1 1.2-1.6 2.1-1.5 3-1.4.6.1 1.3.1 2.2-.3.3-.1.5.1.6.4.1.4 0 .8-.3.9-1.1.6-1.9.5-2.6.4-.8-.1-1.3-.2-2.2 1 0 .1-.1.2-.3.2"/><path id="Fill-424_00000035512200340135490980000012730353986293517495_" class="st10" d="M-1109.5-2607c.9-.4 1.3-.5.7-1.8-.6-1.3-1.8-2-2.8-1.6-.9.4-1.2 1.8-.6 3.1s1.8.7 2.7.3"/><path id="Fill-426_00000038397702924535913480000000289425977640195486_" class="st10" d="M-1099.8-2630.5c-.1 0-.2 0-.3-.1-.3-.1-.4-.4-.3-.7l3.7-6c.2-.3.5-.4.9-.2.3.1.4.4.3.7l-3.7 6c-.2.2-.4.3-.6.3"/><path id="Fill-428_00000065788147080500899240000011579699860290387105_" class="st10" d="M-1101.7-2633.4s-.1 0 0 0c-.2 0-.2.1-.3.2-.2.2-.2.5-.1.9.2.5.7.9 1 .8.1 0 .2-.1.2-.2.2-.2.2-.5.1-.9-.2-.5-.6-.8-.9-.8zm.5 2.9c-.9 0-1.8-.7-2.1-1.6-.2-.6-.1-1.2.2-1.7.2-.3.6-.6 1.1-.6 1-.2 2.2.5 2.5 1.6.2.6.1 1.2-.2 1.7-.3.3-.6.6-1.1.6h-.4z"/><path id="Fill-430_00000018231449431803443890000016749283127232512402_" class="st10" d="M-1111-2628.5c-.3 0-.5-.2-.5-.5v-8c0-.3.2-.5.5-.5s.5.2.5.5v8c0 .3-.2.5-.5.5z"/><path id="Fill-432_00000144333091639926443710000009394562567822104707_" class="st10" d="M-1107.6-2627.1c.4-.7-.1-1.6-1.2-2.1-1-.5-2.2-.3-2.6.4-.4.7.1 1.6 1.2 2.1 1.1.4 2.2.2 2.6-.4"/><path id="Fill-434_00000073694824368185061760000009783603844639289474_" class="st10" d="M-1103-2643.5c-.3 0-.5-.2-.5-.5v-6.9c0-.3.2-.6.5-.6s.5.2.5.5v6.9c0 .4-.2.6-.5.6z"/><path id="Fill-436_00000181080775185505352710000003228608638127169180_" class="st10" d="M-1100.6-2642.1c.3-.7-.1-1.6-.9-2.1s-1.6-.3-1.9.4c-.3.7.1 1.6.9 2.1.8.4 1.6.2 1.9-.4"/><path id="Fill-438_00000178903494140148608910000016411794908066461847_" class="st10" d="M-1116.6-2622.1c.3-.7-.1-1.6-.9-2.1s-1.6-.3-1.9.4c-.3.7.1 1.6.9 2.1.8.4 1.6.2 1.9-.4"/><path id="Fill-440_00000030465353449185108850000013764039621122481842_" class="st10" d="M-1119.9-2623.5c-.2 0-.4-.2-.4-.5l-.1-6.9c0-.3.2-.5.4-.5.3 0 .4.2.5.5l.1 6.9c-.1.2-.3.5-.5.5z"/><path id="Fill-442_00000101093487582912983110000002218708774011288207_" class="st10" d="M-1123.6-2622.1c.3-.7-.1-1.6-.9-2.1s-1.6-.3-1.9.4c-.3.7.1 1.6.9 2.1.8.4 1.6.2 1.9-.4"/><path id="Fill-444_00000063630867538747770720000008893879752080978817_" class="st10" d="m-1120-2631.5-5-.4c-.3 0-.5-.2-.4-.4s.3-.3.6-.3l5 .4c.3 0 .5.2.4.4-.1.2-.3.3-.6.3"/><path id="Fill-446_00000180358740985109439710000011669862530948006026_" class="st10" d="M-1125.9-2623.5c-.2 0-.4-.2-.4-.5l-.1-6.9c0-.3.2-.5.4-.5s.4.2.4.5l.1 6.9c0 .3-.2.5-.4.5z"/></g></svg>