<svg version="1.1" id="Layer_4" xmlns="http://www.w3.org/2000/svg" x="0" y="0" viewBox="0 0 270 220" xml:space="preserve" enable-background="new 0 0 270 220"><style>.st0{fill-opacity:.53}.st0,.st10,.st13,.st17,.st18,.st2,.st4,.st7{fill-rule:evenodd;clip-rule:evenodd;fill:#fff}.st10,.st13,.st17,.st18,.st4,.st7{fill:#ffedde}.st10,.st13,.st17,.st18,.st7{fill:#92837a}.st10,.st13,.st17,.st18{fill:#332e3c}.st13,.st17,.st18{fill:#9bd090}.st17,.st18{fill:#9bd091}.st18{fill:#5b2714}</style><g id="Group-405" transform="translate(1282 2124)"><path id="Fill-1_00000076593029438330292260000011618648292703885750_" class="st0" d="M-1174.8-2086.8c2.4-.9-1-5.6-5.7-6.6-4.6-1-7.1 1.1-7.1 1.1s-2.7-6.6-10.8-6.7c-7.6-.1-10.2 7.1-10.2 7.1s-3.6-2.1-7.3-1.7c-5.8.7-9.8 6-7.2 6.9 2 .7 13.7.7 25.2.7 10.9-.1 21.6-.2 23.1-.8"/><g id="Group-5" transform="translate(0 59)"><defs><filter id="Adobe_OpacityMaskFilter" filterUnits="userSpaceOnUse" x="-1253" y="-2123.9" width="33" height="8.9"><feColorMatrix values="1 0 0 0 0 0 1 0 0 0 0 0 1 0 0 0 0 0 1 0"/></filter></defs><mask maskUnits="userSpaceOnUse" x="-1253" y="-2123.9" width="33" height="8.9" id="mask-2_00000109743502855203430170000005334278508670645377_"><g filter="url(#Adobe_OpacityMaskFilter)"><path id="path-1_00000137852314960752345220000000793963901801720756_" class="st2" d="M-1253-2123.9h33v8.9h-33z"/></g></mask><path id="Fill-3_00000091727223018769816430000016273122394602233268_" d="M-1220.5-2115.7c1.6-.6-.7-3.8-3.7-4.5-3.1-.7-4.7.7-4.7.7s-1.8-4.5-7.2-4.5c-5-.1-6.7 4.8-6.7 4.8s-2.4-1.4-4.8-1.1c-3.8.5-6.5 4-4.8 4.7 1.3.5 9.1.5 16.7.5 7.1-.1 14.2-.3 15.2-.6" mask="url(#mask-2_00000109743502855203430170000005334278508670645377_)" fill-rule="evenodd" clip-rule="evenodd" fill="#fff" fill-opacity=".53"/></g><path id="Fill-6" class="st0" d="M-1135.6-2071.6c1.9-.7-.8-4.3-4.5-5.1-3.7-.8-5.7.8-5.7.8s-2.1-5.1-8.7-5.2c-6.1-.1-8.2 5.5-8.2 5.5s-2.9-1.6-5.9-1.3c-4.6.5-7.8 4.6-5.8 5.3 1.6.5 11 .6 20.2.5 8.8.1 17.4-.1 18.6-.5"/><path id="Fill-8" class="st4" d="M-1214.7-2054.8c0-.4-.7.1-.7.1s-2.7 1.9-3.5 2.5c-.8.6-2.3 1.9-3.4 2.9-1 .9-1.6 1.5-1.6 1.5s.4.6.5.6c.6.8 1.2 1.5 1.9 2.2 2.6 2.4 5.6 4.3 8.2 6.7 1.4 1.3 3 3.9 4.9 4.4.3.1.6-.1.9-.1.4.1 1.1.3 1.5 0 1.6-1.1 1.1-3.6.7-5.3-.9-4.2-2.2-8.3-5.1-11.4-.9-1-2-1.8-3.1-2.7-.5-.4-1.2-.8-1.2-1.4"/><path id="Fill-10" class="st4" d="M-1198-2022.4s.7 1.3 1.3 2.5c.7 1.3 1.3 2.6 1.3 3.2.1.8.2 1.5.4 2.3.4 1.3.9 2 .7 3.4-.1.4-.3 1.8.2 2 .3.1.4-.2.5-.4.3-.6.4-1.2.4-1.8 0-.1 0-.8.3-.7.2.1.4.5.4.7.3.8.2 1.6.5 2.4.1.2.2.9.6.8.2-.1.2-.5.2-.7 0-.5-.5-2 .3-2.1.2 0 .3.4.4.5.3.6.5 1.2.8 1.8.1.1.4.7.7.6.3-.2.2-.3.2-.5-.1-.9-.6-2.1-.8-3-.1-.2-.3-.9.1-.9.3 0 .6.6.7.7.5.6.8 1.1 1.1 1.5.3.4.6.5.8.4.1-.1.2-.1-.2-1.1s-.8-2-1.4-2.8c-.5-.7-1.6-1.7-2.1-2.5s-.7-1.1-1.1-2c-.4-1-.7-1.9-1-2.9l-.7-2.8s-.8-.1-1.2-.2c-.3 0-.6.1-.9.1-.3.1-.6.2-.9.4-.8.3-1.6 1.1-1.6 1.1"/><path id="Fill-12_00000003103037326740655890000017601615741562001079_" class="st4" d="M-1183-2014.1s.7 2 .9 2.5c.7 2.2.9 3.7 1.3 6 .2.8.8 2 .9 2.8.2 1.2-.4 2.5.3 3.5.3.4.9-.4.9-.5.2-.3.3-1.5.6-2.2.2-.3.4-.5.7-.4.8.3 2.2 1.5 2.6 2.2.4.8.9 2 1.1 2.5.2.3.6.4.6.4s1.4.2 1.5.2c.9.2.2-1.7.2-1.7v-.9c-.1-.7-.3-2.3-.5-2.9-.3-.7-.6-1.5-1.3-2-.3-.3-.4-.7-.6-1-1.1-1.2-1.9-2-2.6-3.5-.5-1.1-.7-2.4-.8-3.6-.1-.5-1.3-2.3-1.3-2.3s-.5.4-.6.5c-.4.2-.8.5-1.3.6-.6.2-1.3.1-1.9 0-.1-.1-.7-.2-.7-.2"/><path id="Fill-14_00000157302013504894574510000007053738098259774112_" class="st4" d="M-1179.4-2038.6c.2.1.7.7 1 .6.5-.1.6-.7 1.2-.7 1.3.1 2.7.6 3.8.5 1.1-.2 2-.2 2.3-.7.5-.9-.4-2.5-.7-3.5-.6-1.9-1.6-3.9-3.3-4.6-1-.4-2-.3-3-.5-.5-.1-1.8-1.5-1.8-1.5s.2 2.5.2 3.1c0 2.2-.1 7-.1 7s.2.2.4.3"/><path id="Fill-16_00000062893865617410576100000005521648158647436201_" d="M-1211.4-2101.9c.2.1.2.4.2.6-.1.2-.2.5-.3.4-.1-.1-.3-.8-.2-.9 0-.1.2-.2.3-.1m-.2-2.1c-.6 0-1.2.5-1.4 1.5-.3 1.5.7 3.1.7 3.1s0 8.2.2 16c.1 5.1-.1 9.5.9 13 1 4 3.5 5 5.1 5.6 2 .8 3 .8 3 .8s3.7.2 5.5-.4c.2-.1 2.3-.8 3.7-1.9.9-.8 1.2-1.4 1.6-3.1.5-2.3.5-5.2.2-7.9-.3-2.6-1.1-5-1.3-5-.2-.1-1.6 6.7-1.6 6.7s1.2-1.3 1.5.2c.3 1.3-.4 5.6-.6 6.1-1.1 2.9-4.8 3.4-4.8 3.2 0 0-2.9.3-4 .2-1.3-.2-3.2-.7-4.7-1.9-1-.8-1.8-2.1-2.3-3.6-.5-1.9-.6-4-.7-6.5-.1-2.3-.2-5.1-.3-7.7-.1-7-.1-14.1-.1-14.1s1-1.4.6-2.9c-.2-1.1-.8-1.4-1.2-1.4" fill-rule="evenodd" clip-rule="evenodd" fill="#a5acbc"/><path id="Fill-18_00000024687451918538636960000015714534701289603482_" d="M-1180.2-2047.5s.4.5.8.6c.4.1.9.5 1.5.6.6.2 1.6-.1 1.9.6.2.4-.1.9-.1 1.4.1.8.5 1.5 1.1 2 .8.7 3.3.9 3.3 2.1.1.8-.6 1-1.3 1.2-.2.1-1 .2-1 .2s.6.9 1.6 1c1.6.1 2.3-.9 2.8-1.4.7-.9 1-1.9 1.5-3.1.6-1.5 1.1-3.1 1.1-4.6-.1-1-.6-1.9-.9-2.8-.3-.9-.2-1.5-.8-2.2-2.4-2.7-5.6-2.2-8.6-1-1 .4-1.8 1.3-2.5 1.6-.7.4-1.3.5-1.3.5s.4 1.6.6 2.3c.2 0 .3 1 .3 1" fill-rule="evenodd" clip-rule="evenodd" fill="#9f7a63"/><path id="Fill-20_00000073718023255901151080000000072544528869201542_" class="st7" d="M-1241.9-1983s-1.1.7-1.5.9c-1.4.7-2.6.8-3.6 2.2-.5.7-1 2.3-1.2 3.2-.3 1.7-.7 3.7-1.2 5-.2.6-.4 1.3-.5 1.9-.2 1.4.9 2.9 2.3 4.1.8.7 1.7 1.5 2.6 1.6.6.1 1.2-1.3 1.3-1.7.5-1.4 1-3.2 1.6-4.5.8-1.7 1-2.5 2.1-4 .3-.5 2.1-2.8 2.1-2.8s-.9-3.8-1.9-4.9c-.7-.6-2.1-1-2.1-1"/><path id="Fill-22_00000036951953921421205650000016383635176300312708_" class="st7" d="M-1240.4-1985s-.8-.8-.9-1.1c-.9-1.2-1.1-3.5-1-5 .1-2.1-.9-4.3-.5-6.5.1-.3.3-.8.6-1.1.6-.6 1.7-.9 2.6-1.3 1-.5 1.9-1 1.9-1s.7 1.2.9 1.4c.7.7 2.9 1.4 3 2.4.2 1.3-.8 2.4-1.1 3.7-.1.6-.4 1.8-.2 2.5.1.3.2 1.2.2 1.2l-1.4 1.4c-.6.5-1.5 1.3-2.3 2-.9.6-1.8 1.4-1.8 1.4"/><path id="Fill-24_00000095301193017648363660000012932332853439623074_" d="m-1214.8-2053.6-3.7 2.7s-1-4.2-.1-4.8c1.5-.9 3.1-1.2 5.4-1.8 1.6-.4 3.8-1.1 5.3-2.1 1-.6 2.4-1.7 3.3-2.6 1.1-1.2 1.9-2.2 1.9-2.2s.8-.2 1.3-.8c.4-.6.5-1.4.5-1.4s1-.7 1.7-.2c1.3.9 2.7 2.7 5.1 4.9 1.8 1.6 4.2 2.9 6.3 4.2 1.8 1.1 3.5 2 4.8 3.3 1.9 1.9 2.5 5.3 2.7 6.4.1.4.3 2.8.2 5.6-.1 3.8-.4 8.7.1 13.6.5 4 1.1 5.8 1.9 8.8.4 1.6.7 4.6.9 6.4.1 1.1.3 1.2.2 1.9-.2 1-1.6 1.6-2.9 1.7-.8.1-1.5-.2-2.2-.4-.7-.3-1.8-4.1-2.6-6.8-.5-1.9-1.3-4.3-1.7-6.2-.4-2.3-.5-4.6-.9-7-.6-3.6-1.5-7.1-1.5-7.1l-6.9.9s-.5 1.7-.8 2.8c-.3.8.4 2.4.4 2.4l.8 5.1.6 2.3s-1.4-.3-3.1.3c-1.3.4-1.9 1.5-1.9 1.5s-.4-.6-1.2-2.6c-.8-2-2-5.4-2-5.4l-.4-3.6s-.6.5-1.1.8c-.5.3-.9.2-.9.2s-.1-2.3-.8-5.4c-.5-2-1.4-4.4-2.4-6.4-1-2.2-2.3-4.4-3.5-5.9-1.5-2.1-2.8-3.1-2.8-3.1" fill-rule="evenodd" clip-rule="evenodd" fill="#5e6472"/><path id="Fill-26_00000016058690615119194780000002657926220229037742_" d="M-1222.2-2047s2.5.1 5.6 1.4c1.1.5 2.4 1.2 3.6 2.1 1.2.9 2.3 1.8 3.3 2.8 1.1 1.1 2.1 2.5 2.9 3.6.4.6 1 1.4 1.3 2 .5.9.6 1.5.6 1.5s-.4.6-.6 1.2c-.2.6-.3 1.5-.5 2.2-.2.6-.4 1.1-.5 1.6-.6 2.9-1.7 7.2-3.1 12.1-.6 2.2-1.3 4.6-2.1 7-1.4 4.4-2.7 9.1-4.6 12.9-.9 1.7-2.6 2.9-3.8 4.3-2 2.1-4.7 4.4-6.9 6-1.8 1.3-2.9 1.8-4.4 2.9-1.1.8-2.4 2.8-3.2 3.5-.5.4-1 .7-1.4 1-.6.6-.8 1.2-1.1 1.5-.5.5-.7.4-.7.4s-.5-.6-.9-1.7.1-1.8-.8-2.9c-.8-1.1-2.5-1.5-2.5-1.5s.3-.7 1.5-1.8c1.2-1.2 3.4-3.1 3.4-3.1l5.7-6.5s3.1-2.3 4.8-4.1c1.7-1.7 1.6-2 1.9-2.8.3-.8.3-1.5.3-1.5s-.5.4-1.3.8c-1 .5-2.4 1-3.8 2-1.6 1-2.9 2.5-4.1 3.4-.8.7-1.3.9-1.3.9s.5-.9-.2-1.7c-.6-.9-1.5-.9-2.4-1.8-.9-.9-1.1-1.7-1.1-1.7s-.3-.2.5-.9c.4-.4 1.3-.9 2.2-1.5 1.4-1 2.5-2.8 3.9-4.5.6-.8 2-2 2.5-2.5 2.2-2.3 2.9-2.3 2.6-4.7-.3-1.9-1.6-7.4-1.8-9.3-.2-1.4-.2-4.2-.3-5.5-.1-1.3-.7-3.3-.7-4.4 0-3 .9-5.1 2.1-6.9 1.1-1.7 2.4-3 2.4-3s.9-1.5 1.6-2.1c.6-.6 1.4-.7 1.4-.7" fill-rule="evenodd" clip-rule="evenodd" fill="#c3baa9"/><path id="Fill-28_00000127006739849318813020000003390247804267014079_" class="st10" d="M-1222.7-2047c-.1 0-.2-.1-.2-.1-.1-.1-.1-.3 0-.4 2.5-2.3 5.5-4.6 8.5-6.5.1-.1.3-.1.4.1.1.1.1.3-.1.4-3 1.9-6 4.2-8.4 6.4-.1 0-.1.1-.2.1"/><path id="Fill-30_00000018924325157017179170000018113621831141090434_" class="st10" d="M-1171.6-1996.1c-.3 0-.6-.3-.9-.9-.1-.1 0-.3.1-.4.1-.1.3 0 .4.1.2.4.4.5.4.5s.1-.1.1-.4c.1-.3-.1-2.7-.1-3-.2-1.4-.6-2.1-1.5-3.7-.4-.7-.9-1.4-1.5-2.1-.7-.9-1.5-1.8-1.8-2.7-1.1-2.4-1.3-4.7-1.5-7.3 0-.2.1-.3.3-.3s.3.1.3.3c.2 2.5.5 4.7 1.5 7.1.4.9 1.1 1.7 1.8 2.6.6.7 1.2 1.4 1.5 2.1.9 1.5 1.3 2.3 1.6 3.9.1.3.2 2.7.1 3.2-.1.6-.4.9-.5.9l-.3.1"/><path id="Fill-32_00000126324442112241584600000003670256535964691351_" class="st10" d="M-1180.6-2010.1c-1.1 0-2.3-.4-2.7-1.5-.1-.2-.1-.3-.2-.6-.6-1.6-1.7-4.5-2.8-9.3-.7-2.6-.9-4.8-1.1-7-.2-1.6-.4-3.1-.7-4.7-.6-3.1-1.6-7.2-2.1-8.5-.1-.2.1-.3.2-.3.2-.1.3.1.3.2.5 1.4 1.5 5.5 2.1 8.6.3 1.7.5 3.1.7 4.8.3 2.1.5 4.3 1.1 6.9 1.2 4.7 2.2 7.6 2.8 9.2.1.2.2.4.2.6.5 1.3 2.3 1.2 2.7 1.2 1-.1 1.9-.5 2.3-1 .1-.2.3-.4.2-.7-.2-1-.3-2.6-.5-3.9-.2-1.2-.3-2.2-.3-2.5-.3-1.7-.7-3.2-1-4.8-.4-1.7-.8-3.4-1.1-5.2-.5-3.3-.4-7.7-.2-11.6.1-1.2.1-2.4.1-3.4.1-2-.2-4.8-.8-6.7-.8-2.4-2.2-4.2-4.2-5.3-2.2-1.3-6.5-3.9-9.4-6.2-1-.9-1.9-1.8-2.7-2.7-.6-.7-1.1-1.3-1.6-1.6-.4-.3-1.1-.3-1.7 0v.2c-.1.3-.1.9-.4 1.3-.4.5-1.1.7-1.3.8-1.5 1.9-3.1 3.4-4.8 4.5-2.9 1.8-5 2.3-6.9 2.6-1.4.3-2.7.6-4.2 1.4-.1.1-.3 0-.4-.1-.1-.1 0-.3.1-.4 1.6-.8 2.9-1.1 4.4-1.4 1.9-.4 4-.8 6.7-2.6 1.7-1.1 3.3-2.6 4.7-4.5.1-.1.1-.1.2-.1 0 0 .8-.2 1.1-.7.3-.3.3-.7.3-1 0-.2.1-.4.2-.6.6-.3 1.6-.5 2.3 0 .5.4 1 1 1.7 1.7.7.8 1.6 1.8 2.7 2.6 2.9 2.4 7.1 4.9 9.3 6.2 2.2 1.3 3.6 3.1 4.5 5.7.6 2 .8 4.8.8 6.9 0 1-.1 2.2-.1 3.4-.2 3.9-.3 8.3.2 11.4.3 1.8.7 3.5 1.1 5.2.4 1.5.7 3.2 1 4.8.1.3.2 1.3.3 2.5.2 1.3.3 2.9.5 3.9.1.3-.1.7-.3 1-.5.7-1.5 1.2-2.7 1.3h-.6"/><path id="Fill-34_00000181789499543867390870000003098427122203868826_" class="st10" d="M-1173.5-1997c-.1 0-.3-.1-.5-.2-.2-.2-.4-.7-.5-1.3-.2-.5-.3-1.1-.6-1.6-.4-.6-.8-1.1-1.3-1.5-.6-.6-1.2-1.2-1.6-2-.1-.1 0-.3 0-.4.1-.1.2-.1.3.1.4.7.9 1.3 1.5 1.8.5.5 1 1 1.4 1.6.3.5.5 1.2.7 1.7.1.4.3.9.4 1 .1.1.2.1.2.1 0-.1.1-.2 0-.5 0-.2 0-.4-.1-.6-.1-.5-.1-1.1-.3-1.5-.1-.3-.3-.7-.5-1.1-.2-.4-.3-.7-.5-1.1 0-.1 0-.3.1-.4.1-.1.2 0 .3.1.1.3.3.7.5 1.1.2.4.3.7.5 1.1.2.5.3 1.1.3 1.7 0 .2 0 .4.1.6.1.7-.1 1-.2 1.1 0 .1-.1.2-.2.2"/><path id="Fill-36_00000108269366173348906280000015868198669314562735_" class="st10" d="M-1179.3-1998c-.1 0-.3-.1-.4-.2-.4-.3-.4-1.1-.3-2.1 0-.4.1-.8.1-1.2 0-.8-.2-1.3-.4-1.7-.1-.3-.2-.6-.3-1-.2-.6-.3-1.4-.4-2.2-.2-.9-.3-1.7-.5-2.4-.5-1.9 0-.3-.6-1.9-.1-.2 0-.3.2-.4.2-.1.3 0 .4.2.6 1.7.1 0 .6 2 .2.7.3 1.5.5 2.4.2.8.3 1.5.4 2.1l.3.9c.2.5.4 1 .4 1.9 0 .5 0 .9-.1 1.3-.1.6-.1 1.4.1 1.5l.1.1c.2-.1.5-.5.7-1.3.1-.2.1-.3.1-.5.2-.7.3-1.5 1.2-1.6.2 0 .3.1.3.3 0 .2-.1.3-.3.3-.5 0-.6.3-.7 1.1-.1.2-.1.4-.2.6-.2.7-.5 1.5-1 1.7h-.2z"/><path id="Fill-38_00000096041004929377799590000002609722588693200798_" class="st10" d="M-1171.6-1999c-.1 0-.2 0-.2-.1s0-.2.1-.3c.3-.1.3-.5 0-1.7l-.1-.4c-.2-.9-.4-1-.9-1.3-.3-.2-.7-.4-1.3-.9-.1-.1-.1-.2 0-.3.1-.1.2-.1.3 0 .5.4.9.7 1.2.9.6.4.9.6 1.1 1.6l.1.4c.3 1.2.5 1.8-.3 2.1z"/><path id="Fill-40_00000011025550011757790750000013425009040483676075_" class="st10" d="M-1204.7-2032c-.2 0-.3-.2-.3-.3 0-.2.1-.3.2-.3.7.1 1.7-.9 2.7-1.6.8-.6 1.5-1.3 2.1-1.5 1.6-.5 3.3-.6 5-.7 1.6-.1 3.2-.2 4.6-.6.1-.1.2.1.3.2 0 .2 0 .3-.2.3-1.5.4-3.1.5-4.7.6-1.7.1-3.4.2-4.9.7-.5.2-1.3.8-2 1.4-.9.9-1.9 1.8-2.8 1.8"/><path id="Fill-42_00000116915113263929725410000009661905142522847918_" class="st10" d="M-1238.7-1976c-.1 0-.2-.1-.3-.2-.1-.2.1-.3.2-.3.7-.2.8-.4 1.1-.9.3-.4.6-.9 1.5-1.6.9-.7 1.4-1.2 1.9-1.9s1-1.3 2-2.1 1.7-1.2 2.5-1.6c.7-.4 1.4-.8 2.4-1.5 1.7-1.3 3.6-3 6.2-5.5.4-.4.8-.7 1.1-1 1.4-1.3 2.5-2.2 3.1-3.3 1.4-2.3 2.3-5.1 3.7-9.4.4-1.2.8-2.5 1.3-3.9 1.2-3.4 2.6-9.2 3.9-13.8.6-2.4 1.2-4.5 1.5-5.7.1-.2.2-.2.3-.2.2.1.2.2.2.3-.4 1.3-.9 3.3-1.5 5.7-1.2 4.6-2.7 10.4-3.9 13.9-.5 1.4-.9 2.7-1.3 3.9-1.4 4.3-2.4 7.2-3.8 9.5-.7 1.1-1.8 2.2-3.2 3.4-.4.3-.7.7-1.1 1-2.7 2.5-4.6 4.2-6.3 5.5-1.1.8-1.8 1.2-2.5 1.6-.7.4-1.4.8-2.4 1.6-.9.8-1.4 1.4-1.9 2-.5.7-1 1.3-2 2-.8.5-1.1 1-1.4 1.4-.3.4-.6.9-1.4 1.1.1-.1.1 0 .1 0"/><path id="Fill-44_00000100380756573978867290000016152310464169610169_" class="st10" d="M-1241.8-1982c-.1 0-.1 0-.1-.1-.1-.1-.2-.2-.1-.4.6-1.3 1.9-2.4 3.2-3.4.7-.7 1.5-1.3 2-1.9l.6-.7c1.5-1.7 4-4.5 5.2-5.7.8-.8 1.7-1.5 2.5-2.1 1.4-1.1 2.8-2.2 3.9-3.9 1-1.5.9-2.8.9-4.9-.1-1.1-.1-2.3 0-3.9.1-1.9.3-3.8.5-5.7.3-2.7.5-5.5.6-8.7.1-2.8-.3-5.6-.7-8.3 0-.2.1-.3.2-.3.2 0 .3.1.3.2.4 2.7.7 5.6.7 8.4-.1 3.2-.3 6-.6 8.8-.2 1.9-.4 3.8-.5 5.7-.1 1.5-.1 2.8 0 3.8.1 2.1.1 3.6-1 5.2-1.1 1.7-2.5 2.8-4 4-.8.7-1.7 1.3-2.5 2.1-1.2 1.1-3.7 4-5.2 5.7l-.6.7c-.6.7-1.3 1.3-2.1 2-1.2 1-2.5 2.1-3.1 3.3.1 0 0 .1-.1.1"/><path id="Fill-46_00000178170925423504371810000006626192799832320135_" class="st10" d="M-1235.7-1996c-.1 0-.2-.1-.3-.2-.1-.2 0-.3.1-.4.5-.3 1.2-.8 1.9-1.5.8-.7 1.6-1.5 2.7-2.3 1.3-.9 2-1.2 2.8-1.6.6-.3 1.2-.5 2.1-1.1.1-.1.3 0 .4.1.1.1 0 .3-.1.4-.9.5-1.5.8-2.1 1.1-.8.4-1.5.7-2.8 1.6-1 .7-1.8 1.5-2.6 2.2s-1.5 1.4-2.1 1.7z"/><path id="Fill-48_00000046341162256906193410000007031464758027234463_" class="st10" d="M-1227.5-2014c-.2 0-.3-.1-.3-.3-.1-1-.4-2.7-.9-4.4-.4-1.6-.8-3.5-1.2-5.5-.1-.7-.2-1.9-.3-3.2-.1-1.6-.3-3.5-.5-4.5-1-4.2.2-7.8 3.5-11.1l.3-.3c.4-.3 1.1-1 1.6-1.5.3-.3.5-.6.7-.9.6-.8 1.1-1.5 2.3-1.4.2 0 .3.2.3.3 0 .2-.2.3-.3.3-.8-.1-1.1.3-1.7 1.2-.2.3-.5.6-.8.9-.5.5-1.2 1.2-1.6 1.5l-.2.2c-3.2 3.1-4.3 6.5-3.3 10.6.2 1.1.4 2.8.5 4.5.1 1.2.2 2.4.3 3.2.4 2 .8 3.8 1.2 5.5.5 1.9.8 3.5.9 4.5-.2.3-.3.4-.5.4"/><path id="Fill-50_00000000923730572887526370000002452252032242212779_" class="st10" d="M-1238.8-2000s-.1 0 0 0c-.2-.1-.2-.3-.2-.4.5-1 1.1-1.5 2.2-2.2l.3-.2c.7-.4 1.7-1.6 2.3-2.6 1.4-2.2 4.1-5.2 6.8-7.6.1-.1.2-.1.3.1.1.1 0 .3 0 .4-2.7 2.3-5.3 5.3-6.7 7.5-.5.8-1.6 2.1-2.4 2.7l-.3.2c-1.1.7-1.6 1-2.1 2 0 0-.1.1-.2.1"/><path id="Fill-52_00000160907327594656146910000014530092357074003850_" class="st10" d="M-1245.7-1964c-.2 0-.3-.1-.3-.3 0-.2.2-.3.3-.3.8 0 1.5-2.4 1.7-3.1.1-.2.1-.3.1-.4.9-2.5 2.6-6.1 5.4-8.8.1-.1.3-.1.4 0 .1.1.1.3 0 .4-2.7 2.6-4.3 6.1-5.2 8.6-.1.1-.1.2-.1.4-.6 1.7-1.2 3.5-2.3 3.5"/><path id="Fill-54_00000134237828408094885630000013635374645838203015_" class="st10" d="M-1246.2-1979.5c-.3 0-.6.2-1 .6-1.1 1.1-1.5 3.4-1.8 5l-.1.5c-.1.6-.4 1.2-.6 1.8-.5 1.2-1.1 2.5-.4 3.6.8 1.3 3.8 3.6 4.4 3.6.8-.1.8-1.1.6-2.8 0-.6-.1-1.2-.1-1.9.1-2.4.6-4.2 1.3-6.2.6-1.7-.2-2.9-.9-3.4-.1-.1-.3-.2-.4-.3-.3-.3-.7-.5-1-.5m.5 15.5c-1.1 0-4.2-2.6-4.9-3.8-.8-1.3-.2-2.7.4-4 .3-.6.5-1.2.6-1.7l.1-.5c.3-1.6.7-4 1.9-5.2 1.2-1.2 2.2-.6 2.9-.1.1.1.2.2.4.3.9.6 1.9 2 1.2 3.9-.6 2-1.2 3.7-1.3 6.1 0 .6 0 1.2.1 1.9-.1 1.5-.1 3-1.4 3.1"/><path id="Fill-56_00000089550707011501705350000008085195629044573109_" class="st10" d="M-1245.8-1980s-.1 0-.1-.1c-.1-.1-.1-.3 0-.4.8-1.4 1.7-1.8 2.6-2.2.6-.3 1.3-.6 1.9-1.3.1-.1.2-.1.3.1.1.1 0 .3 0 .4-.7.7-1.4 1-2.1 1.3-.9.4-1.7.8-2.4 2 0 .1-.1.2-.2.2"/><path id="Fill-58_00000066513951355727077780000005281795164911795098_" class="st10" d="M-1245.9-1965c-.1 0-.3-.1-.2-.3 0-.2.1-.3.2-.3s.2-.1.2-.1c.3-.3.2-1.3.2-1.7v-.2c-.1-2.3.1-5.7.8-8.1.2-.8.3-1.5.3-1.8-.1-.8-.8-1.6-1.6-2-.4-.2-.6-.2-.7-.1-.1.1-.2.1-.3 0-.1-.1-.1-.3 0-.4.3-.3.8-.2 1.1 0 .8.4 1.7 1.3 1.8 2.4 0 .5-.2 1.4-.3 2-.6 2.3-.8 5.6-.7 7.9v.2c0 .6.1 1.7-.3 2.1-.1.3-.2.4-.5.4"/><path id="Fill-60_00000039848005030950270350000005580525004442019497_" class="st10" d="M-1241.7-1984s-.1-.1-.2-.1c-1.4-1.9-1.5-3.4-1.5-5.5 0-1.2-.1-2.5-.4-4.2-.7-4 .3-4.9.9-5.1.9-.3 1.8 1 2.2 1.9.4 1.1.6 2.5.6 4.2 0 1.2.1 4.1 1 5.8 0 .1 0 .3-.1.4-.1.1-.2.1-.3-.1-.9-1.8-1.1-4.8-1.1-6.1 0-1.7-.1-3-.5-4-.3-.8-1-1.8-1.6-1.7-.8.3-1 1.9-.6 4.5.3 1.8.4 3.1.4 4.3.1 2 .1 3.4 1.4 5.1.1.1.1.3 0 .4-.1.2-.1.2-.2.2"/><path id="Fill-62_00000093891302389838221740000013259131793052972961_" class="st10" d="M-1236.5-1989c-.1 0-.3-.1-.3-.2-.4-1.8.1-4.5 1.2-6.6.1-.2.3-.2.5-.2.2.1.3.2.2.4-1.2 2.3-1.4 4.8-1.1 6.2-.1.2-.3.4-.5.4"/><path id="Fill-64_00000108306730937318601980000013550447425682639029_" class="st10" d="M-1243.8-1998c-.1 0-.1 0-.2-.1s-.1-.3-.1-.4c.5-.6 1.1-.8 1.8-1.1.7-.3 1.5-.6 2.7-1.4.1-.1.3-.1.4.1.1.1.1.3-.1.4-1.3.8-2.2 1.2-2.8 1.5-.7.3-1.2.5-1.6.9.1.1 0 .1-.1.1"/><path id="Fill-66_00000129170191973295622620000015764608641933492905_" class="st10" d="M-1239.3-1987c-.1 0-.2-.1-.2-.1-.9-1.5-1.4-3.6-1.4-5.9 0-2 0-3.7-.5-4.7-.2-.4-.6-1.1-1-1.4-.3-.2-.5-.3-.8-.3-.2.1-.3.2-.4.3-.1.1-.2.2-.4.1-.1-.1-.2-.2-.1-.4.2-.3.4-.6.8-.6.4-.1.8.1 1.2.4.5.4.9 1.3 1.1 1.7.5 1.1.5 2.8.5 5s.4 4.2 1.3 5.5c.1.1.1.3-.1.4.1-.1.1 0 0 0"/><path id="Fill-68_00000038394254577866550670000014011494553892217010_" class="st10" d="M-1238.2-1978h-.1c-.6-.5-.7-1.2-.9-1.9-.2-1.1-.4-2.2-2.6-2.7-.1 0-.2-.1-.2-.3 0-.1.1-.2.3-.2 2.5.5 2.7 1.8 2.9 3 .1.6.2 1.2.7 1.7.1.1.1.2 0 .3 0 .1-.1.1-.1.1"/><path id="Fill-70_00000034798677865205099250000007872576618580092094_" class="st10" d="M-1235.5-1996c-.2 0-.3-.2-.2-.3.5-1.2 0-1.4-1.1-2.1l-.3-.2c-1.5-.8-1.8-1.5-1.9-2.2 0-.1.1-.2.2-.3.1 0 .2.1.3.2.1.7.3 1.2 1.6 1.9l.3.2c1.2.6 2 1 1.3 2.6 0 .2-.1.2-.2.2"/><path id="Fill-72_00000049925478542448569910000018294013742882086295_" class="st10" d="M-1180.1-2038c-.4-.1-.7-.5-.9-1.1 0-.2 0-.4.1-.6.1-.1.2 0 .3.2.1.4.3.6.4.6.1 0 .1 0 .2-.2 0-.1 0-.2.1-.2.3-.6.6-1 1.6-.6.1.1.2.3.2.5 0 .3-.1.4-.3.4-.8-.3-.9 0-1.1.4 0 .1-.1.2-.1.3-.2.2-.3.3-.5.3"/><path id="Fill-74_00000106126262062798406700000006642268278220216226_" class="st10" d="M-1175.3-2039h-.2c-.6-.4-.6-1.5-.6-1.7 0-.1.2-.2.3-.2.2 0 .3.1.3.2 0 .5.1 1.2.3 1.4.1.1.1.2 0 .3h-.1"/><path id="Fill-76_00000130631491795408628390000012615149071404462509_" class="st10" d="M-1176.5-2045h-.2c-.1-.1-.1-.2 0-.3.2-.2.3-.5.2-.7-.1-.3-.4-.5-.7-.5-.4 0-1.4.3-1.4.9 0 .1-.1.2-.2.2s-.2-.1-.2-.2c0-1 1.3-1.3 1.9-1.3.5 0 .9.3 1.1.8.1.2.2.7-.3 1.2-.1-.2-.1-.1-.2-.1"/><path id="Fill-78_00000126318868213791465650000014093681037092022458_" class="st10" d="M-1177.7-2045c-.1 0-.2-.1-.2-.3 0-.2 0-.3.1-.4.3-.1.4-.3.4-.3.1-.1.2-.1.3 0 .1.1.1.3 0 .5 0 .1-.2.2-.6.5"/><path id="Fill-80_00000141420206150936332590000000284865460167382673_" class="st10" d="M-1168.7-2040c-.1 0-.2-.1-.2-.2-.1-1 .2-2 .6-3.3.7-2.1 1.5-4.4.1-7.1 0-.1 0-.3.1-.4.1-.1.2-.1.3.1 1.5 2.9.6 5.5-.1 7.6-.4 1.1-.7 2.1-.6 2.9 0 .2-.1.3-.2.4"/><path id="Fill-82_00000101784988144388745340000009333900420744297858_" class="st10" d="M-1180.7-2052c-.1 0-.3-.1-.3-.2 0-.2.1-.3.2-.3.7-.1 1.4-.6 2.2-1.2 1.5-1 3.4-2.3 6.2-2.3.1 0 .3.1.3.3 0 .2-.1.3-.3.3-2.6 0-4.4 1.2-5.9 2.2-.7.6-1.6 1.1-2.4 1.2.1 0 .1 0 0 0"/><path id="Fill-84_00000116928859141305547660000011238846943108447105_" class="st10" d="M-1178.3-2045c-.1 0-.1 0-.2-.1s-.2-.1-.2-.1c-.5-.2-1.2-.5-1.3-1.6 0-.2.1-.3.3-.3.2 0 .3.1.3.3.1.8.5.9 1 1.1.1.1.3.1.3.2.1.1.2.3.1.4-.1 0-.2.1-.3.1"/><path id="Fill-86_00000024681661399577282980000004303240446424467372_" d="M-1177.6-2040c.3.1.5-.1.6-.3.1-.3-.1-.6-.4-.6s-.5.1-.6.3c0 .2.1.5.4.6" fill-rule="evenodd" clip-rule="evenodd" fill="#2f3541"/><path id="Fill-88_00000116203621512511713570000007114685675986342283_" class="st10" d="M-1173.9-2038c-.3 0-.6-.1-.9-.1-.1-.1-.2-.2-.2-.3 0-.2.1-.2.3-.2.8.2 1.6.1 2.4-.3.1-.1.2.1.3.2 0 .2 0 .3-.1.3-.7.3-1.2.4-1.8.4"/><path id="Fill-90_00000022558256477161616970000002375656402509968518_" class="st10" d="M-1171.3-2040c-.2 0-.2-.2-.2-.3.2-.6-.3-.8-1.3-1.1-1-.3-2.4-.7-2.2-2.4 0-.1.1-.2.3-.2.1 0 .2.1.2.3-.2 1.2.6 1.5 1.9 1.9.9.3 1.9.6 1.6 1.7-.1.1-.2.1-.3.1"/><path id="Fill-92_00000057832187328115654820000014045619374944747151_" class="st10" d="M-1171.9-2037c-1 0-1.8-.4-2.1-1.1-.1-.1 0-.2.2-.3.2 0 .3 0 .3.1.2.5.8.8 1.6.8.9 0 2-.5 2.4-1.4.1-.1.2-.2.3-.1.2 0 .2.2.2.3-.5 1.2-1.8 1.7-2.9 1.7"/><path id="Fill-94_00000116198932516763244820000010744807472079133106_" class="st10" d="M-1169.3-2052c-.1 0-.2-.1-.2-.2-.3-1.4-1.2-2-3.3-2.3-.1 0-.2-.1-.2-.3 0-.1.1-.2.3-.2 1.9.3 3.2.8 3.7 2.7 0 .2-.1.3-.3.3z"/><path id="Fill-96_00000076592159548310627740000006740346540577495209_" class="st10" d="M-1192.7-2011c-.8 0-1.1-1.1-1.3-1.7-.1-.4-.4-.8-.8-1.3s-.8-1-1.2-1.7c0-.1 0-.2.1-.3.1 0 .2 0 .3.1.3.6.7 1.1 1.1 1.6.4.5.8.9.9 1.5.2 1 .5 1.4.9 1.3.1 0 .1-.1 0-.7 0-.3-.1-.7-.1-1 0-.7 0-.8-.3-1.3-.1-.2-.2-.5-.4-.9 0-.1 0-.2.1-.3.1 0 .2 0 .3.1l.4.8c.3.5.4.8.4 1.6 0 .3 0 .7.1.9.1.5.2 1.1-.4 1.3h-.1"/><path id="Fill-98_00000057844217241925589460000014063791647718494860_" class="st10" d="M-1195.3-2024c-.1 0-.1 0 0 0-.2-.1-.2-.3-.2-.5.1-.3-.1-1.2-.3-2.4-.2-.8-.3-1.7-.3-2.6-.1-1.4-.3-2.9-.8-4.1 0-.1 0-.3.1-.4.1-.1.2 0 .3.1.6 1.4.7 2.9.9 4.4.1.9.2 1.8.3 2.5.3 1.6.5 2.4.3 2.8-.2.1-.2.2-.3.2"/><path id="Fill-100_00000068660093992358704220000003007183346917832593_" class="st10" d="M-1189.5-2007c-.8 0-1.4-1.5-2.1-3.4-.1-.2.1-.3.2-.3.2-.1.3.1.3.2.3 1 1 2.9 1.5 3 0-.3-.2-1.1-.4-1.5-.1-.3-.2-.5-.2-.7-.1-.2-.6-2.3-.3-2.6.1-.1.2-.1.3-.1.5.1 1.5 1.6 1.6 1.9.5.8 1 1.1 1.1 1.1 0-.2-.2-.6-.4-.8-.2-.3-.3-.6-.5-1-.5-1-.6-1.5-1.1-2-.2-.2-.6-.7-1-1.2-.6-.7-1.2-1.5-1.5-1.8-1-1.6-1.7-3.7-2.2-5.5-.1-.2-.2-.7-.3-1.4l-.3-1.2c-.1-.2.1-.3.2-.3.2-.1.3.1.3.2l.3 1.2c.2.7.3 1.2.3 1.4.5 1.8 1.2 3.9 2.2 5.4.2.3.8 1.1 1.5 1.8.5.5.8 1 1.1 1.3.5.6.7 1.1 1.1 2.1.1.3.3.7.5 1 .3.6.6 1 .4 1.3-.1.1-.1.2-.3.3-.4.1-1.1-.2-1.8-1.3-.4-.6-.7-1.1-1-1.4.1.4.2 1.1.3 1.7.1.2.2.4.2.7.3 1.1.6 1.7.3 2 0-.2-.1-.1-.3-.1"/><path id="Fill-102_00000005967768709500963650000002045668054162487432_" class="st10" d="M-1192.8-2008c-.7 0-.8-.8-1.1-2.1v-.2c-.1-.2-.1-.4-.1-.6-.1-.4-.1-.8-.2-1.1 0 .3-.1.7-.2 1.1-.1.3-.1.5-.2.7-.1.5-.2.9-.5 1-.1.1-.2.1-.5.1-.6-.2-.5-1.4-.5-2.1.1-.8.1-1.2-.2-2.1-.1-.3-.2-.6-.2-.8-.1-.3-.2-.5-.3-1-.2-.5-.3-1.2-.3-1.8-.1-.6-.1-1.1-.3-1.6-.2-.4-1.3-2.5-2.5-4.8l-.1-.3c-.1-.1 0-.3.1-.4.1-.1.3 0 .4.1l.1.3c1.4 2.5 2.4 4.4 2.6 4.9.2.5.3 1.1.3 1.7.1.6.1 1.1.3 1.6.2.5.3.8.3 1.1.1.2.1.4.2.8.3 1 .3 1.5.2 2.3-.1.9 0 1.4.1 1.5.1-.1.1-.4.2-.7.1-.2.1-.5.2-.8.2-.5.2-.9.2-1.2 0-.3 0-.5.2-.6.1-.1.2-.1.3-.1.7.1.8 1 1 1.9.1.2.1.4.1.7v.2c.2.8.3 1.7.5 1.7h.1c.1-.1 0-.5 0-.7 0-.1-.1-.3-.1-.4-.1-.8-.2-1.2-.1-1.5.1-.2.2-.2.3-.2.2.1.2.2.2.3-.1.2 0 .8.1 1.2 0 .2.1.3.1.4.1.4.1.8-.2 1.1-.1.3-.3.4-.5.4"/><path id="Fill-104_00000062889443683508043660000016845422313818506136_" class="st10" d="M-1199.3-2022c-.5 0-.8-.7-1.2-1.8-.3-.9-.7-2.1-1.1-3.2-.3-.9-.5-1.6-.6-1.9-.8-2.3-.8-3.6-.7-5.8 0-.2.1-.3.2-.3s.2.2.2.3c-.1 2.1-.1 3.4.7 5.5.1.3.4 1.1.6 2 .4 1.1.8 2.3 1.1 3.2.5 1.3.6 1.4.8 1.4.1-.1.2 0 .3.2s0 .3-.1.3c-.1.1-.1.1-.2.1"/><path id="Fill-106_00000161612915702282662120000012600605384906359989_" class="st10" d="M-1196.7-2034h-.2c-.2 0-.2-.2-.2-.3.2-.3.7-1.2 1.2-2.4.1-.1.2-.2.5-.2.2 0 .3.1.3.3-.2.6-.9 2-1.3 2.5 0 .1-.1.1-.3.1"/><path id="Fill-108_00000119828798853513867610000017723525375053499524_" class="st10" d="M-1206.3-2031c-.1 0-.1 0-.1-.1-.1-.1-.2-.2-.1-.4.2-.4.2-.7.3-1 .1-.5.1-1 .6-1.5.4-.4-1.3-3-3.1-4.9-4.7-5.1-9.7-7.6-15-7.6-.2 0-.3-.1-.3-.3 0-.2.1-.3.3-.3 5.5 0 10.7 2.6 15.5 7.8.4.5 4.2 4.6 3 5.6-.4.4-.4.7-.5 1.2-.1.4-.1.8-.3 1.2-.1.2-.2.3-.3.3"/><path id="Fill-110_00000049935602383919610490000017097208694764240555_" class="st10" d="M-1205.2-2033c-.2 0-.3-.2-.3-.3.2-1.8-.8-5.5-1.5-7.4-1.8-5.2-3.9-8.7-6.7-11.6l-.3-.2c-.8-.8-3.3-3.4-4.2-2.9-.3.2-.7 1 .1 4.4.1.2-.1.3-.2.3-.2.1-.3-.1-.3-.2-.7-3-.7-4.5.2-5 1.1-.7 2.9 1 4.8 3l.2.2c2.9 2.9 5 6.5 6.8 11.8.5 1.4 1.7 5.5 1.5 7.6.1.2 0 .3-.1.3"/><path id="Fill-112_00000181073711864225249540000010581509448430732160_" class="st10" d="M-1198.7-2022h-.1c-.1 0-.1-.2-.1-.3.9-1.3 3.5-2 4.8-1.5.1 0 .2.2.1.3 0 .1-.2.2-.3.1-1-.4-3.4.1-4.2 1.3-.1.1-.2.1-.2.1"/><path id="Fill-114_00000166658958723497753120000011202920498139401869_" class="st10" d="M-1202.3-2065c-3.7-.1-6.6-1.6-8.1-4.3-1.1-1.9-1.2-5-1.3-8.3 0-.5-.1-1-.1-1.6-.2-5-.2-14.7-.2-20.1 0-.1.1-.2.2-.4s.3-.5.4-1c.2-.8.2-1.8-.2-2.4-.2-.2-.4-.4-.7-.4-.4-.1-.7.1-.9.3-.4.4-.4 1.3-.3 2.4.1.3.2.5.3.8.1.2.2.4.3.5.1.2-.1.3-.2.3-.2.1-.3-.1-.3-.2-.1-.2-.1-.3-.2-.4-.2-.3-.3-.5-.4-1-.2-.8-.3-2.1.4-2.9.3-.4.7-.5 1.3-.4.5.1.8.2 1.1.6.6.9.4 2.4.3 2.9-.1.5-.3.9-.5 1.2l-.1.1c0 5.4.1 15 .2 20 0 .5.1 1 .1 1.6.1 3.2.2 6.3 1.2 8 1.9 3.3 5.2 4.1 7.6 4.1.2 0 .3.1.3.3 0 .2-.1.3-.2.3"/><path id="Fill-116_00000132777033569429757540000008243395732163286959_" class="st10" d="M-1196-2065c-.1 0-.2-.1-.3-.2-.1-.2.1-.3.2-.3 1.9-.4 3.5-1.2 4.5-2.1 2.3-2 2.6-9.4.5-15.2-.4 1.3-1.1 3.9-1.5 5.6.3-.2.7-.3 1-.2.5.2.7.8.7 2 .1 2.1-.2 5.9-2 7.2-1 .7-2.9 1.4-4.9 1.7-.2 0-.3-.1-.4-.2 0-.2.1-.3.2-.3 1.9-.3 3.7-.9 4.7-1.6 1.2-.9 1.9-3.3 1.8-6.7 0-1.2-.3-1.4-.4-1.4-.2-.1-.5.2-.7.3-.2.2-.4.3-.6.2-.1-.1-.2-.1-.1-.3.2-1.2.7-3 1.1-4.3.8-2.9.8-2.9 1.1-3 .1 0 .2.1.3.2 2.2 5.6 2.4 14.2-.4 16.6-1.1.9-2.8 1.7-4.8 2.2z"/><path id="Fill-118_00000005237987534149069720000005363927409123498902_" class="st10" d="M-1203.3-2065c-2.7-.3-5.1-1.3-6.6-2.7-2.7-2.7-2.8-7.5-2.9-14 0-1-.1-2-.1-3-.3-10.3-.1-16-.1-16 0-.2.2-.3.3-.3.2 0 .3.1.3.3 0 .1-.2 5.7.1 16 0 1 .1 2 .1 3 .1 6.4.2 11 2.8 13.5 1.4 1.4 3.7 2.3 6.3 2.6.2 0 .3.2.3.3-.3.2-.4.3-.5.3"/><path id="Fill-120_00000003070519233652343320000018285801627703935884_" class="st10" d="M-1210-2102.4c-.1.1-.2.2-.2.4s.1.3.2.4c.1-.1.2-.2.2-.4s-.1-.3-.2-.4m0 1.4c-.6 0-1-.4-1-1s.4-1 1-1 1 .4 1 1-.4 1-1 1"/><path id="Fill-122_00000087377894592868558090000012465279456319227804_" class="st10" d="M-1210.5-2102c-.3 0-.5-.1-.5-.3v-21.4c0-.2.2-.3.5-.3s.5.1.5.3v21.4c0 .2-.3.3-.5.3"/><path id="Fill-124_00000083052289817730186420000016556227199941774503_" class="st10" d="M-1207.7-2053c-.1 0-.2-.1-.2-.1-.1-.1-.1-.3.1-.4 3.2-2.6 5.2-5.5 6.4-9.2.1-.2.2-.2.3-.2.2.1.2.2.2.4-1.3 3.8-3.3 6.9-6.6 9.5h-.2"/><path id="Fill-126_00000051356609139765936750000015124704341833655467_" class="st10" d="M-1193.3-2056c-.1 0-.2-.1-.2-.1-2.4-2.6-4.5-6.4-4.5-6.5-.1-.1 0-.3.1-.4.1-.1.3 0 .4.1 0 .1 2 3.8 4.4 6.4.1.1.1.3 0 .4 0 0-.1.1-.2.1"/><path id="Fill-128_00000106835828799771447470000004311229950133339022_" class="st10" d="M-1174.2-2063c.2.2.9.2 1.2.1h1.1c.1-.1.3-.2.5-.2.4-.2.8-.4 1.2-.5-3 .1-3.8.4-4 .6m3.6.2c.4.1.9.1 1.3.1h.1c1.4.2 1.9 0 2-.2v-.1c0-.2 0-.4-.1-.5-1.1.1-2.2.3-3.3.7m-.1-1.6c-1.7 0-3.4.4-5.1 1.1-.5.2-.7.5-.7.7v.3c0 .1 0 .1.1.1.5-.3 1.1-.4 1.7-.5-.1-.2 0-.4 0-.4.2-1 3.3-1.1 6.3-1-.3-.1-.5-.1-.6-.2-.6-.1-1.1-.1-1.7-.1m2.6 2.7c.3 0 .7 0 1.1.1.1-.1.2-.1.3-.1-.3-.1-.5-.1-.8-.1h-.2c-.1.1-.2.1-.3.1h-.1c-.1 0-.2.1-.3.1h-.1c0-.1.2-.1.4-.1m-7.7-.1c.3.2.6.3.9.5.2-.1.5-.3.9-.4.4-.2.8-.3 1.2-.4-.5 0-1 0-1.5.1-.5-.1-1.1 0-1.5.2m1.6.7c.1.1.3.1.4.1v-.1c0-.1 0-.2.1-.3 0 0-.1.1-.2.1-.1.1-.2.1-.3.2m-2.2-.4c-.1.1-.1.1-.1.2v.2c.2.3.5.5.9.6v-.2c0-.1 0-.1.1-.2l-.9-.6m3.7.9c.2.1.3.1.6.1l.3.1.6-.4.6-.3c.2-.1.5-.2.7-.2 0 0-.1-.1-.2-.1h-.3c-.1 0-.1 0-1.1.2l-.6.1c-.3.1-.6 0-.7-.1-.2.1-.4.2-.5.2 0 .1.1.1.1.1l.1.1c.2 0 .3.1.4.2m6.8-.7c.4.1.7.4.9.8v.1c.8-.2 1.3-.4 1.4-.7.1-1.1-1.3-1.7-2.3-2-.3-.1-.6-.2-1-.2v.4c0 .2 0 .4-.2.5v.1c.3.1.6.1 1 .2h.1c.2 0 .4.1.5.2v.4c.2.1 0 .2-.4.2m-5 .9.3.1c.5-.1 1.1-.2 1.7-.5.1-.1.2-.1.2-.2l-.1-.1c-.6.1-1.2.2-1.7.4-.1.2-.3.2-.4.3m-2.8.1h.2c-.1-.1-.2-.1-.3-.1-.3-.1-.7-.2-1-.4l-.2.2c0 .1.2.1.4.2.1 0 .3.1.4.1h.5m4.9.1c1.1.1 2.4 0 3.4-.1-.3-.4-.7-.4-1.2-.5-.1 0-.2-.1-.4-.1-.1.1-.2.1-.4.2l-.4.2c-.3.1-.6.2-1 .3.1 0 0 0 0 0m-4.2.8s.1.1.3.1c.1 0 .2 0 .3-.1v-.2h-.2c-.2.1-.3.2-.4.2m3.9.1v.2c.3 0 .6-.1.8-.1-.1 0-.2-.1-.3-.1h-.5m-1.1 3.3s-.1 0-.1-.1c-.1-.1-.1-.2-.1-.3 0 0-.1 0-.2-.1s-.1-.2-.1-.3c0-.2 0-.4.1-.5-.5-.1-.5-.2-.5-.3 0-.1 0-.3.1-.4.2-.2.4-.3.7-.4-2 .1-2.4-.1-2.5-.2l-.2-.2c-.1-.1-.2-.2-.2-.3-.1-.2-.1-.4 0-.5-.1 0-.2-.1-.3-.1h-.4c-.2 0-.3 0-.5-.1-.8-.1-1.7-.4-2.1-1-.2-.3-.2-.5-.1-.7 0-.2.1-.3.2-.4-.2-.2-.2-.5-.2-.9.1-.5.5-.9 1.1-1.1 2.3-1 4.8-1.3 6.9-1 .3.1 1.2.2 1.8.8l.1.1c.5.1 1 .1 1.4.3 2.3.7 2.7 1.9 2.6 2.7-.1.7-.9 1-1.9 1.2-.3.6-1.6 1-1.6 1-.6.1-1.4.2-2.1.3v.1c-.1.4-.6.4-.9.5h-.2c-.1.1-.3.1-.5.2h.2c.1 0 .3-.1.4.1 0 .1.1.2.1.3 0 .3-.3.4-.5.5l.1.1c.1.2 0 .5-.1.7-.4-.1-.5 0-.5 0"/><path id="Fill-130_00000149360184160794741170000005546515055063268010_" d="M-1141.4-1949s1.5-8.3 3.3-19.4c.9-5.5 1.6-13.5 2.6-17.9 1.1-4.8 3.9-7.7 6.9-10 2.5-2 5.3-3.9 5.3-3.9s-1-2.7.4-5.1c2.3-3.7 4.7-5.2 4.7-5.2s1.2 1.1 2.1 1.5c1 .4 1.8.5 1.8.5l1.4 2.8 4.8 5.6s1.7-3 5.5-6.2c1.6-1.3 3.8-3.2 5.4-4.3 2.2-1.5 4-2.3 4-2.3s-.7-.8-1.3-1.7c-.6-.9-1.1-1.8-1.1-1.8s.4.1 2.1-.1c1.7-.2 3-1 5-.2.7.3 1.1 1 1.5 1.5.7 1.2.8 2.5 2.6 4 1 .9 2.2 1.1 3.2 1.6 1.5.7 1.8 1.3 2.7 2.7 1 1.4 1.1 3.2 1.1 3.2s3.8 1.3 7.7 4.4c3.7 2.9 7.7 7.7 8.2 17.6.2 2.7.3 5.8.2 9.7-.1 4.2-.4 9.3-.5 13.5-.2 6-.3 12.3-.8 17.4-.4 4.5-1 8.2-2.2 11.3-.8 2.1-2.2 4-3.4 5.1-1 .9-1.9 1.1-2.8 1.3-1.1.3-2 .4-2 .4s.6 4.2.8 8c.2 3.9-.1 7.4-.1 7.4s-13.5 3.6-28.5 3.6-31.6-3.6-31.6-3.6-.1-3.9.1-8.8c.3-4.9 1.1-11.1 1.1-11.1l-1.5.2s-1 1.3-3.1 2.5c-1.3.7-3 1.2-5.6 1.8-3.3.8-7.8 1-11.4 1.3-3.7.3-4.1.1-6.8.5s-3.8 1.2-4.7 1c-.9-.3 1.4-2.3 1.4-2.3l21.5-26.5z" fill-rule="evenodd" clip-rule="evenodd" fill="#fa9700"/><path id="Fill-132_00000025417490765745222110000014682318084936891016_" class="st13" d="M-1143-2025.6c.1-.4.8.1 1.9 0 2 0 5.1-.6 7.2-2.4 1.6-1.4 2.6-4 3.1-5.9.2-.8.3-1.3.4-1.8.1-.7.1-1.2.3-1.3.2-.1 1.6.6 1.6.6l6.5 2.4-1.4 4.7s-2 4.1-5.1 6.5c-1 .7-2.1 1.5-3.1 2-2.1 1.2-4.1 2-4.4 1.8-1-.6-1.5-1.8-3.3-3.3-1.8-1.6-3.8-2.8-3.7-3.3"/><path id="Fill-134_00000076599970737355320410000011840127738597532842_" class="st13" d="M-1127-2052.5s2.6-.7 4.6-2.2c2-1.5 3.8-4.3 3.8-4.3s1.3 1.3 2.7 3.1c1.4 1.8 2.9 4.2 2.9 4.2l-7.9 5.7s-1.1-1.5-2.7-3.1c-1.5-1.7-3.4-3.4-3.4-3.4"/><path id="Fill-136_00000026882506095266465640000003148779644967944630_" d="m-1112.1-2005-.4 1.2c-.2.6-.1 1.8.5 2.4 1.1 1 1.9 1.2 2.7 1.6.8.4 2.1.8 2.1.8s1.8-2.5 2.7-3.5c.9-1 4-3.7 4.5-4.1 1.3-1 2.5-2.1 3.8-3 1.4-.9 4.2-2.3 4.2-2.3s-1-1.2-1.4-1.9c-1-1.4-1.7-3.1-2.1-4.7-.2-1-.5-2.8-.5-2.8s1.7-1 1.9-1.5c.3-.6.9-1.6 1-2.3.2-.9.3-2.3.1-3-.1-.7-.6-1.4-.9-1.8-.6-.8-1.7-.4-2.6-.7-.9-.3-1.8-.9-2.5-1.5-5-4.6-11.6-10-18.8-8.6-1.8.4-3.7 1.3-5.1 2.6-.6.5-1.5.6-1.7 1.5-.6 2.5-.8 3.8 0 7.1.7 3.4.8 5.6 1.3 7.8s1.3 6 3.5 9.4c1 1.6 1.9 3 3.6 3.9 1 .5 2.7 1 2.7 1l1.4 2.4z" fill-rule="evenodd" clip-rule="evenodd" fill="#e0b38f"/><path id="Fill-138_00000045613715966393654280000000714294243625891235_" d="M-1205-1982.8s0-.4.4-.7c.4-.3 1.2-.5 1.2-.5l14.5 6.6 1.1 1.4 13.3 34.1 22.2-3.4 15.9 3.3 9.5 6.8 4.7 3.5s.2.9 0 1.3c-.2.5-.8.6-.8.6l-44.4 6.9-.9.9-19.2-14-17.5-46.8z" fill-rule="evenodd" clip-rule="evenodd" fill="#b1b9c1"/><path id="Fill-140_00000106108560846127633490000014976081240073403017_" class="st4" d="M-1162.3-1920.7c-.3.4-2.7.7-3.2.7-1.7.2-7.2-.9-7.6-1-2.3-.3-5-1.2-7.1-1.9-1.2-.4-2.2-.7-3.3-1.3-.5-.3-1.2-.4-1.6-.8-1.1-1.2-1.1-5.8-1.1-5.8s-1.2-1.3-1.5-2.6c-.6-2.2.1-4 .2-6.2.1-1 .3-1.8.3-2.8 0-.4.1-1 .4-1.2.4-.4.9-.4 1.3 0 .3.3.5 1 .5 1.3 0 .2.1.9.1.9s.8.4 1 .6c.3.3.7 1.6.7 1.6s.8.9 1.2 1.9c.3.6.8 3.2.8 3.2s.7.1.8.2c.4.5 1.1 2.1 1.3 2.5.6 1.3.8 2.3 1.6 3.5.4.5 1.5 1.7 2 2.1.8.8 1.9 1.6 1.9 1.6s5.2 3.7 5.6 3.5c.3-.1.7-.6.7-.6l5.3-.8c0-.1 0 1-.3 1.4"/><path id="Fill-142_00000167366829515797512100000015602495994052101781_" class="st4" d="M-1114.6-1944.7s-4.4-.5-4.5-.5c-1-.2-3.3-.7-4.4-.8-1.5-.2-3.7-.9-5.4-1.6-1.2-.5-3.6-1.1-6.2-1.3-1.9-.2-8.3 0-10 .1-1.6.1-3.4.3-4.9.8-1.6.5-2.8 2.1-4 3.2-.7.7-1.8 1.3-2.2 2.3-.1.2-.2.6-.2.9 0 .2.6.5.6.5s-1.4 1.1-1.4 1.8c0 .6.7.4 1.2.5.1 0 .9-.1.9-.1s-.2.8.3 1c.5.3 2.1 0 3-.5 1.7-.9 3.3-1.9 5.1-2.6 1.2-.5 3.6-.2 4.9-.1.4 0 1.3.4 1.3.4s-2.3.6-2.7.7c-1 .2-2 .7-2.7 1.2-.6.4-1 .9-1.8 1.3-.4.2-1.7.9-2.1 1.2-.4.2-1.1.8-.7 1.4.6.9 2.6.4 3.4 0 .7-.3 1.1-.4 1.9-.7 1.6-.6 3.5-.8 5.2-.7 1.8.2 4.1.7 6 1.2 1.5.4 3.1.5 4.7.5 2.6 0 3.9-.2 6.5-.1 1.5.1 4.4.6 5.8 1.1l1.8.6s1.3-2.2 1.6-3.4c.2-1.2.4-2.7 0-4.5.2-.8-1-3.8-1-3.8"/><path id="Fill-144_00000171713950002218614530000003767707209422136483_" d="M-1124.5-2034s-1.5-.3-2.2-.8c-1.9-1.4-1.4-5.2-.2-6.9.4-.6.9-1 1.3-1.5.9-1.2 1.9-2.5 3.1-3.5.8-.6 1.4-1.6 2.1-2.2 2.1-1.8 4.5-4.1 7.2-4.8.9-.3 2.5-.2 3.5-.1 1.6.2 2.8 1.1 4.4 1.5 1.2.3 2 0 3.3.3.9.2 1.8.3 2.6.6.4.2 1.9 1.5 2.3 1.8.9.8 1.6 2.4 2.2 3.5.4.7.6 1.7.7 2.9.1 1.1.2 2.9.3 4.5.1 1.6 0 3-.1 4.2-.1 1.5-.9 4.1-.9 4.1s-.8-.3-1.3-.1c-.8.3-1.6.9-2.4 1.3-.7.3-2.2.5-3.3.1-1.4-.5-1.5-1.1-2.4-2.1-.3-.4-1.2-1.7-1.2-1.7s-2.6-.9-3.8-1.9c-1.1-.9-2.3-2.6-3.7-2.9-1-.3-2.3.5-3.3.7-1.2.3-2.6.5-3.9.7-1.1.2-2.5-.4-3.5.4-.8.4-.8 1.9-.8 1.9" fill-rule="evenodd" clip-rule="evenodd" fill="#ab8165"/><path id="Fill-146_00000098921359164267951460000008823294702625132165_" class="st13" d="M-1191-1977.2s1-1.7 1.3-3.9c.2-2.2-.4-4.8-.4-4.8l5.3.3s-.5-7.5.7-11.1c.5-1.5 1-2 1.8-2.5 1.1-.7 2.4-.8 2.4-.8s-.6 2.7-.6 5.2.3 4.6.3 4.6-.9 0-1.7.1c-.7.1-1 .4-1 .4s.3 2.1 1.1 3.2 2.2 1.1 2.2 1.1l-.3 7.5s-.4.1-1-.1-1.4-.7-1.4-.7l-3.3 5.7 4.3-.9 3.5 5.2s5.6-.1 9.1.3c3.4.4 4.6.9 4.6.9s0 3.2-.3 5.6c-.3 2.4-.9 4.3-.9 4.3s-1.7-.7-3.2-.9c-1.5-.2-2.7 0-2.7 0l-1.6 3s2.9.6 7.1.5c4.1 0 9.1-.8 9.1-.8s.4 1.8.5 3.6c0 1.8-.3 3.5-.3 3.5l.9.6s1.9-1.8 2.4-3.5-.4-3.4-.4-3.4 2.2-1.6 4.2-2.9c2-1.3 3.7-2.3 3.7-2.3s1 1.3.7 3.5c-.2 1-.7 2.4-1.5 3.6-1.5 2.3-4 4.6-6.4 6.4-1.7 1.3-3.4 2.2-4.6 2.9-.8.5-2.6 1.4-3.2 1.6-4.5 1.9-7.3-1.9-7.3-1.9l1.3-.7-6-.8s.4 3.3 3 5.4c2.6 2.1 3.6 1.9 5.7 2.5 2.2.6 4.3-.6 3.5.5-.7 1.1-4.8 4-4.8 4l-2.2 2.7-2.8-.9-17.7-44.8-3.1-1z"/><path id="Fill-148_00000119106916824140596990000017245837463565125815_" class="st17" d="M-1171.5-1997.9c1-.2 2.7.4 2.7.4l6.1 1.9-2.2 8.3s6.1-3 9.3-3.1c3.2-.1 3.6 2.6 3.6 2.6l-4.5 1.5-3.6 2.1-1.5-2.4s-1.4.8-2 2c-.6 1.2-.5 2.9-.5 2.9l-3.7 1.5-3.2 6.2s-3.6-2-5.6-3.5-2.4-2.5-2.4-2.5l4.7-9.5"/><path id="Fill-150_00000173131968694236864180000002148141455747630255_" class="st17" d="M-1138.2-2009.9s.1-.2.6.1c1 .5 3.1 2.5 3.4 3.7.5 1.8-.1 5.7-1.3 11.4-.7 3.5-4.4 9.6-5.1 10.4-.6.8-1.7 1.8-2.6 2-1.6.5-2.9.1-2.9.1s.1-.9.7-3.3 1.6-6.3 1.6-6.3 2 .3 3.5-.8c1.5-1.2 2.2-3.6 2.2-3.6s-.6-.7-1.4-1c-.8-.4-1.8-.6-1.8-.6s1.5-2.9 2.3-6c.8-3.1.8-6.1.8-6.1"/><path id="Fill-152_00000178192516544389931320000016909928117643038655_" class="st17" d="M-1078.2-2042c.5-1.5.7-2.1 1.6-4 1.1-2.5 2.9-5.5 4.3-6.9 1-1.1 2.2-1.8 3-2 1.4-.3 2.3.4 2.3.4l-3.1 7.2s-1.4-.6-2.6 0c-1.2.6-2.1 1.9-2.1 2.4.1.6 1.9 1.9 1.9 1.9s-1.6 2.5-2.6 4.8-1.4 4.3-1.4 4.3-1.9-1.2-2.2-3.8c0-1.1.4-2.8.9-4.3"/><path id="Fill-154_00000086652210613664405740000013000647279088731308_" class="st17" d="M-1114.1-1993.9s.8 2.1 2.3 2.9c1.5.8 3.7.5 3.7.5s.2-.5.2-1.5-.3-2.4-.3-2.4 2 .2 4.8-.4c2.8-.6 6.5-2.2 6.5-2.2s.1 1.8-.4 3.4c-.2.7-.5 1.7-1.7 2.5-2 1.4-5.5 2.7-7.7 3.2-3.6.8-7.1 1.3-11.6.5-1.2-.2-2.4-.8-3-1.5-1.3-1.3-1.6-2.8-1.6-2.8s.6-.4 2.9-.9c2.1-.5 5.9-1.3 5.9-1.3"/><path id="Fill-156_00000086656947849096747530000013152820276553437827_" class="st18" d="M-1116.2-1932c-.1 0-.1 0 0 0-4.5-1.7-7.5-1.5-10.1-1.3-1.1.1-2.2.1-3.3 0-2-.2-3.7-.6-5.2-1-1.3-.4-2.4-.7-3.4-.7-2.3-.1-3.7.1-5.1.7l-.3.1c-1.7.7-4.2 1.8-5.1.5-.2-.3-.3-.6-.2-.8.1-.6.7-1 1.6-1.6.7-.4 1.5-1 2.3-1.7 1.4-1.4 3.1-1.9 5-2.3.9-.2 1.7-.4 2.7-.8.1 0 .3 0 .3.2 0 .1 0 .3-.2.4-1 .3-1.9.6-2.7.8-1.8.5-3.4.9-4.7 2.2-.8.8-1.7 1.4-2.4 1.8-.7.5-1.3.8-1.4 1.2 0 0 0 .2.1.4.7 1 3.2-.1 4.5-.6l.3-.1c1.5-.6 3-.8 5.3-.7 1.1.1 2.2.4 3.5.7 1.5.4 3.2.9 5.1 1 1.1.1 2.1 0 3.2 0 2.7-.2 5.7-.3 10.2 1.3.1 0 .2.2.2.4 0-.2-.1-.1-.2-.1"/><path id="Fill-158_00000096035707153700389100000010041808042672876677_" class="st18" d="M-1091.2-2012c-.1 0-.1 0-.2-.1-3.3-4.3-3.7-8.5-3.6-8.7 0-.1.1-.2.2-.2s.2.1.3.2v.1c0 .2.3 4.1 3.5 8.2.1.1.1.3 0 .4-.1.1-.2.1-.2.1"/><path id="Fill-160_00000066503235856076891110000005477766762469189259_" class="st18" d="M-1076.1-1923c-5.6 0-13-.9-19.2-2.4-4.6-1.1-8.9-2.7-11.7-3.7-1.6-.6-2.8-1-3.3-1.1-3.5-.7-4.8-1.5-4.7-3 0-.1.1-.2.3-.2.1 0 .2.1.2.3-.1.8.4 1.7 4.3 2.4.6.1 1.8.6 3.4 1.2 2.8 1 7 2.6 11.6 3.7 8.9 2.1 20.4 3 25.1 1.8 8.3-2 8.6-15.8 9.1-36.6v-.5c0-.6.1-1.6.1-2.8.4-6.9 1.4-22.9-2.7-29.4-4.3-6.8-9.5-9-15.1-11.4l-4.2-1.8c-.1-.1-.2-.2-.1-.3.1-.1.2-.2.3-.1 1.4.7 2.8 1.3 4.2 1.8 5.6 2.4 11 4.7 15.3 11.6 4.1 6.6 3.2 22.8 2.8 29.7-.1 1.2-.1 2.2-.1 2.8v.5c-.5 21.1-.8 35-9.4 37.1-1.6.2-3.7.4-6.2.4"/><path id="Fill-162_00000106835044395176223540000001842282823484939448_" class="st18" d="M-1113.3-1931c-.9-.4-1.7-.8-2.5-1.2-.1-.1-.2-.3-.2-.5s.2-.4.3-.3c.8.4 1.6.7 2.4 1.2.1.1.2.3.2.5s-.1.3-.2.3"/><path id="Fill-164_00000124121796947517086640000012316895121273940141_" class="st18" d="M-1151.5-1936c-.2 0-.5 0-.7-.1-.5-.2-.7-.4-.8-.8-.1-.8.9-1.7 2-2.7.3-.3.6-.5.8-.8 1.3-1.3 3.3-2.8 4.5-3.5 1.6-1 3.5-1 5.3-1h1.2c.1 0 .2.1.2.3 0 .2-.1.3-.2.3h-1.2c-1.7 0-3.5 0-5.1 1-1.2.7-3.2 2.3-4.4 3.5-.2.3-.5.5-.9.8-.7.7-1.9 1.7-1.8 2.2 0 .2.3.3.5.4 1.2.4 3.3-1 5.1-2.2.7-.5 1.4-.9 1.9-1.2 1.6-.8 5.5-.4 6.9.1.1 0 .2.2.2.4 0 .1-.2.2-.3.2-1.5-.5-5.2-.8-6.6-.1-.5.3-1.2.7-1.9 1.2-1.6.8-3.4 2-4.7 2"/><path id="Fill-166_00000179639587724077671170000004553765304836528537_" class="st18" d="M-1154.8-1938c-.6 0-1-.2-1.1-.6-.1-.3 0-.8.3-1.2.6-.8 1.3-1.5 1.9-2.1.4-.5.9-.9 1.2-1.3 1-1.2 3.1-3.3 4.8-3.8 1.5-.4 4.3-1.1 6.4-.9.1 0 .2.1.2.3 0 .1-.1.3-.3.2-2-.1-4.8.5-6.3.9-1.6.4-3.7 2.6-4.6 3.6-.4.4-.8.9-1.3 1.3-.6.6-1.3 1.3-1.9 2.1-.2.3-.3.5-.3.7.1.1.3.2.7.3.3 0 .9-.1 1.2-.3.1 0 .3 0 .3.2 0 .1 0 .3-.1.3-.1.1-.7.3-1.1.3"/><path id="Fill-168_00000171702726295418674440000014968598251634805651_" class="st18" d="M-1078.2-1942h-.1c-5.9-3.6-7.2-4.2-18.8-2.6-4.4.6-10.6.1-13.6-.3-2.8-.4-3.8-.3-4.8.4-.1.1-.3.1-.3-.1-.1-.1 0-.3.1-.4 1.1-.8 2.2-.9 5.1-.5 3 .4 9.2.9 13.5.3 11.8-1.6 13.3-1 19.1 2.6.1.1.2.2.1.4-.2.2-.3.2-.3.2"/><path id="Fill-170_00000141443222203693762610000017561179331139071367_" class="st18" d="M-1155.3-1940c-.5-.2-.7-.4-.7-.8-.1-.9.9-2 2.2-3.3l.4-.4c.3-.3.5-.5.7-.8 1.3-1.5 2.5-2.9 6.9-3.2.6 0 1.2-.1 1.9-.2 2.2-.3 4.6-.6 9.1.1 2.8.4 4.2 1 5.9 1.6 1.5.5 3.1 1.1 5.9 1.8.6.1 5 1 6.7 1.1.1 0 .2.1.2.3 0 .1-.1.3-.3.3-1.8-.1-6.2-1-6.8-1.1-2.8-.6-4.5-1.2-6-1.8-1.7-.6-3.1-1.1-5.8-1.6-4.4-.7-6.8-.4-8.9-.1-.7.1-1.3.2-1.9.2-4.2.3-5.3 1.6-6.6 3-.2.3-.5.5-.7.8l-.4.4c-1 1.1-2.2 2.3-2.1 2.8 0 .1 0 .2.3.4.1.1.2.2.1.4.1 0 0 .1-.1.1"/><path id="Fill-172_00000118375613480094174470000016243478050909497472_" class="st18" d="M-1136.8-1977c-.2 0-.2-.1-.2-.3.1-.6.2-1.5.3-2.1 0-.3.1-.7.1-1 .3-2.6.7-5.5 1.8-7.8 1.9-4.3 4.9-6.7 8-9.2l1.8-1.5c.6-.5 1.5-1.2 2.6-2 .1-.1.2 0 .3.1.1.1 0 .3-.1.4-1.1.8-2 1.5-2.6 2l-1.8 1.5c-3.2 2.6-6.1 4.8-7.9 9-1 2.3-1.4 5.1-1.7 7.7 0 .4-.1.7-.1 1.1-.1.6-.2 1.5-.3 2.1 0-.1-.1 0-.2 0"/><path id="Fill-174_00000173881432663310451960000012176840616709212315_" class="st18" d="M-1138.7-1967c-.2 0-.3-.2-.3-.3.2-1.2.4-2.3.7-3.3.3-1.5.6-2.9.7-4.1 0-.1.2-.3.3-.2.2 0 .3.1.3.3-.1 1.3-.4 2.6-.7 4.2-.2 1-.5 2.1-.7 3.3 0 0-.2.1-.3.1"/><path id="Fill-176_00000065034512011306292410000006107321317324940438_" class="st18" d="M-1139.8-1949c-.1 0-.2-.1-.2-.3.1-2 .5-3.5.9-5 .3-1.1.6-2.2.7-3.5 0-.2.1-.3.2-.3s.2.2.2.3c-.1 1.3-.4 2.4-.7 3.6-.4 1.4-.8 2.9-.8 4.8-.1.3-.2.4-.3.4"/><path id="Fill-178_00000162345335256884675870000003971859773036968104_" class="st18" d="M-1173.2-1925c-.1 0-.1 0-.2-.1-.5-.5-1-1-1.5-1.6-1-.9-2-1.9-2.7-2.9-.5-.8-1-2.2-1.5-3.5-.5-1.5-1.3-3.5-1.8-3.4-.4 0-.5.1-.5.2-.2.3 0 1.3.3 2.9l.1.6c.1.4.1.9.2 1.3.2 1.3.4 2.9.9 3.9.2.4.6.8 1 1.1.2.2.5.4.6.6.1.1.1.3 0 .4-.1.1-.3.1-.3 0l-.6-.6c-.4-.4-.9-.8-1.1-1.3-.6-1.1-.8-2.7-1-4.1-.1-.5-.1-.9-.2-1.3l-.1-.6c-.4-1.9-.5-2.8-.2-3.3.2-.3.6-.4.9-.5.9-.1 1.5 1.6 2.3 3.7.5 1.3.9 2.6 1.5 3.4.7 1 1.6 1.9 2.6 2.8.6.5 1.1 1.1 1.6 1.6.1.1.1.3 0 .4-.2.3-.3.3-.3.3"/><path id="Fill-180_00000121254508317853252020000016725355973062502564_" class="st18" d="M-1183.4-1927c-.1 0-.2-.1-.2-.2-.6-2.2-.6-3.8-.7-5.6 0-.6 0-1.3-.1-2.1-.1-.9-.2-1.9-.3-2.7-.3-1.8-.5-3.2.4-3.4.7-.2 1.3-.2 2.1 1.4.6 1.2.8 2 1 3 .1.2.1.5.2.8 0 .1 0 .3-.2.3-.1 0-.3 0-.3-.2-.1-.3-.1-.5-.2-.8-.2-1-.4-1.8-1-2.9-.7-1.4-1.1-1.3-1.6-1.2-.5.1-.3 1.4 0 2.8.1.8.3 1.8.3 2.7 0 .7.1 1.4.1 2.1.1 1.8.1 3.3.6 5.5.1.3.1.5-.1.5"/><path id="Fill-182_00000075866405930069514620000012775674333535853502_" class="st18" d="M-1166.4-1920c-1.1 0-2.1-.2-3.4-.4-.4-.1-.9-.2-1.4-.3-4-.7-7.6-1.6-9.3-2.3l-1.5-.6c-.8-.3-1.6-.6-2.5-1.1-1.5-.7-1.8-2.2-1.9-3.5-.1-1.1-.2-2.1-.2-3.1s-.1-2-.2-3.1c-.2-1.5.1-3.3.3-5.1.1-.7.2-1.4.2-2.1.1-1.4 1-1.5 1.2-1.5.9 0 1.9 1.1 1.9 2.5 0 .1-.1.3-.2.3-.2 0-.3-.1-.3-.3 0-1.1-.8-1.9-1.4-2-.5 0-.7.6-.7 1-.1.7-.2 1.4-.2 2.1-.2 1.7-.5 3.5-.3 4.9.1 1.1.2 2.1.2 3.1s.1 2 .2 3.1c.1 1.2.4 2.5 1.6 3.1.9.4 1.7.7 2.5 1.1l1.5.6c1.7.7 5.2 1.6 9.2 2.3.5.1 1 .2 1.4.3 2.8.5 4 .7 7.4-.3.1 0 .3 0 .3.2s0 .3-.2.3c-1.8.6-3 .8-4.2.8"/><path id="Fill-184_00000001651877502033981380000002253609637901429939_" class="st18" d="M-1162-1920c-.3 0-.6-.1-.9-.3-.1-.1-.1-.2 0-.3.1-.1.2-.1.3 0 .4.3 1 .2 2-.1.9-.2 2.1-.5 3.6-.6 3.7-.2 14.1-.8 17.7-1.5 6.8-1.3 8.8-4 8.8-4 .1-.1.2-.1.3-.1.1.1.1.2.1.3-.1.1-2.1 2.9-9.1 4.2-3.6.7-14.1 1.3-17.8 1.5-1.5.1-2.6.4-3.5.6-.5.2-1 .3-1.5.3"/><path id="Fill-186_00000114033284567807339800000014514278963617001871_" class="st18" d="M-1186.3-1931c-.1 0-.1 0-.2-.1-1.9-3.4-1.6-5.4-1.3-7.5.1-.4.1-.8.2-1.3.1-.6.1-1.2.1-1.7.1-1.8.2-3.2 1.1-3.4.2-.1.5 0 .6.2.6.6.7 2.2.7 2.4 0 .1-.1.3-.2.3s-.2-.1-.2-.2c0-.4-.2-1.6-.5-2-.1-.1-.2-.1-.3-.1-.6.1-.7 1.1-.8 2.9 0 .5-.1 1.1-.1 1.7 0 .5-.1.9-.2 1.3-.3 2.1-.6 4 1.3 7.2.1.1 0 .3-.1.4 0-.1 0-.1-.1-.1"/><path id="Fill-188_00000008133827105235853040000011382769864202777736_" class="st18" d="M-1071.7-1907s-.1 0 0 0c-.3 0-.4-.1-.4-.3.7-4.3.2-7.6-.4-10.9-.2-1.2-.4-2.3-.5-3.6 0-.1.2-.3.4-.3s.4.1.4.2c.1 1.2.3 2.4.5 3.6.5 3.3 1.1 6.7.4 11-.1.2-.2.3-.4.3"/><path id="Fill-190_00000147191268610970588760000012155364983204185774_" class="st18" d="M-1132.7-1907c-.2 0-.3-.1-.3-.3-.2-7.1.5-13 1-16.9.2-1.5.3-2.7.4-3.6 0-.2.1-.3.3-.3.2 0 .3.1.3.3 0 .9-.2 2.1-.4 3.6-.5 3.9-1.2 9.7-1 16.8 0 .3-.1.4-.3.4z"/><path id="Fill-192_00000075858773397060873620000005777712284330370996_" class="st18" d="M-1080.6-1966c-.1 0-.1 0 0 0-.2 0-.4-.1-.4-.3.1-1.2.2-2.3.3-3.3.2-2.9.4-5 1-6.2.1-.1.3-.2.5-.2.2.1.3.2.2.4-.6 1.1-.7 3.3-1 6.1-.1 1-.2 2.1-.3 3.3 0 .1-.2.2-.3.2"/><path id="Fill-194_00000113334279803126977780000006051267523303111827_" class="st18" d="M-1083.7-1947c-.2 0-.3-.1-.3-.3-.1-2.4.3-3.8.7-5.4.2-.9.5-1.8.7-3.1 0-.1.2-.3.4-.2.2 0 .3.2.3.3-.2 1.3-.4 2.2-.7 3.1-.4 1.6-.7 3-.7 5.3 0 .2-.2.3-.4.3z"/><path id="Fill-196_00000140723068812676952900000010982410863493582498_" class="st18" d="M-1077.8-1980c-.2 0-.3-.2-.2-.3 1.7-7 5.3-10.2 8.6-12.6.1-.1.2 0 .3.1.1.1 0 .3-.1.4-3.4 2.5-6.8 5.5-8.4 12.3 0 0-.1.1-.2.1"/><path id="Fill-198_00000101068188893374481700000000846323677475535765_" class="st18" d="M-1132.5-1980c-.3 0-.5-.1-.5-.2v-1.6c0-.1.2-.2.5-.2s.5.1.5.2v1.6c0 .1-.2.2-.5.2z"/><path id="Fill-200_00000070802516319964723780000002131693698868634802_" class="st18" d="M-1132.2-1969c-.1 0-.2-.1-.2-.2-.2-1.4-.4-3.1-.5-4.6 0-.1.1-.2.2-.2s.2.1.3.2c.1 1.5.4 3.2.5 4.6-.1.1-.2.2-.3.2"/><path id="Fill-202_00000163043839116683662510000017165090773686013065_" class="st18" d="M-1131.2-1956c-.1 0-.2-.1-.2-.2-.1-1.2-.3-2.6-.5-4.5 0-.1.1-.3.2-.3s.3.1.3.2c.2 1.9.4 3.2.5 4.5-.1.2-.2.3-.3.3"/><path id="Fill-204_00000058552927323553256220000006470378194205490622_" class="st18" d="M-1131.6-1948c-.3 0-.4-.1-.4-.3.2-1.3.3-2.8.1-4.5 0-.1.2-.2.4-.2s.4.1.4.2c.2 1.8.1 3.3-.1 4.6 0 .1-.2.2-.4.2"/><path id="Fill-206_00000123438266204579803900000003307793076541248171_" class="st18" d="M-1168.4-1922c-.2 0-.6-.1-1.3-.7l-4.5-3.1c-.1-.1-.1-.2-.1-.4.1-.1.2-.2.3-.1l4.5 3.1c.3.2.6.4.8.5 0-.2-.2-.5-.3-.8l-20.3-51s-.3-.6-.6-1c-.4-.4-.8-.6-.8-.6l-14.1-6.3c-.3-.2-.8-.3-.9-.2 0 .1 0 .4.2.7l17.3 44.8c.1.1 0 .3-.1.3-.1.1-.3 0-.3-.1l-.2-.6-17.1-44.2c-.1-.3-.4-1 0-1.3.3-.3 1.1 0 1.4.2l14.1 6.3s.6.3 1 .7c.4.5.7 1.1.7 1.1l20.3 51c.6 1.2.3 1.4.2 1.5 0 .2-.1.2-.2.2"/><path id="Fill-208_00000129885708938172096100000016157459858802988442_" class="st18" d="M-1171.8-1941c-.1 0-.2-.1-.2-.3 0-.2.1-.4.2-.5l4.5-1.2c.1 0 .2.1.3.3 0 .2-.1.4-.2.5l-4.6 1.2c.1 0 0 0 0 0"/><path id="Fill-210_00000065033530510742793740000015097271945516696239_" class="st18" d="M-1158.7-1943c-.1 0-.3-.1-.3-.3 0-.2.1-.4.2-.4l6.4-1.3c.1 0 .3.1.3.3 0 .2-.1.4-.2.4l-6.4 1.3"/><path id="Fill-212_00000180356992410241916220000010323930801540649856_" class="st18" d="M-1167.8-1921c-.1 0-.2-.1-.2-.2 0-.2.1-.3.2-.3l2-.3 42.7-7.2s.3 0 .4-.3c.2-.3.2-.7.1-1.3 0-.2.1-.3.2-.3s.3.1.3.2c.1.8.1 1.4-.2 1.8-.3.4-.7.5-.8.5l-44.7 7.4c.1 0 .1 0 0 0"/><path id="Fill-214_00000077320505143662892820000003452179168252750724_" class="st18" d="M-1168-1922c-.1 0-.2-.1-.2-.3 0-.1.1-.3.2-.3 0 0 .4 0 .5-.3.1-.2-.1-.9-.3-1.3l-20-51.4s-.3-.6-.6-1-.8-.6-.8-.6l-13.9-6.4c-.5-.2-1 0-1.5.4-.1.1-.3.1-.3 0-.1-.1-.1-.3 0-.4.7-.6 1.3-.8 2-.5l13.9 6.4s.6.3 1 .7c.4.5.7 1.1.7 1.1l20 51.4c.1.2.5 1.1.3 1.7-.2.7-.7.8-1 .8"/><path id="Fill-216_00000068658592860538531450000010079750955378217877_" class="st18" d="M-1167.8-1923c-.1 0-.2-.1-.2-.2s.1-.3.2-.3l1.2-.2 43.3-6.8c.2 0 .7-.1.8-.4.1-.2-.1-.4-.1-.4l-4.4-3.2c-.1-.1-.1-.2-.1-.4.1-.1.2-.2.3-.1l4.4 3.2c.2.2.6.6.3 1.1-.3.6-1.1.6-1.2.6l-44.5 7.1c.1 0 .1 0 0 0"/><path id="Fill-218_00000101086129544615028640000013326201595577134728_" class="st18" d="M-1124.3-2030c-.1 0-.3-.1-.3-.2-.4-1.4-.6-3.4-.1-4.6 0-.1.2-.2.4-.2s.3.2.2.3c-.5 1.2-.3 3.1.1 4.4 0 .2-.1.3-.3.3"/><path id="Fill-220_00000052083500571838706720000004102192328892799385_" class="st18" d="M-1113.7-2008c-.5 0-1 0-1.4-.2-5.1-1.2-8.6-10.2-8.9-13.6 0-.1.1-.3.2-.3s.3.1.3.2c.3 3.3 3.7 12 8.5 13.2 4.7 1.1 10.2-3.8 11.5-5.9.1-.1.2-.1.3-.1.1.1.1.2.1.3-1.5 2.5-6.3 6.4-10.6 6.4"/><path id="Fill-222_00000146498344228894635460000005794316175917363634_" class="st18" d="M-1118.2-2020s-.1 0 0 0c-.8-.2-1.3-.5-1.6-.9-.1-.2-.2-.5-.1-.7l.3-.6c.4-.6.8-1.4.1-2.5-.1-.1 0-.2.1-.3.1-.1.2 0 .3.1.8 1.3.3 2.2-.1 2.9l-.3.6c0 .1 0 .2.1.4.2.3.7.6 1.3.7.1 0 .2.1.2.2-.1 0-.2.1-.3.1"/><path id="Fill-224_00000155113032549022339870000007667314255913458355_" class="st18" d="M-1124.8-2028s-.1 0-.1-.1c-.1-.1-.1-.4 0-.6.8-1.9 2-1.6 2.9-.4.1.1.1.4.1.6-.1.2-.2.2-.3.1-.7-.9-1.7-1.2-2.3.3-.2 0-.2.1-.3.1"/><path id="Fill-226_00000174563749594737666930000004639534728083935388_" class="st18" d="M-1115.7-2029c-.1 0-.1 0-.1-.1-.1-.1-.1-.3-.1-.5 1.1-2.2 3.5-1.6 4.8-.3.1.1.1.3.1.5-.1.2-.2.2-.4.1-1.1-1.1-3.3-1.6-4.1.1l-.2.2"/><path id="Fill-228_00000055665194181390554810000018185317510671091123_" class="st18" d="M-1097.2-2021c-.1 0-.2-.1-.2-.2s.1-.3.2-.3c2.1-.4 3-3.7 2.7-6.5-.1-.6-.3-2.1-1.4-2.3-.8-.2-1.3.4-1.7 1-.1.1-.2.1-.3 0-.1-.1-.1-.3 0-.4.5-.7 1.2-1.4 2.1-1.1 1 .2 1.6 1.3 1.8 2.8.2 3-.8 6.5-3.2 7 .1 0 0 0 0 0"/><path id="Fill-230_00000085963104819967886580000000990635257223434172_" class="st18" d="M-1097.6-2027c-.2 0-.4-.1-.4-.2.1-.9 1.3-1.7 1.4-1.7.2-.1.4-.1.5 0 .1.1.1.2 0 .3 0 0-1.1.6-1.1 1.4-.1.1-.2.2-.4.2"/><path id="Fill-232_00000053525648678612583670000012246359456412607135_" class="st18" d="M-1114.9-2023.8c-.2-.5.1-1.1.6-1.2.5-.1 1.1.2 1.3.8.2.5-.1 1.1-.6 1.2s-1.1-.3-1.3-.8"/><path id="Fill-234_00000167378529821972545810000002654047279770517177_" class="st18" d="M-1104.6-2033c-2 0-4.1-.9-5.2-1.8-.3-.2-.6-.5-.8-.7-1-.9-2-1.8-4.2-2.1-.1 0-.2-.1-.2-.2s.2-.2.3-.2c2.4.3 3.5 1.3 4.5 2.2.3.2.5.5.8.7 1.2 1 4 2.1 6.1 1.5.1 0 .3 0 .3.1s0 .2-.2.3c-.4.1-.9.2-1.4.2"/><path id="Fill-236_00000124841095972398007770000006620854239699141763_" class="st18" d="M-1101.4-2029c-.9 0-1.9-.6-2.5-1.5-.1-.1-.1-.3.1-.3.1-.1.3-.1.3.1.6.9 1.4 1.4 2.3 1.3.8-.1 1.4-.6 1.8-1.4.1-.1.2-.2.3-.1.1.1.2.2.1.3-.5 1-1.3 1.6-2.2 1.6h-.2"/><path id="Fill-238_00000103234158248502398090000015482415970486393774_" class="st18" d="M-1117.7-2037c-1.6 0-2.7-.7-3.3-1.6-.1-.1-.1-.3.1-.4.1-.1.3-.1.4.1.6.9 2.1 1.7 4.2 1.2.1 0 .3.1.3.2s-.1.3-.2.3c-.5.1-1 .2-1.5.2"/><path id="Fill-240_00000150103798097177861200000008178586321363614626_" class="st18" d="M-1121.8-2037c-1.2 0-2.7-.4-3.6-1.1-.5-.5-.7-1-.6-1.7 0-.1.1-.2.3-.2.1 0 .2.1.2.3 0 .5.1.9.5 1.3.9.8 2.7 1.1 3.7 1 .1 0 .3.1.3.2s-.1.2-.2.3c-.2-.1-.4-.1-.6-.1"/><path id="Fill-242_00000117672472530806738650000012245735180938869385_" class="st18" d="M-1125.2-2034c-1.7-.3-2.3-1.2-2.6-1.9-.4-1.1-.1-2.3.4-3 .1-.1.2-.1.3 0 .1.1.1.2 0 .3-.4.6-.7 1.6-.4 2.6.2.6.8 1.4 2.3 1.7.1 0 .2.1.2.2 0 0-.1.1-.2.1"/><path id="Fill-244_00000032607646746934220590000013576639329273738916_" class="st18" d="M-1128.7-2042c-.1 0-.2-.1-.3-.2 0-.1 0-.3.2-.3 1.4-.4 2-.7 3-2.1 1.2-1.6 3-3.6 5.5-4.4.1 0 .3 0 .3.2 0 .1 0 .3-.2.3-2.3.7-4 2.6-5.2 4.2-1.1 1.5-1.7 1.9-3.3 2.3"/><path id="Fill-246_00000136372881739486421050000013274431262150212239_" class="st18" d="M-1120.8-2050c-.1 0-.2-.1-.2-.2s0-.3.2-.3c1.1-.3 1.9-1.1 2.8-1.8.8-.7 1.7-1.5 2.8-2 2.4-1.1 6.8-1 9.1.7.1.1.1.2.1.3-.1.1-.2.1-.3.1-2.2-1.6-6.4-1.7-8.6-.7-1.1.5-1.9 1.2-2.7 1.9-1.1.8-1.9 1.6-3.2 2 .1 0 .1 0 0 0"/><path id="Fill-248_00000000209298539600931280000013813027176160158395_" class="st18" d="M-1094.2-2043c-.1 0-.2-.1-.2-.2 0-2.1-1.2-5.4-3.4-7.4-1.4-1.4-3.1-2-4.9-1.8-.1 0-.2-.1-.3-.2 0-.1.1-.3.2-.3 1.9-.2 3.7.4 5.2 1.9 2.2 2.1 3.5 5.6 3.5 7.8.1.1 0 .2-.1.2z"/><path id="Fill-250_00000057833765342461803330000002409277646442578321_" class="st18" d="M-1095.7-2030h-.1c-.2-.1-.3-.2-.2-.4 1-2 1.6-6.1 1.1-9.3 0-.2.1-.3.3-.3.2 0 .4.1.4.2.6 3.3-.1 7.5-1.1 9.6-.1.1-.2.2-.4.2"/><path id="Fill-252_00000128469033050376833730000017193540291109143223_" class="st2" d="M-1113-2018s-.1 3.7-3.4 4c-3.3.2-4.6-3.2-4.6-3.2s1.8.1 3.8-.1c2-.2 4.2-.7 4.2-.7"/><path id="Fill-254_00000075875530433627350100000001348747572953377682_" class="st18" d="M-1120.4-2016.6c.4.9 1.6 3.3 3.9 3.1 2.4-.2 2.8-2.9 2.9-3.9-.7.2-2.2.5-3.6.6-1.3.2-2.5.2-3.2.2m3.6 3.6c-3 0-4.2-3.7-4.2-3.8v-.2c.1-.1.1-.1.2-.1 0 0 1.7.1 3.5-.1s3.8-.7 3.9-.7h.2c.1 0 .1.1.1.2 0 0-.1 4.4-3.4 4.7h-.3"/><path id="Fill-256_00000036934088293486552060000001372898096787682946_" class="st18" d="M-1122.9-2022.8c-.2-.5.1-1.1.6-1.2.5-.1 1.1.2 1.3.8.2.5-.1 1.1-.6 1.2-.6.1-1.2-.3-1.3-.8"/><path id="Fill-258_00000106840165383130032980000004476465643363193484_" class="st18" d="M-1112.2-2003c-.1 0-.2-.1-.2-.1-.4-1.3-1.1-2.7-1.6-3.5-.1-.1 0-.2 0-.3.1-.1.2 0 .3.1.5.8 1.2 2.2 1.6 3.6.1 0 .1.2-.1.2"/><path id="Fill-260_00000124881629052678246270000015954996522860326591_" class="st18" d="M-1156.2-1939c-.1 0-.1 0-.2-.1l-2.3-2.4-12.2 2.1-.1-.6 12.3-2.1c.1 0 .1 0 .2.1l2.4 2.4c.1.1.1.3 0 .4 0 .2-.1.2-.1.2"/><path id="Fill-262_00000110444914593170355000000009147976447525686919_" class="st18" d="M-1154.3-1938c-.1 0-.1 0-.2-.1l-.4-.4c-.1-.1-.1-.3 0-.4.1-.1.3-.1.4 0l.4.4c.1.1.1.3 0 .4 0 .1-.1.1-.2.1"/><path id="Fill-264_00000140003154990346820100000014258296027117781686_" class="st18" d="M-1168.8-1925c-.1 0-.2-.1-.2-.2s.1-.3.2-.3l25-3.7-9.1-8.3c-.1-.1-.1-.2 0-.4.1-.1.2-.1.3 0l.2.2 9.3 8.5c.1.1.1.2.1.3 0 .1-.1.2-.2.2l-25.6 3.7c.1 0 .1 0 0 0"/><path id="Fill-266_00000106846178866241682140000014693392070002765703_" class="st18" d="M-1143.8-1934c-.1 0-.1 0-.1-.1l-1-.9c-.1-.1-.1-.3 0-.4.1-.1.2-.1.3 0l.9.8 10.6-1.4.1.3v.3l-.7.1-10.1 1.3"/><path id="Fill-268_00000022520289048055910530000010256345365756565644_" class="st18" d="M-1148.2-1936s-.1 0-.1-.1l-1.6-1.5c-.1-.1-.1-.2 0-.3.1-.1.2-.1.3 0l1.6 1.5c.1.1.1.2 0 .3-.1.1-.1.1-.2.1"/><path id="Fill-270_00000144313143398948489010000012797145914613190562_" class="st18" d="M-1135.3-2020h-.2c-.3-.1-.5-.4-.9-.9-.5-.6-1.1-1.5-2.2-2.4-3.4-2.5-3.4-2.9-3.4-3.1 0-.1 0-.2.1-.2.3-.3.6-.3.9-.2.5.1 1.6.4 4.8-.7 4.1-1.4 5-5.4 5.4-7.6.1-.3.1-.5.2-.7 0-.1.2-.2.3-.2.1 0 .2.2.2.3 0 .2-.1.4-.2.7-.5 2.3-1.3 6.5-5.7 8-3.3 1.1-4.5.8-5.1.7-.2 0-.3-.1-.3 0 .2.3 1 1.1 3.2 2.7 1.2.9 1.9 1.8 2.3 2.5.3.4.5.7.6.7.7.2 6.5-2.7 9-6 .1-.1.2-.1.3 0 .1.1.1.2 0 .3-2.4 3-7.9 6.1-9.3 6.1"/><path id="Fill-272_00000181069347109860162510000000512061286429336964_" class="st18" d="M-1186.8-1973s-.1 0-.1-.1c-.1-.1-.1-.2 0-.4.8-1.2 2-3 2.9-5 .2-.5.4-1 .6-1.4.1-.1.2-.2.3-.1.1.1.2.2.1.3-.2.5-.4.9-.6 1.4-.9 2-2.1 3.9-2.9 5.1-.1.2-.2.2-.3.2"/><path id="Fill-274_00000052072751793613862220000018295348015592729993_" class="st18" d="M-1191.7-1977h-.1c-.1-.1-.2-.2-.1-.4l.3-.6c1.2-3.1.7-6.4.5-7.8-.1-.7-.1-.8 0-1 .1-.1.1-.1.2-.1.2 0 3.1.2 5.7.4.1 0 .2.2.2.3 0 .2-.1.3-.3.3-2.2-.2-4.6-.4-5.4-.4 0 .1 0 .3.1.4.2 1.5.7 4.9-.6 8.2-.1.2-.2.5-.3.7-.1-.1-.2 0-.2 0"/><path id="Fill-276_00000114760315624844948330000002867877687486501514_" class="st13" d="M-1073.4-1966.5c-4.7 2.6-19.2-.5-19.8-.5-.3 0-2.2 10.7-1.7 11 .1 0 6.7 1.1 12.4 1 6.5-.2 10.3-1.2 10.5-1.4.3-.5-.9-10.4-1.4-10.1"/><path id="Fill-278_00000139264267416042559670000000209817524570247614_" class="st18" d="M-1094.5-1957.5c.9.2 6.8 1.1 12 1 5.9-.2 9.6-1.1 10.1-1.4.3-.9-.7-8.8-1.2-9.9-4.1 2.2-14.8.2-18.3-.4-.4-.1-.7-.1-.9-.2-.5 1.2-1.9 9.7-1.7 10.9zm10.9 1.5c-5.1 0-11.1-.9-11.2-1.1-.7-.5 1.3-10.6 1.5-11.4.1-.3.1-.5.4-.5.1 0 .4 0 1.1.2 3.5.7 14.3 2.7 18.2.4.1-.1.3-.1.4.1.5.7 1.8 10 1.2 10.8-.2.3-4.3 1.4-10.4 1.5h-1.2z"/><path id="Fill-280_00000015339784814176629780000006230694435440431546_" class="st13" d="M-1147.8-1953.4c-8.1 11.5-10.9 2.4-11.3 2.3-.2 0-1.1 1.6-4 3.8-2.9 2.2-5.8 3.3-5.9 3.5-.1.2 2.4 2.8 4.6 2.8 2.2 0 7.3-3.2 10-5.2 3.3-2.6 6.3-6 7.6-8.8 1.7-3.5.1-5.4.1-5.9s-7.3 5.1-7.8 5.4c-.7.4 2.3 3.1-2.1 7.4l8.8-5.3z"/><path id="Fill-282_00000075141768445390362150000010924912033684786089_" class="st18" d="M-1156.3-1948.3c.3.2.7.3 1.1.3 2 .1 4.3-1.8 7-5.5l.1-.1.9-1.5c1.3-2.6.6-4.2.2-5 0-.1-.1-.2-.1-.3-.8.4-4 2.8-5.6 3.9-1 .7-1.5 1.1-1.7 1.2 0 .1.1.3.1.5.4 1.1 1.1 3.5-2 6.5zm-12.1 4.4c.5.6 2.4 2.3 4.2 2.3 2 0 6.9-2.9 9.7-5l1.8-1.5c-.8.5-1.6.7-2.4.6-2.1-.1-3.2-2.1-3.7-3-.1-.1-.1-.2-.2-.3l-.2.2c-.5.6-1.6 1.8-3.6 3.3-2.1 1.6-4.2 2.6-5.2 3.1-.2.2-.3.3-.4.3zm4.1 2.9c-2.1 0-4.4-2.2-4.7-2.8-.1-.2 0-.3 0-.4.1-.1.1-.1.7-.4 1-.5 3-1.5 5.1-3 2-1.5 3-2.7 3.5-3.3.3-.4.4-.5.6-.5.2 0 .3.2.5.6.3.6.9 1.6 1.8 2.2 3-2.9 2.4-5 2-6.1-.1-.4-.3-.9.1-1.1.1-.1.9-.6 1.6-1.2 5.5-4.1 5.9-4.2 6.1-4 .1 0 .1.2.1.3 0 .1.1.2.1.4.4.9 1.1 2.7-.2 5.5-1.4 2.8-4.3 6.2-7.5 8.7-2.5 2-7.6 5.1-9.8 5.1z"/><path id="Fill-284_00000111901806912405579510000006322566480218774668_" class="st13" d="M-1136-2050.8c-.5-1.6-.9-10.1-.1-12.5.8-2.5-8 3-8.8 3.9-.4.4 1.7 13.1 2.4 13.5.2.1 2.6-1.9 4.4-3.1 1.3-1 2.3-1.1 2.1-1.8"/><path id="Fill-286_00000100369576543678643060000012545683615271220926_" class="st18" d="M-1144.5-2059.9c-.3 1.2 1.7 12.2 2.4 13.4.3-.2 1.1-.7 1.8-1.2.8-.6 1.8-1.3 2.6-1.8.5-.3 1-.6 1.4-.8.8-.4.9-.5.8-.7-.6-1.7-.9-10.5-.1-13 0-.1.1-.2 0-.2-.8-.8-7.8 3.2-8.9 4.3m2.3 13.9h-.1c-.8-.5-2.2-9.1-2.5-11.7-.3-2.3-.1-2.5 0-2.6.6-.6 8.3-5.5 9.6-4.6.1.1.3.3.2.9-.8 2.4-.4 11.1.1 12.7.2.7-.4 1-1.1 1.4-.4.2-.8.4-1.3.7-.8.5-1.8 1.2-2.6 1.8-1.6 1.1-2.1 1.4-2.3 1.4"/><path id="Fill-288_00000074404022043352571530000003428202599140134059_" class="st13" d="M-1162-2010.1c-.1-.1-6.8.4-7.5-.1-.5-.3-2.4-5.6-3.1-10.4-.6-4.7-.4-8.5.4-8.5 1.5.2 8.3 2.3 8.6 2.5.2.1-2.4.6-2 4.9.2 4.4 3.7 11.7 3.6 11.6"/><path id="Fill-290_00000124123862360707962090000000760186704318640025_" class="st18" d="M-1172-2028.5s0 .1 0 0c-.6.6-.7 4-.1 8.3.7 4.7 2.7 10 3.1 10.4.4.3 4.4.1 6 0h1.3c0-.1-.1-.2-.1-.3-.8-1.9-3.3-7.5-3.6-11.2-.2-2.3.4-4 1.8-5-1.7-.4-7.1-2-8.4-2.2m5.1 19.5c-1.3 0-2.1-.1-2.4-.2-.6-.4-2.7-6.1-3.3-10.8-.6-4.3-.5-7.9.2-8.8.2-.2.4-.2.5-.2 1.6.2 9 2.5 9.1 2.5.1 0 .2.1.2.2 0 .2-.1.3-.3.4-1.4.8-2.1 2.4-1.9 4.7.3 3.5 2.7 9.1 3.5 11 .4.9.4.9.2 1-.1.1-.1.1-.2.1h-1.6c-1.7.1-3 .1-4 .1"/><path id="Fill-292_00000052826209282187482070000000646982385768787361_" class="st18" d="M-1165.5-1958h-.1c-1.1-.6-3-1-5.6-.9-.1 0-.2-.1-.2-.3 0-.1.1-.3.2-.3 2.5 0 4.5.3 5.7.9.5-1.1 1.3-8.7 1-9.7-.6-.2-4.3-1.1-10.1-1.2-3.8 0-7.9.5-10.1.8-.1 0-.3-.1-.3-.2s.1-.3.2-.3c2.1-.3 6.3-.8 10.1-.8 6.1.1 10.2 1 10.5 1.3.6.7-.6 9.8-1.1 10.5 0 .2-.1.2-.2.2"/><path id="Fill-294_00000179631497617081182310000016543323370632120500_" class="st18" d="M-1108.1-1994.7c0 .1 0 .2.1.3.2 1.1.6 3.4-.7 5.2-.5.6-1.2 1.1-2 1.5.7-.1 1.4-.2 2.1-.4 3.2-.7 8.4-2.6 9.8-4.2 1.2-1.4 1.5-4.2 1.4-5.1-.1 0-.2.1-.3.2-1 .5-3 1.4-5.5 2-2.3.5-3.8.5-4.5.5h-.4m-9.4 6.8c.1 0 .1 0 0 0 4.2.5 7 0 8.3-1.7.3-.4.5-.8.6-1.2h-.1c-.2 0-.4.1-.5.1-3.7.1-4.5-2-5-3.1-.1-.2-.1-.3-.2-.4-.2.1-.8.2-1.9.5-1.8.4-5.5 1.3-6.3 1.7 0 .1.1.2.1.3.3.9.8 2.6 3.3 3.4.6.2 1.1.3 1.7.4m3.5.9c-2 0-3.8-.2-5.2-.7-2.7-.9-3.3-2.9-3.6-3.8 0-.1-.1-.3-.1-.4-.1-.1-.1-.2-.1-.3.1-.3.4-.5 6.7-2.1.9-.2 1.8-.4 1.9-.5.4-.2.6.3.7.7.4 1 1.1 2.9 4.5 2.8.1 0 .3 0 .5-.1h.3c.2-1.1 0-2.3-.1-3-.1-.5-.1-.7 0-.8.1-.1.2-.1.7-.1.7 0 2.2 0 4.4-.5 2.4-.5 4.5-1.5 5.4-2 .5-.3.6-.3.7-.3.1 0 .2.1.2.2.2.6 0 4.1-1.5 5.8-1.5 1.8-6.9 3.6-10 4.4-1.8.5-3.6.7-5.4.7"/><path id="Fill-296_00000030475712949649966080000011704209126170677930_" class="st13" d="M-1154.5-2042.5c.8.3.5 4.3.2 9.5s-1.9 15.1-2.2 15c-.4-.1-2.3-3.8-2.5-4.9-.1-.6 1.5-6.6 1.8-13.1.2-5.5-1-10.1-.9-10 1 .5 3.2 3.3 3.6 3.5"/><path id="Fill-298_00000087385675302362917780000017605447899590436787_" class="st18" d="M-1157.7-2045.3c0 .1 0 .1 0 0 .3 1.4.9 5.1.8 9.4-.2 4.5-1 8.8-1.4 11.1-.2.8-.3 1.6-.3 1.8.1.9 1.5 3.7 2 4.4.4-1.5 1.6-9.6 1.9-14.4l.1-1.3c.2-3.7.4-7.6-.1-7.8-.2-.1-.5-.5-1.2-1.3-.6-.6-1.3-1.4-1.8-1.9m1.2 27.3c-.5-.1-2.4-4-2.5-5 0-.2.1-.7.3-2 .4-2.3 1.2-6.5 1.4-11 .2-4.2-.5-7.8-.8-9.2-.1-.7-.1-.7 0-.8.1-.1.1-.1.2 0 .6.3 1.5 1.3 2.2 2.3.4.5.9 1.1 1.1 1.1.8.3.7 2.9.4 8.3l-.1 1.3c-.2 4.4-1.6 14.5-2.1 14.9 0 .1-.1.1-.1.1"/><path id="Fill-300_00000080203244338264101640000007449867026419448742_" class="st13" d="M-1128.9-1960.3c-1.6 0-9.3 2.5-11.2 4.2-1.9 1.7-.3-9.5.2-10.6.2-.6 12.3-2.7 12.9-2.1.2.2-.7 3.4-1.1 5.6-.4 1.8-.1 2.8-.8 2.9"/><path id="Fill-302_00000057828259912237113840000012179784577180200381_" class="st18" d="M-1139.5-1966.5c-.5 1.4-1.5 9.4-.7 10 0 0 .1 0 .2-.1 1.9-1.6 9.3-4.1 11-4.1.2 0 .2-.1.3-1 0-.4.1-.9.2-1.6.2-1 .4-2.1.7-3.1.2-.8.4-1.8.4-2.1-1.2-.3-11.2 1.4-12.1 2zm-.7 10.5c-.1 0-.2-.1-.3-.1-1.2-.9.3-9.9.6-10.6.1-.1.1-.3 2.2-.8 2.3-.5 10-1.9 10.6-1.3.2.2.1.4-.4 2.6-.2 1-.5 2.1-.6 3.1-.1.6-.1 1.1-.2 1.5-.1.8-.1 1.5-.8 1.5-1.5 0-8.9 2.4-10.7 4-.1 0-.3.1-.4.1z"/><path id="Fill-304_00000121989678141126121500000008815664915401532092_" class="st18" d="M-1174-1954h-.1c-.1-.1-.1-.2-.1-.4 1.2-2.2 1.6-3.6 1.7-4-.6-.6-5.9-3.9-7.6-4.1h-.3c-.1.3-.1.7-.2 1.1-.2 1-.5 2.4-1 3.8-.1.1-.2.2-.3.1-.1-.1-.2-.2-.1-.4.5-1.4.8-2.7 1-3.7.1-.5.2-.9.2-1.2.1-.2.2-.4.6-.4 1.7 0 8 3.8 8.1 4.4.1.4-.7 2.4-1.8 4.4.1.4 0 .4-.1.4"/><path id="Fill-306_00000154383759104859137140000004305411466784739723_" class="st13" d="M-1118-1964.3c.2 0 5.2 6.1 6.1 6.3.6.2 6.1-2.5 10-5.7 3.9-3.3 6.5-6.5 5.7-7.1-1.4-1.1-8.8-5-9.2-5.2-.2-.1 1.6 2.5-1.8 5.6-3.2 3.2-11 6-10.8 6.1"/><path id="Fill-308_00000164515538014561226420000015579725689685499313_" class="st18" d="M-1117.3-1964.3c.2.2.5.5 1 1.1 1.3 1.5 4.1 4.6 4.6 4.7.6.1 5.8-2.4 9.6-5.5 3.5-2.9 5.6-5.5 5.6-6.4v-.1c-1.2-.9-6.7-3.9-8.5-4.8.5 1.8-.2 3.6-1.9 5.2-2.7 2.5-8.3 4.9-10.1 5.6-.1.1-.2.1-.3.2m5.6 6.3c-.1 0-.1 0 0 0-.6-.2-2.3-1.9-5-4.9-.5-.6-1.1-1.2-1.2-1.3-.1 0-.1-.1-.1-.2 0-.2 0-.2.8-.6 1.8-.8 7.4-3.1 9.9-5.5 1.7-1.6 2.3-3.3 1.7-5-.1-.2-.1-.3 0-.5.1-.1.2-.1.3 0 .1 0 7.6 3.9 9 5.1.1.1.2.2.2.5 0 1.3-2.9 4.4-5.8 6.8-3.5 2.9-8.8 5.6-9.8 5.6"/><path id="Fill-310_00000142174881615209357390000014896132574799302301_" class="st18" d="M-1171.2-1974c-1.1 0-7.9-5.1-8.5-5.6-.2-.2-.4-.3-.3-.5 0-.1.2-.3.6-1 1.8-3.2 7.5-12.9 7.1-17.5 0-.1 0-.3.2-.3.7-.2 8.7 1.9 9.1 2.7.1.3-.4 3.6-1.9 8.4 0 .1-.2.2-.3.2-.1 0-.2-.2-.1-.3 1.5-4.5 1.9-7.5 1.9-8-.6-.6-7.3-2.5-8.4-2.5.2 4.8-5.3 14.4-7.2 17.6-.2.3-.4.6-.5.8.9.8 7.1 5.3 8.1 5.6.3-.5 1.7-3.1 3.1-6.1.1-.1.2-.2.3-.1.1.1.2.2.1.3-1.4 3.1-3.1 6.3-3.3 6.4.1-.1 0-.1 0-.1z"/><path id="Fill-312_00000049179467920771676840000000284648474370978179_" class="st18" d="M-1161.6-1987.5c.3 0 .6 0 .8.1 1.7.5 2.3 2.2 2.7 3.1 0 .1 0 .1.1.2l.1-.1c.5-.4 1.6-1.2 3.4-2 2-.9 3.8-1.3 4.7-1.5.1 0 .2 0 .2-.1-.4-.6-1.6-2.2-3-2.5-1.6-.3-6 1.1-8.6 2.3-.4.2-.8.4-1.3.6.3-.1.6-.1.9-.1m-5.9 3.8c-.3.3-.6.7-.9 1-1.4 1.8-1.1 3.2-.9 3.9v.2c.8-.2 3.6-1.5 5.1-2.1.9-.4 1.3-.6 1.5-.7v-.3c-.2-1-.5-2.9 2.6-4.9-.2-.2-.5-.3-.8-.4-1.6-.3-3.8.7-6.6 3.3m-2 5.7c-.1 0-.1 0-.2-.1s-.1-.2-.1-.3c0 0 0-.2-.1-.3-.2-.8-.6-2.3 1-4.4 1.5-2 4.4-4.2 7.4-5.6 2.5-1.2 7.1-2.7 8.9-2.3 1.7.4 3.4 2.6 3.5 3.1.1.2 0 .3-.1.3-.1.1-.2.1-.6.2-.9.2-2.7.6-4.6 1.5-1.8.8-2.8 1.6-3.3 2-.3.2-.4.3-.6.3-.2-.1-.2-.2-.4-.6-.2-.5-.5-1.3-1.1-2-2.9 1.7-2.6 3.5-2.5 4.4.1.4.1.8-.3.9-.1 0-.8.3-1.5.7-4 1.8-5 2.2-5.4 2.2"/><path id="Fill-314_00000110453282775575503360000011485120465387164089_" class="st13" d="M-1115.9-1983.6c-.4-1-4 .2-8.7 1.6-4.7 1.4-13.5 5.4-13.3 5.8.1.4 4 2.3 5 2.2.5 0 5.7-3.3 11.7-4.9 5-1.4 9.5-.6 9.4-.8-.9-1.2-3.9-3.5-4.1-3.9"/><path id="Fill-316_00000099621043861290756860000011878508983284614071_" class="st18" d="M-1137.4-1975.4c.7.5 3.7 1.8 4.5 1.8.1 0 .8-.4 1.6-.7 2-1 5.8-2.9 9.8-3.9 3.9-1 7.4-.8 8.7-.7-.5-.6-1.4-1.3-2.1-2-.9-.8-1.3-1.1-1.4-1.4-.3-.7-3.8.4-7.2 1.3l-1.2.3c-4.3 1.4-11.5 4.6-12.7 5.3zm4.5 2.4c-1 0-4.9-1.7-5.1-2.3v-.2c.3-.7 9.2-4.4 13.3-5.6l1.2-.3c4.9-1.4 7.2-2.1 7.7-1.1.1.2.7.7 1.3 1.2 1 .9 2.1 1.9 2.5 2.5.1.1.1.2 0 .3-.1.2-.1.2-.8.1-1.3-.1-4.8-.3-8.6.7-4 1.1-7.8 2.9-9.8 3.9-1.1.6-1.5.8-1.7.8z"/><path id="Fill-318_00000018204450786247680420000002446608516667061424_" class="st18" d="M-1177.3-1969c-.1 0-.2 0-.2-.1-.7-.7-1.5-1.7-2.2-2.5-.4-.5-.6-.9-.9-1.2-.5-.7-.6-.8-.8-.7-.8.3-3.1.6-4.4.7-.1 0-.3-.1-.3-.2s.1-.2.2-.3c2.2-.2 3.7-.5 4.2-.7.7-.3 1 .3 1.5.9.2.3.5.7.8 1.2.7.8 1.5 1.8 2.2 2.5.1.1.1.2 0 .3 0 .1 0 .1-.1.1"/><path id="Fill-320_00000129203336725273168680000012387192640350999459_" class="st18" d="M-1168.3-1930c-.6 0-1.9-.6-2.7-1-.1-.1-.2-.2-.1-.4.1-.1.2-.2.3-.1 1.6.9 2.4 1 2.5 1 .2 0 .4-.4.7-.8.5-.7 1.3-1.9 2.5-2.9 2.4-1.9 3.3-2.8 3.5-3.1-.1-.1-.2 0-.4 0-.6.2-1.9.5-5.5-.8-4.8-1.7-5.7-6.6-6.2-9.2-.1-.4-.2-.8-.2-1.1h-.2c-.3 0-1 .1-2.6 1-.1.1-.3 0-.3-.1-.1-.1 0-.3.1-.3 2.5-1.3 3-1 3.2-.9l.3.3c.1.3.2.7.2 1.1.5 2.5 1.4 7.2 5.9 8.8 3.5 1.2 4.7.9 5.3.8.3-.1.6-.2.9.2.1.1.1.2.1.3 0 .2-.1.7-3.7 3.6-1.2 1-1.9 2-2.4 2.8-.4.6-.6.9-1 1 0-.2-.1-.2-.2-.2"/><path id="Fill-322_00000161602051915361039910000002871029386935896486_" class="st13" d="M-1154.9-1982c0 .1 5.5 4.6 5.8 5.4.2.5-1.3 6.1-3.5 10.2s-4.6 6.9-5.1 6.3c-1.1-1.2-5.1-7.7-5.3-8.1-.1-.2 2.2 1.2 4.4-2.4 2.2-3.4 3.7-11.5 3.7-11.4"/><path id="Fill-324_00000006678836257333543080000003664537564335118977_" class="st18" d="M-1162.3-1967.9c1 1.6 4 6.4 4.8 7.4h.1c.7-.1 2.6-2.5 4.5-6.1 2.1-3.9 3.5-9.2 3.4-9.8-.2-.5-3.1-3-4.3-4.1-.5-.4-.8-.7-1-.8 0 .1 0 .2-.1.3-.4 1.9-1.7 7.8-3.5 10.6-1 1.9-2.4 2.7-3.9 2.5m4.9 7.9c-.2 0-.3-.1-.4-.2-1.1-1.2-5.1-7.8-5.2-7.9-.1-.1-.1-.2 0-.3.1-.2.2-.1.4-.1 1.5.3 2.8-.4 3.9-2.2 1.7-2.8 3-8.5 3.4-10.4.2-.9.2-.9.4-.9.1 0 .2 0 .2.1.1.1.6.6 1.2 1 2.8 2.4 4.3 3.8 4.5 4.3.2.7-1.4 6.3-3.4 10.2-2 3.6-4 6.3-5 6.4"/><path id="Fill-326_00000167377982230819983810000012320073727687134374_" class="st18" d="M-1157.5-1948c-.2 0-.3-.2-.2-.3.5-2.3 0-6.4-.1-7.2-.2 0-.5.1-.9.1-3.5.4-14.2 1.6-18.1-.9-.1.2-.3.8-.7 2.6 0 .1-.2.2-.3.2-.1 0-.2-.2-.2-.3.6-2.9.8-3 1-3.1h.3c3.7 2.6 14.4 1.3 18 .9.8-.1 1-.1 1.1-.1.1 0 .1.1.2.1.3.4.8 5.2.2 7.8 0 .1-.1.2-.3.2"/><path id="Fill-328_00000155847946558917999870000004317296626730177721_" class="st18" d="M-1166.3-1945c-1.8-.1-4-.5-6.5-1.2-.1 0-.2-.3-.2-.5s.2-.4.3-.4c2.5.7 4.7 1 6.4 1.1.1 0 .3.2.3.4 0 .4-.1.6-.3.6"/><path id="Fill-330_00000153682308978521103750000018234441207235776692_" class="st18" d="M-1179.6-1951c-.3 0-.4-.2-.4-.3.3-1.2.8-2.4 1.2-3.5.1-.1.3-.2.5-.2s.4.2.3.3c-.4 1-.8 2.3-1.2 3.5 0 .1-.2.2-.4.2"/><path id="Fill-332_00000112610009402975123670000004826234075795213211_" class="st18" d="M-1141.9-1997.8c.1 0 .2.1.3.1 1 .3 3 .9 3.7 2.9.3.8.3 1.6.2 2.6.3-.7.5-1.5.7-2.3 1-3.5 1.9-9.4 1.3-11.4-.5-1.8-2.6-3.3-3.3-3.6v.4c-.1 1.2-.3 3.6-1 6.3-.7 2.5-1.4 4-1.7 4.7-.1.1-.2.2-.2.3zm-4.6 15.2h.3c.8.1 2.4.3 4.2-1.7.3-.4.7-.8 1-1.3v-.1c2.4-3.9 3.3-6.9 2.6-8.9-.1-.4-.4-.8-.6-1.1-1.7 4.2-3.9 4.1-5 4.1h-.4c0 .2-.2.9-.5 2.1-.5 1.9-1.5 5.9-1.6 6.9zm1.1.6c-.4 0-.7 0-.9-.1h-.4c-.1 0-.2 0-.3-.1-.2-.2-.1-1 1.6-7.5.3-1 .5-1.9.5-2.1.1-.4.5-.4.9-.4 1.1.1 3 .2 4.6-3.8v-.1c-.8-.7-1.8-1-2.4-1.2-.4-.1-.6-.2-.7-.3-.1-.2 0-.3.2-.8.3-.7 1-2.1 1.7-4.6.7-2.6.9-5 1-6.2.1-.6.1-.7.1-.8 0-.1.1-.1.3-.1.6.1 3.2 1.8 3.8 4 .7 2.3-.4 8.3-1.3 11.7-1.1 4-3.1 8.1-5.1 10.3-1.3 1.8-2.7 2.1-3.6 2.1z"/><path id="Fill-334_00000013897247747131253250000009202188478738644151_" class="st13" d="M-1109.2-1951.5c-.3.8-4 .5-8.8.2-4.9-.3-14-1.9-13.9-2.2.1-.3 3.6-2.3 4.5-2.4.5-.1 6.1 1.6 12.2 1.8 5.1.2 9.4-1 9.3-.9-.6.9-3.2 3.1-3.3 3.5"/><path id="Fill-336_00000097486745806664606710000005602467188306386343_" class="st18" d="M-1131.4-1954.7c1.4.5 8.9 2.3 13.4 2.7l1.2.1c3.5.3 7 .6 7.2-.1.1-.3.4-.7 1.2-1.7.6-.8 1.4-1.7 1.8-2.4-1.3.3-4.7 1.3-8.7 1-4.1-.3-8.1-1.4-10.2-2-.8-.2-1.5-.4-1.6-.4-1 .2-3.7 2.1-4.3 2.8zm19.7 3.7c-1.2 0-3-.1-5.2-.3l-1.2-.1c-4.1-.4-13.4-2.3-13.9-3 0-.1-.1-.2-.1-.2.1-.7 3.7-3.2 4.6-3.4.2 0 .6.1 1.8.4 2.1.6 6.1 1.7 10.2 2 3.9.2 7.3-.7 8.5-1 .6-.2.7-.2.8 0 .1.1.1.2 0 .3-.3.8-1.3 2-2.1 3.1-.5.6-1 1.3-1.1 1.5 0 .5-.8.7-2.3.7z"/><path id="Fill-338_00000017482698532290188890000012277151578196975005_" class="st13" d="M-1158.7-2005.8c1.4-.4 8-4.8 9.4-7 1.4-2.1 2.4 9.1 2.3 10.3-.1.6-10.7 5.8-11.4 5.4-.2-.1-.1-3.5-.3-5.7-.1-1.9-.6-2.8 0-3"/><path id="Fill-340_00000080885592429278100310000004192089373846681242_" class="st18" d="M-1148.3-2012.5s-.1.1-.2.1c-1.4 2.1-8.3 6.4-9.9 6.8-.2.1-.2.2-.1 1.1.1.4.2.9.2 1.6.1 1 .1 2.2.1 3.2 0 .9 0 1.9.1 2.2 1.2 0 10.7-4.3 11.5-5.1.3-1.5-.8-9.5-1.7-9.9zm-9.8 15.5h-.2c-.2-.1-.3-.4-.3-2.6 0-1 0-2.2-.1-3.2 0-.6-.1-1.1-.2-1.5-.1-.8-.3-1.5.4-1.7 1.5-.4 8.3-4.7 9.6-6.6.3-.4.6-.4.8-.3 1.4.6 2.2 9.7 2.1 10.5 0 .2 0 .3-2 1.3s-8.6 4.1-10.1 4.1z"/><path id="Fill-342_00000182510063893411027780000015405417645907997345_" class="st18" d="M-1072.3-2052.7c-2.5 2.6-3.6 4.8-3.3 6.4 0 .3.1.6.3.9 2-2.9 3.7-2.5 4.5-2.2.1 0 .2.1.3.1.1-.2.3-.7.7-1.5.7-1.4 2.1-4.3 2.3-5.1-.1 0-.1 0-.2-.1-.6-.2-1.8-.7-3.5.6-.4.2-.8.5-1.1.9m-3.7 4.8c-.2.4-.5.9-.7 1.3-1.3 2.5-3 7-2.8 8.7.1 1.4 1.5 2.9 2 3.3 0-.1 0-.2.1-.2.3-.9.8-2.8 1.8-4.7.9-1.8 1.7-2.9 2.1-3.4 0-.1.1-.1.1-.1l-.1-.1c-.7-.4-2.2-1.2-2.5-3-.2-.6-.2-1.2 0-1.8m-1.4 13.9h-.1c-.4-.2-2.3-2-2.4-3.8-.2-1.9 1.6-6.5 2.8-9 1.2-2.4 2.9-4.7 4.5-6.2.4-.3.7-.6 1.1-.9 1.9-1.4 3.3-.9 4-.7.1 0 .2.1.3.1.1 0 .2.1.2.1.1.2.1.5-2.4 5.6-.4.7-.7 1.4-.7 1.5-.1.4-.5.3-.8.2-.8-.2-2.3-.6-4.1 2.2.5.7 1.2 1.1 1.7 1.3.3.2.5.3.5.4 0 .2-.1.3-.3.6-.4.5-1.1 1.5-2 3.3-1 1.9-1.5 3.8-1.7 4.6-.1.5-.2.6-.2.6-.3.1-.3.1-.4.1"/><path id="Fill-344_00000065790956410535734270000014638634450189670282_" class="st13" d="M-1053-2002.1c1.4-.7 9.1-1.9 11.4-1.2 2.3.7-3.5-8.9-4.3-9.7-.4-.4-11.8 3-12.1 3.9-.1.2 2 2.8 3.2 4.7 1 1.6 1.2 2.7 1.8 2.3"/><g id="Group-348" transform="translate(195 109)"><defs><filter id="Adobe_OpacityMaskFilter_00000053509539270994815830000015422475834747958682_" filterUnits="userSpaceOnUse" x="-1252.9" y="-2123.9" width="16.9" height="11.9"><feColorMatrix values="1 0 0 0 0 0 1 0 0 0 0 0 1 0 0 0 0 0 1 0"/></filter></defs><mask maskUnits="userSpaceOnUse" x="-1252.9" y="-2123.9" width="16.9" height="11.9" id="mask-4_00000103957756315871379610000012166788520353976212_"><g filter="url(#Adobe_OpacityMaskFilter_00000053509539270994815830000015422475834747958682_)"><path id="path-3_00000142144080137023667550000014043525752789692845_" class="st2" d="M-1252.9-2123.9h16.9v11.8h-16.9z"/></g></mask><path id="Fill-346_00000035504951580250706710000008040230176440568231_" d="M-1252.4-2119.6c.2.3.7 1.1 1.2 1.9.6.9 1.3 1.9 1.8 2.7.3.6.6 1.1.8 1.4.4.8.5 1 .7.9 1.5-.8 9-2 11.3-1.2h.2c.4-.9-3.6-8.4-4.6-9.5-1.1-.2-10.5 3-11.4 3.8zm4.3 7.5c-.4 0-.7-.5-1-1.2-.2-.4-.4-.9-.7-1.4-.5-.9-1.2-1.8-1.8-2.7-1.3-1.9-1.4-2.1-1.3-2.4.3-.9 8-3.3 9.9-3.8 2-.5 2.1-.4 2.2-.3.5.6 5.4 8.7 4.7 10.2-.1.2-.3.4-.7.3-2.2-.7-9.6.5-10.9 1.2-.2.1-.3.1-.4.1z" mask="url(#mask-4_00000103957756315871379610000012166788520353976212_)" fill-rule="evenodd" clip-rule="evenodd" fill="#5b2714"/></g><path id="Fill-349" class="st13" d="M-1081.4-2022.1c1.8.1 7.6 2.1 11.5-2.9 3.9-5 2.3-5.6 3.3-6 .3-.1.9 2.2 1.6 5 .6 2.8 2.1 4.1 2 4.8-.1 1.1-5.9 6.5-10.4 7.9-4.5 1.4-7.6 1.4-7.8 1.2-.4-.3-1.5-10.1-.2-10"/><path id="Fill-351" class="st18" d="M-1082.1-2022.6v.3-.3zm.4 10c.4.1 3.3.2 7.8-1.3 4.6-1.5 10.3-6.9 10.5-7.9 0-.2-.2-.6-.5-1.1-.5-.8-1.2-2-1.6-3.8-.7-3.2-1.2-4.5-1.4-4.8-.1.1-.1.2-.1.4-.1.7-.3 2.2-3 5.6-3.5 4.5-8.4 3.6-11 3.2-.4-.1-.8-.1-1.1-.2 0 0-.1.1-.1.3-.7 2 .1 8.9.5 9.6zm.7.6c-.6 0-1-.1-1.1-.2-.5-.4-1.3-8.4-.6-10.2.2-.4.4-.5.6-.5.3 0 .7.1 1.1.2 2.5.4 7.1 1.2 10.5-3 2.6-3.3 2.8-4.7 2.9-5.3.1-.4.1-.7.6-.9h.3c.1.1.6.3 1.7 5.3.4 1.7 1 2.8 1.5 3.6.4.6.6 1 .5 1.4-.2 1.4-6.3 6.9-10.8 8.3-3.1.9-5.7 1.3-7.2 1.3z"/><path id="Fill-353" class="st13" d="M-1089.8-1990.3c1.2-1 5.9-7.7 6.5-10.3.6-2.6 5.1 7.8 5.4 9 .1.6-8 9.7-8.8 9.6-.2 0-1.2-3.3-2.1-5.4-.8-1.8-1.6-2.4-1-2.9"/><path id="Fill-355" class="st18" d="M-1090.4-1990.5c-.2.1-.1.3.3 1.1.2.4.5.9.7 1.5.4 1 .8 2.1 1.2 3.2.3.9.7 1.9.8 2.2 1.1-.5 8.5-8.4 8.9-9.5-.3-1.6-4-9.3-5-9.4 0 0-.1.1-.1.2-.6 2.6-5.5 9.6-6.8 10.7zm2.9 8.5c-.3 0-.4-.3-1.2-2.5-.4-1-.8-2.2-1.2-3.1-.2-.6-.5-1.1-.7-1.5-.4-.8-.7-1.4-.2-1.8 1.2-1 6-7.9 6.6-10.4.1-.5.4-.6.6-.6 1.5 0 5.3 9 5.5 9.8 0 .2.1.4-1.4 2.1-1.4 1.9-7 8-8 8z"/><path id="Fill-357" class="st18" d="M-1180.7-2000.5c-.5.1-2 .7-2.7 1.8-.8 1.4-1.2 6.1-1.2 8.9v1.4c.1-.6.3-1.1.5-1.5.9-1.4 2.3-1.3 3-1.3h.1v-.2c-.1-.6-.3-1.9-.3-3.9 0-2.2.3-4.1.5-5 .1 0 .1-.1.1-.2m-2.9 18.4c.1.4.3.9.4 1.2.8 2 1.8 2.2 2.4 2.3h.1c.1-.8.2-4 .2-5.5v-1.6c-.1 0-.2-.1-.2-.1-.7-.2-2.2-.7-2.5-4.2-.2.2-.4.3-.5.6-.8 1.3-.8 3.7 0 7.2.1 0 .1 0 .1.1m3.1 4.1h-.1s-.1 0-.2-.1c-.6-.1-1.8-.4-2.7-2.6-.9-2.2-1.4-5.7-1.4-9.1 0-2.8.4-7.6 1.3-9.2.8-1.5 2.9-2.1 3.3-2.1.1 0 .2.1.2.2s0 .2-.1.7c-.1.9-.5 2.7-.5 4.9 0 2 .2 3.2.3 3.8.1.4.1.5 0 .7-.1.1-.2.1-.5.1-.4 0-1.1 0-1.7.3.3 3.3 1.5 3.7 2.2 4 .3.1.6.2.5.6v1.7c-.1 5.7-.2 6-.4 6.1h-.2"/><path id="Fill-359" class="st18" d="M-1114.8-1931c-.1 0-.1 0-.2-.1s-.1-.3 0-.4c2.7-2.2 3.5-8 .6-13.1-.1-.1 0-.3.1-.4.1-.1.3 0 .3.1 3 5.3 2.1 11.5-.7 13.8 0 .1 0 .1-.1.1"/><path id="Fill-361" class="st18" d="M-1105.8-1929c-.1 0-.1 0-.2-.1s-.1-.3 0-.4c2-2.1 2.7-6.9 2.5-10.3 0-.1.1-.3.2-.3s.2.1.2.2c.3 3.5-.6 8.5-2.6 10.7 0 .2-.1.2-.1.2"/><path id="Fill-363" class="st18" d="M-1162.7-1921c-.1 0-.2 0-.3-.1-.1-.1 0-.2.1-.3 1.3-.4 1.2-1.4 1.2-1.4 0-.1.1-.2.3-.2.2 0 .3.1.4.2 0 0 .2 1.2-1.5 1.8h-.2"/><path id="Fill-365" class="st18" d="M-1109.8-1996c-.2-.1-.3-.2-.2-.3 2.1-4.9 6.5-8.4 10-10.9 3.6-2.6 6.7-4.8 10.7-4.8.1 0 .2.1.2.2s-.1.2-.2.2c-3.9 0-6.9 2.2-10.4 4.7s-7.8 5.9-9.8 10.7c-.1.1-.2.2-.3.2"/><path id="Fill-367" class="st18" d="M-1077.3-2004c-.1 0-.2-.1-.2-.2-.7-3.5-2.4-4.8-4-5.7-.2-.1-.5-.3-.9-.4-1-.4-2.4-1-3.1-2.2-.2-.4-.5-.8-.7-1.3-.7-1.4-1.5-2.9-2.3-3.3-1.1-.6-2.4-.3-3.9 0-1.1.2-2.2.4-3.3.3-.1 0-.2-.1-.2-.3 0-.1.1-.3.3-.2 1 .1 2.1-.1 3.1-.3 1.5-.3 3-.6 4.2.1.9.5 1.7 2 2.5 3.5.2.4.5.9.7 1.3.6 1 1.9 1.6 2.9 2 .4.2.7.3 1 .4 1.8 1.1 3.5 2.6 4.2 6.1 0 0-.1.2-.3.2.1 0 .1 0 0 0"/><path id="Fill-369" class="st18" d="M-1109.5-1996c-3.1 0-8.8-.9-12.5-4.7-.1-.1-.1-.2 0-.3.1-.1.3-.1.3 0 3.8 3.9 10 4.6 12.7 4.5 2-.1 4.2-.5 6.5-1.1.1 0 .3 0 .3.1s0 .2-.2.3c-2.4.7-4.5 1-6.6 1.2h-.5"/><path id="Fill-371" class="st18" d="M-1099.7-1999c-.1 0-.2-.1-.2-.2-.1-.1 0-.3.1-.3 2.2-.9 4.3-2 6.3-3.1 4.4-2.3 8.6-4.5 12.3-4.4.1 0 .3.1.2.3 0 .1-.1.3-.3.3h-.2c-3.5 0-7.6 2.1-11.8 4.3-2 1-4.2 2.1-6.4 3.1"/><path id="Fill-373" class="st18" d="M-1108.3-1999c-3.2-.9-8-3.9-8.7-7.7 0-.1.1-.3.2-.3s.3.1.3.2c.6 3.2 4.8 6.2 8.3 7.2.1 0 .2.2.2.3 0 .2-.1.3-.3.3"/><path id="Fill-375" class="st18" d="M-1123.6-2000c-.1 0-.2-.1-.2-.2-1.1-3.8 2.4-8.2 4.4-9.8.1-.1.2 0 .3.1.1.1 0 .3-.1.4-1.5 1.1-5.4 5.4-4.3 9.2.2.1.1.2-.1.3.1 0 0 0 0 0"/><path id="Fill-377" class="st18" d="M-1122.7-2048c-.1 0-.2 0-.2-.1-.4-.7-1.6-1.8-2.6-2.7-1.1-1-1.4-1.4-1.5-1.6-.1-.3.2-.4.8-.6 1.1-.3 3-.9 4.3-2.3 1-1 1.7-2 2.1-2.7.6-.8.8-1.2 1.1-.9 1.1.7 2.3 2.5 3.5 4.3.1.1.1.3-.1.4-.1.1-.3.1-.3-.1-1.1-1.7-2.3-3.4-3.3-4.1-.1.1-.4.4-.6.8-.5.7-1.2 1.7-2.2 2.7-1.4 1.4-3.4 2.1-4.5 2.4-.1 0-.3.1-.4.1.2.3.8.7 1.2 1.2 1 .9 2.3 2.1 2.7 2.9.1.1 0 .3-.1.4.2-.1.1-.1.1-.1"/><path id="Fill-379" class="st18" d="M-1074.5-2018c0 .2.2.3.3.4.5.2 1.2.1 2-.2 1.2-.6 1.8-1.6 1.7-2.1 0-.2-.2-.3-.3-.4-.5-.2-1.2-.1-2 .2-1.2.6-1.9 1.5-1.7 2.1m1 1c-.3 0-.6-.1-.8-.2-.3-.1-.5-.4-.6-.7-.3-.9.6-2.1 1.9-2.8.9-.4 1.8-.5 2.4-.2.3.1.5.4.6.7.3.9-.6 2.1-1.9 2.8-.6.3-1.2.4-1.6.4"/><path id="Fill-381" class="st18" d="M-1167.9-2020.5c-.1 0-.3.1-.4.2-.2.3-.3.8-.1 1.4.2.9.8 1.5 1.4 1.5.1 0 .3-.1.4-.2.2-.3.3-.8.1-1.4-.3-.9-.9-1.6-1.4-1.5m.8 3.5c-.7 0-1.5-.8-1.8-1.8-.2-.7-.1-1.3.2-1.7.2-.2.4-.4.7-.4.8-.1 1.6.7 1.9 1.8.2.7.1 1.3-.2 1.7-.2.2-.4.4-.7.4h-.1"/><path id="Fill-383" class="st18" d="M-1131.5-2026.8c.1.1.2.2.3.2.3.1.7-.2 1.1-.6.6-.7.8-1.6.6-2.1-.1-.1-.2-.2-.3-.2-.3-.1-.7.2-1.1.6-.6.7-.9 1.7-.6 2.1m.4.8h-.1c-.3 0-.5-.2-.6-.5-.4-.7-.1-1.9.7-2.8.5-.5 1-.8 1.4-.7.3 0 .5.2.6.5.4.7.1 1.9-.7 2.8-.4.4-.9.7-1.3.7"/><path id="Fill-385" class="st18" d="M-1169.3-1987.6c-.6 0-1.4.5-1.9 1.2-.3.5-.4 1.1-.3 1.5.1.2.2.4.4.4.6.2 1.7-.3 2.2-1.1.3-.5.4-1.1.3-1.5-.1-.2-.2-.4-.4-.4-.1-.1-.2-.1-.3-.1m-1.4 3.6c-.2 0-.4 0-.5-.1-.3-.1-.6-.4-.7-.7-.2-.5-.1-1.2.3-1.8.7-1.1 1.9-1.6 2.8-1.3.3.1.6.4.7.7.2.5.1 1.2-.3 1.8-.6.9-1.5 1.4-2.3 1.4"/><path id="Fill-387" class="st18" d="M-1168.5-1951.4h-.5c-.7.1-1.2.5-1.5.9-.1.3-.2.5-.1.8.2.8 1.3 1.3 2.4 1.1.7-.1 1.2-.5 1.5-.9.1-.3.2-.5.1-.8-.1-.7-.9-1.1-1.9-1.1m-.1 3.4c-1.1 0-2.1-.6-2.4-1.5-.1-.4-.1-.8.2-1.2.3-.6 1-1 1.8-1.2 1.4-.2 2.6.4 2.9 1.5.1.4.1.8-.2 1.2-.3.6-1 1-1.8 1.2h-.5"/><path id="Fill-389" class="st18" d="M-1081.5-1962.4h-.5c-.7.1-1.2.5-1.5.9-.1.3-.2.5-.1.8.2.8 1.3 1.3 2.4 1.1.7-.1 1.2-.5 1.5-.9.1-.3.2-.5.1-.8-.1-.7-.9-1.1-1.9-1.1m-.1 3.4c-1.1 0-2.1-.6-2.4-1.5-.1-.4-.1-.8.2-1.2.3-.6 1-1 1.8-1.2 1.4-.2 2.6.4 2.9 1.5.1.4.1.8-.2 1.2-.3.6-1 1-1.8 1.2h-.5"/><path id="Fill-391" class="st18" d="M-1104.3-1967.5c-.5 0-1.1.3-1.5.7-.4.4-.7 1-.7 1.4 0 .2.1.4.2.6.5.4 1.4.2 2.2-.5.4-.4.7-1 .7-1.4 0-.2-.1-.4-.2-.6-.3-.1-.5-.2-.7-.2m-1.4 3.5c-.4 0-.7-.1-.9-.3-.3-.2-.4-.6-.4-1 0-.6.3-1.3.8-1.8.9-.9 2.1-1.1 2.8-.5.3.2.4.6.4 1 0 .6-.3 1.3-.8 1.8-.6.5-1.3.8-1.9.8"/><path id="Fill-393" class="st18" d="M-1154.1-1970.5c-.5 0-1.1.6-1.4 1.3-.2.5-.2 1 0 1.4.1.2.2.3.4.4.5.1 1.2-.5 1.5-1.3.2-.5.2-1 0-1.4-.1-.2-.2-.3-.4-.4h-.1m-.8 3.5h-.3c-.3-.1-.5-.3-.7-.6-.2-.5-.2-1.1 0-1.8.4-1.1 1.3-1.8 2-1.6.3.1.5.3.7.6.2.5.2 1.1 0 1.8-.3.9-1.1 1.6-1.7 1.6"/><path id="Fill-395" class="st18" d="M-1173.9-1962c-.1 0-.2 0-.2-.1-.1-.1-.1-.2.1-.3.4-.3.6-.7.5-1.1-.2-.7-1.3-1.1-2.4-1-.7.1-1.4.5-1.6 1-.1.1-.2.2-.3.1-.1 0-.2-.2-.1-.3.3-.6 1-1.1 1.9-1.2 1.4-.2 2.7.4 3 1.3.2.6-.1 1.2-.7 1.6h-.2"/><path id="Fill-397" class="st18" d="M-1138.9-2055.4c-.3 0-.6.2-.9.5-.6.6-.9 1.5-.8 2.1.1.2.1.3.3.3.3.1.7-.1 1.1-.4.6-.6.9-1.5.8-2.1-.1-.2-.1-.3-.3-.3-.1-.1-.1-.1-.2-.1m-1.2 3.4c-.1 0-.2 0-.3-.1-.2-.1-.4-.3-.5-.6-.3-.8.1-2 .9-2.8.5-.5 1-.7 1.4-.5.2.1.4.3.5.6.3.8-.1 2-.9 2.8-.3.4-.7.6-1.1.6"/><path id="Fill-399" class="st18" d="M-1153.3-2006.5c-.1 0-.2 0-.3.1-.4.2-.7.6-.8 1.1-.2.8 0 1.7.5 1.9.1.1.3 0 .5 0 .4-.2.7-.6.8-1.1.3-.9-.1-1.7-.5-1.9-.1-.1-.1-.1-.2-.1m-.4 3.5c-.1 0-.2 0-.4-.1-.8-.3-1.1-1.3-.8-2.4.2-.7.6-1.2 1.1-1.4.3-.1.6-.2.9-.1.8.3 1.1 1.3.8 2.4-.2.7-.6 1.2-1.1 1.4-.2.2-.3.2-.5.2"/><path id="Fill-401" class="st18" d="M-1134.1-1965.5h-.2c-.4.1-.7.5-1 1-.4.8-.3 1.7.1 2 .1.1.3.1.4 0 .4-.1.7-.5 1-1 .4-.8.3-1.7-.1-2h-.2m-.8 3.5c-.2 0-.3 0-.5-.1-.7-.4-.8-1.5-.3-2.5.3-.6.8-1.1 1.3-1.3.3-.1.6-.1.8.1.7.4.8 1.5.3 2.5-.3.6-.8 1.1-1.3 1.3h-.3"/><path id="Fill-403" class="st18" d="M-1051-2009.5h-.1c-.1 0-.2.1-.3.3-.2.3-.1.9.1 1.4.3.8 1 1.4 1.5 1.3.1 0 .2-.1.3-.3.2-.3.1-.9-.1-1.4-.4-.9-1-1.3-1.4-1.3m1 3.5c-.6 0-1.4-.6-1.8-1.6-.3-.7-.3-1.3-.1-1.8.1-.3.3-.5.6-.6.7-.2 1.6.5 2 1.5.3.7.3 1.3.1 1.8-.1.3-.3.5-.6.6 0 .1-.1.1-.2.1"/></g></svg>