<svg version="1.1" id="Layer_3" xmlns="http://www.w3.org/2000/svg" x="0" y="0" viewBox="0 0 270 220" xml:space="preserve" enable-background="new 0 0 270 220"><style>.st0,.st2,.st3,.st5,.st7,.st8,.st9{fill-rule:evenodd;clip-rule:evenodd;fill:#f8efea}.st2,.st3,.st5,.st7,.st8,.st9{fill:#fff}.st3,.st5,.st7,.st8,.st9{fill:#a1a1a1}.st5,.st7,.st8,.st9{fill:#fa9700}.st7,.st8,.st9{fill:#d8dbdc}.st8,.st9{fill:#c3c3c3}.st9{fill:#2f3541}</style><g id="Group-350" transform="translate(1291 1898)"><path id="Fill-1_00000054957068623886799730000003548258501996436922_" class="st0" d="M-1219-1839.5s.2-2.3.2-2.9v-2.2c0-.1-.1-1.8-.1-1.8s-3.3-2-3-4.5c.2-1.4 1.6-1.7 2.7-1.3.7.3 1.2 1 1.8 1.2 1.3.5 2.6-1.3 3.4-2.3 1.7-2.3 2.2-4.4 2.6-7.2.3-1.9.7-4.6 3.2-4 .4.1.9.3 1.3.5 3.7 1.9 4.8 6.7 5.5 10.5.4 2.4.8 4.9.4 7.4-.2 1.6-.7 4.6-1.8 5.9-1.1 1.2-2.1 1.4-3.8 1.3-.5 0-1.8-.1-1.8-.1s-.1 2.2-.4 2.9c-.1.4-.7.4-1 .4-1 .1-1.9.1-2.9-.1-1.8-.3-3.6-1-4.9-2.3-.3 0-1.4-1.4-1.4-1.4"/><path id="Fill-3_00000004519546530795105420000014316060995796423834_" class="st0" d="M-1170.9-1811.4s1-1.4 1.1-1.7c.2-.8-.1-2.2.1-3 .8-3.1 1.3-5.7 2.4-8.7.4-1 .8-2.1 1.4-3 .4-.5 1.1-1 1.3-1.7.7-2-2.9-2.8-4.1-3.4-.3-.1-1.6-.8-1.5-1.2.2-.6 1-.4 1.3-.4 1.2.2 3.5.3 4.6.5 1.1.2 1.4 1.2 1.9 2.5.6 1.3 2.7 4.5 2.3 6-.7 2.6-1.1 3.1-1.6 4.8-.6 2.2-.9 4.4-1.7 6.5-.8 2.2-1.8 6.3-4.6 6.5-1.2.1-2.6-1.3-3-2.3 0-.1.1-1.4.1-1.4"/><path id="Fill-5_00000164486195648043763290000013744254447924252829_" class="st0" d="M-1184.2-1819.8c2.9-1.1 6.9-2.4 8.6-5.4 1.4-2.5-.8-5.8 2.5-6.9 1.3-.4 3-.6 4.4-.3 3.5.8 9 1.7 8.8 6.2 0 .8-.2 1.6-.7 2.3-.5.8-1.9 1.1-2.7 1.5-2.2 1-3.8 1.3-5.9 2.5l-8.6 6.2-3.7 2.1s-2.5-1.1-3.2-3.2c-.7-1.9.5-5 .5-5"/><path id="Fill-7_00000083771694446102781570000012806282449720225409_" class="st0" d="M-1184.8-1815.5c-.1-.6-.5-2.4 0-3v3z"/><path id="Fill-9_00000113324404175841832850000013272210115962275982_" class="st0" d="M-1093.9-1779.4s-3.1-3.4-3.8-4.1c-2.8-2.7-5.9-5.1-8.6-7.8-1.5-1.5-3-3.1-4.5-4.6-2.1-2.1-4.2-4.3-6-6.6-.7-.9-.9-1.1-1.6-2-.1-.1-1.5-1.9-1.5-1.9s-.5 2.3-.8 2.8c-.9 1.6-2 3.1-3.2 4.5-1.3 1.5-4 5.8-4 5.8s2 1.7 2.5 2.1c1.9 1.3 3.2 2.3 5.2 3.3 1.4.7 3 1.6 4.2 2.3 2.7 1.5 4.8 2.6 7.5 4.4 1.5 1.1 3.4 2.6 4.8 3.8.4.4 2.3 1.9 2.3 1.9s1.1-1.3 1.8-1.7c1.4-.6 5.7-2.2 5.7-2.2"/><path id="Fill-11_00000108999031081308588430000015921879397694434995_" class="st0" d="M-1125-1827.8s1-.1 2-.3c1.9-.4 4.4-1.2 6.2-1.6 7-1.8 13.7-3.8 20.4-6.7 2.2-.9 7.9-3.1 7.9-3.1s-.1 1.2 0 1.5c.2.9.6 2.5.5 4-.1 1.6-.7 3.1-.7 3.1s-1.9.4-2.7.8c-2.2.9-4.6 1.9-6.7 3.1-3.2 1.8-6.3 3.9-9.4 5.7-2.6 1.5-4.9 3.2-7.8 4.4-2.3 1-3.9 1.6-6.2 2.4-.4.2-4.4 1.1-4.4 1.1s.2-2.4.3-3.4c.2-2.7.9-5.2 1.2-7.8 0-.5-.6-3.2-.6-3.2"/><path id="Fill-13_00000092453935074246388340000001306428967217781143_" d="M-1217.1-1868.5c2.4-.2 4.4.7 6.8 1.4.8.2 1.4 0 2.2.3 2.8 1.1 5 3.8 6.2 6.7 1.3 3.1 1 4 .8 6.2-.2 2.2-1.3 3.2-1.3 3.2s.2 1.1-.4-2.4c-.5-3.2-1.6-6.9-3.2-8.5-1.4-1.5-1.9-1.5-3.5-1.9-.5-.1-1.3 0-1.7.4-1 .8-.7 2.9-.9 4-.5 2.4-1.4 6.1-3.4 7.7-.6.5-2 1.2-2.8 1.1-.3 0-.6-.7-.8-.9-.9-1.1-2.7-1.5-3.3.1-.6 1.5.6 3.7 1.8 4.5.3.2 1.1.2 1.1.2l-.2 2.8c-2.6.2-3.8-.9-4.9-2.3-.5-.6-1.1-2.8-1.9-5.4 0-.3-2.1-.9-2.9-2.3-.8-1.4-.2-3.4-.2-3.4s-.8-4-.1-6.4c.8-2.4 3.2-3.2 3.2-3.2s1.1-1 2.5-1.5 2.8 1 2.8 1 1-.6 1.8-.9c.9-.2 1.5-.4 2.3-.5" fill-rule="evenodd" clip-rule="evenodd" fill="#f4a19b"/><path id="Fill-15_00000101071537604776774410000001103543730490076846_" class="st2" d="M-1202.9-1845.5s-.1.7-.3 1c-.3.6-.8 1.6-1.4 1.9-.7.2-1.7-.1-2.4-.8-.5-.5-.9-1.4-.9-1.4s1-.2 1.2-.2c1 0 2-.4 2.9-.4.2 0 .8.1.9-.1"/><path id="Fill-17_00000180365619646443706360000006029455636510665605_" class="st3" d="M-1230.9-1833.5s-3.5.7-4.7.9c-3.3.6-7.1 1.3-10.3 1.9-1.3.2-3.1.4-3.9 1.5-.4.5.8 1.5 1.1 1.8 1.2 1.1 2.3 1.2 3.6 2.1.3.2 1.1.9 1.5.9.5-.1 2.2-2.1 2.1-2.6-.1-.3-1.6-1.2-1.6-1.2l10.7-1.9 1.5-3.4z"/><path id="Fill-19_00000026147245970571970680000008280930873192590257_" class="st2" d="M-1170.3-1811.9s-.5 1.1-.4 1.8c.1 1 .3 1.3 1.5 2.2 1.2.9 3.2.1 3.2.1s-6.1 6.6-11.9 12.1c-3.3 3.1-6.9 6-8.6 7.7-3.7 3.7-6.3 7.5-8.5 12.3-.5 1.1-1.8 4.9-1.8 4.9s-1.3.7-2.1 0c-.6-.4-1.1-2-1.3-2.4-.3-.5-1.6-1.5-2.1-1.8-.9-.6-1.6-1.3-2.2-2.1-1.1-1.4-.9-2.7-1.3-4.3-.3-1.1-1.1-2-1.8-2.9-2.9-4.2-6-8-8.8-12.2-2.3-3.5-4.5-7.5-6.5-11.2-1.6-3-3.8-7-4.9-10.2-1.6-5-4.2-8.6-2.8-14.1.8-3.2 6.8-2.5 9-3.7.4-.2 1.5-.9 1.5-.9s.5-1.7.4-2.2c-.1-.8.3-1.5.6-1.6.3-.1.8.8.8.8s-.1.2.6.8c1.7 1.4 3.9 2.4 6 2.7.7.1 2.4.5 2.9.5s.8-.3.8-.3l.2-2s1.2.2 2.1 1.5c.3.5 0 1.1.3 1.8.2.6 1.7 1.2 2.1 1.3 4.4 1.1 7.3-.4 10.7 2.5 2.7 2.3 4.5 6.3 6.4 9.3.2.3 1 1.4 1 1.4s1.1.3 1.1.5-.6.8-.7 1.1c-.2 1-.1 2.3.2 3.2.4 1.2 1.2 2.8 2 3.8.3.3 1.9.1 1.9.1v1.2l3.1 4.9s2.9-2.1 4.5-3.5c.7-.6.6-1.4 1.3-2.1.6-.9 1.5-1 1.5-1"/><path id="Fill-21_00000041279933055457458780000013818416632026082723_" d="M-1154.3-1773c3.1.4 6.7.6 9.8 1.1 1.2.2 7.4.8 7.4.8.4.5 0 1.1 0 1.1s-3.1 1.2-4.2 1.8c-1.3.6-2.6 1.4-3.9 1.9-2.4 1-5.7 2.6-7.7 3.7-.9.5-8.8-.5-13.3-1-8.2-.9-16.4-1.6-24.5-2.6-3.4-.4-3.4-.2-3.4-.2s.4 2.1 0 2.1c-3.9-.4-19.8-2.3-19.8-2.3l-.1-1.7-6.5-.5c-.3 0-1.3-.1-1.4-.4 0-.1.2-.2.4-.3.3-.1.6-.1.9-.1 1.7-.2 3.3-.6 5-.9 3.5-.7 13.7-2.5 13.7-2.5s6.2-.8 10.8-1.5c6.3-.9 12.7-1.9 19.1-2 4.5-.1 12.3 2.8 12.3 2.8l5.4.7z" fill-rule="evenodd" clip-rule="evenodd" fill="#c5cbcc"/><path id="Fill-23_00000156560630342653300610000012448462908340574601_" class="st5" d="M-1196.9-1771c4.1 4.2 11.6 3.7 17.1 3 2-.3 5.2-1.2 5.2-1.2s3.5.5 6.8.2c1.9-.2 3.8-.9 4.9-1.5 5-3.1 8.1-9.2 11.1-14.1 2.2-3.6 6.9-15 6.9-15l1.6-.8.9-1.9s1.1-.4 2.3.4c1.5 1 3.2 3.3 4 4.3.5.7 1.7 2.1 2.1 2.9.3.6 2.6 3.8 3.3 4.1.5.2 1.4-.4 1.8-.8.7-.6 1.6-1.7 2.5-2.8 1.1-1.3 2.1-3.4 2.1-3.4s2.3 1.3 3.2.8c.9-.4 1-1.1 1.3-2.3.7-3 .8-7.4 1-10.4.1-1.1 0-5.9 0-5.9s-1.6.6-2 .7c-1.3.3-3.2.7-3.2.7l.2-8 .7-6.1 1.2-.2s-.2-.6-1.3-1c-1-.4-5.8 1.2-6.1 1.3-5.4 1-9.6 1.5-15 2.5-5.2 1-8.7 4.2-12.1 7.7-5.1 5.4-10.5 10.8-16 16.4-1.4 1.4-3.5 3.4-4.8 4.7-4.6 4.8-9.1 7.3-12.8 12.8-1.9 2.7-3.7 5.5-4.7 7.7-1.3 2.1-2.2 5.2-2.2 5.2"/><path id="Fill-25_00000158714624709301351250000000054289025286301106_" class="st2" d="M-1077.1-1762c.5.4-.2 1.3-.3 1.5-.6 2.1-2.7 2-4.8 1.8-4.3-.3-7.5-1.8-11.4-3.4-2.1-.8-5.2-2.6-6.6-3.2-1.4-.6-3-1.2-4.3-1.8-.4-.2-1.6-.6-1.5-1.2.1-.6.6-1.9 1.1-2.3.3-.2 1.2.6 1.5.7 1.7.5 4 1.8 5.6 2.4 2 .8 5.1 2.2 8.2 3.1 2.5.7 5.1.9 7.6 1.2 1.5.3 4.3.8 4.9 1.2"/><path id="Fill-27_00000023261558398660515450000002024178504517630652_" class="st2" d="m-1095.5-1780.5 3.6 3.8s-1.2.6-1.6 1c-1.9 1.4-3.6 2.7-6.3 2-.3-.1-1.7-.6-1.7-.6s.2-.3-.1-.9c-.4-.6-1.3-1.5-1.3-1.5s1.4-1 1.8-1.2c1-.5 2.1-1.2 3.5-2 1.1-.4 2.1-.6 2.1-.6"/><path id="Fill-29_00000163062241530041106220000005810328459574057611_" class="st2" d="M-1063.4-1853.1c.5.4.4.3.4 1.3 0 2.3-.5 4.1-1.4 6.3-1.7 4.1-4.9 6.6-7.5 10-1.5 1.9-3.1 4.6-4.5 6.5-1.4 1.7-3 4.9-5.3 2.7-.6-.5-1.2-1.3-1.2-1.3s2.5-4.4 3.5-5.7c2.1-2.6 5-5.9 7-8.4 2.1-2.7 3.2-5.5 4.7-8.9.4-1.3 2.6-3.9 4.3-2.5"/><path id="Fill-31_00000046335166396018998530000006195548850985442475_" class="st2" d="M-1082.4-1840.5s.7 1.7.3 3.5c-.6 2.2-2.6 5.5-3 6.2-.4.7-.5.8-.5.8l-4.3.4s.6-1.3.7-1.5c.2-.9.1-1.7.1-2.6.1-1.7-.9-3.5-.9-3.5s3-1.3 3.7-1.6c.4-.1 3.9-1.7 3.9-1.7"/><path id="Fill-33_00000068670772353883456820000004284228669042070145_" class="st5" d="M-1093-1776.5s6.4 8.5 10 11.2c1.4 1.1 2.5 1.2 3.8 2.5 0 0 1.4 1.3 1.3 1.3-.2.1-1.4-.3-1.6-.3-1.5-.1-2.7-.4-4.2-.5-5.2-.2-8.9-2.4-13.7-4.2-1.6-.6-3.6-1.9-5.2-2.5-.6-.2-2.3-.9-2.3-.9s.1-.6.3-1.3c.5-1.3 1.7-2.9 1.7-2.9s1.7.6 2.4.7c.6.1 2 .2 3.1-.2.9-.3 1.9-1.6 2.9-2.3.6-.5 1.5-.6 1.5-.6"/><path id="Fill-35_00000139986304312850354620000004895178649313633193_" class="st5" d="M-1082.5-1827.5s.4-.9.8-1.7c.9-1.5 1.9-3.1 3-4.3 3.6-4.1 6.7-6.9 9.2-11.7.6-1.3 1.1-1.9 1.6-3.3 0-.1 1-2.1 1-2.1s-1.9 1.2-2 1.3c-1.3 1.1-2.1 1.6-3.5 2.6-2.9 2-10 5.7-10 5.7s.3 1.2.3 1.5c0 1.2.3 1.7-.3 2.7-.7 1.3-.9 2.1-1.7 3.1-.3.4-1.9 2.8-1.9 2.8s1.7.8 2.2 1.6c.2.3 1.3 1.8 1.3 1.8"/><path id="Fill-37_00000137123385181649766940000000367301626566595985_" d="M-1164.1-1829.5s-.4-.7-.5-.8c-.3-.3-1.1-.5-1.5-.7-.6-.2-2.4-.5-3.2-1.2-.2-.2-.2-.5-.1-.8.1-.2.9-.2 1.1-.2.4 0 .9.3 1.5.3 1.2.2 2.7.2 2.7.2s.4-4.4 0-5.4c-.3-.7-1.3-.4-1.8-.3-1.5.3-5 .3-5.6.9-.5.5-.3 2.3-.3 2.8 0 1 .1 2.1 0 3.1v1.8s2.2.1 2.5.1c1.5.1 5.2.2 5.2.2" fill-rule="evenodd" clip-rule="evenodd" fill="#898989"/><path id="Fill-39_00000051347736477495954970000007173666986378369672_" class="st7" d="M-1163.3-1721.2s-1.3.3-1.7.6c-.2.1-.7.2-.8.6-.2.7-.1 1.9 0 2.2.1 1 .1 1.9.2 2.9.1.5.5 2.4.8 2.4.5.1.5-1 .6-1.1.5-1.3.6-2.5 1.5-3.6.5-.6 1.1-.7 1.8-1 .7-.3 3-.2 3-1.2 0-.2.2-1.3.1-1.7-.1-.7-.7-1.2-.7-1.2s0-1.1-.2-1.6c-1.4-3.8-4-5.7-6.7-8.6-1.6-1.7-3.2-3.2-4.8-4.8-6.2-5.9-11.8-11.9-18-17.7-1.4-1.3-3.4-3.2-4.9-4.5-2.6-2.4-6.4-5.4-6.4-5.4l-11.7-1.5s-4.1 3.9-6 7.5c-.9 1.8-2.6 5.1-3.6 6.9-1.4 2.5-2.5 4.9-4 7.3-1.1 2-1.4 2.9-2.5 4.9-.7 1.3-2.7 5.6-2.7 5.6s-1.9.4-2.4 1.1c-.8 1.2-.3 1.7-.3 3.2 0 .9.1 2.3.4 3.1 0 .1.5.7.7.8.2.1.7-3 1.2-3.6.2-.3.4-.9.8-1 .4-.2 2.5.2 3-.5.8-.9.2-2.7.2-2.7s.2-.8 1.1-2.2c1.3-2.1 1.7-3.2 2.9-5.4 1-1.8 2.6-4.7 3.5-6.5 1.1-2.2 2.6-5 3.8-7.1 1.5-2.6 3.3-5.9 6-7.6.3-.2.6-.6 1-.8 2-.9 2.8-.3 4.7.7.6.3 1.7 1.1 2.4 1.5 1.8 1 3.7 3.1 5.3 4.4 6.9 5.6 12.9 10.6 18.9 17 2.2 2.3 4.4 4.5 6.6 6.7.7.7 1.4 1.5 2.1 2.2.6.6 1.1 1.3 1.7 1.9 1.1 1.1 2.7 3.1 3.5 4.7.6 1.3.6 2.2.6 2.2s-.8 0-1 .9"/><path id="Fill-41_00000074440078297267467780000016768097099154571673_" class="st7" d="M-1158.3-1762.8c0 .1.7 1 .9 1.3.6.8 1.3 1.6 2 2.4 1.9 2.3 3.8 4.8 5.4 7.4 3.3 5.5 8.3 10.3 10.8 16.2.4.9.4 2.8.4 2.8s.6.4.6 1.1c0 0 .4 1.3.2 1.6-.3.7-1.1 1.1-2 1.2-.9.1-1.9 0-2.4.6-.6.7-1.1 2.9-1.6 3.6-.2.3-.4.8-.7 1-.4.2-.5-1-.5-1.2-.2-1.1-.1-2.5-.1-3.6 0-.5-.1-1.6.4-2.5.5-.8 1.5-.9 1.5-.9s-.3-.4.2-.9c.3-.3.7-.3.7-.3s.1-.6-.1-1.5c-.1-.5-.5-1.2-.7-1.7-.4-1-1.1-2-1.7-3-1.1-1.8-2.3-3.5-3.4-5.2-2.5-3.8-5.3-7.7-8.2-11.2-1.5-1.7-2.9-3.5-4.4-5.2-.6-.7-1.9-1.6-2.1-2.5 0-.3.8-.2 1-.2.9 0 1.9.1 2.7.3.4 0 1 .1 1.1.4"/><path id="Fill-43_00000149369052021805538580000015882286650763747514_" class="st7" d="M-1181.9-1765.2s-3.2 6.9-4.5 10.2c-.6 1.5-1.8 4.8-1.8 4.8s0 2-.5 2.4c-.7.6-2.1.3-2.8.7-1.3.7-1.2 1.6-1.7 3-.1.4-.2.8-.4 1.2 0 .1-.3.5-.4.3-.3-.3-.3-.5-.4-.9-.2-1.2-.7-4.1-.3-5.4.1-.4.3-.7.8-1 .5-.3 1.5-.8 1.5-.8s.7-2.1 1.2-2.9c.9-1.7 5.5-12 5.5-12l3.8.4z"/><path id="Fill-45_00000094613917966181218870000014611936925463339659_" class="st7" d="M-1168.9-1736.8s.2-.1 1.2-.5 15.7-5.4 17.4-5.8c.6-.2 1.4-.5 2.1-.3.4.1.7.3.9.5.6.6.5 1.4 0 1.9-.4.4-1.7.8-2.2 1-1.7.5-16.9 5.5-16.9 5.5l-2.5-2.3z"/><path id="Fill-47_00000116925444737108405570000004009053265276501170_" class="st3" d="M-1139.3-1730.3c.2.4.5.7.7 1.1.3.7.4 1.4.5 2.2.3 1.9.3 3.9-.7 5.5-.8 1.3-2.2 1.8-3.6 2-.4 0-1.2.2-1.5-.1-.1-.1 0-.3.1-.3.3-.2.6-.6.7-.9.4-1.1.9-2 1-3.2.1-1.6-.3-2.9-.7-4.4-.1-.3-.6-1.3-.3-1.6.4-.4 1.5-.3 2-.3.3 0 .9-.2 1.2-.1l.6.1z"/><path id="Fill-49_00000069399217161664479470000015680769367463875999_" class="st3" d="M-1158.4-1718.5c.8.7 1.1 2.1 1.2 3 .3 2.1.4 4.4-.8 6.3-.7 1.1-2.1 1.4-3.4 1.6-.4.1-.9.1-1.2 0 0 0-.4-.1-.4-.2s.3-.2.4-.3c.3-.3.7-.7.9-1.1.7-1.3.8-2.8.5-4.2-.2-1-.5-1.9-.9-2.8-.1-.4-.4-.8-.4-1.2.1-.9 1.8-.9 2.5-1 .2 0 .8.1 1-.1h.6z"/><path id="Fill-51_00000149372269258141905170000000907762471842036156_" class="st3" d="M-1187.2-1747.5c.2.2.3.5.4.8.2.5.4 1.1.5 1.6.3 1.4.8 3.3-.1 4.7-.4.6-.9 1-1.6 1.3-.3.2-.7.3-1.1.4-.5.1-1.1.3-1.6.2-.5-.1-.1-.5 0-.7.6-.8.9-1.7.9-2.7.1-1.2-.3-2.5-.6-3.7-.1-.3-.5-1.1-.2-1.4.3-.3.8-.2 1.2-.2.5-.1 1.2 0 1.7-.3h.5z"/><path id="Fill-53_00000119087550102351062550000016131843180700313268_" class="st3" d="M-1225.9-1731.4c0-.4.5 1 .5 1 .3.9.4 1.7.4 2.6-.1 1.7-.5 3.7-2.4 4.6-.5.2-1 .4-1.6.5-.4.1-1.5.3-1.9 0-.2-.1 0-.3 0-.4.2-.3.6-.5.9-.8.5-.5.7-1.5.8-2.1.2-1.1.2-2.4-.1-3.5-.1-.4-.3-.8-.4-1.1 0-.1-.2-.3-.1-.4.1-.2.8-.1 1.1-.1.9 0 1.7-.1 2.5-.4l.3.1z"/><path id="Fill-55" class="st8" d="M-1229.8-1729.9c.1 0 .2.4.3.5.2.5.4 1.1.5 1.6.3 1.4.2 3.1-.8 4.2-.5.6-1.3 1.2-2.2 1-1.1-.2-1.7-1.2-2.1-2-.3-.7-.4-1.4-.5-2.1-.2-1.6-.5-3.3.9-4.6.1-.1.6-.3.7-.2.2.1.2 1 .3 1.1.2 1 .5 2.1.7 3.2 0 .2.1.9.4 1 .3.1.4-.7.5-.9.2-.5.3-1.1.4-1.6.1-.2.1-.6.2-.7l.5-.5h.2z"/><path id="Fill-57" class="st8" d="M-1192-1746.7c.5.4.6 1.1.8 1.6.3 1 .3 2 .3 3.1 0 .6 0 1.2-.2 1.7-.4.9-1.3 1.8-2.5 1.7-3.2-.4-3.3-3.4-3.3-5.7 0-1 0-2.3.9-3.1.7-.6.9.1 1 .7.3 1 .3 2 .5 3 0 .2 0 1 .3 1 .3.1.5-.9.5-1 .1-.8.4-1.7.7-2.4.1-.2.3-.6.5-.7l.5.1z"/><path id="Fill-59" class="st8" d="M-1162.2-1716.5c.5-.1.2 0 .6.8.2.4.3.8.4 1.2.1.4.2.7.2 1.1v1.3c0 .3-.1.6-.1.9-.2 1-.6 2.6-2.1 2.7-.8 0-1.8-.2-2.4-.6-.6-.5-.7-1.5-.8-2.2-.4-1.5-.8-2.9-.4-4.4.2-.6.4-1.3 1-1.7.2-.1.2.1.2.2.1.3.2.5.2.8l.6 3c0 .2.1.9.4.9.1 0 .2-.1.3-.2.1-.3.2-.6.3-.8.4-1.1.3-2.6 1.6-3"/><path id="Fill-61" class="st8" d="M-1143-1729.1c.2.1.2.5.3.7.3.7.4 1.3.5 2.1.3 1.8.4 3.5-.4 5.2-.6 1.1-1.4 1.8-2.7 1.7-1.1-.1-1.9-1.3-2.2-2.3-.5-1.8-.6-3.9-.4-5.8.1-1 .3-2.2 1.2-2.8.7-.5.8.6.8 1.1.1 1.2.2 2.3.2 3.5 0 .3-.1 1 .3 1.1.3.1.6-.6.6-.8.2-.7.5-1.6.9-2.3.1-.2.6-.8.6-1l.3-.4z"/><path id="Fill-63" class="st9" d="M-1150.7-1803.5c-.1 0-.3-.1-.3-.2s.1-.2.2-.3l5.4-.5c.2 0 .3.1.3.2s-.1.2-.2.3l-5.4.5c.1 0 .1 0 0 0"/><path id="Fill-65" class="st9" d="M-1152.6-1762.5c-.1 0-.3-.1-.3-.2-.1-.2 0-.4.2-.4l17.3-7.4c.2-.1.4 0 .5.2.1.2 0 .4-.2.4l-17.3 7.4h-.2"/><path id="Fill-67" class="st9" d="M-1136.6-1770.5c-.2 0-.4-.2-.4-.3l2.3-22.4c0-.2.2-.3.4-.3s.4.2.3.3l-2.3 22.4c.1.2-.1.3-.3.3"/><path id="Fill-69" class="st9" d="M-1151.6-1762.5c-.2 0-.3-.1-.3-.3l1.4-39.4c0-.2.1-.3.3-.3.2 0 .3.1.3.3l-1.4 39.4c0 .2-.1.3-.3.3"/><path id="Fill-71" class="st9" d="M-1228.2-1818.5c-.1 0-.1 0 0 0l-8.4-1.4c-.2 0-.3-.2-.3-.3 0-.2.2-.3.4-.2l8.4 1.4c.2 0 .3.2.3.3-.2.1-.3.2-.4.2"/><path id="Fill-73" class="st9" d="m-1151.3-1803.5-31.4-6.4c-.2 0-.3-.2-.2-.4 0-.2.2-.3.4-.2l31.4 6.4c.2 0 .3.2.2.4-.1.1-.2.2-.4.2"/><path id="Fill-75" class="st9" d="M-1171.2-1811.5c-.1 0-.1 0 0 0l-6.5-2.2c-.2-.1-.3-.3-.2-.5 0-.2.2-.4.4-.3l6.4 2.2c.2.1.3.3.2.5-.1.2-.2.3-.3.3"/><path id="Fill-77" class="st9" d="M-1236.6-1820.5c-.2 0-.3-.1-.3-.2s.1-.3.3-.3l5.4-.5c.2 0 .3.1.3.2s-.1.3-.3.3l-5.4.5"/><path id="Fill-79" class="st9" d="m-1153.3-1762.5-40.4-4.3c-.2 0-.3-.2-.3-.4s.2-.3.4-.3l40.4 4.3c.2 0 .3.2.3.4-.1.2-.2.3-.4.3"/><path id="Fill-81" class="st9" d="m-1213.2-1768.5-7.4-1.1c-.2 0-.3-.2-.3-.5 0-.2.2-.4.3-.4l7.4 1.1c.2 0 .3.2.3.5-.1.2-.2.4-.3.4"/><path id="Fill-83" class="st9" d="m-1136.3-1770.5-21.4-2.4c-.2 0-.3-.2-.3-.3 0-.2.2-.3.4-.3l21.4 2.4c.2 0 .3.2.3.3-.1.2-.2.3-.4.3"/><path id="Fill-85" class="st9" d="M-1220.6-1768.5c-.1 0-.3-.1-.3-.3 0-.2.1-.4.2-.4l19.4-4.3c.2 0 .3.1.4.3 0 .2-.1.4-.2.4l-19.5 4.3"/><path id="Fill-87" class="st9" d="M-1138.6-1769.5c-.2 0-.3-.2-.3-.3l1.3-28.4c0-.2.2-.3.3-.3.2 0 .3.2.3.3l-1.3 28.4c0 .2-.1.3-.3.3"/><path id="Fill-89" class="st9" d="M-1149.5-1764.5c-.2 0-.4-.1-.4-.3l1.2-38.4c0-.2.2-.3.4-.3s.4.1.4.3l-1.2 38.4c0 .2-.2.3-.4.3"/><path id="Fill-91" class="st9" d="M-1145.5-1766.5c-.2 0-.4-.1-.4-.3l1.2-37.4c0-.2.2-.3.4-.3s.4.1.4.3l-1.2 37.4c0 .2-.2.3-.4.3"/><path id="Fill-93" class="st9" d="M-1142.6-1768.5c-.2 0-.4-.2-.4-.3l1.3-33.4c0-.2.2-.3.4-.3s.4.2.4.3l-1.3 33.4c0 .2-.2.3-.4.3"/><path id="Fill-95" class="st9" d="m-1153.2-1776.5-73.4-7.4c-.2 0-.3-.2-.3-.3 0-.2.2-.3.4-.3l73.4 7.4c.2 0 .3.2.3.3-.2.2-.3.3-.4.3"/><path id="Fill-97" class="st9" d="M-1152.2-1785.5c-.1 0-.1 0 0 0l-77.4-12.4c-.2 0-.3-.2-.3-.4s.2-.3.4-.3l77.4 12.3c.2 0 .3.2.3.4-.2.3-.3.4-.4.4"/><path id="Fill-99" class="st9" d="M-1219.2-1807.5c-.1 0-.1 0 0 0l-13.4-2.4c-.2 0-.3-.2-.3-.4s.2-.3.4-.2l13.4 2.4c.2 0 .3.2.3.4-.2.1-.3.2-.4.2"/><path id="Fill-101" class="st9" d="m-1151.3-1794.5-44.4-8.4c-.2 0-.3-.2-.3-.4s.2-.3.4-.3l44.4 8.4c.2 0 .3.2.3.4-.1.2-.2.3-.4.3"/><path id="Fill-103" class="st9" d="M-1152.6-1776.5c-.2 0-.3-.1-.3-.3 0-.2.1-.4.3-.4l17.3-4.3c.2 0 .4.1.4.3 0 .2-.1.4-.3.4l-17.4 4.3c.1 0 0 0 0 0"/><path id="Fill-105" class="st9" d="M-1152.6-1786.5c-.2 0-.3-.1-.3-.2s.1-.3.3-.3l17.3-2.5c.2 0 .4.1.4.2s-.1.3-.3.3l-17.4 2.5"/><path id="Fill-107" class="st9" d="M-1151.6-1795.5c-.2 0-.3-.1-.3-.3 0-.2.1-.3.3-.3l14.4-1.4c.2 0 .3.1.4.3 0 .2-.1.3-.3.3l-14.5 1.4"/><path id="Fill-109" class="st9" d="M-1155.6-1762.5c-.2 0-.3-.1-.3-.3l.3-40.4c0-.2.2-.3.3-.3.2 0 .3.1.3.3l-.3 40.4c0 .2-.1.3-.3.3"/><path id="Fill-111" class="st9" d="M-1160.2-1764.5c-.1 0-.3-.1-.3-.3l-.5-40.4c0-.2.1-.3.3-.3.1 0 .3.1.3.3l.5 40.4c0 .2-.2.3-.3.3z"/><path id="Fill-113" class="st9" d="M-1162.3-1762.5c-.2 0-.3-.1-.3-.3l-1.3-41.4c0-.2.1-.3.3-.3.2 0 .3.1.4.3l1.3 41.4c0 .2-.2.3-.4.3z"/><path id="Fill-115" class="st9" d="M-1166.2-1762.5c-.2 0-.3-.1-.3-.3l-1.4-43.4c0-.2.1-.3.3-.3.2 0 .3.1.3.3l1.4 43.3c0 .2-.2.4-.3.4z"/><path id="Fill-117" class="st9" d="M-1170.3-1763.5c-.2 0-.3-.1-.3-.3l-1.4-43.4c0-.2.1-.3.3-.3.2 0 .3.1.3.3l1.4 43.4c.1.1-.1.3-.3.3z"/><path id="Fill-119" class="st9" d="M-1173.3-1764.5c-.2 0-.4-.1-.4-.3l-2.2-43.4c0-.2.2-.3.4-.3s.4.1.4.3l2.2 43.4c0 .1-.2.3-.4.3z"/><path id="Fill-121" class="st9" d="M-1179.2-1765.5c-.1 0-.3-.1-.3-.3l-2.5-43.4c0-.2.1-.3.2-.3s.3.1.3.3l2.5 43.4c.1.1 0 .3-.2.3z"/><path id="Fill-123" class="st9" d="M-1182.2-1765.5c-.1 0-.2-.1-.2-.3l-2.5-41.4c0-.2.1-.3.2-.3s.3.1.3.3l2.5 41.4c0 .1-.1.3-.3.3z"/><path id="Fill-125" class="st9" d="M-1187.2-1766.5c-.1 0-.2-.1-.2-.3l-2.5-39.4c0-.2.1-.3.2-.3s.3.1.3.3l2.5 39.4c0 .1-.1.3-.3.3z"/><path id="Fill-127" class="st9" d="M-1191.2-1767.5c-.1 0-.2-.1-.3-.3l-2.5-37.4c0-.2.1-.3.2-.3s.3.1.3.3l2.5 37.4c.1.1 0 .3-.2.3z"/><path id="Fill-129" class="st9" d="M-1195.2-1768.5c-.1 0-.2-.1-.2-.3l-2.5-34.4c0-.2.1-.3.2-.3s.2.1.3.3l2.5 34.4c0 .1-.1.3-.3.3"/><path id="Fill-131" class="st9" d="M-1221.3-1768.5c-.1 0-.3-.1-.3-.2l-15.4-51.4c-.1-.2 0-.3.2-.4.2-.1.4 0 .4.2l15.4 51.4c.1.2 0 .3-.3.4.1 0 .1 0 0 0"/><path id="Fill-133" class="st9" d="M-1218.3-1768.5c-.1 0-.3-.1-.3-.2l-12.4-49.4c0-.2.1-.3.2-.4.2 0 .3.1.4.2l12.4 49.4c.1.2 0 .3-.3.4.1 0 .1 0 0 0"/><path id="Fill-135" class="st9" d="M-1215.2-1768.5c-.1 0-.3-.1-.3-.3l-8.4-44.4c0-.2.1-.3.2-.4.2 0 .3.1.4.2l8.4 44.4c0 .3-.1.5-.3.5"/><path id="Fill-137" class="st9" d="M-1212.2-1769.5c-.1 0-.2-.1-.3-.3l-5.4-35.4c0-.2.1-.3.2-.4.2 0 .3.1.3.3l5.4 35.4c.1.2 0 .4-.2.4"/><path id="Fill-139" class="st9" d="M-1207.3-1768.5c-.2 0-.3-.1-.3-.3l-5.3-32.4c0-.2.1-.3.3-.4.2 0 .4.1.4.3l5.3 32.4c0 .2-.1.4-.4.4"/><path id="Fill-141" class="st9" d="M-1202.3-1768.5c-.2 0-.3-.1-.3-.3l-4.3-30.4c0-.2.1-.3.3-.4.2 0 .3.1.4.3l4.3 30.4c0 .2-.1.4-.4.4.1 0 0 0 0 0"/><path id="Fill-143" class="st9" d="M-1198.3-1768.5c-.2 0-.3-.1-.4-.3l-4.3-32.4c0-.2.1-.3.3-.3.2 0 .4.1.4.3l4.3 32.4c.1.1-.1.3-.3.3"/><path id="Fill-145" class="st9" d="M-1207.1-1846.4c.4.5 1.2 1.5 2.7 1.4 1.2-.1 1.6-1.2 1.7-1.8-.6.1-1.5.3-1.9.3-.7 0-1.8.1-2.5.1m2.5 1.9c-2.3 0-3.2-2-3.3-2.1v-.2c.1-.1.2-.1.3-.1 0 0 2-.1 3-.2.6-.1 2.3-.4 2.3-.4.1 0 .2 0 .3.1.1.1.1.1.1.2s-.1 2.5-2.4 2.7h-.3"/><path id="Fill-147" class="st9" d="M-1158.4-1721.5h-.1c-.2-.1-.2-.2-.2-.4 0-.1.6-1.8-1.3-4.3-6-8-22.6-24-31.9-32.8-2.8-2.6-5-4.5-7-5.8-.1-.1-.2-.3-.1-.4.1-.1.3-.2.4-.1 2 1.4 4.2 3.2 7.1 5.9 9.3 8.8 25.9 24.9 32 32.9 2.1 2.8 1.4 4.8 1.4 4.9 0 0-.1.1-.3.1"/><path id="Fill-149" class="st9" d="M-1229.6-1734.5h-.1c-.2-.1-.2-.3-.1-.4.1-.1 5.3-11.3 9.5-19.2.2-.4.5-.9.8-1.5 1.7-3.4 4.5-9 8.1-11.7.1-.1.3-.1.4.1.1.1.1.3-.1.4-3.5 2.6-6.3 8.2-8 11.5-.3.6-.6 1.1-.8 1.5-4.2 7.9-9.5 19.1-9.5 19.2 0 0-.1.1-.2.1"/><path id="Fill-151" class="st9" d="M-1161.3-1722.5c-.2 0-.3-.2-.3-.4 0 0 .3-1.7-1.8-4-5.5-6.3-16.4-16.8-27.6-26.7-.7-.6-1.4-1.2-2-1.8-4.5-4.1-8.5-7.6-11.9-8.4-4.1-.9-9.4 9.1-11.7 13.4l-.6 1.2c-4.3 7.8-8.1 15.3-8.1 15.4-.1.2-.3.2-.4.1-.2-.1-.2-.3-.1-.4 0-.1 3.9-7.6 8.2-15.4.2-.3.4-.7.6-1.1 2.5-4.8 7.9-14.8 12.4-13.7 3.6.8 7.4 4.2 12.1 8.5.7.6 1.3 1.2 2 1.8 11.2 10 22.1 20.5 27.6 26.8 2.3 2.6 2 4.5 2 4.6-.1 0-.2.1-.4.1"/><path id="Fill-153" class="st9" d="M-1139.3-1733.5c-.2 0-.3-.2-.3-.3.1-.6.2-1.9-.9-3.7-2.8-4.8-8.8-12.8-18.4-24.4-.1-.1-.1-.3.1-.4.1-.1.3-.1.4 0 9.6 11.7 15.6 19.7 18.4 24.5 1.2 2 1 3.5.9 4.1.1.1 0 .2-.2.2"/><path id="Fill-155" class="st9" d="M-1189.6-1757.5h-.1c-.2-.1-.3-.3-.2-.4l1.9-3.7c.8-1.6 1.6-3.1 2.4-4.7.1-.2.3-.2.5-.2.2.1.3.3.2.4-.8 1.6-1.6 3.1-2.4 4.7l-1.9 3.7c-.1.1-.2.2-.4.2"/><path id="Fill-157" class="st9" d="M-1192.5-1750.5h-.2c-.2-.1-.3-.3-.2-.5l1.2-2.3c.1-.2.3-.3.5-.2.2.1.3.3.2.5l-1.2 2.3c0 .1-.2.2-.3.2"/><path id="Fill-159" class="st9" d="M-1142.4-1733.5h-.1c-.2-.1-.3-.2-.2-.4 0 0 .5-1.5-1.4-3.9-.6-.7-1.6-1.9-2.7-3.2-.1-.1-.1-.3.1-.4.2-.1.4-.1.5.1.4.5 1.9 2.2 2.7 3.2 2.2 2.7 1.5 4.4 1.5 4.4-.1.1-.2.2-.4.2"/><path id="Fill-161" class="st9" d="M-1148.3-1745.5c-.1 0-.2 0-.3-.1-4.4-5.9-9.8-12.8-15.3-19.3-.1-.1-.1-.3 0-.4.1-.1.3-.1.5 0 5.5 6.6 11 13.5 15.4 19.4.1.1.1.3-.1.4h-.2"/><path id="Fill-163" class="st9" d="M-1187.6-1754.5h-.1c-.2-.1-.3-.3-.2-.4l.7-1.5c1.4-3.1 3-6.6 4.7-9.9.1-.2.3-.2.5-.2.2.1.2.3.2.4-1.7 3.3-3.2 6.8-4.6 9.9l-.7 1.5c-.2.1-.4.2-.5.2"/><path id="Fill-165" class="st9" d="M-1164.6-1734.5c-.1 0-.2-.1-.3-.2-.1-.2 0-.3.2-.4l18.8-7.3c.1-.1.5-.6.4-1.2-.1-.7-.6-1.3-1.1-1.3-.2 0-.3-.1-.3-.3 0-.2.1-.3.3-.3.8 0 1.6.7 1.7 1.8.2 1-.6 1.8-.6 1.8l-.1.1-18.9 7.3h-.1"/><path id="Fill-167" class="st9" d="M-1168.6-1736.5c-.1 0-.2-.1-.3-.2-.1-.2 0-.3.2-.4l19.4-7.4c.2-.1.3 0 .4.2.1.2 0 .3-.2.4l-19.4 7.4h-.1"/><path id="Fill-169" class="st9" d="M-1141.6-1732.5c-.4 0-.9-.1-1.2-.3-.1-.1-.1-.2-.1-.3.1-.1.3-.1.4-.1.6.4 1.6.3 2.1-.2.1-.1.3-.1.4 0 .1.1.1.3 0 .3-.4.4-1 .6-1.6.6"/><path id="Fill-171" class="st9" d="M-1160.5-1721.5c-.4 0-.8-.2-1.2-.5-.1-.1-.2-.4-.1-.6.1-.2.2-.3.4-.2.6.5 1.7.6 2-.5.1-.2.2-.3.4-.2.1.1.2.4.1.6-.4 1-1 1.4-1.6 1.4"/><path id="Fill-173" class="st9" d="M-1189.4-1749.5c-.5 0-1-.1-1.4-.2-.1 0-.2-.2-.2-.3.1-.1.2-.2.4-.1.5.2 1.3.3 1.7.1.1 0 .3-.2.3-.2 0-.1.1-.2.3-.2.2 0 .3.1.3.3 0 .3-.6.6-.7.6h-.7"/><path id="Fill-175" class="st9" d="M-1227.5-1733.5c-.5 0-1-.1-1.4-.3-.1-.1-.2-.2-.1-.4.1-.1.3-.2.4-.1.3.2 1 .3 1.5.2.2 0 .4-.1.5-.3.1-.1.3-.2.4-.1.1.1.2.2.1.4-.1.3-.4.5-.8.5-.1.1-.3.1-.6.1"/><path id="Fill-177" class="st9" d="M-1227.2-1731.5c-.9 0-2-.4-2.6-1.5-.1-.2-.1-.4.1-.5.1-.1.3-.1.4.1.5.9 1.5 1.3 2.6 1.1.5-.1.9-.3 1.1-.7.1-.3.1-.6 0-1-.1-.2 0-.4.2-.5.2-.1.3 0 .4.2.3.8.2 1.3 0 1.6-.3.6-.8.9-1.5 1.1-.3.1-.5.1-.7.1"/><path id="Fill-179" class="st9" d="M-1190.7-1748.5c-1.2 0-2.5-.5-3.2-1.6-.1-.2-.1-.4.1-.5.2-.1.4-.1.5.1.7 1 2.4 1.4 3.4 1.1.6-.2 1-.5 1.1-.9.1-.2.1-.4-.1-.7-.1-.2 0-.4.2-.5.2-.1.4 0 .5.2.2.5.2.9.1 1.3-.3.7-1.1 1.1-1.6 1.3-.2.1-.6.2-1 .2"/><path id="Fill-181" class="st9" d="M-1160.8-1719.5c-.7 0-1.4-.1-1.9-.4-.6-.3-1-.7-1.2-1.2 0-.2.1-.3.2-.4.2 0 .4.1.4.2.1.3.4.6.8.8.9.4 2.2.4 2.8.1.4-.1.7-.3.9-.6.2-.2.2-.5.1-.8-.1-.1-.3-.3-.4-.3-.2-.1-.2-.3-.1-.4.1-.1.3-.2.4-.1 0 0 .5.3.7.6.2.5.2 1-.1 1.4-.3.4-.8.6-1.2.8-.4.2-.9.3-1.4.3"/><path id="Fill-183" class="st9" d="M-1141-1730.5c-1.3 0-2.5-.5-3-1.9-.1-.2.1-.4.2-.4.2-.1.4.1.4.2.5 1.9 3 1.4 3.5 1.3.5-.1 1-.4 1.1-.8.1-.2.1-.4-.1-.6 0-.1-.1-.1-.2-.2l-.1-.1c-.1-.1-.2-.3 0-.5.1-.1.3-.2.5 0l.1.1c.1.1.3.2.4.4.2.4.3.8.1 1.2-.3.6-1 1-1.6 1.2-.4 0-.8.1-1.3.1"/><path id="Fill-185" class="st9" d="M-1145.1-1724.5h-.1c-.3-.1-.4-.4-.4-.5-.1-.5-.1-1-.1-1.5v-1.7c0-.9-.1-1.8 0-2.7.1-.8.4-1.6 1.2-1.6.2 0 .3.1.3.3 0 .2-.1.3-.3.3-.4 0-.5.7-.5 1-.1.9 0 1.8 0 2.7v1.7c0 .5 0 .9.1 1.3v.1c.1-.1.3-.4.5-.8.1-.3.2-.6.3-1 .3-1 .6-2.1 1.4-2.8.5-.4 1.1-.4 1.5-.4h.5c.8-.1 1.4-.2 1.9-.6.3-.2.4-.4.4-.8 0-.1 0-.2-.1-.3-.1 0-.1-.1-.2-.1-.1-.2 0-.3.1-.4.1-.1.3-.1.4 0 .3.2.4.8.4.8 0 .5-.2 1-.7 1.3-.6.4-1.3.6-2.2.7h-.5c-.5 0-.8 0-1.1.3-.7.6-1 1.6-1.2 2.5-.1.4-.2.7-.3 1-.5.5-.8 1.2-1.3 1.2"/><path id="Fill-187" class="st9" d="M-1164.8-1712.5c-.3 0-.4-.4-.5-.5v-.1c-.3-.5-.3-1.1-.4-1.7v-.3c-.1-1.2-.2-2.6-.2-4.1v-.3c0-.5-.1-1.2.3-1.6.2-.2.5-.3.6-.3.1 0 .2-.1.3-.1.1-.1.3 0 .4.1.1.2 0 .4-.1.4-.1.1-.3.1-.4.1-.2 0-.3.1-.4.2-.2.2-.1.7-.1 1.1v.3c0 1.5.1 2.8.2 4v.3c0 .5.1 1 .3 1.4 0 0 0 .1.1.2.2-.3.3-.8.4-1.1 0-.1 0-.2.1-.3 0-.2.1-.3.1-.5.3-1.3.7-2.9 1.8-3.6.5-.3 1.1-.4 1.7-.4.5 0 1.1-.1 1.5-.4.7-.5.7-.8.5-1.1-.1-.2 0-.4.1-.4.1-.1.3 0 .4.1.3.7.1 1.4-.7 2-.6.4-1.2.4-1.8.5-.5 0-1 .1-1.4.3-.9.6-1.3 2-1.6 3.2 0 .2-.1.3-.1.5 0 .1 0 .1-.1.2-.1.6-.3 1.5-1 1.7.1.2 0 .2 0 .2"/><path id="Fill-189" class="st9" d="M-1193.1-1742.5c-.1 0-.2 0-.3-.1-.3-.2-.3-.8-.3-1.4v-.2c0-.4-.1-.8-.1-1.2-.1-.9-.2-1.8-.2-2.6v-.1c0-.4 0-1.1.4-1.4.1-.1.3 0 .4.1.1.1 0 .3-.1.4-.1 0-.1.2-.1.8v.2c0 .9.1 1.7.2 2.6 0 .4.1.8.1 1.2v.2c0 .5 0 .8.1.9.1-.1.2-.3.3-.9.1-.2.1-.5.2-.7.1-.7.3-1.4.7-2 0 0 0-.1.1-.1.1-.2.2-.4.5-.6.4-.3.9-.3 1.4-.3.4 0 .7 0 1-.2.1-.1.3-.2.4-.3 0 0 .1-.1 0-.3-.1-.1 0-.3.1-.4.1-.1.3 0 .4.1.2.4.1.7 0 .9-.2.2-.4.3-.6.4-.4.2-.8.2-1.2.2-.4 0-.8 0-1.1.2-.1.1-.2.2-.3.4l-.1.1c-.3.5-.5 1.2-.6 1.8 0 .2-.1.4-.1.7-.3.7-.5 1.5-1.2 1.6.1 0 .1 0 0 0"/><path id="Fill-191" class="st9" d="M-1230.6-1726.5c-.1 0-.3 0-.4-.1-.4-.2-.5-.8-.6-1.4v-.2c-.3-1.2-.3-2.4-.3-3.4v-.1c0-.6 0-1.3.8-1.7.2-.1.3 0 .4.1.1.1 0 .3-.1.4-.5.2-.5.6-.5 1.2v.1c0 .9 0 2.2.3 3.3v.3c.1.8.2 1 .3 1.1 0 0 .2-.1.3-.7 0-.1 0-.2.1-.2.1-.2.1-.5.2-.8.1-.8.3-1.7 1.2-2.2.4-.2.7-.2 1-.1h.2c.7 0 1.7 0 2-.4.1-.1.2-.3.1-.5 0-.2.1-.3.3-.3.2 0 .3.1.4.2.1.4 0 .7-.3 1-.6.6-2.1.6-2.5.6h-.8c-.6.3-.7 1.1-.9 1.8-.1.3-.1.6-.2.9v.2c-.1.4-.3 1.1-.8 1.1l-.2-.2"/><path id="Fill-193" class="st9" d="M-1230.8-1722.5c-.3 0-.5 0-.8-.1-1-.4-1.7-1.4-2-2.2-.3-1.1-.4-2.1-.4-3 0-1.1.1-3.3 1.8-3.6.2 0 .3.1.4.2 0 .2-.1.3-.2.3-1.2.2-1.3 2.2-1.3 3.1 0 .9.1 1.8.4 2.8.2.8.9 1.6 1.6 1.9.5.2 1 .1 1.4-.2.2-.1.5-.3.6-.5.7-.8.9-2 .7-3.6-.1-.6-.2-1.1-.4-1.5l-.3-.6c-.2-.1-.2-.2-.1-.4.1-.1.3-.2.4-.1.4.2.6.9.6 1 .2.4.3 1 .4 1.6.2 1.8-.1 3.2-.8 4-.2.2-.5.5-.8.6-.4.2-.8.3-1.2.3"/><path id="Fill-195" class="st9" d="M-1228.1-1722.5c-.5 0-1.1-.1-1.6-.3-.1-.1-.2-.2-.2-.4.1-.2.2-.2.4-.2 2 .7 4.2-.1 4.7-1.7.3-.9.4-2.2.2-3.5v-.2c-.1-.6-.2-1.6-.9-2.3-.1-.1-.1-.3 0-.4.1-.1.3-.1.4 0 .8.8.9 2 1 2.6v.2c.2 1.4.1 2.8-.3 3.8-.4 1.5-2 2.4-3.7 2.4"/><path id="Fill-197" class="st9" d="M-1193.6-1738.5h-.2c-.8-.1-1.6-.5-2.1-1.1-1.1-1.5-1.3-3.7-1.1-5.3.1-.8.5-2.3 1.5-2.5.2 0 .4.1.4.2 0 .2-.1.3-.2.4-.5.1-.9 1.2-1 2-.2 1.4 0 3.6 1 4.9.3.5 1 .8 1.6.8.3 0 .8 0 1.1-.4.4-.5.8-1.2.9-1.9.1-.7.1-1.3 0-2 0-.7-.2-1.5-.5-2.2v-.1c0-.1-.2-.4-.3-.5-.1-.1-.2-.3-.1-.4.1-.1.3-.1.5 0 .2.2.4.5.5.8v.1c.3.8.5 1.6.5 2.4 0 .7.1 1.4 0 2.1-.1.8-.5 1.6-1 2.2-.3.3-.9.5-1.5.5"/><path id="Fill-199" class="st9" d="M-1192.5-1738.5c-.4 0-.8 0-1.2-.1-.2 0-.3-.2-.3-.3 0-.2.2-.3.3-.3 1.8.2 3.1-.1 4-.9 1.1-1.1 1.1-2.9 1-3.8-.1-1-.4-2.3-1-3.2-.1-.1-.1-.3.1-.4.1-.1.3-.1.4.1.7 1 .9 2.4 1.1 3.4.1 1.1.2 3.1-1.2 4.3-.7.8-1.8 1.2-3.2 1.2"/><path id="Fill-201" class="st9" d="M-1163.6-1708.5h-.4c-.7-.1-1.3-.5-1.6-1-1.2-1.8-1.3-4.3-1.3-6.5s.9-3.5 1.3-3.5c.2 0 .3.1.3.3 0 .1-.1.2-.2.3-.2.2-.8 1.1-.8 2.9 0 2.1.1 4.5 1.2 6.2.2.4.7.6 1.2.7.5.1 1-.1 1.4-.3.5-.5.8-1.4.9-2.1.2-.9.1-1.8.1-2.6-.1-.9-.2-2.6-.9-3.5-.1-.1-.1-.3 0-.4.1-.1.3-.1.4 0 .9 1 1 2.9 1 3.8 0 .8.1 1.7-.1 2.7-.2.8-.4 1.8-1.1 2.4-.4.4-.9.6-1.4.6"/><path id="Fill-203" class="st9" d="M-1162.2-1707.5c-.6 0-1.2-.1-1.6-.3-.2-.1-.2-.2-.2-.4.1-.2.2-.2.4-.2 1.4.6 4.5-.1 5.3-1.3.7-1.2.9-3 .6-5-.2-1.1-.7-2.9-1.1-3.3-.1-.1-.1-.3 0-.4.1-.1.3-.2.4 0 .8.6 1.3 2.9 1.4 3.7.1 1 .4 3.5-.7 5.4-.8 1.2-2.8 1.8-4.5 1.8"/><path id="Fill-205" class="st9" d="M-1144.7-1717.5h-.2c-.7-.1-1.3-.5-1.8-1.2-.4-.6-.8-1.5-1-2.4-.3-1.4-.4-2.9-.3-4.9.1-1.2.4-2.1.9-2.9v-.1c.2-.3.4-.6.9-.6.2 0 .3.1.3.3s-.1.3-.3.3c-.1 0-.2.1-.4.3v.1c-.4.6-.7 1.5-.8 2.5-.1 1.9 0 3.4.2 4.7.2.8.5 1.6.9 2.1.3.5.8.8 1.3.9.4 0 .7-.1 1-.4.5-.4.8-1.3 1.1-2.3.2-.9.3-1.8.2-2.6-.1-1.4-.3-2.8-.7-3.8-.1-.2 0-.3.1-.4.2-.1.3 0 .4.1.6 1.2.7 2.7.8 4 .1.9 0 1.8-.2 2.8-.2.8-.5 1.9-1.2 2.6-.3.7-.7.9-1.2.9"/><path id="Fill-207" class="st9" d="M-1142.6-1717.5c-.7 0-1.5-.2-2.2-.5-.1-.1-.2-.3-.1-.4.1-.2.2-.2.4-.2 1.9 1 4.3.2 5-.8 1-1.4 1.3-3.6.9-6.6-.1-.9-.6-2.4-1.2-2.9-.1-.1-.2-.3-.1-.4.1-.1.3-.2.4-.1.9.7 1.3 2.5 1.4 3.4.3 3.2 0 5.5-1.1 7.1-.5.8-1.9 1.4-3.4 1.4"/><path id="Fill-209" class="st9" d="M-1144.3-1719.5c-.1 0-.1 0 0 0-.4-.1-.8-.4-1-.9-.2-.5-.4-1.1-.5-1.8-.1-1-.2-2.2-.1-3.7.1-1.4.2-2.2.5-2.5.1-.1.2-.1.3.1.1.1.1.3 0 .5-.1.1-.3.5-.4 2.1-.1 1.4 0 2.6.1 3.5.1.6.2 1.2.4 1.6.2.4.4.6.6.6.1 0 .3-.1.4-.2.2-.3.4-.9.5-1.7.1-.7.1-1.4.1-1.9 0-1-.1-2.1-.3-2.8 0-.2 0-.4.1-.4.1-.1.2 0 .3.2.3.9.3 2 .4 3 0 .6 0 1.4-.1 2.1-.1.6-.2 1.5-.6 2-.3.1-.5.2-.7.2"/><path id="Fill-211" class="st9" d="M-1163.3-1709.5h-.2c-.4-.1-.7-.3-.9-.7-.6-1.3-.6-3-.6-4.6 0-.5.1-1 .1-1.4 0-.2.2-.3.3-.2.1 0 .2.2.2.4-.1.4-.1.8-.1 1.3 0 1.5.1 3.1.6 4.3.1.2.3.4.5.4s.4 0 .5-.2c.2-.3.3-1 .4-1.4.1-.6.1-1.3 0-1.8 0-.6-.1-1.8-.4-2.4-.1-.1-.1-.3 0-.4.1-.1.2-.1.3.1.4.6.5 1.7.5 2.7 0 .5 0 1.2-.1 1.9-.1.6-.2 1.3-.5 1.7 0 .2-.3.3-.6.3"/><path id="Fill-213" class="st9" d="M-1194.3-1739.5c-.5 0-.9-.4-1.1-.9-.5-1-.8-3.3-.3-4.9.1-.2.2-.2.4-.2.1.1.2.2.2.4-.5 1.4-.1 3.5.3 4.4.1.3.4.5.6.5.2 0 .3-.1.4-.2.2-.3.3-.8.4-1.3v-1.4c0-.5-.1-1-.2-1.5v-.1c0-.1-.1-.3-.1-.3-.1-.1-.1-.3 0-.4.1-.1.3-.1.4 0 .1.1.2.4.2.6v.1c.1.6.2 1.1.3 1.7v1.5c0 .5-.2 1.1-.5 1.6-.4.2-.6.4-1 .4"/><path id="Fill-215" class="st9" d="M-1230.3-1723.5c-.1 0-.2 0-.3-.1-.6-.2-.9-1.1-1.1-1.9-.1-.5-.5-4.1.1-5 .1-.1.3-.1.4 0 .1.1.1.3 0 .5-.3.4-.2 3.2 0 4.4.1.7.4 1.2.7 1.4.1 0 .2.1.4-.1l.3-.3c.3-.5.4-1.4.3-2.6v-.1c0-.4-.1-1.2-.3-1.7-.1-.2 0-.3.1-.4.1-.1.3 0 .4.1.3.6.3 1.5.4 1.9v.1c.1 1.4 0 2.4-.4 3-.1.2-.2.4-.4.5-.3.2-.5.3-.6.3"/><path id="Fill-217" class="st9" d="m-1192.3-1764.5-20.2-2.4c-.2 0-.3-.1-.3-.3l-.2-2.9c0-.2.1-.3.3-.4.2 0 .3.1.3.3l.2 2.7 19.5 2.3-.2-2.7c0-.2.1-.3.3-.4.2 0 .3.1.3.3l.2 3.1c0 .1 0 .2-.1.3.1.1 0 .1-.1.1"/><path id="Fill-219" class="st9" d="M-1194.2-1767.5c-.1 0-.1 0 0 0l-19.4-2.2c-.2 0-.3-.2-.3-.4s.2-.4.3-.3l19.4 2.2c.2 0 .3.2.3.4-.1.2-.2.3-.3.3"/><path id="Fill-221" class="st9" d="M-1235.2-1810.5c-.1 0-.3-.1-.3-.2l-2.6-9.5-4.7-3.7c-.1-.1-.2-.3-.1-.5.1-.1.3-.2.4-.1l4.7 3.7c.1 0 .1.1.1.2l2.6 9.6c.2.3.1.4-.1.5"/><path id="Fill-223" class="st9" d="M-1230.3-1818.5h-.2l-11.4-6.4c-.2-.1-.2-.3-.1-.4.1-.2.3-.2.4-.1l11.4 6.4c.2.1.2.3.1.4.1 0 0 .1-.2.1"/><path id="Fill-225" class="st9" d="M-1243.1-1824.5h-.2l-6-3.4h-.1s-.8-.7-.6-1.6c.2-.7 1.2-1.2 3-1.5 5.1-.9 14.5-2.4 14.6-2.4.2 0 .4.1.4.2 0 .2-.1.3-.3.3-.1 0-9.5 1.5-14.6 2.4-1.4.2-2.3.6-2.4 1.1-.1.4.3.9.4 1l5.7 3.2 1.9-2.1-1.7-1c-.1-.1-.2-.2-.1-.3 0-.1.1-.2.3-.2l9.2-1.7c.2 0 .4.1.4.2 0 .2-.1.3-.3.3l-8.5 1.6 1.3.8c.1 0 .1.1.1.2s0 .2-.1.2l-2.3 2.6c.1.1 0 .1-.1.1"/><path id="Fill-227" class="st9" d="M-1202.3-1856.5c-.1 0-.3-.1-.3-.2-.9-2.7-2.4-4.6-4.1-5.2-.2-.1-.3-.2-.2-.4.1-.2.3-.2.4-.2 1.9.6 3.6 2.7 4.5 5.6.1.2 0 .3-.3.4.1 0 .1 0 0 0"/><path id="Fill-229" class="st9" d="M-1206.7-1838.5c-2.4 0-5-1-6.1-1.8-.1-.1-.2-.3-.1-.4.1-.1.3-.2.4-.1 1.5 1.1 6.5 2.7 8.7.8 1-.9 1.4-2.3 1.7-3.2.6-2.2.6-6 .3-7.9 0-.2.1-.3.3-.4.2 0 .3.1.4.3.3 2.2.3 6-.4 8.2-.3.9-.7 2.5-1.9 3.5-.8.7-2 1-3.3 1"/><path id="Fill-231" class="st9" d="M-1219.7-1846.5c-.5 0-1-.2-1.6-.6-.4-.3-1.5-1.3-1.7-3.1-.1-1 .4-1.8 1.3-2.1.9-.3 2.4-.1 3.6 1.5.1.1.1.3-.1.4-.1.1-.3.1-.4-.1-1.1-1.4-2.2-1.6-2.9-1.3-.6.2-.9.8-.9 1.5.1 1.6 1.1 2.5 1.4 2.7.6.5 1.2.6 1.7.3.2-.1.3 0 .4.1.1.2 0 .3-.1.4-.1.2-.4.3-.7.3"/><path id="Fill-233" class="st9" d="M-1204.3-1849.5c-.2 0-.3-.1-.3-.2-.1-.1.1-.3.2-.3.6-.1.8-.5.8-.6 0-.1-.1-.2-.3-.3-.4-.2-.9-.5-1-1.4 0-.1.1-.2.3-.2.2 0 .4.1.4.2 0 .7.4.9.7 1.1.3.1.5.3.5.6s-.3.9-1.3 1.1"/><path id="Fill-235" class="st9" d="M-1219.6-1839.5c-.3 0-.4-.2-.4-.4.2-1.6.3-3.9.1-5.3 0-.2.1-.3.3-.3.2 0 .4.1.4.3.2 1.5.1 3.7-.2 5.4.2.2 0 .3-.2.3"/><path id="Fill-237" class="st9" d="M-1208.6-1835.5c-.2 0-.3-.2-.3-.3.1-.6.3-1.7.3-2.4 0-.2.1-.3.3-.3.2 0 .3.1.3.3 0 .7-.2 1.9-.3 2.5 0 .1-.2.2-.3.2"/><path id="Fill-239" class="st9" d="M-1217.6-1851.5c-.1 0-.3-.1-.3-.2 0-.2 0-.3.2-.4 4.8-1.5 5.6-6.7 5.8-8.9.1-1.1.5-2 1.1-2.3.4-.2.9-.4 1.8.1.1.1.2.3.1.4-.1.2-.3.2-.4.1-.3-.2-.8-.3-1.2-.1-.4.3-.7.9-.8 1.8-.2 2.4-1.1 7.9-6.3 9.5"/><path id="Fill-241" class="st9" d="M-1216.6-1850.5s-.1 0 0 0c-.2 0-.3-.2-.3-.4s.1-.4.3-.4c.8 0 1.7-1 2.3-2.1.1-.2.2-.2.4-.1.1.1.1.3.1.5-.8 1.3-1.8 2.5-2.8 2.5"/><path id="Fill-243" class="st9" d="M-1200.3-1853.5c-.2 0-.3-.2-.3-.4.5-2.8-1.4-7.2-3.5-9.6-1.1-1.2-3.2-3-4.4-2.3-.1.1-.3 0-.4-.1-.1-.2 0-.3.1-.4 1.6-.9 4 1.2 5.1 2.4 2.2 2.5 4.2 7.2 3.7 10.1 0 .2-.2.3-.3.3"/><path id="Fill-245" class="st9" d="M-1209.4-1835.5c-.5 0-1.2-.1-1.8-.2h-.2c-1.9-.3-6.4-1.3-8.5-4.3-.1-.1-.1-.3.1-.5.1-.1.3-.1.4.1 1.9 2.7 6.3 3.7 8.1 4h.2c2.1.4 2.5.1 2.6 0 .1-.2.3-.2.4-.1.2.1.2.3.1.4-.2.4-.7.6-1.4.6"/><path id="Fill-247" class="st9" d="M-1221-1843.5c-1.8 0-3.4-.8-4.6-2.3-2.7-3.5-3.1-10.3-.9-15.5 1.3-3.2 4-5.5 7.5-6.6 3.1-1 6.7-.7 9 .6.2.1.2.3.1.4-.1.1-.3.2-.5.1-2.1-1.2-5.4-1.4-8.4-.5-3.3 1-5.8 3.2-7 6.2-2.1 5.1-1.8 11.6.8 14.9 1.1 1.4 2.6 2.1 4.2 2.1.2 0 .4.1.4.3 0 .2-.1.3-.3.3h-.3"/><path id="Fill-249" class="st9" d="M-1184.6-1819.5c-.1 0-.3-.1-.3-.2-.1-.2 0-.3.2-.4 3.6-1.1 7.8-3.1 8.7-5.5.3-.7.3-1.7.3-2.6 0-1.8.1-3.8 2.4-4.4.2 0 .3.1.4.2 0 .2-.1.3-.2.4-1.8.4-1.8 2-1.9 3.8 0 .9 0 1.9-.3 2.7-1 2.7-5.4 4.8-9.3 6"/><path id="Fill-251" class="st9" d="M-1168.4-1826.5c-.1 0-.3-.1-.3-.2 0-.2.1-.3.2-.4 1.3-.3 3.8-.3 5.7-.2.1 0 .2 0 .2-.1s0-.1-.1-.2c-.3-.3-1.1-.5-1.8-.7-.7-.2-1.7-.2-2.9-.2h-1.1c-1.7 0-4.2-.2-5.1-.4-.2 0-.3-.2-.2-.4 0-.2.2-.3.4-.2.9.2 3.3.4 5 .4h1.1c1.2 0 2.3 0 3.1.2.8.2 1.6.4 2.1.9.3.3.4.6.2.9-.1.3-.5.4-.8.4-2.7-.1-4.7 0-5.7.2"/><path id="Fill-253" class="st9" d="M-1168.6-1825.5c-.2 0-.3-.1-.3-.3 0-.2.1-.3.3-.4.4-.1 1-.1 1.7-.1 1.1-.1 2.4-.1 3.1-.4.2-.1.3-.4.3-.6 0-.3-.2-.6-.3-.6-.2-.1-.3-.2-.2-.4.1-.2.3-.3.4-.2.5.1.7.7.7 1.2 0 .6-.2 1.1-.7 1.2-.8.3-2.1.4-3.3.4-.7.1-1.3.1-1.7.2.1 0 0 0 0 0"/><path id="Fill-255" class="st9" d="M-1167.6-1824.5c-.1 0-.2-.1-.3-.2-.1-.1 0-.3.1-.4.3-.1.7-.2 1.3-.3.6-.1 1.5-.2 2.2-.5.3-.1.5-.3.6-.6 0-.2 0-.4-.2-.5-.1-.1-.1-.3 0-.4.1-.1.4-.1.5 0 .4.3.5.7.4 1.1-.1.4-.5.8-1 1-.8.3-1.7.4-2.4.5-.5.1-.9.1-1.1.2 0 .1 0 .1-.1.1"/><path id="Fill-257" class="st9" d="M-1182.6-1810.5c-.1 0-.2-.1-.3-.2-.1-.2 0-.3.2-.4 2.1-.8 4.6-2.8 7.3-4.8 1.6-1.3 3.4-2.6 5-3.6 1.2-.8 3.3-1.6 4.9-2.3.4-.1.7-.3 1-.4.8-.3 2-1.3 1.9-1.5v-.1c-.3-.1-1.1.2-1.5.3-.3.1-.5.2-.6.2-.2 0-.3-.2-.3-.3 0-.2.1-.3.3-.3.1 0 .2-.1.3-.1.8-.3 1.5-.5 2-.3.2.1.3.2.4.4.4 1.1-2.3 2.3-2.3 2.3-.3.1-.6.3-1 .4-1.5.6-3.7 1.5-4.8 2.3-1.6 1.1-3.3 2.4-5 3.6-2.7 2.1-5.3 4-7.4 4.9 0-.1-.1-.1-.1-.1"/><path id="Fill-259" class="st9" d="M-1165.1-1811.5h-.2c-.2-.1-.2-.3-.1-.4 1.6-2.6 2.1-4.8 2.6-7 .3-1.1.5-2.2.9-3.4.1-.4.3-.8.5-1.2.4-.9.9-1.8.7-2.7-.2-.7-1.7-3.8-3.4-6.6-.3-.5-1.4-.6-2.4-.6-.4 0-.7-.1-1-.1-.3 0-.5-.1-.8-.1-.8-.1-1.8-.3-2-.1v.2c0 .3.4.5 1.1.7.2.1.4.1.6.2l.9.3c.6.2 1.3.4 1.9.7 1.2.6 1.3 1.6 1.4 1.6 0 .2-.1.3-.3.3-.2 0-.3-.1-.4-.3 0 0-.1-.7-1-1.2-.5-.3-1.1-.5-1.8-.7-.3-.1-.7-.2-1-.3-.2-.1-.4-.1-.6-.2-.7-.2-1.4-.5-1.5-1.2 0-.3.1-.6.2-.7.5-.4 1.4-.2 2.6 0 .3 0 .5.1.8.1.3 0 .6.1 1 .1 1.2.1 2.4.2 2.9.9 1.6 2.6 3.3 5.9 3.5 6.8.3 1.1-.3 2.2-.8 3.1-.2.4-.4.8-.5 1.1-.4 1.1-.6 2.2-.9 3.3-.5 2.2-1 4.5-2.7 7.2 0 .1-.1.2-.2.2"/><path id="Fill-261" class="st9" d="M-1168-1806.5c-1.5 0-2.4-.7-2.9-1.2-.9-1-1.2-2.3-.9-2.9.4-.7 1.1-1.6 1.3-1.9 0-.4-.1-2 .3-3.6.1-.7.4-1.3.7-1.9.3-.8.6-1.6.4-2-.1-.2 0-.4.2-.4.2-.1.4 0 .5.2.3.7 0 1.5-.4 2.5-.2.6-.5 1.2-.6 1.8-.4 1.9-.3 3.6-.3 3.6 0 .1 0 .2-.1.2 0 0-.9 1.1-1.3 1.9-.1.2 0 1.3.8 2.2.6.7 1.9 1.3 4 .7.2-.1.4 0 .5.2.1.2 0 .4-.2.4-.9.1-1.5.2-2 .2"/><path id="Fill-263" class="st9" d="M-1172.6-1829.5c-.2 0-.3-.2-.3-.3 0 0 .1-2.7.1-4.5v-.3c0-2.2 0-3.8.4-4.3.3-.4 1.5-.6 4.4-1 .7-.1 1.3-.2 1.7-.3h.1c.6-.1 1.5-.3 2 .3.3.4.3 1 .2 1.8v1.1c0 1.4-.1 3.7-.1 3.8 0 .2-.2.3-.3.3-.2 0-.3-.2-.3-.3 0 0 .1-2.3.1-3.7v-1.2c0-.7.1-1.2-.1-1.4-.2-.3-1-.1-1.4-.1h-.2c-.4.1-1 .2-1.8.3-1.3.2-3.7.5-4 .8-.3.4-.3 2.6-.3 3.9v.3c0 1.9-.1 4.5-.1 4.6.2.1.1.2-.1.2"/><path id="Fill-265" class="st9" d="M-1182.2-1809.5h-.1c-1.1-1-1.4-1.6-1.8-2.7-.4-1.1-1.3-3.8-.6-6 .1-.2.2-.2.3-.2.1.1.2.3.1.4-.6 2.1.2 4.7.5 5.5.4 1.1.6 1.6 1.7 2.5.1.1.1.3.1.4 0 0-.1.1-.2.1"/><path id="Fill-267" class="st9" d="M-1206.9-1814.5c-.1 0-.2 0-.3-.1-.1-.2-.5-.6-.9-.7h-.4c-.2 0-.5.1-.7 0-1.2-.4-3.4-4-5.5-7.3-.3-.6-.6-1-.8-1.2-.5-.7-.9-1.5-1.4-2.3-1.6-2.6-3.3-5.3-5.9-7.5-2.3-2-5.6-1.5-7.7 0-.1.1-.3.1-.4-.1-.1-.1-.1-.3.1-.4 2.2-1.6 5.9-2.1 8.4.1 2.7 2.3 4.5 5.1 6 7.7.5.8.9 1.5 1.4 2.2.2.2.4.7.8 1.2 1.2 2 4.1 6.6 5.1 7h.4c.2 0 .5-.1.7 0 .5.1.9.5 1.1.8 1.3-.3 9-2.2 13.1-3.4.4-.1 1-.2 1.7-.3 1.1-.2 2.5-.4 3-.8 1.5-1.1 2.5-1.5 4-.5.1.1.2.3.1.4-.1.1-.3.2-.4.1-1.1-.7-1.8-.6-3.2.5-.6.5-2 .7-3.3.9-.6.1-1.2.2-1.6.3-4.5 1.3-13.3 3.4-13.4 3.4"/><path id="Fill-269" class="st9" d="M-1207.5-1799.5h-.3c-.9-.1-1.8-.9-2.6-1.6-.5-.5-1-.9-1.4-1.1-5-2.5-7.6-5.8-10.8-10l-.2-.3c-3-3.9-4.8-6.3-7.2-10.8-1.6-3-2.5-7.5-1.3-9.1.1-.1.3-.2.4-.1.1.1.2.3.1.4-.9 1.2-.3 5.4 1.3 8.4 2.4 4.5 4.2 6.9 7.1 10.7l.2.3c3.2 4.2 5.7 7.4 10.6 9.8.5.2 1 .7 1.5 1.2.7.7 1.6 1.4 2.3 1.5 2.1.1 5-1.2 7.3-2.2.7-.3 1.4-.6 2-.9 1-.4 2-.7 3-1 1.7-.6 3.3-1.1 4.9-2 .7-.4 1.4-.6 2.1-.7.5-.1 1-.2 1.5-.4.7-.3 1.3-.6 1.9-1 .6-.3 1.2-.7 1.9-1l.4-.2c1.4-.6 2.3-1 2.3-2.3 0-.2.1-.3.3-.3.2 0 .3.1.3.3 0 1.7-1.3 2.3-2.6 2.8l-.4.2-1.8.9c-.6.4-1.3.7-2 1-.5.2-1.1.3-1.6.5-.7.2-1.3.3-1.9.7-1.7.9-3.4 1.5-5.1 2-1 .3-2 .6-2.9 1-.6.2-1.3.5-2 .9-2.3 1.1-5.1 2.4-7.3 2.4"/><path id="Fill-271" class="st9" d="M-1227.6-1834.5c-.2 0-.3-.1-.3-.3 0-.2.1-.3.3-.3 1.2-.1 4.5-.7 5.2-1.3.4-.3.4-1 .5-1.7.1-1.1.3-2.4 1.7-2.4.2 0 .3.1.3.3 0 .2-.1.3-.3.3-.8 0-.9.6-1.1 1.9-.1.8-.2 1.6-.7 2.1-1.1.8-5.1 1.3-5.6 1.4"/><path id="Fill-273" class="st9" d="M-1187.3-1821.5c-.1 0-.2 0-.3-.1-.4-.5-.8-1.3-1.4-2.2-1.7-2.9-4.4-7.3-6.9-8.2-1.3-.4-2.7-.5-4.3-.6-2.4-.2-4.8-.3-6.6-1.7-.5-.4-.5-.9-.4-1.4v-.6c0-.2-.3-.4-.4-.5-.1-.1-.2-.1-.2-.2-.1-.1-.1-.3 0-.4.1-.1.3-.1.4 0l.2.2c.3.2.6.5.7.9.1.2 0 .5 0 .7 0 .4 0 .7.2.8 1.7 1.3 4.1 1.4 6.3 1.6 1.5.1 3.1.2 4.4.6 2.8.9 5.5 5.4 7.3 8.4.5.9 1 1.6 1.3 2.2.1.1.1.3-.1.4 0 .1-.1.1-.2.1"/><path id="Fill-275" class="st9" d="M-1191.2-1817.5c-.2 0-.3-.1-.3-.3-.1-1-1-2-1.8-3-.3-.3-.5-.6-.8-.9-1.5-1.8-3-3.8-3.7-6.3-.1-.2 0-.4.2-.4.2-.1.3 0 .4.2.7 2.4 2.1 4.2 3.6 6.1.2.3.5.6.8.9.9 1.1 1.9 2.2 2 3.4-.1.1-.3.3-.4.3z"/><path id="Fill-277" class="st9" d="M-1190.6-1779.5h-.1c-.2-.1-.2-.3-.1-.4 1.6-3.1 2.5-4.4 4.5-7.2 1.9-2.7 3.2-4.3 5.2-6.4 1.3-1.4 3.5-3.5 5.7-5.8l2.9-2.9c2-2 4.2-4.3 6.4-6.5 2.6-2.7 5-5.2 6.8-6.9l1.9-1.9c1.9-2 4.3-4.4 6-5.5 2.8-1.8 5.7-2.2 8.7-2.7 1.1-.2 2.3-.3 3.5-.6.9-.2 1.9-.4 2.9-.6 2.4-.4 4.8-.9 6.8-1.5 3.4-1.1 5.6-1.4 6.5-1 .2.1.2.3.2.4-.1.2-.3.2-.4.2-.5-.2-1.9-.3-6.1 1-2 .6-4.5 1.1-6.8 1.5-1 .2-2 .4-2.9.6-1.2.3-2.4.4-3.6.6-2.9.4-5.7.8-8.4 2.6-1.7 1.1-4 3.5-5.9 5.5-.7.7-1.3 1.4-1.9 1.9-1.8 1.8-4.2 4.3-6.8 6.9-2.1 2.2-4.3 4.5-6.4 6.5l-2.9 2.9c-2.3 2.2-4.4 4.4-5.7 5.8-2 2.1-3.3 3.7-5.2 6.3-2 2.8-2.8 4.1-4.5 7.1-.1 0-.2.1-.3.1"/><path id="Fill-279" class="st9" d="M-1124.6-1826.5c-.1 0-.3-.1-.3-.2 0-.2.1-.3.2-.4.1 0 6.9-1.7 9.3-2.4 8.8-2.3 25-8.3 31-11 .2-.1.3 0 .4.2.1.2 0 .4-.2.4-6 2.7-22.2 8.6-31.1 11-2.3.6-9.2 2.4-9.3 2.4"/><path id="Fill-281" class="st9" d="M-1123.6-1813.5c-.1 0-.3-.1-.3-.3 0-.2.1-.3.3-.4 0 0 3.8-.7 8-2.5 3.8-1.6 8.1-3.9 14-7.5.1-.1 12.1-7.4 15.5-6.3.2 0 .3.2.2.4-.1.2-.2.3-.4.2-2.3-.7-10.5 3.5-15 6.3-5.9 3.6-10.2 5.9-14 7.5-4.4 1.8-8.2 2.6-8.3 2.6"/><path id="Fill-283" class="st9" d="M-1121.6-1796.5h-.1c-.7-.1-1.2-1-1.6-2.7-.5-2.3-.8-4.1-1.1-6.6-.9-7.8-.8-15 .4-21.5 0-.2.2-.3.4-.3s.3.2.3.4c-1.2 6.4-1.3 13.6-.4 21.3.3 2.4.5 4.3 1 6.5.4 1.7.8 2.2 1 2.2.1 0 .6-.1 1-2.1.4-2.1.5-3.1.7-5l.1-.7c.2-2.5.3-5.9.3-8 0-.2.1-.3.3-.3.2 0 .3.1.3.3 0 2.1-.1 5.5-.3 8.1l-.1.7c-.2 1.9-.2 3-.7 5.1 0 .7-.4 2.6-1.5 2.6"/><path id="Fill-285" class="st9" d="M-1122.2-1795.5c-1.4 0-4-1.2-5.7-1.9-.3-.1-.6-.2-.8-.3-2.9-1.2-4.5-2-7.3-3.5-1.1-.6-3.8-1.9-4.7-2.3-.3.4-.9 1.3-1.7 1.4-2.1.4-5.5-4.7-6.6-6.9-.1-.2 0-.4.1-.4.2-.1.3 0 .4.1 1.4 2.8 4.5 6.8 5.9 6.5.6-.1 1.2-1 1.4-1.4.1-.1.3-.2.4-.1 0 0 3.6 1.7 4.9 2.5 2.7 1.5 4.4 2.2 7.2 3.5.2.1.5.2.8.3 1.6.7 4.2 1.9 5.4 1.9.2 0 .3.1.3.3.3.2.1.3 0 .3"/><path id="Fill-287" class="st9" d="M-1185.7-1767.5c-2.6 0-5.3-.2-7.4-.9-1.2-.4-3.3-1.6-3.9-2.8-.1-.2 0-.3.1-.4.2-.1.3 0 .4.1.4.9 2.2 2 3.5 2.4 5.7 1.8 16 .4 18-.5 3.5-1.5 6-2.7 8.5-5.6 1.9-2.2 3.7-4.7 5.4-7.1 1.4-2 2.8-3.8 4.2-5.5 3-3.7 8.9-11.9 8.9-12 .1-.1.2-.1.3-.1.9 0 3.5-.2 4.1-1.1.3-.4.5-1 .7-1.6l.3-.9c.1-.2.3-.2.4-.2.2.1.2.3.2.4l-.3.9c-.2.6-.4 1.3-.8 1.8-.8 1.1-3.7 1.3-4.5 1.3-.8 1.1-6.1 8.5-8.9 11.9-1.4 1.7-2.7 3.5-4.1 5.5-1.7 2.4-3.5 4.9-5.5 7.1-2.5 3-5.1 4.2-8.7 5.8-1.2.7-6 1.5-10.9 1.5"/><path id="Fill-289" class="st9" d="M-1169-1768.5c-.5 0-1.1 0-1.6-.1-.2 0-.3-.2-.3-.3 0-.2.2-.3.3-.3 4.6.4 8.2-.7 13.3-7.9 5.7-8.1 9-15.5 10.8-20.2.1-.2.2-.2.4-.2.2.1.3.2.2.4-1.8 4.8-5.1 12.2-10.8 20.4-4.7 6.5-8.3 8.2-12.3 8.2"/><path id="Fill-291" class="st9" d="M-1133.2-1791.5c-.1 0-.2 0-.2-.1-1.1-1.4-2.2-3.1-3.3-4.7-1.8-2.8-3.5-5.5-5-5.6-.2 0-.3-.2-.3-.3 0-.2.1-.3.3-.3 1.8.1 3.5 2.8 5.4 5.8 1 1.6 2.1 3.3 3.2 4.6.1.1.1.3 0 .4 0 .2 0 .2-.1.2"/><path id="Fill-293" class="st9" d="M-1129.6-1790.5c-.1 0-.2 0-.3-.1-.1-.1-.1-.3.1-.4 4.1-3.2 5.2-6.2 5.2-6.2.1-.2.2-.3.4-.2.2.1.3.2.2.4 0 .1-1.2 3.2-5.5 6.5h-.1"/><path id="Fill-295" class="st9" d="M-1093.3-1779.5c-.1 0-.2 0-.2-.1 0 0-2.9-3.3-6-6.2-1-.9-2.2-2-3.4-3-3.1-2.7-6.3-5.6-8.1-7.6-2.2-2.4-8.8-9.5-8.9-9.6-.1-.1-.1-.3 0-.4.1-.1.3-.1.5 0 .1.1 6.7 7.2 8.9 9.6 1.8 2 5 4.8 8 7.5 1.2 1.1 2.3 2.1 3.4 3 3.2 2.9 6.1 6.2 6.1 6.2.1.1.1.3 0 .4-.1.2-.2.2-.3.2"/><path id="Fill-297" class="st9" d="M-1102.2-1775.5c-.1 0-.2 0-.2-.1-4.9-4.7-11.2-8.1-15.5-10.2-2.3-1.1-8.8-5-9.9-6.2-.1-.1-.1-.3 0-.4.1-.1.3-.1.4 0 1 1.1 7.3 4.9 9.7 6.1 4.4 2.1 10.7 5.5 15.6 10.3.1.1.1.3 0 .4 0 .1-.1.1-.1.1"/><path id="Fill-299" class="st9" d="M-1179.2-1794.5c-.1 0-.2-.1-.3-.2-.2-.4-.4-.4-.7-.5-.3 0-.6-.1-1-.4-.3-.3-.3-.7-.3-1.2 0-.4 0-.8-.2-1-.5-.5-1.1-1-1.6-1.5-1.8-1.7-3.4-3.2-4.6-5.7-.1-.2 0-.3.1-.4.2-.1.3 0 .4.1 1.2 2.4 2.8 3.9 4.5 5.6.5.5 1.1 1 1.6 1.5.4.4.4 1 .4 1.5 0 .3 0 .6.1.7.2.2.4.2.6.2.4 0 .9.1 1.2.8.1.2 0 .4-.1.4l-.1.1"/><path id="Fill-301" class="st9" d="M-1197.6-1772.5c-.1 0-.1 0 0 0-.3-.1-.3-.2-.3-.4 0 0 1.2-3.8 3.5-7.6 2.1-3.5 6.2-9.6 9-11.9.1-.1.3-.1.4 0 .1.1.1.3 0 .4-2.7 2.3-6.8 8.3-8.8 11.8-2.3 3.8-3.4 7.4-3.5 7.5-.1.1-.2.2-.3.2"/><path id="Fill-303" class="st9" d="M-1200.2-1771.5c-1.5 0-1.9-1.4-2.1-2.3-.1-.2-.1-.4-.2-.5-.5-.5-1.1-1-1.7-1.5-1.1-.8-2.2-1.7-2.8-2.9-.4-.7-.5-1.4-.6-2.1-.1-.6-.2-1.1-.4-1.6-1.1-2.5-3.2-5.3-5.1-7.8-.7-.9-1.3-1.8-1.9-2.5-4.4-6.2-11.4-19-14-25.4-.1-.2 0-.3.2-.4.2-.1.3 0 .4.2 2.5 6.3 9.6 19.3 13.9 25.3.5.8 1.2 1.6 1.9 2.5 1.9 2.5 4.1 5.4 5.2 8 .2.6.3 1.2.4 1.8.1.7.2 1.3.5 1.9.6 1 1.6 1.9 2.6 2.7l1.8 1.5c.1.1.2.4.3.7.3.9.6 1.8 1.5 1.8.2 0 .3.1.3.3.1.2-.1.3-.2.3"/><path id="Fill-305" class="st9" d="M-1181.6-1802.5h-.1c-.2-.1-.2-.2-.1-.4 1-1.7 3.2-3 4.8-4 .6-.4 1.1-.7 1.5-1 .4-.3.7-.5 1-.7.7-.5 1.1-.7 1.3-1.4 0 0 .5-1.3 1.4-1.5.3-.1.5-.1.8.1.2.1.2.2.1.4-.1.1-.3.2-.4.1h-.2c-.4.1-.9.9-1 1.2-.3.8-.8 1.1-1.5 1.6-.3.2-.6.4-1 .7-.4.3-.9.6-1.6 1-1.7 1-3.7 2.2-4.6 3.8-.2 0-.3.1-.4.1"/><path id="Fill-307" class="st9" d="M-1177.3-1805.5c-.1 0-.2 0-.2-.1-.1-.1-1.8-1.7-2.4-2.6-.1-.1 0-.3.2-.3.2-.1.4 0 .4.1.5.8 2.3 2.5 2.3 2.5.1.1.1.3 0 .3-.1.1-.2.1-.3.1"/><path id="Fill-309" class="st9" d="M-1099.2-1773.5c-.5 0-1.8-.2-2.6-.6-.1-.1-.2-.2-.1-.3.1-.1.3-.2.4-.1.7.3 1.9.6 2.3.6 1 0 1.9-.1 2.5-.4.5-.2.9-.6 1.3-.9.6-.5 1.1-1 2.2-1.1.2 0 .3.1.3.2s-.1.3-.3.3c-.9.1-1.3.5-1.9 1-.4.4-.8.7-1.4 1-.7.1-1.6.3-2.7.3"/><path id="Fill-311" class="st9" d="M-1084.6-1839.5c-.1 0-.2-.1-.3-.2-.1-.2 0-.3.1-.4 4.9-2.5 9.1-4.9 12.8-7.5.7-.5 1.6-1.3 2.5-2.1 1.7-1.5 3.3-2.9 4.2-2.9.2 0 .3.1.3.3 0 .2-.1.3-.3.3-.7 0-2.4 1.5-3.8 2.7-1 .8-1.8 1.6-2.6 2.1-3.7 2.5-7.9 5-12.9 7.5.1.2 0 .2 0 .2"/><path id="Fill-313" class="st9" d="M-1081.2-1825.5c-1.4 0-2.3-1.4-3.2-2.7-.7-1.1-1.4-2.2-2.4-2.6-.1-.1-.2-.3-.2-.4.1-.2.2-.3.4-.2 1.1.5 1.8 1.7 2.6 2.8.8 1.3 1.6 2.5 2.7 2.5.2 0 .3.2.3.3.1.1-.1.3-.2.3"/><path id="Fill-315" class="st9" d="M-1082.6-1826.5h-.1c-.2-.1-.2-.3-.2-.4.4-.8 1.2-2.3 1.7-3 1.8-2.7 4-5.4 7-8.6 1.6-1.7 3.5-4.7 5.1-7.9.2-.3.3-.7.5-1.2.8-1.8 1.8-4.1 3.4-4.7.7-.2 1.4-.2 2.1.2.2.1.2.3.1.4-.1.2-.3.2-.4.1-.6-.3-1.1-.3-1.6-.2-1.4.5-2.4 2.7-3.1 4.4-.2.5-.4.9-.6 1.2-1.7 3.3-3.6 6.3-5.2 8-3 3.2-5.2 5.9-6.9 8.5-.4.7-1.3 2.2-1.6 2.9 0 .2-.1.3-.2.3"/><g id="Group-319" transform="translate(169 15)"><defs><filter id="Adobe_OpacityMaskFilter" filterUnits="userSpaceOnUse" x="-1249.8" y="-1868.3" width="18.7" height="27.8"><feColorMatrix values="1 0 0 0 0 0 1 0 0 0 0 0 1 0 0 0 0 0 1 0"/></filter></defs><mask maskUnits="userSpaceOnUse" x="-1249.8" y="-1868.3" width="18.7" height="27.8" id="mask-2_00000183233460484033678560000014568356951216539314_"><g filter="url(#Adobe_OpacityMaskFilter)"><path id="path-1_00000146487868816972481620000011984120924957044141_" class="st2" d="M-1249.8-1868.3h18.7v27.8h-18.7z"/></g></mask><path id="Fill-317" d="M-1249.5-1840.5c-.2 0-.3-.1-.3-.3 0-1.1 1.6-3.7 2.1-4.4.4-.6.8-1.1 1.1-1.5 1.1-1.5 1.8-2.4 3.8-4.5 1.8-1.8 3.5-4.5 4.9-6.7l.3-.5c.8-1.3 1.4-2.6 2-4 .5-1.1 1-2.2 1.6-3.2l.1-.1c1.1-1.9 1.6-2.6 2.1-2.4.7.2.6 1.3.6 2v.3c0 2-.8 4.1-1.7 5.9-1.2 2.7-3.3 5-5.2 7.1-1.5 1.7-3.1 3.5-4.3 5.4-1 1.6-4.6 6.3-5.6 6.8-.2.1-.3 0-.4-.1-.1-.2 0-.4.1-.4.7-.4 4.3-4.8 5.3-6.6 1.2-2 2.8-3.8 4.4-5.5 1.9-2.1 3.9-4.3 5.1-7 .8-1.7 1.6-3.8 1.6-5.6v-.3c0-.3.1-1.2-.1-1.3-.1.1-.5.4-1.4 2.1l-.1.1c-.6 1.1-1.1 2.1-1.6 3.2-.6 1.3-1.2 2.7-2.1 4l-.3.5c-1.4 2.2-3.2 5-5 6.8-2 2-2.6 2.9-3.7 4.4-.3.4-.7.9-1.1 1.5-.6.7-2 3.1-2 4 .1.1 0 .3-.2.3" mask="url(#mask-2_00000183233460484033678560000014568356951216539314_)" fill-rule="evenodd" clip-rule="evenodd" fill="#2f3541"/></g><path id="Fill-320_00000023255995470958105710000009486881012388962692_" class="st9" d="M-1086.6-1829.5c-.2 0-.3-.1-.3-.3 0-.7.6-1.4 1.1-2l.3-.3.3-.3c1-1.2 1.9-2.3 2.3-3.7.3-.8.3-1.8.2-2.7 0-.2-.1-.5-.1-.7v-.2c-.1-.4-.2-.6 0-.7.1-.1.3 0 .5.1.1.1.1.2.1.3 0 .1.1.1.1.2v.2c.1.3.1.5.2.8.1 1 0 2-.2 2.9-.5 1.5-1.4 2.7-2.4 3.9l-.3.3c-.1.1-.2.2-.3.4-.4.5-1 1.1-1 1.6-.1.1-.3.2-.5.2"/><path id="Fill-322_00000170238611922766783160000006580343726404517012_" class="st9" d="M-1091.3-1829.5c-.1 0-.2 0-.2-.1-.2-.1-.2-.3-.1-.4 0 0 1.3-1.5.8-4-.4-2.2-.6-2.5-.9-2.8-.1-.1-.1-.2-.2-.2-.1-.1-.1-.3.1-.4.2-.1.4-.1.5.1.1.1.1.2.2.2.4.5.6.8 1.1 3.1.5 2.8-.9 4.4-1 4.4-.1.1-.2.1-.3.1"/><path id="Fill-324_00000064349278786078939920000007982046380331714486_" class="st9" d="M-1076.3-1762.5c-.1 0-.2 0-.3-.1-.8-1-2.1-1.7-3.4-2.4-.8-.5-1.7-1-2.5-1.6-2.6-2-5-4.4-7.6-7.5-.3-.4-.9-1.1-1.5-1.9-1-1.2-2-2.6-2.4-3-.1-.1-.1-.3 0-.5.1-.1.4-.1.5 0 .4.4 1.5 1.8 2.4 3 .6.8 1.2 1.5 1.5 1.9 2.5 3.1 4.9 5.4 7.5 7.4.7.5 1.5 1 2.4 1.5 1.3.7 2.6 1.5 3.5 2.6.1.1.1.3-.1.5.2.1.1.1 0 .1"/><path id="Fill-326_00000132775824211414300650000001413614719115022002_" class="st9" d="M-1078.3-1761.5c-1.7-.5-3.5-.7-5.3-.9-1.4-.1-2.8-.2-4.2-.6-3.2-.7-6-2-9-3.3-.6-.3-1.1-.5-1.7-.8l-2.1-.9-2.7-1.2c-.1 0-.2-.1-.3-.1-.7-.2-1.2-.5-1.4-.9-.2-.7.5-1.9.5-2.1.4-.8.9-1.6 1.6-2.3.1-.1.3-.1.4 0 .1.1.1.3 0 .4-.6.6-1 1.4-1.5 2.1-.3.5-.6 1.3-.5 1.6.1.2.7.4 1 .5.1 0 .2.1.3.1l2.7 1.2 2.1.9c.6.3 1.2.5 1.7.8 3 1.3 5.7 2.5 8.9 3.3 1.3.3 2.7.4 4.1.6 1.8.2 3.6.3 5.3.9.2.1.3.2.2.4.2.2.1.3-.1.3"/><path id="Fill-328_00000013182589920162325700000006795564473882588562_" class="st9" d="M-1078.1-1758.5c-.3 0-.8-.1-1.5-.3-.7-.2-1.7-.4-2.6-.5-.4-.1-1-.1-1.6-.1-1.8-.2-4.1-.4-5.4-.7-3.9-.9-7.1-2.6-10.6-4.4l-.1-.1c-1.1-.6-2.3-1-3.4-1.5l-.5-.2c-.9-.3-1.8-.7-2-1.4-.1-.5 0-1 .5-1.7.1-.1.3-.2.4-.1.1.1.2.3.1.4-.3.5-.5.9-.4 1.2.1.4.8.7 1.6 1l.5.2c1.2.5 2.4.9 3.5 1.5h.1c3.4 1.8 6.7 3.4 10.5 4.4 1.3.3 3.5.5 5.3.7.6.1 1.1.1 1.6.1 1 .1 2 .3 2.7.5.6.1 1.3.3 1.4.2.2-.1.5-.8.5-2 0-.2.1-.3.3-.3.2 0 .3.1.3.3 0 .8-.1 2.3-.9 2.6-.1.2-.2.2-.3.2"/><path id="Fill-330_00000095300559353086138150000011919091259939837358_" class="st9" d="M-1079.2-1758.5c-2.3 0-5.1-.7-6.5-1.1-.2 0-.3-.3-.2-.5 0-.2.2-.4.4-.3 1.4.4 4.2 1.1 6.4 1.1.6 0 1.4-.3 1.7-1 .1-.2.3-.3.4-.2.1.1.2.3.1.5-.6 1.4-1.9 1.5-2.3 1.5"/><path id="Fill-332_00000090287798996158708660000001849963977829111427_" class="st9" d="M-1101.6-1778.5c-.1 0-.2 0-.2-.1-.1-.1-.1-.3.1-.3.3-.2.7-.4 1.1-.6 1.4-.9 3.2-1.9 4.5-1.9.2 0 .3.1.3.2s-.1.2-.3.2c-1.2 0-2.9 1.1-4.2 1.8-.4.2-.8.5-1.1.6-.1.1-.2.1-.2.1"/><path id="Fill-334_00000134243987869546885540000001996212365381374109_" class="st9" d="M-1203.6-1854.5c-.1 0-.2-.1-.3-.2-.1-.2 0-.4.1-.5.5-.3.9-.4 1.6-.2.2 0 .3.2.2.4 0 .2-.2.3-.4.3-.5-.1-.8-.1-1.2.1.1.1 0 .1 0 .1"/><path id="Fill-336_00000050637706219777714990000007043389808935748532_" class="st9" d="M-1209.6-1853.5c-.1 0-.2 0-.3-.1-.1-.1-.1-.3.1-.4.6-.4 1.9-.6 2.6-.4.2.1.3.2.2.4-.1.2-.3.2-.5.2-.5-.1-1.5 0-1.9.3h-.2"/><path id="Fill-338_00000048462182139888855890000015984778138810709669_" class="st9" d="M-1207.9-1852c0-.3-.2-.5-.5-.5s-.5.2-.5.5.2.5.5.5c.2 0 .5-.2.5-.5"/><path id="Fill-340_00000048484236032641297060000006363138706718862747_" class="st9" d="M-1201.9-1852c0-.3-.2-.5-.5-.5s-.5.2-.5.5.2.5.5.5c.2 0 .5-.2.5-.5"/><path id="Fill-342_00000168094408266224480370000002698421276403588749_" class="st9" d="M-1227.6-1860.5c-.1 0-.1 0-.2-.1s-.1-.3 0-.4c.6-.7.7-2.3.7-3.6 0-1.2.1-2.1.5-2.5 1-.8 2.7-1.6 4-1.4.7.1 1.3.5 1.6 1.1.1.1 0 .3-.1.4-.1.1-.3.1-.4-.1-.3-.4-.7-.7-1.2-.8-1.1-.2-2.6.5-3.5 1.3-.2.2-.3 1.2-.3 2 0 1.4-.1 3-.9 3.9 0 .2-.1.2-.2.2"/><path id="Fill-344_00000153671305166924882860000013310224210067125407_" class="st9" d="M-1226.5-1852.5c-.6 0-1.4-.5-1.4-.5-1-.7-1.9-2.1-2.4-3.1-.8-1.9-1.1-5.7.5-7.8.7-1 1.8-1.5 3.1-1.6.2 0 .4.1.4.3 0 .2-.1.3-.3.3-1.1.1-2 .5-2.6 1.3-1.5 2-1.2 5.5-.5 7.3.4 1 1.2 2.2 2.1 2.8.1.1.6.3.8.3.1-.1.2-.1.3-.1.2 0 .4.1.4.3 0 .2-.1.3-.3.4.1.1 0 .1-.1.1"/><path id="Fill-346_00000182516710780967380580000004897989031976419238_" class="st9" d="M-1228.2-1850.5c-.9 0-1.8-.9-2.4-2.3-.5-1.2-.5-2.5-.1-3.5.1-.2.2-.2.3-.1.1.1.1.3.1.5-.3.8-.3 1.8.1 2.8.5 1.2 1.2 2 2 2 .1 0 .2.2.2.3.1.1 0 .3-.2.3"/><path id="Fill-348_00000005948740116774460660000003053647541987548555_" class="st9" d="M-1220.4-1848.5c-.1 0-.2-.1-.3-.2-.2-.3-.8-.8-1-1-.2-.1-.3-.4-.2-.6.1-.2.4-.3.6-.2.4.2 1 .9 1.3 1.2.1.2.1.5-.1.6-.1.2-.2.2-.3.2"/></g></svg>