<?xml version="1.0" encoding="UTF-8"?>
<svg width="107px" height="81px" viewBox="0 0 107 81" version="1.1" xmlns="http://www.w3.org/2000/svg" xmlns:xlink="http://www.w3.org/1999/xlink">
    <title>Fill 1</title>
    <g id="Page-1" stroke="none" stroke-width="1" fill="none" fill-rule="evenodd">
        <g id="About-Us" transform="translate(-132.000000, -1414.000000)" fill="#FC9001">
            <path d="M132,1414 L180,1414 L180,1454.87009 C180,1461.66551 178.766266,1467.30675 176.297389,1471.80776 C173.827101,1476.29901 170.643363,1480.03196 166.739124,1483.008 C162.837705,1485.97847 158.469583,1488.36907 153.638986,1490.17281 C148.808389,1491.97796 144.028552,1493.58795 139.305114,1495 L132.108569,1482.26504 C135.689922,1480.91989 138.748171,1479.55802 141.288958,1478.17803 C143.832565,1476.79525 145.908057,1475.29259 147.518256,1473.66448 C149.129865,1472.03357 150.30861,1470.17407 151.06295,1468.09432 C151.81588,1466.00342 152.188115,1463.54453 152.188115,1460.71624 L132,1460.71624 L132,1414 Z M191,1414 L239,1414 L239,1454.87009 C239,1461.66551 237.76905,1467.30675 235.305744,1471.80776 C232.841032,1476.29901 229.644783,1480.03196 225.715592,1483.008 C221.787808,1485.97847 217.415475,1488.36907 212.590152,1490.17281 C207.770457,1491.97796 203.002814,1493.58795 198.288628,1495 L191.216647,1482.26504 C194.789918,1480.91989 197.841266,1479.55802 200.374912,1478.17803 C202.912778,1476.79525 204.984994,1475.29259 206.588746,1473.66448 C208.199531,1472.03357 209.375615,1470.17407 210.126846,1468.09432 C210.878077,1466.00342 211.250879,1463.54453 211.250879,1460.71624 L191,1460.71624 L191,1414 Z" id="Fill-1" transform="translate(185.500000, 1454.500000) scale(-1, 1) translate(-185.500000, -1454.500000) "></path>
        </g>
    </g>
</svg>