<svg version="1.1" id="Layer_1" xmlns="http://www.w3.org/2000/svg" x="0" y="0" viewBox="0 0 270 220" xml:space="preserve" enable-background="new 0 0 270 220"><style>.st1,.st2,.st3{fill-rule:evenodd;clip-rule:evenodd;fill:#ffd185}.st2,.st3{fill:#fff}.st3{fill:#2f3541}</style><path id="Fill-1" d="M158.4 37.3c.7-.3 2.3-.8 3.9-1 3.2-.3 6.8-.8 7.8-1.9.9-.9 2.5-2 3.4-2.8 3.9-3.5 7.9-5.8 10.7-4.7 1 .4 3.5 1.1 5.3 2.1 3.4 1.8 7.7 4.9 12.2 8.5 2.7 2.1 5.4 4.2 8.3 6.9 2.7 2.4 6.1 5.3 8.4 8.1 1.1 1.3 2.7 5.8 4.5 10.2C225.6 69.3 229 77 229 77l8 8.9-3.6 1.2s1.1 3.7 1.5 5.9c.4 2.4 0 3.9-.8 4.8-1.2 1.6-4.2 2.3-7.5.3-3.7-2.3-7.7-7.4-7.7-7.4l-8.5-6.5s3.2 7.2 1.9 11.3c-.9 3-5.6 3.5-8.1 2.4-1.2-.6-3.1-2.2-4.6-4.1-3.5-4.6-6.8-11.8-9.3-16.3-1.3-2.4-3-3.8-3-3.8s7.8 12.3 9.5 17.8c.2.6.3 1.4.3 1.8.1 1.7-1.2 3.1-2.5 4.2-2 1.6-4.6 2.3-8.3.8-3.4-1.4-6.1-4.3-8.7-7-.5-.5-1.9-1.8-2.3-2.3-1.8-1.8-3.8-3.1-3.8-3.1s2.5 3 4.5 5c2.2 2.2 4.6 4.5 6 7.1.9 1.8.7 3.6.2 4.7-.7 1.6-3.1 4.8-6 5.1-5 .5-11.5-3.2-11.5-3.2s-2 3.1-4.3 4.8c-2.3 1.7-2.8 1.6-4.9 2.1-3.7.9-8.1 1.2-11.8 2.5-5.4 1.9-15.3 6.4-22.8 9.3-13.1 5.2-17.9 7-17.9 7s-1.7-1.8-2.6-5.1c-2-7.2-1.7-12.3-1.6-18.8.4-13.7 3-22.1 4.7-25.9.7-1.6 1.5-2.2 1.5-2.2s2.2-.7 12.4-4.2c16.1-5.5 25.9-12 25.9-12s.3-1.2 1.7-3.2c1.7-2.4 4.1-4.4 5.3-7.7 2.6-5.7 2.4-11.6 8.1-13.9" fill-rule="evenodd" clip-rule="evenodd" fill="#ffd6ad"/><path id="Fill-3" class="st1" d="M226 99.1s2 1 4.1 1c1.5 0 3.1-.5 3.8-1.7 1.7-2.8-.9-10.5-.9-10.5s3.1-1.4 4.8-1.4c5.3 0 10.1 4.9 10.1 10.8 0 3.6-.6 5.8-3.1 8.2-1.6 1.5-5.3 4-7.4 4-1.9 0-5.2-.7-7.1-2.1-3.9-3.2-4.3-8.3-4.3-8.3"/><path id="Fill-5" class="st1" d="M233.3 133c4.5-1.1 11.2-.3 14.9 1.3 1.6.7 2.7 3 2.7 3l-.2 3.6-.5 1.3.7 1.3-.1 3.5-.6 1.3.1 1-.1 3.1s.8.5 1.2 1.3c.4.8.3 1.9.3 1.9l-.1 2.6-1.6 2.2-.2 2.1 1.2 1.7-.1 3.7-.7 1.6v3.8l1.6 2-.1 4-1.9 2.5.1 1.9 1.1 1.8-.2 4.2s-1.5 2.1-5.1 3.2c-3.4 1-8.8.9-11.7.5-1.8-.3-4.8-1.4-5.8-2.4-2.3-2.2-1.2-5-1.2-5l-1-1.5v-4.1l1.7-2v-2.8l-1.3-1.6v-3.9l.6-1.4v-3.6l-1.1-1.6v-4.2l1.8-2v-2.7l-1.5-1.9.1-3.8.6-1.2v-4.4l.6-1-.5-1.3v-3.9c-.1-.1-.2-2.5 6.3-4.1"/><path id="Fill-7" class="st1" d="M187 144c4.5-1.1 10.1-.1 13.8 1.5 1.6.7 2.6 2.6 2.6 2.6l.1 1-.1 3.1s.8.5 1.2 1.3c.4.8.3 1.9.3 1.9s.2 1.4-.2 2.4c-.4 1.1-1.4 1.9-1.4 1.9l-.1 2.1 1 2-.1 3.6-.7 1.6.1 3.3 1.5 2.3-.1 4-1.6 1.9v2.1l1 2-.2 4.2s-1.2 1.9-4.8 2.9c-3.4 1-8.8 1-11.7.6-1.8-.3-4.9-1.4-6-2.4-2.3-2.2-1.4-4.7-1.4-4.7l-1-1.5v-4.1l1.7-2v-2.8l-1.3-1.6v-3.9l.6-1.4v-3.5l-1.1-1.6v-4.1l1.8-2v-2.6l-1.5-2.2v-3.5l.6-1.1c-.1.1.4-1.7 7-3.3"/><path id="Fill-9" class="st1" d="M144.4 154c4.7-1.1 10.5-.1 14.3 1.5 1.7.7 2.7 2.6 2.7 2.6l.1 1-.1 2.6s.8.9 1.2 1.7c.4.8.3 1.9.3 1.9l-.1 2.5-1.6 2.2-.2 2.1 1.2 1.7-.1 3.6-.7 1.6v3.4l1.7 2.2-.1 4s-1.2 2.2-5.6 3.3c-1.8.5-6.7.9-9.8.6-2.9-.3-4.7-1-5.4-1.2-3.9-.9-4.1-3.8-4.1-3.8v-2.8l-1.4-1.5v-3.9l.7-1.4v-3.5l-1.2-1.6s-.3-2.8.1-4.3c.5-1.5 1.7-1.8 1.7-1.8v-2.6s-1-.9-1.4-2.3c-.4-1.4-.1-3.3-.1-3.3l.6-1.1c-.1-.1.5-1.8 7.3-3.4"/><path id="Fill-11" class="st1" d="M102 165c4.6-1.1 10.2-.1 13.9 1.5 1.7.7 2.6 2.5 2.6 2.5l.1 1v2.5s.8.7 1.2 1.4c.4.8.2 2.1.2 2.1l-.1 2.5-1.6 2.2v1.9l1.1 1.5-.1 3.9-.7 1.5s-3.9 2.1-6.3 2.4c-2.8.4-5.5.5-6.2.4-3.7-.4-8.3-1.8-8.3-1.8s-1.7-.9-2.3-2.2c-.7-1.4-.3-3.2-.3-3.2l-1.1-1.5.2-4.4 1.6-1.7v-2.6l-1.2-2.1-.2-3.5.6-1.1c-.2.1.3-1.7 6.9-3.2"/><path id="Fill-13" class="st1" d="M57.7 175c4.6-1.1 10.3-.1 14.1 1.5 1.7.7 2.6 2.2 2.6 2.2l.1 1.4.1 2.5s.9.7 1.2 1.5c.4.8 0 2.1 0 2.1l-.1 2.5s-.3 1.5-2.9 2.6c-2.6 1-5 1.1-7 1.3-3.7.3-6.8.1-11-1.4-3-1-3.4-3.4-3.4-3.4l.1-2.7L50 183v-3.4l.4-1.2c0-.1.6-1.9 7.3-3.4"/><path id="Fill-25" class="st2" d="m18.7 94.1 27.4-4.5L79.4 85l22.2-6.6s2.4-.9 4.1-1c1.6-.2 2.4.4 2.4.4l-3.3 1.1s-1.7 2.9-2.6 5.7c-1.5 4.4-2.6 10.5-3.3 20.1-.4 6.2-.1 14.4 1.1 19.3 1.3 5.1 3 6.7 3 6.7l2.9-1.2s.8 2.6-2.1 3.9c-2.7 1.2-7.6 2.2-11.7 3.4-4.6 1.3-10.6 3.3-10.6 3.3l-34.8 11.8-23.2 6.6s-7.3-9.7-4.9-27.3c3.1-23 .1-37.1.1-37.1"/><path id="Fill-27" class="st3" d="M231.2 100.5c-.4 0-.8 0-1.2-.1-3.6-.7-7.6-4-11.2-9.5-2.7-4-4.9-8.3-6.8-12-2.3-4.5-4.3-8.3-6-9.3-.2-.1-.2-.4-.1-.5.1-.2.4-.2.5-.1 1.8 1.1 3.8 4.9 6.3 9.6 1.9 3.7 4.1 8 6.8 12 4.8 7.2 8.8 8.8 10.7 9.2 1.4.3 2.6 0 3.6-.7 2.8-2 1.8-7-4.4-20.6-1.6-3.6-3.6-8.4-5.5-13.1-2.4-5.8-4.6-11.3-5.4-12.3-2.7-3.6-24.2-22.7-33.7-25.4-4.4-1.2-7.7 1.8-10.9 4.7-1.4 1.3-2.7 2.5-4.2 3.4-1.3.8-3.9 1.1-6.1 1.3-1.1.1-2.1.2-2.8.4-3.1.7-5.7 2.7-6.8 5.2-.5 1.1-.9 2.8-1.3 4.5-.5 2.1-1.1 4.3-1.9 5.7-1.1 2-2.2 3.4-3.3 4.7-1.4 1.7-2.7 3.3-3.8 6.3-.1.3-.2.7-.4 1.1-1.2 3.4-2.8 8.1-6.7 11-.2.1-.4.1-.6-.1-.1-.2-.1-.4.1-.6 3.7-2.7 5.2-7.1 6.4-10.6.1-.4.3-.7.4-1.1 1.1-3.1 2.5-4.7 3.9-6.5 1-1.3 2.1-2.6 3.2-4.5.8-1.4 1.3-3.5 1.8-5.5.4-1.8.8-3.4 1.4-4.6 1.2-2.7 4-4.9 7.3-5.6.8-.2 1.8-.3 2.9-.4 2.2-.2 4.6-.5 5.8-1.2 1.4-.9 2.7-2 4-3.3 3.4-3 6.9-6.2 11.7-4.8 9.8 2.8 31.3 21.9 34.1 25.7.8 1.1 3 6.4 5.5 12.5 1.9 4.7 3.9 9.5 5.5 13 6.5 14.2 7.4 19.2 4.1 21.6-.8.2-1.8.5-2.9.5"/><path id="Fill-29" class="st3" d="M207.1 99.5c-2.7 0-5.3-1.4-7.2-3.8-3-3.8-5.4-8.5-7.5-12.7-2.2-4.3-4.2-8.1-5.7-8.6-.2-.1-.3-.3-.3-.5.1-.2.3-.3.5-.2 1.9.6 3.8 4.3 6.2 9 2.1 4.1 4.5 8.8 7.4 12.5 1.9 2.4 4.5 3.7 7.1 3.5 1.8-.1 3.4-1 4.1-2.3 1.3-2.2-.3-6.9-2.4-13.3-.6-1.9-1.3-4-2-6.3l-.5-1.7c-1.5-5-3.1-10.2-6-14.4-.5-.7-3-2.5-5.9-4.6-5.9-4.3-14-10.1-15.8-14-.1-.2 0-.4.2-.5.2-.1.4 0 .5.2 1.8 3.7 9.7 9.5 15.6 13.7 3.2 2.3 5.5 4 6.1 4.8 3 4.3 4.6 9.5 6.1 14.6l.5 1.7c.7 2.2 1.4 4.4 2 6.2 2.2 6.6 3.8 11.4 2.3 14-.9 1.5-2.7 2.5-4.8 2.7h-.5"/><path id="Fill-31" class="st3" d="M190 100.5c-.4 0-.7 0-1.1-.1-4.1-.7-8.7-5.4-14.8-12-.1-.2-.1-.4 0-.6.2-.1.4-.1.6 0 6 6.4 10.5 11.1 14.4 11.7 2.3.4 5.4-.8 7-2.8.8-1 1.7-2.7.8-4.8-2.1-5.3-11.6-22.2-16.7-26.7-1.5-1.3-5.2-3-9.1-4.9-3.8-1.8-7.8-3.6-9.9-5.2-.2-.1-.2-.4-.1-.6.1-.2.4-.2.6-.1 2 1.6 6 3.4 9.7 5.1 3.9 1.8 7.7 3.6 9.3 5 5.2 4.5 14.8 21.7 16.9 27 .8 1.9.5 3.9-.9 5.6-1.6 2.1-4.3 3.4-6.7 3.4"/><path id="Fill-33" class="st3" d="M174.8 108.5c-2.9 0-5.9-1.4-8.4-2.6l-.9-.4c-2.7-1.2-5.3-2.6-7.9-4-4.2-2.3-8.6-4.6-13.3-6.1-.2-.1-.3-.3-.3-.5.1-.2.3-.3.5-.3 4.8 1.5 9.2 3.9 13.4 6.2 2.5 1.4 5.1 2.8 7.8 4l.9.4c2.9 1.4 6.6 3.1 9.8 2.3 1.8-.4 3.4-1.5 4.5-3 1.2-1.6 1.6-3.4 1.1-5.1-.5-2.2-3.2-4.9-4.3-5.9-1.8-1.7-3.5-3.6-5.1-5.5-2.1-2.4-4.3-4.9-6.9-7-2-1.6-5.3-2.9-8.4-4.2-2.9-1.2-5.7-2.3-7.5-3.6-.2-.1-.2-.4-.1-.6.1-.2.4-.2.5-.1 1.8 1.3 4.5 2.4 7.4 3.5 3.2 1.3 6.5 2.6 8.6 4.3 2.6 2.1 4.8 4.6 7 7 1.6 1.8 3.3 3.7 5.1 5.4 1.5 1.4 4 4 4.6 6.3.5 2 0 4-1.3 5.8-1.2 1.6-3 2.9-4.9 3.3-.7.3-1.3.4-1.9.4"/><path id="Fill-35" class="st3" d="M103.4 131.5c-.2 0-.3-.1-.4-.2-.1-.2 0-.4.2-.5 18.6-7.2 35.7-14 40.1-15.8 1.9-.8 4.6-1.3 7.4-1.8 3.3-.6 6.8-1.2 8.9-2.4.7-.4 2.9-2.6 4.7-5.1.1-.2.4-.2.5-.1.2.1.2.4.1.5-1.7 2.4-4.1 4.8-4.9 5.3-2.2 1.3-5.7 1.9-9.1 2.5-2.8.5-5.4 1-7.2 1.7-4.3 1.9-21.5 8.7-40.1 15.8-.1.1-.2.1-.2.1"/><path id="Fill-37" class="st3" d="M23.4 159.5c-.2 0-.3-.1-.4-.3-.1-.2.1-.4.3-.5 17.8-4.6 35.5-10.8 52.6-16.8l5.5-1.9c4.2-1.5 9.4-3 13.9-4.3 1.2-.3 2.3-.6 3.3-.9 5-1.3 7.1-2 6.6-4.8 0-.2.1-.4.3-.5.2 0 .4.1.5.3.6 3.6-2.5 4.4-7.2 5.7-1 .3-2.1.6-3.3.9-4.5 1.3-9.6 2.8-13.8 4.3l-5.5 1.9c-17.2 6.1-34.9 12.3-52.8 16.9.1 0 0 0 0 0"/><path id="Fill-39" class="st3" d="M105.4 79.5c-.2 0-.3-.1-.4-.3-.1-.2.1-.4.3-.5 11.3-3.3 22.1-7.6 33.1-13.2.2-.1.4 0 .5.2.1.2 0 .4-.2.5-11.1 5.6-22 9.9-33.3 13.2.1.1 0 .1 0 .1"/><g id="Group-43" transform="translate(0 50)"><defs><filter id="Adobe_OpacityMaskFilter" filterUnits="userSpaceOnUse" x="18" y="27" width="90.4" height="17.9"><feColorMatrix values="1 0 0 0 0 0 1 0 0 0 0 0 1 0 0 0 0 0 1 0"/></filter></defs><mask maskUnits="userSpaceOnUse" x="18" y="27" width="90.4" height="17.9" id="mask-2_00000024686518341564503100000000428085580863930001_"><g filter="url(#Adobe_OpacityMaskFilter)"><path id="path-1_00000091694578536163264180000008456354390986445962_" class="st2" d="M18 27h90.4v17.9H18z"/></g></mask><path id="Fill-41" d="M18.4 44.9c-.2 0-.3-.1-.4-.3 0-.2.1-.4.3-.5 12.2-2.7 23.4-4.1 34.2-5.4 11.8-1.5 22.9-2.8 34.2-5.7 4.2-1.1 7.8-2.4 11.1-3.6 5.2-1.9 8.7-3.2 10.4-1.9.2.1.2.4.1.6-.1.2-.4.2-.5.1-1.4-1-5.1.3-9.7 2-3.2 1.2-6.9 2.5-11.1 3.6-11.4 2.9-22.5 4.3-34.3 5.7-10.9 1.3-22.1 2.7-34.3 5.4" mask="url(#mask-2_00000024686518341564503100000000428085580863930001_)" fill-rule="evenodd" clip-rule="evenodd" fill="#2f3541"/></g><path id="Fill-44" class="st3" d="M236.6 86.5c-.1 0-.2-.1-.3-.1-.3-.4-1-1.1-1.9-2-1.9-1.9-4.8-4.9-6.4-7.3-.1-.2-.1-.4.1-.5.2-.1.4-.1.5.1 1.6 2.4 4.4 5.3 6.3 7.2.9.9 1.6 1.6 1.9 2 .1.2.1.4-.1.5.1.1 0 .1-.1.1"/><path id="Fill-46" class="st3" d="M192.7 193.5c-3.4 0-6.5-.6-8.8-1.5-2.5-1-3.8-2.5-3.8-4v-2.8c0-.2.2-.4.4-.4s.4.2.4.4v2.8c0 1.2 1.2 2.4 3.3 3.3 2.3.9 5.3 1.5 8.5 1.5 6.3 0 11.5-2 11.5-4.6 0-.5.1-3.1.1-3.2 0-.2.2-.4.4-.4s.4.2.4.4c0 0-.1 2.7-.1 3.2-.1 3-5.4 5.3-12.3 5.3"/><path id="Fill-48" class="st3" d="M192.6 190.5c-6.7 0-12.1-2.2-12.5-5.1 0-.2.1-.4.3-.5.2 0 .4.1.5.3.4 2.4 5.6 4.4 11.7 4.4 3.2 0 6.2-.5 8.4-1.4 2.1-.9 3.3-2 3.3-3.2 0-.6-.3-1.2-1-1.8-.2-.1-.2-.4 0-.6.1-.2.4-.2.6 0 .8.8 1.2 1.6 1.2 2.4 0 1.5-1.4 2.9-3.8 4-2.4 1-5.5 1.5-8.7 1.5"/><path id="Fill-50" class="st3" d="M181.5 190.5c-.3 0-.5-.2-.5-.4V187c0-.2.2-.4.5-.5.3 0 .5.2.5.4l.1 3.1c-.1.3-.3.5-.6.5z"/><path id="Fill-52" class="st3" d="M185.5 192.5c-.3 0-.5-.2-.5-.4V189c0-.2.2-.4.5-.4s.5.2.5.4v3.1c0 .2-.2.4-.5.4z"/><path id="Fill-54" class="st3" d="M190.5 192.5c-.3 0-.5-.2-.5-.3v-2.3c0-.2.2-.3.5-.3s.5.2.5.3v2.3c0 .1-.2.3-.5.3z"/><path id="Fill-56" class="st3" d="M196.5 192.5c-.3 0-.5-.2-.5-.4V189c0-.2.2-.5.5-.5s.5.2.5.4l.1 3.1c-.1.3-.3.5-.6.5z"/><path id="Fill-58" class="st3" d="M200.5 191.5c-.2 0-.4-.2-.5-.4V188c0-.2.2-.5.4-.5.3 0 .5.2.5.4l.1 3.1c0 .3-.2.5-.5.5z"/><path id="Fill-60" class="st3" d="M203.5 190.5c-.3 0-.5-.2-.5-.4V187c0-.2.2-.4.5-.4s.5.2.5.4v3.1c0 .2-.2.4-.5.4"/><path id="Fill-62" class="st3" d="M191.7 187.5c-3.4 0-6.5-.5-8.9-1.4-2.5-1-3.8-2.3-3.8-3.7v-2.8h.8v2.8c0 1.1 1.2 2.2 3.4 3 2.3.9 5.3 1.4 8.5 1.4h.1c3.2 0 6.1-.5 8.2-1.3 2.1-.8 3.2-1.8 3.2-3 0-.4.1-1.7.1-2.4 0-.2.2-.4.4-.4s.4.2.4.4c0 .7-.1 2.1-.1 2.4 0 1.4-1.3 2.7-3.7 3.7-2.3.8-5.3 1.3-8.6 1.3"/><path id="Fill-64" class="st3" d="M191.6 185.5c-3.4 0-6.5-.5-8.8-1.4-2.4-1-3.8-2.3-3.8-3.7 0-1 .7-2 1.9-2.8.2-.1.4-.1.5.1.1.2.1.4-.1.5-.7.5-1.6 1.2-1.6 2.1 0 1.1 1.2 2.2 3.3 3 2.2.9 5.2 1.4 8.4 1.4h.1c5.9 0 11-1.7 11.6-3.9.1-.2.3-.3.5-.3.2.1.3.3.3.5-.7 2.6-5.9 4.5-12.3 4.5"/><path id="Fill-66" class="st3" d="M191.1 183.5c-6.4 0-11.1-1.7-11.1-3.9 0-.3.1-.6.3-.9.1-.2.4-.2.6-.1.2.1.3.3.1.5-.1.2-.2.4-.2.5 0 1.5 4.2 3.1 10.2 3.1h.1c1.7 0 3.4-.1 4.9-.4.3-.1 1-.2 1.4-.3h.1c.2 0 .4.1.5.3.1.2-.1.4-.3.5h-.1c-.4.1-1.1.2-1.4.3-1.6.3-3.3.4-5.1.4"/><path id="Fill-68" class="st3" d="M180.5 185.5c-.3 0-.5-.2-.5-.4V182c0-.2.2-.4.5-.5.2 0 .5.2.5.4l.1 3.1c-.1.3-.3.5-.6.5z"/><path id="Fill-70" class="st3" d="M184.5 187.5c-.3 0-.5-.2-.5-.4V184c0-.2.2-.4.5-.4s.5.2.5.4v3.1c0 .2-.2.4-.5.4z"/><path id="Fill-72" class="st3" d="M189.5 187.5c-.3 0-.5-.2-.5-.3v-2.3c0-.2.2-.3.5-.3s.5.2.5.3v2.3c0 .1-.2.3-.5.3z"/><path id="Fill-74" class="st3" d="M195.5 188.5c-.3 0-.5-.2-.5-.4V185c0-.2.2-.5.5-.5.2 0 .5.2.5.4l.1 3.1c-.1.3-.3.5-.6.5z"/><path id="Fill-76" class="st3" d="M199.5 187.5c-.2 0-.4-.2-.5-.4V184c0-.2.2-.5.4-.5.3 0 .5.2.5.4l.1 3.1c0 .3-.2.5-.5.5z"/><path id="Fill-78" class="st3" d="M202.5 185.5c-.3 0-.5-.2-.5-.4V182c0-.2.2-.4.5-.4s.5.2.5.4v3.1c0 .2-.2.4-.5.4"/><path id="Fill-80" class="st3" d="M193.7 183.5c-3.4 0-6.5-.6-8.8-1.5-2.5-1-3.8-2.5-3.8-4v-3h.8v3c0 1.2 1.2 2.4 3.3 3.3 2.3.9 5.3 1.5 8.5 1.5h.1c6.3 0 11.4-2 11.4-4.6 0-.5.1-3.1.1-3.2 0-.2.2-.4.4-.4s.4.2.4.4c0 0-.1 2.7-.1 3.2-.1 3-5.4 5.3-12.3 5.3"/><path id="Fill-82" class="st3" d="M193.6 180.5c-7.1 0-12.6-2.3-12.6-5.3 0-.2.2-.4.4-.4s.4.2.4.4c0 2.4 5.4 4.5 11.7 4.5h.1c6.3 0 11.6-2 11.7-4.5 0-.9-.7-1.6-1.4-2.1-.2-.1-.2-.4-.1-.5.1-.2.4-.2.5-.1 1.1.8 1.7 1.7 1.7 2.7 0 3-5.5 5.3-12.4 5.3"/><path id="Fill-84" class="st3" d="M193.5 178.5c-3.9 0-7.4-.8-9.3-2-.2-.1-.2-.4-.1-.6.1-.2.4-.2.5-.1 1.7 1.2 5.1 1.9 8.8 1.9h.1c5.7 0 9.8-1.7 9.8-3.2 0-.1 0-.3-.1-.4-.1-.2 0-.4.2-.5.2-.1.4 0 .5.2.1.2.2.5.2.7-.1 2.3-4.6 4-10.6 4"/><path id="Fill-86" class="st3" d="M182.5 180.5c-.3 0-.5-.2-.5-.4V177c0-.2.2-.4.5-.5.3 0 .5.2.5.4l.1 3.1c-.1.3-.3.5-.6.5z"/><path id="Fill-88" class="st3" d="M186.5 182.5c-.3 0-.5-.2-.5-.4V179c0-.2.2-.4.5-.4s.5.2.5.4v3.1c0 .2-.2.4-.5.4z"/><path id="Fill-90" class="st3" d="M191.5 182.5c-.3 0-.5-.2-.5-.3v-2.3c0-.2.2-.3.5-.3s.5.2.5.3v2.3c0 .1-.2.3-.5.3z"/><path id="Fill-92" class="st3" d="M197.5 182.5c-.3 0-.5-.2-.5-.4V179c0-.2.2-.5.5-.5s.5.2.5.4l.1 3.1c-.1.3-.3.5-.6.5z"/><path id="Fill-94" class="st3" d="M201.5 182.5c-.2 0-.4-.2-.5-.4V179c0-.2.2-.5.4-.5s.5.2.5.4l.1 3.1c0 .3-.2.5-.5.5z"/><path id="Fill-96" class="st3" d="M204.5 180.5c-.3 0-.5-.2-.5-.4V177c0-.2.2-.4.5-.4s.5.2.5.4v3.1c0 .2-.2.4-.5.4"/><path id="Fill-98" class="st3" d="M191.7 177.5c-3.4 0-6.5-.6-8.8-1.5-2.5-1-3.8-2.5-3.8-4v-3h.8v3c0 1.2 1.2 2.4 3.3 3.3 2.3.9 5.3 1.5 8.5 1.5 6.3.1 11.5-2 11.5-4.6 0-.5.1-3.1.1-3.2 0-.2.2-.4.4-.4s.4.2.4.4c0 0-.1 2.7-.1 3.2-.1 3-5.4 5.3-12.3 5.3"/><path id="Fill-100" class="st3" d="M191.6 174.5c-7.1 0-12.6-2.5-12.6-5.7 0-.7.3-1.5.9-2.1.1-.2.4-.2.6 0 .2.2.2.4 0 .6-.4.5-.7 1-.7 1.6 0 2.6 5.4 4.9 11.7 4.9 3.2 0 6.2-.5 8.4-1.5 2.1-.9 3.3-2.1 3.3-3.3 0-.3-.1-.5-.2-.8-.1-.2 0-.5.2-.6.2-.1.4 0 .5.2.2.4.2.7.2 1.1 0 1.6-1.4 3.1-3.8 4.1-2.2.9-5.3 1.5-8.5 1.5"/><path id="Fill-102" class="st3" d="M191.8 172.5c-2.9 0-5.5-.4-7.5-1-2.1-.7-3.3-1.6-3.3-2.7 0-.2.2-.4.4-.4s.4.2.4.4c0 .7 1 1.4 2.8 2 1.9.6 4.4.9 7.2 1h.1c4.4 0 8.3-.9 9.5-2.2.1-.2.4-.2.6 0 .2.1.2.3.1.5-1.5 1.4-5.6 2.4-10.3 2.4"/><path id="Fill-104" class="st3" d="M181.5 175.5c-.3 0-.5-.2-.5-.4V172c0-.2.2-.4.5-.5.3 0 .5.2.5.4l.1 3.1c-.1.3-.3.5-.6.5z"/><path id="Fill-106" class="st3" d="M185.5 176.5c-.3 0-.5-.2-.5-.4V173c0-.2.2-.4.5-.4s.5.2.5.4v3.1c0 .2-.2.4-.5.4z"/><path id="Fill-108" class="st3" d="M189.5 177.5c-.3 0-.5-.2-.5-.3v-2.3c0-.2.2-.3.5-.3s.5.2.5.3v2.3c0 .1-.2.3-.5.3z"/><path id="Fill-110" class="st3" d="M195.5 177.5c-.3 0-.5-.2-.5-.4V174c0-.2.2-.5.5-.5s.5.2.5.4l.1 3.1c-.1.3-.3.5-.6.5z"/><path id="Fill-112" class="st3" d="M199.5 176.5c-.2 0-.4-.2-.5-.4V173c0-.2.2-.5.4-.5s.5.2.5.4l.1 3.1c0 .3-.2.5-.5.5z"/><path id="Fill-114" class="st3" d="M202.5 174.5c-.3 0-.5-.2-.5-.4V171c0-.2.2-.4.5-.4s.5.2.5.4v3.1c0 .2-.2.4-.5.4"/><path id="Fill-116" class="st3" d="M192.7 172.5c-7.2 0-12.7-2.5-12.7-5.6v-2.8h.8v2.8c0 2.6 5.4 4.7 11.8 4.7h.1c6.3 0 11.4-2 11.4-4.6 0-.5.1-3.1.1-3.2 0-.2.2-.4.4-.4s.4.2.4.4c0 0-.1 2.7-.1 3.2 0 3.2-5.3 5.5-12.2 5.5"/><path id="Fill-118" class="st3" d="M192.5 169.5c-6.5 0-11.9-2.1-12.5-4.9-.1-.2.1-.4.3-.5.2-.1.4.1.5.3.6 2.4 5.7 4.3 11.7 4.3h.1c6.3 0 11.7-2.1 11.7-4.7 0-.6-.3-1.2-1-1.8-.2-.1-.2-.4 0-.6.1-.2.4-.2.6 0 .8.8 1.2 1.6 1.2 2.4-.1 3.1-5.6 5.5-12.6 5.5"/><path id="Fill-120" class="st3" d="M181.5 169.5c-.3 0-.5-.2-.5-.4V166c0-.2.2-.4.5-.5.3 0 .5.2.5.4l.1 3.1c-.1.3-.3.5-.6.5z"/><path id="Fill-122" class="st3" d="M185.5 171.5c-.3 0-.5-.2-.5-.4V168c0-.2.2-.4.5-.4s.5.2.5.4v3.1c0 .2-.2.4-.5.4z"/><path id="Fill-124" class="st3" d="M190.5 171.5c-.3 0-.5-.2-.5-.3v-2.3c0-.2.2-.3.5-.3s.5.2.5.3v2.3c0 .1-.2.3-.5.3"/><path id="Fill-126" class="st3" d="M196.5 171.5c-.3 0-.5-.2-.5-.4V168c0-.2.2-.5.5-.5.2 0 .5.2.5.4l.1 3.1c-.1.3-.3.5-.6.5z"/><path id="Fill-128" class="st3" d="M200.5 170.5c-.2 0-.4-.2-.5-.4V167c0-.2.2-.5.4-.5.3 0 .5.2.5.4l.1 3.1c0 .3-.2.5-.5.5z"/><path id="Fill-130" class="st3" d="M203.5 169.5c-.3 0-.5-.2-.5-.4V166c0-.2.2-.4.5-.4s.5.2.5.4v3.1c0 .2-.2.4-.5.4"/><path id="Fill-132" class="st3" d="M191.7 167.5c-3.4 0-6.5-.5-8.9-1.4-2.5-1-3.8-2.3-3.8-3.7v-2.8h.8v2.8c0 1.1 1.2 2.2 3.4 3 2.3.9 5.3 1.4 8.5 1.4h.1c3.2 0 6.1-.5 8.2-1.3 2.1-.8 3.2-1.8 3.2-3 0-.5.1-2.4.1-2.4h.8s-.1 1.9-.1 2.4c0 1.4-1.3 2.7-3.7 3.7-2.3.8-5.3 1.3-8.6 1.3"/><path id="Fill-134" class="st3" d="M191.6 164.5c-3.4 0-6.5-.5-8.8-1.4-2.5-1-3.8-2.3-3.8-3.7 0-1 .7-2 1.9-2.8.2-.1.4-.1.5.1.1.2.1.4-.1.5-.7.5-1.6 1.2-1.6 2.1 0 1.1 1.2 2.2 3.3 3 2.2.9 5.2 1.4 8.4 1.4h.1c5.8 0 10.9-1.7 11.6-3.9.1-.2.3-.3.5-.3.2.1.3.3.3.5-.7 2.6-5.9 4.5-12.3 4.5"/><path id="Fill-136" class="st3" d="M191.5 162.5c-2.8 0-5.4-.4-7.3-1.1-2.1-.7-3.2-1.7-3.2-2.8 0-.3.1-.6.3-1 .1-.2.4-.2.5-.1.2.1.2.3.1.5s-.2.4-.2.6c0 .7 1 1.5 2.7 2.1 1.9.6 4.3 1 7 1 2.2 0 4.3-.2 6.1-.7.2-.1.4.1.5.3.1.2-.1.4-.3.5-1.8.5-3.9.7-6.2.7"/><path id="Fill-138" class="st3" d="M180.5 164.5c-.3 0-.5-.2-.5-.4V161c0-.2.2-.4.5-.5.2 0 .5.2.5.4l.1 3.1c-.1.3-.3.5-.6.5z"/><path id="Fill-140" class="st3" d="M184.5 166.5c-.3 0-.5-.2-.5-.4V163c0-.2.2-.4.5-.4s.5.2.5.4v3.1c0 .2-.3.4-.5.4"/><path id="Fill-142" class="st3" d="M189.5 166.5c-.3 0-.5-.2-.5-.3v-2.3c0-.2.2-.3.5-.3s.5.2.5.3v2.3c0 .1-.2.3-.5.3z"/><path id="Fill-144" class="st3" d="M195.5 167.5c-.3 0-.5-.2-.5-.4V164c0-.2.2-.5.5-.5s.5.2.5.4l.1 3.1c-.1.3-.3.5-.6.5z"/><path id="Fill-146" class="st3" d="M199.5 166.5c-.2 0-.4-.2-.5-.4V163c0-.2.2-.5.4-.5s.5.2.5.4l.1 3.1c0 .3-.2.5-.5.5z"/><path id="Fill-148" class="st3" d="M202.5 164.5c-.3 0-.5-.2-.5-.4V161c0-.2.2-.4.5-.4s.5.2.5.4v3.1c0 .2-.2.4-.5.4"/><path id="Fill-150" class="st3" d="M193.7 162.5c-3.4 0-6.5-.6-8.8-1.5-2.5-1-3.8-2.5-3.8-4v-3h.8v3c0 1.2 1.2 2.4 3.3 3.3 2.3.9 5.3 1.5 8.5 1.5s6.1-.5 8.3-1.4c2.1-.9 3.2-2 3.2-3.2 0-.5.1-3.1.1-3.2 0-.2.2-.4.4-.4s.4.2.4.4c0 0-.1 2.7-.1 3.2 0 1.6-1.3 3-3.7 3.9-2.3.9-5.4 1.4-8.6 1.4"/><path id="Fill-152" class="st3" d="M193.6 159.5c-3.4 0-6.5-.5-8.8-1.5-2.4-1-3.8-2.4-3.8-3.8 0-.2.2-.4.4-.4s.4.2.4.4c0 1.1 1.2 2.3 3.3 3.1 2.2.9 5.2 1.4 8.4 1.4 6.4 0 11.7-2 11.7-4.5 0-.9-.7-1.6-1.3-2-.2-.1-.2-.4-.1-.5.1-.2.4-.2.5-.1 1.1.8 1.6 1.7 1.6 2.7.1 2.9-5.4 5.2-12.3 5.2"/><path id="Fill-154" class="st3" d="M193.5 157.5c-4 0-7.5-.8-9.3-2.1-.2-.1-.2-.4-.1-.6.1-.2.4-.2.5-.1 1.7 1.2 5.1 2 8.8 2h.1c5.7 0 9.7-1.7 9.7-3.3 0-.1 0-.2-.1-.4s0-.4.2-.5c.2-.1.4 0 .5.2.1.2.1.4.1.7.1 2.3-4.4 4.1-10.4 4.1"/><path id="Fill-156" class="st3" d="M182.5 159.5c-.3 0-.5-.2-.5-.4V156c0-.2.2-.4.5-.5.3 0 .5.2.5.4l.1 3.1c-.1.3-.3.5-.6.5z"/><path id="Fill-158" class="st3" d="M186.5 161.5c-.3 0-.5-.2-.5-.4V158c0-.2.2-.4.5-.4s.5.2.5.4v3.1c0 .2-.2.4-.5.4z"/><path id="Fill-160" class="st3" d="M191.5 161.5c-.3 0-.5-.2-.5-.3v-2.3c0-.2.2-.3.5-.3s.5.2.5.3v2.3c0 .1-.2.3-.5.3z"/><path id="Fill-162" class="st3" d="M197.5 161.5c-.3 0-.5-.2-.5-.4V158c0-.2.2-.5.5-.5.2 0 .5.2.5.4l.1 3.1c-.1.3-.3.5-.6.5z"/><path id="Fill-164" class="st3" d="M201.5 161.5c-.2 0-.4-.2-.5-.4V158c0-.2.2-.5.4-.5s.5.2.5.4l.1 3.1c0 .3-.2.5-.5.5z"/><path id="Fill-166" class="st3" d="M204.5 159.5c-.3 0-.5-.2-.5-.4V156c0-.2.2-.4.5-.4s.5.2.5.4v3.1c0 .2-.2.4-.5.4"/><path id="Fill-168" class="st3" d="M191.7 156.5c-3.4 0-6.5-.6-8.8-1.5-2.5-1-3.8-2.5-3.8-4v-3h.8v3c0 1.2 1.2 2.4 3.3 3.3 2.3.9 5.3 1.5 8.5 1.5h.1c3.2 0 6.1-.5 8.2-1.4 2.1-.9 3.2-2 3.2-3.2 0-.5.1-3.1.1-3.2 0-.2.2-.4.4-.4s.4.2.4.4c0 0-.1 2.7-.1 3.2 0 1.6-1.3 3-3.7 3.9-2.3.9-5.4 1.4-8.6 1.4"/><path id="Fill-170" class="st3" d="M191.4 143.3c-3.2 0-6.1.5-8.3 1.4-2.1.9-3.3 2.1-3.3 3.2 0 1.2 1.2 2.3 3.3 3.2 2.2.9 5.2 1.5 8.4 1.5s6.2-.5 8.4-1.4c2.1-.9 3.3-2.1 3.3-3.2 0-1.2-1.2-2.3-3.3-3.2-2.2-1-5.2-1.5-8.5-1.5zm.2 10.2c-3.4 0-6.5-.6-8.8-1.5-2.4-1-3.8-2.5-3.8-4s1.4-2.9 3.8-4c2.3-1 5.4-1.5 8.7-1.5 3.3 0 6.4.6 8.7 1.5 2.4 1 3.8 2.5 3.8 4s-1.4 2.9-3.8 4c-2.3 1-5.4 1.5-8.6 1.5z"/><path id="Fill-172" class="st3" d="M191.4 144.3c-2.6 0-5.1.4-6.9 1-1.7.6-2.7 1.4-2.7 2.2 0 .8 1 1.6 2.7 2.2 1.9.7 4.4 1 7 1.1 5.7 0 9.7-1.7 9.7-3.2 0-1.6-4-3.3-9.8-3.3zm.2 7.2c-2.8 0-5.4-.4-7.4-1.1-2.1-.7-3.2-1.8-3.2-2.9 0-1.1 1.1-2.2 3.2-2.9 1.9-.7 4.5-1.1 7.2-1.1h.1c6 0 10.5 1.7 10.5 4s-4.5 4-10.4 4z"/><path id="Fill-174" class="st3" d="M181.5 154.5c-.3 0-.5-.2-.5-.4V151c0-.2.2-.4.5-.5.3 0 .5.2.5.4l.1 3.1c-.1.3-.3.5-.6.5z"/><path id="Fill-176" class="st3" d="M185.5 155.5c-.3 0-.5-.2-.5-.4V152c0-.2.2-.4.5-.4s.5.2.5.4v3.1c0 .2-.2.4-.5.4z"/><path id="Fill-178" class="st3" d="M189.5 156.5c-.3 0-.5-.2-.5-.3v-2.3c0-.2.2-.3.5-.3s.5.2.5.3v2.3c0 .1-.2.3-.5.3z"/><path id="Fill-180" class="st3" d="M195.5 156.5c-.3 0-.5-.2-.5-.4V153c0-.2.2-.5.5-.5s.5.2.5.4l.1 3.1c-.1.3-.3.5-.6.5z"/><path id="Fill-182" class="st3" d="M199.5 155.5c-.2 0-.4-.2-.5-.4V152c0-.2.2-.5.4-.5s.4.2.5.4l.1 3.1c0 .3-.2.5-.5.5z"/><path id="Fill-184" class="st3" d="M202.5 154.5c-.3 0-.5-.2-.5-.4V151c0-.2.2-.4.5-.4s.5.2.5.4v3.1c0 .2-.2.4-.5.4"/><path id="Fill-186" class="st3" d="M239.7 193.5c-3.4 0-6.5-.6-8.8-1.5-2.5-1-3.8-2.5-3.8-4v-2.8c0-.2.2-.4.4-.4s.4.2.4.4v2.8c0 1.2 1.2 2.4 3.3 3.3 2.3.9 5.3 1.5 8.5 1.5h.1c3.2 0 6.1-.5 8.2-1.4 2.1-.9 3.2-2 3.2-3.2 0-.5.1-3.1.1-3.2 0-.2.2-.4.4-.4s.4.2.4.4c0 0-.1 2.7-.1 3.2 0 1.6-1.3 3-3.7 3.9-2.3.9-5.4 1.4-8.6 1.4"/><path id="Fill-188" class="st3" d="M239.6 190.5c-6.7 0-12.1-2.2-12.5-5.1 0-.2.1-.4.3-.5.2 0 .4.1.5.3.4 2.4 5.6 4.4 11.7 4.4h.1c3.2 0 6.1-.5 8.3-1.4 2.1-.9 3.3-2 3.3-3.2 0-.6-.3-1.2-1-1.8-.2-.1-.2-.4 0-.6s.4-.2.6 0c.8.8 1.2 1.6 1.2 2.4 0 1.5-1.4 2.9-3.8 4-2.4 1-5.5 1.5-8.7 1.5"/><path id="Fill-190" class="st3" d="M228.5 191.5c-.3 0-.5-.2-.5-.4V188c0-.2.2-.4.5-.5.3 0 .5.2.5.4l.1 3.1c-.1.3-.3.5-.6.5z"/><path id="Fill-192" class="st3" d="M232.5 192.5c-.3 0-.5-.2-.5-.4V189c0-.2.2-.4.5-.4s.5.2.5.4v3.1c0 .2-.2.4-.5.4z"/><path id="Fill-194" class="st3" d="M237.5 193.5c-.3 0-.5-.2-.5-.3v-2.3c0-.2.2-.3.5-.3s.5.2.5.3v2.3c0 .1-.2.3-.5.3z"/><path id="Fill-196" class="st3" d="M242.5 193.5c-.3 0-.5-.2-.5-.4V190c0-.2.2-.5.5-.5s.5.2.5.4l.1 3.1c-.1.3-.3.5-.6.5z"/><path id="Fill-198" class="st3" d="M247.5 192.5c-.2 0-.4-.2-.5-.4V189c0-.2.2-.5.4-.5s.5.2.5.4l.1 3.1c0 .3-.2.5-.5.5z"/><path id="Fill-200" class="st3" d="M250.5 190.5c-.3 0-.5-.2-.5-.4V187c0-.2.2-.4.5-.4s.5.2.5.4v3.1c0 .2-.2.4-.5.4"/><path id="Fill-202" class="st3" d="M238.7 188.5c-3.4 0-6.5-.5-8.9-1.4-2.5-1-3.8-2.3-3.8-3.7v-2.8h.8v2.8c0 1.1 1.2 2.2 3.4 3 2.3.9 5.3 1.4 8.5 1.4h.1c3.2 0 6.1-.5 8.2-1.3 2.1-.8 3.2-1.8 3.2-3 0-.4.1-1.7.1-2.4 0-.2.2-.4.4-.4s.4.2.4.4c0 .7-.1 2.1-.1 2.4 0 1.4-1.3 2.7-3.7 3.7-2.3.8-5.3 1.3-8.6 1.3"/><path id="Fill-204" class="st3" d="M237.6 185.5c-3.4 0-6.5-.5-8.8-1.4-2.5-1-3.8-2.3-3.8-3.7 0-1 .7-2 1.9-2.8.2-.1.4-.1.5.1.1.2.1.4-.1.5-.7.5-1.6 1.2-1.6 2.1 0 1.1 1.2 2.2 3.3 3 2.2.9 5.2 1.4 8.4 1.4h.1c5.9 0 10.9-1.7 11.6-3.9.1-.2.3-.3.5-.3.2.1.3.3.3.5-.7 2.6-5.9 4.5-12.3 4.5"/><path id="Fill-206" class="st3" d="M238.1 183.5c-6.4 0-11.1-1.7-11.1-3.9 0-.3.1-.6.3-.9.1-.2.4-.2.6-.1.2.1.3.3.1.5-.1.2-.2.4-.2.5 0 1.5 4.2 3.1 10.2 3.1h.1c1.7 0 3.4-.1 4.9-.4.3-.1.9-.2 1.3-.3h.1c.2 0 .4.1.5.3.1.2-.1.4-.3.5h-.1c-.4.1-1 .2-1.4.3-1.5.3-3.2.4-5 .4"/><path id="Fill-208" class="st3" d="M227.5 186.5c-.3 0-.5-.2-.5-.4V183c0-.2.2-.4.5-.5.3 0 .5.2.5.4l.1 3.1c-.1.3-.3.5-.6.5z"/><path id="Fill-210" class="st3" d="M231.5 188.5c-.3 0-.5-.2-.5-.4V185c0-.2.2-.4.5-.4s.5.2.5.4v3.1c0 .2-.2.4-.5.4z"/><path id="Fill-212" class="st3" d="M236.5 188.5c-.3 0-.5-.2-.5-.3v-2.3c0-.2.2-.3.5-.3s.5.2.5.3v2.3c0 .1-.2.3-.5.3z"/><path id="Fill-214" class="st3" d="M241.5 188.5c-.3 0-.5-.2-.5-.4V185c0-.2.2-.5.5-.5.2 0 .5.2.5.4l.1 3.1c-.1.3-.3.5-.6.5z"/><path id="Fill-216" class="st3" d="M246.5 187.5c-.2 0-.4-.2-.5-.4V184c0-.2.2-.5.4-.5s.5.2.5.4l.1 3.1c0 .3-.2.5-.5.5z"/><path id="Fill-218" class="st3" d="M249.5 186.5c-.3 0-.5-.2-.5-.4V183c0-.2.2-.4.5-.4s.5.2.5.4v3.1c0 .2-.2.4-.5.4"/><path id="Fill-220" class="st3" d="M239.7 183.5c-7.2 0-12.7-2.5-12.7-5.6v-3h.8v3c0 2.6 5.4 4.7 11.8 4.7h.1c6.3 0 11.4-2 11.4-4.6 0-.5.1-3.1.1-3.2 0-.2.2-.4.4-.4s.4.2.4.4c0 0-.1 2.7-.1 3.2 0 3.2-5.3 5.5-12.2 5.5"/><path id="Fill-222" class="st3" d="M239.6 180.5c-7.1 0-12.6-2.3-12.6-5.3 0-.2.2-.4.4-.4s.4.2.4.4c0 2.4 5.4 4.5 11.7 4.5h.1c6.3 0 11.6-2 11.7-4.5 0-.9-.7-1.6-1.4-2.1-.2-.1-.2-.4-.1-.5.1-.2.4-.2.5-.1 1.1.8 1.7 1.7 1.7 2.7 0 3-5.5 5.3-12.4 5.3"/><path id="Fill-224" class="st3" d="M239.5 178.5c-3.9 0-7.5-.8-9.3-2-.2-.1-.2-.4-.1-.6.1-.2.4-.2.5-.1 1.7 1.2 5.1 1.9 8.8 1.9h.1c5.7 0 9.7-1.7 9.8-3.2 0-.1 0-.3-.1-.4-.1-.2 0-.4.2-.5.2-.1.4 0 .5.2.1.2.2.5.2.7-.1 2.3-4.6 4-10.6 4"/><path id="Fill-226" class="st3" d="M229.5 181.5c-.3 0-.5-.2-.5-.4V178c0-.2.2-.4.5-.5.3 0 .5.2.5.4l.1 3.1c-.1.3-.3.5-.6.5z"/><path id="Fill-228" class="st3" d="M233.5 182.5c-.3 0-.5-.2-.5-.4V179c0-.2.2-.4.5-.4s.5.2.5.4v3.1c0 .2-.2.4-.5.4z"/><path id="Fill-230" class="st3" d="M238.5 183.5c-.3 0-.5-.2-.5-.3v-2.3c0-.2.2-.3.5-.3s.5.2.5.3v2.3c0 .1-.2.3-.5.3z"/><path id="Fill-232" class="st3" d="M243.5 183.5c-.3 0-.5-.2-.5-.4V180c0-.2.2-.5.5-.5s.5.2.5.4l.1 3.1c-.1.3-.3.5-.6.5z"/><path id="Fill-234" class="st3" d="M247.5 182.5c-.2 0-.4-.2-.5-.4V179c0-.2.2-.5.4-.5s.5.2.5.4l.1 3.1c0 .3-.2.5-.5.5z"/><path id="Fill-236" class="st3" d="M250.5 181.5c-.3 0-.5-.2-.5-.4V178c0-.2.2-.4.5-.4s.5.2.5.4v3.1c0 .2-.2.4-.5.4"/><path id="Fill-238" class="st3" d="M238.7 178.5c-7.2 0-12.7-2.5-12.7-5.6v-3h.8v3c0 2.6 5.4 4.7 11.8 4.7h.1c6.3 0 11.4-2 11.4-4.6 0-.5.1-3.1.1-3.2 0-.2.2-.4.4-.4s.4.2.4.4c0 0-.1 2.7-.1 3.2 0 3.2-5.3 5.5-12.2 5.5"/><path id="Fill-240" class="st3" d="M238.6 175.5c-7.1 0-12.6-2.5-12.6-5.7 0-.7.3-1.5.9-2.1.1-.2.4-.2.6 0 .2.2.2.4 0 .6-.4.5-.7 1-.7 1.6 0 2.6 5.4 4.9 11.7 4.9h.1c6.3 0 11.6-2.2 11.7-4.8 0-.3-.1-.5-.2-.8-.1-.2 0-.5.2-.6.2-.1.4 0 .5.2.2.4.2.7.2 1.1 0 3.1-5.5 5.6-12.4 5.6"/><path id="Fill-242" class="st3" d="M238.8 173.5c-2.9 0-5.5-.4-7.5-1-2.1-.7-3.3-1.6-3.3-2.7 0-.2.2-.4.4-.4s.4.2.4.4c0 .7 1 1.4 2.8 2 1.9.6 4.4.9 7.2 1h.1c4.4 0 8.3-.9 9.5-2.2.1-.2.4-.2.6 0 .2.1.2.3.1.5-1.6 1.4-5.6 2.4-10.3 2.4"/><path id="Fill-244" class="st3" d="M227.5 175.5c-.3 0-.5-.2-.5-.4V172c0-.2.2-.4.5-.5.2 0 .5.2.5.4l.1 3.1c-.1.3-.3.5-.6.5z"/><path id="Fill-246" class="st3" d="M231.5 177.5c-.3 0-.5-.2-.5-.4V174c0-.2.2-.4.5-.4s.5.2.5.4v3.1c0 .2-.2.4-.5.4z"/><path id="Fill-248" class="st3" d="M236.5 177.5c-.3 0-.5-.2-.5-.3v-2.3c0-.2.2-.3.5-.3s.5.2.5.3v2.3c0 .1-.2.3-.5.3z"/><path id="Fill-250" class="st3" d="M242.5 178.5c-.3 0-.5-.2-.5-.4V175c0-.2.2-.5.5-.5s.5.2.5.4l.1 3.1c-.1.3-.3.5-.6.5z"/><path id="Fill-252" class="st3" d="M246.5 177.5c-.2 0-.4-.2-.5-.4V174c0-.2.2-.5.4-.5s.5.2.5.4l.1 3.1c0 .3-.2.5-.5.5z"/><path id="Fill-254" class="st3" d="M249.5 175.5c-.3 0-.5-.2-.5-.4V172c0-.2.2-.4.5-.4s.5.2.5.4v3.1c0 .2-.2.4-.5.4"/><path id="Fill-256" class="st3" d="M238.7 172.5c-7.2 0-12.7-2.5-12.7-5.6v-2.8h.8v2.8c0 2.6 5.4 4.7 11.8 4.7h.1c3.2 0 6.1-.5 8.2-1.4 2.1-.9 3.2-2 3.2-3.2 0-.5.1-3.1.1-3.2 0-.2.2-.4.4-.4s.4.2.4.4c0 0-.1 2.7-.1 3.2 0 1.6-1.3 3-3.7 3.9-2.2 1.1-5.3 1.6-8.5 1.6"/><path id="Fill-258" class="st3" d="M239.5 169.5c-6.5 0-11.8-2.1-12.5-4.9-.1-.2.1-.4.3-.5.2-.1.4.1.5.3.6 2.4 5.7 4.3 11.7 4.3h.1c6.3 0 11.7-2.1 11.7-4.7 0-.6-.3-1.2-1-1.8-.2-.1-.2-.4 0-.6.1-.2.4-.2.6 0 .8.8 1.2 1.6 1.2 2.4-.1 3.1-5.6 5.5-12.6 5.5"/><path id="Fill-260" class="st3" d="M228.5 170.5c-.3 0-.5-.2-.5-.4V167c0-.2.2-.4.5-.5.3 0 .5.2.5.4l.1 3.1c-.1.3-.3.5-.6.5z"/><path id="Fill-262" class="st3" d="M232.5 171.5c-.3 0-.5-.2-.5-.4V168c0-.2.2-.4.5-.4s.5.2.5.4v3.1c0 .2-.2.4-.5.4z"/><path id="Fill-264" class="st3" d="M237.5 172.5c-.3 0-.5-.2-.5-.3v-2.3c0-.2.2-.3.5-.3s.5.2.5.3v2.3c0 .1-.2.3-.5.3z"/><path id="Fill-266" class="st3" d="M242.5 172.5c-.3 0-.5-.2-.5-.4V169c0-.2.2-.5.5-.5.2 0 .5.2.5.4l.1 3.1c-.1.3-.3.5-.6.5z"/><path id="Fill-268" class="st3" d="M246.5 171.5c-.2 0-.4-.2-.5-.4V168c0-.2.2-.5.4-.5s.4.2.5.4l.1 3.1c0 .3-.2.5-.5.5z"/><path id="Fill-270" class="st3" d="M249.5 169.5c-.3 0-.5-.2-.5-.4V166c0-.2.2-.4.5-.4s.5.2.5.4v3.1c0 .2-.2.4-.5.4"/><path id="Fill-272" class="st3" d="M237.7 167.5c-3.4 0-6.5-.5-8.9-1.4-2.5-1-3.9-2.3-3.8-3.7v-2.8h.8v2.8c0 1.1 1.2 2.2 3.4 3 2.3.9 5.3 1.4 8.5 1.4h.1c6.3 0 11.4-1.9 11.4-4.2 0-.5.1-2.4.1-2.4h.8s-.1 1.9-.1 2.4c-.1 2.8-5.3 4.9-12.3 4.9"/><path id="Fill-274" class="st3" d="M237.6 164.5c-7.1 0-12.6-2.3-12.6-5.2 0-1 .7-2 1.9-2.8.2-.1.4-.1.5.1.1.2.1.4-.1.5-.7.5-1.6 1.2-1.6 2.1 0 2.4 5.4 4.4 11.7 4.4h.1c5.9 0 10.9-1.7 11.6-3.9.1-.2.3-.3.5-.3.2.1.3.3.3.5-.7 2.7-5.9 4.6-12.3 4.6"/><path id="Fill-276" class="st3" d="M237.5 163.5c-6 0-10.5-1.7-10.5-3.9 0-.3.1-.6.3-1 .1-.2.4-.2.5-.1.2.1.2.3.1.5s-.2.4-.2.6c0 1.5 4 3.1 9.7 3.1 2.2 0 4.3-.2 6.1-.7.2-.1.4.1.5.3.1.2-.1.4-.3.5-1.8.5-3.9.7-6.2.7"/><path id="Fill-278" class="st3" d="M227.5 165.5c-.3 0-.5-.2-.5-.4V162c0-.2.2-.4.5-.5.2 0 .5.2.5.4l.1 3.1c-.1.3-.3.5-.6.5z"/><path id="Fill-280" class="st3" d="M231.5 167.5c-.3 0-.5-.2-.5-.4V164c0-.2.2-.4.5-.4s.5.2.5.4v3.1c0 .2-.2.4-.5.4z"/><path id="Fill-282" class="st3" d="M236.5 167.5c-.3 0-.5-.2-.5-.3v-2.3c0-.2.2-.3.5-.3s.5.2.5.3v2.3c0 .1-.2.3-.5.3z"/><path id="Fill-284" class="st3" d="M241.5 167.5c-.3 0-.5-.2-.5-.4V164c0-.2.2-.5.5-.5s.5.2.5.4l.1 3.1c-.1.3-.3.5-.6.5z"/><path id="Fill-286" class="st3" d="M245.5 166.5c-.2 0-.4-.2-.5-.4V163c0-.2.2-.5.4-.5s.4.2.5.4l.1 3.1c0 .3-.2.5-.5.5z"/><path id="Fill-288" class="st3" d="M248.5 165.5c-.3 0-.5-.2-.5-.4V162c0-.2.2-.4.5-.4s.5.2.5.4v3.1c0 .2-.2.4-.5.4"/><path id="Fill-290" class="st3" d="M239.7 162.5c-7.2 0-12.7-2.5-12.7-5.6v-3h.8v3c0 2.6 5.4 4.7 11.8 4.7h.1c6.3 0 11.4-2 11.4-4.6 0-.5.1-3.1.1-3.2 0-.2.2-.4.4-.4s.4.2.4.4c0 0-.1 2.7-.1 3.2 0 3.2-5.3 5.5-12.2 5.5"/><path id="Fill-292" class="st3" d="M239.6 159.5c-3.4 0-6.5-.5-8.8-1.5-2.4-1-3.8-2.4-3.8-3.8 0-.2.2-.4.4-.4s.4.2.4.4c0 1.1 1.2 2.3 3.3 3.1 2.2.9 5.2 1.4 8.4 1.4h.1c3.2 0 6.1-.5 8.3-1.4 2.1-.8 3.3-2 3.3-3.1 0-.9-.7-1.6-1.3-2-.2-.1-.2-.4-.1-.5.1-.2.4-.2.5-.1 1.1.8 1.6 1.7 1.6 2.7 0 1.5-1.4 2.8-3.8 3.8-2.2.9-5.3 1.4-8.5 1.4"/><path id="Fill-294" class="st3" d="M239.5 158.5c-4 0-7.5-.8-9.3-2.1-.2-.1-.2-.4-.1-.6.1-.2.4-.2.5-.1 1.7 1.2 5.1 2 8.8 2h.1c5.7 0 9.7-1.7 9.7-3.3 0-.1 0-.2-.1-.4s0-.4.2-.5c.2-.1.4 0 .5.2.1.2.1.4.1.7.1 2.3-4.4 4.1-10.4 4.1"/><path id="Fill-296" class="st3" d="M229.5 160.5c-.3 0-.5-.2-.5-.4V157c0-.2.2-.4.5-.5.2 0 .5.2.5.4l.1 3.1c-.1.3-.3.5-.6.5z"/><path id="Fill-298" class="st3" d="M233.5 162.5c-.3 0-.5-.2-.5-.4V159c0-.2.2-.4.5-.4s.5.2.5.4v3.1c0 .2-.2.4-.5.4z"/><path id="Fill-300" class="st3" d="M237.5 162.5c-.3 0-.5-.2-.5-.3v-2.3c0-.2.2-.3.5-.3s.5.2.5.3v2.3c0 .1-.2.3-.5.3z"/><path id="Fill-302" class="st3" d="M243.5 162.5c-.3 0-.5-.2-.5-.4V159c0-.2.2-.5.5-.5s.5.2.5.4l.1 3.1c-.1.3-.3.5-.6.5z"/><path id="Fill-304" class="st3" d="M247.5 161.5c-.2 0-.4-.2-.5-.4V158c0-.2.2-.5.4-.5s.4.2.5.4l.1 3.1c0 .3-.2.5-.5.5z"/><path id="Fill-306" class="st3" d="M250.5 160.5c-.3 0-.5-.2-.5-.4V157c0-.2.2-.4.5-.4s.5.2.5.4v3.1c0 .2-.2.4-.5.4"/><path id="Fill-308" class="st3" d="M238.7 157.5c-7.2 0-12.7-2.5-12.7-5.6v-3h.8v3c0 2.6 5.4 4.7 11.8 4.7h.1c6.3 0 11.4-2 11.4-4.6 0-.5.1-3.1.1-3.2 0-.2.2-.4.4-.4s.4.2.4.4c0 0-.1 2.7-.1 3.2 0 3.2-5.3 5.5-12.2 5.5"/><path id="Fill-310" class="st3" d="M238.6 154.5c-3.4 0-6.5-.5-8.8-1.4-2.4-1-3.8-2.3-3.8-3.7 0-.6.2-1.1.6-1.7.1-.2.4-.2.5-.1.2.1.2.4.1.5-.3.4-.5.8-.5 1.2 0 1.1 1.2 2.2 3.3 3 2.2.9 5.2 1.4 8.4 1.4h.1c6.3 0 11.6-2 11.7-4.4 0-.2 0-.4-.1-.6-.1-.2 0-.4.2-.5.2-.1.4 0 .5.2.1.3.1.5.1.8.1 3.1-5.4 5.3-12.3 5.3"/><path id="Fill-312" class="st3" d="M238 152.5c-6 0-10.7-1.6-11-3.6 0-.2.1-.4.4-.4.2 0 .4.1.4.3.2 1.4 4.3 2.9 10.1 2.9h.1c3.9 0 7.7-.8 9.4-1.9.2-.1.4-.1.6.1.1.2.1.4-.1.5-1.9 1.3-5.9 2.1-9.9 2.1"/><path id="Fill-314" class="st3" d="M227.5 154.5c-.3 0-.5-.2-.5-.4V151c0-.2.2-.4.5-.5.3 0 .5.2.5.4l.1 3.1c-.1.3-.3.5-.6.5z"/><path id="Fill-316" class="st3" d="M231.5 156.5c-.3 0-.5-.2-.5-.4V153c0-.2.2-.4.5-.4s.5.2.5.4v3.1c0 .2-.2.4-.5.4z"/><path id="Fill-318" class="st3" d="M236.5 156.5c-.3 0-.5-.2-.5-.3v-2.3c0-.2.2-.3.5-.3s.5.1.5.3v2.3c0 .1-.2.3-.5.3z"/><path id="Fill-320" class="st3" d="M242.5 157.5c-.3 0-.5-.2-.5-.4V154c0-.2.2-.5.5-.5s.5.2.5.4l.1 3.1c-.1.3-.3.5-.6.5z"/><path id="Fill-322" class="st3" d="M246.5 156.5c-.2 0-.4-.2-.5-.4V153c0-.2.2-.5.4-.5s.4.2.5.4l.1 3.1c0 .3-.2.5-.5.5z"/><path id="Fill-324" class="st3" d="M249.5 154.5c-.3 0-.5-.2-.5-.4V151c0-.2.2-.4.5-.4s.5.2.5.4v3.1c0 .2-.2.4-.5.4"/><path id="Fill-326" class="st3" d="M238.7 152.5c-3.4 0-6.5-.6-8.8-1.5-2.5-1-3.8-2.5-3.8-4v-3h.8v3c0 1.2 1.2 2.4 3.3 3.3 2.3.9 5.3 1.5 8.5 1.5h.1c3.2 0 6.1-.5 8.2-1.4 2.1-.9 3.2-2 3.2-3.2 0-.5.1-3.1.1-3.2 0-.2.2-.4.4-.4s.4.2.4.4c0 0-.1 2.7-.1 3.2 0 1.6-1.3 3-3.7 3.9-2.3.9-5.4 1.4-8.6 1.4"/><path id="Fill-328" class="st3" d="M238.6 148.5c-7.1 0-12.6-2.3-12.6-5.1 0-.6.3-1.2.7-1.8.1-.2.4-.2.6 0 .2.1.2.4 0 .5-.4.4-.6.9-.6 1.3 0 2.3 5.4 4.3 11.7 4.4h.1c6.3 0 11.6-2 11.7-4.3 0-.4-.2-.8-.5-1.2-.1-.2-.1-.4.1-.5.2-.1.4-.1.6.1.5.5.7 1.1.7 1.7-.1 2.7-5.6 4.9-12.5 4.9"/><path id="Fill-330" class="st3" d="M238.6 147.5c-5.9 0-10.6-2.1-10.6-4.6 0-.2.2-.4.4-.4s.4.2.4.4c0 1.7 4.2 3.7 9.7 3.7h.1c5.7 0 9.6-1.8 9.6-3.5 0-.2.2-.4.4-.4s.4.2.4.4c0 2.5-4.5 4.4-10.4 4.4"/><path id="Fill-332" class="st3" d="M228.5 149.5c-.3 0-.5-.2-.5-.4V146c0-.2.2-.4.5-.5.3 0 .5.2.5.4l.1 3.1c-.1.3-.3.5-.6.5z"/><path id="Fill-334" class="st3" d="M232.5 151.5c-.3 0-.5-.2-.5-.4V148c0-.2.2-.4.5-.4s.5.2.5.4v3.1c0 .2-.2.4-.5.4z"/><path id="Fill-336" class="st3" d="M236.5 151.5c-.3 0-.5-.2-.5-.3v-2.3c0-.2.2-.3.5-.3s.5.2.5.3v2.3c0 .1-.2.3-.5.3"/><path id="Fill-338" class="st3" d="M242.5 151.5c-.3 0-.5-.2-.5-.4V148c0-.2.2-.5.5-.5.2 0 .5.2.5.4l.1 3.1c-.1.3-.3.5-.6.5z"/><path id="Fill-340" class="st3" d="M246.5 150.5c-.2 0-.4-.2-.5-.4V147c0-.2.2-.5.4-.5s.4.2.5.4l.1 3.1c0 .3-.2.5-.5.5z"/><path id="Fill-342" class="st3" d="M249.5 149.5c-.3 0-.5-.2-.5-.4V146c0-.2.2-.4.5-.4s.5.2.5.4v3.1c0 .2-.2.4-.5.4"/><path id="Fill-344" class="st3" d="M238.7 145.5c-7.2 0-12.7-2.5-12.7-5.6v-3h.8v3c0 2.6 5.4 4.7 11.8 4.7h.1c6.3 0 11.4-2 11.4-4.6 0-.5.1-3.1.1-3.2 0-.2.2-.4.4-.4s.4.2.4.4c0 0-.1 2.7-.1 3.2 0 3.2-5.3 5.5-12.2 5.5"/><path id="Fill-346" class="st3" d="M238.4 132.3c-3.2 0-6.1.5-8.3 1.4-2.1.9-3.3 2.1-3.3 3.2 0 1.2 1.2 2.3 3.3 3.2 2.2.9 5.2 1.5 8.4 1.5h.1c6.3 0 11.6-2.1 11.7-4.7 0-1.2-1.2-2.3-3.3-3.2-2.3-.9-5.3-1.4-8.6-1.4zm.2 10.2c-3.4 0-6.5-.6-8.8-1.5-2.4-1-3.8-2.5-3.8-4s1.4-2.9 3.8-4c2.3-1 5.4-1.5 8.7-1.5 3.3 0 6.4.6 8.7 1.5 2.4 1 3.8 2.5 3.8 4 0 3.1-5.5 5.5-12.4 5.5z"/><path id="Fill-348" class="st3" d="M238.4 134.3c-2.6 0-5.1.4-6.9 1-1.7.6-2.7 1.4-2.7 2.2 0 1.5 4 3.2 9.7 3.2h.1c5.7 0 9.7-1.7 9.7-3.2-.1-1.5-4.1-3.2-9.9-3.2zm.2 7.2c-6.1 0-10.6-1.7-10.6-4 0-1.1 1.1-2.2 3.2-2.9 2-.7 4.5-1.1 7.3-1.1 6 0 10.5 1.7 10.5 4s-4.5 4-10.4 4z"/><path id="Fill-350" class="st3" d="M228.5 143.5c-.3 0-.5-.2-.5-.4V140c0-.2.2-.4.5-.5.3 0 .5.2.5.4l.1 3.1c-.1.3-.3.5-.6.5z"/><path id="Fill-352" class="st3" d="M232.5 145.5c-.3 0-.5-.2-.5-.4V142c0-.2.2-.4.5-.4s.5.2.5.4v3.1c0 .2-.2.4-.5.4z"/><path id="Fill-354" class="st3" d="M236.5 145.5c-.3 0-.5-.2-.5-.3v-2.3c0-.2.2-.3.5-.3s.5.2.5.3v2.3c0 .1-.2.3-.5.3z"/><path id="Fill-356" class="st3" d="M242.5 145.5c-.3 0-.5-.2-.5-.4V142c0-.2.2-.5.5-.5.2 0 .5.2.5.4l.1 3.1c-.1.3-.3.5-.6.5z"/><path id="Fill-358" class="st3" d="M246.5 144.5c-.2 0-.4-.2-.5-.4V141c0-.2.2-.5.4-.5s.4.2.5.4l.1 3.1c0 .3-.2.5-.5.5z"/><path id="Fill-360" class="st3" d="M249.5 143.5c-.3 0-.5-.2-.5-.4V140c0-.2.2-.4.5-.4s.5.2.5.4v3.1c0 .2-.2.4-.5.4"/><path id="Fill-362" class="st3" d="M197.5 171.5c-.3 0-.5-.2-.5-.4V168c0-.2.2-.4.5-.4s.5.2.5.4v3.1c0 .2-.2.4-.5.4z"/><path id="Fill-364" class="st3" d="M203.5 166.5c-.3 0-.5-.2-.5-.3v-2.3c0-.2.2-.3.5-.3s.5.2.5.3v2.3c0 .1-.2.3-.5.3z"/><path id="Fill-366" class="st3" d="M237.2 109.5c-1.1 0-2.3-.2-3.4-.5-1.9-.6-3.7-1.8-4.9-3.3-1.7-2.2-2.7-4.4-2.9-6.7 0-.2.1-.4.4-.4.2 0 .4.1.4.4.2 2.2 1.1 4.2 2.7 6.3 1.1 1.4 2.8 2.5 4.5 3 1.4.4 2.8.6 4.1.5 1.1-.1 1.3-.2 2.5-.7 1.1-.5 2.2-1.4 2.9-2l.3.3.2.3c-.8.6-2 1.5-3.1 2.1-1.2.6-1.5.7-2.7.8-.4-.1-.7-.1-1-.1"/><path id="Fill-368" class="st3" d="M226.5 101.5c-.2 0-.3-.1-.4-.2-.1-.2 0-.5.2-.6l2.1-1.1c.2-.1.5 0 .6.2.1.2 0 .5-.2.6l-2.1 1.1h-.2"/><path id="Fill-370" class="st3" d="M238.4 106.5c-3.7 0-7.1-2.6-8.4-6.5-.1-.2.1-.4.3-.5.2-.1.4.1.5.3 1.2 3.7 4.5 6.2 8 6 2.1-.1 4-1.2 5.4-2.9 1.4-1.7 2.1-4 1.9-6.3-.1-2.3-1.1-4.5-2.7-6s-3.6-2.3-5.7-2.2c-1.3.1-2.5.5-3.6 1.2-.2.1-.4.1-.6-.1-.1-.2-.1-.4.1-.6 1.2-.8 2.6-1.2 4-1.3 2.3-.1 4.6.7 6.3 2.4 1.7 1.7 2.8 4 3 6.5.2 2.5-.6 5-2.1 6.9-1.5 1.9-3.7 3-6 3.2-.1-.1-.3-.1-.4-.1"/><path id="Fill-372" class="st3" d="M232.3 107.5c-.1 0-.2-.1-.3-.2-.1-.2 0-.5.1-.6l1.3-1.1c.2-.1.4-.1.5.2.1.2 0 .5-.1.6l-1.3 1.1h-.2"/><path id="Fill-374" class="st3" d="M218.6 91.5h-.2c-2.7-1.5-7.5-6.2-8.4-7.2-.1-.2-.1-.4 0-.6.2-.2.4-.2.5 0 .8 1 5.6 5.6 8.1 7.1.2.1.3.4.2.6.1 0 0 .1-.2.1"/><path id="Fill-376" class="st3" d="M238 108.5c-4.4 0-8.4-3.4-10-8.7-.1-.2.1-.4.3-.5.2-.1.4.1.5.3 1.5 5.1 5.5 8.4 9.7 8.1 2.5-.2 4.8-1.4 6.4-3.5 1.7-2.1 2.5-4.9 2.3-7.7-.4-5.9-4.8-10.4-10-10.1-1.4.1-2.7.5-3.9 1.3-.2.1-.4.1-.5-.1-.1-.2-.1-.4.1-.6 1.3-.8 2.8-1.3 4.3-1.4 5.6-.4 10.4 4.5 10.8 10.8.2 3.1-.7 6-2.5 8.3-1.8 2.3-4.3 3.7-7 3.8h-.5"/><path id="Fill-378" class="st3" d="M150.7 192.5c-7.2 0-12.7-2.5-12.7-5.6v-3h.8v3c0 2.5 5.4 4.7 11.8 4.7h.1c6.4 0 11.4-2 11.4-4.6 0-.5.1-3.1.1-3.2 0-.2.2-.4.4-.4s.4.2.4.4c0 0-.1 2.7-.1 3.2 0 3.2-5.3 5.5-12.2 5.5"/><path id="Fill-380" class="st3" d="M150.6 189.5c-3.4 0-6.5-.5-8.8-1.5-2.4-1-3.8-2.3-3.8-3.8 0-.2.2-.4.4-.4s.4.2.4.4c0 1.1 1.2 2.2 3.3 3.1 2.2.9 5.2 1.4 8.4 1.4h.1c6.3 0 11.6-2 11.7-4.5 0-.9-.7-1.6-1.4-2.1-.2-.1-.2-.4-.1-.5.1-.2.4-.2.5-.1 1.1.8 1.7 1.7 1.7 2.7 0 3-5.5 5.3-12.4 5.3"/><path id="Fill-382" class="st3" d="M150.5 188.5c-3.9 0-7.5-.8-9.3-2-.2-.1-.2-.4-.1-.6.1-.2.4-.2.5-.1 1.7 1.2 5.1 1.9 8.8 1.9h.1c5.7 0 9.7-1.7 9.8-3.2 0-.1 0-.3-.1-.4-.1-.2 0-.4.2-.5.2-.1.4 0 .5.2.1.2.2.5.2.7-.1 2.3-4.6 4-10.6 4"/><path id="Fill-384" class="st3" d="M140.5 190.5c-.3 0-.5-.2-.5-.4V187c0-.2.2-.4.5-.5.2 0 .5.2.5.4l.1 3.1c-.1.3-.3.5-.6.5z"/><path id="Fill-386" class="st3" d="M143.5 192.5c-.3 0-.5-.2-.5-.4V189c0-.2.2-.4.5-.4s.5.2.5.4v3.1c0 .2-.2.4-.5.4z"/><path id="Fill-388" class="st3" d="M148.5 192.5c-.3 0-.5-.2-.5-.3v-2.3c0-.2.3-.4.5-.3.3 0 .5.2.5.3v2.3c0 .1-.2.3-.5.3"/><path id="Fill-390" class="st3" d="M154.5 192.5c-.3 0-.5-.2-.5-.4V189c0-.2.2-.5.5-.5s.5.2.5.4l.1 3.1c-.1.3-.3.5-.6.5z"/><path id="Fill-392" class="st3" d="M158.5 191.5c-.2 0-.4-.2-.5-.4V188c0-.2.2-.5.4-.5s.5.2.5.4l.1 3.1c0 .3-.2.5-.5.5z"/><path id="Fill-394" class="st3" d="M161.5 190.5c-.3 0-.5-.2-.5-.4V187c0-.2.2-.4.5-.4s.5.2.5.4v3.1c0 .2-.2.4-.5.4"/><path id="Fill-396" class="st3" d="M149.7 187.5c-7.2 0-12.7-2.5-12.7-5.6v-3h.8v3c0 2.6 5.4 4.7 11.8 4.7h.1c3.2 0 6.1-.5 8.2-1.4 2.1-.9 3.2-2 3.2-3.2 0-.5.1-3.1.1-3.2 0-.2.2-.4.4-.4s.4.2.4.4c0 0-.1 2.7-.1 3.2 0 1.6-1.3 3-3.7 3.9-2.2 1.1-5.3 1.6-8.5 1.6"/><path id="Fill-398" class="st3" d="M149.6 184.5c-3.4 0-6.5-.6-8.8-1.6-2.4-1.1-3.8-2.5-3.8-4.1 0-.8.3-1.5.9-2.1.1-.2.4-.2.6 0 .2.2.2.4 0 .6-.4.5-.7 1-.7 1.6 0 1.2 1.2 2.4 3.3 3.3 2.2 1 5.2 1.5 8.4 1.5h.1c6.3 0 11.6-2.2 11.7-4.8 0-.3-.1-.5-.2-.8-.1-.2 0-.5.2-.6.2-.1.4 0 .5.2.2.4.2.7.2 1.1 0 3.2-5.5 5.7-12.4 5.7"/><path id="Fill-400" class="st3" d="M148.8 182.5c-6.2 0-10.8-1.6-10.8-3.6 0-.2.2-.4.4-.4s.4.2.4.4c0 1.4 4.1 2.9 9.9 2.9h.1c4.4 0 8.3-.9 9.5-2.2.1-.2.4-.2.6 0 .2.1.2.3.1.5-1.4 1.4-5.5 2.4-10.2 2.4"/><path id="Fill-402" class="st3" d="M138.5 185.5c-.3 0-.5-.2-.5-.4V182c0-.2.2-.4.5-.5.3 0 .5.2.5.4l.1 3.1c-.1.3-.3.5-.6.5z"/><path id="Fill-404" class="st3" d="M142.5 186.5c-.3 0-.5-.2-.5-.4V183c0-.2.2-.4.5-.4s.5.2.5.4v3.1c0 .2-.2.4-.5.4z"/><path id="Fill-406" class="st3" d="M147.5 186.5c-.3 0-.5-.2-.5-.3v-2.3c0-.2.2-.3.5-.3s.5.2.5.3v2.3c0 .1-.2.3-.5.3z"/><path id="Fill-408" class="st3" d="M152.5 187.5c-.3 0-.5-.2-.5-.4V184c0-.2.2-.5.5-.5s.5.2.5.4l.1 3.1c-.1.3-.3.5-.6.5z"/><path id="Fill-410" class="st3" d="M157.5 186.5c-.2 0-.4-.2-.5-.4V183c0-.2.2-.5.4-.5s.4.2.5.4l.1 3.1c0 .3-.2.5-.5.5z"/><path id="Fill-412" class="st3" d="M160.5 184.5c-.3 0-.5-.2-.5-.4V181c0-.2.2-.4.5-.4s.5.2.5.4v3.1c0 .2-.2.4-.5.4"/><path id="Fill-414" class="st3" d="M149.7 181.5c-7.2 0-12.7-2.5-12.7-5.6v-2.8h.8v2.8c0 2.6 5.4 4.7 11.8 4.7h.1c6.3 0 11.4-2 11.4-4.6 0-.5.1-3.1.1-3.2 0-.2.2-.4.4-.4s.4.2.4.4c0 0-.1 2.7-.1 3.2 0 3.2-5.3 5.5-12.2 5.5"/><path id="Fill-416" class="st3" d="M149.5 178.5c-6.5 0-11.8-2.1-12.5-4.9-.1-.2.1-.4.3-.5.2-.1.4.1.5.3.6 2.4 5.7 4.3 11.7 4.3h.1c6.3 0 11.7-2.1 11.7-4.7 0-.6-.3-1.2-1-1.8-.2-.1-.2-.4 0-.6.1-.2.4-.2.6 0 .8.8 1.2 1.6 1.2 2.4-.1 3.1-5.6 5.5-12.6 5.5"/><path id="Fill-418" class="st3" d="M139.5 179.5c-.3 0-.5-.2-.5-.4V176c0-.2.2-.4.5-.5.2 0 .5.2.5.4l.1 3.1c-.1.3-.3.5-.6.5z"/><path id="Fill-420" class="st3" d="M143.5 181.5c-.3 0-.5-.2-.5-.4V178c0-.2.2-.4.5-.4s.5.2.5.4v3.1c0 .2-.2.4-.5.4z"/><path id="Fill-422" class="st3" d="M147.5 181.5c-.3 0-.5-.2-.5-.3v-2.3c0-.2.2-.3.5-.3s.5.2.5.3v2.3c0 .1-.2.3-.5.3z"/><path id="Fill-424" class="st3" d="M153.5 181.5c-.3 0-.5-.2-.5-.4V178c0-.2.2-.5.5-.5s.5.2.5.4l.1 3.1c-.1.3-.3.5-.6.5z"/><path id="Fill-426" class="st3" d="M157.5 180.5c-.2 0-.4-.2-.5-.4V177c0-.2.2-.5.4-.5s.4.2.5.4l.1 3.1c0 .3-.2.5-.5.5z"/><path id="Fill-428" class="st3" d="M160.5 179.5c-.3 0-.5-.2-.5-.4V176c0-.2.2-.4.5-.4s.5.2.5.4v3.1c0 .2-.2.4-.5.4"/><path id="Fill-430" class="st3" d="M148.7 176.5c-3.4 0-6.5-.5-8.9-1.4-2.5-1-3.9-2.3-3.8-3.7v-2.8h.8v2.8c0 1.1 1.2 2.2 3.4 3 2.3.9 5.3 1.4 8.5 1.4h.1c3.2 0 6.1-.5 8.2-1.3 2.1-.8 3.2-1.8 3.2-3 0-.5.1-2.4.1-2.4h.8s-.1 1.9-.1 2.4c0 1.4-1.3 2.7-3.7 3.7-2.3.8-5.3 1.3-8.6 1.3"/><path id="Fill-432" class="st3" d="M148.6 173.5c-7.1 0-12.6-2.3-12.6-5.2 0-1 .7-2 1.9-2.8.2-.1.4-.1.5.1.1.2.1.4-.1.5-.7.5-1.6 1.2-1.6 2.1 0 2.4 5.4 4.4 11.7 4.4h.1c5.8 0 10.9-1.7 11.6-3.9.1-.2.3-.3.5-.3.2.1.3.3.3.5-.7 2.7-5.9 4.6-12.3 4.6"/><path id="Fill-434" class="st3" d="M148.5 172.5c-6 0-10.5-1.7-10.5-3.9 0-.3.1-.6.3-1 .1-.2.3-.2.5-.1s.2.3.1.5-.2.4-.2.6c0 1.5 4 3.1 9.7 3.1 2.2 0 4.3-.2 6.1-.7.2-.1.4.1.5.3.1.2-.1.4-.3.5-1.8.5-3.9.7-6.2.7"/><path id="Fill-436" class="st3" d="M138.5 174.5c-.3 0-.5-.2-.5-.4V171c0-.2.2-.4.5-.5.3 0 .5.2.5.4l.1 3.1c-.1.3-.3.5-.6.5z"/><path id="Fill-438" class="st3" d="M142.5 176.5c-.3 0-.5-.2-.5-.4V173c0-.2.2-.4.5-.4s.5.2.5.4v3.1c0 .2-.2.4-.5.4z"/><path id="Fill-440" class="st3" d="M146.5 176.5c-.3 0-.5-.2-.5-.3v-2.3c0-.2.2-.3.5-.3s.5.2.5.3v2.3c0 .1-.2.3-.5.3z"/><path id="Fill-442" class="st3" d="M152.5 176.5c-.3 0-.5-.2-.5-.4V173c0-.2.2-.5.5-.5s.5.2.5.4l.1 3.1c-.1.3-.3.5-.6.5z"/><path id="Fill-444" class="st3" d="M156.5 175.5c-.2 0-.4-.2-.5-.4V172c0-.2.2-.5.4-.5s.5.2.5.4l.1 3.1c0 .3-.2.5-.5.5z"/><path id="Fill-446" class="st3" d="M159.5 174.5c-.3 0-.5-.2-.5-.4V171c0-.2.2-.4.5-.4s.5.2.5.4v3.1c0 .2-.2.4-.5.4"/><path id="Fill-448" class="st3" d="M150.7 172.5c-3.4 0-6.5-.6-8.8-1.5-2.5-1-3.8-2.5-3.8-4v-3h.8v3c0 1.2 1.2 2.4 3.3 3.3 2.3.9 5.3 1.5 8.5 1.5h.1c6.3 0 11.4-2 11.4-4.6 0-.5.1-3.1.1-3.2 0-.2.2-.4.4-.4s.4.2.4.4c0 0-.1 2.7-.1 3.2-.1 3-5.4 5.3-12.3 5.3"/><path id="Fill-450" class="st3" d="M150.6 168.5c-3.4 0-6.5-.5-8.8-1.5-2.4-1-3.8-2.4-3.8-3.8 0-.2.2-.4.4-.4s.4.2.4.4c0 1.1 1.2 2.3 3.3 3.1 2.2.9 5.2 1.4 8.4 1.4s6.2-.5 8.4-1.4c2.1-.8 3.3-2 3.3-3.1 0-.9-.7-1.6-1.3-2-.2-.1-.2-.4-.1-.5.1-.2.4-.2.5-.1 1.1.8 1.6 1.7 1.6 2.7 0 1.5-1.4 2.8-3.8 3.8-2.2.9-5.3 1.4-8.5 1.4"/><path id="Fill-452" class="st3" d="M150.5 167.5c-4 0-7.5-.8-9.3-2.1-.2-.1-.2-.4-.1-.6s.4-.2.5-.1c1.7 1.2 5.1 2 8.8 2 5.7 0 9.8-1.7 9.8-3.3 0-.1 0-.2-.1-.4s0-.4.2-.5c.2-.1.4 0 .5.2.1.2.1.4.1.7.1 2.3-4.4 4.1-10.4 4.1"/><path id="Fill-454" class="st3" d="M139.5 169.5c-.3 0-.5-.2-.5-.4V166c0-.2.2-.4.5-.5.2 0 .5.2.5.4l.1 3.1c-.1.3-.3.5-.6.5z"/><path id="Fill-456" class="st3" d="M143.5 171.5c-.3 0-.5-.2-.5-.4V168c0-.2.2-.4.5-.4s.5.2.5.4v3.1c0 .2-.2.4-.5.4z"/><path id="Fill-458" class="st3" d="M148.5 171.5c-.3 0-.5-.2-.5-.3v-2.3c0-.2.2-.3.5-.3s.5.2.5.3v2.3c0 .1-.2.3-.5.3z"/><path id="Fill-460" class="st3" d="M154.5 171.5c-.3 0-.5-.2-.5-.4V168c0-.2.2-.5.5-.5.2 0 .5.2.5.4l.1 3.1c-.1.3-.3.5-.6.5z"/><path id="Fill-462" class="st3" d="M158.5 170.5c-.2 0-.4-.2-.5-.4V167c0-.2.2-.5.4-.5s.4.2.5.4l.1 3.1c0 .3-.2.5-.5.5z"/><path id="Fill-464" class="st3" d="M161.5 169.5c-.3 0-.5-.2-.5-.4V166c0-.2.2-.4.5-.4s.5.2.5.4v3.1c0 .2-.2.4-.5.4"/><path id="Fill-466" class="st3" d="M148.7 166.5c-7.2 0-12.7-2.5-12.7-5.6v-3h.8v3c0 2.6 5.4 4.7 11.8 4.7h.1c6.3 0 11.4-2 11.4-4.6 0-.5.1-3.1.1-3.2 0-.2.2-.4.4-.4s.4.2.4.4c0 0-.1 2.7-.1 3.2 0 3.2-5.3 5.5-12.2 5.5"/><path id="Fill-468" class="st3" d="M148.4 153.3c-3.2 0-6.1.5-8.3 1.4-2.1.9-3.3 2.1-3.3 3.2 0 1.2 1.2 2.3 3.3 3.2 2.2.9 5.2 1.5 8.4 1.5s6.2-.5 8.4-1.4c2.1-.9 3.3-2.1 3.3-3.2 0-2.5-5.3-4.7-11.8-4.7zm.2 10.2c-3.4 0-6.5-.6-8.8-1.5-2.4-1-3.8-2.5-3.8-4s1.4-2.9 3.8-4c2.3-1 5.4-1.5 8.6-1.5h.1c7 0 12.5 2.5 12.5 5.5 0 1.5-1.4 2.9-3.8 4-2.3 1-5.4 1.5-8.6 1.5z"/><path id="Fill-470" class="st3" d="M148.4 154.3c-2.6 0-5.1.4-6.9 1-1.7.6-2.7 1.4-2.7 2.2s1 1.6 2.7 2.2c1.9.7 4.4 1 7 1.1 2.6 0 5.2-.4 7-1 1.7-.6 2.7-1.4 2.7-2.2 0-.8-1-1.6-2.7-2.2-1.8-.7-4.3-1.1-7.1-1.1zm.2 7.2c-2.8 0-5.4-.4-7.4-1.1-2.1-.7-3.2-1.8-3.2-2.9 0-1.1 1.1-2.2 3.2-2.9 1.9-.7 4.5-1.1 7.2-1.1h.1c2.7 0 5.3.4 7.3 1.1 2.1.7 3.2 1.8 3.2 2.9 0 1.1-1.1 2.2-3.2 2.9-2 .7-4.5 1.1-7.2 1.1z"/><path id="Fill-472" class="st3" d="M138.5 164.5c-.3 0-.5-.2-.5-.4V161c0-.2.2-.4.5-.5.3 0 .5.2.5.4l.1 3.1c-.1.3-.3.5-.6.5z"/><path id="Fill-474" class="st3" d="M142.5 165.5c-.3 0-.5-.2-.5-.4V162c0-.2.2-.4.5-.4s.5.2.5.4v3.1c0 .2-.2.4-.5.4z"/><path id="Fill-476" class="st3" d="M147.5 166.5c-.3 0-.5-.2-.5-.3v-2.3c0-.2.2-.3.5-.3s.5.2.5.3v2.3c0 .1-.2.3-.5.3z"/><path id="Fill-478" class="st3" d="M152.5 166.5c-.3 0-.5-.2-.5-.4V163c0-.2.2-.5.5-.5s.5.2.5.4l.1 3.1c-.1.3-.3.5-.6.5z"/><path id="Fill-480" class="st3" d="M157.5 165.5c-.2 0-.4-.2-.5-.4V162c0-.2.2-.5.4-.5s.4.2.5.4l.1 3.1c0 .3-.2.5-.5.5z"/><path id="Fill-482" class="st3" d="M159.5 163.5c-.3 0-.5-.2-.5-.4V160c0-.2.2-.4.5-.4s.5.2.5.4v3.1c0 .2-.2.4-.5.4"/><path id="Fill-484" class="st3" d="M155.5 181.5c-.3 0-.5-.2-.5-.4V178c0-.2.2-.4.5-.4s.5.2.5.4v3.1c0 .2-.2.4-.5.4z"/><path id="Fill-486" class="st3" d="M160.5 175.5c-.3 0-.5-.2-.5-.3v-2.3c0-.2.2-.3.5-.3s.5.2.5.3v2.3c0 .1-.2.3-.5.3z"/><path id="Fill-488" class="st3" d="M107.7 193.5c-7.2 0-12.7-2.5-12.7-5.6v-2.8h.8v2.8c0 2.6 5.4 4.7 11.8 4.7h.1c6.3 0 11.4-2 11.4-4.6 0-.5.1-3.1.1-3.2 0-.2.2-.4.4-.4s.4.2.4.4c0 0-.1 2.7-.1 3.2 0 3.2-5.3 5.5-12.2 5.5"/><path id="Fill-490" class="st3" d="M107.5 190.5c-6.5 0-11.8-2.1-12.5-4.9-.1-.2.1-.4.3-.5.2-.1.4.1.5.3.6 2.4 5.7 4.3 11.7 4.3h.1c6.3 0 11.7-2.1 11.7-4.7 0-.6-.3-1.2-1-1.8-.2-.1-.2-.4 0-.6.1-.2.4-.2.6 0 .8.8 1.2 1.6 1.2 2.4-.1 3.1-5.6 5.5-12.6 5.5"/><path id="Fill-492" class="st3" d="M96.5 190.5c-.3 0-.5-.2-.5-.4V187c0-.2.2-.4.5-.5.3 0 .5.2.5.4v3.1c0 .3-.2.5-.5.5z"/><path id="Fill-494" class="st3" d="M100.5 192.5c-.3 0-.5-.2-.5-.4V189c0-.2.2-.4.5-.4s.5.2.5.4v3.1c0 .2-.2.4-.5.4"/><path id="Fill-496" class="st3" d="M105.5 192.5c-.3 0-.5-.2-.5-.3v-2.3c0-.2.2-.3.5-.3s.5.2.5.3v2.3c0 .1-.2.3-.5.3z"/><path id="Fill-498" class="st3" d="M110.5 192.5c-.3 0-.5-.2-.5-.4V189c0-.2.2-.5.5-.5s.5.2.5.4l.1 3.1c-.1.3-.3.5-.6.5z"/><path id="Fill-500" class="st3" d="M115.5 191.5c-.2 0-.4-.2-.5-.4V188c0-.2.2-.5.4-.5s.5.2.5.4l.1 3.1c0 .3-.2.5-.5.5z"/><path id="Fill-502" class="st3" d="M118.5 190.5c-.3 0-.5-.2-.5-.4V187c0-.2.2-.4.5-.4s.5.2.5.4v3.1c0 .2-.2.4-.5.4"/><path id="Fill-504" class="st3" d="M105.7 187.5c-3.4 0-6.5-.5-8.9-1.4-2.5-1-3.9-2.3-3.8-3.7v-2.8h.8v2.8c0 1.1 1.2 2.2 3.4 3 2.3.9 5.3 1.4 8.5 1.4h.1c6.3 0 11.4-1.9 11.4-4.2 0-.5.1-2.4.1-2.4h.8s-.1 1.9-.1 2.4c-.1 2.8-5.3 4.9-12.3 4.9"/><path id="Fill-506" class="st3" d="M105.6 185.5c-7.1 0-12.6-2.3-12.6-5.2 0-1 .7-2 1.9-2.8.2-.1.4-.1.5.1.1.2.1.4-.1.5-.7.5-1.6 1.2-1.6 2.1 0 2.4 5.4 4.4 11.7 4.4h.1c5.8 0 10.9-1.7 11.6-3.9.1-.2.3-.3.5-.3.2.1.3.3.3.5-.7 2.7-5.9 4.6-12.3 4.6"/><path id="Fill-508" class="st3" d="M105.5 183.5c-6 0-10.5-1.7-10.5-3.9 0-.3.1-.6.3-1 .1-.2.4-.2.5-.1.2.1.2.3.1.5s-.2.4-.2.6c0 1.5 4 3.1 9.7 3.1h.1c2.2 0 4.3-.2 6-.7.2-.1.4.1.5.3.1.2-.1.4-.3.5-1.8.5-3.9.7-6.2.7"/><path id="Fill-510" class="st3" d="M95.5 185.5c-.3 0-.5-.2-.5-.4V182c0-.2.2-.4.5-.5.3 0 .5.2.5.4v3.1c0 .3-.2.5-.5.5z"/><path id="Fill-512" class="st3" d="M99.5 187.5c-.3 0-.5-.2-.5-.4V184c0-.2.2-.4.5-.4s.5.2.5.4v3.1c0 .2-.2.4-.5.4z"/><path id="Fill-514" class="st3" d="M104.5 187.5c-.3 0-.5-.2-.5-.3v-2.3c0-.2.2-.3.5-.3s.5.2.5.3v2.3c0 .1-.2.3-.5.3z"/><path id="Fill-516" class="st3" d="M109.5 188.5c-.3 0-.5-.2-.5-.4V185c0-.2.2-.5.5-.5s.5.2.5.4l.1 3.1c-.1.3-.3.5-.6.5z"/><path id="Fill-518" class="st3" d="M113.5 187.5c-.2 0-.4-.2-.5-.4V184c0-.2.2-.5.4-.5s.5.2.5.4l.1 3.1c0 .3-.2.5-.5.5z"/><path id="Fill-520" class="st3" d="M116.5 185.5c-.3 0-.5-.2-.5-.4V182c0-.2.2-.4.5-.4s.5.2.5.4v3.1c0 .2-.2.4-.5.4"/><path id="Fill-522" class="st3" d="M107.7 183.5c-3.4 0-6.5-.6-8.8-1.5-2.5-1-3.8-2.5-3.8-4v-3h.8v3c0 1.2 1.2 2.4 3.3 3.3 2.3.9 5.3 1.5 8.5 1.5h.1c3.2 0 6.1-.5 8.2-1.4 2.1-.9 3.2-2 3.2-3.2 0-.5.1-3.1.1-3.2 0-.2.2-.4.4-.4s.4.2.4.4c0 0-.1 2.7-.1 3.2 0 1.6-1.3 3-3.7 3.9-2.3.9-5.4 1.4-8.6 1.4"/><path id="Fill-524" class="st3" d="M107.6 180.5c-3.4 0-6.5-.5-8.8-1.5-2.4-1-3.8-2.4-3.8-3.8 0-.2.2-.4.4-.4s.4.2.4.4c0 1.1 1.2 2.3 3.3 3.1 2.2.9 5.2 1.4 8.4 1.4s6.2-.5 8.4-1.4c2.1-.8 3.3-2 3.3-3.1 0-.9-.7-1.6-1.3-2-.2-.1-.2-.4-.1-.5.1-.2.4-.2.5-.1 1.1.8 1.6 1.7 1.6 2.7 0 1.5-1.4 2.8-3.8 3.8-2.2.9-5.3 1.4-8.5 1.4"/><path id="Fill-526" class="st3" d="M107.5 178.5c-4 0-7.5-.8-9.3-2.1-.2-.1-.2-.4-.1-.6.1-.2.4-.2.5-.1 1.7 1.2 5.1 2 8.8 2h.1c5.7 0 9.7-1.7 9.7-3.3 0-.1 0-.2-.1-.4s0-.4.2-.5c.2-.1.4 0 .5.2.1.2.1.4.1.7.1 2.3-4.4 4.1-10.4 4.1"/><path id="Fill-528" class="st3" d="M97.5 180.5c-.3 0-.5-.2-.5-.4V177c0-.2.2-.4.5-.5.3 0 .5.2.5.4v3.1c0 .3-.2.5-.5.5z"/><path id="Fill-530" class="st3" d="M101.5 182.5c-.3 0-.5-.2-.5-.4V179c0-.2.2-.4.5-.4s.5.2.5.4v3.1c0 .2-.2.4-.5.4"/><path id="Fill-532" class="st3" d="M105.5 182.5c-.3 0-.5-.2-.5-.3v-2.3c0-.2.2-.3.5-.3s.5.2.5.3v2.3c0 .1-.2.3-.5.3z"/><path id="Fill-534" class="st3" d="M111.5 182.5c-.3 0-.5-.2-.5-.4V179c0-.2.2-.5.5-.5s.5.2.5.4l.1 3.1c-.1.3-.3.5-.6.5z"/><path id="Fill-536" class="st3" d="M115.5 182.5c-.2 0-.4-.2-.5-.4V179c0-.2.2-.5.4-.5s.5.2.5.4l.1 3.1c0 .3-.2.5-.5.5z"/><path id="Fill-538" class="st3" d="M118.5 180.5c-.3 0-.5-.2-.5-.4V177c0-.2.2-.4.5-.4s.5.2.5.4v3.1c0 .2-.2.4-.5.4"/><path id="Fill-540" class="st3" d="M106.7 177.5c-7.2 0-12.7-2.5-12.7-5.6v-3h.8v3c0 2.6 5.4 4.7 11.8 4.7 3.2 0 6.1-.5 8.3-1.4 2.1-.9 3.2-2 3.2-3.2 0-.5.1-3.1.1-3.2 0-.2.2-.4.4-.4s.4.2.4.4c0 0-.1 2.7-.1 3.2 0 1.6-1.3 3-3.7 3.9-2.2 1.1-5.3 1.6-8.5 1.6"/><path id="Fill-542" class="st3" d="M106.4 164.3c-3.2 0-6.1.5-8.3 1.4-2.1.9-3.3 2.1-3.3 3.2 0 1.2 1.2 2.3 3.3 3.2 2.2.9 5.2 1.5 8.4 1.5h.1c3.2 0 6.1-.5 8.3-1.4 2.1-.9 3.3-2.1 3.3-3.2 0-1.2-1.2-2.3-3.3-3.2-2.2-1-5.2-1.5-8.5-1.5zm.2 10.2c-3.4 0-6.5-.6-8.8-1.5-2.4-1-3.8-2.5-3.8-4s1.4-2.9 3.8-4c2.3-1 5.4-1.5 8.6-1.5h.1c3.3 0 6.4.6 8.7 1.5 2.4 1 3.8 2.5 3.8 4s-1.4 2.9-3.8 4c-2.3 1-5.4 1.5-8.6 1.5z"/><path id="Fill-544" class="st3" d="M96.8 168.5c0 1.5 4 3.2 9.7 3.2 2.7 0 5.2-.4 7-1 1.7-.6 2.7-1.4 2.7-2.2 0-.8-1-1.6-2.7-2.2-1.9-.7-4.4-1-7-1.1-2.7 0-5.2.4-7 1-1.7.7-2.7 1.5-2.7 2.3m9.8 4c-6.1 0-10.6-1.7-10.6-4 0-1.1 1.1-2.2 3.2-2.9 2-.7 4.5-1.1 7.3-1.1 2.7 0 5.3.4 7.3 1.1 2.1.7 3.2 1.8 3.2 2.9 0 1.1-1.1 2.2-3.2 2.9-2 .7-4.5 1.1-7.2 1.1"/><path id="Fill-546" class="st3" d="M95.5 175.5c-.3 0-.5-.2-.5-.4V172c0-.2.2-.4.5-.5.2 0 .5.2.5.4v3.1c0 .3-.2.5-.5.5z"/><path id="Fill-548" class="st3" d="M99.5 176.5c-.3 0-.5-.2-.5-.4V173c0-.2.2-.4.5-.4s.5.2.5.4v3.1c0 .2-.2.4-.5.4z"/><path id="Fill-550" class="st3" d="M104.5 177.5c-.3 0-.5-.2-.5-.3v-2.3c0-.2.2-.3.5-.3s.5.2.5.3v2.3c0 .1-.2.3-.5.3z"/><path id="Fill-552" class="st3" d="M110.5 177.5c-.3 0-.5-.2-.5-.4V174c0-.2.2-.5.5-.5s.5.2.5.4l.1 3.1c-.1.3-.3.5-.6.5z"/><path id="Fill-554" class="st3" d="M114.5 176.5c-.2 0-.4-.2-.5-.4V173c0-.2.2-.5.4-.5s.5.2.5.4l.1 3.1c0 .3-.2.5-.5.5z"/><path id="Fill-556" class="st3" d="M117.5 175.5c-.3 0-.5-.2-.5-.4V172c0-.2.3-.4.5-.4.3 0 .5.2.5.4v3.1c0 .2-.2.4-.5.4"/><path id="Fill-558" class="st3" d="M112.5 192.5c-.3 0-.5-.2-.5-.4V189c0-.2.2-.4.5-.4s.5.2.5.4v3.1c0 .2-.2.4-.5.4"/><path id="Fill-560" class="st3" d="M117.5 187.5c-.3 0-.5-.2-.5-.3v-2.3c0-.2.2-.3.5-.3s.5.2.5.3v2.3c0 .1-.2.3-.5.3z"/><path id="Fill-562" class="st3" d="M63.7 193.5c-3.4 0-6.5-.6-8.8-1.5-2.5-1-3.8-2.5-3.8-4v-3h.8v3c0 1.2 1.2 2.4 3.3 3.3 2.3.9 5.3 1.5 8.5 1.5s6.1-.5 8.3-1.4c2.1-.9 3.2-2 3.2-3.2 0-.5.1-3.1.1-3.2 0-.2.2-.4.4-.4s.4.2.4.4c0 0-.1 2.7-.1 3.2 0 1.6-1.3 3-3.7 3.9-2.3.9-5.4 1.4-8.6 1.4"/><path id="Fill-564" class="st3" d="M63.6 190.5c-3.4 0-6.5-.5-8.8-1.5-2.4-1-3.8-2.4-3.8-3.8 0-.2.2-.4.4-.4s.4.2.4.4c0 1.1 1.2 2.3 3.3 3.1 2.2.9 5.2 1.4 8.4 1.4h.1c6.3 0 11.6-2 11.7-4.5 0-.9-.7-1.6-1.3-2-.2-.1-.2-.4-.1-.5.1-.2.4-.2.5-.1 1.1.8 1.6 1.7 1.6 2.7 0 2.9-5.5 5.2-12.4 5.2"/><path id="Fill-566" class="st3" d="M63.5 188.5c-4 0-7.5-.8-9.3-2.1-.2-.1-.2-.4-.1-.6.1-.2.4-.2.5-.1 1.7 1.2 5.1 2 8.8 2 2.7 0 5.2-.4 7.1-1 1.7-.6 2.7-1.5 2.7-2.2 0-.1 0-.2-.1-.4s0-.4.2-.5c.2-.1.4 0 .5.2.1.2.1.4.1.7 0 1.2-1.2 2.2-3.2 3-1.9.6-4.5 1-7.2 1"/><path id="Fill-568" class="st3" d="M53.5 191.5c-.3 0-.5-.2-.5-.4V188c0-.2.2-.4.5-.5.2 0 .5.2.5.4v3.1c0 .3-.2.5-.5.5z"/><path id="Fill-570" class="st3" d="M56.5 192.5c-.3 0-.5-.2-.5-.4V189c0-.2.2-.5.5-.4.3 0 .5.2.5.4v3.1c0 .2-.2.4-.5.4z"/><path id="Fill-572" class="st3" d="M61.5 193.5c-.3 0-.5-.2-.5-.3v-2.3c0-.2.2-.3.5-.3s.5.2.5.3v2.3c0 .1-.2.3-.5.3z"/><path id="Fill-574" class="st3" d="M67.5 193.5c-.3 0-.5-.2-.5-.4V190c0-.2.2-.5.5-.5s.5.2.5.4v3.1c0 .3-.2.5-.5.5z"/><path id="Fill-576" class="st3" d="M71.5 192.5c-.2 0-.4-.2-.5-.4V189c0-.2.2-.5.4-.5.3 0 .5.2.5.4l.1 3.1c0 .3-.2.5-.5.5z"/><path id="Fill-578" class="st3" d="M74.5 190.5c-.3 0-.5-.2-.5-.4V187c0-.2.2-.4.5-.4s.5.2.5.4v3.1c0 .2-.2.4-.5.4"/><path id="Fill-580" class="st3" d="M62.7 188.5c-3.4 0-6.5-.6-8.8-1.5-2.5-1-3.8-2.5-3.8-4v-3h.8v3c0 1.2 1.2 2.4 3.3 3.3 2.3.9 5.3 1.5 8.5 1.5h.1c3.2 0 6.1-.5 8.2-1.4 2.1-.9 3.2-2 3.2-3.2 0-.5.1-3.1.1-3.2 0-.2.2-.4.4-.4s.4.2.4.4c0 0-.1 2.7-.1 3.2 0 1.6-1.3 3-3.7 3.9-2.3.9-5.4 1.4-8.6 1.4"/><path id="Fill-582" class="st3" d="M62.4 175.3c-3.2 0-6.1.5-8.3 1.4-2.1.9-3.3 2.1-3.3 3.2 0 1.2 1.2 2.3 3.3 3.2 2.2.9 5.2 1.5 8.4 1.5h.1c6.3 0 11.6-2.1 11.7-4.7 0-1.2-1.2-2.3-3.3-3.2-2.3-.9-5.3-1.4-8.6-1.4zm.2 10.2c-3.4 0-6.5-.6-8.8-1.5-2.4-1-3.8-2.5-3.8-4s1.4-2.9 3.8-4c2.3-1 5.4-1.5 8.6-1.5h.1c3.3 0 6.4.6 8.7 1.5 2.4 1 3.8 2.5 3.8 4 0 3.1-5.5 5.5-12.4 5.5z"/><path id="Fill-584" class="st3" d="M62.4 176.3c-2.6 0-5.1.4-6.9 1-1.7.6-2.7 1.4-2.7 2.2 0 .8 1 1.6 2.7 2.2 1.9.7 4.4 1 7 1.1 2.6 0 5.2-.4 7-1 1.7-.6 2.7-1.4 2.7-2.2 0-.8-1-1.6-2.7-2.2-1.8-.7-4.3-1.1-7.1-1.1zm.2 7.2c-2.8 0-5.4-.4-7.4-1.1-2.1-.7-3.2-1.8-3.2-2.9 0-1.1 1.1-2.2 3.2-2.9 1.9-.7 4.5-1.1 7.2-1.1h.1c2.7 0 5.3.4 7.3 1.1 2.1.7 3.2 1.8 3.2 2.9 0 1.1-1.1 2.2-3.2 2.9-2 .7-4.5 1.1-7.2 1.1z"/><path id="Fill-586" class="st3" d="M51.5 185.5c-.3 0-.5-.2-.5-.4V182c0-.2.2-.4.5-.5.2 0 .5.2.5.4v3.1c0 .3-.2.5-.5.5z"/><path id="Fill-588" class="st3" d="M55.5 187.5c-.3 0-.5-.2-.5-.4V184c0-.2.2-.4.5-.4s.5.2.5.4v3.1c0 .2-.2.4-.5.4z"/><path id="Fill-590" class="st3" d="M60.5 187.5c-.3 0-.5-.2-.5-.3v-2.3c0-.2.2-.3.5-.3s.5.2.5.3v2.3c0 .1-.2.3-.5.3z"/><path id="Fill-592" class="st3" d="M65.5 187.5c-.3 0-.5-.2-.5-.4V184c0-.2.2-.5.5-.5s.5.2.5.4v3.1c0 .3-.2.5-.5.5z"/><path id="Fill-594" class="st3" d="M70.5 186.5c-.2 0-.4-.2-.5-.4V183c0-.2.2-.5.4-.5.3 0 .5.2.5.4l.1 3.1c0 .3-.2.5-.5.5z"/><path id="Fill-596" class="st3" d="M73.5 185.5c-.3 0-.5-.2-.5-.4V182c0-.2.2-.4.5-.4s.5.2.5.4v3.1c0 .2-.2.4-.5.4"/><path id="Fill-598" class="st3" d="M104.6 133.5c-.1 0-.2 0-.2-.1-3.8-2.6-5.3-9.3-5.9-14.4-1.7-14.9 1.7-35.7 6.9-41.4.1-.2.4-.2.6 0 .2.1.2.4 0 .6-5 5.5-8.4 26.1-6.7 40.8.8 7.1 2.8 11.9 5.6 13.9.2.1.2.4.1.5-.2 0-.3.1-.4.1"/></svg>