<svg version="1.1" id="Layer_5" xmlns="http://www.w3.org/2000/svg" x="0" y="0" viewBox="0 0 270 220" xml:space="preserve" enable-background="new 0 0 270 220"><style>.st0,.st13,.st2,.st5,.st6{fill-rule:evenodd;clip-rule:evenodd;fill:#ffedde}.st13,.st2,.st5,.st6{fill:#fff}.st13,.st5,.st6{fill:#fa9700}.st13,.st6{fill:#868c98}.st13{fill:#332e3c}</style><g id="Group-268" transform="translate(1285 2438)"><path id="Fill-1_00000124872620140607340260000003318077658285130913_" class="st0" d="M-1232.2-2359.4c1.4.8 2.9 1.6 4.5 2 .6.1 4.3.6 4.3.6l-1 2.2s3.8 2.3 5 2.2c2.2-.2 4.9-3.3 4.9-3.3s4.3.1 6.3-.1c3-.3 6.3-.9 9.4-1.3 2.7-.4 4.3.3 6.8.5.9.1 2-.3 2.9-.1 1 .1 3.6 1.8 4.5 1.1.3-.2.3-1.1.3-1.1s.4-.5.5-1c.1-.2.1-1.1.1-1.1l.6-.9-.1-1s1.2-.9 1.4-1.5c.1-.5-.1-1.2-.1-1.2s.8-.4.8-.7c0-.3.1-.7-.3-.9-.5-.3-1.4-.2-2-.3-1.1-.2-2-.3-2.5-.3-.7.1-1.1.5-1.8.6-2.1.6-4.1 1.4-6.5 1.6-2.6.3-5.9-.1-8.6-.3-1.4-.1-5.5-.8-5.5-.8s2.3-2.5 2.9-3c.7-.6 1.5-1.2 2.4-1.4 1.1-.3 2.4-.3 3.4-1.1.5-.3 1.4-1.7 1.4-1.7s.5-.3.8-.9c.2-.3.4-1.1.7-1.3.7-.7 3.6-.7 3.5-2.1 0-.4-.7-1.1-1.4-1.6-.8-.5-1.7-.9-2.1-1-1.3-.4-.3 2.3-.5 2.3-.5-.1-1.4-.4-2.2-.5-.7 0-1.7.1-1.7.1s.1-1.2-.1-1.8c-.1-.6-1.2-1.4-2.4-.7-1.1.7-2.4 2.2-2.8 3.4-.1.3-.6 1.8-.4 1.7 1-.3 1.8-.7 2.8-1 .3-.1 1.1-.5 1.3-.4.3.1-.3 1.4-.3 1.4s-.7.3-.9.7c-.3.3-.1 1.1-.1 1.1s-6.9 2.5-8.7 3.5c-1.3.7-3.4 3.2-3.4 3.2s-3-.3-3.9-.5c-.7-.1-2.2-.2-3.2-.4-1.6-.3-2.2-.7-2.2-.7s-1.2.8-2 1.6c-1.1 1-2.6 3.1-3.2 3.7l-1.6 2.5z"/><g id="Group-5_00000023277251239376234340000004263974632535510677_" transform="translate(3 95.603)"><defs><filter id="Adobe_OpacityMaskFilter" filterUnits="userSpaceOnUse" x="-1258.4" y="-2422.9" width="40.8" height="94.1"><feColorMatrix values="1 0 0 0 0 0 1 0 0 0 0 0 1 0 0 0 0 0 1 0"/></filter></defs><mask maskUnits="userSpaceOnUse" x="-1258.4" y="-2422.9" width="40.8" height="94.1" id="mask-2_00000079446109753848300880000013035510408203039916_"><g filter="url(#Adobe_OpacityMaskFilter)"><path id="path-1_00000061466056052414358510000018316732551184017286_" class="st2" d="M-1258.4-2422.9h40.8v94.1h-40.8z"/></g></mask><path id="Fill-3_00000080914669298303115560000007951437874876411014_" d="M-1258.3-2419.3s4.6-4.3 14.7-3.4c10.1.9 25.6 6.5 25.6 6.5l.4 4.1v80.8s-8.6 3.8-24 2c-14-1.6-16.8-6.7-16.8-6.7l.1-83.3z" mask="url(#mask-2_00000079446109753848300880000013035510408203039916_)" fill-rule="evenodd" clip-rule="evenodd" fill="#a5abb6"/></g><path id="Fill-6_00000081613719887941498470000008015847947881393047_" class="st0" d="M-1250-2392.9c.3-1.1.6-2.3.7-3.4.1-1.6.1-3.4.9-4.9.7-1.1 2-1.8 3.1-2.2 1.7-.7 3.4-1.5 5.1-2.2.5-.2 1-.3 1.4-.5 1.4-.5 4.8-1.9 5.7.3.9 2.2.3 4.5-.3 6.7-.3 1.3-.3 1.9-.6 3.1-.5 1.6-1.3 3.6-2.5 4.9-.3.3-.6.7-.9.9-.9.5-2.7 0-2.7 0s-.5 1-.2 1.8c.4.9 1.6 1.6 2 2.2.5.6.5 1.3.3 2-.3 1.6-2 2.1-3.4 1.6-2.8-.9-5.7-3.6-7.4-5.9-.5-.7-1-1.6-1.3-2.4-.1-.3 0-.8-.2-1l.3-1z"/><path id="Fill-8_00000029724881991409077090000003339353264416042376_" class="st0" d="M-1215.9-2317.9s.9.3 1 .6c.5 1.7 1.1 3.3 1.3 5.1.5 3.4.5 8.1 1.1 11.7.1.9.9 3.9.9 4.1 1 4.7 3.5 8.2 3.6 13.1.1 2.2.1 3.4-.4 5.5-.3 1.4-1 3-.6 4.5.6 2 4 3 5.4 4.1 1.3 1 2.5 2.2 3.7 3.5.9.9 1.6 2 2.6 2.7.5.3 1.5 0 1.5 0s.8.3 1 .3.6-.3.9-.3c.2 0 .9.1 1.1.1.2 0 .7-.3.9-.3.3 0 1 .3 1.3.3.7.1.9-.5.9-.5s1.2.2 1.5.1c1.6-.7.5-1.6-.3-2.6-1.8-2.2-4-4.1-5.7-6.3-.7-.9-2-3.2-2-3.2s2 .5 2.4.7c1.6 1.1 3 3.5 4.8 4.3 1.1.5 2.3.6 3.5.8.7.1 1.9.5 2.6.6.4.1 1 0 1.5-.7s-2.1-1.9-2.4-2.2c-.9-.8-1.7-1.3-2.5-2.2-1.2-1.3-2.2-2.5-3.1-4-1.4-2.3-2-4.9-2.8-7.5-.9-3.1-.9-6.6-.8-9.8.1-4.3.7-8.6 1.1-12.9.3-2.5.7-5.5.7-8 .1-2.6.5-5.6-.3-8.2-.3-1.1-1.1-2.5-2-3.3-1.1-.9-4.4-3.6-6.1-2.7-.4.2-1.3.8-1.8 1.3-.6.6-1.4 1.5-1.4 1.5l-3-1.6s-1 .1-2.2.6c-1.1.4-2.2 1.2-3 1.7-1.8 1.4-3.8 3.8-4.3 6.1-.2.8-.3 1.1-.4 1.8-.3.2-.2 1.2-.2 1.2"/><path id="Fill-10_00000088117979377278242750000017740595034440508321_" d="m-1250.9-2335.6 15.5-4 6.1-.7 2.4.1s9.4 2.5 15.5 4.5 8.8 3.5 8.8 3.5h1.2l3.7 1.3s-1-.2-2.4.6c-1.3.8-3 2.6-3 2.6l-3.4-1.5s-2.9.1-7.1 4.8c-2.5 2.8-2.4 6.7-2.4 6.7s-1.1.3-1.6 0c-.6-.3-.8-1.3-.8-1.3s-4.1-.8-10.7-1.2c-2.5-.1-5.9-.3-9-.5-3.2-.1-6-.2-8.1-.7-4.3-1.1-6-1.9-7.2-3.2-1.3-1.4-1.5-3-1.5-3l4-8z" fill-rule="evenodd" clip-rule="evenodd" fill="#bcdaeb"/><path id="Fill-12_00000064312832765042783070000015382000414313375409_" class="st5" d="M-1252.4-2406.4c-.1.6-.3 1.3-.5 1.8-.2.9-.9 3-.7 4.6.1 1.4.6 2 1.6 2.3.5.2 1.6.3 1.6.3s0-1.4-.1-1.6c-.1-1.2.5-2 1.4-2.6 3.4-2.4 8-4.3 12.1-5.3.5-.1.9-.1 1.4-.1.3 0 .7 0 1.1.1 2 .5 1.7 2.3 1.7 3.9 0 .3-.3 2-.3 2s1.3-.1 2.4-.8c1-.6 1.8-1.8 1.9-2.4.1-.7-.7-1.6-1-2.1-.7-.9-1.6-2.1-2.4-2.8-.9-.8-1.8-1.2-2.7-2-.4-.3-.3-.5-.7-.9-.7-.7-1.6-1.3-2.3-2-.9-.8-1.7-1.4-2.8-1.8-1.4-.5-3.4.5-4.6 1.1-1.1.5-2.3.8-3.4 1-.9.2-1.6.4-2.2 1.4-.1.2-.9 1.6-1.1 1.8-.2.5-.4 1-.5 1.4.2 1 .3 1.9.1 2.7"/><path id="Fill-14_00000041980045461550770170000010110641655043259023_" class="st6" d="M-1195.4-2378.2s7-2.6 10.9-4c3.8-1.4 5-1.4 5-1.4l.7 1.8s0 .8-3.9 2.2c-3.6 1.3-10.3 3.6-10.3 3.6s-.3-.5-.9-1.1c-.5-.6-1.5-1.1-1.5-1.1"/><path id="Fill-16_00000065032480503258497890000012719540569544068792_" class="st6" d="m-1213.4-2371.7 10.7-3.8-.1 1.3s-.9.5-1.1.9c-.2.5.3 1.1.3 1.1l-9.4 3-.8-1.6.4-.9z"/><path id="Fill-18_00000098201345299072056900000008388355909757382550_" class="st6" d="M-1197.5-2377.3c-.5-.1-1 .5-.3.7.8.3 1.1-.5.3-.7"/><g id="Group-22" transform="translate(79 .603)"><defs><filter id="Adobe_OpacityMaskFilter_00000031189767281357910970000016143684881711328447_" filterUnits="userSpaceOnUse" x="-1258.4" y="-2423.4" width="108.2" height="41"><feColorMatrix values="1 0 0 0 0 0 1 0 0 0 0 0 1 0 0 0 0 0 1 0"/></filter></defs><mask maskUnits="userSpaceOnUse" x="-1258.4" y="-2423.4" width="108.2" height="41" id="mask-4_00000074413061963533720670000006712559491756917168_"><g filter="url(#Adobe_OpacityMaskFilter_00000031189767281357910970000016143684881711328447_)"><path id="path-3_00000078036887379268807040000008487626158696608680_" class="st2" d="M-1258.4-2423.4h108.2v41h-108.2z"/></g></mask><path id="Fill-20_00000171715411748815383510000013431121753478462887_" d="M-1150.2-2423.4c0 .1-6.6 2.8-16.6 6.5-15.4 5.8-37.8 14.5-57 21.7-19 7.1-34 12.8-34 12.8s-.2-.3-.4-.7c-.1-.3-.2-.8-.2-.8s15.9-5.9 35.9-13.2c18.6-6.8 39.6-15 54.7-20.4 10.5-3.7 17.6-6 17.6-5.9" mask="url(#mask-4_00000074413061963533720670000006712559491756917168_)" fill-rule="evenodd" clip-rule="evenodd" fill="#a5abb6"/></g><path id="Fill-23_00000021831186135478840690000011450404766776888489_" class="st6" d="M-1185.9-2371.2s1.3-3.1 1.3-3.8c0-1.6-1-3.8-1-3.8l1.6-.6 1.1 3.1s0 1.6.4 2.8c.4 1.1.9 1.5 2.1 2 1.2.5 2.8.1 2.8.1l1.1-.1 1.3 1.4 1.3-.1 1 1.1s1.6.4.9.9c-.6.5-1.8.9-3.2 1.1-1.3.1-1.6-.6-1.6-.6l-4.2 1.4-.7 1.1-4.4-.5s-.5-1-.3-2.3c.1-1.6.5-3.2.5-3.2"/><path id="Fill-25_00000081624062936828388000000013074720039559221127_" class="st6" d="m-1188.5-2356.7 2 .7s-.2 1.1-.9 1.4c-.7.3-1.6-.6-1.6-.6l.5-1.5z"/><path id="Fill-27_00000139995166479249531400000007331804185384963254_" d="M-1181.2-2375c.9-.6 5.7-2.8 7.1-1.6.7.5 2.1 3.5 1.8 4.7-.4 1.7-3 1.6-3 1.6s-.7-.9-1.3-1.3c-.7-.3-1.3 0-1.3 0l-3.2-.2c.2.1-1-2.6-.1-3.2" fill-rule="evenodd" clip-rule="evenodd" fill="#a5abb6"/><path id="Fill-29_00000090260907273065031660000004902232964117728696_" d="M-1079.9-2349.9c.3-.2 1.6-.9 1.6-.9s.5-2.2 1.9-3.6c.8-.8 2.4-1.4 3.2-1.4 1.2 0 3 .3 3.9 1.4 1.1 1.2 1.7 3.4 1.7 3.4l2.3 1.6.1 8.5-.6 1.6s-3.4-1.7-6.9-1.6c-3.4.1-6.9 2.1-6.9 2.1l-.5-.9s-.5-3.8-.5-6.8c0-1.3-.1-2.8.7-3.4" fill-rule="evenodd" clip-rule="evenodd" fill="#bcc1cc"/><path id="Fill-31_00000072262202199960885990000009737005093912079551_" d="M-1079.6-2338.9s.9-.9 3-1.5c.9-.3 2.9-.5 4-.6 1.8-.1 3.6.4 4.9.7 1.1.3 1.7.7 1.7.7s.3 4.7 1.7 7.9c1.4 3 3.6 4.7 4.8 8 .6 1.4 1.2 3 1.4 4.8.3 2 0 4.3-.3 5.9-.5 2.6-1.5 4.7-2.8 6.3-3.6 4.2-9.2 5.2-11.7 5.2-2.8 0-8.6-1.4-11.7-6.8-.9-1.5-1.5-3.6-1.9-5.7-.5-2.5-.3-5.8.5-8.3 1.2-3.8 3.7-6.7 5.1-9.9 1.1-2.7 1.3-6.7 1.3-6.7" fill-rule="evenodd" clip-rule="evenodd" fill="#ffda8e"/><path id="Fill-33_00000006685301896049333170000002070162158591918502_" class="st5" d="m-1250.6-2393.1 1.1 1.1 3.6 3.3 4.7 3.4 1.3 1.6 1.3 4.2 6 6.5-.9-3.2-.8-2.3-.3-3.6-3-3.5-3-2.8.5-2 .9.3 4.3 4.2.7.9s2.7.7 5.3 5.3c1.2 2.1 2.7 5.3 4.3 7.8 2.1 3.3 4 5.7 4 5.7s-1.4-.1-2.6-.5c-1.1-.3-1.8-.7-1.8-.7s-2.1 1.7-3.8 3.7c-1.6 2-3.2 4.2-3.2 4.2s1.3 1.1 3.4 1.8c2.2.7 5.3.9 5.3.9l-.8 2.3 1 .7s-.1.4-.5.8c-.2.3-.5.7-.9.7-.8 0-2.7-1.8-2.7-1.8s.1.9.3 1.7c.5 2 1.4 5.5 2.1 8 1.1 4.1.6 4.9.6 4.9s-1.4.3-2.4-.7c-1.1-.9-1.3-.8-1.8-3s-.3-6.1-.3-6.1l-1.3-7.6-3.7 1.4-2-.3s.5 3.2.6 6c.1 1.8-.1 3.6-.2 5.1-.1 1.3.4 2.4.8 3.2.8 1.4 2.1 1.8 2.1 1.8l3.3 2.9-8.5-.1s-4.1.2-6.5.7c-2.3.5-3 1.3-3 1.3l-3.5 3.7-4.3 3.2.1 1.1-1.3-.1s-.6-.1-1.1-1.6c-.3-1.2-.5-3.5-.7-6.2-.5-6.7-.2-18.4-.5-26.9-.1-3.9-.3-9.8-.3-12.8.1-4.1 1.1-6.8 2.3-9.3 1.7-3.4 3.6-5.5 3.6-5.5l-.1-.8 2.3-3z"/><path id="Fill-35_00000141416832382329865730000005340497490605521287_" class="st2" d="M-1239.9-2382.9s1.1-.2 1.6-.8c.6-.6.8-1.5.8-1.5l2.4 2.7.7 4 1.6 5.7-6.1-6.5-1-3.6z"/><path id="Fill-37_00000111185332114715147460000010989294261063343804_" class="st2" d="m-1235.7-2355.7 2.4.3 3.4-1.5.9 3 .5 6.7s-.3 1.8.1 3.5c.3 1.7 1.4 3.3 1.4 3.3s-1.1-.1-2.6.1c-1.4.2-3.3.7-3.3.7s-1.5-.7-2-2.7-.1-5.7-.1-5.7l-.7-7.7z"/><path id="Fill-39_00000074407876319929214010000014287360642612646534_" d="m-1251.3-2401.4 5.8-2.6 4.8-2.4s2.1-1.4 4-1.6c1.8-.2 3.8.8 3.8.8l2.6 1.2s-.4 1-.9 1.5-1.2.7-1.2.7.1-2.1-2.4-1.7c-2.5.4-5.6 1.8-5.6 1.8s-1.3 2.1-2.2 2.5c-1.9.9-3.6-1.5-4.9.2-.3.3-.4 1-.2 1.8.2.9.7 2 .7 2s-1.8 1.4-2.6 1.1c-.5-.2-.4-.8-.6-1.4-.7-1.6-1.1-3.9-1.1-3.9" fill-rule="evenodd" clip-rule="evenodd" fill="#cd9e76"/><path id="Fill-41_00000067953428394917777180000011636903712538056103_" class="st2" d="M-1072.7-2280c-.2 0-.3-.1-.3-.3 0-1 .1-10.1.1-10.1h.7s-.1 9.1-.1 10.1c-.1.2-.2.3-.4.3"/><path id="Fill-43_00000119112490130229600700000012992822828010113437_" class="st2" d="M-1052.5-2288c-.1 0-.1 0-.1-.1-2.8-1.4-5.6-5.1-6.3-6.3-.1-.1-.1-.3.1-.5.1-.1.3-.1.5.1 1.5 2.2 4 5 6.1 6.1.1.1.3.3.1.5-.1.1-.2.2-.4.2"/><path id="Fill-45_00000073707365801744075910000008211087593976337083_" class="st2" d="M-1046.3-2314c-1.1 0-2.2-.1-3.1-.1-.2 0-.3-.2-.3-.4s.2-.3.4-.3c2.6.3 7.5 0 7.6 0 .2 0 .3.1.3.3s-.1.3-.3.3c-.1 0-2.3.2-4.6.2"/><path id="Fill-47_00000132049928453010205380000011695584803516212665_" class="st13" d="M-1210.8-2331c-.1 0-.1 0-.1-.1-3.6-2.1-10-3.6-15.1-4.7l-.3-.1c-.2-.1-.3-.2-.3-.4.1-.2.2-.3.4-.3l.3.1c5.2 1.2 11.6 2.7 15.3 4.8.1.1.2.3.1.5-.1.1-.2.2-.3.2"/><path id="Fill-49_00000144326437444614269100000005032727531230632626_" class="st13" d="M-1189.2-2263c-.3 0-.7-.1-1-.3-.2-.1-.3-.3-.1-.5.1-.1.3-.3.5-.1.7.3 1.4.1 1.7-.2.1-.1.3-.3.1-.6-.5-1.1-1.9-2.3-2.8-3.1l-.5-.5c-5-4.9-8-10.5-9-16.5-1.2-7.8-1-15.9-.7-22.7.1-.7.1-1.4.1-2.3.3-5.2.9-13.9-.7-16.1-.8-1.2-3.1-2.4-4.8-3.1-.2-.1-.3-.3-.1-.5.1-.2.3-.3.5-.1 2.8 1.3 4.3 2.3 5.1 3.4 1.6 2.4 1.1 10.9.7 16.6-.1.9-.1 1.6-.1 2.3-.3 6.8-.5 14.8.7 22.5.9 5.9 3.9 11.3 8.8 16.2l.5.5c.9.8 2.4 2.1 2.9 3.3.2.5.1 1-.3 1.4-.3.2-.9.4-1.5.4"/><path id="Fill-51_00000143579809024178458970000001573815753432370614_" class="st13" d="M-1190.9-2262.7c-.3 0-.8-.1-1.2-.3-.1-.1-.2-.3-.1-.5.1-.1.3-.2.5-.1.7.3 1.1.3 1.3.1.1-.1.1-.3.1-.5-.1-.5-.7-1.1-1.1-1.6-.2-.3-.4-.5-.5-.7-.1-.1 0-.3.1-.5.1-.1.3 0 .5.1.1.1.2.3.4.6.4.5.9 1.3 1.1 1.8.1.5.1.9-.3 1.3-.3.3-.5.3-.8.3"/><path id="Fill-53_00000142143000969869113200000000202631091443973028_" class="st13" d="M-1193.1-2262.6c-.3 0-.7-.1-1-.2-.2-.1-.3-.3-.2-.4.1-.2.3-.3.4-.2.7.3 1.1.2 1.2.1.1-.1.1-.3.1-.4-.2-.6-.7-1.3-1-1.7-.1-.1-.1-.3-.2-.3-.1-.1 0-.3.1-.5.1-.1.3 0 .5.1 0 .1.1.1.1.2.3.5.8 1.3 1.1 1.9.1.4.1.8-.2 1.1-.3.2-.5.3-.9.3"/><path id="Fill-55_00000176007562694953266060000009412510625817361028_" class="st13" d="M-1196.6-2262.6c-1 0-1.9-1.1-2.8-2.2-.2-.2-.3-.5-.5-.7-1.2-1.3-2-2.2-4.1-3.6-.5-.3-1.1-.7-1.6-1-1.7-1-3.3-2-3.8-3.8-.2-.9.1-2.3.5-3.9s.8-3.4.7-4.7c-.3-3.8-1.4-7-2.6-10.4-.7-2.1-1.4-4.2-2-6.6-.5-2-.7-5.1-.9-8-.3-4.5-.7-10.1-2.2-10.3-.2 0-.3-.2-.3-.4s.2-.3.4-.3c2 .3 2.4 5.2 2.7 10.9.2 2.9.4 5.9.9 7.9.5 2.3 1.3 4.5 2 6.5 1.2 3.4 2.2 6.7 2.6 10.5.1 1.5-.3 3.3-.7 4.9-.3 1.4-.7 2.9-.5 3.6.4 1.5 1.9 2.4 3.5 3.4.5.3 1.1.7 1.6 1.1 2.1 1.5 3 2.4 4.2 3.8.2.2.4.5.5.7.9 1.1 1.8 2.1 2.4 2 .1 0 .3-.1.3-.1.1-.1.1-.5-.9-1.7-.1-.1-.1-.3.1-.5s.3-.1.5.1c.9 1.1 1.1 1.8.9 2.4-.1.2-.3.5-.8.5 0-.1 0-.1-.1-.1"/><path id="Fill-57_00000138569924770823155180000002889612106176883334_" class="st13" d="M-1202.6-2332c-.1 0-.1 0-.1-.1-7-3.6-18.2-6.3-22.6-7-.2 0-.3-.2-.3-.4s.2-.3.4-.3c4.3.7 15.6 3.4 22.7 7 .1.1.2.3.1.5.1.2-.1.3-.2.3"/><path id="Fill-59_00000177481050939344782110000010306644051636427429_" class="st13" d="M-1182.8-2268.7c-.7 0-1.4-.3-2.2-.5-.7-.3-1.3-.3-1.9-.4-1.1-.1-2.2-.3-3.5-1.2-.6-.5-1.2-1.1-1.7-1.6-1.3-1.3-2.5-2.6-4.3-2.8-.2 0-.3-.2-.3-.3 0-.2.2-.3.3-.3 2 .1 3.5 1.6 4.7 3l1.6 1.6c1.1.8 2.1.9 3.2 1.1.7.1 1.4.1 2.1.4 1.6.7 2.5.7 2.8.1.2-.3-.5-.7-1.4-1.3-.5-.3-.9-.5-1.4-.9-1.5-1.1-3.4-3.2-5-5.7-1.4-2.2-2.8-6.1-3.4-8.8-1.1-4.5-.3-12.4.5-20.1.2-1.8.3-3.6.5-5.2.1-.8.1-1.4.2-2.2.6-7 .9-9.9-1.4-13.2-.4-.5-1.6-1.6-5.6-3.4-.2-.1-.3-.3-.1-.5.1-.2.3-.3.5-.1 3.3 1.5 5.2 2.6 5.9 3.6 2.4 3.5 2.2 6.7 1.6 13.7-.1.7-.1 1.4-.2 2.2-.1 1.6-.3 3.4-.5 5.2-.7 7.2-1.4 15.5-.5 19.9.6 2.6 1.9 6.4 3.3 8.5 1.6 2.4 3.4 4.4 4.8 5.5.4.3.9.6 1.3.9 1.1.6 2.2 1.3 1.6 2.2-.4.4-1 .6-1.5.6"/><path id="Fill-61_00000078007507453601920180000016079136576590987690_" class="st13" d="M-1194.8-2262.4c-.3 0-.6-.1-1.1-.4-.1-.1-.2-.3-.1-.5.1-.1.3-.2.5-.1.4.3.7.3.9.2.1-.1.1-.2.1-.3-.1-.6-.7-1.8-.9-2-.1-.1-.1-.3.1-.5.1-.1.3-.1.5.1.3.3.9 1.6 1 2.2.1.3-.1.7-.4 1-.1.2-.4.3-.6.3"/><path id="Fill-63_00000144317317708167286550000000293957266347337867_" class="st13" d="M-1223.9-2366.5c-.1 0-.1 0-.2-.1-.3-.2-.7-.4-1.3-.6-1.1-.4-2.8-1-4.9-2.8-1.8-1.4-3.4-3.3-4.9-5.1-2.2-2.6-4.3-5-6.8-6.3l-.2-.1c-.7-.3-1.8-.9-3.8-1.3-.2 0-.3-.2-.3-.4s.2-.3.4-.3c2 .3 3.2 1 3.9 1.3l.2.1c2.7 1.4 4.8 3.8 7 6.5 1.5 1.8 3 3.6 4.7 5 2 1.7 3.6 2.2 4.7 2.6.6.2 1.1.4 1.4.7.1.1.1.3.1.5.2.2.1.3 0 .3"/><path id="Fill-65_00000104693208505581054640000002457570068781410236_" class="st13" d="M-1183-2360.7c-.1 0-.2-.1-.3-.1-.1-.1-.1-.3.1-.5.7-.4 1.4-1.1 1.3-1.6-.3-1.1-2.8-1.9-4.1-2-1.3-.1-2.5.3-3.8.8-1 .4-2 .7-3.1.9-3.8.3-7.8-.1-11.6-.5l-.9-.1c-2.5-.3-4.5-.6-6.5-.9-1.6-.3-3.2-.5-4.9-.7-.3-.1-.7-.1-1.3-.1-2-.2-5.1-.5-7.3-1.1-.2-.1-.3-.2-.3-.4.1-.2.2-.3.4-.3 2.2.6 5.3.9 7.2 1.1.5.1.9.1 1.3.1 1.8.2 3.3.5 4.9.7 2 .3 4 .6 6.5.9l.9.1c3.8.4 7.7.8 11.5.5 1-.1 2-.5 3-.8 1.3-.5 2.7-1 4.1-.9 1.1.1 4.3.9 4.7 2.6.2.8-.3 1.6-1.5 2.4-.1-.1-.2-.1-.3-.1"/><path id="Fill-67_00000062183029736333272120000010146519178112668585_" class="st13" d="M-1183.6-2358.8c-.1 0-.2-.1-.3-.1-.1-.1-.1-.3.1-.5.4-.3.5-.6.5-1-.2-1.1-2.2-2.4-2.8-2.6-.2-.1-.3-.3-.2-.4.1-.2.3-.3.4-.2.7.2 3 1.5 3.3 3 .1.5 0 1.1-.7 1.6-.1.2-.2.2-.3.2"/><path id="Fill-69_00000148659383182466677120000015839927268634144438_" class="st13" d="M-1184.2-2356.8c-.1 0-.1 0-.2-.1s-.1-.3 0-.5c.3-.3.5-.7.5-1.1-.1-1.1-1.9-2-2.6-2.4l-.2-.1c-.1-.1-.2-.3-.1-.5.1-.1.3-.2.5-.1l.2.1c.9.5 2.8 1.5 3 2.8.1.6-.1 1.1-.6 1.6-.3.3-.4.3-.5.3"/><path id="Fill-71_00000129889281176873438860000010529078622265238718_" class="st13" d="M-1185.1-2355.3c-.5 0-1.3-.3-1.9-.6-.5-.2-.9-.4-1.3-.5-.7-.1-1.4-.1-2.1 0-1 .1-2 .2-3.1-.1-1.8-.5-3.2-.9-6.5-.3l-.7.1c-2.3.4-7.1 1.3-12.2 1.2-2.7 0-4.5-.3-6.3-.7-1.4-.3-2.7-.5-4.3-.5-.1 0-5.8-.1-8.7-2.6-.1-.1-.1-.3-.1-.5.1-.1.3-.1.5-.1 2.7 2.3 8.2 2.4 8.2 2.4 1.6 0 3 .3 4.3.5 1.7.3 3.5.6 6.1.7 5 0 9.8-.8 12.1-1.2l.7-.1c3.4-.6 5-.3 6.8.3 1 .3 1.9.2 2.8.1.7-.1 1.5-.1 2.3 0 .4.1.9.3 1.4.5.7.3 1.6.7 1.9.5.2-.2.3-.3.3-.5s-.4-.5-.8-.8l-.3-.3c-.7-.5-1.4-1-2.2-1.2-.2-.1-.3-.3-.2-.4.1-.2.3-.3.4-.2.9.3 1.6.8 2.4 1.3l.3.3c.5.3 1 .7 1.1 1.3.1.3-.1.7-.4.9 0 .4-.2.5-.5.5"/><path id="Fill-73_00000052797754379674327940000015331175154187210135_" class="st13" d="M-1233.9-2355.1c-4.9-.8-10.1-5.3-15-9.8-.1-.1-.1-.3 0-.5.1-.1.3-.1.5 0 4.6 4.3 9.9 8.9 14.6 9.7.2 0 .3.2.3.4-.1.1-.2.2-.4.2"/><path id="Fill-75_00000051345494922020147580000000582557307698892468_" class="st13" d="M-1181.7-2363.4c-.1 0-.3-.1-.3-.2-.1-.1 0-.3.1-.5.1-.1.5-.3.6-.6 0-.1 0-.1-.1-.3-.2-.3-.4-.3-.9-.3-.3 0-.7.1-1.1 0-.2 0-.5-.1-.7-.1-1.1-.3-2.4-.5-3.8.4-.1.1-.3.1-.5-.1-.1-.1-.1-.3.1-.5 1.6-1.1 3.1-.7 4.2-.5.3.1.5.1.7.1.3.1.7 0 .9 0 .5 0 1.1-.1 1.5.6.1.3.2.5.1.8-.1.7-.8 1-.8 1.2"/><g id="Group-79" transform="translate(0 33.603)"><defs><filter id="Adobe_OpacityMaskFilter_00000163778680173498539210000003243644823516011906_" filterUnits="userSpaceOnUse" x="-1258.7" y="-2422.9" width="6.5" height="62.7"><feColorMatrix values="1 0 0 0 0 0 1 0 0 0 0 0 1 0 0 0 0 0 1 0"/></filter></defs><mask maskUnits="userSpaceOnUse" x="-1258.7" y="-2422.9" width="6.5" height="62.7" id="mask-6_00000095315895152270286620000016136909096236114615_"><g filter="url(#Adobe_OpacityMaskFilter_00000163778680173498539210000003243644823516011906_)"><path id="path-5_00000102517202405310677900000016835728466208374660_" class="st2" d="M-1258.7-2422.9h6.6v62.8h-6.6z"/></g></mask><path id="Fill-77_00000061450835957937757030000018104021772288169862_" d="M-1256.1-2360.1c-.1 0-.1 0-.2-.1-1.3-.8-2-6.9-1.9-16.3.1-6.3-.1-13.4-.3-19.8-.1-4.5-.2-8.3-.2-10.9 0-5.4 1.5-8.4 2.3-9.9l.1-.3c.7-1.3 1.6-2.7 2.6-4.1l.9-1.2c.1-.1.3-.2.5-.1.1.1.2.3.1.5-.3.4-.6.8-.9 1.3-1 1.3-2 2.7-2.6 4l-.1.3c-.8 1.6-2.2 4.5-2.2 9.7 0 2.6.1 6.4.2 10.9.1 6.3.3 13.6.3 19.8-.1 11.6 1 15.3 1.6 15.7.1.1.2.3.1.5h-.3" mask="url(#mask-6_00000095315895152270286620000016136909096236114615_)" fill-rule="evenodd" clip-rule="evenodd" fill="#332e3c"/></g><path id="Fill-80_00000064313560244949560950000001824533039416380091_" class="st13" d="M-1226.6-2339.9c-.1 0-.2-.1-.3-.1-1.3-1.6-2.1-2.8-2-7 .1-1.6-.1-2.7-.3-3.8-.1-1.1-.3-2.1-.3-3.6 0-.2.1-.3.3-.3s.3.1.3.3c.1 1.5.2 2.6.3 3.6.2 1.2.3 2.3.3 4-.1 3.8.5 4.9 1.8 6.5.1.1.1.3-.1.5.1-.1 0-.1 0-.1"/><path id="Fill-82_00000142165167743264214180000004518930768171404475_" class="st13" d="M-1228.6-2369c-.1 0-.3-.1-.3-.3 0-.1-.8-5.7-1.3-7.1-.1-.2 0-.3.2-.4.2-.1.3 0 .4.2.5 1.5 1.3 7 1.3 7.2 0 .3-.1.4-.3.4"/><path id="Fill-84_00000093155496561430574740000010239251583124762764_" class="st13" d="M-1220.8-2366.1c-.1 0-.2-.1-.3-.1-2.9-3-6.2-9.3-8-12.6-.4-.8-.7-1.4-1-1.8-1.2-2.1-3.6-3.8-4.5-4.3-.2-.1-.3-.3-.2-.5.1-.2.3-.3.5-.2 1.3.5 3.7 2.4 4.9 4.5.2.4.6 1.1 1 1.8 1.8 3.4 5.1 9.5 7.8 12.5.1.1.1.3 0 .5s-.1.2-.2.2"/><path id="Fill-86_00000106127773046281535220000014107499787659333543_" class="st13" d="M-1219.4-2352.2c-1.3 0-3.3-1-4.9-2.1-.1-.1-.2-.3-.1-.5.1-.1.3-.2.5-.1 2.1 1.4 4.2 2.2 4.9 1.9.9-.3 3.3-2.3 4.1-3 .1-.1.3-.1.5.1.1.1.1.3-.1.5-.1.1-3.2 2.7-4.3 3.2h-.6"/><path id="Fill-88_00000075856758284279500590000017456038423166004927_" class="st13" d="M-1224.7-2352c-.1 0-.1 0-.2-.1-.2-.1-.4-.3-.6-.5-.7-.5-1.4-1.1-1.9-1.6-.1-.1-.1-.3 0-.5.1-.1.3-.1.5 0 .5.5 1.2 1.1 1.8 1.6.2.2.5.3.7.5.1.1.2.3.1.5-.2.1-.3.1-.4.1"/><path id="Fill-90_00000121277637107050995540000015581158741135417245_" class="st13" d="M-1208-2364.3c-.1 0-.1 0-.2-.1s-.1-.3-.1-.5l.1-.2c.9-1.1 2.8-3.4 4.5-4.1.6-.3 1.3-.4 1.9-.5 1.4-.3 2.8-.7 3.2-1.8.1-.3.1-.5-.1-.7-.6-.9-2.5-1.4-3.7-1.4-.8-.1-1.1.2-1.2.3-.1.1-.1.3-.1.3.1.2.3.3.8.4.2.1.5.1.7.2.4.1 1.2.6 1.3.7.1.1.2.3.1.5-.1.1-.3.2-.5.1s-.8-.5-1.1-.6c-.3-.1-.5-.1-.7-.1-.5-.1-1.1-.2-1.3-.8-.1-.3-.1-.6.1-.9.2-.3.7-.7 1.8-.7 1.3.1 3.4.7 4.2 1.8.3.4.3.9.2 1.3-.5 1.5-2.2 1.9-3.7 2.2-.7.1-1.3.3-1.8.5-1.6.7-3.5 3-4.3 3.9l-.2.2h.1z"/><path id="Fill-92_00000009576066431508370410000008636915912282050995_" class="st13" d="M-1198.1-2371.5c-.1 0-.3-.1-.3-.2-.1-.1 0-.3.1-.5.5-.3.9-.7 1-1 .1-.2 0-.3-.1-.5-.4-.6-2-1.4-3.4-1.6-.9-.1-1.5.1-1.6.3-.1.1.1.4.1.5.1.1.1.3-.1.5s-.3.1-.5-.1c-.4-.6-.3-1-.2-1.3.4-.6 1.4-.7 2.3-.6 1.5.2 3.3 1.1 3.9 1.8.2.3.3.7.2 1-.1.8-.6 1.4-1.4 1.7z"/><path id="Fill-94_00000042736210821862034050000008300861313355575466_" class="st13" d="M-1196.9-2373.4c-.1 0-.2-.1-.3-.1-.1-.1-.1-.3.1-.5.9-.7.8-.9.5-1.3l-.1-.1c-.3-.5-1.7-1.1-2.9-1.1-.7 0-1.3.3-1.3.4 0 .1.1.2.3.3.1.1.1.3.1.5-.1.1-.3.1-.5.1-.5-.5-.5-.8-.5-1.1.2-.6 1.2-.8 1.9-.9 1.4 0 3 .6 3.5 1.4l.1.1c.5.6.7 1.2-.7 2.2 0 0-.1.1-.2.1"/><path id="Fill-96_00000033352037680899416990000009673071902065022107_" class="st13" d="M-1196.3-2373.8c-.1 0-.3-.1-.3-.3-.1-.2.1-.3.2-.4.9-.3 2.5-.7 2.9-1.3.1-.1.1-.2 0-.3-.3-.7-1.9-1.9-3-2.1-.3-.1-.4 0-.5 0-.1.1-.2.3-.1.5.1.5.6 1.1 1.4 1.8.1.1.2.3.1.5-.1.1-.3.2-.5.1-1.1-.8-1.6-1.5-1.8-2.2-.1-.3.1-.7.3-1 .2-.3.6-.3 1.1-.3 1.2.3 3.1 1.6 3.4 2.6.1.3.1.6-.1.9-.3.6-1.7 1.1-3.1 1.5z"/><path id="Fill-98_00000076604208979624501150000011345879559757582984_" class="st13" d="M-1215.8-2365.5c-.1 0-.2 0-.2-.1-.1-.1-.1-.3 0-.5.5-.5 3-2.8 3.6-3.3.1-.1.3-.1.5.1.1.1.1.3-.1.5-.6.5-3.1 2.7-3.6 3.2l-.2.1"/><path id="Fill-100_00000008832410871779180470000006189701619413783997_" class="st13" d="M-1206.8-2373.8h-.1c-.2-.1-.3-.3-.2-.4l.3-.9c.1-.5.3-.9.5-1.5.7-1.4 2.6-3.1 3.7-3.2.7-.1 1.3.2 1.7.9.5 1 .4 2.6-.3 3.4-.3.4-.8.5-1.3.3-.7-.2-1.2-1-1.3-2 0-.2.1-.3.3-.3.2 0 .3.1.3.3.1.9.5 1.3.8 1.4.2.1.5 0 .6-.1.5-.6.7-1.9.3-2.6-.2-.4-.6-.6-1.1-.5-.7.1-2.5 1.6-3.2 2.9-.3.5-.3.9-.5 1.4-.1.3-.1.6-.3.9h-.2"/><path id="Fill-102_00000105393749195266952460000014799689848528973476_" class="st13" d="M-1218.7-2318.8c-1.3-.1-2.4-.3-3.6-.4-1.3-.2-2.6-.3-4.2-.5-2.2-.1-4.6-.3-6.7-.3-2.3-.1-4.2-.1-5.5-.3-.7-.1-1.4-.1-2.2-.2-5.4-.4-12.8-1-14.3-6.9-.1-.2.1-.3.3-.4.2-.1.3.1.4.3 1.4 5.4 8.5 5.9 13.7 6.4.8.1 1.5.1 2.2.2 1.3.1 3.2.2 5.5.3 2.1.1 4.5.1 6.7.3 1.5.1 2.9.3 4.2.5 1.2.1 2.3.3 3.5.4.2 0 .3.2.3.3 0 .1-.1.3-.3.3"/><path id="Fill-104_00000085226152068122874660000014732713732668789687_" class="st13" d="M-1195.3-2377.9c-.1 0-.3-.1-.3-.2-.1-.2 0-.3.2-.4 4.9-1.7 8-2.9 10.2-3.8 2.7-1.1 4.1-1.6 5.7-1.8.2 0 .3.1.3.3s-.1.3-.3.3c-1.5.1-2.8.7-5.5 1.7-2.3 1-5.4 2.2-10.3 3.9z"/><path id="Fill-106_00000176005388176381448970000016538504288412242852_" class="st13" d="M-1178.9-2381.5c-.1 0-.2 0-.2-.1s0-.2.1-.3l8.4-3.2c17.2-6.5 34.9-13.2 35.3-13.3.5-.2 39.9-15.1 56.5-21.5-14 5-43.6 16.2-56.2 20.8l-44.4 16.2c-.1 0-.2 0-.3-.1 0-.1 0-.2.1-.3l44.4-16.2c.1 0 15.4-6 31.8-12 9.2-3.4 16.5-6 21.7-7.8 10.1-3.6 10.1-3.5 10.2-3.3v.2c-.1.2-.2.5-32.2 12.4-15.8 5.9-31.1 12-31.5 12.1-.4.1-18.2 6.9-35.3 13.3l-8.4 3.1c.1 0 0 0 0 0"/><path id="Fill-108_00000089561308218400393650000012812420759706418861_" class="st13" d="M-1192.9-2375.8c-.1 0-.3-.1-.3-.2-.1-.2 0-.3.2-.4 4.9-1.9 8-2.9 10-3.6 2.6-.9 3.5-1.2 4.2-1.9.1-.1.3-.1.5 0 .1.1.1.3 0 .5-.9.9-1.8 1.2-4.5 2-2.1.6-5.2 1.7-10.1 3.6z"/><path id="Fill-110_00000062883438787867691910000009775976465308863362_" class="st13" d="M-1198.9-2376.5c-.1 0-.3-.1-.3-.2-.1-.2.1-.3.2-.4l1.5-.5c.2-.1.4 0 .5.2.1.2 0 .3-.2.4l-.2.1-1.5.4c0-.1 0 0 0 0"/><path id="Fill-112_00000171711681589404523400000014494465249964680836_" class="st13" d="M-1212.7-2368.7c-.1 0-.1 0 0 0-.6-.1-.9-.5-.9-.8l-.3-1c-.1-.3-.1-.8.3-1.2.4-.4 1.3-.7 1.3-.7l9.6-3.5c.2-.1.3 0 .4.2.1.2 0 .3-.2.4l-9.6 3.5c-.3.1-.9.3-1.1.5-.2.2-.1.5-.1.5l.3 1.1c0 .1.1.3.3.3.1 0 .7-.2 1.1-.3l8.1-3h.1c.2-.1.3 0 .4.2.1.2 0 .3-.2.4l-8.2 3.1c-.3 0-1 .3-1.3.3"/><path id="Fill-114_00000089572144027378718820000001592305701914973826_" class="st13" d="M-1117-2405.1c-.1 0-.3-.1-.3-.2l-.3-.8c-.1-.2 0-.3.2-.4.2-.1.3 0 .4.2l.3.8c0 .3-.1.4-.3.4z"/><path id="Fill-116_00000065044119363033121770000006799385311184685203_" class="st13" d="M-1136.9-2397.5c-.1 0-.3-.1-.3-.2l-.3-.8c-.1-.2 0-.3.2-.4.2-.1.3 0 .4.2l.3.8c.1.2 0 .4-.3.4z"/><path id="Fill-118_00000002344747915514538740000001361278195811738518_" class="st13" d="M-1096.4-2412.7c-.1 0-.3-.1-.3-.2l-.3-.5c-.1-.1 0-.3.1-.5.1-.1.3 0 .5.1l.3.5c.1.1 0 .3-.1.5l-.2.1"/><path id="Fill-120_00000017491310506083525050000018206299772566712250_" class="st13" d="M-1077.6-2419.5c-.1 0-.3-.1-.3-.3l-.1-.7c0-.2.1-.3.3-.4.2 0 .3.1.4.3l.1.7c-.1.2-.2.4-.4.4"/><path id="Fill-122_00000154411081859099773810000000714498718486758568_" class="st13" d="M-1159.5-2389c-.1 0-.3-.1-.3-.2l-.5-1.2c-.1-.2 0-.3.2-.4.2-.1.3 0 .4.2l.5 1.2c.1.2 0 .4-.3.4z"/><path id="Fill-124_00000064333969114586436590000003993616823210057383_" class="st13" d="M-1184.8-2365.5c-.6 0-1.1-.1-1.4-.4-.3-.3-.5-.6-.5-1v-.2c-.1-.9-.1-2.2.7-4.9.2-.7.4-1.2.6-1.6.5-1.3.7-1.7-.5-4.8-.1-.2 0-.3.2-.4.2-.1.3 0 .4.2 1.2 3.2 1.1 3.8.5 5.3-.1.4-.4.9-.6 1.5-.9 2.7-.8 3.9-.7 4.7v.2c0 .3.1.4.3.5.3.2.8.3 1.5.2.2 0 .3.1.4.3 0 .2-.1.3-.3.4-.2-.1-.4 0-.6 0"/><path id="Fill-126_00000160172702787711481870000010978733918608204202_" class="st13" d="M-1180.9-2366.3c-.1 0-.3-.1-.3-.3-.1-.2.1-.3.2-.4.8-.2 1.5-.5 2.2-.7.6-.2 1.1-.4 1.7-.6.2-.1.3.1.4.2.1.2-.1.3-.2.4-.5.1-1.1.3-1.7.6-.8.3-1.5.6-2.3.8z"/><path id="Fill-128_00000049221322748013999660000009998314568643025340_" class="st13" d="M-1174.7-2376.5c-.1 0-.1.1-.2.1-.4.4-.5 1.8.3 3.4.5 1.1 1.1 1.8 1.5 1.8.1 0 .2 0 .3-.1.4-.4.5-1.8-.3-3.4-.6-1.1-1.2-1.8-1.6-1.8zm1.7 6h-.3c-.7-.1-1.4-1-2-2.2-.7-1.4-.9-3.4-.1-4.1.3-.2.5-.3.9-.2.7.1 1.4 1 2 2.2.7 1.4.9 3.4.1 4.1-.2.1-.4.2-.6.2z"/><path id="Fill-130_00000080205418459552924260000015824338609494229680_" class="st13" d="M-1179.3-2371.1c-2.4 0-3-1.2-3.2-1.6 0-.1 0-.1-.1-.1-.5-.6-.6-1.6-.7-2.5-.1-.6-.1-1.2-.3-1.6-.3-.7-.8-2-.8-2l.6-.3s.5 1.4.8 2c.2.5.2 1.1.3 1.8.1.9.1 1.7.5 2.2.1.1.1.1.1.2.2.5.9 1.8 4.5 1.1.2-.1.3.1.4.3.1.2-.1.3-.3.4-.5 0-1.3.1-1.8.1"/><path id="Fill-132_00000178926231221050640530000004074156573267440538_" class="st13" d="M-1175.1-2369.9c-.2 0-.3-.1-.3-.3 0-.2.1-.3.3-.3.5-.1 1.6-.4 2-.5.2-.1.3 0 .4.2.1.2 0 .3-.2.4.1-.1-1.4.4-2.2.5.1 0 0 0 0 0"/><path id="Fill-134_00000183250391186557326790000012921504230006131879_" class="st13" d="M-1181.1-2371.6c-.1 0-.2-.1-.3-.1-.4-.6-1.1-2.8.1-3.8 1.3-1.1 5.5-1.9 6.3-1.6.2.1.3.3.2.4-.1.2-.3.3-.4.2-.5-.1-4.5.6-5.7 1.5-.9.7-.3 2.6 0 2.9.1.1.1.3-.1.5h-.1"/><path id="Fill-136_00000131356295625862087450000018014625709263305892_" class="st13" d="M-1177-2371.3c-.1 0-.3 0-.4.1-.1.1-.5.3-.3.9.1 1.1 1.3 2.5 2 2.7.4.1 3-.7 3.6-1 0-.1-.1-.1-.1-.1-.2-.2-.9-.2-1.3-.1-.6 0-1.1.1-1.4-.1-.1-.1-.3-.3-.5-.6-.5-1-1-1.8-1.6-1.8zm1.3 4.3h-.1c-1.1-.3-2.4-1.9-2.5-3.2-.1-.7.1-1.3.7-1.6 1.4-.8 2.4 1 2.8 1.8.1.1.2.3.3.4.1.1.7.1 1 .1.7-.1 1.4-.1 1.8.3.2.2.3.5.2.8 0 .2-.2.3-.2.3-.5.4-3.2 1.1-4 1.1z"/><path id="Fill-138_00000089573003675035225600000003466990693228494523_" class="st13" d="M-1181.7-2365.2h-.1c-.2-.1-.3-.3-.2-.5.7-1.5.9-2.1.9-2.4-.1-.2-.6-.7-1-.7-.1 0-.4 0-.7.6l-.3.5c-.3.6-.7 1.2-.9 2-.1.2-.3.3-.5.2-.2-.1-.3-.3-.2-.5.3-.8.7-1.4 1-2l.3-.5c.5-1 1.3-1 1.6-.9.7.2 1.4.9 1.4 1.3 0 .5-.3 1.3-.9 2.6-.1.2-.2.3-.4.3"/><path id="Fill-140_00000131364896155054116080000006626631668387469710_" class="st13" d="M-1187.7-2354.1h-.2c-.7-.1-1.1-.4-1.3-.8-.1-.3-.1-.5-.1-.8.1-.3.3-.7.5-1.1.1-.1.3-.2.5-.1.1.1.2.3.1.5-.1.3-.3.6-.4.9-.1.1 0 .2 0 .3.1.2.4.3.9.5.2.1.7-.2.9-1.1v-.1c.1-.2.3-.3.4-.2.2.1.3.3.2.4v.1c-.4 1-1 1.5-1.5 1.5"/><path id="Fill-142_00000116913771534546206800000008755934330251295124_" class="st13" d="M-1172.8-2369c-.1 0-.1 0-.2-.1s-1.7-1.5-2.6-3.9c-.5-1.3-.7-2-.8-2.8-.1-.7-.3-1.3-.6-2.2-.3-.7-.7-1-1.1-.9-.5.1-.9 1-.5 2.4.1.2-.1.3-.3.4-.2.1-.3-.1-.4-.3-.4-1.8.2-2.9 1-3.2.7-.2 1.4.1 1.9 1.3.4 1 .5 1.6.7 2.4.1.8.3 1.5.7 2.8.9 2.2 2.4 3.6 2.4 3.6.1.1.1.3 0 .5h-.2"/><path id="Fill-144_00000171688717927201365070000001954741932067848600_" class="st13" d="M-1176.9-2371.4c-.1 0-.2-.1-.3-.1-1.1-1.6-1.3-3.7-1-4.9.1-.2.2-.3.4-.3.2.1.3.2.3.4-.3 1.1 0 3 .9 4.4.1.1.1.3-.1.5-.1-.1-.2 0-.2 0"/><path id="Fill-146_00000090283945620778219450000009003089301203607994_" class="st13" d="M-1178.5-2381.5c-.1 0-.1 0 0 0-.9-.1-1.2-1.8-1.1-2.2 0-.2.2-.3.4-.3s.3.2.3.4c-.1.4.3 1.4.5 1.5.2 0 .3.2.3.4-.1 0-.3.2-.4.2"/><path id="Fill-148_00000003825143467501794540000014506924115954313601_" class="st13" d="M-1132.3-2396.6c.1.3.2.5.3.7v-.2c-.1-.3-.2-.5-.3-.5m.4 1.4c-.1 0-.3-.1-.5-.3-.5-.7-.7-1.5-.8-2.3-.1-.9-.2-1.6-.9-2.2-.1-.1-.1-.3 0-.5.1-.1.3-.1.5 0 .8.8.9 1.8 1.1 2.6 0 .1 0 .2.1.3l.1.1c.5.3.8.5 1.1 1.1.2.5.1.9-.3 1.2-.2-.1-.3 0-.4 0"/><path id="Fill-150_00000148653032923773686150000002072931174450316204_" class="st13" d="M-1105.8-2405.2c-.1 0-.3-.1-.5-.3-.5-.6-.6-1.3-.7-2.1-.1-.8-.3-1.6-.9-2.1-.1-.1-.1-.3 0-.5.1-.1.3-.1.5 0 .7.7.9 1.6 1.1 2.4 0 .1.1.3.1.3h.1l.1.1c.4.3.7.5.9.9.2.4.1.9-.3 1.1-.2.2-.3.2-.4.2"/><path id="Fill-152_00000023275380524465797590000014069907168692688771_" class="st13" d="M-1077.2-2415.5c-.1 0-.3-.1-.5-.3-.5-.5-.6-1.3-.7-1.9-.1-.7-.3-1.4-.8-1.9-.1-.1-.1-.3 0-.5.1-.1.3-.1.5 0 .7.7.9 1.5 1 2.2 0 .1.1.3.1.3v-.1c.4.3.7.5.9.9.2.4.1.9-.3 1-.1.3-.2.3-.2.3"/><path id="Fill-154_00000014616827268090105620000000266737803792592275_" class="st2" d="M-1073.1-2358.8c-.7 0-1.5-.3-2-.7-1-.9-1.4-2.8-.3-4.1 1.8-2.1 1.8-4.4 1.8-4.7-.1-5.5-.3 14.3-.1-9.8.1-10.7-1.4-25.8-1.5-32.4-.1-1.3-.1-5.1-1-5.7-.1-.1-.2-.1-.5 0-5.3 2-11.9 3.3-19.5 6.3-23.3 9.4-10.7 4.9-36.3 14-7.8 2.8-39.8 26.2-40.2 26.4-.1.1-.3.1-.5-.1-.1-.1-.1-.3.1-.5 1.3-1 32.4-23.7 40.3-26.5 25.6-9 12.9-4.6 36.2-13.9 7.6-3.1 14.2-4.3 19.5-6.3.5-.2.8-.1 1.1.1.8.5 1.2 2.3 1.3 6.2.2 6.7 1.6 21.7 1.5 32.4-.3 24.1.1 4.2.1 9.8 0 .3 0 2.8-2 5.1-.9 1-.6 2.5.2 3.2.5.5 1.3.7 2 .5.5-.1 1.1-.3 1.5-1 .1-.1.3-.2.5-.1.1.1.2.3.1.5-.5.7-1.1 1.2-2 1.3h-.3"/><path id="Fill-156_00000104665039474954324500000007209734152818460054_" class="st13" d="M-1214.6-2234.9c-.2 0-.3-.1-.3-.3v-80.1l-.1-1.5c0-.2.1-.3.3-.3s.3.1.3.3l.1 1.5v80.2s-.1.2-.3.2"/><path id="Fill-158_00000049933062439983034710000000817640501017376172_" class="st13" d="M-1255.3-2239.8c-.2 0-.3-.1-.3-.3v-83.2c0-.2.1-.3.3-.3.2 0 .3.1.3.3v83.2c0 .1-.2.3-.3.3"/><path id="Fill-160_00000145753556434573306780000016454779403280616068_" class="st13" d="M-1233.8-2318.8c-10.6 0-21.8-1.6-21.8-4.5 0-.7.7-1.3 1.8-1.9.2-.1.3 0 .5.1.1.2 0 .3-.1.5-1 .5-1.5.9-1.5 1.3 0 1.8 8.7 3.8 21.1 3.8 3.6 0 7.2-.2 10.4-.5.2 0 .3.1.4.3 0 .2-.1.3-.3.4-3.2.3-6.8.5-10.5.5"/><path id="Fill-162_00000034809610513398484430000009589977179689932432_" class="st13" d="M-1072.5-2301.2h-.6c-7.2-.3-14.5-5.4-14.2-16.3.1-5.1 2.4-8.7 4.2-11.6.9-1.3 1.6-2.5 2-3.6.7-2 1.1-4.5 1.3-6.4 0-.2.2-.3.3-.3.2 0 .3.2.3.3-.2 2-.5 4.5-1.3 6.5-.4 1.1-1.2 2.3-2 3.7-1.8 2.8-4 6.4-4.1 11.3-.2 10.4 6.7 15.3 13.6 15.5 6.8.3 14.2-4.1 14.6-14.1.3-5.8-2.3-9.5-4.3-12.4-1-1.4-1.8-2.7-2.2-4-.9-2.8-1.3-5.5-1.4-7.2 0-.2.1-.3.3-.4.2 0 .3.1.4.3.2 1.6.6 4.2 1.5 7 .3 1.2 1.2 2.4 2.2 3.8 2.1 3 4.7 6.9 4.5 12.8-.8 10.5-8.2 15.1-15.1 15.1"/><path id="Fill-164_00000026849622753952138830000008158761125645972145_" class="st13" d="M-1079.6-2338.7c-.1 0-.1 0-.2-.1s-.2-.3-.1-.5c1.1-1.4 3.9-1.9 5.4-2 3.2-.3 7.1.1 8.6 1.5.1.1.1.3 0 .5-.1.1-.3.1-.5 0-1.1-1.1-4.7-1.6-8-1.4-2.4.2-4.3.9-4.9 1.8-.1.2-.2.2-.3.2"/><path id="Fill-166_00000166663672665326946830000004164694985172946843_" class="st13" d="M-1079.7-2338.3c-.1 0-.1 0-.2-.1-.5-.5-.9-1.6-.9-2.8v-.3c0-1.1-.1-4.3 0-6.5.1-1.3.3-2.1.6-2.3 1.3-.9 4.4-1.9 7.4-1.8 3.5.1 6.2.8 7.2 2 .3.3.5.7.5 1.1l.2 7.4c0 1.6-.4 2.1-.8 2.7l-.1.2c-.1.1-.3.2-.5.1-.1-.1-.2-.3-.1-.5l.1-.2c.4-.5.7-.9.7-2.3l-.2-7.4c0-.3-.1-.5-.3-.6-.7-.8-2.9-1.7-6.8-1.8-2.8-.1-5.8.8-7 1.7 0 0-.3.3-.3 1.8-.1 2-.1 5.3 0 6.4v.3c0 1.1.4 2 .7 2.3.1.1.1.3 0 .5 0 0-.1.1-.2.1"/><path id="Fill-168_00000166647996728161009420000008482903982352646304_" class="st13" d="M-1080.3-2340.8c-.1 0-.1 0-.2-.1s-.1-.3 0-.5c2.3-2.4 12.3-3 15.4-.3.1.1.1.3 0 .5-.1.1-.3.1-.5 0-2.8-2.5-12.4-2-14.5.2-.1.2-.2.2-.2.2"/><path id="Fill-170_00000027587717585791013020000000752732234245675689_" class="st13" d="M-1080.4-2343.6c-.1 0-.2-.1-.3-.1-.1-.1-.1-.3 0-.5 2.5-2.4 12.1-2.8 15.5-.1.1.1.2.3.1.5-.1.1-.3.2-.5.1-3.2-2.5-12.4-2-14.7.1h-.1"/><path id="Fill-172_00000136386489706227396520000000060598498172002950_" class="st13" d="M-1065.5-2346.5c-.1 0-.1 0-.2-.1-2.8-2.4-11.1-2.5-14.6-.1-.1.1-.3.1-.5-.1-.1-.1-.1-.3.1-.5 3.8-2.6 12.4-2.5 15.3.1.1.1.1.3 0 .5.1.2.1.2-.1.2"/><path id="Fill-174_00000139280032943627113260000017355881238157033904_" class="st13" d="M-1078.3-2350.6c-.3-.1-.3-.2-.3-.4.9-3.8 3.5-5.1 5.5-5.1 2.8 0 5 2 5.6 4.9.1.2-.1.3-.3.4-.2.1-.3-.1-.4-.3-.5-2.6-2.5-4.4-4.9-4.4-1.8 0-4 1.3-4.9 4.6 0 .2-.1.3-.3.3"/><path id="Fill-176_00000030481386925746285800000013608986613478341802_" class="st13" d="M-1075-2314.4c-.3 0-.5-.2-.5-.3-.1-.2.1-.4.2-.6-.1-.2-.3-.4-.5-.5-.2-.1-.3-.3-.5-.5-.3.2-.5.3-.8.4-.7.1-1.8.3-2.1 0-.1-.1-.1-.3-.1-.5.1-.3.3-.9.7-1.6.6-1.3 1.4-3 2.1-4.9.3-.7 2.4-7 1.9-17.7 0-.2.1-.3.3-.3.2 0 .3.1.3.3.6 10.8-1.6 17.3-1.9 18-.7 1.9-1.6 3.7-2.1 4.9-.3.6-.5 1.1-.6 1.3.3 0 .7 0 1.4-.2.2-.1.5-.2.6-.3-.1-.2-.1-.3-.1-.5.1-.2.3-.3.5-.3.3.1.4.2.4.5 0 .1-.1.3-.1.4l.4.4c.2.1.5.3.7.6.3-.2.5-.3.7-.5.3-.1.5-.3.7-.5-.1-.2-.1-.3-.1-.5.1-.2.2-.3.5-.3.3.1.4.2.5.4 0 .1 0 .3-.1.3.1.1.3.3.5.4.3.1.6.3.8.6.2-.3.5-.5.7-.6.2-.1.4-.3.5-.5-.1-.1-.1-.2-.1-.3 0-.2.1-.4.3-.4.3-.1.5.1.5.3.1.1 0 .3 0 .4.2.2.5.5.9.5.5.1 1 .2 1.3.1.1-.1 0-.3-.1-.6-.1-.1-.3-.5-.5-1.1-.8-1.6-2.3-4.7-2.7-5.9-1.7-5-1.8-9.7-1.8-14.4 0-.9 0-1.6-.1-2.5 0-.2.1-.3.3-.3.2 0 .3.1.3.3 0 .9 0 1.7.1 2.5.1 4.5.1 9.2 1.8 14.1.4 1.2 1.8 4.1 2.6 5.8.3.6.5 1 .5 1.1.1.3.3.9.1 1.3-.1.1-.2.3-.5.3-.5.1-1.2-.1-1.5-.2-.3-.1-.7-.3-1-.6-.2.2-.5.5-.7.5-.3.1-.5.3-.6.5.1.1.1.3.1.4 0 .2-.2.3-.4.4-.3 0-.5-.1-.5-.3-.1-.1 0-.3 0-.4-.2-.2-.5-.5-.7-.6-.2-.1-.5-.3-.7-.5-.3.3-.6.5-.9.7-.3.1-.5.3-.6.4.1.1.1.3.1.5.1.4-.1.6-.4.6"/><path id="Fill-178_00000122722027389420040550000007374016940796479131_" class="st13" d="M-1073.2-2359.6c-.2 0-.3.1-.3.1-.1.1-.5.9.5 3.4v-.1c.4-1.2.6-2.6.3-3.2-.1-.1-.1-.2-.3-.2h-.2m-.2 3.9c-.1 0-.3-.1-.3-.2-.8-2-.9-3.4-.3-4 .3-.3.7-.4 1.1-.3.3.1.5.3.7.5.6 1.1-.1 3.4-.2 3.7-.1.2-.3.3-.4.2-.1 0-.1-.1-.2-.2 0 .1-.1.3-.2.3h-.2"/><path id="Fill-180_00000180340262849338017210000007565099479298823095_" class="st13" d="M-1216-2317.4c-.1 0-.3-.1-.3-.3-.6-4.9 4.7-10.7 9.4-11.9.6-.1 1.8-.2 2.6.2.2.1.3.3.1.5-.1.2-.3.3-.5.1-.7-.3-1.7-.3-2.2-.1-4.3 1.1-9.4 6.7-8.9 11.2.2.2 0 .3-.2.3"/><path id="Fill-182_00000162314623515855677000000011480835761322528915_" class="st13" d="M-1203-2327.5c-.1 0-.1 0-.2-.1s-.2-.3-.1-.5c1.1-1.4 2.6-3 4.9-3.2.2 0 .3.1.4.3 0 .2-.1.3-.3.4-2 .3-3.4 1.6-4.5 3 0 .1-.1.1-.2.1"/><path id="Fill-184_00000174587433025670791970000001027725005536071300_" class="st13" d="M-1216.5-2317.3c-.9 0-1.4-.2-1.8-.6-.7-.9-.5-2.4.2-5.1 1-4.3 5.5-8 7.6-8.8 1.4-.5 2.2-.1 2.8.3.3.2.5.4.9.5 1 .2 2.2.7 2.6 1.3.2.3.3.6.1.9-.1.2-.2.3-.4.3-.2-.1-.3-.2-.3-.4 0-.1 0-.2-.1-.3-.3-.5-1.4-.9-2.2-1.1-.5-.1-.9-.3-1.2-.5-.5-.3-1-.7-2.1-.3-2 .7-6.3 4.3-7.2 8.3-.6 2.4-.9 4-.3 4.5.3.3 1.1.5 2.4.3.2 0 .3.1.4.3 0 .2-.1.3-.3.4h-1.1"/><path id="Fill-186_00000039818934964889529970000014372156743606004915_" class="st13" d="M-1197.6-2330.1c-.3-.1-.3-.2-.3-.4.1-.4-.9-.7-1.4-.8-.2-.1-.4-.1-.5-.1-.2-.1-.4-.1-.5-.2-1.4-.6-2-.9-4.7 1.4-.1.1-.3.1-.5-.1-.1-.1-.1-.3.1-.5 2.9-2.4 3.8-2.2 5.4-1.6.1.1.3.1.5.2.1.1.3.1.4.1.8.2 2.1.6 1.8 1.6 0 .3-.2.4-.3.4"/><path id="Fill-188_00000059283617706319485210000012221285505002013096_" class="st13" d="M-1233.6-2355h-.2c-.3-.1-.4-.2-.5-.3-.9-1.6 5.1-9.5 7.8-11.6.3-.2 1.3-.9 1.8-.4.1.1.1.3 0 .5-.1.1-.3.1-.5 0 0-.1-.3-.1-.9.5-2.9 2.2-8 9.6-7.6 10.7.5.1 2.6-.6 4.3-2.2.1-.1.3-.1.5 0 .1.1.1.3 0 .5-1.6 1.4-3.7 2.3-4.7 2.3"/><path id="Fill-190_00000075132054324834846630000007895067081093779378_" class="st13" d="M-1252.5-2368.9c-.1 0-.3-.1-.3-.3-.5-4.1.7-9.5 2.9-12.2.1-.1.3-.1.5-.1.1.1.1.3.1.5-2 2.5-3.3 7.8-2.8 11.7-.1.2-.2.4-.4.4"/><path id="Fill-192_00000135679331466204779210000010641252225056924815_" class="st13" d="M-1238.6-2379c-.1 0-.3-.1-.3-.2-.6-1.4-.9-2.4-1.1-3.2-.3-.9-.4-1.4-.9-2-1.1-1.3-1.7-1.7-2.8-2.4-.7-.4-1.5-.9-2.7-1.8-1.4-1.1-4.3-4-4.5-4.1-.1-.1-.1-.3 0-.5.1-.1.3-.1.5 0 0 0 3 3 4.4 4.1 1.1.9 2 1.4 2.6 1.8 1.1.7 1.8 1.1 3 2.5.6.8.8 1.4 1 2.3.2.7.5 1.6 1 3 .1.2 0 .3-.2.4v.1"/><path id="Fill-194_00000010289824935834956960000004700772377945965223_" class="st13" d="M-1232.8-2372.5c-.2 0-.3-.1-.3-.3 0-1.1-.6-2.8-1.1-4-.1-.4-.3-.7-.3-1-.2-.6-.3-1.3-.3-2-.1-.9-.1-1.7-.5-2.4-.8-1.6-2.8-3.5-4.7-5.1l-.8-.7c-.1-.1-.1-.3 0-.5.1-.1.3-.1.5 0l.8.7c1.8 1.7 4 3.6 4.8 5.3.4.7.5 1.7.5 2.6.1.7.1 1.3.3 1.9.1.3.2.6.3 1 .5 1.4 1.1 3.1 1.1 4.2 0 .2-.2.3-.3.3"/><path id="Fill-196_00000007388317088108903980000000301416854691904169_" class="st13" d="M-1255.4-2326.3c-.5 0-.9-.1-.9-.4-.1-.5.4-.8 1.8-1.6 1-.6 2.2-1.4 3.3-2.3.9-.8 1.5-1.5 2.1-2.2 1.3-1.5 2.3-2.8 5.7-3.6 3.4-.7 8.8-.5 12.1-.4.7 0 1.4.1 1.8.1-.5-.5-1.6-1.4-3-2.3-2.2-1.3-3.2-3.7-2.8-6.5.4-2.8.2-4.8-.5-10.1 0-.2.1-.3.3-.4.2 0 .3.1.4.3.7 5.3.9 7.4.5 10.3-.4 2.6.5 4.6 2.5 5.9 1.8 1.1 3.5 2.6 3.6 3 0 .1 0 .2-.1.3-.1.2-.2.2-2.8.1-3.2-.1-8.7-.3-11.9.4-3.1.7-4.1 1.8-5.3 3.4-.6.7-1.3 1.5-2.2 2.3-1.1.9-2.4 1.7-3.4 2.4-.5.3-.9.6-1.2.8h.7c.2 0 .3.1.3.3 0 .2-.1.3-.3.3-.3-.1-.5-.1-.7-.1z"/><path id="Fill-198_00000055670201420144957720000013212293157033512627_" class="st13" d="M-1250-2339.6c-.1 0-.3-.1-.3-.2-.1-.2 0-.3.2-.5 2.3-1.1 8.7-2 12.7-1.2.2.1.3.2.3.4-.1.2-.2.3-.4.3-3.8-.8-10.1.1-12.3 1.1 0 .1-.1.1-.2.1"/><path id="Fill-200_00000046328421335342271830000005912879479183325360_" class="st13" d="M-1224-2339.1h-.1c-.2-.1-.3-.3-.2-.4.5-1.5-.5-3.5-1.2-5.1-.2-.4-.3-.7-.5-1.1l-.9-2.1c-1.2-2.8-2.3-5.3-3.2-8.8-.1-.2.1-.3.3-.4.2-.1.3.1.4.3.9 3.4 2 6 3.2 8.7l.9 2.1c.1.3.3.7.5 1.1.8 1.7 1.8 3.8 1.2 5.6-.1 0-.3.1-.4.1"/><path id="Fill-202_00000149361559955225676110000004157726506909232274_" class="st13" d="M-1224.3-2342.4c-.1 0-.3-.1-.3-.3-.3-1.2-.7-2.8-1.2-4.7-1-3.8-2.2-8.1-2.2-9.9 0-.2.1-.3.3-.3.2 0 .3.1.3.3 0 1.7 1.2 6.1 2.2 9.7.5 1.8.9 3.5 1.2 4.7.1.2-.1.4-.3.5"/><path id="Fill-204_00000029019826869375826900000006282668926119162761_" class="st13" d="M-1232.6-2339.4c-.1 0-.3-.1-.3-.2-.1-.2 0-.3.2-.4 1.7-.7 3.9-.9 6-.7.2 0 .3.2.3.3 0 .2-.2.3-.3.3-2-.2-4.1.1-5.7.7h-.2z"/><path id="Fill-206_00000134231970502020413770000004520146502115881345_" class="st13" d="M-1224.5-2351.9h-.1c-.5-.1-.4-.7-.3-.9.1-1.1.7-2.3 1.1-3.4l.2-.5c.1-.2.3-.3.5-.2.2.1.3.3.2.5l-.2.5c-.5 1.1-.9 2.2-1.1 3.2v.1c.3-.3.7-.9.9-1.1.1-.1.3-.2.5-.1.1.1.2.3.1.5-.3-.2-1.2 1.4-1.8 1.4z"/><path id="Fill-208_00000114040467145876248350000009994938224375264134_" class="st13" d="M-1233-2380.7c-.3 0-.6-.3-2-1.6l-.3-.3c-.1-.1-.2-.3-.1-.5.1-.1.3-.2.5-.1.1 0 .2.2.4.4s.6.6 1 .9c-.1-.4-.3-.8-.5-1.3-.2-.7-.5-1.4-.7-1.8-.5-.7-1.6-1.7-2.6-2.7-1-.9-1.8-1.6-2.4-2.3-.1-.1-.1-.3.1-.5.1-.1.3-.1.5.1.5.6 1.4 1.4 2.2 2.2 1.1 1 2.2 2 2.8 2.8.3.5.5 1.3.8 2 .2.5.3 1.1.5 1.4l.1.1c.2.4.3.7.2 1-.2.2-.3.3-.5.2z"/><path id="Fill-210_00000179613300786340902190000012348790836402245522_" class="st13" d="M-1241.7-2381.3h-.1c-1-.4-2.4-1.6-3.9-2.7l-.7-.6c-.7-.6-2.2-1.5-3.4-2.4-2.2-1.5-2.8-2-3-2.2-.2-.3 0-.7.4-1.3.2-.3.3-.6.5-.9.1-.1.1-.3.2-.5.4-.9.9-1.8 1.4-1.8.2 0 .3.1.3.3 0 .2-.1.3-.3.3-.2.1-.7 1-.9 1.4-.1.2-.1.3-.3.5-.2.4-.4.7-.6 1-.1.2-.3.5-.3.6.3.3 1.6 1.2 2.7 1.9 1.3.9 2.6 1.8 3.4 2.4l.7.6c1.2 1 2.6 2 3.5 2.5.1-.1.1-.3.1-.5.2-.9.5-2 1.3-2 .2 0 .3.1.3.3s-.1.3-.3.3c-.3 0-.5 1.1-.7 1.5.1.9 0 1.1-.3 1.3z"/><path id="Fill-212_00000048485427352595583240000010438962135100227719_" class="st13" d="M-1239.4-2382.7c-.2 0-.3 0-.5-.1s-.3-.3-.2-.4c.1-.1.3-.3.4-.2.4.1 1.1-.1 1.4-.6.5-.7.1-1.6-.8-2.5-.1-.1-.1-.3 0-.5.1-.1.3-.1.5 0 1.7 1.6 1.2 2.9.9 3.4-.4.5-1.1.9-1.7.9"/><path id="Fill-214_00000067238503286467413340000001682768152285080708_" class="st13" d="M-1250-2392.6h-.1c-.2-.1-.3-.3-.1-.5l.1-.1c.4-.8.5-1 .7-2.4 0-.2.2-.3.4-.3s.3.2.3.4c-.2 1.5-.3 1.8-.7 2.6l-.1.1c-.3.1-.4.2-.5.2"/><path id="Fill-216_00000065786037132115022060000004022112220696552849_" class="st13" d="M-1235.5-2395.8c-.1 0-.3-.1-.3-.3-.1-.2.1-.3.3-.4.3-.1.7-.4.7-.5 0-.1-.1-.3-.2-.5-.1-.1-.2-.3-.3-.6-.3-.7 0-1.3.2-1.7.1-.1.3-.2.5-.1.1.1.2.3.1.5-.3.5-.3.8-.2 1.2.1.2.1.3.3.5.1.3.3.5.3.8-.1.5-.8.9-1.4 1.1z"/><path id="Fill-218_00000107589746706008217080000017718615244601280443_" class="st13" d="M-1236.6-2401c-.1 0-.1 0-.1-.1-.5-.3-1.7-.3-2.2-.1-.2.1-.3-.1-.4-.3-.1-.2.1-.3.3-.4.7-.2 2-.2 2.8.2.1.1.2.3.1.5-.3.2-.4.2-.5.2"/><path id="Fill-220_00000162354394527854795980000007691008801359181990_" class="st13" d="M-1238.4-2389.8c-1.1 0-2.2-.5-2.9-.9-1.1-.5-2-1.3-3-2.3-.1-.1-.1-.3 0-.5.1-.1.3-.1.5 0 1 1 1.9 1.6 2.9 2.2.8.4 2.2 1.1 3.4.7.5-.2 1-.7 1.4-1.7.1-.1.3-.2.5-.1.1.1.2.3.1.5-.6 1.1-1.2 1.8-1.8 2-.4 0-.7.1-1.1.1"/><path id="Fill-222_00000081642768511111339620000012097988201255448991_" class="st13" d="M-1246-2396.8c-1.6 0-2.2-2.2-2.3-3.2 0-.9.5-1.7 1.2-2 .3-.1 1.1-.3 1.8.4.1.1.1.3 0 .5-.1.1-.3.1-.5 0-.4-.3-.8-.5-1.2-.3-.5.2-.8.9-.8 1.4 0 .7.6 2.5 1.6 2.5.2 0 .3.1.3.3.2.2.1.4-.1.4"/><path id="Fill-224_00000163769276407299866880000004012555219882182048_" class="st13" d="M-1245.9-2398.8c-.1 0-.3-.1-.3-.2-.2-.5-.5-.8-.5-.8-.1-.1-.1-.3 0-.5.1-.1.3-.1.5 0 .1.1.4.4.6 1.1 0 .2-.1.3-.3.4z"/><path id="Fill-226_00000066476408433274459020000004815165781421196209_" class="st13" d="M-1250.3-2396.3h-.1c-.2-.1-.3-.3-.2-.4.2-.6.1-.8-.1-1.4-.3-.6-.7-1.5-1-3.2-.1-.2.1-.3.3-.4.2-.1.3.1.4.3.3 1.6.7 2.5.9 3 .3.7.5 1.1.2 1.9-.1.1-.3.2-.4.2"/><path id="Fill-228_00000005262851722165958260000003141123900457134783_" class="st13" d="M-1248.6-2396.2c-.2 0-.3-.1-.3-.3s.1-.3.3-.3c.7-.1 1.1-.3 1.2-.9.1-.2.3-.3.4-.2.2.1.3.3.2.4-.2.8-.9 1.3-1.8 1.3"/><path id="Fill-230_00000140718298698707737850000000770980889863527100_" class="st13" d="M-1243.2-2400.8c-.4 0-.8-.1-1.1-.3-.1-.1-.2-.3-.1-.5.1-.1.3-.2.5-.1.3.2.7.3 1 .2.4-.1.8-.4 1.1-.8.1-.1.3-.2.5-.1.1.1.2.3.1.5-.3.6-.9 1-1.4 1.1-.3-.1-.4 0-.6 0"/><path id="Fill-232_00000018931340425117307880000002526333898326630555_" class="st13" d="M-1232.7-2401.9c-.3-.1-.3-.2-.3-.4.1-.6.2-1.8.1-3 0-.2.1-.3.3-.4.2 0 .3.1.4.3.1 1.1.1 2.4-.1 3.2-.1.2-.3.3-.4.3"/><path id="Fill-234_00000001657588788967017950000014357561331948050594_" class="st13" d="M-1232.9-2400.4c-.1 0-.1 0-.1-.1 0 0-.3-.1-.9-.1-.2 0-.3-.1-.4-.3 0-.2.1-.3.3-.4.8-.1 1.3.1 1.3.1.1.1.2.3.1.5 0 .2-.2.3-.3.3"/><path id="Fill-236_00000017480988451767877410000015874510927948949164_" class="st13" d="M-1237.5-2399.1c.2-.3.1-.7-.2-.9-.3-.1-.7.1-.8.4-.2.3-.1.7.2.9.3.1.6-.1.8-.4"/><path id="Fill-238_00000077323994176739394040000003040973900080270253_" class="st13" d="M-1233.4-2398.6c.1-.3.1-.7-.2-.8-.3-.1-.5.1-.7.4-.1.3-.1.7.2.8.3.1.6-.1.7-.4"/><path id="Fill-240_00000128446432009732502100000016310286652162344345_" class="st13" d="M-1232.5-2403.5c-.1 0-.3-.1-.3-.3-.1-.2.1-.3.3-.4 1.5-.3 1.6-1.5 1.6-1.9 0-.2.2-.3.3-.3.2 0 .3.1.3.3 0 1-.6 2.2-2.2 2.6.1 0 .1 0 0 0"/><path id="Fill-242_00000084490262974366392910000008719142277579701133_" class="st13" d="M-1236.1-2393.5c-.9 0-1.8-.3-1.9-.4-.2-.1-.3-.3-.2-.4.1-.2.3-.3.4-.2.4.1 1.5.5 2.1.3.2-.1.3.1.4.2.1.2-.1.3-.2.4-.2.1-.4.1-.6.1"/><path id="Fill-244_00000031188680488898219510000011635484761148747939_" class="st13" d="M-1241.1-2387.1h-.1c-.2-.1-.3-.3-.1-.5.2-.5.5-1.3.7-1.9.1-.3.2-.6.3-.8.1-.2.3-.3.4-.2.2.1.3.3.2.4-.1.3-.1.5-.3.8-.2.7-.5 1.5-.7 2-.2 0-.3.2-.4.2"/><path id="Fill-246_00000137831110241573013520000007206382247839223225_" class="st13" d="M-1250.5-2397.1c-.1 0-.1 0 0 0-1.8-.2-2.8-.7-3.1-1.5-.3-.7.1-1.5 1.2-2.5 1-.9 2.1-1.4 3.2-1.8.4-.1.8-.3 1.1-.5l2.1-.9c.9-.3 1.8-.7 2.6-1.2.4-.2.9-.5 1.3-.7 2.2-1.3 4.6-2.6 7.4-1.9 1.4.3 6.1 1.7 6.4 4 .1 1.1-.7 2.1-2.5 3.1-.1.1-.3 0-.5-.1-.1-.1 0-.3.1-.5 1.1-.6 2.3-1.4 2.2-2.4-.2-1.4-3.1-2.7-5.9-3.4-2.5-.7-4.7.7-6.9 1.8-.5.3-.9.5-1.3.7-.9.5-1.8.9-2.7 1.2-.7.3-1.4.5-2 .9-.4.2-.8.3-1.2.5-1.1.5-2.2.9-3 1.7-.8.7-1.2 1.4-1 1.8.2.5 1.1.9 2.5 1.1.2 0 .3.2.3.4 0 .1-.2.2-.3.2"/><path id="Fill-248_00000056388920273974699000000010263877480777590705_" class="st13" d="M-1228.8-2404.5c-.1 0-.3-.1-.3-.2-.9-2.4-5.2-6.3-6.7-6.5-.2 0-.3-.2-.3-.4s.2-.3.4-.3c1.8.3 6.3 4.4 7.1 6.9.1.3 0 .4-.2.5"/><path id="Fill-250_00000147898955548769364570000014046721521631345318_" class="st13" d="M-1253.3-2398.6c-.1 0-.3-.1-.3-.2-.7-1.8-.1-3.6.4-5.5.2-.7.5-1.5.6-2.2.1-.2.2-.3.4-.3.2.1.3.2.3.4-.1.8-.4 1.6-.6 2.3-.5 1.8-1.1 3.6-.4 5.1.1.2 0 .3-.2.4h-.2z"/><path id="Fill-252_00000106145209104071823100000010182737081897018274_" class="st13" d="M-1252.3-2406c-.1 0-.2-.1-.3-.1-.1-.1-.1-.3.1-.5 8.4-7.2 15.3-5.8 17.2-5.1.2.1.3.3.2.4-.1.2-.3.3-.4.2-1.8-.6-8.4-2-16.5 5-.1.1-.3.1-.3.1"/><path id="Fill-254_00000068639138636395301680000014979885159898282401_" class="st13" d="M-1252.3-2406.2c-.2 0-.3-.1-.3-.3 0-1.7.7-4.9 2.3-6.4.7-.7 2-1.1 3.6-1.5.5-.1 1-.3 1.5-.5.5-.1.9-.3 1.3-.5 1.7-.7 3.4-1.5 6.3 1.1.1.1.4.3.7.5 1.3.9 2.4 1.8 2.6 2.4.1.2-.1.3-.3.4-.2.1-.3-.1-.4-.3-.1-.5-1.5-1.5-2.3-2.1-.3-.3-.6-.5-.8-.6-2.5-2.2-3.9-1.6-5.5-.9-.4.2-.9.4-1.3.5-.5.2-1.1.3-1.5.5-1.5.5-2.8.8-3.4 1.4-1.4 1.3-2 4.2-2 5.9-.2.2-.3.4-.5.4"/><path id="Fill-256_00000046297813931262089530000011600001997535842476_" class="st13" d="M-1235.6-2404.1c-.1 0-.3-.1-.3-.2-.1-.2 0-.3.2-.4.1 0 1.2-.5 1.2-1.6 0-.2.1-.3.3-.3.2 0 .3.1.3.3-.1 1.6-1.6 2.2-1.7 2.2z"/><path id="Fill-258_00000100357067382704682950000017105063987355476401_" class="st13" d="M-1240.1-2403.5c-.3 0-.5 0-.7-.1-.2-.1-.3-.2-.3-.4.1-.2.2-.3.4-.3 1.5.3 3-.8 3.3-1.5.1-.2.3-.3.4-.2.2.1.3.3.2.4-.3 1-1.8 2.1-3.3 2.1"/><path id="Fill-260_00000020359822248573174150000011010865506543888768_" class="st2" d="M-1042.9-2301.3c-3.2 0-7.1-1.9-8.3-2.5-.1-.1-.2-.3-.1-.5.1-.1.3-.2.5-.1 2.4 1.3 5.9 2.6 8.2 2.4.2 0 .3.1.3.3s-.1.3-.3.3h-.3z"/><path id="Fill-262_00000017491185786665660150000006829911507680274564_" class="st2" d="M-1094.3-2288.5c.1 0 .1 0 .1-.1 2.8-1.4 5.6-5.1 6.3-6.3.1-.1.1-.3-.1-.5-.1-.1-.3-.1-.5.1-1.5 2.2-4 5-6.1 6.1-.1.1-.3.3-.1.5.2.1.3.2.4.2"/><path id="Fill-264_00000133507486139822059880000000118492176234232997_" class="st2" d="M-1100.5-2314.5c1.1 0 2.2-.1 3.1-.1.2 0 .3-.2.3-.4s-.2-.3-.4-.3c-2.6.3-7.5 0-7.6 0-.2 0-.3.1-.3.3s.1.3.3.3c.2 0 2.4.2 4.6.2"/><path id="Fill-266_00000139295866452174925620000002457734642313042082_" class="st2" d="M-1103.8-2301.8c3.2 0 7.1-1.9 8.3-2.5.1-.1.2-.3.1-.5-.1-.1-.3-.2-.5-.1-2.4 1.3-5.9 2.6-8.2 2.4-.2 0-.3.1-.3.3s.1.3.3.3h.3z"/></g></svg>