<?xml version="1.0" encoding="UTF-8"?> <svg xmlns="http://www.w3.org/2000/svg" version="1.1" x="0" y="0" viewBox="0 0 150 60" xml:space="preserve"> <path fill="#ffffff" d="M32.5 13.9h16.9V59c0 .7.6 1.3 1.3 1.3h9.5c.7 0 1.3-.5 1.3-1.2V43.2h12.9c4.5 0 9-.8 13-3.8 4.9-3.9 7.7-9.8 7.5-16.1.2-6-2.4-11.7-6.9-15.6-4-3.4-8.8-4.3-13.5-4.3h-71c-.7 0-1.3.6-1.3 1.3v8c0 .7.6 1.3 1.3 1.3h17v45.1c0 .7.6 1.3 1.3 1.3h9.5c.7 0 1.3-.6 1.3-1.3-.1 0-.1-45.2-.1-45.2zm46.6 17.2c-2 1.1-4.2 1.6-6.4 1.5H61.5V13.9h11.4c2.2-.1 4.5.5 6.4 1.7 2.2 1.4 3.6 3.9 3.6 7.7s-1.5 6.4-3.8 7.8z" transform="translate(-2.18 -1.85)"></path> <path fill="#fc9001" d="M101.5 3.3h30.1c.6 0 1.1.3 1.5.8l18.7 26.8c.4.6.4 1.4 0 2.1l-18.7 26.8c-.3.5-.9.8-1.5.8h-30.1c-.6 0-1.1-.5-1.1-1.1v-8.6c0-.6.5-1.1 1.1-1.1H127l12.5-17.9-12.5-18h-25.5c-.6 0-1.1-.5-1.1-1.1V4.3c0-.6.5-1 1.1-1" transform="translate(-2.18 -1.85)"></path> <path fill="#fc9001" d="M101.5 3.3h30.1c.6 0 1.1.3 1.5.8l18.7 26.8c.4.6.4 1.4 0 2.1l-18.7 26.8c-.3.5-.9.8-1.5.8h-30.1c-.6 0-1.1-.5-1.1-1.1v-8.6c0-.6.5-1.1 1.1-1.1H127l12.5-17.9-12.5-18h-25.5c-.6 0-1.1-.5-1.1-1.1V4.3c0-.6.5-1 1.1-1" transform="translate(-2.18 -1.85)"></path> </svg> 