<svg xmlns="http://www.w3.org/2000/svg" viewBox="0 0 160 140" enable-background="new 0 0 160 140"><style>.st3{fill-rule:evenodd;clip-rule:evenodd;fill:#fff}.st564,.st565,.st566,.st567,.st6,.st9{fill-rule:evenodd;clip-rule:evenodd;fill:#fc9001}.st564,.st565,.st566,.st567,.st9{fill:#00284c}.st564,.st565,.st566,.st567{fill:#e4e89e}.st565,.st566,.st567{fill:#bddb52}.st566,.st567{fill:#463b39}.st567{fill:#ffde6e}</style><g transform="translate(17 16)" id="Layer_3"><g id="Group-3" transform="translate(0 23.29)"><defs><filter id="Adobe_OpacityMaskFilter_268_" filterUnits="userSpaceOnUse" x=".4" y="-12.9" width="89.5" height="125.5"><feColorMatrix values="1 0 0 0 0 0 1 0 0 0 0 0 1 0 0 0 0 0 1 0"/></filter></defs><mask maskUnits="userSpaceOnUse" x=".4" y="-12.9" width="89.5" height="125.5" id="mask-4_2_"><g filter="url(#Adobe_OpacityMaskFilter_268_)"><path id="path-3_2_" class="st3" d="M.4-12.9H90v125.4H.4z"/></g></mask><path id="Fill-1_2_" d="M62.1 64l-2.3-2.3c-.7-.6-1.5-1.4-1.4-1.5 0 0 .1 0 .3.1.4.2 1.4.7 2.1 1 1.1.5 1.9.7 1.9.7l-.6 2zm27.2-.3c-.4-2.4-.8-4.4-1.3-7.1-.5-3-1.1-7-1.7-8.8-1.1-3.4-6.6-4.2-10.1-5.3-3.3-1-1.8-4.7.8-5.3 3.4-.7 6.4-2 7.1-4.3 1-3.5-2.8-3.5-5.5-3.5-2.4.1-24.6-23.7-31-26.5-.6-.3-1.8.5-2.1.7-3.1 1.7-.6-2.3 2.2-4.5 2.8-2.3 3.1-3.9 3.7-6.6.3-1.3.6-3.2 0-4.1-.6-.9-1.2-1.3-1.7-1.5-.9-.2-1.9.6-3.1 2.4-2.1 2.7-9 6.8-12 10.8-1.9 2.5-6.2 11.5-9.3 17.7-1.2 2.4-1.4 3.5-2 4.6-.3.6-1.2 1.6-1.4 1.9C18 28.8 7.4 33.7.5 36.6l12.1 27c11.4-7 20.6-12.2 21.6-12.4 2.9-.8 6.9-1.9 6.9-1.9l7.6 1.8s.8 1.9 1 2.5c.3 1.3-.3 1.7.2 3.4.5 1.6 1.5 3.3 2.6 5 1.4 2.1 4.4 5 6.1 6.5 1.1 1 1.8 1.7 1.6 2.8-.8 3.8.2 10.9-.6 15.9-1.5 8.7-7.4 21.4-9.3 25.2h26.2c.7-2.9 2.8-11 3.3-13 .2-1 1-3.8 2.3-7.3 2.1-5.4 5.4-12.7 6.7-15.8 1.6-3.9 1.4-7.6.5-12.6z" mask="url(#mask-4_2_)" fill-rule="evenodd" clip-rule="evenodd" fill="#ffddcd"/></g><path id="Fill-4" d="M58-2.5l28.8 6.9c2 .5 3.3 2.4 2.8 4.4l-16 66.9s-1.1-2.3-2.2-5.4c-1.1-2.9-2.3-6.4-3.5-8.3-2.4-3.7-4.9-2.4-5.8-.9-1.5 2.4-.4 6.8.7 11.4.6 2.6 1.1 5.5 1.1 5.5l-23.7-5.7c-2-.5-3.3-2.4-2.8-4.4l10.9-45.7s2.9-2.5 3.8-6.9c.6-3-1-4.9-1-4.9L53.5.2C54-1.8 56-3 58-2.5" fill-rule="evenodd" clip-rule="evenodd" fill="#7d7d7d"/><path id="Fill-6" d="M58.1-1.2l8.5 2s-.7 2.2.2 2.4c1.8.4 6.7 1.8 9.2 2 .4 0 1.1-2 1.1-2l9.1 2.1c2 .5 3.2 2.3 2.7 4.2L73.3 74.1c-.2 1-1.7-4.4-3.6-9.1-1.6-3.9-3.3-6.6-5.9-5.6-2.7 1-2.9 3.7-2 8.1.7 3.6 2 8.4 2 8.4l-22.9-5.2c-2-.5-3.2-2.3-2.7-4.2l11-45.3s2.1-2.2 2.9-6.3c.5-2.6-.4-4-.4-4L54 1.4c.2-1.9 2.2-3 4.1-2.6" fill-rule="evenodd" clip-rule="evenodd" fill="#fffdf6"/><path id="Fill-8" d="M51.5 55.4l14.3 3.3c1.2.3 1.9 1.4 1.6 2.5 0 0-1.9-2.9-4.2-1.6-1.9 1-2.1 3.1-2.1 3.1l-10.8-2.5c-1.2-.3-1.9-1.4-1.6-2.5l.2-.7c.3-1.2 1.5-1.9 2.6-1.6" fill-rule="evenodd" clip-rule="evenodd" fill="#7ec67a"/><path id="Fill-10" class="st9" d="M56.5 42l-4.5-.9c-1.3-.3-2.2-1.4-1.9-2.6l4-18.1c.3-1.2 1.5-1.9 2.8-1.6l20.7 4.4c1.3.3 2.2 1.4 1.9 2.6L56.5 42z"/><path id="Fill-12" class="st6" d="M61.4 22.1l40.4 8.9c.5.1.8.6.7 1l-5 22c-.1.5-.6.8-1 .7l-40.4-8.9c-.5-.1-.8-.6-.7-1l4.9-21.9c.1-.7.6-.9 1.1-.8"/><path id="Fill-14" class="st564" d="M63.7 24.7l9.3 2c.4.1.6.4.6.8-.1.4-.5.6-.9.5l-9.3-2c-.4-.1-.6-.4-.6-.8.1-.3.5-.6.9-.5"/><path id="Fill-16" class="st564" d="M62.9 28l14.9 3.4c.3.1.6.4.5.8-.1.3-.4.6-.7.5l-14.9-3.4c-.3-.1-.6-.4-.5-.8 0-.3.4-.5.7-.5"/><path id="Fill-18" class="st564" d="M56.1 41.4l.7-2.7 42.3 8.7-.7 3.3-40.7-8.8z"/><path id="Fill-20" class="st565" d="M81 9.8l1.8-1.7 2.2.5-.4 2.1h-1z"/><path id="Fill-22" class="st566" d="M63.8 77.9s-.1 0 0 0l-24-5.6c-1.1-.3-2-.9-2.6-1.8-.6-.9-.8-2-.5-3l11-45.2c0-.2.2-.3.4-.3s.3.2.3.4l-11 45.2c-.2.8-.1 1.7.4 2.5.5.7 1.2 1.3 2.1 1.5l23.9 5.6c.2 0 .3.2.3.4s-.1.3-.3.3"/><path id="Fill-24" class="st566" d="M73.2 75.9c-.3-.1-.4-.2-.3-.4l6-24.6c0-.2.2-.3.4-.3s.3.2.3.4l-6 24.6c0 .2-.2.3-.4.3"/><path id="Fill-26" class="st566" d="M84.9 27.4c-.1 0-.1 0 0 0-.3-.1-.4-.2-.3-.4L89 9c.2-.8 0-1.7-.4-2.4-.6-.9-1.4-1.4-2.3-1.6l-29-6.8c-.9-.2-1.8-.1-2.6.4-.8.4-1.3 1.2-1.5 2l-2.4 10c0 .2-.2.3-.4.3s-.3-.2-.3-.4l2.4-10c.2-1 .9-1.9 1.8-2.4s2-.7 3.1-.5l29.1 6.8c1.1.2 2 .9 2.6 1.8.6.9.8 2 .5 3l-4.4 18c0 .1-.2.2-.3.2"/><path id="Fill-28" class="st566" d="M63.1 76.6H63l-22.6-5.3c-1-.2-1.9-.9-2.5-1.7-.6-.9-.7-1.9-.5-2.9l10.9-45c0-.2.2-.3.4-.3s.3.2.3.4l-10.9 45c-.2.8 0 1.7.4 2.4.5.7 1.2 1.2 2.1 1.4l22.6 5.3h.1c.2.1.3.3.2.5-.1.1-.2.2-.4.2"/><path id="Fill-30" class="st566" d="M72.9 74.6l-.4-.1-.4-.1 6-24.2c0-.2.2-.3.4-.3s.3.2.3.4l-5.9 24.3z"/><path id="Fill-32" class="st566" d="M84.5 27.4c-.3-.1-.4-.2-.3-.4l4-17c.4-1.7-.7-3.4-2.4-3.8l-8.7-2.1C76.4 6.1 76 6 75.8 6c-1.6-.2-4.2-.8-6.3-1.4-1.2-.3-2.1-.5-2.8-.7-.2 0-.4-.2-.6-.4-.2-.5-.1-1.5.1-2l-8-1.9c-.8-.2-1.7-.1-2.4.4-.8.3-1.3 1-1.5 1.8l-2.2 9.3c0 .2-.2.3-.4.3s-.3-.2-.3-.4l2.2-9.3c.2-1 .9-1.8 1.8-2.4.9-.5 1.9-.7 3-.4l8.4 2c.1 0 .2.1.2.2s.1.2 0 .3c-.2.6-.4 1.6-.2 1.9l.1.1c.6.1 1.6.4 2.8.7 2 .5 4.6 1.2 6.1 1.4.2-.2.5-1 .8-1.7.1-.2.2-.3.4-.2l9 2.1c2.1.5 3.4 2.6 2.9 4.6l-4 17c-.1 0-.2.1-.4.1"/><path id="Fill-34" class="st3" d="M55.4 59.3c.1 0 .1 0 0 0h.4c.1 0 .2 0 .3-.1.2-.1.2-.2.2-.3 0-.2-.2-.3-.4-.4-.1 0-.2 0-.3.2-.1.2-.1.4-.2.6m-.4 1.3c-.2 0-.3-.2-.2-.3 0-.2.1-.4.1-.6 0-.1 0-.3.1-.4.1-.3.1-.6.2-.8.1-.4.4-.6.8-.5.4 0 .7.4.8.8.1.3-.1.7-.4.9-.1.1-.3.1-.5.2h-.1c-.1 0-.3.1-.5 0 0 .2-.1.4-.1.6 0 0-.1.1-.2.1"/><path id="Fill-36" class="st3" d="M58 59.1c-.1 0-.4.1-.6.3 0 .1-.1.2-.1.2 0 .1.1.2.2.3H57.8c0-.1.1-.2.1-.3 0-.1.1-.2.1-.3v-.2m.5 1.5c-.3 0-.4-.1-.5-.3-.2.1-.4.1-.6 0-.3-.1-.5-.3-.6-.6-.1-.2 0-.4.2-.7.2-.3.6-.5 1-.5.2 0 .3 0 .4.1.2.2.2.4.2.5 0 .1-.1.3-.1.4 0 .1-.1.3-.1.4h.1c.2 0 .3.1.2.3.1.3-.1.4-.2.4"/><path id="Fill-38" class="st3" d="M58.3 61.3c-.1 0-.2-.1-.2-.2s.1-.3.2-.3c.3 0 .5-.2.7-.5-.2-.2-.3-.6-.4-1.4 0-.1.1-.3.2-.3s.2.1.2.2c.1.7.2.9.2 1l.2-.2c.1-.1.2-.3.2-.4 0 0 0-.1.1-.1.1-.1.2-.2.3-.1.1.1.1.2.1.4l-.3.6c0 .1-.1.2-.1.2-.3.4-.7 1.1-1.4 1.1z"/><path id="Fill-40" class="st567" d="M7 32c0-3.3 2.7-6 6-6s6 2.7 6 6-2.7 6-6 6-6-2.7-6-6"/><path id="Fill-42" class="st566" d="M13.4 26.7c-3.1 0-5.7 2.5-5.7 5.6 0 3.1 2.6 5.6 5.7 5.6s5.7-2.5 5.7-5.6c0-3-2.5-5.6-5.7-5.6m0 12c-3.5 0-6.4-2.8-6.4-6.3s2.9-6.3 6.4-6.3c3.5 0 6.4 2.8 6.4 6.3 0 3.4-2.9 6.3-6.4 6.3"/><path id="Fill-44" class="st566" d="M13.1 27.4c-2.6 0-4.7 2.1-4.7 4.6 0 2.6 2.1 4.6 4.7 4.6s4.7-2.1 4.7-4.6c0-2.5-2.1-4.6-4.7-4.6m0 9.9c-3 0-5.4-2.4-5.4-5.3s2.4-5.3 5.4-5.3c3 0 5.4 2.4 5.4 5.3 0 3-2.4 5.3-5.4 5.3"/><path id="Fill-46" class="st3" d="M13.4 24.7c-4.2 0-7.7 3.3-7.7 7.3s3.4 7.3 7.7 7.3c4.2 0 7.7-3.3 7.7-7.3s-3.4-7.3-7.7-7.3m0 15.3C8.8 40 5 36.4 5 32s3.8-8 8.4-8c4.6 0 8.4 3.6 8.4 8s-3.7 8-8.4 8"/><path id="Fill-48" class="st565" d="M32.1-6s2.8-.3 4-1.5c2.5-2.3 4.3-5.1 4.3-5.1s1.8 2.7 4.4 5.1c1.1 1 4.4 1.3 4.4 1.3S51.7.7 48 4.5c-1.7 1.7-7.2 4.9-7.2 4.9S35 6.3 33.5 4.5C29.4-.5 32.1-6 32.1-6"/><g id="Group-52" transform="translate(29.566)"><defs><filter id="Adobe_OpacityMaskFilter_269_" filterUnits="userSpaceOnUse" x=".8" y="-13.1" width="19.8" height="22.9"><feColorMatrix values="1 0 0 0 0 0 1 0 0 0 0 0 1 0 0 0 0 0 1 0"/></filter></defs><mask maskUnits="userSpaceOnUse" x=".8" y="-13.1" width="19.8" height="22.9" id="mask-6_2_"><g filter="url(#Adobe_OpacityMaskFilter_269_)"><path id="path-5_2_" class="st3" d="M.8-13.1h19.7V9.8H.8z"/></g></mask><path id="Fill-50" d="M2.4-5.7C2-4.7.2-.1 3.8 4.2c1.3 1.6 6 4.2 7.1 4.8 1-.6 5.5-3.3 7-4.8 3.1-3.1 1.6-8.8 1.2-10-.8-.1-3.3-.5-4.3-1.4-2-1.8-3.5-3.8-4.1-4.7-.9.9-2.4 2.9-4.3 4.6-1.1 1.1-3.3 1.5-4 1.6m8.4 15.5h-.2c-.2-.1-5.9-3.2-7.5-5.1-4.2-5.1-1.4-10.9-1.4-11 .1-.1.2-.2.3-.2 0 0 2.7-.3 3.8-1.4 2.4-2.2 4.2-5 4.3-5.1.1-.1.2-.2.3-.2.1 0 .3.1.3.2 0 0 1.8 2.7 4.3 5 .8.7 3.3 1.1 4.2 1.2.2 0 .3.1.3.3.1.3 2.5 7.2-1.3 11.1-1.7 1.8-7.1 4.9-7.3 5 .1.2 0 .2-.1.2" mask="url(#mask-6_2_)" fill-rule="evenodd" clip-rule="evenodd" fill="#463b39"/></g><path id="Fill-53_2_" class="st3" d="M40 4.7c-.4 0-.7-.2-.9-.5L36.2.1c-.4-.5-.2-1.2.3-1.5.5-.3 1.2-.2 1.5.3l1.9 2.6L43.2-4c.3-.5 1-.7 1.6-.4.6.3.7 1 .4 1.5L41 4.2c-.2.3-.6.5-1 .5"/><path id="Fill-55_2_" class="st567" d="M14.4 8.1c1.2-2 3.9-2.6 6-1.4 2.1 1.3 2.7 3.9 1.5 6-1.2 2-3.9 2.6-6 1.4-2.1-1.3-2.8-4-1.5-6"/><path id="Fill-57_2_" class="st566" d="M15 8c-1.1 1.8-.5 4.3 1.4 5.4 1.9 1.2 4.3.6 5.5-1.2.6-.9.7-1.9.5-3-.3-1-.9-1.9-1.8-2.5-.9-.6-2-.7-3-.5-1.1.2-2 .9-2.6 1.8m3.5 6.7c-.9 0-1.7-.2-2.5-.7-2.2-1.4-2.9-4.2-1.6-6.4.7-1.1 1.7-1.8 2.9-2.1 1.2-.3 2.5-.1 3.6.6S22.7 7.8 23 9c.3 1.2.1 2.5-.5 3.5-.9 1.4-2.4 2.2-4 2.2"/><path id="Fill-59_2_" class="st566" d="M15.6 8.3c-.4.7-.6 1.6-.4 2.5.2.9.7 1.6 1.5 2.1s1.7.6 2.5.4c.9-.2 1.6-.7 2-1.5.5-.7.6-1.6.4-2.5-.2-.9-.7-1.6-1.5-2.1s-1.7-.6-2.5-.4c-.8.3-1.5.8-2 1.5m2.9 5.8c-.8 0-1.5-.2-2.1-.6-.9-.6-1.6-1.4-1.8-2.5-.3-1-.1-2.1.5-3 .6-.9 1.4-1.5 2.5-1.8 1-.2 2.1-.1 3 .5.9.6 1.6 1.5 1.8 2.5.3 1 .1 2.1-.5 3s-1.4 1.5-2.5 1.8c-.3 0-.6.1-.9.1"/><path id="Fill-61_2_" class="st3" d="M13.9 7.2c-1.5 2.5-.7 5.7 1.8 7.3 1.2.8 2.7 1 4 .7 1.4-.3 2.5-1.1 3.3-2.3.7-1.2 1-2.6.6-4-.3-1.4-1.2-2.5-2.4-3.3-2.5-1.6-5.8-.8-7.3 1.6m4.6 8.8c-1.1 0-2.2-.3-3.2-.9-2.9-1.8-3.8-5.5-2-8.3C15 4.1 18.7 3.2 21.6 5c1.4.9 2.4 2.2 2.7 3.7.4 1.6.1 3.2-.7 4.5-.8 1.4-2.2 2.3-3.7 2.7-.5.1-.9.1-1.4.1"/><path id="Fill-63_2_" class="st567" d="M102.6 73.1c-2.8-1.7-3.7-5.4-1.9-8.2 1.8-2.8 5.5-3.8 8.3-2.1 2.8 1.7 3.7 5.4 1.9 8.2-1.7 2.9-5.4 3.8-8.3 2.1"/><path id="Fill-65_2_" class="st566" d="M102.5 73.1c2.7 1.6 6.2.7 7.8-1.9 1.7-2.7.8-6.1-1.8-7.7-2.7-1.6-6.2-.7-7.8 1.9-1.7 2.7-.9 6.1 1.8 7.7m2.9 1.5c-1.1 0-2.2-.3-3.3-.9-3-1.8-3.9-5.7-2.1-8.7 1.9-3 5.8-4 8.8-2.2 3 1.8 3.9 5.7 2.1 8.7-1.2 2-3.4 3.1-5.5 3.1"/><path id="Fill-67_2_" class="st566" d="M105.9 63.3c-.4 0-.8 0-1.1.1-1.2.3-2.3 1.1-2.9 2.1-1.4 2.2-.7 5 1.5 6.4 2.2 1.3 5.1.6 6.4-1.6.7-1.1.9-2.3.6-3.5-.3-1.2-1-2.2-2.1-2.8-.7-.5-1.6-.7-2.4-.7m-.2 10c-.9 0-1.9-.2-2.7-.8-2.5-1.5-3.3-4.8-1.7-7.3.8-1.2 1.9-2.1 3.3-2.4 1.4-.3 2.8-.1 4.1.6 1.2.7 2.1 1.9 2.4 3.3.3 1.4.1 2.8-.7 4-1.1 1.6-2.9 2.6-4.7 2.6"/><path id="Fill-69_2_" class="st3" d="M106 60.7c-.6 0-1.2.1-1.8.2-1.9.5-3.5 1.7-4.6 3.5-1 1.7-1.4 3.8-.9 5.8.4 2 1.6 3.6 3.3 4.7 1.7 1 3.6 1.3 5.6.8 1.9-.5 3.5-1.7 4.6-3.5 2.1-3.6 1.1-8.3-2.4-10.4-1.2-.8-2.5-1.1-3.8-1.1m-.3 15.9c-1.4 0-2.9-.4-4.1-1.2-1.8-1.1-3.1-3-3.6-5.1-.5-2.2-.1-4.4 1-6.3 1.1-1.9 2.9-3.3 5-3.8s4.3-.2 6.1.9c3.8 2.4 4.9 7.5 2.6 11.4-1.1 1.9-2.9 3.3-5 3.8-.7.2-1.4.3-2 .3"/><path id="Fill-71_2_" class="st566" d="M23.5 45.3c-.3-.1-.4-.3-.3-.4.7-2.4 1.9-4.7 3.1-6.9.5-.8.9-1.7 1.3-2.5.5-.9.9-1.8 1.3-2.7 1.6-3.3 3.2-6.8 5.5-9.8 1.7-2.2 4-4 6.3-5.7.3-.2.6-.5.9-.7 1.5-1.1 3.2-2.5 4.5-4 .2-.2.3-.4.5-.7.4-.6.9-1.2 1.4-1.5.6-.3 1.3-.4 2-.2s1.3.8 1.6 1.4c.5 1.3.4 2.5.2 3.9-.4 2.6-1.3 4.5-2.9 6.2-.5.5-1 1-1.5 1.4-1 .8-2 1.7-2.5 2.7-1 1.9-2.2 4.8-2.2 7.1 0 .9.1 1.9.3 2.8.2 1.2.3 2.5.2 3.8 0 .2-.2.3-.4.3s-.3-.2-.3-.4c.1-1.2-.1-2.4-.2-3.6-.1-.9-.3-1.9-.3-2.9 0-2.5 1.3-5.4 2.3-7.4.6-1.2 1.6-2.1 2.6-3 .5-.5 1-.9 1.5-1.4 1.5-1.6 2.3-3.4 2.7-5.8.2-1.3.3-2.4-.1-3.5-.2-.5-.7-.9-1.2-1.1-.5-.2-1-.1-1.4.1-.5.3-.9.8-1.2 1.4-.2.2-.4.5-.5.7-1.4 1.6-3.1 3-4.6 4.1-.3.2-.6.5-.9.7-2.2 1.7-4.5 3.4-6.1 5.5-2.2 2.9-3.9 6.3-5.5 9.6-.4.9-.9 1.8-1.3 2.7-.4.8-.9 1.7-1.3 2.6-1.2 2.2-2.4 4.4-3.1 6.7-.1.4-.2.5-.4.5"/><path id="Fill-73_2_" class="st566" d="M44.4 28c-.1 0-.2-.1-.3-.2-.1-.2 0-.4.1-.5.4-.2.9-.4 1.3-.7.5-.2.9-.5 1.3-.7.2-.1.4 0 .5.1.1.2 0 .4-.1.5-.4.2-.9.4-1.3.7-.5.2-.9.5-1.3.7-.1.1-.2.1-.2.1"/><path id="Fill-75_2_" class="st566" d="M77.3 60.6c-.2 0-.3-.1-.4-.3 0-.2.1-.4.3-.4 1.9-.2 5.6-2 6.6-3.6.5-.7.5-1.6.2-2.3-.3-.7-.9-1.1-1.6-1.2-.7-.1-2.6-.1-3.4-.1-.2 0-.4-.1-.4-.3 0-.2.1-.4.3-.4.7 0 2.7 0 3.5.1.9.1 1.7.7 2.1 1.6.4 1 .3 2.1-.2 3-1 1.8-4.8 3.7-7 3.9z"/><path id="Fill-77_2_" class="st566" d="M81.1 118.5c-.3-.1-.4-.2-.3-.4.4-1.7 2.1-5.6 3.8-9.7 1.9-4.4 3.9-9 4.6-11.6.7-2.5.4-4.7 0-7.3l-.1-.6c-.3-1.9-.6-3.9-.9-5.8-.2-1.4-.5-2.8-.7-4.3-.1-.5-.1-1.1-.2-1.6-.4-2.9-.8-6.1-2.8-8.1-.9-.9-3.7-1.6-5.9-2.2-1.1-.3-2.1-.6-2.8-.8-.2-.1-.3-.3-.2-.5s.3-.3.5-.2c.6.2 1.6.5 2.7.8 2.4.7 5.1 1.4 6.2 2.4 2.3 2.1 2.7 5.5 3.1 8.5.1.6.1 1.1.2 1.6.2 1.4.5 2.9.7 4.3.3 1.9.7 3.9.9 5.8l.1.6c.4 2.6.7 4.9-.1 7.6-.7 2.7-2.7 7.3-4.7 11.7-1.8 4.1-3.4 7.9-3.8 9.6 0 .1-.1.2-.3.2"/><path id="Fill-79_2_" class="st566" d="M63.1 85.3c-1.6-.2-2.9-.9-4.3-1.7l-.3-.1c-1.7-.9-3.2-2.1-4.6-3.3-.3-.2-.6-.5-.9-.7-.2-.2-.4-.3-.6-.5-1.6-1.2-3-2.3-3.7-4.5-.1-.2 0-.4.2-.5.2-.1.4.1.4.2.6 2 1.8 2.9 3.4 4.1.2.2.4.3.6.5.3.2.6.5.9.7 1.4 1.1 2.9 2.3 4.5 3.2l.3.2c1.4.8 2.5 1.4 4 1.6.2 0 .3.2.3.4.2.2 0 .4-.2.4"/><path id="Fill-81_2_" class="st566" d="M62.5 87.2c-.1 0-.2 0-.3-.1-1-1.3-2.5-2.5-4-3.7-.7-.5-1.3-1-1.9-1.5-.1-.1-.2-.4 0-.5.1-.1.4-.2.5 0 .6.5 1.2 1 1.9 1.5 1.5 1.2 3.1 2.4 4.2 3.8.1.2.1.4-.1.5h-.3"/><path id="Fill-83_2_" class="st566" d="M60.4 93.9c-.1 0-.2 0-.2-.1-3.1-2.6-6.9-6.2-9.6-10.7-1.2-2.1-1.6-4-1-5.6.1-.2.3-.3.5-.2.2.1.3.3.2.4-.5 1.4-.2 3.1.9 5 2.6 4.5 6.4 8 9.4 10.5.1.1.2.3 0 .5 0 .2-.1.2-.2.2"/><path id="Fill-85_2_" class="st566" d="M50 135.8h.8l.1-.2c3.4-7.6 9.7-21.8 9.2-30.1 0-.2-.2-.3-.4-.3s-.3.2-.3.4c.5 8.1-5.8 22.2-9.1 29.7l-.3.5z"/><path id="Fill-87_2_" class="st566" d="M77 135.8c.8-2.6 1.5-5.4 2.1-8.1.7-3.2 1.5-6.4 2.5-9.4.1-.2 0-.4-.2-.5-.2-.1-.4 0-.4.2-1 3-1.8 6.3-2.5 9.4-.7 2.8-1.3 5.7-2.2 8.3h.7z"/><g id="Group-91" transform="translate(0 57.227)"><defs><filter id="Adobe_OpacityMaskFilter_270_" filterUnits="userSpaceOnUse" x=".3" y="-13.2" width="24" height="16"><feColorMatrix values="1 0 0 0 0 0 1 0 0 0 0 0 1 0 0 0 0 0 1 0"/></filter></defs><mask maskUnits="userSpaceOnUse" x=".3" y="-13.2" width="24" height="16" id="mask-8_1_"><g filter="url(#Adobe_OpacityMaskFilter_270_)"><path id="path-7_1_" class="st3" d="M.3-13.2h24.1v16H.3z"/></g></mask><path id="Fill-89_2_" d="M24.1-13.2c-.2-.1-.4 0-.5.2-2 4.9-13 10.9-23.3 15.2l.4.6C5.8.7 21.6-6.3 24.3-12.7c.1-.2 0-.4-.2-.5" mask="url(#mask-8_1_)" fill-rule="evenodd" clip-rule="evenodd" fill="#463b39"/></g><path id="Fill-92" class="st566" d="M41.3 72.9c-.1-.2-.3-.3-.4-.2-1 .3-2 .5-3 .7-1.8.4-3.6.8-5.3 1.5-4.4 1.9-.1-.6-20.1 11.7l.2.7C32.6 75 28.5 77.4 32.8 75.5c1.7-.7 3.5-1.1 5.2-1.5 1-.2 2-.5 3.1-.7.1-.1.2-.3.2-.4"/><path id="Fill-94" class="st566" d="M60.9 22.1c-.2 0-.4.2-.5.4l-4.9 21.9c0 .1 0 .3.1.4.1.1.2.2.3.2l40.4 8.9c.3.1.5-.1.6-.4l4.9-21.9c0-.1 0-.3-.1-.4-.1-.1-.2-.2-.3-.2L61 22.1h-.1m35.5 32.5h-.3l-40.4-8.9c-.3-.1-.6-.3-.8-.5-.2-.3-.2-.6-.2-.9l4.9-21.9c.1-.3.3-.6.5-.8.3-.2.6-.2.9-.2l40.4 8.9c.3.1.6.3.8.5.2.3.2.6.2.9l-4.9 21.9c-.1.7-.6 1-1.1 1"/><path id="Fill-96" class="st566" d="M98.1 47.3c-.1 0-.1 0 0 0l-41.7-8.6c-.2 0-.3-.2-.3-.4s.2-.3.4-.3l41.6 8.6c.2 0 .3.2.3.4s-.2.3-.3.3"/><path id="Fill-98" class="st566" d="M98.1 51.3c-.1 0-.1 0 0 0L56.4 42c-.2 0-.3-.2-.3-.4s.2-.3.4-.3l41.6 9.3c.2 0 .3.2.3.4s-.2.3-.3.3"/><path id="Fill-100" class="st566" d="M63.2 25.4c-.1 0-.1 0-.2.1l-.2.2v.3c.2 0 .2 0 .3.1l9.3 2c.2 0 .4-.1.4-.3 0-.2-.1-.4-.3-.4l-9.3-2c.1 0 0 0 0 0m9.3 3.3h-.2l-9.3-2c-.3-.1-.5-.2-.7-.4-.2-.2-.2-.5-.1-.8.1-.3.2-.5.5-.6.2-.1.5-.2.8-.1l9.3 2c.6.1.9.7.8 1.2-.2.4-.6.7-1.1.7"/><path id="Fill-102" class="st566" d="M63.1 28.1c-.1 0-.2.1-.3.2v.2c0 .1.1.1.2.1L77.9 32h.2c.1 0 .1-.1.1-.2 0-.2-.1-.3-.2-.3l-14.9-3.4c.1 0 0 0 0 0M78 32.7h-.2L63 29.4c-.3-.1-.5-.2-.6-.4-.1-.2-.2-.5-.1-.7.1-.5.6-.9 1.2-.7l14.8 3.3c.5.1.9.6.7 1.2-.1.3-.2.5-.4.6-.3-.1-.5 0-.6 0"/><path id="Fill-104" class="st566" d="M60.7 63.3c-.1 0-.1 0 0 0L50 60.8c-.7-.2-1.2-.5-1.6-1.1-.4-.6-.5-1.2-.3-1.9l.2-.7c.3-1.3 1.7-2.1 3-1.8l14.3 3.3c1.1.2 1.8 1.1 1.9 2.2 0 .2-.1.4-.3.4-.2 0-.4-.1-.4-.3-.1-.8-.6-1.4-1.4-1.6L51.1 56c-1-.2-2 .4-2.2 1.3l-.1.7c-.1.5 0 .9.2 1.3.3.4.7.7 1.1.8l10.6 2.4c.2 0 .3.2.3.4 0 .3-.2.4-.3.4"/><path id="Fill-106" class="st566" d="M59.8 105.9c-.2 0-.4-.2-.4-.4V102c0-2.7 0-5.3.6-8 .4-1.6.9-3.1 1.4-4.6.9-2.9 1.9-5.8 1.9-9 0-3.1-.8-6.3-1.7-9.9l-.1-.4c-.6-2.5-1.2-4.7-.8-7.4.2-1.6 1.3-2.9 2.7-3.4 1.1-.4 2.3 0 3.2.9 2 2 2.8 4.2 3.7 6.7l.1.3c.8 2.3 3.3 8.9 4.7 11.4.9 1.5 1.6 2.3 2.4 3.2 1 1.1 1.9 2.1 2.7 4.5.1.2 0 .4-.2.4-.2.1-.4 0-.5-.2-.7-2.2-1.6-3.1-2.5-4.2-.7-.8-1.6-1.7-2.5-3.3-1.4-2.5-3.9-9.1-4.8-11.5l-.1-.3c-.9-2.5-1.6-4.5-3.5-6.4-.8-.8-1.6-1-2.5-.7-1.1.3-2 1.5-2.2 2.8-.4 2.5.1 4.7.8 7.1l.1.5c.9 3.6 1.6 6.9 1.7 10.1 0 3.2-1 6.2-1.9 9.2-.5 1.5-1 3-1.3 4.5-.6 2.6-.6 5.2-.6 7.8v3.5c0 .1-.2.3-.4.3"/><path id="Fill-108" class="st566" d="M77.9 82.6c-.2 0-.3-.2-.3-.4 0-1.1.2-2.6.4-4 .1-1.2.3-2.4.3-3.3 0-.2.2-.3.3-.3.2 0 .3.2.3.4-.1.9-.2 2.1-.3 3.4-.2 1.4-.3 2.9-.4 3.9 0 .1-.1.3-.3.3"/><path id="Fill-110" class="st566" d="M78.2 75.3c-1.4 0-3.2-.8-4.4-1.4-.2-.1-.2-.3-.2-.5.1-.2.3-.2.5-.1.7.4 3 1.5 4.5 1.3.2 0 .4.1.4.3 0 .2-.1.4-.3.4h-.5"/><path id="Fill-112" class="st566" d="M55.9 1.8h.4c-.1 0-.5-.1-.4 0-.1-.1-.1 0 0 0zm0 1.6h-.1c-.2-.1-.4-.3-.3-.5 0-.1.1-.3.1-.4 0-.1.1-.2.1-.3l-.1-.1c-.1-.2-.1-.4.1-.5h.1c.1-.1.2-.1.3-.2.2-.1.4 0 .5.1.2.2.2.4.1.5 0 .1 0 .1-.1.2v.1c0 .1-.1.3-.1.4 0 .1-.1.3-.1.4-.1.2-.3.3-.5.3z"/><path id="Fill-114" class="st566" d="M57.6 3.4c-.1 0-.2 0-.2-.1h-.1c-.2 0-.4-.1-.5-.3-.1-.3.1-.5.3-.6l.1-.1c-.2-.2-.2-.4-.1-.6.1-.3.5-.4.7-.3.2.1.3.3.3.6s-.2.5-.3.7c.1 0 .2.2.2.4-.1.2-.2.3-.4.3"/><path id="Fill-116" class="st566" d="M60.2 2.8c-.1.2-.2.4-.1.5.1-.1.1-.3.1-.5M60 4.1c-.2 0-.3-.1-.4-.2-.3-.5-.1-1.1.1-1.4.1-.2.3-.3.5-.4.2 0 .3.1.4.2.3.4.2 1.2-.2 1.5 0 .1-.2.3-.4.3"/><path id="Fill-118" class="st566" d="M60.9 3.5s-.1 0 0 0c-.1.2-.1.3-.1.5 0-.1.1-.4.1-.5m-.2 1.2c-.1 0-.1 0 0 0-.2 0-.3-.1-.4-.2-.3-.5-.2-1.1.1-1.4.1-.2.3-.3.5-.4.2 0 .3.1.4.2.3.4.2 1.2-.2 1.5-.1.2-.2.3-.4.3"/><path id="Fill-120" class="st566" d="M58.6 2.6l.4.1c.1-.2-.1-.4-.3-.5-.2-.1-.4.1-.5.3l.4.1zm0 0l-.1.3c.2.1.4 0 .5-.2l-.4-.1zm0 .4h-.1c-.3-.1-.4-.3-.3-.6.1-.3.3-.4.6-.3.1 0 .3.2.3.3v.3c-.1.2-.3.3-.5.3z"/><path id="Fill-122" class="st566" d="M58.5 3.6h-.1c-.1 0-.2-.1-.3-.2-.1-.1-.1-.2 0-.4s.3-.4.6-.3c.2.1.4.3.3.5 0 .1-.1.2-.2.3-.1.1-.2.1-.3.1z"/><path id="Fill-124" class="st566" d="M81.5 8.1h-.1c-.1 0-.1.1-.1.1L81 9.4c0 .1 0 .2.2.3l3.3.9h.2c.1 0 .1-.1.1-.1l.2-1.2c0-.1 0-.2-.2-.3l-3.3-.9m2.9 3.3h-.2l-3.2-1c-.5-.1-.8-.7-.6-1.2l.3-1.2c.1-.2.2-.5.4-.6.2-.1.5-.2.7-.1L85 8.4c.5.1.8.7.6 1.2l-.3 1.2c-.1.2-.2.5-.4.6-.1-.1-.3 0-.5 0"/><path id="Fill-126" class="st566" d="M81.3 10.1c-.1 0-.2 0-.2-.1-.1-.1-.1-.3 0-.5l1.4-1.4c.1-.1.3-.1.4 0 .1.1.1.3 0 .5L81.5 10c-.1 0-.2.1-.2.1"/><path id="Fill-128" class="st566" d="M55.6 42l-4-.8c-.8-.2-1.5-.6-1.9-1.2-.4-.5-.5-1.2-.3-1.8L53.5 20c.3-1.3 1.8-2.2 3.3-1.9L78 22.5c.8.2 1.5.6 1.9 1.2.4.5.5 1.2.3 1.8 0 .2-.2.3-.4.3s-.3-.2-.3-.4c.1-.4 0-.9-.2-1.2-.3-.5-.8-.8-1.4-.9l-21.1-4.4c-1.2-.2-2.3.4-2.5 1.3l-4.1 18.2c-.1.4 0 .9.2 1.2.3.5.8.8 1.4.9l3.9.8c.2 0 .3.2.3.4s-.2.3-.4.3"/><path id="Fill-130" d="M101.8 29.4c0-5.5 4.7-10 10.4-10 5.8 0 10.4 4.5 10.4 10s-4.7 10-10.4 10c-5.8-.1-10.4-4.5-10.4-10" fill-rule="evenodd" clip-rule="evenodd" fill="#ea6f68"/><path id="Fill-132" class="st566" d="M112.5 19.4c-5.5 0-10 4.5-10 9.9s4.5 9.9 10 9.9 10-4.5 10-9.9-4.4-9.9-10-9.9m0 20.6c-5.9 0-10.8-4.8-10.8-10.6 0-5.9 4.8-10.6 10.8-10.6 5.9 0 10.8 4.8 10.8 10.6S118.5 40 112.5 40"/><path id="Fill-134" class="st3" d="M108.1 27.4c-.5 0-.9.4-.9.9v6c0 .5.4.9.9.9h8.8c.5 0 .9-.4.9-.9v-6c0-.5-.4-.9-.9-.9h-8.8zm8.8 8.6h-8.8c-.9 0-1.6-.7-1.6-1.6v-6c0-.9.7-1.6 1.6-1.6h8.8c.9 0 1.6.7 1.6 1.6v6c.1.9-.6 1.6-1.6 1.6z"/><path id="Fill-136" class="st3" d="M109.5 26.7c-.2 0-.4-.2-.4-.3V25c0-.9.8-1.6 1.7-1.6h3.4c.9 0 1.7.7 1.7 1.6v1.3c0 .2-.2.3-.4.3s-.4-.2-.4-.3V25c0-.5-.4-.9-1-.9h-3.4c-.5 0-1 .4-1 .9v1.4c.2.1 0 .3-.2.3"/><path id="Fill-138" class="st3" d="M111.8 33.3h1.5c-.3-1.3-.1-1.4 0-1.5.3-.2.5-.5.5-.7 0-.5-.6-1-1.3-1-.7 0-1.3.4-1.3 1 0 .3.2.6.5.8.2 0 .4.1.1 1.4m2 .7l-2.4-.1c-.1 0-.2-.1-.3-.1-.1-.1-.1-.2-.1-.3.1-.4.2-1 .2-1.2-.4-.3-.7-.8-.7-1.3 0-.9.9-1.7 2-1.7s2 .8 2 1.7c0 .5-.2.9-.7 1.2 0 .2.1.8.2 1.3 0 .1 0 .2-.1.3.1.2 0 .2-.1.2"/><path id="Fill-140" class="st3" d="M112.2 15.4c-7.9 0-14.4 6.3-14.4 13.9 0 7.7 6.5 13.9 14.4 13.9s14.4-6.3 14.4-13.9c0-7.6-6.5-13.9-14.4-13.9m0 28.6c-8.3 0-15.1-6.6-15.1-14.6s6.8-14.6 15.1-14.6 15.1 6.6 15.1 14.6S120.5 44 112.2 44"/><path id="Fill-142" class="st9" d="M69.2 12.3c-.2.1-.4.1-.6 0l-1-.2.4-1.8 1 .2c.2 0 .4.1.5.3.2.2.2.5.2.8 0 .4-.2.6-.5.7m-3.7-2.6l1.5.3-1 4.3c0 .1 0 .1.1.2l.8.2c.1 0 .1 0 .1-.1l.3-1.5 1.1.3c.4.1.8.1 1.2-.1.5-.3.9-.8 1-1.4.1-.6 0-1.2-.3-1.6-.3-.4-.7-.6-1.1-.7l-6.3-1.5c-.1 0-.1 0-.1.1l-.2.8c0 .1 0 .1.1.2l1.5.4-1 4.3c0 .1 0 .1.1.2l.8.2c.1 0 .1 0 .1-.1.3-.2 1.3-4.5 1.3-4.5"/><path id="Fill-144" class="st6" d="M72.2 10.1l2.8.6c.1 0 .1.1.1.1l1.1 2.9v.2L73.9 16s-.1.1-.2 0l-2.7-.6c-.1 0-.1-.1-.1-.1l.2-.8c0-.1.1-.1.1-.1l2.3.5 1.5-1.4-.7-1.9-2.3-.5c-.1 0-.1-.1-.1-.1l.2-.8c0-.1.1-.2.1-.1"/><path id="Fill-146" class="st9" d="M76.5 10.9c0 .1.1.1 0 0 .1 0 .1 0 0 0m.1.1v.1c-.1.1-.1.1 0-.1h-.1v.1l.1-.2h.1c-.1 0-.1 0-.1.1m.1.1c0-.1 0-.2-.2-.3-.1 0-.2 0-.3.2 0 .1 0 .2.2.3.2-.1.3-.1.3-.2m.1 0c0 .2-.2.2-.3.2-.1 0-.2-.2-.2-.3 0-.2.2-.2.3-.2.1 0 .1.1.2.1v.2"/><path id="Fill-148" class="st6" d="M72.2 10.1l2.8.6c.1 0 .1.1.1.1l1.1 2.9v.2L73.9 16s-.1.1-.2 0l-2.7-.6c-.1 0-.1-.1-.1-.1l.2-.8c0-.1.1-.1.1-.1l2.3.5 1.5-1.4-.7-1.9-2.3-.5c-.1 0-.1-.1-.1-.1l.2-.8c0-.1.1-.2.1-.1"/></g></svg>