<svg xmlns="http://www.w3.org/2000/svg" viewBox="0 0 160 140" enable-background="new 0 0 160 140"><style>.st3,.st544{fill-rule:evenodd;clip-rule:evenodd;fill:#fff}.st544{fill:#ffedde}.st573,.st576,.st578,.st579,.st580,.st581{fill-rule:evenodd;clip-rule:evenodd;fill:#a7b3cc}.st576,.st578,.st579,.st580,.st581{fill:#002f57}.st578,.st579,.st580,.st581{fill:#a6daef}.st579,.st580,.st581{fill:#ffedda}.st580,.st581{fill:#c8af96}.st581{fill:#384154}</style><g id="Layer_4"><g id="Group-218" transform="translate(0 25)"><path id="Fill-1_3_" class="st573" d="M148 104.8c-.1 0-.2-.1-.2-.2-.7-6.3-1-13.3-.6-17.1.2-2.1.5-4.3.8-6.6.6-4.3 1.2-8.8 1.3-12.6.2-6-.3-15.5-1.8-22.3-.3-1.3-.6-2.8-.9-4.4-1.1-5.1-2.3-11-3.9-15l-.1-.3c-1.9-4.9-4.1-10.4-6.2-12.8-2.2-2.5-4.5-1.1-7.3.9l-.2.2c-2.8 2-4.3 3.1-4.7 4.8 0 .1-.1.1-.2.1s-.1-.1-.1-.2c.5-1.8 2-2.9 4.9-5l.2-.2c2.9-2.1 5.4-3.6 7.8-.9 2.2 2.5 4.4 8.1 6.3 12.9l.1.3c1.6 4 2.8 9.9 3.9 15 .3 1.6.6 3.1.9 4.4 1.5 6.8 2 16.4 1.8 22.4-.1 3.8-.7 8.3-1.3 12.6-.3 2.4-.6 4.6-.8 6.6-.4 3.7-.1 10.7.6 17-.2.3-.2.4-.3.4"/><path id="Fill-3_2_" class="st573" d="M146 104.8c-.1 0-.2-.1-.2-.2-.7-6.3-1-13.3-.6-17 .2-2.1.5-4.3.8-6.6.6-4.3 1.1-8.7 1.3-12.5.2-6-.3-15.5-1.8-22.3-.3-1.3-.6-2.8-.9-4.4-1-5.1-2.2-10.9-3.8-14.9v-.1c-1.8-4.8-3.9-10.2-6.1-12.7-.1-.1-.1-.2 0-.2.1-.1.2-.1.2 0 2.2 2.6 4.3 8 6.1 12.8v.1c1.5 4 2.7 9.9 3.8 15 .3 1.6.6 3.1.9 4.4 1.5 6.8 2 16.4 1.8 22.4-.1 3.8-.7 8.3-1.3 12.6-.3 2.3-.6 4.6-.8 6.6-.4 3.7-.1 10.7.6 17 .2-.1.1 0 0 0"/><path id="Fill-5_2_" class="st573" d="M139.5 103.8c-.1 0-.1-.1-.2-.2-.6-7.2-2.2-24-.8-35.6.5-4.2.9-10.5.8-14.6-.3-8.6-1.8-17.2-4.7-26.3 0-.1-.1-.3-.1-.4-.8-2.4-2.4-7.4-1.7-10.8 0-.1.1-.1.2-.1s.1.1.1.2c-.7 3.3.9 8.2 1.7 10.6 0 .1.1.3.1.4 2.9 9.1 4.4 17.7 4.7 26.4.1 4.1-.3 10.5-.8 14.6-1.3 11.6.2 28.4.8 35.6.1.1 0 .2-.1.2.1 0 0 0 0 0"/><path id="Fill-7_2_" class="st573" d="M137.5 72.8h-.1c-3.8-2.4-3.8-3.5-3.7-5.8v-1.1c0-6.7-.4-19.9-1.4-27.2l-.1-.9c-.8-5.5-.9-6.3 1.7-8 .1-.1.2 0 .2 0 .1.1 0 .2-.1.2-2.4 1.5-2.3 2.2-1.5 7.6l.1.9c1 7.3 1.4 20.5 1.4 27.2v1.1c-.1 2.2-.1 3.2 3.5 5.5.1.1.1.2 0 .2.1.2.1.3 0 .3"/><path id="Fill-9_2_" class="st573" d="M43 103.8c-.1 0-.1 0 0 0-.2 0-.3-.1-.3-.2.2-2.8.3-5.3.5-7.7 0-.1.1-.2.3-.2.1 0 .2.1.2.2-.2 2.4-.3 4.9-.5 7.7 0 .1-.1.2-.2.2"/><path id="Fill-11_2_" class="st573" d="M45.9 50.8c-.1 0-.2-.1-.2-.2l.3-2.1c1.7-13.8 2.9-22.9 7.7-24.7 1-.4 2.6-.7 4.8-1.1.1 0 .2.1.2.1 0 .1-.1.2-.1.2-2.2.3-3.8.7-4.8 1-4.6 1.7-5.8 10.7-7.5 24.4l-.3 2.1c0 .2 0 .3-.1.3"/><path id="Fill-13_2_" class="st573" d="M73.9 22.8c-.1 0-.2-.1-.2-.3 0-.1.1-.3.2-.3 2.2-.2 4.5-.3 6.7-.5.1 0 .2.1.2.3 0 .1-.1.3-.2.3-2.3.1-4.5.3-6.7.5"/><path id="Fill-15_2_" class="st573" d="M130.9 104.8c-.1 0-.2-.1-.2-.2v-.9c.2-7.7.7-25.6.6-39.3v-1.7c-.1-6.2-.1-14.7-.8-21.9-.7-8.4-2.1-13.2-4.1-14.2-3.2-1.7-9.8-2.8-19.6-3.5-.1 0-.2-.1-.2-.2s.1-.2.2-.2c9.8.7 16.5 1.9 19.8 3.6 4.7 2.4 4.9 23.6 5 36.3v1.7c.1 13.7-.4 31.7-.6 39.3v.9c.1.2 0 .3-.1.3"/><path id="Fill-17_2_" class="st573" d="M39 103.8c-.2 0-.3-.1-.3-.2.1-2.3.3-4.5.4-6.7 0-.1.1-.2.3-.2.2 0 .3.1.3.2-.2 2.2-.3 4.4-.4 6.7-.1.1-.2.2-.3.2"/><path id="Fill-19_2_" class="st573" d="M42.9 52.8s-.1 0 0 0c-.1 0-.2-.1-.2-.2.4-3.1.7-5.7 1-8 .2-1.7.4-3.1.6-4.4.1-.5.1-1.1.2-1.6 1.1-9 2.2-18.3 7.8-19.9 4.1-1.2 32.2-1.8 42.2-1.9.1 0 .1 0 .2.1 0 .1 0 .2-.2.2-9.9.2-38 .8-42.1 1.9-5.4 1.5-6.5 10.7-7.6 19.6-.1.5-.1 1.1-.2 1.6-.2 1.3-.4 2.8-.6 4.4-.3 2.3-.7 4.9-1 8 0 .1-.1.2-.1.2"/><path id="Fill-21_2_" class="st573" d="M131.5 29.8c-.1 0-.1 0-.2-.1-.1-.5-.3-1-.4-1.5-.6-2.5-1.4-5.6-4.8-7.8-2.3-1.4-5.5-2-11.1-2.7-1.7-.2-17.1-.4-20.2-.6-.1 0-.2-.1-.2-.2s.1-.2.2-.2c3.1.2 18.5.4 20.2.6 5.7.7 9 1.3 11.3 2.8 3.5 2.2 4.3 5.4 4.9 8 .1.5.3 1 .4 1.5.1 0 .1.1-.1.2.1 0 0 0 0 0"/><path id="Fill-23_2_" class="st573" d="M44 103.8s-.1 0 0 0c-.2 0-.3-.1-.3-.2.2-2.3.3-4.6.5-6.7 0-.1.1-.1.3-.1.1 0 .3.1.2.2-.2 2.1-.3 4.4-.5 6.7 0 0-.1.1-.2.1"/><path id="Fill-25_2_" class="st573" d="M47.9 49.8s-.1 0 0 0c-.1 0-.2-.1-.2-.2l.1-.8c1.6-13 2.7-21.6 7.2-23.3.6-.2 1.5-.4 2.5-.7.1 0 .2 0 .2.1s0 .2-.1.2c-1 .2-1.9.4-2.5.6-4.3 1.6-5.4 10.1-7 23l-.1.9c0 .1-.1.2-.1.2"/><path id="Fill-27_2_" class="st573" d="M74.9 23.8c-.1 0-.2-.1-.2-.3 0-.2.1-.3.2-.3 1.9-.2 3.8-.3 5.7-.4.1 0 .2.1.2.3 0 .2-.1.3-.2.3-1.9.1-3.8.2-5.7.4"/><path id="Fill-29_2_" class="st573" d="M130 104.8c-.1 0-.2-.1-.2-.2.1-2.5.6-24.4.5-40.3v-1.7c0-6-.1-14.3-.7-21.2-.7-8.2-2-12.8-3.9-13.8-3.2-1.7-9.9-2.8-19.8-3.5-.1 0-.2-.1-.2-.2s.1-.2.2-.2c10 .7 16.7 1.8 19.9 3.5 4.6 2.4 4.8 23 4.8 35.3v1.7c.1 15.9-.4 37.9-.5 40.3.1.2 0 .3-.1.3"/><path id="Fill-31_2_" class="st573" d="M51.9 33.8c-.1 0-.2-.1-.2-.1 0-.1 0-.2.1-.2 1.1-.2 2.3-.5 3.6-.7.1 0 .2 0 .2.1s0 .2-.1.2c-1.3.2-2.5.4-3.6.7"/><path id="Fill-33_2_" class="st573" d="M128.5 34.8c-2.2-1.2-9.4-2.2-19.3-2.9-10.2-.7-22-.9-32.3-.5-.1 0-.2-.1-.2-.2s.1-.2.2-.2c21.5-.8 47.1 1 51.7 3.5.1 0 .1.2.1.2-.1 0-.1.1-.2.1"/><path id="Fill-35_2_" class="st573" d="M140.5 60.8c-.1 0-.1 0-.2-.1-.3-.4-.4-2.1-.5-5.4-.1-1.5-.2-3.3-.3-5-.4-6-1.2-12-1.8-14.2 0-.1 0-.2.1-.2s.2 0 .2.1c.6 2.3 1.4 8.3 1.8 14.3.1 1.7.2 3.5.3 5 .1 2.5.2 4.9.5 5.3.1.1 0 .2 0 .2h-.1"/><g id="Group-39" transform="translate(138 66)"><defs><filter id="Adobe_OpacityMaskFilter_271_" filterUnits="userSpaceOnUse" x="11.7" y="-5.2" width="1" height="43.9"><feColorMatrix values="1 0 0 0 0 0 1 0 0 0 0 0 1 0 0 0 0 0 1 0"/></filter></defs><mask maskUnits="userSpaceOnUse" x="11.7" y="-5.2" width="1" height="43.9" id="mask-2_268_"><g filter="url(#Adobe_OpacityMaskFilter_271_)"><path id="path-1_268_" class="st3" d="M11.7-5.2h1v43.9h-1z"/></g></mask><path id="Fill-37_2_" d="M12.5 38.7c-.1 0-.1-.1-.1-.2.2-5.4-.2-38.1-.7-43.5 0-.1 0-.2.1-.2s.1.1.1.1c.5 5.4.9 38.1.7 43.6 0 .1 0 .2-.1.2" mask="url(#mask-2_268_)" fill-rule="evenodd" clip-rule="evenodd" fill="#a7b3cc"/></g><path id="Fill-40_1_" class="st573" d="M99.7 74.8L95.2 73c-.1 0-.1-.1-.1-.2s.1-.1.2-.1l4.4 1.7 28.2-.9.4-27.1-10.7-3.4-32.6.1v9c0 .1-.1.2-.2.2s-.2-.1-.2-.2v-9.2c0-.1.1-.2.2-.2l32.8-.1h.1l10.9 3.4c.1 0 .1.1.1.2l-.4 27.4c0 .1-.1.2-.2.2l-28.4 1"/><path id="Fill-42_1_" class="st573" d="M99.9 46.8l-15.1-3.7c-.1 0-.1-.1-.1-.2s.1-.1.2-.1l15 3.7 27.6-.6c.1 0 .2.1.2.2s-.1.2-.2.2l-27.6.5"/><path id="Fill-44_1_" class="st573" d="M100.1 73.8c-.2 0-.4-.1-.4-.2l.2-27.7c0-.1.2-.2.4-.2s.4.1.4.2l-.2 27.7c0 .1-.2.2-.4.2"/><path id="Fill-46_1_" class="st573" d="M98.8 102.8s-.1 0 0 0l-15-5.9c-.1 0-.1-.1-.1-.2v-5.3c0-.1.1-.2.2-.2s.2.1.2.2v5.2l14.8 5.9 28.2-.9.4-27.6c0-.1.1-.2.2-.2s.2.1.2.2l-.4 27.7c0 .1-.1.2-.2.2l-28.5.9"/><path id="Fill-48_1_" class="st573" d="M98.9 102.8c-.1 0-.2-.1-.2-.2l.5-26.7c0-.1.1-.2.2-.2s.2.1.2.2l-.5 26.7c.1.1 0 .2-.2.2"/><path id="Fill-50_1_" class="st573" d="M87.5 42.8c-.1 0-.2-.1-.2-.2v-3.3H75.8c-.1 0-.2-.1-.2-.2s.1-.2.2-.2h11.7c.1 0 .2.1.2.2v3.5c0 .1-.1.2-.2.2z"/><path id="Fill-52" class="st573" d="M85.5 42.8c-.1 0-.2-.1-.2-.1v-.6H73.8c-.1 0-.2-.1-.2-.1 0-.1.1-.1.2-.1h11.6c.1 0 .2.1.2.1v.7c.1 0 0 .1-.1.1z"/><path id="Fill-54" class="st573" d="M84.9 40.8c-.1 0-.1 0-.1-.1-.1-.1-.1-.2 0-.2l2.6-1.7c.1-.1.2 0 .3 0 .1.1.1.2 0 .2L85 40.7c0 .1-.1.1-.1.1"/><path id="Fill-56" class="st573" d="M130.5 93.9h-3.6c-.1 0-.2-.1-.2-.2s.1-.2.2-.2h3.6c.1 0 .2.1.2.2s-.1.2-.2.2"/><path id="Fill-58" class="st573" d="M14.2 105.8c-.1 0-.2-.1-.2-.2 1.1-7.5.1-17.7-.9-28.5-1-10.5-2-21.3-1.1-30.3 1.2-13.3 4.1-23.2 5.5-26.6 2.2-5.5 4.8-8.3 7.8-8.4 4.7-.2 14 2.1 18.1 3.7 1.9.8 4.9 1.9 5.3 4.6 0 .1 0 .2-.1.2s-.2 0-.2-.1c-.4-2.6-3.2-3.7-5.1-4.4-4.1-1.6-13.4-3.9-18-3.7-2.9.1-5.3 2.8-7.5 8.2-1.3 3.4-4.2 13.2-5.4 26.5-.8 9 .2 19.8 1.1 30.2 1 10.8 1.9 21 .9 28.6-.1.1-.1.2-.2.2"/><path id="Fill-60" class="st573" d="M18.2 105.8c-.1 0-.1 0 0 0-.1 0-.2-.1-.2-.2.7-8.1-.3-17.3-1.5-27.1-1.1-9.7-2.3-19.7-1.6-28.9 1.3-17.5 4-25.3 4.8-27.3 2.2-5.6 4.8-8.4 7.8-8.5 2.9-.1 9.7 1.1 14 2.5 3.2 1 4.9 2.1 5.2 3.4 0 .1 0 .2-.1.2s-.2 0-.2-.1c-.2-.8-1.2-1.9-5-3.1-4.3-1.4-11-2.6-13.9-2.4-2.9.1-5.3 2.8-7.5 8.3-.8 2-3.5 9.7-4.7 27.2-.7 9.2.5 19.2 1.6 28.9 1.1 9.8 2.2 19 1.5 27.2-.1-.2-.2-.1-.2-.1"/><path id="Fill-62" class="st573" d="M24.4 105.8c-.1 0-.2-.1-.2-.2.6-9-1.3-23.4-2.7-35-.1-1.1-.3-2.2-.4-3.3-1-7.4-1.8-13.7-1.2-21.4.2-2.5 1-8 1.9-12.5.2-1 .5-2.1.8-3.2 1-4 2.2-8.4 1.2-11.2 0-.1 0-.2.1-.2s.2 0 .2.1c1 2.8-.1 7.4-1.2 11.4-.3 1.2-.6 2.2-.8 3.2-1 4.5-1.8 9.9-1.9 12.4-.6 7.6.3 14 1.2 21.3.1 1.1.3 2.2.4 3.3 1.5 11.6 3.3 26 2.7 35.1.1.1 0 .2-.1.2"/><path id="Fill-64" class="st573" d="M25.3 81.8c-.1 0-.2-.1-.2-.2-.3-5.6-1.1-10.3-1.8-14.8-.8-4.6-1.5-9-1.6-13.7-.1-9.2 1.7-18.4 2.4-20.7l.1-.2c.6-1.8 1.4-4.3 3.2-5.3.1 0 .2 0 .2.1s0 .2-.1.2c-1.7.9-2.5 3.4-3.1 5.1l-.1.3c-.6 2.1-2.3 11.3-2.3 20.5.1 4.7.8 9.1 1.6 13.7.8 4.5 1.6 9.2 1.8 14.8.1.1 0 .2-.1.2"/><path id="Fill-66" class="st573" d="M36.9 56.8c-.1 0-.2-.1-.2-.2.1-1.7.2-3.4.2-4.7v-.3c.1-3 .1-4.8.3-8v-1c.2-4 .2-6.9-.8-7.8-1.2-1.1-5.3-1.7-8.5-2.2-1.1-.2-2.2-.3-3.1-.5-.1 0-.1-.1-.1-.2s.1-.2.2-.1c.9.2 2 .3 3.1.5 3.5.5 7.4 1.1 8.7 2.3 1.1 1 1.1 3.8.9 8.1v1c-.1 3.2-.2 4.9-.3 8v.3c0 1.3-.1 3-.2 4.7-.1 0-.1.1-.2.1"/><path id="Fill-68" class="st573" d="M29.3 64.8c-2 0-5.2-.3-6.5-.4-.1 0-.2-.1-.1-.2 0-.1.1-.2.2-.2 1.3.2 4.5.4 6.5.4 2.6 0 4.2-.1 4.9-.4 1.4-.6 2-2.2 2.1-6 0-.1.1-.2.2-.2s.2.1.2.2c-.1 3.4-.6 5.7-2.4 6.4-.7.2-2.4.4-5.1.4"/><path id="Fill-70" class="st573" d="M42 50.8c-.1 0-.2-.1-.2-.2v-.7c.3-5.5.6-11.8.5-14.8-.1-3.6-3.4-4.2-6-4.7h-.1c-4.1-.7-8.3-1.3-8.4-1.3-.1 0-.2-.1-.1-.2 0-.1.1-.2.2-.1 0 0 4.3.6 8.4 1.3h.1c2.6.5 6.1 1.1 6.3 5 .1 3-.2 9-.5 14.8v.7l-.2.2"/><path id="Fill-72" class="st3" d="M31.7 51s.2-1.3.3-1.6c.4-1.7.9-3.5 1.3-5.2 1-3.6 3.5-7.3 6.8-9.1 3.4-1.8 7.1-2.9 10.8-4 1.8-.5 7.3-2.3 7.3-2.3l3.4 3.1s2.6.8 4.6.9c2.5.2 4.6-.5 6.9-1.2 1.3-.4 3.5-1.5 3.5-1.5s3.7 1.8 6.3 2.8c2.1.8 6.7 2.2 9.5 3.7 1.5.8 3.6 3.5 4.3 4.7 1.1 1.8 3.5 9.5 5.1 16.2.9 3.7 2.4 8 2.8 10 .5 2.1 2 8.2 2.3 10.3.3 2 1.2 4.9.2 7.2-.7 1.7-1.6 2.4-3.4 3-2.1.6-5.3 1-7 .6-1.1-.3-3.5-.5-4-1.7-.9-2 1.6-4.2 1.2-6.4-.2-.9-1.2-1.8-1-2.8.1-.3 0-1.1.5-1.1.6 0 2.5.1 2.5.1s-.5-2.1-.6-2.4c-.8-2.2-1.6-3.6-2.7-5.7-.7-1.4-1.5-3.2-2-4.7-.1-.2-.8-2.4-.8-2.4s-.3 1.4-.4 1.8c-.5 1.7-1.5 5.7-1.5 5.7s-.7 3-1.5 4.8c-.2.5.5 2.2 0 2.5-.4.2-1 .1-1.4.1-1.1 0-2.2.1-3.3 0-10.2-.7-20.1-1.5-29.9-4.9-5-1.8-10-3.9-13.7-7.9-.9-1.1-1.6-1.8-2.4-3-1.6-2.2-3.2-5.1-3.9-7.8-.1-.7-.1-1.8-.1-1.8"/><path id="Fill-74" class="st544" d="M21.2 73.8c-.5-.3-1 1.2-1.2 1.7-.2.3-1.3 3.3-1.3 3.3l2.4-.9c0-.1 1.2-3.4.1-4.1"/><path id="Fill-76" class="st544" d="M92.7 77.8c1.6.3 2.5 1.2 3.1 2.4.8 1.5 1.1 3.5.6 5.2-.2.7-.7 1.5-1.4 2-.5.3-1.9.4-1.9.4l-3.5-2.6s1.2-2.2 1.6-3.7c.3-.8.3-4 1.5-3.7"/><path id="Fill-78" class="st544" d="M59.6 29.1s.5 1.3 1.2 2.1 1.9 1.3 2.4 1.6c.8.4 1.7.7 3 .9 1.3.1 4.8.4 7.6-.9 1.7-.8 3.4-2.3 3.4-2.3s-1.7-1.5-1.8-2.6c-.2-1.6.2-4.3.2-4.3s.4-2.2.8-3.3c.4-1.1.8-1.3.8-1.3s1.9-.9 2.4-2.4c.1-.4.2-1.6 0-2-.2-.5-1.7-1.4-2.1-1.9-1.1-1.1-.9-3.2-2.2-4.4C73.9 7 71.8 6.4 70 6c-2.1-.5-3.7-.1-5.5 1-2.2 1.3-5.6 6.2-5.6 6.2s-1.4.5-1.2 2c.1.6.6 1.7 1 2.2.7.7 1.5.6 1.5.6l1.7 6.3s.1 1.7-.3 2.7c-.4 1.3-2 2.1-2 2.1"/><path id="Fill-80" class="st3" d="M75.3 18.7s-1.5 0-2.4-.2c-.9-.3-1.8-.3-2.9-.8-1.1-.6-2.2-1-3.2-.8-1.3.2-2.2 1.1-3.5 1.3-1.4.3-4.3.2-4.3.2s-.3.8-.2 1.7c.1.7.6 1.8.6 1.8s.1 2.2.4 2.5c.9 1.1 2.1 1.9 3.3 2.7 1.2.8 2.5 1.6 3.9 1.7 1.6.2 3.1-.6 4.7-1.7 1.6-1 4-3 4.1-4.1.1-1.1.1-1.9-.2-2.7-.3-.4-.3-1.6-.3-1.6"/><path id="Fill-82" class="st576" d="M39.7 108.1s-.1-1.7.1-3.4c.2-2.2.9-5.6 1-6.8.3-4.3.2-5.2.7-9.5.3-2.5.9-4.9 1.2-7.4.4-3.3.7-6.7 1.3-10 .7-3.8 1.9-7.7 2.4-11.5.4-2.9 1.3-7.9 1.3-7.9l-.7-13 .1-5.5s.8-.7 1.8-1.1c1-.3 2.1-.3 2.1-.3s.1 4.4.1 4.8c.2 5 1.1 15 1.1 15s1 .7 1.8 1.5c2.3 2.3 6.4 2.3 9.3 2.8 2 .3 4 .6 6 .7 1.4.1 3 .2 4.4.1.8-.1 1.6-.6 2.2-.9 3.6-1.8 3.9-3.4 3.9-3.4s1.2-9 1.3-10.3c.1-1.5 1.5-8.6 1.5-8.6s.8-.2 1.8 0 2.1.9 2.1.9l-.7 4.6-1.5 13.9s.5.5.7 2.3c.2 1.4.8 3.1 1.3 4.4 1 2.3.9 6.1 1.2 8.6.2 1.5.4 2 .3 3.5-.3 5.8-.8 12.4-.1 18.2.4 3.8 1.3 5.5 1.8 9.3.1.8.6 3.3.9 5.1.3 2.1.3 3.7.3 3.7s-3.5 1.6-10.1.9c-4.6-.4-9.3-1.1-14-.7-5.3.5-10.4 2-15.7 1.3-2.7-.3-5.4-1.2-8.1-1.6-.7.1-3.1.3-3.1.3"/><path id="Fill-84" fill-rule="evenodd" clip-rule="evenodd" fill="#e1cfbb" d="M21.9 52.5l.5-.9 1.2-.4 40.7-.4 4.5.1 17.1 1.3 1.3.3.5 1-.2 36.8-.7 1L69 92.8l-47.3-1.3z"/><path id="Fill-86" class="st578" d="M92.4 77.5c-.3-1.2-.8-1.8-.8-1.8s.3-1.3-.1-2.5c-.2-.6-.9-1.7-1.3-2.3-.5-.8-.9-1.7-1.7-2.3-.5-.4-1.5-1-2-1.2-.2-.1-2.2-.7-2.4-.5-.5.6-.2 1.3.1 1.7.5.6 1.5 1.1 2.2 1.6.6.4 1 1.1 1 1.1v1.4s-.7-.1-1.1-.2c-1.2 0-2.3-.5-3.4-.4-.5 0-1.4.1-1.2 1.1.2.7.4.8 1 1.1 1.1.6 4.7 1.5 4.7 1.5l-.1 2.3s-2.2.2-3 .5c-.3.1-1.7.3-2 .5-.3.1-.7.6-.7.8-.7 1.6 2.9 1.2 3.5 1.1.3 0 2.3-.1 2.3-.1v1.9s-1.2.6-1.3.7c-.8.3-4.2.8-3 2 .5.6 2.9.2 3.5.1.9-.1 2.6-.8 2.6-.8s1.5.2 1.8-.2c.5-.7 1.4-2.3 1.6-4 .1-.4.1-1.9-.2-3.1"/><path id="Fill-88" class="st578" d="M22.4 77.8s-1.8.4-2.4 1.2c-.7.8-.3 2-.3 2s-.9.7-1 1.5c-.1.9.8 2.2.8 2.2s-.2 1.8-.3 2.3c-.1 2.3-.5 4.5 1 6.3.7.8 2.4 1.1 3.4 1.3 2.3.4 5.7-.1 7.8-.9 1.9-.7 2.3-1.9 2.3-1.9l-2.6-.2s-.9-.5-1.3-.6c-1.7-.4-4.1.6-5.8.3-1.1-.2-1.5-1.1-1.5-1.1v-2.5s1.1-.1 1.1-1.1-1.1-3-1.1-3v-5.8z"/><path id="Fill-90" class="st579" d="M37.7 51.9l.2 11.2s-.3 3.7.5 5.2c.1.3 1.2-1.2 1.4-.9.3.3.4 1.1.7 1.7.2.4.5.6.6.5.6-.3 1.4-1.1 1.7-.9.7.3 1.1.7 1.5 1 .5.3.6-1.3 1.3-1.1.9.3 1.2 1.8 1.4 1 .2-1 .3-4.4.3-5.4 0-2.9-.1-12.1-.1-12.1l16.4-1.2-10.8.1-15.1.9z"/><path id="Fill-92_1_" class="st579" d="M38.8 91.5s-.2-5.4-.1-7.4c.1-2.1 0-7 .4-7.3.3-.2.9 1.6 1.1 2 .3.5.6-1 1.1-.8.2.1.7 1.6 1.3 1.9.4.2.9-1.2 1.3-1.5.1-.1.3-.1.5.3.3.7.6 1.9.8 1.9.5 0 .7-1.2 1-1.4.3-.3.5.4.5 1.4.1 1.9-.1 6.7-.1 6.7l-.1 4.5-7.7-.3z"/><path id="Fill-94_1_" class="st576" d="M79.9 7.1s.4.9.5 1.3c.1.7.2.9.3 1.6.1 1.7-2.4.4-3.9-.2-1.1-.4-2.4-1-3.2-1.3-.8-.3-1.8-.9-3.7-1.1-3.2-.3-6.9.8-10 1.5-1.4.3-3.9 1-4.1.9-.6-.5 1.1-2.7 1.1-2.7s-.1-3.8.2-4.7c1.6-4.9 7-8.1 12-7.6 4.8.5 9.1 3.8 10.6 8.6.7 1.8.2 3.7.2 3.7"/><path id="Fill-96_1_" class="st580" d="M56.7 9.6l.5 4.2s-.1-.1.3 0c.3.1 1.1 0 1.5-.8.4-.8 1.1-2.5 1.1-2.5s1.8-.3 2.5-1.2c.1-.1 1.3-1.2 1.1-1.4-.3-.3-2.7.7-3.6.8-.5.1-1.8.4-2.3.6-.2.1-1.1 0-1.1.3"/><path id="Fill-98_1_" class="st580" d="M74.7 8.8s.3 1.5.7 2.5c.4 1.1.9 1.7 1.5 2.3.3.3 1.3.1 1.3.1l.5-3.2s-1.6-.7-2.2-1c-.3-.2-1.8-.7-1.8-.7"/><path id="Fill-100_1_" class="st581" d="M76.9 19.8c-.1 0-.2-.1-.2-.1 0-.1 0-.2.1-.3 1-.4 2.1-1.3 2.4-2.9.1-.7 0-1.3-.4-1.7-.3-.3-.7-.5-1.2-.5-.1 0-.2-.1-.2-.2s.1-.2.2-.2c.6 0 1.2.2 1.5.7.4.5.6 1.2.5 2-.2 1.7-1.5 2.8-2.7 3.2.1 0 0 0 0 0"/><path id="Fill-102_1_" class="st581" d="M59.4 18.8c-1.3-.1-2.2-.9-2.6-2.1-.4-1.1-.1-2.3.5-2.7.4-.3.9-.3 1.4-.1.1.1.2.2.1.3-.1.1-.2.1-.3.1-.4-.2-.7-.2-.9 0-.5.4-.7 1.4-.4 2.3.2.5.7 1.6 2.1 1.7.1 0 .2.1.2.2.2.2.1.3-.1.3"/><path id="Fill-104_1_" class="st581" d="M76.9 16.8c-.1 0-.1 0 0 0-.2-.1-.2-.2-.1-.3 0-.1.4-.6.7-.7.1 0 .2 0 .2.1s0 .2-.1.2c-.2.1-.5.4-.6.6l-.1.1"/><path id="Fill-106_1_" class="st581" d="M76 21.8s-.1 0 0 0c-.2 0-.3-.1-.3-.2 0 0 .2-.3.4-.7 0-.1.2-.1.3-.1.2 0 .2.1.2.2-.2.4-.4.7-.4.7s-.1.1-.2.1"/><path id="Fill-108_1_" class="st581" d="M59.4 17.8c-.1 0-.3-.1-.3-.2-.1-.5-.3-1-.4-1.6 0-.1.1-.2.3-.2.2 0 .3.1.3.2.1.6.2 1.1.4 1.6 0 0-.1.1-.3.2"/><path id="Fill-110_1_" class="st581" d="M68.2 15.8c-.1 0-.1 0 0 0-.3 0-.4-.1-.4-.2.1-.2.2-.5 0-.7-.1-.1 0-.1.2-.2.2 0 .5 0 .5.1.3.3.2.5.1.8-.1.1-.2.2-.4.2"/><path id="Fill-112_1_" class="st581" d="M72.7 15.3c0-.3-.2-.5-.5-.5s-.5.2-.5.5.2.5.5.5.5-.3.5-.5"/><path id="Fill-114_1_" class="st581" d="M74.5 12.8h-.1c-.9-.6-2.4-.5-3.3-.2-.1.1-.3 0-.3-.1s0-.3.1-.3c1-.4 2.7-.5 3.7.2.1.1.1.2.1.4-.1-.1-.2 0-.2 0"/><path id="Fill-116_1_" class="st581" d="M65.4 12.8h-.1c-.9-.5-2.6-.6-3.2-.1-.1.1-.3.1-.4 0-.1-.1-.1-.3 0-.4.8-.7 2.8-.6 3.8 0 .1.1.2.2.1.4 0 0-.1.1-.2.1"/><path id="Fill-118_1_" class="st581" d="M59.7 10.8c-.3 0-.5 0-.8-.1-.1 0-.2-.1-.2-.3 0-.1.1-.2.2-.2 2 .4 3.3-1 4.4-2.4.1-.1.2-.1.3 0 .1.1.1.2 0 .3-1 1.4-2.3 2.7-3.9 2.7"/><path id="Fill-120_1_" class="st581" d="M78.9 14.8c-.2 0-.2-.2-.2-.3.1-.5.2-.9.3-1.3.2-.7.3-1.4.3-2.1 0-.1.1-.2.2-.2s.2.1.2.2c0 .8-.2 1.5-.3 2.2-.1.4-.2.9-.2 1.3-.1.1-.2.2-.3.2"/><path id="Fill-122_1_" class="st581" d="M57.4 12.8c-.1 0-.3-.1-.3-.2-.3-1.8-.4-2.9-.4-3.6 0-.1.1-.2.3-.2.2 0 .3.1.3.2 0 .6.1 1.7.4 3.5 0 .1-.1.3-.3.3"/><path id="Fill-124_1_" class="st581" d="M63.7 15.3c0-.3-.2-.5-.5-.5s-.5.2-.5.5.2.5.5.5.5-.3.5-.5"/><path id="Fill-126_1_" class="st581" d="M77.5 12.8c-1.5-.1-2.1-1.7-2.6-3.2-.1-.2-.1-.4-.2-.6 0-.1 0-.2.1-.2s.2 0 .3.1c.1.2.1.4.2.6.5 1.5 1 2.9 2.2 2.9.1 0 .2.1.2.2s-.1.2-.2.2"/><path id="Fill-128_1_" class="st581" d="M58.9 13.8c-.1 0-.2-.1-.2-.2s.1-.2.2-.2c.7 0 1.2-.9 1.3-1.4 0-.1.1-.2.3-.2.1 0 .2.1.2.3-.1.4-.7 1.6-1.8 1.7"/><path id="Fill-130_1_" class="st581" d="M92.4 75.8c-.1 0-.2-.1-.2-.3.4-2.1-.4-3.2-1.2-4.3-.1-.1-.1-.2-.2-.3-.2-.3-.4-.6-.5-.8-.4-.7-.7-1.2-1.5-1.6-.5-.3-1-.5-1.5-.7l-.2-.1c-.4-.2-.9-.4-1.3-.5-.5-.1-.6 0-.7.1-.1.1-.1.3 0 .4.2.8 1.1 1.3 1.9 1.8.3.2.6.4.8.5.7.6 1.2 1.5 1.6 2.2.1.2.1.3.2.4.1.1 0 .2-.1.3-.1.1-.2 0-.3-.1-.1-.1-.1-.3-.2-.4-.3-.6-.8-1.5-1.4-2.1-.2-.2-.5-.3-.8-.5-.9-.5-1.9-1.1-2-2.1-.1-.4 0-.6.1-.8.2-.2.6-.3 1.1-.2.5.1 1 .3 1.4.5l.2.1c.5.2 1 .5 1.5.7.9.5 1.2 1.1 1.6 1.8.1.3.3.5.5.8.1.1.1.2.2.3.8 1.2 1.7 2.4 1.2 4.7 0 .1-.1.2-.2.2"/><path id="Fill-132_1_" class="st581" d="M89.7 78.8s-.1 0 0 0c-.2-.1-.3-.2-.2-.3.1-.2.1-.4 0-.6-.2-.4-.7-.8-1.6-1.1-.8-.3-1.6-.5-2.4-.7-.8-.2-1.5-.4-2.3-.6-.7-.3-1.5-.8-1.5-1.6 0-.3.1-.6.3-.8.5-.4 1.3-.3 2.4-.1.2 0 .4.1.5.1.3 0 .7.1 1 .1 1.5.1 3.3.2 5.6 1.8.1.1.1.2.1.3-.1.1-.2.1-.3.1-2.2-1.5-3.9-1.6-5.3-1.7-.4 0-.7-.1-1.1-.1-.2 0-.4-.1-.5-.1-.9-.1-1.7-.3-2.1 0-.1.1-.2.2-.2.5 0 .5.6 1 1.2 1.2.7.3 1.5.4 2.2.6.8.2 1.6.4 2.5.7.4.1 1.5.6 1.8 1.3.1.3.1.6 0 1 .1-.1 0 0-.1 0"/><path id="Fill-134_1_" class="st581" d="M84.4 86.8c-.6 0-1.2-.1-1.3-.8-.1-.2 0-.4.1-.6.3-.6 1.4-.8 2.5-1.1l.3-.1c1.3-.3 1.6-.5 2-.8h.1c.5-.3.9-.6 1-1.1v-.1c-.2-.1-1.1-.2-1.5-.2H87c-1.2.1-2.4.2-3.9 0-.7-.1-1.4-.4-1.4-1.1 0-.7.7-1.2 2-1.4.9-.2 1.8-.3 2.6-.5.7-.1 1.3-.2 2-.3.6-.1 2.2-.4 2.8-.2.1 0 .2.2.2.3 0 .1-.1.2-.3.2-.6-.1-2 .1-2.7.2-.7.1-1.3.2-2 .3-.9.1-1.7.3-2.6.5-1 .2-1.6.6-1.6 1s.6.6 1 .6c1.5.2 2.6.1 3.8 0h.6s1.4-.1 1.8.4c.1.1.2.3.1.5-.1.7-.7 1-1.2 1.4h-.1c-.5.3-.8.5-2.2.8l-.3.1c-.9.2-2 .5-2.3.9 0 .1-.1.2 0 .2.1.5.6.5 1.5.4h.6c1.2 0 2.1-.1 2.5-.3.1 0 .2-.1.3-.1 1-.4 1.9-.8 2.6-1.7.2-.3.2-.7.1-1.2 0-.3-.1-.7 0-1 .1-.4.3-.7.5-1 .2-.3.4-.5.5-.8.1-.3 0-.7-.2-1.2-.1-.3-.2-.7-.2-1 0-.1.1-.2.2-.2s.2.1.2.2c0 .3.1.5.2.9.1.5.3.9.2 1.4-.1.4-.3.7-.5.9-.2.3-.4.5-.5.8-.1.3 0 .6 0 .9.1.5.1 1-.2 1.5-.8 1.1-1.8 1.5-2.8 1.9-.1 0-.2.1-.3.1-.5.2-1.4.3-2.7.4h-.6-.3"/><path id="Fill-136_1_" class="st581" d="M21.7 87.8c-.2 0-.5-.1-.7-.2-1.2-.8-1.9-1.9-2.7-3.1l-.1-.1c-.4-.6-.5-1.3-.4-1.8.3-.7 1.1-1.3 2.4-1.7.1 0 .2 0 .3.1 0 .1 0 .2-.1.3-1.2.4-2 .9-2.2 1.5-.1.4 0 .9.3 1.4l.1.1c.8 1.2 1.5 2.3 2.6 3 .2.1.6.3.8.1.3-.3.4-1 .1-1.8-.2-.5-.4-.8-.7-1.1-.4-.6-.8-1.2-.9-2.2 0-.1.1-.2.2-.2s.2.1.2.2c.1.9.4 1.4.8 2 .2.3.5.7.7 1.2.4.9.3 1.8-.2 2.3-.1-.1-.3 0-.5 0"/><path id="Fill-138_1_" class="st581" d="M18.9 78.8c-.2 0-.3-.1-.2-.3.4-1.7 1.2-3.6 2.6-5.6.1-.1.2-.1.3-.1.1.1.1.2.1.3-1.3 1.9-2.1 3.8-2.5 5.5-.1.1-.2.2-.3.2"/><path id="Fill-140_1_" class="st581" d="M24.3 93.8c-.3 0-.6 0-.9-.1-.5-.1-1.2-.3-1.8-.6-.8-.3-1.9-.8-2.4-1.6-.7-1-.4-2.9-.2-4.7.1-1 .2-2 .2-2.7 0-.1.1-.2.2-.2s.2.1.2.2c.1.8-.1 1.8-.2 2.8-.2 1.7-.4 3.6.2 4.5.4.7 1.5 1.1 2.2 1.4.6.3 1.3.4 1.7.5.8.2 1.4.1 2.2-.1.2 0 .3-.1.5-.1 1.1-.2 2.3-.3 3.3-.6h.1c1.6-.4 1.7-.7 1.8-.8 0-.1-.1-.3-.6-.5-.7-.3-1.7-.3-2.6-.2h-.4c-.4 0-.8.1-1.2.2-.8.1-1.7.3-2.5.1-.7-.1-2.6-1.5-3.1-2.8 0-.1 0-.3.1-.3s.3 0 .3.1c.4 1.1 2.3 2.4 2.8 2.5.7.2 1.6 0 2.3-.1.4-.1.8-.1 1.3-.2h.4c.9-.1 2-.2 2.8.2.2.1.9.4.9 1s-1.1.9-2.1 1.2h-.1c-1 .3-2.2.4-3.3.6-.2 0-.4.1-.5.1-.7.1-1.2.2-1.6.2"/><path id="Fill-142_1_" class="st581" d="M24.4 94.8c-1.3 0-3.1-.6-4.1-1.8-.5-.6-.7-1.8-.7-1.9 0-.1.1-.3.2-.3s.2.1.3.2c0 0 .1 1.1.5 1.6.9 1.2 3 1.8 4.3 1.6 1-.2 1.8-.4 2.7-.6.3-.1.6-.2.9-.2 1.2-.3 2.9-.7 3.7-2.2.1-.1.2-.2.3-.1.1.1.1.3.1.4-.8 1.6-2.7 2.1-3.9 2.4-.3.1-.6.2-.9.2-.9.2-1.7.5-2.8.6-.2.1-.4.1-.6.1"/><path id="Fill-144_1_" class="st581" d="M25.5 94.8c-.7 0-1.3-.1-1.7-.3-.1-.1-.2-.2-.1-.4.1-.1.2-.2.3-.1 1.2.8 5.4-.1 7.2-1.1.7-.3 1.9-1 2-1.9 0-.1.1-.2.3-.2.1 0 .2.2.2.3-.2 1.2-1.6 1.9-2.3 2.3-1.2.6-3.9 1.4-5.9 1.4"/><path id="Fill-146_1_" class="st581" d="M20.9 83.8c-.1 0-.2-.1-.2-.2v-2.1l.2-27.7s.1-.8.5-1.2c.5-.4 1.3-.4 1.3-.4l39-.5s4.4 0 6.7.1 6.8.4 6.8.4l11.1 1s.7.1 1.1.5c.3.4.3 1.1.3 1.1l-.2 13.5c0 .1-.1.2-.2.2s-.2-.1-.2-.2l.2-13.5c0-.2 0-.6-.2-.8-.2-.2-.6-.3-.8-.3l-11.1-1s-4.5-.3-6.8-.4c-2.2-.1-6.6-.1-6.6-.1l-39 .5c-.2 0-.7 0-1 .3-.3.2-.4.7-.4.9l-.2 29.7c-.1.1-.2.2-.3.2"/><path id="Fill-148_1_" class="st581" d="M22.2 90.8c-.3 0-.5-.1-.5-.2V88c0-.1.2-.2.5-.2s.5.1.5.2v2.6c0 .1-.3.2-.5.2"/><path id="Fill-150" class="st581" d="M69.2 92.8h-1L31 92c-.1 0-.2-.1-.2-.2s.1-.2.2-.2l37.2.8h1.6c.8 0 1.6-.1 1.6-.1l15.9-1.1c.1 0 .5 0 .7-.2.2-.2.2-.6.2-.8v-4.1c0-.1.1-.2.2-.2s.2.1.2.2v4.1c0 .1 0 .7-.3 1-.3.3-.9.3-1.1.3l-15.9 1.1s-.8.1-1.6.1c-.2.1-.4.1-.5.1"/><path id="Fill-152" class="st581" d="M88.2 82.8c-.3 0-.5-.1-.5-.2V81c0-.1.2-.2.5-.2s.5.1.5.2v1.6c0 .1-.3.2-.5.2"/><path id="Fill-154" class="st581" d="M88.2 78.8c-.3 0-.5-.1-.5-.3V76c0-.1.2-.3.5-.3s.5.1.5.3v2.5c-.1.2-.3.3-.5.3"/><path id="Fill-156" class="st581" d="M88.2 72.8c-.3 0-.5-.1-.5-.1V72c0-.1.2-.1.5-.1s.5.1.5.1v.7s-.2.1-.5.1"/><path id="Fill-158" class="st581" d="M87.5 52.8l-17.7-.3-46.9-.4c-.1 0-.2-.1-.2-.1 0-.1.1-.1.2-.1l46.9.4 17.7.3c.1 0 .2.1.2.1s-.1.1-.2.1"/><path id="Fill-160" class="st581" d="M68.9 92.8c-.1 0-.2-.1-.2-.2l.5-39.6c0-.1.1-.2.2-.2s.2.1.2.2l-.5 39.6c.1.1 0 .2-.2.2"/><path id="Fill-162" class="st581" d="M87.9 68.8c-.2 0-.3-.2-.2-.3.7-1.9 1.5-5.1 2.3-7.9.4-1.5.8-2.8 1.1-3.9.3-.9 1.7-5.6 3.2-6.9.1-.1.3-.1.4 0 .1.1.1.2 0 .3-1.1.9-2.3 4.2-3.1 6.7-.3 1-.7 2.4-1.1 3.9-.8 2.8-1.6 6-2.3 7.9 0 .1-.1.2-.3.2"/><path id="Fill-164" class="st581" d="M96.4 76.8c-.1 0-.2-.1-.2-.2-.2-1.1-.8-2-1.3-3-.3-.5-.6-1-.8-1.5-.3-.6-.6-1.3-1-2-1.3-2.6-2.8-5.5-3.4-8.1 0-.1.1-.2.2-.3.1 0 .3 0 .3.2.6 2.5 2.1 5.4 3.4 8 .4.7.7 1.4 1 2 .2.5.5 1 .8 1.5.6 1 1.1 1.9 1.4 3.1-.1.1-.2.2-.4.3.1 0 .1 0 0 0"/><path id="Fill-166" class="st581" d="M93.5 87.8h-.1c-1.1-.6-2-1.3-2.7-1.9-.3-.2-.6-.5-.9-.7-.1-.1-.1-.2 0-.3.1-.1.2-.1.3 0 .3.2.6.5.9.7.8.6 1.6 1.3 2.6 1.8.1.1.2.2.1.3-.1 0-.2.1-.2.1"/><path id="Fill-168" class="st581" d="M83.5 33.8c-1.2-.5-2.7-1.1-4.3-2.1-2.6-1.6-2.8-3-2.3-7.7 0-.1.1-.2.2-.2s.2.1.2.3c-.6 4.9-.3 5.8 2.1 7.3 1.6 1 3.1 1.6 4.2 2 .1 0 .2.2.1.3 0 0-.1.1-.2.1"/><path id="Fill-170_1_" class="st581" d="M99.6 90.8c-1.3 0-2.8-.1-4.1-.6-.6-.2-2.5-1-2.3-1.8 0-.1.2-.2.3-.1.1 0 .2.2.1.3-.1.2.9.9 2 1.3 2.3.9 5.2.6 6.7.4 2-.3 3.5-.8 4.3-1.5 1.5-1.2 1.9-3 1.5-6-1-7.9-3.1-15.1-5.3-22.8-.6-2.2-1.3-4.5-1.9-6.8-.2-.6-.3-1.2-.5-1.8-.9-3.3-1.8-6.8-3.6-9.6-2.2-3.5-5.4-4.7-9.2-6.1-.3-.1-.5-.2-.8-.3-.1 0-.2-.2-.1-.3 0-.1.2-.2.3-.1.3.1.5.2.8.3 3.6 1.4 7.1 2.7 9.4 6.3 1.8 2.8 2.7 6.3 3.6 9.7.2.6.3 1.2.5 1.8.6 2.3 1.3 4.6 1.9 6.8 2.2 7.7 4.3 15 5.4 22.9.4 3.2-.1 5.1-1.7 6.4-.9.8-2.4 1.3-4.5 1.6-.7-.1-1.7 0-2.8 0"/><path id="Fill-172_1_" class="st581" d="M96 78.8c-.5 0-1-.1-1.3-.1-.3 0-.5-.1-.7 0-.1 0-.2 0-.3-.1 0-.1 0-.2.1-.3.2-.1.5 0 .9 0 .6.1 1.5.3 2.7-.1.4-.1.9-.3 1.4-.5 1.8-.7 4.1-1.5 5.8-.2.1.1.1.2 0 .3-.1.1-.2.1-.3 0-1.5-1.2-3.6-.4-5.4.3-.5.2-1 .4-1.4.5-.5.1-1.1.2-1.5.2"/><path id="Fill-174_1_" class="st581" d="M94.5 77.8h-.1-.1c-.2-.1-.8-.2-1.5-.6-.1-.1-.1-.2-.1-.3.1-.1.2-.1.3-.1.6.4 1.2.5 1.4.5h.1c.1 0 .2.2.1.3 0 .1 0 .2-.1.2"/><path id="Fill-176_1_" class="st581" d="M50.9 31.8c-.1 0-.2-.1-.2-.2s0-.2.1-.3l1.1-.3c.4-.1.7-.2 1.1-.3 1.5-.4 3.3-.9 5.1-1.8 1.7-.8 2.2-1.7 2.1-3.9 0-.1.1-.2.2-.2s.2.1.2.2c.1 2.4-.4 3.4-2.3 4.3-1.9.9-3.7 1.4-5.2 1.8-.4.1-.8.2-1.1.3l-1.1.4"/><path id="Fill-178_1_" class="st581" d="M31.9 51.8c-.2 0-.2-.2-.2-.3.1-.4.2-.8.3-1.3.6-2.6 1.5-6.9 2.4-8.5 2.7-5.1 7.9-7.3 13-8.9.1 0 .2 0 .3.1 0 .1 0 .2-.1.3-5 1.5-10.1 3.7-12.7 8.7-.8 1.6-1.8 5.8-2.4 8.4-.1.5-.2 1-.3 1.3-.1.1-.2.2-.3.2"/><path id="Fill-180_1_" class="st581" d="M42.4 51.8c-.1 0-.2 0-.2-.1-.5-.9-.8-1.8-1.1-2.8-.3-1.1-.7-2.3-1.4-3.7-.1-.1 0-.2.1-.3.1 0 .3 0 .3.1.7 1.4 1.1 2.7 1.4 3.8.3 1 .6 1.9 1 2.8.1.1 0 .2-.1.3.1-.1.1-.1 0-.1"/><path id="Fill-182_1_" class="st581" d="M84 53.8c-.1 0-.1 0 0 0-.2 0-.3-.1-.3-.3.4-2.2.9-6.2 1.3-9.9.4-3.4.8-6.6 1.1-8.6 0-.1.2-.2.3-.2.1 0 .2.1.2.3-.3 2-.7 5.2-1.1 8.6-.5 3.8-.9 7.7-1.3 10 0 0-.1.1-.2.1"/><path id="Fill-184_1_" class="st581" d="M79.9 51.8c-.1 0-.2-.1-.2-.2.5-5.7 2.3-17.7 2.6-18.5 0-.1.2-.3.5-.3 1-.1 3.6.9 3.9 1.4.1.1 0 .2 0 .3-.1.1-.2.1-.3 0-.2-.3-2.2-1.1-3.2-1.2h-.4c-.3.6-2 12.4-2.6 18.3-.1.1-.2.2-.3.2"/><path id="Fill-186_1_" class="st581" d="M51.6 51.8c-.1 0-.1-.1-.1-.2 0-1.5-.2-4.5-.3-7.6-.2-4.3-.4-9.2-.4-11.9 0-.1.1-.2.1-.2.1 0 .1.1.1.2 0 2.7.2 7.6.4 11.9.1 3.1.3 6.1.3 7.7l-.1.1"/><path id="Fill-188_1_" class="st581" d="M47.5 51.8c-.1 0-.2-.1-.2-.2-.4-4.7-.7-13-.5-18.1 0-.5.7-.9 1.3-1.2.8-.4 2.2-.8 2.6-.4.1.1.1.2 0 .3-.1.1-.2.1-.3 0-.1-.2-1.1 0-2.2.4-.8.4-1.1.7-1.1.8-.2 5.1.1 13.3.5 18 .1.3 0 .4-.1.4"/><path id="Fill-190_1_" class="st581" d="M94.9 87.8c-.3 0-.6-.1-1-.2-.1 0-.2-.1-.1-.3 0-.1.2-.2.3-.1 1.6.5 2.4-.4 2.8-1.2 1.1-2.3.2-6.7-2.1-7.9-.1-.1-.1-.2-.1-.3.1-.1.2-.1.3-.1 2.6 1.3 3.5 5.9 2.3 8.4-.6 1.1-1.4 1.7-2.4 1.7"/><path id="Fill-192_1_" class="st581" d="M67.1 33.8c-.5 0-1 0-1.5-.1-2.3-.2-6.4-1.1-7.9-4.6 0-.1 0-.2.1-.3.1 0 .2 0 .3.1 1.4 3.4 5.3 4.2 7.5 4.4 4.4.4 9.3-1.1 10.6-3.2.1-.1.2-.1.3-.1.1.1.1.2.1.3-1.2 2-5.3 3.5-9.5 3.5"/><path id="Fill-194_1_" class="st581" d="M90.4 108.8c-.1 0-.3-.1-.3-.2 0-3.7-1-7.8-2-11.8-.6-2.3-1.1-4.6-1.5-6.7 0-.1.1-.2.2-.3.1 0 .3.1.3.2.3 2.1.9 4.3 1.5 6.7 1 4 2 8.1 2 11.9.1.1 0 .2-.2.2"/><path id="Fill-196_1_" class="st581" d="M39.9 108.8c-.1 0-.2-.1-.2-.2 0-3 .4-5.4.8-7.8.4-2.3.8-4.8.8-7.7 0-.1.1-.2.2-.2s.2.1.2.2c0 3-.4 5.4-.8 7.8-.4 2.4-.8 4.8-.8 7.7.1.1 0 .2-.2.2"/><path id="Fill-198_1_" class="st581" d="M80.4 7.8c-.1 0-.2-.1-.2-.3.4-3-.7-6.2-2.9-8.6-3.1-3.3-8.3-4.6-12.9-3-2.3.8-4.4 2.4-5.7 4.3-1.2 1.8-1.8 4.3-1.5 7 0 .1-.1.2-.2.2s-.2-.1-.2-.2c-.3-2.8.3-5.4 1.6-7.3 1.4-2 3.5-3.6 5.9-4.4 4.7-1.7 10.1-.4 13.3 3.1 2.3 2.5 3.4 5.8 3 8.9 0 .2-.1.3-.2.3"/><path id="Fill-200_1_" class="st581" d="M80.5 6.8h-.1c-1-.7-4.4-2.3-8.4-3-3.6-.8-8.8-1-13 2-.1.1-.2 0-.3-.1-.1-.1 0-.3.1-.3 4.3-3.1 9.6-2.9 13.2-2.2 4.4.8 7.7 2.6 8.5 3.1.1.1.1.2.1.3 0 .1 0 .2-.1.2"/><path id="Fill-202_1_" class="st581" d="M79.7 10.8c-.9 0-2-.5-3-.9-1.3-.6-4.7-1.9-6.2-2.2-2.6-.5-4.5 0-6.8.5-.6.1-1.3.3-2 .4-.5.1-1.4.3-2.3.6-1.3.3-2.5.7-3.1.7-.3 0-.5-.1-.5-.2-.1-.1-.3-.6 1.2-2.7.1-.1.2-.1.3 0 .1.1.1.2 0 .3-1.1 1.5-1.3 2.1-1.2 2.3h.1c.5 0 1.8-.4 3-.7.9-.2 1.8-.4 2.3-.6.7-.1 1.3-.3 2-.4 2.3-.5 4.3-1 7-.5 1.6.3 5 1.6 6.3 2.2 1.5.7 2.7 1 3.2.8.1 0 .1-.1.1-.1.2-.5-.4-2.1-.7-2.7-.1-.2-.1-.3-.2-.4 0-.1 0-.2.1-.3.1 0 .2 0 .3.1 0 .1.1.2.2.4.5 1.1.9 2.4.7 3-.1.2-.2.3-.4.4 0-.1-.2 0-.4 0"/><path id="Fill-204_1_" class="st581" d="M19 80.8c-.1 0-.2-.1-.2-.2-.2-1-.1-1.8.4-2.5.6-1 1.8-1.3 2.3-1.3.1 0 .2.1.2.3 0 .1-.1.3-.2.3-.5 0-1.5.4-2 1.1-.4.6-.5 1.2-.3 2 0 .1 0 .2-.2.3"/><path id="Fill-206_1_" class="st581" d="M90.6 85.8c-.3 0-.6-.1-.8-.3-.1-.1-.1-.2-.1-.3.1-.1.2-.1.3-.1.3.2.6.3.9.1.7-.2 1.4-1 1.8-2 .8-2 .6-4.7-.1-6.2 0-.1 0-.2.1-.3.1-.1.2 0 .3.1.7 1.6.9 4.4.1 6.5-.5 1.2-1.2 2-2.1 2.3-.1.1-.2.2-.4.2"/><path id="Fill-208_1_" class="st581" d="M59.6 17.8c-.2 0-.3 0-.4.1-.3.3 0 1.9.4 3.1.2.4.2.9.2 1.3 0 .5 0 1.1.3 1.4.3.4 1 1.2 2.1 2 .1.1.3.2.4.3 1.1.8 2.4 1.7 3.7 2.1 2.2.6 4.3-.9 6.2-2.6l.2-.1c.6-.5 2.3-1.9 2.4-2.6.2-.7.1-1 .1-1.5 0-.2 0-.4-.1-.7v-.7c0-.6.1-1.3-.1-1.7-1.1 0-2.2-.1-3.1-.3-1.3-.2-1.9-.6-2.4-.9-.6-.3-1.1-.7-2.3-.7-.5 0-1.1.3-1.7.7-.4.2-.7.4-1.1.5-.9.3-1.6.5-2.7.5-.4 0-.9-.1-1.2-.1-.3-.1-.6-.1-.9-.1m7.7 11c-.4 0-.7 0-1.1-.1-1.4-.4-2.8-1.4-3.9-2.2-.1-.1-.3-.2-.4-.3-1.1-.8-1.8-1.6-2.2-2.2-.3-.5-.3-1.1-.3-1.7 0-.4 0-.9-.1-1.2-.3-.8-.9-3-.3-3.6.3-.3.9-.2 1.6-.1.4.1.8.1 1.2.1 1 0 1.6-.2 2.6-.5.3-.1.6-.3 1-.5.7-.4 1.3-.8 2-.7 1.3.1 1.9.4 2.5.8.5.3 1.1.7 2.3.9.9.2 2 .3 3.2.3.1 0 .2 0 .2.1.3.5.2 1.3.2 2.1v1.4c0 .5.1 1-.1 1.7s-1.4 1.8-2.6 2.8l-.3.1c-1.1 1-3.2 2.8-5.5 2.8"/><path id="Fill-210_1_" class="st581" d="M75.9 18.8h-.1c-.1-.1-.2-.2-.1-.3.2-.4.3-.8.5-1.3.3-.9.5-1.7 1.1-2.3.1-.1.2-.1.3 0 .1.1.1.2 0 .3-.5.5-.8 1.3-1 2.1-.2.5-.3 1-.5 1.4 0 0-.1.1-.2.1"/><path id="Fill-212_1_" class="st581" d="M59.5 17.8c-.1 0-.1-.1-.2-.2 0 0-.3-2.6-.7-3.5 0-.1 0-.3.1-.3.1-.1.2 0 .2.1.4.9.7 3.5.7 3.6.1.1.1.2-.1.3.1 0 0 0 0 0"/><path id="Fill-214_1_" class="st581" d="M46.9 69.8c-.3 0-.5-.3-.7-.6-.2-.3-.4-.6-.5-.5-.2.1-.3.2-.4.4-.2.2-.3.5-.7.6-.2.1-.4-.1-1-.5-.2-.1-.5-.3-.6-.4-.4-.1-.7.1-1 .3-.3.2-.5.4-.9.4-.7.1-.8-.7-1-1.3-.1-.4-.2-.8-.4-.9-.1 0-.4.3-.5.4-.3.3-.5.5-.8.5-.1 0-.2 0-.3-.2-.4-.5-.4-3.7-.4-8.9v-1c0-2.6-.1-6.3-.1-6.4 0-.1.1-.2.2-.2s.2.1.2.2c0 0 .1 3.8.1 6.4v1c0 3.7 0 8.2.3 8.6.1 0 .3-.2.4-.4.3-.3.6-.6.9-.5.5.1.6.7.8 1.2.1.7.3.9.5.9s.5-.2.7-.3c.4-.3.7-.6 1.4-.4.2 0 .4.2.8.4.2.1.5.3.6.4.2-.1.3-.2.4-.4.1-.2.3-.5.6-.6.5-.2.8.3 1.1.7.1.1.2.3.3.4.4-.7.4-10.9.2-17.2 0-.1.1-.2.2-.2s.2.1.2.2c.1 2.8.3 16.5-.3 17.4 0 .4-.1.5-.3.5"/><path id="Fill-216_1_" class="st581" d="M46.3 91.8c-.1 0-.2-.1-.2-.2s.1-5.7.1-8.6v-.5c0-.7.1-2.3-.2-2.7-.1.1-.2.3-.3.5-.3.5-.6 1.1-1.1.9-.4-.2-.5-.7-.7-1.2-.1-.4-.2-.9-.4-.9s-.3.3-.5.6c-.3.5-.6 1.1-1.3.8-.6-.3-.7-.7-.9-1.1-.1-.3-.2-.5-.4-.7 0 0-.1-.1-.1 0-.1 0-.2.2-.3.4-.2.2-.3.5-.6.5-.1 0-.2 0-.4-.1-.2-.2-.4-.7-.5-1.1-.1-.2-.2-.4-.2-.5 0-.1-.1-.1-.1-.2-.3 1.5-.3 9.2-.3 14 0 .1-.1.2-.2.2s-.2-.1-.2-.2c0 0-.1-3.5 0-7 0-7.2.4-7.4.5-7.6.1-.1.2-.1.3-.1.2 0 .3.3.4.5 0 .1 0 .1.1.1.1.1.2.4.2.6.1.3.3.8.4.9.1 0 .2-.2.2-.3.2-.2.4-.5.7-.6.2 0 .3 0 .4.2.3.3.4.6.5.9.1.4.2.7.6.9.2.1.4-.1.7-.6.2-.4.5-.9.9-.8.5.1.7.7.8 1.2.1.4.2.8.4 1 .1 0 .4-.5.5-.7.2-.4.4-.7.6-.8.1 0 .2 0 .3.1.4.4.4 1.8.4 3.1v.5c0 2.9-.1 8.6-.1 8.6.2-.1.1 0 0 0"/></g></g></svg>