<svg width="17" height="15" xmlns="http://www.w3.org/2000/svg"><path d="M8.73 0c2.507 1.723 5.004 3.46 7.53 5.156.524.351.749.714.74 1.345a287.767 287.767 0 00-.003 7.565c.008.68-.201.987-.927.926a8.907 8.907 0 00-1.476 0c-.635.053-.865-.158-.853-.807.037-2.113.003-4.227.024-6.34.004-.405-.123-.648-.467-.875-1.485-.98-2.96-1.978-4.42-2.995-.341-.238-.574-.219-.905.012a192.025 192.025 0 01-4.42 2.994c-.358.234-.451.491-.448.883.016 2.138-.008 4.276.018 6.413.007.53-.154.744-.709.715-.613-.033-1.23-.016-1.846-.006-.402.007-.567-.154-.566-.56.01-2.784.013-5.57-.002-8.356-.002-.444.281-.626.586-.834C3.003 3.588 5.419 1.938 7.836.288 7.95.208 8.101.16 8.137 0h.591z" fill="#F99702"/></svg>