<?xml version="1.0" encoding="utf-8"?>
<!-- Generator: Adobe Illustrator 25.4.1, SVG Export Plug-In . SVG Version: 6.00 Build 0)  -->
<svg version="1.1" id="Layer_4" xmlns="http://www.w3.org/2000/svg" xmlns:xlink="http://www.w3.org/1999/xlink" x="0px" y="0px"
	 viewBox="0 0 270 215" style="enable-background:new 0 0 270 215;" xml:space="preserve">
<style type="text/css">
	.st0{fill-rule:evenodd;clip-rule:evenodd;fill:#FFFFFF;fill-opacity:0.53;}
	.st1{filter:url(#Adobe_OpacityMaskFilter);}
	.st2{fill-rule:evenodd;clip-rule:evenodd;fill:#FFFFFF;}
	
		.st3{mask:url(#mask-2_00000103943395783477152440000014918085474092736702_);fill-rule:evenodd;clip-rule:evenodd;fill:#FFFFFF;fill-opacity:0.53;}
	.st4{fill-rule:evenodd;clip-rule:evenodd;fill:#FFEDDE;}
	.st5{fill-rule:evenodd;clip-rule:evenodd;fill:#A5ACBC;}
	.st6{fill-rule:evenodd;clip-rule:evenodd;fill:#9F7A63;}
	.st7{fill-rule:evenodd;clip-rule:evenodd;fill:#92837A;}
	.st8{fill-rule:evenodd;clip-rule:evenodd;fill:#5E6472;}
	.st9{fill-rule:evenodd;clip-rule:evenodd;fill:#C3BAA9;}
	.st10{fill-rule:evenodd;clip-rule:evenodd;fill:#332E3C;}
	.st11{fill-rule:evenodd;clip-rule:evenodd;fill:#2F3541;}
	.st12{fill-rule:evenodd;clip-rule:evenodd;fill:#FA9700;}
	.st13{fill-rule:evenodd;clip-rule:evenodd;fill:#9BD090;}
	.st14{fill-rule:evenodd;clip-rule:evenodd;fill:#E0B38F;}
	.st15{fill-rule:evenodd;clip-rule:evenodd;fill:#B1B9C1;}
	.st16{fill-rule:evenodd;clip-rule:evenodd;fill:#AB8165;}
	.st17{fill-rule:evenodd;clip-rule:evenodd;fill:#9BD091;}
	.st18{fill-rule:evenodd;clip-rule:evenodd;fill:#5B2714;}
	.st19{filter:url(#Adobe_OpacityMaskFilter_00000103966396136647742810000004445682164994737289_);}
	.st20{mask:url(#mask-4_00000058568927241839584410000004312142721811568292_);fill-rule:evenodd;clip-rule:evenodd;fill:#5B2714;}
</style>
<g id="Group-405" transform="translate(1282 2124)">
	<path id="Fill-1_00000076593029438330292260000011618648292703885750_" class="st0" d="M-1174.8-2086.8c2.4-0.9-1-5.6-5.7-6.6
		c-4.6-1-7.1,1.1-7.1,1.1s-2.7-6.6-10.8-6.7c-7.6-0.1-10.2,7.1-10.2,7.1s-3.6-2.1-7.3-1.7c-5.8,0.7-9.8,6-7.2,6.9
		c2,0.7,13.7,0.7,25.2,0.7C-1187-2086.1-1176.3-2086.2-1174.8-2086.8"/>
	<g id="Group-5" transform="translate(0 59)">
		<defs>
			<filter id="Adobe_OpacityMaskFilter" filterUnits="userSpaceOnUse" x="-1252.9" y="-2124" width="32.9" height="8.9">
				<feColorMatrix  type="matrix" values="1 0 0 0 0  0 1 0 0 0  0 0 1 0 0  0 0 0 1 0"/>
			</filter>
		</defs>
		
			<mask maskUnits="userSpaceOnUse" x="-1252.9" y="-2124" width="32.9" height="8.9" id="mask-2_00000103943395783477152440000014918085474092736702_">
			<g class="st1">
				<path id="path-1_00000083052672124971343670000010750299386735418540_" class="st2" d="M-1253-2123.9h33v8.9h-33V-2123.9z"/>
			</g>
		</mask>
		<path id="Fill-3_00000091727223018769816430000016273122394602233268_" class="st3" d="M-1220.5-2115.7c1.6-0.6-0.7-3.8-3.7-4.5
			c-3.1-0.7-4.7,0.7-4.7,0.7s-1.8-4.5-7.2-4.5c-5-0.1-6.7,4.8-6.7,4.8s-2.4-1.4-4.8-1.1c-3.8,0.5-6.5,4-4.8,4.7
			c1.3,0.5,9.1,0.5,16.7,0.5C-1228.6-2115.2-1221.5-2115.4-1220.5-2115.7"/>
	</g>
	<path id="Fill-6" class="st0" d="M-1135.6-2071.6c1.9-0.7-0.8-4.3-4.5-5.1s-5.7,0.8-5.7,0.8s-2.1-5.1-8.7-5.2
		c-6.1-0.1-8.2,5.5-8.2,5.5s-2.9-1.6-5.9-1.3c-4.6,0.5-7.8,4.6-5.8,5.3c1.6,0.5,11,0.6,20.2,0.5
		C-1145.4-2071-1136.8-2071.2-1135.6-2071.6"/>
	<path id="Fill-8" class="st4" d="M-1214.7-2054.8c0-0.4-0.7,0.1-0.7,0.1s-2.7,1.9-3.5,2.5s-2.3,1.9-3.4,2.9c-1,0.9-1.6,1.5-1.6,1.5
		s0.4,0.6,0.5,0.6c0.6,0.8,1.2,1.5,1.9,2.2c2.6,2.4,5.6,4.3,8.2,6.7c1.4,1.3,3,3.9,4.9,4.4c0.3,0.1,0.6-0.1,0.9-0.1
		c0.4,0.1,1.1,0.3,1.5,0c1.6-1.1,1.1-3.6,0.7-5.3c-0.9-4.2-2.2-8.3-5.1-11.4c-0.9-1-2-1.8-3.1-2.7
		C-1214-2053.8-1214.7-2054.2-1214.7-2054.8"/>
	<path id="Fill-10" class="st4" d="M-1198-2022.4c0,0,0.7,1.3,1.3,2.5c0.7,1.3,1.3,2.6,1.3,3.2c0.1,0.8,0.2,1.5,0.4,2.3
		c0.4,1.3,0.9,2,0.7,3.4c-0.1,0.4-0.3,1.8,0.2,2c0.3,0.1,0.4-0.2,0.5-0.4c0.3-0.6,0.4-1.2,0.4-1.8c0-0.1,0-0.8,0.3-0.7
		c0.2,0.1,0.4,0.5,0.4,0.7c0.3,0.8,0.2,1.6,0.5,2.4c0.1,0.2,0.2,0.9,0.6,0.8c0.2-0.1,0.2-0.5,0.2-0.7c0-0.5-0.5-2,0.3-2.1
		c0.2,0,0.3,0.4,0.4,0.5c0.3,0.6,0.5,1.2,0.8,1.8c0.1,0.1,0.4,0.7,0.7,0.6c0.3-0.2,0.2-0.3,0.2-0.5c-0.1-0.9-0.6-2.1-0.8-3
		c-0.1-0.2-0.3-0.9,0.1-0.9c0.3,0,0.6,0.6,0.7,0.7c0.5,0.6,0.8,1.1,1.1,1.5c0.3,0.4,0.6,0.5,0.8,0.4c0.1-0.1,0.2-0.1-0.2-1.1
		s-0.8-2-1.4-2.8c-0.5-0.7-1.6-1.7-2.1-2.5s-0.7-1.1-1.1-2c-0.4-1-0.7-1.9-1-2.9l-0.7-2.8c0,0-0.8-0.1-1.2-0.2
		c-0.3,0-0.6,0.1-0.9,0.1c-0.3,0.1-0.6,0.2-0.9,0.4C-1197.2-2023.2-1198-2022.4-1198-2022.4"/>
	<path id="Fill-12_00000003103037326740655890000017601615741562001079_" class="st4" d="M-1183-2014.1c0,0,0.7,2,0.9,2.5
		c0.7,2.2,0.9,3.7,1.3,6c0.2,0.8,0.8,2,0.9,2.8c0.2,1.2-0.4,2.5,0.3,3.5c0.3,0.4,0.9-0.4,0.9-0.5c0.2-0.3,0.3-1.5,0.6-2.2
		c0.2-0.3,0.4-0.5,0.7-0.4c0.8,0.3,2.2,1.5,2.6,2.2c0.4,0.8,0.9,2,1.1,2.5c0.2,0.3,0.6,0.4,0.6,0.4s1.4,0.2,1.5,0.2
		c0.9,0.2,0.2-1.7,0.2-1.7v-0.9c-0.1-0.7-0.3-2.3-0.5-2.9c-0.3-0.7-0.6-1.5-1.3-2c-0.3-0.3-0.4-0.7-0.6-1c-1.1-1.2-1.9-2-2.6-3.5
		c-0.5-1.1-0.7-2.4-0.8-3.6c-0.1-0.5-1.3-2.3-1.3-2.3s-0.5,0.4-0.6,0.5c-0.4,0.2-0.8,0.5-1.3,0.6c-0.6,0.2-1.3,0.1-1.9,0
		C-1182.4-2014-1183-2014.1-1183-2014.1"/>
	<path id="Fill-14_00000157302013504894574510000007053738098259774112_" class="st4" d="M-1179.4-2038.6c0.2,0.1,0.7,0.7,1,0.6
		c0.5-0.1,0.6-0.7,1.2-0.7c1.3,0.1,2.7,0.6,3.8,0.5c1.1-0.2,2-0.2,2.3-0.7c0.5-0.9-0.4-2.5-0.7-3.5c-0.6-1.9-1.6-3.9-3.3-4.6
		c-1-0.4-2-0.3-3-0.5c-0.5-0.1-1.8-1.5-1.8-1.5s0.2,2.5,0.2,3.1c0,2.2-0.1,7-0.1,7S-1179.6-2038.7-1179.4-2038.6"/>
	<path id="Fill-16_00000062893865617410576100000005521648158647436201_" class="st5" d="M-1211.4-2101.9c0.2,0.1,0.2,0.4,0.2,0.6
		c-0.1,0.2-0.2,0.5-0.3,0.4c-0.1-0.1-0.3-0.8-0.2-0.9C-1211.7-2101.9-1211.5-2102-1211.4-2101.9 M-1211.6-2104
		c-0.6,0-1.2,0.5-1.4,1.5c-0.3,1.5,0.7,3.1,0.7,3.1s0,8.2,0.2,16c0.1,5.1-0.1,9.5,0.9,13c1,4,3.5,5,5.1,5.6c2,0.8,3,0.8,3,0.8
		s3.7,0.2,5.5-0.4c0.2-0.1,2.3-0.8,3.7-1.9c0.9-0.8,1.2-1.4,1.6-3.1c0.5-2.3,0.5-5.2,0.2-7.9c-0.3-2.6-1.1-5-1.3-5
		c-0.2-0.1-1.6,6.7-1.6,6.7s1.2-1.3,1.5,0.2c0.3,1.3-0.4,5.6-0.6,6.1c-1.1,2.9-4.8,3.4-4.8,3.2c0,0-2.9,0.3-4,0.2
		c-1.3-0.2-3.2-0.7-4.7-1.9c-1-0.8-1.8-2.1-2.3-3.6c-0.5-1.9-0.6-4-0.7-6.5c-0.1-2.3-0.2-5.1-0.3-7.7c-0.1-7-0.1-14.1-0.1-14.1
		s1-1.4,0.6-2.9C-1210.6-2103.7-1211.2-2104-1211.6-2104"/>
	<path id="Fill-18_00000024687451918538636960000015714534701289603482_" class="st6" d="M-1180.2-2047.5c0,0,0.4,0.5,0.8,0.6
		s0.9,0.5,1.5,0.6c0.6,0.2,1.6-0.1,1.9,0.6c0.2,0.4-0.1,0.9-0.1,1.4c0.1,0.8,0.5,1.5,1.1,2c0.8,0.7,3.3,0.9,3.3,2.1
		c0.1,0.8-0.6,1-1.3,1.2c-0.2,0.1-1,0.2-1,0.2s0.6,0.9,1.6,1c1.6,0.1,2.3-0.9,2.8-1.4c0.7-0.9,1-1.9,1.5-3.1
		c0.6-1.5,1.1-3.1,1.1-4.6c-0.1-1-0.6-1.9-0.9-2.8c-0.3-0.9-0.2-1.5-0.8-2.2c-2.4-2.7-5.6-2.2-8.6-1c-1,0.4-1.8,1.3-2.5,1.6
		c-0.7,0.4-1.3,0.5-1.3,0.5s0.4,1.6,0.6,2.3C-1180.3-2048.5-1180.2-2047.5-1180.2-2047.5"/>
	<path id="Fill-20_00000073718023255901151080000000072544528869201542_" class="st7" d="M-1241.9-1983c0,0-1.1,0.7-1.5,0.9
		c-1.4,0.7-2.6,0.8-3.6,2.2c-0.5,0.7-1,2.3-1.2,3.2c-0.3,1.7-0.7,3.7-1.2,5c-0.2,0.6-0.4,1.3-0.5,1.9c-0.2,1.4,0.9,2.9,2.3,4.1
		c0.8,0.7,1.7,1.5,2.6,1.6c0.6,0.1,1.2-1.3,1.3-1.7c0.5-1.4,1-3.2,1.6-4.5c0.8-1.7,1-2.5,2.1-4c0.3-0.5,2.1-2.8,2.1-2.8
		s-0.9-3.8-1.9-4.9C-1240.5-1982.6-1241.9-1983-1241.9-1983"/>
	<path id="Fill-22_00000036951953921421205650000016383635176300312708_" class="st7" d="M-1240.4-1985c0,0-0.8-0.8-0.9-1.1
		c-0.9-1.2-1.1-3.5-1-5c0.1-2.1-0.9-4.3-0.5-6.5c0.1-0.3,0.3-0.8,0.6-1.1c0.6-0.6,1.7-0.9,2.6-1.3c1-0.5,1.9-1,1.9-1
		s0.7,1.2,0.9,1.4c0.7,0.7,2.9,1.4,3,2.4c0.2,1.3-0.8,2.4-1.1,3.7c-0.1,0.6-0.4,1.8-0.2,2.5c0.1,0.3,0.2,1.2,0.2,1.2l-1.4,1.4
		c-0.6,0.5-1.5,1.3-2.3,2C-1239.5-1985.8-1240.4-1985-1240.4-1985"/>
	<path id="Fill-24_00000095301193017648363660000012932332853439623074_" class="st8" d="M-1214.8-2053.6l-3.7,2.7
		c0,0-1-4.2-0.1-4.8c1.5-0.9,3.1-1.2,5.4-1.8c1.6-0.4,3.8-1.1,5.3-2.1c1-0.6,2.4-1.7,3.3-2.6c1.1-1.2,1.9-2.2,1.9-2.2
		s0.8-0.2,1.3-0.8c0.4-0.6,0.5-1.4,0.5-1.4s1-0.7,1.7-0.2c1.3,0.9,2.7,2.7,5.1,4.9c1.8,1.6,4.2,2.9,6.3,4.2c1.8,1.1,3.5,2,4.8,3.3
		c1.9,1.9,2.5,5.3,2.7,6.4c0.1,0.4,0.3,2.8,0.2,5.6c-0.1,3.8-0.4,8.7,0.1,13.6c0.5,4,1.1,5.8,1.9,8.8c0.4,1.6,0.7,4.6,0.9,6.4
		c0.1,1.1,0.3,1.2,0.2,1.9c-0.2,1-1.6,1.6-2.9,1.7c-0.8,0.1-1.5-0.2-2.2-0.4c-0.7-0.3-1.8-4.1-2.6-6.8c-0.5-1.9-1.3-4.3-1.7-6.2
		c-0.4-2.3-0.5-4.6-0.9-7c-0.6-3.6-1.5-7.1-1.5-7.1l-6.9,0.9c0,0-0.5,1.7-0.8,2.8c-0.3,0.8,0.4,2.4,0.4,2.4l0.8,5.1l0.6,2.3
		c0,0-1.4-0.3-3.1,0.3c-1.3,0.4-1.9,1.5-1.9,1.5s-0.4-0.6-1.2-2.6c-0.8-2-2-5.4-2-5.4l-0.4-3.6c0,0-0.6,0.5-1.1,0.8
		s-0.9,0.2-0.9,0.2s-0.1-2.3-0.8-5.4c-0.5-2-1.4-4.4-2.4-6.4c-1-2.2-2.3-4.4-3.5-5.9C-1213.5-2052.6-1214.8-2053.6-1214.8-2053.6"/>
	<path id="Fill-26_00000016058690615119194780000002657926220229037742_" class="st9" d="M-1222.2-2047c0,0,2.5,0.1,5.6,1.4
		c1.1,0.5,2.4,1.2,3.6,2.1s2.3,1.8,3.3,2.8c1.1,1.1,2.1,2.5,2.9,3.6c0.4,0.6,1,1.4,1.3,2c0.5,0.9,0.6,1.5,0.6,1.5s-0.4,0.6-0.6,1.2
		s-0.3,1.5-0.5,2.2c-0.2,0.6-0.4,1.1-0.5,1.6c-0.6,2.9-1.7,7.2-3.1,12.1c-0.6,2.2-1.3,4.6-2.1,7c-1.4,4.4-2.7,9.1-4.6,12.9
		c-0.9,1.7-2.6,2.9-3.8,4.3c-2,2.1-4.7,4.4-6.9,6c-1.8,1.3-2.9,1.8-4.4,2.9c-1.1,0.8-2.4,2.8-3.2,3.5c-0.5,0.4-1,0.7-1.4,1
		c-0.6,0.6-0.8,1.2-1.1,1.5c-0.5,0.5-0.7,0.4-0.7,0.4s-0.5-0.6-0.9-1.7s0.1-1.8-0.8-2.9c-0.8-1.1-2.5-1.5-2.5-1.5s0.3-0.7,1.5-1.8
		c1.2-1.2,3.4-3.1,3.4-3.1l5.7-6.5c0,0,3.1-2.3,4.8-4.1c1.7-1.7,1.6-2,1.9-2.8s0.3-1.5,0.3-1.5s-0.5,0.4-1.3,0.8c-1,0.5-2.4,1-3.8,2
		c-1.6,1-2.9,2.5-4.1,3.4c-0.8,0.7-1.3,0.9-1.3,0.9s0.5-0.9-0.2-1.7c-0.6-0.9-1.5-0.9-2.4-1.8s-1.1-1.7-1.1-1.7s-0.3-0.2,0.5-0.9
		c0.4-0.4,1.3-0.9,2.2-1.5c1.4-1,2.5-2.8,3.9-4.5c0.6-0.8,2-2,2.5-2.5c2.2-2.3,2.9-2.3,2.6-4.7c-0.3-1.9-1.6-7.4-1.8-9.3
		c-0.2-1.4-0.2-4.2-0.3-5.5c-0.1-1.3-0.7-3.3-0.7-4.4c0-3,0.9-5.1,2.1-6.9c1.1-1.7,2.4-3,2.4-3s0.9-1.5,1.6-2.1
		C-1223-2046.9-1222.2-2047-1222.2-2047"/>
	<path id="Fill-28_00000127006739849318813020000003390247804267014079_" class="st10" d="M-1222.7-2047c-0.1,0-0.2-0.1-0.2-0.1
		c-0.1-0.1-0.1-0.3,0-0.4c2.5-2.3,5.5-4.6,8.5-6.5c0.1-0.1,0.3-0.1,0.4,0.1c0.1,0.1,0.1,0.3-0.1,0.4c-3,1.9-6,4.2-8.4,6.4
		C-1222.6-2047.1-1222.6-2047-1222.7-2047"/>
	<path id="Fill-30_00000018924325157017179170000018113621831141090434_" class="st10" d="M-1171.6-1996.1c-0.3,0-0.6-0.3-0.9-0.9
		c-0.1-0.1,0-0.3,0.1-0.4s0.3,0,0.4,0.1c0.2,0.4,0.4,0.5,0.4,0.5s0.1-0.1,0.1-0.4c0.1-0.3-0.1-2.7-0.1-3c-0.2-1.4-0.6-2.1-1.5-3.7
		c-0.4-0.7-0.9-1.4-1.5-2.1c-0.7-0.9-1.5-1.8-1.8-2.7c-1.1-2.4-1.3-4.7-1.5-7.3c0-0.2,0.1-0.3,0.3-0.3s0.3,0.1,0.3,0.3
		c0.2,2.5,0.5,4.7,1.5,7.1c0.4,0.9,1.1,1.7,1.8,2.6c0.6,0.7,1.2,1.4,1.5,2.1c0.9,1.5,1.3,2.3,1.6,3.9c0.1,0.3,0.2,2.7,0.1,3.2
		c-0.1,0.6-0.4,0.9-0.5,0.9L-1171.6-1996.1"/>
	<path id="Fill-32_00000126324442112241584600000003670256535964691351_" class="st10" d="M-1180.6-2010.1c-1.1,0-2.3-0.4-2.7-1.5
		c-0.1-0.2-0.1-0.3-0.2-0.6c-0.6-1.6-1.7-4.5-2.8-9.3c-0.7-2.6-0.9-4.8-1.1-7c-0.2-1.6-0.4-3.1-0.7-4.7c-0.6-3.1-1.6-7.2-2.1-8.5
		c-0.1-0.2,0.1-0.3,0.2-0.3c0.2-0.1,0.3,0.1,0.3,0.2c0.5,1.4,1.5,5.5,2.1,8.6c0.3,1.7,0.5,3.1,0.7,4.8c0.3,2.1,0.5,4.3,1.1,6.9
		c1.2,4.7,2.2,7.6,2.8,9.2c0.1,0.2,0.2,0.4,0.2,0.6c0.5,1.3,2.3,1.2,2.7,1.2c1-0.1,1.9-0.5,2.3-1c0.1-0.2,0.3-0.4,0.2-0.7
		c-0.2-1-0.3-2.6-0.5-3.9c-0.2-1.2-0.3-2.2-0.3-2.5c-0.3-1.7-0.7-3.2-1-4.8c-0.4-1.7-0.8-3.4-1.1-5.2c-0.5-3.3-0.4-7.7-0.2-11.6
		c0.1-1.2,0.1-2.4,0.1-3.4c0.1-2-0.2-4.8-0.8-6.7c-0.8-2.4-2.2-4.2-4.2-5.3c-2.2-1.3-6.5-3.9-9.4-6.2c-1-0.9-1.9-1.8-2.7-2.7
		c-0.6-0.7-1.1-1.3-1.6-1.6c-0.4-0.3-1.1-0.3-1.7,0v0.2c-0.1,0.3-0.1,0.9-0.4,1.3c-0.4,0.5-1.1,0.7-1.3,0.8
		c-1.5,1.9-3.1,3.4-4.8,4.5c-2.9,1.8-5,2.3-6.9,2.6c-1.4,0.3-2.7,0.6-4.2,1.4c-0.1,0.1-0.3,0-0.4-0.1s0-0.3,0.1-0.4
		c1.6-0.8,2.9-1.1,4.4-1.4c1.9-0.4,4-0.8,6.7-2.6c1.7-1.1,3.3-2.6,4.7-4.5c0.1-0.1,0.1-0.1,0.2-0.1c0,0,0.8-0.2,1.1-0.7
		c0.3-0.3,0.3-0.7,0.3-1c0-0.2,0.1-0.4,0.2-0.6c0.6-0.3,1.6-0.5,2.3,0c0.5,0.4,1,1,1.7,1.7c0.7,0.8,1.6,1.8,2.7,2.6
		c2.9,2.4,7.1,4.9,9.3,6.2c2.2,1.3,3.6,3.1,4.5,5.7c0.6,2,0.8,4.8,0.8,6.9c0,1-0.1,2.2-0.1,3.4c-0.2,3.9-0.3,8.3,0.2,11.4
		c0.3,1.8,0.7,3.5,1.1,5.2c0.4,1.5,0.7,3.2,1,4.8c0.1,0.3,0.2,1.3,0.3,2.5c0.2,1.3,0.3,2.9,0.5,3.9c0.1,0.3-0.1,0.7-0.3,1
		c-0.5,0.7-1.5,1.2-2.7,1.3L-1180.6-2010.1"/>
	<path id="Fill-34_00000181789499543867390870000003098427122203868826_" class="st10" d="M-1173.5-1997c-0.1,0-0.3-0.1-0.5-0.2
		c-0.2-0.2-0.4-0.7-0.5-1.3c-0.2-0.5-0.3-1.1-0.6-1.6c-0.4-0.6-0.8-1.1-1.3-1.5c-0.6-0.6-1.2-1.2-1.6-2c-0.1-0.1,0-0.3,0-0.4
		c0.1-0.1,0.2-0.1,0.3,0.1c0.4,0.7,0.9,1.3,1.5,1.8c0.5,0.5,1,1,1.4,1.6c0.3,0.5,0.5,1.2,0.7,1.7c0.1,0.4,0.3,0.9,0.4,1
		s0.2,0.1,0.2,0.1c0-0.1,0.1-0.2,0-0.5c0-0.2,0-0.4-0.1-0.6c-0.1-0.5-0.1-1.1-0.3-1.5c-0.1-0.3-0.3-0.7-0.5-1.1s-0.3-0.7-0.5-1.1
		c0-0.1,0-0.3,0.1-0.4s0.2,0,0.3,0.1c0.1,0.3,0.3,0.7,0.5,1.1s0.3,0.7,0.5,1.1c0.2,0.5,0.3,1.1,0.3,1.7c0,0.2,0,0.4,0.1,0.6
		c0.1,0.7-0.1,1-0.2,1.1C-1173.3-1997.1-1173.4-1997-1173.5-1997"/>
	<path id="Fill-36_00000108269366173348906280000015868198669314562735_" class="st10" d="M-1179.3-1998c-0.1,0-0.3-0.1-0.4-0.2
		c-0.4-0.3-0.4-1.1-0.3-2.1c0-0.4,0.1-0.8,0.1-1.2c0-0.8-0.2-1.3-0.4-1.7c-0.1-0.3-0.2-0.6-0.3-1c-0.2-0.6-0.3-1.4-0.4-2.2
		c-0.2-0.9-0.3-1.7-0.5-2.4c-0.5-1.9,0-0.3-0.6-1.9c-0.1-0.2,0-0.3,0.2-0.4s0.3,0,0.4,0.2c0.6,1.7,0.1,0,0.6,2
		c0.2,0.7,0.3,1.5,0.5,2.4c0.2,0.8,0.3,1.5,0.4,2.1l0.3,0.9c0.2,0.5,0.4,1,0.4,1.9c0,0.5,0,0.9-0.1,1.3c-0.1,0.6-0.1,1.4,0.1,1.5
		l0.1,0.1c0.2-0.1,0.5-0.5,0.7-1.3c0.1-0.2,0.1-0.3,0.1-0.5c0.2-0.7,0.3-1.5,1.2-1.6c0.2,0,0.3,0.1,0.3,0.3c0,0.2-0.1,0.3-0.3,0.3
		c-0.5,0-0.6,0.3-0.7,1.1c-0.1,0.2-0.1,0.4-0.2,0.6c-0.2,0.7-0.5,1.5-1,1.7L-1179.3-1998L-1179.3-1998z"/>
	<path id="Fill-38_00000096041004929377799590000002609722588693200798_" class="st10" d="M-1171.6-1999c-0.1,0-0.2,0-0.2-0.1
		s0-0.2,0.1-0.3c0.3-0.1,0.3-0.5,0-1.7l-0.1-0.4c-0.2-0.9-0.4-1-0.9-1.3c-0.3-0.2-0.7-0.4-1.3-0.9c-0.1-0.1-0.1-0.2,0-0.3
		c0.1-0.1,0.2-0.1,0.3,0c0.5,0.4,0.9,0.7,1.2,0.9c0.6,0.4,0.9,0.6,1.1,1.6l0.1,0.4C-1171-1999.9-1170.8-1999.3-1171.6-1999
		L-1171.6-1999z"/>
	<path id="Fill-40_00000011025550011757790750000013425009040483676075_" class="st10" d="M-1204.7-2032c-0.2,0-0.3-0.2-0.3-0.3
		c0-0.2,0.1-0.3,0.2-0.3c0.7,0.1,1.7-0.9,2.7-1.6c0.8-0.6,1.5-1.3,2.1-1.5c1.6-0.5,3.3-0.6,5-0.7c1.6-0.1,3.2-0.2,4.6-0.6
		c0.1-0.1,0.2,0.1,0.3,0.2c0,0.2,0,0.3-0.2,0.3c-1.5,0.4-3.1,0.5-4.7,0.6c-1.7,0.1-3.4,0.2-4.9,0.7c-0.5,0.2-1.3,0.8-2,1.4
		C-1202.8-2032.9-1203.8-2032-1204.7-2032"/>
	<path id="Fill-42_00000116915113263929725410000009661905142522847918_" class="st10" d="M-1238.7-1976c-0.1,0-0.2-0.1-0.3-0.2
		c-0.1-0.2,0.1-0.3,0.2-0.3c0.7-0.2,0.8-0.4,1.1-0.9c0.3-0.4,0.6-0.9,1.5-1.6s1.4-1.2,1.9-1.9s1-1.3,2-2.1s1.7-1.2,2.5-1.6
		c0.7-0.4,1.4-0.8,2.4-1.5c1.7-1.3,3.6-3,6.2-5.5c0.4-0.4,0.8-0.7,1.1-1c1.4-1.3,2.5-2.2,3.1-3.3c1.4-2.3,2.3-5.1,3.7-9.4
		c0.4-1.2,0.8-2.5,1.3-3.9c1.2-3.4,2.6-9.2,3.9-13.8c0.6-2.4,1.2-4.5,1.5-5.7c0.1-0.2,0.2-0.2,0.3-0.2c0.2,0.1,0.2,0.2,0.2,0.3
		c-0.4,1.3-0.9,3.3-1.5,5.7c-1.2,4.6-2.7,10.4-3.9,13.9c-0.5,1.4-0.9,2.7-1.3,3.9c-1.4,4.3-2.4,7.2-3.8,9.5
		c-0.7,1.1-1.8,2.2-3.2,3.4c-0.4,0.3-0.7,0.7-1.1,1c-2.7,2.5-4.6,4.2-6.3,5.5c-1.1,0.8-1.8,1.2-2.5,1.6s-1.4,0.8-2.4,1.6
		c-0.9,0.8-1.4,1.4-1.9,2c-0.5,0.7-1,1.3-2,2c-0.8,0.5-1.1,1-1.4,1.4s-0.6,0.9-1.4,1.1C-1238.7-1976.1-1238.7-1976-1238.7-1976"/>
	<path id="Fill-44_00000100380756573978867290000016152310464169610169_" class="st10" d="M-1241.8-1982
		C-1241.9-1982-1241.9-1982-1241.8-1982c-0.2-0.2-0.3-0.3-0.2-0.5c0.6-1.3,1.9-2.4,3.2-3.4c0.7-0.7,1.5-1.3,2-1.9l0.6-0.7
		c1.5-1.7,4-4.5,5.2-5.7c0.8-0.8,1.7-1.5,2.5-2.1c1.4-1.1,2.8-2.2,3.9-3.9c1-1.5,0.9-2.8,0.9-4.9c-0.1-1.1-0.1-2.3,0-3.9
		c0.1-1.9,0.3-3.8,0.5-5.7c0.3-2.7,0.5-5.5,0.6-8.7c0.1-2.8-0.3-5.6-0.7-8.3c0-0.2,0.1-0.3,0.2-0.3c0.2,0,0.3,0.1,0.3,0.2
		c0.4,2.7,0.7,5.6,0.7,8.4c-0.1,3.2-0.3,6-0.6,8.8c-0.2,1.9-0.4,3.8-0.5,5.7c-0.1,1.5-0.1,2.8,0,3.8c0.1,2.1,0.1,3.6-1,5.2
		c-1.1,1.7-2.5,2.8-4,4c-0.8,0.7-1.7,1.3-2.5,2.1c-1.2,1.1-3.7,4-5.2,5.7l-0.6,0.7c-0.6,0.7-1.3,1.3-2.1,2c-1.2,1-2.5,2.1-3.1,3.3
		C-1241.6-1982.1-1241.7-1982-1241.8-1982"/>
	<path id="Fill-46_00000178170925423504371810000006626192799832320135_" class="st10" d="M-1235.7-1996c-0.1,0-0.2-0.1-0.3-0.2
		c-0.1-0.2,0-0.3,0.1-0.4c0.5-0.3,1.2-0.8,1.9-1.5c0.8-0.7,1.6-1.5,2.7-2.3c1.3-0.9,2-1.2,2.8-1.6c0.6-0.3,1.2-0.5,2.1-1.1
		c0.1-0.1,0.3,0,0.4,0.1s0,0.3-0.1,0.4c-0.9,0.5-1.5,0.8-2.1,1.1c-0.8,0.4-1.5,0.7-2.8,1.6c-1,0.7-1.8,1.5-2.6,2.2
		S-1235.1-1996.3-1235.7-1996L-1235.7-1996z"/>
	<path id="Fill-48_00000046341162256906193410000007031464758027234463_" class="st10" d="M-1227.5-2014c-0.2,0-0.3-0.1-0.3-0.3
		c-0.1-1-0.4-2.7-0.9-4.4c-0.4-1.6-0.8-3.5-1.2-5.5c-0.1-0.7-0.2-1.9-0.3-3.2c-0.1-1.6-0.3-3.5-0.5-4.5c-1-4.2,0.2-7.8,3.5-11.1
		l0.3-0.3c0.4-0.3,1.1-1,1.6-1.5c0.3-0.3,0.5-0.6,0.7-0.9c0.6-0.8,1.1-1.5,2.3-1.4c0.2,0,0.3,0.2,0.3,0.3c0,0.2-0.2,0.3-0.3,0.3
		c-0.8-0.1-1.1,0.3-1.7,1.2c-0.2,0.3-0.5,0.6-0.8,0.9c-0.5,0.5-1.2,1.2-1.6,1.5l-0.2,0.2c-3.2,3.1-4.3,6.5-3.3,10.6
		c0.2,1.1,0.4,2.8,0.5,4.5c0.1,1.2,0.2,2.4,0.3,3.2c0.4,2,0.8,3.8,1.2,5.5c0.5,1.9,0.8,3.5,0.9,4.5
		C-1227.2-2014.1-1227.3-2014-1227.5-2014"/>
	<path id="Fill-50_00000000923730572887526370000002452252032242212779_" class="st10" d="M-1238.8-2000
		C-1238.8-2000-1238.9-2000-1238.8-2000c-0.2-0.1-0.2-0.3-0.2-0.4c0.5-1,1.1-1.5,2.2-2.2l0.3-0.2c0.7-0.4,1.7-1.6,2.3-2.6
		c1.4-2.2,4.1-5.2,6.8-7.6c0.1-0.1,0.2-0.1,0.3,0.1c0.1,0.1,0,0.3,0,0.4c-2.7,2.3-5.3,5.3-6.7,7.5c-0.5,0.8-1.6,2.1-2.4,2.7
		l-0.3,0.2c-1.1,0.7-1.6,1-2.1,2C-1238.6-2000.1-1238.7-2000-1238.8-2000"/>
	<path id="Fill-52_00000160907327594656146910000014530092357074003850_" class="st10" d="M-1245.7-1964c-0.2,0-0.3-0.1-0.3-0.3
		c0-0.2,0.2-0.3,0.3-0.3c0.8,0,1.5-2.4,1.7-3.1c0.1-0.2,0.1-0.3,0.1-0.4c0.9-2.5,2.6-6.1,5.4-8.8c0.1-0.1,0.3-0.1,0.4,0
		s0.1,0.3,0,0.4c-2.7,2.6-4.3,6.1-5.2,8.6c-0.1,0.1-0.1,0.2-0.1,0.4C-1244-1965.8-1244.6-1964-1245.7-1964"/>
	<path id="Fill-54_00000134237828408094885630000013635374645838203015_" class="st10" d="M-1246.2-1979.5c-0.3,0-0.6,0.2-1,0.6
		c-1.1,1.1-1.5,3.4-1.8,5l-0.1,0.5c-0.1,0.6-0.4,1.2-0.6,1.8c-0.5,1.2-1.1,2.5-0.4,3.6c0.8,1.3,3.8,3.6,4.4,3.6
		c0.8-0.1,0.8-1.1,0.6-2.8c0-0.6-0.1-1.2-0.1-1.9c0.1-2.4,0.6-4.2,1.3-6.2c0.6-1.7-0.2-2.9-0.9-3.4c-0.1-0.1-0.3-0.2-0.4-0.3
		C-1245.5-1979.3-1245.9-1979.5-1246.2-1979.5 M-1245.7-1964c-1.1,0-4.2-2.6-4.9-3.8c-0.8-1.3-0.2-2.7,0.4-4
		c0.3-0.6,0.5-1.2,0.6-1.7l0.1-0.5c0.3-1.6,0.7-4,1.9-5.2c1.2-1.2,2.2-0.6,2.9-0.1c0.1,0.1,0.2,0.2,0.4,0.3c0.9,0.6,1.9,2,1.2,3.9
		c-0.6,2-1.2,3.7-1.3,6.1c0,0.6,0,1.2,0.1,1.9C-1244.4-1965.6-1244.4-1964.1-1245.7-1964"/>
	<path id="Fill-56_00000089550707011501705350000008085195629044573109_" class="st10" d="M-1245.8-1980
		C-1245.8-1980-1245.9-1980-1245.8-1980c-0.2-0.2-0.2-0.4-0.1-0.5c0.8-1.4,1.7-1.8,2.6-2.2c0.6-0.3,1.3-0.6,1.9-1.3
		c0.1-0.1,0.2-0.1,0.3,0.1c0.1,0.1,0,0.3,0,0.4c-0.7,0.7-1.4,1-2.1,1.3c-0.9,0.4-1.7,0.8-2.4,2
		C-1245.6-1980.1-1245.7-1980-1245.8-1980"/>
	<path id="Fill-58_00000066513951355727077780000005281795164911795098_" class="st10" d="M-1245.9-1965c-0.1,0-0.3-0.1-0.2-0.3
		c0-0.2,0.1-0.3,0.2-0.3s0.2-0.1,0.2-0.1c0.3-0.3,0.2-1.3,0.2-1.7v-0.2c-0.1-2.3,0.1-5.7,0.8-8.1c0.2-0.8,0.3-1.5,0.3-1.8
		c-0.1-0.8-0.8-1.6-1.6-2c-0.4-0.2-0.6-0.2-0.7-0.1s-0.2,0.1-0.3,0c-0.1-0.1-0.1-0.3,0-0.4c0.3-0.3,0.8-0.2,1.1,0
		c0.8,0.4,1.7,1.3,1.8,2.4c0,0.5-0.2,1.4-0.3,2c-0.6,2.3-0.8,5.6-0.7,7.9v0.2c0,0.6,0.1,1.7-0.3,2.1
		C-1245.5-1965.1-1245.6-1965-1245.9-1965"/>
	<path id="Fill-60_00000039848005030950270350000005580525004442019497_" class="st10" d="M-1241.7-1984c0,0-0.1-0.1-0.2-0.1
		c-1.4-1.9-1.5-3.4-1.5-5.5c0-1.2-0.1-2.5-0.4-4.2c-0.7-4,0.3-4.9,0.9-5.1c0.9-0.3,1.8,1,2.2,1.9c0.4,1.1,0.6,2.5,0.6,4.2
		c0,1.2,0.1,4.1,1,5.8c0,0.1,0,0.3-0.1,0.4s-0.2,0.1-0.3-0.1c-0.9-1.8-1.1-4.8-1.1-6.1c0-1.7-0.1-3-0.5-4c-0.3-0.8-1-1.8-1.6-1.7
		c-0.8,0.3-1,1.9-0.6,4.5c0.3,1.8,0.4,3.1,0.4,4.3c0.1,2,0.1,3.4,1.4,5.1c0.1,0.1,0.1,0.3,0,0.4
		C-1241.6-1984-1241.6-1984-1241.7-1984"/>
	<path id="Fill-62_00000093891302389838221740000013259131793052972961_" class="st10" d="M-1236.5-1989c-0.1,0-0.3-0.1-0.3-0.2
		c-0.4-1.8,0.1-4.5,1.2-6.6c0.1-0.2,0.3-0.2,0.5-0.2c0.2,0.1,0.3,0.2,0.2,0.4c-1.2,2.3-1.4,4.8-1.1,6.2
		C-1236.1-1989.2-1236.3-1989-1236.5-1989"/>
	<path id="Fill-64_00000108306730937318601980000013550447425682639029_" class="st10" d="M-1243.8-1998c-0.1,0-0.1,0-0.2-0.1
		s-0.1-0.3-0.1-0.4c0.5-0.6,1.1-0.8,1.8-1.1c0.7-0.3,1.5-0.6,2.7-1.4c0.1-0.1,0.3-0.1,0.4,0.1c0.1,0.1,0.1,0.3-0.1,0.4
		c-1.3,0.8-2.2,1.2-2.8,1.5c-0.7,0.3-1.2,0.5-1.6,0.9C-1243.6-1998-1243.7-1998-1243.8-1998"/>
	<path id="Fill-66_00000129170191973295622620000015764608641933492905_" class="st10" d="M-1239.3-1987c-0.1,0-0.2-0.1-0.2-0.1
		c-0.9-1.5-1.4-3.6-1.4-5.9c0-2,0-3.7-0.5-4.7c-0.2-0.4-0.6-1.1-1-1.4c-0.3-0.2-0.5-0.3-0.8-0.3c-0.2,0.1-0.3,0.2-0.4,0.3
		c-0.1,0.1-0.2,0.2-0.4,0.1c-0.1-0.1-0.2-0.2-0.1-0.4c0.2-0.3,0.4-0.6,0.8-0.6c0.4-0.1,0.8,0.1,1.2,0.4c0.5,0.4,0.9,1.3,1.1,1.7
		c0.5,1.1,0.5,2.8,0.5,5s0.4,4.2,1.3,5.5C-1239.1-1987.3-1239.1-1987.1-1239.3-1987C-1239.2-1987.1-1239.2-1987-1239.3-1987"/>
	<path id="Fill-68_00000038394254577866550670000014011494553892217010_" class="st10" d="M-1238.2-1978L-1238.2-1978
		c-0.7-0.5-0.8-1.2-1-1.9c-0.2-1.1-0.4-2.2-2.6-2.7c-0.1,0-0.2-0.1-0.2-0.3c0-0.1,0.1-0.2,0.3-0.2c2.5,0.5,2.7,1.8,2.9,3
		c0.1,0.6,0.2,1.2,0.7,1.7c0.1,0.1,0.1,0.2,0,0.3C-1238.1-1978-1238.2-1978-1238.2-1978"/>
	<path id="Fill-70_00000034798677865205099250000007872576618580092094_" class="st10" d="M-1235.5-1996c-0.2,0-0.3-0.2-0.2-0.3
		c0.5-1.2,0-1.4-1.1-2.1l-0.3-0.2c-1.5-0.8-1.8-1.5-1.9-2.2c0-0.1,0.1-0.2,0.2-0.3c0.1,0,0.2,0.1,0.3,0.2c0.1,0.7,0.3,1.2,1.6,1.9
		l0.3,0.2c1.2,0.6,2,1,1.3,2.6C-1235.3-1996-1235.4-1996-1235.5-1996"/>
	<path id="Fill-72_00000049925478542448569910000018294013742882086295_" class="st10" d="M-1180.1-2038c-0.4-0.1-0.7-0.5-0.9-1.1
		c0-0.2,0-0.4,0.1-0.6c0.1-0.1,0.2,0,0.3,0.2c0.1,0.4,0.3,0.6,0.4,0.6s0.1,0,0.2-0.2c0-0.1,0-0.2,0.1-0.2c0.3-0.6,0.6-1,1.6-0.6
		c0.1,0.1,0.2,0.3,0.2,0.5c0,0.3-0.1,0.4-0.3,0.4c-0.8-0.3-0.9,0-1.1,0.4c0,0.1-0.1,0.2-0.1,0.3
		C-1179.8-2038.1-1179.9-2038-1180.1-2038"/>
	<path id="Fill-74_00000106126262062798406700000006642268278220216226_" class="st10" d="M-1175.3-2039h-0.2
		c-0.6-0.4-0.6-1.5-0.6-1.7c0-0.1,0.2-0.2,0.3-0.2c0.2,0,0.3,0.1,0.3,0.2c0,0.5,0.1,1.2,0.3,1.4c0.1,0.1,0.1,0.2,0,0.3L-1175.3-2039
		"/>
	<path id="Fill-76_00000130631491795408628390000012615149071404462509_" class="st10" d="M-1176.5-2045h-0.2
		c-0.1-0.1-0.1-0.2,0-0.3c0.2-0.2,0.3-0.5,0.2-0.7c-0.1-0.3-0.4-0.5-0.7-0.5c-0.4,0-1.4,0.3-1.4,0.9c0,0.1-0.1,0.2-0.2,0.2
		s-0.2-0.1-0.2-0.2c0-1,1.3-1.3,1.9-1.3c0.5,0,0.9,0.3,1.1,0.8c0.1,0.2,0.2,0.7-0.3,1.2C-1176.4-2045.1-1176.4-2045-1176.5-2045"/>
	<path id="Fill-78_00000126318868213791465650000014093681037092022458_" class="st10" d="M-1177.7-2045c-0.1,0-0.2-0.1-0.2-0.3
		c0-0.2,0-0.3,0.1-0.4c0.3-0.1,0.4-0.3,0.4-0.3c0.1-0.1,0.2-0.1,0.3,0c0.1,0.1,0.1,0.3,0,0.5
		C-1177.1-2045.4-1177.3-2045.3-1177.7-2045"/>
	<path id="Fill-80_00000141420206150936332590000000284865460167382673_" class="st10" d="M-1168.7-2040c-0.1,0-0.2-0.1-0.2-0.2
		c-0.1-1,0.2-2,0.6-3.3c0.7-2.1,1.5-4.4,0.1-7.1c0-0.1,0-0.3,0.1-0.4c0.1-0.1,0.2-0.1,0.3,0.1c1.5,2.9,0.6,5.5-0.1,7.6
		c-0.4,1.1-0.7,2.1-0.6,2.9C-1168.5-2040.2-1168.6-2040.1-1168.7-2040"/>
	<path id="Fill-82_00000101784988144388745340000009333900420744297858_" class="st10" d="M-1180.7-2052c-0.1,0-0.3-0.1-0.3-0.2
		c0-0.2,0.1-0.3,0.2-0.3c0.7-0.1,1.4-0.6,2.2-1.2c1.5-1,3.4-2.3,6.2-2.3c0.1,0,0.3,0.1,0.3,0.3s-0.1,0.3-0.3,0.3
		c-2.6,0-4.4,1.2-5.9,2.2C-1179-2052.6-1179.9-2052.1-1180.7-2052C-1180.6-2052-1180.6-2052-1180.7-2052"/>
	<path id="Fill-84_00000116928859141305547660000011238846943108447105_" class="st10" d="M-1178.3-2045c-0.1,0-0.1,0-0.2-0.1
		s-0.2-0.1-0.2-0.1c-0.5-0.2-1.2-0.5-1.3-1.6c0-0.2,0.1-0.3,0.3-0.3c0.2,0,0.3,0.1,0.3,0.3c0.1,0.8,0.5,0.9,1,1.1
		c0.1,0.1,0.3,0.1,0.3,0.2c0.1,0.1,0.2,0.3,0.1,0.4C-1178.1-2045.1-1178.2-2045-1178.3-2045"/>
	<path id="Fill-86_00000024681661399577282980000004303240446424467372_" class="st11" d="M-1177.6-2040c0.3,0.1,0.5-0.1,0.6-0.3
		c0.1-0.3-0.1-0.6-0.4-0.6s-0.5,0.1-0.6,0.3C-1178-2040.4-1177.9-2040.1-1177.6-2040"/>
	<path id="Fill-88_00000116203621512511713570000007114685675986342283_" class="st10" d="M-1173.9-2038c-0.3,0-0.6-0.1-0.9-0.1
		c-0.1-0.1-0.2-0.2-0.2-0.3c0-0.2,0.1-0.2,0.3-0.2c0.8,0.2,1.6,0.1,2.4-0.3c0.1-0.1,0.2,0.1,0.3,0.2c0,0.2,0,0.3-0.1,0.3
		C-1172.8-2038.1-1173.3-2038-1173.9-2038"/>
	<path id="Fill-90_00000022558256477161616970000002375656402509968518_" class="st10" d="M-1171.3-2040c-0.2,0-0.2-0.2-0.2-0.3
		c0.2-0.6-0.3-0.8-1.3-1.1c-1-0.3-2.4-0.7-2.2-2.4c0-0.1,0.1-0.2,0.3-0.2c0.1,0,0.2,0.1,0.2,0.3c-0.2,1.2,0.6,1.5,1.9,1.9
		c0.9,0.3,1.9,0.6,1.6,1.7C-1171.1-2040-1171.2-2040-1171.3-2040"/>
	<path id="Fill-92_00000057832187328115654820000014045619374944747151_" class="st10" d="M-1171.9-2037c-1,0-1.8-0.4-2.1-1.1
		c-0.1-0.1,0-0.2,0.2-0.3c0.2,0,0.3,0,0.3,0.1c0.2,0.5,0.8,0.8,1.6,0.8c0.9,0,2-0.5,2.4-1.4c0.1-0.1,0.2-0.2,0.3-0.1
		c0.2,0,0.2,0.2,0.2,0.3C-1169.5-2037.5-1170.8-2037-1171.9-2037"/>
	<path id="Fill-94_00000116198932516763244820000010744807472079133106_" class="st10" d="M-1169.3-2052c-0.1,0-0.2-0.1-0.2-0.2
		c-0.3-1.4-1.2-2-3.3-2.3c-0.1,0-0.2-0.1-0.2-0.3c0-0.1,0.1-0.2,0.3-0.2c1.9,0.3,3.2,0.8,3.7,2.7
		C-1169-2052.1-1169.1-2052-1169.3-2052z"/>
	<path id="Fill-96_00000076592159548310627740000006740346540577495209_" class="st10" d="M-1192.7-2011c-0.8,0-1.1-1.1-1.3-1.7
		c-0.1-0.4-0.4-0.8-0.8-1.3s-0.8-1-1.2-1.7c0-0.1,0-0.2,0.1-0.3c0.1,0,0.2,0,0.3,0.1c0.3,0.6,0.7,1.1,1.1,1.6s0.8,0.9,0.9,1.5
		c0.2,1,0.5,1.4,0.9,1.3c0.1,0,0.1-0.1,0-0.7c0-0.3-0.1-0.7-0.1-1c0-0.7,0-0.8-0.3-1.3c-0.1-0.2-0.2-0.5-0.4-0.9
		c0-0.1,0-0.2,0.1-0.3c0.1,0,0.2,0,0.3,0.1l0.4,0.8c0.3,0.5,0.4,0.8,0.4,1.6c0,0.3,0,0.7,0.1,0.9
		C-1192.1-2011.8-1192-2011.2-1192.7-2011L-1192.7-2011"/>
	<path id="Fill-98_00000057844217241925589460000014063791647718494860_" class="st10" d="M-1195.3-2024
		C-1195.4-2024-1195.4-2024-1195.3-2024c-0.2-0.1-0.2-0.3-0.2-0.5c0.1-0.3-0.1-1.2-0.3-2.4c-0.2-0.8-0.3-1.7-0.3-2.6
		c-0.1-1.4-0.3-2.9-0.8-4.1c0-0.1,0-0.3,0.1-0.4s0.2,0,0.3,0.1c0.6,1.4,0.7,2.9,0.9,4.4c0.1,0.9,0.2,1.8,0.3,2.5
		c0.3,1.6,0.5,2.4,0.3,2.8C-1195.2-2024.1-1195.2-2024-1195.3-2024"/>
	<path id="Fill-100_00000068660093992358704220000003007183346917832593_" class="st10" d="M-1189.5-2007c-0.8,0-1.4-1.5-2.1-3.4
		c-0.1-0.2,0.1-0.3,0.2-0.3c0.2-0.1,0.3,0.1,0.3,0.2c0.3,1,1,2.9,1.5,3c0-0.3-0.2-1.1-0.4-1.5c-0.1-0.3-0.2-0.5-0.2-0.7
		c-0.1-0.2-0.6-2.3-0.3-2.6c0.1-0.1,0.2-0.1,0.3-0.1c0.5,0.1,1.5,1.6,1.6,1.9c0.5,0.8,1,1.1,1.1,1.1c0-0.2-0.2-0.6-0.4-0.8
		c-0.2-0.3-0.3-0.6-0.5-1c-0.5-1-0.6-1.5-1.1-2c-0.2-0.2-0.6-0.7-1-1.2c-0.6-0.7-1.2-1.5-1.5-1.8c-1-1.6-1.7-3.7-2.2-5.5
		c-0.1-0.2-0.2-0.7-0.3-1.4l-0.3-1.2c-0.1-0.2,0.1-0.3,0.2-0.3c0.2-0.1,0.3,0.1,0.3,0.2l0.3,1.2c0.2,0.7,0.3,1.2,0.3,1.4
		c0.5,1.8,1.2,3.9,2.2,5.4c0.2,0.3,0.8,1.1,1.5,1.8c0.5,0.5,0.8,1,1.1,1.3c0.5,0.6,0.7,1.1,1.1,2.1c0.1,0.3,0.3,0.7,0.5,1
		c0.3,0.6,0.6,1,0.4,1.3c-0.1,0.1-0.1,0.2-0.3,0.3c-0.4,0.1-1.1-0.2-1.8-1.3c-0.4-0.6-0.7-1.1-1-1.4c0.1,0.4,0.2,1.1,0.3,1.7
		c0.1,0.2,0.2,0.4,0.2,0.7c0.3,1.1,0.6,1.7,0.3,2C-1189.2-2007.1-1189.3-2007-1189.5-2007"/>
	<path id="Fill-102_00000005967768709500963650000002045668054162487432_" class="st10" d="M-1192.8-2008c-0.7,0-0.8-0.8-1.1-2.1
		v-0.2c-0.1-0.2-0.1-0.4-0.1-0.6c-0.1-0.4-0.1-0.8-0.2-1.1c0,0.3-0.1,0.7-0.2,1.1c-0.1,0.3-0.1,0.5-0.2,0.7c-0.1,0.5-0.2,0.9-0.5,1
		c-0.1,0.1-0.2,0.1-0.5,0.1c-0.6-0.2-0.5-1.4-0.5-2.1c0.1-0.8,0.1-1.2-0.2-2.1c-0.1-0.3-0.2-0.6-0.2-0.8c-0.1-0.3-0.2-0.5-0.3-1
		c-0.2-0.5-0.3-1.2-0.3-1.8c-0.1-0.6-0.1-1.1-0.3-1.6c-0.2-0.4-1.3-2.5-2.5-4.8l-0.1-0.3c-0.1-0.1,0-0.3,0.1-0.4s0.3,0,0.4,0.1
		l0.1,0.3c1.4,2.5,2.4,4.4,2.6,4.9s0.3,1.1,0.3,1.7c0.1,0.6,0.1,1.1,0.3,1.6c0.2,0.5,0.3,0.8,0.3,1.1c0.1,0.2,0.1,0.4,0.2,0.8
		c0.3,1,0.3,1.5,0.2,2.3c-0.1,0.9,0,1.4,0.1,1.5c0.1-0.1,0.1-0.4,0.2-0.7c0.1-0.2,0.1-0.5,0.2-0.8c0.2-0.5,0.2-0.9,0.2-1.2
		c0-0.3,0-0.5,0.2-0.6c0.1-0.1,0.2-0.1,0.3-0.1c0.7,0.1,0.8,1,1,1.9c0.1,0.2,0.1,0.4,0.1,0.7v0.2c0.2,0.8,0.3,1.7,0.5,1.7h0.1
		c0.1-0.1,0-0.5,0-0.7c0-0.1-0.1-0.3-0.1-0.4c-0.1-0.8-0.2-1.2-0.1-1.5c0.1-0.2,0.2-0.2,0.3-0.2c0.2,0.1,0.2,0.2,0.2,0.3
		c-0.1,0.2,0,0.8,0.1,1.2c0,0.2,0.1,0.3,0.1,0.4c0.1,0.4,0.1,0.8-0.2,1.1C-1192.4-2008.1-1192.6-2008-1192.8-2008"/>
	<path id="Fill-104_00000062889443683508043660000016845422313818506136_" class="st10" d="M-1199.3-2022c-0.5,0-0.8-0.7-1.2-1.8
		c-0.3-0.9-0.7-2.1-1.1-3.2c-0.3-0.9-0.5-1.6-0.6-1.9c-0.8-2.3-0.8-3.6-0.7-5.8c0-0.2,0.1-0.3,0.2-0.3s0.2,0.2,0.2,0.3
		c-0.1,2.1-0.1,3.4,0.7,5.5c0.1,0.3,0.4,1.1,0.6,2c0.4,1.1,0.8,2.3,1.1,3.2c0.5,1.3,0.6,1.4,0.8,1.4c0.1-0.1,0.2,0,0.3,0.2
		s0,0.3-0.1,0.3C-1199.2-2022-1199.2-2022-1199.3-2022"/>
	<path id="Fill-106_00000161612915702282662120000012600605384906359989_" class="st10" d="M-1196.7-2034h-0.2
		c-0.2,0-0.2-0.2-0.2-0.3c0.2-0.3,0.7-1.2,1.2-2.4c0.1-0.1,0.2-0.2,0.5-0.2c0.2,0,0.3,0.1,0.3,0.3c-0.2,0.6-0.9,2-1.3,2.5
		C-1196.4-2034-1196.5-2034-1196.7-2034"/>
	<path id="Fill-108_00000119828798853513867610000017723525375053499524_" class="st10" d="M-1206.3-2031
		C-1206.4-2031-1206.4-2031-1206.3-2031c-0.2-0.2-0.3-0.3-0.2-0.5c0.2-0.4,0.2-0.7,0.3-1c0.1-0.5,0.1-1,0.6-1.5
		c0.4-0.4-1.3-3-3.1-4.9c-4.7-5.1-9.7-7.6-15-7.6c-0.2,0-0.3-0.1-0.3-0.3c0-0.2,0.1-0.3,0.3-0.3c5.5,0,10.7,2.6,15.5,7.8
		c0.4,0.5,4.2,4.6,3,5.6c-0.4,0.4-0.4,0.7-0.5,1.2c-0.1,0.4-0.1,0.8-0.3,1.2C-1206.1-2031.1-1206.2-2031-1206.3-2031"/>
	<path id="Fill-110_00000049935602383919610490000017097208694764240555_" class="st10" d="M-1205.2-2033c-0.2,0-0.3-0.2-0.3-0.3
		c0.2-1.8-0.8-5.5-1.5-7.4c-1.8-5.2-3.9-8.7-6.7-11.6l-0.3-0.2c-0.8-0.8-3.3-3.4-4.2-2.9c-0.3,0.2-0.7,1,0.1,4.4
		c0.1,0.2-0.1,0.3-0.2,0.3c-0.2,0.1-0.3-0.1-0.3-0.2c-0.7-3-0.7-4.5,0.2-5c1.1-0.7,2.9,1,4.8,3l0.2,0.2c2.9,2.9,5,6.5,6.8,11.8
		c0.5,1.4,1.7,5.5,1.5,7.6C-1205-2033.1-1205.1-2033-1205.2-2033"/>
	<path id="Fill-112_00000181073711864225249540000010581509448430732160_" class="st10" d="M-1198.7-2022L-1198.7-2022
		c-0.2,0-0.2-0.2-0.2-0.3c0.9-1.3,3.5-2,4.8-1.5c0.1,0,0.2,0.2,0.1,0.3c0,0.1-0.2,0.2-0.3,0.1c-1-0.4-3.4,0.1-4.2,1.3
		C-1198.6-2022-1198.7-2022-1198.7-2022"/>
	<path id="Fill-114_00000166658958723497753120000011202920498139401869_" class="st10" d="M-1202.3-2065c-3.7-0.1-6.6-1.6-8.1-4.3
		c-1.1-1.9-1.2-5-1.3-8.3c0-0.5-0.1-1-0.1-1.6c-0.2-5-0.2-14.7-0.2-20.1c0-0.1,0.1-0.2,0.2-0.4s0.3-0.5,0.4-1
		c0.2-0.8,0.2-1.8-0.2-2.4c-0.2-0.2-0.4-0.4-0.7-0.4c-0.4-0.1-0.7,0.1-0.9,0.3c-0.4,0.4-0.4,1.3-0.3,2.4c0.1,0.3,0.2,0.5,0.3,0.8
		c0.1,0.2,0.2,0.4,0.3,0.5c0.1,0.2-0.1,0.3-0.2,0.3c-0.2,0.1-0.3-0.1-0.3-0.2c-0.1-0.2-0.1-0.3-0.2-0.4c-0.2-0.3-0.3-0.5-0.4-1
		c-0.2-0.8-0.3-2.1,0.4-2.9c0.3-0.4,0.7-0.5,1.3-0.4c0.5,0.1,0.8,0.2,1.1,0.6c0.6,0.9,0.4,2.4,0.3,2.9s-0.3,0.9-0.5,1.2l-0.1,0.1
		c0,5.4,0.1,15,0.2,20c0,0.5,0.1,1,0.1,1.6c0.1,3.2,0.2,6.3,1.2,8c1.9,3.3,5.2,4.1,7.6,4.1c0.2,0,0.3,0.1,0.3,0.3
		S-1202.2-2065-1202.3-2065"/>
	<path id="Fill-116_00000132777033569429757540000008243395732163286959_" class="st10" d="M-1196-2065c-0.1,0-0.2-0.1-0.3-0.2
		c-0.1-0.2,0.1-0.3,0.2-0.3c1.9-0.4,3.5-1.2,4.5-2.1c2.3-2,2.6-9.4,0.5-15.2c-0.4,1.3-1.1,3.9-1.5,5.6c0.3-0.2,0.7-0.3,1-0.2
		c0.5,0.2,0.7,0.8,0.7,2c0.1,2.1-0.2,5.9-2,7.2c-1,0.7-2.9,1.4-4.9,1.7c-0.2,0-0.3-0.1-0.4-0.2c0-0.2,0.1-0.3,0.2-0.3
		c1.9-0.3,3.7-0.9,4.7-1.6c1.2-0.9,1.9-3.3,1.8-6.7c0-1.2-0.3-1.4-0.4-1.4c-0.2-0.1-0.5,0.2-0.7,0.3c-0.2,0.2-0.4,0.3-0.6,0.2
		c-0.1-0.1-0.2-0.1-0.1-0.3c0.2-1.2,0.7-3,1.1-4.3c0.8-2.9,0.8-2.9,1.1-3c0.1,0,0.2,0.1,0.3,0.2c2.2,5.6,2.4,14.2-0.4,16.6
		c-1.1,0.9-2.8,1.7-4.8,2.2L-1196-2065z"/>
	<path id="Fill-118_00000005237987534149069720000005363927409123498902_" class="st10" d="M-1203.3-2065c-2.7-0.3-5.1-1.3-6.6-2.7
		c-2.7-2.7-2.8-7.5-2.9-14c0-1-0.1-2-0.1-3c-0.3-10.3-0.1-16-0.1-16c0-0.2,0.2-0.3,0.3-0.3c0.2,0,0.3,0.1,0.3,0.3
		c0,0.1-0.2,5.7,0.1,16c0,1,0.1,2,0.1,3c0.1,6.4,0.2,11,2.8,13.5c1.4,1.4,3.7,2.3,6.3,2.6c0.2,0,0.3,0.2,0.3,0.3
		C-1203.1-2065.1-1203.2-2065-1203.3-2065"/>
	<path id="Fill-120_00000003070519233652343320000018285801627703935884_" class="st10" d="M-1210-2102.4c-0.1,0.1-0.2,0.2-0.2,0.4
		s0.1,0.3,0.2,0.4c0.1-0.1,0.2-0.2,0.2-0.4S-1209.9-2102.3-1210-2102.4 M-1210-2101c-0.6,0-1-0.4-1-1s0.4-1,1-1s1,0.4,1,1
		S-1209.4-2101-1210-2101"/>
	<path id="Fill-122_00000087377894592868558090000012465279456319227804_" class="st10" d="M-1210.5-2102c-0.3,0-0.5-0.1-0.5-0.3
		v-21.4c0-0.2,0.2-0.3,0.5-0.3s0.5,0.1,0.5,0.3v21.4C-1210-2102.1-1210.3-2102-1210.5-2102"/>
	<path id="Fill-124_00000083052289817730186420000016556227199941774503_" class="st10" d="M-1207.7-2053c-0.1,0-0.2-0.1-0.2-0.1
		c-0.1-0.1-0.1-0.3,0.1-0.4c3.2-2.6,5.2-5.5,6.4-9.2c0.1-0.2,0.2-0.2,0.3-0.2c0.2,0.1,0.2,0.2,0.2,0.4c-1.3,3.8-3.3,6.9-6.6,9.5
		H-1207.7"/>
	<path id="Fill-126_00000051356609139765936750000015124704341833655467_" class="st10" d="M-1193.3-2056c-0.1,0-0.2-0.1-0.2-0.1
		c-2.4-2.6-4.5-6.4-4.5-6.5c-0.1-0.1,0-0.3,0.1-0.4c0.1-0.1,0.3,0,0.4,0.1c0,0.1,2,3.8,4.4,6.4c0.1,0.1,0.1,0.3,0,0.4
		C-1193.1-2056.1-1193.2-2056-1193.3-2056"/>
	<path id="Fill-128_00000106835828799771447470000004311229950133339022_" class="st10" d="M-1174.2-2063c0.2,0.2,0.9,0.2,1.2,0.1
		h1.1c0.1-0.1,0.3-0.2,0.5-0.2c0.4-0.2,0.8-0.4,1.2-0.5C-1173.2-2063.5-1174-2063.2-1174.2-2063 M-1170.6-2062.8
		c0.4,0.1,0.9,0.1,1.3,0.1h0.1c1.4,0.2,1.9,0,2-0.2v-0.1c0-0.2,0-0.4-0.1-0.5C-1168.4-2063.4-1169.5-2063.2-1170.6-2062.8
		 M-1170.7-2064.4c-1.7,0-3.4,0.4-5.1,1.1c-0.5,0.2-0.7,0.5-0.7,0.7v0.3c0,0.1,0,0.1,0.1,0.1c0.5-0.3,1.1-0.4,1.7-0.5
		c-0.1-0.2,0-0.4,0-0.4c0.2-1,3.3-1.1,6.3-1c-0.3-0.1-0.5-0.1-0.6-0.2C-1169.6-2064.4-1170.1-2064.4-1170.7-2064.4 M-1168.1-2061.7
		c0.3,0,0.7,0,1.1,0.1c0.1-0.1,0.2-0.1,0.3-0.1c-0.3-0.1-0.5-0.1-0.8-0.1h-0.2C-1167.8-2061.7-1167.9-2061.7-1168.1-2061.7
		L-1168.1-2061.7c-0.1,0-0.2,0.1-0.3,0.1h-0.1C-1168.5-2061.7-1168.3-2061.7-1168.1-2061.7 M-1175.8-2061.8c0.3,0.2,0.6,0.3,0.9,0.5
		c0.2-0.1,0.5-0.3,0.9-0.4c0.4-0.2,0.8-0.3,1.2-0.4c-0.5,0-1,0-1.5,0.1C-1174.8-2062.1-1175.4-2062-1175.8-2061.8 M-1174.2-2061.1
		c0.1,0.1,0.3,0.1,0.4,0.1v-0.1c0-0.1,0-0.2,0.1-0.3c0,0-0.1,0.1-0.2,0.1C-1174-2061.2-1174.1-2061.2-1174.2-2061.1 M-1176.4-2061.5
		c-0.1,0.1-0.1,0.1-0.1,0.2v0.2c0.2,0.3,0.5,0.5,0.9,0.6v-0.2c0-0.1,0-0.1,0.1-0.2L-1176.4-2061.5 M-1172.7-2060.6
		c0.2,0.1,0.3,0.1,0.6,0.1l0.3,0.1l0.6-0.4l0.6-0.3c0.2-0.1,0.5-0.2,0.7-0.2c0,0-0.1-0.1-0.2-0.1h-0.3c-0.1,0-0.1,0-1.1,0.2
		l-0.6,0.1c-0.3,0.1-0.6,0-0.7-0.1c-0.2,0.1-0.4,0.2-0.5,0.2c0,0.1,0.1,0.1,0.1,0.1l0.1,0.1
		C-1172.9-2060.8-1172.8-2060.7-1172.7-2060.6 M-1165.9-2061.3c0.4,0.1,0.7,0.4,0.9,0.8v0.1c0.8-0.2,1.3-0.4,1.4-0.7
		c0.1-1.1-1.3-1.7-2.3-2c-0.3-0.1-0.6-0.2-1-0.2v0.4c0,0.2,0,0.4-0.2,0.5v0.1c0.3,0.1,0.6,0.1,1,0.2h0.1c0.2,0,0.4,0.1,0.5,0.2v0.4
		C-1165.3-2061.4-1165.5-2061.3-1165.9-2061.3 M-1170.9-2060.4l0.3,0.1c0.5-0.1,1.1-0.2,1.7-0.5c0.1-0.1,0.2-0.1,0.2-0.2l-0.1-0.1
		c-0.6,0.1-1.2,0.2-1.7,0.4C-1170.6-2060.5-1170.8-2060.5-1170.9-2060.4 M-1173.7-2060.3h0.2c-0.1-0.1-0.2-0.1-0.3-0.1
		c-0.3-0.1-0.7-0.2-1-0.4l-0.2,0.2c0,0.1,0.2,0.1,0.4,0.2c0.1,0,0.3,0.1,0.4,0.1H-1173.7 M-1168.8-2060.2c1.1,0.1,2.4,0,3.4-0.1
		c-0.3-0.4-0.7-0.4-1.2-0.5c-0.1,0-0.2-0.1-0.4-0.1c-0.1,0.1-0.2,0.1-0.4,0.2l-0.4,0.2C-1168.1-2060.4-1168.4-2060.3-1168.8-2060.2
		C-1168.7-2060.2-1168.8-2060.2-1168.8-2060.2 M-1173-2059.4c0,0,0.1,0.1,0.3,0.1c0.1,0,0.2,0,0.3-0.1v-0.2h-0.2
		C-1172.8-2059.5-1172.9-2059.4-1173-2059.4 M-1169.1-2059.3v0.2c0.3,0,0.6-0.1,0.8-0.1c-0.1,0-0.2-0.1-0.3-0.1L-1169.1-2059.3
		 M-1170.2-2056c0,0-0.1,0-0.1-0.1c-0.1-0.1-0.1-0.2-0.1-0.3c0,0-0.1,0-0.2-0.1s-0.1-0.2-0.1-0.3c0-0.2,0-0.4,0.1-0.5
		c-0.5-0.1-0.5-0.2-0.5-0.3s0-0.3,0.1-0.4c0.2-0.2,0.4-0.3,0.7-0.4c-2,0.1-2.4-0.1-2.5-0.2l-0.2-0.2c-0.1-0.1-0.2-0.2-0.2-0.3
		c-0.1-0.2-0.1-0.4,0-0.5c-0.1,0-0.2-0.1-0.3-0.1h-0.4c-0.2,0-0.3,0-0.5-0.1c-0.8-0.1-1.7-0.4-2.1-1c-0.2-0.3-0.2-0.5-0.1-0.7
		c0-0.2,0.1-0.3,0.2-0.4c-0.2-0.2-0.2-0.5-0.2-0.9c0.1-0.5,0.5-0.9,1.1-1.1c2.3-1,4.8-1.3,6.9-1c0.3,0.1,1.2,0.2,1.8,0.8l0.1,0.1
		c0.5,0.1,1,0.1,1.4,0.3c2.3,0.7,2.7,1.9,2.6,2.7c-0.1,0.7-0.9,1-1.9,1.2c-0.3,0.6-1.6,1-1.6,1c-0.6,0.1-1.4,0.2-2.1,0.3v0.1
		c-0.1,0.4-0.6,0.4-0.9,0.5h-0.2c-0.1,0.1-0.3,0.1-0.5,0.2h0.2c0.1,0,0.3-0.1,0.4,0.1c0,0.1,0.1,0.2,0.1,0.3c0,0.3-0.3,0.4-0.5,0.5
		l0.1,0.1c0.1,0.2,0,0.5-0.1,0.7C-1170.1-2056.1-1170.2-2056-1170.2-2056"/>
	<path id="Fill-130_00000149360184160794741170000005546515055063268010_" class="st12" d="M-1141.4-1949c0,0,1.5-8.3,3.3-19.4
		c0.9-5.5,1.6-13.5,2.6-17.9c1.1-4.8,3.9-7.7,6.9-10c2.5-2,5.3-3.9,5.3-3.9s-1-2.7,0.4-5.1c2.3-3.7,4.7-5.2,4.7-5.2s1.2,1.1,2.1,1.5
		c1,0.4,1.8,0.5,1.8,0.5l1.4,2.8l4.8,5.6c0,0,1.7-3,5.5-6.2c1.6-1.3,3.8-3.2,5.4-4.3c2.2-1.5,4-2.3,4-2.3s-0.7-0.8-1.3-1.7
		c-0.6-0.9-1.1-1.8-1.1-1.8s0.4,0.1,2.1-0.1s3-1,5-0.2c0.7,0.3,1.1,1,1.5,1.5c0.7,1.2,0.8,2.5,2.6,4c1,0.9,2.2,1.1,3.2,1.6
		c1.5,0.7,1.8,1.3,2.7,2.7c1,1.4,1.1,3.2,1.1,3.2s3.8,1.3,7.7,4.4c3.7,2.9,7.7,7.7,8.2,17.6c0.2,2.7,0.3,5.8,0.2,9.7
		c-0.1,4.2-0.4,9.3-0.5,13.5c-0.2,6-0.3,12.3-0.8,17.4c-0.4,4.5-1,8.2-2.2,11.3c-0.8,2.1-2.2,4-3.4,5.1c-1,0.9-1.9,1.1-2.8,1.3
		c-1.1,0.3-2,0.4-2,0.4s0.6,4.2,0.8,8c0.2,3.9-0.1,7.4-0.1,7.4s-13.5,3.6-28.5,3.6s-31.6-3.6-31.6-3.6s-0.1-3.9,0.1-8.8
		c0.3-4.9,1.1-11.1,1.1-11.1l-1.5,0.2c0,0-1,1.3-3.1,2.5c-1.3,0.7-3,1.2-5.6,1.8c-3.3,0.8-7.8,1-11.4,1.3c-3.7,0.3-4.1,0.1-6.8,0.5
		s-3.8,1.2-4.7,1c-0.9-0.3,1.4-2.3,1.4-2.3L-1141.4-1949L-1141.4-1949z"/>
	<path id="Fill-132_00000025417490765745222110000014682318084936891016_" class="st13" d="M-1143-2025.6c0.1-0.4,0.8,0.1,1.9,0
		c2,0,5.1-0.6,7.2-2.4c1.6-1.4,2.6-4,3.1-5.9c0.2-0.8,0.3-1.3,0.4-1.8c0.1-0.7,0.1-1.2,0.3-1.3c0.2-0.1,1.6,0.6,1.6,0.6l6.5,2.4
		l-1.4,4.7c0,0-2,4.1-5.1,6.5c-1,0.7-2.1,1.5-3.1,2c-2.1,1.2-4.1,2-4.4,1.8c-1-0.6-1.5-1.8-3.3-3.3
		C-1141.1-2023.9-1143.1-2025.1-1143-2025.6"/>
	<path id="Fill-134_00000076599970737355320410000011840127738597532842_" class="st13" d="M-1127-2052.5c0,0,2.6-0.7,4.6-2.2
		s3.8-4.3,3.8-4.3s1.3,1.3,2.7,3.1c1.4,1.8,2.9,4.2,2.9,4.2l-7.9,5.7c0,0-1.1-1.5-2.7-3.1C-1125.1-2050.8-1127-2052.5-1127-2052.5"
		/>
	<path id="Fill-136_00000026882506095266465640000003148779644967944630_" class="st14" d="M-1112.1-2005l-0.4,1.2
		c-0.2,0.6-0.1,1.8,0.5,2.4c1.1,1,1.9,1.2,2.7,1.6c0.8,0.4,2.1,0.8,2.1,0.8s1.8-2.5,2.7-3.5c0.9-1,4-3.7,4.5-4.1
		c1.3-1,2.5-2.1,3.8-3c1.4-0.9,4.2-2.3,4.2-2.3s-1-1.2-1.4-1.9c-1-1.4-1.7-3.1-2.1-4.7c-0.2-1-0.5-2.8-0.5-2.8s1.7-1,1.9-1.5
		c0.3-0.6,0.9-1.6,1-2.3c0.2-0.9,0.3-2.3,0.1-3c-0.1-0.7-0.6-1.4-0.9-1.8c-0.6-0.8-1.7-0.4-2.6-0.7c-0.9-0.3-1.8-0.9-2.5-1.5
		c-5-4.6-11.6-10-18.8-8.6c-1.8,0.4-3.7,1.3-5.1,2.6c-0.6,0.5-1.5,0.6-1.7,1.5c-0.6,2.5-0.8,3.8,0,7.1c0.7,3.4,0.8,5.6,1.3,7.8
		s1.3,6,3.5,9.4c1,1.6,1.9,3,3.6,3.9c1,0.5,2.7,1,2.7,1L-1112.1-2005L-1112.1-2005z"/>
	<path id="Fill-138_00000045613715966393654280000000714294243625891235_" class="st15" d="M-1205-1982.8c0,0,0-0.4,0.4-0.7
		c0.4-0.3,1.2-0.5,1.2-0.5l14.5,6.6l1.1,1.4l13.3,34.1l22.2-3.4l15.9,3.3l9.5,6.8l4.7,3.5c0,0,0.2,0.9,0,1.3
		c-0.2,0.5-0.8,0.6-0.8,0.6l-44.4,6.9l-0.9,0.9l-19.2-14L-1205-1982.8L-1205-1982.8z"/>
	<path id="Fill-140_00000106108560846127633490000014976081240073403017_" class="st4" d="M-1162.3-1920.7c-0.3,0.4-2.7,0.7-3.2,0.7
		c-1.7,0.2-7.2-0.9-7.6-1c-2.3-0.3-5-1.2-7.1-1.9c-1.2-0.4-2.2-0.7-3.3-1.3c-0.5-0.3-1.2-0.4-1.6-0.8c-1.1-1.2-1.1-5.8-1.1-5.8
		s-1.2-1.3-1.5-2.6c-0.6-2.2,0.1-4,0.2-6.2c0.1-1,0.3-1.8,0.3-2.8c0-0.4,0.1-1,0.4-1.2c0.4-0.4,0.9-0.4,1.3,0c0.3,0.3,0.5,1,0.5,1.3
		c0,0.2,0.1,0.9,0.1,0.9s0.8,0.4,1,0.6c0.3,0.3,0.7,1.6,0.7,1.6s0.8,0.9,1.2,1.9c0.3,0.6,0.8,3.2,0.8,3.2s0.7,0.1,0.8,0.2
		c0.4,0.5,1.1,2.1,1.3,2.5c0.6,1.3,0.8,2.3,1.6,3.5c0.4,0.5,1.5,1.7,2,2.1c0.8,0.8,1.9,1.6,1.9,1.6s5.2,3.7,5.6,3.5
		c0.3-0.1,0.7-0.6,0.7-0.6l5.3-0.8C-1162-1922.2-1162-1921.1-1162.3-1920.7"/>
	<path id="Fill-142_00000167366829515797512100000015602495994052101781_" class="st4" d="M-1114.6-1944.7c0,0-4.4-0.5-4.5-0.5
		c-1-0.2-3.3-0.7-4.4-0.8c-1.5-0.2-3.7-0.9-5.4-1.6c-1.2-0.5-3.6-1.1-6.2-1.3c-1.9-0.2-8.3,0-10,0.1c-1.6,0.1-3.4,0.3-4.9,0.8
		c-1.6,0.5-2.8,2.1-4,3.2c-0.7,0.7-1.8,1.3-2.2,2.3c-0.1,0.2-0.2,0.6-0.2,0.9c0,0.2,0.6,0.5,0.6,0.5s-1.4,1.1-1.4,1.8
		c0,0.6,0.7,0.4,1.2,0.5c0.1,0,0.9-0.1,0.9-0.1s-0.2,0.8,0.3,1c0.5,0.3,2.1,0,3-0.5c1.7-0.9,3.3-1.9,5.1-2.6
		c1.2-0.5,3.6-0.2,4.9-0.1c0.4,0,1.3,0.4,1.3,0.4s-2.3,0.6-2.7,0.7c-1,0.2-2,0.7-2.7,1.2c-0.6,0.4-1,0.9-1.8,1.3
		c-0.4,0.2-1.7,0.9-2.1,1.2c-0.4,0.2-1.1,0.8-0.7,1.4c0.6,0.9,2.6,0.4,3.4,0c0.7-0.3,1.1-0.4,1.9-0.7c1.6-0.6,3.5-0.8,5.2-0.7
		c1.8,0.2,4.1,0.7,6,1.2c1.5,0.4,3.1,0.5,4.7,0.5c2.6,0,3.9-0.2,6.5-0.1c1.5,0.1,4.4,0.6,5.8,1.1l1.8,0.6c0,0,1.3-2.2,1.6-3.4
		c0.2-1.2,0.4-2.7,0-4.5C-1113.4-1941.7-1114.6-1944.7-1114.6-1944.7"/>
	<path id="Fill-144_00000171713950002218614530000003767707209422136483_" class="st16" d="M-1124.5-2034c0,0-1.5-0.3-2.2-0.8
		c-1.9-1.4-1.4-5.2-0.2-6.9c0.4-0.6,0.9-1,1.3-1.5c0.9-1.2,1.9-2.5,3.1-3.5c0.8-0.6,1.4-1.6,2.1-2.2c2.1-1.8,4.5-4.1,7.2-4.8
		c0.9-0.3,2.5-0.2,3.5-0.1c1.6,0.2,2.8,1.1,4.4,1.5c1.2,0.3,2,0,3.3,0.3c0.9,0.2,1.8,0.3,2.6,0.6c0.4,0.2,1.9,1.5,2.3,1.8
		c0.9,0.8,1.6,2.4,2.2,3.5c0.4,0.7,0.6,1.7,0.7,2.9c0.1,1.1,0.2,2.9,0.3,4.5c0.1,1.6,0,3-0.1,4.2c-0.1,1.5-0.9,4.1-0.9,4.1
		s-0.8-0.3-1.3-0.1c-0.8,0.3-1.6,0.9-2.4,1.3c-0.7,0.3-2.2,0.5-3.3,0.1c-1.4-0.5-1.5-1.1-2.4-2.1c-0.3-0.4-1.2-1.7-1.2-1.7
		s-2.6-0.9-3.8-1.9c-1.1-0.9-2.3-2.6-3.7-2.9c-1-0.3-2.3,0.5-3.3,0.7c-1.2,0.3-2.6,0.5-3.9,0.7c-1.1,0.2-2.5-0.4-3.5,0.4
		C-1124.5-2035.5-1124.5-2034-1124.5-2034"/>
	<path id="Fill-146_00000098921359164267951460000008823294702625132165_" class="st13" d="M-1191-1977.2c0,0,1-1.7,1.3-3.9
		c0.2-2.2-0.4-4.8-0.4-4.8l5.3,0.3c0,0-0.5-7.5,0.7-11.1c0.5-1.5,1-2,1.8-2.5c1.1-0.7,2.4-0.8,2.4-0.8s-0.6,2.7-0.6,5.2
		s0.3,4.6,0.3,4.6s-0.9,0-1.7,0.1c-0.7,0.1-1,0.4-1,0.4s0.3,2.1,1.1,3.2s2.2,1.1,2.2,1.1l-0.3,7.5c0,0-0.4,0.1-1-0.1
		s-1.4-0.7-1.4-0.7l-3.3,5.7l4.3-0.9l3.5,5.2c0,0,5.6-0.1,9.1,0.3c3.4,0.4,4.6,0.9,4.6,0.9s0,3.2-0.3,5.6s-0.9,4.3-0.9,4.3
		s-1.7-0.7-3.2-0.9c-1.5-0.2-2.7,0-2.7,0l-1.6,3c0,0,2.9,0.6,7.1,0.5c4.1,0,9.1-0.8,9.1-0.8s0.4,1.8,0.5,3.6c0,1.8-0.3,3.5-0.3,3.5
		l0.9,0.6c0,0,1.9-1.8,2.4-3.5s-0.4-3.4-0.4-3.4s2.2-1.6,4.2-2.9s3.7-2.3,3.7-2.3s1,1.3,0.7,3.5c-0.2,1-0.7,2.4-1.5,3.6
		c-1.5,2.3-4,4.6-6.4,6.4c-1.7,1.3-3.4,2.2-4.6,2.9c-0.8,0.5-2.6,1.4-3.2,1.6c-4.5,1.9-7.3-1.9-7.3-1.9l1.3-0.7l-6-0.8
		c0,0,0.4,3.3,3,5.4s3.6,1.9,5.7,2.5c2.2,0.6,4.3-0.6,3.5,0.5c-0.7,1.1-4.8,4-4.8,4l-2.2,2.7l-2.8-0.9l-17.7-44.8L-1191-1977.2
		L-1191-1977.2z"/>
	<path id="Fill-148_00000119106916824140596990000017245837463565125815_" class="st17" d="M-1171.5-1997.9c1-0.2,2.7,0.4,2.7,0.4
		l6.1,1.9l-2.2,8.3c0,0,6.1-3,9.3-3.1c3.2-0.1,3.6,2.6,3.6,2.6l-4.5,1.5l-3.6,2.1l-1.5-2.4c0,0-1.4,0.8-2,2s-0.5,2.9-0.5,2.9
		l-3.7,1.5l-3.2,6.2c0,0-3.6-2-5.6-3.5s-2.4-2.5-2.4-2.5l4.7-9.5"/>
	<path id="Fill-150_00000173131968694236864180000002148141455747630255_" class="st17" d="M-1138.2-2009.9c0,0,0.1-0.2,0.6,0.1
		c1,0.5,3.1,2.5,3.4,3.7c0.5,1.8-0.1,5.7-1.3,11.4c-0.7,3.5-4.4,9.6-5.1,10.4c-0.6,0.8-1.7,1.8-2.6,2c-1.6,0.5-2.9,0.1-2.9,0.1
		s0.1-0.9,0.7-3.3s1.6-6.3,1.6-6.3s2,0.3,3.5-0.8c1.5-1.2,2.2-3.6,2.2-3.6s-0.6-0.7-1.4-1c-0.8-0.4-1.8-0.6-1.8-0.6s1.5-2.9,2.3-6
		S-1138.2-2009.9-1138.2-2009.9"/>
	<path id="Fill-152_00000178192516544389931320000016909928117643038655_" class="st17" d="M-1078.2-2042c0.5-1.5,0.7-2.1,1.6-4
		c1.1-2.5,2.9-5.5,4.3-6.9c1-1.1,2.2-1.8,3-2c1.4-0.3,2.3,0.4,2.3,0.4l-3.1,7.2c0,0-1.4-0.6-2.6,0s-2.1,1.9-2.1,2.4
		c0.1,0.6,1.9,1.9,1.9,1.9s-1.6,2.5-2.6,4.8s-1.4,4.3-1.4,4.3s-1.9-1.2-2.2-3.8C-1079.1-2038.8-1078.7-2040.5-1078.2-2042"/>
	<path id="Fill-154_00000086652210613664405740000013000647279088731308_" class="st17" d="M-1114.1-1993.9c0,0,0.8,2.1,2.3,2.9
		s3.7,0.5,3.7,0.5s0.2-0.5,0.2-1.5s-0.3-2.4-0.3-2.4s2,0.2,4.8-0.4s6.5-2.2,6.5-2.2s0.1,1.8-0.4,3.4c-0.2,0.7-0.5,1.7-1.7,2.5
		c-2,1.4-5.5,2.7-7.7,3.2c-3.6,0.8-7.1,1.3-11.6,0.5c-1.2-0.2-2.4-0.8-3-1.5c-1.3-1.3-1.6-2.8-1.6-2.8s0.6-0.4,2.9-0.9
		C-1117.9-1993.1-1114.1-1993.9-1114.1-1993.9"/>
	<path id="Fill-156_00000086656947849096747530000013152820276553437827_" class="st18" d="M-1116.2-1932
		C-1116.3-1932-1116.3-1932-1116.2-1932c-4.5-1.7-7.5-1.5-10.1-1.3c-1.1,0.1-2.2,0.1-3.3,0c-2-0.2-3.7-0.6-5.2-1
		c-1.3-0.4-2.4-0.7-3.4-0.7c-2.3-0.1-3.7,0.1-5.1,0.7l-0.3,0.1c-1.7,0.7-4.2,1.8-5.1,0.5c-0.2-0.3-0.3-0.6-0.2-0.8
		c0.1-0.6,0.7-1,1.6-1.6c0.7-0.4,1.5-1,2.3-1.7c1.4-1.4,3.1-1.9,5-2.3c0.9-0.2,1.7-0.4,2.7-0.8c0.1,0,0.3,0,0.3,0.2
		c0,0.1,0,0.3-0.2,0.4c-1,0.3-1.9,0.6-2.7,0.8c-1.8,0.5-3.4,0.9-4.7,2.2c-0.8,0.8-1.7,1.4-2.4,1.8c-0.7,0.5-1.3,0.8-1.4,1.2
		c0,0,0,0.2,0.1,0.4c0.7,1,3.2-0.1,4.5-0.6l0.3-0.1c1.5-0.6,3-0.8,5.3-0.7c1.1,0.1,2.2,0.4,3.5,0.7c1.5,0.4,3.2,0.9,5.1,1
		c1.1,0.1,2.1,0,3.2,0c2.7-0.2,5.7-0.3,10.2,1.3c0.1,0,0.2,0.2,0.2,0.4C-1116-1932.1-1116.1-1932-1116.2-1932"/>
	<path id="Fill-158_00000096035707153700389100000010041808042672876677_" class="st18" d="M-1091.2-2012c-0.1,0-0.1,0-0.2-0.1
		c-3.3-4.3-3.7-8.5-3.6-8.7c0-0.1,0.1-0.2,0.2-0.2s0.2,0.1,0.3,0.2v0.1c0,0.2,0.3,4.1,3.5,8.2c0.1,0.1,0.1,0.3,0,0.4
		S-1091.2-2012-1091.2-2012"/>
	<path id="Fill-160_00000066503235856076891110000005477766762469189259_" class="st18" d="M-1076.1-1923c-5.6,0-13-0.9-19.2-2.4
		c-4.6-1.1-8.9-2.7-11.7-3.7c-1.6-0.6-2.8-1-3.3-1.1c-3.5-0.7-4.8-1.5-4.7-3c0-0.1,0.1-0.2,0.3-0.2c0.1,0,0.2,0.1,0.2,0.3
		c-0.1,0.8,0.4,1.7,4.3,2.4c0.6,0.1,1.8,0.6,3.4,1.2c2.8,1,7,2.6,11.6,3.7c8.9,2.1,20.4,3,25.1,1.8c8.3-2,8.6-15.8,9.1-36.6v-0.5
		c0-0.6,0.1-1.6,0.1-2.8c0.4-6.9,1.4-22.9-2.7-29.4c-4.3-6.8-9.5-9-15.1-11.4l-4.2-1.8c-0.1-0.1-0.2-0.2-0.1-0.3
		c0.1-0.1,0.2-0.2,0.3-0.1c1.4,0.7,2.8,1.3,4.2,1.8c5.6,2.4,11,4.7,15.3,11.6c4.1,6.6,3.2,22.8,2.8,29.7c-0.1,1.2-0.1,2.2-0.1,2.8
		v0.5c-0.5,21.1-0.8,35-9.4,37.1C-1071.5-1923.2-1073.6-1923-1076.1-1923"/>
	<path id="Fill-162_00000106835044395176223540000001842282823484939448_" class="st18" d="M-1113.3-1931c-0.9-0.4-1.7-0.8-2.5-1.2
		c-0.1-0.1-0.2-0.3-0.2-0.5s0.2-0.4,0.3-0.3c0.8,0.4,1.6,0.7,2.4,1.2c0.1,0.1,0.2,0.3,0.2,0.5S-1113.2-1931-1113.3-1931"/>
	<path id="Fill-164_00000124121796947517086640000012316895121273940141_" class="st18" d="M-1151.5-1936c-0.2,0-0.5,0-0.7-0.1
		c-0.5-0.2-0.7-0.4-0.8-0.8c-0.1-0.8,0.9-1.7,2-2.7c0.3-0.3,0.6-0.5,0.8-0.8c1.3-1.3,3.3-2.8,4.5-3.5c1.6-1,3.5-1,5.3-1h1.2
		c0.1,0,0.2,0.1,0.2,0.3c0,0.2-0.1,0.3-0.2,0.3h-1.2c-1.7,0-3.5,0-5.1,1c-1.2,0.7-3.2,2.3-4.4,3.5c-0.2,0.3-0.5,0.5-0.9,0.8
		c-0.7,0.7-1.9,1.7-1.8,2.2c0,0.2,0.3,0.3,0.5,0.4c1.2,0.4,3.3-1,5.1-2.2c0.7-0.5,1.4-0.9,1.9-1.2c1.6-0.8,5.5-0.4,6.9,0.1
		c0.1,0,0.2,0.2,0.2,0.4c0,0.1-0.2,0.2-0.3,0.2c-1.5-0.5-5.2-0.8-6.6-0.1c-0.5,0.3-1.2,0.7-1.9,1.2
		C-1148.4-1937.2-1150.2-1936-1151.5-1936"/>
	<path id="Fill-166_00000179639587724077671170000004553765304836528537_" class="st18" d="M-1154.8-1938c-0.6,0-1-0.2-1.1-0.6
		c-0.1-0.3,0-0.8,0.3-1.2c0.6-0.8,1.3-1.5,1.9-2.1c0.4-0.5,0.9-0.9,1.2-1.3c1-1.2,3.1-3.3,4.8-3.8c1.5-0.4,4.3-1.1,6.4-0.9
		c0.1,0,0.2,0.1,0.2,0.3c0,0.1-0.1,0.3-0.3,0.2c-2-0.1-4.8,0.5-6.3,0.9c-1.6,0.4-3.7,2.6-4.6,3.6c-0.4,0.4-0.8,0.9-1.3,1.3
		c-0.6,0.6-1.3,1.3-1.9,2.1c-0.2,0.3-0.3,0.5-0.3,0.7c0.1,0.1,0.3,0.2,0.7,0.3c0.3,0,0.9-0.1,1.2-0.3c0.1,0,0.3,0,0.3,0.2
		c0,0.1,0,0.3-0.1,0.3C-1153.8-1938.2-1154.4-1938-1154.8-1938"/>
	<path id="Fill-168_00000171702726295418674440000014968598251634805651_" class="st18" d="M-1078.2-1942L-1078.2-1942
		c-6-3.6-7.3-4.2-18.9-2.6c-4.4,0.6-10.6,0.1-13.6-0.3c-2.8-0.4-3.8-0.3-4.8,0.4c-0.1,0.1-0.3,0.1-0.3-0.1c-0.1-0.1,0-0.3,0.1-0.4
		c1.1-0.8,2.2-0.9,5.1-0.5c3,0.4,9.2,0.9,13.5,0.3c11.8-1.6,13.3-1,19.1,2.6c0.1,0.1,0.2,0.2,0.1,0.4
		C-1078.1-1942-1078.2-1942-1078.2-1942"/>
	<path id="Fill-170_00000141443222203693762610000017561179331139071367_" class="st18" d="M-1155.3-1940c-0.5-0.2-0.7-0.4-0.7-0.8
		c-0.1-0.9,0.9-2,2.2-3.3l0.4-0.4c0.3-0.3,0.5-0.5,0.7-0.8c1.3-1.5,2.5-2.9,6.9-3.2c0.6,0,1.2-0.1,1.9-0.2c2.2-0.3,4.6-0.6,9.1,0.1
		c2.8,0.4,4.2,1,5.9,1.6c1.5,0.5,3.1,1.1,5.9,1.8c0.6,0.1,5,1,6.7,1.1c0.1,0,0.2,0.1,0.2,0.3c0,0.1-0.1,0.3-0.3,0.3
		c-1.8-0.1-6.2-1-6.8-1.1c-2.8-0.6-4.5-1.2-6-1.8c-1.7-0.6-3.1-1.1-5.8-1.6c-4.4-0.7-6.8-0.4-8.9-0.1c-0.7,0.1-1.3,0.2-1.9,0.2
		c-4.2,0.3-5.3,1.6-6.6,3c-0.2,0.3-0.5,0.5-0.7,0.8l-0.4,0.4c-1,1.1-2.2,2.3-2.1,2.8c0,0.1,0,0.2,0.3,0.4
		C-1155.2-1940.4-1155.1-1940.3-1155.3-1940C-1155.1-1940.1-1155.2-1940-1155.3-1940"/>
	<path id="Fill-172_00000118375613480094174470000016243478050909497472_" class="st18" d="M-1136.8-1977c-0.2,0-0.2-0.1-0.2-0.3
		c0.1-0.6,0.2-1.5,0.3-2.1c0-0.3,0.1-0.7,0.1-1c0.3-2.6,0.7-5.5,1.8-7.8c1.9-4.3,4.9-6.7,8-9.2l1.8-1.5c0.6-0.5,1.5-1.2,2.6-2
		c0.1-0.1,0.2,0,0.3,0.1c0.1,0.1,0,0.3-0.1,0.4c-1.1,0.8-2,1.5-2.6,2l-1.8,1.5c-3.2,2.6-6.1,4.8-7.9,9c-1,2.3-1.4,5.1-1.7,7.7
		c0,0.4-0.1,0.7-0.1,1.1c-0.1,0.6-0.2,1.5-0.3,2.1C-1136.6-1977.1-1136.7-1977-1136.8-1977"/>
	<path id="Fill-174_00000173881432663310451960000012176840616709212315_" class="st18" d="M-1138.7-1967c-0.2,0-0.3-0.2-0.3-0.3
		c0.2-1.2,0.4-2.3,0.7-3.3c0.3-1.5,0.6-2.9,0.7-4.1c0-0.1,0.2-0.3,0.3-0.2c0.2,0,0.3,0.1,0.3,0.3c-0.1,1.3-0.4,2.6-0.7,4.2
		c-0.2,1-0.5,2.1-0.7,3.3C-1138.4-1967.1-1138.6-1967-1138.7-1967"/>
	<path id="Fill-176_00000065034512011306292410000006107321317324940438_" class="st18" d="M-1139.8-1949c-0.1,0-0.2-0.1-0.2-0.3
		c0.1-2,0.5-3.5,0.9-5c0.3-1.1,0.6-2.2,0.7-3.5c0-0.2,0.1-0.3,0.2-0.3s0.2,0.2,0.2,0.3c-0.1,1.3-0.4,2.4-0.7,3.6
		c-0.4,1.4-0.8,2.9-0.8,4.8C-1139.6-1949.1-1139.7-1949-1139.8-1949"/>
	<path id="Fill-178_00000162345335256884675870000003971859773036968104_" class="st18" d="M-1173.2-1925c-0.1,0-0.1,0-0.2-0.1
		c-0.5-0.5-1-1-1.5-1.6c-1-0.9-2-1.9-2.7-2.9c-0.5-0.8-1-2.2-1.5-3.5c-0.5-1.5-1.3-3.5-1.8-3.4c-0.4,0-0.5,0.1-0.5,0.2
		c-0.2,0.3,0,1.3,0.3,2.9l0.1,0.6c0.1,0.4,0.1,0.9,0.2,1.3c0.2,1.3,0.4,2.9,0.9,3.9c0.2,0.4,0.6,0.8,1,1.1c0.2,0.2,0.5,0.4,0.6,0.6
		c0.1,0.1,0.1,0.3,0,0.4s-0.3,0.1-0.3,0l-0.6-0.6c-0.4-0.4-0.9-0.8-1.1-1.3c-0.6-1.1-0.8-2.7-1-4.1c-0.1-0.5-0.1-0.9-0.2-1.3
		l-0.1-0.6c-0.4-1.9-0.5-2.8-0.2-3.3c0.2-0.3,0.6-0.4,0.9-0.5c0.9-0.1,1.5,1.6,2.3,3.7c0.5,1.3,0.9,2.6,1.5,3.4
		c0.7,1,1.6,1.9,2.6,2.8c0.6,0.5,1.1,1.1,1.6,1.6c0.1,0.1,0.1,0.3,0,0.4C-1173.1-1925-1173.2-1925-1173.2-1925"/>
	<path id="Fill-180_00000121254508317853252020000016725355973062502564_" class="st18" d="M-1183.4-1927c-0.1,0-0.2-0.1-0.2-0.2
		c-0.6-2.2-0.6-3.8-0.7-5.6c0-0.6,0-1.3-0.1-2.1c-0.1-0.9-0.2-1.9-0.3-2.7c-0.3-1.8-0.5-3.2,0.4-3.4c0.7-0.2,1.3-0.2,2.1,1.4
		c0.6,1.2,0.8,2,1,3c0.1,0.2,0.1,0.5,0.2,0.8c0,0.1,0,0.3-0.2,0.3c-0.1,0-0.3,0-0.3-0.2c-0.1-0.3-0.1-0.5-0.2-0.8
		c-0.2-1-0.4-1.8-1-2.9c-0.7-1.4-1.1-1.3-1.6-1.2c-0.5,0.1-0.3,1.4,0,2.8c0.1,0.8,0.3,1.8,0.3,2.7c0,0.7,0.1,1.4,0.1,2.1
		c0.1,1.8,0.1,3.3,0.6,5.5C-1183.2-1927.2-1183.2-1927-1183.4-1927"/>
	<path id="Fill-182_00000075866405930069514620000012775674333535853502_" class="st18" d="M-1166.4-1920c-1.1,0-2.1-0.2-3.4-0.4
		c-0.4-0.1-0.9-0.2-1.4-0.3c-4-0.7-7.6-1.6-9.3-2.3l-1.5-0.6c-0.8-0.3-1.6-0.6-2.5-1.1c-1.5-0.7-1.8-2.2-1.9-3.5
		c-0.1-1.1-0.2-2.1-0.2-3.1s-0.1-2-0.2-3.1c-0.2-1.5,0.1-3.3,0.3-5.1c0.1-0.7,0.2-1.4,0.2-2.1c0.1-1.4,1-1.5,1.2-1.5
		c0.9,0,1.9,1.1,1.9,2.5c0,0.1-0.1,0.3-0.2,0.3c-0.2,0-0.3-0.1-0.3-0.3c0-1.1-0.8-1.9-1.4-2c-0.5,0-0.7,0.6-0.7,1
		c-0.1,0.7-0.2,1.4-0.2,2.1c-0.2,1.7-0.5,3.5-0.3,4.9c0.1,1.1,0.2,2.1,0.2,3.1s0.1,2,0.2,3.1c0.1,1.2,0.4,2.5,1.6,3.1
		c0.9,0.4,1.7,0.7,2.5,1.1l1.5,0.6c1.7,0.7,5.2,1.6,9.2,2.3c0.5,0.1,1,0.2,1.4,0.3c2.8,0.5,4,0.7,7.4-0.3c0.1,0,0.3,0,0.3,0.2
		s0,0.3-0.2,0.3C-1164-1920.2-1165.2-1920-1166.4-1920"/>
	<path id="Fill-184_00000001651877502033981380000002253609637901429939_" class="st18" d="M-1162-1920c-0.3,0-0.6-0.1-0.9-0.3
		c-0.1-0.1-0.1-0.2,0-0.3c0.1-0.1,0.2-0.1,0.3,0c0.4,0.3,1,0.2,2-0.1c0.9-0.2,2.1-0.5,3.6-0.6c3.7-0.2,14.1-0.8,17.7-1.5
		c6.8-1.3,8.8-4,8.8-4c0.1-0.1,0.2-0.1,0.3-0.1c0.1,0.1,0.1,0.2,0.1,0.3c-0.1,0.1-2.1,2.9-9.1,4.2c-3.6,0.7-14.1,1.3-17.8,1.5
		c-1.5,0.1-2.6,0.4-3.5,0.6C-1161-1920.1-1161.5-1920-1162-1920"/>
	<path id="Fill-186_00000114033284567807339800000014514278963617001871_" class="st18" d="M-1186.3-1931c-0.1,0-0.1,0-0.2-0.1
		c-1.9-3.4-1.6-5.4-1.3-7.5c0.1-0.4,0.1-0.8,0.2-1.3c0.1-0.6,0.1-1.2,0.1-1.7c0.1-1.8,0.2-3.2,1.1-3.4c0.2-0.1,0.5,0,0.6,0.2
		c0.6,0.6,0.7,2.2,0.7,2.4c0,0.1-0.1,0.3-0.2,0.3s-0.2-0.1-0.2-0.2c0-0.4-0.2-1.6-0.5-2c-0.1-0.1-0.2-0.1-0.3-0.1
		c-0.6,0.1-0.7,1.1-0.8,2.9c0,0.5-0.1,1.1-0.1,1.7c0,0.5-0.1,0.9-0.2,1.3c-0.3,2.1-0.6,4,1.3,7.2c0.1,0.1,0,0.3-0.1,0.4
		C-1186.2-1931-1186.2-1931-1186.3-1931"/>
	<path id="Fill-188_00000008133827105235853040000011382769864202777736_" class="st18" d="M-1071.7-1907
		C-1071.7-1907-1071.8-1907-1071.7-1907c-0.3,0-0.4-0.1-0.4-0.3c0.7-4.3,0.2-7.6-0.4-10.9c-0.2-1.2-0.4-2.3-0.5-3.6
		c0-0.1,0.2-0.3,0.4-0.3s0.4,0.1,0.4,0.2c0.1,1.2,0.3,2.4,0.5,3.6c0.5,3.3,1.1,6.7,0.4,11C-1071.4-1907.1-1071.5-1907-1071.7-1907"
		/>
	<path id="Fill-190_00000147191268610970588760000012155364983204185774_" class="st18" d="M-1132.7-1907c-0.2,0-0.3-0.1-0.3-0.3
		c-0.2-7.1,0.5-13,1-16.9c0.2-1.5,0.3-2.7,0.4-3.6c0-0.2,0.1-0.3,0.3-0.3c0.2,0,0.3,0.1,0.3,0.3c0,0.9-0.2,2.1-0.4,3.6
		c-0.5,3.9-1.2,9.7-1,16.8C-1132.4-1907.1-1132.5-1907-1132.7-1907z"/>
	<path id="Fill-192_00000075858773397060873620000005777712284330370996_" class="st18" d="M-1080.6-1966
		C-1080.7-1966-1080.7-1966-1080.6-1966c-0.2,0-0.4-0.1-0.4-0.3c0.1-1.2,0.2-2.3,0.3-3.3c0.2-2.9,0.4-5,1-6.2
		c0.1-0.1,0.3-0.2,0.5-0.2c0.2,0.1,0.3,0.2,0.2,0.4c-0.6,1.1-0.7,3.3-1,6.1c-0.1,1-0.2,2.1-0.3,3.3
		C-1080.3-1966.1-1080.5-1966-1080.6-1966"/>
	<path id="Fill-194_00000113334279803126977780000006051267523303111827_" class="st18" d="M-1083.7-1947c-0.2,0-0.3-0.1-0.3-0.3
		c-0.1-2.4,0.3-3.8,0.7-5.4c0.2-0.9,0.5-1.8,0.7-3.1c0-0.1,0.2-0.3,0.4-0.2c0.2,0,0.3,0.2,0.3,0.3c-0.2,1.3-0.4,2.2-0.7,3.1
		c-0.4,1.6-0.7,3-0.7,5.3C-1083.3-1947.1-1083.5-1947-1083.7-1947L-1083.7-1947z"/>
	<path id="Fill-196_00000140723068812676952900000010982410863493582498_" class="st18" d="M-1077.8-1980c-0.2,0-0.3-0.2-0.2-0.3
		c1.7-7,5.3-10.2,8.6-12.6c0.1-0.1,0.2,0,0.3,0.1c0.1,0.1,0,0.3-0.1,0.4c-3.4,2.5-6.8,5.5-8.4,12.3
		C-1077.6-1980.1-1077.7-1980-1077.8-1980"/>
	<path id="Fill-198_00000101068188893374481700000000846323677475535765_" class="st18" d="M-1132.5-1980c-0.3,0-0.5-0.1-0.5-0.2
		v-1.6c0-0.1,0.2-0.2,0.5-0.2s0.5,0.1,0.5,0.2v1.6C-1132-1980.1-1132.2-1980-1132.5-1980z"/>
	<path id="Fill-200_00000070802516319964723780000002131693698868634802_" class="st18" d="M-1132.2-1969c-0.1,0-0.2-0.1-0.2-0.2
		c-0.2-1.4-0.4-3.1-0.5-4.6c0-0.1,0.1-0.2,0.2-0.2s0.2,0.1,0.3,0.2c0.1,1.5,0.4,3.2,0.5,4.6C-1132-1969.1-1132.1-1969-1132.2-1969"
		/>
	<path id="Fill-202_00000163043839116683662510000017165090773686013065_" class="st18" d="M-1131.2-1956c-0.1,0-0.2-0.1-0.2-0.2
		c-0.1-1.2-0.3-2.6-0.5-4.5c0-0.1,0.1-0.3,0.2-0.3s0.3,0.1,0.3,0.2c0.2,1.9,0.4,3.2,0.5,4.5C-1131-1956.1-1131.1-1956-1131.2-1956"
		/>
	<path id="Fill-204_00000058552927323553256220000006470378194205490622_" class="st18" d="M-1131.6-1948c-0.3,0-0.4-0.1-0.4-0.3
		c0.2-1.3,0.3-2.8,0.1-4.5c0-0.1,0.2-0.2,0.4-0.2s0.4,0.1,0.4,0.2c0.2,1.8,0.1,3.3-0.1,4.6C-1131.2-1948.1-1131.4-1948-1131.6-1948"
		/>
	<path id="Fill-206_00000123438266204579803900000003307793076541248171_" class="st18" d="M-1168.4-1922c-0.2,0-0.6-0.1-1.3-0.7
		l-4.5-3.1c-0.1-0.1-0.1-0.2-0.1-0.4c0.1-0.1,0.2-0.2,0.3-0.1l4.5,3.1c0.3,0.2,0.6,0.4,0.8,0.5c0-0.2-0.2-0.5-0.3-0.8l-20.3-51
		c0,0-0.3-0.6-0.6-1c-0.4-0.4-0.8-0.6-0.8-0.6l-14.1-6.3c-0.3-0.2-0.8-0.3-0.9-0.2c0,0.1,0,0.4,0.2,0.7l17.3,44.8
		c0.1,0.1,0,0.3-0.1,0.3c-0.1,0.1-0.3,0-0.3-0.1l-0.2-0.6l-17.1-44.2c-0.1-0.3-0.4-1,0-1.3c0.3-0.3,1.1,0,1.4,0.2l14.1,6.3
		c0,0,0.6,0.3,1,0.7c0.4,0.5,0.7,1.1,0.7,1.1l20.3,51c0.6,1.2,0.3,1.4,0.2,1.5C-1168.2-1922-1168.3-1922-1168.4-1922"/>
	<path id="Fill-208_00000129885708938172096100000016157459858802988442_" class="st18" d="M-1171.8-1941c-0.1,0-0.2-0.1-0.2-0.3
		c0-0.2,0.1-0.4,0.2-0.5l4.5-1.2c0.1,0,0.2,0.1,0.3,0.3c0,0.2-0.1,0.4-0.2,0.5L-1171.8-1941C-1171.7-1941-1171.8-1941-1171.8-1941"
		/>
	<path id="Fill-210_00000065033530510742793740000015097271945516696239_" class="st18" d="M-1158.7-1943c-0.1,0-0.3-0.1-0.3-0.3
		c0-0.2,0.1-0.4,0.2-0.4l6.4-1.3c0.1,0,0.3,0.1,0.3,0.3c0,0.2-0.1,0.4-0.2,0.4L-1158.7-1943"/>
	<path id="Fill-212_00000180356992410241916220000010323930801540649856_" class="st18" d="M-1167.8-1921c-0.1,0-0.2-0.1-0.2-0.2
		c0-0.2,0.1-0.3,0.2-0.3l2-0.3l42.7-7.2c0,0,0.3,0,0.4-0.3c0.2-0.3,0.2-0.7,0.1-1.3c0-0.2,0.1-0.3,0.2-0.3s0.3,0.1,0.3,0.2
		c0.1,0.8,0.1,1.4-0.2,1.8c-0.3,0.4-0.7,0.5-0.8,0.5L-1167.8-1921C-1167.7-1921-1167.7-1921-1167.8-1921"/>
	<path id="Fill-214_00000077320505143662892820000003452179168252750724_" class="st18" d="M-1168-1922c-0.1,0-0.2-0.1-0.2-0.3
		c0-0.1,0.1-0.3,0.2-0.3c0,0,0.4,0,0.5-0.3c0.1-0.2-0.1-0.9-0.3-1.3l-20-51.4c0,0-0.3-0.6-0.6-1s-0.8-0.6-0.8-0.6l-13.9-6.4
		c-0.5-0.2-1,0-1.5,0.4c-0.1,0.1-0.3,0.1-0.3,0c-0.1-0.1-0.1-0.3,0-0.4c0.7-0.6,1.3-0.8,2-0.5l13.9,6.4c0,0,0.6,0.3,1,0.7
		c0.4,0.5,0.7,1.1,0.7,1.1l20,51.4c0.1,0.2,0.5,1.1,0.3,1.7C-1167.2-1922.1-1167.7-1922-1168-1922"/>
	<path id="Fill-216_00000068658592860538531450000010079750955378217877_" class="st18" d="M-1167.8-1923c-0.1,0-0.2-0.1-0.2-0.2
		s0.1-0.3,0.2-0.3l1.2-0.2l43.3-6.8c0.2,0,0.7-0.1,0.8-0.4c0.1-0.2-0.1-0.4-0.1-0.4l-4.4-3.2c-0.1-0.1-0.1-0.2-0.1-0.4
		c0.1-0.1,0.2-0.2,0.3-0.1l4.4,3.2c0.2,0.2,0.6,0.6,0.3,1.1c-0.3,0.6-1.1,0.6-1.2,0.6L-1167.8-1923
		C-1167.7-1923-1167.7-1923-1167.8-1923"/>
	<path id="Fill-218_00000101086129544615028640000013326201595577134728_" class="st18" d="M-1124.3-2030c-0.1,0-0.3-0.1-0.3-0.2
		c-0.4-1.4-0.6-3.4-0.1-4.6c0-0.1,0.2-0.2,0.4-0.2s0.3,0.2,0.2,0.3c-0.5,1.2-0.3,3.1,0.1,4.4C-1124-2030.1-1124.1-2030-1124.3-2030"
		/>
	<path id="Fill-220_00000052083500571838706720000004102192328892799385_" class="st18" d="M-1113.7-2008c-0.5,0-1,0-1.4-0.2
		c-5.1-1.2-8.6-10.2-8.9-13.6c0-0.1,0.1-0.3,0.2-0.3s0.3,0.1,0.3,0.2c0.3,3.3,3.7,12,8.5,13.2c4.7,1.1,10.2-3.8,11.5-5.9
		c0.1-0.1,0.2-0.1,0.3-0.1c0.1,0.1,0.1,0.2,0.1,0.3C-1104.6-2011.9-1109.4-2008-1113.7-2008"/>
	<path id="Fill-222_00000146498344228894635460000005794316175917363634_" class="st18" d="M-1118.2-2020
		C-1118.2-2020-1118.3-2020-1118.2-2020c-0.8-0.2-1.3-0.5-1.6-0.9c-0.1-0.2-0.2-0.5-0.1-0.7l0.3-0.6c0.4-0.6,0.8-1.4,0.1-2.5
		c-0.1-0.1,0-0.2,0.1-0.3c0.1-0.1,0.2,0,0.3,0.1c0.8,1.3,0.3,2.2-0.1,2.9l-0.3,0.6c0,0.1,0,0.2,0.1,0.4c0.2,0.3,0.7,0.6,1.3,0.7
		c0.1,0,0.2,0.1,0.2,0.2C-1118-2020.1-1118.1-2020-1118.2-2020"/>
	<path id="Fill-224_00000155113032549022339870000007667314255913458355_" class="st18" d="M-1124.8-2028
		C-1124.8-2028-1124.9-2028-1124.8-2028c-0.2-0.2-0.2-0.5-0.1-0.7c0.8-1.9,2-1.6,2.9-0.4c0.1,0.1,0.1,0.4,0.1,0.6
		c-0.1,0.2-0.2,0.2-0.3,0.1c-0.7-0.9-1.7-1.2-2.3,0.3C-1124.7-2028.1-1124.7-2028-1124.8-2028"/>
	<path id="Fill-226_00000174563749594737666930000004639534728083935388_" class="st18" d="M-1115.7-2029
		C-1115.8-2029-1115.8-2029-1115.7-2029c-0.2-0.2-0.2-0.4-0.2-0.6c1.1-2.2,3.5-1.6,4.8-0.3c0.1,0.1,0.1,0.3,0.1,0.5
		c-0.1,0.2-0.2,0.2-0.4,0.1c-1.1-1.1-3.3-1.6-4.1,0.1L-1115.7-2029"/>
	<path id="Fill-228_00000055665194181390554810000018185317510671091123_" class="st18" d="M-1097.2-2021c-0.1,0-0.2-0.1-0.2-0.2
		s0.1-0.3,0.2-0.3c2.1-0.4,3-3.7,2.7-6.5c-0.1-0.6-0.3-2.1-1.4-2.3c-0.8-0.2-1.3,0.4-1.7,1c-0.1,0.1-0.2,0.1-0.3,0
		c-0.1-0.1-0.1-0.3,0-0.4c0.5-0.7,1.2-1.4,2.1-1.1c1,0.2,1.6,1.3,1.8,2.8C-1093.8-2025-1094.8-2021.5-1097.2-2021
		C-1097.1-2021-1097.2-2021-1097.2-2021"/>
	<path id="Fill-230_00000085963104819967886580000000990635257223434172_" class="st18" d="M-1097.6-2027c-0.2,0-0.4-0.1-0.4-0.2
		c0.1-0.9,1.3-1.7,1.4-1.7c0.2-0.1,0.4-0.1,0.5,0s0.1,0.2,0,0.3c0,0-1.1,0.6-1.1,1.4C-1097.3-2027.1-1097.4-2027-1097.6-2027"/>
	<path id="Fill-232_00000053525648678612583670000012246359456412607135_" class="st18" d="M-1114.9-2023.8
		c-0.2-0.5,0.1-1.1,0.6-1.2s1.1,0.2,1.3,0.8c0.2,0.5-0.1,1.1-0.6,1.2S-1114.7-2023.3-1114.9-2023.8"/>
	<path id="Fill-234_00000167378529821972545810000002654047279770517177_" class="st18" d="M-1104.6-2033c-2,0-4.1-0.9-5.2-1.8
		c-0.3-0.2-0.6-0.5-0.8-0.7c-1-0.9-2-1.8-4.2-2.1c-0.1,0-0.2-0.1-0.2-0.2s0.2-0.2,0.3-0.2c2.4,0.3,3.5,1.3,4.5,2.2
		c0.3,0.2,0.5,0.5,0.8,0.7c1.2,1,4,2.1,6.1,1.5c0.1,0,0.3,0,0.3,0.1s0,0.2-0.2,0.3C-1103.6-2033.1-1104.1-2033-1104.6-2033"/>
	<path id="Fill-236_00000124841095972398007770000006620854239699141763_" class="st18" d="M-1101.4-2029c-0.9,0-1.9-0.6-2.5-1.5
		c-0.1-0.1-0.1-0.3,0.1-0.3c0.1-0.1,0.3-0.1,0.3,0.1c0.6,0.9,1.4,1.4,2.3,1.3c0.8-0.1,1.4-0.6,1.8-1.4c0.1-0.1,0.2-0.2,0.3-0.1
		c0.1,0.1,0.2,0.2,0.1,0.3c-0.5,1-1.3,1.6-2.2,1.6H-1101.4"/>
	<path id="Fill-238_00000103234158248502398090000015482415970486393774_" class="st18" d="M-1117.7-2037c-1.6,0-2.7-0.7-3.3-1.6
		c-0.1-0.1-0.1-0.3,0.1-0.4c0.1-0.1,0.3-0.1,0.4,0.1c0.6,0.9,2.1,1.7,4.2,1.2c0.1,0,0.3,0.1,0.3,0.2s-0.1,0.3-0.2,0.3
		C-1116.7-2037.1-1117.2-2037-1117.7-2037"/>
	<path id="Fill-240_00000150103798097177861200000008178586321363614626_" class="st18" d="M-1121.8-2037c-1.2,0-2.7-0.4-3.6-1.1
		c-0.5-0.5-0.7-1-0.6-1.7c0-0.1,0.1-0.2,0.3-0.2c0.1,0,0.2,0.1,0.2,0.3c0,0.5,0.1,0.9,0.5,1.3c0.9,0.8,2.7,1.1,3.7,1
		c0.1,0,0.3,0.1,0.3,0.2s-0.1,0.2-0.2,0.3C-1121.4-2037-1121.6-2037-1121.8-2037"/>
	<path id="Fill-242_00000117672472530806738650000012245735180938869385_" class="st18" d="M-1125.2-2034c-1.7-0.3-2.3-1.2-2.6-1.9
		c-0.4-1.1-0.1-2.3,0.4-3c0.1-0.1,0.2-0.1,0.3,0c0.1,0.1,0.1,0.2,0,0.3c-0.4,0.6-0.7,1.6-0.4,2.6c0.2,0.6,0.8,1.4,2.3,1.7
		c0.1,0,0.2,0.1,0.2,0.2C-1125-2034.1-1125.1-2034-1125.2-2034"/>
	<path id="Fill-244_00000032607646746934220590000013576639329273738916_" class="st18" d="M-1128.7-2042c-0.1,0-0.2-0.1-0.3-0.2
		c0-0.1,0-0.3,0.2-0.3c1.4-0.4,2-0.7,3-2.1c1.2-1.6,3-3.6,5.5-4.4c0.1,0,0.3,0,0.3,0.2c0,0.1,0,0.3-0.2,0.3c-2.3,0.7-4,2.6-5.2,4.2
		C-1126.5-2042.8-1127.1-2042.4-1128.7-2042"/>
	<path id="Fill-246_00000136372881739486421050000013274431262150212239_" class="st18" d="M-1120.8-2050c-0.1,0-0.2-0.1-0.2-0.2
		s0-0.3,0.2-0.3c1.1-0.3,1.9-1.1,2.8-1.8c0.8-0.7,1.7-1.5,2.8-2c2.4-1.1,6.8-1,9.1,0.7c0.1,0.1,0.1,0.2,0.1,0.3
		c-0.1,0.1-0.2,0.1-0.3,0.1c-2.2-1.6-6.4-1.7-8.6-0.7c-1.1,0.5-1.9,1.2-2.7,1.9C-1118.7-2051.2-1119.5-2050.4-1120.8-2050
		C-1120.7-2050-1120.7-2050-1120.8-2050"/>
	<path id="Fill-248_00000000209298539600931280000013813027176160158395_" class="st18" d="M-1094.2-2043c-0.1,0-0.2-0.1-0.2-0.2
		c0-2.1-1.2-5.4-3.4-7.4c-1.4-1.4-3.1-2-4.9-1.8c-0.1,0-0.2-0.1-0.3-0.2c0-0.1,0.1-0.3,0.2-0.3c1.9-0.2,3.7,0.4,5.2,1.9
		c2.2,2.1,3.5,5.6,3.5,7.8C-1094-2043.1-1094.1-2043-1094.2-2043L-1094.2-2043z"/>
	<path id="Fill-250_00000057833765342461803330000002409277646442578321_" class="st18" d="M-1095.7-2030L-1095.7-2030
		c-0.3-0.1-0.4-0.2-0.3-0.4c1-2,1.6-6.1,1.1-9.3c0-0.2,0.1-0.3,0.3-0.3c0.2,0,0.4,0.1,0.4,0.2c0.6,3.3-0.1,7.5-1.1,9.6
		C-1095.4-2030.1-1095.5-2030-1095.7-2030"/>
	<path id="Fill-252_00000128469033050376833730000017193540291109143223_" class="st2" d="M-1113-2018c0,0-0.1,3.7-3.4,4
		c-3.3,0.2-4.6-3.2-4.6-3.2s1.8,0.1,3.8-0.1S-1113-2018-1113-2018"/>
	<path id="Fill-254_00000075875530433627350100000001348747572953377682_" class="st18" d="M-1120.4-2016.6c0.4,0.9,1.6,3.3,3.9,3.1
		c2.4-0.2,2.8-2.9,2.9-3.9c-0.7,0.2-2.2,0.5-3.6,0.6C-1118.5-2016.6-1119.7-2016.6-1120.4-2016.6 M-1116.8-2013
		c-3,0-4.2-3.7-4.2-3.8v-0.2c0.1-0.1,0.1-0.1,0.2-0.1c0,0,1.7,0.1,3.5-0.1s3.8-0.7,3.9-0.7h0.2c0.1,0,0.1,0.1,0.1,0.2
		c0,0-0.1,4.4-3.4,4.7H-1116.8"/>
	<path id="Fill-256_00000036934088293486552060000001372898096787682946_" class="st18" d="M-1122.9-2022.8
		c-0.2-0.5,0.1-1.1,0.6-1.2s1.1,0.2,1.3,0.8c0.2,0.5-0.1,1.1-0.6,1.2C-1122.2-2021.9-1122.8-2022.3-1122.9-2022.8"/>
	<path id="Fill-258_00000106840165383130032980000004476465643363193484_" class="st18" d="M-1112.2-2003c-0.1,0-0.2-0.1-0.2-0.1
		c-0.4-1.3-1.1-2.7-1.6-3.5c-0.1-0.1,0-0.2,0-0.3c0.1-0.1,0.2,0,0.3,0.1c0.5,0.8,1.2,2.2,1.6,3.6
		C-1112-2003.2-1112-2003-1112.2-2003"/>
	<path id="Fill-260_00000124881629052678246270000015954996522860326591_" class="st18" d="M-1156.2-1939c-0.1,0-0.1,0-0.2-0.1
		l-2.3-2.4l-12.2,2.1l-0.1-0.6l12.3-2.1c0.1,0,0.1,0,0.2,0.1l2.4,2.4c0.1,0.1,0.1,0.3,0,0.4C-1156.1-1939-1156.2-1939-1156.2-1939"
		/>
	<path id="Fill-262_00000110444914593170355000000009147976447525686919_" class="st18" d="M-1154.3-1938c-0.1,0-0.1,0-0.2-0.1
		l-0.4-0.4c-0.1-0.1-0.1-0.3,0-0.4s0.3-0.1,0.4,0l0.4,0.4c0.1,0.1,0.1,0.3,0,0.4C-1154.1-1938-1154.2-1938-1154.3-1938"/>
	<path id="Fill-264_00000140003154990346820100000014258296027117781686_" class="st18" d="M-1168.8-1925c-0.1,0-0.2-0.1-0.2-0.2
		s0.1-0.3,0.2-0.3l25-3.7l-9.1-8.3c-0.1-0.1-0.1-0.2,0-0.4c0.1-0.1,0.2-0.1,0.3,0l0.2,0.2l9.3,8.5c0.1,0.1,0.1,0.2,0.1,0.3
		c0,0.1-0.1,0.2-0.2,0.2L-1168.8-1925C-1168.7-1925-1168.7-1925-1168.8-1925"/>
	<path id="Fill-266_00000106846178866241682140000014693392070002765703_" class="st18" d="M-1143.8-1934
		C-1143.9-1934-1143.9-1934-1143.8-1934l-1.1-1c-0.1-0.1-0.1-0.3,0-0.4s0.2-0.1,0.3,0l0.9,0.8l10.6-1.4l0.1,0.3v0.3l-0.7,0.1
		L-1143.8-1934"/>
	<path id="Fill-268_00000022520289048055910530000010256345365756565644_" class="st18" d="M-1148.2-1936
		C-1148.2-1936-1148.3-1936-1148.2-1936l-1.7-1.6c-0.1-0.1-0.1-0.2,0-0.3c0.1-0.1,0.2-0.1,0.3,0l1.6,1.5c0.1,0.1,0.1,0.2,0,0.3
		C-1148.1-1936-1148.1-1936-1148.2-1936"/>
	<path id="Fill-270_00000144313143398948489010000012797145914613190562_" class="st18" d="M-1135.3-2020h-0.2
		c-0.3-0.1-0.5-0.4-0.9-0.9c-0.5-0.6-1.1-1.5-2.2-2.4c-3.4-2.5-3.4-2.9-3.4-3.1c0-0.1,0-0.2,0.1-0.2c0.3-0.3,0.6-0.3,0.9-0.2
		c0.5,0.1,1.6,0.4,4.8-0.7c4.1-1.4,5-5.4,5.4-7.6c0.1-0.3,0.1-0.5,0.2-0.7c0-0.1,0.2-0.2,0.3-0.2c0.1,0,0.2,0.2,0.2,0.3
		c0,0.2-0.1,0.4-0.2,0.7c-0.5,2.3-1.3,6.5-5.7,8c-3.3,1.1-4.5,0.8-5.1,0.7c-0.2,0-0.3-0.1-0.3,0c0.2,0.3,1,1.1,3.2,2.7
		c1.2,0.9,1.9,1.8,2.3,2.5c0.3,0.4,0.5,0.7,0.6,0.7c0.7,0.2,6.5-2.7,9-6c0.1-0.1,0.2-0.1,0.3,0c0.1,0.1,0.1,0.2,0,0.3
		C-1128.4-2023.1-1133.9-2020-1135.3-2020"/>
	<path id="Fill-272_00000181069347109860162510000000512061286429336964_" class="st18" d="M-1186.8-1973
		C-1186.8-1973-1186.9-1973-1186.8-1973c-0.2-0.2-0.2-0.3-0.1-0.5c0.8-1.2,2-3,2.9-5c0.2-0.5,0.4-1,0.6-1.4c0.1-0.1,0.2-0.2,0.3-0.1
		c0.1,0.1,0.2,0.2,0.1,0.3c-0.2,0.5-0.4,0.9-0.6,1.4c-0.9,2-2.1,3.9-2.9,5.1C-1186.6-1973-1186.7-1973-1186.8-1973"/>
	<path id="Fill-274_00000052072751793613862220000018295348015592729993_" class="st18" d="M-1191.7-1977L-1191.7-1977
		c-0.2-0.1-0.3-0.2-0.2-0.4l0.3-0.6c1.2-3.1,0.7-6.4,0.5-7.8c-0.1-0.7-0.1-0.8,0-1c0.1-0.1,0.1-0.1,0.2-0.1c0.2,0,3.1,0.2,5.7,0.4
		c0.1,0,0.2,0.2,0.2,0.3c0,0.2-0.1,0.3-0.3,0.3c-2.2-0.2-4.6-0.4-5.4-0.4c0,0.1,0,0.3,0.1,0.4c0.2,1.5,0.7,4.9-0.6,8.2
		c-0.1,0.2-0.2,0.5-0.3,0.7C-1191.6-1977.1-1191.7-1977-1191.7-1977"/>
	<path id="Fill-276_00000114760315624844948330000002867877687486501514_" class="st13" d="M-1073.4-1966.5
		c-4.7,2.6-19.2-0.5-19.8-0.5c-0.3,0-2.2,10.7-1.7,11c0.1,0,6.7,1.1,12.4,1c6.5-0.2,10.3-1.2,10.5-1.4
		C-1071.7-1956.9-1072.9-1966.8-1073.4-1966.5"/>
	<path id="Fill-278_00000139264267416042559670000000209817524570247614_" class="st18" d="M-1094.5-1957.5c0.9,0.2,6.8,1.1,12,1
		c5.9-0.2,9.6-1.1,10.1-1.4c0.3-0.9-0.7-8.8-1.2-9.9c-4.1,2.2-14.8,0.2-18.3-0.4c-0.4-0.1-0.7-0.1-0.9-0.2
		C-1093.3-1967.2-1094.7-1958.7-1094.5-1957.5z M-1083.6-1956c-5.1,0-11.1-0.9-11.2-1.1c-0.7-0.5,1.3-10.6,1.5-11.4
		c0.1-0.3,0.1-0.5,0.4-0.5c0.1,0,0.4,0,1.1,0.2c3.5,0.7,14.3,2.7,18.2,0.4c0.1-0.1,0.3-0.1,0.4,0.1c0.5,0.7,1.8,10,1.2,10.8
		c-0.2,0.3-4.3,1.4-10.4,1.5H-1083.6z"/>
	<path id="Fill-280_00000015339784814176629780000006230694435440431546_" class="st13" d="M-1147.8-1953.4
		c-8.1,11.5-10.9,2.4-11.3,2.3c-0.2,0-1.1,1.6-4,3.8c-2.9,2.2-5.8,3.3-5.9,3.5s2.4,2.8,4.6,2.8s7.3-3.2,10-5.2
		c3.3-2.6,6.3-6,7.6-8.8c1.7-3.5,0.1-5.4,0.1-5.9s-7.3,5.1-7.8,5.4c-0.7,0.4,2.3,3.1-2.1,7.4L-1147.8-1953.4L-1147.8-1953.4z"/>
	<path id="Fill-282_00000075141768445390362150000010924912033684786089_" class="st18" d="M-1156.3-1948.3c0.3,0.2,0.7,0.3,1.1,0.3
		c2,0.1,4.3-1.8,7-5.5l0.1-0.1l0.9-1.5c1.3-2.6,0.6-4.2,0.2-5c0-0.1-0.1-0.2-0.1-0.3c-0.8,0.4-4,2.8-5.6,3.9c-1,0.7-1.5,1.1-1.7,1.2
		c0,0.1,0.1,0.3,0.1,0.5C-1153.9-1953.7-1153.2-1951.3-1156.3-1948.3z M-1168.4-1943.9c0.5,0.6,2.4,2.3,4.2,2.3c2,0,6.9-2.9,9.7-5
		l1.8-1.5c-0.8,0.5-1.6,0.7-2.4,0.6c-2.1-0.1-3.2-2.1-3.7-3c-0.1-0.1-0.1-0.2-0.2-0.3l-0.2,0.2c-0.5,0.6-1.6,1.8-3.6,3.3
		c-2.1,1.6-4.2,2.6-5.2,3.1C-1168.2-1944-1168.3-1943.9-1168.4-1943.9L-1168.4-1943.9z M-1164.3-1941c-2.1,0-4.4-2.2-4.7-2.8
		c-0.1-0.2,0-0.3,0-0.4c0.1-0.1,0.1-0.1,0.7-0.4c1-0.5,3-1.5,5.1-3c2-1.5,3-2.7,3.5-3.3c0.3-0.4,0.4-0.5,0.6-0.5s0.3,0.2,0.5,0.6
		c0.3,0.6,0.9,1.6,1.8,2.2c3-2.9,2.4-5,2-6.1c-0.1-0.4-0.3-0.9,0.1-1.1c0.1-0.1,0.9-0.6,1.6-1.2c5.5-4.1,5.9-4.2,6.1-4
		c0.1,0,0.1,0.2,0.1,0.3c0,0.1,0.1,0.2,0.1,0.4c0.4,0.9,1.1,2.7-0.2,5.5c-1.4,2.8-4.3,6.2-7.5,8.7
		C-1157-1944.1-1162.1-1941-1164.3-1941L-1164.3-1941z"/>
	<path id="Fill-284_00000111901806912405579510000006322566480218774668_" class="st13" d="M-1136-2050.8
		c-0.5-1.6-0.9-10.1-0.1-12.5c0.8-2.5-8,3-8.8,3.9c-0.4,0.4,1.7,13.1,2.4,13.5c0.2,0.1,2.6-1.9,4.4-3.1
		C-1136.8-2050-1135.8-2050.1-1136-2050.8"/>
	<path id="Fill-286_00000100369576543678643060000012545683615271220926_" class="st18" d="M-1144.5-2059.9
		c-0.3,1.2,1.7,12.2,2.4,13.4c0.3-0.2,1.1-0.7,1.8-1.2c0.8-0.6,1.8-1.3,2.6-1.8c0.5-0.3,1-0.6,1.4-0.8c0.8-0.4,0.9-0.5,0.8-0.7
		c-0.6-1.7-0.9-10.5-0.1-13c0-0.1,0.1-0.2,0-0.2C-1136.4-2065-1143.4-2061-1144.5-2059.9 M-1142.2-2046L-1142.2-2046
		c-0.9-0.5-2.3-9.1-2.6-11.7c-0.3-2.3-0.1-2.5,0-2.6c0.6-0.6,8.3-5.5,9.6-4.6c0.1,0.1,0.3,0.3,0.2,0.9c-0.8,2.4-0.4,11.1,0.1,12.7
		c0.2,0.7-0.4,1-1.1,1.4c-0.4,0.2-0.8,0.4-1.3,0.7c-0.8,0.5-1.8,1.2-2.6,1.8C-1141.5-2046.3-1142-2046-1142.2-2046"/>
	<path id="Fill-288_00000074404022043352571530000003428202599140134059_" class="st13" d="M-1162-2010.1c-0.1-0.1-6.8,0.4-7.5-0.1
		c-0.5-0.3-2.4-5.6-3.1-10.4c-0.6-4.7-0.4-8.5,0.4-8.5c1.5,0.2,8.3,2.3,8.6,2.5c0.2,0.1-2.4,0.6-2,4.9
		C-1165.4-2017.3-1161.9-2010-1162-2010.1"/>
	<path id="Fill-290_00000124123862360707962090000000760186704318640025_" class="st18" d="M-1172-2028.5
		C-1172-2028.5-1172-2028.4-1172-2028.5c-0.6,0.6-0.7,4-0.1,8.3c0.7,4.7,2.7,10,3.1,10.4c0.4,0.3,4.4,0.1,6,0h1.3
		c0-0.1-0.1-0.2-0.1-0.3c-0.8-1.9-3.3-7.5-3.6-11.2c-0.2-2.3,0.4-4,1.8-5C-1165.3-2026.7-1170.7-2028.3-1172-2028.5 M-1166.9-2009
		c-1.3,0-2.1-0.1-2.4-0.2c-0.6-0.4-2.7-6.1-3.3-10.8c-0.6-4.3-0.5-7.9,0.2-8.8c0.2-0.2,0.4-0.2,0.5-0.2c1.6,0.2,9,2.5,9.1,2.5
		s0.2,0.1,0.2,0.2c0,0.2-0.1,0.3-0.3,0.4c-1.4,0.8-2.1,2.4-1.9,4.7c0.3,3.5,2.7,9.1,3.5,11c0.4,0.9,0.4,0.9,0.2,1
		c-0.1,0.1-0.1,0.1-0.2,0.1h-1.6C-1164.6-2009-1165.9-2009-1166.9-2009"/>
	<path id="Fill-292_00000052826209282187482070000000646982385768787361_" class="st18" d="M-1165.5-1958L-1165.5-1958
		c-1.2-0.6-3.1-1-5.7-0.9c-0.1,0-0.2-0.1-0.2-0.3c0-0.1,0.1-0.3,0.2-0.3c2.5,0,4.5,0.3,5.7,0.9c0.5-1.1,1.3-8.7,1-9.7
		c-0.6-0.2-4.3-1.1-10.1-1.2c-3.8,0-7.9,0.5-10.1,0.8c-0.1,0-0.3-0.1-0.3-0.2s0.1-0.3,0.2-0.3c2.1-0.3,6.3-0.8,10.1-0.8
		c6.1,0.1,10.2,1,10.5,1.3c0.6,0.7-0.6,9.8-1.1,10.5C-1165.3-1958-1165.4-1958-1165.5-1958"/>
	<path id="Fill-294_00000179631497617081182310000016543323370632120500_" class="st18" d="M-1108.1-1994.7c0,0.1,0,0.2,0.1,0.3
		c0.2,1.1,0.6,3.4-0.7,5.2c-0.5,0.6-1.2,1.1-2,1.5c0.7-0.1,1.4-0.2,2.1-0.4c3.2-0.7,8.4-2.6,9.8-4.2c1.2-1.4,1.5-4.2,1.4-5.1
		c-0.1,0-0.2,0.1-0.3,0.2c-1,0.5-3,1.4-5.5,2c-2.3,0.5-3.8,0.5-4.5,0.5H-1108.1 M-1117.5-1987.9
		C-1117.4-1987.9-1117.4-1987.9-1117.5-1987.9c4.2,0.5,7,0,8.3-1.7c0.3-0.4,0.5-0.8,0.6-1.2h-0.1c-0.2,0-0.4,0.1-0.5,0.1
		c-3.7,0.1-4.5-2-5-3.1c-0.1-0.2-0.1-0.3-0.2-0.4c-0.2,0.1-0.8,0.2-1.9,0.5c-1.8,0.4-5.5,1.3-6.3,1.7c0,0.1,0.1,0.2,0.1,0.3
		c0.3,0.9,0.8,2.6,3.3,3.4C-1118.6-1988.1-1118.1-1988-1117.5-1987.9 M-1114-1987c-2,0-3.8-0.2-5.2-0.7c-2.7-0.9-3.3-2.9-3.6-3.8
		c0-0.1-0.1-0.3-0.1-0.4c-0.1-0.1-0.1-0.2-0.1-0.3c0.1-0.3,0.4-0.5,6.7-2.1c0.9-0.2,1.8-0.4,1.9-0.5c0.4-0.2,0.6,0.3,0.7,0.7
		c0.4,1,1.1,2.9,4.5,2.8c0.1,0,0.3,0,0.5-0.1h0.3c0.2-1.1,0-2.3-0.1-3c-0.1-0.5-0.1-0.7,0-0.8c0.1-0.1,0.2-0.1,0.7-0.1
		c0.7,0,2.2,0,4.4-0.5c2.4-0.5,4.5-1.5,5.4-2c0.5-0.3,0.6-0.3,0.7-0.3s0.2,0.1,0.2,0.2c0.2,0.6,0,4.1-1.5,5.8
		c-1.5,1.8-6.9,3.6-10,4.4C-1110.4-1987.2-1112.2-1987-1114-1987"/>
	<path id="Fill-296_00000030475712949649966080000011704209126170677930_" class="st13" d="M-1154.5-2042.5c0.8,0.3,0.5,4.3,0.2,9.5
		s-1.9,15.1-2.2,15c-0.4-0.1-2.3-3.8-2.5-4.9c-0.1-0.6,1.5-6.6,1.8-13.1c0.2-5.5-1-10.1-0.9-10
		C-1157.1-2045.5-1154.9-2042.7-1154.5-2042.5"/>
	<path id="Fill-298_00000087385675302362917780000017605447899590436787_" class="st18" d="M-1157.7-2045.3
		C-1157.7-2045.2-1157.7-2045.2-1157.7-2045.3c0.3,1.4,0.9,5.1,0.8,9.4c-0.2,4.5-1,8.8-1.4,11.1c-0.2,0.8-0.3,1.6-0.3,1.8
		c0.1,0.9,1.5,3.7,2,4.4c0.4-1.5,1.6-9.6,1.9-14.4l0.1-1.3c0.2-3.7,0.4-7.6-0.1-7.8c-0.2-0.1-0.5-0.5-1.2-1.3
		C-1156.5-2044-1157.2-2044.8-1157.7-2045.3 M-1156.5-2018c-0.5-0.1-2.4-4-2.5-5c0-0.2,0.1-0.7,0.3-2c0.4-2.3,1.2-6.5,1.4-11
		c0.2-4.2-0.5-7.8-0.8-9.2c-0.1-0.7-0.1-0.7,0-0.8c0.1-0.1,0.1-0.1,0.2,0c0.6,0.3,1.5,1.3,2.2,2.3c0.4,0.5,0.9,1.1,1.1,1.1
		c0.8,0.3,0.7,2.9,0.4,8.3l-0.1,1.3C-1154.5-2028.6-1155.9-2018.5-1156.5-2018C-1156.4-2018-1156.5-2018-1156.5-2018"/>
	<path id="Fill-300_00000080203244338264101640000007449867026419448742_" class="st13" d="M-1128.9-1960.3c-1.6,0-9.3,2.5-11.2,4.2
		c-1.9,1.7-0.3-9.5,0.2-10.6c0.2-0.6,12.3-2.7,12.9-2.1c0.2,0.2-0.7,3.4-1.1,5.6C-1128.5-1961.4-1128.2-1960.4-1128.9-1960.3"/>
	<path id="Fill-302_00000057828259912237113840000012179784577180200381_" class="st18" d="M-1139.5-1966.5c-0.5,1.4-1.5,9.4-0.7,10
		c0,0,0.1,0,0.2-0.1c1.9-1.6,9.3-4.1,11-4.1c0.2,0,0.2-0.1,0.3-1c0-0.4,0.1-0.9,0.2-1.6c0.2-1,0.4-2.1,0.7-3.1
		c0.2-0.8,0.4-1.8,0.4-2.1C-1128.6-1968.8-1138.6-1967.1-1139.5-1966.5L-1139.5-1966.5z M-1140.2-1956c-0.1,0-0.2-0.1-0.3-0.1
		c-1.2-0.9,0.3-9.9,0.6-10.6c0.1-0.1,0.1-0.3,2.2-0.8c2.3-0.5,10-1.9,10.6-1.3c0.2,0.2,0.1,0.4-0.4,2.6c-0.2,1-0.5,2.1-0.6,3.1
		c-0.1,0.6-0.1,1.1-0.2,1.5c-0.1,0.8-0.1,1.5-0.8,1.5c-1.5,0-8.9,2.4-10.7,4C-1139.9-1956.1-1140.1-1956-1140.2-1956L-1140.2-1956z"
		/>
	<path id="Fill-304_00000121989678141126121500000008815664915401532092_" class="st18" d="M-1174-1954L-1174-1954
		c-0.2-0.1-0.2-0.2-0.2-0.4c1.2-2.2,1.6-3.6,1.7-4c-0.6-0.6-5.9-3.9-7.6-4.1h-0.3c-0.1,0.3-0.1,0.7-0.2,1.1c-0.2,1-0.5,2.4-1,3.8
		c-0.1,0.1-0.2,0.2-0.3,0.1c-0.1-0.1-0.2-0.2-0.1-0.4c0.5-1.4,0.8-2.7,1-3.7c0.1-0.5,0.2-0.9,0.2-1.2c0.1-0.2,0.2-0.4,0.6-0.4
		c1.7,0,8,3.8,8.1,4.4c0.1,0.4-0.7,2.4-1.8,4.4C-1173.8-1954-1173.9-1954-1174-1954"/>
	<path id="Fill-306_00000154383759104859137140000004305411466784739723_" class="st13" d="M-1118-1964.3c0.2,0,5.2,6.1,6.1,6.3
		c0.6,0.2,6.1-2.5,10-5.7c3.9-3.3,6.5-6.5,5.7-7.1c-1.4-1.1-8.8-5-9.2-5.2c-0.2-0.1,1.6,2.5-1.8,5.6
		C-1110.4-1967.2-1118.2-1964.4-1118-1964.3"/>
	<path id="Fill-308_00000164515538014561226420000015579725689685499313_" class="st18" d="M-1117.3-1964.3c0.2,0.2,0.5,0.5,1,1.1
		c1.3,1.5,4.1,4.6,4.6,4.7c0.6,0.1,5.8-2.4,9.6-5.5c3.5-2.9,5.6-5.5,5.6-6.4v-0.1c-1.2-0.9-6.7-3.9-8.5-4.8c0.5,1.8-0.2,3.6-1.9,5.2
		c-2.7,2.5-8.3,4.9-10.1,5.6C-1117.1-1964.4-1117.2-1964.4-1117.3-1964.3 M-1111.7-1958C-1111.8-1958-1111.8-1958-1111.7-1958
		c-0.6-0.2-2.3-1.9-5-4.9c-0.5-0.6-1.1-1.2-1.2-1.3c-0.1,0-0.1-0.1-0.1-0.2c0-0.2,0-0.2,0.8-0.6c1.8-0.8,7.4-3.1,9.9-5.5
		c1.7-1.6,2.3-3.3,1.7-5c-0.1-0.2-0.1-0.3,0-0.5c0.1-0.1,0.2-0.1,0.3,0c0.1,0,7.6,3.9,9,5.1c0.1,0.1,0.2,0.2,0.2,0.5
		c0,1.3-2.9,4.4-5.8,6.8C-1105.4-1960.7-1110.7-1958-1111.7-1958"/>
	<path id="Fill-310_00000142174881615209357390000014896132574799302301_" class="st18" d="M-1171.2-1974c-1.1,0-7.9-5.1-8.5-5.6
		c-0.2-0.2-0.4-0.3-0.3-0.5c0-0.1,0.2-0.3,0.6-1c1.8-3.2,7.5-12.9,7.1-17.5c0-0.1,0-0.3,0.2-0.3c0.7-0.2,8.7,1.9,9.1,2.7
		c0.1,0.3-0.4,3.6-1.9,8.4c0,0.1-0.2,0.2-0.3,0.2c-0.1,0-0.2-0.2-0.1-0.3c1.5-4.5,1.9-7.5,1.9-8c-0.6-0.6-7.3-2.5-8.4-2.5
		c0.2,4.8-5.3,14.4-7.2,17.6c-0.2,0.3-0.4,0.6-0.5,0.8c0.9,0.8,7.1,5.3,8.1,5.6c0.3-0.5,1.7-3.1,3.1-6.1c0.1-0.1,0.2-0.2,0.3-0.1
		c0.1,0.1,0.2,0.2,0.1,0.3C-1169.3-1977.2-1171-1974-1171.2-1974C-1171.1-1974-1171.2-1974-1171.2-1974L-1171.2-1974z"/>
	<path id="Fill-312_00000049179467920771676840000000284648474370978179_" class="st18" d="M-1161.6-1987.5c0.3,0,0.6,0,0.8,0.1
		c1.7,0.5,2.3,2.2,2.7,3.1c0,0.1,0,0.1,0.1,0.2l0.1-0.1c0.5-0.4,1.6-1.2,3.4-2c2-0.9,3.8-1.3,4.7-1.5c0.1,0,0.2,0,0.2-0.1
		c-0.4-0.6-1.6-2.2-3-2.5c-1.6-0.3-6,1.1-8.6,2.3c-0.4,0.2-0.8,0.4-1.3,0.6C-1162.2-1987.5-1161.9-1987.5-1161.6-1987.5
		 M-1167.5-1983.7c-0.3,0.3-0.6,0.7-0.9,1c-1.4,1.8-1.1,3.2-0.9,3.9v0.2c0.8-0.2,3.6-1.5,5.1-2.1c0.9-0.4,1.3-0.6,1.5-0.7v-0.3
		c-0.2-1-0.5-2.9,2.6-4.9c-0.2-0.2-0.5-0.3-0.8-0.4C-1162.5-1987.3-1164.7-1986.3-1167.5-1983.7 M-1169.5-1978c-0.1,0-0.1,0-0.2-0.1
		s-0.1-0.2-0.1-0.3c0,0,0-0.2-0.1-0.3c-0.2-0.8-0.6-2.3,1-4.4c1.5-2,4.4-4.2,7.4-5.6c2.5-1.2,7.1-2.7,8.9-2.3
		c1.7,0.4,3.4,2.6,3.5,3.1c0.1,0.2,0,0.3-0.1,0.3c-0.1,0.1-0.2,0.1-0.6,0.2c-0.9,0.2-2.7,0.6-4.6,1.5c-1.8,0.8-2.8,1.6-3.3,2
		c-0.3,0.2-0.4,0.3-0.6,0.3c-0.2-0.1-0.2-0.2-0.4-0.6c-0.2-0.5-0.5-1.3-1.1-2c-2.9,1.7-2.6,3.5-2.5,4.4c0.1,0.4,0.1,0.8-0.3,0.9
		c-0.1,0-0.8,0.3-1.5,0.7C-1168.1-1978.4-1169.1-1978-1169.5-1978"/>
	<path id="Fill-314_00000110453282775575503360000011485120465387164089_" class="st13" d="M-1115.9-1983.6c-0.4-1-4,0.2-8.7,1.6
		s-13.5,5.4-13.3,5.8c0.1,0.4,4,2.3,5,2.2c0.5,0,5.7-3.3,11.7-4.9c5-1.4,9.5-0.6,9.4-0.8
		C-1112.7-1980.9-1115.7-1983.2-1115.9-1983.6"/>
	<path id="Fill-316_00000099621043861290756860000011878508983284614071_" class="st18" d="M-1137.4-1975.4c0.7,0.5,3.7,1.8,4.5,1.8
		c0.1,0,0.8-0.4,1.6-0.7c2-1,5.8-2.9,9.8-3.9c3.9-1,7.4-0.8,8.7-0.7c-0.5-0.6-1.4-1.3-2.1-2c-0.9-0.8-1.3-1.1-1.4-1.4
		c-0.3-0.7-3.8,0.4-7.2,1.3l-1.2,0.3C-1129-1979.3-1136.2-1976.1-1137.4-1975.4L-1137.4-1975.4z M-1132.9-1973c-1,0-4.9-1.7-5.1-2.3
		v-0.2c0.3-0.7,9.2-4.4,13.3-5.6l1.2-0.3c4.9-1.4,7.2-2.1,7.7-1.1c0.1,0.2,0.7,0.7,1.3,1.2c1,0.9,2.1,1.9,2.5,2.5
		c0.1,0.1,0.1,0.2,0,0.3c-0.1,0.2-0.1,0.2-0.8,0.1c-1.3-0.1-4.8-0.3-8.6,0.7c-4,1.1-7.8,2.9-9.8,3.9
		C-1132.3-1973.2-1132.7-1973-1132.9-1973z"/>
	<path id="Fill-318_00000018204450786247680420000002446608516667061424_" class="st18" d="M-1177.3-1969c-0.1,0-0.2,0-0.2-0.1
		c-0.7-0.7-1.5-1.7-2.2-2.5c-0.4-0.5-0.6-0.9-0.9-1.2c-0.5-0.7-0.6-0.8-0.8-0.7c-0.8,0.3-3.1,0.6-4.4,0.7c-0.1,0-0.3-0.1-0.3-0.2
		s0.1-0.2,0.2-0.3c2.2-0.2,3.7-0.5,4.2-0.7c0.7-0.3,1,0.3,1.5,0.9c0.2,0.3,0.5,0.7,0.8,1.2c0.7,0.8,1.5,1.8,2.2,2.5
		C-1177.1-1969.3-1177.1-1969.2-1177.3-1969C-1177.2-1969-1177.2-1969-1177.3-1969"/>
	<path id="Fill-320_00000129203336725273168680000012387192640350999459_" class="st18" d="M-1168.3-1930c-0.6,0-1.9-0.6-2.7-1
		c-0.1-0.1-0.2-0.2-0.1-0.4c0.1-0.1,0.2-0.2,0.3-0.1c1.6,0.9,2.4,1,2.5,1c0.2,0,0.4-0.4,0.7-0.8c0.5-0.7,1.3-1.9,2.5-2.9
		c2.4-1.9,3.3-2.8,3.5-3.1c-0.1-0.1-0.2,0-0.4,0c-0.6,0.2-1.9,0.5-5.5-0.8c-4.8-1.7-5.7-6.6-6.2-9.2c-0.1-0.4-0.2-0.8-0.2-1.1h-0.2
		c-0.3,0-1,0.1-2.6,1c-0.1,0.1-0.3,0-0.3-0.1c-0.1-0.1,0-0.3,0.1-0.3c2.5-1.3,3-1,3.2-0.9l0.3,0.3c0.1,0.3,0.2,0.7,0.2,1.1
		c0.5,2.5,1.4,7.2,5.9,8.8c3.5,1.2,4.7,0.9,5.3,0.8c0.3-0.1,0.6-0.2,0.9,0.2c0.1,0.1,0.1,0.2,0.1,0.3c0,0.2-0.1,0.7-3.7,3.6
		c-1.2,1-1.9,2-2.4,2.8c-0.4,0.6-0.6,0.9-1,1C-1168.1-1930-1168.2-1930-1168.3-1930"/>
	<path id="Fill-322_00000161602051915361039910000002871029386935896486_" class="st13" d="M-1154.9-1982c0,0.1,5.5,4.6,5.8,5.4
		c0.2,0.5-1.3,6.1-3.5,10.2s-4.6,6.9-5.1,6.3c-1.1-1.2-5.1-7.7-5.3-8.1c-0.1-0.2,2.2,1.2,4.4-2.4
		C-1156.4-1974-1154.9-1982.1-1154.9-1982"/>
	<path id="Fill-324_00000006678836257333543080000003664537564335118977_" class="st18" d="M-1162.3-1967.9c1,1.6,4,6.4,4.8,7.4h0.1
		c0.7-0.1,2.6-2.5,4.5-6.1c2.1-3.9,3.5-9.2,3.4-9.8c-0.2-0.5-3.1-3-4.3-4.1c-0.5-0.4-0.8-0.7-1-0.8c0,0.1,0,0.2-0.1,0.3
		c-0.4,1.9-1.7,7.8-3.5,10.6C-1159.4-1968.5-1160.8-1967.7-1162.3-1967.9 M-1157.4-1960c-0.2,0-0.3-0.1-0.4-0.2
		c-1.1-1.2-5.1-7.8-5.2-7.9s-0.1-0.2,0-0.3c0.1-0.2,0.2-0.1,0.4-0.1c1.5,0.3,2.8-0.4,3.9-2.2c1.7-2.8,3-8.5,3.4-10.4
		c0.2-0.9,0.2-0.9,0.4-0.9c0.1,0,0.2,0,0.2,0.1c0.1,0.1,0.6,0.6,1.2,1c2.8,2.4,4.3,3.8,4.5,4.3c0.2,0.7-1.4,6.3-3.4,10.2
		C-1154.4-1962.8-1156.4-1960.1-1157.4-1960"/>
	<path id="Fill-326_00000167377982230819983810000012320073727687134374_" class="st18" d="M-1157.5-1948c-0.2,0-0.3-0.2-0.2-0.3
		c0.5-2.3,0-6.4-0.1-7.2c-0.2,0-0.5,0.1-0.9,0.1c-3.5,0.4-14.2,1.6-18.1-0.9c-0.1,0.2-0.3,0.8-0.7,2.6c0,0.1-0.2,0.2-0.3,0.2
		c-0.1,0-0.2-0.2-0.2-0.3c0.6-2.9,0.8-3,1-3.1h0.3c3.7,2.6,14.4,1.3,18,0.9c0.8-0.1,1-0.1,1.1-0.1s0.1,0.1,0.2,0.1
		c0.3,0.4,0.8,5.2,0.2,7.8C-1157.2-1948.1-1157.3-1948-1157.5-1948"/>
	<path id="Fill-328_00000155847946558917999870000004317296626730177721_" class="st18" d="M-1166.3-1945c-1.8-0.1-4-0.5-6.5-1.2
		c-0.1,0-0.2-0.3-0.2-0.5s0.2-0.4,0.3-0.4c2.5,0.7,4.7,1,6.4,1.1c0.1,0,0.3,0.2,0.3,0.4C-1166-1945.2-1166.1-1945-1166.3-1945"/>
	<path id="Fill-330_00000153682308978521103750000018234441207235776692_" class="st18" d="M-1179.6-1951c-0.3,0-0.4-0.2-0.4-0.3
		c0.3-1.2,0.8-2.4,1.2-3.5c0.1-0.1,0.3-0.2,0.5-0.2s0.4,0.2,0.3,0.3c-0.4,1-0.8,2.3-1.2,3.5C-1179.2-1951.1-1179.4-1951-1179.6-1951
		"/>
	<path id="Fill-332_00000112610009402975123670000004826234075795213211_" class="st18" d="M-1141.9-1997.8c0.1,0,0.2,0.1,0.3,0.1
		c1,0.3,3,0.9,3.7,2.9c0.3,0.8,0.3,1.6,0.2,2.6c0.3-0.7,0.5-1.5,0.7-2.3c1-3.5,1.9-9.4,1.3-11.4c-0.5-1.8-2.6-3.3-3.3-3.6v0.4
		c-0.1,1.2-0.3,3.6-1,6.3c-0.7,2.5-1.4,4-1.7,4.7C-1141.8-1998-1141.9-1997.9-1141.9-1997.8z M-1146.5-1982.6h0.3
		c0.8,0.1,2.4,0.3,4.2-1.7c0.3-0.4,0.7-0.8,1-1.3v-0.1c2.4-3.9,3.3-6.9,2.6-8.9c-0.1-0.4-0.4-0.8-0.6-1.1c-1.7,4.2-3.9,4.1-5,4.1
		h-0.4c0,0.2-0.2,0.9-0.5,2.1C-1145.4-1987.6-1146.4-1983.6-1146.5-1982.6z M-1145.4-1982c-0.4,0-0.7,0-0.9-0.1h-0.4
		c-0.1,0-0.2,0-0.3-0.1c-0.2-0.2-0.1-1,1.6-7.5c0.3-1,0.5-1.9,0.5-2.1c0.1-0.4,0.5-0.4,0.9-0.4c1.1,0.1,3,0.2,4.6-3.8v-0.1
		c-0.8-0.7-1.8-1-2.4-1.2c-0.4-0.1-0.6-0.2-0.7-0.3c-0.1-0.2,0-0.3,0.2-0.8c0.3-0.7,1-2.1,1.7-4.6c0.7-2.6,0.9-5,1-6.2
		c0.1-0.6,0.1-0.7,0.1-0.8c0-0.1,0.1-0.1,0.3-0.1c0.6,0.1,3.2,1.8,3.8,4c0.7,2.3-0.4,8.3-1.3,11.7c-1.1,4-3.1,8.1-5.1,10.3
		C-1143.1-1982.3-1144.5-1982-1145.4-1982L-1145.4-1982z"/>
	<path id="Fill-334_00000013897247747131253250000009202188478738644151_" class="st13" d="M-1109.2-1951.5c-0.3,0.8-4,0.5-8.8,0.2
		c-4.9-0.3-14-1.9-13.9-2.2c0.1-0.3,3.6-2.3,4.5-2.4c0.5-0.1,6.1,1.6,12.2,1.8c5.1,0.2,9.4-1,9.3-0.9
		C-1106.5-1954.1-1109.1-1951.9-1109.2-1951.5"/>
	<path id="Fill-336_00000097486745806664606710000005602467188306386343_" class="st18" d="M-1131.4-1954.7
		c1.4,0.5,8.9,2.3,13.4,2.7l1.2,0.1c3.5,0.3,7,0.6,7.2-0.1c0.1-0.3,0.4-0.7,1.2-1.7c0.6-0.8,1.4-1.7,1.8-2.4c-1.3,0.3-4.7,1.3-8.7,1
		c-4.1-0.3-8.1-1.4-10.2-2c-0.8-0.2-1.5-0.4-1.6-0.4C-1128.1-1957.3-1130.8-1955.4-1131.4-1954.7z M-1111.7-1951
		c-1.2,0-3-0.1-5.2-0.3l-1.2-0.1c-4.1-0.4-13.4-2.3-13.9-3c0-0.1-0.1-0.2-0.1-0.2c0.1-0.7,3.7-3.2,4.6-3.4c0.2,0,0.6,0.1,1.8,0.4
		c2.1,0.6,6.1,1.7,10.2,2c3.9,0.2,7.3-0.7,8.5-1c0.6-0.2,0.7-0.2,0.8,0c0.1,0.1,0.1,0.2,0,0.3c-0.3,0.8-1.3,2-2.1,3.1
		c-0.5,0.6-1,1.3-1.1,1.5C-1109.4-1951.2-1110.2-1951-1111.7-1951L-1111.7-1951z"/>
	<path id="Fill-338_00000017482698532290188890000012277151578196975005_" class="st13" d="M-1158.7-2005.8c1.4-0.4,8-4.8,9.4-7
		c1.4-2.1,2.4,9.1,2.3,10.3c-0.1,0.6-10.7,5.8-11.4,5.4c-0.2-0.1-0.1-3.5-0.3-5.7C-1158.8-2004.7-1159.3-2005.6-1158.7-2005.8"/>
	<path id="Fill-340_00000080885592429278100310000004192089373846681242_" class="st18" d="M-1148.3-2012.5c0,0-0.1,0.1-0.2,0.1
		c-1.4,2.1-8.3,6.4-9.9,6.8c-0.2,0.1-0.2,0.2-0.1,1.1c0.1,0.4,0.2,0.9,0.2,1.6c0.1,1,0.1,2.2,0.1,3.2c0,0.9,0,1.9,0.1,2.2
		c1.2,0,10.7-4.3,11.5-5.1C-1146.3-2004.1-1147.4-2012.1-1148.3-2012.5L-1148.3-2012.5z M-1158.1-1997h-0.2
		c-0.2-0.1-0.3-0.4-0.3-2.6c0-1,0-2.2-0.1-3.2c0-0.6-0.1-1.1-0.2-1.5c-0.1-0.8-0.3-1.5,0.4-1.7c1.5-0.4,8.3-4.7,9.6-6.6
		c0.3-0.4,0.6-0.4,0.8-0.3c1.4,0.6,2.2,9.7,2.1,10.5c0,0.2,0,0.3-2,1.3S-1156.6-1997-1158.1-1997L-1158.1-1997z"/>
	<path id="Fill-342_00000182510063893411027780000015405417645907997345_" class="st18" d="M-1072.3-2052.7
		c-2.5,2.6-3.6,4.8-3.3,6.4c0,0.3,0.1,0.6,0.3,0.9c2-2.9,3.7-2.5,4.5-2.2c0.1,0,0.2,0.1,0.3,0.1c0.1-0.2,0.3-0.7,0.7-1.5
		c0.7-1.4,2.1-4.3,2.3-5.1c-0.1,0-0.1,0-0.2-0.1c-0.6-0.2-1.8-0.7-3.5,0.6C-1071.6-2053.4-1072-2053.1-1072.3-2052.7 M-1076-2047.9
		c-0.2,0.4-0.5,0.9-0.7,1.3c-1.3,2.5-3,7-2.8,8.7c0.1,1.4,1.5,2.9,2,3.3c0-0.1,0-0.2,0.1-0.2c0.3-0.9,0.8-2.8,1.8-4.7
		c0.9-1.8,1.7-2.9,2.1-3.4c0-0.1,0.1-0.1,0.1-0.1l-0.1-0.1c-0.7-0.4-2.2-1.2-2.5-3C-1076.2-2046.7-1076.2-2047.3-1076-2047.9
		 M-1077.4-2034L-1077.4-2034c-0.5-0.2-2.4-2-2.5-3.8c-0.2-1.9,1.6-6.5,2.8-9c1.2-2.4,2.9-4.7,4.5-6.2c0.4-0.3,0.7-0.6,1.1-0.9
		c1.9-1.4,3.3-0.9,4-0.7c0.1,0,0.2,0.1,0.3,0.1c0.1,0,0.2,0.1,0.2,0.1c0.1,0.2,0.1,0.5-2.4,5.6c-0.4,0.7-0.7,1.4-0.7,1.5
		c-0.1,0.4-0.5,0.3-0.8,0.2c-0.8-0.2-2.3-0.6-4.1,2.2c0.5,0.7,1.2,1.1,1.7,1.3c0.3,0.2,0.5,0.3,0.5,0.4c0,0.2-0.1,0.3-0.3,0.6
		c-0.4,0.5-1.1,1.5-2,3.3c-1,1.9-1.5,3.8-1.7,4.6c-0.1,0.5-0.2,0.6-0.2,0.6C-1077.3-2034-1077.3-2034-1077.4-2034"/>
	<path id="Fill-344_00000065790956410535734270000014638634450189670282_" class="st13" d="M-1053-2002.1c1.4-0.7,9.1-1.9,11.4-1.2
		c2.3,0.7-3.5-8.9-4.3-9.7c-0.4-0.4-11.8,3-12.1,3.9c-0.1,0.2,2,2.8,3.2,4.7C-1053.8-2002.8-1053.6-2001.7-1053-2002.1"/>
	<g id="Group-348" transform="translate(195 109)">
		<defs>
			
				<filter id="Adobe_OpacityMaskFilter_00000090268305390475634910000006395731121672743056_" filterUnits="userSpaceOnUse" x="-1252.9" y="-2124" width="16.9" height="11.9">
				<feColorMatrix  type="matrix" values="1 0 0 0 0  0 1 0 0 0  0 0 1 0 0  0 0 0 1 0"/>
			</filter>
		</defs>
		
			<mask maskUnits="userSpaceOnUse" x="-1252.9" y="-2124" width="16.9" height="11.9" id="mask-4_00000058568927241839584410000004312142721811568292_">
			<g style="filter:url(#Adobe_OpacityMaskFilter_00000090268305390475634910000006395731121672743056_);">
				<path id="path-3_00000120525673196528801790000011623514855621067417_" class="st2" d="M-1252.9-2123.9h16.9v11.8h-16.9V-2123.9
					z"/>
			</g>
		</mask>
		<path id="Fill-346_00000035504951580250706710000008040230176440568231_" class="st20" d="M-1252.4-2119.6
			c0.2,0.3,0.7,1.1,1.2,1.9c0.6,0.9,1.3,1.9,1.8,2.7c0.3,0.6,0.6,1.1,0.8,1.4c0.4,0.8,0.5,1,0.7,0.9c1.5-0.8,9-2,11.3-1.2h0.2
			c0.4-0.9-3.6-8.4-4.6-9.5C-1242.1-2123.6-1251.5-2120.4-1252.4-2119.6L-1252.4-2119.6z M-1248.1-2112.1c-0.4,0-0.7-0.5-1-1.2
			c-0.2-0.4-0.4-0.9-0.7-1.4c-0.5-0.9-1.2-1.8-1.8-2.7c-1.3-1.9-1.4-2.1-1.3-2.4c0.3-0.9,8-3.3,9.9-3.8c2-0.5,2.1-0.4,2.2-0.3
			c0.5,0.6,5.4,8.7,4.7,10.2c-0.1,0.2-0.3,0.4-0.7,0.3c-2.2-0.7-9.6,0.5-10.9,1.2C-1247.9-2112.1-1248-2112.1-1248.1-2112.1
			L-1248.1-2112.1z"/>
	</g>
	<path id="Fill-349" class="st13" d="M-1081.4-2022.1c1.8,0.1,7.6,2.1,11.5-2.9s2.3-5.6,3.3-6c0.3-0.1,0.9,2.2,1.6,5
		c0.6,2.8,2.1,4.1,2,4.8c-0.1,1.1-5.9,6.5-10.4,7.9s-7.6,1.4-7.8,1.2C-1081.6-2012.4-1082.7-2022.2-1081.4-2022.1"/>
	<path id="Fill-351" class="st18" d="M-1082.1-2022.6v0.3V-2022.6z M-1081.7-2012.6c0.4,0.1,3.3,0.2,7.8-1.3
		c4.6-1.5,10.3-6.9,10.5-7.9c0-0.2-0.2-0.6-0.5-1.1c-0.5-0.8-1.2-2-1.6-3.8c-0.7-3.2-1.2-4.5-1.4-4.8c-0.1,0.1-0.1,0.2-0.1,0.4
		c-0.1,0.7-0.3,2.2-3,5.6c-3.5,4.5-8.4,3.6-11,3.2c-0.4-0.1-0.8-0.1-1.1-0.2c0,0-0.1,0.1-0.1,0.3
		C-1082.9-2020.2-1082.1-2013.3-1081.7-2012.6L-1081.7-2012.6z M-1081-2012c-0.6,0-1-0.1-1.1-0.2c-0.5-0.4-1.3-8.4-0.6-10.2
		c0.2-0.4,0.4-0.5,0.6-0.5c0.3,0,0.7,0.1,1.1,0.2c2.5,0.4,7.1,1.2,10.5-3c2.6-3.3,2.8-4.7,2.9-5.3c0.1-0.4,0.1-0.7,0.6-0.9h0.3
		c0.1,0.1,0.6,0.3,1.7,5.3c0.4,1.7,1,2.8,1.5,3.6c0.4,0.6,0.6,1,0.5,1.4c-0.2,1.4-6.3,6.9-10.8,8.3
		C-1076.9-2012.4-1079.5-2012-1081-2012L-1081-2012z"/>
	<path id="Fill-353" class="st13" d="M-1089.8-1990.3c1.2-1,5.9-7.7,6.5-10.3c0.6-2.6,5.1,7.8,5.4,9c0.1,0.6-8,9.7-8.8,9.6
		c-0.2,0-1.2-3.3-2.1-5.4C-1089.6-1989.2-1090.4-1989.8-1089.8-1990.3"/>
	<path id="Fill-355" class="st18" d="M-1090.4-1990.5c-0.2,0.1-0.1,0.3,0.3,1.1c0.2,0.4,0.5,0.9,0.7,1.5c0.4,1,0.8,2.1,1.2,3.2
		c0.3,0.9,0.7,1.9,0.8,2.2c1.1-0.5,8.5-8.4,8.9-9.5c-0.3-1.6-4-9.3-5-9.4c0,0-0.1,0.1-0.1,0.2
		C-1084.2-1998.6-1089.1-1991.6-1090.4-1990.5L-1090.4-1990.5z M-1087.5-1982c-0.3,0-0.4-0.3-1.2-2.5c-0.4-1-0.8-2.2-1.2-3.1
		c-0.2-0.6-0.5-1.1-0.7-1.5c-0.4-0.8-0.7-1.4-0.2-1.8c1.2-1,6-7.9,6.6-10.4c0.1-0.5,0.4-0.6,0.6-0.6c1.5,0,5.3,9,5.5,9.8
		c0,0.2,0.1,0.4-1.4,2.1C-1080.9-1988.1-1086.5-1982-1087.5-1982L-1087.5-1982z"/>
	<path id="Fill-357" class="st18" d="M-1180.7-2000.5c-0.5,0.1-2,0.7-2.7,1.8c-0.8,1.4-1.2,6.1-1.2,8.9v1.4c0.1-0.6,0.3-1.1,0.5-1.5
		c0.9-1.4,2.3-1.3,3-1.3h0.1v-0.2c-0.1-0.6-0.3-1.9-0.3-3.9c0-2.2,0.3-4.1,0.5-5C-1180.7-2000.3-1180.7-2000.4-1180.7-2000.5
		 M-1183.6-1982.1c0.1,0.4,0.3,0.9,0.4,1.2c0.8,2,1.8,2.2,2.4,2.3h0.1c0.1-0.8,0.2-4,0.2-5.5v-1.6c-0.1,0-0.2-0.1-0.2-0.1
		c-0.7-0.2-2.2-0.7-2.5-4.2c-0.2,0.2-0.4,0.3-0.5,0.6C-1184.5-1988.1-1184.5-1985.7-1183.6-1982.1
		C-1183.6-1982.2-1183.6-1982.2-1183.6-1982.1 M-1180.5-1978L-1180.5-1978c-0.1,0-0.2,0-0.3-0.1c-0.6-0.1-1.8-0.4-2.7-2.6
		c-0.9-2.2-1.4-5.7-1.4-9.1c0-2.8,0.4-7.6,1.3-9.2c0.8-1.5,2.9-2.1,3.3-2.1c0.1,0,0.2,0.1,0.2,0.2s0,0.2-0.1,0.7
		c-0.1,0.9-0.5,2.7-0.5,4.9c0,2,0.2,3.2,0.3,3.8c0.1,0.4,0.1,0.5,0,0.7c-0.1,0.1-0.2,0.1-0.5,0.1c-0.4,0-1.1,0-1.7,0.3
		c0.3,3.3,1.5,3.7,2.2,4c0.3,0.1,0.6,0.2,0.5,0.6v1.7c-0.1,5.7-0.2,6-0.4,6.1H-1180.5"/>
	<path id="Fill-359" class="st18" d="M-1114.8-1931c-0.1,0-0.1,0-0.2-0.1s-0.1-0.3,0-0.4c2.7-2.2,3.5-8,0.6-13.1
		c-0.1-0.1,0-0.3,0.1-0.4s0.3,0,0.3,0.1c3,5.3,2.1,11.5-0.7,13.8C-1114.7-1931-1114.7-1931-1114.8-1931"/>
	<path id="Fill-361" class="st18" d="M-1105.8-1929c-0.1,0-0.1,0-0.2-0.1s-0.1-0.3,0-0.4c2-2.1,2.7-6.9,2.5-10.3
		c0-0.1,0.1-0.3,0.2-0.3s0.2,0.1,0.2,0.2c0.3,3.5-0.6,8.5-2.6,10.7C-1105.7-1929-1105.8-1929-1105.8-1929"/>
	<path id="Fill-363" class="st18" d="M-1162.7-1921c-0.1,0-0.2,0-0.3-0.1c-0.1-0.1,0-0.2,0.1-0.3c1.3-0.4,1.2-1.4,1.2-1.4
		c0-0.1,0.1-0.2,0.3-0.2c0.2,0,0.3,0.1,0.4,0.2c0,0,0.2,1.2-1.5,1.8H-1162.7"/>
	<path id="Fill-365" class="st18" d="M-1109.8-1996c-0.2-0.1-0.3-0.2-0.2-0.3c2.1-4.9,6.5-8.4,10-10.9c3.6-2.6,6.7-4.8,10.7-4.8
		c0.1,0,0.2,0.1,0.2,0.2s-0.1,0.2-0.2,0.2c-3.9,0-6.9,2.2-10.4,4.7s-7.8,5.9-9.8,10.7C-1109.6-1996.1-1109.7-1996-1109.8-1996"/>
	<path id="Fill-367" class="st18" d="M-1077.3-2004c-0.1,0-0.2-0.1-0.2-0.2c-0.7-3.5-2.4-4.8-4-5.7c-0.2-0.1-0.5-0.3-0.9-0.4
		c-1-0.4-2.4-1-3.1-2.2c-0.2-0.4-0.5-0.8-0.7-1.3c-0.7-1.4-1.5-2.9-2.3-3.3c-1.1-0.6-2.4-0.3-3.9,0c-1.1,0.2-2.2,0.4-3.3,0.3
		c-0.1,0-0.2-0.1-0.2-0.3c0-0.1,0.1-0.3,0.3-0.2c1,0.1,2.1-0.1,3.1-0.3c1.5-0.3,3-0.6,4.2,0.1c0.9,0.5,1.7,2,2.5,3.5
		c0.2,0.4,0.5,0.9,0.7,1.3c0.6,1,1.9,1.6,2.9,2c0.4,0.2,0.7,0.3,1,0.4c1.8,1.1,3.5,2.6,4.2,6.1
		C-1077-2004.2-1077.1-2004-1077.3-2004C-1077.2-2004-1077.2-2004-1077.3-2004"/>
	<path id="Fill-369" class="st18" d="M-1109.5-1996c-3.1,0-8.8-0.9-12.5-4.7c-0.1-0.1-0.1-0.2,0-0.3c0.1-0.1,0.3-0.1,0.3,0
		c3.8,3.9,10,4.6,12.7,4.5c2-0.1,4.2-0.5,6.5-1.1c0.1,0,0.3,0,0.3,0.1s0,0.2-0.2,0.3c-2.4,0.7-4.5,1-6.6,1.2H-1109.5"/>
	<path id="Fill-371" class="st18" d="M-1099.7-1999c-0.1,0-0.2-0.1-0.2-0.2c-0.1-0.1,0-0.3,0.1-0.3c2.2-0.9,4.3-2,6.3-3.1
		c4.4-2.3,8.6-4.5,12.3-4.4c0.1,0,0.3,0.1,0.2,0.3c0,0.1-0.1,0.3-0.3,0.3h-0.2c-3.5,0-7.6,2.1-11.8,4.3
		C-1095.3-2001.1-1097.5-2000-1099.7-1999"/>
	<path id="Fill-373" class="st18" d="M-1108.3-1999c-3.2-0.9-8-3.9-8.7-7.7c0-0.1,0.1-0.3,0.2-0.3s0.3,0.1,0.3,0.2
		c0.6,3.2,4.8,6.2,8.3,7.2c0.1,0,0.2,0.2,0.2,0.3C-1108-1999.1-1108.1-1999-1108.3-1999"/>
	<path id="Fill-375" class="st18" d="M-1123.6-2000c-0.1,0-0.2-0.1-0.2-0.2c-1.1-3.8,2.4-8.2,4.4-9.8c0.1-0.1,0.2,0,0.3,0.1
		c0.1,0.1,0,0.3-0.1,0.4c-1.5,1.1-5.4,5.4-4.3,9.2C-1123.3-2000.2-1123.4-2000.1-1123.6-2000C-1123.5-2000-1123.6-2000-1123.6-2000"
		/>
	<path id="Fill-377" class="st18" d="M-1122.7-2048c-0.1,0-0.2,0-0.2-0.1c-0.4-0.7-1.6-1.8-2.6-2.7c-1.1-1-1.4-1.4-1.5-1.6
		c-0.1-0.3,0.2-0.4,0.8-0.6c1.1-0.3,3-0.9,4.3-2.3c1-1,1.7-2,2.1-2.7c0.6-0.8,0.8-1.2,1.1-0.9c1.1,0.7,2.3,2.5,3.5,4.3
		c0.1,0.1,0.1,0.3-0.1,0.4c-0.1,0.1-0.3,0.1-0.3-0.1c-1.1-1.7-2.3-3.4-3.3-4.1c-0.1,0.1-0.4,0.4-0.6,0.8c-0.5,0.7-1.2,1.7-2.2,2.7
		c-1.4,1.4-3.4,2.1-4.5,2.4c-0.1,0-0.3,0.1-0.4,0.1c0.2,0.3,0.8,0.7,1.2,1.2c1,0.9,2.3,2.1,2.7,2.9
		C-1122.6-2048.2-1122.7-2048-1122.7-2048C-1122.6-2048-1122.7-2048-1122.7-2048"/>
	<path id="Fill-379" class="st18" d="M-1074.5-2018c0,0.2,0.2,0.3,0.3,0.4c0.5,0.2,1.2,0.1,2-0.2c1.2-0.6,1.8-1.6,1.7-2.1
		c0-0.2-0.2-0.3-0.3-0.4c-0.5-0.2-1.2-0.1-2,0.2C-1074-2019.5-1074.7-2018.6-1074.5-2018 M-1073.5-2017c-0.3,0-0.6-0.1-0.8-0.2
		c-0.3-0.1-0.5-0.4-0.6-0.7c-0.3-0.9,0.6-2.1,1.9-2.8c0.9-0.4,1.8-0.5,2.4-0.2c0.3,0.1,0.5,0.4,0.6,0.7c0.3,0.9-0.6,2.1-1.9,2.8
		C-1072.5-2017.1-1073.1-2017-1073.5-2017"/>
	<path id="Fill-381" class="st18" d="M-1167.9-2020.5c-0.1,0-0.3,0.1-0.4,0.2c-0.2,0.3-0.3,0.8-0.1,1.4c0.2,0.9,0.8,1.5,1.4,1.5
		c0.1,0,0.3-0.1,0.4-0.2c0.2-0.3,0.3-0.8,0.1-1.4C-1166.8-2019.9-1167.4-2020.6-1167.9-2020.5 M-1167.1-2017c-0.7,0-1.5-0.8-1.8-1.8
		c-0.2-0.7-0.1-1.3,0.2-1.7c0.2-0.2,0.4-0.4,0.7-0.4c0.8-0.1,1.6,0.7,1.9,1.8c0.2,0.7,0.1,1.3-0.2,1.7
		C-1166.5-2017.2-1166.7-2017-1167.1-2017L-1167.1-2017"/>
	<path id="Fill-383" class="st18" d="M-1131.5-2026.8c0.1,0.1,0.2,0.2,0.3,0.2c0.3,0.1,0.7-0.2,1.1-0.6c0.6-0.7,0.8-1.6,0.6-2.1
		c-0.1-0.1-0.2-0.2-0.3-0.2c-0.3-0.1-0.7,0.2-1.1,0.6C-1131.5-2028.2-1131.8-2027.2-1131.5-2026.8 M-1131.1-2026L-1131.1-2026
		c-0.4,0-0.6-0.2-0.7-0.5c-0.4-0.7-0.1-1.9,0.7-2.8c0.5-0.5,1-0.8,1.4-0.7c0.3,0,0.5,0.2,0.6,0.5c0.4,0.7,0.1,1.9-0.7,2.8
		C-1130.2-2026.3-1130.7-2026-1131.1-2026"/>
	<path id="Fill-385" class="st18" d="M-1169.3-1987.6c-0.6,0-1.4,0.5-1.9,1.2c-0.3,0.5-0.4,1.1-0.3,1.5c0.1,0.2,0.2,0.4,0.4,0.4
		c0.6,0.2,1.7-0.3,2.2-1.1c0.3-0.5,0.4-1.1,0.3-1.5c-0.1-0.2-0.2-0.4-0.4-0.4C-1169.1-1987.6-1169.2-1987.6-1169.3-1987.6
		 M-1170.7-1984c-0.2,0-0.4,0-0.5-0.1c-0.3-0.1-0.6-0.4-0.7-0.7c-0.2-0.5-0.1-1.2,0.3-1.8c0.7-1.1,1.9-1.6,2.8-1.3
		c0.3,0.1,0.6,0.4,0.7,0.7c0.2,0.5,0.1,1.2-0.3,1.8C-1169-1984.5-1169.9-1984-1170.7-1984"/>
	<path id="Fill-387" class="st18" d="M-1168.5-1951.4h-0.5c-0.7,0.1-1.2,0.5-1.5,0.9c-0.1,0.3-0.2,0.5-0.1,0.8
		c0.2,0.8,1.3,1.3,2.4,1.1c0.7-0.1,1.2-0.5,1.5-0.9c0.1-0.3,0.2-0.5,0.1-0.8C-1166.7-1951-1167.5-1951.4-1168.5-1951.4
		 M-1168.6-1948c-1.1,0-2.1-0.6-2.4-1.5c-0.1-0.4-0.1-0.8,0.2-1.2c0.3-0.6,1-1,1.8-1.2c1.4-0.2,2.6,0.4,2.9,1.5
		c0.1,0.4,0.1,0.8-0.2,1.2c-0.3,0.6-1,1-1.8,1.2H-1168.6"/>
	<path id="Fill-389" class="st18" d="M-1081.5-1962.4h-0.5c-0.7,0.1-1.2,0.5-1.5,0.9c-0.1,0.3-0.2,0.5-0.1,0.8
		c0.2,0.8,1.3,1.3,2.4,1.1c0.7-0.1,1.2-0.5,1.5-0.9c0.1-0.3,0.2-0.5,0.1-0.8C-1079.7-1962-1080.5-1962.4-1081.5-1962.4
		 M-1081.6-1959c-1.1,0-2.1-0.6-2.4-1.5c-0.1-0.4-0.1-0.8,0.2-1.2c0.3-0.6,1-1,1.8-1.2c1.4-0.2,2.6,0.4,2.9,1.5
		c0.1,0.4,0.1,0.8-0.2,1.2c-0.3,0.6-1,1-1.8,1.2H-1081.6"/>
	<path id="Fill-391" class="st18" d="M-1104.3-1967.5c-0.5,0-1.1,0.3-1.5,0.7c-0.4,0.4-0.7,1-0.7,1.4c0,0.2,0.1,0.4,0.2,0.6
		c0.5,0.4,1.4,0.2,2.2-0.5c0.4-0.4,0.7-1,0.7-1.4c0-0.2-0.1-0.4-0.2-0.6C-1103.9-1967.4-1104.1-1967.5-1104.3-1967.5 M-1105.7-1964
		c-0.4,0-0.7-0.1-0.9-0.3c-0.3-0.2-0.4-0.6-0.4-1c0-0.6,0.3-1.3,0.8-1.8c0.9-0.9,2.1-1.1,2.8-0.5c0.3,0.2,0.4,0.6,0.4,1
		c0,0.6-0.3,1.3-0.8,1.8C-1104.4-1964.3-1105.1-1964-1105.7-1964"/>
	<path id="Fill-393" class="st18" d="M-1154.1-1970.5c-0.5,0-1.1,0.6-1.4,1.3c-0.2,0.5-0.2,1,0,1.4c0.1,0.2,0.2,0.3,0.4,0.4
		c0.5,0.1,1.2-0.5,1.5-1.3c0.2-0.5,0.2-1,0-1.4C-1153.7-1970.3-1153.8-1970.4-1154.1-1970.5L-1154.1-1970.5 M-1154.9-1967h-0.3
		c-0.3-0.1-0.5-0.3-0.7-0.6c-0.2-0.5-0.2-1.1,0-1.8c0.4-1.1,1.3-1.8,2-1.6c0.3,0.1,0.5,0.3,0.7,0.6c0.2,0.5,0.2,1.1,0,1.8
		C-1153.5-1967.7-1154.3-1967-1154.9-1967"/>
	<path id="Fill-395" class="st18" d="M-1173.9-1962c-0.1,0-0.2,0-0.2-0.1c-0.1-0.1-0.1-0.2,0.1-0.3c0.4-0.3,0.6-0.7,0.5-1.1
		c-0.2-0.7-1.3-1.1-2.4-1c-0.7,0.1-1.4,0.5-1.6,1c-0.1,0.1-0.2,0.2-0.3,0.1c-0.1,0-0.2-0.2-0.1-0.3c0.3-0.6,1-1.1,1.9-1.2
		c1.4-0.2,2.7,0.4,3,1.3c0.2,0.6-0.1,1.2-0.7,1.6H-1173.9"/>
	<path id="Fill-397" class="st18" d="M-1138.9-2055.4c-0.3,0-0.6,0.2-0.9,0.5c-0.6,0.6-0.9,1.5-0.8,2.1c0.1,0.2,0.1,0.3,0.3,0.3
		c0.3,0.1,0.7-0.1,1.1-0.4c0.6-0.6,0.9-1.5,0.8-2.1c-0.1-0.2-0.1-0.3-0.3-0.3C-1138.8-2055.4-1138.8-2055.4-1138.9-2055.4
		 M-1140.1-2052c-0.1,0-0.2,0-0.3-0.1c-0.2-0.1-0.4-0.3-0.5-0.6c-0.3-0.8,0.1-2,0.9-2.8c0.5-0.5,1-0.7,1.4-0.5
		c0.2,0.1,0.4,0.3,0.5,0.6c0.3,0.8-0.1,2-0.9,2.8C-1139.3-2052.2-1139.7-2052-1140.1-2052"/>
	<path id="Fill-399" class="st18" d="M-1153.3-2006.5c-0.1,0-0.2,0-0.3,0.1c-0.4,0.2-0.7,0.6-0.8,1.1c-0.2,0.8,0,1.7,0.5,1.9
		c0.1,0.1,0.3,0,0.5,0c0.4-0.2,0.7-0.6,0.8-1.1c0.3-0.9-0.1-1.7-0.5-1.9C-1153.2-2006.5-1153.2-2006.5-1153.3-2006.5 M-1153.7-2003
		c-0.1,0-0.2,0-0.4-0.1c-0.8-0.3-1.1-1.3-0.8-2.4c0.2-0.7,0.6-1.2,1.1-1.4c0.3-0.1,0.6-0.2,0.9-0.1c0.8,0.3,1.1,1.3,0.8,2.4
		c-0.2,0.7-0.6,1.2-1.1,1.4C-1153.4-2003-1153.5-2003-1153.7-2003"/>
	<path id="Fill-401" class="st18" d="M-1134.1-1965.5h-0.2c-0.4,0.1-0.7,0.5-1,1c-0.4,0.8-0.3,1.7,0.1,2c0.1,0.1,0.3,0.1,0.4,0
		c0.4-0.1,0.7-0.5,1-1c0.4-0.8,0.3-1.7-0.1-2H-1134.1 M-1134.9-1962c-0.2,0-0.3,0-0.5-0.1c-0.7-0.4-0.8-1.5-0.3-2.5
		c0.3-0.6,0.8-1.1,1.3-1.3c0.3-0.1,0.6-0.1,0.8,0.1c0.7,0.4,0.8,1.5,0.3,2.5c-0.3,0.6-0.8,1.1-1.3,1.3H-1134.9"/>
	<path id="Fill-403" class="st18" d="M-1051-2009.5L-1051-2009.5c-0.2,0-0.3,0.1-0.4,0.3c-0.2,0.3-0.1,0.9,0.1,1.4
		c0.3,0.8,1,1.4,1.5,1.3c0.1,0,0.2-0.1,0.3-0.3c0.2-0.3,0.1-0.9-0.1-1.4C-1050-2009.1-1050.6-2009.5-1051-2009.5 M-1050-2006
		c-0.6,0-1.4-0.6-1.8-1.6c-0.3-0.7-0.3-1.3-0.1-1.8c0.1-0.3,0.3-0.5,0.6-0.6c0.7-0.2,1.6,0.5,2,1.5c0.3,0.7,0.3,1.3,0.1,1.8
		c-0.1,0.3-0.3,0.5-0.6,0.6C-1049.8-2006-1049.9-2006-1050-2006"/>
</g>
</svg>
