<svg xmlns="http://www.w3.org/2000/svg" viewBox="0 0 113 115" xml:space="preserve" enable-background="new 0 0 113 115"><style>.st18,.st22{fill-rule:evenodd;clip-rule:evenodd;fill:#ffefe9}.st22{fill:#384154}</style><g id="Layer_2"><g id="Page-1_00000013882591783402767320000017032971057550193851_"><g id="Kitchen-Product-Page-Copy_00000165199786695287932640000000396186828978524835_" transform="translate(-912 -1302)"><g id="Group-124" transform="translate(912 1302)"><path id="Fill-1_00000067943172157015170340000016448302510050060175_" d="M50.2 48.7c.2-.7.6-1.8 1.1-2.3 1.7-1.5 4.1-3 4.5-6 .8-6.2-.9-13.5-.2-19.8.3-2.9.9-6.3 2.1-9 1.4-3.1 2.6-6.4 5.8-8 2.5-1.3 3.9-1.2 6.7-1.2 1.2 0 2.7-.6 4-.8 1.7-.3 3.7 0 5.2.5 4.7 1.6 6.8 4.5 8.5 8.8.6 1.4 1.6 5 2 6.5.6 2.6 1 5.4 1.3 6.7.2 1.3 1.3 4.9 3.7 7 1.2 1 2.3 2.2 3.1 3.4.9 1.3 1.1 2.2 1.3 3 .8 3.1-2.4 6.3-1.7 9.5.2 1.1 1 1.7 1.2 2.1.7.9 2.1 1.6 2.4 1.9.3.3 1.3 1.1 1.7 1.8.6 1 1.2 2.9.7 4.2-.5 1.1-2 .5-2.9.4-1-.1-2-.6-2.9-.9-1.5-.5-3.1-.9-4.7-1.3-4.2-.8-8.5-1.1-12.7-1.6-6.3-.8-12.7-1.2-19-2.1-2.9-.4-5.9-.8-8.8-1.3-.6-.1-2.7-.2-2.7-.2s.3-1.1.3-1.3" fill-rule="evenodd" clip-rule="evenodd" fill="#fa9700"/><path id="Fill-3_00000074402889536451081930000009338700890041751722_" class="st18" d="M69.6 7.3c-1.2-.1-2.2-.6-3-.7-4.2-.3-5.1 3-5.9 4.6-1.1 2.1-1 4-1.2 6.3-.4 4.6-.6 7.3-.3 11.9.1 1.3.9 4.7 1.7 7 .9 2.5 2.1 4.4 2.1 4.4s.3 2.6-.5 4.7c-.1.4-1.7 1.6-2.7 2.1-1.3.6-3 1.1-3 1.1s.4 1.4 2 2.5c1.9 1.3 4.8 2 6.4 2.2 3.5.3 6.9-.6 10.1-1.8 3.4-1.3 7-2.3 9.7-4.9.6-.6-3.3-3.4-3.3-3.4s.1-6 .8-8.3c0-.2.3-1.5.5-2.5.3-1 1.1-1.9 1.1-1.9s1.4-.8 1.9-1.6.9-2.2.8-2.8c0 0-2.7-1.8-5.9-7.2-1-1.7-2.3-4.3-3.1-6.5-.9-2.3-1.4-4.1-2.7-5.3-1.8-1.7-3.9.2-5.5.1"/><g id="Group-7" transform="translate(1 49)"><defs><filter id="Adobe_OpacityMaskFilter_00000060009046434322421270000001594211365015863211_" filterUnits="userSpaceOnUse" x="35" y=".6" width="74.8" height="68.9"><feColorMatrix values="1 0 0 0 0 0 1 0 0 0 0 0 1 0 0 0 0 0 1 0"/></filter></defs><mask maskUnits="userSpaceOnUse" x="35" y=".6" width="74.8" height="68.9" id="mask-2_00000106117394409925797910000005865128909446465153_"><g filter="url(#Adobe_OpacityMaskFilter_00000060009046434322421270000001594211365015863211_)"><path id="path-1_00000096046343168281439200000002890642338005467043_" fill-rule="evenodd" clip-rule="evenodd" fill="#fff" d="M35 .6h74.8v68.9H35z"/></g></mask><path id="Fill-5_00000168087052308727873520000017566178597368954039_" d="M56.9.6s-.8.2-1.6.3c-.8.2-3.3.3-5.3.6-2.1.4-4.8 0-6.9.6-1.3.4-3.1.8-4.2 1.7-1.1.8-1.7 1.6-2.3 2.8-.5.8-1.4 4-1.5 5-.3 2.9 1.1 9.8 1.1 9.8s1.5 5 2.2 9c.7 3.8 1.7 8.9 2.5 12.7.6 2.8.8 5.9 1.2 8.7.6 3.3.7 7.1.7 8.6-.1 1.5-.7 3.1-.2 4.5.3.8.4 1.9.3 3.4-.1 1.8 8.8.2 11.6-.5 4-1 9.1-1.8 12.5-.9 3.4.9 6.1 1.6 8.1 2 2 .4 4.1.5 5.4.4 2-.2 4-.8 6.1-.9 2.1-.2 7.4 1.4 8.5 0 .3-.3.3-1.8.3-3 .1-2.3.1-4.8.1-4.8l.5-5.5c.1-1.1.5-3.7.5-4.8.1-1.9 1.2-4.7 1.7-6.5.3-1.2 1.1-2.4 1.4-4.4.3-2 .3-4.7.3-4.7s3.9-.2 5.3-1.6c1.9-1.9 2.5-2.3 3.3-4.9.3-1.1.2-2.2.3-3.9 0-1.7 1.2-5.6 1.2-6.7 0-1.1-.2-3.2-.7-4.2-.7-1.4-2.8-2.7-4-3.5-.9-.6-3.1-1.5-5.4-2.1-2.5-.6-5.3-1.1-7.3-2.2-1.4-.8-2.7-1.5-2.7-1.5s-.5 1.6-4.5 1c-4.4-.4-8.7-1-12.9-1.3-2.8-.2-10.3.8-10.3.8s-1.5-.4-3.1-1.3c-1.5-1-2.2-2.7-2.2-2.7" mask="url(#mask-2_00000106117394409925797910000005865128909446465153_)" fill-rule="evenodd" clip-rule="evenodd" fill="#fff"/></g><path id="Fill-8" d="M66.7 71.1c-.6-.8-.5-2.5-.5-2.5s-2.5-2.7-2.9-4.1c-1.2-3.7-1.5-4.1-1.3-8 0-.3.4-2 1-3.3.7-1.6 1.6-2.8 1.6-2.8s-.5-1.9-.4-3.6c.1-1.5.6-2.7 1.3-3.5 1.3-1.5 3.7-.5 5 0 .6.2 3.3 2.1 3.3 2.1s2.8.5 5.4.3c1.5-.1 1.4-.2 1.4-.2s4.5-2.7 5.6-2.8c.4 0 2.3.5 2.7.7.6.4 1.2 1.1 1.3 2.6.1 1.5-.5 4.5-.5 4.5l1 2.5s1.2 4 1.2 5c0 2.4-.3 4.7-.9 6-.6 1.4-3 4.1-3 4.1v2.2s-3.7 1.5-4.8 1.7c-1 .2-2.3-.2-2.3-.2s-2.9.7-3.8.7c-.8 0-.6-1.4-1.4-1.3-.3 0-.8 0-1.2.2-.6.3-1.2.9-1.8 1-1.4.3-2.7-.2-3.7-.4-.9-.3-1.8-.2-2.3-.9" fill-rule="evenodd" clip-rule="evenodd" fill="#ffe1e1"/><path id="Fill-10" class="st18" d="M62.1 60.1c-1.5-1.5-2.4.2-2.2.4.1.1.3 1.2.3 1.9 0 .9-.3 1.5-.3 1.7 0 .8.2 1 .2 2s-.3 1.3-.2 2.1c.1.7.5 1.2.5 1.2s.6 3.8 1.1 4.6c.8 1.3 1.7 2.1 3.5 3.3 1.5 1 3.8 1.1 5.2 1.1 1.5 0 3.5-1.1 3.5-1.1s1.5.3 1.9.3c.7 0 1.2-.8 1.2-.8s1.8 1 3.2 1.1c.5.1 1.1-.4 1.2-.5 1.7-.9 2.6-1.6 3.9-3 1.1-1.2 2.4-2.8 2.7-4.5.1-.6-.8-.8-1.5-.8s-3 2.1-3 2.1l-2.7-.2s1.4-1.3 2.2-2.4c.4-.6.4-1.1.4-1.2-.3-.6-1.7-.5-2.3-.4-1.6.3-4.8 3.4-4.8 3.4s-.6-.2-1.2.1c-.5.2-1.2.8-1.6 1-1 .4-1.7.2-1.7.2s1.2-1.5 1.1-2.5c0-.6-1.1-.8-1.4-.9-1.1-.3-4.2 2.6-4.2 2.6l-.3-3.2-2.6-3-1.3-3.7-.8-.9z"/><path id="Fill-12" class="st18" d="M81.3 77.9c-.1.1-.3.1-.4.3-.1.1.9 1.1 1 1.2.8.5 2 .5 2 .5l1.7-.8s1.6 1.2 3.4 1.4c1.3.2 3.1-.4 3.7-.8.7-.5 1.2-1.4 1.2-1.4s1-.4 1.8-1.6c.4-.8.5-1.5.5-1.5s1.6-1.2 1.8-2.8c.3-1.5-2.3-3.5-2.3-3.5s.6-.6-.7-1.7c-1.3-1.1-4.6-2.6-4.6-2.6L89 66.7l-2 2.4-.3 1.8s-2.8 2.3-4 4.3c-.5.9-.7 1.9-1.4 2.7"/><path id="Fill-14" class="st22" d="M81.3 43.5c-.2 0-.3-.1-.3-.3-.4-3 1-9.3 1.3-10.5 0-.2.2-.3.4-.2.2 0 .3.2.2.3-.8 3.5-1.6 8.1-1.3 10.3 0 .2-.1.4-.3.4"/><path id="Fill-16" class="st22" d="M59.2 19.5c-.2 0-.3-.2-.3-.3.1-2 .5-5 1.5-7.8 0-.1 1.2-3.2 3.9-4.4 1.3-.6 2.8-.6 4.3-.1.2.1.3.2.2.4-.1.2-.3.2-.4.2-1.4-.5-2.6-.5-3.8 0-2.4 1.1-3.5 3.9-3.6 4-1 2.7-1.4 5.6-1.5 7.6 0 .3-.1.4-.3.4"/><path id="Fill-18" class="st22" d="M63.6 43.5c-.1 0-.1 0-.2-.1-2.7-2.9-4.4-8.9-4.6-16.6 0-.2.1-.3.2-.3s.3.1.3.3c.2 7.5 1.8 13.4 4.4 16.2.1.1.1.3 0 .4.1.1 0 .1-.1.1"/><path id="Fill-20" class="st22" d="M74.2 43.5c-.1 0-.2-.1-.3-.2-.1-.2 0-.3.2-.4 3.2-1 6.2-4.4 7.2-8.2 0-.2.2-.3.4-.2.2 0 .3.2.2.4-1.1 4-4.2 7.5-7.7 8.6"/><path id="Fill-22" class="st22" d="M69.3 30.5h-.2c-.6-.4-1.3-.9-1.3-1.8 0-.7.4-1.2.7-1.7.2-.3.4-.6.6-1 .3-1 .1-2-.4-3.1-.1-.1 0-.3.2-.4.2-.1.3 0 .4.1.6 1.2.7 2.3.4 3.4-.1.5-.4.8-.6 1.2-.3.4-.6.8-.6 1.3 0 .6.4 1 1 1.3.1.1.2.3.1.4-.1.3-.2.3-.3.3"/><path id="Fill-24" class="st22" d="M64.5 20.5h-.1c-.9-.4-2.7-.3-2.9-.1-.1.1-.4.1-.5 0-.1-.1-.1-.4 0-.5.5-.5 2.7-.5 3.7 0 .2.1.2.3.2.5-.1 0-.2.1-.4.1"/><path id="Fill-26" class="st22" d="M76.6 20.5h-.1c-.8-.4-2.3-.5-3.2-.2-.2 0-.3-.1-.4-.2 0-.2.1-.3.2-.4 1-.3 2.6-.2 3.6.2.2.1.2.3.2.4-.1.1-.2.2-.3.2"/><path id="Fill-28" class="st22" d="M75.9 23c0-.3-.2-.5-.5-.5s-.5.2-.5.5.2.5.5.5.5-.2.5-.5"/><path id="Fill-30" class="st22" d="M65.9 23c0-.3-.2-.5-.5-.5s-.5.2-.5.5.2.5.5.5.5-.2.5-.5"/><path id="Fill-32" class="st22" d="M55.6 32.5c-.2 0-.3-.1-.3-.3 0-1.3-.1-2.6-.3-4.3-.5-5.8.1-11.3 1.7-16.4C58.1 7 61.5-.4 68.6.6c.2 0 .3.2.3.3 0 .2-.2.3-.4.3-6.6-.9-9.9 6.1-11.2 10.4-1.6 5.1-2.1 10.5-1.7 16.2.1 1.7.2 3.1.3 4.3 0 .3-.1.4-.3.4z"/><path id="Fill-34" class="st22" d="M90.6 20.5c-.1 0-.3-.1-.3-.3-1-5.1-2.1-8.9-3.5-11.7-3.3-6.9-9.7-8.4-14.5-6.8-.2.1-.3 0-.4-.2-.1-.2 0-.3.2-.4 5-1.7 11.7-.1 15.2 7.2 1.4 2.9 2.5 6.7 3.5 11.9.1.1 0 .3-.2.3"/><path id="Fill-36" class="st22" d="M71.1 5.5c-.2 0-.3-.1-.3-.3v-.6c.1-.9.1-2.3.5-3 .1-.1.2-.2.3-.1.1.1.2.2.1.3-.3.6-.4 2-.4 2.8v.6c.1.2 0 .3-.2.3"/><path id="Fill-38" class="st22" d="M69.5 35.5c-1.3 0-2.6-.1-3.4-.3-.2 0-.2-.2-.2-.3 0-.1.2-.2.4-.1 1.8.4 5.7.4 7.2-.3.1-.1.3 0 .4.1.1.1.1.2-.1.3-1 .4-2.7.6-4.3.6"/><path id="Fill-40" class="st22" d="M101 83.5c-1.3 0-2.8-.2-4.8-.7-1.1-.3-2.4-.8-3.8-1.4-1.1-.5-2.3-.9-3.5-1.3-.1 0-.2-.1-.4-.1-.8-.2-2-.5-2.6-1.2-.1-.1-.1-.3 0-.4.1-.1.3-.1.4 0 .5.6 1.6.9 2.2 1.1.2 0 .3.1.4.1 1.2.4 2.4.9 3.5 1.3 1.3.6 2.6 1.1 3.7 1.3 4 .9 6.2.9 8.6-.2 1.9-.9 3-2.9 3.4-3.5v-.1c.8-1.5.8-3 .8-4.3v-1.3c.1-.8.3-1.7.5-2.7.6-3 1.4-6.3-.5-8.7-2.2-2.8-6.4-3.9-9.1-4.7-.4-.1-.7-.2-1-.3-.4-.1-.9-.3-1.4-.4-2.5-.7-5-1.4-6.1-2.2-.1-.1-.2-.3-.1-.4.1-.1.3-.2.4-.1 1 .7 3.6 1.5 5.9 2.1.5.1 1 .3 1.4.4.3.1.6.2 1 .3 2.8.8 7.1 1.9 9.5 4.9 2.1 2.6 1.3 6.1.7 9.2-.2.9-.4 1.8-.5 2.6V74c0 1.2 0 2.9-.9 4.6v.1c-.4.7-1.5 2.8-3.6 3.8-1.3.7-2.6 1-4.1 1"/><path id="Fill-42" class="st22" d="M55.3 83.5c-5.6 0-9.1-2.6-12.7-5.5l-.4-.3c-3-2.3-5.7-6.8-6-7.9-.9-2.8-1.1-4.1-1.2-6.1-.1-2.7.4-6.7 2.4-9.6 2-2.9 6.4-3.7 9.6-3.7 4.7-.1 10.5-.5 14.3-2.8 1.5-.9 2.1-2.4 2.1-5.8 0-.2.1-.3.3-.3.2 0 .3.1.3.3-.1 3.6-.7 5.3-2.4 6.3-3.9 2.3-9.8 2.8-14.6 2.9-3.1.1-7.3.7-9.1 3.5-1.9 2.7-2.4 6.5-2.3 9.2.1 1.9.3 3.2 1.1 6 .3.9 2.9 5.4 5.8 7.6l.5.3c3.6 2.7 7 5.3 12.4 5.3h.1c2.2 0 4.7-.6 7-1.2.8-.2 1.7-.4 2.5-.6 1.3-.3 2.6-.3 3.8-.4 1.5-.1 2.9-.1 3.6-.7.1-.1.3-.1.4.1.1.1.1.3-.1.4-.9.7-2.3.8-4 .8-1.1.1-2.4.1-3.7.4-.8.2-1.7.4-2.5.6-2.4.6-4.9 1.2-7.2 1.2.1 0 0 0 0 0"/><path id="Fill-44" class="st22" d="M65.9 71.5c-.1 0-.3-.1-.3-.2-.1-.5-.2-1.1-.2-1.5 0-.5-.1-.9-.2-1.2-.1-.3-.7-.9-1.1-1.5-.4-.5-.9-1-1.1-1.3-1.6-2.7-2.3-5.6-2.1-8.5.1-1.5.6-3.5 1.2-4.8.2-.4.4-.8.6-1.1.3-.4.5-.8.7-1.3.1-.3 0-.6-.1-.9 0-.2-.1-.4-.1-.5 0-.4-.4-3.8.8-5.7 1-1.5 2.5-1.9 4.8-1.1 1.1.4 2.2 1.2 3 1.8.6.4 1.1.8 1.4.9 1.1.3 4.6.4 6.8 0 .2 0 .8-.4 1.3-.8.8-.5 1.8-1.2 2.7-1.6 1.8-.8 4.3-.2 5.4 1.2 1 1.3.6 3.3.4 4.7v.2c0 .2-.1.3-.1.5-.1.4-.2.9-.1 1.2.2.8.5 1.6.8 2.5.2.5.4 1.1.6 1.6 1 3.1 1.1 6.2.3 8.6-.7 2.2-1.2 2.9-2 3.8-.2.2-.4.4-.5.6-.3.3-.6.6-.9 1.1-.1.2-.2 1.1-.2 1.5 0 .2-.1.3-.3.3-.2 0-.3-.1-.3-.3 0 0 0-1.5.2-1.8.3-.5.6-.8.9-1.2.2-.2.3-.4.5-.6.7-.9 1.3-1.5 1.9-3.6.7-2.3.6-5.3-.3-8.2-.2-.5-.4-1.1-.6-1.6-.3-.8-.6-1.7-.8-2.5-.1-.5 0-1 .1-1.5 0-.2.1-.3.1-.5V48c.2-1.3.6-3.2-.3-4.3-.9-1.2-3.1-1.7-4.6-1-.9.4-1.8 1-2.6 1.5-.8.6-1.3.9-1.6.9-2.3.4-5.9.2-7.1-.1-.4-.1-1-.5-1.6-1-.8-.6-1.8-1.3-2.9-1.7-2-.7-3.2-.4-4 .9-.9 1.3-.9 3.6-.8 5.3 0 .2.1.3.1.5.1.4.2.8.1 1.2-.2.6-.5 1.1-.8 1.5-.2.3-.4.6-.6 1-.6 1.2-1.1 3.2-1.2 4.6-.2 2.7.5 5.5 2 8.1.2.3.6.8 1 1.2.6.6 1.1 1.2 1.2 1.7.1.4.2.9.2 1.4 0 .5.1.9.2 1.4.4.2.3.4.1.4"/><path id="Fill-46" class="st22" d="M79.9 51c0-.3-.2-.5-.5-.5s-.5.2-.5.5.2.5.5.5.5-.2.5-.5"/><path id="Fill-48" class="st22" d="M74.9 51c0-.3-.2-.5-.5-.5s-.5.2-.5.5.2.5.5.5.5-.2.5-.5"/><path id="Fill-50" class="st22" d="M77 59.5h-.2c-2.3-.1-3.9-1-4.6-2.6-.5-1.2-.4-2.5.1-3.5.4-.8.9-1.2 1.8-1.6.9-.4 2.1-.4 2.7-.3.2 0 .3.2.3.3 0 .2-.2.3-.4.2-1-.1-1.8 0-2.3.2-.7.4-1.1.7-1.5 1.4-.5.8-.5 2-.1 3 .6 1.3 2 2.1 4 2.2 1.8 0 3.1-.7 3.7-1.4.5-.5 1.1-2.1.3-3.3-.4-.6-1-1.3-2.5-1.8-.2-.1-.3-.2-.2-.4.1-.2.2-.2.4-.2 1.7.5 2.4 1.4 2.9 2.1.9 1.4.3 3.2-.3 4-.7.8-2.2 1.7-4.1 1.7"/><path id="Fill-52" class="st22" d="M78.4 56.5c-.3 0-.4-.2-.4-.3.1-.2.1-.8-.2-1.3-.1-.1 0-.3.2-.4.2-.1.4 0 .5.1.4.6.3 1.3.2 1.6.1.2-.1.3-.3.3"/><path id="Fill-54" class="st22" d="M75.4 56.5c-.1 0-.3-.1-.4-.2-.3-.4-.2-1.1 0-1.6.1-.2.3-.2.5-.2s.3.2.3.4c-.2.5-.2 1-.1 1.2.1.1 0 .3-.2.4h-.1"/><path id="Fill-56" class="st22" d="M104.6 55.5c-.2 0-.3-.1-.3-.3 0-2.3-1.7-3.7-3.1-4.8l-.3-.2c-1-.6-1.9-1.2-2.5-2.2-1.3-2.3-.5-4.3.3-6.3.6-1.5 1.2-2.9.9-4.4-.4-2.6-2-4.1-3.4-5.4l-1.5-1.5c-1.6-1.9-3.4-4.6-3.8-8.6 0-.2.1-.3.3-.3.2 0 .3.1.4.3.4 3.8 2.2 6.4 3.7 8.3.4.5.9.9 1.4 1.4 1.5 1.4 3.1 2.9 3.6 5.7.3 1.7-.3 3.2-.9 4.7-.8 1.9-1.5 3.7-.3 5.8.5.9 1.4 1.5 2.2 2.1l.3.2c1.6 1.1 3.4 2.7 3.4 5.3-.1.1-.3.2-.4.2"/><path id="Fill-58" class="st22" d="M51.2 49.5c-.2 0-.3-.2-.3-.4.1-1.9 1.6-3.3 2.7-4.5.5-.5 1-1 1.2-1.4 1.2-2.1 1.8-5.2 1.5-8.4 0-.2.1-.3.3-.4.2 0 .3.1.3.3.3 3.4-.3 6.6-1.6 8.8-.3.5-.7.9-1.3 1.5-1.1 1.1-2.4 2.4-2.5 4.1-.1.3-.2.4-.3.4"/><path id="Fill-60" class="st22" d="M62.1 73.5c-.1 0-.2-.1-.3-.2-.3-.8-.8-1.3-1.4-1.9-.6-.7-1.3-1.4-1.6-2.4-.1-.5 0-1.2.1-1.7v-.2c.1-.4 0-.8-.1-1.2 0-.2-.1-.3-.1-.5-.1-.5 0-1 .1-1.5 0-.2.1-.3.1-.5.1-.5 0-1.2-.1-1.8l-.1-.3c-.1-.4-.1-1 .2-1.3.2-.3.6-.4 1.1-.4 1.1 0 2.3 1.1 2.8 2.9.1.2.2.6.3 1.1.3 1.3.8 3.5 1.5 4.1.1.1.2.3.1.4-.1.1-.3.2-.4.1-.9-.8-1.4-2.9-1.7-4.5-.1-.4-.2-.8-.2-1-.4-1.4-1.4-2.4-2.2-2.4-.2 0-.5 0-.6.2-.1.2-.1.5-.1.8l.1.3c.1.7.2 1.4.1 2 0 .2-.1.3-.1.5-.1.4-.2.9-.1 1.3 0 .2.1.3.1.5.1.4.2.9.1 1.4v.2c-.1.4-.2 1.1-.1 1.4.2.9.8 1.5 1.4 2.1.6.6 1.2 1.2 1.5 2.1.1.2 0 .3-.2.4h-.2"/><path id="Fill-62" class="st22" d="M65.6 78.5c-.5 0-1-.1-1.4-.3-1-.5-1.9-2.3-2.3-3.8 0-.2.1-.3.2-.4.2 0 .3.1.4.2.4 1.5 1.3 3 2 3.4.7.4 2 .3 2.7-.2.8-.5 1.1-1.1 1.5-1.8.1-.2.2-.4.4-.6l1.2-1.8c.2-.3.4-.6.7-.9.5-.7 1.1-1.4 1.3-2.2.1-.3.1-.6-.1-.7-.2-.2-.7-.3-1.3-.3-1.1.1-2.8 1.4-4 2.5-.5.5-1 1-1.4 1.5-.4.5-.9 1-1.4 1.5-.1.1-.3.1-.4 0-.1-.1-.1-.3 0-.4.5-.5.9-1 1.4-1.5.4-.5.9-1 1.4-1.5.8-.8 2.9-2.6 4.4-2.7.9-.1 1.5.1 1.8.5.2.2.4.6.2 1.3-.2.9-.8 1.7-1.4 2.4-.2.3-.4.6-.6.8-.4.6-.8 1.2-1.1 1.8l-.3.6c-.4.7-.8 1.5-1.7 2-.8.4-1.5.6-2.2.6"/><path id="Fill-64" class="st22" d="M75 78.5c-1 0-2.1-.4-3.2-.8-.9-.3-1.8-.7-2.6-.7-.2 0-.3-.1-.3-.3 0-.2.2-.3.3-.3.9 0 1.9.4 2.8.7 1.2.4 2.4.9 3.5.7.6-.1 1-.8 1.4-1.4.2-.3.3-.5.5-.7.7-.8 1.4-1.7 2.2-2.6.3-.4.5-.7.7-1 .2-.4.5-.8 1-1.3.2-.2.4-.4.7-.6.9-.8 1.5-1.3 1.1-1.8-.6-.7-2.4-.1-3.5.5-1 .6-2.6 1.8-3.8 3-1.1 1.1-2.1 2.3-3 3.6-.1.1-.3.2-.4.1-.1-.1-.2-.3-.1-.4.9-1.2 1.9-2.5 3-3.6 1.3-1.3 2.9-2.5 4-3.1 1.2-.7 3.4-1.5 4.3-.3.8 1-.3 1.9-1.2 2.6-.2.2-.5.4-.7.6-.4.4-.6.8-.9 1.2-.2.3-.4.7-.8 1.1-.8.9-1.5 1.7-2.2 2.6-.1.2-.3.4-.4.7-.4.7-.9 1.5-1.8 1.7-.2-.2-.4-.2-.6-.2"/><path id="Fill-66" class="st22" d="M79.7 78.5h-.4c-.3 0-.6-.1-.9-.2h-.1c-.1 0-.2-.1-.4-.1-.4-.2-1.2-.4-1.7-.5-.2 0-.3-.2-.3-.3 0-.2.2-.3.4-.3.7.1 1.5.4 1.9.5.1 0 .2.1.3.1h.1c.3.1.5.2.8.2 1.1.2 2.1-.5 3-1.2.2-.2.4-.3.6-.5.2-.2.5-.3.7-.5.5-.3 1-.6 1.4-.9.4-.3.6-.6.8-1 .1-.2.3-.4.4-.7.2-.3.4-.6.7-.9.4-.5 1.1-1.3 1-1.5-.1-.5-.3-.6-.4-.6-.6-.2-2 .4-3.1 1.2-.2.2-1.6 1.3-1.8 1.6-.2.2-.6.5-1 .8-.2.1-.4.3-.6.4l-1.5 1c-.6.4-1.2.7-1.4.9-.1.1-.3.1-.5 0-.1-.1-.1-.3 0-.4l1.5-1 1.5-1c.2-.1.4-.3.6-.4.3-.2.7-.5.9-.7.3-.3 1.7-1.5 1.9-1.7.4-.3 2.5-1.7 3.7-1.3.3.1.7.4.8 1 .1.4-.4 1-1.2 1.9-.3.3-.5.6-.7.9-.2.2-.3.4-.4.6-.3.4-.5.8-.9 1.2-.5.4-1 .7-1.5 1-.2.1-.5.3-.7.4-.2.1-.4.3-.6.4-.6.9-1.6 1.6-2.9 1.6"/><path id="Fill-68" class="st22" d="M84.1 77.5c-.2 0-.3-.1-.3-.3 0-.2.1-.3.3-.3.1 0 .3-.1.5-.1l.1-.1c1.6-.5 2.5-1.7 3.5-3.1.1-.1.2-.3.3-.4.3-.4.6-.9.8-1.4.1-.4.3-.7.5-1 .3-.5.5-.9.5-1.4 0-.2-.1-.3-.2-.4-.3-.2-.7-.1-1 .1-.3.1-.5.5-.7.7-.1.1-.3.1-.4 0-.1-.1-.1-.3 0-.4.3-.3.5-.7.8-.9.4-.2 1-.3 1.5-.1.3.2.5.4.5.8.1.7-.2 1.2-.5 1.8-.2.3-.3.6-.4.9-.2.6-.6 1-.9 1.5-.1.1-.2.3-.3.4-1 1.4-2 2.7-3.7 3.3h-.1c-.3.3-.5.4-.8.4"/><path id="Fill-70" class="st22" d="M90.2 78.5c-.6 0-1.3-.1-2.1-.4-.2-.1-.2-.2-.2-.4.1-.2.2-.2.4-.2 2.6 1 3.8-.2 4-.5.2-.6-.2-1.5-.5-2.2-.1-.3-.3-.5-.3-.8 0-.2-.1-.4-.1-.7-.1-.7-.3-1.9-.7-2.2-.1-.1-.2-.1-.3 0-.9.2-1.2 2.1-1.1 3.7 0 .2-.1.3-.3.3-.2 0-.3-.1-.3-.3 0-.7-.1-3.9 1.6-4.4.3-.1.5 0 .8.1.6.4.8 1.7.9 2.6 0 .3.1.5.1.7 0 .2.2.4.3.7.4.8.8 1.8.5 2.7-.2.3-1 1.3-2.7 1.3"/><path id="Fill-72" class="st22" d="M84.7 78.5c-.7 0-1.6-.4-2.5-.7h-.1c-.2-.1-.2-.2-.2-.4.1-.2.2-.2.4-.2h.1c1 .4 2.2.9 2.8.6.4-.2 1-.8 1.4-1.1l.2-.2.4-.4c.5-.4 1.1-1 1.2-1.2 0-.4-.3-.6-1-.7-.2 0-.3-.2-.3-.3 0-.2.2-.3.3-.3 1.1.1 1.6.6 1.5 1.3 0 .5-.6 1.1-1.4 1.7-.1.1-.3.2-.4.4-.1 0-.1 0-.2.1-.4.4-1 1-1.5 1.2-.2.2-.5.2-.7.2"/><path id="Fill-74" class="st22" d="M92.9 77.5c-.2 0-.3-.1-.3-.3 0-.2.1-.3.3-.3 1.2 0 2.2-1 2.4-1.9.2-.6-.2-1.2-.6-1.8-.1-.2-.3-.4-.4-.7-.2-.3-.3-.6-.4-1-.2-.7-.4-1.2-1.1-1.5-.3-.1-.6-.1-.9.2-.5.4-.7 1.3-.5 2.3 0 .2-.1.3-.2.3-.2 0-.3-.1-.3-.2-.2-1.2.1-2.3.7-2.9.4-.3.9-.4 1.4-.3.9.3 1.2 1.1 1.4 1.8l.3.9c.1.2.3.4.4.6.4.7.9 1.4.7 2.3-.3 1.3-1.4 2.5-2.9 2.5"/><path id="Fill-76" class="st22" d="M97.6 74.5c-.1 0-.2 0-.3-.1-.1-.1-.1-.3 0-.4.9-.7 1.6-1.6 1.8-2.4.2-.6-.7-1.5-1.2-2.1-.2-.2-.3-.3-.4-.5-.5-.6-1-1.1-2.2-1.8-1.2-.7-2.6-1-3.5-1.1-.5 0-.9.1-1.1.3-.1.2-.2.4-.1.6.2.8 1.5 1.5 2.4 2 .2.1.2.3.1.4-.1.1-.3.2-.5.1-1.2-.6-2.5-1.4-2.7-2.4-.2-.6 0-1 .2-1.2.3-.4 1-.5 1.7-.5 1 .1 2.6.5 3.8 1.2 1.2.7 1.8 1.2 2.3 1.9.1.1.2.3.4.4.7.7 1.6 1.7 1.4 2.6-.2 1-1 2-2 2.8.1.2 0 .2-.1.2"/><path id="Fill-78" class="st22" d="M95.6 68.5c-.1 0-.3-.1-.3-.3 0-.3-.4-1-.7-1.4-.4-.5-1-.9-1.6-1.3-.2-.1-.3-.2-.5-.3-.2-.1-.3-.2-.4-.3-.4-.3-.8-.5-1.1-.8-.1-.1-.2-.3-.1-.4.1-.2.2-.2.3-.1.4.2.8.5 1.2.8.1.1.3.2.4.3.2.1.3.2.5.3.6.4 1.2.8 1.7 1.4 0 0 .8 1 .8 1.8.1.2 0 .3-.2.3"/><path id="Fill-80" class="st22" d="M81.8 72.5c-.6 0-1.3-.1-1.7-.3-.1-.1-.2-.3-.2-.4.1-.2.2-.3.3-.2.6.3 1.8.4 2.3.2.1-.1.3 0 .3.2s0 .4-.2.4c-.1.1-.5.1-.8.1"/><path id="Fill-82" class="st22" d="M71.8 72.5h-.6c-.2 0-.3-.2-.3-.3 0-.2.2-.3.3-.3.3 0 1.2.1 1.7-.1.3-.1.4-.3.6-.4.2-.1.3-.3.6-.4.4-.2 1.1-.3 1.5-.3.2 0 .3.1.3.3 0 .2-.1.3-.3.3-.4 0-.9.1-1.3.3-.2.1-.3.2-.4.3-.2.2-.4.3-.7.5-.4.1-1 .1-1.4.1"/><path id="Fill-84" class="st22" d="M58.6 61.5c-.1 0-.2 0-.2-.1-.6-.7-1.5-1.3-2.3-1.9-.6-.4-1.2-.8-1.7-1.3l-1.8-1.8c-1.2-1.2-2.3-2.4-3.8-3.2 0 0-3.8-1.9-6.4-.7-.1.1-.3 0-.4-.1-.1-.1 0-.3.2-.4 3-1.3 6.9.7 7 .8 1.6.8 2.8 2.1 4 3.3.6.6 1.1 1.2 1.8 1.7.5.4 1 .8 1.6 1.2.9.6 1.8 1.2 2.4 2 .1.1.1.3 0 .4-.3.1-.4.1-.4.1"/><path id="Fill-86" class="st22" d="M95.2 65.5c-.1 0-.1 0-.2-.1s-.2-.3 0-.4c1-.9 2.1-1.2 3.5-1.5.6-.1 1.3-.3 2-.5.2-.1.4-.1.7-.2 1.6-.5 3.8-1.3 5.5-1.3.2 0 .3.1.3.3 0 .1-.1.3-.3.3-1.5 0-3.6.7-5.2 1.2-.2.1-.5.2-.7.2-.7.2-1.4.4-2 .6-1.3.3-2.3.6-3.2 1.4h-.4"/><path id="Fill-88" class="st22" d="M42.4 118.5c-.2 0-.3-.2-.3-.4.3-1.6.1-2.3-.1-3-.2-.7-.4-1.4-.3-2.9 0-.5.1-1 .1-1.5.1-1.4.2-2.5 0-4.7-.1-1-.2-2-.3-2.9-.5-5-.9-8.9-2-15.5-.8-4.6-2.2-10.9-3.1-15.1-.2-1-.4-1.9-.6-2.6 0-.2.1-.3.2-.4.1 0 .3.1.3.2.2.7.3 1.6.6 2.6.9 4.2 2.3 10.6 3.1 15.2 1.2 6.6 1.5 10.5 2 15.5.1.9.2 1.9.3 2.9.2 2.2.1 3.4 0 4.8 0 .5-.1.9-.1 1.5-.1 1.3.1 2 .3 2.6.2.8.4 1.6.1 3.3.1.3-.1.4-.2.4"/><path id="Fill-90" class="st22" d="M90.6 79.5c-1.4 0-2.7-.4-3.6-1-.1-.1-.2-.3-.1-.4.1-.1.3-.2.4-.1 1.1.7 3.3 1.2 5 .6 1-.3 1.7-1 2-1.9.1-.2.2-.2.4-.2.1.1.2.2.2.4-.4 1.1-1.2 1.9-2.4 2.3-.6.2-1.3.3-1.9.3"/><path id="Fill-92" class="st22" d="M68.8 79.5h-.7c-2.5-.1-8.5-1.1-9.2-7.7 0-.2.1-.3.3-.3.2 0 .3.1.3.3.6 5.9 5.7 7 8.6 7.1 2.4.1 3.7-.4 4.3-.8.1-.1.3-.1.4.1.1.1.1.3-.1.4-.8.6-2.2.9-3.9.9"/><path id="Fill-94" class="st22" d="M103.6 73.5c-.1 0-.2-.1-.3-.2-1.7-4-5.2-5.3-7.1-5.2-.2 0-.3-.1-.3-.3 0-.2.1-.3.3-.3 2.1-.2 5.9 1.2 7.7 5.5.1.2 0 .3-.2.4 0 .1-.1.1-.1.1"/><path id="Fill-96" class="st22" d="M52.2 73.5c-.1 0-.1 0 0 0-.2 0-.3-.2-.3-.3.2-3.8 1.4-8.4 6.7-8.7.1 0 .3.1.3.3 0 .2-.1.3-.3.3-4.8.3-6 4.5-6.2 8.1 0 .2-.1.3-.2.3"/><path id="Fill-98" class="st22" d="M95.2 117.5c-.2 0-.3-.1-.3-.3.1-6 .5-12.8.9-16.2.6-4.9 1.5-7.4 2.3-9.6.2-.5.3-.9.5-1.4.5-1.6.8-3.6.7-6v-.2c0-.2.1-.3.3-.3.2 0 .3.1.3.3v.2c.1 2.5-.1 4.6-.7 6.2-.2.5-.3 1-.5 1.4-.8 2.3-1.7 4.6-2.2 9.4-.4 3.4-.9 10.2-.9 16.1-.1.3-.3.4-.4.4"/><path id="Fill-100" class="st22" d="M62.6 52.5c-2.4-.6-4.1-2-4.7-3.6-.1-.1 0-.3.1-.4.1-.1.3 0 .3.2.5 1.5 2.2 2.7 4.3 3.3.1 0 .2.2.2.3 0 .1-.1.2-.2.2"/><path id="Fill-102" class="st22" d="M85.2 45.5h-.1c-.1-.1-.2-.2-.2-.4.3-.8 2.2-2.1 3.8-1.4.1.1.2.2.2.4-.1.1-.2.2-.4.2-1.3-.5-2.9.5-3.1 1.1 0 0-.1.1-.2.1"/><path id="Fill-104" class="st22" d="M69.6 45.5c-.1 0-.2 0-.2-.1-.6-.9-2.3-1.5-3.1-1.4-.2 0-.3-.1-.3-.2s.1-.3.2-.3c1.1-.2 3 .5 3.7 1.6.1.1 0 .3-.1.3-.1.1-.2.1-.2.1"/><path id="Fill-106" class="st22" d="M89.6 32.5c-.2 0-.3-.1-.3-.3-.3-3.7-2.4-5.7-4.4-7.6-1-1-2-1.9-2.8-3.1-2-3.1-3.9-6.8-5.6-11-.7-1.8-1.8-3-3-3.3-.7-.2-1.4-.1-2.1.4-.1.1-.3.1-.4-.1-.1-.1-.1-.3.1-.4.9-.6 1.8-.8 2.7-.5 1.4.4 2.6 1.7 3.4 3.7 1.7 4.2 3.5 7.9 5.5 10.9.7 1.1 1.7 2 2.7 3 2.1 2 4.2 4 4.5 8 0 .1-.1.3-.3.3"/><path id="Fill-108" class="st22" d="M84.1 30.5c-.2 0-.3-.1-.3-.3 0-.1.1-.3.3-.3.6 0 1.8-1.3 2.2-3.2 0-.1.2-.2.3-.2.2 0 .2.2.2.3-.3 2-1.5 3.7-2.7 3.7"/><path id="Fill-110" class="st22" d="M85.1 27.5s-.1 0 0 0c-.2-.1-.3-.3-.2-.5.1-.2.2-.5.3-.8.1-.2.2-.4.2-.5.1-.2.2-.2.3-.1.1.1.1.3.1.5-.1.1-.1.3-.2.6s-.2.6-.3.8c0-.1-.1 0-.2 0"/><path id="Fill-112" class="st22" d="M48.6 41.5c-.1 0-.1 0-.2-.1L44 38c-.1-.1-.2-.3-.1-.4.1-.1.3-.2.4-.1l4.5 3.4c.1.1.2.3.1.4-.1.2-.2.2-.3.2"/><path id="Fill-114" class="st22" d="m44.6 44.5-4.5-.6c-.2 0-.3-.1-.2-.3 0-.1.2-.2.3-.2l4.4.6c.2 0 .3.1.2.3 0 .1-.1.2-.2.2"/><path id="Fill-116" class="st22" d="M51.5 37.5c-.1 0-.2-.1-.3-.2L47.9 32c-.1-.2 0-.3.1-.4.2-.1.4 0 .5.1l3.3 5.4c.1.2 0 .3-.1.4h-.2"/><path id="Fill-118" class="st22" d="M102.2 43.5c-.1 0-.2 0-.2-.1-.1-.1-.1-.4 0-.5l3.4-3.3c.1-.1.3-.1.4 0 .1.1.1.4 0 .5l-3.4 3.3c-.1.1-.1.1-.2.1"/><path id="Fill-120" class="st22" d="M105.1 46.5c-.1 0-.2 0-.2-.1-.1-.1 0-.3.1-.4l4.5-2.5c.1-.1.3 0 .3.1.1.1 0 .3-.1.4l-4.5 2.5h-.1"/><path id="Fill-122" class="st22" d="M105.1 50.5c-.1 0-.2-.1-.3-.3 0-.2.1-.4.2-.4l4.5-1.3c.1 0 .3.1.3.3 0 .2-.1.4-.2.4l-4.5 1.3c.1 0 .1 0 0 0"/></g></g></g></g></svg>