<svg xmlns="http://www.w3.org/2000/svg" viewBox="0 0 160 140" enable-background="new 0 0 160 140"><style>.st3,.st542,.st543,.st544,.st9{fill-rule:evenodd;clip-rule:evenodd;fill:#fff}.st542,.st543,.st544,.st9{fill:#00284c}.st542,.st543,.st544{fill:#ffedde}.st543,.st544{fill:#936c51}.st544{fill:#ffd5e3}.st545,.st548,.st549,.st550,.st551,.st552{fill-rule:evenodd;clip-rule:evenodd;fill:#365555}.st548,.st549,.st550,.st551,.st552{fill:#86d1b8}.st549,.st550,.st551,.st552{fill:#b1c2d2}.st550,.st551,.st552{fill:#7a8b9a}.st551,.st552{fill:#ff6b5a}.st552{fill:#335353}</style><g transform="translate(-15 11)" id="Layer_2"><path id="Fill-1_1_" class="st542" d="M58.4-3.6c-.2-1 3.3 2 3.4 1.1 0-.3-.8-.9-1.5-1.9-.6-.8-1.1-1.9-1.1-2.2 0-.3.3-.5.8 0 1 1.1 2.6 3.5 2.8 3.1.1-.3-.1-.5-.5-1.3-.6-1.3-1.4-3.4-1.4-4.1 0-.6.6-.8 1-.2.6.9 1.1 3.1 1.6 3.2.1 0 .3-.4.3-.4s-.4-1.8-.4-2.5c0-.8.4-1 .6-.8.2.3.4 1 .6 1.7.1.4.4 1 .7 2 .3.9.5 2.1.9 3 .8 1.4 1 3.4 1.7 4.9 2 4.3 4.3 7.5 4.3 7.5s-.2.8-.6 1.3c-.3.3-.6.5-1 .7-1 .5-2.4 0-2.4 0s-1.1-2.3-1.9-4.4c-.7-1.8-1.1-3.2-2.3-5-.4-.6-1.4-1.5-1.8-2.1-.5-.7-.4-.9-1-1.3-1.2-.8-2.6-1.2-2.8-2.3"/><path id="Fill-3_1_" class="st543" d="M77.1 1.9s3.7-.7 5.2 2c.5.9 1 1.2 1.2 2.1.3 1 .2 2.6.1 3.8-.1.9 0 2-.3 3-1 3-3.3 3-3.3 3l-.6 1.2s.9 1 .7 1.8c-.2.6-1.6.7-1.6.7s-1.8-2.8-3.2-5.2C74 11.8 73 9.6 73 9.6l4.1-7.7z"/><path id="Fill-5_1_" class="st542" d="M124.8 6.4c.4-.3.5.6.5 1.5-.1.8-.3 1.7-.3 1.7s1.1-2.6 1.4-1.8c.1.3.1 1.4-.1 2.4-.1.7-.4 1.3-.4 1.3s1.1-1.1 1.2-.7c.1.4-1 2.1-1 2.1s1-.2 1.6-.2c.4 0 .7.1.6.4-.1.3-1.2.6-1.4.9-.1.1-.7.6-1.2 1-.7.5-1.5.8-1.7 1-2.2 2.7-3.6 4.8-3.6 4.8s-.2-.9-.7-1.7c-.5-.7-1.4-1.3-1.4-1.3s3-1.9 4.8-5.2c.7-1.4.9-2.8 1.2-4.3.1-.4.2-1.6.5-1.9"/><path id="Fill-7_1_" class="st543" d="M50.3 72.3s.6.5 1.1.9c.5.3.9.4.9.4l-1.2 5.6-1.7-.7s-1.1-1.4-.9-3.4c.1-2.5 1.8-2.8 1.8-2.8"/><path id="Fill-9_1_" class="st543" d="M64.2 93l4.2 1.9s-.6 1.3-.8 2.2c-.2.9-.2 1.5-.2 1.5l-3 .6-2.2-1.2 2-5z"/><path id="Fill-11_1_" class="st542" d="M124.5 43.2s1.7.7 3.2 1.1c1.5.4 2.7.6 2.7.6s.3 1.5 0 2.8c-.2 1.3-1 2.5-1 2.5l-4.1-.5s-.6-1.1-.9-2.7c-.1-1.8.1-3.8.1-3.8"/><path id="Fill-13_1_" class="st542" d="M107.6 66.6s.1-1.4.7-2.9c.7-1.5 2-2.9 2-2.9l3.4 4.3s-.9 1.5-1.9 2.3c-1 .8-2.2 1-2.2 1l-2-1.8z"/><path id="Fill-15_1_" class="st544" d="M110.6 68.6s1.3-.6 2.3-1.4c1-.8 1.6-1.8 1.6-1.8s.9.8 1.6 1.4c.8.5 1.4.8 1.4.8s-1 2.5-2.2 3.4c-1.2 1-2.6.4-2.6.4l-2.1-2.8z"/><path id="Fill-17_1_" class="st544" d="M130.4 44.6s3.3.4 6.8-.4c2.1-.5 3.6-2.3 5-3.1.9-.5 2.2 0 2.2 0s1.2-.3 1.5.6c.3 1-.4 3.4-1.1 4.9-.3.5-.7 1.2-1.1 1.6-.8.6-1.6.8-2.4 1.5-1.1 1-1.9 2.7-2.5 2.7-.9.1-2.3-.4-4-1.1-2.4-1-5.7-1.9-5.7-1.9s.7-.9 1-2.1c.3-1.2.3-2.7.3-2.7"/><path id="Fill-19_1_" class="st3" d="M44.5 71.8c.5-1.3 1.4-1.8 2.1-1.8 1.6.1 3.3 2.4 3.3 2.4s-1.6.6-1.9 2.8c-.2 1.8 1.1 3.4 1.1 3.4s-1 1.9-2.1 4.2c-.9 2-1.8 3.3-3.2 3.2-.4 0-1.5-.7-2-2.1-.2-.6-.4-1.1-.4-2.1.1-2.5.8-3.9 1.8-5.8.7-1.1 1-3.3 1.3-4.2"/><path id="Fill-21_1_" class="st3" d="M61.8 99.1s.6.9 1.9 1c.8.1 1.4-.3 2.1-.4.5-.1 1.3 0 1.3 0s.1 1.3 1.7 3.1c1 1.1 2.9 1.7 4 2.5.6.4.7 1.3.7 1.3s.4.7 0 1.4c-.3.5-1.7 1.2-3.2 1.1-1.7-.1-3.9-1-6.1-1.8-1.5-.6-3-.9-3.7-1.1-.3-.1-.6-.4-.6-.4s-.3-1.4.2-3c.5-1.8 1.7-3.7 1.7-3.7"/><path id="Fill-23_1_" class="st9" d="M54.1 53.9l21.6 1s.8 4.6 1.4 10.1c.3 3.2.7 7.2.4 10.2-.6 4.8-3.1 9.2-4.7 13C71 92.5 70 96 70 96s-1.5.3-3-.3-2.8-2.1-2.8-2.1.8-4 2.2-7.5c1.1-2.8 3-5.9 3-7.9 0-1.4-.2-2.3-.5-3.5-.9-4.7-3.3-8.2-3.3-8.2s-.4 3-.4 5.9c0 4.3.3 9.1-1.1 10.4-.4.4-1.7 1.6-3.2 1.5-2.3-.2-5.3-2-7.5-2.9-1.2-.5-2.1-.5-2.5-1.2-.4-.6-.5-2.3-.1-3.9.3-1.2 1-2.3 1.5-2.5.7-.4 1.7.3 2.7.7.9.4 1.7.5 1.7.5s-2.1-7-2.7-12.2c-.6-5.4.1-8.9.1-8.9"/><path id="Fill-25_1_" class="st3" d="M56.9 25.4s-.3-.7 0-1.2c.5-.8 1.8-1.6 3-3.1.8-.9 2-2.6 2.9-3.2 1.5-1.1 2.9-1.4 4.1-1.6 1.3-.1 2.5 0 2.5 0l8.8 4.2s1 0 1.4-.7c.4-.9-.4-1.6-.4-1.6l.4-.6s1.3 1.2 2.7 2.2c1.4 1 2.4 2 2.4 2s-.8 2.6-1.4 4c-.7 1.4-1.2 1.5-1.2 1.5s-1.2 3.7-2.8 9.4c-.3.9-.5 2.1-.9 3.2-.7 1.8-1.5 3.5-1.8 5.3-.2.9.1 2 .1 2.8 0 .7-.2 1.2-.3 1.8-.2 1.4.3 2.6.7 3.3.4.6.7.8.6 1.3-.2.9-1.7 1.7-1.7 1.7l-.2-.8s-3 2-6.5 2.3c-3.7.3-8-.6-11.3-1.8-1.4-.5-2.8-.8-3.7-1.5-.7-.6 0-1.4.3-4 .1-1.2 0-2.9.3-4.2.6-3.8 1.7-7.1 1.7-7.1l.3-13.6z"/><path id="Fill-27_1_" class="st543" d="M57.9 24s2.3.9 3.5 2.3c1.2 1.4 1.3 3.2 1.3 3.2l-4 3.8s1.2 1.6 2.8 2.6c1.6 1 3.5 1.3 3.5 1.3s0-.5.9-.7c.2-.1.7.1 1 .1.2 0 1-.4 1.1-.4.3 0 1 .3 1.3.3.3 0 .9-.2 1.2-.2.8.2 1.3 2.3 1.3 2.4 0 .2-.4 1.4-.4 1.4h.8s-.3.7-.7 1.1c-.4.4-.9.4-1.5.4-.8.1-.8-.5-.8-.5l-.6-.1s-.6.2-.7.2c-.4 0-.9-.2-.9-.2s-3.5-.3-3.8-.3c-3 .3-9.5-2.7-11-4.2-.2-.2-.8-.8-1.2-1.6-.3-.7-.3-1.5-.3-1.8.1-2.1 2.3-3.9 4.2-5.7 1.7-1.6 3-3.4 3-3.4"/><path id="Fill-29_1_" class="st545" d="M72.8 2.3c.4-.9 1.3-1.1 2.1-1.6 1-.6 1.9-1.3 3.1-1.2 1.1.1 2.7 1.1 3.2 1.4.8.4 3.7 2.5 3.2 4.3-.2.7-.8.8-.8.8s-.4-1.1-2-.7c-.9.2-1.9-.1-2.1-.1-.9.1-1.4.9-1.7 1.5-.5.8-.8 1.5-1.6 2.1-.8.6-1.5.3-2 .3-.4 0-.8.3-.8.3s-.5-.9-.8-2.1c-.5-1.4-.5-3.4.2-5"/><path id="Fill-31_1_" d="M86 19.6c.5-.3 1.4-.7 2-.8 1.1-.2 1.8.2 2.7.1 1 0 1.4-.6 2.3-.2 1.2.5 2.3 1.5 2.9 2.5.3.6 1 2.5 1.7 3.8.7 1.2 1.3 1.6 1.6 3.1.3 1.5-1 2.7-1.2 3.8-.2.9.8 1.9.8 1.9l-3 1L85 33l-3.6-6.2s1-.5 1.4-1.6c.6-1.5.9-4.1 3.2-5.6" fill-rule="evenodd" clip-rule="evenodd" fill="#e1b485"/><path id="Fill-33_1_" class="st542" d="M90.8 21.7c.5-.2 1.3-.3 1.9-.5.5-.1.8-.4 1.3-.3 1.1.2 1.5 1.4 1.8 2 .5.9.9 1.7 1.2 2.5.6 1.6.6 2.8.4 3.9-.1.7-.1 1.1-.6 1.9-.6 1.1-2.1 1.2-2.1 1.2l-1.1 2.3-1.5.6s-.5-.9-1.6-1.8c-1.1-.8-3-1.6-3-1.6s.6-.5.9-1.6c.3-1.1.2-2.7.2-2.7s1.2-1.1 1.3-2.3c.2-1.3-.7-3 .9-3.6"/><path id="Fill-35_1_" d="M107.7 35.5s1.7.4 4.5 1.1c3 .8 7.3 2 9.7 2.6 2.2.6 4.5.1 4.5.1s.4.1.7 1.2c.3 1.2.5 3.4.5 3.4l-2.2-.7s-.2 2.5.2 3.9.8 2.2.8 2.2l.9.4s-1.5 0-4.1-.2c-1.5-.1-3.7-.3-5.3-.8-1.9-.5-3.8-1.2-5-2-1.2-.8-3.1-1.9-3.1-1.9s.1 2 .3 4.3c.1 2.3.1 4.9.1 4.9l4.4 4s-.1.8-.5 1.9c-.4 1.1-1.2 2.4-1.2 2.4l-1.5-1.7s-1.2 1.4-1.9 2.8-.8 2.7-.8 2.7l1.4 1.4s-.1 2.7-.4 4.2c-.4 1.5-.7 2.9-2.3 3.9-1.9 1.1-5.1.7-8.2.8-3.4.1-6.8.7-8.5.5-2.2-.3-3.6-1.7-4.7-3.5-2.4-3.9-2.9-9.6-2.9-9.6s.6-.7 1.6-1.4c1-.6 2.3-1.1 2.3-1.1s1.4-13.3 6.6-19.7c5-6.5 14.1-6.1 14.1-6.1" fill-rule="evenodd" clip-rule="evenodd" fill="#55c7cc"/><path id="Fill-37_1_" class="st548" d="M112.2 70.8s1.4 0 2.2-.4c.8-.4 1-1.2 1-1.2s5.2.2 7.2 1 .7 2.2.7 2.2l-2.5 1.5-4.3 1.4-1.7-.3-2.6-4.2z"/><path id="Fill-39_1_" class="st548" d="M134.3 48.4s1.5.1 3.3-.3c1.3-.3 2.7-1 3.6-1.1 1.1-.1 1.7 1 1.7 1s-2.3.8-3.4 1.9c-.9 1-2.1 1.7-2.1 1.7s-.4-.1-1.5-.4c-1.1-.3-3-.8-3-.8s1.3-.3 1.6-.8c.4-.5-.2-1.2-.2-1.2"/><path id="Fill-41_1_" class="st549" d="M79.9 81.6l-3.3-.2-.2-1.4-.6.1-1.6-1.8 11.9-2.7s1.2 1.5 4.3 1.8c2 .2 4.6-.3 7.1-.4 2.5-.2 4.9-.1 6.5-.2 4.1-.3 4.5-3.8 4.5-3.8l4.7.3 1.8 2.2 10.5-1.4 12.6.9-.1.4-28.9 3.3-13.6.6s-1.6.3-2.9.8c-1.3.5-2.5 1.3-2.5 1.3h-3.4s2.5 1.2 5.7 3.7c3.1 2.3 10.1 8.8 10.1 8.8l1.2 1.1s.6.7.8.9c4.2 4.1 6.4 7.2 7.6 9.2.7 1.2 1 2.3 1 2.3s.2 1.2.3 3.4c.1 2.2 0 5.3 0 5.3s.4.2.4.5-.4.7-.4.7.5.6.6 1.3c.2.7 0 1.4 0 1.4l-.6.2s.4.6.7 1.4c.3.8.3 1.9.3 1.9s-1.1 1.2-2.1.4c-.6-.5-3.3-.3-3.3-.3s-.6 0-.5-.9c.1-.5.3-1.3.6-1.8.4-.5 1-.7 1-.7s-.6-.6-.5-1.3c.1-.7 1-1.6 1-1.6s-.5-.6-.4-.9c.1-.4.6-.5.6-.5s.1-2.4.1-4.1c0-1.5.4-4.1-2.3-8-1-1.5-5.7-6.4-5.7-6.4l-1.3-1.2-1.3-1.3c-3.2-3.1-6.5-6.3-9.6-8.6-2.6-1.9-5-3.2-6.4-3.6-1-.3-1.5-.4-2.1-.2-1.1.2-2.1 1.1-3.1 2.6-2 2.9-4.5 7.8-6.1 11.4-2.4 5.4-3.5 7.7-3.5 7.7l.5.8-.3.6s.5.6.6 1.2c.1.7-.1 1.4-.1 1.4l-.7.2s.6.6.8 1.4c.3.8.3 1.9.3 1.9l-2 .1-3.5-.3s-.8.2-.6-.9c.1-.3.4-1.1.7-1.6.5-.7 1-.8 1-.8s-.4-.7-.2-1.5c.1-.5.5-.8.8-1.1.2-.2.3-.6.3-.6s-.3-.5-.1-.8c.1-.3.7-.6.7-.6s5.3-11.3 8.4-16.8c2.4-4.1 3.8-5.2 3.8-5.2"/><path id="Fill-43_1_" class="st550" d="M66.6 109.8c.3-.4.5-.5.9-.6.5-.1 1-.1 1.2.2.4.5.2 1.4.6 1.9.3.4 1.4.3 1.4.3s.2 2.9-.8 3.9c-.9 1-2.9.3-2.9.3s-.7-.9-.9-2.6c-.1-1 0-2.5.5-3.4"/><path id="Fill-45_1_" d="M85.1 33s1.9-.3 3.7.4c1.8.8 3.4 2.6 3.4 2.6l1.2-.3 1.1-2.5 1.2-.2.5 1.7s2.4-.5 4.7-1.6c.8-.4 1.7-1 2.3-1.5 1.9-1.4 4.2-3.8 6.5-5.8 2.4-2.1 4.5-3.8 5.9-5.1 1-.9 2.1-1.5 2.1-1.5s1.2.3 1.9 1.1c.7.9 1 2.4 1 2.4s-.6.5-1.2 1.1c-.8.8-1.8 1.9-3 3-2 1.9-4 3.5-4 3.5l-5.3 5.6s-2-.6-3.6 1.2c-1.6 1.7-2.8 5.8-2.8 5.8s-.6-.7-1.2-1.3c-.9-.8-2.2-1.4-3.7-.9-2.5.8-3.3 1.8-5.2 5.5-1.2 2.3-2.6 6.6-3.4 10-.8 3.4-1.1 5.5-1.1 5.5s-1.6.6-2.6 1.3c-1 .7-1.4 1.5-1.4 1.5s-.5 0-.5-1.2c0-.4.1-.9.1-1.5 0-.9-1-3.6-1.1-4.7-.2-4.5.3-10.4-.2-15.1-.3-3.1-1.4-5.5-2.2-7.3-2.4-5-5.3-9.7-7.3-14.1-.4-1-.9-2.4-1.3-3.2-.8-1.7-2.3-4.1-2.9-5.1-1.1-2.1-.2-2.9-.2-2.9l.9 1.6s1.5.4 2.5-.2c1-.6 1.4-2.2 1.4-2.2l.7.8 9.6 17.2 3.5 6.4z" fill-rule="evenodd" clip-rule="evenodd" fill="#fc9001"/><path id="Fill-47_1_" class="st551" d="M61.8 38.2c.5-.4 3.3-.4 3.3-.4s.3.4.4.9c.1.5-.1 1-.1 1l.8 1s-.4.1-.9.3c-.5.2-.8.6-.8.6s-.9-.5-1.5-1c-1.1-.8-2-1.9-1.2-2.4"/><path id="Fill-49_1_" class="st551" d="M71.2 37.8h9l.5 1.4-10 .1z"/><path id="Fill-51_1_" class="st3" d="M141.3 42.4c1-.8 1.6-1.4 2.3-1.5.9-.2 1.6.2 1.6.2s1.3-.4 1.5.5c.2.9-.6 3.9-.8 4.5-.1.3-.7 1.5-1.4 2-.7.6-1.6.7-2.6 1.6-.4.4-1.5 2-1.8 2.4-.3.4-1.9-.2-1.9-.2l1.1-1 1.2-1.8 2.4-1.6s-.4-.9-1.1-1.1c-.8-.2-2 .5-3 .9-1.7.8-3.8.6-3.8.6s-.8-1.4-.5-2.4c.3-.9 1.7-1.4 1.7-1.4s2.8.2 5.1-1.7"/><path id="Fill-53_1_" class="st3" d="M116.7 66.9s3.1 1.5 6.1 1.3c1.6-.1 3.1-.3 4.1 0 .9.3 1.3 1 1.3 1s1 .9.7 1.4c-.4.7-1.3 1.8-3.3 2.7-1.9.8-4.5.8-5.8 1.2-2.4.8-4.2 1.6-4.2 1.6l-1.3-1.2 2-.5 2.9-1.3 4.1-.6s-.2-.9-.7-1.4c-.6-.6-1.8-.7-3.3-.9-2.3-.2-4.4-1.1-4.4-1.1s.1-1 .5-1.6c.6-.4 1.3-.6 1.3-.6"/><path id="Fill-55_1_" class="st549" d="M107.7 78.6l2.1-.2s-1.4 2.3-3.1 7.5C105 91 103 99 103 99s.2.2.3.5c0 .3-.1.6-.1.6l.7 1.4v1.4l-.6.2s.3.5.6 1.2c.2.7.4 1.7.4 1.7l-1.7.1h-3.1s-.4.1-.5-.3c-.1-.4.2-1.2.3-1.6.3-.8 1.1-1.2 1.1-1.2s-.5-.4-.4-1.1c.1-.5.5-.8.7-1.2.1-.2.1-.6.1-.6s-.2-.5-.1-.8c.1-.3.5-.4.5-.4s1.4-5.3 3-10.4c1.8-5.2 3.5-9.9 3.5-9.9"/><path id="Fill-57_1_" class="st549" d="M112.9 77.8l2.7-.1s3 3.6 6.6 8.6c2.6 3.6 5.7 8.1 7.4 11.7 1.2 2.5 1.7 4.2 1.9 5.9.3 1.8.2 3.7.2 5-.1 1.8 0 3.6 0 3.6s.2.3.2.6-.1.5-.1.5.5.6.7 1.3c.2.6 0 1.3 0 1.3l-.7.3s.5.6.8 1.4c.3.8.3 1.8.3 1.8l-.8.1-1.2.1-3.2-.1-.4-.2s-.1-1 .2-1.8c.4-.8 1.2-1.3 1.2-1.3s-.4-.7-.3-1.4c.2-.7.9-1.4.9-1.4s-.1-.5-.1-.8c.1-.3.4-.3.4-.3v-6.8l-16.4 4.2-.3-2.3 16.3-4.3s-.6-3.4-4.7-9.8c-2.1-3.2-5-7.7-7.4-10.8-2.2-3.2-4.2-5-4.2-5"/><path id="Fill-59_1_" class="st542" d="M59.6 36.6c-.1 0-.1 0 0 0z"/><path id="Fill-61_1_" class="st550" d="M100.4 105.1c.2-.4.3-.4.6-.5.4-.1.8-.1 1 .2.4.4.5 1.4.5 1.7.1.3 1.1.1 1.1.1s.2 2.6-.6 3.6c-.8.9-2.3.3-2.3.3s-.8-1-.9-2.5c0-.9.1-2.1.6-2.9"/><path id="Fill-63_1_" class="st550" d="M110.5 122c.3-.4.4-.5.7-.6.5-.1 1-.2 1.3.1.4.5.6 1.5.7 1.9.1.4 1.2.3 1.2.3s.2 3-.7 4c-1 1-2.8.3-2.8.3s-.9-1.2-1-2.8c-.1-.9 0-2.3.6-3.2"/><path id="Fill-65_1_" class="st550" d="M128.2 117.4c.3-.4.4-.5.8-.6.5-.1 1.1 0 1.1 0s.7 1.6.7 2c.1.4 1.3.2 1.3.2s.2 3.1-.8 4.1c-1 1.1-2.8.2-2.8.2s-.9-.8-1-2.6c0-.9.1-2.3.7-3.3"/><path id="Fill-67_1_" class="st9" d="M50 71.9s-.7-.7-.9-1c-1-1-2-1.3-2.9 0-.7 1-.7 2.1-1 3.1-.2 1-.7 2.1-1 2.9-.2.6-.7 2.2-.8 2.8-.4 1.9-.4 3.2.3 5 .2.6.6 1.2 1.2 1.4.7.2 1.3-.6 1.6-1.3.4-.9.6-1.3.9-2.3.3-1 .7-1.8 1.1-2.7.1-.2.6-1.4.6-1.4s-.7-1.2-.9-1.8c-.3-1.2-.2-2.8.5-3.8.3-.4 1.3-.9 1.3-.9"/><path id="Fill-69_1_" class="st9" d="M67.9 99.2s-.6-.3-.8-.3c-.8.1-1.7.5-2.5.6-.7 0-.9-.3-1.5-.6-.2-.1-.9-.5-.9-.5s-.4.6-.5.9c-.3.6-.5 1.4-.7 1.7-.2.5-.4 2.5-.4 2.6.2.2 1.1.6 1.4.7.6.2 3 .7 3.7 1.1.3.2 1.3.7 1.3.7l1.1-1.5s-.5-.6-.2-.9c.2-.2.7-.3.7-.3l.5-1.3s-.6-.6-.8-1.2c-.2-.8-.4-1.7-.4-1.7"/><path id="Fill-71_1_" class="st9" d="M70.2 103s-.3.3-.2.8c.1.5-.1.8-.1.8s.5.5.6 1.2c0 .2.1 1 .1 1s1.2 0 1.9-.4c.5-.3.7-1.1.5-1.5-.3-.7-1-1-1.6-1.3l-1.2-.6"/><path id="Fill-73_1_" class="st545" d="M107.3 66.2h-.1c-1-.6-2.2-1.6-3.9-3.2l-.3-.3c-1.5-1.4-3.9-3.6-6.4-7.5-.6-.9-1.2-2.2-1.7-3.5-.6-1.3-1.2-2.7-1.8-3.6-.1-.1 0-.2.1-.3.1-.1.2 0 .3.1.6.9 1.3 2.3 1.9 3.7.6 1.3 1.2 2.6 1.7 3.4 2.5 3.9 4.7 5.9 6.3 7.4l.3.3c1.7 1.6 2.9 2.5 3.8 3.1.1.1.1.2.1.3-.1 0-.2.1-.3.1"/><path id="Fill-75_1_" class="st545" d="M115.5 76.9h-.2c-.4-.1-.8-.6-1.1-1-.1-.1-.2-.3-.3-.4-.4-.4-.7-.9-1-1.4l-.1-.1-.9-1.5c-.3-.5-.6-1-.9-1.4-1.3-1.8-2.8-3.3-4.2-4.5-.1-.1-.1-.2 0-.3.1-.1.2-.1.3 0 1.4 1.2 3 2.7 4.2 4.5.3.4.6.9.9 1.4.3.5.6 1 .9 1.4l.1.1c.3.5.6.9 1 1.3.1.1.2.2.3.4.3.3.7.8.9.9.3.1 1.4-.4 2.3-.8.7-.3 1.4-.6 2-.8.7-.2 1.4-.3 2.1-.3 1.1-.1 2.2-.2 3.2-.7 1.2-.6 3.2-1.9 3.5-2.8.1-.4-.5-1-.7-1.1l-.1-.1c-.1-.3-.5-.6-1-.8-.7-.3-1.4-.3-2.2-.2-.4.1-.9.1-1.4.1h-.5c-1.2 0-1.9 0-3.2-.3-2.3-.6-4.4-1.6-6-3-1.1-1-2.4-2.5-3.9-4.5-.1-.1 0-.2.1-.3.1-.1.2 0 .3.1 1.5 2 2.8 3.5 3.8 4.5 1.5 1.4 3.6 2.4 5.8 2.9 1.2.3 1.9.3 3.1.3h.6c.5 0 .9-.1 1.3-.1.8-.1 1.6-.2 2.4.2.4.2 1 .6 1.2 1 .2.2 1 .9.8 1.5-.4 1.4-3.7 3.1-3.7 3.1-1 .5-2.2.6-3.3.7-.7.1-1.4.1-2.1.3-.6.2-1.3.5-2 .8-1 .6-1.8.9-2.3.9"/><path id="Fill-77_1_" class="st545" d="M84.7 68.5c-.1 0-.2-.1-.2-.2.8-10 2.9-16.6 4-19.7 1.4-3.8 3.4-7 4-7.6 1.7-1.7 4.5-2.4 6.5-.5 1.6 1.5 3 3.4 5.1 6.6 1.7 2.6 3.2 4.3 5.9 6.9.7.6 1.4 1.2 2 1.8.6.5 1.2 1 1.5 1.4.1.1.1.2 0 .3-.1.1-.2.1-.3 0-.3-.4-.9-.8-1.5-1.3s-1.3-1.1-2-1.8c-2.7-2.6-4.2-4.4-6-7-2.1-3.2-3.5-5.1-5.1-6.6-1.9-1.7-4.4-.9-5.9.5-.6.6-2.5 3.7-3.9 7.4-1.1 3-3.1 9.6-4 19.5.1.2 0 .3-.1.3"/><path id="Fill-79_1_" class="st545" d="M125.8 50.1c-1.3 0-3.4-.2-4.9-.4-4-.5-5.4-.9-8.5-2.2-.9-.4-1.7-.9-2.5-1.5-.9-.6-1.9-1.3-2.9-1.6-.1 0-.2-.2-.1-.3 0-.1.2-.2.3-.1 1.1.4 2.1 1 3 1.7.8.6 1.6 1.1 2.5 1.4 3.1 1.3 4.4 1.7 8.4 2.2 1.4.2 3.6.4 4.8.4.1 0 .2.1.2.2-.1.1-.2.2-.3.2"/><path id="Fill-81_1_" class="st545" d="M139 53.1c-.3 0-.8-.1-1.1-.2-.2 0-.4-.1-.5-.1-.6-.1-1.2-.3-1.8-.5h-.1c-.6-.2-1.1-.4-1.6-.6l-1.5-.6c-2.3-.8-4.7-1-6.7-1.2-.1 0-.2-.1-.2-.2s.1-.2.2-.2c2.1.2 4.5.4 6.8 1.2l1.5.6c.5.2 1 .4 1.6.6h.1c.6.2 1.1.4 1.7.5.1 0 .3.1.6.1.4.1 1 .2 1.2.2.2-.1.5-.5.9-1 .6-.8 1.3-1.8 2.2-2.3 1.5-.7 2.2-1.3 3.1-3.2.4-.9 1-3.3.8-4.3 0-.1-.1-.2-.2-.3-.3-.2-1-.1-1.3-.1h-.2c-.3-.1-1.3-.4-2.3.1-.3.2-.6.5-1 .8-.6.6-1.4 1.3-2.9 1.9-2.2.9-5.4 1-7.5.8-1.5-.2-3.7-.7-6.4-1.6-.1 0-.2-.2-.1-.3 0-.1.2-.2.3-.1 2.7.9 4.8 1.4 6.3 1.5 2 .2 5.2 0 7.3-.8 1.4-.5 2.1-1.2 2.7-1.8.4-.3.7-.6 1.1-.9 1-.6 2.2-.3 2.6-.2.3 0 1-.2 1.5.2.2.1.3.3.4.6.2 1.2-.4 3.7-.9 4.6-1 2.1-1.8 2.7-3.3 3.4-.9.4-1.5 1.4-2.1 2.1-.4.6-.8 1-1.1 1.1.1.2 0 .2-.1.2"/><path id="Fill-83_1_" class="st545" d="M100.1 43.2c-.2 0-.2-.2-.2-.3.7-2.7 2.3-7.3 5.3-7.4 2.1-.1 3.5.3 6.3 1.2.6.2 1.3.4 2.1.6 3.2.9 4.6 1.3 7.2 1.9 2.5.5 3.5.4 4.7.2h.2c.1 0 .2.1.3.2 0 .1-.1.2-.2.3h-.2c-1.2.2-2.3.4-4.8-.2-2.6-.6-4-1-7.3-1.9-.8-.2-1.5-.4-2.1-.6-2.7-.8-4.1-1.2-6.2-1.1-2.8.1-4.4 5-4.9 7 0 0-.1.1-.2.1"/><path id="Fill-85_1_" class="st545" d="M91.9 76.9H91c-4-.3-5.8-4.4-6.8-7.4-.3-.8-1-3.2-1.2-6.1 0-.1.1-.2.2-.2s.2.1.2.2c.2 2.8.9 5.2 1.2 6 .9 2.9 2.6 6.8 6.4 7.1 1.6.1 4-.1 5.7-.3.7-.1 1.4-.1 1.8-.2h2.2c2.3 0 5.2 0 6.4-.8 1.6-1.2 2.4-5 2.3-8 0-.1.1-.2.2-.2s.2.1.2.2c0 3.3-.7 7.1-2.5 8.4-1.3.9-4.3.9-6.6.9h-2.1c-.4 0-1.1.1-1.8.2-1.5 0-3.4.2-4.9.2"/><path id="Fill-87_1_" class="st545" d="M109.7 53.9c-.1 0-.2-.1-.2-.2-.1-2.4-.2-5.1-.4-7.2 0-.1.1-.2.2-.2s.2.1.2.2c.2 2.2.3 4.8.4 7.3 0 0-.1.1-.2.1z"/><path id="Fill-89_1_" class="st545" d="M98.5 73.1c-.1 0-.2-.2-.2-.3.4-2.6.4-5.9.4-9.4v-6.2c0-.1.1-.2.2-.2s.2.1.2.2c-.1 2-.1 4.1 0 6.2 0 3.5.1 6.9-.4 9.5 0 .1-.1.2-.2.2"/><path id="Fill-91_1_" class="st545" d="M71.2 8.7c-.1 0-.1 0-.2-.1v-.1c-1.4-2.2-2.7-4.4-3.5-6C66.4.4 66.2-1 66-1.7V-2c-.2-1-.7-1.7-1.1-2.3-.2-.4-.4-.7-.5-1-.5-1.5-.7-1.7-.8-1.7l-.1.1c-.2.5 0 1.3.1 1.9.1.3.1.5.2.8.1.6 0 1 0 1.4-.1.5-.1 1 .1 2 0 .1-.1.2-.2.3-.1 0-.2-.1-.3-.2-.2-1.1-.1-1.6-.1-2.2 0-.4.1-.7 0-1.3 0-.2-.1-.4-.2-.7-.2-.7-.4-1.6-.1-2.2.2-.3.3-.3.5-.3.4 0 .7.6 1.2 2 .1.2.3.5.5.9.4.6.9 1.4 1.1 2.5 0 .1 0 .2.1.3.1.6.3 2 1.4 4 .9 1.6 2.2 3.7 3.6 5.9l.1.1c.1.1 0 .2-.1.3-.1.1-.1.1-.2.1"/><path id="Fill-93_1_" class="st545" d="M92 37c-.1 0-.1 0-.1-.1-.6-.5-1.4-.8-2.4-1.2-.9-.4-1.8-.8-2.4-1.3-1.4-1.1-2.2-2.5-3.3-4.6-.5-.9-1.1-1.9-1.8-3.1-1.3-2.2-2.9-5-4.4-7.5-1.4-2.5-2.8-4.8-3.5-6-.6-.9-1-1.8-1.5-2.7-.6-1.2-1.1-2.3-1.6-2.3-.1 0-.2-.1-.2-.2s.1-.2.2-.2c.8 0 1.3 1.1 2 2.5.4.8.9 1.7 1.4 2.6.8 1.2 2.1 3.6 3.6 6.1 1.4 2.5 3 5.3 4.4 7.5.7 1.2 1.3 2.2 1.8 3.1 1.1 2 1.9 3.4 3.2 4.4.6.5 1.5.8 2.3 1.2.9.4 1.8.8 2.5 1.3.1.1.1.2 0 .3-.1.2-.2.2-.2.2"/><path id="Fill-95_1_" class="st545" d="M65.1-2.8c-.1 0-.2-.1-.2-.2l-.8-3c-.1-.4-.2-.7-.3-1-.1-.4-.3-.8-.5-1.4-.1-.3-.2-.9-.4-1l-.1.1c-.3.3.1 1.9.2 2.6v.1c0 .1 0 .2-.2.3-.1 0-.2 0-.3-.2v-.1c-.3-1.3-.5-2.6-.1-3 .1-.1.3-.3.5-.2.3.1.4.5.7 1.3.2.6.3 1 .4 1.4.1.3.2.6.3 1l.8 3c.2.1.2.2 0 .3"/><path id="Fill-97_1_" class="st545" d="M67.4 11.7c-.1 0-.2-.1-.2-.1l-1.3-2.9c-.6-1.3-1.2-2.9-1.6-4-.3-.7-.5-1.2-.6-1.5-.4-.8-.9-1.4-1.5-2-.4-.5-.8-.9-1.1-1.4-.4-.7-.8-1-1.4-1.3-.2-.1-.4-.3-.6-.4-.8-.6-1.7-1.4-1.4-2 .1-.1.2-.2.3-.2.3-.1.7.2 1.3.6.3.2.6.4.8.5.4.2.7.3.8.4-.1-.1-.2-.3-.3-.4-.1-.2-.3-.3-.4-.5-1.3-1.7-1.9-2.8-1.6-3.4.1-.2.3-.3.4-.3.3 0 .6.4 1.1 1 .2.2.3.5.5.7.3.4 1.1 1.4 1.5 1.7-.1-.2-.3-.6-.4-.9-.1-.2-.2-.5-.3-.8-.1-.4-1.4-3.5-.8-4 .2-.2.4-.2.6-.2.3.1.5.4.8 1.2.4 1 1.3 3.1 1.4 3.1.1.1 0 .3-.1.3-.1.1-.2 0-.3-.1 0-.1-1-2.1-1.4-3.2-.3-.8-.5-.9-.5-.9s-.1 0-.2.1c-.1.2.3 2 1 3.5.1.3.2.5.3.8.4.9.7 1.4.3 1.7-.3.2-.6-.1-2.2-2-.3-.3-.5-.5-.6-.8-.2-.3-.5-.8-.7-.8v.1c-.1.2.3 1.2 1.5 2.8.1.2.3.4.4.5.4.4.6.7.5 1 0 .1-.1.2-.2.2-.2.1-.6 0-1.3-.4-.3-.1-.6-.3-.9-.5-.3-.2-.8-.5-.9-.5 0 .1.1.5 1.2 1.3.3.1.5.3.7.4.6.4 1.1.7 1.5 1.5.2.4.6.9 1 1.3.5.6 1.2 1.3 1.6 2.1.1.2.3.8.6 1.5.4 1.1 1 2.6 1.6 3.9l1.3 2.9c.1.2 0 .4-.2.4.1 0 0 0 0 0"/><path id="Fill-99_1_" class="st545" d="M80.4 40.9c-.1 0-.2-.1-.2-.2-1.1-4-4.1-10-6.4-13.8l-.2-.4c-1.9-3.2-3.3-5.7-4.6-9.3-.5-1.4-1.3-2.6-2-3.7-1.2-1.9-2.2-3.5-1.3-4.8.1-.1.2-.1.3-.1.1.1.1.2.1.3-.8 1.1.1 2.5 1.3 4.3.7 1.1 1.5 2.4 2.1 3.8 1.3 3.5 2.8 6 4.6 9.2l.2.4c2.3 3.9 5.3 9.9 6.4 13.9 0 .2-.1.3-.3.4.1 0 .1 0 0 0"/><path id="Fill-101_1_" class="st545" d="M106.3 36.3c-.1 0-.1 0-.2-.1s-.1-.2 0-.3c1.5-1.5 3-3.1 4-4.2.2-.3.4-.5.6-.7 1.1-1.2 1.8-1.8 2.6-2.4.4-.3.8-.6 1.3-1.1 1.5-1.3 3-2.9 4-3.9.4-.5.8-.8 1.1-1 .3-.3.5-.4.5-.6 0-.1.1-.2.3-.2.1 0 .2.1.2.3 0 .3-.3.6-.7.9-.3.2-.6.5-1 1-1 1-2.5 2.6-4 4-.5.4-.9.8-1.3 1.1-.8.6-1.4 1.2-2.5 2.4-.2.2-.4.4-.6.7-1 1.2-2.5 2.8-4 4.2-.2-.2-.3-.1-.3-.1"/><path id="Fill-103_1_" class="st545" d="M120 20.9h-.1c-.1-.1-.1-.2 0-.3.4-.5.8-1.1 1.3-1.7.3-.4.6-.8 1-1.3.2-.2.4-.5.5-.6.7-.9.9-1.1 2-1.7.7-.3 1.1-.7 1.4-1 .2-.2.4-.4.7-.5.1-.1.3-.1.5-.2.3-.1.7-.3.8-.5l-.1-.1c-.3-.1-1.2 0-1.8.3-.9.4-1.2.2-1.5 0-.3-.2-.3-.6-.2-1.5 0-.2 0-.4.1-.7.1-.6.1-1.2.2-1.9.4-2.4.1-2.5 0-2.5-.1.1-.2.8-.3 1.2-.1.3-.1.6-.2.9-.1.5-.2.8-.3 1.5 0 .2-.1.4-.1.7-.3 1.6-1.3 3.1-2.9 4.7-1.1 1.1-2 1.9-2.8 2.5-.1.1-.2.1-.3 0-.1-.1-.1-.2 0-.3.8-.7 1.7-1.5 2.8-2.5 1.5-1.5 2.4-2.9 2.7-4.4.1-.3.1-.5.1-.7.1-.6.2-1 .4-1.5.1-.2.1-.5.2-.8.1-.8.2-1.3.5-1.5.1-.1.2-.1.3-.1.5.1.6 1 .3 3-.1.6-.2 1.2-.2 1.8 0 .2 0 .4-.1.7-.1.9 0 1 0 1.1.2.1.4.2 1.2-.1.4-.2 1.6-.5 2.1-.2.2.1.3.2.3.3.2.5-.4.7-1 1-.1.1-.3.1-.4.2-.2.1-.4.3-.6.5-.3.3-.7.7-1.5 1.1-1 .5-1.1.6-1.8 1.5-.1.2-.3.4-.5.7-.3.5-.7.9-1 1.3-.4.6-.9 1.1-1.3 1.7-.2-.1-.3-.1-.4-.1"/><path id="Fill-105_1_" class="st545" d="M95.5 34.7c-.1 0-.2-.1-.2-.1 0-.1 0-.2.1-.3.4-.2.9-.3 1.4-.4 1-.3 2.2-.6 3.5-1.3 2.4-1.3 4-2.8 6.1-4.9.8-.7 1.6-1.6 2.6-2.5.8-.7 1.6-1.4 2.5-2 .8-.6 1.5-1.2 2.2-1.8 1.8-1.7 3-2.7 3.6-2.8.1 0 .2.1.2.2s-.1.2-.2.2c-.5 0-2 1.4-3.3 2.7-.6.6-1.4 1.2-2.2 1.8-.8.7-1.7 1.3-2.4 2-1 .9-1.8 1.7-2.6 2.4-2.2 2.1-3.7 3.6-6.2 4.9-1.4.7-2.5 1.1-3.6 1.3-.5.3-1 .5-1.5.6"/><path id="Fill-107_1_" class="st545" d="M124.8 13.3c-.1 0-.1 0 0 0-.2 0-.4-.1-.3-.2.3-.7.8-1.3 1.2-1.8.2-.3.4-.5.6-.7.7-1 .7-1.3.6-1.4-.2.1-.7.7-.9 1-.2.2-.3.4-.5.7-.1.1-.3.1-.4.1-.2 0-.2-.2-.1-.3.2-.2.3-.4.5-.6.6-.8 1.1-1.4 1.7-1.3.2 0 .3.1.4.2.1.2.2.5-.6 1.7-.2.2-.4.5-.6.8-.4.5-.9 1.1-1.2 1.7-.2 0-.3.1-.4.1"/><path id="Fill-109_1_" class="st545" d="M125.4 14s-.1 0 0 0c-.2-.1-.2-.2-.2-.3 0-.1.1-.2.1-.3.9-2 1.2-3.2.9-3.6-.1-.1-.1-.2 0-.3.1-.1.2-.1.3 0 .5.7-.2 2.4-.9 4.1-.1.1-.1.2-.1.3 0 .1 0 .1-.1.1"/><path id="Fill-111_1_" class="st545" d="M125.3 14.8c-.1 0-.2 0-.2-.1-.1-.1-.1-.2 0-.3.6-.4 1.7-1.7 1.8-2.1-.2.1-.7.6-1 .9-.3.3-.6.6-.9.7-.1.1-.3.1-.5-.1-.1-.1-.1-.3.1-.3.2-.1.5-.4.8-.6.7-.7 1.3-1.2 1.9-1l.3.3c.1.6-1.6 2.3-2 2.7-.2-.1-.3-.1-.3-.1"/><path id="Fill-113_1_" class="st545" d="M93.4 33.2c-1.4 0-3.2-.5-4.2-1.4-.1-.1-.1-.2 0-.3.1-.1.2-.1.3 0 1.4 1.1 4.1 1.6 5.4 1 .7-.3 1.2-1.2 1.4-2.6.3-1.7.1-2.8-.1-3.3-.1-.1 0-.2.1-.3.1-.1.2 0 .3.1.1.3.5 1.3.2 3.6-.2 1.5-.8 2.5-1.6 2.9-.6.2-1.1.3-1.8.3"/><path id="Fill-115_1_" class="st545" d="M95.7 24c-.1 0-.2-.1-.3-.2-.6-1.3-1.5-2.1-2.2-2.3-.2 0-.3-.2-.2-.4 0-.2.2-.3.4-.2 1 .3 2.1 1.3 2.6 2.6.1.2 0 .3-.2.4 0 .1 0 .1-.1.1"/><path id="Fill-117_1_" class="st545" d="M91.6 27.1h-.1c-.1-.1-.1-.2 0-.2.3-.3.9-.5 1.3-.5.1 0 .2.1.1.2 0 .1-.1.2-.2.1-.4-.1-.8.2-1 .4h-.1"/><path id="Fill-119_1_" class="st545" d="M94.7 24.7c-.1 0-.2 0-.2-.1-.1-.1 0-.2.1-.3.3-.2.8-.3 1.2-.2.1 0 .2.1.2.3 0 .1-.2.2-.3.2-.3-.1-.7.1-.9.2 0-.1 0-.1-.1-.1"/><path id="Fill-121_1_" class="st545" d="M95.6 28.6h-.1c-.1-.1-.2-.3-.1-.4.2-.5.2-.7.1-.9 0 0-.1-.1-.2-.1-.3-.1-.7-.4-.8-1.2 0-.2.1-.3.2-.3s.3.1.3.3c0 .4.2.5.4.6.1.1.3.1.4.3.4.5.1 1.2-.1 1.6.1 0 0 .1-.1.1"/><path id="Fill-123_1_" class="st3" d="M93 28.5s.8 1 2 .8c1.2-.2 1.1-1.5 1.1-1.5l-1.4.4c-.7.2-1.7.3-1.7.3"/><path id="Fill-125_1_" class="st545" d="M94.3 29.5c.2.4.7.9 1.3.8.6-.1.7-1.1.7-1.7-.2.1-.6.3-.9.5-.3.1-.8.3-1.1.4m1.1 1.4c-1 0-1.6-1.4-1.7-1.5v-.3c0-.1.1-.2.2-.2 0 0 .9-.2 1.4-.5.6-.3 1.1-.6 1.1-.6h.2c.1.1.1.1.1.2s.1 2.4-1.1 2.7c0 .2-.1.2-.2.2"/><path id="Fill-127_1_" class="st545" d="M94 35.5c-.1 0-.1 0 0 0-.2-.1-.2-.2-.2-.3.3-1 .8-2.2 1.1-2.6.1-.1.2-.1.3-.1.1.1.1.2.1.3-.3.4-.8 1.6-1.1 2.5l-.2.2"/><path id="Fill-129_1_" class="st545" d="M87 30.9c-.2-.1-.2-.2-.2-.3.3-.8.9-1.1 1.4-1.5.4-.3.8-.5 1-.8.7-.9.7-2.1.6-3.1 0-1.2-.1-2.4 1.3-2.7.1 0 .2.1.2.2s-.1.2-.2.2c-1 .2-1 .9-1 2.2 0 1.1.1 2.4-.7 3.4-.3.4-.7.7-1.1.9-.5.3-1.1.7-1.3 1.3.1.2.1.2 0 .2"/><path id="Fill-131_1_" class="st545" d="M92.7 21.7c-.1 0-.2 0-.2-.1-.3-.5-.6-.8-1-.9-.3-.1-.7 0-1.2.2-.1.1-.3 0-.4-.1-.1-.1 0-.3.1-.3.6-.3 1.1-.4 1.6-.3.5.1 1 .5 1.3 1.1.1.1 0 .3-.1.3 0 .1-.1.1-.1.1"/><path id="Fill-133_1_" class="st545" d="M98 33.2h-.1c-.6-.5-.5-1.5-.2-2.2.1-.2.2-.3.3-.5.2-.5.5-.9.6-1.5.3-1.3-.1-1.9-.6-2.7-.1-.2-.3-.5-.4-.7-.6-1.1-.9-1.9-1.1-2.6-.2-.7-.4-1.3-1-2.3-1-1.9-2.9-2.5-3.8-2.2-.1 0-.2 0-.3-.1 0-.1 0-.2.1-.3 1.1-.5 3.2.4 4.3 2.4.5 1 .8 1.7 1 2.3.2.7.5 1.4 1.1 2.5.1.2.3.5.4.7.5.9 1 1.6.7 3.1-.1.7-.4 1.2-.7 1.7-.1.2-.2.3-.2.5-.2.5-.4 1.3.1 1.7.1.1.1.2 0 .3 0-.1-.1-.1-.2-.1"/><path id="Fill-135_1_" class="st545" d="M81.7 27.1c-.1 0-.2 0-.2-.1-.1-.1 0-.2.1-.3 1.1-.6 1.5-1.7 1.9-3 .3-1 .7-2.1 1.5-3.1.9-1.1 2.4-1.8 3.9-2 1-.1 2 .1 2.5.5.1.1.1.2 0 .3-.1.1-.2.1-.3 0-.4-.3-1.2-.5-2.1-.4-1.4.1-2.7.8-3.6 1.8-.8.9-1.1 1.9-1.4 2.9-.4 1.3-.8 2.5-2.1 3.2-.1.2-.2.2-.2.2"/><path id="Fill-137_1_" class="st545" d="M87.8 31.7c-.1 0-.1 0-.2-.1s-.1-.2 0-.3c.6-.5.9-1.3 1-2.5 0-.1.1-.2.2-.2s.2.1.2.2c0 1.3-.4 2.2-1.1 2.8 0 .1 0 .1-.1.1"/><path id="Fill-139_1_" class="st545" d="M114.4 75.4h-.5c-.1 0-.2-.1-.2-.2s.1-.2.3-.2c1.1.2 2.2-.4 3.3-.9.5-.2.9-.5 1.4-.6.5-.2 1.2-.3 2-.3 1-.1 2.1-.2 3.2-.6 1.6-.6 3.7-2.3 3.9-3 0-.1.2-.2.3-.1.1 0 .2.2.2.3-.3.9-2.6 2.7-4.2 3.3-1.1.4-2.3.5-3.3.6-.8.1-1.4.1-1.9.3-.4.2-.9.4-1.3.6-1.1.3-2.2.8-3.2.8"/><path id="Fill-141_1_" class="st545" d="M137 52.4c-.1 0-.2 0-.2-.1-.1-.1 0-.2.1-.3.8-.4 1.1-1 1.5-1.5.3-.4.6-.9 1.1-1.3.4-.4.9-.6 1.3-.8.7-.4 1.3-.7 2-1.8.8-1.3 1.5-4.6 1.3-5.3 0-.1 0-.2.1-.3.1 0 .2 0 .3.1.3.9-.5 4.3-1.3 5.7-.7 1.1-1.4 1.5-2.1 1.9-.4.2-.8.4-1.2.8-.4.4-.7.8-1 1.2-.6.6-1 1.2-1.9 1.7"/><path id="Fill-143_1_" class="st545" d="M112.6 71.5h-.2c-.1 0-.2-.1-.2-.2s.1-.2.2-.2c1.3.1 2.2-.4 2.4-.8.1-.2.2-.6.3-1 .2-1 .5-2.2 1.5-2.3.1 0 .2.1.2.2s-.1.2-.2.3c-.7.1-.9 1.1-1.1 2-.1.5-.2.9-.4 1.2-.3.3-1.3.8-2.5.8"/><path id="Fill-145_1_" class="st545" d="M133.2 50.8c-.1 0-.2-.1-.3-.2 0-.1 0-.2.2-.3.7-.1 1.4-.5 1.7-.9.1-.2.1-.4-.1-.6-.5-.5-1.5-1.6-1.2-2.6.2-.6.6-1.3 2.2-1.7.2 0 .3 0 .4.1 0 .1 0 .2-.2.3-1.3.3-1.6.8-1.8 1.4-.2.8.7 1.8 1.1 2.3.3.3.4.6.2 1-.4.7-1.4 1.1-2.2 1.2"/><path id="Fill-147_1_" class="st545" d="M108.3 66.9c-.3 0-.5-.2-.6-.3-.6-1 .8-3.9 2-5.5 1-1.4 3.1-3.8 3.8-3.3.2.2.7.5-1.6 4.5-.1.1-.2.1-.3.1-.1-.1-.1-.2-.1-.3 2-3.4 1.7-3.9 1.7-3.9-.2-.1-1.6 1-3.2 3.2-1.4 1.9-2.4 4.4-2 5 0 0 .1.1.3.1.1 0 .2.1.2.2s-.1.2-.2.2c.1 0 0 0 0 0"/><path id="Fill-149_1_" class="st545" d="M126.6 50.1c-.1 0-.2 0-.3-.1-1.2-.4-1.9-3.6-1.9-5.6 0-2 .4-5 1.5-5 .5 0 1.1.5 1.6 4.5 0 .1-.1.2-.2.2s-.3-.1-.3-.2c-.5-3.9-1.1-4.1-1.1-4.1-.3.1-.9 1.8-1 4.6 0 2.4.7 5 1.6 5.2.1 0 .2.1.4-.1.1-.1.3-.1.4 0 .1.1.1.2 0 .3-.3.2-.5.3-.7.3"/><path id="Fill-151_1_" class="st545" d="M110.1 68.5c-.1 0-.2-.1-.2-.2s.1-.2.2-.3c1.2-.1 3.2-1.6 4-3.2.1-.1.2-.2.3-.1.1.1.2.2.1.3-.9 1.7-3.1 3.3-4.4 3.5"/><path id="Fill-153_1_" class="st545" d="M129.2 50.1c-.1 0-.1 0-.2-.1s0-.2 0-.3c.7-.5 1.2-2.6 1-4.1 0-.1.1-.2.2-.2s.2.1.2.2c.2 1.5-.3 3.7-1.2 4.4.1.1.1.1 0 .1"/><path id="Fill-155_1_" class="st545" d="M124.2 72.3c-.1 0-.2-.1-.2-.2 0-1.9-2.6-1.9-3.9-1.9h-.6c-1-.1-2.5-.5-3.4-1.3-.1-.1-.1-.2 0-.3.1-.1.2-.1.3 0 .9.7 2.3 1.1 3.2 1.2h.6c1.4 0 4.3 0 4.3 2.4 0 0-.1.1-.3.1z"/><path id="Fill-157_1_" class="st545" d="M117 70.8c-.1 0-.2-.1-.2-.2 0-.9.4-1.8 1.1-2.7.1-.1.2-.1.3 0 .1.1.1.2 0 .3-.7.9-1 1.7-1 2.4 0 .1-.1.2-.2.2"/><path id="Fill-159_1_" class="st545" d="M117.8 71.5s-.1 0 0 0c-.2 0-.3-.2-.2-.3.3-1.1.6-2 1.1-2.6.1-.1.2-.1.3-.1.1.1.1.2.1.4-.4.6-.8 1.4-1 2.5-.1.1-.2.1-.3.1"/><path id="Fill-161_1_" class="st545" d="M120.1 71.5c-.2 0-.3-.2-.3-.3.1-1.1.5-2 1-2.6.1-.1.3-.1.4 0 .1.1.1.3 0 .4-.5.6-.8 1.4-.9 2.4.1 0 0 .1-.2.1"/><path id="Fill-163_1_" class="st545" d="M135.5 49.3c-.3 0-.6 0-.9-.1-.1 0-.2-.2-.2-.3 0-.2.1-.3.2-.3 2 .3 3.2-.4 4.5-1.3l.2-.1c.1-.1.3-.2.4-.3 1.2-.8 2.1-1.4 3.1 1.1.1.2 0 .3-.1.4-.1.1-.2 0-.3-.1-.8-2-1.4-1.6-2.5-.8-.1.1-.3.2-.4.3l-.2.1c-1.1.7-2.1 1.4-3.8 1.4"/><path id="Fill-165_1_" class="st545" d="M136.6 49.3c-.1 0-.1 0-.1-.1-.5-.7-.6-2.8-.1-3.7.1-.1.2-.1.3 0 .1.1.1.2 0 .3-.4.7-.3 2.5.1 3.1.1.1 0 .2 0 .3l-.2.1"/><path id="Fill-167_1_" class="st545" d="M137.3 47.8c-.1 0-.2 0-.2-.1-.3-.7-.6-2.7-.1-3.6.1-.1.2-.1.3-.1.1.1.1.2.1.3-.4.7-.2 2.5.1 3.2 0 .1 0 .2-.2.3.1 0 0 0 0 0"/><path id="Fill-169_1_" class="st545" d="M138 47.8c-.1 0-.1 0-.2-.1-.4-.7-.4-2.6-.1-3.6 0-.1.1-.2.3-.2.1 0 .2.1.2.3-.2.9-.2 2.7.1 3.2.1.1 0 .2-.1.3-.1.1-.1.1-.2.1"/><path id="Fill-171_1_" class="st545" d="M139.5 47c-.1 0-.1 0-.2-.1-.4-.7-.4-3.2.1-4.4.1-.1.2-.2.3-.1.1.1.1.2.1.3-.5 1-.4 3.3-.1 3.9.1.1 0 .3-.1.3 0 .1-.1.1-.1.1"/><path id="Fill-173_1_" class="st545" d="M121.6 71.5c-.2 0-.3-.2-.3-.3.1-1 .5-2 1.1-2.7.1-.1.3-.1.4 0 .1.1.1.3 0 .4-.5.6-.9 1.5-1 2.4.1.1 0 .2-.2.2"/><path id="Fill-175_1_" class="st545" d="M65.7 40.1c-.1-.1-.2-.2-.2-.3.1-.5.2-1.2.2-1.3-.1-.4-.3-.8-.4-.9-.1-.1-.1-.3 0-.4.1-.1.2-.1.2 0 0 0 .3.6.4 1.2.1.4-.1 1.4-.2 1.6.2 0 .1.1 0 .1"/><path id="Fill-177_1_" class="st545" d="M65.5 40.1c-.1 0-.2-.1-.2-.2s.1-.2.2-.2h.2c.4-.2.6-1 .7-1.3.1-.5 0-.8-.2-1.2-.1-.2-.2-.4-.3-.7 0-.1 0-.2.1-.3.1 0 .2 0 .3.1l.3.6c.2.4.4.8.3 1.4 0 .1-.2 1.2-.9 1.6-.2.2-.3.2-.5.2z"/><path id="Fill-179_1_" class="st545" d="M67 40.1c-.3 0-.6-.1-.9-.3-.1-.1-.1-.2 0-.3.1-.1.3-.1.4 0 .2.1.4.2.5.1.3 0 .5-.1.7-.3.7-.7 1-1.3.9-1.9 0-.2-.2-.5-.3-.9l-.3-.9c0-.1.1-.2.2-.3.1 0 .3 0 .3.2.1.2.2.5.3.8.1.3.3.7.3.9.2.9-.4 1.7-1 2.3-.2.4-.6.6-1.1.6.1 0 0 0 0 0"/><path id="Fill-181_1_" class="st545" d="M67.7 40.1c-.3 0-.6-.1-.7-.1-.1-.1-.2-.2-.1-.3.1-.1.2-.2.4-.1s1.1.2 1.5-.4c.5-.8.7-1 .5-1.7-.1-.3-.2-.6-.3-1-.1-.2-.2-.4-.3-.7 0-.1 0-.3.2-.3s.3 0 .4.2c.1.2.2.5.3.7.2.4.3.7.4 1.1.2.8 0 1.2-.6 2-.5.4-1.1.6-1.7.6"/><path id="Fill-183_1_" class="st545" d="M70.7 40.1c-.1 0-.3 0-.4-.1-.1 0-.2-.2-.1-.3 0-.1.2-.1.3-.1.3.1.5 0 .7-.3l.1-.2c.3-.5.6-1.1.4-1.5 0-.1-.1-.2-.1-.3-.2-.4-.3-.9-.7-1.2-.2-.2-.4-.1-.8-.1-.1 0-.3.1-.4.1-.3 0-.5-.1-.7-.1-.2-.1-.4-.1-.6-.1-.2 0-.4.1-.6.2-.2.1-.3.1-.5.2s-.5 0-.6 0h-.5c-.3.1-1.2 1.2-1.3 1.5 0 .1-.2.2-.3.1-.1 0-.2-.1-.1-.2.1-.4 1.1-1.6 1.6-1.8.2-.1.4 0 .7 0h.5c.1 0 .3-.1.4-.1.2-.1.5-.2.7-.2.3 0 .5 0 .8.1.3.1.5.1.9 0 .3-.1.8-.1 1.2.2.4.4.6.9.7 1.3 0 .1.1.2.1.3.3.6-.1 1.3-.4 1.8l-.1.2c-.1.2-.3.6-.9.6"/><path id="Fill-185_1_" class="st545" d="M69.2 40.1c-.3 0-.5 0-.6-.1-.1-.1-.2-.2-.2-.3 0-.1.1-.2.2-.2s.2.1.2.2c.1.1.7 0 .9 0 .6-.1 1-.4 1.3-1 0-.1.2-.1.3-.1.1 0 .2.1.1.2-.4.8-.9 1.2-1.7 1.2-.2.1-.4.1-.5.1"/><path id="Fill-187_1_" class="st545" d="M63.6 36.3c-2.1-.3-4-1.4-5.3-3-.4-.5-.7-1-1-1.5-.6-.9-1.1-1.6-1.8-2-.1-.1-.1-.2-.1-.3.1-.1.2-.1.3-.1.9.4 1.4 1.2 2 2.1.3.4.6.9 1 1.4 1.2 1.6 3 2.6 5 2.9.1 0 .2.1.2.2-.1.2-.2.3-.3.3"/><path id="Fill-189_1_" class="st545" d="M57.1 24H57c-.1-.1-.1-.2 0-.3.4-.6.8-1 1.3-1.4l.8-.8c.5-.6 1.1-1.3 1.6-1.9.5-.7 1-1.4 1.5-1.8 1.6-1.6 3.1-1.8 4.1-2h.2c.7-.1 1.2-.1 1.6-.1h.9c.1 0 .2.1.2.2s-.1.2-.2.3h-1c-.4 0-.9 0-1.6.1h-.2c-1 .1-2.3.3-3.9 1.9-.4.4-.9 1.1-1.4 1.7-.5.6-1 1.3-1.6 1.9-.3.3-.5.6-.8.8-.4.4-.8.8-1.2 1.4h-.2"/><path id="Fill-191_1_" class="st545" d="M62 40.1c-3.1-.6-10.5-2.4-11.3-6.6-.3-1.7 1.1-3.3 2.4-4.7l1.2-1.2c1.1-1.1 2.2-2.2 3.1-3.5.1-.1.2-.1.3-.1.1.1.1.2.1.3-.9 1.3-2.1 2.4-3.1 3.5L53.5 29c-1.5 1.6-2.5 3-2.3 4.4.8 4.1 8.5 5.8 10.9 6.2.1 0 .2.1.2.2-.1.2-.2.3-.3.3"/><path id="Fill-193_1_" class="st545" d="M59.4 31.7c-.1 0-.1 0-.2-.1s-.1-.2 0-.3c0 0 2.6-2.1 3.4-2.7.1-.1.2-.1.3 0 .1.1.1.2 0 .3-.8.6-3.3 2.7-3.4 2.7 0 .1 0 .1-.1.1"/><path id="Fill-195_1_" class="st545" d="M66.4 24c-.1 0-.2-.1-.1-.3.3-1.6.5-4.5-.2-5.5-.1-.1 0-.2 0-.3s.2-.1.2 0c.8 1.2.5 4.4.2 5.9 0 .1 0 .2-.1.2"/><path id="Fill-197_1_" class="st545" d="M84.3 20.9c-.1 0-.1 0-.2-.1-.5-.8-1.5-1.7-2.4-2.4-.8-.6-1.5-1.2-1.8-1.8-.1-.1 0-.2 0-.3.1-.1.2-.1.3 0 .3.5 1 1.1 1.8 1.7 1 .8 2 1.6 2.5 2.5.1.1 0 .2-.1.3 0 .1 0 .1-.1.1"/><path id="Fill-199_1_" class="st545" d="M67 57.7h-1c-4.5-.3-12.3-2.8-12.8-3.6-.3-.5-.1-1 .1-1.7.1-.4.2-.8.3-1.3.2-1.3.2-2.1.3-3.8v-.2c0-1.2.4-2.5.9-4.3.2-.8.4-1.7.7-2.7 0-.1.1-.2.3-.2.1 0 .2.1.2.3-.2 1-.5 1.9-.7 2.7-.5 1.7-.8 3-.8 4.2v.2c0 1.6-.1 2.5-.3 3.8-.1.5-.2 1-.3 1.4-.2.6-.3 1-.1 1.3.2.6 7.5 3.2 12.2 3.5 4.9.3 8.3-1.6 10.1-2.6.6-.3 1-.5 1.3-.6.1 0 .2 0 .3.1 0 .1 0 .2-.2.3-.2.1-.7.3-1.2.6-1.7.9-4.8 2.6-9.3 2.6"/><path id="Fill-201_1_" class="st545" d="M78.6 39.3c-.1 0-.1 0 0 0-.1 0-.2-.2-.2-.4.1-.4.1-.7.2-1 .1-.5.2-.9.2-1.5 0-.2.1-.3.2-.2.1 0 .2.2.1.4-.1.6-.2 1.1-.2 1.5-.1.3-.1.6-.2 1 0 .1-.1.2-.1.2"/><path id="Fill-203_1_" class="st545" d="M74.8 55.4c-.1 0-.2 0-.2-.1-.1-.1 0-.2.1-.3.8-.5 1.9-1.2 1.7-1.5-.1-.2-.2-.4-.3-.5-.4-.8-1-1.8-1.1-2.7-.2-1 0-1.6.2-2 .1-.3.2-.6.2-1 0-.2-.1-.4-.1-.6-.1-.6-.2-1.4-.1-1.8.3-1.8.8-2.9 1.5-4.1l.2-.5c.1-.3.2-.5.3-.7 0-.1.2-.2.3-.1.1 0 .2.2.1.3-.1.3-.2.5-.3.8l-.3.3c-.6 1.3-1.1 2.3-1.5 4-.1.4 0 1.1.1 1.7 0 .2.1.5.1.6 0 .4-.1.8-.2 1.1-.2.5-.3 1-.2 1.8.1.8.7 1.8 1.1 2.6l.3.6c.3.6-.5 1.3-1.9 2.1.1 0 0 0 0 0"/><path id="Fill-205_1_" class="st545" d="M57.4 78.4c-.1 0-.2-.1-.2-.2-.3-1.9-1-5.3-1.7-8.2-.4-1.7-.7-3.3-1-4.4-.9-4.5-1-8.4-.4-11.6 0-.1.1-.2.2-.2s.2.1.2.3c-.6 3.1-.5 6.9.4 11.4.2 1.1.6 2.7 1 4.4.7 2.9 1.4 6.2 1.7 8.2.1.2 0 .3-.2.3.1 0 0 0 0 0"/><path id="Fill-207_1_" class="st545" d="M45.4 86.1c-.3 0-.6-.1-.8-.2-1-.6-1.5-2-1.6-3.2-.2-2.1.7-4.7 1.3-5.9.6-1.1.8-2.1 1.1-3 .2-.9.4-1.8.9-2.6.4-.6.9-1 1.5-1.1.8-.1 1.6.4 2 .7.2.1.4.3.6.6.6.6 1.3 1.4 2.4 1.9.1 0 .2.2.1.3 0 .1-.2.2-.3.1-1.2-.5-2-1.4-2.6-2l-.5-.5c-.3-.3-1-.7-1.6-.6-.4.1-.8.4-1.2.9-.5.8-.7 1.5-.9 2.4-.2.9-.5 2-1.1 3.2-.6 1.1-1.4 3.7-1.3 5.7.1 1.4.6 2.5 1.3 2.9.4.2.8.2 1.3 0s1-1.6 1.4-2.6c.1-.2.2-.4.2-.6 1-2.4 1.8-3.7 1.9-3.9.1-.1.2-.1.3-.1.1.1.1.2.1.3-.1.2-.9 1.5-1.9 3.8-.1.2-.1.4-.2.5-.6 1.4-1.1 2.5-1.7 2.8-.1.1-.4.2-.7.2"/><path id="Fill-209_1_" class="st545" d="M43.5 86.1c-.3 0-.5-.1-.7-.2-1.4-.6-1.9-2.9-2-4-.2-1.7.7-3.9 1.5-5.3.6-1.1.8-2 1-3 .2-.9.4-1.8.9-2.5.4-.6.9-.9 1.5-1 .8-.1 1.5.4 1.9.7.1.1.1.2 0 .3-.1.1-.2.1-.3 0-.3-.3-.9-.7-1.6-.6-.4.1-.8.3-1.1.8-.5.7-.7 1.5-.9 2.4-.2.9-.5 2-1.1 3.1-.8 1.4-1.6 3.5-1.4 5.1.1 1.2.7 3.2 1.8 3.7.5.2 1.1.1 1.7-.3.1-.1.2 0 .3.1.1.1 0 .2-.1.3-.5.2-.9.4-1.4.4"/><path id="Fill-211_1_" class="st545" d="M65.9 106c-.1 0-.1 0 0 0-.3-.1-.5-.2-.8-.4-.5-.3-1-.5-1.7-.7-.5-.1-2.9-.8-3.3-1.2-.5-.5 0-2.3.1-2.8.3-.8.7-1.8 1.3-2.9 0 0 1.2-2.4 1.7-4.1 0-.1.1-.2.3-.1.1 0 .2.2.1.3-.5 1.7-1.7 4.2-1.7 4.2-.6 1.2-1 2.1-1.3 2.9-.3 1-.4 2.2-.3 2.3.2.2 1.5.7 3.1 1.1.7.2 1.3.5 1.8.8l.6.3c.1 0 .2.2.1.3.1 0 .1 0 0 0"/><path id="Fill-213_1_" class="st545" d="M71.1 106.8H71c-.1 0-.2-.1-.2-.2s.1-.2.2-.2c.8 0 1.4-.1 1.9-.3.4-.2.5-.5.5-.7 0-.1.1-.2.2-.2s.2.1.2.2c0 .3-.2.7-.8 1-.5.3-1.2.4-1.9.4"/><path id="Fill-215_1_" class="st545" d="M73.6 106c-.1 0-.2-.1-.2-.2 0 0 0-.6-.6-1.2-.3-.2-1.1-.8-1.9-1.2-.1-.1-.1-.2-.1-.3 0-.1.2-.2.3-.1.7.4 1.7 1 2 1.3.9.7.8 1.5.8 1.6-.1 0-.2.1-.3.1"/><path id="Fill-217_1_" class="st545" d="M69 102.2c-.1 0-.1 0-.1-.1-.7-.7-1-1.6-1.1-2-.3-1.3 0-2 .7-3.9 0-.1.2-.2.3-.1.1 0 .2.2.1.3-.8 2-.9 2.6-.7 3.7.1.4.3 1.1 1 1.8.1.1.1.2 0 .3H69"/><path id="Fill-219_1_" class="st545" d="M66.6 107.6c-.4-.1-.8-.3-1.4-.5-.7-.3-1.6-.7-2.4-.8-.5-.1-3-.6-3.5-1-.4-.3-.2-1.8-.1-2.2 0-.1.2-.1.3-.1.1 0 .2.1.2.2-.2.6-.2 1.7-.1 1.9.2.2 1.6.5 3.3.9.8.2 1.7.5 2.5.8.5.2.9.4 1.2.4.1 0 .2.1.1.2.1.1 0 .2-.1.2"/><path id="Fill-221_1_" class="st545" d="M70.9 109.1c-.1 0-.2-.1-.2-.2s.1-.2.2-.2c1 0 1.9-.4 2.3-.9.3-.4.2-1.1 0-1.5l.4-.2c.3.8.3 1.6-.1 2-.3.3-1 1-2.6 1z"/><path id="Fill-223_1_" class="st545" d="M61 83.8c-1.6 0-3.4-.8-5.5-1.9-1.6-.8-2.6-1.2-3.3-1.4-.7-.2-1-.4-1.1-.6-.2-.4-.4-2.6 0-3.8.3-1.1 1-2.6 1.6-2.8.6-.1 1.6.3 2.6.7.6.2 1.1.4 1.4.5.1 0 .2.1.2.2s-.1.2-.2.2c-.4-.1-.9-.3-1.5-.5-.8-.3-1.9-.8-2.3-.7-.3.1-.9 1.1-1.3 2.5-.3 1.2-.1 3.2 0 3.5.1.1.4.2.9.4.7.3 1.8.6 3.4 1.4 3.1 1.5 5.5 2.5 7.4 1.2 1.9-1.3 1.8-4.6 1.7-6.6v-.2c-.1-1.9-.2-4.3.1-7.7.2-2 .2-2.4.8-4.2 0-.1.2-.2.3-.1.1 0 .2.2.1.3-.6 1.7-.6 2-.8 4-.3 3.4-.2 5.8-.1 7.7v.2c.1 2.1.2 5.5-1.9 7-.9.5-1.7.7-2.5.7"/><path id="Fill-225_1_" class="st545" d="M68.3 96.1c-.6 0-1.2-.1-1.9-.3-1.5-.5-3.4-1.9-3.3-2.6.1-1 2-6.7 2.5-7.9.3-.8.8-1.7 1.2-2.5.9-1.8 1.8-3.7 1.8-4.8.1-1.9-.7-4.5-1.5-6.9-.4-1.2-1.7-4.1-2.3-4.8-.1-.1-.1-.2 0-.3.1-.1.2-.1.3 0 .7.7 2.1 3.9 2.4 4.9.8 2.4 1.6 5 1.5 7 0 1.2-.9 3-1.8 4.9-.4.8-.8 1.7-1.2 2.5-.5 1.3-2.4 6.9-2.5 7.8 0 .3 1.4 1.6 3 2.2 1.3.4 2.4.3 2.6.2.1-.2.2-.6.4-1.1.6-1.6 1.7-4.7 2.3-6.1.5-1.2 1-2.4 1.6-3.6 1.2-2.6 2.4-5.4 3.3-8.2.8-2.7.2-8.5-.3-12.4-.1-.5-.1-1-.2-1.5-.4-3.5-.9-7-1.1-7.9 0-.1 0-.2.2-.3.1 0 .2 0 .3.2.2.9.8 4.3 1.1 7.9 0 .4.1.9.2 1.5.4 3.9 1.1 9.7.2 12.5-.9 2.8-2.1 5.6-3.3 8.2-.5 1.2-1.1 2.4-1.6 3.6-.6 1.4-1.7 4.4-2.3 6.1-.4 1-.4 1.2-.5 1.2.1.3-.4.5-1.1.5"/><path id="Fill-227_1_" class="st545" d="M50.5 79.2s-.1 0 0 0c-.3-.1-.9-.2-1.7-.6-.4-.2-.8-.8-1-1.7-.2-.7-.7-3.3 1.8-4.6.1-.1.3 0 .3.1.1.1 0 .2-.1.3-2.2 1.2-1.8 3.5-1.6 4.2.2.8.6 1.3.8 1.4.8.3 1.3.5 1.5.6.1 0 .2.2.2.3 0-.1-.1 0-.2 0"/><path id="Fill-229_1_" class="st545" d="M66.5 62.3c-.1 0-.2-.1-.2-.2V60v-2.1c0-.1.1-.2.2-.2s.2.1.2.2v4.2c0 .1-.1.2-.2.2"/><path id="Fill-231_1_" class="st545" d="M64.1 99.9c-.7 0-1.2-.5-1.7-1l-.1-.1c-.1-.1-.1-.2 0-.3.1-.1.2-.1.3-.1l.1.1c.6.5 1 1 1.7.9.1 0 .2-.1.4-.1.5-.2 1.3-.6 2-.3.1 0 .1.2.1.3 0 .1-.1.2-.2.2-.6-.2-1.3.1-1.8.3-.2.1-.3.1-.4.2-.2-.1-.3-.1-.4-.1"/><path id="Fill-233_1_" class="st545" d="M61.5 30.1c-.1 0-.2-.1-.2-.2s.1-.2.2-.3c.1 0 .2-.1.3-.3.2-.8-.5-2.6-1.3-3.5-1.5-1.6-3.3-2.5-3.8-2.2-.2.1-.1.5.1 1 0 .1 0 .2-.1.3-.1 0-.2 0-.3-.1-.3-.8-.2-1.3.1-1.5.8-.6 3.1 1 4.3 2.3.9.9 1.7 2.9 1.4 3.9-.1.4-.3.6-.7.6.1 0 0 0 0 0"/><path id="Fill-235_1_" class="st545" d="M61.7 29.4c-.1 0-.2-.1-.2-.2s0-.2.2-.3c.6-.2 1.5-1.2 2.4-2.3.5-.6 1.1-1.3 1.7-1.9.1-.1.2-.1.3 0 .1.1.1.2 0 .3-.6.5-1.1 1.2-1.7 1.8-1 1.4-1.9 2.4-2.7 2.6"/><path id="Fill-237_1_" class="st545" d="M84.3 7.9c-.1 0-.2-.1-.2-.3 0-.7-.1-1.8-.3-2.4-.1-.1 0-.3.1-.4.1-.1.2 0 .3.1.3.8.4 2 .3 2.7 0 .2-.1.3-.2.3"/><path id="Fill-239_1_" class="st545" d="M80.2 16.3c-1.7 0-3.7-1.4-4.1-2.1-.1-.1 0-.2.1-.3.1-.1.2 0 .3.1.4.6 3.1 2.5 4.6 1.7 2.3-1.2 2.3-5.1 2.3-5.3 0-.1.1-.2.2-.2s.2.1.2.2c0 .2 0 4.4-2.5 5.7-.4.2-.7.2-1.1.2"/><path id="Fill-241_1_" class="st545" d="M80.1 11.7c-.1 0-.1-.1-.2-.2 0-.1 0-.3.1-.3l.3-.3v-.2c0-.1-.1-.1-.1-.2-.2-.3-.4-.8-.2-1.6 0-.1.1-.2.2-.2s.1.2.1.3c-.1.6 0 .9.2 1.2.1.1.1.2.2.3.1.2.1.4 0 .6-.2.3-.3.5-.6.6"/><path id="Fill-243_1_" class="st545" d="M82.4 7.8c-.1 0-.2-.1-.2-.1 0-.1 0-.2.1-.3.5-.2 1-.2 1.3-.1.1 0 .2.2.1.3 0 .1-.1.2-.3.1-.1 0-.5-.1-1 .1.1 0 0 0 0 0"/><path id="Fill-245_1_" class="st545" d="M77.2 8.6c-.1 0-.2 0-.3-.1-.1-.1-.1-.2.1-.3.7-.3 1.7-.4 2.7-.2.2 0 .3.2.2.3 0 .1-.2.2-.4.2-.8-.1-1.6-.1-2.1.2-.1-.1-.2-.1-.2-.1"/><path id="Fill-247_1_" class="st545" d="M74.2 13.1h-.3c-.1 0-.2-.1-.1-.3 0-.1.1-.2.2-.2h.3c.1 0 .2.1.2.2s-.1.2-.2.3h-.1"/><path id="Fill-249_1_" class="st545" d="M72.4 9.4c-.2-.1-.2-.2-.2-.3.1-.2.4-.4.7-.5.3-.1.6 0 .7.1.1.1.1.2 0 .2-.1.1-.2.1-.3 0 0 0-.2-.1-.4 0-.1 0-.3.1-.4.3.1.2 0 .2-.1.2"/><path id="Fill-251_1_" class="st545" d="M73.6 11c-.1 0-.2-.1-.2-.1-.1-.2-.3-.3-.3-.3-.1 0-.1-.2-.1-.2.1-.1.2-.1.3-.1 0 0 .4.2.5.5 0 .1-.1.1-.2.2"/><path id="Fill-253_1_" class="st552" d="M78.3 9.8c0-.2-.1-.4-.3-.4-.2 0-.4.2-.4.4s.1.4.3.4c.3 0 .4-.2.4-.4"/><path id="Fill-255_1_" class="st545" d="M74.3 8.7h-.4c-.1 0-.2-.1-.2-.2s.1-.2.2-.2c1 .2 1.6-.6 2.1-1.5.4-.8.9-1.5 2-1.9.1 0 .2 0 .3.1 0 .1 0 .2-.1.3-1 .3-1.3 1-1.8 1.7-.2.5-.9 1.7-2.1 1.7"/><path id="Fill-257_1_" class="st545" d="M79.7 6.4h-.2c-.2 0-.3-.1-.3-.3s.2-.3.3-.3c1.2 0 1.9-.4 2.1-.8.1-.1.3-.2.4-.1.2.1.2.2.2.4-.3.5-1.2 1.1-2.5 1.1"/><path id="Fill-259_1_" class="st545" d="M81.8 6.4c-.2 0-.3-.1-.3-.2s.1-.2.3-.2c.6 0 1.5-.2 1.9-.5.1-.1.2-.2.1-.4 0-.1.1-.2.2-.3.2 0 .4 0 .4.1.1.2 0 .5-.2.7-.5.5-1.7.7-2.4.8"/><path id="Fill-261_1_" class="st545" d="M84 7.1c-.1 0-.2-.1-.2-.2s0-.3.1-.3c.5-.2.8-.5.9-1 .1-.5-.1-1-.4-1.2-.1-.1-.1-.2 0-.3.1-.1.2-.1.3 0 .3.3.6.9.5 1.6 0 .7-.5 1.2-1.2 1.4"/><path id="Fill-263_1_" class="st545" d="M84.3 4.1c-.7-.1-.9-.3-1.4-.9-.5-.7-1.2-1.4-2-1.6-.1 0-.2-.2-.2-.3 0-.2.1-.3.2-.3 1 .2 1.7 1 2.3 1.7.4.6.6.7 1.1.7.1 0 .2.2.2.3 0 .3-.1.4-.2.4"/><path id="Fill-265_1_" class="st545" d="M74.8 1c-.1 0-.1 0-.2-.1s-.1-.2 0-.3c.8-.9 2.3-1.3 3.5-1.1.5.1.8.3 1.2.4.4.2.8.3 1.2.4.1 0 .2.1.2.3 0 .1-.1.2-.3.2-.5-.1-.9-.3-1.3-.4-.4-.1-.7-.3-1.1-.4-.9-.2-2.3.1-3 .9-.1.1-.2.1-.2.1"/><path id="Fill-267_1_" class="st545" d="M72.5 5.6c-.1 0-.2-.1-.2-.2-.1-.9.1-2.4.8-3.3.5-.6 1.2-1 2-1.1.1 0 .2.1.2.2s-.1.2-.2.2c-.7.1-1.2.4-1.7.9-.7.9-.8 2.3-.7 3 0 .2 0 .3-.2.3"/><path id="Fill-269_1_" class="st545" d="M73.5 9.4c-.1 0-.2-.1-.2-.1-.1-.3-.2-.5-.3-.8-.4-.9-.8-1.8-.7-2.7 0-.1.1-.2.3-.2.1 0 .2.1.2.3-.1.7.3 1.6.7 2.4.1.3.2.6.4.8-.1.1-.2.3-.4.3.1 0 .1 0 0 0"/><path id="Fill-271_1_" class="st3" d="M79.1 12.7s.4 1.4 1.7 1.3c1.1-.1 1.4-1.5 1.4-1.5s-.7.1-1.5.2-1.6 0-1.6 0"/><path id="Fill-273_1_" class="st545" d="M78.9 12.8c.1.6.5 1.5 1.1 1.4.5-.1.8-1.1.9-1.7-.2.1-.6.2-1 .2-.3.1-.8.1-1 .1m1 2c-.9 0-1.4-1.5-1.5-2.3v-.3c0-.1.1-.1.2-.1h1.3c.7-.1 1.2-.3 1.2-.3.1 0 .1 0 .2.1s.1.2.1.3c0 .1-.3 2.5-1.4 2.7 0-.1 0-.1-.1-.1"/><path id="Fill-275_1_" class="st552" d="M82.2 9.1c0-.2-.1-.4-.3-.4-.2 0-.3.2-.4.4 0 .2.1.4.3.4.2-.1.3-.2.4-.4"/><path id="Fill-277_1_" class="st545" d="M78.6 18.6h-.1c-.1-.1-.1-.2-.1-.4.5-1.1.9-2.1 1.1-2.5.1-.1.2-.2.3-.1.1.1.1.2.1.4-.2.5-.6 1.5-1.1 2.6h-.2"/><path id="Fill-279_1_" class="st545" d="M78 20.2h-.3c-.1 0-.2-.1-.1-.2 0-.1.1-.2.2-.1.2.1.5 0 .7-.2.2-.2.3-.5.3-.8 0-.1.1-.2.2-.2s.2.1.2.2c0 .4-.1.8-.4 1.1-.3.1-.5.2-.8.2"/><path id="Fill-281_1_" class="st545" d="M71.7 39.2c-.1 0-.2-.1-.2-.2s.1-.2.2-.2h8c.1 0 .2.1.2.2s-.1.2-.2.2h-8z"/><path id="Fill-283_1_" class="st545" d="M70.9 40c-.1 0-.2-.1-.2-.2s.1-.2.2-.2l9.5-.1c.1 0 .2.1.2.2s-.1.2-.2.2l-9.5.1z"/><path id="Fill-285_1_" class="st545" d="M82.6 64.6c-.1 0-.2 0-.2-.1-.7-.5-.7-1.1-.6-1.7 0-.3 0-.7-.1-1-.1-.3-.2-.7-.3-1-.2-.7-.5-1.6-.9-3.2-.7-2.7-.6-5.9-.5-9.2 0-2.1.1-4.3 0-6.5 0-.1.1-.2.3-.2.2 0 .3.1.3.2.1 2.3.1 4.5 0 6.6-.1 3.3-.1 6.4.5 9.1.4 1.6.7 2.5.9 3.2.1.4.2.7.3 1 .1.4.1.8.1 1.1 0 .6-.1 1 .5 1.4.1.1.1.2 0 .3h-.3"/><path id="Fill-287_1_" class="st545" d="M83.2 63.9s-.1 0 0 0c-.2-.1-.2-.2-.2-.3.4-1.2 2.9-2.5 3.6-2.8.1 0 .2 0 .3.1 0 .1 0 .3-.1.3-.9.4-3 1.6-3.3 2.5-.2.1-.2.2-.3.2"/><path id="Fill-289_1_" class="st545" d="M98.2 34c-.1 0-.1 0 0 0-.4-.2-.7-.7-.5-1.4 0-.1.1-.2.2-.1.1 0 .2.1.1.2-.1.5 0 .8.3 1 .1 0 .1.2.1.2-.1 0-.2.1-.2.1"/><path id="Fill-291_1_" class="st545" d="M84.5 33.2c-.2 0-.4 0-.6-.1-.2-.1-.2-.2-.1-.3.1-.1.3-.2.4-.1.5.2 1.6-.3 2.1-.9.1-.1.3-.2.4-.1.1.1.2.2.1.3-.4.6-1.4 1.2-2.3 1.2"/><path id="Fill-293_1_" class="st545" d="M68.7 11.7c-.6 0-1.2-.2-1.7-.5-.1-.1-.1-.2-.1-.3.1-.1.2-.2.3-.1.7.4 1.7.6 2.5.2.7-.4 1.1-1.1 1.4-2.2 0-.1.1-.2.3-.2.1 0 .2.2.2.3-.3 1.2-.8 2.1-1.6 2.5-.5.3-.9.3-1.3.3"/><path id="Fill-295_1_" class="st545" d="M120.4 23.2c-.1 0-.2-.1-.2-.2-.1-.9-.7-2.1-1.4-2.7-.4-.3-.7-.5-1-.4-.1 0-.2-.1-.2-.2s.1-.2.2-.2c.4 0 .8.1 1.3.5.8.7 1.5 2 1.6 3-.1.1-.2.2-.3.2"/><path id="Fill-297_1_" class="st545" d="M92.8 37c-.1 0-.2-.1-.2-.1-.7-2.1-3.8-4.1-5.5-4.1-.1 0-.2-.1-.2-.2s.1-.2.2-.2c2.1 0 5.2 2.3 5.9 4.4 0 .1-.1.2-.2.2"/><path id="Fill-299_1_" class="st545" d="M92.4 36.3c-.1 0-.2-.1-.2-.3 0-.2.1-.3.2-.3 1.8-.2 2.4-2.2 2.4-2.2.1-.2.2-.2.3-.2.1.1.2.3.1.4 0 .1-.7 2.3-2.8 2.6"/><path id="Fill-301_1_" class="st545" d="M94 37c-.1 0-.2-.1-.2-.2s0-.2.2-.3c.8-.2 1.9-1 2.3-1.9.3-.6.2-1.3-.2-1.9-.1-.1 0-.2.1-.3.1-.1.3 0 .3.1.4.7.5 1.5.2 2.3-.6 1.2-1.8 2-2.7 2.2"/><path id="Fill-303_1_" class="st545" d="M64.3 42.4c-.1 0-.2 0-.3-.1-.9-.5-2.3-2.2-2.5-2.8-.1-.3-.1-.6 0-.9.2-.3.5-.5.9-.6.9-.2 2.3-.2 2.4-.2.1 0 .2.1.2.2s-.1.2-.2.2c0 0-1.5 0-2.4.2-.4.1-.6.2-.7.4-.1.1-.1.3 0 .5.1.4 1.5 2.1 2.3 2.6.2.1.2 0 .5-.2l.4-.4c.2-.1.4-.2.5-.2-.4-.5-.8-1-1.3-1.6l-.2-.2c-.1-.1-.1-.2 0-.3.1-.1.2-.1.3 0l.2.2c.5.6 1 1.1 1.4 1.7 0 .1.1.2.1.4-.1.2-.2.2-.4.3-.1 0-.3.1-.5.2l-.3.3c0 .1-.2.3-.4.3"/><path id="Fill-305_1_" class="st545" d="M77.4 78.4c-.1 0-.2-.1-.2-.2l-.4-1.9-6.3-28.5s-.4-1.8-.8-3.3c-.2-.9-2.6-2.8-3.5-3.4-.1-.1-.1-.2-.1-.3.1-.1.2-.1.3-.1.3.2 3.4 2.4 3.7 3.6.4 1.5.8 3.3.8 3.3l6.7 30.3c0 .4 0 .5-.2.5"/><path id="Fill-307_1_" class="st545" d="M107.5 50.8L67 45.3c-.1 0-.1 0-.2-.1V45s.5-1 1.5-1.4c1-.4 2.8-.3 2.9-.3l9.1-.1c.1 0 .2.1.2.2s-.1.2-.2.2l-9.1.1s-1.8-.1-2.7.3c-.6.2-.9.7-1.1 1l40.1 5.5 25.2-.1c.1 0 .2.1.2.2s-.1.2-.2.2h-25.2z"/><path id="Fill-309_1_" class="st545" d="M76.1 80c-.1 0-.1 0-.2-.1l-1.8-1.8-.1-.1-7.3-33c0-.1.1-.2.2-.3.1 0 .2.1.3.2l7.3 33 1.7 1.7h.4c.1 0 .2.1.2.2s-.1.2-.2.2h-.5z"/><path id="Fill-311_1_" class="st545" d="M83.2 79.9c-.1 0-.2-.1-.2-.2s.1-.2.2-.2l3.4-.1c.1 0 .2.1.2.2s-.1.2-.2.2l-3.4.1z"/><path id="Fill-313_1_" class="st545" d="M90.9 79.2c-.1 0-.2-.1-.2-.2s.1-.2.2-.2l17.8-.6 28.8-3.4.3-22.2c0-.1.1-.2.2-.2s.2.1.2.2l-.2 22.3c0 .1-.1.2-.2.2l-29.1 3.4-17.8.7z"/><path id="Fill-315_1_" class="st545" d="M108.1 78.4c-.1 0-.2-.1-.2-.2L106.7 51c0-.1.1-.2.2-.2s.2.1.2.2l1.2 27.2c0 .1-.1.2-.2.2"/><path id="Fill-317_1_" class="st545" d="M107.4 52.4l-39.6-5.7c-.1 0-.2-.1-.2-.2s.1-.2.2-.2l39.5 5.7 27.6-.1c.1 0 .2.1.2.2s-.1.2-.2.2h-1.4l-26.1.1z"/><path id="Fill-319_1_" class="st545" d="M72 50.8l-2.1-.6s-1.3-.3-1.5-1.2c-.4-1.3-.7-3.2-.7-3.2s-.3-1.5-.5-2.2c-.2-.6-1.3-1.4-1.8-1.7-.1-.1-.1-.2-.1-.3.1-.1.2-.1.3-.1.1 0 1.6 1 1.9 1.9.2.7.5 2.2.5 2.2s.3 1.9.7 3.1c.2.7 1.2.9 1.2.9l2.1.6c.1 0 .2.1.1.3.1.3 0 .3-.1.3"/><path id="Fill-321_1_" class="st545" d="M107.3 53.9l-38.7-5.7c-.1 0-.2-.1-.2-.2s.1-.2.2-.2l38.7 5.7 30.7-.4c.1 0 .2.1.2.2s-.1.2-.2.2l-30.7.4z"/><path id="Fill-323_1_" class="st545" d="M108.9 63.9l-37.3-5.7c-.1 0-.2-.1-.2-.3 0-.1.1-.2.2-.2l37.3 5.7 29.8-1.5c.1 0 .2.1.2.2s-.1.2-.2.2l-29.8 1.6z"/><path id="Fill-325_1_" class="st545" d="M108.4 71.5l-36-4.2c-.1 0-.2-.1-.2-.2s.1-.2.2-.2l36 4.2 29.6-2c.1 0 .2.1.2.2s-.1.2-.2.2l-29.6 2"/><path id="Fill-327_1_" class="st545" d="M74 76.9c-.1 0-.2-.1-.2-.2s.1-.2.2-.2l34-1 29.3-3.2c.1 0 .2.1.2.2s-.1.2-.2.2L108 75.9l-34 1z"/><path id="Fill-329_1_" class="st545" d="M138.1 74.6s-.1 0 0 0l-28.8-2.5c-.1 0-.2-.1-.2-.3 0-.1.1-.3.2-.3L138 74c.1 0 .2.1.2.3.1.2 0 .3-.1.3"/><path id="Fill-331_1_" class="st545" d="M74.8 78.4c-.1 0-.2-.1-.2-.2s0-.2.2-.3l11.8-2.6c.1 0 .2 0 .3.2 0 .1 0 .2-.2.3l-11.9 2.6"/><path id="Fill-333_1_" class="st545" d="M95.8 79.2c-.1 0-.2-.1-.2-.2l-3.4-28.7c0-.1.1-.2.2-.2s.2.1.2.2L96 79c0 .1 0 .2-.2.2"/><path id="Fill-335_1_" class="st545" d="M97.3 80c-.1 0-.2-.1-.2-.2l-3.4-28.7c0-.1.1-.2.2-.2s.2.1.3.2l3.4 28.7s-.1.2-.3.2c.1 0 .1 0 0 0"/><path id="Fill-337_1_" class="st545" d="M98.1 80c-.1 0-.2-.1-.2-.2l-2.7-28.7c0-.1.1-.2.2-.2s.2.1.2.2l2.7 28.7s0 .2-.2.2"/><path id="Fill-339_1_" class="st545" d="M99.6 78.4c-.1 0-.2-.1-.2-.2L96.8 51c0-.1.1-.2.2-.2s.2.1.3.2l2.6 27.2c0 .1-.1.2-.3.2.1 0 0 0 0 0"/><path id="Fill-341_1_" class="st545" d="M102.7 78.4c-.1 0-.2-.1-.2-.2L99.9 51c0-.1.1-.2.2-.2s.2.1.3.2l2.6 27.2c0 .1-.1.2-.3.2"/><path id="Fill-343_1_" class="st545" d="M105 78.4c-.1 0-.3-.1-.3-.2L102.2 51c0-.1.1-.2.2-.2.2 0 .3.1.3.2l2.5 27.2c.1.1 0 .2-.2.2"/><path id="Fill-345_1_" class="st545" d="M106.5 78.4c-.2 0-.3-.1-.3-.2l-2.5-26.4c0-.1.1-.2.3-.2.2 0 .3.1.3.2l2.5 26.4c0 .1-.1.2-.3.2"/><path id="Fill-347_1_" class="st545" d="M108 78.4c-.2 0-.3-.1-.3-.2l-2.5-26.4c0-.1.1-.2.3-.2.2 0 .3.1.3.2l2.5 26.4c0 .1-.1.2-.3.2"/><path id="Fill-349_1_" class="st545" d="M94.3 80c-.1 0-.2-.1-.2-.2l-3.4-29.5c0-.1.1-.2.2-.2s.2.1.2.2l3.4 29.5s-.1.2-.2.2"/><path id="Fill-351_1_" class="st545" d="M92 79.2c-.1 0-.2-.1-.2-.2l-3.4-29.5c0-.1.1-.2.2-.2s.2.1.2.2L92.2 79c0 .1-.1.2-.2.2"/><path id="Fill-353_1_" class="st545" d="M90.5 79.2c-.1 0-.2-.1-.2-.2l-3.4-29.5c0-.1.1-.2.2-.2s.2.1.2.2L90.7 79c0 .1-.1.2-.2.2"/><path id="Fill-355_1_" class="st545" d="M91.2 79.2c-.1 0-.2-.1-.2-.2l-4.1-29.5c0-.1.1-.2.2-.2s.2.1.3.2l4 29.5c0 .1 0 .2-.2.2"/><path id="Fill-357_1_" class="st545" d="M87.1 78.4l-.1-1.2-4-28.4c0-.1.1-.2.2-.2s.2.1.3.2l4.1 29.6h-.5z"/><path id="Fill-359_1_" class="st545" d="M85.1 79.2c-.1 0-.2-.1-.2-.2l-4.2-30.2c0-.1.1-.2.2-.2s.2.1.2.2L85.3 79c0 .1-.1.2-.2.2"/><path id="Fill-361_1_" class="st545" d="M84.3 80c-.1 0-.2-.1-.2-.2L79.9 48c0-.1.1-.2.2-.3.1 0 .2.1.2.2l4.2 31.8c0 .1 0 .2-.2.3"/><path id="Fill-363_1_" class="st545" d="M82 79.2c-.1 0-.2-.1-.2-.2l-4.2-31.8c0-.1.1-.2.2-.3.1 0 .2.1.2.2l4.2 31.8c0 .2 0 .3-.2.3"/><path id="Fill-365_1_" class="st545" d="M80.5 79.2c-.1 0-.2-.1-.2-.2l-4.2-31.8c0-.1.1-.2.2-.3.1 0 .2.1.2.2l4.2 31.8c0 .2-.1.3-.2.3"/><path id="Fill-367_1_" class="st545" d="M78.9 79.2c-.1 0-.2-.1-.2-.2L73 47.3c0-.1.1-.2.2-.3.1 0 .2.1.3.2L79.2 79c0 .1-.1.2-.3.2"/><path id="Fill-369_1_" class="st545" d="M110.4 78.4c-.1 0-.2-.1-.2-.2l-1.1-26.4c0-.1.1-.2.2-.2s.2.1.2.2l1.1 26.4c0 .1-.1.2-.2.2z"/><path id="Fill-371_1_" class="st545" d="M112.7 78.4c-.1 0-.2-.1-.2-.2l-1.1-26.4c0-.1.1-.2.2-.2s.2.1.2.2l1.1 26.4c0 .1-.1.2-.2.2z"/><path id="Fill-373_1_" class="st545" d="M114.2 77.7c-.1 0-.2-.1-.2-.2l-1.1-25.6c0-.1.1-.2.2-.2s.2.1.2.2l1.1 25.6c.1.1 0 .2-.2.2z"/><path id="Fill-375_1_" class="st545" d="M115.8 77.7c-.1 0-.2-.1-.2-.2l-1.1-25.6c0-.1.1-.2.2-.2s.2.1.2.2l1.1 25.6c0 .1-.1.2-.2.2z"/><path id="Fill-377_1_" class="st545" d="M118.1 77.7c-.1 0-.2-.1-.3-.2l-1-25.6c0-.1.1-.2.2-.2s.3.1.3.2l1 25.6c0 .1-.1.2-.2.2z"/><path id="Fill-379_1_" class="st545" d="M119.7 77.7c-.1 0-.1-.1-.1-.2l-.5-25.6c0-.1.1-.2.1-.2.1 0 .1.1.1.2l.5 25.6c0 .1 0 .2-.1.2z"/><path id="Fill-381_1_" class="st545" d="M137.1 75.4c-.1 0-.2-.1-.2-.2l.1-22.6c0-.1.1-.2.2-.2s.2.1.2.2l-.1 22.6c0 .1-.1.2-.2.2"/><path id="Fill-383_1_" class="st545" d="M135.5 75.4c-.1 0-.2-.1-.2-.2l.1-22.6c0-.1.1-.2.2-.2s.2.1.2.2l-.1 22.6c.1.1 0 .2-.2.2"/><path id="Fill-385_1_" class="st545" d="M133.3 76.1c-.1 0-.2-.1-.2-.2V51.8c0-.1.1-.2.2-.2s.2.1.2.2v24.1c0 .1-.1.2-.2.2"/><path id="Fill-387_1_" class="st545" d="M131.8 76.1c-.1 0-.2-.1-.2-.2l-.1-24.1c0-.1.1-.2.2-.2s.2.1.2.2l.1 24.1c0 .1-.1.2-.2.2z"/><path id="Fill-389_1_" class="st545" d="M121.2 76.9c-.1 0-.2-.1-.2-.2l-.4-24.9c0-.1.1-.2.2-.2s.2.1.2.2l.4 24.9c0 .1-.1.2-.2.2z"/><path id="Fill-391_1_" class="st545" d="M122.7 76.9c-.1 0-.2-.1-.2-.2l-.4-24.9c0-.1.1-.2.2-.2s.2.1.2.2l.4 24.9c0 .1-.1.2-.2.2z"/><path id="Fill-393_1_" class="st545" d="M125 76.9c-.1 0-.2-.1-.2-.2l-.3-24.9c0-.1.1-.2.2-.2s.2.1.2.2l.3 24.9c0 .1-.1.2-.2.2z"/><path id="Fill-395_1_" class="st545" d="M125.8 76.9c-.1 0-.2-.1-.2-.2l-.4-24.8c0-.1.1-.2.2-.2s.2.1.2.2l.4 24.8c0 .1-.1.2-.2.2z"/><path id="Fill-397_1_" class="st545" d="M128.1 76.9c-.1 0-.2-.1-.2-.2l-.4-24.8c0-.1.1-.2.2-.2s.2.1.2.2l.4 24.8c0 .1-.1.2-.2.2z"/><path id="Fill-399_1_" class="st545" d="M129.6 76.1c-.1 0-.2-.1-.2-.2l-.3-24.1c0-.1.1-.2.2-.2s.2.1.2.2l.3 24.1c0 .1-.1.2-.2.2z"/><path id="Fill-401_1_" class="st545" d="M71.2 44.7c-.1 0-.2-.1-.2-.2l-.3-1.1c0-.1 0-.2.2-.2.1 0 .2 0 .3.1l.3 1.1c0 .2-.1.3-.3.3.1 0 0 0 0 0"/><path id="Fill-403_1_" class="st545" d="M74.3 46.2c-.1 0-.2-.1-.2-.3l-.3-2.4c0-.2.1-.4.2-.4s.2.1.3.3l.3 2.4c-.1.2-.1.4-.3.4"/><path id="Fill-405_1_" class="st545" d="M76.6 46.2c-.1 0-.2-.1-.2-.2l-.3-2.5c0-.2.1-.3.2-.3s.2.1.2.2l.3 2.5c.1.1 0 .3-.2.3"/><path id="Fill-407_1_" class="st545" d="M78.9 46.2c-.1 0-.2-.1-.2-.2l-.4-2.6c0-.1.1-.3.2-.3s.2.1.2.2l.4 2.6c.1.2 0 .3-.2.3.1 0 0 0 0 0"/><path id="Fill-409_1_" class="st545" d="M111.1 50.8c-.1 0-.2-.1-.2-.2l-.2-4.1c0-.1.1-.2.2-.2s.2.1.2.2l.2 4.1c0 .1-.1.2-.2.2z"/><path id="Fill-411_1_" class="st545" d="M112.6 50.8c-.1 0-.2-.1-.2-.2l-.1-2.7c0-.1.1-.2.2-.2s.2.1.2.2l.1 2.7c0 .1-.1.2-.2.2z"/><path id="Fill-413_1_" class="st545" d="M114.1 50.1c-.1 0-.2-.1-.2-.3v-2.5c0-.1.1-.3.2-.3s.2.1.2.3v2.5c0 .1-.1.3-.2.3z"/><path id="Fill-415_1_" class="st545" d="M116.4 50.1c-.1 0-.2-.1-.2-.2v-1.2c0-.1.1-.2.2-.2s.2.1.2.2v1.2c0 .1-.1.2-.2.2"/><path id="Fill-417_1_" class="st545" d="M117.9 50.1c-.1 0-.2-.1-.2-.2v-1c0-.1.1-.2.2-.2s.2.1.2.2v1c0 .1-.1.2-.2.2"/><path id="Fill-419_1_" class="st545" d="M120.2 50.1c-.1 0-.2-.1-.2-.2v-.5c0-.1.1-.2.2-.1.1 0 .2.1.2.2v.5s-.1.1-.2.1"/><path id="Fill-421_1_" class="st545" d="M68.4 107.6c-.6 0-1.9-.5-2.2-.9-.3-.4-.1-1.4.2-1.8l.3-.3c.1-.1.2-.2.3-.4 0 0 0-.1.1-.3 0-.1.1-.2.2-.2s.2.1.2.2c0 .2-.1.4-.1.5-.1.2-.2.3-.4.4l-.3.3c-.3.3-.3 1.1-.2 1.3.2.2 1.3.7 1.8.7s1.6-.3 1.8-.4c.1-.2.1-1 0-1.4-.1-.2-.1-.3-.2-.4-.1-.1-.3-.3-.3-.6 0-.1.1-.2.2-.2s.2.1.2.2c0 .2.1.3.2.4.1.1.3.3.3.5.2.5.1 1.4 0 1.7-.1.4-1.8.7-2.1.7z"/><path id="Fill-423_1_" class="st545" d="M65.7 112.6c0 .8.1 1.6.4 2.2.2.5.5.8.8.8.3 0 .5-.3.8-.8.2-.6.4-1.4.4-2.2 0-1.8-.6-3-1.2-3-.6-.1-1.2 1.2-1.2 3zm1.2 3.4c-.4 0-.8-.4-1.1-1.1-.3-.6-.4-1.5-.4-2.4 0-1.9.6-3.5 1.5-3.5s1.5 1.5 1.6 3.4c0 .9-.1 1.7-.4 2.4-.4.8-.8 1.2-1.2 1.2z"/><path id="Fill-425_1_" class="st545" d="M66.1 111.8c-.1 0-.3.4-.3 1.1s.2 1.1.3 1.1c.1 0 .3-.4.3-1.1 0-.7-.2-1.1-.3-1.1zm0 2.7c-.5 0-.8-.8-.8-1.5 0-.4.1-.7.2-1 .2-.4.4-.5.6-.5.5 0 .8.8.8 1.5 0 .4-.1.7-.2 1-.2.4-.4.5-.6.5z"/><path id="Fill-427_1_" class="st545" d="M66.3 109.7c-.1 0-.2-.1-.2-.2s.1-.2.2-.3c0 0 .6-.1 1.2-.1.1 0 .2.1.2.2s-.1.2-.2.2c-.7.1-1.2.2-1.2.2"/><path id="Fill-429_1_" class="st545" d="M67.9 115.2c-.5 0-.9-.1-.9-.1-.1 0-.2-.1-.2-.2s.1-.2.3-.2c0 0 .9.2 1.8 0 .8-.2 1.3-1.1 1.3-2.8v-1.1c0-.1.1-.2.2-.2s.2.1.2.2v1.2c-.1 1.9-.6 2.9-1.7 3.1-.3.1-.6.1-1 .1"/><path id="Fill-431_1_" class="st545" d="M65.4 110.6s-.4-.1-.5-.1c-.7-.2 0-1.7.1-2 .5-.8 1.2-1.4 2.2-1.7.1 0 .3 0 .4.1.1.1 0 .2-.2.3-.9.3-1.5.7-1.9 1.4-.3.6-.4 1.3-.4 1.4.1 0 .4.1.4.1l-.1.5z"/><path id="Fill-433" class="st545" d="M70.1 111.4c-.3 0-.6 0-.7-.1 0-.1-.1-.2-.1-.4-.1-.4-.2-1.1-.5-1.7-.3-.5-.9-1.4-1.8-1-.1 0-.2 0-.3-.1 0-.1 0-.2.1-.3.8-.4 1.6 0 2.3 1.2.3.6.5 1.4.5 1.8v.2c.3 0 1.1 0 1.3-.1 0-.4-.2-2.4-.8-2.9-.1-.1-.1-.2-.1-.3.1-.1.2-.1.3-.1.8.6 1.1 3.1 1 3.5-.1.2-.2.3-.6.3h-.6"/><path id="Fill-435" class="st545" d="M66.5 109.9c-.1 0-.2-.1-.2-.3v-1c0-.1.1-.3.2-.3s.2.1.2.3v1c0 .1-.1.3-.2.3z"/><path id="Fill-437" class="st545" d="M101.8 103.7c-.5 0-1.5-.3-1.8-.7-.3-.4-.2-1.2.1-1.6.1-.1.2-.2.2-.3.1-.1.2-.2.2-.3.1-.1.1-.5 0-.8 0-.1.1-.2.2-.2s.2.1.2.2c0 .2 0 .7-.1 1-.1.1-.2.3-.3.4-.1.1-.1.2-.2.3-.2.3-.2.9-.1 1.1.1.2 1.1.5 1.5.5.4 0 1.3-.3 1.4-.4 0-.2 0-.8-.1-1.2 0-.1-.1-.3-.2-.4-.2-.3-.4-.6-.3-1.1 0-.1.1-.2.2-.2s.2.1.2.2c0 .3.1.6.3.8.1.2.2.3.2.5.2.5.2 1.2.1 1.5 0 .5-1.5.7-1.7.7.1 0 0 0 0 0z"/><path id="Fill-439" class="st545" d="M100.3 107.6c.1 1.5.7 2.6 1.2 2.6.3 0 .5-.3.7-.7.2-.5.3-1.2.3-1.9-.1-1.5-.7-2.6-1.2-2.6-.3 0-.5.3-.7.7-.2.5-.3 1.2-.3 1.9m1.2 3c-.9 0-1.6-1.3-1.6-3 0-.8.1-1.5.3-2.1.3-.6.6-1 1.1-1 .9 0 1.6 1.2 1.7 3 0 .8-.1 1.5-.3 2.1-.3.7-.7 1-1.2 1"/><path id="Fill-441" class="st545" d="M99.6 107.6c0 .7.3 1 .3 1.1 0 0 .2-.4.2-1.1 0-.7-.3-1-.3-1.1 0 0-.2.4-.2 1.1m.3 1.5c-.5 0-.8-.8-.8-1.5s.2-1.5.7-1.6c.2 0 .4.1.6.5.1.3.2.6.2 1 .1.8-.1 1.6-.7 1.6"/><path id="Fill-443" class="st545" d="M100.9 104.4c-.1 0-.2-.1-.2-.2s.1-.2.2-.3c0 0 .5-.1 1.1-.1.1 0 .2.1.2.2s-.1.2-.2.2c-.6.1-1.1.2-1.1.2"/><path id="Fill-445" class="st545" d="M102.2 110.6h-.6c-.1 0-.2-.1-.2-.3 0-.1.1-.2.2-.2 0 0 .7.1 1.4-.1.6-.2 1-1.1 1-2.7v-1.1c0-.1.1-.2.2-.3.1 0 .2.1.2.2 0 .3.1.7.1 1.1 0 1.8-.4 2.9-1.3 3.1-.4.3-.7.3-1 .3"/><path id="Fill-447" class="st545" d="M99.2 106s-.4-.1-.5-.1c-.8-.2-.1-1.4 0-1.6.4-.6 1.2-1.1 2.2-1.4.2 0 .4 0 .4.1.1.1 0 .2-.2.3-.9.2-1.5.6-1.9 1.2-.3.4-.4.9-.3 1.1.1 0 .4.1.4.1l-.1.3z"/><path id="Fill-449" class="st545" d="M102.2 106c-.2 0-.4 0-.5-.1-.1-.1-.1-.2-.1-.3-.1-.3-.2-.9-.5-1.3s-.9-1.1-1.7-.7c-.1 0-.2 0-.3-.1 0-.1 0-.2.1-.3.8-.3 1.6 0 2.3.8.4.5.5 1.1.6 1.4v.1c.3 0 1 0 1.2-.1 0-.3-.3-1.9-.9-2.2-.1-.1-.1-.2-.1-.3.1-.1.2-.1.3-.1.8.5 1.2 2.4 1 2.7-.1.1-.2.2-.6.3.1.2-.4.2-.8.2"/><path id="Fill-451" class="st545" d="M100.3 103.7c-.1 0-.2-.1-.2-.1v-.5c0-.1.1-.2.2-.2s.2.1.2.1v.5c0 .2-.1.2-.2.2"/><path id="Fill-453" class="st545" d="M112.2 116.8c-.6 0-1.3-.2-1.5-.7 0-.1 0-.2.2-.3.1 0 .2 0 .3.2.1.3.8.5 1.3.4.5-.1.7-.2.7-.3 0-.9.2-4.1-.1-7.3-.4-4.8-6.4-10.8-11.6-15.6-6.6-6.1-14.2-13-18.7-12.7-2.9.2-4.1 1-6.8 5.8-2.5 4.5-5.6 11.2-7.3 14.8 0 .1-.2.3-.3.6-.3.7-.9 1.8-1.1 2.3 0 0 0 .1.1.2.4.3 1.4.2 1.6.1.1-.1.2-.2.3-.1.1.1.2.2.1.3-.2.5-1.5.4-2 .2-.6-.3-.5-.7-.5-.8.2-.6.8-1.7 1.1-2.4.1-.3.2-.5.3-.6 1.6-3.6 4.8-10.3 7.3-14.8 2.8-4.9 4.1-5.8 7.1-6 4.8-.4 12 6.3 19.1 12.8 5.6 5.1 11.3 11 11.7 15.9.3 3.2.1 6.5.1 7.4 0 .4-.4.6-1.1.7-.1-.1-.2-.1-.3-.1"/><path id="Fill-455" class="st545" d="M90.1 82.3h-3.8c-.1 0-.2-.1-.2-.3 0-.1.1-.3.2-.3H90c.2-.2 1.1-.9 2.4-1.4 1.5-.6 3.3-1.1 3.4-1.1.1 0 .2.1.3.2 0 .1-.1.3-.2.3 0 0-1.9.5-3.3 1.1-1.4.6-2.3 1.4-2.3 1.4-.1.1-.2.1-.2.1"/><path id="Fill-457" class="st545" d="M80.9 81.5h-3.6c-.1 0-.2-.1-.2-.2l-.3-2.2c0-.1 0-.1.1-.2 0 0 .1-.1.2-.1l5-.2c.1 0 .1 0 .2.1 0 0 .6.8 2.5.8s2.6-.9 2.7-1c0-.1.1-.1.2-.1l3.4-.1c.1 0 .2.1.2.2l.3 2.6c0 .1-.1.2-.2.2s-.2-.1-.2-.2l-.3-2.4-3 .1c-.2.3-1.1 1.1-3 1.1-1.7 0-2.5-.6-2.8-.9l-4.6.2.2 1.7h3.4c.1 0 .2.1.2.2-.2.3-.3.4-.4.4"/><path id="Fill-459" class="st545" d="M92 80.7c-.1 0-.2-.1-.2-.2l-.2-1.7-.8-.7c-.1-.1-.1-.2 0-.3.1-.1.2-.1.3 0l.8.7s.1.1.1.2l.2 1.8c0 .1-.1.2-.2.2"/><path id="Fill-461" class="st545" d="M111.1 115.2c-.1 0-.2-.1-.2-.2 0 0 .1-4-.1-6.7-.3-4.2-4-8.1-9.6-13.5-6.2-6.1-13.3-12.7-17.3-12.9-2.1-.1-3.5 1.4-5.8 5.7-3.1 5.8-7.6 15.9-7.7 16 0 .1-.2.2-.3.1-.1 0-.2-.2-.1-.3 0-.1 4.6-10.3 7.7-16 2.4-4.6 4-6 6.2-6 4.2.2 11.3 6.8 17.7 13 5.7 5.5 9.4 9.5 9.7 13.8.2 2.7.1 6.7.1 6.7-.1.2-.2.3-.3.3"/><path id="Fill-463" class="st545" d="M69.5 106c-.4 0-.9-.2-1.3-.6-.4-.4-.6-.9-.6-1.3 0-.7.5-1 .7-1.2.1-.1.2 0 .3.1 0 .1 0 .3-.1.4-.2.1-.4.4-.5.7 0 .2.1.5.4.8.6.6 1.6.5 1.8.1 0-.1.1-.2 0-.5-.1-.1 0-.3 0-.4.1-.1.2-.1.3.1.3.6.1 1.1 0 1.3-.2.4-.6.5-1 .5"/><path id="Fill-465" class="st545" d="M112.2 120.6c-.6 0-1.9-.4-2.1-.8-.3-.4-.2-1.4.1-1.9.1-.1.2-.2.3-.4.1-.1.2-.2.3-.4v-.2c0-.1.1-.2.2-.2s.2.1.2.2-.1.3-.1.3c-.1.2-.2.3-.3.4l-.3.3c-.3.4-.3 1.2-.1 1.4.2.3 1.3.7 1.9.7.5 0 1.6-.3 1.8-.4.1-.2.1-1-.1-1.5-.1-.2-.1-.3-.3-.4-.1-.1-.3-.3-.3-.6 0-.1.1-.2.2-.2s.2.1.2.2c0 .2.1.3.2.4.1.1.3.3.3.5.2.6.2 1.5.1 1.8-.2.5-1.9.8-2.2.8z"/><path id="Fill-467" class="st545" d="M111.3 121.8c-.3 0-.6.3-.7.9-.2.6-.3 1.4-.3 2.2 0 .8.2 1.6.5 2.2.2.5.5.8.8.8.3 0 .5-.3.7-.9.2-.6.3-1.4.3-2.2 0-.8-.2-1.6-.5-2.2-.3-.5-.5-.8-.8-.8m.2 6.5c-.4 0-.8-.4-1.1-1-.3-.6-.5-1.5-.5-2.4 0-.9.1-1.7.3-2.4.3-.7.6-1.1 1.1-1.1.4 0 .9.3 1.2 1 .3.6.5 1.5.5 2.4 0 .9-.1 1.7-.3 2.4-.4.7-.7 1-1.2 1.1"/><path id="Fill-469" class="st545" d="M110.6 122.5c-.1 0-.3.4-.3 1.1 0 .7.3 1.1.4 1.1.1 0 .3-.4.3-1.1-.1-.7-.3-1-.4-1.1zm.1 2.7c-.5 0-.8-.8-.8-1.5s.2-1.5.7-1.6c.5 0 .8.8.8 1.5 0 .8-.2 1.6-.7 1.6z"/><path id="Fill-471" class="st545" d="M110.8 121.3c-.1 0-.2-.1-.2-.2s.1-.2.2-.3c0 0 .6-.1 1.2-.1.1 0 .2.1.2.2s-.1.2-.2.2h-.1c-.6.1-1 .2-1.1.2"/><g id="Group-475" transform="translate(97.639 139.361)"><defs><filter id="Adobe_OpacityMaskFilter_265_" filterUnits="userSpaceOnUse" x="13.4" y="-16.2" width="3.8" height="5"><feColorMatrix values="1 0 0 0 0 0 1 0 0 0 0 0 1 0 0 0 0 0 1 0"/></filter></defs><mask maskUnits="userSpaceOnUse" x="13.4" y="-16.2" width="3.8" height="5" id="mask-4_1_"><g filter="url(#Adobe_OpacityMaskFilter_265_)"><path id="path-3_1_" class="st3" d="M13.4-16.2h3.8v5h-3.8z"/></g></mask><path id="Fill-473" d="M14.7-11.2c-.6 0-1.1-.1-1.1-.1-.1 0-.2-.1-.2-.3 0-.1.1-.2.3-.2 0 0 1.1.3 2 0 .7-.2 1.1-1.2 1.1-3V-16c0-.1.1-.2.2-.2s.2.1.2.2c0 .4.1.8.1 1.2 0 2-.5 3.2-1.4 3.4-.5.2-.9.2-1.2.2" mask="url(#mask-4_1_)" fill-rule="evenodd" clip-rule="evenodd" fill="#365555"/></g><path id="Fill-476" class="st545" d="M109.2 123.7s-.4-.1-.5-.1c-.7-.2-.1-1.7.1-2 .5-.8 1.2-1.4 2.2-1.7.2 0 .3 0 .4.1.1.1 0 .2-.2.3-.9.3-1.5.8-1.9 1.5-.3.6-.4 1.3-.3 1.4.1 0 .4.1.4.1l-.2.4z"/><path id="Fill-478" class="st545" d="M113 123.7c-.2 0-.5 0-.5-.1s-.1-.2-.1-.4c-.1-.4-.2-1.1-.5-1.7-.3-.5-1-1.4-1.8-.9-.1 0-.2 0-.2-.1s0-.2.1-.3c.8-.4 1.6 0 2.2 1.1.4.6.5 1.4.6 1.8v.2c.3 0 1.1 0 1.3-.1 0-.4-.3-2.4-.9-2.8-.1-.1-.1-.2-.1-.3.1-.1.2-.1.3-.1.8.6 1.1 3.1 1 3.4-.1.2-.2.3-.6.3.1-.1-.4 0-.8 0"/><path id="Fill-480" class="st545" d="M111 121.4c-.1 0-.2-.1-.2-.3v-1c0-.1.1-.3.2-.3s.2.1.2.3v1c.1.1 0 .3-.2.3"/><path id="Fill-482" class="st545" d="M112.7 117.5c-.4 0-.8-.1-1.1-.2-.8-.3-1-.6-1-.8 0-.2.2-.5.6-.6.1 0 .2 0 .3.1 0 .1 0 .2-.1.2-.2.1-.3.2-.3.3 0 .1.1.3.7.5.8.3 2.1.1 2.3-.2.1-.1-.1-.3-.2-.4-.1-.1-.1-.2 0-.2.1-.1.2-.1.3 0 .5.4.5.7.3.8-.3.4-1.1.5-1.8.5"/><path id="Fill-484" class="st545" d="M130.8 112.9c-.5 0-1.1-.2-1.2-.7 0-.1.1-.2.2-.3.1 0 .2.1.2.2.1.3.5.4.9.4s.7-.2.7-.3c.1-3.1.1-5.6 0-7.6-.2-4.8-4.8-12-8.3-17.1l-.3-.5c-2.7-3.9-4.8-7-7-9-.1-.1-.1-.2 0-.3.1-.1.2-.1.3 0 2.2 2 4.4 5.1 7 9l.3.4c3.8 5.5 8.1 12.5 8.4 17.3.1 2.1.1 4.6 0 7.7 0 .5-.6.7-1.1.7 0 .1 0 .1-.1.1"/><path id="Fill-486" class="st545" d="M103.1 94.5c-.2 0-.2-.2-.2-.3.8-3.5 2.1-8.5 3.1-12.2.4-1.5.8-2.6 1.1-3.5 0-.1.2-.2.3-.1.1.1.1.2.1.3-.3.9-.7 1.9-1.1 3.4-1 3.6-2.3 8.6-3.1 12.2 0 .2-.1.2-.2.2"/><path id="Fill-488" class="st545" d="M102.3 99.9h-.3c-.4-.1-.7-.5-.6-.9.1-.6.4-1.6.5-2.2.1-.2.1-.4.1-.5 0-.1.1-.2.2-.1.1 0 .2.1.1.3 0 .1-.1.3-.1.5-.2.6-.4 1.6-.5 2.2 0 .3.1.4.3.4.3.1.5 0 .5-.1s.1-.2.2-.1c.1 0 .2.1.1.3.1.1-.2.2-.5.2"/><path id="Fill-490" class="st545" d="M129.4 111.4c-.1 0-.2-.1-.2-.2 0 0 .1-3.8 0-6.5 0-.1.1-.2.2-.2s.2.1.2.2c.1 2.7 0 6.5 0 6.5.1.1 0 .2-.2.2"/><path id="Fill-492" class="st545" d="M129.6 103.7c-.1 0-.2-.1-.2-.2-.8-3.6-3-7.2-6.1-11.8-3.5-5.3-7.4-11.3-10.2-12.9-.1-.1-.1-.2-.1-.3.1-.1.2-.1.3-.1 2.9 1.6 6.9 7.7 10.4 13 3.1 4.7 5.4 8.3 6.2 12-.1.2-.1.3-.3.3"/><path id="Fill-494" class="st545" d="M103.9 94.5c-.2 0-.2-.2-.2-.3 1-3.5 2.3-7.5 3.2-10.2 1-3 1.8-4.6 2.5-5.5.1-.1.2-.1.3 0 .1.1.1.2 0 .3-.7.8-1.5 2.5-2.4 5.4-.9 2.7-2.2 6.7-3.2 10.2 0 .1-.1.1-.2.1"/><path id="Fill-496" class="st545" d="M103.1 99.9c-.1 0-.2-.2-.2-.3l.5-2.6c0-.1.1-.2.2-.2s.1.2.1.3l-.5 2.6c0 .1 0 .2-.1.2"/><path id="Fill-498" class="st545" d="M101.7 99.9c-.6 0-1.3-.2-1.6-.5-.3-.3-.2-.6-.1-.7.1-.2.4-.4.7-.4.1 0 .2.1.3.2 0 .1-.1.2-.2.2s-.2.1-.3.1c-.1.1 0 .2.1.3.3.4 1.5.4 1.9.2.1 0 .3-.2-.1-.5-.1-.1-.1-.2 0-.3.1-.1.3 0 .3 0 .6.6.1.9 0 1-.3.3-.7.4-1 .4"/><path id="Fill-500" class="st545" d="M130.6 113.7h-.1c-.7 0-1.2-.3-1.4-.6-.1-.2-.1-.5.3-.8.1-.1.2-.1.3 0 .1.1.1.2 0 .3-.1.1-.3.3-.2.5.1.2.5.4 1 .4.6 0 1.1-.2 1.2-.3.1-.1-.1-.3-.2-.3-.1-.1-.1-.2 0-.3.1-.1.2-.1.3 0 .4.3.4.6.3.7-.2.2-.9.4-1.5.4"/><path id="Fill-502" class="st545" d="M130.6 116.8c-.6 0-1.8-.4-2.1-.9-.3-.4-.2-1.5.1-2 .1-.1.2-.3.3-.4.1-.1.2-.3.3-.4v-.1c0-.1.1-.2.3-.2.1 0 .2.2.2.3 0 .1 0 .1-.1.2-.1.2-.2.3-.3.5l-.3.3c-.2.4-.3 1.2-.1 1.4.2.3 1.3.7 1.8.7s1.6-.3 1.8-.5c.1-.3.1-1-.1-1.5-.1-.2-.1-.3-.3-.4-.1-.2-.3-.3-.3-.6 0-.1.1-.2.2-.3.1 0 .2.1.2.2 0 .2.1.3.2.4.1.1.3.3.3.6.2.6.2 1.5.1 1.9-.1.5-1.9.7-2.2.8.1 0 0 0 0 0z"/><path id="Fill-504" class="st545" d="M127.9 120.3c.1 1.8.7 3 1.2 3 .3 0 .5-.3.7-.8.2-.6.3-1.4.3-2.2 0-.8-.2-1.6-.4-2.2-.2-.5-.5-.8-.8-.8-.3 0-.5.3-.7.8-.2.6-.3 1.3-.3 2.2m1.3 3.4c-.8 0-1.6-1.5-1.6-3.4 0-.9.1-1.7.3-2.4.3-.7.6-1.1 1.1-1.1.5 0 .9.3 1.2 1 .3.6.5 1.5.5 2.4 0 .9-.1 1.7-.3 2.4-.4.6-.8 1-1.2 1.1"/><path id="Fill-506" class="st545" d="M128.8 120.6c0 .7.3 1.1.4 1.1.1 0 .3-.4.2-1.1 0-.7-.3-1.1-.4-1.1-.1 0-.3.4-.2 1.1zm.3 1.5c-.5 0-.8-.8-.8-1.5s.2-1.5.7-1.6c.5 0 .8.8.8 1.5 0 .4 0 .7-.1 1-.2.5-.4.6-.6.6z"/><path id="Fill-508" class="st545" d="M129.3 117.4c-.1 0-.2-.1-.2-.2s.1-.2.2-.3c0 0 .6-.1 1.2-.1.1 0 .2.1.2.2s-.1.2-.2.2c-.7.1-1.2.2-1.2.2"/><path id="Fill-510" class="st545" d="M130.4 123.7c-.6 0-1.1-.1-1.1-.1-.1 0-.2-.1-.2-.3 0-.1.2-.2.3-.2 0 0 1.1.2 2 0 .7-.2 1-1.1 1.1-2.8 0-.4 0-.7-.1-1.1 0-.1.1-.2.2-.2s.2.1.3.2c0 .3.1.7.1 1.1 0 1.9-.5 2.9-1.4 3.2-.5.1-.9.2-1.2.2"/><path id="Fill-512" class="st545" d="M126.9 119.1s-.4-.1-.5-.1c-.7-.2-.1-1.7 0-2 .5-.8 1.2-1.4 2.2-1.7.2 0 .3 0 .4.1.1.1 0 .2-.2.3-.9.3-1.5.8-1.9 1.5-.3.6-.4 1.2-.3 1.4.1 0 .4.1.4.1l-.1.4z"/><path id="Fill-514" class="st545" d="M131.4 119.1c-.2 0-.5 0-.5-.1-.1-.1-.1-.2-.1-.4-.1-.4-.2-1.1-.5-1.6s-1-1.4-1.8-.9c-.1.1-.2 0-.3-.1 0-.1 0-.3.1-.3.8-.4 1.6 0 2.2 1.1.4.6.5 1.4.6 1.8v.2c.3 0 1.1 0 1.3-.1 0-.4-.3-2.4-.9-2.8-.1-.1-.1-.2-.1-.3.1-.1.2-.1.3-.1.8.6 1.1 3 1 3.4-.1.2-.2.3-.6.3.2-.2-.3-.1-.7-.1"/><path id="Fill-516" class="st545" d="M128.7 117.5c-.1 0-.2-.1-.2-.3v-1c0-.2.1-.3.2-.3s.2.1.2.3v1c0 .2-.1.3-.2.3"/><path id="Fill-518" class="st545" d="M113.9 106.8c-.1 0-.2-.1-.2-.2s0-.2.2-.3l15.7-4.2c.1 0 .2 0 .3.2 0 .1 0 .2-.2.3l-15.8 4.2"/><path id="Fill-520" class="st545" d="M113.9 109.9c-.1 0-.2-.1-.2-.2s0-.2.2-.3l15.8-4.2h.1c.1 0 .2 0 .3-.1.2-.2.2-.6.1-1-.1-.3-.1-.6-.2-.6s-.2-.1-.4 0c-.1 0-.2-.1-.3-.2 0-.1 0-.2.2-.3.2-.1.5-.1.8.1.2.2.4.4.4.9.1.6 0 1.1-.2 1.4-.1.2-.3.3-.6.3l-16 4.2c.1 0 0 0 0 0"/><path id="Fill-522" class="st545" d="M57.4 43.2c-2.2 0-11.3-3.2-15.1-8.9-.1-.1 0-.2.1-.3.1-.1.2 0 .3.1 3.7 5.5 12.6 8.7 14.7 8.7.1 0 .2.1.2.2s-.1.2-.2.2"/><path id="Fill-524" class="st545" d="M51.3 43.2c-3.9-.3-7.7-2-9.7-4.2-.1-.1-.1-.2 0-.3.1-.1.2-.1.3 0 1.9 2.1 5.7 3.7 9.4 4.1.1 0 .2.1.2.3 0 0-.1.1-.2.1"/><path id="Fill-526" class="st545" d="M96.3 18.6h-.1c-.1-.1-.1-.2 0-.3l2.6-3.4c.1-.1.2-.1.3 0 .1.1.1.2 0 .3l-2.6 3.4h-.2"/><path id="Fill-528" class="st545" d="M98.5 19.4c-.1 0-.1 0-.2-.1s0-.2.1-.3l4.2-2.6c.1-.1.2 0 .3.1.1.1 0 .2-.1.3l-4.3 2.6c.1 0 .1 0 0 0"/><path id="Fill-530" class="st545" d="M100.1 21.7c-.1 0-.2-.1-.2-.2 0-.2 0-.3.1-.3l2.7-1c.1 0 .2.1.2.2 0 .2 0 .3-.1.3l-2.7 1"/><path id="Fill-532" class="st545" d="M94.8 17.1h-.1c-.1-.1-.2-.2-.1-.4l1-2.5c.1-.1.2-.2.4-.2.1.1.2.2.1.4l-1 2.5c-.1.1-.2.2-.3.2"/><path id="Fill-534" class="st545" d="M95.4 27.1c-.1-.1-.2-.2-.1-.3.1-.1.2-.4.6-.4.1 0 .1.1.1.2s-.1.2-.1.2c-.2 0-.3.2-.4.3 0-.1 0 0-.1 0"/><path id="Fill-536" class="st545" d="M91.7 27.8c-.1 0-.1 0-.2-.1s0-.2.1-.3c.2-.1.7-.4 1.3-.3.1 0 .2.2.2.3 0 .1-.2.2-.3.2-.4-.1-.8.1-.9.2h-.2"/><g id="Group-540" transform="translate(0 99.889)"><defs><filter id="Adobe_OpacityMaskFilter_266_" filterUnits="userSpaceOnUse" x="17.7" y="-14.5" width="46.3" height="6.6"><feColorMatrix values="1 0 0 0 0 0 1 0 0 0 0 0 1 0 0 0 0 0 1 0"/></filter></defs><mask maskUnits="userSpaceOnUse" x="17.7" y="-14.5" width="46.3" height="6.6" id="mask-6_1_"><g filter="url(#Adobe_OpacityMaskFilter_266_)"><path id="path-5_1_" class="st3" d="M17.7-14.5H64v6.6H17.7z"/></g></mask><path id="Fill-538" d="M64-7.9l-3.9-.5L17.9-14c-.1 0-.2-.1-.2-.2s.1-.2.3-.2l46 6v.5z" mask="url(#mask-6_1_)" fill-rule="evenodd" clip-rule="evenodd" fill="#365555"/></g><path id="Fill-541" class="st545" d="M101.2 97.6l-25.7-3.4c-.1 0-.2-.1-.2-.2s.1-.2.3-.2h.2l25.4 3.4c.1 0 .2.1.2.2s-.1.2-.2.2"/><path id="Fill-543" class="st545" d="M127.3 101.4l-18.8-2.6c-.1 0-.2-.1-.2-.3 0-.1.1-.2.2-.2l18.8 2.6c.1 0 .2.1.2.3 0 .2-.1.2-.2.2"/><path id="Fill-545" class="st545" d="M172.6 106.8l-40.3-5.7c-.1 0-.2-.1-.2-.3 0-.1.1-.2.2-.2l40.3 5.7c.1 0 .2.1.2.3 0 .1-.1.2-.2.2"/></g></svg>