<?xml version="1.0" encoding="UTF-8"?> <svg xmlns="http://www.w3.org/2000/svg" version="1.1" id="Layer_1" x="0" y="0" viewBox="0 0 770.4 186.2" xml:space="preserve"><style>.st0{fill:#c80236}</style><path class="st0" d="M0 85.2C0 38.2 38.1 0 85.2 0s85.2 38.1 85.2 85.2c0 21.8-8.2 41.7-21.7 56.8l27.3 30.4c-.2.4-15.2 13.8-15.2 13.8l-27.5-30.6c-13.7 9.3-30.2 14.8-48 14.8C38.1 170.4 0 132.2 0 85.2zm85.2 64.3c12.3 0 23.7-4.7 33.4-10.7l-32.7-35.7 15.2-13.8 32.9 35.9c9.2-11 13.4-24.6 13.4-40 0-35.1-27.2-64.3-62.4-64.3-35.1 0-62.4 29.1-62.4 64.3.2 35.1 27.4 64.3 62.6 64.3zM266.8 146.6h-21.4v-11.8h-.3c-6.9 8.4-16.7 13.8-28.5 13.8-20.6 0-29.5-14.5-29.5-34.1V59.7h22.6v46.4c0 10.6.2 25 14.7 25 16.4 0 19.9-17.7 19.9-28.9V59.7h22.6v86.9h-.1zM327.4 57.7c25.8 0 45.6 17.4 45.6 46.1 0 25-16.7 44.9-45.6 44.9-28.7 0-45.4-19.9-45.4-44.9 0-28.7 19.7-46.1 45.4-46.1zm0 73.4c17.4 0 21.9-15.5 21.9-30 0-13.3-7.1-25.8-21.9-25.8-14.7 0-21.8 12.8-21.8 25.8 0 14.3 4.5 30 21.8 30zM432.3 57.7c25.8 0 45.6 17.4 45.6 46.1 0 25-16.7 44.9-45.6 44.9-28.7 0-45.4-19.9-45.4-44.9 0-28.7 19.8-46.1 45.4-46.1zm0 73.4c17.4 0 21.9-15.5 21.9-30 0-13.3-7.1-25.8-21.9-25.8-14.7 0-21.8 12.8-21.8 25.8.1 14.3 4.6 30 21.8 30zM494.2 20.1h22.6v74.4h.3l27-34.8h26.7l-32.4 38.9 36.4 48.1h-28.7l-29-42.2h-.3v42.2h-22.6V20.1zM652 141.7c-8.3 4.6-17.7 6.9-29.9 6.9-28.7 0-45.4-16.5-45.4-45 0-25.1 13.3-45.9 40.3-45.9 32.2 0 41.3 22.1 41.3 52.5h-59.9c1 14 10.8 21.9 24.8 21.9 11 0 20.4-4 28.9-8.8l-.1 18.4zm-15.2-47c-.7-11-5.7-20.4-18.4-20.4s-19.1 8.8-20.1 20.4h38.5zM673.4 59.7h20.1v19.7h.3c1-8.1 17.7-21.7 31.2-21.7 7.6 0 9.7 1.6 12.1 2.3v20.9c-2-1.2-7.3-3.6-16.3-3.5-24.2.3-24.7 24.9-24.7 37.3v31.9h-22.7V59.7zM749.5 68.4c0-5.9 4.8-10.3 10.5-10.3 5.6 0 10.4 4.4 10.4 10.3 0 6-4.8 10.3-10.4 10.3-5.7 0-10.5-4.3-10.5-10.3zm10.4 8.6c4.7 0 8.3-3.6 8.3-8.6 0-4.9-3.7-8.5-8.3-8.5-4.7 0-8.4 3.7-8.4 8.5 0 5 3.7 8.6 8.4 8.6zm-2.2-2.6h-1.8V62.5h4.5c2.8 0 4.2 1 4.2 3.4 0 2.1-1.3 3-3.1 3.3l3.4 5.2h-2l-3.1-5.1h-2.1v5.1zm2.2-6.7c1.5 0 2.9-.1 2.9-1.9 0-1.5-1.3-1.7-2.6-1.7h-2.4v3.7l2.1-.1z"></path></svg> 