<svg width="177" height="162" xmlns="http://www.w3.org/2000/svg" xmlns:xlink="http://www.w3.org/1999/xlink"><defs><path id="a" d="M0 .312h38.613v67.2H0z"/><path id="c" d="M.299.492h88.633v14.026H.299z"/><path id="e" d="M.029.332H5.92v1.509H.03z"/></defs><g fill="none" fill-rule="evenodd"><path d="M50.793 66.71l15.578-10.926 4.632 4.317 5.42 14.976L97.79 99.166l5.474 36.346s1.842-.159 3.105-.533c1.263-.372 2-1.065 2-1.065l5.631 8.42s-1.421 3.411-3.21 4.637c-1.421.96-5.526 4.05-8.58 5.329-2.42 1.013-4.104.373-4.104.373l-14.894 9.274-4.684.053-3.526-7.408-6.841-.533-2.685 7.782-5.157-.16-32.63-30.858-1.157-8.42s-8.526 7.727-15.631 10.179c-3.947 1.332-7.79-1.066-8.684-2.133-1.157-1.278-1.526-5.808-.947-10.711.947-7.942 4-18.388 7.473-29.26 3-9.379 5.421-19.398 9.79-23.982C23.952 60.9 41.32 55.73 41.32 55.73L44.11 52l6.683 14.71z" fill="#002F57"/><path d="M50 66.37L69.746 66s3.97 15.57 6.06 39.267c2.037 23.75 2.194 55.68 2.194 55.68L65.097 161s-.784-33.039-4.597-56.683C56.74 80.672 50 66.37 50 66.37" fill="#FFF"/><path d="M67 59s4.615 3.524 11.161 7.363c1.664.947 4.132 1.841 5.85 2.84 2.575 1.473 6.6 2.999 9.068 4.103 1.395.631 1.77.631 2.468 1.63 1.234 1.684 1.395 4.313 1.449 6.838.054 3.471-.43 7.258-.644 12.833-.429 11.256.108 25.877.108 25.877l-.43 12.203.644 28.506s-1.824.579-5.85.737c-3.97.158-10.087 0-10.087 0l-.966-37.922s-1.02-22.353-4.239-38.605c-1.61-8.047-2.898-14.359-4.615-19.145C69.2 61.262 67 59 67 59M13.095 62.126c2.044-1.006 12.476-2.966 18.123-4.555 3.226-.9 6.345-3.707 8.926-2.066 1.452.9 4.302 6.144 6.13 10.063 2.582 5.614 4.84 11.122 6.077 16.154 1.829 7.415 2.151 9.268 2.151 9.268s3.012 8.156 4.356 25.21c1.345 17.054 1.13 44.753 1.13 44.753s-3.066.106-13.068 0c-10.002-.106-26.888-2.277-26.888-2.277s.915-4.45.538-12.235c-.376-7.838-2.097-19.013-2.097-19.013l6.83-5.455 1.182 7.574s2.205-.9 3.496-4.29c1.29-3.39 1.667-9.375 1.667-9.375l6.399-6.726s.753-.37 1.13-1.377c.376-1.007.322-2.7.322-2.7l-2.097-13.56s-.377-.529-2.151.53c-1.775 1.06-4.893 3.708-4.893 3.708s-1.13-9.48-4.141-17.055c-2.958-7.573-7.798-13.134-7.798-13.134s-1.667.265-3.657 4.131c-1.828 3.496-4.194 9.586-4.194 9.586s-1.936-6.143-1.506-10.592c.377-3.866 3.012-6.09 4.033-6.567" fill="#FA9700"/><path d="M35.246 12.454s-1.595-.21 2.339-4.365C40.19 5.355 46.144 1.57 50.13.623c4.465-1.052 9.569-.737 13.025.683 2.817 1.157 4.518 3.365 4.518 3.365s1.755.737 3.403 2.893c1.648 2.155 3.243 5.784 3.243 5.784s4.572 3.89 4.678 7.361c.106 2.945-3.987 4.312-3.987 4.312l-22.435-1.893S44.23 46.422 39.924 43.793c-.692-.42-2.977-2.104-3.456-3.523a86.094 86.094 0 01-.797-2.419s-3.562-6.205-3.669-12.515c-.106-7.782 3.244-12.882 3.244-12.882" fill="#FFD972"/><path d="M43.168 18.568c1.448-1.3 4.705-3.329 8.633-4.472 3.205-.937 6.772-1.04 10.34-1.093 5.117-.104 11.476 2.392 11.476 2.392s2.222 5.513 1.033 9.414c-.982 3.224-4.187 3.9-4.187 3.9s-5.997-13.262-13.75-10.401c-5.584 2.028-6.773 20.23-10.288 25.378-.31.469-1.344 6.293-2.533 9.101-.258.676-2.636 2.809-2.636 2.809s.103-.156-1.034-.156C37.844 55.492 35 57 35 57s-.052-1.196.879-2.497c.671-.936 2.015-1.976 2.584-3.172.879-1.768 1.086-4.16 1.654-5.772.724-2.08 1.654-3.12 1.654-3.12s-1.912-1.769-2.326-2.497c-.982-1.612-2.843-6.917-2.843-6.917s2.223-10.557 6.565-14.457" fill="#D5A175"/><path d="M40.56 33.873c.363-.523 1.4-1.255 2.073-1.203.933.053 1.866 1.203 2.28.157.415-1.046.83-4.288 2.748-6.014 1.244-1.098 3.68-2.824 4.77-4.027 2.124-2.248 1.969-3.295 4.56-4.183 4.51-1.57 9.227.209 10.782 2.092.83.993 1.917 2.457 2.488 4.863.985 4.393.933 10.669.155 14.643-1.451 7.74-5.909 10.93-5.909 10.93s-.052 2.458.57 4.445c.57 1.988 1.762 3.504 1.762 3.504s.778.994 1.504 2.93c.726 1.934 1.451 4.758 1.451 4.758s-1.503 2.772-6.272 3.19c-5.442.418-12.906-2.406-12.906-2.406s-.934-2.615-2.644-5.753c-1.71-3.085-4.25-6.641-4.25-6.641s.466-1.15.726-3.347c.31-2.563.31-6.485-.311-9.57-.312-1.57-1.452-1.465-2.488-2.563-1.297-1.464-2.333-4.027-1.09-5.805M64.263 78.806s1.978-.7 4.117-1.506c1.444-.538 3.048-1.398 3.69-1.29.641.107.908.752.534 1.774-.32 1.022-1.87 2.366-1.87 2.366s2.726.969 5.774 1.883c2.566.753 5.4 1.452 6.737 2.258.534.323.802 1.453.748 1.668-.16.377-1.657.753-3.635.592-2.941-.215-6.952-1.184-9.465-1.453-1.443-.161-2.031.216-2.031.216s2.352 2.15 2.406 3.926c.053 1.829-2.086 3.281-2.086 3.281s.482 1.344-.214 2.42c-.694 1.022-2.62 1.721-2.62 1.721s.214 3.12-2.299 2.15c-1.176-.429-3.048-1.235-4.545-1.343-2.245-.215-4.385 1.075-6.737 1.775-1.925.537-4.064.483-5.614.967-2.78.861-4.438 3.174-5.989 4.787-2.673 2.797-4.063 5.002-4.063 5.002s-2.193-2.958-2.942-7.583c-.588-3.657.642-6.992.642-6.992s2.139-1.721 5.56-4.088c4.065-2.796 9.626-6.454 12.566-8.605 2.567-1.882 4.385-3.012 6.15-3.55 3.047-.86 5.186-.376 5.186-.376" fill="#FFEDDE"/><path d="M29 86.895s4.391-.105 8.892-.474C42.717 86 47 86 47 86l-9 5.631-1.735.211L30.681 96 29 86.895zM46.676 98.79c1.007-.316 2.383-.369 3.389-.369C53.718 98.263 55.253 97 55.253 97L57 106.158s-4.5-.052-9 .158-9 .684-9 .684l.212-1.63c-.106-.054 3.018-5.106 7.464-6.58M77 87l21 .986L97.398 106l-17.992-.311z" fill="#D4DAE0"/><path d="M121.445 69.415s.422-.945.949-1.26c.526-.315 1.105-.052 1.105-.052l41.506 11.394s.58.21.842.683c.264.472.106 1.207.106 1.207l-10.27 45.211-.528.63-.421.946-13.537 2.835L110.964 135l-43.033-6.511s-.737-.106-.896-.473c-.158-.368.264-.998.264-.998l43.138-8.454v-.945l11.008-48.204z" fill="#8E949B"/><path d="M106.183 135.831s.962.053 2.673-1.642c.481-.477.856-2.225 1.55-2.754.749-.636 2.566-1.8 3.315-2.384 2.191-1.8 4.223-3.919 6.149-3.919.801 0 1.336.742.32 1.907-1.07 1.271-3.743 3.019-3.208 3.708.855 1.111 6.255-1.908 7.966-4.131 1.604-2.066 2.352-4.344 4.17-5.403 1.016-.582 1.818-.212 1.818-.212s2.887-4.396 3.957-3.972c.266.106.534.953.374 2.012-.482 3.02-2.674 8.528-2.674 8.528s1.123-1.218 2.192-3.284c1.23-2.278 2.513-5.562 3.636-6.832.802-.953 1.23 0 1.39.159.267.264.107 2.17-.374 3.866-1.123 3.92-3.582 9.269-3.582 9.269s3.261-.848 4.918-.424c.588.159 1.444 1.324 1.177 1.589-.268.265-1.498.794-2.674 1.112-.427.106-2.887 1.324-3.368 1.377-2.673.159-3.475.159-3.475.159l-3.422 1.694s-1.764.53-4.758 1.219c-1.818.423-4.65.635-6.63 1.854L106.184 146s-1.284-1.96-1.177-4.555c.268-3.549 1.177-5.614 1.177-5.614" fill="#FFEDDE"/><path d="M154.228 126c-.315 0-.525-.053-.577-.053l-15.22-2.993c-.157-.053-.262-.21-.21-.368.053-.158.21-.263.368-.21l15.22 2.994c.157.052.682.105.944-.053.263-.105.472-.473.472-.578l10.13-44.958c.052-.21.156-.84-.053-1.208-.158-.315-.63-.472-.84-.525L123.58 66.651c-.263-.105-.945-.21-1.313 0-.367.21-.576.893-.629 1.103l-10.916 48.057c-.053.157-.158.578 0 .84.157.263.735.42.892.473l16.48 3.256c.157.053.262.21.21.368-.053.157-.21.263-.368.21l-.945-.21-15.534-3.046c-.105 0-.945-.21-1.26-.736-.368-.525-.105-1.26-.105-1.313l10.916-48.004c0-.105.263-1.103.945-1.471.682-.367 1.68-.053 1.784-.053l40.883 11.398s.84.21 1.207.84c.315.578.105 1.523.105 1.628l-10.129 45.011c-.052.105-.262.683-.786.945-.315 0-.578.053-.788.053M134.576 124h-.069l-1.218-.21c-.204-.07-.34-.28-.271-.491.067-.21.27-.35.473-.28l1.22.21c.204.07.34.28.271.49-.067.14-.203.281-.406.281M109.164 135l-.368-.054-40.088-6.03c-.315-.054-1.312-.216-1.574-.76-.368-.76.104-1.303.42-1.466.052 0 .052-.054.104-.054l40.77-8.42c.053 0 .998-.216 1.942-.216h.368c.158 0 .262.162.262.326 0 .162-.157.271-.315.271h-.315c-.839-.054-1.836.217-1.836.217l-40.718 8.365c-.105.108-.315.271-.158.652.105.163.63.38 1.102.434l40.404 6.083c.157 0 .262.163.262.326.053.217-.105.326-.262.326M140.279 130.94a.256.256 0 01-.265-.247.36.36 0 01.212-.43l13.899-3.257s.16-.06.265-.307c.053-.123.053-.184 0-.246-.053-.184 0-.369.16-.43.158-.061.318 0 .37.185a.894.894 0 010 .738c-.159.49-.477.736-.689.798L140.28 131c.053-.06 0-.06 0-.06" fill="#2F3541"/><path d="M106.278 136c-.106 0-.264-.051-.264-.204-.053-.152.053-.305.21-.356 2.534-.814 2.746-1.628 2.957-2.543.105-.408.211-.865.58-1.273.634-.763 1.531-1.322 2.428-1.83.686-.407 1.373-.815 1.9-1.323 1.9-1.832 4.592-3.918 6.334-3.257.423.153.58.408.58.611.16.763-.79 1.73-2.216 3.103-.686.662-1.531 1.425-1.584 1.73v.203c.106.102.687.153 4.065-1.526 2.48-1.271 3.325-2.594 4.275-4.019.317-.509.633-1.017 1.056-1.577 1.425-1.831 2.533-3.103 3.906-2.645.21.05.37.203.422.407.317.763-.422 2.39-1.689 4.985-.211.458-.475.916-.686 1.374-.159.305-.264.61-.423.865-.897 1.984-1.214 2.645-3.166 3.917-.159.102-.318.051-.423-.102-.105-.152-.052-.305.105-.406 1.848-1.171 2.112-1.781 2.956-3.663.106-.255.264-.56.423-.865.21-.458.422-.916.686-1.374.845-1.78 1.953-3.968 1.689-4.528 0-.05-.053-.05-.053-.05-.897-.306-1.794.61-3.22 2.442-.422.508-.738 1.017-1.055 1.526-.898 1.424-1.847 2.9-4.486 4.222-2.904 1.475-4.17 1.882-4.699 1.475-.157-.102-.316-.305-.21-.763.105-.458.739-1.068 1.741-2.035.845-.814 2.165-2.035 2.06-2.543 0-.051 0-.102-.212-.204-1.108-.407-3.22.712-5.7 3.154-.581.56-1.32.967-2.006 1.374-.845.508-1.69.967-2.27 1.679-.264.305-.37.661-.475 1.068-.264.967-.528 2.035-3.325 2.951-.106-.051-.159 0-.211 0" fill="#2F3541"/><path d="M128.266 134.946c-.099 0-.148-.054-.197-.108a.304.304 0 01.049-.433c2.365-2.27 2.809-3.784 3.646-6.65l.246-.81c.148-.542.345-1.082.543-1.73a106.992 106.992 0 001.577-5.245c.393-1.406.295-2.217.049-2.38-.198-.108-.542 0-.936.379-1.233 1.082-2.366 3.893-2.366 3.893-.049.162-.246.216-.345.162-.147-.054-.197-.27-.147-.378.049-.108 1.231-2.974 2.562-4.11.838-.756 1.38-.54 1.576-.378.543.378.641 1.514.198 3.082-.493 1.838-1.084 3.73-1.577 5.299-.197.649-.394 1.243-.542 1.73l-.247.81c-.837 2.812-1.33 4.542-3.793 6.921-.148-.108-.198-.054-.296-.054" fill="#2F3541"/><path d="M130.275 136c-.102 0-.153-.053-.204-.106a.29.29 0 01.05-.426c.306-.265.663-.584.969-.85 1.63-1.382 3.159-2.711 4.23-5.315 1.324-3.19 2.394-6.166 2.75-7.76.612-2.87.408-3.615.153-3.827-.102-.107-.357-.107-.662 0-.51.212-1.529 2.551-2.344 4.464-1.12 2.605-2.242 5.262-3.312 6.112-.102.107-.306.054-.408-.053-.101-.105-.05-.319.051-.424.968-.745 2.14-3.455 3.16-5.9 1.171-2.764 1.936-4.518 2.649-4.784.51-.212.968-.16 1.223.106.56.532.56 1.807 0 4.412-.357 1.647-1.427 4.678-2.752 7.866-1.12 2.712-2.7 4.093-4.381 5.528a87.63 87.63 0 00-.969.85c-.05.107-.102.107-.203.107" fill="#2F3541"/><path d="M106.286 146a.293.293 0 01-.266-.156c-.053-.155 0-.312.159-.364 2.87-1.142 5.53-2.909 7.656-4.259 1.33-.883 2.499-1.61 3.456-2.078 1.595-.779 3.881-1.299 6.327-1.818 2.87-.623 5.795-1.299 7.496-2.39 1.17-.727 2.126-.727 3.084-.675.957.052 1.966.052 3.242-.727 1.064-.675 2.074-.935 2.818-1.195.532-.155 1.063-.312 1.116-.519 0-.052.054-.208-.212-.572-.744-1.194-4.147-.519-5.37-.103-.16.052-.319-.052-.372-.208-.053-.156.053-.312.213-.364.478-.155 4.944-1.402 6.06.364.266.467.373.779.266 1.09-.159.468-.744.624-1.488.832-.744.207-1.701.52-2.712 1.09-1.435.884-2.604.831-3.561.78-.958-.052-1.755-.052-2.765.572-1.808 1.142-4.785 1.817-7.709 2.492-2.392.52-4.678 1.04-6.167 1.767-.958.468-2.074 1.194-3.403 2.078-2.18 1.402-4.838 3.169-7.762 4.363h-.106zM98.122 153c-.316 0-.633-.056-.897-.111-.159-.056-.264-.222-.211-.389.052-.166.211-.277.37-.221 3.694.832 11.083-5.163 11.136-5.218.106-.112.317-.056.422.055.106.112.053.333-.052.444-.317.222-6.651 5.44-10.768 5.44" fill="#2F3541"/><path d="M97.5 161c-.25 0-.5-.157-.5-.314 0-2.769-.25-8.517-.5-14.16-.25-5.59-.5-11.443-.5-14.212 0-.157.25-.314.5-.314s.5.157.5.314c0 2.769.25 8.57.5 14.16s.5 11.39.5 14.16c-.083.21-.25.366-.5.366M97.29 121c-.159 0-.265-.106-.317-.264 0-.212-.69-19.397.37-35.147.531-8.14-.636-10.465-1.75-10.994a791.805 791.805 0 00-7.003-3.276c-3.342-1.533-6.737-3.118-8.434-3.964-3.024-1.48-5.676-3.594-8.01-5.444-1.963-1.533-3.66-2.854-4.934-3.33-.159-.052-.212-.211-.212-.37.053-.158.212-.211.371-.211 1.38.476 3.077 1.85 5.093 3.383 2.281 1.85 4.933 3.91 7.904 5.337 1.698.846 5.093 2.432 8.435 3.965a807.562 807.562 0 017.002 3.276c1.857.899 2.493 4.704 2.07 11.575-1.009 15.697-.372 34.935-.372 35.094.106.211-.053.317-.213.37" fill="#2F3541"/><path d="M76.675 81c-.156 0-.26-.102-.26-.256-2.337-12.344-5.401-20.642-8.257-22.178-.156-.052-.208-.257-.104-.41.052-.154.26-.205.415-.103 3.064 1.64 6.18 9.835 8.517 22.537.052.154-.051.308-.207.359-.052.051-.104.051-.104.051M81.656 123c-.173 0-.288-.104-.345-.26-.863-13.304-2.414-26.556-4.311-37.418 0-.156.115-.312.288-.312.172-.052.344.104.344.26 1.955 10.862 3.506 24.166 4.368 37.47 0 .104-.172.208-.344.26M81.583 162c-.25 0-.5-.106-.5-.317-.083-10.526-.5-22.85-1.083-31.366 0-.158.166-.317.416-.317.25 0 .5.106.5.265C81.5 138.833 82 151.157 82 161.683c0 .211-.167.317-.417.317M59.448 162c-.169 0-.337-.158-.337-.317 1.235-33.103-2.02-54.5-4.096-64.299-.057-.159.056-.317.224-.37.168-.053.337.053.392.211 2.077 9.799 5.332 31.249 4.097 64.458 0 .159-.112.317-.28.317M51.617 82c-.106 0-.264-.106-.264-.212-.738-2.33-1.372-4.343-1.952-5.932-.264-.848-.528-1.589-.739-2.277-2.796-8.633-8.126-17.372-9.075-17.902-.792-.424-2.533.16-5.118 1.06-2.427.794-5.699 1.96-9.867 2.753-.316.054-.791.16-1.32.265-2.953.583-9.18 1.695-10.762 3.072-4.064 3.39-3.378 10.805-1.373 16.578.053.159-.052.318-.158.37-.158.054-.317-.052-.369-.158-2.058-5.985-2.744-13.612 1.53-17.213 1.741-1.43 7.81-2.596 11.08-3.178.528-.106.95-.159 1.32-.265 4.115-.848 7.439-1.96 9.813-2.754 2.85-.954 4.59-1.536 5.593-1.007 1.16.636 6.543 9.534 9.34 18.22.21.688.474 1.43.738 2.277.527 1.589 1.213 3.602 1.952 5.932.053.16-.053.318-.21.371h-.16z" fill="#2F3541"/><path d="M30.722 98c-.159 0-.264-.107-.317-.27-.74-5.66-1.85-12.237-4.442-18.113-4.176-9.595-8.036-14.824-11.737-16.01-.16-.054-.265-.216-.212-.377.052-.162.212-.27.37-.216 3.913 1.24 7.878 6.577 12.108 16.334 2.591 5.93 3.701 12.615 4.495 18.275.052.161-.053.324-.265.377.053 0 0 0 0 0M27.114 131c-1.484 0-3.215-1.328-5.045-3.875a.314.314 0 01.05-.442c.098-.111.296-.111.395.055 2.028 2.823 3.809 4.04 5.293 3.543 3.264-1.108 4.352-10.185 4.65-14.005 0-.165.147-.276.296-.276.148 0 .247.166.247.332-.396 4.926-1.583 13.395-5.045 14.557-.297.111-.593.111-.84.111" fill="#2F3541"/><path d="M23.29 102h-.108c-.162-.049-.216-.193-.162-.338 1.24-2.99 2.696-6.124 4.42-9.5.055-.144.27-.192.378-.144.162.048.216.241.162.338-1.725 3.375-3.181 6.51-4.367 9.5-.054.047-.215.144-.323.144M27.29 130s-.838-4.322-1.29-6.718c0-.141.13-.282.323-.282s.387.094.387.234c.451 2.397 1.29 6.719 1.29 6.719l-.71.047zM21.382 159c-.167-.053-.25-.16-.25-.32.963-8.252 0-18.262-.63-24.864-.25-2.823-.502-5.005-.502-6.496 0-.16.084-.32.21-.32a.26.26 0 01.251.266c.042 1.438.251 3.674.502 6.443.629 6.655 1.592 16.665.629 25.025.042.16-.084.266-.21.266M67.674 60c-.121 0-.182-.053-.242-.106-2.42-2.435-3.69-5.612-3.388-8.63 0-.158.182-.264.363-.264.182 0 .303.16.303.318-.303 2.859.907 5.823 3.206 8.152.12.106.12.318-.06.424-.061.106-.122.106-.182.106" fill="#2F3541"/><path d="M69.654 61c-.062 0-.124 0-.186-.062-1.423-.924-2.227-2.094-3.031-3.08-.743-.987-1.362-1.787-2.228-2.22-.186-.06-.248-.307-.186-.43.062-.185.31-.247.433-.185 1.052.493 1.794 1.418 2.537 2.403.743.986 1.547 2.095 2.846 2.958.186.123.186.308.124.493-.124.061-.186.123-.31.123M58.117 52c-7.162 0-11.279-5.343-13.096-8.527a.389.389 0 01.107-.411c.16-.052.32 0 .428.103 1.764 3.133 5.826 8.373 12.882 8.219 4.17-.103 7.003-2.775 8.607-4.983 2.191-3.03 3.047-6.627 3.367-9.144 0-.154.16-.257.32-.257.161 0 .268.154.268.308-.32 2.569-1.176 6.267-3.475 9.4-2.459 3.34-5.559 5.19-9.087 5.24-.107.052-.214.052-.32.052M59.513 39a.603.603 0 01-.277-.105.265.265 0 010-.42c1.314-.944.968-1.416.484-2.045-.138-.21-.346-.473-.484-.735-.484-1.154-.138-1.888.277-2.518.069-.157.346-.21.553-.157a.303.303 0 01.208.42c-.346.524-.623 1.154-.208 2.098.07.21.208.42.415.63.484.681 1.107 1.52-.622 2.78-.139 0-.277.052-.346.052M43.77 45c-.05 0-.153 0-.204-.05-.408-.342-.868-.637-1.326-.931-1.89-1.226-4.032-2.649-6.227-9.663-.05-.147.051-.294.204-.343.154-.049.307.049.358.196 2.092 6.867 4.184 8.191 5.97 9.369.46.294.919.588 1.378.98a.29.29 0 010 .393c0 .049-.05.049-.153.049M73.322 28a.293.293 0 01-.266-.158c-.107-.157-.054-.315.106-.42 2.932-1.892 2.772-7.725.906-12.034-.053-.158 0-.316.16-.368.16-.053.32 0 .374.157 1.972 4.52 2.079 10.668-1.12 12.77-.053.053-.106.053-.16.053M68.67 30c-.055 0-.11 0-.164-.091-.93-.912-2.735-1.276-4.102-.365-.165.091-.329 0-.383-.273-.055-.274 0-.547.163-.638 1.587-1.094 3.556-.637 4.65.364a.69.69 0 01.109.73c-.054.182-.164.273-.273.273M55.737 28.997c-.052 0-.104 0-.156-.085-1.721-1.614-4.223-.85-5.11 0-.156.17-.312.085-.417-.17a.632.632 0 01.105-.68c1.147-1.103 3.857-1.698 5.682 0 .157.17.209.425.105.68 0 .17-.105.255-.209.255" fill="#2F3541"/><path d="M59 43.545c-1.974-.12-4-.545-4-.545s.506 4.543 3.747 4.968C62.29 48.452 63 43.364 63 43.364s-2.026.242-4 .181" fill="#FFF"/><path d="M55.69 42.789c.213 1.207 1.01 4.13 3.613 4.448 2.816.382 3.772-2.86 4.037-4.067-.743.064-2.284.19-3.824.127-1.541-.063-3.081-.317-3.825-.508M59.728 48c-.159 0-.318 0-.531-.064C55.584 47.492 55 42.407 55 42.407c0-.127 0-.254.106-.317.053-.064.16-.127.266-.064 0 0 2.125.509 4.144.572 2.071.127 4.143-.19 4.143-.19.106 0 .16 0 .266.127.053.063.106.19.053.317 0 .064-.744 5.148-4.25 5.148M42.975 40c-.064 0-.064 0 0 0-3.44-.199-5.096-2.783-4.968-5.118.064-1.242.891-2.286 2.165-2.683 1.21-.398 2.548-.199 3.695.596.127.1.191.298.064.398-.128.1-.383.149-.51.05-.956-.647-1.975-.845-2.93-.498-1.02.348-1.657 1.193-1.72 2.187-.064 1.64 1.02 4.372 4.268 4.571a.31.31 0 01.318.298.548.548 0 01-.382.199" fill="#2F3541"/><path d="M42.506 37c-.158 0-.394-.117-.394-.235-.158-.469-.474-.939-.947-1.173-.157-.117-.237-.293-.08-.47a.6.6 0 01.632-.058c.552.352 1.026.88 1.262 1.525.08.176-.078.352-.315.411-.079-.059-.158 0-.158 0M66.996 35.041c.052-.559-.367-.999-.943-1.038a.965.965 0 00-1.049.959c-.052.559.367.998.943 1.038.524 0 1.049-.4 1.049-.959M45.262 31h-.05c-.15-.052-.25-.21-.199-.366.997-3.822 3.091-5.392 4.936-6.805 1.645-1.256 3.041-2.303 3.49-4.606.05-.157.2-.262.349-.21.149.053.25.21.199.368-.498 2.512-2.094 3.715-3.74 4.971-1.844 1.414-3.788 2.88-4.736 6.49 0 .106-.15.158-.249.158M42.376 55c-.07 0-.14 0-.14-.055-.21-.055-.28-.274-.21-.384 1.886-3.24 1.118-9.992.7-13.232 0-.164.139-.329.349-.329.208 0 .419.11.419.275.418 3.294 1.187 10.157-.769 13.56 0 .11-.14.165-.35.165" fill="#2F3541"/><path d="M40.257 56c-.101 0-.152-.048-.202-.096-.1-.096-.05-.289.05-.385a6 6 0 001.413-1.491c.303-.433.555-.77 1.11-1.01.151-.048.303 0 .353.144.05.145 0 .289-.151.337-.404.192-.606.481-.858.865-.302.434-.706.963-1.564 1.588 0 0-.1.048-.151.048M55.305 18h-.058c-.174-.05-.29-.2-.232-.35.232-.8.868-1.8 2.084-2.35.753-.3 2.026-.549 3.706.15.173.05.231.25.173.35-.058.15-.29.2-.406.15-1.157-.5-2.257-.55-3.125-.15a3.125 3.125 0 00-1.737 1.95c-.116.15-.29.25-.405.25M52.996 34.04c.052-.56-.367-1-.944-1.04-.576 0-1.048.4-1.048.96-.052.56.367 1 .943 1.04.524 0 .996-.4 1.049-.96M7.274 115c-.054 0-.108 0-.162-.05-.107-.101-.161-.253-.053-.404 3.336-4.142 8.286-7.527 14.097-11.468 1.722-1.212 3.551-2.424 5.434-3.788 1.83-1.263 3.444-2.577 4.844-3.738 3.067-2.476 5.057-4.092 6.402-3.385.162.05.216.253.108.404-.054.152-.27.202-.43.101-.969-.505-3.068 1.162-5.704 3.335-1.399 1.16-3.013 2.474-4.843 3.738-1.883 1.363-3.712 2.576-5.434 3.788-5.757 3.94-10.708 7.275-13.936 11.366-.162.051-.27.101-.323.101" fill="#2F3541"/><path d="M35.32 95c-.105 0-.157-.054-.263-.107-.105-.108-.052-.323.053-.43l.685-.538c2.845-2.15 5.531-4.137 7.48-5.32a103.868 103.868 0 007.955-5.373c2.16-1.612 4.003-2.955 6.48-4.299 3.265-1.772 8.375-.591 11.114.054l.159.054a86.417 86.417 0 015.794 1.666c.79.268 1.633.537 2.476.806.632.215 1.264.376 1.897.537 3.002.86 4.951 1.397 4.846 3.117 0 .268-.158.483-.369.645-1.16.913-4.899.43-6.426.16a86.16 86.16 0 01-3.214-.644c-2.529-.538-4.372-.968-5.32-.215-.159.107-.317.054-.422-.054-.105-.161-.053-.322.053-.43 1.211-.86 3.108-.43 5.794.108.949.215 2.055.43 3.213.645 2.951.483 5.322.483 5.953-.054.106-.108.158-.161.158-.215.106-1.129-1.422-1.612-4.372-2.472-.58-.161-1.211-.322-1.896-.537-.896-.269-1.686-.538-2.529-.807a77.226 77.226 0 00-5.742-1.665l-.158-.054c-2.687-.645-7.691-1.773-10.746-.107-2.424 1.343-4.267 2.686-6.427 4.244-2.107 1.56-4.53 3.333-7.955 5.428-1.949 1.182-4.583 3.17-7.427 5.32l-.685.537c-.053-.054-.106 0-.158 0" fill="#2F3541"/><path d="M69.517 92a.443.443 0 01-.226-.106.309.309 0 010-.425c1.353-1.221 2.03-2.23 1.973-3.132-.056-1.22-1.296-2.176-2.593-3.237-1.014-.797-2.085-1.646-2.65-2.655a.397.397 0 01.114-.424c.169-.053.338 0 .45.106.508.902 1.523 1.698 2.537 2.442 1.353 1.061 2.819 2.175 2.875 3.662.056 1.115-.677 2.282-2.198 3.61-.113.105-.226.159-.282.159" fill="#2F3541"/><path d="M65.776 95c-.108 0-.216-.05-.27-.202-.054-.151 0-.303.162-.353 1.509-.505 2.371-1.211 2.64-1.968.432-1.311-.915-2.926-2.047-4.338-.485-.606-.97-1.211-1.24-1.716a.375.375 0 01.108-.403.44.44 0 01.431.1c.27.455.701 1.01 1.186 1.614 1.24 1.514 2.641 3.23 2.155 4.844-.323 1.01-1.293 1.766-3.017 2.372-.054.05-.108.05-.108.05" fill="#2F3541"/><path d="M37.317 110c-.052 0-.104 0-.208-.056-.104-.111-.156-.278-.052-.445.936-1.224 1.718-2.226 2.394-3.116l.833-1.113c4.737-6.234 7.236-6.345 9.63-6.457.781-.055 1.562-.055 2.395-.333a59.365 59.365 0 002.915-1.058c2.082-.779 3.487-1.336 5.05-.779.676.223 1.3.501 1.873.723 1.77.78 2.499 1.002 3.123-.11.573-1.114-.833-2.728-1.978-4.008-.624-.668-1.145-1.28-1.405-1.78a.454.454 0 01.104-.446.387.387 0 01.416.111c.209.445.729 1.057 1.301 1.67 1.302 1.447 2.864 3.172 2.083 4.73-.885 1.67-2.187 1.113-3.852.39-.52-.223-1.145-.5-1.822-.724-1.406-.445-2.655 0-4.685.78-.833.333-1.822.667-2.967 1.057-.885.278-1.718.334-2.55.39-2.239.111-4.581.222-9.162 6.177l-.833 1.113c-.677.89-1.457 1.892-2.395 3.117-.052.111-.156.167-.208.167" fill="#2F3541"/><g transform="translate(0 66)"><mask id="b" fill="#fff"><use xlink:href="#a"/></mask><path d="M7.341 67.512c-2.073 0-3.99-.74-5.648-2.377-3.264-3.275-1.814-15.053 4.405-34.914a141.2 141.2 0 001.088-3.486C11.072 14.058 15.114 1.012 18.74.325c.156-.052.31.053.363.211.051.16-.052.317-.207.37-3.265.634-7.41 14.103-11.09 26.04L6.72 30.433C.708 49.817-.898 61.702 2.16 64.765c7.824 7.87 22.333-7.13 32.956-18.064 1.036-1.057 2.02-2.113 3.005-3.064a.31.31 0 01.415 0 .328.328 0 010 .423c-.933.95-1.918 2.007-2.954 3.064-8.706 8.82-19.898 20.388-28.241 20.388" fill="#2F3541" mask="url(#b)"/></g><path d="M69.694 80c-.102 0-.154-.057-.205-.113-.103-.113-.052-.34.051-.453 1.593-1.3 2.159-2.997 1.85-3.562-.154-.283-.514-.227-.822-.113-.565.226-1.182.508-1.799.791-1.49.679-3.34 1.527-5.396 2.15-.155.055-.308-.057-.36-.227a.326.326 0 01.205-.396c2.005-.565 3.752-1.357 5.294-2.092.668-.283 1.285-.622 1.85-.849.668-.283 1.234-.113 1.49.396.463.905-.153 2.885-2.003 4.411-.052 0-.103.057-.155.057M100.667 119.946c-.159 0-.266-.109-.266-.217-1.435-7.045-3.348-21.241-3.401-21.404 0-.162.106-.325.266-.325.16 0 .319.108.319.271 0 .163 1.913 14.306 3.401 21.35.053.162-.053.325-.212.379-.053-.054-.107-.054-.107-.054M38.417 111c-1.788 0-3.78-5.71-4.24-8.814-.562-3.936.255-8.26 1.84-9.7.51-.444 1.02-.61 1.582-.388a.32.32 0 01.205.388c-.051.166-.205.277-.358.221-.358-.11-.715-.055-1.073.278-1.225 1.163-2.196 5.1-1.634 9.146.51 3.603 2.554 8.315 3.678 8.315.204 0 .868-.333 1.021-3.77 0-.166.153-.332.307-.277.153 0 .255.167.255.333-.153 2.827-.664 4.213-1.583 4.268M70.73 30c-.155 0-.31-.161-.31-.322.103-5.381-1.867-8.34-3.526-9.847-1.814-1.722-4.25-2.475-6.583-2.152-.155 0-.311-.108-.311-.27 0-.16.104-.322.26-.322 2.54-.377 5.08.484 7.05 2.313 1.762 1.615 3.784 4.735 3.68 10.33.051.162-.104.27-.26.27" fill="#2F3541"/><path d="M40.566 44h-.104c-1.51-.632-2.553-1.95-3.074-2.74-4.22-6.27 2.24-19.915 5.314-23.023 4.063-4.11 11.669-6.48 19.848-6.217 11.564.421 15.055 5.374 15.628 6.375.781 1.37 1.042 2.634.625 3.74-.469 1.317-1.72 2.371-3.855 3.161-.156.053-.313 0-.365-.157-.052-.158 0-.316.157-.37 1.928-.737 3.125-1.685 3.49-2.844.312-.896.104-2.002-.573-3.214-.573-.949-3.855-5.69-15.107-6.06-8.023-.262-15.472 2.003-19.431 6.007-2.918 2.95-9.22 16.332-5.262 22.287.365.579 1.407 1.896 2.813 2.475.156.053.208.211.156.37 0 .157-.104.21-.26.21" fill="#2F3541"/><path d="M36.577 35L36 34.947c.367-5.103 1.049-15.677 8.6-20.464 4.72-3 11.327-4.63 17.725-4.473 6.135.158 11.326 2 12.06 2.526 2.622 1.894 4.248 4.261 4.615 6.628 0 .159-.105.316-.262.316-.158 0-.315-.105-.315-.262-.21-1.263-1.048-3.789-4.405-6.261-.63-.474-5.716-2.262-11.746-2.42-6.293-.158-12.796 1.473-17.41 4.419-7.237 4.682-7.918 15.046-8.285 20.044" fill="#2F3541"/><path d="M36.69 39a.512.512 0 01-.306-.105c-1.9-2.472-3.372-6.732-3.801-8.888-1.41-6.626-.245-12.464 3.311-16.882.122-.157.306-.157.49-.052.184.105.184.263.062.42-3.434 4.313-4.537 9.993-3.189 16.462.49 2.208 1.901 6.363 3.68 8.624.122.158.06.316-.123.421 0-.053-.062 0-.123 0" fill="#2F3541"/><path d="M43.137 17a.29.29 0 01-.264-.157c-2.954-4.602-5.696-4.08-6.856-3.87-.422.053-.686.105-.897-.052a.45.45 0 01-.106-.419c.475-2.405 6.593-9.465 14.452-11.556 8.544-2.25 13.185.104 14.925.993l.106.052c2.479 1.255 5.749 5.02 7.49 10.616.052.157-.053.314-.211.366-.159.053-.317-.052-.37-.21-1.688-5.386-4.958-9.098-7.225-10.249l-.106-.052c-1.846-.941-6.17-3.138-14.504-.941-7.331 1.934-13.29 8.524-13.976 10.93.052 0 .158-.053.263-.053 1.266-.21 4.272-.784 7.437 4.131.106.157.053.314-.106.419.053.052 0 .052-.052.052" fill="#2F3541"/><path d="M74.734 13.95c-.152 0-.254-.102-.254-.203-.76-3.185-4.86-7.988-6.227-8.19-.152 0-.253-.152-.253-.304 0-.151.152-.253.304-.253 1.67.253 5.873 5.36 6.683 8.646.05.152-.05.303-.203.354 0-.05 0-.05-.05-.05M35.299 57c-.2 0-.299-.16-.299-.32.199-1.758.996-2.664 1.843-3.57.598-.64 1.196-1.279 1.694-2.344.449-.906.598-1.972.748-3.038.299-1.864.598-3.943 2.242-5.648a.288.288 0 01.398 0c.1.107.1.32 0 .426-1.495 1.599-1.794 3.517-2.093 5.329-.199 1.173-.348 2.238-.797 3.25a8.663 8.663 0 01-1.793 2.452c-.797.852-1.495 1.598-1.694 3.197.05.16-.1.266-.249.266M29.334 88c-.167 0-.334-.188-.334-.374 0-.189.167-.376.334-.376 2.229 0 5.405-.312 8.693-.562 3.176-.313 6.463-.563 9.639-.688.167 0 .334.125.334.313 0 .187-.111.375-.279.375-3.12.125-6.407.437-9.583.687-3.399.312-6.52.625-8.804.625M97.679 89c-2.518 0-9.59-.512-15.268-.898a241.363 241.363 0 01-5.143-.384c-.16 0-.268-.192-.268-.385s.16-.385.322-.32c1.446.127 3.268.192 5.142.384 5.679.385 12.697.898 15.215.898.16 0 .321.193.321.384 0 .13-.16.321-.321.321M39.333 108c-.166 0-.277-.163-.333-.408 0-.243.111-.488.278-.488.111 0 12.834-1.548 18.444-.978.167 0 .278.245.278.488 0 .246-.167.49-.333.408-5.5-.57-18.167.978-18.334.978.056 0 0 0 0 0M97.72 106c-5.673-.177-14.37-.294-17.396-.294-.162 0-.324-.177-.324-.353 0-.177.162-.353.324-.353 3.08 0 11.723.117 17.395.294.163 0 .324.177.27.353 0 .235-.107.353-.27.353M66.277 128c-.158 0-.263-.107-.263-.268-.053-.16.052-.321.21-.375l39.326-7.872c.105 0 2.26-.535 3.575-.481 1.209.053 3.522.375 3.627.375l13.985 2.677a.401.401 0 01.263.375c-.053.16-.158.267-.316.267l-13.984-2.73s-2.366-.321-3.523-.376c-1.262-.053-3.417.482-3.417.482L66.33 128h-.053zM134.51 124h-.08l-1.097-.21c-.234-.07-.391-.21-.312-.491a.454.454 0 01.548-.28l1.097.21c.235.07.392.21.314.49a.532.532 0 01-.47.281M154.665 127h-.054l-16.383-3.35c-.161-.057-.268-.23-.214-.404.053-.173.214-.289.374-.231l.75.173 15.634 3.177c.16.057.268.23.214.404-.053.115-.16.231-.32.231M108.735 148c-1.402 0-2.648-1.015-3.116-2.565-.778-2.404-1.038-7.16.52-9.725.623-1.015 1.454-1.55 2.44-1.71.156 0 .312.107.312.267 0 .161-.104.32-.26.32-.83.108-1.505.589-2.025 1.443-1.454 2.352-1.194 6.947-.467 9.192.415 1.335 1.454 2.137 2.596 2.137 1.818 0 3.583-2.03 4.726-5.504.052-.16.208-.214.364-.16.156.053.207.213.156.374-1.715 5.397-4.26 5.931-5.246 5.931" fill="#2F3541"/><path d="M98.259 136a.268.268 0 01-.241-.14c-.048-.142 0-.283.145-.377 1.59-.75 3.037-.704 4.435-.61 1.543.094 3.134.188 4.966-.845.145-.047.29-.047.386.094.096.141.048.281-.097.376-1.976 1.079-3.664.985-5.255.892-1.398-.094-2.7-.141-4.146.563-.097.047-.145.047-.193.047" fill="#2F3541"/><path d="M138.136 98.536c.402-1.623 1.548-2.781 2.58-2.491 1.033.231 1.55 1.796 1.147 3.419-.401 1.622-1.548 2.78-2.58 2.492-1.032-.29-1.548-1.797-1.147-3.42" fill="#FFF"/><path d="M140.992 96.608c-.861 0-1.784.882-2.092 2.074-.37 1.296.061 2.54.984 2.696.924.156 1.97-.726 2.34-2.022.369-1.296-.062-2.54-.985-2.696-.062-.052-.185-.052-.247-.052M140.07 102c-.123 0-.246 0-.43-.052-1.293-.26-1.97-1.762-1.478-3.421.493-1.66 1.846-2.748 3.2-2.489 1.294.26 1.97 1.763 1.478 3.422-.431 1.503-1.6 2.54-2.77 2.54M71.605 75.948c-.163 0-.272-.104-.272-.209-1.522-7.193-2.935-11.52-3.86-13.917-.815-2.137-2.066-3.962-2.392-4.327a.308.308 0 010-.417c.109-.104.326-.104.435 0 .49.521 1.74 2.45 2.556 4.535.924 2.398 2.391 6.829 3.914 14.022.054.156-.055.313-.218.365l-.163-.052zM72.704 80c-.148 0-.247-.1-.247-.25l-.444-2.45c-.05-.15.049-.3.247-.3.148 0 .296.05.296.25L73 79.7c0 .15-.099.3-.296.3M77.673 124a.384.384 0 01-.374-.257c-.873-14.625-2.305-27.556-4.299-38.435a.31.31 0 01.312-.308c.186 0 .373.103.373.257 1.994 10.878 3.427 23.81 4.3 38.486.061.103-.063.206-.312.257M78.588 162c-.239 0-.477-.156-.477-.313 0-8.495-.317-19.022-1.111-31.374 0-.157.159-.313.397-.313.238 0 .476.104.476.26.715 12.352 1.111 22.932 1.111 31.427.08.157-.158.313-.396.313M55.663 81c-.107 0-.269-.106-.269-.211-5.164-16.737-10.329-23.97-12.319-26.293a.276.276 0 01.054-.423.288.288 0 01.43.054c2.044 2.375 7.263 9.661 12.427 26.503.054.159-.054.317-.215.37h-.108zM65.712 162c-.166 0-.332-.106-.332-.318-.221-24.52-2.49-47.715-6.365-65.297-.056-.16.054-.318.22-.371.167-.053.333.053.388.212 3.875 17.635 6.145 40.83 6.366 65.403a.291.291 0 01-.277.371" fill="#2F3541"/><path d="M61.579 70c-5.14 0-10.934-1.862-12.465-2.957-.11-.11-.164-.274-.054-.439.109-.163.273-.163.437-.054 1.64 1.205 9.95 3.779 15.526 2.519 2.132-.493 3.554-1.479 4.373-2.902.055-.165.274-.22.438-.11.164.055.218.274.11.438-.876 1.588-2.461 2.683-4.757 3.231-1.203.164-2.405.274-3.608.274M52.308 39c-.206 0-.36 0-.566-.055-2.881-.33-4.888-3.137-4.734-6.66 0-.164.155-.329.31-.274.153 0 .308.165.256.33-.103 3.192 1.698 5.723 4.22 5.998 1.183.11 2.212-.22 3.035-.935.978-.936 1.544-2.422 1.595-4.237 0-.166.154-.33.31-.276.153 0 .307.165.256.33-.052 1.982-.72 3.633-1.8 4.678-.773.716-1.801 1.101-2.882 1.101" fill="#2F3541"/><path d="M61.658 36c-.063 0-.126 0-.19-.052-.76-.471-3.355-.523-5.001 0-.19.052-.38 0-.443-.157-.064-.157 0-.314.19-.366 1.772-.575 4.558-.575 5.634.052.19.105.19.262.064.418a.525.525 0 01-.254.105M66.318 39c-1.644 0-3.135-.908-3.803-2.42-.566-1.21-.566-2.269-.463-3.177 0-.15.155-.252.309-.252s.256.152.256.303c-.05.807-.05 1.764.412 2.874.668 1.563 2.416 2.37 4.164 1.966 1.644-.353 3.34-1.865 3.238-4.991 0-.152.103-.303.257-.303.154 0 .308.1.308.252.103 3.48-1.799 5.143-3.7 5.597-.31.1-.669.151-.978.151M47.695 34h-.05l-2.437-.988c-.147-.09-.244-.36-.195-.63.048-.269.195-.448.341-.359l2.438.989c.147.09.244.36.195.629-.048.18-.146.359-.292.359M102.716 135a.333.333 0 01-.324-.203s-.162-1.137-.378-1.502c-.054-.122.054-.244.216-.284.162-.041.324.04.378.162.216.446.378 1.542.378 1.583.054.122-.054.244-.27.244.054 0 0 0 0 0" fill="#2F3541"/><g transform="translate(88 42)"><mask id="d" fill="#fff"><use xlink:href="#c"/></mask><path d="M82.78 3.152c.108-.013.192-.076.279-.137.48-.337.96-.669 1.438-1.008.507-.359 1.008-.725 1.515-1.084.12-.085.199-.186.12-.327-.083-.146-.212-.117-.334-.041-.08.05-.158.1-.235.153-.633.442-1.267.883-1.899 1.327-.326.229-.648.463-.968.7-.086.064-.16.148-.104.274.037.08.098.133.187.143M84.11 9.61c-.108-.001-.263-.016-.287.185-.026.215.125.252.286.274 1.035.143 2.07.288 3.105.43.392.054.783.106 1.175.153.121.015.246-.002.276-.153.033-.168-.068-.24-.212-.266-.092-.017-.182-.037-.274-.05l-1.311-.181-2.758-.392m-.027-3.353l.147-.04 4.193-1.08c.125-.032.248-.064.37-.103.1-.032.16-.104.132-.217-.025-.1-.081-.18-.192-.175a1.353 1.353 0 00-.273.044c-.96.242-1.919.486-2.878.73L84.06 5.8c-.15.039-.262.12-.236.299.02.132.122.162.259.157M20.075 14.19c-.002.28.165.352.466.19a678.6 678.6 0 003.519-1.902c.204-.111.368-.116.582.004 1.164.654 2.337 1.29 3.509 1.928.12.066.245.165.39.067.162-.11.097-.282.075-.427-.07-.461-.152-.919-.23-1.378-.142-.848-.282-1.697-.43-2.544-.049-.28.011-.492.227-.7.934-.897 1.854-1.813 2.776-2.726.113-.112.288-.213.218-.41-.064-.182-.251-.186-.413-.21-1.274-.195-2.549-.392-3.824-.584-.246-.037-.408-.139-.523-.392-.54-1.192-1.103-2.375-1.663-3.559-.072-.152-.099-.368-.331-.366-.231.002-.253.222-.326.373a908.03 908.03 0 00-1.784 3.66c-.06.124-.13.206-.282.226-.875.112-1.749.237-2.622.36-.495.07-.99.142-1.482.223-.122.02-.272.023-.332.163-.065.155.079.234.152.334.035.047.081.084.122.126.935.953 1.868 1.907 2.806 2.856.121.122.153.235.12.411-.126.693-.23 1.39-.345 2.085-.123.731-.25 1.461-.375 2.192M2.796 14.06c-.033.138-.028.236.062.296.138.091.263.022.39-.046 1.072-.58 2.157-1.133 3.21-1.745.455-.264.799-.233 1.242.032 1.044.626 2.126 1.188 3.193 1.774.112.062.228.132.359.04.134-.096.096-.22.073-.355-.22-1.332-.424-2.668-.659-3.997-.046-.267-.015-.443.179-.633.96-.942 1.908-1.897 2.86-2.847.1-.098.233-.175.183-.353-.05-.179-.212-.18-.34-.2-1.286-.202-2.571-.406-3.86-.583-.292-.04-.453-.162-.577-.429-.554-1.198-1.126-2.39-1.688-3.585-.066-.14-.104-.31-.29-.315-.198-.005-.222.187-.287.32C6.256 2.64 5.67 3.85 5.08 5.057c-.065.133-.097.29-.297.31-.358.034-.714.095-1.07.146-1.035.145-2.07.29-3.106.437-.116.017-.235.048-.29.172-.056.133.024.227.11.313.795.791 1.533 1.644 2.372 2.386.56.495.907 1.032.582 1.814-.014.032-.015.07-.02.105-.19 1.12-.38 2.239-.565 3.32m50.911.067c-.012.264.138.329.434.173 1.178-.623 2.36-1.24 3.528-1.882.24-.131.422-.127.647-.003 1.136.632 2.277 1.254 3.417 1.881.141.078.29.21.448.103.148-.101.087-.29.063-.437a305.603 305.603 0 00-.657-3.996c-.041-.242.008-.404.179-.571.964-.937 1.92-1.883 2.877-2.828.098-.097.232-.187.18-.359-.055-.187-.217-.18-.369-.204-1.298-.196-2.595-.4-3.894-.592-.258-.039-.413-.168-.519-.405-.283-.63-.573-1.257-.867-1.883-.283-.604-.564-1.21-.865-1.803-.158-.313-.326-.304-.497-.007-.03.052-.062.102-.088.155-.575 1.188-1.155 2.374-1.72 3.567-.099.207-.219.303-.443.334-1.3.177-2.598.371-3.897.56-.156.022-.351-.021-.413.186-.059.199.108.301.22.416.93.94 1.86 1.88 2.792 2.817.12.12.229.232.192.431-.067.352-.117.707-.178 1.06-.189 1.096-.38 2.191-.57 3.287m-16.857.032c-.001.264.187.32.51.147 1.144-.616 2.293-1.222 3.43-1.852.26-.143.456-.127.706.015 1.11.63 2.23 1.242 3.347 1.857.15.082.312.227.482.094.168-.131.078-.331.05-.502-.216-1.321-.436-2.64-.65-3.961-.023-.138-.052-.285.07-.405.581-.568 1.163-1.138 1.741-1.71.452-.448.906-.895 1.346-1.355.186-.194.134-.33-.126-.406a2.176 2.176 0 00-.272-.06c-1.251-.194-2.501-.397-3.754-.573-.266-.037-.414-.14-.527-.383-.568-1.22-1.15-2.433-1.727-3.648-.06-.127-.108-.287-.278-.286-.17.001-.213.163-.275.29-.583 1.184-1.18 2.36-1.734 3.558-.144.31-.324.417-.626.458-1.277.174-2.552.367-3.828.55-.149.023-.322.014-.373.201-.048.174.11.25.205.347.919.932 1.84 1.862 2.764 2.787.185.185.297.354.233.655-.145.689-.239 1.389-.356 2.084-.117.696-.237 1.39-.358 2.098" fill="#2F3541" mask="url(#d)"/></g><path d="M124.563 55.693c.124-.69.247-1.367.367-2.044s.217-1.36.366-2.03c.065-.293-.05-.458-.239-.638a551.39 551.39 0 01-2.838-2.716c-.096-.093-.259-.169-.21-.338.052-.183.23-.174.383-.195 1.31-.18 2.618-.367 3.93-.537.31-.04.494-.145.641-.446.569-1.167 1.183-2.313 1.78-3.467.063-.123.108-.28.282-.282.175-.002.224.155.286.278.593 1.184 1.19 2.366 1.773 3.555.116.236.268.337.54.373 1.286.171 2.57.369 3.854.558.094.014.188.033.28.058.266.074.32.207.128.396-.452.448-.917.884-1.382 1.32-.593.558-1.19 1.113-1.786 1.667-.126.117-.096.259-.073.394.22 1.287.446 2.572.668 3.858.029.168.12.362-.051.49-.175.13-.341-.011-.494-.091-1.148-.599-2.298-1.195-3.437-1.809-.256-.138-.458-.154-.724-.015-1.167.614-2.347 1.204-3.521 1.804-.33.17-.524.115-.523-.143" fill="#FC9001"/><path d="M128.953 53.676c.144 0 .289.042.447.127a229.12 229.12 0 002.888 1.52l.469.245.08.046c.145.083.184.093.232.057.046-.034.049-.073.012-.227a2.14 2.14 0 01-.022-.102l-.272-1.566c-.127-.734-.255-1.468-.38-2.201l-.003-.014c-.024-.137-.06-.342.12-.508.56-.52 1.16-1.077 1.746-1.627l.136-.128c.4-.376.815-.765 1.21-1.157a.289.289 0 00.063-.08.346.346 0 00-.117-.05 2.203 2.203 0 00-.255-.052l-.887-.132c-.943-.14-1.917-.286-2.877-.412-.32-.043-.515-.178-.65-.451-.458-.933-.932-1.878-1.391-2.792l-.34-.677-.024-.05c-.056-.118-.075-.135-.111-.135h-.001c-.034 0-.05.01-.106.13l-.03.06c-.153.296-.307.591-.462.886a98.88 98.88 0 00-1.276 2.496c-.157.322-.374.473-.75.522-.9.116-1.816.243-2.702.367l-1.136.157a1.407 1.407 0 01-.067.007c-.146.017-.165.028-.177.072-.007.025-.005.037.088.112.027.022.053.043.076.065a553.934 553.934 0 002.773 2.65c.18.17.364.384.278.767-.1.448-.176.91-.25 1.356l-.106.62-.243 1.35-.114.631c.002.043.011.06.014.063.01.008.09.017.265-.072l1.068-.543c.78-.396 1.585-.805 2.372-1.218a.88.88 0 01.412-.112M133.021 56c-.137 0-.26-.07-.345-.12a1.358 1.358 0 00-.069-.039l-.468-.244c-.95-.495-1.933-1.006-2.892-1.522-.215-.116-.355-.12-.556-.014-.788.413-1.595.823-2.376 1.219-.356.18-.712.361-1.067.543-.243.124-.437.145-.577.063-.076-.045-.167-.141-.166-.341l.002-.026.117-.645c.081-.453.163-.9.242-1.35.037-.205.071-.411.105-.616.075-.451.153-.917.254-1.372.047-.212-.02-.32-.189-.48a533.075 533.075 0 01-2.774-2.651 1.324 1.324 0 00-.056-.048c-.09-.072-.257-.207-.191-.434.073-.255.307-.28.447-.295a2.24 2.24 0 00.058-.007l1.136-.157c.886-.123 1.802-.25 2.705-.367.27-.035.394-.12.505-.349.411-.842.852-1.686 1.28-2.502a239.179 239.179 0 00.486-.937c.055-.115.146-.307.392-.309h.003c.25 0 .342.198.398.315l.021.044.34.677c.46.914.935 1.86 1.393 2.794.09.181.189.249.407.278.962.128 1.938.273 2.882.413l.886.132c.101.015.2.035.293.06.194.054.31.144.343.268.033.12-.017.247-.147.377-.399.395-.815.785-1.217 1.163l-.136.128a415.94 415.94 0 01-1.747 1.628c-.053.048-.049.102-.026.232l.002.015.38 2.2c.092.522.182 1.044.272 1.566.005.028.012.056.02.084.035.152.088.38-.13.543a.392.392 0 01-.24.083" fill="#2F3541"/><path d="M141.542 55.696c.196-1.066.392-2.133.586-3.2.063-.344.115-.69.184-1.032.038-.194-.074-.303-.197-.42-.96-.913-1.919-1.827-2.875-2.743-.116-.112-.288-.212-.227-.405.063-.203.264-.16.425-.182 1.337-.183 2.674-.372 4.013-.545a.526.526 0 00.456-.325c.582-1.162 1.179-2.317 1.771-3.473.027-.053.06-.101.091-.152.175-.289.348-.297.511.007.31.579.6 1.168.891 1.756.302.609.601 1.22.892 1.834.11.23.27.357.536.394 1.337.186 2.672.386 4.009.577.156.022.324.015.38.198.053.168-.084.256-.186.35-.985.92-1.97 1.841-2.962 2.753-.176.163-.227.32-.184.556.237 1.296.458 2.594.676 3.892.025.143.088.327-.065.425-.162.104-.316-.024-.462-.1-1.173-.61-2.347-1.216-3.518-1.831-.231-.122-.419-.125-.666.003-1.203.625-2.42 1.226-3.633 1.832-.304.152-.459.088-.446-.169" fill="#FC9001"/><path d="M145.96 53.677c.13 0 .258.036.397.109.797.418 1.61.84 2.397 1.248l1.04.54c.025.012.051.028.078.043.13.075.17.086.21.06.032-.02.033-.062.007-.197l-.012-.063a286.327 286.327 0 00-.66-3.797c-.053-.284.015-.488.226-.681a429.41 429.41 0 002.455-2.278l.44-.41.044-.04c.099-.087.107-.107.095-.145-.015-.048-.032-.06-.179-.077a426.767 426.767 0 01-1.654-.238c-.762-.11-1.551-.226-2.327-.334a.78.78 0 01-.645-.472c-.253-.533-.53-1.1-.87-1.788l-.09-.179c-.25-.505-.509-1.027-.78-1.531-.06-.113-.101-.135-.106-.138 0 .003-.045.023-.115.139l-.028.045c-.02.03-.039.061-.055.093l-.395.77c-.441.856-.897 1.743-1.336 2.618a.67.67 0 01-.568.403c-.951.123-1.918.257-2.853.385-.356.05-.711.099-1.067.147a1.387 1.387 0 01-.115.01c-.147.007-.157.018-.17.06-.017.052.003.083.115.181l.066.059c.935.894 1.871 1.787 2.809 2.677.123.117.292.277.237.55-.04.201-.075.407-.109.607a1150.842 1150.842 0 01-.55 3.021l-.09.491a.188.188 0 00.008.072c.016.002.074 0 .197-.061l.619-.309c.963-.48 1.959-.975 2.929-1.479a.87.87 0 01.405-.111M150.046 56c-.132 0-.249-.067-.336-.117a2.177 2.177 0 00-.067-.037l-1.04-.54c-.786-.407-1.6-.83-2.398-1.248-.184-.097-.31-.096-.5.003-.973.505-1.97 1.001-2.934 1.482l-.62.308c-.221.11-.39.126-.517.047-.074-.046-.16-.146-.15-.357l.003-.02.092-.5.48-2.624c.025-.131.047-.263.07-.394.034-.202.07-.41.11-.616.02-.1-.022-.15-.147-.27a1148.82 1148.82 0 01-2.81-2.678 1.729 1.729 0 00-.055-.049c-.107-.093-.287-.25-.207-.501.081-.26.317-.272.457-.28.03 0 .06-.002.088-.006.356-.048.71-.098 1.066-.147.936-.128 1.903-.262 2.857-.385.167-.022.246-.078.323-.232.44-.877.896-1.764 1.337-2.622l.395-.77c.02-.04.045-.077.068-.115l.026-.042c.044-.072.176-.29.391-.29h.009c.217.006.338.23.378.304.273.508.533 1.033.784 1.54l.089.178c.342.69.62 1.26.873 1.793a.47.47 0 00.4.296c.778.109 1.567.223 2.33.334l1.59.23.055.007c.137.016.366.043.446.294.073.236-.09.379-.186.464l-.039.034-.44.41c-.802.75-1.632 1.524-2.455 2.28-.132.12-.166.222-.133.402a278.623 278.623 0 01.672 3.855c.028.141.075.375-.144.515a.386.386 0 01-.211.064" fill="#2F3541"/><path d="M90.571 55.615c.19-1.054.385-2.144.58-3.235.007-.034.008-.07.022-.103.334-.761-.022-1.285-.599-1.767-.863-.723-1.623-1.554-2.44-2.325-.09-.084-.173-.175-.114-.305.055-.12.179-.151.298-.168 1.065-.143 2.13-.284 3.197-.426.367-.049.732-.109 1.101-.143.206-.018.239-.17.306-.3.607-1.177 1.21-2.356 1.818-3.532.066-.128.091-.316.295-.311.192.004.23.17.299.308.578 1.164 1.167 2.324 1.737 3.492.127.26.293.379.593.418 1.327.173 2.65.372 3.973.569.133.02.3.02.352.194.051.173-.086.249-.188.345-.981.925-1.956 1.856-2.945 2.774-.199.184-.232.356-.183.616.24 1.296.451 2.597.678 3.895.022.13.062.253-.076.345-.135.09-.255.022-.37-.038-1.098-.57-2.21-1.119-3.287-1.729-.456-.258-.81-.289-1.277-.03-1.084.596-2.202 1.134-3.304 1.7-.131.066-.26.133-.403.044-.092-.058-.097-.154-.063-.288" fill="#FC9001"/><path d="M94.947 53.719c.234 0 .471.075.737.225.764.432 1.56.84 2.332 1.235l.876.45.013.007c.115.06.143.066.183.039.03-.02.037-.025.014-.144l-.007-.04-.222-1.289c-.14-.823-.285-1.676-.44-2.511-.06-.322.005-.537.226-.742.674-.624 1.352-1.266 2.009-1.887l.868-.82.056-.05c.096-.081.096-.094.085-.132-.012-.043-.03-.055-.167-.073l-.313-.046c-1.184-.176-2.408-.358-3.614-.515-.345-.045-.555-.193-.702-.495-.359-.733-.73-1.475-1.09-2.193-.203-.405-.407-.81-.608-1.216a2.865 2.865 0 01-.033-.07c-.057-.128-.073-.141-.12-.142-.036 0-.048-.001-.1.125-.014.032-.027.064-.042.093-.33.637-.659 1.276-.987 1.914l-.79 1.534c-.01.018-.018.036-.026.054-.056.12-.138.3-.4.324-.248.022-.502.058-.748.093l-.321.045-.726.097c-.8.106-1.599.212-2.398.32-.12.016-.153.04-.168.072-.01.021-.017.037.076.125.288.27.572.553.848.827.489.485.994.987 1.53 1.436.499.416 1.021 1.01.628 1.903-.003.01-.003.02-.005.03a.732.732 0 01-.005.036l-.57 3.169c-.022.087-.012.109-.012.11.059.036.102.023.237-.046.334-.171.667-.338 1.001-.506.735-.369 1.495-.75 2.225-1.152.235-.13.451-.194.67-.194m4.1 2.281a.638.638 0 01-.292-.091l-.013-.007-.874-.45c-.774-.396-1.575-.805-2.344-1.24-.416-.237-.701-.244-1.09-.03-.736.404-1.498.788-2.236 1.158-.333.167-.666.334-.997.504-.136.07-.338.172-.553.036-.206-.13-.153-.359-.132-.442l.57-3.175a.396.396 0 01.028-.113c.25-.568.092-1.016-.542-1.547-.547-.457-1.058-.964-1.551-1.454-.274-.271-.557-.553-.843-.821-.075-.071-.251-.237-.145-.472.096-.211.32-.241.415-.254.8-.108 1.6-.214 2.399-.32l.726-.096.318-.045c.25-.035.507-.072.765-.095.07-.007.088-.031.139-.143.01-.021.02-.044.032-.066.264-.51.527-1.023.79-1.534.328-.638.657-1.277.987-1.914.011-.022.02-.046.03-.07.047-.112.133-.319.392-.319a.08.08 0 01.011 0c.26.006.35.208.405.329.009.02.017.04.027.059l.607 1.214c.36.719.733 1.462 1.092 2.196.102.209.217.29.457.321 1.21.157 2.435.34 3.62.516l.307.046c.125.015.357.045.43.294.07.234-.086.369-.18.45l-.045.04c-.29.272-.579.546-.868.82-.657.62-1.336 1.263-2.01 1.888-.144.133-.175.241-.134.463.156.838.302 1.69.442 2.516l.222 1.287.006.036c.022.118.06.317-.147.455a.39.39 0 01-.22.07" fill="#2F3541"/><path d="M107.567 55.68c.128-.712.259-1.424.385-2.137.12-.677.226-1.357.356-2.032.033-.172 0-.281-.124-.4-.965-.925-1.924-1.856-2.885-2.784-.043-.04-.09-.077-.126-.123-.075-.098-.223-.175-.156-.326.061-.137.216-.14.341-.16a78.57 78.57 0 011.524-.215c.898-.121 1.796-.242 2.696-.352.157-.02.228-.099.29-.22.61-1.19 1.219-2.38 1.834-3.568.076-.147.098-.36.336-.363.238-.003.266.208.34.357.576 1.154 1.154 2.306 1.71 3.469.118.247.285.346.538.382 1.311.187 2.621.379 3.932.568.167.024.36.028.426.206.071.192-.109.29-.225.4-.949.889-1.894 1.782-2.855 2.657-.222.202-.283.408-.233.682.152.826.295 1.653.442 2.48.08.447.165.893.236 1.342.023.142.09.308-.078.417-.148.096-.276-.002-.4-.066-1.205-.623-2.412-1.24-3.608-1.879a.572.572 0 00-.6-.004c-1.203.623-2.41 1.238-3.617 1.853-.31.159-.481.09-.48-.184" fill="#FC9001"/><path d="M111.961 53.668c.121 0 .242.035.372.104.957.51 1.938 1.015 2.886 1.504l.638.33.051.027c.118.064.142.067.178.044.041-.026.048-.047.02-.184-.005-.024-.01-.047-.013-.07-.05-.31-.107-.625-.162-.93l-.068-.378-.126-.713c-.1-.569-.201-1.138-.305-1.707-.061-.329.024-.578.274-.805a190.69 190.69 0 002.268-2.106l.52-.487.07-.06c.122-.103.127-.124.111-.165-.021-.058-.074-.073-.233-.094l-.057-.007-1.172-.17c-.89-.13-1.78-.258-2.67-.385-.315-.045-.515-.187-.646-.46a201.292 201.292 0 00-1.489-3.022l-.18-.363a1.613 1.613 0 01-.045-.1c-.06-.148-.08-.16-.145-.161-.062 0-.08.014-.139.158-.015.039-.03.076-.048.111a864.961 864.961 0 00-1.792 3.482c-.068.132-.169.27-.406.3-.819.1-1.65.211-2.454.319l-.18.024c-.471.063-.977.132-1.485.21l-.048.007c-.109.015-.15.026-.164.057l-.004.012c.004.012.04.047.061.069a.83.83 0 01.077.083c.015.02.039.04.064.063l.043.04.633.611c.727.703 1.455 1.406 2.186 2.105.16.153.209.311.166.531a56.22 56.22 0 00-.226 1.274l-.121.708c-.086.485-.174.97-.262 1.454l-.112.618c.001.063.015.088.02.091.008.006.073.011.215-.06l.081-.042c1.133-.577 2.305-1.174 3.454-1.768a.787.787 0 01.364-.099m4.09 2.332a.622.622 0 01-.298-.097l-.044-.024-.638-.33c-.95-.488-1.931-.995-2.89-1.505-.163-.087-.272-.087-.435-.003a681.47 681.47 0 01-3.456 1.768l-.08.042c-.22.111-.398.128-.53.05-.078-.047-.172-.15-.17-.37l.002-.025.114-.632c.088-.484.176-.968.261-1.453.042-.235.082-.47.122-.706.071-.42.145-.854.227-1.28.023-.119.006-.173-.077-.252-.73-.7-1.459-1.404-2.187-2.107l-.632-.61a.691.691 0 00-.036-.033.78.78 0 01-.102-.105c-.014-.019-.032-.036-.05-.053-.075-.074-.214-.213-.121-.42.088-.197.29-.224.411-.24l.043-.007c.51-.078 1.018-.147 1.492-.211l.179-.024c.805-.108 1.637-.22 2.457-.32.08-.01.114-.036.161-.13.554-1.079 1.18-2.302 1.793-3.483.014-.027.025-.055.037-.084.053-.132.14-.353.431-.356h.006c.292 0 .383.224.438.357.01.027.021.054.034.079l.18.362c.495.99 1.006 2.012 1.492 3.026.086.18.192.255.404.285.891.127 1.781.257 2.671.386l1.224.177c.159.02.399.05.49.293.095.255-.091.413-.203.506-.02.017-.039.033-.056.05l-.52.487c-.742.694-1.507 1.413-2.272 2.108-.17.154-.22.302-.18.525.106.57.206 1.14.307 1.709l.126.712.068.377c.056.307.113.623.163.937l.01.057c.028.133.072.355-.155.502a.382.382 0 01-.212.065" fill="#2F3541"/><g transform="translate(171 47)"><mask id="f" fill="#fff"><use xlink:href="#e"/></mask><path d="M.332 1.84c-.158.005-.276-.024-.299-.147-.03-.166.099-.242.272-.278l1.754-.361C3.165.827 4.271.599 5.377.374c.103-.022.21-.038.315-.042.128-.004.193.07.222.164.032.106-.037.172-.152.202a8.13 8.13 0 01-.427.097L.502 1.803l-.17.037" fill="#2F3541" mask="url(#f)"/></g><path d="M171.299 51c.97.129 1.906.252 2.842.375.45.059.901.115 1.351.173.095.013.189.032.283.048.149.025.253.094.218.253-.03.144-.159.16-.283.147a74.455 74.455 0 01-1.212-.147c-1.066-.135-2.133-.273-3.2-.41-.166-.021-.322-.056-.295-.262.025-.192.185-.177.296-.176M170.23 45c-.099-.008-.167-.047-.207-.108-.065-.094.019-.157.114-.205.357-.178.716-.354 1.079-.526.704-.335 1.41-.666 2.116-.998.086-.04.173-.078.261-.116.136-.057.28-.079.372.031.088.107 0 .183-.133.246-.564.27-1.124.545-1.688.815-.532.255-1.068.505-1.602.758-.097.046-.19.094-.312.103" fill="#2F3541"/><path d="M157.542 55.696c-.012.257.142.32.446.169 1.213-.606 2.43-1.207 3.633-1.832.247-.129.435-.125.667-.003 1.17.615 2.344 1.22 3.518 1.831.145.076.299.204.461.1.153-.098.09-.281.066-.425-.22-1.298-.44-2.596-.676-3.892-.044-.235.007-.393.183-.555.993-.912 1.977-1.834 2.962-2.754.102-.094.239-.182.186-.35-.056-.183-.223-.176-.38-.198-1.337-.19-2.672-.391-4.01-.577a.639.639 0 01-.534-.394c-.292-.614-.59-1.225-.893-1.834-.291-.588-.58-1.177-.89-1.756-.164-.304-.336-.296-.512-.007-.03.05-.063.1-.09.152-.593 1.156-1.19 2.31-1.772 3.473-.102.201-.225.295-.456.325-1.34.173-2.676.362-4.013.545-.16.022-.362-.02-.425.182-.061.193.11.293.227.405.956.916 1.915 1.83 2.875 2.743.123.117.235.226.197.42-.069.342-.12.688-.184 1.032-.194 1.067-.39 2.134-.586 3.2" fill="#E2F5FE"/><path d="M157.542 55.696c.196-1.066.392-2.133.586-3.2.063-.344.115-.69.183-1.032.039-.194-.073-.303-.196-.42-.96-.913-1.919-1.827-2.875-2.743-.116-.112-.288-.212-.227-.405.063-.203.264-.16.425-.182 1.337-.183 2.674-.372 4.013-.545a.526.526 0 00.456-.325c.582-1.162 1.179-2.317 1.771-3.473.027-.052.06-.101.091-.152.175-.289.348-.297.511.007.31.579.6 1.168.891 1.756.302.609.601 1.22.892 1.834.11.23.27.357.536.394 1.337.186 2.672.386 4.009.577.156.022.324.015.38.198.053.168-.084.256-.186.35-.985.92-1.97 1.842-2.962 2.754-.176.162-.227.32-.184.555.237 1.296.458 2.594.676 3.892.024.144.088.327-.065.425-.163.104-.316-.024-.462-.1-1.173-.61-2.347-1.216-3.518-1.831-.231-.122-.42-.126-.666.003-1.203.625-2.42 1.226-3.634 1.832-.303.152-.458.088-.445-.169" fill="#FC9001"/><path d="M161.96 53.677c.13 0 .258.036.396.108.798.42 1.61.84 2.397 1.248a661.211 661.211 0 011.119.584c.13.074.17.086.21.06.032-.02.034-.062.007-.197l-.012-.063c-.216-1.279-.43-2.532-.66-3.797-.053-.284.015-.488.226-.681.823-.755 1.652-1.53 2.454-2.278l.44-.41.045-.04c.099-.087.107-.107.095-.145-.015-.048-.032-.06-.179-.077l-.064-.009c-.531-.075-1.063-.153-1.595-.23-.761-.11-1.548-.225-2.322-.333a.78.78 0 01-.645-.473c-.253-.532-.53-1.1-.87-1.787l-.088-.176c-.25-.506-.51-1.03-.781-1.534-.061-.113-.102-.135-.108-.138 0 .003-.044.023-.114.139l-.028.045c-.02.03-.039.06-.055.093l-.397.772c-.44.856-.895 1.742-1.334 2.616a.67.67 0 01-.568.403c-.95.123-1.913.256-2.846.385l-1.074.147c-.037.005-.076.007-.115.01-.148.007-.157.018-.17.06-.017.052.002.082.115.18l.066.06c.934.894 1.871 1.786 2.81 2.677.122.118.291.277.237.55-.04.201-.076.408-.11.608-.022.132-.045.265-.069.397l-.459 2.503-.112.611a.213.213 0 00.007.072c.018.002.076 0 .197-.061l.617-.308c.964-.48 1.961-.976 2.932-1.48a.876.876 0 01.405-.111M166.046 56c-.132 0-.249-.067-.336-.117l-.066-.037-1.04-.54c-.787-.407-1.6-.83-2.398-1.248-.185-.097-.311-.096-.502.003a197.32 197.32 0 01-2.936 1.483l-.617.307c-.222.11-.39.126-.516.047-.074-.046-.16-.146-.15-.357l.002-.02.115-.622.458-2.502c.024-.131.046-.262.068-.394.034-.202.07-.41.111-.616.02-.1-.022-.15-.147-.27-.938-.89-1.875-1.783-2.81-2.678l-.055-.05c-.107-.092-.287-.25-.207-.5.081-.26.316-.272.457-.28.03 0 .06-.002.088-.006l1.073-.148c.934-.128 1.899-.261 2.85-.385.168-.02.246-.077.323-.231.44-.876.895-1.762 1.336-2.619l.397-.773c.02-.04.044-.077.067-.115l.026-.042c.044-.073.182-.294.4-.29.218.006.338.23.378.304.273.51.534 1.035.786 1.543l.087.175c.342.688.62 1.258.873 1.793a.47.47 0 00.4.296c.776.108 1.564.222 2.325.333a545 545 0 001.594.23l.056.008c.138.015.367.043.446.294.073.236-.09.379-.186.464l-.039.034-.44.41c-.802.75-1.633 1.524-2.455 2.28-.132.12-.166.222-.133.402a278.34 278.34 0 01.672 3.856c.028.14.075.374-.144.514a.388.388 0 01-.211.064" fill="#2F3541"/></g></svg>