<svg version="1.1" id="Layer_1" xmlns="http://www.w3.org/2000/svg" x="0" y="0" viewBox="0 0 400 400" xml:space="preserve" enable-background="new 0 0 400 400"><style>.st0,.st1,.st3{fill-rule:evenodd;clip-rule:evenodd;fill:#a5aeb8}.st1,.st3{fill:#e3e9f4}.st3{fill:#fff}.st11,.st15,.st17,.st18,.st5,.st7,.st8{fill-rule:evenodd;clip-rule:evenodd;fill:#ffedde}.st11,.st15,.st17,.st18,.st7,.st8{fill:#9f7a63}.st11,.st15,.st17,.st18,.st8{fill:#92837a}.st11,.st15,.st17,.st18{fill:#332e3c}.st15,.st17,.st18{fill:#9bd090}.st17,.st18{fill:#9bd091}.st18{fill:#5b2714}</style><g transform="translate(989 -28)"><path id="Fill-1" class="st0" d="M-863.7 305.2c-.2 0-.4-.2-.4-.4s.2-.4.4-.4h22.3c.2 0 .4.2.4.4s-.2.4-.4.4h-22.3z"/><path id="Fill-3" class="st0" d="M-838 360h-.4l.3-77.6h-6.3l-.1 21.9c0 .2-.2.4-.4.4s-.4-.2-.4-.4l.2-22.3c0-.2.2-.4.4-.4h7.2c.1 0 .2.1.3.1.1.1.1.2.1.3l-.3 77.9-.6.1z"/><path id="Fill-5" class="st0" d="M-833.1 360.2c-.2 0-.4-.2-.4-.4l.3-62.1c0-.2.2-.4.4-.4l17.1.1c.2 0 .4.2.4.4l.1 61.8c0 .2-.2.4-.4.4s-.4-.2-.4-.4v-4.4l-.1-57-16.2-.1-.3 61.7c-.1.2-.3.4-.5.4"/><path id="Fill-7" class="st0" d="M-758.8 359.9c-.2 0-.4-.2-.4-.4l.2-18 .2-52.7c0-.1.1-.2.1-.3.1-.1.2-.2.3-.1l41.3.2c.2 0 .4.2.4.4 0 .3-.2.4-.4.4l-40.9-.2-.2 52.3-.2 18c0 .2-.1.4-.4.4"/><path id="Fill-9" class="st0" d="M-841.3 282.2c-.2 0-.4-.2-.4-.4l.2-13.2c0-.3.2-.4.4-.4.3 0 .4.2.4.4l-.2 13.2c0 .3-.3.4-.4.4"/><path id="Fill-11" class="st0" d="M-767.9 284.6c-.2 0-.4-.2-.4-.4v-8.5c0-.2.2-.4.4-.4s.4.2.4.4v8.5c.1.3-.2.4-.4.4"/><path id="Fill-13" class="st0" d="M-864.3 361c-.2 0-.4-.2-.4-.4l.3-61.8h-8.2c-.2 0-.4-.2-.4-.4s.2-.4.4-.4h8.7c.1 0 .2.1.3.1.1.1.1.2.1.3l-.2 62.2c-.2.3-.4.4-.6.4"/><path id="Fill-15" class="st0" d="M-873 361.4c-.2 0-.4-.2-.4-.4l.2-62.4c0-.2.2-.4.4-.4s.4.2.4.4l-.2 62.4c0 .2-.1.4-.4.4"/><path id="Fill-17" class="st0" d="M-868.4 298.7c-.2 0-.4-.2-.4-.4v-8.7c0-.2.2-.4.4-.4s.4.2.4.4v8.7c0 .2-.1.4-.4.4"/><path id="Fill-19" class="st0" d="M-709.4 360.7c-.2 0-.4-.2-.4-.4l.2-50.3-33 .1-.1 49.5c0 .2-.2.4-.4.4s-.4-.2-.4-.4v-4.2l.1-45.8c0-.2.2-.4.4-.4l33.8-.1c.1 0 .3.1.3.1.1.1.1.2.1.3l-.2 50.7c0 .3-.2.5-.4.5"/><path id="Fill-21" class="st0" d="M-841.8 360.5c-.2 0-.4-.2-.4-.4l.3-53.9c0-.2.2-.4.4-.4s.4.2.4.4l-.2 53.9c-.1.2-.3.4-.5.4"/><path id="Fill-23" class="st0" d="M-717 309.9c-.2 0-.4-.2-.4-.4v-20.4c0-.2.2-.4.4-.4s.4.2.4.4v20.4c0 .3-.2.4-.4.4"/><path id="Fill-25" class="st0" d="M-876.3 361.5c-.2 0-.4-.2-.4-.4l.1-45.7h-32.9c-.2 0-.4-.2-.4-.4s.2-.4.4-.4h33.3c.1 0 .2.1.3.1.1.1.1.2.1.3l-.1 46.1c0 .2-.1.4-.4.4"/><path id="Fill-27" class="st0" d="M-915.4 362.8c-.2 0-.4-.2-.4-.4l.2-30.5c0-.1.1-.2.1-.3.1-.1.2-.1.3-.1l26.5.2c.2 0 .4.2.4.4l-.2 29.3c0 .3-.2.4-.4.4s-.4-.2-.4-.4v-2.7l.2-26.1-25.7-.2-.2 30c0 .2-.2.4-.4.4"/><path id="Fill-29" class="st0" d="M-909.6 332.1c-.2 0-.4-.2-.4-.4V315c0-.2.2-.4.4-.4.3 0 .4.2.4.4v16.7c0 .2-.1.4-.4.4"/><path id="Fill-31" class="st0" d="M-706.8 361c-.2 0-.4-.2-.4-.4l.5-60.7c0-.2.2-.4.4-.4h8.6c.1 0 .2.1.3.1.1.1.1.2.1.3l-.2 60.8h-.8V359l.2-58.8h-7.7l-.5 60.3c-.1.4-.2.5-.5.5"/><path id="Fill-33" class="st0" d="M-702.1 300.1c-.3 0-.4-.2-.4-.4l.1-9.1c0-.3.2-.4.4-.4.3 0 .4.2.4.4l-.1 9.1c0 .3-.2.4-.4.4"/><path id="Fill-35" class="st0" d="M-673.7 362.2c-.2 0-.4-.2-.4-.4l.2-36.9-21.5-.1-.3 36c0 .2-.2.4-.4.4s-.4-.2-.4-.4l.3-36.5c0-.2.2-.4.4-.4l22.3.1c.1 0 .2.1.3.1.1.1.1.2.1.3l-.2 37.4c0 .2-.2.4-.4.4"/><path id="Fill-37" class="st0" d="M-763.6 359.8c-.2 0-.4-.2-.4-.4l.2-74.5h-7.9l-.3 74.3c0 .2-.2.4-.4.4-.3 0-.4-.2-.4-.4l.3-74.7c0-.1.1-.2.1-.3.1-.1.2-.1.3-.1h8.7c.2 0 .4.2.4.4l-.2 74.9c0 .1-.2.4-.4.4"/><path id="Fill-39" class="st0" d="M-802.6 360c-.2 0-.4-.2-.4-.4l.2-54.8c0-.3.2-.4.4-.4l26.4.1c.1 0 .2.1.3.1.1.1.1.2.1.3l-.2 54.5c0 .2-.2.4-.4.4-.3 0-.4-.2-.4-.4l.2-54.2-25.5-.1-.2 54.3c-.1.4-.4.6-.5.6"/><path id="Fill-41" class="st1" d="M-793.7 164c4-1.4-1.6-8.4-9.2-10-7.6-1.5-11.7 1.7-11.7 1.7s-4.4-10-17.7-10.1c-12.5-.1-16.7 10.7-16.7 10.7s-5.9-3.2-12-2.5c-9.4 1-16 9-11.8 10.3 3.2 1 22.5 1.1 41.2 1 18 0 35.4-.3 37.9-1.1"/><path id="Fill-43" class="st1" d="M-866.3 207.9c2.6-.9-1.1-5.5-6-6.5s-7.6 1.1-7.6 1.1-2.8-6.5-11.5-6.5c-8.1-.1-10.8 7-10.8 7s-3.8-2-7.7-1.6c-6.1.7-10.4 5.8-7.7 6.7 2.1.7 14.6.7 26.8.7 11.5-.2 22.9-.4 24.5-.9"/><path id="Fill-45" class="st1" d="M-650.9 179.9c3.2-1.1-1.3-6.7-7.4-8-6.1-1.2-9.3 1.3-9.3 1.3s-3.5-8-14.1-8.1c-10-.1-13.4 8.6-13.4 8.6s-4.7-2.5-9.6-2c-7.5.8-12.8 7.2-9.5 8.2 2.6.8 18 .9 33 .8 14.4.1 28.3-.2 30.3-.8"/><path id="Fill-47" class="st0" d="M-942.7 364.1c-.2 0-.4-.2-.4-.4v-54.3c0-.2.2-.4.4-.4h21.1c.3 0 .4.2.4.4V363c0 .2-.2.4-.4.4s-.4-.2-.4-.4v-53.2h-20.2v53.9c-.1.3-.3.4-.5.4"/><path id="Fill-49" class="st0" d="M-667 362.5c-.2 0-.4-.2-.4-.4v-60c0-.2.2-.4.4-.4h17.1c.2 0 .4.2.4.4v20.5c0 .3-.2.4-.4.4s-.4-.2-.4-.4v-20.1h-16.3v59.6c0 .3-.2.4-.4.4"/><path id="Fill-51" class="st0" d="M-639.3 363.8c-.2 0-.4-.2-.4-.4V323h-14.6l-.1 39.9c0 .2-.2.4-.4.4s-.4-.2-.4-.4l.1-40.4c0-.2.2-.4.4-.4h15.5c.2 0 .4.2.4.4v40.8c-.1.3-.3.5-.5.5"/><g id="Group-55" transform="translate(0 434.649)"><defs><filter id="Adobe_OpacityMaskFilter" filterUnits="userSpaceOnUse" x="-955.3" y="-75.4" width="332.5" height="6.2"><feColorMatrix values="1 0 0 0 0 0 1 0 0 0 0 0 1 0 0 0 0 0 1 0"/></filter></defs><mask maskUnits="userSpaceOnUse" x="-955.3" y="-75.4" width="332.5" height="6.2" id="mask-4_00000088109366379796582020000003388461654272231061_"><g filter="url(#Adobe_OpacityMaskFilter)"><path id="path-3_00000124153101858107838920000002215115984657788833_" class="st3" d="M-955.3-75.4h332.6v6.2h-332.6z"/></g></mask><path id="Fill-53" d="M-954.9-69.2c-.2 0-.4-.2-.4-.4s.2-.4.4-.4c53.3-3.6 109.7-5.4 167.7-5.4 56.7 0 111.8 1.7 164 5.2.2 0 .4.2.4.4s-.2.4-.4.4c-52.1-3.4-107.3-5.2-163.9-5.2-58.1 0-114.5 1.7-167.8 5.4" mask="url(#mask-4_00000088109366379796582020000003388461654272231061_)" fill-rule="evenodd" clip-rule="evenodd" fill="#a5aeb8"/></g><path id="Fill-56" class="st5" d="M-815 174.2c0-.6-1.1.1-1.1.1s-4.2 2.7-5.3 3.6c-1.2.8-3.5 2.7-5.2 4.2-1.5 1.3-2.5 2.2-2.5 2.2l.7.9c.9 1.1 1.8 2.2 2.9 3.1 3.9 3.5 8.5 6.2 12.4 9.6 2.2 1.9 4.5 5.6 7.5 6.2.4.1.9-.2 1.4-.2.7.1 1.7.4 2.2 0 2.4-1.6 1.7-5.2 1.1-7.6-1.4-6.1-3.3-11.8-7.8-16.3-1.4-1.4-3.1-2.6-4.7-3.8-.5-.5-1.6-1.1-1.6-2"/><path id="Fill-58" class="st5" d="M-791.4 220.7s1.1 2.1 2.1 4.1c1.1 2.2 2.1 4.2 2.2 5.2.1 1.3.2 2.4.6 3.7.6 2.2 1.4 3.2 1.2 5.6-.1.6-.5 3 .3 3.2.4.1.6-.2.7-.6.4-1 .7-1.9.6-2.9 0-.2 0-1.2.4-1.1.3.1.6.7.7 1.1.4 1.3.3 2.7.7 4 .1.3.3 1.5 1 1.3.3-.1.3-.8.3-1.1 0-.7-.8-3.2.5-3.4.3 0 .5.6.7.7.5 1 .8 2 1.3 2.9.1.1.7 1.2 1.1.9.4-.3.3-.4.3-.7-.1-1.5-1-3.5-1.3-5-.1-.2-.5-1.4.1-1.5.5 0 .9.9 1.1 1.2.7.9 1.3 1.7 1.7 2.4.4.6 1 .8 1.2.7.2-.1.3-.2-.3-1.7-.7-1.7-1.3-3.3-2.2-4.6-.8-1.2-2.6-2.8-3.3-4.1-.8-1.3-1.2-1.8-1.7-3.3-.6-1.6-1.2-3.2-1.6-4.8-.3-1.2-1.2-4.7-1.2-4.7s-1.2-.2-2-.2c-.5 0-1 .1-1.5.2s-1 .3-1.5.6c-.9.5-2.2 1.9-2.2 1.9"/><path id="Fill-60" class="st5" d="M-763.3 239.4s1.1 3 1.4 3.8c1.1 3.4 1.3 5.7 2.1 9.2.2 1.2 1.2 3.1 1.3 4.2.2 1.7-.6 3.7.4 5.3.4.6 1.3-.7 1.4-.8.2-.5.5-2.3 1-3.3.3-.5.6-.8 1.1-.6 1.2.4 3.4 2.3 4 3.4.7 1.2 1.3 3.1 1.7 3.8.2.4 1 .7 1 .7s.7.9 1 .9c1.3.2.7-3 .7-3s.9-.6.8-1.6c-.1-1-.4-3.5-.8-4.4-.5-1.1-1.7-1.7-2.7-2.4-.5-.4-1.1-1-1.5-1.4-1.7-1.7-3.3-3.8-4.3-6.2-.7-1.7-1-3.2-1.2-5.1-.1-.8-.5-3.9-.5-3.9s-.8.7-1 .7c-.7.3-1.2.7-2 .9-.9.2-2 .1-2.9 0l-1-.2"/><path id="Fill-62" class="st5" d="M-760 197c.4.2 1.2 1 1.7.9.8-.2 1.1-1.1 2-1.1 2.2.2 4.5.8 6.3.7 1.8-.2 3.4-.3 3.8-1 .8-1.3-.7-3.7-1.2-5.1-1-2.7-2.7-5.7-5.6-6.7-1.7-.6-3.3-.5-5.1-.7-.8-.1-3.1-2.2-3.1-2.2s.3 3.7.3 4.5c0 3.2-.2 10.2-.2 10.2s.7.5 1.1.5"/><path id="Fill-64" d="M-809.9 99.9c0 .1 0 .1 0 0 .2.2.2.6.2.9-.1.2-.2.7-.4.6-.2-.1-.5-1.2-.3-1.4 0-.1.2-.2.5-.1m-.4-3.1c-1 0-1.9.7-2.2 2.3-.4 2.3 1.1 4.7 1.1 4.7s0 12.6.2 24.5c.2 7.7-.1 14.5 1.4 19.8 1.7 6.2 5.7 7.6 8.2 8.6 3.2 1.2 4.8 1.2 4.8 1.2s6 .2 8.9-.6c.2-.1 3.7-1.2 5.9-2.9 1.4-1.2 2-2.2 2.6-4.7.8-3.6.8-8 .2-12.1-.5-3.9-1.8-7.6-2.1-7.7-.2-.2-2.6 10.2-2.6 10.2s1.9-2 2.5.3c.5 2-.6 8.5-.9 9.3-1.7 4.4-7.8 5.2-7.7 4.8 0 0-4.7.5-6.4.2-2.2-.3-5.2-1.1-7.6-2.9-1.6-1.2-2.9-3.2-3.7-5.5-.8-2.9-1-6.2-1.2-9.9-.2-3.6-.3-7.7-.4-11.7-.1-10.7-.1-21.5-.1-21.5s1.6-2.1 1-4.4c-.3-1.5-1.2-2-1.9-2" fill-rule="evenodd" clip-rule="evenodd" fill="#a5acbc"/><path id="Fill-66" class="st7" d="M-760.9 183.7s.7.8 1.3 1c.7.2 1.4.7 2.4.9 1 .2 2.6-.2 3.2.9.3.7-.1 1.5-.1 2.2.1 1.3.7 2.5 1.7 3.3 1.3 1.1 5.4 1.5 5.5 3.5.1 1.3-1 1.7-2.2 1.9-.2.1-1.7.3-1.7.3s1 1.5 2.7 1.6c2.6.1 3.8-1.4 4.6-2.3 1.1-1.4 1.7-3.2 2.4-5.1.9-2.4 1.8-5.2 1.7-7.7-.1-1.7-1-3.2-1.4-4.6-.4-1.4-.3-2.5-1.3-3.6-3.9-4.5-9.2-3.7-14.1-1.6-1.6.7-3 2.1-4.1 2.7-1.1.6-2.1.7-2.1.7s.6 2.7.9 3.7c.3.5.6 2.2.6 2.2"/><path id="Fill-68" class="st8" d="M-860 281.8s-1.7 1.1-2.3 1.4c-2.2 1-4 1.2-5.6 3.2-.8 1.1-1.6 3.5-1.8 4.8-.5 2.6-1.1 5.5-1.9 7.6-.3.8-.6 2-.7 2.9-.2 2.2 1.4 4.4 3.5 6.2 1.2 1.1 2.7 2.2 4 2.4.9.1 1.9-1.9 2.1-2.5.7-2.2 1.5-4.7 2.5-6.8 1.2-2.5 1.6-3.8 3.2-6.1.5-.7 3.2-4.2 3.2-4.2s-1.3-5.7-2.9-7.3c-1.1-1-3.3-1.6-3.3-1.6"/><path id="Fill-70" class="st8" d="M-858.6 279.7s-1.2-1.3-1.4-1.8c-1.3-2-1.7-5.7-1.6-8 .1-3.4-1.3-7-.8-10.4.1-.5.5-1.2.9-1.7.9-1 2.6-1.4 3.9-2.1 1.5-.7 2.9-1.7 2.9-1.7s1 2 1.3 2.2c1.1 1.1 4.4 2.2 4.6 3.9.2 2.2-1.2 3.9-1.7 6-.2 1-.6 2.9-.3 4 .1.4.2 1.9.2 1.9s-1.5 1.7-2.2 2.3c-.9.8-2.3 2.1-3.5 3.2-.8.9-2.3 2.2-2.3 2.2"/><path id="Fill-72" d="m-816.2 174.4-5.9 4s-1.7-6.3-.1-7.2c2.3-1.4 5-1.7 8.7-2.7 2.6-.7 6-1.7 8.5-3.1 1.6-.9 3.7-2.5 5.2-3.9 1.8-1.7 3.1-3.3 3.1-3.3s1.3-.3 2-1.2c.7-.8.7-2.2.7-2.2s1.6-1 2.7-.2c2 1.4 4.2 4.1 8.2 7.3 2.9 2.3 6.7 4.4 10.1 6.3 2.9 1.6 5.6 3 7.7 5 3.1 2.9 3.9 8 4.2 9.6.2.7.4 4.2.3 8.3-.2 5.7-.7 13.1.2 20.4.7 6 1.8 8.7 3 13.2.6 2.3 1.1 6.8 1.4 9.6.2 1.6.5 1.8.3 2.8-.3 1.5-2.5 2.4-4.6 2.6-1.3.1-2.3-.2-3.6-.7-1.2-.4-2.8-6.1-4.1-10.2-.8-2.8-2.1-6.5-2.7-9.3-.7-3.5-.7-6.9-1.4-10.5-1-5.4-2.3-10.6-2.3-10.6l-11 1.3s-.7 2.6-1.3 4.2c-.4 1.2.6 3.6.6 3.6l1.3 7.6.9 3.4s-2.2-.5-5 .4c-2 .7-3 2.2-3 2.2s-.7-.8-1.9-3.8c-1.3-3-3.2-8.1-3.2-8.1l-.6-5.4s-1 .7-1.8 1.2c-.8.4-1.4.3-1.4.3s-.1-3.4-1.3-8.1c-.8-3-2.2-6.6-3.7-9.6-1.7-3.3-3.7-6.6-5.6-8.8-2.4-2.9-4.6-4.4-4.6-4.4" fill-rule="evenodd" clip-rule="evenodd" fill="#002f57"/><path id="Fill-74" d="M-828.7 183.7s4 .1 9 2.2c1.8.7 3.9 1.9 5.7 3.2 1.9 1.4 3.7 2.7 5.3 4.3 1.7 1.7 3.4 3.8 4.7 5.5.7.9 1.6 2.2 2.1 3.1.7 1.4.9 2.2.9 2.2s-.6.9-.9 1.8c-.3.9-.4 2.2-.7 3.3-.2.9-.7 1.7-.8 2.4-1 4.5-2.7 11.1-5 18.6-1 3.4-2.2 7.1-3.4 10.8-2.2 6.7-4.4 14-7.4 19.7-1.4 2.6-4.2 4.5-6.2 6.6-3.2 3.2-7.5 6.7-11.1 9.2-2.8 2-4.7 2.7-7.2 4.4-1.8 1.2-3.8 4.2-5.1 5.4-.7.7-1.7 1.1-2.2 1.6-.9.9-1.2 1.8-1.7 2.3-.7.7-1.2.7-1.2.7s-.8-.9-1.4-2.7c-.6-1.7.1-2.7-1.2-4.4-1.3-1.7-4-2.2-4-2.2s.4-1 2.4-2.8c2-1.9 5.5-4.8 5.5-4.8l9.2-9.9s5-3.6 7.7-6.2c2.7-2.7 2.6-3 3-4.2.5-1.2.5-2.3.5-2.3s-.8.6-2.2 1.2c-1.6.7-3.9 1.6-6.2 3.1-2.5 1.6-4.7 3.8-6.6 5.2-1.2 1-2.1 1.4-2.1 1.4s.7-1.3-.3-2.7c-1-1.3-2.4-1.4-3.8-2.7-1.5-1.3-1.8-2.6-1.8-2.6s-.4-.3.8-1.4c.7-.6 2.2-1.3 3.5-2.2 2.2-1.5 4.1-4.2 6.3-6.9.9-1.2 3.2-3.1 4-3.9 3.6-3.6 4.7-3.6 4.2-7.2-.5-2.9-2.5-11.3-2.8-14.3-.2-2.1-.3-6.4-.5-8.4s-1.1-5-1.1-6.7c0-4.6 1.5-7.8 3.3-10.6 1.7-2.6 3.9-4.6 3.9-4.6s1.5-2.2 2.5-3.2c1.1-1.2 2.4-1.3 2.4-1.3" fill-rule="evenodd" clip-rule="evenodd" fill="#c3baa9"/><path id="Fill-76" class="st11" d="M-828.7 184.2c-.1 0-.3-.1-.3-.2-.2-.2-.2-.4 0-.6 3.7-3.3 8.2-6.7 12.6-9.5.2-.1.4-.1.6.2.1.2.1.4-.2.6-4.4 2.7-9 6.2-12.6 9.4.1 0 0 .1-.1.1"/><path id="Fill-78" class="st11" d="M-746.6 266.5c-.5 0-1-.5-1.4-1.2-.1-.2 0-.4.2-.6.2-.1.4 0 .6.2.2.6.6.7.6.7s.1-.1.2-.6-.1-3.9-.2-4.3c-.3-2-.9-3-2.3-5.3-.6-1-1.5-2-2.3-3-1.2-1.3-2.3-2.7-2.9-3.9-1.7-3.5-2.1-6.8-2.4-10.6 0-.2.2-.4.4-.4s.4.2.4.4c.3 3.7.7 6.9 2.3 10.3.6 1.2 1.7 2.5 2.8 3.7.9 1 1.8 2.1 2.4 3.1 1.4 2.2 2.1 3.4 2.5 5.7.1.5.2 4 .2 4.7-.2.9-.6 1.2-.8 1.2-.2-.1-.2-.1-.3-.1"/><path id="Fill-80" class="st11" d="M-761.1 240.1c-1.7 0-3.7-.6-4.2-2.3-.1-.2-.2-.5-.3-.8-.9-2.4-2.7-6.8-4.5-14.1-1.1-4-1.5-7.3-1.8-10.6-.3-2.4-.6-4.7-1.1-7.2-1-4.7-2.6-10.8-3.3-12.9-.1-.2.1-.4.2-.5.3-.1.4.1.5.2.7 2.2 2.3 8.3 3.3 13 .5 2.5.8 4.7 1.1 7.2.4 3.2.8 6.6 1.8 10.5 1.9 7.2 3.6 11.6 4.5 14 .2.3.2.7.3.9.7 2 3.7 1.8 4.2 1.7 1.6-.2 3-.7 3.7-1.6.2-.2.4-.6.3-1-.2-1.6-.5-3.9-.7-5.9-.2-1.7-.4-3.3-.5-3.7-.4-2.5-1.1-4.9-1.6-7.3-.6-2.5-1.2-5.2-1.7-7.9-.8-5-.6-11.7-.3-17.5.1-1.8.2-3.6.2-5.1.1-3-.2-7.2-1.2-10.2-1.2-3.7-3.5-6.3-6.7-8.1-3.6-2-10.3-5.8-15.1-9.4-1.7-1.3-3.1-2.7-4.3-4.1-1-1-1.8-1.9-2.6-2.4-.7-.5-1.8-.4-2.7 0v.2c-.1.5-.1 1.3-.7 2-.7.7-1.7 1.1-2.1 1.2-2.3 2.9-4.9 5.2-7.7 6.8-4.6 2.7-8 3.4-11 4-2.2.4-4.3.8-6.7 2.1-.2.1-.4 0-.6-.2-.1-.2 0-.4.2-.6 2.5-1.2 4.7-1.7 7-2.2 3.1-.6 6.3-1.2 10.7-3.9 2.7-1.7 5.2-3.9 7.6-6.7.1-.1.2-.1.2-.2 0 0 1.2-.3 1.8-1 .4-.5.5-1.1.5-1.5 0-.3.1-.7.3-.8 1-.5 2.6-.7 3.7 0 .8.6 1.7 1.5 2.7 2.6 1.2 1.2 2.6 2.7 4.2 4 4.7 3.6 11.3 7.4 14.9 9.3 3.5 1.9 5.8 4.7 7.2 8.6 1 3 1.3 7.3 1.2 10.5 0 1.6-.1 3.3-.2 5.2-.2 5.8-.5 12.5.3 17.3.4 2.7 1.1 5.3 1.7 7.8.6 2.3 1.2 4.8 1.7 7.3.1.4.2 1.9.5 3.7.2 2 .5 4.3.7 5.9.1.5-.1 1.1-.5 1.6-.8 1-2.4 1.7-4.2 1.9-.3.2-.6.2-.9.2"/><path id="Fill-82" class="st11" d="M-747.8 265.4c-.2 0-.6-.1-.9-.3-.5-.3-.7-1.1-1.1-2-.3-.8-.7-1.7-1.2-2.5-.7-.9-1.7-1.7-2.6-2.4-1.2-.9-2.3-1.8-3.2-3.1-.2-.2-.1-.4.1-.6.2-.2.4-.1.6.1.7 1.2 1.8 2 2.9 2.8 1 .7 1.9 1.5 2.7 2.5.7.8 1 1.8 1.3 2.7.3.7.5 1.4.7 1.6s.4.2.5.2c.1-.1.2-.3.1-.8-.1-.2-.1-.6-.2-.9-.2-.8-.3-1.7-.6-2.4-.3-.5-.6-1.1-.9-1.7-.3-.6-.7-1.2-1-1.7-.1-.2 0-.4.2-.6.2-.1.4 0 .6.2.3.5.6 1.1.9 1.7.3.6.7 1.1 1 1.7.4.7.6 1.7.7 2.7.1.3.1.6.2.9.2 1.1-.2 1.6-.4 1.7 0 .1-.2.2-.4.2"/><path id="Fill-84" class="st11" d="M-757.8 262.5c-.2 0-.4-.1-.6-.2-.7-.5-.6-1.7-.5-3 0-.6.1-1.2.1-1.7 0-1.2-.3-1.8-.6-2.5-.2-.4-.3-.8-.5-1.4-.3-.8-.4-2-.7-3.2-.2-1.2-.5-2.5-.7-3.5-.7-2.8-1.6-5.2-2.6-7.6-.1-.2 0-.4.2-.6.3-.1.4 0 .6.2 1 2.4 1.8 4.8 2.7 7.7.2 1 .5 2.2.7 3.5.2 1.2.4 2.2.7 3.1.1.5.2.9.4 1.3.2.7.6 1.5.7 2.8 0 .7 0 1.2-.1 1.8-.1.9-.2 2 .2 2.2.1.1.2.1.2.1.3-.1.7-.7 1.1-1.9.1-.2.2-.5.2-.7.2-1 .5-2.2 1.9-2.3.2 0 .4.2.4.4s-.2.4-.4.4c-.7 0-.9.5-1.2 1.7-.1.3-.1.6-.2.8-.3 1-.8 2.2-1.7 2.5h-.3z"/><path id="Fill-86" class="st11" d="M-745.9 263.2c-.2 0-.3-.1-.4-.3-.1-.2 0-.4.2-.5.6-.2.5-1 .1-3.2l-.2-.7c-.3-1.7-.7-1.9-1.7-2.6-.6-.4-1.3-.8-2.2-1.7-.2-.2-.2-.4 0-.6.2-.2.4-.2.6 0 .9.8 1.6 1.3 2.2 1.7 1.1.7 1.7 1.2 2 3.1l.2.7c.4 2.4.7 3.7-.6 4.2h-.2z"/><path id="Fill-88" class="st11" d="M-801.2 205.9h-.2c-.2 0-.4-.2-.4-.4s.2-.4.4-.4c1.2.1 3-1.3 4.7-2.5 1.3-1 2.7-2 3.7-2.3 2.8-.7 5.8-.9 8.8-1.1 2.7-.2 5.6-.3 8.2-1 .2-.1.4.1.5.3.1.2-.1.4-.3.5-2.7.7-5.5.8-8.3 1-2.9.2-5.9.3-8.7 1.1-.9.2-2.2 1.2-3.5 2.2-1.6 1.2-3.4 2.6-4.9 2.6"/><path id="Fill-90" class="st11" d="M-854.1 291.6c-.2 0-.3-.1-.4-.3-.1-.2.1-.4.3-.5 1.1-.2 1.3-.7 1.7-1.3.4-.7 1-1.4 2.4-2.4s2.2-1.8 2.9-2.8c.7-1 1.6-2 3.1-3.2 1.6-1.2 2.7-1.8 3.9-2.5 1.1-.6 2.2-1.2 3.8-2.3 2.7-1.9 5.7-4.5 9.8-8.3.6-.6 1.2-1.1 1.7-1.6 2.2-1.9 3.9-3.4 4.9-5.1 2.2-3.5 3.6-7.8 5.8-14.3.6-1.8 1.2-3.7 2.1-5.9 1.8-5.2 4.2-14 6.1-21.1 1-3.7 1.8-6.8 2.4-8.7.1-.2.3-.3.5-.2.3.1.3.3.3.5-.6 1.9-1.4 5.1-2.4 8.7-1.9 7.1-4.2 15.9-6.1 21.1-.7 2.2-1.4 4.1-2 5.9-2.2 6.6-3.7 10.9-5.9 14.5-1.1 1.7-2.8 3.3-5.1 5.2-.6.5-1.2 1-1.7 1.6-4.2 3.8-7.2 6.4-9.9 8.3-1.7 1.2-2.8 1.8-3.9 2.4-1.2.6-2.2 1.2-3.7 2.4-1.4 1.2-2.2 2.1-3 3-.8 1-1.6 2-3.1 3-1.2.8-1.7 1.6-2.2 2.2-.5.7-.9 1.3-2.2 1.7-.1-.1-.1 0-.1 0"/><path id="Fill-92" class="st11" d="M-860.5 282.5c-.1 0-.2 0-.2-.1-.2-.1-.3-.3-.2-.6 1-1.9 3-3.6 5-5.2 1.2-1 2.3-1.9 3.2-2.9l1-1.1c2.3-2.6 6.2-6.9 8.1-8.7 1.2-1.2 2.6-2.2 3.9-3.2 2.2-1.7 4.4-3.4 6.1-5.9 1.5-2.2 1.4-4.2 1.3-7.5-.1-1.7-.1-3.5 0-5.9.2-2.9.4-5.7.7-8.7.4-4.2.8-8.4.9-13.2.1-4.2-.5-8.6-1.1-12.6 0-.2.1-.4.3-.5.2 0 .4.1.5.3.6 4.1 1.2 8.5 1.1 12.8-.1 4.9-.5 9.2-.9 13.3-.3 2.9-.6 5.7-.7 8.7-.2 2.3-.1 4.2 0 5.8.1 3.2.2 5.4-1.5 7.9-1.7 2.6-3.9 4.3-6.2 6.1-1.2 1-2.6 2-3.8 3.2-1.8 1.7-5.7 6.1-8.1 8.7l-1 1.1c-.9 1-2.1 2-3.2 3-1.9 1.6-3.8 3.2-4.7 5-.2.1-.4.2-.5.2"/><path id="Fill-94" class="st11" d="M-848.9 262.5c-.2 0-.3-.1-.4-.2-.1-.2 0-.4.2-.6.8-.4 1.9-1.3 3.1-2.4 1.2-1.1 2.6-2.4 4.3-3.6 2.1-1.4 3.2-1.9 4.6-2.5.9-.4 1.9-.8 3.4-1.7.2-.1.4 0 .6.2.2.2 0 .4-.2.6-1.5.8-2.5 1.2-3.4 1.7-1.3.6-2.5 1.1-4.5 2.5-1.7 1.2-3 2.3-4.2 3.5-1.3 1.1-2.4 2.1-3.5 2.5z"/><path id="Fill-96" class="st11" d="M-835.8 234.2c-.2 0-.4-.2-.4-.4-.1-1.6-.6-4.1-1.2-6.8-.6-2.5-1.2-5.4-1.7-8.5-.2-1.1-.3-3-.4-4.9-.2-2.5-.4-5.3-.7-6.9-1.3-6.5.3-12.1 4.8-17.1l.4-.4 2.2-2.2c.4-.5.7-.9 1-1.3.8-1.2 1.6-2.2 3.2-2.2.2 0 .4.3.4.4 0 .2-.2.4-.4.4-1.1-.1-1.5.5-2.4 1.8-.3.4-.7.9-1.1 1.4-.7.8-1.7 1.8-2.2 2.3l-.3.3c-4.4 4.7-5.9 10.1-4.6 16.3.3 1.7.5 4.3.7 7 .2 1.9.3 3.7.4 4.9.5 3.1 1.1 5.9 1.7 8.5.7 3 1.2 5.3 1.2 7-.2.2-.4.4-.6.4"/><path id="Fill-98" class="st11" d="M-855.4 254.9c-.1 0-.2 0-.2-.1-.2-.1-.2-.3-.2-.6.9-1.6 1.9-2.2 3.8-3.3l.5-.2c1.2-.7 2.9-2.5 3.9-3.9 2.4-3.4 7-7.9 11.7-11.6.2-.2.4-.1.6.1.2.2.1.4-.1.6-4.6 3.6-9.2 8.1-11.5 11.4-.8 1.2-2.7 3.2-4.2 4.1l-.5.2c-1.8 1-2.7 1.6-3.6 3 .1.2-.1.3-.2.3"/><path id="Fill-100" class="st11" d="M-864.7 310.6c-.2 0-.4-.2-.4-.4s.3-.4.4-.4c1.1 0 2.2-3.7 2.5-4.8.1-.2.2-.5.2-.7 1.2-3.9 3.7-9.4 7.7-13.6.2-.2.4-.2.6 0 .2.2.2.4 0 .6-3.8 4.1-6.2 9.4-7.4 13.2-.1.2-.1.3-.2.6-.9 2.6-1.8 5.5-3.4 5.5"/><path id="Fill-102" class="st11" d="M-865.9 285.7c-.4 0-.8.2-1.4.9-1.5 1.7-2.1 5.5-2.5 8l-.1.7c-.2 1-.6 2-.9 2.9-.7 1.9-1.6 4-.6 5.7 1.2 2.2 5.4 5.8 6.2 5.7 1.1-.1 1.1-1.7.9-4.5 0-1-.1-2-.1-3 .1-3.8.9-6.7 1.8-10 .8-2.7-.2-4.7-1.3-5.4-.2-.2-.4-.2-.6-.4-.4-.2-.9-.6-1.4-.6m.7 24.9c-1.5 0-5.9-4.2-7-6.2-1.2-2.2-.2-4.4.5-6.5.4-1 .7-1.9.9-2.7l.1-.7c.4-2.6 1-6.5 2.7-8.4 1.7-2 3.1-1 4.2-.2.2.2.3.2.5.4 1.3.9 2.7 3.2 1.7 6.3-.9 3.2-1.7 6-1.8 9.7 0 1 0 2 .1 3-.1 2.8 0 5.3-1.9 5.3"/><path id="Fill-104" class="st11" d="M-868 287.3c-.1 0-.2 0-.2-.1-.2-.2-.2-.4-.1-.6 1.4-2 3.1-2.7 4.7-3.2 1.2-.4 2.3-.9 3.5-1.8.2-.2.4-.1.6.1.2.2.1.4-.1.6-1.2 1-2.5 1.5-3.7 1.9-1.6.6-3.1 1.2-4.3 2.9-.2.1-.3.2-.4.2"/><path id="Fill-106" class="st11" d="M-866.2 310.1s-.1 0 0 0c-.2 0-.5-.2-.4-.4 0-.2.2-.4.4-.4s.3-.1.4-.2c.5-.5.4-2.1.3-2.7v-.2c-.2-3.7.2-9.2 1.5-12.9.4-1.3.7-2.3.6-2.8-.2-1.3-1.6-2.6-3-3.2-.7-.3-1.2-.2-1.3-.2-.2.2-.4.2-.6 0-.2-.2-.2-.4 0-.6.6-.5 1.6-.3 2.2 0 1.6.6 3.3 2 3.5 3.8.1.7-.3 2.2-.7 3.2-1.2 3.7-1.6 9-1.4 12.6v.2c.1 1 .2 2.7-.6 3.4-.1.3-.5.4-.9.4"/><path id="Fill-108" class="st11" d="M-858.8 279.8c-.1 0-.2-.1-.3-.2-2.6-3-2.7-5.2-2.8-8.4-.1-1.8-.2-3.8-.7-6.5-1.2-6.1.5-7.6 1.7-7.9 1.7-.5 3.3 1.5 4 3 .7 1.7 1.1 3.8 1.1 6.5-.1 1.9.2 6.2 1.9 8.9.1.2.1.4-.2.6-.2.1-.4.1-.6-.2-1.7-2.8-2.1-7.3-2-9.3.1-2.6-.2-4.6-1-6.2-.6-1.2-1.9-2.8-3-2.6-1.5.4-1.8 3-1.1 6.9.6 2.7.7 4.8.7 6.7.2 3.1.3 5.2 2.6 7.9.2.2.2.4-.1.6 0 .2-.1.2-.2.2"/><path id="Fill-110" class="st11" d="M-850.7 272.4c-.2 0-.3-.2-.4-.3-.5-2.7.2-6.7 1.5-9.7.1-.2.3-.3.6-.2.3.1.3.3.3.6-1.5 3.3-1.7 7.2-1.4 9.2-.1.1-.3.4-.6.4.1 0 0 0 0 0"/><path id="Fill-112" class="st11" d="M-861.9 258.5c-.1 0-.2 0-.3-.1-.2-.2-.2-.4-.1-.6.8-.9 1.7-1.2 2.8-1.7 1.1-.4 2.4-1 4.3-2.2.2-.2.4-.1.6.1.2.2.1.4-.1.6-2 1.3-3.4 1.8-4.5 2.3-1.1.4-1.8.7-2.5 1.5 0 .1-.1.1-.2.1"/><path id="Fill-114" class="st11" d="M-855.4 276.8c-.2 0-.2-.1-.3-.2-1.4-2.2-2.2-5.2-2.2-8.6 0-2.9 0-5.4-.7-6.9-.3-.6-.9-1.7-1.5-2.1-.4-.3-.8-.5-1.2-.4-.3.1-.4.2-.6.5-.1.2-.3.2-.6.2-.2-.1-.2-.3-.2-.6.2-.5.7-.8 1.2-.9.6-.1 1.2.1 1.8.6.7.6 1.4 1.8 1.7 2.4.8 1.7.8 4.2.8 7.2 0 3.2.7 6.1 2 8.1.2.2.1.4-.1.6.1 0 0 .1-.1.1"/><path id="Fill-116" class="st11" d="M-853.8 291.2c-.1 0-.2 0-.2-.1-1-1-1.2-2.3-1.5-3.7-.3-2.2-.7-4.3-4.6-5.2-.2-.1-.3-.2-.3-.5.1-.2.3-.3.5-.3 4.4 1 4.8 3.6 5.2 5.9.2 1.2.4 2.4 1.2 3.2.2.2.2.4 0 .6-.1.1-.2.1-.3.1"/><path id="Fill-118" class="st11" d="M-849.2 262.8h-.2c-.3-.1-.3-.3-.3-.5.8-2.3.1-2.7-1.8-3.9l-.6-.3c-2.6-1.5-3-2.9-3.2-4.2 0-.2.2-.4.3-.5.2 0 .4.2.5.3.2 1.2.5 2.3 2.7 3.7l.6.3c2 1.2 3.3 1.9 2.2 4.9.1.1-.1.2-.2.2"/><path id="Fill-120" class="st11" d="M-758.3 198.4h-.2c-.5-.1-1-.5-1.3-1-.1-.2 0-.4.2-.6.2-.1.4 0 .6.2.2.3.5.6.7.6.2 0 .2 0 .4-.2.1-.1.1-.2.2-.2.5-.6 1-.9 2.7-.6.2.1.3.3.3.5-.1.3-.2.3-.5.3-1.3-.2-1.5 0-1.8.3l-.2.2c-.6.4-.8.5-1.1.5"/><path id="Fill-122" class="st11" d="M-753.2 196.9c-.1 0-.2 0-.2-.1-.8-.7-.8-2.8-.8-3.2 0-.2.2-.4.4-.4s.4.2.4.4c0 .8.2 2.2.5 2.6.2.2.2.4 0 .6 0 0-.1.1-.3.1"/><path id="Fill-124" class="st11" d="M-754.2 189.1c-.1 0-.2 0-.3-.1-.2-.2-.2-.4 0-.6.4-.4.6-.9.4-1.3-.2-.6-.9-1-1.6-1-.8 0-3 .5-3.1 1.7 0 .3-.2.4-.4.4-.3 0-.4-.2-.4-.4.1-1.9 2.8-2.6 4-2.5 1.1.1 2 .7 2.3 1.6.2.4.3 1.3-.6 2.2h-.3"/><path id="Fill-126" class="st11" d="M-756.8 188.3c-.2 0-.3-.1-.4-.3-.1-.2.1-.4.2-.5.6-.2.7-.3.7-.3.2-.2.4-.2.6 0 .2.2.2.4 0 .6-.1 0-.3.2-1.1.5"/><path id="Fill-128" class="st11" d="M-741.8 196.4c-.2 0-.4-.2-.4-.3-.2-1.5.4-3.1 1.1-5 1.2-3.2 2.6-6.7.2-10.8-.1-.2-.1-.4.2-.6.2-.1.4-.1.6.2 2.6 4.4 1 8.4-.2 11.6-.7 1.7-1.2 3.2-1.1 4.5 0 .1-.1.3-.4.4"/><path id="Fill-130" class="st11" d="M-762 178.3c-.2 0-.4-.2-.4-.3 0-.2.2-.4.3-.5.9-.2 1.9-.8 3.1-1.7 2.1-1.5 4.7-3.2 8.7-3.2.2 0 .4.2.4.4 0 .3-.2.4-.4.4-3.6 0-6.2 1.7-8.2 3.2-1.2.8-2.3 1.6-3.5 1.7.1 0 .1 0 0 0"/><path id="Fill-132" class="st11" d="M-757.2 186.3c-.1 0-.2 0-.2-.1-.1-.1-.2-.1-.3-.2-.7-.2-1.7-.7-1.9-2.4 0-.2.2-.4.4-.4s.4.2.4.4c.1 1.2.7 1.4 1.4 1.7.2.1.4.2.5.2.2.2.2.4.1.6-.1.1-.2.2-.4.2"/><path id="Fill-134" d="M-755.8 196c.4.1.8-.1 1-.4.1-.3-.2-.7-.6-.7-.4-.1-.8.1-1 .4-.1.2.1.7.6.7" fill-rule="evenodd" clip-rule="evenodd" fill="#2f3541"/><path id="Fill-136" class="st11" d="M-750.8 198c-.5 0-1.1-.1-1.6-.2-.3-.1-.3-.3-.3-.5s.2-.3.5-.3c1.4.2 2.8.2 4.4-.4.3-.1.4.1.5.2.1.2-.1.4-.2.5-1.2.6-2.2.7-3.3.7"/><path id="Fill-138" class="st11" d="M-746.8 196.5c-.3-.1-.4-.3-.3-.5.3-1.1-.5-1.4-2.4-2-1.9-.6-4.5-1.3-4.1-4.3 0-.2.2-.4.5-.3.2 0 .4.2.3.5-.3 2.2 1.2 2.7 3.5 3.4 1.7.5 3.6 1.1 3 3-.1.1-.3.2-.5.2"/><path id="Fill-140" class="st11" d="M-747.5 199.9c-1.6 0-2.8-.7-3.3-2-.1-.3 0-.4.3-.5.2-.1.4 0 .5.2.3.9 1.3 1.5 2.6 1.5 1.4 0 3.2-.8 3.9-2.7.1-.2.3-.3.5-.2.3.1.3.3.3.5-.9 2.2-3.1 3.2-4.8 3.2"/><path id="Fill-142" class="st11" d="M-741.4 177.8c-.2 0-.3-.2-.4-.3-.6-2.3-2.2-3.4-5.9-3.9-.2 0-.4-.2-.3-.5 0-.2.3-.4.5-.3 3.4.5 5.8 1.4 6.7 4.6.1.2-.1.4-.3.5h-.3z"/><path id="Fill-144" class="st11" d="M-780.3 240.3c-1.4 0-1.9-2-2.2-3-.2-.7-.7-1.4-1.4-2.2-.7-.8-1.4-1.7-2-2.9-.1-.2 0-.4.2-.6.2-.1.4 0 .6.2.5 1.1 1.2 2 1.9 2.7.7.9 1.3 1.7 1.6 2.6.4 1.7.9 2.5 1.5 2.3.2 0 .3-.2.1-1.2-.1-.6-.2-1.2-.2-1.8 0-1.2-.1-1.4-.6-2.3-.2-.3-.4-.8-.7-1.5-.1-.2 0-.4.2-.6.2-.1.4 0 .6.2.3.7.6 1.1.7 1.4.5.9.7 1.3.7 2.7 0 .6.1 1.2.2 1.7.2.9.3 2-.7 2.2-.3.1-.4.1-.5.1"/><path id="Fill-146" class="st11" d="M-784 220.2c-.1 0-.2 0-.2-.1-.2-.1-.3-.3-.2-.6.3-.4-.2-1.7-.7-3.4-.3-1.2-.5-2.5-.7-3.8-.2-2.1-.5-4.2-1.5-6-.1-.2 0-.4.2-.6.2-.1.4 0 .6.2 1.1 2 1.3 4.2 1.7 6.3.2 1.3.3 2.6.7 3.7.7 2.3.9 3.4.6 4.1-.1.1-.3.2-.5.2"/><path id="Fill-148" class="st11" d="M-777 245c-1.2 0-2.1-2.2-3.1-5.1-.1-.2.1-.4.2-.5.3-.1.4.1.5.2.5 1.4 1.4 4.2 2.2 4.5 0-.4-.3-1.6-.6-2.2-.2-.4-.2-.7-.3-1.1-.1-.3-.9-3.4-.4-3.9.1-.1.2-.2.4-.1.7.2 2.2 2.3 2.4 2.8.7 1.2 1.4 1.6 1.6 1.6 0-.2-.3-.8-.6-1.2-.2-.4-.5-.9-.7-1.5-.7-1.5-.9-2.2-1.6-3-.3-.3-.8-1.1-1.5-1.8-.9-1.1-1.8-2.2-2.2-2.7-1.5-2.4-2.5-5.5-3.2-8.2-.1-.3-.2-1.1-.5-2.1l-.5-1.8c-.1-.2.1-.4.3-.5.3-.1.4.1.5.3l.5 1.8c.2 1.1.4 1.8.5 2.1.7 2.7 1.7 5.7 3.2 8.1.3.5 1.2 1.7 2.2 2.7.7.7 1.2 1.5 1.6 1.9.7.9 1 1.6 1.7 3.2.2.5.4 1 .7 1.4.5.9.8 1.5.6 2-.1.2-.2.3-.5.4-.6.2-1.7-.3-2.6-2-.6-.9-1.1-1.7-1.5-2.1.1.7.2 1.7.5 2.6.1.3.2.7.3 1.1.5 1.6.8 2.5.5 3-.1-.1-.3.1-.6.1.1 0 0 0 0 0"/><path id="Fill-150" class="st11" d="M-781.1 244.7c-1 0-1.2-1.2-1.6-3.2v-.2c-.1-.3-.1-.7-.2-1-.1-.6-.2-1.2-.3-1.7 0 .5-.1 1.1-.3 1.7-.1.4-.2.7-.2 1.1-.2.7-.2 1.3-.7 1.6-.2.1-.3.2-.7.1-.8-.2-.7-2.1-.7-3.2.1-1.2.2-1.8-.2-3.2-.2-.5-.2-.9-.3-1.2-.1-.5-.2-.8-.5-1.6s-.4-1.8-.5-2.7c-.1-.9-.2-1.7-.4-2.5-.2-.6-1.9-3.9-3.7-7.3l-.2-.4c-.1-.2 0-.4.2-.6.2-.1.4 0 .6.2l.2.4c2 3.8 3.6 6.8 3.8 7.5.3.8.4 1.7.5 2.7s.2 1.7.5 2.5c.3.7.4 1.2.5 1.7.1.3.2.7.3 1.2.5 1.5.4 2.2.3 3.6-.2 1.3 0 2.2.2 2.3.1-.1.2-.7.2-1.1.1-.3.2-.7.2-1.2.2-.7.2-1.4.2-1.8 0-.5 0-.7.2-.9.1-.1.3-.1.4-.1 1 .2 1.2 1.5 1.4 2.9.1.3.1.7.2 1v.2c.3 1.2.4 2.6.7 2.6h.1c.1-.1 0-.7 0-1 0-.2-.1-.4-.1-.7-.2-1.2-.2-1.9-.1-2.3.1-.2.3-.3.5-.2.2.1.3.3.2.5-.1.2 0 1.2.1 1.9 0 .2.1.4.1.7.1.7.2 1.2-.2 1.7-.1-.1-.3 0-.7 0"/><path id="Fill-152" class="st11" d="M-791.2 222.2c-.8 0-1.4-1.1-2.1-2.6-.6-1.3-1.3-3.1-2-4.7-.5-1.2-.9-2.3-1.2-2.8-1.5-3.3-1.5-5.3-1.3-8.5 0-.2.2-.4.4-.4.3 0 .4.2.4.4-.2 3.1-.2 4.9 1.2 8.1.2.5.7 1.7 1.2 2.9.7 1.6 1.4 3.4 1.9 4.7.8 1.9 1.2 2.1 1.4 2.1.2-.1.4 0 .5.2.1.3 0 .4-.2.5 0 .1 0 .1-.2.1"/><path id="Fill-154" class="st11" d="M-786.8 204.5c-.1 0-.2 0-.2-.1-.2-.1-.2-.3-.2-.6.3-.5.7-2.1 1.3-4.2.1-.2.2-.3.5-.3.2.1.3.3.3.5-.2 1-1 3.5-1.4 4.4-.1.2-.1.3-.3.3"/><path id="Fill-156" class="st11" d="M-802.5 209.5c-.1 0-.2 0-.2-.1-.2-.1-.3-.3-.2-.6.2-.6.3-1.1.4-1.7.1-.8.2-1.7 1-2.5.7-.7-2-4.9-4.7-8.1-7.2-8.3-15-12.5-23.1-12.5-.2 0-.4-.2-.4-.4s.2-.4.4-.4c8.4 0 16.4 4.3 23.8 12.8.7.7 6.5 7.6 4.7 9.2-.6.6-.7 1.2-.7 2-.1.6-.2 1.2-.5 1.9-.3.3-.4.4-.5.4"/><path id="Fill-158" class="st11" d="M-801 205.4s-.1 0 0 0c-.2 0-.4-.3-.4-.5.3-2.7-1.3-8.3-2.4-11.2-3-7.8-6.3-13.2-10.9-17.6l-.4-.3c-1.3-1.2-5.4-5.2-6.8-4.3-.5.2-1.2 1.6.2 6.7.1.2-.1.4-.3.5-.2.1-.4-.1-.5-.3-1.2-4.5-1.1-6.9.2-7.7 1.7-1 4.7 1.6 7.8 4.5l.3.3c4.7 4.4 8.1 9.9 11.1 17.9.8 2.2 2.8 8.4 2.4 11.6 0 .2-.2.4-.3.4"/><path id="Fill-160" class="st11" d="M-791.9 221.5c-.1 0-.2 0-.2-.1-.2-.1-.2-.4-.2-.6 1.6-2.5 6.2-3.7 8.5-2.7.2.1.3.3.2.6-.1.2-.3.3-.6.2-1.7-.7-6 .2-7.4 2.4 0 .2-.1.2-.3.2"/><path id="Fill-162" class="st11" d="M-794.5 155.6c-5.7-.1-10.2-2.4-12.6-6.6-1.7-2.9-1.8-7.6-2-12.6 0-.8-.1-1.6-.1-2.4-.3-7.6-.3-22.3-.3-30.5 0-.2.1-.3.2-.6.2-.3.5-.8.7-1.6.2-1.2.2-2.7-.3-3.7-.3-.3-.7-.6-1.1-.6-.6-.1-1.1.1-1.3.4-.6.6-.7 1.9-.4 3.7.1.5.3.8.5 1.2.2.2.3.6.4.8.1.2-.1.4-.2.5-.2.1-.4-.1-.5-.2-.1-.2-.2-.4-.3-.7-.2-.4-.5-.8-.6-1.5-.2-1.2-.4-3.2.6-4.3.5-.6 1.2-.7 2.1-.7.7.1 1.2.3 1.7.9 1 1.3.7 3.7.5 4.3-.2.8-.5 1.4-.7 1.8-.1.1-.1.2-.1.2 0 8.2.1 22.8.3 30.4 0 .8.1 1.6.1 2.4.2 4.9.3 9.5 1.8 12.2 2.9 5 8.1 6.2 11.9 6.2.2 0 .4.2.4.4-.2.4-.5.6-.7.6"/><path id="Fill-164" class="st11" d="M-788.1 157.6c-.2 0-.3-.1-.4-.3-.1-.2.1-.4.3-.5 2.7-.7 4.8-1.7 6.3-3.1 3.2-3 3.6-14 .7-22.7-.5 1.9-1.5 5.8-2.1 8.4.4-.3.9-.5 1.4-.3.7.3.9 1.2 1 2.9.1 3.2-.2 8.7-2.8 10.7-1.4 1.1-4.1 2.1-6.8 2.6-.2 0-.4-.1-.5-.3 0-.2.1-.4.3-.5 2.7-.4 5.2-1.4 6.5-2.4 1.7-1.3 2.6-5 2.5-10.1 0-1.8-.4-2.2-.5-2.2-.2-.1-.7.3-1 .5-.2.2-.5.4-.8.2-.1-.1-.2-.2-.2-.5.3-1.7 1-4.5 1.5-6.5 1.1-4.3 1.2-4.3 1.5-4.4.2 0 .3.1.4.2 3 8.3 3.3 21.2-.6 24.8-1.6 1.4-3.9 2.6-6.7 3.3z"/><path id="Fill-166" class="st11" d="M-796.1 158.3c-4.4-.4-8.3-1.9-10.7-4.2-4.4-4.2-4.6-11.4-4.7-21.4 0-1.5-.1-3-.1-4.6-.4-15.8-.2-24.5-.2-24.5 0-.2.3-.4.4-.4.2 0 .4.2.4.4 0 .1-.2 8.7.2 24.5 0 1.6.1 3.1.1 4.6.2 9.7.2 16.8 4.5 20.7 2.2 2.2 6 3.6 10.2 4 .2 0 .4.2.4.4-.1.3-.4.5-.5.5"/><path id="Fill-168" class="st11" d="M-810.2 99.5c-.1.2-.2.4-.2.7 0 .3.1.6.2.7.1-.2.2-.4.2-.7 0-.3-.1-.6-.2-.7m0 2.4c-.6 0-1-.7-1-1.7s.4-1.7 1-1.7 1 .7 1 1.7-.4 1.7-1 1.7"/><path id="Fill-170" class="st11" d="M-810.2 100.3c-.2 0-.4-.2-.4-.4V23.4c0-.2.2-.4.4-.4.3 0 .4.2.4.4v76.4c0 .3-.2.5-.4.5"/><path id="Fill-172" class="st11" d="M-804.7 176.1c-.2 0-.2-.1-.3-.2-.2-.2-.1-.4.1-.6 4.9-3.6 7.9-7.5 9.7-12.6.1-.3.3-.3.5-.3.2.1.3.3.2.5-1.9 5.2-5.1 9.3-10.1 13 .1.2 0 .2-.1.2"/><path id="Fill-174" class="st11" d="M-782.5 170.8c-.1 0-.2-.1-.3-.2-3.7-4.1-6.9-10.1-6.9-10.2-.1-.2 0-.4.2-.6.2-.1.4 0 .6.2 0 .1 3.2 5.9 6.8 10 .2.2.2.4 0 .6-.1.1-.3.2-.4.2"/><path id="Fill-176" class="st11" d="M-753.4 160c.4.2 1.6.2 2.1.2h1.9c.2-.1.5-.2.8-.3.7-.3 1.4-.5 2.1-.7-5.3.1-6.6.6-6.9.8m6 .3c.7.1 1.5.1 2.2.2h.2c2.3.2 3.2 0 3.4-.2.1-.1.1-.1.1-.2 0-.2-.1-.5-.2-.7-1.8 0-3.7.3-5.7.9m0-2.3c-2.8 0-5.8.5-8.6 1.5-.8.2-1.2.7-1.2 1-.1.2 0 .3.1.4 0 .1.1.1.2.2h.1c.9-.4 1.9-.6 2.8-.7-.2-.3-.1-.5-.1-.6.4-1.3 5.7-1.5 10.7-1.4-.5-.2-.8-.2-1.1-.3-1.1 0-2-.1-2.9-.1m4.3 3.8c.6 0 1.2 0 1.8.1.2-.1.3-.1.5-.2-.5-.1-.9-.1-1.4-.2h-.3c-.2.1-.3.1-.6.1h-.2c-.3 0-.4.1-.6.1h-.2c.4.1.7.1 1 .1m-13.1-.2c.5.3 1 .4 1.6.7.3-.2.8-.4 1.5-.6l2.1-.6c-.8 0-1.7 0-2.6.1-.8 0-1.8.1-2.6.4m2.8 1c.2.1.5.2.7.2v-.1c0-.2.1-.2.2-.4-.1 0-.2.1-.3.1-.3.1-.5.1-.6.2m-3.7-.5c-.2.1-.2.2-.2.2 0 .1.1.2.1.2.3.4.8.7 1.5.8 0-.1 0-.2.1-.2 0-.1.1-.2.2-.2-.7-.3-1.3-.6-1.7-.8m6.2 1.2c.3.1.5.1 1.1.2l.6.1 1-.6c.3-.2.7-.2 1-.4.4-.2.8-.2 1.2-.3-.1 0-.2-.1-.3-.1h-.6c-.2 0-.2 0-1.8.3l-1.1.2c-.6.1-1 0-1.2-.2-.4.2-.7.2-.8.3.1.1.2.1.2.2.1 0 .2.1.2.1.2 0 .4.1.5.2m11.6-1c.7.2 1.2.5 1.6 1.1l.1.1c1.3-.2 2.2-.5 2.3-.9.3-1.5-2.2-2.4-3.8-2.7-.6-.2-1.1-.3-1.7-.3.1.2.1.3.1.6s-.1.6-.3.7l-.1.1c.5.1 1.1.2 1.7.2h.2c.3 0 .7.1.9.3.1.2.1.3 0 .5-.1.3-.3.3-1 .3m-8.6 1.3.6.1c.9-.2 1.9-.3 2.9-.7.2-.1.3-.2.4-.2 0 0-.1 0-.2-.1-1 .1-2 .3-2.8.6l-.9.3m-4.7.2h.4c-.2-.1-.3-.1-.6-.2h-.1c-.6-.2-1.2-.3-1.7-.5-.2.1-.2.2-.3.2.1.1.4.2.7.3.2 0 .5.1.7.1h.2c.3.1.5.1.7.1m8.3.1c1.9.1 4.1 0 5.7-.2-.5-.5-1.2-.6-2-.7-.2 0-.4-.1-.7-.1-.2.1-.4.2-.7.2l-.7.2c-.6.2-1.1.3-1.6.5.2 0 0 0 0 .1m-7.1 1.1c.1 0 .3.1.5.2.2 0 .3 0 .5-.1l-.1-.1v-.2h-.4c-.2 0-.4.1-.5.2m6.7.1s-.1.1 0 0c0 .1 0 .2-.1.3.5 0 1-.1 1.4-.1-.2 0-.4-.1-.6-.1-.2 0-.4 0-.7-.1m-2 4.6c-.1 0-.2 0-.3-.1-.2-.1-.2-.3-.2-.4-.1 0-.2 0-.3-.1-.2-.1-.2-.2-.2-.4-.1-.3.1-.6.2-.7-.8-.1-.9-.3-.9-.4-.1-.2 0-.4.2-.5.3-.2.7-.4 1.2-.6-3.4.1-4-.2-4.2-.3-.2-.1-.2-.2-.3-.3-.2-.1-.4-.2-.4-.4-.2-.3-.2-.5 0-.7-.2 0-.4-.1-.6-.1h-.7c-.3 0-.6 0-.9-.1-1.4-.2-2.8-.5-3.5-1.3-.3-.4-.3-.7-.2-1l.3-.6c-.3-.3-.4-.7-.3-1.2.2-.7.8-1.2 1.8-1.6 3.8-1.3 8.2-1.8 11.7-1.3.6.1 2.1.3 3.1 1.2.1 0 .2.1.2.2.8.1 1.7.2 2.4.4 3.9 1 4.6 2.6 4.4 3.7-.2.9-1.5 1.3-3.2 1.7-.6.8-2.7 1.3-2.7 1.3-1.1.2-2.3.3-3.6.4v.2c-.2.6-1 .6-1.5.7h-.3c-.2.1-.6.2-.9.2h.3c.2 0 .5-.1.7.1.1.1.2.2.2.4 0 .4-.5.6-.8.7.1 0 .2.1.2.2.2.3 0 .7-.2 1-.4-.4-.6-.3-.7-.3"/><g id="Group-180" transform="translate(241 338.649)"><defs><filter id="Adobe_OpacityMaskFilter_00000145758073275229501290000018042810793702138006_" filterUnits="userSpaceOnUse" x="-1009.9" y="-53.4" width="121.6" height="147.8"><feColorMatrix values="1 0 0 0 0 0 1 0 0 0 0 0 1 0 0 0 0 0 1 0"/></filter></defs><mask maskUnits="userSpaceOnUse" x="-1009.9" y="-53.4" width="121.6" height="147.8" id="mask-6_00000167373959710453771640000016715712691721553302_"><g filter="url(#Adobe_OpacityMaskFilter_00000145758073275229501290000018042810793702138006_)"><path id="path-5_00000011009751266470747490000008986613548853736103_" class="st3" d="M-1009.9-53.4h121.6V94.4h-121.6z"/></g></mask><path id="Fill-178" d="M-983.2 22.2s1.8-9.2 3.9-21.5c1-6.1 1.9-15 3.1-19.9 1.3-5.4 4.6-8.5 8.1-11.2 2.9-2.2 6.3-4.3 6.3-4.3s-1.2-3 .5-5.7c2.7-4.1 5.6-5.8 5.6-5.8s1.4 1.2 2.5 1.7 2.2.6 2.2.6l1.7 3.1 5.7 6.2s2-3.3 6.5-6.9c1.9-1.5 4.5-3.6 6.4-4.8 2.6-1.7 4.8-2.5 4.8-2.5s-.9-.9-1.6-1.9c-.7-1-1.3-2-1.3-2s.5.1 2.5-.1 3.6-1.1 5.9-.2c.8.3 1.4 1.1 1.7 1.7.8 1.3 1 2.8 3 4.5 1.2 1 2.6 1.2 3.8 1.8 1.7.8 2.1 1.4 3.2 3s1.4 3.5 1.4 3.5 4.5 1.5 9.1 4.9c4.4 3.3 9.1 8.5 9.7 19.6.2 3 .3 6.5.2 10.8-.1 4.7-.5 10.3-.6 14.9-.2 6.7-.4 13.7-1 19.3-.5 5-1.1 9.1-2.6 12.5-1 2.3-2.6 4.5-4 5.6-1.2 1-2.3 1.3-3.3 1.5-1.3.3-2.3.4-2.3.4s.7 4.6.9 8.9c.2 4.3-.1 30.5-.1 30.5s-15.9 4-33.6 4c-17.7 0-37.3-4-37.3-4s-.2-26.5.2-32c.3-5.5 1.3-12.4 1.3-12.4l-1.7.2s-1.2 1.5-3.7 2.7c-1.6.8-3.5 1.4-6.6 2-3.9.8-9.2 1.1-13.5 1.4-4.4.3-4.9.1-8.1.5-3.2.4-4.5 1.4-5.5 1.1-1-.3 1.6-2.5 1.6-2.5l25-29.2z" mask="url(#mask-6_00000167373959710453771640000016715712691721553302_)" fill-rule="evenodd" clip-rule="evenodd" fill="#fa9700"/></g><path id="Fill-181" class="st15" d="M-743.8 274.8c.1-.4.9.1 2.2 0 2.3-.1 5.8-.6 8.1-2.7 1.8-1.6 3-4.5 3.5-6.6.2-1 .3-1.4.4-2 .2-.8.1-1.3.4-1.5.2-.1 1.9.7 1.9.7l7.4 2.7-1.6 5.3s-2.3 4.6-5.8 7.2c-1.1.8-2.4 1.6-3.5 2.2-2.4 1.3-4.6 2.2-5 2-1.1-.6-1.7-2-3.7-3.7-2.1-1.6-4.5-3.1-4.3-3.6"/><path id="Fill-183" class="st15" d="M-726.1 244.3s3.1-.7 5.4-2.4c2.3-1.6 4.4-4.6 4.4-4.6s1.5 1.4 3.1 3.3 3.4 4.5 3.4 4.5l-9.3 6.2s-1.3-1.6-3.1-3.4c-1.7-1.7-3.9-3.6-3.9-3.6"/><path id="Fill-185" class="st5" d="M-708.5 297.6s-.2.7-.4 1.3c-.2.7-.1 2 .6 2.6 1.3 1.1 2.3 1.3 3.2 1.8.9.5 2.4.8 2.4.8s2.1-2.7 3.1-3.9c1-1.1 4.6-4.1 5.3-4.5 1.5-1.1 2.9-2.3 4.4-3.3 1.6-1 4.8-2.6 4.8-2.6s-1.1-1.4-1.7-2.1c-1.2-1.5-2-3.4-2.4-5.2-.3-1.1-.5-3.1-.5-3.1s1.9-1.1 2.2-1.6c.4-.7 1-1.8 1.2-2.6.2-1 .3-2.5.2-3.3-.2-.8-.7-1.6-1-2-.7-.9-2-.5-3-.8-1.1-.3-2.1-.9-2.9-1.7-5.9-5.1-13.5-11.1-21.8-9.4-2.1.4-4.3 1.5-5.9 2.8-.7.6-1.8.6-2 1.6-.6 2.8-.9 4.1-.1 7.8s.9 6.1 1.5 8.6c.5 2.4 1.5 6.6 4.1 10.4 1.2 1.8 2.3 3.3 4.2 4.3 1.1.6 3.1 1.1 3.1 1.1l1.4 3z"/><path id="Fill-187" d="M-818.3 323.4s0-.5.4-.8c.5-.3 1.4-.5 1.4-.5l17.2 7.4 1.3 1.6 15.9 38.5 26.4-3.9 18.9 3.8 11.3 7.7 5.6 3.9s.2 1 0 1.5-.9.7-.9.7l-52.8 7.8-1.1 1-22.8-15.8-20.8-52.9z" fill-rule="evenodd" clip-rule="evenodd" fill="#b1b9c1"/><path id="Fill-189" class="st5" d="M-767.5 391.7c-.3.4-3.1.8-3.8.8-2 .2-8.4-1.1-9-1.2-2.7-.4-5.8-1.4-8.4-2.2-1.4-.4-2.6-.8-3.9-1.5-.5-.3-1.4-.5-1.8-.9-1.3-1.3-1.3-6.8-1.3-6.8s-1.4-1.5-1.8-3c-.7-2.6.1-4.6.3-7.2.1-1.1.3-2.1.4-3.3 0-.4.2-1.1.5-1.4.5-.5 1.1-.5 1.5 0 .3.4.6 1.2.6 1.6 0 .2.1 1.1.1 1.1s1 .4 1.2.7c.3.3.8 1.8.8 1.8s.9 1 1.4 2.2c.3.7 1 3.8 1 3.8s.8.1.9.3c.5.6 1.3 2.5 1.5 2.9.7 1.5.9 2.7 1.9 4 .4.6 1.8 2 2.3 2.5 1 .9 2.2 1.8 2.2 1.8s6.1 4.3 6.6 4.1c.4-.1.8-.7.8-.7l6.3-.9c.1-.2 0 1-.3 1.5"/><path id="Fill-191" class="st5" d="M-710 365.7s-5.1-.5-5.2-.6c-1.2-.2-3.9-.8-5-1-1.7-.3-4.2-1-6.2-1.8-1.4-.5-4.1-1.3-7.2-1.6-2.3-.2-9.6 0-11.5.1-1.9.2-4 .3-5.6.9-1.8.6-3.3 2.5-4.6 3.7-.8.8-2.1 1.6-2.5 2.7-.1.2-.3.7-.2 1 0 .2.7.6.7.6s-1.7 1.3-1.6 2.1c.1.7.8.5 1.4.6.1 0 1.1-.1 1.1-.1s-.2.9.4 1.2c.6.3 2.4 0 3.5-.5 2-1.1 3.8-2.3 6-3.1 1.4-.5 4.2-.3 5.6-.1.5.1 1.6.4 1.6.4s-2.7.7-3.1.8c-1.2.3-2.3.8-3.1 1.4-.7.5-1.2 1-2 1.5-.5.3-2 1.1-2.4 1.3-.4.3-1.3.9-.8 1.7.7 1 3 .4 4 0 .8-.4 1.3-.4 2.2-.8 1.9-.7 4.1-1 6-.8 2.1.2 4.7.8 7 1.3 1.7.4 3.6.6 5.5.6 3-.1 4.5-.2 7.5-.1 1.8.1 5.1.7 6.8 1.3.4.1 2.1.7 2.1.7s1.6-2.5 1.9-3.9c.3-1.4.4-3.2 0-5.3-.8-.7-2.3-4.2-2.3-4.2"/><path id="Fill-193" class="st7" d="M-723.2 265.7s-1.8-.4-2.6-.9c-2.3-1.6-1.6-5.9-.2-8 .5-.7 1.1-1.1 1.6-1.8 1.1-1.4 2.3-2.9 3.7-4 .9-.7 1.6-1.8 2.5-2.5 2.5-2.1 5.4-4.6 8.6-5.5 1.1-.3 3-.2 4.1-.1 2 .3 3.3 1.3 5.2 1.7 1.5.3 2.4.1 3.9.4 1 .2 2.1.3 3.1.7.4.2 2.3 1.7 2.7 2 1.1.9 1.9 2.7 2.6 3.9.5.8.7 2 .8 3.3.1 1.3.2 3.3.4 5.2.2 1.8 0 3.5-.1 4.8-.1 1.7-1.1 4.7-1.1 4.7s-1-.3-1.6-.1c-1 .4-1.9 1-2.8 1.5-.8.4-2.7.6-3.9.1-1.6-.6-1.9-1.2-2.9-2.4-.4-.5-1.4-2-1.4-2s-3.1-1-4.6-2.2c-1.3-1-2.7-2.9-4.4-3.3-1.2-.3-2.8.5-4 .8-1.5.4-3.1.6-4.6.9-1.3.2-3-.4-4.1.4-.8.7-.9 2.4-.9 2.4"/><path id="Fill-195" class="st15" d="M-801.8 328.4s1.2-1.9 1.5-4.4c.3-2.5-.5-5.4-.5-5.4l6.2.4s-.6-8.4.9-12.5c.6-1.7 1.2-2.3 2.1-2.8 1.3-.7 2.9-.9 2.9-.9s-.7 3-.7 5.8.4 5.2.4 5.2-1.1 0-2 .1c-.9.1-1.2.5-1.2.5s.3 2.4 1.3 3.6c.9 1.3 2.6 1.3 2.6 1.3l-.4 8.5s-.5.1-1.2-.1-1.6-.7-1.6-.7l-4 6.4 5.1-1.1 4.1 5.9s6.6-.1 10.7.4 5.4 1.1 5.4 1.1 0 3.6-.3 6.3c-.4 2.7-1 4.9-1 4.9s-2.1-.8-3.8-1c-1.7-.2-3.2 0-3.2 0l-1.9 3.4s3.5.6 8.4.6c4.9-.1 10.8-.8 10.8-.8s.5 2 .6 4.1c0 2-.4 4-.4 4l1.1.7s2.3-2 2.9-3.9c.6-1.9-.5-3.8-.5-3.8s2.6-1.8 4.9-3.3c2.3-1.5 4.4-2.6 4.4-2.6s1.2 1.5.8 4c-.2 1.2-.8 2.7-1.8 4.1-1.8 2.6-4.7 5.2-7.5 7.3-2 1.4-4 2.5-5.5 3.3-1 .6-3.1 1.5-3.8 1.8-5.4 2.2-8.7-2.1-8.7-2.1l1.6-.8-7.1-.9s.5 3.8 3.6 6.1 4.2 2.1 6.8 2.8c2.6.7 5.1-.6 4.2.6-.9 1.2-5.7 4.5-5.7 4.5l-2.7 3-3.3-1-20.9-50.5-3.6-2.1z"/><path id="Fill-197" class="st17" d="m-792.8 297.2 10.9-3.1s2.7 2 4.8 5.1c2.1 3.1 3.6 7.3 3.6 7.3l7.5 2.2-2.7 9.6s7.4-3.4 11.4-3.5c3.9-.1 4.3 3 4.3 3l-5.5 1.7-4.5 2.4-1.8-2.8s-1.7.9-2.4 2.3-.6 3.3-.6 3.3l-4.5 1.8-4 7.1s-4.4-2.3-6.8-4c-2.4-1.7-3-2.8-3-2.8l5.7-10.9-3.6-1s2-6.1-.2-10.6c-2.1-4.4-8.6-7.1-8.6-7.1"/><path id="Fill-199" class="st17" d="M-739.5 293.4s.2-.2.7.1c1.2.6 3.6 2.8 3.9 4.1.6 2-.1 6.3-1.5 12.5-.9 3.8-5.1 10.6-5.9 11.5-.7.8-2 1.9-3 2.2-1.8.6-3.4.1-3.4.1s.1-1 .8-3.6 1.9-6.9 1.9-6.9 2.3.4 4-.9c1.7-1.3 2.6-3.9 2.6-3.9s-.7-.7-1.6-1.1c-.9-.4-2.1-.7-2.1-.7s1.7-3.2 2.6-6.6c.9-3.4 1-6.8 1-6.8"/><path id="Fill-201" class="st17" d="M-668 257c.6-1.6.9-2.3 1.9-4.4 1.4-2.7 3.6-6 5.3-7.6 1.3-1.2 2.7-2 3.8-2.2 1.8-.3 2.9.4 2.9.4l-3.8 7.8s-1.7-.6-3.2 0c-1.5.6-2.7 2.1-2.6 2.6.1.6 2.4 2.1 2.4 2.1s-2 2.7-3.2 5.2c-1.2 2.5-1.7 4.7-1.7 4.7s-2.4-1.3-2.8-4.1c-.1-1.1.4-3 1-4.5"/><path id="Fill-203" class="st17" d="M-709.8 310.4s1 2.4 2.7 3.2c1.8.9 4.5.5 4.5.5s.3-.6.2-1.7c0-1.1-.3-2.6-.3-2.6s2.4.2 5.8-.4c3.4-.7 7.8-2.4 7.8-2.4s.1 2-.5 3.8c-.3.8-.6 1.9-2.1 2.8-2.4 1.6-6.6 3-9.3 3.5-4.4.8-8.6 1.4-14.1.6-1.5-.2-2.9-.9-3.7-1.6-1.6-1.4-1.9-3.1-1.9-3.1s.8-.4 3.5-1c2.9-.6 7.4-1.6 7.4-1.6"/><path id="Fill-205" class="st18" d="M-712.2 378.9c-5.4-1.7-9-1.5-12.2-1.4-1.4.1-2.6.1-3.9 0-2.4-.2-4.4-.6-6.2-1.1-1.6-.4-2.9-.7-4.1-.7-2.7-.1-4.4.1-6.2.7l-.4.1c-2 .7-5 1.9-6.1.5-.2-.3-.3-.6-.2-.9.1-.6.9-1 1.9-1.6.8-.5 1.8-1 2.8-1.8 1.7-1.5 3.7-1.9 6-2.4 1-.2 2.1-.5 3.2-.8.2 0 .3 0 .4.2 0 .2 0 .3-.2.4-1.2.4-2.2.6-3.3.8-2.2.5-4.1.9-5.7 2.3-1 .8-2 1.4-2.9 1.9-.9.5-1.6.9-1.7 1.2 0 0 0 .2.1.4.8 1.1 3.8-.1 5.4-.7l.4-.2c1.8-.7 3.6-.9 6.4-.8 1.3.1 2.7.4 4.2.8 1.8.4 3.8.9 6.1 1.1 1.3.1 2.5 0 3.9 0 3.2-.2 6.9-.3 12.3 1.4.2 0 .2.2.2.4.1.2-.1.2-.2.2"/><path id="Fill-207" class="st18" d="M-685.2 290.1c-.1 0-.2 0-.2-.1-4-4.4-4.5-8.8-4.4-9 0-.1.1-.2.2-.2.2 0 .3.1.3.2v.1c0 .3.4 4.3 4.3 8.5.1.1.1.3 0 .4 0 .1-.1.1-.2.1"/><path id="Fill-209" class="st18" d="M-666.1 390.2c-6.6 0-15.4-1-22.8-2.6-5.5-1.2-10.5-3-13.8-4.2-1.9-.7-3.3-1.1-3.9-1.3-4.1-.7-5.7-1.7-5.6-3.3 0-.2.2-.3.3-.3.2 0 .3.2.3.3-.1.9.5 1.9 5.1 2.7.7.1 2.1.6 4 1.3 3.3 1.2 8.3 2.9 13.7 4.1 10.5 2.4 24.1 3.3 29.7 2 9.8-2.3 10.2-17.6 10.7-40.8v-.5c0-.7.1-1.8.2-3.1.5-7.6 1.6-25.5-3.2-32.7-5-7.6-11.3-10.1-17.9-12.7-1.6-.6-3.3-1.3-4.9-2.1-.1-.1-.2-.2-.1-.4.1-.1.2-.2.4-.1 1.7.7 3.3 1.4 4.9 2 6.7 2.7 13 5.2 18.1 12.9 4.9 7.3 3.7 25.4 3.3 33.1-.1 1.3-.2 2.4-.2 3.1v.5c-.6 23.5-1 39-11.2 41.4-1.6.5-4.1.7-7.1.7"/><path id="Fill-211" class="st18" d="M-710.5 379.5c-1-.3-1.8-.6-2.6-.8-.2 0-.2-.2-.2-.4s.2-.2.4-.2c.8.2 1.7.5 2.5.8.2 0 .2.2.2.4 0 .1-.2.2-.3.2"/><path id="Fill-213" class="st18" d="M-755.2 374.1c-.3 0-.5 0-.8-.1-.6-.2-.9-.5-.9-.8-.2-.8 1.1-1.8 2.4-2.8.4-.3.7-.6 1-.8 1.5-1.3 4-2.9 5.4-3.6 2-1 4.2-1 6.4-1h1.4c.2 0 .3.1.3.3 0 .2-.1.3-.3.3h-1.4c-2.1 0-4.3 0-6.1 1-1.4.7-3.8 2.3-5.3 3.6-.3.3-.7.5-1 .8-.9.7-2.2 1.7-2.1 2.2 0 .2.4.3.6.4 1.5.5 4-1 6.1-2.2.9-.5 1.7-1 2.3-1.3 1.9-.8 6.6-.4 8.3.1.2 0 .2.2.2.4s-.2.2-.4.2c-1.8-.5-6.3-.8-7.9-.1-.6.3-1.4.7-2.3 1.2-2.1.9-4.3 2.2-5.9 2.2"/><path id="Fill-215" class="st18" d="M-757.9 372.9s-.1 0 0 0c-.7 0-1.2-.2-1.4-.6-.2-.4 0-.8.4-1.3.7-.9 1.5-1.6 2.3-2.3.5-.5 1-1 1.5-1.4 1.2-1.3 3.8-3.7 5.8-4.2 1.8-.4 5.2-1.2 7.7-1 .2 0 .3.1.3.3 0 .2-.1.3-.3.3-2.4-.2-5.8.6-7.6 1-1.9.5-4.4 2.8-5.5 4-.4.5-1 1-1.5 1.5-.8.7-1.5 1.4-2.3 2.3-.3.3-.4.6-.3.7.1.2.4.3.8.3.3 0 1.1-.2 1.5-.3.2-.1.3 0 .4.2.1.1 0 .3-.2.4-.4-.1-1.2.1-1.6.1"/><path id="Fill-217" class="st18" d="M-667.4 368.5h-.1c-6.9-4-8.4-4.6-22.2-2.8-5.2.7-12.6.1-16.1-.3-3.3-.4-4.5-.3-5.7.5-.1.1-.3.1-.4-.1-.1-.1-.1-.3.1-.4 1.3-.9 2.5-1 6.1-.6 3.5.4 10.8 1 16 .3 13.9-1.8 15.7-1.1 22.6 2.9.1.1.2.3.1.4-.2 0-.3.1-.4.1"/><path id="Fill-219" class="st18" d="M-757.6 369.9h-.1c-.4-.2-.7-.5-.8-.8-.2-.9 1.1-2.1 2.7-3.6l.5-.4.9-.9c1.6-1.6 3-3.1 8.4-3.4.8 0 1.5-.1 2.3-.2 2.6-.3 5.6-.6 11 .1 3.3.5 5.1 1 7.2 1.7 1.8.6 3.8 1.2 7.2 1.9.7.1 6.1 1.1 8.2 1.2.2 0 .3.1.3.3 0 .2-.1.3-.3.3-2.2-.1-7.5-1-8.3-1.2-3.4-.7-5.5-1.3-7.3-1.9-2-.7-3.8-1.2-7.1-1.7-5.3-.7-8.3-.4-10.9-.1-.8.1-1.5.2-2.3.2-5.2.3-6.5 1.7-8 3.3l-.9.9-.5.4c-1.2 1.1-2.7 2.4-2.5 3.1 0 .1 0 .2.4.4.1.1.2.2.2.4-.1-.1-.2 0-.3 0"/><path id="Fill-221" class="st18" d="M-736.9 329.2c-.2 0-.3-.2-.3-.3.1-.7.2-1.7.4-2.4.1-.4.1-.8.2-1.2.4-2.9 1-6.2 2.3-8.9 2.4-4.9 6.3-7.6 10.3-10.4.8-.5 1.5-1.1 2.3-1.7.8-.6 1.9-1.4 3.3-2.3.1-.1.3-.1.4.1.1.1.1.3-.1.4-1.4.9-2.5 1.7-3.3 2.3-.8.6-1.6 1.1-2.3 1.7-4.2 2.9-7.8 5.5-10.1 10.2-1.3 2.6-1.8 5.8-2.2 8.7-.1.4-.1.8-.2 1.2-.1.7-.3 1.8-.4 2.4 0 .1-.1.2-.3.2"/><path id="Fill-223" class="st18" d="M-738.5 339.8s-.1 0 0 0c-.2 0-.3-.2-.3-.3.2-1.3.4-2.5.7-3.6.3-1.6.6-3.1.7-4.4 0-.2.2-.3.3-.3.2 0 .3.2.3.3-.1 1.4-.4 2.8-.7 4.5-.2 1.1-.5 2.3-.7 3.6-.1.1-.2.2-.3.2"/><path id="Fill-225" class="st18" d="M-742.3 360.7c-.2 0-.3-.1-.3-.3.1-2 .6-3.6 1.1-5 .4-1.2.7-2.3.9-3.5 0-.2.2-.3.3-.3.2 0 .3.2.3.3-.1 1.3-.5 2.4-.9 3.6-.5 1.4-1 2.9-1.1 4.9 0 .2-.1.3-.3.3"/><path id="Fill-227" class="st18" d="M-780.3 388.5c-.1 0-.1 0-.2-.1-.5-.5-1.2-1.1-1.8-1.7-1.1-1-2.3-2-3.1-3.1-.6-.9-1.2-2.3-1.8-3.7-.6-1.6-1.5-3.7-2.1-3.6-.4.1-.6.2-.6.2-.2.3 0 1.4.3 3.1l.1.6c.1.4.2.9.3 1.4.2 1.4.5 3 1.1 4.1.2.4.7.8 1.2 1.2.3.2.5.4.7.6.1.1.1.3 0 .4-.1.1-.3.1-.4 0-.2-.2-.4-.4-.7-.6-.5-.4-1.1-.9-1.4-1.4-.7-1.2-.9-2.9-1.2-4.3-.1-.5-.2-1-.3-1.4l-.1-.6c-.4-2-.6-3-.2-3.5.3-.3.7-.4 1-.5 1-.1 1.8 1.7 2.7 4 .6 1.4 1.1 2.8 1.7 3.6.8 1 1.9 2 3.1 3 .7.6 1.3 1.1 1.9 1.7.1.1.1.3 0 .4 0 .2-.1.2-.2.2"/><path id="Fill-229" class="st18" d="M-792.4 386c-.1 0-.2-.1-.3-.2-.7-2.6-.7-4.4-.8-6.5 0-.7-.1-1.5-.1-2.4-.1-1.1-.3-2.2-.4-3.1-.3-2.1-.6-3.7.5-3.9.9-.2 1.6-.2 2.6 1.6.8 1.4 1 2.3 1.2 3.5.1.3.1.6.2.9 0 .2-.1.3-.2.4-.2 0-.3-.1-.4-.2-.1-.3-.1-.6-.2-.9-.3-1.2-.5-2-1.2-3.4-.8-1.6-1.3-1.5-1.9-1.3-.6.1-.3 1.7-.1 3.3.2 1 .4 2.1.4 3.2.1.9.1 1.6.1 2.4.1 2.1.1 3.9.8 6.4.2-.1.1.1-.2.2.1 0 .1 0 0 0"/><path id="Fill-231" class="st18" d="M-772.3 392.8c-1.3 0-2.4-.2-4-.5-.5-.1-1-.2-1.6-.3-4.6-.8-8.8-1.7-10.8-2.5-.6-.3-1.2-.5-1.7-.7-1-.4-1.9-.7-2.9-1.2-1.7-.8-2-2.4-2.2-3.9-.1-1.3-.2-2.4-.3-3.4-.1-1.1-.1-2.2-.3-3.4-.2-1.7.1-3.7.4-5.6.1-.8.2-1.5.3-2.3.2-1.6 1.1-1.7 1.4-1.7 1 0 2.1 1.2 2.2 2.7 0 .2-.1.3-.3.3-.2 0-.3-.1-.3-.3 0-1.2-.9-2.2-1.6-2.2-.6 0-.8.7-.8 1.1-.1.8-.2 1.5-.3 2.3-.3 1.9-.5 3.8-.3 5.5.1 1.2.2 2.4.3 3.4.1 1.1.1 2.2.3 3.4.2 1.4.4 2.7 1.9 3.4 1 .5 1.9.8 2.9 1.2.6.2 1.1.4 1.8.7 2 .8 6 1.7 10.7 2.5.6.1 1.1.2 1.7.3 3.2.6 4.7.8 8.6-.4.2 0 .3 0 .4.2 0 .2 0 .3-.2.4-2.6.8-4 1-5.3 1"/><path id="Fill-233" class="st18" d="M-768.2 392.8c-.4 0-.7-.1-1.1-.3-.1-.1-.2-.3-.1-.4.1-.1.3-.2.4-.1.5.4 1.2.2 2.4-.1 1-.3 2.4-.6 4.2-.7 4.3-.2 16.4-.9 20.5-1.7 7.9-1.5 10.2-4.7 10.2-4.7.1-.1.3-.2.4-.1.1.1.2.3.1.4-.1.1-2.4 3.4-10.6 4.9-4.2.8-16.3 1.5-20.6 1.7-1.8.1-3 .4-4.1.7-.6.2-1.2.4-1.7.4"/><path id="Fill-235" class="st18" d="M-795.6 380.4c-.1 0-.2 0-.2-.1-2.7-3.9-2.3-6.2-1.9-8.6.1-.5.2-1 .2-1.5.1-.7.1-1.3.2-1.9.2-2.1.3-3.6 1.6-3.9.3-.1.6 0 .9.2.8.7 1 2.5 1 2.7 0 .2-.1.3-.3.3-.2 0-.3-.1-.3-.3 0-.5-.2-1.9-.8-2.3-.1-.1-.3-.1-.4-.1-.8.2-.9 1.3-1.1 3.3 0 .6-.1 1.2-.2 1.9-.1.5-.1 1-.2 1.5-.4 2.4-.8 4.5 1.8 8.2.1.1.1.3-.1.4-.1.2-.2.2-.2.2"/><path id="Fill-237" class="st18" d="M-660.3 429.3c-.2 0-.3-.2-.3-.3.5-5 .1-31.2-.3-35-.1-1.4-.3-2.7-.4-4.2 0-.2.1-.3.3-.3.2 0 .3.1.3.3.1 1.4.2 2.8.4 4.2.4 3.8.8 30 .3 35.1-.1.1-.2.2-.3.2"/><path id="Fill-239" class="st18" d="M-731.2 429.3c-.2 0-.3-.1-.3-.3-.2-7.6.6-36.1 1.1-40.3.2-1.6.3-2.9.4-3.8 0-.2.1-.3.3-.3.2 0 .3.1.3.3 0 .9-.2 2.2-.4 3.9-.5 4.1-1.2 32.6-1 40.2-.1.2-.2.3-.4.3z"/><path id="Fill-241" class="st18" d="M-671.3 341.2c-.2 0-.3-.2-.3-.3.1-1.2.2-2.3.2-3.4.2-3 .3-5.2.8-6.4.1-.1.2-.2.4-.2.1.1.2.2.2.4-.5 1.2-.6 3.4-.8 6.2-.1 1-.1 2.2-.2 3.4 0 .1-.2.3-.3.3"/><path id="Fill-243" class="st18" d="M-674.1 362.6c-.2 0-.3-.1-.3-.3-.1-2.6.2-4.1.6-5.9.2-1 .4-2 .6-3.3 0-.2.2-.3.3-.3.2 0 .3.2.3.3-.2 1.4-.4 2.4-.6 3.4-.3 1.7-.6 3.2-.6 5.7 0 .2-.1.4-.3.4z"/><path id="Fill-245" class="st18" d="M-668.4 325.7c-.2-.1-.3-.2-.3-.4 2.1-7.9 6.7-11.5 10.9-14.2.1-.1.3-.1.4.1.1.1 0 .3-.1.4-4.3 2.8-8.6 6.1-10.7 13.9 0 .1-.1.2-.2.2"/><path id="Fill-247" class="st18" d="M-732.7 327.5c-.2 0-.3-.1-.3-.3v-2.3c0-.2.1-.3.3-.3.2 0 .3.1.3.3v2.3c0 .1-.1.3-.3.3z"/><path id="Fill-249" class="st18" d="M-731.6 338.8c-.1 0-.3-.1-.3-.3-.2-1.9-.5-4.3-.7-6.4 0-.2.1-.3.3-.3.2 0 .3.1.3.3.2 2 .4 4.5.7 6.4 0 .1-.1.3-.3.3"/><path id="Fill-251" class="st18" d="M-729.8 353.6c-.1 0-.3-.1-.3-.3-.1-1.4-.3-3-.6-5 0-.2.1-.3.2-.3.2 0 .3.1.3.3.3 2.1.5 3.7.6 5.1.2.1 0 .2-.2.2.1 0 .1 0 0 0"/><path id="Fill-253" class="st18" d="M-729.6 361.7c-.2 0-.3-.2-.3-.3.2-1.6.2-3.5.1-5.6 0-.2.1-.3.3-.3.2 0 .3.1.3.3.1 2.2.1 4.1-.1 5.7-.1.1-.2.2-.3.2"/><path id="Fill-255" class="st18" d="M-774.5 391.9c-.2 0-.7-.1-1.5-.8l-5.3-3.5c-.1-.1-.2-.3-.1-.4.1-.1.3-.2.4-.1l5.3 3.5c.4.3.7.5 1 .6-.1-.2-.2-.6-.4-.9l-23.8-58.1s-.3-.7-.7-1.1c-.4-.4-1-.7-1-.7l-16.5-7.2c-.4-.2-.9-.3-1-.3 0 .1.1.5.2.8l20.3 51c.1.1 0 .3-.2.4-.1.1-.3 0-.4-.2l-.3-.7-20-50.3c-.1-.3-.4-1.2 0-1.5.4-.3 1.2 0 1.6.2l16.5 7.2s.7.3 1.2.8.8 1.3.8 1.3l23.8 58.1c.7 1.4.4 1.6.3 1.7 0 .2 0 .2-.2.2"/><path id="Fill-257" class="st18" d="M-778.1 369.3c-.1 0-.3-.1-.3-.2 0-.2.1-.3.2-.3l5.8-.9c.2 0 .3.1.3.2 0 .2-.1.3-.2.3l-5.8.9c.1 0 0 0 0 0"/><path id="Fill-259" class="st18" d="M-762.4 367.1c-.1 0-.3-.1-.3-.2 0-.2.1-.3.2-.3l6.8-1.1c.2 0 .3.1.3.2 0 .2-.1.3-.2.3l-6.8 1.1"/><path id="Fill-261" class="st18" d="M-773.5 391.2c-.1 0-.3-.1-.3-.2 0-.2.1-.3.2-.3l2.4-.3 50.6-7.3s.3 0 .5-.3.2-.7.1-1.3c0-.2.1-.3.2-.3.2 0 .3.1.3.2.2.8.1 1.4-.2 1.8-.4.4-.9.5-.9.5l-52.9 7.5c.1 0 .1 0 0 0"/><path id="Fill-263" class="st18" d="M-774.4 391.9c-.2 0-.3-.1-.3-.3s.1-.3.3-.3c0 0 .4 0 .6-.3.1-.3-.1-1-.3-1.5l-23.8-58.1s-.3-.7-.7-1.1c-.4-.4-1-.7-1-.7l-16.5-7.2c-.6-.2-1.1 0-1.8.5-.1.1-.3.1-.4 0-.1-.1-.1-.3 0-.4.8-.7 1.5-.9 2.4-.6l16.6 7.2s.7.3 1.2.8.8 1.3.8 1.3l23.8 58.1c.1.2.6 1.3.3 1.9-.3.6-.9.7-1.2.7"/><path id="Fill-265" class="st18" d="M-773.6 390.1c-.1 0-.3-.1-.3-.2 0-.2.1-.3.2-.3l1.4-.2 51.4-7.4c.2 0 .8-.1.9-.4.1-.2-.1-.4-.2-.5l-5.2-3.5c-.1-.1-.2-.3-.1-.4.1-.1.3-.2.4-.1l5.2 3.5c.3.2.7.6.4 1.2-.3.6-1.3.7-1.4.7l-52.7 7.6"/><path id="Fill-267" class="st18" d="M-723 270.4c-.1 0-.3-.1-.3-.2-.3-1.8-.5-4.3-.1-5.9 0-.2.2-.2.4-.2s.2.2.2.4c-.4 1.5-.3 3.9.1 5.7.1.1 0 .2-.3.2.1 0 .1 0 0 0"/><path id="Fill-269" class="st18" d="M-709.5 295c-.6 0-1.1-.1-1.7-.2-6-1.4-10.2-12.1-10.6-16.2 0-.2.1-.3.3-.3.2 0 .3.1.3.3.4 4 4.4 14.4 10.2 15.7 5.5 1.3 12.2-4.6 13.7-7 .1-.1.3-.2.4-.1.1.1.2.3.1.4-1.8 2.7-7.6 7.4-12.7 7.4"/><path id="Fill-271" class="st18" d="M-715.2 282.3c-.1 0-.1 0 0 0-1-.2-1.7-.7-2-1.2-.2-.3-.2-.6-.2-1 .1-.3.2-.6.4-.9.5-.9 1-2 .1-3.6-.1-.1 0-.3.1-.4.1-.1.3 0 .4.1 1 1.9.4 3.2-.1 4.1-.2.3-.3.6-.3.8 0 .2 0 .3.1.5.3.4.9.8 1.6 1 .2 0 .3.2.2.3-.1.2-.2.3-.3.3"/><path id="Fill-273" class="st18" d="M-722.9 272.3c-.1 0-.1 0-.2-.1s-.1-.3-.1-.4c1.1-1.4 2.8-1.1 4-.3.1.1.2.3.1.4-.1.1-.3.2-.4.1-.9-.7-2.3-.9-3.2.2 0 .1-.1.1-.2.1"/><path id="Fill-275" class="st18" d="M-712.5 271.3c-.1 0-.1 0-.2-.1s-.2-.3-.1-.4c1.2-1.8 4-1.3 5.5-.3.1.1.2.3.1.4-.1.1-.3.2-.4.1-1.3-.9-3.7-1.3-4.7.1 0 .1-.1.2-.2.2"/><path id="Fill-277" class="st18" d="M-690.2 279.8c-.1 0-.3-.1-.3-.2 0-.2.1-.3.2-.3 2.9-.4 4.1-3.9 3.7-7-.1-.7-.4-2.2-2-2.5-1-.2-1.8.4-2.4 1.1-.1.1-.3.1-.4 0-.1-.1-.1-.3 0-.4.7-.7 1.6-1.4 2.9-1.2 1.3.2 2.2 1.4 2.4 3 .6 3.2-.8 7-4.1 7.5.1 0 .1 0 0 0"/><path id="Fill-279" class="st18" d="M-689.7 275.6c-.2 0-.3-.1-.3-.3.1-1.2 1.1-2.1 1.1-2.1.1-.1.3-.1.4 0 .1.1.1.3 0 .4 0 0-.8.8-.9 1.7 0 .2-.2.3-.3.3"/><path id="Fill-281" class="st18" d="M-710.8 276.6c-.2-.7.1-1.5.7-1.6.6-.2 1.2.3 1.4 1 .2.7-.1 1.5-.7 1.6-.5.2-1.2-.3-1.4-1"/><path id="Fill-283" class="st18" d="M-699.3 267.1c-2.3 0-4.9-1.3-6.2-2.5l-1-1c-1.2-1.3-2.4-2.5-5.1-2.9-.2 0-.3-.2-.2-.3 0-.2.2-.3.3-.2 2.9.5 4.2 1.8 5.4 3.1l1 1c1.5 1.4 4.8 3 7.3 2.1.1-.1.3 0 .4.2.1.2 0 .3-.2.4-.5 0-1.1.1-1.7.1"/><path id="Fill-285" class="st18" d="M-695.8 271.3c-1.2 0-2.3-.6-3.1-1.8-.1-.1-.1-.3.1-.4.1-.1.3-.1.4.1.8 1.1 1.8 1.6 2.8 1.6.9-.1 1.8-.6 2.3-1.6.1-.1.3-.2.4-.1.1.1.2.3.1.4-.6 1.1-1.6 1.8-2.7 1.9-.2-.1-.3-.1-.3-.1"/><path id="Fill-287" class="st18" d="M-714.9 262.6c-1.9 0-3.2-.8-3.8-1.7-.1-.1-.1-.3.1-.4.1-.1.3-.1.4.1.7 1 2.4 1.8 4.9 1.3.2 0 .3.1.3.2 0 .2-.1.3-.2.3-.6.1-1.2.2-1.7.2"/><path id="Fill-289" class="st18" d="M-719.9 263.4c-1.4 0-3.2-.4-4.2-1.4-.6-.6-.8-1.2-.7-2 0-.2.2-.3.3-.3s.3.2.3.3c-.1.6.1 1.1.6 1.6 1 1 3.2 1.3 4.3 1.2.2 0 .3.1.3.3 0 .2-.1.3-.3.3h-.6"/><path id="Fill-291" class="st18" d="M-723.5 266s-.1 0 0 0c-2.5-.4-3.5-1.8-3.9-2.8-.6-1.6-.2-3.4.6-4.4.1-.1.3-.1.4 0 .1.1.1.3 0 .4-.7.8-1.1 2.4-.5 3.8.3.9 1.2 2.1 3.4 2.4.2 0 .3.2.2.3 0 .2-.1.3-.2.3"/><path id="Fill-293" class="st18" d="M-727.5 257.5c-.1 0-.2-.1-.3-.2 0-.2.1-.3.2-.4 1.6-.4 2.2-.9 3.4-2.5 1.4-1.9 3.3-4.2 6.1-5.1.2 0 .3 0 .4.2s0 .3-.2.4c-2.6.8-4.5 3-5.8 4.9-1.3 1.7-2 2.2-3.8 2.7.1 0 0 0 0 0"/><path id="Fill-295" class="st18" d="M-718.1 248.6c-.1 0-.2-.1-.3-.2-.1-.2 0-.3.2-.4 1.3-.4 2.2-1.3 3.3-2.2 1-.9 2-1.8 3.4-2.4 2.8-1.3 8.1-1.2 10.8.8.1.1.2.3.1.4-.1.1-.3.2-.4.1-2.6-1.9-7.5-2-10.2-.8-1.3.6-2.2 1.4-3.2 2.3-1.3 1-2.3 2-3.7 2.4"/><path id="Fill-297" class="st18" d="M-687 256.2c-.2 0-.3-.1-.3-.3-.1-2.4-1.5-6.2-4.1-8.6-1.8-1.6-3.8-2.3-6-2-.2 0-.3-.1-.3-.3 0-.2.1-.3.3-.3 2.4-.2 4.5.5 6.4 2.2 2.7 2.4 4.3 6.5 4.3 9 0 .2-.1.3-.3.3z"/><path id="Fill-299" class="st18" d="M-687.8 269.6h-.1c-.1-.1-.2-.2-.2-.4.8-2 1.4-6.1.9-9.3 0-.2.1-.3.2-.3.2 0 .3.1.3.2.5 3.3-.1 7.5-.9 9.6 0 .1-.1.2-.2.2"/><path id="Fill-301" class="st3" d="M-708.3 284.1s-.1 4.8-3.5 5.1c-3.4.3-4.7-4.1-4.7-4.1s1.9.1 3.9-.1c2-.3 4.3-.9 4.3-.9"/><path id="Fill-303" class="st18" d="M-716.2 285.4c.4 1 1.7 3.8 4.3 3.5 2.6-.2 3.1-3.3 3.2-4.4-.7.2-2.4.6-4 .7-1.4.2-2.8.2-3.5.2m4 4.1c-3.3 0-4.6-4.2-4.6-4.3v-.3c.1-.1.2-.1.2-.1s1.9.1 3.9-.1 4.2-.8 4.3-.8c.1 0 .2 0 .3.1.1.1.1.1.1.2s-.1 5-3.8 5.4c-.2-.1-.3-.1-.4-.1"/><path id="Fill-305" class="st18" d="M-720.9 277.2c-.2-.7.1-1.3.6-1.4.5-.1 1.1.3 1.3 1 .2.7-.1 1.3-.6 1.4-.5.1-1.1-.3-1.3-1"/><path id="Fill-307" class="st18" d="M-707.6 300c-.1 0-.2-.1-.3-.2-.6-1.8-1.6-3.8-2.3-4.9-.1-.1-.1-.3.1-.4.1-.1.3-.1.4.1.7 1 1.8 3 2.4 5 0 .2-.1.4-.3.4"/><path id="Fill-309" class="st18" d="M-758.8 371.5c-.1 0-.1 0-.2-.1l-2.7-2.4-14.6 2.2-.1-.6 14.7-2.2c.1 0 .2 0 .2.1l2.8 2.5c.1.1.1.3 0 .4l-.1.1"/><path id="Fill-311" class="st18" d="M-756.7 373.2c-.1 0-.1 0-.2-.1l-.4-.4c-.1-.1-.1-.3 0-.4.1-.1.3-.1.4 0l.4.4c.1.1.1.3 0 .4-.1.1-.2.1-.2.1"/><path id="Fill-313" class="st18" d="M-774.6 388c-.1 0-.3-.1-.3-.2 0-.2.1-.3.2-.3l29.2-4.2-10.7-9.3c-.1-.1-.2-.3-.1-.4.1-.1.3-.2.4-.1l.3.2 10.9 9.5c.1.1.1.2.1.3 0 .1-.1.2-.2.2l-29.8 4.3c.1 0 0 0 0 0"/><path id="Fill-315" class="st18" d="M-746 378.4c-.1 0-.1 0-.2-.1l-1.2-.9c-.1-.1-.1-.3 0-.4.1-.1.3-.1.4 0l1.1.8 12.8-1.4.1.3v.3l-.8.1-12.2 1.3"/><path id="Fill-317" class="st18" d="M-750 375.2c-.1 0-.1 0-.2-.1l-2.3-1.8c-.1-.1-.1-.3 0-.4.1-.1.3-.1.4 0l2.3 1.8c.1.1.1.3 0 .4-.1.1-.2.1-.2.1"/><path id="Fill-319" class="st18" d="M-735.7 282.4h-.2c-.4-.1-.7-.5-1.1-1.1-.6-.8-1.4-1.8-2.8-2.8-4.3-3-4.3-3.5-4.3-3.6 0-.1 0-.2.1-.3.4-.4.7-.3 1.1-.2.7.2 2.1.5 6.1-.8 5.2-1.6 6.3-6.4 6.8-9 .1-.3.1-.6.2-.9 0-.2.2-.2.4-.2s.2.2.2.4c-.1.2-.1.5-.2.9-.6 2.7-1.7 7.7-7.2 9.4-4.2 1.3-5.7 1-6.4.8-.3-.1-.3-.1-.4 0 .3.3 1.3 1.3 4 3.1 1.5 1 2.4 2.2 3 2.9.3.4.6.8.8.9.9.2 8.2-3.2 11.4-7 .1-.1.3-.1.4 0 .1.1.1.3 0 .4-3.2 3.5-10.2 7.1-11.9 7.1"/><path id="Fill-321" class="st18" d="M-796.4 334.5c-.1 0-.1 0-.2-.1s-.1-.3-.1-.4c1.1-1.4 2.6-3.5 3.8-5.7.3-.5.6-1.1.8-1.6.1-.1.2-.2.4-.1.1.1.2.2.1.4-.3.5-.5 1.1-.8 1.6-1.2 2.3-2.8 4.4-3.8 5.8 0 .1-.1.1-.2.1"/><path id="Fill-323" class="st18" d="M-801.6 328.5h-.1c-.1-.1-.2-.3-.1-.4l.3-.6c1.4-3.1.8-6.5.6-7.9-.1-.7-.1-.8 0-1 .1-.1.2-.1.2-.1.2 0 3.5.2 6.5.4.2 0 .3.2.3.3 0 .2-.2.3-.3.3-2.5-.2-5.2-.4-6.1-.4 0 .1 0 .3.1.4.2 1.5.8 5-.7 8.2-.1.2-.2.5-.3.7-.2.1-.3.1-.4.1"/><path id="Fill-325" class="st15" d="M-661.7 340.2c-5.5 2.9-22.5-.6-23.1-.6-.3 0-2.5 11.9-2 12.2.1 0 7.8 1.3 14.5 1.1 7.6-.2 12.1-1.4 12.2-1.5.4-.6-1-11.5-1.6-11.2"/><path id="Fill-327" class="st18" d="M-686.7 351.6c1.1.2 8.2 1.2 14.3 1.1 7-.2 11.4-1.2 12-1.5.3-.9-.8-9.4-1.4-10.6-4.9 2.4-17.7.2-21.9-.5-.4-.1-.8-.1-1.1-.2-.4 1.4-2 10.5-1.9 11.7zm13 1.7c-6.1 0-13.2-1-13.4-1.2-.8-.5 1.5-11.4 1.8-12.2.1-.3.2-.5.4-.6.1 0 .4 0 1.3.2 4.2.7 17.1 2.8 21.7.4.1-.1.3-.1.5.1.6.7 2.1 10.7 1.4 11.5-.3.3-5.2 1.5-12.5 1.6-.3.2-.7.2-1.2.2z"/><path id="Fill-329" class="st15" d="M-749.4 356.1c-9.7 12.1-13 2.5-13.5 2.5-.2 0-1.3 1.6-4.8 4s-6.9 3.5-7 3.7c-.2.2 2.8 3 5.5 3 2.6 0 8.7-3.3 11.9-5.5 4-2.7 7.5-6.4 9.1-9.4 2-3.7.1-5.7.1-6.2s-8.7 5.4-9.2 5.7c-.8.4 2.7 3.3-2.5 7.8l10.4-5.6z"/><path id="Fill-331" class="st18" d="M-759.5 361.6c.4.2.9.3 1.4.3 2.4.1 5.3-1.9 8.5-6l.1-.1c.4-.6.8-1.1 1-1.7 1.5-2.8.7-4.5.3-5.5-.1-.1-.1-.2-.1-.3-1 .4-4.9 3-6.8 4.3-1.2.8-1.8 1.2-2 1.3 0 .1.1.3.1.5.4 1.3 1.3 3.9-2.5 7.2zm-14.8 4.7c.6.6 2.9 2.5 5 2.5 2.4 0 8.4-3.2 11.7-5.5.7-.5 1.5-1 2.2-1.6-1 .5-2 .7-2.9.7-2.5-.1-3.9-2.2-4.5-3.3-.1-.1-.1-.2-.2-.3-.1.1-.2.2-.2.3-.6.6-1.9 2-4.3 3.6-2.6 1.8-5.1 2.8-6.3 3.4-.2.1-.3.2-.5.2zm5.1 3.2c-2.5 0-5.4-2.4-5.7-3-.1-.2 0-.3 0-.4.1-.1.2-.1.8-.4 1.2-.5 3.7-1.6 6.2-3.3 2.4-1.6 3.6-2.9 4.3-3.5.4-.4.5-.5.7-.5.2 0 .3.2.6.6.4.6 1.1 1.7 2.2 2.4 3.7-3.1 2.9-5.4 2.5-6.6-.2-.5-.3-1 .1-1.2.1-.1 1-.7 2-1.3 6.7-4.4 7.2-4.5 7.5-4.4.1 0 .2.2.2.3 0 .1.1.2.2.4.4.9 1.4 2.9-.3 6s-5.3 6.8-9.2 9.5c-3.3 2-9.4 5.4-12.1 5.4z"/><path id="Fill-333" class="st15" d="M-735.8 247.1c-.6-1.7-1.1-11-.1-13.7 1-2.7-10 3.3-11 4.3-.5.5 2.1 14.3 2.9 14.8.2.1 3.2-2.1 5.4-3.4 1.9-1.2 3.1-1.3 2.8-2"/><path id="Fill-335" class="st18" d="M-746.7 237.8c-.3 1.2 2 13 2.8 14.3.3-.2 1.3-.8 2.1-1.3 1-.7 2.1-1.4 3.1-2 .6-.4 1.2-.6 1.6-.8.9-.4 1.1-.5 1-.8-.7-1.9-1.1-11.2-.1-13.9 0-.1.1-.2 0-.3-.9-.6-9.2 3.6-10.5 4.8m2.8 14.9h-.2c-.9-.5-2.6-9.8-3-12.5-.3-2.5-.2-2.6 0-2.7.7-.6 9.8-5.9 11.3-4.9.2.1.4.4.2.9-1 2.6-.5 11.8.1 13.5.3.8-.4 1.1-1.3 1.5-.4.2-1 .4-1.6.8-1 .6-2.1 1.3-3.1 1.9-1.7 1.2-2.2 1.5-2.4 1.5"/><path id="Fill-337" class="st18" d="M-780.2 316c-3-.1-3.6-.5-3.9-.8-.1-.1-.2-.3-.1-.5 0-.3.1-.7.3-1.2.6-2.7 1.8-7.9-2.6-11.8-3.4-3.1-4.9-3.4-5.6-3.6-.4-.1-.7-.2-.9-.7v-.3c.1-.2.4-.6 5.8-1.6 1.8-.3 3.1-1 4-1.4.7-.4 1.2-.6 1.6-.5 1.5.3 6.9 7.3 8.3 12.4 0 .2-.1.3-.2.4-.2 0-.3-.1-.4-.2-1.3-5.1-6.8-11.8-7.8-11.9-.2 0-.6.2-1.2.5-.9.5-2.3 1.2-4.2 1.5-3.5.6-5 1-5.3 1.2.1.1.2.1.5.2.8.2 2.4.5 5.9 3.7 4.6 4.2 3.4 9.5 2.7 12.4-.1.5-.2.9-.2 1.2 0 0 .2.5 3.4.6.2 0 .3.1.3.3-.1 0-.3.1-.4.1"/><path id="Fill-339" class="st15" d="M-766.3 292.3c-.1-.1-8.3.4-9.1-.1-.5-.3-3-6.1-3.7-11.2-.8-5.1-.5-9.3.4-9.2 1.8.2 10 2.5 10.5 2.7.3.1-2.9.7-2.5 5.3.3 4.7 4.5 12.6 4.4 12.5"/><path id="Fill-341" class="st18" d="M-778.8 272.1c-.6.7-.8 4.2-.1 8.8.8 5 3.1 10.6 3.6 11 .5.3 5.1.1 7 .1h1.5c0-.1-.1-.2-.1-.3-.9-2-3.8-8-4.1-11.8-.2-2.5.5-4.2 2.1-5.3-2.1-.6-8.4-2.3-9.9-2.5m5.9 20.6c-1.5 0-2.4-.1-2.7-.2-.7-.4-3.1-6.5-3.9-11.4-.7-4.6-.6-8.4.2-9.3.2-.2.4-.2.6-.2 1.9.2 10.4 2.7 10.5 2.7.1 0 .2.1.2.3 0 .2-.1.3-.3.4-1.6.9-2.4 2.5-2.2 4.9.3 3.7 3.2 9.7 4.1 11.6.4.9.4.9.3 1.1-.1.1-.2.1-.3.1h-6.5"/><path id="Fill-343" class="st18" d="M-771.6 351h-.2c-1.4-.7-3.6-1-6.7-1-.2 0-.3-.1-.3-.3 0-.2.1-.3.3-.3 3 0 5.3.3 6.8 1 .6-1.2 1.6-9.6 1.2-10.7-.7-.3-5.1-1.2-12.1-1.3-4.5 0-9.4.5-12 .9-.2 0-.3-.1-.3-.2 0-.2.1-.3.2-.3 2.5-.4 7.5-.9 12.1-.9 7.3.1 12.2 1.1 12.5 1.5.7.8-.7 10.8-1.3 11.5.1 0-.1.1-.2.1"/><path id="Fill-345" class="st18" d="M-702.4 310.2c0 .1 0 .2.1.3.3 1.2.8 3.7-.9 5.5-.6.7-1.4 1.2-2.5 1.6.9-.1 1.8-.2 2.7-.4 4-.8 10.4-2.8 12.2-4.5 1.5-1.5 1.8-4.5 1.7-5.4-.1 0-.3.1-.4.2-1.2.5-3.8 1.5-6.9 2.1-2.9.6-4.7.6-5.6.5-.2.1-.3.1-.4.1m-11.6 7.3c.1 0 .1 0 0 0 5.3.6 8.7 0 10.3-1.8.3-.4.6-.8.7-1.2h-.1c-.2 0-.5.1-.6.1-4.6.1-5.6-2.2-6.2-3.3l-.2-.4c-.2.1-1 .2-2.4.5-2.3.5-6.8 1.4-7.8 1.8 0 .1.1.2.1.3.3 1 1 2.7 4.1 3.7.6.2 1.2.3 1.9.4l.2-.1m4.4.9c-2.4 0-4.7-.3-6.5-.8-3.4-1-4.1-3-4.4-4-.1-.2-.1-.4-.2-.4-.1-.1-.1-.2-.1-.3.1-.3.5-.6 8.4-2.2 1.1-.2 2.2-.5 2.3-.5.5-.2.7.3.9.8.5 1.1 1.4 3.1 5.6 3 .1 0 .4 0 .6-.1h.3c.2-1.2 0-2.4-.2-3.2-.1-.5-.2-.7 0-.9.1-.2.3-.2.9-.2.9 0 2.7 0 5.5-.5 3-.6 5.5-1.6 6.7-2.1.7-.3.7-.3.9-.3.1 0 .2.1.3.3.2.6-.1 4.4-1.9 6.2-1.9 1.9-8.5 3.9-12.5 4.6-2.2.4-4.5.6-6.6.6"/><path id="Fill-347" class="st15" d="M-728.3 347.7c-1.8 0-10.7 2.8-12.9 4.6-2.2 1.9-.3-10.6.2-11.8.3-.6 14.2-3 14.9-2.3.2.2-.8 3.7-1.3 6.3-.4 2.1-.1 3.2-.9 3.2"/><path id="Fill-349" class="st18" d="M-740.8 340.7c-.6 1.6-1.8 10.9-.9 11.5 0 0 .1 0 .2-.1 2.2-1.9 11.2-4.7 13.1-4.7.2 0 .3-.2.4-1.2 0-.5.1-1.1.2-1.8.2-1.1.5-2.4.8-3.6.2-1 .5-2.1.5-2.4-1.2-.3-13.3 1.6-14.3 2.3zm-.9 12.1c-.2 0-.3-.1-.4-.1-1.5-1.1.3-11.4.7-12.3.1-.2.2-.4 2.6-.9 2.7-.6 11.9-2.2 12.7-1.5.2.2.2.5-.4 3-.3 1.1-.6 2.4-.8 3.5-.1.7-.2 1.3-.2 1.7-.1 1-.1 1.7-.9 1.7-1.8 0-10.6 2.8-12.7 4.6-.2.3-.4.3-.6.3z"/><path id="Fill-351" class="st18" d="M-780.5 353.4h-.2c-.1-.1-.2-.3-.1-.4 1.5-2.4 2-3.9 2.1-4.2-.7-.6-7.2-4.2-9.3-4.4h-.4c-.1.3-.2.7-.3 1.2-.2 1.1-.6 2.6-1.2 4.1-.1.1-.2.2-.4.2-.1-.1-.2-.2-.2-.4.6-1.5.9-2.9 1.2-4 .1-.5.2-.9.3-1.2.1-.2.2-.4.8-.4 2.1 0 9.8 4.1 10 4.7.2.5-.8 2.6-2.2 4.7.1.1 0 .1-.1.1"/><path id="Fill-353" class="st15" d="M-714.4 343.3c.2 0 6.1 6.7 7.1 6.9.7.2 7.1-2.7 11.6-6.3 4.6-3.6 7.5-7.1 6.6-7.7-1.6-1.2-10.2-5.4-10.6-5.7-.3-.1 1.8 2.7-2 6.2-3.9 3.5-12.9 6.6-12.7 6.6"/><path id="Fill-355" class="st18" d="m-713.9 343.4 1.2 1.2c1.6 1.7 4.9 5.2 5.5 5.3.7.1 6.9-2.7 11.4-6.2 4.1-3.2 6.7-6.2 6.7-7.2v-.1c-1.4-1-8-4.4-10-5.4.5 2-.2 4-2.3 5.9-3.2 2.8-9.8 5.5-12 6.3-.3.1-.4.2-.5.2m6.6 7.1h-.1c-.7-.2-2.6-2.1-5.8-5.5-.6-.7-1.3-1.3-1.4-1.5-.1 0-.1-.1-.1-.2 0-.2 0-.2 1-.6 2.2-.9 8.7-3.4 11.8-6.2 2-1.8 2.7-3.7 2-5.7-.1-.2-.1-.4 0-.5.1-.1.2-.1.3 0 .1 0 9 4.4 10.7 5.7.1.1.3.3.3.6 0 1.5-3.5 4.9-6.9 7.6-4.3 3.3-10.6 6.3-11.8 6.3"/><path id="Fill-357" class="st18" d="M-776 333.9c-1.4 0-9.8-5.8-10.5-6.4-.2-.2-.4-.4-.3-.6 0-.1.2-.4.7-1.2 2.3-3.6 9.2-14.7 8.7-19.9 0-.1.1-.3.3-.4.9-.3 10.7 2.2 11.2 3.1.2.3-.4 4.1-2.3 9.5-.1.2-.2.2-.4.2-.2-.1-.2-.2-.2-.4 1.8-5.2 2.3-8.5 2.3-9.1-.7-.7-9-2.9-10.4-2.8.3 5.4-6.6 16.4-8.8 20-.2.4-.5.7-.6.9 1.1.9 8.8 6 10 6.3.4-.6 2.1-3.5 3.8-6.9.1-.1.2-.2.4-.1.1.1.2.2.1.4-1.7 3.5-3.9 7.1-4.1 7.2.2.2.1.2.1.2z"/><path id="Fill-359" class="st18" d="M-766.9 318c.3 0 .6 0 .9.1 1.9.5 2.7 2.3 3 3.2 0 .1 0 .1.1.2.1 0 .1-.1.2-.1.6-.4 1.8-1.2 3.9-2.1 2.2-1 4.3-1.4 5.3-1.6.1 0 .2 0 .3-.1-.4-.6-1.9-2.3-3.4-2.6-1.8-.4-6.8 1.2-9.7 2.4-.5.2-1 .4-1.4.7.2-.1.5-.1.8-.1m-6.7 4c-.4.4-.7.7-1 1.1-1.6 1.9-1.2 3.3-1 4.1 0 .1 0 .1.1.2.9-.2 4.1-1.6 5.8-2.2 1-.4 1.5-.6 1.7-.7v-.3c-.2-1-.5-3.1 2.9-5.1-.3-.2-.6-.3-.9-.4-1.8-.4-4.3.7-7.4 3.3h-.2m-2.2 6c-.1 0-.2 0-.2-.1-.1-.1-.1-.2-.1-.3 0 0 0-.2-.1-.3-.2-.8-.6-2.5 1.1-4.6 1.7-2.1 5-4.4 8.4-5.9 2.9-1.2 8-2.9 10.1-2.5 2 .4 3.8 2.7 3.9 3.2.1.2 0 .3-.1.4-.1.1-.2.1-.7.2-1 .2-3.1.7-5.2 1.6-2 .9-3.2 1.7-3.8 2.1-.4.3-.5.3-.7.3-.2-.1-.3-.2-.4-.6-.2-.5-.6-1.4-1.2-2.1-3.3 1.8-3 3.6-2.8 4.6.1.4.1.8-.3 1-.1 0-.9.4-1.7.7-4.6 1.9-5.8 2.3-6.2 2.3"/><path id="Fill-361" class="st15" d="M-712.9 322.7c-.5-1-4.8.2-10.5 1.7s-16.2 5.6-16.1 5.9c.2.4 4.8 2.3 6 2.3.6 0 6.9-3.4 14-5 6-1.4 11.4-.7 11.3-.8-.8-1.2-4.4-3.6-4.7-4.1"/><path id="Fill-363" class="st18" d="M-739 330.3c.8.5 4.5 2 5.5 2 .2 0 1-.4 1.9-.8 2.5-1.1 7.1-3.1 12.1-4.3 4.7-1.1 9.1-.9 10.7-.8-.6-.6-1.7-1.5-2.6-2.2-1.1-.8-1.6-1.2-1.7-1.5-.4-.7-4.6.4-8.8 1.4l-1.4.4c-5.4 1.5-14.2 5-15.7 5.8zm5.5 2.6c-1.2 0-6-1.8-6.2-2.5v-.3c.4-.7 11.3-4.8 16.3-6l1.4-.4c6-1.5 8.9-2.2 9.4-1.1.1.2.9.8 1.6 1.3 1.2.9 2.6 2 3.1 2.7.1.1.1.2 0 .3-.1.2-.2.2-.9.1-1.6-.1-5.9-.3-10.5.8-4.9 1.1-9.5 3.1-12 4.2-1.4.7-1.9.9-2.2.9z"/><path id="Fill-365" class="st18" d="M-786.3 338.3c-.1 0-.2 0-.2-.1-.7-.9-1.7-2.2-2.4-3.2-.4-.6-.7-1.1-.9-1.5-.5-.9-.6-1-.8-.9-.9.4-3.4.8-4.8.9-.2 0-.3-.1-.3-.2 0-.2.1-.3.2-.3 2.3-.3 4-.6 4.6-.9.7-.3 1.1.3 1.6 1.2.2.4.5.9.9 1.5.7 1 1.6 2.3 2.4 3.2.1.1.1.3 0 .4-.1-.1-.2-.1-.3-.1"/><path id="Fill-367" class="st18" d="M-774.3 381.8c-.8 0-2.4-.7-3.3-1.1-.1-.1-.2-.2-.1-.4.1-.1.2-.2.4-.1 2 1 2.9 1.1 3.1 1.1.2 0 .5-.5.9-.9.6-.8 1.6-2 3.2-3.1 2.9-2 4-3 4.3-3.4-.1-.1-.2 0-.5 0-.8.2-2.4.5-6.9-.9-5.9-1.9-7.1-7.2-7.7-10-.1-.5-.2-.9-.3-1.2h-.2c-.3 0-1.2.1-3.3 1-.1.1-.3 0-.4-.1-.1-.1 0-.3.1-.4 3.1-1.4 3.7-1.1 3.9-1 .2.1.3.2.3.4.1.3.2.7.3 1.2.6 2.7 1.7 7.9 7.3 9.6 4.4 1.4 5.9 1 6.6.9.4-.1.7-.2 1.2.2.1.1.1.2.1.3 0 .2-.1.7-4.6 3.9-1.5 1.1-2.4 2.2-3 3-.5.6-.8 1-1.2 1.1 0-.1-.1-.1-.2-.1"/><path id="Fill-369" class="st15" d="M-758.1 324.8c.1.2 6.7 5 7 5.8.2.6-1.6 6.6-4.2 11-2.7 4.5-5.5 7.5-6.2 6.8-1.3-1.3-6.1-8.3-6.4-8.7-.2-.2 2.7 1.3 5.3-2.5 2.7-3.8 4.5-12.5 4.5-12.4"/><path id="Fill-371" class="st18" d="M-767.2 340.1c1.2 1.7 4.9 7.1 6 8.1h.1c.8-.1 3.2-2.7 5.6-6.8 2.6-4.4 4.4-10.2 4.2-10.8-.2-.5-3.8-3.3-5.4-4.5-.6-.5-1-.7-1.2-.9 0 .1-.1.2-.1.3-.5 2.1-2.1 8.6-4.3 11.8-1.4 2.1-3 3-4.9 2.8m6 8.8c-.2 0-.4-.1-.5-.2-1.4-1.4-6.4-8.7-6.4-8.8-.1-.1-.1-.2 0-.3.1-.2.3-.1.5-.1 1.8.4 3.5-.4 4.8-2.4 2.1-3.1 3.7-9.5 4.2-11.6.2-1 .2-1 .5-1 .1 0 .2 0 .2.1.1.1.8.6 1.5 1.1 3.4 2.6 5.4 4.2 5.6 4.8.3.8-1.7 7-4.3 11.3-2.4 4-4.9 6.9-6 7 0 .1-.1.1-.1.1"/><path id="Fill-373" class="st18" d="M-760.9 361.1c-.1 0-.1 0 0 0-.2 0-.3-.2-.3-.4.6-2.5.1-6.7-.2-7.6-.2 0-.6.1-1.1.1-4.3.4-17.1 1.7-21.9-.9-.1.2-.4.9-.8 2.8 0 .2-.2.3-.3.2-.2 0-.3-.2-.2-.3.7-3 1-3.2 1.2-3.2h.3c4.4 2.7 17.4 1.4 21.7 1 .9-.1 1.2-.1 1.3-.1.1 0 .2.1.2.1.3.4.9 5.5.3 8.2 0 0-.1.1-.2.1"/><path id="Fill-375" class="st18" d="M-773 365.7c-2-.1-4.4-.3-7.2-.8-.2 0-.3-.2-.2-.3 0-.2.2-.3.3-.2 2.7.4 5.1.7 7.1.8.2 0 .3.1.3.3 0 .1-.1.2-.3.2"/><path id="Fill-377" class="st18" d="M-786.2 359.3c-.1 0-.1 0 0 0-.2 0-.3-.2-.3-.3.2-1.4.5-2.8.8-4 0-.2.2-.3.3-.2.2 0 .3.2.2.3-.3 1.2-.6 2.6-.8 4 0 .1-.1.2-.2.2"/><path id="Fill-379" class="st18" d="M-742.8 306.6c.1 0 .2.1.3.1 1.2.3 3.6 1 4.5 3.3.3.8.4 1.8.2 3 .3-.8.6-1.7.9-2.5 1.2-3.9 2.4-10.5 1.6-12.9-.7-2-3.2-3.7-4-4v.4c-.1 1.3-.4 4.1-1.3 7.1-.8 2.8-1.7 4.5-2.1 5.2 0 .1 0 .2-.1.3zm-5.6 17.1h.4c1 .1 2.9.4 5.1-1.9.4-.4.8-.9 1.3-1.5v-.1c2.9-4.4 3.9-7.7 3.1-10-.2-.5-.4-.9-.7-1.2-2 4.8-4.7 4.6-6 4.6h-.5c0 .2-.2 1-.6 2.3-.7 2.2-2 6.7-2.1 7.8zm1.4.7c-.4 0-.8 0-1.1-.1h-.4c-.1 0-.2 0-.3-.1-.3-.3-.2-1.1 1.9-8.4.3-1.1.6-2.2.6-2.3.1-.5.6-.5 1.1-.4 1.3.1 3.6.2 5.5-4.3 0 0 0-.1.1-.1-1-.8-2.2-1.1-2.9-1.3-.5-.1-.7-.2-.8-.4-.1-.2 0-.3.3-.8.4-.8 1.2-2.4 2.1-5.1.9-2.9 1.1-5.7 1.2-7 .1-.7.1-.8.1-.9 0-.1.2-.2.4-.1.7.1 3.9 2.1 4.6 4.5.8 2.5-.5 9.4-1.6 13.2-1.3 4.5-3.8 9.1-6.2 11.6-1.9 1.6-3.5 2-4.6 2z"/><path id="Fill-381" class="st15" d="M-704 357.6c-.3 1.1-4.8.6-10.7.2-5.9-.4-16.9-2.7-16.9-3 .1-.5 4.3-3.1 5.5-3.3.6-.1 7.4 2.1 14.7 2.5 6.1.3 11.3-1.3 11.3-1.2-.6 1.3-3.7 4.2-3.9 4.8"/><path id="Fill-383" class="st18" d="M-731.1 354.7c1.7.6 10.9 2.4 16.4 2.8l1.4.1c4.3.3 8.7.7 8.9-.1.1-.3.5-.8 1.4-1.8.8-.8 1.7-1.8 2.2-2.6-1.6.4-5.8 1.3-10.7 1.1-5.1-.3-10-1.4-12.6-2.1-1-.2-1.8-.5-2-.4-.9.2-4.2 2.2-5 3zm24.3 3.8c-1.5 0-3.6-.2-6.4-.4l-1.4-.1c-5.1-.4-16.6-2.5-17.1-3.1-.1-.1-.1-.2-.1-.3.1-.7 4.6-3.4 5.7-3.6.2 0 .8.1 2.3.4 2.6.6 7.5 1.8 12.5 2.1 4.8.3 8.9-.7 10.5-1.1.7-.2.8-.2.9 0 .1.1.1.2 0 .3-.4.8-1.5 2.1-2.6 3.2-.6.6-1.2 1.4-1.3 1.5-.1.9-1.1 1.1-3 1.1z"/><path id="Fill-385" class="st15" d="M-763 296.8c1.7-.5 9.7-5.4 11.4-7.7 1.7-2.4 3 10.1 2.8 11.5-.1.7-13 6.4-13.8 6-.2-.1-.1-3.8-.3-6.4-.3-2.1-.9-3.2-.1-3.4"/><path id="Fill-387" class="st18" d="m-751.2 289.1-.2.2c-1.7 2.4-9.6 7.3-11.5 7.8-.2.1-.2.2-.1 1.3.1.5.2 1.1.2 1.8.1 1.1.1 2.5.1 3.6 0 1 0 2.1.1 2.5 1.3 0 12.5-4.9 13.3-5.8.4-1.7-.8-11-1.9-11.4zm-11.4 17.8h-.2c-.3-.1-.3-.4-.3-3 0-1.2 0-2.5-.1-3.6-.1-.7-.2-1.3-.2-1.7-.2-1-.3-1.7.5-1.9 1.7-.5 9.6-5.3 11.2-7.6.3-.5.7-.4.9-.4 1.7.7 2.5 11.2 2.4 12.1 0 .2-.1.4-2.3 1.5-2.5 1-10.2 4.6-11.9 4.6z"/><path id="Fill-389" class="st18" d="M-660.1 245c-2.9 2.9-4.3 5.3-4 7.2.1.4.2.7.3 1 2.3-3.3 4.4-2.7 5.4-2.5.1 0 .3.1.3.1.1-.2.4-.7.9-1.7.8-1.6 2.5-4.8 2.8-5.7-.1 0-.1 0-.2-.1-.8-.3-2.2-.8-4.2.7-.5.2-.9.6-1.3 1m-4.5 5.4c-.3.5-.6 1-.8 1.5-1.5 2.8-3.5 7.8-3.3 9.7.2 1.6 1.7 3.2 2.4 3.7 0-.1.1-.2.1-.3.3-1 1-3.1 2.1-5.3 1.1-2.1 2-3.2 2.5-3.7 0-.1.1-.1.1-.2-.1 0-.1-.1-.2-.1-.9-.4-2.7-1.4-3-3.4-.1-.6-.1-1.3.1-1.9m-1.7 15.5h-.1c-.5-.2-2.7-2.3-2.9-4.3-.2-2.1 1.9-7.2 3.4-10 1.4-2.7 3.4-5.3 5.4-7 .4-.4.9-.7 1.3-1 2.3-1.6 4-1 4.8-.7.1 0 .3.1.3.1.1 0 .2.1.3.1.2.3.1.6-2.8 6.3-.4.8-.8 1.6-.9 1.7-.1.4-.6.3-1 .2-1-.3-2.8-.7-4.9 2.4.6.8 1.5 1.2 2 1.5.4.2.5.3.6.5 0 .2-.1.3-.4.7-.4.5-1.3 1.6-2.4 3.7-1.1 2.1-1.8 4.2-2.1 5.2-.2.5-.2.6-.3.7-.1-.2-.1-.1-.3-.1"/><path id="Fill-391" class="st15" d="M-638.6 300.4c1.6-.7 10.9-2.1 13.7-1.3 2.8.8-4.2-9.7-5.2-10.6-.5-.5-14.1 3.3-14.5 4.2-.1.3 2.3 3 3.8 5.1 1.3 1.8 1.5 2.9 2.2 2.6"/><path id="Fill-393" class="st18" d="M-644.2 292.8c.2.3.9 1.2 1.5 2 .7.9 1.6 2 2.2 2.9.4.6.7 1.1 1 1.5.5.9.6 1 .8.9 1.8-.8 11.1-2.1 13.9-1.3h.3c.5-1-4.4-8.9-5.7-10.1-1.3-.1-12.9 3.2-14 4.1zm5.4 8c-.5 0-.8-.6-1.2-1.3-.2-.4-.5-.9-.9-1.5-.6-.9-1.5-2-2.2-2.9-1.6-2-1.8-2.3-1.6-2.5.4-1 9.8-3.5 12.2-4 2.4-.5 2.6-.4 2.7-.3.7.6 6.7 9.2 5.8 10.8-.1.2-.3.4-.9.3-2.7-.7-11.8.5-13.5 1.3-.2 0-.3.1-.4.1z"/><path id="Fill-395" class="st15" d="M-670.9 278.8c2.1.2 8.7 2.3 13.1-3.2 4.5-5.5 2.7-6.2 3.8-6.7.3-.1 1.1 2.4 1.8 5.5s2.4 4.6 2.3 5.3c-.2 1.2-6.7 7.2-11.8 8.8-5.1 1.6-8.7 1.5-8.9 1.3-.5-.3-1.7-11.1-.3-11"/><path id="Fill-397" class="st18" d="M-670.9 278.8v.3-.3zm.4 10.9c.4.1 3.7.2 8.6-1.4 5.1-1.6 11.5-7.5 11.6-8.6 0-.2-.2-.6-.5-1.1-.5-.9-1.3-2.2-1.7-4.1-.8-3.5-1.3-4.9-1.5-5.3-.1.1-.1.2-.2.5-.1.8-.4 2.4-3.4 6.1-3.9 4.8-9.3 3.9-12.2 3.5-.5-.1-.9-.1-1.2-.2 0 0-.1.1-.2.3-.5 2 .4 9.4.7 10.3zm.9.6c-.7 0-1.1-.1-1.2-.2-.5-.5-1.5-9.1-.7-11.1.2-.5.5-.6.7-.5.3 0 .8.1 1.3.2 2.8.5 7.9 1.3 11.6-3.3 2.9-3.6 3.1-5.1 3.2-5.8.1-.4.1-.8.6-1h.3c.2.1.6.3 1.9 5.7.4 1.8 1.1 3 1.7 3.9.4.7.7 1.1.6 1.5-.2 1.5-7 7.5-12 9-3.4 1.2-6.4 1.6-8 1.6z"/><path id="Fill-399" class="st15" d="M-682 315c1.5-1.1 7.2-8.4 7.9-11.2.7-2.8 6.3 8.5 6.6 9.8.1.7-9.9 10.6-10.9 10.4-.3 0-1.5-3.6-2.5-5.9-.9-1.9-1.8-2.6-1.1-3.1"/><path id="Fill-401" class="st18" d="M-681.8 315.3c-.2.1-.1.3.4 1.2.2.4.6.9.9 1.6.5 1 1 2.3 1.4 3.4.4.9.8 2 1 2.3 1.2-.5 10-8.9 10.5-10.1-.4-1.7-4.8-9.9-5.9-9.9 0 0-.1.1-.1.2-.9 2.7-6.7 10.1-8.2 11.3zm3.4 9c-.3 0-.5-.3-1.4-2.7-.4-1.1-.9-2.3-1.4-3.3-.3-.6-.6-1.1-.8-1.5-.5-.8-.9-1.5-.2-2 1.5-1 7.1-8.3 7.8-11 .2-.6.5-.7.7-.7 1.8 0 6.3 9.6 6.5 10.5 0 .2.1.4-1.6 2.2-1.9 2-8.4 8.5-9.6 8.5z"/><path id="Fill-403" class="st18" d="M-789 303.1c-.7.1-2.9.8-3.7 2.1-1.1 1.5-1.7 6.7-1.7 9.9v1.6c.2-.7.4-1.2.8-1.7 1.2-1.6 3.2-1.5 4.1-1.5h.2v-.2c-.1-.7-.4-2.1-.4-4.4 0-2.4.5-4.5.7-5.6v-.2m-4.1 20.4c.2.5.4 1 .6 1.4 1.1 2.2 2.6 2.4 3.3 2.6h.2c.2-.9.2-4.4.3-6.2 0-1 0-1.6.1-1.8-.1 0-.2-.1-.3-.1-1-.3-3-.8-3.5-4.7-.3.2-.5.4-.7.7-1.1 1.5-1.1 4.2.1 8.1-.1-.1-.1 0-.1 0m4.3 4.6h-.2s-.2 0-.3-.1c-.8-.1-2.5-.4-3.7-2.9-1.2-2.4-2-6.4-2-10.1 0-3.1.6-8.5 1.8-10.2 1.1-1.6 4-2.4 4.5-2.3.2 0 .3.2.3.2 0 .1 0 .2-.1.7-.2 1-.6 3.1-.7 5.4 0 2.2.2 3.6.4 4.3.1.4.1.6 0 .7-.1.2-.3.1-.7.1-.6 0-1.5 0-2.4.3.4 3.7 2.1 4.2 3.1 4.4.4.1.8.2.8.7 0 .1 0 1-.1 1.8-.1 6.3-.3 6.6-.5 6.8-.1.2-.2.2-.2.2"/><path id="Fill-405" class="st18" d="M-711.2 380.6c-.1 0-.2 0-.2-.1-.1-.1-.1-.3 0-.4 3.2-2.5 4.3-9 .8-14.8-.1-.1 0-.3.1-.4.1-.1.3 0 .4.1 3.7 6 2.5 12.9-.9 15.5-.1 0-.1.1-.2.1"/><path id="Fill-407" class="st18" d="M-700.8 382.7c-.1 0-.2 0-.2-.1-.1-.1-.1-.3 0-.4 2.9-2.4 4-7.8 3.7-11.6 0-.2.1-.3.3-.3.2 0 .3.1.3.3.4 4-.8 9.6-3.9 12.1 0-.1-.1 0-.2 0"/><path id="Fill-409" class="st18" d="M-768.3 392.8c-.1 0-.2-.1-.3-.1-.1-.1 0-.3.1-.4 1.1-.6 1-2 1-2 0-.2.1-.3.3-.3.2 0 .3.1.3.3 0 .1.1 1.8-1.3 2.6 0-.1-.1-.1-.1-.1"/><path id="Fill-411" class="st18" d="M-704.7 308h-.1c-.1-.1-.2-.2-.2-.4 2.5-5.8 7.5-10 11.7-13 4.2-3 7.8-5.7 12.5-5.7.2 0 .3.1.3.3s-.1.3-.3.3c-4.5 0-8.1 2.6-12.2 5.6-4.1 3-9 7.1-11.5 12.8 0 .1-.1.1-.2.1"/><path id="Fill-413" class="st18" d="M-666.5 300.1c-.1 0-.3-.1-.3-.2-.8-3.8-2.8-5.2-4.6-6.2-.2-.1-.6-.3-1.1-.4-1.2-.4-2.8-1.1-3.6-2.4-.3-.4-.5-.9-.8-1.4-.8-1.5-1.8-3.1-2.7-3.6-1.2-.6-2.8-.3-4.5 0-1.2.2-2.5.5-3.8.4-.2 0-.3-.2-.3-.3s.2-.3.3-.3c1.2.1 2.4-.1 3.6-.3 1.8-.3 3.5-.6 4.9.1 1.1.5 2 2.2 2.9 3.8.3.5.5 1 .8 1.4.7 1.1 2.2 1.7 3.3 2.1.5.2.9.3 1.1.5 2.1 1.2 4.1 2.8 4.9 6.6.2 0 .1.2-.1.2.1 0 0 0 0 0"/><path id="Fill-415" class="st18" d="M-704.4 308.1c-3.6 0-10.4-1.3-14.7-6.7-.1-.1-.1-.3 0-.4.1-.1.3-.1.4 0 4.5 5.6 11.8 6.6 15 6.4 2.4-.2 4.9-.7 7.6-1.6.1-.1.3 0 .4.2.1.2 0 .3-.2.4-2.8 1-5.3 1.5-7.8 1.6-.1.1-.4.1-.7.1"/><path id="Fill-417" class="st18" d="M-692.6 305.2c-.1 0-.2-.1-.3-.2-.1-.1 0-.3.2-.4 2.5-1.1 4.9-2.3 7.2-3.4 5-2.6 9.8-5 14-4.9.2 0 .3.1.3.3 0 .2-.1.3-.3.3h-.2c-4 0-8.6 2.3-13.5 4.8-2.3 1.2-4.7 2.4-7.2 3.5h-.2"/><path id="Fill-419" class="st18" d="M-703 304.3c-.1 0-.1 0 0 0-3.6-1-8.9-4.1-9.7-8 0-.2.1-.3.2-.3.2 0 .3.1.3.2.7 3.3 5.3 6.5 9.2 7.6.2 0 .2.2.2.4 0 0-.1.1-.2.1"/><path id="Fill-421" class="st18" d="M-721 304.1c-.1 0-.2-.1-.3-.2-1.4-4.3 3-9.4 5.7-11.2.1-.1.3-.1.4.1.1.1.1.3-.1.4-1.9 1.3-6.8 6.2-5.4 10.5 0 .2-.1.4-.3.4"/><path id="Fill-423" class="st18" d="M-721.2 249.3c-.1 0-.2 0-.2-.1-.5-.8-2-2-3.2-3-1.3-1.1-1.8-1.5-1.8-1.8-.1-.3.2-.4 1-.6 1.3-.4 3.7-1 5.3-2.5 1.2-1.1 2.1-2.2 2.6-2.9.7-.9 1-1.3 1.4-1 1.3.8 2.8 2.7 4.3 4.8.1.1.1.3-.1.4-.1.1-.3.1-.4-.1-1.4-1.9-2.8-3.8-4-4.6-.1.1-.4.5-.7.8-.6.7-1.4 1.9-2.7 3-1.7 1.6-4.2 2.3-5.6 2.7-.2 0-.3.1-.5.1.3.3.9.8 1.5 1.3 1.2 1 2.8 2.3 3.3 3.2.1.1 0 .3-.1.4 0-.1 0-.1-.1-.1"/><path id="Fill-425" class="st18" d="M-663 283.5c.1.2.2.3.4.4.5.2 1.5.1 2.4-.2 1.4-.6 2.2-1.7 2-2.3-.1-.2-.2-.3-.4-.4-.5-.2-1.5-.1-2.4.2-1.4.6-2.2 1.7-2 2.3m1.2 1.1c-.4 0-.7-.1-1-.2-.4-.2-.6-.4-.7-.7-.3-1 .7-2.3 2.3-3 1-.5 2.1-.6 2.8-.2.4.2.6.4.7.7.3 1-.7 2.3-2.3 3-.6.2-1.3.4-1.8.4"/><path id="Fill-427" class="st18" d="M-774.5 281.4c-.2 0-.3.1-.5.3-.3.4-.3 1-.2 1.7.3 1.1 1 1.9 1.6 1.9.2 0 .3-.1.5-.3.3-.4.3-1 .2-1.7-.2-1.2-1-2-1.6-1.9m.9 4.4c-.9 0-1.8-1-2.1-2.3-.2-.9-.1-1.7.3-2.2.2-.3.5-.5.9-.5.9-.1 1.9.9 2.3 2.3.2.9.1 1.7-.3 2.2-.2.3-.5.5-.9.5h-.2"/><path id="Fill-429" class="st18" d="M-731.4 274.9c.1.1.3.2.5.3.5.1 1.1-.2 1.6-.7.8-.7 1.2-1.8.9-2.3-.1-.1-.3-.2-.5-.3-.5-.1-1.1.2-1.6.7-.8.7-1.2 1.7-.9 2.3m.6.8h-.2c-.4 0-.7-.2-.9-.5-.5-.8-.1-2.1 1-3.1.7-.6 1.4-.9 2.1-.8.4 0 .7.2.9.5.5.8.1 2.1-1 3.1-.6.5-1.3.8-1.9.8"/><path id="Fill-431" class="st18" d="M-775 316.8c-.8 0-1.7.7-2.3 1.6-.4.7-.6 1.5-.4 2 .1.3.3.5.6.6.8.3 2.1-.4 2.7-1.6.4-.7.6-1.5.4-2-.1-.3-.3-.5-.6-.6h-.4m-1.7 4.9c-.2 0-.4 0-.6-.1-.4-.2-.7-.5-.9-1-.2-.7-.1-1.6.4-2.5.8-1.4 2.4-2.2 3.5-1.8.4.2.7.5.9 1 .2.7.1 1.6-.4 2.5-.8 1.1-1.9 1.9-2.9 1.9"/><path id="Fill-433" class="st18" d="M-773.5 357.5h-.6c-.8.1-1.5.5-1.8 1-.2.3-.2.5-.1.8.3.8 1.6 1.4 2.9 1.2.8-.1 1.5-.5 1.8-1 .2-.3.2-.5.1-.8-.1-.7-1.1-1.2-2.3-1.2m-.1 3.7c-1.4 0-2.6-.7-2.9-1.6-.1-.4-.1-.9.2-1.3.4-.6 1.2-1.1 2.2-1.2 1.7-.2 3.2.5 3.6 1.6.1.4.1.9-.2 1.3-.4.6-1.2 1.1-2.2 1.2-.3-.1-.5 0-.7 0"/><path id="Fill-435" class="st18" d="M-672.9 345.4h-.6c-.8.1-1.5.5-1.8 1-.2.3-.2.5-.1.8.3.8 1.6 1.4 2.9 1.2.8-.1 1.5-.5 1.8-1 .2-.3.2-.5.1-.8-.1-.7-1.1-1.2-2.3-1.2m-.1 3.6c-1.4 0-2.6-.7-2.9-1.6-.1-.4-.1-.9.2-1.3.4-.6 1.2-1.1 2.2-1.2 1.7-.2 3.2.5 3.6 1.6.1.4.1.9-.2 1.3-.4.6-1.2 1.1-2.2 1.2h-.7"/><path id="Fill-437" class="st18" d="M-700.2 339.9c-.6 0-1.3.3-1.9.8-.5.5-.9 1.1-.9 1.6 0 .3.1.5.3.6.6.5 1.8.2 2.7-.5.5-.5.9-1.1.9-1.6 0-.3-.1-.5-.3-.6-.2-.2-.5-.3-.8-.3m-1.7 3.9c-.5 0-.9-.1-1.2-.4-.3-.3-.5-.6-.5-1.1 0-.7.4-1.4 1.1-2 1.1-1 2.6-1.2 3.5-.6.3.3.5.6.5 1.1 0 .7-.4 1.4-1.1 2-.7.6-1.5 1-2.3 1"/><path id="Fill-439" class="st18" d="M-757.5 335.9c-.7 0-1.6.7-2 1.7-.3.7-.3 1.3-.1 1.8.1.2.3.4.5.5.7.2 1.7-.6 2.2-1.7.3-.7.3-1.3.1-1.8-.1-.2-.3-.4-.5-.5h-.2m-1.3 4.5h-.4c-.4-.1-.7-.4-.9-.8-.3-.6-.3-1.5 0-2.3.6-1.4 1.8-2.3 2.8-2 .4.1.7.4.9.7.3.6.3 1.5 0 2.3-.4 1.3-1.5 2.1-2.4 2.1"/><path id="Fill-441" class="st18" d="M-782.3 346.3c-.1 0-.2 0-.2-.1-.1-.1-.1-.3.1-.4.5-.4.8-.9.6-1.4-.3-.9-1.6-1.4-2.9-1.2-.9.1-1.6.6-1.8 1.2-.1.1-.2.2-.4.2-.1-.1-.2-.2-.2-.4.3-.8 1.2-1.4 2.3-1.5 1.6-.3 3.2.4 3.5 1.6.2.7-.1 1.5-.8 2h-.2"/><path id="Fill-443" class="st18" d="M-740.2 241.8c-.4 0-.9.2-1.4.5-.9.6-1.4 1.6-1.2 2.2.1.2.2.3.4.3.5.1 1.1-.1 1.7-.5.9-.6 1.4-1.6 1.2-2.2-.1-.2-.2-.3-.4-.3h-.3m-1.8 3.6c-.2 0-.3 0-.4-.1-.4-.1-.6-.3-.8-.6-.4-.8.2-2.1 1.4-2.9.7-.5 1.5-.7 2.2-.5.4.1.6.3.8.6.4.8-.2 2.1-1.4 2.9-.7.4-1.3.6-1.8.6"/><path id="Fill-445" class="st18" d="M-756.2 296.5c-.1 0-.2 0-.3.1-.4.2-.8.8-.9 1.5-.3 1.1 0 2.2.6 2.4.2.1.3.1.5 0 .4-.2.8-.8.9-1.5.3-1.2-.1-2.2-.6-2.4-.1 0-.1-.1-.2-.1m-.5 4.6c-.1 0-.3 0-.4-.1-.9-.3-1.3-1.7-.9-3.1.2-.9.7-1.5 1.2-1.8.3-.2.7-.2 1-.1.9.3 1.3 1.7.9 3.1-.2.9-.7 1.5-1.2 1.8-.2.2-.4.2-.6.2"/><path id="Fill-447" class="st18" d="M-733.9 342.1h-.2c-.4.1-.9.6-1.2 1.3-.5 1-.4 2.1.2 2.5.2.1.3.1.5 0 .4-.1.9-.6 1.2-1.3.5-1 .4-2.1-.2-2.5h-.3m-.9 4.4c-.2 0-.4-.1-.6-.2-.8-.5-1-1.9-.4-3.2.4-.8.9-1.4 1.5-1.6.4-.1.7-.1 1 .1.8.5 1 1.9.4 3.2-.4.8-.9 1.4-1.5 1.6-.2.1-.3.1-.4.1"/><path id="Fill-449" class="st18" d="M-634.9 292.7h-.2c-.2.1-.3.2-.4.4-.2.4-.1 1.1.1 1.7.4 1 1.3 1.7 1.9 1.5.2-.1.3-.2.4-.4.2-.4.1-1.1-.1-1.7-.4-.9-1.2-1.5-1.7-1.5m1.3 4.3c-.8 0-1.8-.8-2.3-1.9-.4-.8-.4-1.6-.1-2.2.2-.3.4-.6.8-.7.9-.3 2.1.6 2.6 1.9.4.8.4 1.6.1 2.2-.2.3-.4.6-.8.7h-.3"/></g></svg>