<svg version="1.1" id="Layer_1" xmlns="http://www.w3.org/2000/svg" x="0" y="0" viewBox="0 0 100 100" xml:space="preserve" enable-background="new 0 0 100 100"><style>.st1,.st10,.st13,.st4,.st6,.st7{fill-rule:evenodd;clip-rule:evenodd;fill:#dfa676}.st10,.st13,.st4,.st6,.st7{fill:#fff}.st10,.st13,.st6,.st7{fill:#2f3541}.st10,.st13,.st7{fill:#fc9001}.st10,.st13{fill:#505868}.st13{fill:#00284c}</style><g id="Page-1"><g id="Craig-Product-Page-2" transform="translate(-1337 -1219)"><g id="Group-36" transform="translate(1177 1219)"><g id="Group-30" transform="translate(160)"><circle id="Oval" cx="44" cy="52.2" r="44" fill="#fdf2e8"/><g id="Group-162" transform="translate(5)"><path id="Fill-1" class="st1" d="M89.6 41.8s.3-.5.3-.6c.2-.3.4-.5.6-.8.4-.7 1.4-1.6 1.2-2.5-.1-.3-.3-1-.7-1.3-.6-.3-1.3-.2-1.3-.2s-.1 1.4-.1 1.6c.1.5 0 3.8 0 3.8"/><path id="Fill-3" class="st1" d="M31 77.7c-.4-.2-.4-.8-.7-1.2-.5-.8-.9-1.6-1.4-2.5-.9-1.8-1.5-3.7-2.1-5.6-.8-2.8-1.4-5.6-1.8-8.4-.2-1.5-.4-3.2-.2-4.8.2-1.6 1.5-3 2.1-4.5.6-1.6.9-3.4.9-5.1 0-1.3.1-2.7 0-3.9-.1-.6-.3-1.6-.7-2-.6-.6-1.3-.3-2-.8-1-.8-1.5-1.9-1.8-3.1-.1-.5-.2-1.3-.2-1.8.1-.5.2-1 .6-1.3.4-.3.9-.2 1.2-.6.5-.6.7-1.4 1-2 .5-.9 1.1-1.8 1.7-2.6 1-1.7 2.4-3.2 3.7-4.6 1.9-2.1 4.1-4.5 7.1-4.8.6-.1 1.3 0 1.9.3 3.8 1.3 4.6 5.3 5.6 8.7.2.9.6 1.7.9 2.5.3.9.7 2 1.2 2.9.4.6.9 1.1 1.1 1.8.4 1.9-.4 3.5-1.7 4.8-.2.2-.9.5-.9.5s-.4 1.6-.6 2c-.2.8-.5 1.2-.8 2-.3.8-.9 1.8-1.5 2.4-.4.4-1 1.2-1 1.2s-.3 2.6.2 3.3c.4.5.8 1.1 1.3 1.5.5.4 1.1 1 1.1 1s-.6 3.5-1.2 5c-.8 1.8-1.8 3.6-2.8 5.3-1.8 3-3.7 5.9-5.7 8.7-.9 1.2-1.7 2.4-2.7 3.6-.4.4-.8 1-1.3 1.3l-.5.8z"/><path id="Fill-5" d="M27 47.3s-1 .2-1.3.5c-.6.4-1 1.3-1.5 2.1s-.9 1.7-1.3 2.2c-.3.4-1.7 2.2-1.7 2.2s-.6.2-.9.4c-1 .7-2.7 1.2-3.8 1.7-1.9 1-2.8 1.1-4.7 2.2-1 .6-2 1.2-2.9 1.9-1.7 1.2-2.9 4-3.4 5.3-.5 1.3-1 3-1.1 3.7-.8 3.1-1.4 7-1.6 9-.2 1.5-.4 3.7-.6 4.7-.2 1-.2 2.2-.4 3.3-.3 2.4-.5 5.7-.8 7.2-.2 1.6-.5 2-.4 3.3.1 1.3 4.8 1.4 7.2 1.2 2.4-.2 4.4-.7 6.4-1 2.6-.4 6.3.3 9.4.7 3 .4 7.9.7 11.2 1.1 4.6.5 10.3.6 14.9.1 2-.2 6.3-1 6.5-1.2.1-.2.6-2.1.7-2.6.4-1.5 1.7-7.1 1.7-7.1s2.3-.3 3.3-.9c.6-.4 1.1-.5 1.8-.9.5-.3.8-.6 1.3-1 3.2-2.3 5.1-5.3 6.6-8.9.3-.8 1-3.6 1-3.6s1-.6.9-1.3c-.3-1.9-1.5-3.5-2.4-5.2-2.4-4.3-6.6-7.9-11.1-9.9-1-.4-2.2-1.1-3.3-1.4-1-.2-2.5-.6-2.5-.6s-1.4-.2-2.3-.3c-.9-.1-4.3-.8-4.3-.8s-.9-2.1-1.3-2.9c-.7-1.2-1.2-2.4-2.6-3-.9-.3-1.4-.5-1.4-.5s-.3 1.5.2 2.8c.5 1.5 1.8 2.4 1.8 2.4.1 1.3-3.1 7.5-3.6 8.3-1.9 3-6.5 8.8-8.8 12.6-1.4 2.3-1 3.7-1.4 3.6-.2 0-4.5-7.9-5.3-15.3-.2-1.5-.4-3.4-.3-5.4.1-1.7.4-3.6.4-3.6s.9-.8 1.3-2.1c.1-1.2.4-3 .4-3" fill-rule="evenodd" clip-rule="evenodd" fill="#fc9590"/><path id="Fill-7" d="M63.8 24.9s.2-1 .8-1.6 1.6-.9 1.6-.9l20.8.1s1.3.1 1.9.8c.6.6.6 1.8.6 1.8l-.4 45.5s0 1.2-.6 1.9-1.7.9-1.7.9L66.5 73s-1.6 0-2.3-.7c-.8-.7-.7-2-.7-2l.3-45.4z" fill-rule="evenodd" clip-rule="evenodd" fill="#858d97"/><path id="Fill-9" class="st4" d="m66.6 24.5 4 .1s-.1.7.2 1.2c.3.4.9.4.9.4l9.9.2s.6-.1 1-.5c.3-.4.2-1.1.2-1.1l4.1.1s.7 0 1.1.5c.4.5.5 1.5.5 1.5l-.3 44s-.1.7-.5 1c-.3.4-.9.5-.9.5L66.4 72s-.9-.1-1.4-.6c-.5-.5-.5-1.4-.5-1.4l.2-43.3s0-.9.5-1.4c.5-.6 1.4-.8 1.4-.8"/><path id="Fill-11" class="st1" d="M89.6 59.2s.1.1.6-.4c.5-.4 1.1-1.1 1.5-1.7.6-.9.8-1.4 1.1-2.4.1-.6.2-1.5-.2-2-.2-.3-.6-.7-.9-.8-.6-.3-1.1-.8-1.7-.9-.5-.1-1.1-.5-1.7-.3-1 .3-1 2.1-.6 2.9.4 1 2 2.3 2 2.3v3.3z"/><path id="Fill-13" class="st1" d="M89.3 67.8c0 .3.1.1.7-.3.7-.4 1.3-1.1 1.7-1.7.3-.4.5-.6.8-1 .1-.2.2-.7.2-.9.1-.4 0-.8-.1-1.2-.1-.3-.6-.8-.8-1-.7-.5-1.1-.7-1.9-1-.5-.2-1.1-.4-1.7-.3-.8.2-1 1.6-.8 2.3.5 1.2 1.9 2.2 1.9 2.2v2.9"/><path id="Fill-15" class="st1" d="m89.3 50.5 1.6-1.6c.7-.7 1.6-1.5 1.8-2.5.1-.4.2-1 .1-1.5-.3-.7-1-1.1-1.7-1.4-.8-.3-2.4-1.2-3.2-.2-.1.2-.4.8-.4 1.1-.1.9-.1 1.9.5 2.6.2.3.5.6.7.9l.6.6v2z"/><path id="Fill-17" class="st1" d="M66.7 72.9c.3-.2-1.2.1-2.5-.4-.9-.4-1.2-2-1.2-2V53.2s.5-3.7.3-5.1c-.2-1.6-.9-2.7-2.3-3.6-.4-.3-1.2-.7-1.7-.3-1 .6-.7 1.9-.9 2.9-.2 1.3.3 2.5-.4 3.6-.8 1.3-2.6 2.5-3.5 3.7-2.1 2.6-4 5.1-4.8 8.4-.2 1-.4 2.3-.2 3.3.1.7.3 1.3.6 1.9.5 1.2 1.5 3.4 1.5 3.4s-.1 1.1-.1 1.5c0 .9.1 1.9.2 2.8.4 2.1 1.7 4.2 3.6 5 .5.2 1.2.2 1.6.3.5.1 1.2.3 1.7.2 1.5-.3 2.8-.7 3.9-1.8.3-.3.9-.9 1.1-1.4.3-.8.7-1.6.9-2.5.1-.3.2-1.3.2-1.3s.3-.1.5-.1c.4-.6 1-.8 1.5-1.2"/><path id="Fill-19" class="st4" d="M40.7 43c0-.2-.5.1-.7.1-.5.1-1 .1-1.5.1-.7 0-1.6.1-2.3-.1-.1 0-.7-.2-.8-.1 0 .1.1.5.1.6.3.7.4 1.3.9 1.8s1.5 1 2.3.8c.9-.4 2-1.9 2-3.2"/><path id="Fill-21" d="M22.6 33.3s-1.1-2.2-1.3-4c-.1-1-.3-2.9-.2-3.9.1-1.6.5-2.8 1.1-4.3.3-.9 1.1-2.1 1.6-2.9.2-.3 1-1.3 1-1.3s-1 .1-1-.3c-.1-.5.7-1.2.3-1.8-.4-.6-1.8-.3-1.8-1.4 0-.6.8-.7.9-1.2.1-.6-1-1.5-.5-2.1.6-.7 1.8.1 2.2-.6.2-.3 0-1-.2-1.2-.2-.2-.5-.3-.4-.7.1-.4.5-.8.9-.9.2 0 .6.1.7-.1.3-.3-.6-1.3-.1-1.5.1 0 .3-.3.5-.3.4 0 .8.3 1 0 .5-.6.2-1.6.9-2.1.3-.2.7-.1 1 .2.1.1.3.4.4.2.4-.4-.2-1.2.2-1.6.1-.1.3-.1.5-.1.8-.1 1 1 1.8.8.3-.1.4-.5.6-.8.1-.3.1-.7.5-.9.4-.2.9 0 1.1.3.1.2.3.6.5.6.2.1.5-.3.8-.2.3.4.3.8.5.8.1 0 .8-.6 1.2-.3.4.2.3 1 .4 1.4 0 .2 0 .5.2.5 1.3.4.9-1.8 2.1-1.4.7.2 1.2.9 1.3 1.5.1.4 0 1.1.3 1.4.5.5 1.3-.4 1.8.1.2.2.4.7.3.9 0 .1-.2.5-.1.6.1.1.3 0 .4.1.4.1 1 0 1.3.4.1.2.3.4.2.7 0 .1-.3.8-.1.9.2.2.6-.2.8-.2.2 0 .5.4.6.5.4.5.5 1.3 0 1.7-.4.3-.9.2-.9.8 0 .4.4.5.5.9.1.2-.3.6-.3.8 0 .3.3.8.2 1.1-.1.3-.6.6-.6.6s.8.7 1.1.9c.6.4 1.2 1.3 1.5 2 1.2 2.4 1.8 4.8 2.1 7.5.1.7 0 1.7.1 2.4 0 .7-.3 1.8-.4 2.7-.1 1-.6 2-.9 2.6-.3.7-.5 1-.7 1.2 0 0-.8-.7-.9-.7-1-.2-1-.6-1.5-1.4-.4-.5-.8-1.7-1-2.3-.3-1-.6-2.1-.9-3.1-.2-.7-.2-1.8-.5-2.6-.4-1-1-2-2.2-2.3-.8-.2-1.6 0-2.4-.2-1.4-.3-2.7-1-4.2-.7-1 .3-1.7 1.7-2.2 2.5-.7 1.2-1.1 2.3-1.8 3.5-.4.7-1.8 2.1-1.8 2.1s.2-.3-.7 1.2c-.9 1.5-2.1 2-3 2.2-.4.1-1.1 0-1.7.2-.6.2-1.1.6-1.1.6" fill-rule="evenodd" clip-rule="evenodd" fill="#9b745c"/><path id="Fill-23" class="st6" d="M90.1 50.5c-.2 0-.3-.1-.3-.1v-1.9c0-.1.1-.1.3-.1.1 0 .3.1.3.1v1.9c-.1.1-.2.1-.3.1"/><path id="Fill-25" class="st6" d="M63.7 48.4c-.1 0-.2-.1-.2-.2l.1-22.8c0-.1 0-1.4 1-2.3 1.1-.9 2.2-.8 2.3-.8l19.9.3c.1 0 1.4 0 2.1.9.7.9.6 1.8.6 1.9l-.1 17.5c0 .1-.1.2-.2.2s-.2-.1-.2-.2v-.4l.1-17.1s0-.8-.6-1.6-1.8-.7-1.8-.8l-20-.3s-1.1-.1-2 .8c-.8.7-.9 2-.9 2l-.1 22.8c.1 0 0 .1 0 .1"/><path id="Fill-27" class="st6" d="M72 73.4h-.1l-5.6-.1c-.1 0-1.4-.1-2.1-.8-.7-.7-.7-2-.7-2l.1-17.5c0-.1.1-.2.2-.2s.2.1.2.2l-.1 17.5s0 1.2.6 1.8c.6.6 1.9.7 1.9.7H72c.1 0 .2.1.2.2s-.1.2-.2.2"/><path id="Fill-29" class="st6" d="M79.6 72.3 66.7 72s-1.1-.1-1.7-.7c-.5-.6-.5-1.7-.5-1.7l.2-21.1c0-.1.1-.2.2-.2s.2.1.2.2l-.2 21.1s-.1 1 .4 1.5c.4.5 1.4.5 1.4.5l12.9.2c.1 0 .2.1.2.2 0 .2-.1.3-.2.3"/><path id="Fill-31" class="st6" d="m86.9 71.2-7-.1c-.1 0-.2-.1-.2-.2s.1-.2.2-.2l6.9.1c.3 0 .6-.1.8-.3.3-.2.4-.6.4-1v-5.9h.4v6c0 .5-.2.9-.5 1.2-.3.2-.6.4-1 .4"/><path id="Fill-33" class="st6" d="M87.9 60.3c-.1 0-.3-.1-.3-.2l.1-5.1c0-.1.1-.2.3-.2.1 0 .3.1.3.2l-.1 5.1c0 .2-.1.2-.3.2"/><path id="Fill-35" class="st6" d="M87.9 50.5c-.1 0-.3-.1-.3-.2v-3c0-.1.1-.2.3-.2.1 0 .3.1.3.2v3c0 .2-.1.2-.3.2"/><path id="Fill-37" class="st6" d="M64.7 48.4c-.1 0-.2-.1-.2-.2l.1-22.5c0-1 .8-2.2 2.1-2.3l3.8.1c.1 0 .1 0 .1.1v.2s-.2.6.1 1c.1.2.4.3.7.4 1.4.1 9 .2 9.8.2.5 0 .8-.2 1-.4.3-.4.1-.9.1-.9v-.2l.1-.1 3.8.1s1 0 1.5.6c.5.5.5 1.5.5 1.6l-.1 16.5c0 .1-.1.2-.2.2s-.2-.1-.2-.2v-.7l.1-15.8s0-.9-.4-1.3-1.3-.5-1.3-.5l-3.2-.3c0 .2 0 .6-.2 1-.2.3-.7.5-1.3.6-.8 0-8.4 0-9.9-.2-.5 0-.8-.2-1-.5-.2-.4-.2-.8-.2-1.1l-3.6-.1c-1.3.1-1.8 1.3-1.8 2l-.1 22.5c.1.1 0 .2-.1.2"/><path id="Fill-39" class="st6" d="M90.1 59.2c-.1 0-.1 0-.2-.1 0-.1 0-.2.1-.2.5-.2 2.4-2.1 2.8-2.9 1-1.7.9-3-.2-3.7-1.6-1.1-3.8-1.9-4.5-1.3-.7.7-.8 2.2.6 3.4 1.3 1.1 1.9 1.3 2.7 1.4h.2c.1 0 .2.1.1.2 0 .1-.1.1-.2.1h-.2c-.9-.2-1.5-.3-2.9-1.5-1.6-1.4-1.3-3.1-.6-3.9.9-.9 3.4.2 5 1.2.8.6 1.6 1.8.3 4.1-.4 1-2.3 2.9-3 3.2.1 0 .1 0 0 0"/><path id="Fill-41" class="st6" d="M89.8 50.5s-.1 0-.1-.1c-.1-.1-.1-.2 0-.2 0 0 2.5-2.1 3.2-3.1.5-.8.7-1.4.5-2-.1-.4-.5-.7-1-.9-.3-.1-.5-.2-.8-.3-.9-.4-1.7-.8-2.8-.7-.5 0-.7.3-.9.6-.5.9-.4 2.3.3 3.1 1 1.2 2.1 1.7 2.2 1.7.1 0 .1.1.1.2s-.2.1-.2.1c-.1 0-1.3-.5-2.3-1.8-.7-.9-.8-2.4-.3-3.4.3-.5.7-.8 1.2-.8 1.2-.1 2 .3 3 .7.2.1.5.2.8.3.6.2 1 .6 1.2 1.1.2.6 0 1.4-.6 2.2-.7 1-3.2 3.1-3.3 3.2-.1.1-.1.1-.2.1"/><path id="Fill-43" class="st6" d="M89.7 42.9c-.1 0-.2-.1-.1-.2.2-.9.6-1.5 1-2 .4-.6.8-1.2.9-2 .1-.8-.2-1.3-.4-1.5-.3-.3-.7-.4-1.1-.3-.1 0-.2 0-.2-.1s0-.2.1-.2c.5-.2 1 0 1.4.4.4.4.6 1.1.5 1.8-.1.9-.5 1.5-.9 2.2-.4.6-.7 1.1-1 1.9h-.2"/><path id="Fill-45" class="st6" d="M90.1 60.3c-.2 0-.3-.1-.3-.2l.1-4c0-.1.1-.2.3-.2.1 0 .3.1.3.2l-.1 4c-.1.2-.2.2-.3.2"/><path id="Fill-47" class="st6" d="M86.7 73.4h-.3l-15.1-.2c-.1 0-.2-.1-.2-.2s.1-.2.2-.2l15.1.2s1.3.1 2.1-.6c.6-.6.7-2.2.7-2.2l.1-5.4c0-.1.1-.2.2-.2s.2.1.2.2l-.1 5.4c0 .1-.1 1.7-.8 2.4-.7.7-1.6.8-2.1.8"/><path id="Fill-49" class="st6" d="M63.1 56H63c-.1-.1-.1-.2-.1-.2.9-1.3 1.4-3.6 1.2-5.8-.1-1.1-.4-2.1-.8-2.7-.5-.9-1.8-1.7-2.8-1.7-.6 0-1 .4-1.3.9-.3.6-.2 1.1-.1 1.9.1.5.2 1.1.1 1.9-.1 1.8-.3 2.3-.9 3.6 0 .1-.1.1-.2.1s-.1-.1-.1-.2c.6-1.3.8-1.8.9-3.5 0-.7 0-1.3-.1-1.8-.1-.7-.2-1.4.1-2 .4-.9 1.1-1.1 1.6-1.2 1.2-.1 2.6.9 3.2 1.9.4.7.7 1.7.8 2.9.2 2.3-.3 4.7-1.3 6.1 0-.2 0-.2-.1-.2"/><path id="Fill-51" class="st6" d="M53 74.5c-.1 0-.1 0-.2-.1-.3-.7-.7-1.5-1.2-2.4-1-1.9-2.1-4.1-2.3-5.7-.5-4.4 2.7-9.8 8.3-14.6.1-.1.2-.1.3 0 .1.1.1.2 0 .3-5.6 4.7-8.7 10-8.2 14.3.2 1.6 1.3 3.7 2.2 5.6.4.9.9 1.7 1.2 2.4.1 0 0 .1-.1.2"/><path id="Fill-53" class="st6" d="M60.4 76.6s-.1 0-.1-.1c-.1-.1-.1-.2 0-.2 1.1-.9 2.7-1.4 3.7-1.6 1.1-.3 2.5-.8 3.5-1.3.1 0 .2 0 .2.1s0 .2-.1.2c-1.1.5-2.5 1-3.6 1.3-1.1.3-2.6.7-3.6 1.6.1 0 0 0 0 0"/><path id="Fill-55" class="st6" d="M57.1 66.8c-.1 0-.2-.1-.2-.2s.1-.2.2-.2c2.7-.3 5.2-2.8 6-6 0-.1.1-.2.2-.1.1 0 .2.1.1.2-.7 3.4-3.4 6-6.3 6.3.1 0 .1 0 0 0"/><path id="Fill-57" class="st6" d="M58.4 88.6h-.9c-1.8-.2-3.5-1.4-5-3.4-2.3-3.1-4-8.6-2.8-13.8 0-.1.1-.2.2-.1.1 0 .2.1.1.2-1.2 5.1.5 10.5 2.7 13.5 1.4 1.9 3.1 3.1 4.8 3.3h.8c5.5 0 12.7-6.1 14.5-14.8 0-.1.1-.2.2-.1.1 0 .2.1.1.2-1.6 8.8-9 15-14.7 15"/><path id="Fill-59" class="st6" d="M57.1 98.4c-.1 0-.2-.1-.1-.2.2-1 .5-2.5.8-3.9.5-2.5 1-5.1 1.1-5.5 0-.1.1-.2.2-.1.1 0 .1.1.1.2-.1.5-.6 2.9-1.1 5.5-.3 1.5-.6 2.9-.8 3.9-.1 0-.1.1-.2.1"/><path id="Fill-61" class="st6" d="M12.1 98.4c-.1 0-.2-.1-.2-.2 0-3.2-.5-5.6-1-7.8-.3-1.4-.6-2.8-.7-4.2-.2-3.1.4-5.4.8-7.2 0-.2.1-.4.1-.6v-.2c.4-1.7 1.1-4.6.7-9.1 0-.1.1-.2.1-.2.1 0 .2.1.2.2.4 4.5-.3 7.4-.7 9.2v.2c0 .2-.1.4-.1.6-.4 1.7-1 4.1-.8 7.1.1 1.3.4 2.7.7 4.1.5 2.2 1 4.7 1 7.9.1.1 0 .2-.1.2"/><path id="Fill-63" class="st6" d="M44.8 52.7c-1.6-1.3-2.2-3-2-5.3 0-.1.1-.2.2-.1.1 0 .1.1.1.2-.2 2.1.3 3.8 1.8 5 .1.1.1.2 0 .2h-.1"/><path id="Fill-65" class="st6" d="M54.6 54.9c-.3-.1-.9-.1-1.5-.1-1.3-.1-3.1-.2-4.7-.7-.1 0-.1-.1-.1-.2s.1-.1.2-.1c1.6.5 3.3.6 4.6.7.7 0 1.2.1 1.6.2.1 0 .1.1.1.2 0-.1-.1 0-.2 0"/><path id="Fill-67" class="st6" d="M25.6 52.7h-.1c-.1-.1-.1-.2 0-.2C26.8 51 27.9 47.2 27 41c0-.1 0-.2.1-.2s.2 0 .2.1c.9 6.3-.2 10.2-1.5 11.8h-.2"/><path id="Fill-69" class="st6" d="M.6 98.4c-.1 0-.2-.1-.2-.2.4-3 .7-5.8 1-8.5C2.9 77.2 4 67.3 7.8 62.6c2-2.5 5.9-4.1 9.7-5.7 1.6-.7 3-1.3 4.4-2 .1 0 .2 0 .2.1s0 .2-.1.2c-1.4.7-2.9 1.3-4.4 2-3.7 1.6-7.6 3.2-9.5 5.6-3.7 4.6-4.8 14.4-6.3 26.9-.3 2.7-.7 5.6-1 8.5 0 .1-.1.2-.2.2"/><path id="Fill-71" class="st6" d="M39.8 22.3c-.1 0-.1 0 0 0-.1 0-.2-.1-.2-.2.3-1.1 1.4-2.2 3.1-1.9.1 0 .2.1.2.2s-.1.2-.2.2c-1.6-.3-2.5.8-2.7 1.6-.1 0-.2.1-.2.1"/><path id="Fill-73" class="st6" d="M22.4 45.1c-.1 0-.2-.1-.2-.2s.1-.2.2-.2c.4 0 .6-.1.7-.3.1-.2.1-.4 0-.6-.1-.2-.2-.4-.3-.5-.2-.3-.5-.6-.5-1.2 0-.7.5-.8.9-.9.3-.1.5-.1.6-.3.2-.3.1-.6-.2-1-.2-.3-.4-.7-.2-1.2.2-.3.5-.4.8-.5.3-.1.5-.2.6-.4.1-.3 0-.7-.1-1.1-.2-.5-.4-1.1.1-1.6.3-.3.8-.5 1.2-.6.5-.2 1-.3 1.2-.8.1-.2.1-.4.1-.7 0-.3 0-.6-.1-.9 0-.1 0-.2.1-.2s.2 0 .2.1c.1.3.1.6.1.9 0 .3 0 .6-.1.8-.2.6-.8.8-1.4 1-.4.1-.8.3-1.1.5-.3.3-.2.7 0 1.2.1.4.3.9.1 1.3-.2.4-.5.5-.9.6-.3.1-.5.2-.6.4-.1.3 0 .5.2.9s.5.8.2 1.3c-.2.3-.6.4-.9.5-.4.1-.6.2-.6.6 0 .4.2.7.4 1 .1.2.3.3.4.6.2.4.2.7 0 1 0 .3-.3.5-.9.5z"/><path id="Fill-75" class="st6" d="M48.2 46.2c-.1 0-.1 0-.2-.1 0-.1 0-.2.1-.2.3-.1.4-.2.4-.3 0-.1-.1-.3-.2-.5-.2-.2-.4-.5-.2-.8.1-.3.4-.4.6-.5.2 0 .2-.1.3-.1.2-.2.1-.3-.1-.6-.1-.1-.2-.3-.2-.5 0-.3.4-.4.6-.4h.1c.1 0 .2-.2.2-.3 0-.3-.2-.5-.5-.7-.3-.3-.5-.5-.5-.9 0-.5.4-.7.8-.9.4-.2.7-.4.5-.8-.2-.6-.7-.9-1.2-1.3-.4-.3-.8-.7-1.1-1.1-.3-.5-.4-1.1-.4-1.7 0-.4-.1-.7-.2-1 0-.1 0-.2.1-.2s.2 0 .2.1c.1.3.1.7.2 1.1 0 .6.1 1.2.4 1.6.2.4.6.7 1 1 .5.4 1 .9 1.3 1.5.2.7-.3 1-.7 1.2-.3.2-.6.3-.6.6 0 .2.2.4.4.6.3.3.5.5.5 1 0 .2-.1.5-.4.6h-.1c-.1 0-.2.1-.3.1 0 .1.1.2.2.3.2.3.4.6.1.9-.1.2-.4.2-.5.3-.2.1-.3.1-.4.2-.1.1.1.3.2.5.2.2.4.5.2.8.1.2-.2.3-.6.5.1 0 0 0 0 0"/><path id="Fill-77" class="st6" d="M24.8 16.8s-.1 0-.1-.1h-.2c-.2 0-.5 0-.7-.4-.2-.4 0-.6.2-.7l.1-.1c.1-.2 0-.7-.2-.9-.1-.1-.3-.2-.6-.2-.4-.1-1-.2-1.1-.9 0-.4.2-.7.5-.9.2-.2.4-.5.4-.7 0-.2-.1-.4-.2-.6-.2-.4-.4-.8-.2-1.3.3-.5.9-.5 1.4-.4.4.1.6.1.8-.1.2-.3.2-.7.1-.9 0-.1-.1-.1-.2-.2-.2-.1-.4-.3-.4-.6s.3-1 .7-1.1c.2-.1.4 0 .5 0 .3.1.4.1.4-.1.1-.2 0-.3-.1-.5s-.2-.4-.1-.7c.3-.6.8-.5 1.2-.4.1 0 .3.1.4 0 .1-.1.2-.5.3-.9.1-.5.2-1.1.6-1.3.6-.2 1 .1 1.3.3-.1-.1-.1-.1 0-.1v-.6c0-.3-.1-.7.1-.8.1-.1.3-.2.5-.1.4 0 .7.3.9.5.3.3.5.5 1 .3.2-.1.3-.3.3-.6 0-.4.1-.8.6-1 .7-.1 1.3.2 1.7.9.1-.1.4-.3.8-.1.3 0 .5.3.5.5.2-.1.6-.3 1-.3.2 0 .4.2.6.4.2.3.2.7.2 1 0 .2 0 .4.1.4h.3c.3-.1.4-.3.5-.6.2-.4.3-.8.9-.8.6 0 1.6.9 1.7 1.5v.5c0 .5.1.9.4 1.1.1 0 .3 0 .5-.1.3-.1.7-.3 1.2.1.5.5.3 1 .2 1.4 0 0 0 .1-.1.1h.2c.5 0 1.2-.1 1.6.5.3.6.1.9-.1 1.2 0 .1-.1.2-.1.2l.1.1c.1 0 .2-.1.3-.1.1-.1.2-.1.4-.2.5-.1 1 .7 1.1 1.1.2.5-.1 1.3-.6 1.6-.1.1-.3.1-.4.2-.2 0-.2 0-.2.2s.1.4.2.6c.1.1.2.2.2.3.1.3 0 .5-.1.7-.1.1-.1.2-.1.3 0 .2.1.3.2.5s.2.4.2.6c-.1.2-.2.3-.5.5-.1 0-.1 0-.2.1h-.1c-.1 0-.2 0-.2-.1s0-.2.1-.2.1 0 .2-.1h.1c.2-.1.3-.2.3-.3 0-.1 0-.2-.1-.4s-.2-.5-.2-.7c0-.1.1-.3.2-.4.1-.2.2-.3.1-.3 0-.1-.1-.2-.2-.3-.2-.2-.4-.5-.3-.8.1-.4.3-.4.5-.5.1 0 .2 0 .3-.1.4-.2.6-.8.5-1.2-.1-.3-.5-.9-.7-.8-.1 0-.1.1-.2.1-.3-.1-.5 0-.7 0-.1 0-.2-.1-.3-.2-.1-.2 0-.4.1-.5.1-.2.3-.4.1-.8-.3-.5-.9-.5-1.3-.5-.3 0-.5 0-.6-.1-.1-.1 0-.3 0-.5.1-.4.2-.7-.1-1-.3-.3-.5-.2-.8-.1-.2.1-.5.2-.7.1-.6-.2-.6-.9-.6-1.4v-.4c-.1-.5-1-1.2-1.4-1.2-.3 0-.4.2-.6.6-.1.3-.3.7-.8.8-.3.1-.5 0-.6-.1-.2-.1-.2-.4-.2-.7 0-.3 0-.5-.2-.8-.1 0-.2-.1-.3-.2-.3-.1-.7.2-.9.3 0 0-.1.1-.2 0-.1 0-.1-.1-.2-.2 0-.1-.1-.3-.4-.5-.2-.1-.3 0-.4.1-.1.1-.2.1-.3.1-.1 0-.1 0-.2-.1-.3-.7-.8-.9-1.3-.8-.3.1-.3.2-.4.6 0 .3-.1.8-.5.9-.7.2-1-.1-1.4-.4-.2-.2-.4-.4-.7-.4h-.2c-.1.1-.1.3 0 .6 0 .2.1.5 0 .7 0 .1-.1.2-.2.3-.2.1-.3 0-.5-.2-.2 0-.6-.2-1 0-.2.1-.3.6-.4 1-.1.4-.1.9-.4 1.1-.2.2-.4.1-.7.1-.3-.2-.5-.2-.7.1-.1.1 0 .3.1.4.1.2.2.5.1.8-.2.5-.6.4-.9.3-.1 0-.2-.1-.3 0-.2.1-.4.6-.5.9 0 .1.1.2.2.3l.3.3c.2.4.2.9-.1 1.3-.2.4-.7.3-1.1.2-.5-.1-.8-.1-1 .2-.2.3 0 .5.2.9.1.2.3.5.3.7.1.4-.2.8-.5 1-.2.2-.4.4-.4.7 0 .4.3.5.8.6.3.1.6.1.8.3.2.3.5 1 .2 1.4l-.2.2v.4c.1.3.2.3.4.2.1 0 .4 0 .5.1.1.1.1.2 0 .2 0 .1 0 .1-.1.1"/><path id="Fill-79" class="st6" d="M36.8 49.5c-3.8 0-7.1-3.2-8.1-5.4 0-.1 0-.2.1-.2s.2 0 .2.1c1 2.1 4.2 5.2 7.8 5.2h.3c3-.1 5.1-1.6 7-5.2 1.1-2.1 1.6-5.1 1.6-6.3 0-.1.1-.2.2-.2s.2.1.2.2c0 1.2-.5 4.3-1.7 6.5-2 3.7-4.1 5.2-7.3 5.3h-.3"/><path id="Fill-81" class="st6" d="M46.3 39.7h-.1c-.1 0-.2-.1-.1-.2 0-.1.1-.1.2-.1 0 0 .2 0 .4-.2.6-.4 1.7-1.4 2-2.7.2-.8.3-2-.2-2.6-.3-.3-.7-.4-1.3-.4-.1 0-.2-.1-.2-.2s.1-.2.2-.2c.7 0 1.2.2 1.6.5.6.7.5 2 .3 2.9-.3 1.4-1.5 2.5-2.2 2.9-.2.2-.4.3-.6.3"/><path id="Fill-83" class="st6" d="M48.1 33.2c-.1 0-.1-.1 0 0-2.8-1-3.2-2.5-3.8-5.1-.2-.7-.3-1.4-.6-2.3-.4-1.5-1.3-3.2-2.8-3.2-.1 0-.2-.1-.2-.2s.1-.2.2-.2c1.4 0 2.5 1.1 3.2 3.4.3.8.4 1.6.6 2.3.6 2.5 1 3.9 3.5 4.8.1 0 .1.1.1.2-.1.2-.2.3-.2.3"/><path id="Fill-85" class="st6" d="M25.4 32.1c-.3 0-.6 0-.9-.1-.1 0-.1-.1-.1-.2s.1-.2.2-.1c3 .8 5.9-2.9 7.4-6.3 1.1-2.4 2-3.6 3-4 .7-.2 1.4-.2 2.3.3.1 0 .1.2.1.2 0 .1-.1.1-.2.1-.8-.4-1.4-.5-2-.3-.9.3-1.8 1.5-2.8 3.8-1.5 3.1-4.1 6.6-7 6.6"/><path id="Fill-87" class="st6" d="M40.8 31c-.1 0-.1 0-.2-.1 0-.1 0-.2.1-.3.7-.4 2.6-1.2 4.2-.1.1.1.1.2.1.3-.1.1-.2.1-.3.1-1.4-1.1-3.1-.3-3.9.1.1 0 .1 0 0 0"/><path id="Fill-89" class="st6" d="M30 32.1c-.1 0-.1 0-.1-.1-.1-.1 0-.2 0-.3 1.3-1.1 3.7-.8 4.2-.2.1.1.1.2 0 .3-.1.1-.2.1-.2 0-.5-.5-2.6-.7-3.9.3"/><path id="Fill-91" class="st6" d="M37.5 39.7c-.1 0-.1 0-.1-.1s0-.2.1-.2c.4-.2.6-.4.7-.6.1-.3 0-.6-.2-1-.2-.6-.5-1.4-.2-2.3 0-.1.1-.1.2-.1s.1.1.1.2c-.3.8-.1 1.5.2 2.1.2.4.3.8.2 1.2-.2.3-.4.5-1 .8.1 0 0 0 0 0"/><path id="Fill-93" class="st6" d="M43.9 35.3c0-.6-.5-1.1-1.1-1.1-.6 0-1.1.5-1.1 1.1 0 .6.5 1.1 1.1 1.1.6 0 1.1-.5 1.1-1.1"/><path id="Fill-95" class="st6" d="M49.4 34.2c-.2-.1-.2-.2-.1-.3 2.8-4.5 2.2-11.4.1-15.5-1.9-3.8-4.6-5-6.3-4.3-.1 0-.2 0-.2-.1s0-.2.1-.2c1.8-.8 4.7.3 6.8 4.5 2.1 4.2 2.8 11.2-.1 15.9h-.3"/><path id="Fill-97" class="st6" d="M22.8 33.2c-.1 0-.1 0-.1-.1-1.4-2.2-2.8-8.7.1-13.6 2.6-4.3 5.8-6.1 8.5-7.3 2.2-1 5.8-1 7.9 0 .8.4 1.3.9 1.5 1.6 0 .1 0 .2-.1.2s-.2 0-.2-.1c-.1-.5-.6-1-1.3-1.3-1.9-1-5.4-1-7.6 0-2.7 1.2-5.8 2.9-8.3 7.2-2.9 4.8-1.5 11.1-.1 13.3-.1-.1-.1 0-.3.1.1-.1.1 0 0 0"/><path id="Fill-99" class="st6" d="M25.9 39.7c-.4 0-.9-.1-1.3-.4-1.3-.8-2-2.5-2.3-3.7-.3-1.3-.1-2.4.5-3 .5-.5 1.3-.6 2.3-.4.1 0 .2.1.1.2 0 .1-.1.2-.2.1-.8-.2-1.5-.1-1.9.3-.5.5-.7 1.4-.4 2.7.3 1.2 1 2.8 2.1 3.5.5.3 1 .4 1.5.3.1 0 .2 0 .2.1s0 .2-.1.2c-.2.1-.3.1-.5.1"/><path id="Fill-101" class="st6" d="M34.1 35.3c0-.6-.5-1.1-1.1-1.1-.6 0-1.1.5-1.1 1.1 0 .6.5 1.1 1.1 1.1.6 0 1.1-.5 1.1-1.1"/><path id="Fill-103" class="st6" d="M34.5 43.4c.2.6.9 2.4 2.9 2.5 2 0 2.6-1.9 2.8-2.5-.4.1-1.4.2-2.7.2-1.1 0-2.4-.2-3-.2m3 2.8s-.1 0 0 0c-2.8-.1-3.4-3-3.4-3v-.1s.1-.1.2 0c0 0 1.8.2 3.2.2 1.7 0 2.8-.3 2.9-.3h.2l.1.1c-.1.1-.6 3.1-3.2 3.1"/><path id="Fill-105" class="st6" d="M25.3 37.5s-.1 0-.1-.1c-.2-.6-.5-1.3-.8-1.7-.1-.1-.1-.2 0-.3 0-.1.1-.1.2-.1.3.4.7 1.2.9 1.8 0 .2-.1.3-.2.4.1 0 0 0 0 0"/><path id="Fill-107" class="st6" d="M28.9 99.5c-.1 0-.2-.1-.2-.2.1-2 .1-3.7.2-5.4.1-3 .2-5.5.4-8.8l.1-.9c.4-4.6.7-7.7 2.1-10.1.7-1.2 1.6-2.5 2.9-4.2l.7-1c1.1-1.4 2.4-3.1 3.6-4.8 2.6-3.6 5.5-8.5 5.9-13.4 0-.1.1-.2.2-.2s.2.1.2.2c-.4 5-3.4 9.9-6 13.6-1.2 1.8-2.5 3.4-3.6 4.9l-.7 1c-1.3 1.7-2.2 3-2.9 4.2-1.4 2.4-1.6 5.4-2 10l-.1.9c-.3 3.3-.4 5.8-.4 8.8 0 1.6-.1 3.3-.2 5.4-.1-.1-.1 0-.2 0"/><path id="Fill-109" class="st6" d="M30.7 77.7c-.1 0-.1 0-.2-.1-5.7-8.5-7.8-20.1-4.8-27 0-.1.1-.1.2-.1s.1.1.1.2c-3 6.8-.9 18.3 4.8 26.7.1.1.1.2-.1.3"/><path id="Fill-111" class="st6" d="M26.4 70.1c-.1 0-.1 0-.1-.1-.5-.7-1.3-1.2-1.9-1.6-.7-.5-1.4-.9-1.7-1.6-.2-.5 0-1.1.3-1.6.3-.6.5-1.1.2-1.4-.3-.3-1.2-.8-2.3-1.3-2.4-1.3-4.2-2.2-4.1-2.9.1-.6.6-1.1 1.3-1.7.6-.5 1.3-1.2 2.2-2.3l1.5-1.8c1.3-1.6 2.5-2.9 3-4.2.8-1.9 2.2-2.2 2.7-2.3.1 0 .2.1.2.2s-.1.2-.2.2c-.5 0-1.7.3-2.5 2-.6 1.3-1.7 2.7-3 4.3l-1.5 1.8c-.9 1.1-1.7 1.8-2.2 2.3-.7.6-1.1 1-1.1 1.5-.1.6 2.3 1.8 3.9 2.6 1.2.6 2.1 1.1 2.4 1.4.4.5.2 1.1-.1 1.8-.2.5-.4 1-.3 1.3.3.6.9 1 1.6 1.4.7.4 1.5.9 2 1.7.1.1 0 .2 0 .2-.2.1-.2.1-.3.1"/><path id="Fill-113" class="st6" d="M51.4 59.2s-.1 0-.1-.1c-.5-.5-1.1-1.2-1.7-2.1-1-1.4-1.9-4-2.4-5.4-.1-.3-.2-.5-.3-.7-.7-1.8-1.5-2.7-2.8-3.3-.1 0-.1-.1-.1-.2s.1-.1.2-.1c1.4.6 2.2 1.6 3 3.5.1.2.2.4.3.7.5 1.4 1.5 4 2.4 5.4.6.9 1.2 1.6 1.7 2.1.1.1.1.2 0 .3l-.2-.1"/><path id="Fill-115" class="st6" d="M35.4 71.2s-.1 0 0 0c-.2-.1-.2-.2-.1-.3 1.1-1.7 1.8-2 2.9-2.4.5-.2 1-.5 1.8-.9.5-.3.7-.9.8-1.6.2-.7.4-1.6 1.1-2 .7-.4 2.5-.9 4.4-1.4 1.4-.4 2.8-.7 3.9-1.1.1 0 .2 0 .2.1s0 .2-.1.2c-1.1.4-2.5.8-3.9 1.1-1.9.5-3.7 1-4.4 1.4-.7.4-.8 1.1-1 1.8-.2.7-.3 1.4-1 1.8-.8.4-1.3.7-1.8.9-1.1.5-1.6.7-2.7 2.3 0 .1-.1.1-.1.1"/><path id="Fill-117" class="st6" d="M58.8 81c-1.9 0-3.6-.6-4.4-1.2-2.7-2.1-2.9-5.6-2.8-7.5v-1c.1-.1.1-.1.2 0s.1.1.1.6v.4c-.1 1.9.1 5.3 2.7 7.2 1.1.8 3.9 1.7 6.4.9 2.2-.7 3.6-2.4 4.3-5 0-.1.1-.1.2-.1s.2.1.1.2c-.9 3.4-3 4.7-4.5 5.2-.8.2-1.5.3-2.3.3"/><path id="Fill-119" class="st7" d="M88.6 21.7c1.2.2 1.9.6 2.5 1.4.6.8 1.2 1.9 1.5 2.4.1.1.4-.4.9-.9s1.2-1 1.4-1.1c.3-.2-1.5-.1-2-.5-.4-.3 1.1-1.9.9-2.2-.2-.3-2 .9-2.5.4-.4-.4.4-2.8.2-3.4-.1-.2-1.8 2.8-2.1 2.8-.3 0-.8-1-.9-.9 0 .2-.1 2 .1 2"/><g id="Group-123" transform="translate(80 15)"><defs><filter id="Adobe_OpacityMaskFilter" filterUnits="userSpaceOnUse" x="7.6" y="2.2" width="7.1" height="7.9"><feColorMatrix values="1 0 0 0 0 0 1 0 0 0 0 0 1 0 0 0 0 0 1 0"/></filter></defs><mask maskUnits="userSpaceOnUse" x="7.6" y="2.2" width="7.1" height="7.9" id="mask-2_00000014601175629187444470000009255787017671992749_"><g filter="url(#Adobe_OpacityMaskFilter)"><path id="path-1_00000032649032790235533010000016288901889337750698_" class="st4" d="M7.6 2.2h7.1v7.9H7.6z"/></g></mask><path id="Fill-121" d="M8 6c1.1.2 1.9.6 2.6 1.4.6.6 1.1 1.6 1.5 2.3l.2-.2c.1-.2.3-.3.5-.5.4-.4.9-.7 1.2-1h-.1c-.7-.1-1.3-.2-1.6-.4-.3-.3.1-.9.5-1.5.1-.2.3-.5.4-.6-.2 0-.4.1-.7.2-.7.3-1.5.6-1.8.2-.3-.3-.2-1 0-2 .1-.4.1-.7.2-1-.1.2-.3.4-.4.6C9.4 5 9.1 5.3 8.9 5.4c-.3 0-.6-.4-.8-.7L8 4.6C8 5 7.9 5.8 8 6zm4.2 4c-.1 0-.1.1-.2 0-.1 0-.1-.1-.2-.1-.5-1-1.1-1.8-1.6-2.3-.6-.7-1.3-1.1-2.4-1.3-.1 0-.2-.2-.2-.3 0-.1-.1-1.7.2-1.9.3-.1.4.1.6.4.1.1.3.4.4.5.2-.2.9-1.1 1.3-1.7.7-1 .8-1.1.9-1.1.1 0 .1.1.2.1.1.3 0 .9-.1 1.6-.1.6-.3 1.5-.1 1.7.2.2 1-.1 1.4-.3.6-.2 1-.3 1.1-.1.1.2 0 .5-.4 1.1-.2.3-.6.9-.5 1 .2.2.9.2 1.4.3.6.1.7.1.8.3 0 0 0 .2-.1.2-.2.1-.9.5-1.4 1l-.5.5c-.4.3-.5.4-.6.4z" mask="url(#mask-2_00000014601175629187444470000009255787017671992749_)" fill-rule="evenodd" clip-rule="evenodd" fill="#2f3541"/></g><path id="Fill-124" class="st6" d="M89.5 67.9c-.1 0-.1 0-.1-.1s0-.2.1-.2c.4-.2 2-1.6 2.5-2.3.4-.6 1.2-2.3-.1-3.3s-3.1-1.7-3.6-1.1c-.5.6-.7 2 .5 3.1 1.1 1 1.6 1.1 2.2 1.3h.2c.1 0 .1.1.1.2s-.1.1-.2.1h-.2c-.7-.2-1.2-.3-2.4-1.4-1.3-1.2-1.1-2.9-.5-3.6.7-.8 2.8.2 4.1 1.1 1.4 1.1.9 2.8.2 3.8-.6.7-2.3 2.2-2.8 2.4"/><path id="Fill-126" class="st10" d="M69.2 63.6c0 1 .9 1.9 1.9 1.9 1.1 0 1.9-.8 1.9-1.9 0-1.1-.9-1.9-1.9-1.9-1.1 0-1.9.9-1.9 1.9m1.9 2.2c-1.2 0-2.2-1-2.1-2.2 0-1.2 1-2.1 2.2-2.1 1.2 0 2.1 1 2.1 2.2-.1 1.1-1 2.1-2.2 2.1"/><path id="Fill-128" class="st10" d="M83.1 61.7c-1.1 0-1.9.8-1.9 1.9 0 1 .9 1.9 1.9 1.9 1 0 1.9-.8 1.9-1.9-.1-1.1-.9-1.9-1.9-1.9m-.1 4.1c-1.2 0-2.2-1-2.2-2.2 0-1.2 1-2.2 2.2-2.2 1.2 0 2.2 1 2.2 2.2 0 1.2-1 2.2-2.2 2.2"/><path id="Fill-130" class="st10" d="M78.6 64.2c0 .3-.2.4-.4.4-.3 0-.4-.2-.4-.4 0-.3.2-.4.4-.4.2-.1.4.1.4.4"/><path id="Fill-132" class="st10" d="M74.9 63.7c.3.1.5.2.4.5 0 .3-.2.4-.5.4s-.4-.2-.4-.5c.1-.3.2-.4.5-.4"/><path id="Fill-134" class="st10" d="M76.4 64.1c0 .3-.2.4-.5.4s-.4-.2-.4-.5.2-.4.5-.4c.3.1.4.3.4.5"/><path id="Fill-136" class="st10" d="M79.2 63.7c.3 0 .4.2.4.5s-.2.4-.4.4c-.3 0-.4-.2-.4-.4 0-.3.2-.5.4-.5"/><path id="Fill-138" class="st10" d="M77 63.7c.3 0 .5.2.5.4 0 .3-.2.4-.4.5-.3 0-.5-.1-.5-.4 0-.3.2-.5.4-.5"/><path id="Fill-140" d="M72.4 64.4c.6 0 .8-.3.6-.9-.1-.3-.3-.5-.5-.6-.8-.6-1.9-.6-2.7-.1-.3.2-.6.4-.7.8-.1.4.1.6.4.7.4.1.8-.1.9-.4 0-.4.3-.5.6-.5.5 0 .6.1.7.5.1.4.4.5.7.5m-3.5-.8c0-1.2 1-2.2 2.1-2.2 1.2 0 2.2 1 2.2 2.2 0 1.2-1 2.2-2.2 2.2-1.1 0-2.1-1-2.1-2.2" fill-rule="evenodd" clip-rule="evenodd" fill="#f39083"/><path id="Fill-142" d="M83.8 65.2c.2 0 .3 0 .5-.1.4-.2.5-.5.3-.8-.2-.4-.6-.6-.9-.4-.3.2-.5 0-.7-.2-.3-.3-.4-.6-.2-.8.2-.2.2-.5 0-.7-.2-.2-.4-.4-.7-.4-.3 0-.4.3-.5.5 0 .1 0 .1-.1.2-.2 1.3 1 2.7 2.3 2.7m-.7-3.8c1.2 0 2.2 1 2.2 2.2 0 1.2-1 2.2-2.2 2.2-1.2 0-2.2-1-2.2-2.2 0-1.2.9-2.2 2.2-2.2" fill-rule="evenodd" clip-rule="evenodd" fill="#bedca7"/><path id="Fill-144" class="st10" d="M71.6 64.3c.1 0 .2 0 .2-.1.1-.2 0-.3-.1-.4-.5-1.1-2-1.1-2.5-.1-.1.1-.1.3-.1.5.1.2.2.1.3.1.1 0 .2-.2.2-.3 0-.2 0-.3.1-.4.4-.5 1.3-.2 1.5.5.2.1.3.2.4.2m0 .4c-.2 0-.4-.1-.5-.5-.1-.4-.2-.5-.6-.5-.3 0-.5 0-.5.5 0 .4-.4.6-.7.5-.3-.1-.4-.4-.4-.8.1-.4.3-.7.5-.9.7-.6 1.6-.5 2.3.1.2.2.3.4.4.7.2.5 0 .9-.5.9"/><path id="Fill-146" class="st10" d="M83.2 64.3h.1c.2 0 .4 0 .5-.2.1-.2-.1-.3-.2-.4-.2-.2-.3-.1-.5 0-.1.1-.2.1-.4.1-.7-.1-1.2-1-.9-1.6.1-.2 0-.4-.2-.5-.3-.1-.3.1-.4.2-.1.1-.1.2-.1.3 0 1.1 1 2.1 2.1 2.1m0 .4c-1.4 0-2.6-1.4-2.3-2.6 0-.1 0-.1.1-.2.1-.2.2-.5.5-.5s.5.2.7.4c.2.2.1.5 0 .7-.2.3-.2.5.1.8.2.2.4.4.7.1.3-.2.7 0 1 .4.2.3.1.6-.3.8-.1.1-.3.1-.5.1"/><path id="Fill-148" class="st4" d="M72.9 63.6c-.2 0-.3-.1-.3-.2-.2-.6-1.3-.8-1.8-.4-.1.1-.1.2-.2.3 0 .1-.1.2-.2.3-.2 0-.3 0-.4-.1-.1-.1 0-.2.1-.4.6-.8 2.5-.8 3 0 .1.1.1.2.1.3 0 .2-.2.2-.3.2"/><path id="Fill-150" class="st4" d="M83.6 64.7c-.9 0-1.7-.9-1.6-1.7 0-.1 0-.2.1-.3.1-.1.1-.3.3-.2.2.1.3.3.2.4-.3.5.1 1.3.7 1.3.1 0 .2 0 .3-.1.1-.1.3-.1.4 0 .1.1.2.2.2.3-.1.1-.2.2-.4.2-.1.1-.2.1-.2.1"/><path id="Fill-152" class="st6" d="M77.1 33.3c-5 0-9.1 4.1-9.1 9.1s4.1 9.1 9.1 9.1 9.1-4.1 9.1-9.1-4.1-9.1-9.1-9.1m0 18.3c-5.1 0-9.2-4.1-9.2-9.2s4.1-9.2 9.2-9.2 9.2 4.1 9.2 9.2-4.1 9.2-9.2 9.2"/><path id="Fill-154" class="st6" d="M77.1 33.5c-4.9 0-8.9 4-8.9 8.9s4 8.9 8.9 8.9 8.9-4 8.9-8.9c-.1-4.9-4-8.9-8.9-8.9m0 18.1c-5.1 0-9.2-4.1-9.2-9.2s4.1-9.2 9.2-9.2 9.2 4.1 9.2 9.2-4.1 9.2-9.2 9.2"/><path id="Fill-156" class="st13" d="M84.5 39.9c0 .1 0 .1 0 0m0 .1.1.1-.1-.1h-.1v.1-.3h.1c.1 0 .1 0 .1.1l-.1.1c.1 0 .1 0 0 0m.2 0c0-.1-.1-.3-.3-.3-.1 0-.3.1-.3.3 0 .2.1.3.3.3.2 0 .3-.1.3-.3m.1 0c0 .2-.2.3-.3.3-.2 0-.3-.2-.3-.3 0-.2.2-.3.3-.3.1 0 .2 0 .2.1.1 0 .1.1.1.2"/><path id="Fill-158" class="st13" d="M77.2 42.3c-.2.1-.4.2-.6.1h-1.1v-1.8h1.1c.2 0 .4 0 .6.2.2.1.3.4.3.7.1.4-.1.7-.3.8m-4.4-1.6h1.6V45c0 .1.1.1.1.1h.9c.1 0 .1 0 .1-.1v-1.5h1.2c.4 0 .8-.1 1.2-.4.5-.4.7-.9.7-1.5s-.2-1.1-.6-1.5c-.4-.3-.8-.4-1.3-.4H70c-.1 0-.1.1-.1.1v.8c0 .1.1.1.1.1h1.6V45c0 .1.1.1.1.1h.9c.1 0 .1-.1.1-.1.1 0 .1-4.3.1-4.3"/><path id="Fill-160" class="st7" d="M79.9 39.7h2.5c.1 0 .1 0 .1.1l1.6 2.5v.2L82.5 45l-.1.1h-2.5c-.1 0-.1 0-.1-.1v-.8c0-.1 0-.1.1-.1H82l1.1-1.7-1-1.7H80c-.1 0-.1 0-.1-.1v-.9c-.1 0-.1 0 0 0"/></g></g></g></g></g></svg>