<?xml version="1.0" encoding="UTF-8"?> <svg xmlns="http://www.w3.org/2000/svg" viewBox="0 0 199 275.4"><style>.st501,.st505,.st506{fill-rule:evenodd;clip-rule:evenodd;fill:#fff}.st505,.st506{fill:#9bd090}.st506{fill:#ffedde}.st508,.st509,.st510,.st511,.st513,.st516{fill-rule:evenodd;clip-rule:evenodd;fill:#9f7a63}.st509,.st510,.st511,.st513,.st516{fill:#9bd091}.st510,.st511,.st513,.st516{fill:#5b2714}.st511,.st513,.st516{fill:#e3e9f4}.st513,.st516{fill:#92837a}.st516{fill:#332e3c}</style><g transform="translate(-1 -1)" id="Layer_2"><path id="Fill-1_1_" d="M95.7 236.6s-1.4-7.3-3.1-17.1c-.8-4.9-1.5-12-2.4-15.9-1.1-4.3-3.7-6.8-6.5-8.9-2.3-1.7-5-3.4-5-3.4s1-2.4-.4-4.5c-2.1-3.3-4.4-4.6-4.4-4.6s-1.1 1-2 1.3c-.9.4-1.7.5-1.7.5l-1.4 2.5-4.5 5s-1.6-2.6-5.2-5.5c-1.5-1.2-3.6-2.8-5.1-3.8-2.1-1.4-3.8-2-3.8-2s.7-.7 1.3-1.5c.6-.8 1-1.6 1-1.6s-.4.1-2-.1-2.8-.9-4.7-.2c-.7.2-1.1.9-1.4 1.3-.7 1-.8 2.2-2.4 3.6-1 .8-2 .9-3 1.4-1.4.6-1.7 1.1-2.6 2.4-.9 1.3-1.1 2.8-1.1 2.8s-3.6 1.2-7.2 3.9c-3.5 2.6-7.2 6.8-7.8 15.6-.1 2.4-.3 5.1-.2 8.6.1 3.7.4 8.2.5 11.9.2 5.3.3 10.9.8 15.4.4 3.9.9 7.3 2 10 .8 1.9 2.1 3.6 3.2 4.5 1 .8 1.8 1 2.6 1.2 1 .2 1.8.3 1.8.3s-.6 3.7-.7 7.1c-.2 3.4.1 6.6.1 6.6s12.7 3.2 26.8 3.2 29.7-3.2 29.7-3.2.1-3.4-.1-7.8c-.3-4.3-1.1-9.8-1.1-9.8l1.4.2s.9 1.2 2.9 2.2c1.3.6 2.8 1.1 5.2 1.6 3.1.7 7.4.9 10.8 1.1 3.5.2 3.9.1 6.4.4 2.5.3 3.6 1.1 4.4.9.8-.2-1.3-2-1.3-2l-19.8-23.6z" fill-rule="evenodd" clip-rule="evenodd" fill="#fa9700"></path><path id="Fill-3_1_" class="st505" d="M96 168.5c-.1-.3-.7.1-1.8 0-1.8 0-4.6-.5-6.5-2.1-1.4-1.3-2.4-3.5-2.8-5.2-.2-.8-.3-1.1-.3-1.6-.1-.6-.1-1.1-.3-1.2-.2-.1-1.5.5-1.5.5l-5.9 2.1 1.2 4.2s1.8 3.7 4.6 5.7c.9.7 1.9 1.3 2.8 1.8 1.9 1 3.7 1.7 4 1.6.9-.5 1.4-1.6 2.9-2.9 1.9-1.3 3.7-2.4 3.6-2.9"></path><path id="Fill-5_1_" class="st505" d="M82 143.9s-2.4-.6-4.3-1.8c-1.9-1.3-3.5-3.6-3.5-3.6s-1.2 1.1-2.5 2.6-2.7 3.5-2.7 3.5l7.4 4.9s1.1-1.3 2.5-2.6c1.3-1.5 3.1-3 3.1-3"></path><path id="Fill-7" class="st506" d="M67.9 186.1s.2.5.3 1.1c.2.5.1 1.6-.5 2.1-1 .9-1.8 1.1-2.6 1.4-.7.4-1.9.7-1.9.7s-1.7-2.2-2.5-3.1c-.8-.9-3.7-3.2-4.2-3.6-1.2-.9-2.3-1.8-3.6-2.6-1.3-.8-3.9-2.1-3.9-2.1s.9-1.1 1.4-1.7c1-1.2 1.6-2.7 1.9-4.2.2-.9.4-2.5.4-2.5s-1.6-.8-1.8-1.3c-.3-.6-.8-1.4-1-2.1-.2-.8-.3-2-.1-2.6.1-.6.6-1.3.8-1.6.6-.7 1.6-.4 2.5-.6.9-.2 1.7-.8 2.3-1.3 4.7-4.1 10.9-8.8 17.7-7.5 1.7.3 3.4 1.2 4.8 2.3.6.5 1.4.5 1.6 1.3.5 2.2.7 3.3 0 6.3s-.8 4.9-1.2 6.9c-.4 1.9-1.2 5.3-3.3 8.3-1 1.4-1.8 2.6-3.4 3.4-.9.5-2.5.9-2.5.9l-1.2 2.1z"></path><path id="Fill-9" d="M156 207.5s0-.4-.4-.7c-.4-.3-1.1-.4-1.1-.4l-13.8 6-1.1 1.3-12.7 30.8-21.1-3.1-15.2 3-9.1 6.2-4.5 3.2s-.2.8 0 1.2c.2.4.7.5.7.5l42.3 6.2.9.8 18.3-12.6 16.8-42.4z" fill-rule="evenodd" clip-rule="evenodd" fill="#b1b9c1"></path><path id="Fill-11" class="st506" d="M115.2 261.7c.2.3 2.5.6 3 .7 1.6.2 6.6-.9 7-.9 2.1-.3 4.6-1.1 6.6-1.7 1.1-.3 2-.6 3-1.2.4-.2 1.1-.4 1.4-.7 1-1.1 1-5.4 1-5.4s1.1-1.2 1.4-2.4c.5-2-.1-3.7-.2-5.7-.1-.9-.3-1.7-.3-2.6 0-.3-.1-.9-.4-1.1-.4-.4-.9-.4-1.2 0-.3.3-.4.9-.5 1.2 0 .2-.1.9-.1.9s-.8.3-.9.5c-.2.3-.6 1.4-.6 1.4s-.7.8-1.1 1.7c-.2.5-.8 3-.8 3s-.6.1-.7.2c-.4.5-1.1 1.9-1.2 2.3-.5 1.2-.7 2.1-1.5 3.2-.3.5-1.4 1.5-1.8 2-.8.7-1.7 1.5-1.7 1.5s-4.8 3.4-5.2 3.2c-.3-.1-.7-.5-.7-.5l-4.9-.7c.2-.2.2.8.4 1.1"></path><path id="Fill-13" class="st506" d="M69.5 240.5s4.1-.4 4.2-.4c.9-.2 3.1-.6 4.1-.8 1.4-.2 3.4-.8 5-1.5 1.1-.4 3.3-1 5.8-1.3 1.8-.2 7.7 0 9.3.1 1.5.1 3.2.3 4.5.7 1.5.5 2.6 2 3.7 3 .7.6 1.7 1.3 2 2.2.1.2.2.6.2.8 0 .2-.6.5-.6.5s1.3 1 1.3 1.7c0 .6-.7.4-1.1.5-.1 0-.9-.1-.9-.1s.2.7-.3.9c-.5.2-1.9 0-2.8-.4-1.6-.8-3.1-1.8-4.8-2.5-1.1-.4-3.4-.2-4.5-.1-.4 0-1.3.4-1.3.4s2.2.6 2.5.6c1 .2 1.8.6 2.5 1.1.6.4 1 .8 1.6 1.2.4.2 1.6.9 2 1.1.3.2 1.1.8.7 1.3-.6.8-2.4.3-3.2 0-.7-.3-1-.3-1.8-.6-1.5-.6-3.3-.8-4.8-.6-1.7.2-3.8.6-5.6 1.1-1.4.3-2.9.5-4.4.5-2.4 0-3.6-.2-6-.1-1.4.1-4.1.6-5.4 1.1-.3.1-1.7.5-1.7.5s-1.3-2-1.5-3.2c-.2-1.1-.3-2.6 0-4.3.2-.6 1.3-3.4 1.3-3.4"></path><path id="Fill-15" class="st508" d="M79.7 160.8s1.4-.3 2.1-.7c1.8-1.3 1.3-4.7.1-6.4-.4-.6-.8-.9-1.3-1.4-.9-1.1-1.8-2.3-2.9-3.2-.7-.6-1.3-1.4-2-2-2-1.7-4.3-3.7-6.8-4.4-.8-.2-2.4-.2-3.3-.1-1.5.2-2.6 1-4.1 1.4-1.2.2-1.9 0-3.1.3-.8.2-1.7.2-2.4.6-.3.1-1.8 1.3-2.1 1.6-.9.7-1.5 2.2-2 3.2-.4.7-.5 1.6-.6 2.6-.1 1.1-.2 2.7-.3 4.2-.1 1.5 0 2.8.1 3.8.1 1.4.9 3.8.9 3.8s.8-.2 1.2-.1c.8.3 1.5.8 2.2 1.2.6.3 2.1.5 3.1.1 1.3-.5 1.5-1 2.3-2 .3-.4 1.1-1.6 1.1-1.6s2.4-.8 3.6-1.8c1-.8 2.1-2.3 3.4-2.7 1-.2 2.2.4 3.1.7 1.1.3 2.4.5 3.6.7 1 .2 2.4-.3 3.3.3.8.5.8 1.9.8 1.9"></path><path id="Fill-17" class="st505" d="M142 210.9s-1-1.5-1.2-3.5c-.2-2 .4-4.3.4-4.3l-4.9.3s.5-6.7-.7-10c-.5-1.4-1-1.8-1.7-2.2-1-.6-2.3-.8-2.3-.8s.6 2.4.6 4.6c0 2.2-.3 4.1-.3 4.1s.9 0 1.6.1c.7.1 1 .4 1 .4s-.3 1.9-1 2.9-2 1-2 1l.3 6.8s.4.1 1-.1 1.3-.6 1.3-.6l3.1 5.1-4.1-.8-3.2 4.7s-5.2-.1-8.5.3-4.3.8-4.3.8 0 2.9.3 5 .8 3.9.8 3.9 1.6-.6 3-.8c1.4-.1 2.5 0 2.5 0l1.5 2.7s-2.7.5-6.6.5c-3.9 0-8.5-.7-8.5-.7s-.4 1.6-.4 3.2.3 3.2.3 3.2l-.9.6s-1.8-1.6-2.3-3.1c-.5-1.5.4-3.1.4-3.1s-2-1.5-3.9-2.6c-1.8-1.2-3.4-2.1-3.4-2.1s-1 1.2-.7 3.2c.1.9.7 2.2 1.4 3.2 1.4 2 3.7 4.2 6 5.8 1.6 1.1 3.2 2 4.3 2.6l3 1.5c4.2 1.7 6.8-1.7 6.8-1.7l-1.2-.6 5.6-.7s-.4 3-2.8 4.9c-2.4 1.9-3.3 1.7-5.3 2.2-2 .5-4-.5-3.3.5.7 1 4.5 3.6 4.5 3.6l2.1 2.4 2.6-.8 16.5-40.4 2.6-1.2z"></path><path id="Fill-19" class="st509" d="M136 185.9l-8.8-2.5s-2.2 1.7-3.9 4.2c-1.7 2.5-2.9 5.9-2.9 5.9l-6 1.8 2.1 7.8s-6-2.8-9.1-2.9c-3.2-.1-3.5 2.5-3.5 2.5l4.4 1.4 3.6 1.9 1.5-2.2s1.3.7 1.9 1.8c.6 1.1.5 2.7.5 2.7l3.6 1.4 3.2 5.7s3.5-1.8 5.5-3.2c2-1.4 2.4-2.3 2.4-2.3l-4.6-8.8 2.9-.8s-1.6-4.9.2-8.5c1.8-3.7 7-5.9 7-5.9"></path><path id="Fill-21" class="st509" d="M92.8 183.5s-.1-.1-.6.1c-.9.5-2.8 2.2-3.1 3.3-.4 1.6.1 5.1 1.2 10.2.7 3.1 4 8.6 4.7 9.3.6.7 1.6 1.6 2.3 1.8 1.4.4 2.7.1 2.7.1s-.1-.8-.6-3-1.5-5.6-1.5-5.6-1.8.3-3.2-.7c-1.4-1-2-3.2-2-3.2s.6-.6 1.3-.9c.7-.3 1.7-.6 1.7-.6s-1.4-2.6-2.1-5.3c-.7-2.8-.8-5.5-.8-5.5"></path><path id="Fill-23" class="st509" d="M36.2 154.6c-.5-1.2-.7-1.8-1.6-3.4-1.1-2.1-2.9-4.7-4.3-6-1-1-2.2-1.6-3-1.7-1.4-.2-2.3.3-2.3.3l3.1 6.1s1.4-.5 2.6 0c1.2.5 2.1 1.6 2.1 2.1-.1.5-1.9 1.6-1.9 1.6s1.6 2.1 2.6 4.1c.9 2 1.4 3.7 1.4 3.7s1.9-1 2.2-3.2c0-.9-.4-2.4-.9-3.6"></path><path id="Fill-25" class="st509" d="M69.5 197.2s-.8 1.9-2.2 2.6c-1.4.7-3.5.4-3.5.4s-.2-.5-.2-1.3c0-.9.3-2.2.3-2.2s-1.9.2-4.6-.4c-2.7-.5-6.2-2-6.2-2s-.1 1.6.4 3.1c.2.6.5 1.5 1.6 2.3 1.9 1.3 5.3 2.4 7.4 2.8 3.5.7 6.9 1.1 11.1.5 1.2-.2 2.3-.7 2.9-1.3 1.3-1.1 1.5-2.6 1.5-2.6s-.6-.3-2.8-.8c-2.1-.4-5.7-1.1-5.7-1.1"></path><path id="Fill-27" class="st510" d="M71.2 251.4c.1 0 .1 0 0 0 4.3-1.3 7.3-1.1 9.8-1 1.1.1 2.1.1 3.2 0 1.9-.1 3.6-.5 5-.8 1.3-.3 2.3-.5 3.3-.6 2.2-.1 3.6.1 5 .5l.3.1c1.6.6 4 1.4 4.9.4.2-.2.2-.4.2-.6-.1-.5-.7-.8-1.6-1.2-.7-.3-1.5-.8-2.2-1.4-1.4-1.1-3-1.4-4.8-1.8-.8-.2-1.7-.3-2.6-.6-.1 0-.3 0-.3.1s0 .2.2.3c.9.3 1.8.4 2.6.6 1.8.4 3.3.7 4.6 1.7.8.6 1.6 1.1 2.3 1.4.7.4 1.3.7 1.3.9 0 0 0 .1-.1.3-.7.8-3.1 0-4.4-.5l-.3-.1c-1.5-.5-2.9-.7-5.2-.6-1 0-2.1.3-3.4.6-1.4.3-3.1.7-4.9.8-1 .1-2 0-3.1 0-2.6-.1-5.6-.3-9.9 1-.1 0-.2.2-.2.3.1.2.2.2.3.2"></path><path id="Fill-29" class="st510" d="M49.2 180.4c.1 0 .1 0 .2-.1 3.3-3.3 3.7-6.6 3.6-6.8 0-.1-.1-.1-.2-.1s-.2.1-.3.2v.1c0 .2-.4 3.2-3.5 6.4-.1.1-.1.2 0 .3h.2"></path><path id="Fill-31" class="st510" d="M34.2 260.4c5.3 0 12.3-.8 18.2-2.1 4.4-1 8.4-2.4 11-3.3 1.5-.5 2.6-.9 3.2-1 3.3-.6 4.6-1.4 4.4-2.7 0-.1-.1-.2-.3-.2-.1 0-.2.1-.2.3.1.7-.4 1.5-4.1 2.2-.6.1-1.7.5-3.2 1-2.6.9-6.6 2.3-11 3.3-8.4 1.9-19.3 2.7-23.7 1.6-7.8-1.8-8.1-14.1-8.6-32.7v-.4c0-.6-.1-1.4-.1-2.5-.4-6.1-1.3-20.5 2.5-26.2 4-6.1 9-8.1 14.3-10.2 1.3-.5 2.6-1 3.9-1.6.1-.1.2-.2.1-.3-.1-.1-.2-.2-.3-.1-1.3.6-2.6 1.1-3.9 1.6-5.3 2.1-10.4 4.2-14.5 10.4-3.9 5.9-3 20.3-2.6 26.5.1 1.1.1 1.9.1 2.5v.4c.5 18.8.8 31.2 8.9 33.1 1.5.3 3.5.4 5.9.4"></path><path id="Fill-33" class="st510" d="M70.2 251.4c.6-.2 1.2-.4 1.7-.6.1 0 .2-.2.1-.3 0-.1-.1-.2-.2-.1-.5.2-1.1.4-1.6.6-.1 0-.2.2-.1.3-.1.1 0 .1.1.1"></path><path id="Fill-35" class="st510" d="M105.6 247.4c.2 0 .4 0 .6-.1.4-.1.7-.3.7-.6.1-.6-.8-1.4-1.8-2.1-.3-.2-.6-.4-.8-.6-1.2-1-3.1-2.2-4.2-2.8-1.5-.8-3.3-.8-4.9-.8h-1.1c-.1 0-.2.1-.2.2s.1.2.2.2h1.1c1.6 0 3.3 0 4.7.7 1.1.5 3 1.8 4.1 2.7.2.2.5.4.8.6.7.5 1.7 1.3 1.7 1.7 0 .1-.3.2-.4.3-1.1.3-3.1-.8-4.7-1.7-.7-.4-1.3-.7-1.8-1-1.5-.6-5.1-.3-6.4.1-.1 0-.2.2-.1.3 0 .1.2.2.3.1 1.4-.4 4.9-.6 6.1-.1.5.2 1.1.6 1.8.9 1.4 1.1 3.1 2 4.3 2"></path><path id="Fill-37" class="st510" d="M107.9 246.4c.6 0 .9-.2 1.1-.5.1-.3 0-.7-.3-1.1-.6-.7-1.2-1.3-1.8-1.9-.4-.4-.8-.8-1.1-1.2-.9-1.1-2.9-3-4.5-3.4-1.4-.4-4-1-6-.8-.1 0-.2.1-.2.3 0 .1.1.2.2.2 1.9-.1 4.5.5 5.9.8 1.5.4 3.4 2.3 4.3 3.3.3.4.7.8 1.2 1.2.6.6 1.2 1.2 1.7 1.9.2.3.3.5.2.6-.1.1-.3.2-.6.2s-.8-.1-1.1-.2c-.1 0-.2 0-.3.1 0 .1 0 .3.1.3.2.1.8.2 1.2.2"></path><path id="Fill-39" class="st510" d="M35.2 242.4h.1c5.5-2.7 6.8-3.2 17.8-1.9 4.2.5 10.1.1 12.9-.2 2.7-.3 3.6-.2 4.5.3.1.1.2 0 .3-.1.1-.1 0-.2-.1-.3-1-.6-2-.7-4.9-.4-2.8.3-8.7.7-12.8.2-11.2-1.2-12.6-.8-18.1 2-.1.1-.1.2-.1.3.3.1.4.1.4.1"></path><path id="Fill-41" class="st510" d="M107.3 244.4s.1 0 0 0c.4-.2.6-.4.7-.7.1-.8-.9-1.7-2.2-3l-.4-.4c-.3-.2-.5-.5-.7-.7-1.2-1.3-2.4-2.5-6.7-2.8-.6 0-1.2-.1-1.8-.2-2.1-.2-4.5-.5-8.8.1-2.7.4-4.1.9-5.8 1.4-1.4.5-3 1-5.8 1.6-.6.1-4.8.9-6.6 1-.1 0-.2.1-.2.3 0 .1.1.2.2.2 1.8-.1 6-.8 6.6-1 2.8-.6 4.4-1.1 5.8-1.6 1.6-.5 3.1-1 5.7-1.4 4.3-.6 6.6-.3 8.7-.1.6.1 1.2.1 1.9.2 4.1.3 5.2 1.4 6.4 2.7l.7.7.4.4c1 .9 2.1 2 2 2.5 0 0 0 .2-.3.3-.1.1-.2.2-.1.3.1.2.2.2.3.2"></path><path id="Fill-43" class="st510" d="M90.8 211.4c.2 0 .2-.1.2-.3-.1-.5-.2-1.4-.3-2 0-.3-.1-.6-.1-1-.3-2.3-.7-5-1.8-7.2-1.9-3.9-4.9-6.1-8-8.4-.6-.4-1.2-.9-1.8-1.3-.6-.5-1.5-1.1-2.6-1.9-.1-.1-.2 0-.3.1-.1.1 0 .3.1.3 1.1.8 2 1.4 2.6 1.8.6.5 1.2.9 1.8 1.3 3.2 2.4 6.1 4.4 7.9 8.2 1 2.1 1.4 4.7 1.7 7 0 .3.1.6.1 1 .1.6.2 1.4.3 1.9 0 .4.1.5.2.5"></path><path id="Fill-45" class="st510" d="M92.7 220.4c.2 0 .3-.1.3-.3-.2-1.1-.4-2-.7-2.9-.3-1.3-.6-2.5-.7-3.6 0-.1-.2-.2-.3-.2-.2 0-.3.1-.3.3.1 1.1.4 2.3.7 3.6.2.9.5 1.9.7 2.9 0 .1.2.2.3.2"></path><path id="Fill-47" class="st510" d="M94.8 236.4c.1 0 .2-.1.2-.2-.1-1.6-.5-2.7-.9-3.9-.3-.9-.6-1.7-.7-2.7 0-.1-.1-.2-.2-.2s-.2.1-.2.2c.1 1 .4 1.9.7 2.8.4 1.1.8 2.2.8 3.8.1.1.2.2.3.2"></path><path id="Fill-49" class="st510" d="M125.2 259.4c.1 0 .1 0 .2-.1.4-.4.9-.8 1.4-1.3.9-.8 1.7-1.6 2.4-2.4.5-.7.9-1.8 1.3-2.9.5-1.2 1.1-2.9 1.6-2.8.3 0 .4.1.5.2.2.3 0 1.1-.2 2.4l-.1.5c-.1.3-.1.7-.2 1.1-.2 1.1-.4 2.4-.8 3.2-.2.3-.6.6-.9.9-.2.2-.4.3-.6.5-.1.1-.1.2 0 .3.1.1.2.1.3 0l.5-.5c.4-.3.8-.7 1-1.1.5-.9.7-2.2.9-3.4.1-.4.1-.8.2-1.1l.1-.5c.3-1.6.5-2.3.2-2.8-.2-.3-.5-.3-.8-.4-.8-.1-1.3 1.3-2 3.1-.4 1.1-.8 2.2-1.3 2.8-.6.8-1.5 1.6-2.3 2.4-.5.5-1 .9-1.4 1.3-.1.1-.1.2 0 .3-.1.3 0 .3 0 .3"></path><path id="Fill-51" class="st510" d="M135.4 257.4c.1 0 .2-.1.2-.2.6-2.1.6-3.5.7-5.2 0-.6 0-1.2.1-1.9.1-.9.2-1.7.3-2.5.3-1.6.5-2.9-.4-3.2-.7-.2-1.3-.2-2.1 1.3-.6 1.1-.8 1.9-1 2.8-.1.2-.1.5-.2.7 0 .1 0 .3.2.3.1 0 .3 0 .3-.2.1-.3.1-.5.2-.7.2-1 .4-1.6 1-2.7.7-1.3 1.1-1.2 1.6-1.1.5.1.3 1.3 0 2.6-.1.8-.3 1.7-.3 2.5 0 .7-.1 1.3-.1 1.9-.1 1.7-.1 3.1-.6 5.1-.1.3-.1.5.1.5"></path><path id="Fill-53" class="st510" d="M119 262.4c1 0 1.9-.2 3.2-.4.4-.1.8-.1 1.3-.2 3.7-.6 7-1.4 8.6-2 .5-.2 1-.4 1.4-.5.8-.3 1.5-.6 2.3-.9 1.4-.6 1.6-1.9 1.8-3 .1-1 .2-1.9.2-2.7 0-.8.1-1.7.2-2.7.1-1.3-.1-2.9-.3-4.4-.1-.6-.2-1.2-.2-1.8-.1-1.2-.9-1.3-1.1-1.3-.8 0-1.7 1-1.7 2.2 0 .1.1.2.2.2s.2-.1.2-.2c0-.9.7-1.7 1.3-1.7.5 0 .6.6.7.9.1.6.1 1.2.2 1.8.2 1.5.4 3 .3 4.3-.1 1-.2 1.9-.2 2.7 0 .8-.1 1.7-.2 2.7-.1 1.1-.3 2.2-1.5 2.7-.8.4-1.5.6-2.3.9-.4.2-.9.3-1.4.5-1.6.6-4.8 1.4-8.5 2-.5.1-.9.2-1.3.2-2.5.4-3.7.7-6.8-.3-.1 0-.2 0-.3.2 0 .1 0 .2.2.3 1.5.3 2.7.5 3.7.5"></path><path id="Fill-55" class="st510" d="M116.1 262.4c.3 0 .6-.1.8-.2.1-.1.1-.2 0-.3-.1-.1-.2-.1-.3 0-.4.3-.9.1-1.9-.1-.8-.2-1.9-.5-3.3-.5-3.4-.2-12.8-.7-16.1-1.2-6.2-1.1-8-3.4-8-3.5-.1-.1-.2-.1-.3-.1-.1.1-.1.2-.1.3.1.1 1.9 2.5 8.3 3.6 3.3.6 12.8 1.1 16.2 1.3 1.4.1 2.4.3 3.2.5.6.1 1.1.2 1.5.2"></path><path id="Fill-57" class="st510" d="M137.3 252.4c.1 0 .1 0 .2-.1 1.9-3.1 1.6-5 1.3-7-.1-.4-.1-.8-.2-1.2-.1-.6-.1-1.1-.1-1.6-.1-1.7-.2-2.9-1.1-3.1-.2-.1-.5 0-.7.2-.6.5-.7 2-.7 2.2 0 .1.1.2.2.2s.2-.1.2-.2c0-.4.2-1.5.5-1.9.1-.1.2-.1.3-.1.6.1.7 1 .8 2.7 0 .5.1 1 .1 1.6 0 .4.1.8.2 1.2.3 2 .6 3.7-1.3 6.6-.1.1 0 .3.1.3.1.2.1.2.2.2"></path><path id="Fill-59" class="st510" d="M30.4 273.4c.1 0 .2-.1.2-.3-.4-4-.1-7.1.2-10.2l.3-3.3c0-.1-.1-.2-.2-.2s-.2.1-.2.2l-.3 3.3c-.3 3.1-.5 6.2-.2 10.3 0 .1.1.2.2.2"></path><path id="Fill-61" class="st510" d="M86.7 274.4c.2 0 .3-.1.3-.2.2-6.1-.5-11.2-1-14.5-.2-1.3-.3-2.3-.4-3.1 0-.1-.1-.2-.3-.2-.2 0-.3.1-.3.2 0 .7.2 1.8.4 3.1.5 3.3 1.2 8.3 1 14.4 0 .2.1.3.3.3z"></path><path id="Fill-63" class="st510" d="M38.8 221.4c.1 0 .2-.1.2-.2-.1-.9-.1-1.8-.1-2.6-.1-2.3-.2-4-.5-5 0-.1-.1-.2-.2-.1-.1 0-.1.2-.1.3.3.9.4 2.6.5 4.8 0 .8.1 1.7.1 2.6 0 .1 0 .2.1.2"></path><path id="Fill-65" class="st510" d="M40.8 238.4c.1 0 .2-.1.2-.2 0-2.1-.1-3.4-.3-4.8-.1-.8-.2-1.6-.3-2.7 0-.1-.1-.2-.2-.2s-.2.1-.1.3c.1 1.1.2 2 .3 2.8.2 1.4.4 2.6.3 4.7 0 0 0 .1.1.1z"></path><path id="Fill-67" class="st510" d="M36.8 209.4c.2 0 .3-.2.2-.3-1.7-6.5-5.3-9.4-8.6-11.7-.1-.1-.2 0-.3.1-.1.1 0 .3.1.3 3.4 2.3 6.8 5.1 8.4 11.4 0 .1.1.2.2.2"></path><path id="Fill-69" class="st510" d="M87.5 210.4c.2 0 .3-.1.3-.2v-1.6c0-.1-.1-.2-.3-.2-.2 0-.3.1-.3.2v1.6c0 .1.1.2.3.2z"></path><path id="Fill-71" class="st510" d="M86.2 219.4c.1 0 .2-.1.2-.2.2-1.6.4-3.7.5-5.5 0-.1-.1-.3-.2-.3s-.2.1-.3.2c-.1 1.8-.4 3.9-.5 5.5.1.2.2.3.3.3"></path><path id="Fill-73" class="st510" d="M85.2 231.4c.1 0 .2-.1.2-.2.1-1 .3-2.1.5-3.6 0-.1-.1-.2-.2-.2s-.3.1-.3.2c-.2 1.5-.4 2.6-.5 3.6.1.1.2.2.3.2"></path><path id="Fill-75" class="st510" d="M85.6 237.4c.2 0 .3-.1.3-.3-.2-1.3-.2-2.8-.1-4.5 0-.1-.1-.2-.3-.2-.2 0-.3.1-.3.2-.1 1.8-.1 3.3.1 4.6 0 .1.1.2.3.2"></path><path id="Fill-77" class="st510" d="M121.3 261.4c.2 0 .5-.1 1.2-.6l4.1-2.8c.1-.1.1-.2.1-.3-.1-.1-.2-.1-.3-.1l-4.2 2.8c-.3.2-.6.4-.8.5 0-.2.2-.5.3-.7l18.7-46s.2-.5.6-.9c.3-.4.8-.6.8-.6l13-5.7c.3-.1.7-.2.8-.2 0 .1 0 .4-.2.6l-15.9 40.4c0 .1 0 .3.1.3s.2 0 .3-.1l.2-.5 15.7-39.8c.1-.3.3-.9 0-1.2-.3-.2-1 0-1.3.2l-13 5.7s-.5.2-.9.7c-.4.4-.6 1-.7 1l-18.7 46c-.6 1.1-.3 1.3-.2 1.3h.3"></path><path id="Fill-79" class="st510" d="M123.8 243.4c.1 0 .2-.1.2-.2s-.1-.2-.2-.2l-4.5-.6c-.1 0-.2.1-.3.2 0 .1.1.2.2.2l4.6.6c-.1 0 0 0 0 0"></path><path id="Fill-81" class="st510" d="M111.8 241.4c.1 0 .2-.1.2-.1 0-.1-.1-.2-.2-.2l-5.5-.6c-.1 0-.2.1-.3.1 0 .1.1.2.2.2l5.6.6c-.1 0 0 0 0 0"></path><path id="Fill-83" class="st510" d="M119.8 261.4c.1 0 .2-.1.2-.2s-.1-.2-.2-.3l-1.9-.3-39.9-5.7s-.3 0-.4-.2c-.2-.2-.2-.6-.1-1 0-.1-.1-.2-.2-.3-.1 0-.2.1-.3.2-.1.6-.1 1.1.2 1.4.3.4.7.4.7.4l41.9 6c-.1 0 0 0 0 0"></path><path id="Fill-85" class="st510" d="M120.9 261.4c.1 0 .2-.1.2-.2s-.1-.2-.2-.2c0 0-.4 0-.4-.3-.1-.2.1-.8.3-1.2l18.9-46.4s.2-.5.6-.9c.3-.4.8-.6.8-.6l13.2-5.7c.5-.2.9 0 1.4.4.1.1.2.1.3 0 .1-.1.1-.2 0-.3-.6-.5-1.2-.7-1.9-.5l-13.2 5.7s-.5.2-.9.7c-.4.4-.6 1-.7 1l-18.9 46.4c-.1.2-.4 1-.3 1.5.1.5.6.6.8.6"></path><path id="Fill-87" class="st510" d="M119.8 260.4c.1 0 .2-.1.2-.2s-.1-.2-.2-.3l-1.1-.2-40.5-5.7c-.2 0-.6-.1-.7-.3-.1-.2.1-.3.1-.4l4.1-2.7c.1-.1.1-.2.1-.3-.1-.1-.2-.1-.3-.1l-4.1 2.7c-.2.1-.5.5-.3.9.3.5 1 .5 1.1.5l41.6 6.1"></path><path id="Fill-89" class="st510" d="M79.3 164.4c.1 0 .3-.1.3-.2.4-1.4.5-3.4.1-4.6 0-.1-.2-.2-.4-.2s-.2.2-.2.3c.4 1.2.3 3.1-.1 4.4 0 .2.1.3.3.3"></path><path id="Fill-91" class="st510" d="M69.2 184.4c.5 0 .9 0 1.3-.1 4.8-1.1 8.2-9.4 8.5-12.6 0-.1-.1-.2-.2-.2s-.2.1-.3.2c-.3 3.1-3.5 11.2-8.1 12.2-4.4 1-9.7-3.6-11-5.5-.1-.1-.2-.1-.3-.1-.1.1-.1.2-.1.3 1.5 2.2 6.1 5.8 10.2 5.8"></path><path id="Fill-93" class="st510" d="M73.2 174.4s.1 0 0 0c.8-.2 1.3-.6 1.6-1 .1-.3.2-.5.1-.8-.1-.2-.2-.5-.3-.8-.4-.8-.8-1.7-.1-3 .1-.1 0-.3-.1-.3-.1-.1-.2 0-.3.1-.8 1.6-.3 2.7.1 3.5.1.3.2.5.3.7 0 .1 0 .3-.1.4-.2.4-.7.7-1.3.8-.1 0-.2.2-.2.3.1 0 .2.1.3.1"></path><path id="Fill-95" class="st510" d="M79.8 166.4h.1c.1-.1.1-.2 0-.3-.8-.9-2-.8-2.9-.2-.1.1-.1.2-.1.3.1.1.2.1.3 0 .7-.5 1.7-.6 2.3.1.2.1.2.1.3.1"></path><path id="Fill-97" class="st510" d="M71.7 165.4h.1c.1-.1.1-.2.1-.2-1.1-1.1-3.5-.8-4.8-.2-.1.1-.1.2-.1.2.1.1.2.1.4 0 1.1-.5 3.3-.8 4.1.1.1.1.2.1.2.1"></path><path id="Fill-99" class="st510" d="M53.2 172.4c.1 0 .2-.1.2-.2s-.1-.2-.2-.2c-2.1-.3-3-2.9-2.7-5.2.1-.5.3-1.7 1.4-1.9.8-.1 1.3.3 1.7.8.1.1.2.1.3 0 .1-.1.1-.2 0-.3-.5-.5-1.2-1.1-2.1-.9-1 .2-1.6 1-1.8 2.3-.2 2.4.8 5.2 3.2 5.6-.1 0 0 0 0 0"></path><path id="Fill-101" class="st510" d="M52.8 169.4c.1 0 .2-.1.2-.2 0-.9-.7-1.7-.7-1.7-.1-.1-.2-.1-.3 0-.1.1-.1.2 0 .3 0 0 .5.6.6 1.4 0 .1.1.2.2.2"></path><path id="Fill-103" class="st510" d="M69.9 169.6c.2-.5-.1-1.1-.6-1.2-.5-.1-1.1.2-1.3.8-.2.5.1 1.1.6 1.2.6.1 1.1-.2 1.3-.8"></path><path id="Fill-105" class="st510" d="M61.5 162.4c1.8 0 3.7-1.1 4.7-2.2.3-.3.5-.6.8-.8.9-1.1 1.8-2.1 3.9-2.5.1 0 .2-.2.2-.3 0-.1-.1-.2-.3-.2-2.2.4-3.2 1.5-4.1 2.6-.2.3-.5.6-.7.8-1.1 1.2-3.7 2.6-5.6 1.8-.1 0-.2 0-.3.2 0 .1 0 .3.1.3.4.2.8.3 1.3.3"></path><path id="Fill-107" class="st510" d="M58.4 165.4c.9 0 1.9-.6 2.5-1.5.1-.1.1-.3-.1-.3-.1-.1-.3-.1-.3.1-.6.9-1.4 1.4-2.3 1.3-.8-.1-1.4-.6-1.8-1.4-.1-.1-.2-.2-.3-.1-.1.1-.2.2-.1.3.5 1 1.3 1.6 2.2 1.6h.2"></path><path id="Fill-109" class="st510" d="M73.7 158.4c1.6 0 2.7-.7 3.3-1.6.1-.1.1-.3-.1-.4-.1-.1-.3-.1-.4.1-.6.9-2.1 1.7-4.2 1.2-.1 0-.3.1-.3.2s.1.3.2.3c.5.2 1 .2 1.5.2"></path><path id="Fill-111" class="st510" d="M76.8 159.4c1.2 0 2.7-.4 3.6-1.1.5-.5.7-1 .6-1.7 0-.1-.1-.2-.3-.2-.1 0-.2.1-.2.3 0 .5-.1.9-.5 1.3-.9.8-2.7 1.1-3.7 1-.1 0-.3.1-.3.2s.1.2.2.3c.2-.1.4-.1.6-.1"></path><path id="Fill-113" class="st510" d="M80.3 161.4c2.2-.4 3.1-1.5 3.5-2.3.5-1.3.1-2.8-.6-3.6-.1-.1-.3-.1-.4 0-.1.1-.1.2 0 .3.6.7.9 2 .5 3.1-.3.7-1.1 1.7-3 2-.1 0-.2.1-.2.3-.1.1 0 .2.2.2"></path><path id="Fill-115" class="st510" d="M83.8 154.4c.1 0 .2-.1.2-.2s0-.2-.2-.3c-1.3-.3-1.7-.6-2.7-1.8-1.1-1.4-2.7-3.1-4.8-3.7-.1 0-.3 0-.3.1s0 .2.2.3c2.1.6 3.5 2.2 4.6 3.6 1 1.3 1.5 1.7 3 2-.1 0 0 0 0 0"></path><path id="Fill-117" class="st510" d="M75.8 147.4c.1 0 .2-.1.2-.2s0-.3-.1-.3c-1-.3-1.8-1.1-2.6-1.8s-1.6-1.5-2.6-2c-2.2-1.1-6.4-1-8.5.7-.1.1-.1.2 0 .3.1.1.2.1.3.1 2-1.6 5.9-1.7 8.1-.7 1 .5 1.8 1.2 2.5 1.9.7.9 1.5 1.6 2.7 2-.1 0-.1 0 0 0"></path><path id="Fill-119" class="st510" d="M51.2 153.4c.1 0 .2-.1.2-.2 0-1.9 1.2-4.9 3.4-6.7 1.4-1.2 3.1-1.8 4.9-1.6.1 0 .2-.1.3-.2 0-.1-.1-.2-.2-.2-1.9-.2-3.7.4-5.2 1.7-2.2 1.9-3.5 5-3.5 7-.1.1 0 .2.1.2z"></path><path id="Fill-121" class="st510" d="M51.8 164.4s.1 0 0 0c.2-.1.2-.2.2-.3-.5-1.6-.8-4.9-.5-7.4 0-.1-.1-.2-.1-.3-.1 0-.2.1-.2.2-.3 2.6 0 6 .6 7.7-.1.1 0 .1 0 .1"></path><path id="Fill-123" class="st501" d="M68 175.4s.1 3.7 3 4c2.9.2 4-3.2 4-3.2s-1.6.1-3.3-.1c-1.8-.2-3.7-.7-3.7-.7"></path><path id="Fill-125" class="st510" d="M71.6 176.7c-1.2-.2-2.6-.5-3.1-.6.1 1 .5 3.7 2.6 3.9 2 .2 3.1-2.2 3.4-3.1-.6-.1-1.7-.1-2.9-.2m-.6 3.7c-2.9-.3-3-4.7-3-4.7 0-.1 0-.2.1-.2s.1-.1.2 0c0 0 1.8.5 3.4.7 1.6.2 3.1.1 3.1.1.1 0 .1 0 .2.1 0 .1.1.2 0 .2 0 .2-1.1 3.8-3.7 3.8H71"></path><path id="Fill-127" class="st510" d="M77.9 170.6c.2-.5-.1-1.1-.6-1.2-.5-.1-1.1.2-1.3.8-.2.5.1 1.1.6 1.2.6.1 1.2-.2 1.3-.8"></path><path id="Fill-129" class="st510" d="M68.2 188.4c.1 0 .2-.1.2-.1.4-1.3 1.1-2.7 1.6-3.5.1-.1 0-.2 0-.3-.1-.1-.2 0-.3.1-.5.8-1.2 2.2-1.6 3.6-.1.1-.1.2.1.2"></path><path id="Fill-131" class="st510" d="M108.2 245.4h.2l2.1-1.6 11.4 1.4.1-.4-11.5-1.4h-.2l-2.2 1.6c-.1.1-.1.2 0 .3 0 .1.1.1.1.1"></path><path id="Fill-133" class="st510" d="M106.3 247.4c.1 0 .1 0 .2-.1l.4-.4c.1-.1.1-.3 0-.4-.1-.1-.3-.1-.4 0l-.4.4c-.1.1-.1.3 0 .4 0 .1.1.1.2.1"></path><path id="Fill-135" class="st510" d="M120.8 258.4c.1 0 .2-.1.2-.2s-.1-.3-.2-.3l-23-3.5 8.4-7.6c.1-.1.1-.2 0-.3-.1-.1-.2-.1-.3 0l-.2.2-8.6 7.8c-.1.1-.1.2-.1.2 0 .1.1.2.2.2l23.6 3.5"></path><path id="Fill-137" class="st510" d="M97.9 251.4s.1 0 .1-.1l.9-.9c.1-.1.1-.3 0-.4-.1-.1-.2-.1-.3 0l-.8.8-9.7-1.4-.1.3v.3l.6.1 9.3 1.3"></path><path id="Fill-139" class="st510" d="M101.2 248.4s.1 0 .1-.1l1.6-1.5c.1-.1.1-.2 0-.3-.1-.1-.2-.1-.3 0L101 248c-.1.1-.1.2 0 .3.1.1.1.1.2.1"></path><path id="Fill-141" class="st510" d="M90.3 174.4h.2c.3-.1.5-.4.9-.8.5-.6 1.1-1.4 2.2-2.2 3.4-2.3 3.4-2.7 3.4-2.9 0-.1 0-.2-.1-.2-.3-.3-.6-.3-.9-.2-.5.1-1.6.4-4.8-.6-4.1-1.3-5-5.1-5.4-7.1-.1-.3-.1-.5-.2-.7 0-.1-.2-.2-.3-.2-.1 0-.2.2-.2.3 0 .2.1.4.2.7.5 2.1 1.3 6.1 5.7 7.5 3.3 1 4.5.8 5.1.6.2 0 .3-.1.3 0-.2.3-1 1-3.2 2.5-1.2.8-1.9 1.7-2.3 2.3-.3.3-.5.6-.6.7-.7.2-6.5-2.6-9-5.6-.1-.1-.2-.1-.3 0-.1.1-.1.2 0 .3 2.4 2.7 7.9 5.6 9.3 5.6"></path><path id="Fill-143" class="st510" d="M137.8 215.4h.1c.1-.1.1-.2 0-.3-.8-1-2-2.6-2.9-4.3l-.6-1.2c-.1-.1-.2-.2-.3-.1-.1.1-.2.2-.1.3l.6 1.2c.9 1.7 2.1 3.3 2.9 4.4h.3"></path><path id="Fill-145" class="st510" d="M142.8 211.4h.1c.1-.1.1-.2.1-.3-.1-.2-.2-.3-.2-.5-1-2.5-.6-5.1-.5-6.3.1-.5.1-.7 0-.8 0-.1-.1-.1-.2-.1-.2 0-2.6.1-4.9.3-.1 0-.2.1-.2.2s.1.2.2.2c1.9-.2 4-.3 4.7-.3v.3c-.2 1.2-.6 3.9.5 6.5.1.2.2.4.3.5-.1.3 0 .3.1.3"></path><path id="Fill-147" class="st505" d="M31.3 220.9c4.3 2.4 17.6-.5 18.1-.5.2 0 2 9.8 1.6 10.1-.1 0-6.1 1-11.3.9-6-.2-9.4-1.1-9.6-1.3-.4-.4.7-9.5 1.2-9.2"></path><path id="Fill-149" class="st510" d="M49 220.9c-.2 0-.5.1-.9.1-3.4.6-13.6 2.2-17.5.4-.5 1-1.4 7.7-1.1 8.4.5.2 4 1 9.7 1.2 4.9.1 10.6-.7 11.4-.8.1-1.1-1.2-8.2-1.6-9.3zm-9.9 10.5c-5.8-.1-9.8-1-10-1.3-.5-.6.7-8.5 1.2-9.1.1-.2.3-.2.4-.1 3.7 1.9 14 .2 17.4-.3.7-.1 1-.2 1.1-.2.2 0 .3.2.3.4.2.7 2 9.2 1.4 9.7-.2.1-5.8.9-10.7.9h-1.1z"></path><path id="Fill-151" class="st505" d="M100.7 232.9c7.8 9.7 10.4 2 10.8 2 .2 0 1.1 1.3 3.9 3.2 2.8 1.9 5.5 2.8 5.6 2.9.1.2-2.3 2.4-4.4 2.4-2.1 0-7-2.7-9.6-4.4-3.2-2.2-6-5.1-7.3-7.5-1.6-3-.1-4.6-.1-5 0-.4 7 4.4 7.4 4.6.6.3-2.2 2.7 2 6.3l-8.3-4.5z"></path><path id="Fill-153" class="st510" d="M106.9 231.7c0-.1.1-.3.1-.4-.2-.1-.7-.4-1.6-1-1.5-1-4.6-3-5.4-3.3 0 .1-.1.2-.1.3-.3.7-1 2.1.2 4.3.2.4.5.9.8 1.3 0 0 .1 0 .1.1 2.6 3.2 4.8 4.8 6.7 4.7.4 0 .8-.1 1.1-.3-2.9-2.8-2.2-4.8-1.9-5.7zm13.2 9.1c-1-.4-3-1.3-5-2.6-1.9-1.3-2.9-2.3-3.4-2.8l-.2-.2c0 .1-.1.1-.1.2-.5.8-1.6 2.5-3.6 2.6-.7 0-1.5-.1-2.3-.5.5.4 1.1.9 1.7 1.3 2.6 1.8 7.3 4.3 9.2 4.3 1.7 0 3.5-1.5 4-2 0-.2-.2-.2-.3-.3zm-3.6 2.6c-2.1 0-6.9-2.6-9.5-4.4-3.1-2.1-5.9-5-7.2-7.4-1.3-2.4-.6-3.9-.2-4.7.1-.1.1-.3.1-.3 0-.1.1-.2.1-.2.2-.1.6 0 5.9 3.4.8.5 1.5 1 1.6 1 .4.2.2.6.1.9-.3 1-1 2.7 1.9 5.2.8-.5 1.4-1.4 1.7-1.9.2-.3.3-.5.5-.5s.3.1.6.4c.5.5 1.5 1.5 3.4 2.8 2 1.4 4 2.2 4.9 2.6.5.2.6.3.6.3s.1.2 0 .3c-.3.6-2.5 2.5-4.5 2.5z"></path><path id="Fill-155" class="st505" d="M90 146.1c.5-1.4.9-9 .1-11.1-.8-2.2 8 2.7 8.8 3.5.4.4-1.7 11.6-2.4 12-.2.1-2.6-1.7-4.4-2.7-1.3-1-2.3-1.1-2.1-1.7"></path><path id="Fill-157" class="st510" d="M90.5 134.9v.2c.8 2.1.4 9.5-.1 11-.1.2 0 .3.8.6.3.2.8.4 1.2.6.7.4 1.6 1 2.3 1.5.6.4 1.3.9 1.6 1 .6-1 2.4-10.3 2.1-11.3-.8-.7-7.2-4.1-7.9-3.6m4.1 14.4c-.7-.5-1.6-1.1-2.3-1.5-.5-.3-.9-.5-1.2-.6-.7-.3-1.2-.6-1-1.2.5-1.3.8-8.6.1-10.7-.2-.4 0-.7.1-.7 1.1-.8 8.1 3.4 8.6 3.8.1.1.2.2 0 2.2-.3 2.2-1.5 9.5-2.3 9.9h-.1c-.2-.1-.6-.3-1.9-1.2"></path><path id="Fill-159" class="st510" d="M125.6 201.4c2.4-.1 2.9-.4 3.1-.6.1-.1.1-.2.1-.4 0-.3-.1-.6-.2-1-.5-2.2-1.4-6.3 2.1-9.5 2.7-2.5 4-2.7 4.5-2.9.3-.1.6-.1.8-.6v-.2c-.1-.1-.3-.5-4.7-1.2-1.5-.3-2.5-.8-3.3-1.2-.6-.3-.9-.5-1.3-.4-1.2.2-5.6 5.9-6.7 10 0 .1 0 .3.2.3.1 0 .3 0 .3-.2 1.1-4.1 5.5-9.5 6.3-9.6.2 0 .5.2 1 .4.7.4 1.8.9 3.4 1.2 2.8.5 4 .8 4.3 1-.1.1-.1.1-.4.2-.6.1-1.9.4-4.8 3-3.7 3.4-2.7 7.7-2.2 10 .1.4.2.7.2 1 0 0-.2.4-2.8.4-.1 0-.2.1-.2.2 0 0 .1.1.3.1"></path><path id="Fill-161" class="st505" d="M114 182.3c.1-.1 6.8.3 7.5 0 .5-.2 2.4-4.7 3.1-8.7.6-4 .4-7.2-.4-7.1-1.5.1-8.3 2-8.6 2.1-.2.1 2.4.5 2 4.2-.2 3.5-3.7 9.6-3.6 9.5"></path><path id="Fill-163" class="st510" d="M124.1 165.9c-1.2.1-6.1 1.5-7.7 2 1.3.8 1.8 2.3 1.6 4.2-.2 3.1-2.5 7.9-3.3 9.5 0 .1-.1.2-.1.2h1.2c1.5.1 5.2.2 5.5 0 .4-.3 2.2-4.8 2.8-8.9.6-3.7.5-6.5 0-7m-8.3 16.4h-1.5c-.1 0-.2 0-.2-.1-.1-.1-.1-.1.2-.9.7-1.6 3-6.3 3.2-9.3.2-1.9-.4-3.3-1.7-4-.1-.1-.3-.1-.2-.3 0-.1.1-.2.2-.2s6.8-2 8.3-2.2c.1 0 .3 0 .4.2.6.7.7 3.8.2 7.4-.6 4-2.5 8.9-3.1 9.2-.2.1-1 .2-2.2.2-.9.1-2.1.1-3.6 0"></path><path id="Fill-165" class="st510" d="M118.4 229.4h.1c1.1-.6 2.9-.9 5.3-.9.1 0 .2-.1.2-.2s-.1-.2-.2-.2c-2.4 0-4.3.3-5.4.8-.5-1-1.3-8-1-8.9.5-.2 4.1-1 9.7-1.1 3.6 0 7.6.4 9.6.7.1 0 .2-.1.3-.2s-.1-.3-.2-.3c-2-.3-6-.8-9.7-.7-5.8.1-9.8 1-10 1.2-.6.7.6 9 1 9.6.2.2.3.2.3.2"></path><path id="Fill-167" class="st510" d="M62.9 197.1c-.7 0-2.2 0-4.5-.4-2.5-.5-4.5-1.3-5.5-1.6-.1 0-.2-.1-.3-.1 0 .7.2 3 1.4 4.1 1.4 1.3 6.6 2.8 9.8 3.4l2.1.3c-.9-.3-1.5-.7-2-1.2-1.3-1.4-.9-3.3-.7-4.2 0-.1 0-.2.1-.3h-.4m9.6 5.6c.6-.1 1.1-.2 1.5-.3 2.5-.7 3-2.1 3.3-2.8 0-.1.1-.2.1-.3-.8-.3-4.5-1-6.3-1.4-1.1-.2-1.7-.3-1.9-.4 0 .1-.1.2-.2.3-.4.9-1.3 2.6-5 2.5-.1 0-.3 0-.5-.1h-.1c.1.3.3.7.6 1 1.3 1.4 4.1 1.8 8.3 1.4.1.1.1.1.2.1m-8.9.2c-3.2-.6-8.5-2.1-10-3.6-1.4-1.4-1.7-4.3-1.5-4.7.1-.2.2-.2.2-.2.1 0 .2 0 .7.2 1 .4 3 1.2 5.4 1.6 2.3.4 3.7.4 4.4.4.5 0 .6 0 .7.1.1.1.1.3 0 .7-.1.5-.3 1.5-.1 2.4h.8c3.4.1 4.1-1.4 4.5-2.3.2-.4.3-.7.7-.6.1 0 1 .2 1.9.4 6.3 1.3 6.7 1.4 6.7 1.7 0 .1 0 .2-.1.2 0 0-.1.2-.1.3-.3.8-.9 2.3-3.6 3.1-1.4.4-3.3.6-5.2.6-1.8.2-3.6.1-5.4-.3"></path><path id="Fill-169" class="st505" d="M107.5 153.5c-.8.3-.5 3.8-.2 8.5s1.9 13.5 2.2 13.4c.4-.1 2.3-3.4 2.5-4.3.1-.5-1.5-5.9-1.8-11.7-.2-4.9 1-9 .9-8.9-1 .4-3.2 2.9-3.6 3"></path><path id="Fill-171" class="st510" d="M108.3 152.9c-.8.7-1.2 1.1-1.5 1.2-.6.2-.4 3.8-.1 7.2l.1 1.2c.3 4.5 1.8 12 2.3 13.4.6-.6 2.3-3.3 2.4-4.1 0-.1-.2-.9-.3-1.6-.5-2.1-1.5-6.1-1.7-10.3-.2-3.9.6-7.4.9-8.7-.5.3-1.4 1.1-2.1 1.7m.5 23.5c-.5-.4-2.2-9.7-2.5-13.9l-.1-1.2c-.4-5-.5-7.4.5-7.7.2-.1.8-.6 1.3-1.1.9-.8 2-1.8 2.7-2.1h.3c.1.1.1.2 0 .8-.3 1.3-1.1 4.7-.9 8.5.2 4.1 1.1 8.1 1.6 10.2.3 1.2.4 1.6.3 1.8-.2.9-2.4 4.5-3 4.6-.1.1-.1.1-.2.1"></path><path id="Fill-173" class="st505" d="M83.8 226.4c1.5 0 8.6 2.3 10.4 3.9 1.8 1.6.3-8.8-.2-9.8-.2-.5-11.4-2.5-12-1.9-.2.2.7 3.1 1 5.2.4 1.7.1 2.6.8 2.6"></path><path id="Fill-175" class="st510" d="M82.5 218.9c0 .3.2 1.2.4 2 .2.9.5 2 .6 2.9.1.6.1 1.1.2 1.4.1.8.1 1 .3 1 1.5 0 8.5 2.3 10.2 3.8.1.1.2.1.2.1.7-.5-.2-7.9-.7-9.2-.9-.7-10.2-2.3-11.2-2zm11.3 11.3c-1.6-1.4-8.5-3.6-9.9-3.7-.6 0-.7-.6-.7-1.4 0-.4-.1-.8-.2-1.4-.2-.9-.4-1.9-.6-2.8-.5-2-.5-2.2-.3-2.4.6-.6 7.8.7 9.9 1.2 1.9.4 2 .6 2.1.7.3.7 1.7 9 .5 9.8-.1 0-.2.1-.3.1-.1.1-.3.1-.5-.1z"></path><path id="Fill-177" class="st510" d="M126 231.4h.1c.1-.1.1-.2.1-.3-1.2-2-1.6-3.2-1.7-3.5.6-.5 5.9-3.5 7.6-3.6h.3c.1.2.1.6.2 1 .2.9.5 2.1 1 3.4.1.1.2.2.3.1.1-.1.2-.2.1-.3-.5-1.2-.8-2.4-1-3.3-.1-.4-.2-.8-.2-1-.1-.2-.2-.4-.6-.4-1.7 0-8 3.4-8.1 4-.1.4.7 2.2 1.8 3.9h.1"></path><path id="Fill-179" class="st505" d="M73 222.8c-.1 0-4.8 5.4-5.6 5.6-.5.1-5.5-2.2-9.1-5.1-3.6-2.9-5.9-5.8-5.2-6.3 1.3-1 8-4.4 8.3-4.6.2-.1-1.4 2.2 1.6 5 3.1 2.9 10.1 5.4 10 5.4"></path><path id="Fill-181" class="st510" d="M72 222.7c-1.8-.7-7.1-2.7-9.6-5-1.6-1.5-2.3-3-1.8-4.6-1.6.8-7 3.4-8.1 4.2v.1c0 .7 2 3.1 5.4 5.7 3.6 2.8 8.6 5 9.2 4.9.5-.1 3.1-2.9 4.4-4.2.5-.5.8-.8.9-1-.1 0-.2-.1-.4-.1m-14.5.7c-2.8-2.1-5.6-4.9-5.5-6 0-.2.1-.4.2-.5 1.4-1 8.5-4.5 8.6-4.5h.3c.1.1.1.3 0 .4-.6 1.5 0 3 1.6 4.5 2.5 2.2 7.8 4.2 9.5 4.9.8.3.8.3.8.5 0 .1-.1.1-.1.2l-1.1 1.1c-2.5 2.6-4.1 4.2-4.6 4.3h-.1c-1.1.1-6.1-2.3-9.6-4.9"></path><path id="Fill-183" class="st510" d="M122.1 215.4c-.1-.1-1.9-3-3.3-5.9-.1-.1 0-.3.1-.3.1-.1.3 0 .3.1 1.4 2.8 2.8 5.1 3.1 5.6 1-.3 7.3-4.4 8.1-5.1-.1-.2-.3-.4-.5-.7-1.8-2.9-7.4-11.8-7.2-16.2-1.1-.1-7.8 1.7-8.4 2.3 0 .4.4 3.2 1.9 7.4 0 .1 0 .3-.1.3s-.3 0-.3-.1c-1.5-4.4-2-7.4-1.9-7.7.4-.8 8.3-2.7 9.1-2.5.2.1.3.2.2.3-.4 4.2 5.2 13.1 7.1 16.1.4.6.5.8.6.9.1.2-.1.3-.3.5-.5.4-7.4 5.2-8.5 5.2.1-.2 0-.2 0-.2z"></path><path id="Fill-185" class="st510" d="M115.2 202.4c-.4-.2-.8-.4-1.1-.5-2.3-1-6.3-2.2-7.8-2-1.2.2-2.4 1.6-2.7 2.1h.2c.8.2 2.5.5 4.3 1.3 1.7.7 2.6 1.4 3.1 1.7l.1.1s0-.1.1-.1c.3-.7.9-2.2 2.4-2.6.2-.1.5-.1.7-.1.2 0 .4.1.7.1m4.5 3.1c-2.5-2.1-4.4-3-5.9-2.7-.3.1-.5.2-.7.3 2.7 1.6 2.5 3.3 2.3 4.1v.3c.2.1.6.2 1.4.6 1.3.5 3.9 1.6 4.6 1.8v-.2c.2-.6.4-1.7-.8-3.3l-.9-.9c0 .1 0 .1 0 0m-3.1 3.1c-.7-.3-1.3-.5-1.4-.6-.3-.1-.3-.5-.2-.8.1-.8.4-2.2-2.2-3.7-.5.5-.8 1.3-1 1.7-.1.3-.2.5-.3.5-.1 0-.2 0-.5-.2-.4-.3-1.4-.9-3-1.7-1.7-.8-3.4-1.1-4.2-1.3-.4-.1-.5-.1-.6-.2 0 0-.1-.1-.1-.3.1-.4 1.6-2.3 3.2-2.6 1.6-.3 5.8 1 8.1 2 2.7 1.2 5.3 3 6.7 4.7 1.4 1.7 1.1 3.1.9 3.7 0 .1-.1.2-.1.2 0 .1 0 .2-.1.2 0 0-.1.1-.2.1-.4.1-1.4-.2-5-1.7"></path><path id="Fill-187" class="st505" d="M71.8 206.7c.4-.8 3.8.2 8.4 1.3 4.6 1.1 12.9 4.3 12.8 4.6-.1.4-3.8 1.8-4.8 1.8-.5 0-5.5-2.6-11.2-3.9-4.8-1.1-9.1-.5-9-.6.6-1 3.6-2.8 3.8-3.2"></path><path id="Fill-189" class="st510" d="M80.1 207.6l-1.1-.3c-3.2-.9-6.6-1.8-6.9-1.2-.1.2-.5.5-1.4 1.2-.7.6-1.6 1.3-2 1.8 1.3-.1 4.7-.2 8.4.7 3.9 1 7.5 2.6 9.5 3.5.7.3 1.4.6 1.5.6.8 0 3.7-1.2 4.3-1.7-1.1-.6-8.1-3.5-12.3-4.6zm8 6.8c-.2 0-.6-.2-1.7-.7-1.9-.9-5.5-2.6-9.4-3.5-3.6-.9-7-.7-8.3-.7-.6 0-.7 0-.7-.1v-.3c.4-.6 1.5-1.5 2.5-2.3.5-.4 1.1-.9 1.2-1.1.4-.9 2.7-.3 7.4 1l1.1.3c3.9 1 12.4 4.4 12.7 5v.2c-.1.7-3.9 2.2-4.8 2.2z"></path><path id="Fill-191" class="st510" d="M130.2 219.4c.1 0 .1 0 .2-.1.6-.7 1.4-1.7 1.9-2.5.3-.5.6-.9.8-1.2.4-.7.5-.8.7-.7.7.3 2.7.6 3.9.7.1 0 .2-.1.3-.2 0-.1-.1-.2-.2-.3-1.9-.2-3.3-.5-3.8-.7-.6-.3-.9.3-1.3.9-.2.3-.4.7-.7 1.2-.6.8-1.3 1.8-1.9 2.5-.1.1-.1.2 0 .3 0 .1.1.1.1.1"></path><path id="Fill-193" class="st510" d="M120.3 254.4c.6 0 1.9-.6 2.7-.9.1-.1.2-.2.1-.3-.1-.1-.2-.2-.3-.1-1.6.8-2.4.9-2.5.9-.2 0-.4-.4-.7-.8-.5-.7-1.3-1.7-2.5-2.6-2.4-1.7-3.3-2.5-3.5-2.8.1-.1.2 0 .4 0 .6.1 1.9.4 5.5-.7 4.8-1.5 5.7-5.9 6.2-8.3.1-.4.2-.7.2-1h.2c.3 0 1 .1 2.6.9.1.1.3 0 .3-.1.1-.1 0-.3-.1-.3-2.5-1.1-3-.9-3.2-.8l-.3.3c-.1.3-.2.6-.2 1-.5 2.3-1.4 6.5-5.9 7.9-3.5 1.1-4.7.8-5.3.7-.3-.1-.6-.1-.9.2-.1.1-.1.1-.1.2s.1.6 3.7 3.2c1.2.9 1.9 1.8 2.4 2.5.4.5.6.8 1 .9h.2"></path><path id="Fill-195" class="st505" d="M107.4 208.4c0 .1-5.2 4-5.4 4.7-.2.5 1.2 5.3 3.3 8.8 2.1 3.6 4.2 6 4.8 5.4 1-1 4.7-6.6 4.9-7 .1-.2-2.1 1-4.1-2-2.1-3-3.4-10-3.5-9.9"></path><path id="Fill-197" class="st510" d="M111.3 218.5c-1.8-2.5-3-7.5-3.5-9.2 0-.1 0-.2-.1-.2-.2.1-.5.4-1 .7-1.3.9-4.2 3.1-4.3 3.5-.1.5 1.3 5 3.4 8.4 1.9 3.1 3.9 5.2 4.5 5.3h.1c.9-.8 3.9-5 4.8-6.4-1.4.2-2.8-.6-3.9-2.1m-1 8.9c-1-.1-3-2.4-4.9-5.5-2.1-3.4-3.7-8.2-3.4-8.8.2-.4 1.7-1.6 4.5-3.7.6-.4 1.1-.8 1.2-.9 0-.1.1-.1.2-.1.2 0 .2 0 .4.8.4 1.6 1.7 6.6 3.4 9 1.1 1.5 2.4 2.2 3.9 1.9.1 0 .3-.1.4.1.1.1 0 .2 0 .3 0 .1-4.1 5.8-5.2 6.8-.1 0-.2.1-.5.1.1 0 .1 0 0 0"></path><path id="Fill-199" class="st510" d="M110.4 237.4s.1 0 0 0c.2 0 .3-.2.2-.3-.4-2.1 0-5.7.1-6.4.2 0 .5 0 .8.1 3.4.4 13.5 1.5 17.3-.8.1.2.3.7.6 2.3 0 .1.2.2.3.2.1 0 .2-.2.2-.3-.6-2.6-.8-2.7-.9-2.7h-.3c-3.5 2.3-13.7 1.2-17.1.8-.7-.1-1-.1-1.1-.1-.1 0-.1.1-.2.1-.3.4-.7 4.6-.2 6.9.1.1.2.2.3.2"></path><path id="Fill-201" class="st510" d="M119.2 240.4c1.5 0 3.5-.2 5.6-.6.1 0 .2-.1.2-.2s-.1-.2-.3-.2c-2.1.3-4 .5-5.5.6-.1 0-.2.1-.2.2s.1.2.2.2"></path><path id="Fill-203" class="st510" d="M129.8 236.4c.1 0 .2-.2.2-.3-.2-1.2-.4-2.4-.6-3.5 0-.1-.1-.2-.3-.2-.1 0-.2.2-.2.3.2 1 .4 2.3.6 3.5.1.1.2.2.3.2"></path><path id="Fill-205" class="st510" d="M95.8 193c-.3-.6-1.1-1.9-1.7-4.2-.7-2.4-.9-4.6-1-5.6v-.4c-.7.3-2.8 1.6-3.3 3.2-.6 1.8.4 7.1 1.3 10.2.2.7.4 1.4.7 2-.1-.9-.1-1.7.2-2.3.7-1.9 2.7-2.4 3.7-2.6.1 0 .2 0 .3-.1-.1 0-.2-.1-.2-.2zm3.1 7.7c-.3-1.1-.5-1.7-.5-1.9H98c-1.1.1-3.3.2-5-3.6-.2.3-.5.6-.6 1-.7 1.8.2 4.4 2.6 7.9v.1c.3.4.7.8 1 1.2 1.8 1.8 3.4 1.6 4.2 1.5h.3c-.1-.9-1.1-4.4-1.6-6.2zm-3.2 5c-2-2-4-5.6-5.1-9.2-.9-3-2-8.5-1.3-10.5.6-1.9 3.3-3.5 3.8-3.6.2 0 .3.1.3.1.1.1.1.2.1.7.1 1 .3 3.2 1 5.5.7 2.2 1.4 3.5 1.7 4.1.2.4.3.5.2.7-.1.2-.2.2-.7.3-.6.2-1.6.4-2.4 1.1l.1.1c1.5 3.6 3.5 3.5 4.6 3.4.4 0 .9 0 .9.4 0 .1.3.9.5 1.8 1.7 5.8 1.8 6.5 1.6 6.7-.1.1-.2.1-.3.1h-.4c-.2 0-.5.1-.9.1-.9-.1-2.3-.4-3.7-1.8z"></path><path id="Fill-207" class="st505" d="M65.1 233.9c.3.8 3.8.5 8.5.2s13.5-1.9 13.4-2.2c-.1-.3-3.4-2.3-4.4-2.4-.5-.1-5.9 1.6-11.7 1.8-4.9.2-9-1-8.9-.9.5 1 3 3.1 3.1 3.5"></path><path id="Fill-209" class="st510" d="M82.5 229.9c-.1 0-.8.2-1.6.3-2.1.5-5.9 1.5-9.9 1.7-3.8.2-7.1-.6-8.3-.9.4.6 1.1 1.4 1.7 2.1.7.8 1.1 1.2 1.1 1.4.2.6 3.6.4 7 .1l1.1-.1c4.3-.3 11.5-1.8 12.8-2.3-.6-.5-3.2-2.2-3.9-2.3zm-17.4 4.8c-.1-.1-.6-.8-1-1.2-.8-.9-1.7-2-2-2.6v-.2c.1-.1.2-.1.7 0 1.2.3 4.5 1.1 8.2.9 3.9-.2 7.7-1.2 9.8-1.7 1.2-.3 1.6-.4 1.8-.4.9.2 4.4 2.3 4.5 2.9 0 .1 0 .2-.1.2-.4.5-9.4 2.2-13.3 2.5l-1.1.1c-2.1.2-3.8.3-5 .3-1.6-.1-2.4-.3-2.5-.8z"></path><path id="Fill-211" class="st505" d="M111.7 185.7c-1.4-.4-8-4.2-9.4-6.1-1.4-1.9-2.4 8-2.3 9 .1.5 10.7 5.1 11.4 4.7.2-.1.1-3 .3-5 .1-1.6.6-2.4 0-2.6"></path><path id="Fill-213" class="st510" d="M102.1 179.9c-.8.3-1.8 7.9-1.6 9.3.7.8 9.5 4.7 10.6 4.8.1-.3.1-1.2.1-2 0-1 0-2.1.1-3 0-.6.1-1.1.2-1.5.1-.8.1-1-.1-1-1.5-.4-7.8-4.5-9.2-6.4 0-.2-.1-.2-.1-.2zm-.3 10.7c-1.8-.9-1.8-1.1-1.8-1.3-.1-.7.6-9.3 1.9-9.9.1-.1.4-.1.7.3 1.3 1.9 7.5 5.8 8.9 6.2.6.2.5.8.4 1.6-.1.4-.1.9-.2 1.4-.1.9-.1 2-.1 3 0 2.1-.1 2.3-.3 2.5h-.2c-1.3 0-7.4-2.9-9.3-3.8z"></path><path id="Fill-215" class="st510" d="M28.9 143.7c-1.6-1.2-2.7-.8-3.3-.5-.1 0-.1 0-.2.1.2.7 1.5 3.3 2.1 4.6l.7 1.4c.1 0 .2 0 .3-.1.8-.2 2.4-.6 4.2 2 .1-.2.2-.5.2-.8.2-1.5-.8-3.5-3.1-5.8-.2-.4-.6-.7-.9-.9m4.5 6.7c-.2 1.6-1.6 2.4-2.3 2.7l-.1.1.1.1c.3.4 1.1 1.4 1.9 3 .9 1.8 1.4 3.5 1.6 4.3 0 .1 0 .1.1.2.5-.4 1.7-1.7 1.8-3 .2-1.5-1.4-5.6-2.6-7.8-.2-.4-.4-.8-.7-1.2.3.6.3 1.1.2 1.6m1.1 10.9c-.1-.1-.1-.1-.2-.6-.2-.8-.7-2.5-1.6-4.2-.8-1.6-1.5-2.5-1.9-3-.2-.3-.3-.4-.3-.5 0-.2.2-.2.5-.4.4-.2 1.1-.6 1.5-1.2-1.7-2.6-3.1-2.2-3.8-2-.3.1-.7.2-.8-.2 0-.1-.3-.7-.7-1.4-2.3-4.6-2.3-4.9-2.2-5.1 0-.1.1-.1.2-.1 0 0 .1 0 .2-.1.6-.2 1.9-.7 3.7.6.3.2.6.5 1 .8 1.5 1.4 3 3.5 4.1 5.7 1.2 2.3 2.8 6.4 2.6 8.1-.2 1.6-1.9 3.3-2.3 3.5h-.1c.1.2.1.2.1.1"></path><path id="Fill-217" class="st505" d="M12.3 189.4c-1.3-.6-8.6-1.7-10.8-1.1-2.2.6 3.3-8.1 4.1-8.8.4-.4 11.1 2.8 11.4 3.5.1.2-1.9 2.5-3 4.3-1 1.4-1.1 2.3-1.7 2.1"></path><path id="Fill-219" class="st510" d="M6.1 179.9c-1 .9-5.1 7.2-4.6 8h.2c2.3-.6 9.8.4 11.3 1 .2.1.3 0 .7-.7.2-.3.4-.8.8-1.2.5-.7 1.2-1.6 1.8-2.3.5-.6 1.1-1.3 1.2-1.6-1-.7-10.4-3.4-11.4-3.2zm6.7 9.4c-1.3-.6-8.8-1.6-11-1-.5.1-.7-.1-.7-.2-.7-1.3 4.2-8.1 4.8-8.6.1-.1.2-.2 2.2.2 1.9.4 9.6 2.4 9.9 3.2.1.2 0 .4-1.3 2-.6.7-1.3 1.6-1.8 2.3-.3.5-.6.9-.8 1.2-.3.5-.6 1-1 1-.1 0-.2 0-.3-.1z"></path><path id="Fill-221" class="st505" d="M38.5 171.4c-1.6.1-6.8 1.9-10.3-2.6s-2.1-5-3-5.4c-.3-.1-.8 1.9-1.4 4.5-.6 2.5-1.9 3.7-1.8 4.3.1 1 5.3 5.8 9.3 7.1 4 1.3 6.8 1.2 7 1.1.3-.4 1.3-9.1.2-9"></path><path id="Fill-223" class="st510" d="M38.2 171.6v-.2.2zm.2.3l-.1-.2c-.2 0-.6.1-1 .1-2.3.4-6.7 1.1-9.9-2.7-2.4-2.9-2.6-4.1-2.7-4.8 0-.2-.1-.3-.1-.4-.2.3-.6 1.4-1.2 4.1-.4 1.5-1 2.5-1.4 3.2-.2.4-.5.7-.4.9.1.8 5.3 5.5 9.4 6.7 4 1.2 6.7 1.2 7 1.1.2-.6.9-6.5.4-8zm-7.7 7.4c-4.1-1.2-9.6-5.9-9.7-7.1 0-.3.2-.7.5-1.2.4-.7 1-1.7 1.4-3.1 1-4.2 1.4-4.4 1.5-4.5h.3c.4.2.5.4.5.8.1.6.3 1.8 2.6 4.5 3 3.6 7.2 2.9 9.4 2.6.4-.1.7-.1 1-.1.2 0 .4.1.6.4.6 1.5-.1 8.3-.6 8.7-.1.1-.5.1-1 .1-1.3 0-3.7-.3-6.5-1.1z"></path><path id="Fill-225" class="st505" d="M47.8 200.4c-1.2-.8-5.9-6.5-6.5-8.7-.6-2.2-5.1 6.6-5.4 7.6-.1.5 8 8.2 8.8 8.1.2 0 1.2-2.7 2.1-4.5.8-1.5 1.6-2.1 1-2.5"></path><path id="Fill-227" class="st510" d="M47.5 201.2c-1.2-.9-5.7-6.8-6.3-9.1 0-.1-.1-.2-.1-.2-.9 0-4.3 6.6-4.6 8 .4 1 7.2 7.7 8.2 8.1.1-.3.5-1.1.8-1.8.3-.9.7-1.9 1.1-2.7.2-.5.5-.9.7-1.3.3-.8.3-.9.2-1zm-10.2.4c-1.3-1.5-1.3-1.7-1.3-1.8.1-.7 3.6-8.3 5-8.4.2 0 .4.1.5.5.5 2.2 5 8 6.1 8.8.5.4.2.9-.2 1.6-.2.3-.4.7-.6 1.2-.4.8-.8 1.8-1.1 2.7-.7 1.9-.8 2.1-1.1 2.1-.8.1-5.9-5.1-7.3-6.7z"></path><path id="Fill-229" class="st510" d="M131.9 191.1c.2.8.6 2.4.6 4.3 0 1.8-.2 2.9-.3 3.4v.2h.2c.8 0 2.5-.1 3.6 1.1.3.4.5.8.7 1.3v-1.2c0-2.5-.5-6.5-1.5-7.7-.8-1-2.6-1.5-3.2-1.6-.2 0-.2.1-.1.2m3.5 15.6c1-3 1-5.2.1-6.3-.2-.2-.4-.4-.6-.5-.4 3.1-2.2 3.5-3 3.7-.1 0-.2 0-.3.1v1.4c0 1.4.1 4.1.2 4.8h.2c.7-.1 1.9-.3 2.9-2 .1-.3.3-.7.5-1.2-.1.1 0 0 0 0m-3.9 3.7c-.2-.1-.3-.4-.5-5.3v-1.4c-.1-.3.3-.4.7-.5.8-.2 2.3-.5 2.7-3.4-.8-.3-1.6-.3-2.1-.2-.4 0-.5 0-.6-.1-.1-.1-.1-.2 0-.6.1-.5.3-1.6.3-3.3 0-1.9-.4-3.5-.6-4.2-.1-.4-.1-.5-.1-.6 0 0 .1-.2.3-.2.5-.1 2.9.5 3.9 1.8s1.5 5.6 1.6 8c0 2.9-.6 6-1.7 7.9-1.1 1.9-2.5 2.1-3.2 2.2h-.3-.1c-.2-.1-.2-.1-.3-.1"></path><path id="Fill-231" class="st510" d="M70.8 253.4c.1 0 .1 0 .2-.1s.1-.3 0-.3c-2.7-2.1-3.5-7.5-.6-12.2.1-.1 0-.3-.1-.3-.1-.1-.3 0-.3.1-3 5-2.1 10.6.7 12.8h.1"></path><path id="Fill-233" class="st510" d="M62.7 254.4c.1 0 .1 0 .2-.1s.1-.2 0-.3c-2.6-1.9-3.7-6.3-3.3-9.3 0-.1-.1-.2-.2-.3-.1 0-.3.1-.3.2-.4 3.2.8 7.7 3.5 9.7 0 .1.1.1.1.1"></path><path id="Fill-235" class="st510" d="M115.8 262.4c.1 0 .1 0 .1-.1s0-.2-.1-.3c-.6-.4-.6-1.4-.6-1.4 0-.1-.1-.2-.1-.2-.1 0-.2.1-.2.2.1 0 0 1.2.9 1.8"></path><path id="Fill-237" class="st510" d="M64.8 194.4c.2-.1.3-.2.2-.3-1.9-4.6-5.8-7.9-9.1-10.2-3.3-2.4-6.1-4.5-9.7-4.5-.1 0-.2.1-.2.2s.1.2.2.2c3.5 0 6.2 2 9.4 4.4 3.2 2.3 7 5.6 8.9 10 .1.2.2.2.3.2"></path><path id="Fill-239" class="st510" d="M35.2 188.4c.1 0 .2-.1.2-.2.6-3 2.2-4.1 3.6-4.9.2-.1.5-.2.8-.4.9-.4 2.2-.8 2.8-1.9.2-.3.4-.7.6-1.1.7-1.2 1.4-2.5 2.1-2.8 1-.5 2.2-.3 3.5 0 1 .2 2 .4 2.9.3.1 0 .2-.1.2-.2s-.1-.2-.2-.2c-.9.1-1.9-.1-2.8-.3-1.4-.3-2.7-.5-3.8.1-.8.4-1.6 1.7-2.3 3-.2.4-.4.8-.6 1.1-.6.9-1.7 1.4-2.6 1.7-.4.1-.7.3-.9.4-1.6.9-3.1 2.2-3.8 5.2.1.1.2.2.3.2"></path><path id="Fill-241" class="st510" d="M65.1 195.4c2.9 0 8.4-1.1 11.9-5.6.1-.1.1-.3 0-.3-.1-.1-.2-.1-.3 0-3.6 4.7-9.5 5.6-12.1 5.4-1.9-.1-4-.6-6.2-1.4-.1 0-.3 0-.3.2 0 .1 0 .3.1.3 2.3.8 4.3 1.3 6.3 1.4h.6"></path><path id="Fill-243" class="st510" d="M55.8 192.4c.1 0 .2-.1.2-.1 0-.1 0-.3-.1-.3-1.9-.8-3.8-1.8-5.6-2.7-4-2-7.7-3.9-11-3.8-.1 0-.2.1-.2.2s.1.2.2.2h.2c3.1 0 6.8 1.8 10.6 3.8 1.7.9 3.6 1.9 5.7 2.7-.1 0-.1 0 0 0"></path><path id="Fill-245" class="st510" d="M64.2 192.4c.1 0 .1 0 0 0 2.9-.8 7.1-3.4 7.8-6.7 0-.1-.1-.3-.2-.3s-.2.1-.3.2c-.5 2.8-4.2 5.4-7.4 6.3-.1 0-.2.2-.2.3.1.1.2.2.3.2"></path><path id="Fill-247" class="st510" d="M78.6 191.4c.1 0 .2-.1.2-.2 1.1-3.4-2.4-7.4-4.4-8.8-.1-.1-.2 0-.3.1-.1.1 0 .2.1.3 1.5 1 5.4 4.9 4.3 8.3-.2.1-.1.3.1.3-.1 0 0 0 0 0"></path><path id="Fill-249" class="st510" d="M78.7 148.4c.1 0 .2 0 .2-.1.4-.6 1.6-1.7 2.6-2.5 1.1-.9 1.4-1.2 1.5-1.5.1-.3-.2-.3-.8-.5-1.1-.3-3-.9-4.3-2.1-1-.9-1.7-1.8-2.1-2.4-.6-.7-.8-1-1.1-.9-1.1.7-2.3 2.2-3.5 3.9-.1.1-.1.3.1.3.1.1.3.1.3-.1 1.1-1.5 2.3-3.1 3.3-3.7.1.1.4.4.6.7.5.6 1.2 1.5 2.2 2.5 1.4 1.3 3.4 1.9 4.5 2.2.1 0 .3.1.4.1-.2.2-.8.7-1.2 1.1-1 .9-2.3 1.9-2.7 2.6-.1.1 0 .3.1.3-.2.1-.1.1-.1.1"></path><path id="Fill-251" class="st510" d="M32.5 175.7c.2-.4-.5-1.1-1.7-1.6-.7-.3-1.5-.3-2-.2-.2.1-.3.2-.3.3-.2.4.5 1.1 1.7 1.6.7.3 1.5.3 2 .2l.3-.3m-2.5.4c-1.4-.5-2.2-1.4-1.9-2.1.1-.2.3-.4.6-.5.6-.2 1.5-.1 2.4.2 1.4.5 2.2 1.4 1.9 2.1-.1.2-.3.4-.6.5-.2.1-.5.1-.8.1-.5 0-1.1-.1-1.6-.3"></path><path id="Fill-253" class="st510" d="M120.9 173.9c-.5-.1-1.1.6-1.4 1.5-.1.5-.1 1.1.1 1.4.1.1.2.2.4.2.5.1 1.1-.6 1.4-1.5.1-.5.1-1.1-.1-1.4-.1-.1-.2-.2-.4-.2m-.9 3.5c-.3 0-.5-.2-.7-.4-.3-.4-.4-1.1-.2-1.7.3-1.1 1.1-1.9 1.9-1.8.3 0 .5.2.7.4.3.4.4 1.1.2 1.7-.3 1.1-1 1.8-1.8 1.8h-.1"></path><path id="Fill-255" class="st510" d="M85.9 166.5c-.4-.4-.8-.6-1.1-.6-.1 0-.3.1-.3.2-.2.5 0 1.4.6 2.1.4.4.8.7 1.1.6.1 0 .3-.1.3-.2.3-.4 0-1.4-.6-2.1m-1.1 2.2c-.7-.9-1-2.1-.7-2.8.1-.3.3-.4.6-.5.4-.1 1 .2 1.4.7.7.9 1 2.1.7 2.8-.1.3-.3.4-.6.5h-.1c-.4 0-.9-.3-1.3-.7"></path><path id="Fill-257" class="st510" d="M121 201.9c-.2.1-.4.2-.4.4-.2.4 0 .9.3 1.5.5.8 1.6 1.4 2.2 1.1.2-.1.4-.2.4-.4.2-.4 0-.9-.3-1.5-.5-.7-1.2-1.2-1.9-1.2-.1 0-.2.1-.3.1m-.6 2.1c-.4-.6-.5-1.3-.3-1.8.1-.3.4-.6.7-.7.9-.3 2.1.3 2.8 1.3.4.6.5 1.3.3 1.8-.1.3-.4.6-.7.7-.2.1-.3.1-.5.1-.8 0-1.7-.5-2.3-1.4"></path><path id="Fill-259" class="st510" d="M118.5 235.7c-.1.2 0 .4.1.6.3.4.8.6 1.5.7 1.1.1 2.2-.2 2.4-.8.1-.2 0-.4-.1-.6-.3-.4-.8-.6-1.5-.7h-.5c-.9-.1-1.7.3-1.9.8m1.5 1.7c-.8-.1-1.5-.4-1.8-.9-.2-.3-.3-.6-.2-.9.3-.8 1.6-1.3 2.9-1.1.8.1 1.5.4 1.8.9.2.3.3.6.2.9-.2.7-1.2 1.2-2.4 1.2-.1-.1-.3-.1-.5-.1"></path><path id="Fill-261" class="st510" d="M37.5 225.7c-.1.2 0 .4.1.6.3.4.8.6 1.5.7 1.1.1 2.2-.2 2.4-.8.1-.2 0-.4-.1-.6-.3-.4-.8-.6-1.5-.7h-.5c-.9-.1-1.7.3-1.9.8m1.5 1.7c-.8-.1-1.5-.4-1.8-.9-.2-.3-.3-.6-.2-.9.3-.8 1.6-1.3 2.9-1.1.8.1 1.5.4 1.8.9.2.3.3.6.2.9-.2.7-1.2 1.2-2.4 1.2-.1-.1-.3-.1-.5-.1"></path><path id="Fill-263" class="st510" d="M60.7 220.2c-.1.1-.2.3-.2.6 0 .5.3 1 .7 1.4.7.7 1.7.9 2.2.5.2-.1.2-.3.2-.6 0-.5-.3-1-.7-1.4-.5-.5-1-.7-1.5-.7-.3-.1-.5 0-.7.2m.1 2.4c-.5-.5-.8-1.2-.8-1.8 0-.4.1-.7.4-1 .6-.6 1.9-.4 2.8.5.5.5.8 1.2.8 1.8 0 .4-.1.7-.4 1-.2.2-.6.3-.9.3-.6 0-1.3-.3-1.9-.8"></path><path id="Fill-265" class="st510" d="M106.9 216.9c-.2 0-.3.2-.4.4-.2.4-.1.9 0 1.4.3.9 1 1.5 1.5 1.3.2 0 .3-.2.4-.4.2-.4.1-.9 0-1.4-.3-.8-.9-1.3-1.4-1.3h-.1m-.7 1.9c-.2-.6-.2-1.3 0-1.8.1-.3.4-.5.7-.6.7-.2 1.6.5 2 1.6.2.6.2 1.3 0 1.8-.1.3-.4.5-.7.6h-.3c-.6 0-1.4-.6-1.7-1.6"></path><path id="Fill-267" class="st510" d="M126.9 225.4c.1 0 .2 0 .2-.1.1-.1.1-.2-.1-.3-.4-.3-.6-.7-.5-1.1.2-.7 1.3-1.1 2.4-1 .7.1 1.4.5 1.6 1 .1.1.2.2.3.1.1 0 .2-.2.1-.3-.3-.6-1-1.1-1.9-1.2-1.4-.2-2.7.4-3 1.3-.2.6.1 1.2.7 1.6h.2"></path><path id="Fill-269" class="st510" d="M92.9 141.9c-.2 0-.3.1-.4.2-.2.4.2 1.1 1 1.6.5.3 1.1.4 1.5.3.2 0 .3-.1.4-.2.2-.4-.2-1.1-1-1.6-.4-.2-.8-.4-1.2-.4-.1 0-.2 0-.3.1m.4 2.1c-1-.6-1.6-1.5-1.2-2.1.1-.2.4-.4.7-.4.5-.1 1.2 0 1.9.4 1 .6 1.6 1.5 1.2 2.1-.1.2-.4.4-.7.4h-.4c-.5 0-1-.1-1.5-.4"></path><path id="Fill-271" class="st510" d="M106.1 185.9c-.5.2-.8.9-.5 1.9.1.5.5 1 .8 1.1.2.1.3.1.5 0 .5-.2.7-1 .5-1.9-.1-.5-.5-1-.8-1.1-.1 0-.2-.1-.3-.1-.1.1-.1.1-.2.1m.1 3.4c-.5-.2-.9-.8-1.1-1.4-.3-1.1.1-2.1.8-2.4.3-.1.6-.1.9.1.5.2.9.8 1.1 1.4.3 1.1-.1 2.1-.8 2.4-.1 0-.2.1-.4.1-.2-.1-.3-.1-.5-.2"></path><path id="Fill-273" class="st510" d="M87.9 221.9c-.4.3-.5 1.2-.1 2 .2.5.6.9 1 1h.4c.4-.3.5-1.2.1-2-.2-.5-.6-.9-1-1h-.4m.7 3.5c-.5-.2-1-.6-1.3-1.3-.5-1-.3-2.2.3-2.5.2-.1.5-.2.8-.1.5.2 1 .6 1.3 1.3.5 1 .3 2.2-.3 2.5-.2.1-.3.1-.5.1h-.3"></path><path id="Fill-275" class="st510" d="M8.7 184.2c-.2.5-.3 1.1-.1 1.4.1.2.2.3.3.3.5.1 1.2-.4 1.5-1.3.2-.5.3-1.1.1-1.4-.1-.2-.2-.3-.3-.3h-.1c-.5 0-1.1.5-1.4 1.3m0 2.2c-.3-.1-.5-.3-.6-.6-.2-.5-.2-1.2.1-1.8.4-1.1 1.3-1.8 2-1.5.3.1.5.3.6.6.2.5.2 1.2-.1 1.8-.4.9-1.1 1.6-1.8 1.6 0-.1-.1-.1-.2-.1"></path><path id="Fill-277" class="st511" d="M131.7 56.7c-2.2-.8.9-4.7 5.1-5.6 4.2-.8 6.4.9 6.4.9s2.4-5.6 9.8-5.7c6.9 0 9.2 6 9.2 6s3.3-1.8 6.6-1.4c5.2.6 8.8 5 6.5 5.8-1.8.6-12.4.6-22.7.6-9.9.1-19.5-.1-20.9-.6"></path><path id="Fill-279" class="st511" d="M171.5 81.9c-1.4-.5.6-3 3.3-3.5 2.7-.5 4.1.6 4.1.6s1.5-3.5 6.3-3.5c4.4 0 5.9 3.8 5.9 3.8s2.1-1.1 4.2-.9c3.3.4 5.7 3.2 4.2 3.7-1.1.4-8 .4-14.7.4-6.2-.2-12.5-.3-13.3-.6"></path><path id="Fill-281" class="st511" d="M52.6 65.9c-1.7-.6.7-3.9 4.1-4.6 3.3-.7 5.1.8 5.1.8s1.9-4.6 7.8-4.6c5.5 0 7.4 4.9 7.4 4.9s2.6-1.4 5.3-1.1c4.1.5 7.1 4.1 5.2 4.7-1.4.5-9.9.5-18.1.5-8.1-.1-15.8-.2-16.8-.6"></path><path id="Fill-283" class="st506" d="M140.2 77.6c0-.3.6 0 .6 0s2.3 1.6 3 2c.6.5 1.9 1.6 2.9 2.4.8.8 1.4 1.2 1.4 1.2l-.4.5c-.5.6-1 1.2-1.6 1.7-2.2 2-4.7 3.5-6.9 5.4-1.2 1.1-2.5 3.2-4.1 3.5-.2 0-.5-.1-.8-.1-.4 0-.9.2-1.2 0-1.3-.9-.9-2.9-.6-4.3.8-3.4 1.8-6.7 4.3-9.2.8-.8 1.7-1.5 2.6-2.2.2-.1.8-.4.8-.9"></path><path id="Fill-285" class="st506" d="M127 103.9s-.6 1.2-1.2 2.3c-.6 1.2-1.2 2.4-1.2 3 0 .8-.1 1.4-.3 2.1-.3 1.2-.8 1.8-.7 3.2 0 .3.3 1.7-.2 1.8-.2 0-.3-.1-.4-.3-.2-.6-.4-1.1-.3-1.6 0-.1 0-.7-.2-.6-.2 0-.3.4-.4.6-.2.8-.2 1.5-.4 2.3 0 .2-.2.8-.6.8-.2 0-.2-.5-.2-.6 0-.4.5-1.8-.3-1.9-.2 0-.3.3-.4.4-.3.6-.5 1.1-.8 1.6 0 0-.4.7-.6.5s-.2-.2-.2-.4c0-.8.6-2 .8-2.8 0-.1.3-.8 0-.8s-.5.5-.6.7c-.4.5-.8 1-1 1.4-.2.3-.6.5-.7.4-.1 0-.2-.1.2-1s.8-1.9 1.3-2.6c.5-.7 1.5-1.6 1.9-2.3.5-.8.7-1 1-1.9.3-.9.7-1.8.9-2.7.2-.7.7-2.6.7-2.6s.7-.1 1.1-.1c.3 0 .6 0 .8.1.3 0 .6.2.8.3.4 0 1.2.7 1.2.7"></path><path id="Fill-287" class="st506" d="M111 114.2s-.6 1.7-.8 2.2c-.6 2-.7 3.2-1.2 5.2-.1.7-.6 1.8-.7 2.4-.1 1 .3 2.1-.2 3-.2.3-.7-.4-.8-.5-.1-.3-.3-1.3-.6-1.9-.2-.3-.3-.5-.6-.3-.6.2-1.9 1.3-2.2 2-.4.7-.7 1.8-1 2.2-.1.2-.6.4-.6.4s-.4.5-.6.5c-.7.1-.4-1.7-.4-1.7s-.5-.3-.5-.9c0-.6.2-2 .5-2.5.3-.6.9-1 1.5-1.4.3-.2.6-.6.8-.8 1-1 1.8-2.2 2.4-3.5.4-1 .6-1.9.6-2.9 0-.5.3-2.2.3-2.2s.5.4.6.4c.4.2.7.4 1.1.5.5.1 1.1 0 1.6 0 .2-.1.8-.2.8-.2"></path><path id="Fill-289" class="st506" d="M109.4 90.9c-.2.1-.6.6-.9.5-.4-.1-.6-.6-1.1-.6-1.2.1-2.4.5-3.3.4-1-.1-1.8-.2-2-.6-.4-.7.4-2.1.6-2.9.5-1.5 1.4-3.2 2.9-3.7.9-.3 1.8-.3 2.7-.4.4 0 1.6-1.2 1.6-1.2s-.2 2.1-.2 2.5c0 1.8.1 5.8.1 5.8l-.4.2"></path><path id="Fill-291" d="M137.8 37.2c.1.1-.1.7-.2.8-.1.1-.2-.2-.2-.3 0-.2 0-.4.1-.5.2-.1.3 0 .3 0m-1.3-.5c-.3 1.3.6 2.5.6 2.5v11.9c0 2.2-.1 4.5-.2 6.5-.1 2.1-.2 3.9-.7 5.5-.4 1.3-1.2 2.4-2 3.1-1.4 1-3 1.4-4.2 1.6-.9.1-3.6-.1-3.6-.1 0 .2-3.4-.2-4.3-2.7-.2-.5-.8-4.1-.5-5.2.3-1.3 1.4-.2 1.4-.2s-1.3-5.8-1.4-5.7c-.1 0-.9 2.1-1.2 4.3-.3 2.3-.3 4.7.1 6.7.3 1.4.7 1.9 1.4 2.6 1.2 1 3.2 1.6 3.3 1.6 1.6.5 5 .3 5 .3s.9 0 2.7-.6c1.4-.6 3.7-1.3 4.6-4.8.8-3 .7-6.7.8-11 .1-6.6.1-13.6.1-13.6s.8-1.3.6-2.6c-.2-.9-.7-1.3-1.3-1.3-.4-.1-.9.2-1.2 1.2" fill-rule="evenodd" clip-rule="evenodd" fill="#a5acbc"></path><path id="Fill-293" class="st508" d="M110.2 83.6s-.4.5-.8.6c-.4.1-.8.4-1.4.5-.6.1-1.5-.1-1.8.5-.2.4 0 .8 0 1.3 0 .8-.4 1.4-1 1.9-.8.6-3.1.8-3.1 2 0 .8.6.9 1.2 1.1.1 0 .9.1.9.1s-.6.8-1.5.9c-1.5 0-2.2-.8-2.6-1.3-.6-.8-.9-1.8-1.4-2.9-.5-1.4-1-2.9-1-4.3 0-.9.6-1.8.8-2.6.2-.8.2-1.4.8-2 2.2-2.5 5.2-2.1 8-.9.9.4 1.7 1.2 2.3 1.5.6.3 1.2.4 1.2.4s-.3 1.5-.5 2.1c.1.1-.1 1.1-.1 1.1"></path><path id="Fill-295" class="st513" d="M165.3 137.4s.9.6 1.3.8c1.2.6 2.2.7 3 1.8.4.6.9 2 1 2.7.3 1.4.6 3.1 1 4.2.2.5.3 1.1.4 1.6.1 1.2-.8 2.5-1.9 3.5-.7.6-1.4 1.3-2.2 1.4-.5 0-1-1.1-1.1-1.4-.4-1.2-.8-2.7-1.3-3.8-.6-1.4-.9-2.1-1.7-3.4-.3-.4-1.8-2.3-1.8-2.3s.7-3.2 1.6-4.1c.5-.7 1.7-1 1.7-1"></path><path id="Fill-297" class="st513" d="M163.7 136.4s.7-.7.8-1c.8-1.1 1-3.1.9-4.3 0-1.9.8-3.8.5-5.7 0-.3-.3-.7-.5-1-.5-.5-1.5-.8-2.3-1.1-.9-.4-1.7-.9-1.7-.9s-.6 1.1-.8 1.2c-.6.6-2.6 1.2-2.7 2.1-.1 1.2.7 2.1 1 3.3.1.5.3 1.6.2 2.2 0 .2-.1 1-.1 1l1.3 1.3c.5.5 1.4 1.1 2 1.7.5.5 1.4 1.2 1.4 1.2"></path><path id="Fill-299" d="M140.3 78.5l3.3 2.2s.9-3.5 0-4c-1.3-.8-2.8-1-4.8-1.5-1.4-.4-3.3-.9-4.7-1.7-.9-.5-2.1-1.4-2.9-2.2-1-1-1.7-1.8-1.7-1.8s-.7-.2-1.1-.6c-.4-.5-.4-1.2-.4-1.2s-.9-.5-1.5-.1c-1.1.8-2.3 2.2-4.5 4-1.6 1.3-3.7 2.4-5.6 3.5-1.6.9-3.1 1.6-4.2 2.7-1.7 1.6-2.2 4.4-2.3 5.3-.1.4-.2 2.3-.1 4.6.1 3.2.4 7.2-.1 11.2-.4 3.3-1 4.8-1.7 7.3-.3 1.3-.6 3.8-.8 5.3-.1.9-.3 1-.2 1.6.1.8 1.4 1.3 2.5 1.4.7 0 1.3-.1 2-.4.6-.2 1.6-3.3 2.3-5.6.5-1.6 1.2-3.6 1.5-5.1.4-1.9.4-3.8.8-5.8.6-3 1.3-5.8 1.3-5.8l6.1.7s.4 1.4.7 2.3c.2.7-.3 2-.3 2l-.7 4.2-.5 1.9s1.2-.3 2.8.2c1.1.4 1.7 1.2 1.7 1.2s.4-.5 1.1-2.1c.7-1.6 1.8-4.4 1.8-4.4l.3-3s.6.4 1 .6.8.2.8.2 0-1.9.7-4.4c.5-1.6 1.2-3.6 2.1-5.3.9-1.8 2-3.6 3.1-4.9 1-1.7 2.2-2.5 2.2-2.5" fill-rule="evenodd" clip-rule="evenodd" fill="#5e6472"></path><path id="Fill-301" d="M147.3 83.4s-2.2 0-5 1.2c-1 .4-2.2 1.1-3.2 1.8-1.1.8-2 1.5-2.9 2.4-1 1-1.9 2.1-2.6 3.1-.4.5-.9 1.2-1.2 1.7-.4.8-.5 1.3-.5 1.3s.3.5.5 1 .2 1.3.4 1.9c.1.5.4.9.5 1.3.6 2.5 1.5 6.2 2.8 10.4.6 1.9 1.2 4 1.9 6 1.2 3.8 2.4 7.8 4.1 11 .8 1.4 2.3 2.5 3.4 3.7 1.8 1.8 4.1 3.8 6.1 5.2 1.6 1.1 2.6 1.5 4 2.5 1 .7 2.1 2.4 2.8 3 .4.4.9.6 1.2.9.5.5.7 1 1 1.3.4.4.6.4.6.4s.5-.5.8-1.5c.3-1 0-1.5.7-2.5.7-.9 2.2-1.3 2.2-1.3s-.2-.6-1.3-1.6c-1.1-1.1-3-2.7-3-2.7l-5.1-5.5s-2.8-2-4.2-3.5c-1.5-1.5-1.4-1.7-1.7-2.4-.3-.7-.3-1.3-.3-1.3s.5.3 1.2.7c.9.4 2.2.9 3.4 1.7 1.4.9 2.6 2.1 3.6 2.9.7.6 1.2.8 1.2.8s-.4-.7.1-1.5c.6-.7 1.3-.8 2.1-1.5s1-1.4 1-1.4.2-.2-.5-.8c-.4-.3-1.2-.7-1.9-1.3-1.2-.8-2.3-2.4-3.5-3.9-.5-.7-1.8-1.7-2.2-2.2-2-2-2.6-2-2.3-4 .3-1.6 1.4-6.3 1.6-8 .1-1.2.2-3.6.3-4.7.1-1.1.6-2.8.6-3.8 0-2.6-.8-4.4-1.8-5.9-1-1.4-2.2-2.6-2.2-2.6s-.8-1.3-1.4-1.8c-.5-.4-1.3-.5-1.3-.5" fill-rule="evenodd" clip-rule="evenodd" fill="#c3baa9"></path><path id="Fill-303" class="st516" d="M147.8 83.4s.1 0 .2-.1.1-.2 0-.3c-1.9-1.9-4.3-3.9-6.6-5.5-.1 0-.2 0-.3.1 0 .1 0 .2.1.3 2.2 1.6 4.6 3.6 6.6 5.5-.1 0-.1 0 0 0"></path><path id="Fill-305" class="st516" d="M102.6 129.4c.3 0 .5-.3.8-.7 0-.1 0-.2-.1-.3-.1 0-.2 0-.3.1-.1.3-.3.4-.3.4l-.1-.3c0-.3 0-2.1.1-2.4.2-1.1.5-1.6 1.3-2.9.3-.5.8-1.1 1.3-1.6.6-.7 1.3-1.5 1.6-2.1.9-1.9 1.1-3.7 1.3-5.8 0-.1-.1-.2-.2-.2s-.2.1-.2.2c-.2 2-.4 3.8-1.3 5.7-.3.7-.9 1.4-1.5 2.1-.5.5-1 1.1-1.3 1.7-.8 1.2-1.1 1.9-1.4 3.1 0 .3-.1 2.2-.1 2.6-.1.2.1.4.4.4-.1 0-.1 0 0 0"></path><path id="Fill-307" class="st516" d="M110.1 114.4c1 0 2-.3 2.3-1.3 0-.1.1-.3.2-.5.5-1.3 1.5-3.8 2.5-7.8.6-2.2.8-4.1 1-5.9.2-1.3.3-2.6.6-4 .6-2.6 1.4-6 1.8-7.2 0-.1 0-.2-.1-.3-.1 0-.2 0-.3.1-.4 1.2-1.3 4.6-1.8 7.2-.3 1.4-.5 2.6-.6 4-.2 1.8-.5 3.7-1 5.8-1.1 4-2 6.4-2.5 7.8-.1.2-.1.4-.2.5-.4 1.1-2 1-2.3 1-.9-.1-1.7-.4-2-.9-.1-.1-.2-.3-.2-.6.1-.9.3-2.2.4-3.3.1-1 .2-1.9.3-2.1.2-1.4.6-2.7.9-4.1.3-1.4.7-2.9 1-4.4.5-2.8.3-6.5.2-9.7 0-1-.1-2-.1-2.8 0-1.7.1-4 .7-5.7.7-2 1.9-3.5 3.7-4.5 2-1.1 5.7-3.2 8.3-5.2.9-.7 1.7-1.5 2.4-2.3.6-.6 1-1.1 1.4-1.3.4-.3 1-.2 1.5 0v.1c0 .3 0 .7.4 1.1.4.4 1 .6 1.1.6 1.3 1.6 2.7 2.9 4.3 3.8 2.5 1.5 4.4 1.9 6.1 2.2 1.2.2 2.4.5 3.7 1.2.1 0 .2 0 .3-.1 0-.1 0-.2-.1-.3-1.4-.7-2.6-.9-3.9-1.2-1.7-.3-3.5-.7-5.9-2.2-1.5-.9-2.9-2.2-4.2-3.8 0 0-.1 0-.1-.1 0 0-.7-.2-1-.6-.2-.3-.3-.6-.3-.8 0-.2 0-.4-.2-.5-.6-.3-1.4-.4-2 0-.5.3-.9.8-1.5 1.4-.6.7-1.4 1.5-2.3 2.2-2.6 2-6.2 4.1-8.2 5.2-1.9 1.1-3.2 2.6-3.9 4.8-.5 1.7-.7 4.1-.7 5.8 0 .9 0 1.9.1 2.9.1 3.2.3 7-.2 9.6-.2 1.5-.6 3-1 4.4-.3 1.3-.6 2.7-.9 4.1 0 .2-.1 1.1-.3 2.1-.1 1.1-.3 2.4-.4 3.3 0 .3 0 .6.3.9.5.6 1.3 1 2.3 1.1.1.3.2.3.4.3"></path><path id="Fill-309" class="st516" d="M102.6 128.4c.1 0 .3 0 .6-.2s.4-.6.6-1.1c.2-.5.4-1 .7-1.4.5-.5 1-.9 1.5-1.3.7-.5 1.4-1 1.9-1.7.1-.1 0-.2-.1-.3-.1-.1-.2 0-.4 0-.4.6-1.1 1.1-1.7 1.5-.6.4-1.1.8-1.6 1.4-.4.5-.6 1-.8 1.5-.2.4-.3.8-.4.9-.2.1-.2.1-.3.1-.1 0-.1-.2-.1-.5.1-.1.1-.3.1-.5.1-.5.1-1 .3-1.3.2-.3.4-.6.5-.9l.6-.9c0-.1 0-.2-.1-.3-.1 0-.2 0-.4.1-.1.3-.3.6-.5.9l-.6.9c-.2.4-.4 1-.4 1.5 0 .2 0 .3-.1.5-.1.6.1.9.2 1 .3.1.4.1.5.1"></path><path id="Fill-311" class="st516" d="M107.9 127.4c.1 0 .2 0 .3-.1.3-.3.3-.9.3-1.6v-1c0-.6.2-1 .3-1.4.1-.2.2-.5.3-.8.1-.5.2-1.1.3-1.7.1-.7.3-1.4.4-1.9.4-1.5.8-2.9 1.3-4.1 0-.1 0-.2-.1-.3-.1 0-.2 0-.3.1-.5 1.3-.9 2.6-1.4 4.2-.1.5-.3 1.2-.4 1.9-.1.6-.2 1.2-.3 1.7 0 .3-.1.5-.2.7-.1.4-.3.8-.3 1.5v1c0 .5.1 1.1-.1 1.2h-.1c-.1 0-.4-.4-.5-1 0-.1-.1-.3-.1-.4-.1-.5-.3-1.2-1-1.3-.1 0-.2.1-.2.2s.1.2.2.2c.4 0 .5.3.6.9 0 .2 0 .3.1.5.2.5.4 1.2.8 1.4h.1z"></path><path id="Fill-313" class="st516" d="M101.6 127.4c.1 0 .2 0 .2-.1s0-.2-.1-.3c-.3-.1-.3-.5 0-1.7l.1-.4c.2-.9.4-1 .9-1.3.3-.2.7-.4 1.3-.9.1-.1.1-.2 0-.3-.1-.1-.2-.1-.3 0-.5.4-.9.7-1.2.9-.6.4-.9.6-1.1 1.6l-.1.4c-.3 1.2-.5 1.9.3 2.1z"></path><path id="Fill-315" class="st516" d="M132.7 95.4c.2 0 .3-.1.3-.2s-.1-.2-.2-.2c-.7 0-1.7-.7-2.7-1.3-.8-.5-1.5-1-2.1-1.2-1.6-.4-3.3-.5-5-.6-1.6-.1-3.2-.2-4.6-.5-.1 0-.2 0-.3.2 0 .1 0 .2.2.3 1.5.3 3.1.4 4.7.5 1.7.1 3.4.2 4.9.6.5.1 1.3.6 2 1.1.9.6 1.9 1.3 2.8 1.3"></path><path id="Fill-317" class="st516" d="M161.8 143.4c.1 0 .2 0 .2-.2 0-.1 0-.2-.2-.3-.6-.1-.7-.4-1-.7-.2-.4-.6-.8-1.3-1.3-.8-.6-1.2-1-1.6-1.6-.4-.6-.9-1.1-1.7-1.8-.9-.7-1.5-1-2.2-1.4-.6-.3-1.2-.7-2.1-1.3-1.5-1.1-3.2-2.5-5.5-4.6-.3-.3-.7-.6-1-.9-1.2-1.1-2.2-1.9-2.7-2.8-1.2-1.9-2-4.4-3.3-8-.3-1-.7-2.1-1.2-3.3-1-2.9-2.3-7.8-3.4-11.7-.6-2-1-3.8-1.3-4.9 0-.1-.2-.2-.3-.1-.1 0-.2.2-.1.3.3 1.1.8 2.8 1.3 4.9 1.1 3.9 2.4 8.9 3.4 11.8.4 1.2.8 2.3 1.1 3.3 1.3 3.7 2.1 6.1 3.3 8.1.6 1 1.6 1.9 2.8 2.9.3.3.7.6 1 .9 2.4 2.1 4 3.6 5.5 4.6.9.7 1.6 1 2.2 1.3.7.3 1.3.7 2.1 1.3.8.7 1.3 1.2 1.7 1.7.5.6.9 1.1 1.7 1.7.7.5 1 .9 1.2 1.2.3.3.5.7 1.4.9"></path><path id="Fill-319" class="st516" d="M164.8 138.4s.1 0 0 0c.2-.1.2-.2.2-.4-.5-1.1-1.6-2-2.7-2.9-.6-.6-1.3-1.1-1.7-1.6l-.5-.6c-1.3-1.4-3.4-3.8-4.4-4.8-.7-.6-1.4-1.2-2.1-1.7-1.2-1-2.4-1.9-3.3-3.3-.8-1.2-.8-2.3-.7-4.1v-3.3c-.1-1.6-.2-3.2-.4-4.8-.2-2.3-.5-4.6-.5-7.3 0-2.3.3-4.7.6-7 0-.1 0-.2-.2-.3-.1 0-.2 0-.3.2-.3 2.3-.6 4.7-.6 7.1 0 2.7.3 5.1.5 7.4.1 1.6.3 3.2.4 4.8.1 1.3 0 2.3 0 3.2 0 1.8-.1 3 .8 4.4 1 1.4 2.1 2.4 3.4 3.4.7.6 1.4 1.1 2.1 1.7 1 .9 3.1 3.4 4.4 4.8l.5.6c.5.6 1.1 1.1 1.8 1.7 1 .9 2.1 1.8 2.6 2.8h.1"></path><path id="Fill-321" class="st516" d="M158.8 127.4c.1 0 .2 0 .2-.1s0-.2-.1-.3c-.5-.2-1.1-.7-1.7-1.3-.7-.6-1.4-1.3-2.4-1.9-1.2-.8-1.8-1-2.5-1.4-.5-.2-1.1-.5-1.9-.9-.1 0-.2 0-.3.1-.1.1 0 .2.1.3.8.5 1.4.7 1.9.9.7.3 1.4.6 2.5 1.4.9.6 1.7 1.3 2.4 1.9.6.5 1.2 1.1 1.8 1.3z"></path><path id="Fill-323" class="st516" d="M151.3 111.4c.1 0 .2-.1.2-.2 0-.9.3-2.2.7-3.8.3-1.4.7-3 .9-4.7.1-.6.2-1.7.2-2.7.1-1.4.2-2.9.4-3.8.7-3.6-.1-6.7-2.7-9.4l-.2-.2-1.2-1.2c-.2-.3-.4-.5-.6-.7-.5-.7-.9-1.2-1.8-1.2-.1 0-.2.1-.2.2s.1.2.2.2c.6 0 .8.3 1.4 1 .2.2.4.5.6.8.4.5.9 1 1.3 1.3l.2.2c2.5 2.6 3.3 5.6 2.6 9-.2.9-.3 2.4-.4 3.9-.1 1.1-.1 2.1-.2 2.7-.3 1.7-.6 3.3-.9 4.7-.4 1.7-.7 2.9-.7 3.9-.1-.1 0 0 .2 0"></path><path id="Fill-325" class="st516" d="M161.8 122.4s.1 0 0 0c.2-.1.2-.2.2-.4-.5-.9-1-1.2-2-1.8l-.3-.1c-.7-.4-1.6-1.4-2.1-2.2-1.3-1.9-3.7-4.4-6.2-6.4-.1-.1-.2 0-.3 0-.1.1 0 .2 0 .3 2.4 2 4.9 4.5 6.1 6.3.4.6 1.4 1.8 2.2 2.3l.3.1c1 .6 1.5.9 1.9 1.7.1.2.2.2.2.2"></path><path id="Fill-327" class="st516" d="M167.8 153.4c.1 0 .2-.1.2-.2s-.1-.2-.2-.2c-.6 0-1.1-2-1.3-2.7 0-.1-.1-.3-.1-.4-.7-2.1-1.9-5.2-4-7.5-.1-.1-.2-.1-.3 0-.1.1-.1.2 0 .3 2 2.2 3.2 5.2 3.9 7.3 0 .1 0 .2.1.3.4 1.6.9 3.1 1.7 3.1"></path><path id="Fill-329" class="st516" d="M167.6 140.2c-.1.1-.2.1-.3.2-.6.4-1.1 1.4-.7 2.9.5 1.8.9 3.4 1 5.4v1.6c-.1 1.5-.1 2.4.5 2.4.4 0 2.7-1.9 3.3-3.1.5-1 .1-2.1-.3-3.1-.2-.5-.4-1-.5-1.6v-.4c-.2-1.4-.5-3.4-1.3-4.3-.3-.4-.5-.5-.7-.5-.4.1-.7.4-1 .5m.4 13.2c-1 0-1-1.4-.9-2.9v-1.6c0-2-.5-3.6-1-5.3-.5-1.7.2-2.9.9-3.4.1-.1.2-.1.3-.2.6-.5 1.3-1 2.2.1.9 1 1.2 3.2 1.4 4.6v.4c.1.5.3 1 .5 1.5.4 1.1.9 2.4.3 3.5-.6 1-2.9 3.3-3.7 3.3"></path><path id="Fill-331" class="st516" d="M169.8 140.4h.1c.1-.1.1-.2 0-.3-.8-1-1.7-1.4-2.6-1.7-.6-.2-1.3-.5-1.9-.9-.1-.1-.2 0-.3 0-.1.1 0 .2 0 .3.7.5 1.4.8 2.1 1 .9.3 1.7.6 2.4 1.5 0 .1.1.1.2.1"></path><path id="Fill-333" class="st516" d="M167.9 153.4c.1 0 .3-.1.2-.2 0-.1-.1-.2-.2-.2s-.2 0-.2-.1c-.3-.3-.2-1.1-.2-1.5v-.1c.1-2-.1-5-.8-7-.2-.7-.3-1.3-.3-1.5.1-.7.8-1.4 1.6-1.7.4-.2.6-.1.7-.1.1.1.2.1.3 0 .1-.1.1-.2 0-.3-.3-.3-.8-.1-1.1 0-.8.3-1.7 1.1-1.8 2.1 0 .4.2 1.2.3 1.7.6 2 .8 4.9.7 6.9v.1c0 .5-.1 1.4.3 1.9.1-.1.2 0 .5 0"></path><path id="Fill-335" class="st516" d="M164.7 136.4s.1 0 .2-.1c1.4-1.7 1.5-3 1.5-4.7 0-1 .1-2.2.4-3.7.7-3.4-.3-4.3-.9-4.5-.9-.3-1.8.8-2.2 1.7-.4.9-.6 2.2-.6 3.7 0 1.1-.1 3.5-1 5 0 .1 0 .2.1.3.1 0 .2 0 .3-.1.9-1.6 1.1-4.1 1.1-5.3 0-1.5.1-2.6.5-3.5.3-.7 1-1.6 1.6-1.5.8.2 1 1.7.6 3.9-.3 1.5-.4 2.7-.4 3.8-.1 1.7-.1 2.9-1.4 4.5-.1.1-.1.2 0 .3.1.2.1.2.2.2"></path><path id="Fill-337" class="st516" d="M159.8 132.4c.1 0 .1-.1.2-.2.2-1.5-.1-3.9-.6-5.6 0-.1-.1-.2-.2-.1-.1 0-.1.2-.1.3.6 1.9.7 4.1.6 5.4-.1.1-.1.2.1.2-.1 0 0 0 0 0"></path><path id="Fill-339" class="st516" d="M165.8 125.4s.1 0 .1-.1c.1-.1.1-.3 0-.4-.4-.6-.8-.8-1.4-1.1-.5-.3-1.2-.6-2.2-1.4-.1-.1-.2-.1-.3.1-.1.1 0 .3 0 .4 1 .8 1.7 1.2 2.3 1.5.5.3.9.5 1.3.9.1.1.2.1.2.1"></path><path id="Fill-341" class="st516" d="M162.2 135.4c.1 0 .1 0 .2-.1.7-1.3 1.1-3 1.1-5 0-1.7 0-3.1.4-4 .2-.3.5-1 .8-1.2.2-.2.4-.3.6-.2.1 0 .2.1.3.3 0 .1.2.1.3.1.1 0 .1-.2.1-.3-.1-.3-.3-.5-.6-.5s-.6 0-1 .3-.7 1.1-.9 1.4c-.4 1-.4 2.4-.4 4.2 0 1.8-.3 3.5-1 4.7-.1.1 0 .2 0 .3h.1"></path><path id="Fill-343" class="st516" d="M161.2 142.4h.1c.6-.5.7-1.2.9-1.9.2-1.1.4-2.2 2.6-2.7.1 0 .2-.1.2-.3 0-.1-.1-.2-.3-.2-2.5.5-2.7 1.8-2.9 3-.1.6-.2 1.2-.7 1.7-.1.1-.1.2 0 .3 0 .1.1.1.1.1"></path><path id="Fill-345" class="st516" d="M158.5 127.4c.2 0 .3-.2.2-.3-.5-1.2 0-1.4 1.1-2.1l.3-.2c1.5-.8 1.8-1.5 1.9-2.2 0-.1-.1-.2-.2-.3-.1 0-.2.1-.3.2-.1.7-.3 1.2-1.6 1.9l-.3.2c-1.2.6-2 1-1.3 2.6 0 .2.1.2.2.2"></path><path id="Fill-347" class="st516" d="M108.1 91.4c.4 0 .7-.3.9-.5 0-.1 0-.2-.1-.3-.1 0-.2 0-.3.1-.1.2-.3.3-.4.3-.1 0-.1 0-.2-.1 0 0 0-.1-.1-.1-.3-.3-.6-.5-1.6-.3-.1 0-.2.1-.2.3 0 .1.1.2.3.2.8-.1.9 0 1.1.2l.1.1c.2.1.3.1.5.1"></path><path id="Fill-349" class="st516" d="M105.3 90.4h.2c.6-.4.6-1.5.6-1.7 0-.1-.2-.2-.3-.2-.2 0-.3.1-.3.2 0 .5-.1 1.2-.3 1.4-.1.1-.1.2 0 .3h.1"></path><path id="Fill-351" class="st516" d="M105.6 86.4h.2c.1-.1.1-.2 0-.3-.3-.2-.4-.5-.3-.7.2-.3.6-.5 1-.5.5 0 1.9.3 1.9.9 0 .1.1.2.3.2.2 0 .3-.1.3-.2-.1-1-1.8-1.3-2.5-1.3s-1.2.3-1.4.8c-.1.2-.2.7.4 1.2 0-.2.1-.1.1-.1"></path><path id="Fill-353" class="st516" d="M107.7 86.4c.1 0 .2-.1.2-.2 0-.2 0-.3-.1-.4-.3-.1-.4-.2-.4-.2-.1-.1-.2-.1-.3 0-.1.1-.1.3 0 .4 0 0 .2.1.6.4"></path><path id="Fill-355" class="st516" d="M99.7 90.4c.1 0 .2-.1.2-.2.1-.8-.2-1.7-.6-2.7-.7-1.7-1.5-3.6-.1-5.8 0-.1 0-.2-.1-.3-.1 0-.2 0-.3.1-1.5 2.4-.6 4.5.1 6.2.4.9.7 1.7.6 2.4 0 .2.1.3.2.3"></path><path id="Fill-357" class="st516" d="M110.8 80.4c.1 0 .2-.1.2-.2s-.1-.2-.2-.3c-.5-.1-1.1-.4-1.7-.9-1.2-.8-2.7-1.7-4.9-1.7-.1 0-.2.1-.2.2s.1.2.2.2c2 0 3.5.9 4.6 1.7.7.5 1.3.9 2 1-.1 0-.1 0 0 0"></path><path id="Fill-359" class="st516" d="M107.3 85.4c.1 0 .1 0 .2-.1s.2-.1.2-.1c.5-.2 1.2-.5 1.3-1.6 0-.2-.1-.3-.3-.3-.2 0-.3.1-.3.3-.1.8-.5.9-1 1.1-.1.1-.3.1-.3.2-.1.1-.2.3-.1.4.1.1.2.1.3.1"></path><path id="Fill-361" d="M107.6 90.3c-.3.1-.5-.1-.6-.3-.1-.2.1-.5.4-.5.3-.1.5.1.6.3 0 .2-.1.5-.4.5" fill-rule="evenodd" clip-rule="evenodd" fill="#2f3541"></path><path id="Fill-363" class="st516" d="M103.9 91.4c.3 0 .6-.1.9-.1.1-.1.2-.2.2-.3s-.1-.2-.3-.2c-.8.2-1.6.1-2.4-.3-.1-.1-.2.1-.3.2 0 .2 0 .3.1.3.7.3 1.2.4 1.8.4"></path><path id="Fill-365" class="st516" d="M102.3 90.4c.2 0 .2-.2.2-.3-.2-.6.3-.8 1.3-1.1 1-.3 2.4-.7 2.2-2.4 0-.1-.1-.2-.3-.2-.1 0-.2.1-.2.3.2 1.2-.6 1.5-1.9 1.9-.9.3-1.9.6-1.6 1.7.1.1.2.1.3.1"></path><path id="Fill-367" class="st516" d="M102.3 92.4c.8 0 1.4-.4 1.7-1.1 0-.1 0-.2-.1-.3-.1 0-.2 0-.2.1-.2.5-.7.8-1.3.8-.7 0-1.6-.5-1.9-1.4 0-.1-.2-.2-.2-.1-.1 0-.2.2-.1.3.2 1.2 1.3 1.7 2.1 1.7"></path><path id="Fill-369" class="st516" d="M99.3 80.4c.1 0 .2-.1.2-.2.3-1.4 1.2-2 3.3-2.3.1 0 .2-.1.2-.3 0-.1-.1-.2-.3-.2-1.9.3-3.2.8-3.7 2.7 0 .2.1.3.3.3z"></path><path id="Fill-371" class="st516" d="M120.7 114.4c.8 0 1.1-1.1 1.3-1.7.1-.4.4-.8.8-1.3s.8-1 1.2-1.7c0-.1 0-.2-.1-.3-.1 0-.2 0-.3.1-.3.6-.7 1.1-1.1 1.6-.4.5-.8.9-.9 1.5-.2 1-.5 1.4-.9 1.3-.1 0-.1-.1 0-.7 0-.3.1-.7.1-1 0-.7 0-.8.3-1.3.1-.2.2-.5.4-.9 0-.1 0-.2-.1-.3-.1 0-.2 0-.3.1l-.4.8c-.3.5-.4.8-.4 1.6 0 .3 0 .7-.1.9-.1.5-.2 1.1.4 1.3h.1"></path><path id="Fill-373" class="st516" d="M122.3 103.4c.1 0 .1 0 0 0 .2-.1.2-.2.2-.4-.1-.2.1-1 .3-1.9.2-.6.3-1.4.3-2.1.1-1.1.3-2.3.8-3.3 0-.1 0-.2-.1-.3-.1 0-.2 0-.3.1-.6 1.1-.7 2.3-.9 3.5-.1.7-.2 1.4-.3 2-.3 1.3-.5 1.9-.3 2.2.2.2.3.2.3.2"></path><path id="Fill-375" class="st516" d="M119.2 117.4c.7 0 1.2-1.2 1.8-2.8.1-.1 0-.2-.1-.3-.1 0-.2 0-.3.1-.3.8-.8 2.4-1.3 2.5 0-.2.2-.9.3-1.3.1-.2.1-.4.2-.6 0-.2.5-1.9.2-2.2-.1 0-.1-.1-.2 0-.4.1-1.3 1.3-1.4 1.6-.4.7-.8.9-.9.9 0-.1.2-.5.3-.7.1-.2.3-.5.4-.8.4-.8.5-1.2.9-1.7.1-.2.5-.6.9-1 .5-.6 1.1-1.3 1.3-1.5.9-1.4 1.5-3.1 1.9-4.6.1-.2.1-.6.3-1.2l.3-1c.1-.1 0-.2-.2-.3-.1 0-.2 0-.3.2l-.3 1c-.1.6-.2 1-.3 1.2-.4 1.5-1 3.2-1.9 4.5-.2.3-.7.9-1.3 1.5-.4.4-.7.8-.9 1.1-.4.5-.6.9-1 1.8-.1.3-.2.6-.4.8-.3.5-.5.8-.3 1.1 0 .1.1.2.3.2.3.1 1-.2 1.5-1.1.3-.5.6-.9.9-1.2-.1.4-.1.9-.3 1.4-.1.2-.1.4-.2.6-.3.9-.5 1.4-.3 1.7.1 0 .2.1.4.1"></path><path id="Fill-377" class="st516" d="M120.7 117.4c.6 0 .7-.7.9-1.8v-.1c.1-.2.1-.4.1-.6 0-.3.1-.7.2-1 0 .3.1.6.1 1 0 .2.1.4.1.6.1.4.1.8.4.9.1 0 .2.1.4 0 .5-.1.4-1.2.4-1.8 0-.7-.1-1 .1-1.8.1-.3.1-.5.2-.7.1-.3.1-.5.3-.9.2-.5.2-1 .3-1.6.1-.5.1-1 .2-1.4.1-.3 1.1-2.2 2.2-4.2l.1-.2c.1-.1 0-.2-.1-.3-.1 0-.2 0-.3.1l-.1.2c-1.2 2.2-2.1 3.9-2.3 4.3-.2.5-.2 1-.3 1.5-.1.5-.1 1-.3 1.4-.2.4-.2.7-.3.9-.1.2-.1.4-.2.7-.3.9-.2 1.3-.2 2 .1.8 0 1.2-.1 1.3-.1 0-.1-.4-.1-.6-.1-.2-.1-.4-.1-.7-.1-.4-.1-.8-.1-1 0-.3 0-.4-.1-.5h-.2c-.6.1-.7.9-.8 1.7 0 .2 0 .4-.1.6v.1c-.1.7-.2 1.5-.4 1.5h-.1c-.1 0 0-.4 0-.6 0-.1.1-.2.1-.4.1-.7.1-1.1 0-1.3 0-.1-.2-.2-.3-.1-.1 0-.2.2-.1.3v1.5c-.1.4-.1.7.1.9 0 0 .2.1.4.1"></path><path id="Fill-379" class="st516" d="M126.3 105.4c.5 0 .8-.6 1.2-1.5.3-.8.7-1.8 1.1-2.7.3-.7.5-1.4.6-1.6.8-1.9.8-3.1.7-4.9 0-.1-.1-.2-.2-.2s-.2.1-.2.2c.1 1.8.1 2.8-.7 4.7-.1.3-.4 1-.6 1.7-.4.9-.8 2-1.1 2.7-.5 1.1-.6 1.2-.8 1.2-.1 0-.2 0-.3.1 0 .1 0 .2.1.3h.2"></path><path id="Fill-381" class="st516" d="M123.8 95.4c.1 0 .1 0 0 0 .2-.1.2-.2.2-.4-.1-.3-.3-1.2-.6-2.4 0-.1-.1-.2-.2-.2s-.2.1-.2.3c.1.6.5 2 .6 2.5.1.2.2.2.2.2"></path><path id="Fill-383" class="st516" d="M133.1 98.4c.1 0 .1 0 0 0 .2-.1.2-.2.2-.4-.1-.3-.2-.6-.2-1 0-.5-.1-1-.5-1.4-.4-.4 1.1-2.8 2.6-4.6 3.9-4.8 8.2-7.1 12.7-7.1.1 0 .2-.1.2-.2s-.1-.2-.2-.2c-4.6 0-9 2.5-13 7.3-.4.4-3.6 4.3-2.6 5.3.3.3.4.7.4 1.1 0 .3.1.7.3 1.1 0 .1 0 .1.1.1"></path><path id="Fill-385" class="st516" d="M132.2 95.4c.1 0 .2-.1.2-.3-.2-1.5.8-4.5 1.4-6.1 1.7-4.3 3.6-7.2 6.2-9.6l.2-.2c.8-.7 3.1-2.8 3.9-2.4.3.1.7.9-.1 3.7 0 .1 0 .2.2.3.1 0 .2 0 .3-.2.7-2.4.6-3.8-.1-4.2-1-.5-2.7.9-4.5 2.4l-.2.2c-2.7 2.4-4.6 5.4-6.3 9.7-.5 1.2-1.6 4.6-1.4 6.3 0 .3.1.4.2.4"></path><path id="Fill-387" class="st516" d="M126.7 104.4h.1c.1 0 .1-.2.1-.3-.9-1.3-3.5-2-4.8-1.5-.1 0-.2.2-.1.3 0 .1.2.2.3.1 1-.4 3.4.1 4.2 1.3.1.1.2.1.2.1"></path><path id="Fill-389" class="st516" d="M128.3 67.4c3.1 0 5.5-1.3 6.7-3.7.9-1.6 1-4.2 1.1-7v-1.3c.2-4.2.2-12.4.2-17 0-.1 0-.2-.1-.3-.1-.2-.3-.5-.4-.9-.1-.6-.1-1.5.2-2 .1-.2.4-.3.6-.3.3 0 .6 0 .7.2.3.3.4 1.1.2 2 0 .3-.2.5-.3.7-.1.1-.2.3-.2.5 0 .1 0 .2.1.3.1 0 .2 0 .3-.1 0-.1.1-.2.2-.4s.3-.5.3-.8c.1-.6.2-1.8-.3-2.4-.3-.3-.6-.4-1.1-.4-.4 0-.7.2-.9.5-.5.7-.4 2-.3 2.4.1.5.3.8.4 1v.1c0 4.5 0 12.7-.2 16.9v1.3c-.1 2.7-.2 5.3-1 6.8-1.6 2.8-4.3 3.4-6.3 3.4-.1 0-.2.1-.2.2 0 .2.2.3.3.3"></path><path id="Fill-391" class="st516" d="M125.4 69.4c.1 0 .2 0 .2-.2 0-.1 0-.2-.2-.3-1.5-.4-2.7-1-3.5-1.7-1.8-1.7-2-7.9-.4-12.8.3 1.1.8 3.3 1.2 4.7-.2-.1-.5-.3-.8-.1-.4.2-.5.7-.6 1.6 0 1.8.1 4.9 1.6 6.1.8.6 2.3 1.2 3.8 1.5.1 0 .2 0 .3-.2 0-.1 0-.2-.2-.3-1.5-.2-2.9-.8-3.6-1.4-.9-.8-1.4-2.8-1.4-5.7 0-1 .2-1.2.3-1.2.1 0 .4.2.6.3.1.1.3.2.5.1 0 0 .1-.1.1-.3-.2-1-.6-2.5-.8-3.7-.6-2.4-.7-2.4-.8-2.5-.1 0-.2 0-.2.1-1.7 4.7-1.9 12 .3 14 .7.9 2 1.6 3.6 2z"></path><path id="Fill-393" class="st516" d="M129.3 69.4c2.4-.2 4.6-1.1 5.9-2.3 2.4-2.3 2.5-6.4 2.6-12v-2.6c.2-8.9.1-13.8.1-13.8 0-.1-.1-.2-.2-.2s-.2.1-.2.2c0 0 .1 4.9-.1 13.8v2.6c-.1 5.5-.1 9.5-2.5 11.7-1.2 1.2-3.3 2-5.6 2.2-.1 0-.2.1-.2.2-.1.1.1.2.2.2"></path><path id="Fill-395" class="st516" d="M137.4 37.5c0 .2 0 .3.1.4 0-.1.1-.2.1-.4s0-.3-.1-.4c0 0-.1.2-.1.4m-.4-.1c0-.6.2-1 .5-1s.5.4.5 1-.2 1-.5 1-.5-.4-.5-1"></path><g id="Group-399" transform="translate(135)"><defs><filter id="Adobe_OpacityMaskFilter_1_" x="2.1" y="1" width=".6" height="35.4"><feColorMatrix values="1 0 0 0 0 0 1 0 0 0 0 0 1 0 0 0 0 0 1 0"></feColorMatrix></filter></defs><mask maskUnits="userSpaceOnUse" x="2.1" y="1" width=".6" height="35.4" id="mask-5_2_"><g filter="url(#Adobe_OpacityMaskFilter_1_)"><path id="path-4_2_" class="st501" d="M1.9 1h1v35.4h-1z"></path></g></mask><path id="Fill-397" d="M2.4 36.4c.2 0 .3-.1.3-.2v-35c0-.1-.1-.2-.3-.2-.2 0-.3.1-.3.2v35c0 .1.2.2.3.2" mask="url(#mask-5_2_)" fill-rule="evenodd" clip-rule="evenodd" fill="#332e3c"></path></g><path id="Fill-400" class="st516" d="M133.8 79.4c.1 0 .1 0 .2-.1s0-.2 0-.3c-2.8-2.1-4.4-4.4-5.5-7.4 0-.1-.2-.2-.3-.1-.1 0-.2.2-.1.3 1 3 2.8 5.4 5.7 7.6-.1 0-.1 0 0 0"></path><path id="Fill-402" class="st516" d="M122.2 76.4s.1 0 .2-.1c1.9-2.2 3.6-5.5 3.6-5.6 0-.1 0-.2-.1-.3-.1 0-.2 0-.3.1 0 0-1.6 3.2-3.5 5.5-.1.1-.1.2 0 .3 0 .1.1.1.1.1"></path><path id="Fill-404" class="st516" d="M101.7 69.5c.4.1.8.2 1.1.4.2 0 .3.1.5.2h1c.3 0 .9 0 1.1-.1-.2-.2-.9-.4-3.7-.5m-2.7.1c-.1.1-.1.2-.1.4v.1c.1.1.6.3 1.9.1h.1c.4 0 .8 0 1.2-.1-1.1-.3-2.1-.5-3.1-.5m1.6-.7c-.1 0-.3 0-.6.1 2.7 0 5.6 0 5.8.8v.3c.5 0 1 .1 1.6.4 0 0 .1 0 .1-.1 0 0 .1-.1 0-.2 0-.2-.2-.4-.7-.6-1.5-.6-3.1-.8-4.7-.8-.5.1-1 .1-1.5.1m-.3 2.1h-1c-.3 0-.5 0-.8.1.1 0 .2 0 .3.1h1c.1-.2.3-.2.5-.2m5.2-.4h-1.4c.4.1.8.2 1.1.3.4.1.6.2.8.3.3-.1.6-.2.9-.4-.4-.1-.9-.2-1.4-.2m-.4.7h-.2c0 .1.1.1.1.2.1 0 .3 0 .4-.1-.1 0-.2 0-.3-.1m1.5.3l.1.1v.1c.4-.1.6-.2.8-.5v-.1s0-.1-.1-.1c-.2.2-.5.3-.8.5m-2.3.1s.1-.1 0 0c.1-.1.2-.1.2-.1-.1 0-.2-.1-.5-.2-.1.1-.4.1-.7.1l-.6-.1c-.9-.1-.9-.1-1-.1h-.3-.2c.2 0 .5.1.7.2.2.1.4.1.5.2 0 0 .3.1.5.3h.3c.3 0 .4 0 .6-.1.3-.1.4-.2.5-.2m-7.2-.6v-.3c.1-.1.3-.2.5-.2h.1c.3 0 .6-.1.9-.1-.1-.1-.2-.3-.2-.4v-.3c-.3 0-.6.1-.9.2-.9.2-2.2.7-2.1 1.5 0 .2.5.4 1.3.5.2-.3.5-.5.9-.6-.3-.1-.4-.2-.5-.3m4.8.7c-.5-.2-1-.3-1.6-.3h-.1s.1.1.2.1c.5.2 1.1.3 1.6.4h.3c-.1-.1-.3-.1-.4-.2m3.5.2h.5c.1 0 .3-.1.4-.1 0 0-.1-.1-.2-.1-.3.1-.6.2-1 .3-.1 0-.2 0-.3.1h.2c.1-.1.2-.1.4-.2m-5.1.2c-.3-.1-.5-.2-.9-.3l-.4-.1c-.1 0-.2-.1-.4-.1h-.4c-.4.1-.8.1-1.1.4 1.1.1 2.2.1 3.2.1.1-.1 0-.1 0 0m3.7.5h-.2v.1h.3c.1 0 .2-.1.3-.1h-.4m-3.8.2h-.3.8v-.1c-.2.1-.3.1-.5.1m1.3 2.5c-.1-.1-.2-.4-.1-.6 0 0 0-.1.1-.1-.2 0-.5-.1-.5-.4 0-.1 0-.2.1-.2.1-.1.2 0 .4 0h.2c-.2 0-.4-.1-.5-.1h-.2c-.3 0-.7 0-.8-.4v-.1c-.7 0-1.4-.1-2-.2 0 0-1.1-.3-1.5-.7-1-.2-1.7-.4-1.8-.9-.1-.6.3-1.5 2.4-2.1.4-.1.9-.2 1.3-.2 0 0 0-.1.1-.1.5-.5 1.4-.6 1.7-.7 2-.3 4.3 0 6.4.7.5.2.9.5 1 .9 0 .3 0 .5-.2.7.1.1.1.2.2.3 0 .1 0 .3-.1.6-.4.5-1.1.7-1.9.8H104.7c.1.1.1.2 0 .4 0 .1-.1.2-.2.2 0 .1-.1.1-.2.2s-.5.2-2.3.2c.2.1.5.2.6.3.1 0 .1.2.1.3 0 0 0 .2-.5.2 0 .1.1.2.1.4 0 .1 0 .2-.1.2h-.2c0 .1 0 .2-.1.2h-.1c-.1.2-.2.2-.3.2"></path></g></svg> 