<?xml version="1.0" encoding="utf-8"?>
<!-- Generator: Adobe Illustrator 25.4.1, SVG Export Plug-In . SVG Version: 6.00 Build 0)  -->
<svg version="1.1" id="Layer_1" xmlns="http://www.w3.org/2000/svg" xmlns:xlink="http://www.w3.org/1999/xlink" x="0px" y="0px"
	 viewBox="0 0 624.1 140.6" style="enable-background:new 0 0 624.1 140.6;" xml:space="preserve">
<style type="text/css">
	.st0{fill:#0A0B09;}
</style>
<path class="st0" d="M606.3,104.2c-9.8,0-17.8,8-17.8,17.9s8,17.9,17.8,17.9c9.8,0,17.8-8,17.8-17.9
	C624,112.2,616.1,104.2,606.3,104.2z M547.8,90.3c0-13.6-11.5-24.5-25.6-24.5c-14.1,0-25.7,11-25.7,24.5c0,13.6,11.5,24.5,25.7,24.5
	C536.4,114.8,547.8,103.9,547.8,90.3z M547.9,42.6h28.3V138h-28.3v-6.1c-8,5.5-17.7,8.7-28.1,8.7c-27.6,0-49.9-22.5-49.9-50.3
	S492.2,40,519.8,40c10.4,0,20.1,3.2,28.1,8.7V42.6z M321.4,55V42.6h-29V138h29V93.5c0-15,16.1-23.1,27.3-23.1h0.3V42.6
	C337.6,42.6,327.1,47.6,321.4,55L321.4,55z M249.2,90.3c0-13.6-11.5-24.5-25.6-24.5c-14.2,0-25.6,11-25.6,24.5
	c0,13.6,11.5,24.5,25.6,24.5C237.7,114.9,249.2,103.9,249.2,90.3z M249.3,42.6h28.3V138h-28.3v-6.1c-8,5.5-17.6,8.7-28.1,8.7
	c-27.6,0-49.9-22.5-49.9-50.3S193.6,40,221.2,40c10.4,0,20.1,3.2,28.1,8.7V42.6z M419.7,40c-11.3,0-22,3.5-29.2,13.3V42.6h-28.2V138
	h28.5V87.9c0-14.5,9.6-21.6,21.2-21.6c12.4,0,19.6,7.5,19.6,21.4V138h28.3V77.3C460,55.1,442.5,40,419.7,40L419.7,40z M130.1,138
	h29.6V0.1h-29.6V138z M0,138h31.4V0H0L0,138L0,138z M109.7,0.1c0,29.9-11.5,57.7-32.1,78.3l43.4,59.7H82.2L35.1,73.2L47.3,64
	C67.5,48.8,79,25.4,79,0.1H109.7z"/>
</svg>
