<?xml version="1.0" encoding="utf-8"?>
<!-- Generator: Adobe Illustrator 25.4.1, SVG Export Plug-In . SVG Version: 6.00 Build 0)  -->
<svg version="1.1" id="Layer_1" xmlns="http://www.w3.org/2000/svg" xmlns:xlink="http://www.w3.org/1999/xlink" x="0px" y="0px"
	 viewBox="0 0 591.9 164.7" style="enable-background:new 0 0 591.9 164.7;" xml:space="preserve">
<style type="text/css">
	.st0{fill-rule:evenodd;clip-rule:evenodd;fill:#2AB8C3;}
	.st1{fill-rule:evenodd;clip-rule:evenodd;fill:#FFFFFF;}
</style>
<g>
	<g id="propensio_web">
		<g id="propensio_home">
			<g id="propensio_logo_rev">
				<polygon id="Fill-1" class="st0" points="52.8,73.1 36.9,64 36.9,82.4 36.9,100.8 52.8,91.6 68.8,82.4 				"/>
				<polygon id="Fill-2" class="st1" points="0,164.7 18.5,154 18.5,132.7 18.5,113.3 18.5,32 105.7,82.4 36.9,122.1 36.9,143.4 
					142.6,82.4 0,0 				"/>
				<path id="Fill-3" class="st1" d="M194.7,77.6c7.4,0,11.1-3.1,11.1-9.4c0.3-2.8-0.8-5.5-2.9-7.3c-2.4-1.5-5.3-2.2-8.1-2.1h-10.1
					v18.8H194.7z M171.5,47.9h25.3c6-0.3,11.8,1.6,16.4,5.4c4.2,3.8,6.4,9.3,6.1,15c0.4,5.7-1.9,11.2-6.1,15.1
					c-4.6,3.7-10.5,5.6-16.4,5.3h-12.2v19.6h-13.1V47.9z"/>
				<path id="Fill-5" class="st1" d="M225.2,66.7h12.6v6c1.9-2.2,4.3-3.7,7-4.6c3.3-1.2,6.7-1.7,10.2-1.6v10
					c-3.6-0.1-7.1,0.5-10.5,1.8c-2.8,0.9-5.2,2.9-6.5,5.6v24.4h-13.1L225.2,66.7z"/>
				<path id="Fill-7" class="st1" d="M290.7,96c2.1-2.3,3.2-5.4,3.1-8.6c0.2-3.2-0.9-6.3-3.1-8.6c-2.3-2.1-5.3-3.2-8.4-2.9
					c-3.1-0.2-6.2,1-8.4,3.1c-4.3,4.9-4.3,12.3,0,17.2c4.7,4.4,12,4.4,16.8,0 M269.1,106.9c-3.6-1.7-6.6-4.3-8.7-7.7
					c-4.1-7.2-4.1-16,0-23.1c2.1-3.4,5.1-6.1,8.7-7.7c8.3-3.7,17.9-3.7,26.2,0c3.6,1.6,6.6,4.2,8.8,7.4c4,7.2,4,15.9,0,23.1
					c-2.1,3.3-5.1,6-8.7,7.7c-4.1,1.9-8.6,2.8-13.1,2.7c-4.5,0.1-9-0.8-13.1-2.7"/>
				<path id="Fill-9" class="st1" d="M404.4,83.6c0-2.5-1.1-4.9-3.1-6.5c-2.3-1.6-5.1-2.4-7.9-2.3c-2.8-0.2-5.6,0.7-7.8,2.4
					c-1.9,1.6-3.1,4-3.1,6.5L404.4,83.6z M377,103.7c-4.5-4.1-6.9-10-6.5-16.1c-0.3-6,1.9-11.9,6.1-16.2c4.8-4.2,11.1-6.4,17.4-6
					c4.4-0.1,8.7,0.9,12.6,2.8c3.1,1.8,5.7,4.4,7.3,7.6c1.8,3.4,2.7,7.2,2.7,11v5.3h-33.9c0.9,5.2,5.8,7.9,14.9,7.9
					c2.7,0,5.5-0.3,8.2-0.7c2.5-0.4,5-1,7.3-1.9v9.2c-2.5,1-5.1,1.7-7.8,2c-3.1,0.5-6.3,0.8-9.5,0.8
					C389,109.8,382.3,107.8,377,103.7z"/>
				<path id="Fill-11" class="st1" d="M424,66.7h12.6v5.1c1.8-2.1,4-3.7,6.5-4.8c2.6-1.1,5.4-1.6,8.3-1.6c4.7-0.3,9.3,1.3,12.6,4.6
					c2.9,3.4,4.4,7.7,4.2,12.2v26.2h-13.1V83.6c0-5.3-2.5-8-7.4-8c-2.2,0-4.3,0.5-6.2,1.6c-2,1.1-3.6,2.8-4.8,4.7v26.2h-13.1
					L424,66.7z"/>
				<path id="Fill-13" class="st1" d="M484.1,108.6c-2.9-0.4-5.7-1.4-8.3-2.8V95.5c2.6,1.5,5.4,2.6,8.3,3.3c2.9,0.8,5.9,1.3,9,1.3
					c1.7,0.1,3.5-0.1,5.2-0.6c1-0.3,1.7-1.2,1.6-2.2c-0.1-0.7-0.4-1.3-0.9-1.8c-0.9-0.6-1.9-1.1-2.9-1.4l-6.5-2
					c-2.8-0.8-5.6-1.8-8.3-3.1c-1.8-0.9-3.4-2.3-4.5-4c-1.1-2-1.6-4.3-1.5-6.5c-0.2-3.9,1.8-7.7,5.2-9.7c4.2-2.4,9-3.5,13.9-3.3
					c3,0,6,0.3,9,0.9c2.5,0.4,4.9,1.2,7.1,2.4v9.9c-2-1.3-4.2-2.2-6.5-2.7c-2.5-0.7-5.2-1-7.8-1c-1.9-0.1-3.7,0.2-5.5,0.7
					c-1.2,0.3-2,1.3-2,2.6c0,1.2,0.8,2.2,1.9,2.6c2.3,0.9,4.6,1.6,6.9,2.2l1.7,0.4c2.9,0.7,5.8,1.8,8.4,3.3c1.8,0.9,3.3,2.4,4.3,4.2
					c0.9,1.9,1.4,4,1.3,6.2c0.1,3.7-1.8,7.2-5,9.1c-4.3,2.5-9.2,3.7-14.2,3.4C490.7,109.7,487.3,109.3,484.1,108.6"/>
				<path id="Fill-15" class="st1" d="M521.2,108.2h13.1V66.7h-13.1V108.2z M522.6,58.3c-1.4-1.3-2.1-3.1-2.1-5s0.7-3.7,2.1-5
					c2.9-2.7,7.3-2.7,10.2,0c1.4,1.3,2.1,3.1,2,5c0.1,1.9-0.7,3.7-2,5C530,61,525.5,61,522.6,58.3z"/>
				<path id="Fill-17" class="st1" d="M575.4,96c2.2-2.3,3.3-5.4,3.1-8.6c0.2-3.2-0.9-6.3-3.1-8.6c-2.3-2.1-5.3-3.2-8.4-2.9
					c-3.1-0.2-6.2,1-8.5,3.1c-2.1,2.4-3.2,5.5-3.1,8.6c-0.2,3.2,1,6.3,3.1,8.6c2.2,2.2,5.3,3.4,8.4,3.3c3.1,0.1,6.1-1,8.3-3.3
					 M553.9,106.9c-3.6-1.7-6.6-4.3-8.7-7.7c-2.1-3.5-3.2-7.6-3.1-11.7c-0.1-4,1-8,3.1-11.5c2.1-3.4,5.1-6.1,8.7-7.7
					c8.3-3.8,17.9-3.8,26.2,0c3.6,1.6,6.6,4.1,8.7,7.4c4.1,7.2,4.1,16,0,23.1c-2.1,3.3-5.1,6-8.6,7.7c-8.4,3.6-17.8,3.6-26.2,0"/>
				<path id="Fill-18" class="st1" d="M347.9,96c-2.3,2.2-5.4,3.4-8.6,3.3c-2.6,0-5.1-0.7-7.3-2.2c-2.1-1.4-3.7-3.4-4.6-5.8v-7.9
					c0.9-2.3,2.5-4.3,4.6-5.7c2.2-1.4,4.7-2,7.3-2c3.2-0.1,6.3,1,8.6,3.2c2.3,2.2,3.5,5.3,3.3,8.5C351.3,90.6,350.1,93.8,347.9,96
					 M361.8,75.8c-1.8-3.2-4.5-5.9-7.7-7.7c-3.5-1.9-7.4-2.8-11.4-2.8c-5.7-0.2-11.3,2-15.5,5.9v-4.6h-12.6v66.8l13.1-7.5v-21.5
					c1.9,1.7,4.1,2.9,6.5,3.7c2.7,0.8,5.5,1.3,8.4,1.2c4,0.1,7.9-0.9,11.4-2.8c3.3-1.8,6-4.6,7.7-7.9c3.8-7.2,3.8-15.8,0-23"/>
				<polygon id="Fill-19" class="st0" points="375.1,127.7 392.4,127.7 392.4,131.5 379.8,131.5 379.8,138.7 389.1,138.7 
					389.1,142.2 379.8,142.2 379.8,153.2 375.1,153.2 				"/>
				<polygon id="Fill-20" class="st0" points="406.3,153.2 411,153.2 411,127.7 406.3,127.7 				"/>
				<polygon id="Fill-21" class="st0" points="426.3,127.7 430.7,127.7 442.6,145.5 442.6,127.7 447.3,127.7 447.3,153.2 
					442.9,153.2 431,135.3 431,153.2 426.3,153.2 				"/>
				<path id="Fill-22" class="st0" d="M478.5,143.5l-4.1-10.9l-4.1,10.9H478.5z M472,127.6h4.5l10.2,25.6H482l-2.4-5.9h-10.9
					l-2.3,5.9h-4.7L472,127.6z"/>
				<polygon id="Fill-23" class="st0" points="501.5,127.7 505.9,127.7 517.9,145.5 517.9,127.7 522.5,127.7 522.5,153.2 
					518.1,153.2 506.2,135.3 506.2,153.2 501.5,153.2 				"/>
				<path id="Fill-24" class="st0" d="M543.7,152.1c-2-1-3.7-2.7-4.8-4.6c-1.2-2.1-1.8-4.6-1.7-7c0-2.5,0.5-4.9,1.7-7.1
					c1.2-2,2.8-3.6,4.8-4.6c2.2-1.1,4.7-1.7,7.1-1.6c3.1-0.1,6.2,0.8,8.8,2.6v4.4c-2.4-1.9-5.4-2.8-8.4-2.7c-1.7,0-3.4,0.3-4.9,1.1
					c-1.4,0.7-2.6,1.8-3.3,3.1c-0.8,1.5-1.2,3.2-1.2,4.8c0,1.7,0.4,3.4,1.2,4.8c0.8,1.3,1.9,2.4,3.3,3.1c1.5,0.8,3.2,1.1,4.9,1.1
					c1.6,0,3.3-0.2,4.8-0.7c1.4-0.5,2.7-1.2,3.9-2.2v4.5c-2.6,1.9-5.9,2.8-9.1,2.6C548.4,153.8,545.9,153.2,543.7,152.1"/>
				<polygon id="Fill-25" class="st0" points="574.6,127.7 591.9,127.7 591.9,131.5 579.3,131.5 579.3,138.5 588.6,138.5 
					588.6,142.4 579.3,142.4 579.3,149.4 591.9,149.4 591.9,153.2 574.6,153.2 				"/>
			</g>
		</g>
	</g>
</g>
</svg>
