<?xml version="1.0" encoding="utf-8"?>
<!-- Generator: Adobe Illustrator 25.4.1, SVG Export Plug-In . SVG Version: 6.00 Build 0)  -->
<svg version="1.1" id="Layer_1" xmlns="http://www.w3.org/2000/svg" xmlns:xlink="http://www.w3.org/1999/xlink" x="0px" y="0px"
	 viewBox="0 0 750 471" style="enable-background:new 0 0 750 471;" xml:space="preserve">
<style type="text/css">
	.st0{fill:#383C59;}
	.st1{fill:#6EC5D1;}
	.st2{fill:#FFFFFF;}
</style>
<path class="st0" d="M30,0h690c16.6,0,30,11.9,30,26.7v417.6c0,14.7-13.4,26.7-30,26.7H30c-16.6,0-30-11.9-30-26.7V26.7
	C0,11.9,13.4,0,30,0z"/>
<path class="st1" d="M354.5,156l-17.8-10.3v41.1l17.8-10.2l17.8-10.3L354.5,156z"/>
<path class="st2" d="M316.1,222.4V110.1l97.3,56.2l-76.8,44.3v21.6c0,0.9,1,1.5,1.8,1.1l114.3-66c0.8-0.4,0.8-1.6,0-2L297.3,75.5
	c-0.8-0.4-1.8,0.1-1.8,1.1V256c0,0.9,1,1.5,1.8,1.1l18.8-10.9L316.1,222.4L316.1,222.4z M167,267.6h25.1c6.8,0,12.2,1.8,16.2,5.3
	c4,3.6,6.1,8.5,6.1,14.8c0,6.5-2,11.5-6.1,15c-4,3.5-9.4,5.2-16.3,5.2h-12.1v19.4h-13L167,267.6L167,267.6z M190.2,297.1
	c7.3,0,11-3.1,11-9.3c0-3.5-1-5.9-2.9-7.2c-2-1.3-4.6-2-8.1-2H180v18.6L190.2,297.1z M220.3,286.3h12.5v5.9c1.7-2,3.9-3.5,6.9-4.5
	c2.9-1.1,6.3-1.6,10.1-1.6v9.8c-3.9,0-7.4,0.6-10.3,1.8c-3,1.2-5.1,3-6.1,5.4v24.1h-12.9L220.3,286.3L220.3,286.3z M263.8,325.9
	c-3.7-1.8-6.6-4.4-8.6-7.6c-2-3.3-3-7.1-3-11.5c0-4.3,1-8,3-11.3s4.9-5.9,8.6-7.7c3.7-1.8,8.1-2.8,13-2.8s9.2,0.9,12.9,2.8
	c3.7,1.9,6.6,4.4,8.6,7.7s3,7.1,3,11.3c0,4.4-1,8.2-3,11.5s-4.9,5.8-8.6,7.6c-3.7,1.8-8,2.7-13,2.7
	C271.9,328.5,267.6,327.6,263.8,325.9z M285.2,315.3c2-2.1,3-5,3-8.5c0-3.7-1-6.5-3-8.6c-2-2-4.8-3.1-8.3-3.1
	c-3.6,0-6.3,1.1-8.4,3.1s-3,4.9-3,8.6c0,3.6,1.1,6.3,3.1,8.5c2,2.1,4.8,3.2,8.3,3.2S283.2,317.4,285.2,315.3z M370.5,322.9
	c-4.5-3.7-6.8-9.1-6.8-15.9s2-12.1,6.1-16c4-3.9,9.7-5.9,17.2-5.9c4.9,0,9.1,0.9,12.5,2.8s6,4.4,7.8,7.6s2.7,6.9,2.7,10.9v5.2h-33.8
	c0.9,5.3,5.8,7.8,14.7,7.8c2.6,0,5.3-0.3,8.1-0.7c2.8-0.4,5.2-1.1,7.2-1.9v9.1c-2,0.9-4.5,1.5-7.7,2c-3.1,0.5-6.2,0.8-9.4,0.8
	C381.1,328.5,375,326.7,370.5,322.9L370.5,322.9z M397.6,303.1c-0.2-2.8-1.2-4.8-3-6.3c-1.9-1.5-4.5-2.2-7.8-2.2
	c-3.2,0-5.8,0.8-7.7,2.3c-1.9,1.5-2.9,3.7-3,6.3L397.6,303.1L397.6,303.1z M417,286.3h12.5v5.1c1.9-2.1,4.1-3.7,6.7-4.7
	s5.3-1.6,8.2-1.6c5.6,0,9.7,1.5,12.5,4.5s4.1,7,4.1,12.1v25.7h-12.8v-24.2c0-5.3-2.4-7.9-7.3-7.9c-2.1,0-4.2,0.5-6.1,1.6
	s-3.5,2.6-4.8,4.6v25.9h-13L417,286.3L417,286.3z M476.5,327.6c-3.5-0.6-6.2-1.6-8.2-2.8v-10.1c2.3,1.3,5,2.5,8.2,3.3
	c3.2,0.9,6.1,1.2,8.9,1.2c2.3,0,4-0.2,5.1-0.6s1.6-1.2,1.6-2.2c0-0.9-0.4-1.5-1-2s-1.6-1.1-2.9-1.4c-1.2-0.4-3.4-1.1-6.3-2
	c-3.5-1.1-6.1-2-8.2-3.1c-2-1.1-3.5-2.4-4.5-4s-1.5-3.7-1.5-6.1c0-4.3,1.7-7.5,5.1-9.6s8-3.2,13.8-3.2c2.9,0,5.8,0.3,8.8,0.9
	s5.4,1.3,7,2.3v9.8c-1.7-1.1-3.8-2-6.4-2.7c-2.7-0.7-5.3-1-7.8-1c-2.3,0-4.1,0.3-5.4,0.7c-1.2,0.4-2,1.3-2,2.6
	c0,1.1,0.6,1.9,1.9,2.5c1.2,0.5,3.5,1.2,6.9,2.1l1.7,0.4c3.6,1,6.4,2,8.4,3.2s3.4,2.6,4.2,4.2c0.8,1.6,1.2,3.7,1.2,6.1
	c0,3.7-1.6,6.8-4.9,9s-7.9,3.4-14.1,3.4C483.2,328.5,479.9,328.3,476.5,327.6L476.5,327.6z M514.6,278c-1.3-1.3-2-2.9-2-5
	c0-2,0.7-3.6,2-4.9s3-2,5.1-2c2,0,3.7,0.7,5.1,2c1.3,1.3,2,2.9,2,4.9s-0.7,3.7-2,5s-3,2-5.1,2S515.9,279.4,514.6,278z M513.2,286.3
	h13v41h-13V286.3z M545.5,325.9c-3.7-1.8-6.6-4.4-8.6-7.6c-2-3.3-3-7.1-3-11.5c0-4.3,1-8,3-11.3s4.9-5.9,8.6-7.7
	c3.7-1.8,8.1-2.8,13-2.8s9.2,0.9,12.9,2.8c3.7,1.8,6.6,4.4,8.6,7.7s3,7.1,3,11.3c0,4.4-1,8.2-3,11.5s-4.9,5.8-8.6,7.6
	c-3.7,1.8-8,2.7-13,2.7C553.6,328.5,549.2,327.6,545.5,325.9z M566.8,315.3c2-2.1,3-5,3-8.5c0-3.7-1-6.5-3-8.6c-2-2-4.8-3.1-8.3-3.1
	c-3.6,0-6.3,1.1-8.4,3.1s-3,4.9-3,8.6c0,3.6,1.1,6.3,3.1,8.5c2,2.1,4.8,3.2,8.3,3.2S564.7,317.4,566.8,315.3L566.8,315.3z
	 M355.5,295.3c-1.8-3.3-4.4-5.8-7.7-7.6c-3.3-1.8-7-2.7-11.3-2.7c-6.1,0-11.2,2-15.3,5.8v-4.5h-12.5v66.1l12.9-7.5v-21.4
	c1.8,1.6,4,2.9,6.7,3.7c2.6,0.9,5.3,1.2,8.3,1.2c4.3,0,8-0.9,11.3-2.8s5.8-4.5,7.7-7.8c1.8-3.3,2.8-7.1,2.8-11.3
	C358.3,302.4,357.3,298.6,355.5,295.3L355.5,295.3z M341.8,315.3c-2.2,2.1-5,3.2-8.5,3.2c-2.7,0-5.1-0.7-7.2-2.1s-3.7-3.3-4.5-5.7
	v-7.8c0.9-2.3,2.4-4.2,4.5-5.6s4.5-2.1,7.1-2.1c3.5,0,6.3,1.1,8.5,3.1c2.2,2.1,3.3,4.9,3.3,8.5S344,313.1,341.8,315.3L341.8,315.3z"
	/>
<path class="st1" d="M262.7,369.3H280v3.9h-12.7v7.2h9.4v3.5h-9.4V395h-4.6L262.7,369.3L262.7,369.3z M294,369.3h4.6V395H294V369.3z
	 M314.2,369.3h4.5l11.9,17.9v-17.9h4.6V395h-4.5l-12-17.9V395h-4.6L314.2,369.3z M360.3,369.3h4.5L375,395h-4.7l-2.3-5.9h-10.9
	l-2.3,5.9H350L360.3,369.3z M366.6,385.3l-4.2-11l-4.2,11H366.6L366.6,385.3z M389.8,369.3h4.5l12,17.9v-17.9h4.6V395h-4.5l-12-17.9
	V395h-4.6V369.3z M432.1,394c-2-1.1-3.7-2.7-4.8-4.6c-1.2-2-1.7-4.4-1.7-7s0.5-5.1,1.7-7c1.2-2,2.8-3.6,4.8-4.7s4.5-1.7,7.1-1.7
	c3.6,0,6.5,0.9,8.9,2.5v4.5c-2.1-1.8-5-2.8-8.5-2.8c-1.9,0-3.6,0.4-5,1.2c-1.4,0.7-2.5,1.8-3.3,3.2c-0.8,1.3-1.2,3-1.2,4.8
	c0,1.9,0.4,3.5,1.2,4.8c0.8,1.3,1.9,2.4,3.3,3.2c1.4,0.7,3,1.2,4.9,1.2c1.8,0,3.5-0.3,4.8-0.7c1.4-0.4,2.8-1.2,3.9-2.2v4.5
	c-2.2,1.8-5.3,2.7-9.2,2.7C436.6,395.6,434.2,395.1,432.1,394L432.1,394z M463.2,369.3h17.4v3.8h-12.7v7h9.4v3.8h-9.4v7h12.7v3.8
	h-17.4V369.3L463.2,369.3z"/>
</svg>
