<svg xmlns="http://www.w3.org/2000/svg" viewBox="0 0 113 115" xml:space="preserve" enable-background="new 0 0 113 115"><style>.st1,.st11,.st14,.st3,.st7,.st8{fill-rule:evenodd;clip-rule:evenodd;fill:#fff}.st11,.st14,.st3,.st7,.st8{fill:#dfa676}.st11,.st14,.st7,.st8{fill:#2f3541}.st11,.st14,.st8{fill:#fc9001}.st11,.st14{fill:#505868}.st14{fill:#00284c}</style><g id="Layer_1"><g id="Page-1"><g id="Kitchen-Product-Page-Copy" transform="translate(-469 -1302)"><g id="Group-162" transform="translate(469 1302)"><defs><filter id="Adobe_OpacityMaskFilter" filterUnits="userSpaceOnUse" x="0" y="0" width="113" height="118"><feColorMatrix values="1 0 0 0 0 0 1 0 0 0 0 0 1 0 0 0 0 0 1 0"/></filter></defs><mask maskUnits="userSpaceOnUse" x="0" y="0" width="113" height="118" id="mask-2_00000121997546649927775600000010810141373875596718_"><g filter="url(#Adobe_OpacityMaskFilter)"><path id="path-1_00000116938771171086215790000008023354746769852597_" class="st1" d="M-14-2h140v118H-14z"/></g></mask><g mask="url(#mask-2_00000121997546649927775600000010810141373875596718_)"><g transform="translate(14 2)"><path id="Fill-1" class="st3" d="M92.7 47.2s.4-.6.5-.7c.2-.3.5-.6.8-.9.6-.8 1.7-1.9 1.6-3-.1-.4-.4-1.2-1-1.5-.7-.4-1.7-.2-1.7-.2s-.1 1.7-.1 1.9c0 .5-.1 4.4-.1 4.4"/><path id="Fill-3" class="st3" d="M22.5 90c-.5-.2-.5-.9-.8-1.4-.6-1-1.1-2-1.6-3-1.1-2.1-1.8-4.5-2.4-6.8-1-3.3-1.7-6.7-2.1-10.1-.2-1.9-.5-3.8-.2-5.7.3-1.9 1.8-3.6 2.5-5.4.8-1.9 1-4.1 1.1-6.2.1-1.5.1-3.2 0-4.7-.1-.7-.3-1.9-.8-2.4-.7-.7-1.5-.3-2.3-1-1.2-1-1.8-2.2-2.1-3.7-.1-.6-.3-1.5-.2-2.1.1-.6.2-1.2.7-1.6.5-.4 1.1-.2 1.5-.7.6-.7.8-1.6 1.2-2.4.6-1.1 1.3-2.1 2-3.2 1.2-2 2.8-3.8 4.4-5.6 2.3-2.5 4.9-5.4 8.4-5.8.7-.1 1.5.1 2.2.3 4.5 1.6 5.5 6.3 6.6 10.4.3 1 .7 2 1 3 .4 1.1.8 2.4 1.4 3.5.5.7 1.1 1.3 1.3 2.2.4 2.2-.5 4.2-2 5.8-.2.2-1.1.6-1.1.6s-.5 1.9-.7 2.4c-.3.9-.6 1.4-1 2.3-.4 1-1.1 2.1-1.8 2.9-.4.5-1.2 1.4-1.2 1.4s-.3 3.2.3 4c.4.6 1 1.3 1.5 1.8s1.3 1.2 1.3 1.2-.9 4.5-1.6 6.3c-.9 2.2-2.1 4.3-3.3 6.4-2.1 3.6-4.3 7-6.7 10.4-1 1.5-2 2.9-3.2 4.3-.5.5-.9 1.2-1.5 1.6l-.8 1z"/><path id="Fill-5" d="M17.7 53.5s-1.1.3-1.6.6c-.7.5-1.2 1.6-1.8 2.5-.5.9-1 2-1.5 2.6-.3.4-2 2.6-2 2.6s-.7.2-1 .5c-1.2.9-3.3 1.4-4.6 2.1-2.3 1.2-3.4 1.3-5.6 2.6-1.3.7-2.3 1.5-3.5 2.3-2 1.5-3.5 4.8-4.1 6.4s-1.1 3.6-1.4 4.5c-.9 3.7-1.6 8.3-2 10.8-.2 1.8-.5 4.4-.7 5.6-.2 1.2-.3 2.7-.4 4-.4 2.9-.6 6.8-.9 8.7-.3 1.9-.5 2.4-.4 3.9.1 1.5 5.7 1.6 8.6 1.5 2.9-.2 5.3-.9 7.7-1.2 3.1-.4 7.6.4 11.2.8 3.6.5 9.4.9 13.4 1.3 5.5.5 12.3.7 17.8.1 2.4-.3 7.6-1.2 7.8-1.5.1-.2.7-2.5.9-3.1.4-1.8 2-8.4 2-8.4s2.7-.4 3.9-1.1c.7-.4 1.4-.6 2.1-1.1.6-.4 1-.7 1.6-1.2 3.8-2.8 6.1-6.4 7.9-10.7.4-1 1.2-4.3 1.2-4.3s1.2-.7 1.1-1.5c-.4-2.2-1.7-4.2-2.8-6.2-2.9-5.2-7.9-9.5-13.3-11.8-1.2-.5-2.6-1.4-4-1.6-1.2-.2-3-.7-3-.7s-1.7-.2-2.7-.3c-1.1-.1-5.2-.9-5.2-.9s-1-2.6-1.6-3.5c-.9-1.4-1.4-2.9-3.1-3.6-1-.4-1.7-.6-1.7-.6s-.4 1.8.2 3.4c.6 1.8 2.1 2.9 2.1 2.9.2 1.6-3.8 9-4.3 9.9-2.3 3.6-7.8 10.6-10.5 15.1-1.7 2.7-1.2 4.4-1.7 4.3-.2 0-5.3-9.4-6.3-18.3-.2-1.8-.5-4.1-.3-6.5.1-2 .5-4.4.5-4.4s1-1 1.6-2.6c.1-1.7.4-3.9.4-3.9" fill-rule="evenodd" clip-rule="evenodd" fill="#fc9590"/><path id="Fill-7" d="M62.2 27.1s.2-1.2 1-2c.7-.8 1.9-1.1 1.9-1.1l24.5.3s1.5.2 2.3.9c.8.8.7 2.1.7 2.1l-.5 54.4s0 1.4-.7 2.3c-.7.8-2 1.1-2 1.1l-24.2-.4s-1.8 0-2.7-.9c-.9-.8-.9-2.4-.9-2.4l.6-54.3z" fill-rule="evenodd" clip-rule="evenodd" fill="#858d97"/><path id="Fill-9" class="st1" d="m64.9 26.8 4.8.1s-.1.9.3 1.4c.4.5 1.1.4 1.1.4l11.9.2s.8-.1 1.2-.5c.4-.5.3-1.3.3-1.3l5 .1s.9 0 1.3.6c.5.6.6 1.7.6 1.7L91 81.9s-.2.8-.6 1.2-1 .5-1 .5l-24.5-.5s-1.1-.1-1.7-.7c-.6-.6-.6-1.7-.6-1.7l.3-51.5s0-1 .6-1.6c.4-.5 1.4-.8 1.4-.8"/><path id="Fill-11" class="st3" d="M92.4 68.2s.1.1.7-.5c.6-.5 1.3-1.4 1.7-2.1.7-1.1 1-1.7 1.2-3 .1-.7.2-1.9-.2-2.5-.3-.4-.7-.8-1-1-.7-.4-1.3-.9-2-1.1-.6-.2-1.3-.6-2-.4-1.1.3-1.2 2.5-.7 3.5.5 1.2 2.3 2.8 2.3 2.8v4.3z"/><path id="Fill-13" class="st3" d="M92.1 78.6c0 .4.1.1.8-.4.8-.5 1.5-1.3 2-2 .3-.5.6-.8.9-1.3.2-.3.2-.8.3-1.1.1-.5 0-.9-.1-1.4-.1-.4-.6-.9-.9-1.2-.8-.6-1.3-.8-2.2-1.2-.6-.2-1.3-.5-2-.4-.9.2-1.2 2-.9 2.8.5 1.4 2.2 2.7 2.2 2.7s-.1 2.8-.1 3.5"/><path id="Fill-15" class="st3" d="M92.1 57.7s1.3-1.4 1.8-1.9c.8-.8 1.8-1.9 2.1-3 .1-.5.3-1.3.1-1.8-.3-.9-1.2-1.3-2-1.6-.9-.4-2.8-1.5-3.8-.3-.2.2-.4 1-.5 1.3-.1 1.1-.1 2.2.6 3.2.3.4.5.8.9 1.1l.7.7v2.3z"/><path id="Fill-17" class="st3" d="M65.3 84.6c.4-.3-1.4.1-3-.5-1.1-.5-1.5-2.3-1.5-2.3l.1-20.8s.5-4.5.3-6.1c-.3-1.9-1.1-3.3-2.8-4.3-.5-.3-1.5-.8-2.1-.4-1.2.7-.9 2.3-1 3.5-.2 1.5.4 3-.5 4.3-1 1.6-3.1 3-4.3 4.4-2.6 3.1-4.9 6.1-5.8 10-.3 1.2-.5 2.7-.2 3.9.2.8.4 1.6.7 2.3.6 1.4 1.8 4 1.8 4s-.2 1.3-.2 1.7c0 1.1.1 2.2.3 3.3.4 2.6 2 5 4.4 5.9.6.2 1.4.3 2 .4.6.1 1.5.3 2.1.2 1.9-.4 3.4-.9 4.7-2.2.4-.4 1.1-1.1 1.3-1.7.3-1 .9-2 1.1-3 .1-.4.3-1.5.3-1.5s.4-.1.6-.2c.4-.2 1-.5 1.7-.9"/><path id="Fill-19" class="st1" d="M33.7 48.7c0-.3-.6.1-.8.1-.6.2-1.1.1-1.8.1-.9 0-1.9.1-2.7-.1-.2 0-.9-.3-1-.1-.1.1.1.7.1.8.3.9.5 1.7 1.1 2.3.6.6 1.8 1.3 2.6 1 1.3-.6 2.6-2.5 2.5-4.1"/><path id="Fill-21" d="M12.4 36.9s-1.4-2.6-1.6-4.8c-.1-1.2-.3-3.4-.2-4.6.2-1.9.6-3.4 1.3-5.1.4-1.1 1.3-2.5 2-3.4.2-.3 1.2-1.6 1.2-1.6s-1.2.1-1.2-.4c-.1-.6.8-1.4.3-2.1-.5-.7-2.1-.4-2.1-1.7 0-.7.9-.9 1-1.5.1-.7-1.2-1.7-.6-2.4.7-.8 2.1.2 2.7-.7.2-.3 0-1.1-.2-1.4-.2-.3-.6-.3-.5-.8.1-.5.6-1 1.1-1.1.2 0 .7.1.8-.1.4-.4-.7-1.5-.1-1.7.1 0 .4-.4.5-.4.5 0 .9.4 1.2 0 .6-.8.2-1.9 1.1-2.4.4-.3.8-.1 1.1.2.1.1.4.5.5.3.5-.5-.2-1.5.2-1.9.1-.1.4-.1.6-.1.9-.1 1.2 1.2 2.1 1 .4-.1.5-.5.7-.9.2-.4.1-.9.6-1.1.5-.3 1-.1 1.3.4.1.2.4.7.6.7.3.1.6-.3 1-.2.4.2.5.7.7.7.2 0 .9-.7 1.4-.4.5.3.4 1.2.5 1.7 0 .2 0 .6.3.6 1.4.4 1-2.2 2.5-1.7.8.3 1.5 1 1.6 1.8.1.4 0 1.3.3 1.6.6.6 1.6-.5 2.2.1.2.2.5.9.4 1.1 0 .1-.3.6-.2.7.1.1.3 0 .5.1.5.1 1.2 0 1.5.5.2.3.3.5.3.8 0 .1-.3.9-.2 1 .3.2.7-.2.9-.3.3-.1.6.4.7.6.4.6.6 1.6 0 2.1-.5.4-1.1.3-1.1 1 0 .5.5.7.6 1 .1.3-.4.7-.3 1 .1.4.4.9.3 1.3-.1.3-.8.7-.8.7s1 .8 1.4 1.1c.7.5 1.4 1.6 1.8 2.3 1.4 2.9 2.1 5.7 2.6 8.9.1.9.1 2.1.1 2.9 0 .8-.3 2.2-.5 3.2-.2 1.2-.7 2.3-1.1 3.1-.4.8-.6 1.2-.8 1.4 0 0-.9-.8-1.1-.8-1.2-.3-1.1-.8-1.8-1.6-.4-.6-1-2-1.2-2.7-.4-1.2-.7-2.4-1.1-3.7-.3-.9-.3-2.2-.6-3-.5-1.2-1.2-2.3-2.6-2.7-.9-.2-1.9 0-2.8-.2-1.7-.3-3.2-1.2-5-.8-1.2.3-2 2-2.6 3-.8 1.4-1.3 2.8-2.1 4.1-.5.8-2.1 2.5-2.1 2.5s.2-.3-.8 1.4c-1.1 1.7-2.5 2.4-3.6 2.6-.5.1-1.3 0-2.1.2-.9.1-1.5.6-1.5.6" fill-rule="evenodd" clip-rule="evenodd" fill="#9b745c"/><path id="Fill-23" class="st7" d="M93.4 57.7c-.2 0-.3-.1-.3-.2l.1-2.4c0-.1.2-.2.3-.2.2 0 .3.1.3.2l-.1 2.4c0 .1-.2.2-.3.2"/><path id="Fill-25" class="st7" d="M62 54.9c-.1 0-.2-.1-.2-.2l.2-27c0-.1 0-1.7 1.2-2.7 1.3-1.1 2.6-1 2.7-1l23.6.3c.1 0 1.7 0 2.5 1.1s.7 2.1.7 2.2l-.2 20.7c0 .1-.1.2-.2.2s-.2-.1-.2-.2v-.5l.2-20.2s0-1-.7-1.9c-.7-.9-2.1-.9-2.2-.9l-23.6-.3s-1.3-.1-2.4.9c-1 .9-1 2.4-1 2.4l-.2 27s-.1.1-.2.1"/><path id="Fill-27" class="st7" d="M71.4 85.1h-.1l-6.7-.2c-.1 0-1.7-.2-2.6-1-.9-.9-.9-2.3-.9-2.4l.1-20.8c0-.1.1-.2.2-.2s.2.1.2.2l-.1 20.8s0 1.4.7 2.1c.7.7 2.3.9 2.3.9l6.9.2c.1 0 .2.1.2.2s-.1.2-.2.2"/><path id="Fill-29" class="st7" d="M80.5 83.7 65 83.4c-.1 0-1.4-.1-2-.8-.6-.7-.6-2-.6-2.1l.2-25.4c0-.1.1-.2.2-.2s.2.1.2.2l-.2 25.4s-.1 1.2.4 1.8c.5.6 1.7.6 1.7.6l15.5.3c.1 0 .2.1.2.2.1.2.1.3-.1.3"/><path id="Fill-31" class="st7" d="m89.4 82.3-8.4-.2c-.1 0-.2-.1-.2-.2s.1-.2.2-.2l8.4.2c.3 0 .7-.1 1-.4.3-.3.5-.7.5-1.2v-7.1h.4v7.2c0 .6-.2 1.1-.6 1.5-.4.2-.9.4-1.3.4"/><path id="Fill-33" class="st7" d="M90.5 68.9c-.2 0-.3-.1-.3-.2l.1-5.9c0-.1.2-.2.3-.2.2 0 .3.1.3.2l-.1 5.9c.1.2-.1.2-.3.2"/><path id="Fill-35" class="st7" d="M90.6 57.7c-.2 0-.3-.1-.3-.2v-3.8c0-.1.2-.2.3-.2.2 0 .3.1.3.2v3.8c0 .1-.2.2-.3.2"/><path id="Fill-37" class="st7" d="M62.7 54.9c-.1 0-.2-.1-.2-.2l.1-26.6c0-1.2.9-2.6 2.6-2.7l4.6.1c.1 0 .1 0 .2.1 0 .1.1.1 0 .2 0 0-.2.7.1 1.2.2.2.5.4.9.4 1.7.2 10.8.2 11.8.2.6 0 1-.2 1.2-.5.3-.4.1-1.1.1-1.1v-.2c0-.1.1-.1.2-.1l4.5.1c.1 0 1.2 0 1.9.7.6.6.6 1.8.6 1.8l-.2 19.5c0 .1-.1.2-.2.2s-.2-.1-.2-.2v-.9l.1-18.7s0-1-.5-1.6c-.5-.5-1.5-.5-1.6-.5l-4.3-.1c0 .3 0 .7-.2 1.1-.3.4-.8.6-1.5.7-1 .1-10.2 0-11.9-.2-.5-.1-1-.3-1.2-.6-.3-.4-.3-1-.2-1.3l-4.3-.1c-1.5.1-2.1 1.5-2.1 2.3l-.1 26.6c0 .3-.1.4-.2.4"/><path id="Fill-39" class="st7" d="M93.1 68.2c-.1 0-.2 0-.2-.1-.1-.1 0-.2.1-.3.6-.3 2.8-2.5 3.3-3.5 1.1-2.1 1.1-3.6-.2-4.5-1.9-1.3-4.5-2.3-5.3-1.5-.8.8-1 2.7.7 4.2 1.5 1.4 2.3 1.5 3.2 1.7l.2.1c.1 0 .2.1.2.2s-.1.2-.3.1l-.2-.1c-1-.2-1.8-.4-3.4-1.8-1.8-1.6-1.6-3.8-.7-4.7 1.1-1.1 4.1.2 5.9 1.5 1 .7 1.9 2.1.3 5-.5 1-2.8 3.3-3.5 3.7h-.1"/><path id="Fill-41" class="st7" d="M92.8 57.7c-.1 0-.1 0-.2-.1s-.1-.2 0-.3c0 0 3-2.5 3.8-3.7.6-.9.8-1.7.6-2.4-.2-.5-.5-.8-1.1-1.1-.3-.1-.6-.3-.9-.4-1.1-.5-2-.9-3.3-.8-.5 0-.9.4-1 .7-.6 1-.4 2.7.3 3.7 1.2 1.5 2.5 2.1 2.6 2.1.1 0 .2.2.1.3 0 .1-.2.1-.3.1-.1 0-1.5-.6-2.7-2.2-.8-1.1-1-2.9-.4-4.1.3-.6.8-.9 1.4-.9 1.4-.1 2.4.4 3.6.9.3.1.6.3.9.4.7.3 1.2.7 1.4 1.3.3.8 0 1.7-.7 2.7-.9 1.3-3.8 3.7-3.9 3.8h-.2"/><path id="Fill-43" class="st7" d="M92.9 48.6c-.1 0-.1 0 0 0-.2-.1-.2-.2-.2-.3.3-1 .8-1.8 1.3-2.4.5-.8 1-1.4 1.1-2.4.1-1-.2-1.5-.5-1.8-.4-.4-.9-.5-1.4-.4-.1 0-.2 0-.2-.1s0-.2.1-.3c.6-.2 1.3 0 1.8.4.5.5.7 1.3.6 2.2-.1 1.1-.6 1.8-1.2 2.6-.5.7-1 1.3-1.2 2.3l-.2.2"/><path id="Fill-45" class="st7" d="M93.3 68.9c-.2 0-.3-.1-.3-.2l.1-4.5c0-.1.2-.2.3-.2.2 0 .3.1.3.2l-.1 4.5c.1.2-.1.2-.3.2"/><path id="Fill-47" class="st7" d="M89.3 85.1h-.4l-17.8-.2c-.1 0-.2-.1-.2-.2s.1-.2.2-.2l17.8.2s1.6.2 2.4-.7c.7-.7.8-2.6.8-2.6l.1-6.6c0-.1.1-.2.2-.2s.2.1.2.2l-.1 6.6c0 .1-.2 2.1-1 2.9-.6.7-1.6.8-2.2.8"/><path id="Fill-49" class="st7" d="M60.8 64h-.1c-.1-.1-.1-.2-.1-.3 1.1-1.5 1.7-4.2 1.4-6.8-.1-1.3-.5-2.4-.9-3.2-.6-1-2.1-2-3.3-2-.7 0-1.2.4-1.5 1.1-.3.7-.2 1.3-.1 2.2.1.6.2 1.3.1 2.2-.1 2.1-.4 2.7-1.1 4.2 0 .1-.2.1-.3.1-.1 0-.2-.2-.1-.3.7-1.5 1-2.1 1-4.1 0-.8-.1-1.5-.1-2.1-.1-.9-.2-1.6.1-2.4.5-1.1 1.3-1.3 1.9-1.3 1.4-.1 3.1 1.1 3.8 2.2.5.8.9 2 1 3.3.3 2.7-.3 5.5-1.5 7-.1.2-.2.2-.2.2"/><path id="Fill-51" class="st7" d="M48.7 86.5c-.1 0-.2-.1-.2-.1-.3-.8-.9-1.8-1.4-2.8-1.2-2.3-2.5-4.9-2.7-6.8-.6-5.2 3.2-11.8 10.1-17.5.1-.1.2-.1.3 0 .1.1.1.2 0 .3-6.8 5.6-10.5 12.1-9.9 17.2.2 1.9 1.5 4.5 2.7 6.7.5 1 1.1 2 1.4 2.9-.1-.1-.1 0-.3.1"/><path id="Fill-53" class="st7" d="M57.8 88.6c-.1 0-.1 0-.2-.1s-.1-.2 0-.3c1.3-1.1 3.2-1.7 4.5-2.1 1.4-.4 2.9-1 4.2-1.7.1-.1.2 0 .3.1.1.1 0 .2-.1.3-1.3.7-2.9 1.3-4.3 1.7-1.3.4-3.1 1-4.3 2 0 .1 0 .1-.1.1"/><path id="Fill-55" class="st7" d="M53.6 77.4c-.1 0-.2-.1-.2-.2s.1-.2.2-.2c3.2-.4 6.2-3.4 7.1-7.1 0-.1.1-.2.3-.2.1 0 .2.1.2.3-1.1 3.9-4.2 7-7.6 7.4"/><path id="Fill-57" class="st7" d="M55.2 103.4c-.3 0-.7 0-1-.1-2.1-.3-4.3-1.7-6-4.2-2.7-3.8-4.8-10.4-3.3-16.7 0-.1.1-.2.3-.2.1 0 .2.1.2.2-1.5 6.2.6 12.7 3.3 16.4 1.7 2.3 3.8 3.8 5.8 4 .3 0 .7.1 1 .1 6.6 0 15.3-7.4 17.4-17.9 0-.1.1-.2.3-.2.1 0 .2.1.2.2-2.5 10.8-11.5 18.4-18.2 18.4"/><path id="Fill-59" class="st7" d="M53.6 114.6c-.1 0-.1 0 0 0-.1 0-.2-.1-.2-.3.3-1.2.6-3 1-4.8.7-3 1.3-6.2 1.4-6.7 0-.1.1-.2.2-.2s.2.1.2.2c-.1.6-.7 3.6-1.4 6.8-.4 1.8-.8 3.5-1 4.8l-.2.2"/><path id="Fill-61" class="st7" d="M.4 114.6c-.1 0-.2-.1-.2-.2 0-3.8-.7-6.8-1.3-9.4-.4-1.7-.8-3.4-.9-5-.3-3.7.5-6.5 1.1-8.6.1-.2.1-.5.2-.7l.1-.2c.5-2.1 1.4-5.5.9-10.8 0-.1.1-.2.2-.2s.2.1.2.2c.6 5.4-.3 8.9-.9 11l-.1.2c-.1.2-.1.4-.2.7-.5 2-1.3 4.9-1 8.4.1 1.6.5 3.2.9 4.9.6 2.6 1.3 5.6 1.3 9.5-.1.1-.2.2-.3.2"/><path id="Fill-63" class="st7" d="M39.1 60.5H39c-1.9-1.4-2.7-3.5-2.4-6.1 0-.1.1-.2.2-.2s.2.1.2.2c-.3 2.5.4 4.4 2.3 5.8.1.1.1.2 0 .3h-.2"/><path id="Fill-65" class="st7" d="M50.4 62.6s-.1 0 0 0c-.4-.1-1-.1-1.8-.2-1.5-.1-3.7-.3-5.6-.9-.1 0-.2-.1-.1-.2s.1-.1.2-.1c1.9.6 4 .7 5.5.8.8.1 1.4.1 1.8.2.1 0 .2.1.1.2 0 .2 0 .2-.1.2"/><path id="Fill-67" class="st7" d="M15.7 59.8c-.1 0-.1 0-.1-.1-.1-.1-.1-.2 0-.3 1.7-1.8 3.1-6.2 1.9-13.5 0-.1.1-.2.2-.2s.2.1.2.2c1.2 7.4-.2 12-2 13.8-.1.1-.2.1-.2.1"/><path id="Fill-69" class="st7" d="M-13.8 114.6c-.1 0-.2-.1-.2-.2.5-3.5.8-6.9 1.2-10.2 1.8-15 3.1-26.8 7.6-32.3 2.4-3 7-4.9 11.5-6.8 1.9-.8 3.6-1.5 5.3-2.3.1-.1.2 0 .3.1.1.1 0 .2-.1.3-1.6.8-3.5 1.6-5.3 2.4-4.5 1.9-9.1 3.8-11.4 6.7-4.4 5.5-5.8 17.2-7.5 32.1-.4 3.3-.8 6.7-1.2 10.2 0-.1-.1 0-.2 0"/><path id="Fill-71" class="st7" d="M32.6 24s-.1 0 0 0c-.2 0-.3-.2-.2-.3.3-1.5 1.9-2.8 4-2.4.1 0 .2.2.2.3 0 .1-.2.2-.3.2-2.1-.4-3.2 1.1-3.4 2.1-.1 0-.2.1-.3.1"/><path id="Fill-73" class="st7" d="M12.2 51.4c-.1 0-.2-.1-.2-.2s.1-.2.2-.2c.4 0 .7-.1.8-.3.1-.2.1-.4 0-.7-.1-.2-.3-.4-.4-.6-.3-.4-.6-.8-.6-1.4 0-.8.6-1 1.1-1.1.3-.1.6-.1.7-.4.2-.4.1-.7-.2-1.1-.2-.4-.5-.9-.3-1.4.2-.4.6-.5.9-.6.3-.1.6-.2.7-.5.1-.4 0-.8-.1-1.3-.2-.6-.4-1.3.1-1.8.4-.4.9-.6 1.4-.7.6-.2 1.2-.4 1.4-.9.1-.2.1-.5.1-.8 0-.3 0-.7-.1-1 0-.1 0-.2.2-.3.1 0 .2 0 .3.2.1.4.1.8.1 1.1 0 .4 0 .7-.1 1-.3.7-1 1-1.7 1.2-.5.2-.9.3-1.2.6-.4.4-.2.9 0 1.4.2.5.3 1 .1 1.5-.2.5-.6.6-1 .8-.3.1-.5.2-.7.4-.1.3 0 .6.3 1 .3.5.6 1 .2 1.6-.2.4-.6.5-1 .6-.5.1-.7.2-.7.7 0 .5.2.8.5 1.2.1.2.3.4.4.7.2.4.2.8 0 1.1-.2-.1-.5.2-1.2.2z"/><path id="Fill-75" class="st7" d="M42.8 52.1c-.1 0-.2 0-.2-.1-.1-.1 0-.2.1-.3.3-.1.5-.2.6-.4.1-.2-.1-.4-.3-.6-.2-.3-.5-.6-.3-.9.2-.4.6-.5.8-.5.2 0 .3-.1.4-.2.2-.2.1-.4-.1-.7-.1-.2-.2-.3-.3-.5 0-.3.5-.4.8-.5h.1c.1 0 .2-.2.2-.4 0-.3-.3-.6-.6-.9-.3-.3-.7-.6-.6-1 0-.5.5-.8 1-1 .6-.3.9-.5.7-1-.2-.7-.8-1.1-1.5-1.6-.5-.4-1-.8-1.4-1.3-.4-.6-.5-1.3-.5-2.1 0-.4-.1-.9-.2-1.2 0-.1.1-.2.2-.2s.3 0 .3.1c.1.4.2.8.2 1.3.1.7.1 1.4.5 1.9.3.5.8.8 1.3 1.2.7.5 1.3 1 1.6 1.8.3.8-.4 1.2-.9 1.4-.4.2-.7.4-.8.7 0 .3.2.5.5.8.3.3.7.6.7 1.1 0 .2-.1.6-.5.7h-.2c-.1 0-.3.1-.4.1 0 .1.1.2.2.4.2.3.5.7.1 1.1-.2.2-.5.3-.7.3-.3.1-.4.1-.5.3-.1.2.1.4.3.6.2.3.5.6.3.9-.1.2-.4.4-.8.6l-.1.1"/><path id="Fill-77" class="st7" d="M15.2 17.7c-.1 0-.1 0-.1-.1-.1-.1-.1-.1-.3 0-.3 0-.7.1-.9-.5-.2-.5 0-.7.2-.9.1 0 .1-.1.2-.2.2-.2 0-.9-.2-1.1-.1-.1-.4-.2-.7-.3-.5-.1-1.3-.3-1.3-1.1 0-.5.3-.8.6-1.1.3-.3.5-.6.5-.9 0-.2-.2-.5-.3-.7-.3-.5-.5-1-.2-1.5.4-.6 1.1-.5 1.6-.5.5.1.8.1.9-.1.2-.3.3-.8.1-1.1 0-.1-.1-.1-.2-.2-.2-.2-.5-.4-.4-.8.1-.4.4-1.2.8-1.4.2-.1.4 0 .7 0 .3.1.4.1.5-.1.1-.2 0-.4-.1-.6-.4-.2-.6-.5-.4-.9.4-.8 1-.6 1.4-.5.2 0 .4.1.4 0 .2-.1.2-.6.3-1 .1-.7.2-1.3.7-1.5.7-.3 1.3.1 1.6.3.1 0 .1.1.2.1.1-.2 0-.5 0-.8 0-.4-.1-.8.2-1 .2-.2.4-.2.7-.2.5 0 .8.3 1.1.6.4.3.6.6 1.2.4.3-.1.3-.4.3-.8s.1-1 .8-1.1c.9-.2 1.5.2 2 1.1.2-.2.5-.4 1-.2.4.2.5.5.6.7.3-.2.8-.4 1.2-.3.3.1.5.2.7.5.2.4.3.8.3 1.2 0 .2 0 .4.1.5 0 0 .1.1.4 0 .3-.1.5-.4.6-.8.2-.4.4-1 1.1-.9.7 0 2 1.1 2.1 1.8 0 .2 0 .4.1.6 0 .6.1 1.1.5 1.3.1.1.3 0 .5-.1.4-.2.9-.4 1.5.1.6.6.4 1.3.2 1.6 0 .1 0 .1-.1.2h.3c.6 0 1.5-.1 1.9.6.4.7.1 1.1-.1 1.4-.1.1-.1.2-.1.2 0 .1.1.1.1.1.1 0 .2-.1.3-.1.1-.1.3-.2.4-.2.6-.1 1.2.9 1.4 1.3.2.6-.1 1.5-.7 1.9-.2.1-.3.2-.5.2s-.2 0-.3.2c0 .3.1.5.3.7.1.1.2.2.2.4.2.3 0 .6-.2.8-.1.1-.1.2-.2.3 0 .2.1.4.2.6.1.2.3.5.2.8-.1.2-.3.4-.6.6-.1 0-.1.1-.2.1s-.1 0-.1.1c-.1.1-.2 0-.3-.1-.1-.1 0-.2.1-.3.1 0 .1-.1.2-.1s.1 0 .1-.1c.2-.1.4-.2.4-.3 0-.1 0-.3-.2-.5-.1-.2-.3-.5-.2-.9 0-.2.1-.3.2-.5s.2-.3.1-.4c-.1-.1-.1-.2-.2-.3-.2-.3-.4-.6-.3-1 .1-.4.4-.5.6-.5.1 0 .2 0 .3-.1.4-.3.7-1 .6-1.5-.1-.4-.6-1-.9-1-.1 0-.2.1-.3.1-.2.1-.4.3-.6.2-.1 0-.3-.1-.3-.3-.1-.2 0-.5.1-.6.2-.2.3-.5.1-1-.3-.5-1-.5-1.5-.4-.4 0-.6 0-.7-.1-.1-.2 0-.4.1-.6.2-.4.3-.8-.1-1.2-.4-.3-.6-.2-1-.1-.3.2-.6.3-.9.2-.7-.3-.7-1.1-.8-1.7v-.5c-.1-.5-1.1-1.5-1.7-1.5-.3 0-.5.2-.7.7-.2.4-.4.9-.9 1-.3.1-.6 0-.7-.1-.2-.2-.2-.5-.3-.8 0-.3 0-.7-.2-1-.1-.2-.3-.3-.4-.3-.4-.1-.9.2-1.2.4-.1 0-.2.1-.2 0-.1 0-.2-.2-.2-.3-.1-.2-.1-.4-.4-.6-.2-.1-.4 0-.5.1-.1.1-.2.2-.3.1-.1 0-.1-.1-.2-.2-.4-.8-.9-1.1-1.6-1-.3.1-.4.3-.4.8 0 .4-.1.9-.6 1.1-.8.3-1.2-.1-1.6-.4-.3-.2-.5-.4-.9-.5-.1 0-.2 0-.3.1-.1.1-.1.4 0 .7 0 .3.1.6 0 .9 0 .1-.1.3-.3.3-.2.1-.4 0-.6-.2-.3-.2-.7-.5-1.2-.3-.4.2-.5.8-.6 1.3-.1.5-.2 1-.4 1.3-.2.2-.5.1-.8.1-.5-.1-.8-.1-1 .3-.1.2 0 .3.1.5s.3.6.1 1c-.3.6-.7.4-1 .3-.1 0-.3-.1-.4-.1-.2.1-.5.7-.6 1.1 0 .1.1.2.3.4.1.1.3.2.3.3.3.5.2 1.1-.1 1.6-.3.4-.8.4-1.3.3-.6-.1-1-.1-1.2.3-.2.3 0 .6.2 1.1.1.3.3.6.3.9.1.5-.3.9-.6 1.2-.3.3-.5.5-.5.8 0 .5.4.6 1 .7.4.1.7.1.9.4.3.3.6 1.2.2 1.6l-.2.2c-.2.1-.2.2-.1.4.1.3.2.3.5.3.2 0 .4 0 .6.2.1.1.1.2 0 .3.2 0 .1.1.1.1"/><path id="Fill-79" class="st7" d="M29.6 56.3c-4.6 0-8.6-3.7-9.8-6.4 0-.1 0-.2.1-.3.1 0 .2 0 .3.1 1.2 2.5 5 6.1 9.5 6.1h.3c3.7-.1 6.1-1.9 8.5-6.1 1.4-2.4 2-6 2-7.4 0-.1.1-.2.2-.2s.2.1.2.2c0 1.4-.6 5.1-2 7.6-2.5 4.3-5 6.1-8.8 6.3-.3.1-.4.1-.5.1"/><path id="Fill-81" class="st7" d="M41.1 44.4H41c-.1 0-.2-.1-.2-.2s.2-.2.3-.1c.1 0 .2 0 .6-.2.8-.4 2.2-1.6 2.6-3.2.3-1 .4-2.4-.3-3.1-.3-.4-.9-.5-1.6-.5-.1 0-.2-.1-.3-.2 0-.1.1-.2.2-.2.9 0 1.6.2 2 .6.8.8.7 2.3.4 3.4-.4 1.7-1.9 2.9-2.8 3.4-.3.2-.6.3-.8.3"/><path id="Fill-83" class="st7" d="M42.6 36.6c-3.3-1.1-3.8-2.9-4.5-5.9-.2-.8-.4-1.7-.7-2.6-.5-1.7-1.6-3.8-3.4-3.7-.1 0-.2-.1-.2-.2s.1-.2.2-.2c1.7-.1 3 1.3 3.9 4 .3 1 .5 1.9.7 2.6.7 3 1.2 4.6 4.2 5.6.1 0 .2.2.1.3-.1.1-.2.1-.3.1"/><path id="Fill-85" class="st7" d="M16 35.2c-.4 0-.7 0-1.1-.1-.1 0-.2-.1-.1-.3 0-.1.1-.2.3-.2 3.6.9 7-3.4 8.8-7.3 1.3-2.8 2.3-4.2 3.6-4.6.8-.3 1.7-.2 2.7.3.1.1.1.2.1.3-.1.1-.2.1-.3.1-.9-.5-1.7-.6-2.4-.3-1.1.4-2.1 1.7-3.4 4.4-1.7 3.7-4.8 7.7-8.2 7.7"/><path id="Fill-87" class="st7" d="M34.6 34.5c-.1 0-.2-.1-.2-.2-.1-.1 0-.3.1-.4.8-.5 3-1.6 4.7-.1.1.1.1.3.1.4-.1.1-.2.2-.3.1-1.5-1.3-3.5-.3-4.4.2.1 0 .1 0 0 0"/><path id="Fill-89" class="st7" d="M21.3 35.9c-.1 0-.1 0-.2-.1s0-.3.1-.4c1.5-1.4 4.2-1 4.8-.3.1.1.1.3 0 .4-.1.1-.2.1-.3 0-.5-.6-2.9-.9-4.3.4h-.1"/><path id="Fill-91" class="st7" d="M30.4 44.4c-.1 0-.1 0-.2-.1 0-.1 0-.2.1-.2.5-.2.8-.5.9-.7.1-.3 0-.7-.2-1.1-.3-.7-.7-1.5-.2-2.6 0-.1.1-.1.2-.1s.1.1.1.2c-.4 1-.1 1.7.2 2.3.2.5.4.9.3 1.4-.2.3-.5.6-1.2.9"/><path id="Fill-93" class="st7" d="M37.9 39.4c0-.8-.6-1.4-1.4-1.4-.8 0-1.4.6-1.4 1.4 0 .8.6 1.4 1.4 1.4.8 0 1.4-.6 1.4-1.4"/><path id="Fill-95" class="st7" d="M44.5 38h-.1c-.1-.1-.1-.2-.1-.3 3.4-5.4 2.6-13.5.1-18.5-2.3-4.5-5.6-6-7.7-5.1-.1 0-.2 0-.3-.1 0-.1 0-.2.1-.3 2.2-.9 5.7.3 8.2 5.3 2.6 5 3.4 13.4-.2 18.9.2.1.1.1 0 .1"/><path id="Fill-97" class="st7" d="M12.6 36.6c-.1 0-.1 0-.2-.1-1.7-2.7-3.4-10.4.1-16.3 3.1-5.2 6.8-7.3 10.1-8.7 2.7-1.2 6.9-1.2 9.3 0 1 .5 1.6 1.1 1.8 1.9 0 .1 0 .2-.1.2s-.2 0-.2-.1c-.2-.6-.7-1.2-1.5-1.6-2.3-1.1-6.4-1.1-9 0-3.2 1.4-6.9 3.5-9.9 8.6-3.4 5.7-1.8 13.3-.1 15.8.1.1 0 .2-.1.3h-.2"/><path id="Fill-99" class="st7" d="M16.2 45.1c-.5 0-1-.2-1.5-.5-1.4-.9-2.3-3-2.6-4.5-.3-1.6-.1-2.9.6-3.6.6-.6 1.5-.8 2.6-.5.1 0 .2.1.2.3 0 .1-.1.2-.3.2-.9-.2-1.7-.1-2.2.4-.6.6-.8 1.7-.5 3.2.3 1.5 1.2 3.4 2.4 4.2.5.4 1.1.5 1.7.3.1 0 .2 0 .3.2 0 .1 0 .2-.2.3-.2-.1-.4 0-.5 0"/><path id="Fill-101" class="st7" d="M26.7 39.4c0-.8-.6-1.4-1.4-1.4-.8 0-1.4.6-1.4 1.4 0 .8.6 1.4 1.4 1.4.8 0 1.4-.6 1.4-1.4"/><path id="Fill-103" class="st7" d="M26.5 49.1c.2.8 1 3.2 3.4 3.2 2.4.1 3.1-2.4 3.3-3.3-.5.1-1.6.2-3.1.3-1.4.1-2.9-.1-3.6-.2m3.5 3.7s-.1 0 0 0c-3.3-.1-4-3.8-4-3.9 0-.1 0-.1.1-.2 0-.1.1-.1.2-.1 0 0 2.1.3 3.8.2 2-.1 3.4-.3 3.4-.3.1 0 .1 0 .2.1.1 0 .1.1.1.2-.1.1-.7 4-3.8 4"/><path id="Fill-105" class="st7" d="M16 42.2c-.1 0-.1-.1-.1-.1-.2-.7-.7-1.7-1-2.2-.1-.1-.1-.2 0-.4 0-.1.1-.2.2-.1.4.5.9 1.6 1.1 2.4 0 .2 0 .4-.2.4.1 0 0 0 0 0"/><path id="Fill-107" class="st7" d="M19.9 116c-.1 0-.2-.1-.2-.2.1-2.4.2-4.4.2-6.4.1-3.5.2-6.6.5-10.5l.1-1c.5-5.5.8-9.1 2.5-12.1.8-1.4 2-3 3.5-5l.9-1.2c1.3-1.7 2.8-3.7 4.3-5.8 3.1-4.3 6.7-10.1 7.1-16 0-.1.1-.2.2-.2s.2.1.2.2c-.5 6-4.1 11.8-7.2 16.2-1.5 2.1-3 4.1-4.3 5.8l-.8 1.2c-1.6 2.1-2.7 3.6-3.5 5-1.6 2.8-2 6.4-2.4 11.9l-.1 1c-.3 3.9-.4 6.9-.5 10.4-.1 1.9-.1 4-.2 6.4-.1.2-.2.3-.3.3"/><path id="Fill-109" class="st7" d="M22.3 90c-.1 0-.1 0-.2-.1-6.8-10.1-9.2-23.9-5.7-32.1 0-.1.2-.2.3-.1.1 0 .2.2.1.3-3.5 8.1-1.1 21.7 5.6 31.7.1.1 0 .2-.1.3.1 0 0 0 0 0"/><path id="Fill-111" class="st7" d="M17.5 80.9c-.1 0-.1 0-.2-.1-.7-.9-1.5-1.4-2.4-2-.9-.6-1.7-1.1-2.1-1.9-.3-.6 0-1.3.3-1.9.3-.7.6-1.3.2-1.7-.3-.3-1.5-.9-2.8-1.6-3-1.5-5.1-2.6-5-3.5.1-.8.7-1.3 1.5-2 .7-.6 1.6-1.4 2.7-2.7.6-.8 1.2-1.5 1.8-2.2 1.6-1.9 3-3.5 3.7-5.1 1-2.3 2.7-2.7 3.3-2.7.1 0 .2.1.2.2s-.1.2-.2.2c-.6.1-2.1.4-3 2.5-.7 1.6-2.1 3.3-3.8 5.2-.6.7-1.2 1.4-1.8 2.2-1.1 1.3-2 2.2-2.7 2.8-.8.7-1.3 1.1-1.4 1.8.2.6 3.1 2 5 3 1.4.7 2.5 1.3 2.9 1.6.5.6.2 1.4-.2 2.1-.3.6-.5 1.2-.3 1.6.4.7 1.1 1.2 2 1.7.8.5 1.8 1.1 2.5 2.1.1.1 0 .2-.1.3 0 .1 0 .1-.1.1"/><path id="Fill-113" class="st7" d="M46.9 68.2c-.1 0-.1 0-.1-.1V68c-.6-.6-1.3-1.4-2-2.5-1.1-1.7-2.3-4.7-2.9-6.4-.1-.3-.2-.6-.3-.8-.8-2.1-1.8-3.2-3.3-3.9-.1 0-.2-.2-.1-.3 0-.1.2-.2.3-.1 1.6.7 2.7 1.9 3.6 4.1.1.2.2.5.3.8.6 1.6 1.8 4.7 2.9 6.3.7 1.1 1.4 1.8 2 2.5v.1c.1.1.1.2 0 .3-.3.1-.4.1-.4.1"/><path id="Fill-115" class="st7" d="M27.6 82.3h-.1c-.1-.1-.1-.2-.1-.3 1.4-2.1 2.1-2.4 3.4-3 .6-.3 1.2-.6 2.1-1.1.7-.4.8-1.2 1-2 .2-.9.4-1.9 1.4-2.5.8-.5 3-1.1 5.3-1.7 1.7-.4 3.4-.9 4.7-1.4.1 0 .2 0 .3.1 0 .1 0 .2-.1.3-1.3.5-3 .9-4.7 1.4-2.3.6-4.5 1.2-5.2 1.7-.8.5-1 1.3-1.2 2.2-.2.9-.4 1.7-1.2 2.2-.9.5-1.6.8-2.2 1.1-1.3.6-2 .9-3.3 2.8 0 .2 0 .2-.1.2"/><path id="Fill-117" class="st7" d="M55.8 94.2c-2.3 0-4.3-.8-5.3-1.5-3.3-2.5-3.5-6.8-3.4-9.2 0-.1 0-.3.1-.5 0-.2 0-.4.1-.5 0-.1 0-.1.1-.2s.2-.1.2 0c.2.1.2.1.1.8 0 .2 0 .4-.1.5-.1 2.3.1 6.4 3.2 8.8 1.3 1 4.6 2 7.6 1 2.6-.8 4.3-2.9 5.1-6.1 0-.1.1-.2.3-.2.1 0 .2.1.2.2-1.1 4.2-3.5 5.8-5.4 6.4-1 .4-1.9.5-2.8.5"/><path id="Fill-119" class="st8" d="M91.4 23.6c1.4.2 2.2.7 3 1.6.8.9 1.5 2.2 1.8 2.9.1.1.5-.5 1.1-1 .6-.6 1.5-1.2 1.7-1.3.4-.2-1.8-.2-2.3-.6-.4-.4 1.3-2.3 1.1-2.6-.2-.3-2.4 1-2.9.5s.4-3.4.2-4.1c-.1-.2-2.1 3.3-2.4 3.4-.4 0-.9-1.2-1.1-1.1-.3.1-.4 2.3-.2 2.3"/><g id="Group-123" transform="translate(103.876 19.667)"><defs><filter id="Adobe_OpacityMaskFilter_00000170248856952462560760000000017179435470830737_" filterUnits="userSpaceOnUse" x="-13.8" y="-1.5" width="8.5" height="9.5"><feColorMatrix values="1 0 0 0 0 0 1 0 0 0 0 0 1 0 0 0 0 0 1 0"/></filter></defs><mask maskUnits="userSpaceOnUse" x="-13.8" y="-1.5" width="8.5" height="9.5" id="mask-4_00000017500334818252291460000013350985985655108283_"><g filter="url(#Adobe_OpacityMaskFilter_00000170248856952462560760000000017179435470830737_)"><path id="path-3_00000150790811117780908000000004891001174744773767_" class="st1" d="M-13.8-1.5h8.5V8h-8.5z"/></g></mask><path id="Fill-121" d="M-13.3 3c1.3.2 2.2.7 3.1 1.7.7.8 1.4 1.9 1.8 2.7l.2-.2c.3-.2.5-.4.8-.6.5-.4 1-.8 1.4-1.1h-.2c-.9-.1-1.6-.2-1.9-.5-.4-.3.1-1 .6-1.8.1-.2.3-.6.4-.7-.2 0-.5.2-.8.3-.8.2-1.7.5-2.1.1-.4-.3-.2-1.2 0-2.5.1-.4.2-.9.2-1.2-.2.3-.4.5-.6.8-1.2 1.8-1.6 2.2-1.8 2.2-.3 0-.6-.4-.9-.8 0 0-.1-.1-.1-.2-.1.6-.2 1.5-.1 1.8zm5.1 4.9c-.1.1-.2.1-.2.1-.1 0-.2-.1-.2-.1-.7-1.3-1.3-2.3-1.9-2.9-.8-.9-1.7-1.4-3-1.6-.2 0-.3-.3-.3-.4 0-.1-.1-2.1.3-2.3.2-.1.4.1.7.5.1.2.4.5.5.6.3-.2 1-1.3 1.5-2.1.8-1.3.9-1.3 1.1-1.3.1 0 .2.1.2.2.1.4 0 1.1-.1 1.9-.1.7-.3 1.9-.1 2.1.2.2 1.1-.1 1.7-.3.7-.3 1.1-.4 1.3-.1.2.2-.1.6-.5 1.3-.2.3-.7 1.1-.6 1.2.2.2 1.1.3 1.6.4.7.1.9.1.9.3 0 .1 0 .2-.2.3-.2.1-1 .6-1.7 1.2-.2.2-.5.4-.6.6l-.4.4z" mask="url(#mask-4_00000017500334818252291460000013350985985655108283_)" fill-rule="evenodd" clip-rule="evenodd" fill="#2f3541"/></g><path id="Fill-124" class="st7" d="M92.3 78.8c-.1 0-.1 0-.2-.1s0-.2.1-.3c.4-.2 2.3-1.9 2.9-2.8.5-.7 1.4-2.8-.2-4-1.5-1.2-3.7-2-4.2-1.4-.6.7-.8 2.4.5 3.7 1.2 1.2 1.8 1.4 2.6 1.6h.2c.1 0 .2.1.1.2 0 .1-.1.2-.2.1h-.2c-.8-.2-1.4-.3-2.8-1.7-1.5-1.5-1.3-3.4-.6-4.3.9-1 3.3.2 4.7 1.3 1.6 1.3 1 3.4.2 4.5-.4 1.1-2.3 2.8-2.9 3.2.1 0 0 0 0 0"/><path id="Fill-126" class="st11" d="M68.4 73.5c0 1.2 1 2.1 2.1 2.1 1.2 0 2.2-1 2.2-2.1 0-1.2-1-2.2-2.2-2.2-1.1.1-2.1 1-2.1 2.2m2.1 2.5c-1.4 0-2.4-1.1-2.4-2.5s1.1-2.4 2.5-2.4c1.3 0 2.4 1.1 2.4 2.5 0 1.3-1.1 2.4-2.5 2.4"/><path id="Fill-128" class="st11" d="M84.6 71.4c-1.2 0-2.2 1-2.2 2.2 0 1.2 1 2.1 2.1 2.1 1.2 0 2.1-1 2.2-2.1.1-1.3-.9-2.2-2.1-2.2m0 4.6c-1.4 0-2.5-1.1-2.4-2.5 0-1.3 1.1-2.4 2.5-2.4s2.5 1.1 2.5 2.5c-.1 1.3-1.3 2.4-2.6 2.4"/><path id="Fill-130" class="st11" d="M79.2 73.9c0 .4-.2.5-.6.5-.4 0-.6-.2-.6-.6 0-.4.2-.6.6-.6.4.1.6.3.6.7"/><path id="Fill-132" class="st11" d="M75.1 73.3c.4.1.6.3.6.6s-.2.6-.6.5c-.4 0-.6-.2-.6-.6.1-.3.3-.5.6-.5"/><path id="Fill-134" class="st11" d="M77.1 73.9c0 .4-.3.6-.6.6-.4 0-.6-.2-.6-.6 0-.4.2-.6.6-.5.4-.1.6.1.6.5"/><path id="Fill-136" class="st11" d="M80.1 73.3c.3.1.6.2.6.6 0 .4-.2.6-.6.6-.4 0-.6-.2-.6-.6 0-.4.2-.6.6-.6"/><path id="Fill-138" class="st11" d="M77.2 73.3c.3 0 .6.2.6.6 0 .4-.2.6-.6.6-.4 0-.6-.2-.6-.5 0-.5.3-.6.6-.7"/><path id="Fill-140" d="M72 74.4c.7 0 .9-.4.7-1-.1-.3-.3-.5-.5-.7-.9-.7-2.2-.7-3.1-.1-.3.2-.6.5-.7.9-.1.4.1.7.5.8.5.1.9-.1 1-.5 0-.5.3-.5.7-.5.5 0 .7.1.8.5 0 .5.3.6.6.6m-3.9-.9c0-1.3 1.1-2.5 2.4-2.5 1.4 0 2.5 1.1 2.5 2.5 0 1.3-1.1 2.5-2.5 2.5-1.3 0-2.4-1.1-2.4-2.5" fill-rule="evenodd" clip-rule="evenodd" fill="#f39083"/><path id="Fill-142" d="M85.4 75.4c.2 0 .4 0 .6-.1.4-.2.5-.5.3-.9-.2-.5-.7-.7-1-.4-.4.3-.6 0-.8-.2-.4-.4-.4-.6-.2-.9.2-.3.2-.5 0-.8-.2-.3-.4-.5-.7-.5-.3 0-.5.3-.6.6 0 .1-.1.1-.1.2-.2 1.4 1.1 3 2.5 3m-.8-4.4c1.4 0 2.4 1.1 2.4 2.5S85.9 76 84.5 76c-1.3 0-2.4-1.1-2.5-2.4.2-1.5 1.2-2.6 2.6-2.6" fill-rule="evenodd" clip-rule="evenodd" fill="#bedca7"/><path id="Fill-144" class="st11" d="M70.9 74.1c.1 0 .3 0 .3-.2.1-.2 0-.4-.1-.6-.6-1.4-2.6-1.5-3.3-.1-.1.2-.2.4-.1.6.1.2.3.2.4.2.2 0 .3-.2.3-.4s.1-.4.2-.5c.5-.7 1.7-.3 1.9.6.1.3.2.4.4.4m0 .5c-.3 0-.6-.1-.6-.7-.1-.6-.3-.7-.8-.7-.3 0-.6.1-.6.7 0 .5-.5.7-.9.6-.4-.1-.6-.5-.5-1 .1-.6.4-.9.7-1.2.9-.8 2.1-.7 2.9.1.2.2.4.5.5.9.2.8-.1 1.3-.7 1.3"/><path id="Fill-146" class="st11" d="M85.1 74.1h.2c.2 0 .5 0 .6-.3.1-.2-.1-.3-.2-.5-.2-.2-.4-.1-.6 0-.1.1-.3.1-.5.1-1-.1-1.6-1.3-1.1-2.1.2-.2 0-.5-.3-.7-.3-.1-.4.1-.5.3-.1.1-.1.3-.1.4-.1 1.4 1.2 2.8 2.5 2.8m.1.5c-1.7 0-3.3-1.8-3-3.3 0-.1 0-.2.1-.2.1-.3.3-.6.7-.6.4 0 .7.2.9.5.2.3.2.6-.1.9-.3.4-.2.6.2 1 .3.2.5.5.9.2s1 0 1.3.5c.2.4.1.8-.4 1-.2-.1-.4 0-.6 0"/><path id="Fill-148" class="st1" d="M72.6 73.2c-.2 0-.4-.1-.4-.3-.2-.7-1.6-1-2.3-.5-.1.1-.2.2-.2.4s-.1.3-.3.3c-.2 0-.4 0-.5-.1-.1-.2 0-.3.1-.5.8-1.1 3.2-1 3.9.1.1.1.2.3.1.4-.1.2-.2.2-.4.2"/><path id="Fill-150" class="st1" d="M85.7 74.6c-1.1 0-2.2-1.2-2.1-2.2 0-.1 0-.2.1-.3.1-.1.1-.4.4-.3.3.1.4.4.2.6-.4.6.1 1.6.9 1.7.1 0 .3 0 .4-.1.2-.1.3-.2.5 0 .1.1.3.2.2.4-.1.2-.3.2-.5.2h-.1"/><path id="Fill-152" class="st7" d="M77.6 37.5c-5.9 0-10.7 4.8-10.7 10.7 0 5.9 4.8 10.7 10.7 10.7 5.9 0 10.7-4.8 10.7-10.7 0-5.9-4.8-10.7-10.7-10.7m0 21.6c-6 0-10.9-4.9-10.9-10.9s4.9-10.9 10.9-10.9 10.9 4.9 10.9 10.9-4.9 10.9-10.9 10.9"/><path id="Fill-154" class="st7" d="M77.6 37.8c-5.8 0-10.5 4.7-10.5 10.5s4.7 10.5 10.5 10.5C83.4 58.7 88 54 88 48.2c0-5.7-4.6-10.4-10.4-10.4m0 21.3c-6 0-10.9-4.9-10.9-10.9s4.9-10.9 10.9-10.9 10.9 4.9 10.9 10.9-4.9 10.9-10.9 10.9"/><path id="Fill-156" class="st14" d="M86.2 44.7h-.1v.1h.1s.1 0 0-.1c.1 0 0 0 0 0m.1.2.1.2-.1-.2h-.1v.1H86v-.4h.2c.1 0 .2 0 .2.1s-.1.2-.1.2m.3 0c0-.2-.2-.4-.4-.4s-.4.2-.4.4.2.4.4.4.4-.2.4-.4m.1 0c0 .3-.2.5-.5.5s-.5-.2-.5-.5.2-.5.5-.5c.1 0 .3.1.3.2.1 0 .2.1.2.3"/><path id="Fill-158" class="st14" d="M77.6 48.1c-.2.1-.5.2-.7.2h-1.3v-2.1h1.3c.3 0 .5.1.7.2.3.2.4.4.4.9 0 .4-.2.7-.4.8m-5.3-1.9h1.9v5c0 .1.1.1.1.1h1.1c.1 0 .1-.1.1-.1v-1.8H77c.5 0 1-.1 1.5-.4.6-.4.9-1.1.9-1.8s-.3-1.3-.8-1.7c-.5-.4-1-.5-1.5-.5H69c-.1 0-.1.1-.1.1v.9c0 .1.1.1.1.1h1.9v5c0 .1.1.1.1.1h1.1c.1 0 .1-.1.1-.1.1.1.1-4.9.1-4.9"/><path id="Fill-160" class="st8" d="M80.9 45.1h2.9c.1 0 .1 0 .1.1l1.8 3v.2l-1.8 3c0 .1-.1.1-.1.1h-2.9c-.1 0-.1-.1-.1-.1v-.9c0-.1 0-.1.1-.1h2.4l1.2-2-1.2-2h-2.4c-.1 0-.1-.1-.1-.1v-.9c0-.3 0-.3.1-.3"/></g></g></g></g></g></g></svg>