<svg width="9" height="12" xmlns="http://www.w3.org/2000/svg"><g fill="none" fill-rule="evenodd"><path fill="#F1F6F8" d="M-777-164H823v595H-777z"/><path d="M9 6.202C7.966 7.825 6.924 9.44 5.907 11.075c-.211.34-.43.484-.808.478a160.094 160.094 0 0 0-4.539-.001c-.407.005-.592-.13-.555-.6a6.214 6.214 0 0 0 0-.955c-.032-.41.094-.56.484-.552 1.268.024 2.536.002 3.804.015.243.003.39-.08.525-.302.588-.96 1.187-1.915 1.797-2.86.143-.22.131-.371-.007-.586-.61-.945-1.211-1.896-1.797-2.86-.14-.23-.294-.291-.53-.29C3 2.574 1.716 2.559.434 2.576c-.318.004-.447-.1-.429-.46.02-.396.01-.796.003-1.194C.004.661.101.554.344.555 2.016.562 3.687.563 5.359.554c.266-.002.375.182.5.379.988 1.564 1.978 3.127 2.968 4.69.048.076.076.173.173.196v.383Z" fill="#00284C"/></g></svg>