<?xml version="1.0" encoding="UTF-8"?> <svg xmlns="http://www.w3.org/2000/svg" viewBox="0 0 370 58.4"><path d="M40 13c-2.8-1-5.5-1.8-8.1-2.4-2.6-.5-5-.8-7.2-.8-2.8 0-4.9.5-6.4 1.4-1.5.9-2.3 2.1-2.3 3.5 0 1 .4 1.9 1.3 2.7.9.8 2.3 1.4 4.1 2.2l10.4 5c4.1 1.9 7.2 4.1 9.4 6.7 2.2 2.6 3.2 5.7 3.2 9.1-.1 5.5-2.3 9.9-6.8 13.1-4.4 3.2-10.3 4.8-17.7 4.9-2.8 0-5.8-.1-9-.5-3.1-.3-6.3-.9-9.6-1.7V44.7c3.3 1.2 6.4 1.9 9.4 2.4s5.7.8 8.1.8c3.1 0 5.4-.5 6.9-1.5 1.7-.9 2.4-2.2 2.4-3.9 0-.9-.3-1.7-.9-2.3-.6-.8-1.7-1.4-3-2.1l-11.6-4.9C8.2 31.3 5 29 3.1 26.1 1 23.5 0 20.4 0 16.8c.1-5.1 2.3-9.3 6.4-12.2C10.6 1.5 16.3.1 23.5 0c2.6 0 5.4.3 8.2.6 3 .4 5.7.9 8.2 1.4v11zm28.9 44.3h-17V1h17v56.3zm54.7-45.9H98.4v12.5h21.9v9.4H98.4v13.1h25.7v10.9H82V1h41.5v10.4h.1zm79.1 45.9h-15.8V20.2l-16.5 37.7h-9.8l-15.8-37.7v37.2h-11.4V1h20.7l14.1 34.5L183.1 1h19.7l-.1 56.3zm54.7-45.9h-25.1v12.5h21.9v9.4h-21.9v13.1h25.6v10.9h-42V1h41.5v10.4zm59.5 45.9h-18l-20.2-36.1v36.1h-11.4V1h18.5l19.7 35.5V1h11.4v56.3zM365.6 13c-2.8-1-5.5-1.8-8.1-2.4-2.6-.5-5-.8-7.2-.8-2.8 0-5 .5-6.6 1.4-1.5.9-2.3 2.1-2.3 3.5 0 1 .4 1.9 1.2 2.7.8.8 2.2 1.4 4.4 2.2l10.4 5c4.1 1.9 7.2 4.1 9.4 6.8 2.2 2.6 3.2 5.8 3.2 9.5-.1 5.3-2.3 9.5-6.8 12.6-4.4 3.2-10.4 4.8-17.9 4.9-2.7 0-5.7-.1-8.9-.5-3.1-.3-6.3-.9-9.6-1.7V44.7c3.3 1.2 6.4 1.9 9.4 2.4s5.7.8 8.1.8c3.1 0 5.3-.5 6.9-1.4 1.5-.9 2.3-2.1 2.3-3.5 0-1-.3-2.1-.9-2.8-.6-.8-1.7-1.5-3-2.1l-11.4-4.9c-4.4-1.9-7.5-4.1-9.5-6.8-1.9-2.6-3-5.8-3-9.6.1-5.1 2.2-9.3 6.3-12.2 4.2-3.1 9.9-4.5 17.1-4.6 2.4 0 5.1.3 8 .6 2.8.4 5.7.9 8.5 1.4v11z" fill="#099"></path></svg> 