<svg xmlns="http://www.w3.org/2000/svg" viewBox="0 0 100 120" enable-background="new 0 0 100 120"><style>.st0{display:none}.st1{display:inline}.st2{fill-rule:evenodd;clip-rule:evenodd;fill:#dfa676}.st11,.st14,.st15,.st19,.st5,.st7,.st8{fill-rule:evenodd;clip-rule:evenodd;fill:#fff}.st11,.st14,.st15,.st19,.st7,.st8{fill:#2f3541}.st11,.st14,.st15,.st19,.st8{fill:#fc9001}.st11,.st14,.st15,.st19{fill:#505868}.st14,.st15,.st19{fill:#00284c}.st15,.st19{fill:#c8ced9}.st19{fill:#ffddc0}.st20,.st30,.st31,.st32,.st39,.st42{fill-rule:evenodd;clip-rule:evenodd;fill:#9b9ea2}.st30,.st31,.st32,.st39,.st42{fill:#a7b3ca}.st31,.st32,.st39,.st42{fill:#fdfdfd}.st32,.st39,.st42{fill:#fcede5}.st39,.st42{fill:#cdcae6}.st42{fill:#fa9000}</style><g id="Layer_1" class="st0"><g id="Group-6" transform="translate(704 16)" class="st1"><g id="Group-162" transform="translate(92)"><path id="Fill-1" class="st2" d="M-707.5 36.5l.3-.5c.2-.3.4-.5.6-.7.4-.6 1.2-1.5 1.1-2.3-.1-.3-.3-.9-.7-1.2-.5-.3-1.2-.2-1.2-.2s-.1 1.3-.1 1.5c.1.4 0 3.4 0 3.4"/><path id="Fill-3" class="st2" d="M-761.4 69.5c-.4-.2-.4-.7-.6-1.1-.4-.7-.9-1.5-1.3-2.3-.9-1.6-1.4-3.4-1.9-5.2-.7-2.6-1.3-5.1-1.6-7.8-.2-1.4-.4-3-.2-4.4.2-1.5 1.4-2.7 1.9-4.1.6-1.5.8-3.1.8-4.7 0-1.2.1-2.4 0-3.6-.1-.5-.2-1.4-.6-1.8-.5-.5-1.2-.3-1.8-.7-.9-.7-1.4-1.7-1.7-2.9-.1-.4-.2-1.2-.2-1.6.1-.4.2-1 .5-1.2.4-.3.8-.2 1.1-.5.4-.5.6-1.2 1-1.8l1.5-2.4c1-1.5 2.2-3 3.4-4.3 1.8-1.9 3.8-4.1 6.5-4.5.6-.1 1.2 0 1.7.2 3.5 1.2 4.3 4.9 5.1 8 .2.8.5 1.5.8 2.3.3.9.6 1.9 1.1 2.7.4.6.8 1 1 1.7.3 1.7-.4 3.2-1.6 4.4-.2.2-.8.4-.8.4s-.4 1.5-.5 1.9c-.2.7-.5 1.1-.7 1.8-.3.8-.9 1.6-1.4 2.2-.3.4-.9 1.1-.9 1.1s-.2 2.4.2 3.1c.3.5.7 1 1.2 1.4.4.4 1 .9 1 .9s-.7 3.4-1.3 4.8c-.7 1.7-1.6 3.3-2.6 4.9-1.6 2.7-3.4 5.4-5.2 8-.8 1.1-1.6 2.2-2.5 3.3-.4.4-.7.9-1.2 1.2l-.2.6z"/><path id="Fill-5" d="M-765.1 41.5s-.9.2-1.2.5c-.5.4-1 1.2-1.4 1.9-.4.7-.8 1.5-1.2 2-.3.3-1.6 2-1.6 2s-.6.2-.8.3c-.9.7-2.5 1.1-3.5 1.6-1.8.9-2.6 1-4.3 2-1 .6-1.8 1.1-2.7 1.8-1.5 1.1-2.7 3.7-3.2 4.9-.5 1.2-.9 2.8-1.1 3.4-.7 2.8-1.3 6.4-1.5 8.3-.2 1.4-.4 3.4-.6 4.3-.2.9-.2 2.1-.3 3.1-.3 2.2-.5 5.2-.7 6.7-.2 1.5-.4 1.8-.3 3 .1 1.2 4.4 1.3 6.7 1.1 2.2-.1 4.1-.7 5.9-.9 2.4-.3 5.8.3 8.6.6s7.2.7 10.3 1c4.2.4 9.5.5 13.7.1 1.8-.2 5.8-.9 6-1.1.1-.2.5-2 .7-2.4.3-1.4 1.5-6.5 1.5-6.5s2.1-.3 3-.8l1.6-.8c.5-.3.8-.6 1.2-.9 2.9-2.2 4.7-4.9 6-8.2.3-.7.9-3.3.9-3.3s.9-.5.8-1.2c-.3-1.7-1.3-3.3-2.2-4.8-2.2-4-6.1-7.3-10.3-9.1-1-.4-2-1-3.1-1.2-.9-.2-2.3-.5-2.3-.5s-1.3-.2-2.1-.3c-.8-.1-4-.7-4-.7s-.8-2-1.2-2.7c-.7-1.1-1.1-2.2-2.4-2.7-.8-.3-1.3-.4-1.3-.4s-.3 1.4.1 2.6c.5 1.4 1.6 2.2 1.6 2.2.1 1.2-2.9 6.9-3.3 7.6-1.8 2.8-6 8.1-8.1 11.6-1.3 2.1-.9 3.4-1.3 3.3-.2 0-4.1-7.2-4.9-14.1-.2-1.4-.3-3.1-.3-5 .1-1.5.4-3.4.4-3.4s.8-.8 1.2-2c.8-1.2 1-2.9 1-2.9" fill-rule="evenodd" clip-rule="evenodd" fill="#fc9590"/><path id="Fill-7" d="M-731.2 20.9s.2-.9.7-1.5c.6-.6 1.5-.9 1.5-.9l19.1.2s1.2.1 1.8.7c.6.6.6 1.6.6 1.6l-.4 41.8s0 1.1-.5 1.7c-.5.6-1.5.8-1.5.8l-18.8-.3s-1.4 0-2.1-.7c-.7-.6-.7-1.8-.7-1.8l.3-41.6z" fill-rule="evenodd" clip-rule="evenodd" fill="#858d97"/><path id="Fill-9" class="st5" d="M-728.7 20.5l3.7.1s-.1.7.2 1.1c.3.4.8.3.8.3l9.1.1s.6 0 .9-.4c.3-.4.2-1 .2-1l3.8.1s.7 0 1 .5c.4.5.4 1.3.4 1.3l-.3 40.5s-.1.6-.4.9c-.3.3-.8.4-.8.4l-18.7-.4s-.9-.1-1.3-.5c-.4-.5-.4-1.3-.4-1.3l.2-39.9s0-.8.4-1.3c.5-.3 1.2-.5 1.2-.5"/><path id="Fill-11" class="st2" d="M-707.5 52.5s.1.1.6-.4c.5-.4 1-1 1.4-1.6.5-.8.8-1.3 1-2.2.1-.5.2-1.4-.2-1.9-.2-.3-.5-.6-.8-.8-.5-.3-1-.7-1.6-.9-.5-.1-1-.4-1.6-.3-.9.2-.9 1.9-.6 2.7.4.9 1.8 2.1 1.8 2.1v3.3z"/><path id="Fill-13" class="st2" d="M-707.7 60.4c0 .3 0 .1.7-.3.6-.4 1.2-1 1.6-1.6.3-.4.5-.6.7-1 .1-.2.2-.6.2-.8.1-.4 0-.7-.1-1.1-.1-.3-.5-.7-.7-.9-.6-.5-1-.6-1.8-.9-.5-.2-1.1-.4-1.6-.3-.7.2-.9 1.5-.7 2.1.4 1.1 1.7 2.1 1.7 2.1s-.1 2.1 0 2.7"/><path id="Fill-15" class="st2" d="M-707.7 44.5l1.4-1.4c.6-.6 1.4-1.4 1.7-2.3.1-.4.2-1 .1-1.4-.3-.7-.9-1-1.5-1.3-.8-.3-2.2-1.1-3-.2-.1.2-.3.8-.4 1-.1.9-.1 1.7.4 2.4.2.3.4.6.7.8l.6.6v1.8z"/><path id="Fill-17" class="st2" d="M-728.5 65.1c.3-.2-1.1.1-2.3-.4-.9-.3-1.1-1.8-1.1-1.8v-16s.4-3.4.2-4.7c-.2-1.5-.9-2.5-2.1-3.3-.4-.2-1.1-.6-1.6-.3-.9.6-.7 1.8-.8 2.7-.1 1.2.3 2.3-.3 3.3-.7 1.2-2.4 2.3-3.3 3.4-1.9 2.4-3.7 4.7-4.4 7.7-.2.9-.4 2.1-.2 3 .1.6.3 1.2.5 1.8.4 1.1 1.3 3.1 1.3 3.1s-.1 1-.1 1.3c0 .8.1 1.7.2 2.5.3 2 1.5 3.8 3.3 4.6.4.2 1.1.2 1.5.3.5.1 1.1.3 1.6.2 1.4-.3 2.6-.7 3.6-1.7.3-.3.8-.8 1-1.3.2-.8.7-1.5.8-2.3.1-.3.2-1.2.2-1.2s.3-.1.4-.1c.6-.3 1.1-.5 1.6-.8"/><path id="Fill-19" class="st5" d="M-752.5 37.6c0-.2-.5.1-.7.1-.5.1-.9.1-1.4.1-.7 0-1.5.1-2.2-.1-.1 0-.7-.2-.8-.1 0 0 .1.5.1.6.3.6.4 1.2.9 1.6.5.5 1.4.9 2.1.7 1-.4 2-1.8 2-2.9"/><path id="Fill-21" d="M-769.1 28.6s-1.1-2-1.2-3.7c-.1-.9-.3-2.7-.2-3.6.1-1.5.5-2.6 1-4 .3-.9 1-1.9 1.5-2.6.2-.3.9-1.2.9-1.2s-.9.1-.9-.3c-.1-.5.6-1.1.3-1.6-.4-.5-1.6-.3-1.6-1.3 0-.5.7-.7.8-1.1.1-.6-.9-1.3-.4-1.9.5-.6 1.6.1 2-.6.1-.2 0-.9-.2-1.1-.2-.2-.5-.3-.4-.6.1-.4.5-.8.9-.8.1 0 .5.1.7-.1.3-.3-.5-1.2-.1-1.3.1 0 .3-.3.4-.3.4 0 .7.3.9 0 .4-.6.1-1.5.8-1.9.3-.2.6-.1.9.2.1.1.3.4.4.2.4-.4-.2-1.1.2-1.5.1-.1.3-.1.4-.1.7-.1.9.9 1.6.8.3-.1.4-.4.5-.7.1-.3.1-.7.4-.8.4-.2.8 0 1 .3.1.2.3.5.5.6.2.1.5-.3.7-.1.3.1.4.6.5.6.1 0 .7-.5 1.1-.3.4.2.3 1 .4 1.3 0 .1 0 .4.2.5 1.1.3.8-1.7 1.9-1.3.6.2 1.1.8 1.2 1.4.1.3 0 1 .2 1.3.5.5 1.2-.4 1.7.1.1.1.3.7.3.9 0 .1-.2.5-.1.6.1.1.3 0 .4.1.4.1.9 0 1.2.4.1.2.2.4.2.6 0 .1-.2.7-.1.8.2.2.5-.2.7-.2.2 0 .4.3.6.5.3.5.4 1.2 0 1.6-.3.3-.8.2-.9.8 0 .4.4.5.5.8.1.2-.3.6-.3.8 0 .3.3.7.2 1-.1.3-.6.5-.6.5s.7.6 1 .9c.5.4 1.1 1.2 1.4 1.8 1.1 2.2 1.6 4.4 2 6.9.1.7 0 1.6.1 2.2 0 .6-.3 1.7-.4 2.4-.1.9-.5 1.8-.8 2.4s-.5 1-.6 1.1c0 0-.7-.6-.8-.6-.9-.2-.9-.6-1.4-1.3-.3-.5-.7-1.6-.9-2.1-.3-1-.6-1.9-.8-2.8-.2-.7-.2-1.7-.5-2.4-.4-.9-.9-1.8-2-2.1-.7-.2-1.5 0-2.2-.2-1.3-.3-2.5-.9-3.8-.6-.9.2-1.6 1.6-2 2.3-.6 1.1-1 2.1-1.6 3.2-.4.7-1.6 1.9-1.6 1.9s.2-.3-.6 1.1c-.8 1.4-1.9 1.8-2.8 2-.4.1-1 0-1.6.1-.7-.3-1.2.1-1.2.1" fill-rule="evenodd" clip-rule="evenodd" fill="#9b745c"/><path id="Fill-23" class="st7" d="M-707 44.5c-.1 0-.2-.1-.2-.1v-1.7c0-.1.1-.1.2-.1s.2.1.2.1v1.7s-.1.1-.2.1"/><path id="Fill-25" class="st7" d="M-731.3 42.5c-.1 0-.2-.1-.2-.2l.1-21c0-.1 0-1.3.9-2.1 1-.9 2.1-.8 2.1-.8l18.4.2c.1 0 1.3 0 1.9.8.6.8.6 1.7.6 1.7l-.1 16.1c0 .1-.1.2-.2.2s-.2-.1-.2-.2v-.4l.1-15.7s0-.8-.5-1.5-1.7-.7-1.7-.7l-18.4-.2s-1-.1-1.9.7c-.8.7-.8 1.8-.8 1.9l-.1 21c.1.1 0 .2 0 .2"/><path id="Fill-27" class="st7" d="M-723.7 65.5h-.1l-5.1-.1c-.1 0-1.3-.1-2-.8-.6-.7-.7-1.8-.7-1.9l.1-16.1c0-.1.1-.2.2-.2s.2.1.2.2l-.1 16.1s0 1.1.6 1.6c.6.6 1.7.7 1.7.7l5.2.1c.1 0 .2.1.2.2s-.1.2-.2.2"/><path id="Fill-29" class="st7" d="M-716.7 64.5l-11.9-.2s-1 0-1.5-.6-.4-1.6-.4-1.6l.2-19.4c0-.1.1-.2.2-.2s.2.1.2.2l-.2 19.4s-.1.9.3 1.4c.4.5 1.3.5 1.3.5l11.9.2c.1 0 .2.1.2.2-.1 0-.2.1-.3.1"/><path id="Fill-31" class="st7" d="M-709.9 63.5s-.1 0 0 0l-6.4-.1c-.1 0-.2-.1-.2-.2s.1-.1.2-.1l6.4.1c.3 0 .5-.1.7-.3.2-.2.4-.6.4-.9v-5.5h.4V62c0 .4-.2.8-.5 1.1-.4.3-.7.4-1 .4"/><path id="Fill-33" class="st7" d="M-709 53.5c-.1 0-.2-.1-.2-.1l.1-4.7c0-.1.1-.1.2-.1s.2.1.2.1l-.1 4.7s-.1.1-.2.1"/><path id="Fill-35" class="st7" d="M-709 44.5c-.1 0-.2-.1-.2-.1v-2.7c0-.1.1-.1.2-.1s.2.1.2.1v2.7s-.1.1-.2.1"/><path id="Fill-37" class="st7" d="M-730.3 42.5c-.1 0-.2-.1-.2-.2l.1-20.7c0-1 .7-2 2-2.1l3.5.1c.1 0 .1 0 .1.1v.1s-.2.6.1.9c.1.2.4.3.7.3 1.3.1 8.3.2 9 .1.4 0 .7-.2.9-.4.2-.3.1-.8.1-.8v-.1l.1-.1 3.5.1s1 0 1.4.5c.5.5.5 1.4.5 1.4l-.1 15.2c0 .1-.1.2-.2.2s-.2-.1-.2-.2v-.7l.1-14.5s0-.8-.4-1.2c-.4-.4-1.2-.4-1.2-.4l-3.3-.1c0 .2 0 .6-.2.9-.2.3-.6.5-1.2.5-.7 0-7.8 0-9.1-.1-.4 0-.7-.2-.9-.5-.2-.3-.2-.7-.2-1l-3.3-.1c-1.2.1-1.6 1.2-1.6 1.8l-.1 20.7c.2.2.2.3.1.3"/><path id="Fill-39" class="st7" d="M-707 52.5c-.1 0-.1 0-.1-.1s0-.2.1-.2c.4-.2 2.2-1.9 2.6-2.6.9-1.6.8-2.7-.1-3.4-1.5-1-3.5-1.7-4.1-1.2-.6.6-.8 2 .5 3.2 1.2 1.1 1.7 1.2 2.5 1.3h.2c.1 0 .1.1.1.2s-.1.1-.2.1h-.2c-.8-.2-1.4-.3-2.7-1.4-1.4-1.2-1.2-2.9-.5-3.6.8-.8 3.2.2 4.6 1.1.8.5 1.4 1.6.2 3.8-.5.8-2.3 2.5-2.9 2.8.1 0 0 0 0 0"/><path id="Fill-41" class="st7" d="M-707.3 44.5h-.1c-.1-.1-.1-.2 0-.2 0 0 2.3-1.9 3-2.8.5-.7.6-1.3.5-1.8-.1-.4-.4-.6-.9-.8-.2-.1-.5-.2-.7-.3-.9-.4-1.6-.7-2.6-.6-.4 0-.7.3-.8.6-.4.8-.3 2.1.3 2.8.9 1.1 2 1.6 2 1.6.1 0 .1.1.1.2s-.1.1-.2.1c0 0-1.2-.5-2.1-1.7-.6-.8-.8-2.2-.3-3.1.3-.5.6-.7 1.1-.7 1.1-.1 1.9.3 2.8.7.2.1.5.2.7.3.5.2.9.6 1.1 1 .2.6 0 1.3-.5 2.1-.7 1-2.9 2.8-3 2.9-.3-.3-.3-.3-.4-.3"/><path id="Fill-43" class="st7" d="M-707.4 37.5c-.1 0-.1-.1-.1-.2.2-.8.6-1.4.9-1.9.4-.6.7-1.1.8-1.9.1-.7-.2-1.2-.4-1.4-.3-.3-.7-.4-1-.3-.1 0-.1 0-.2-.1 0-.1 0-.2.1-.2.4-.2.9 0 1.3.3.4.4.5 1 .5 1.7-.1.8-.5 1.4-.8 2-.3.5-.7 1-.9 1.8-.1.2-.1.2-.2.2"/><path id="Fill-45" class="st7" d="M-707 53.5c-.1 0-.2-.1-.2-.2l.1-3.7c0-.1.1-.1.2-.1s.2.1.2.2l-.1 3.7s-.1.1-.2.1"/><path id="Fill-47" class="st7" d="M-710.2 65.5h-.3l-13.9-.2c-.1 0-.2-.1-.2-.2s.1-.2.2-.2l13.9.2s1.2.1 1.9-.5c.6-.5.7-2 .7-2l.1-5c0-.1.1-.2.2-.2s.2.1.2.2l-.1 5c0 .1-.1 1.6-.8 2.2-.6.6-1.4.7-1.9.7"/><path id="Fill-49" class="st7" d="M-731.9 49.5c-.2-.1-.2-.2-.1-.2.9-1.2 1.3-3.3 1.1-5.4-.1-1-.4-1.9-.7-2.5-.5-.8-1.6-1.6-2.6-1.6-.5 0-.9.3-1.2.9-.2.5-.2 1-.1 1.7.1.5.1 1 .1 1.7-.1 1.6-.3 2.1-.8 3.3 0 .1-.1.1-.2.1s-.1-.1-.1-.2c.5-1.2.7-1.7.8-3.2 0-.6 0-1.2-.1-1.7-.1-.7-.2-1.3.1-1.9.4-.8 1-1 1.5-1.1 1.1-.1 2.4.8 2.9 1.7.4.7.7 1.6.8 2.6.2 2.1-.3 4.4-1.2 5.6 0 .2-.1.2-.2.2"/><path id="Fill-51" class="st7" d="M-741.2 66.5c-.1 0-.1 0-.2-.1-.3-.6-.6-1.4-1.1-2.2-.9-1.8-1.9-3.7-2.1-5.3-.4-4 2.4-9 7.7-13.4.1-.1.2-.1.2 0 .1.1.1.2 0 .2-5.1 4.3-8 9.2-7.6 13.2.2 1.5 1.2 3.4 2 5.1l1.1 2.2c.2.2.2.3 0 .3.1 0 .1 0 0 0"/><path id="Fill-53" class="st7" d="M-734.3 68.5h-.1c-.1-.1-.1-.2 0-.2 1-.8 2.4-1.2 3.4-1.5 1-.3 2.3-.7 3.3-1.2.1 0 .2 0 .2.1s0 .2-.1.2c-1 .5-2.3 1-3.3 1.2-1 .3-2.4.7-3.3 1.4h-.1"/><path id="Fill-55" class="st7" d="M-737.3 59.5c-.1 0-.2-.1-.2-.1 0-.1.1-.2.2-.2 2.5-.3 4.8-2.6 5.5-5.5 0-.1.1-.1.2-.1s.2.1.1.2c-.7 3-3.2 5.4-5.8 5.7"/><path id="Fill-57" class="st7" d="M-736.2 79.5h-.8c-1.6-.2-3.3-1.3-4.6-3.2-2.1-2.8-3.7-7.9-2.6-12.7 0-.1.1-.1.2-.1s.1.1.1.2c-1.1 4.7.5 9.6 2.5 12.4 1.3 1.8 2.9 2.9 4.4 3h.8c5 0 11.7-5.6 13.3-13.6 0-.1.1-.1.2-.1s.1.1.1.2c-1.6 8.2-8.4 13.9-13.6 13.9"/><path id="Fill-59" class="st7" d="M-737.4 88.5c-.1 0-.1-.1-.1-.2.2-.9.5-2.3.7-3.6.5-2.3 1-4.7 1-5.1 0-.1.1-.1.1-.1.1 0 .1.1.1.2 0 .4-.5 2.7-1 5.1-.3 1.3-.5 2.7-.7 3.6 0 .1 0 .1-.1.1"/><path id="Fill-61" class="st7" d="M-778.8 88.5c-.1 0-.1-.1-.1-.2 0-2.9-.5-5.2-.9-7.2-.3-1.3-.6-2.6-.6-3.8-.2-2.8.4-5 .8-6.6 0-.2.1-.4.1-.5V70c.4-1.6 1-4.3.6-8.3 0-.1.1-.2.1-.2.1 0 .2.1.2.1.4 4.1-.2 6.8-.6 8.4v.2c0 .2-.1.3-.1.5-.4 1.6-.9 3.7-.7 6.5.1 1.2.3 2.5.6 3.8.4 2 .9 4.3.9 7.3-.1.1-.2.2-.3.2"/><path id="Fill-63" class="st7" d="M-748.6 46.5c-.1 0-.1 0 0 0-1.5-1.2-2-2.8-1.8-4.9 0-.1.1-.1.2-.1s.1.1.1.2c-.2 2 .3 3.5 1.6 4.6.1.1.1.1 0 .2h-.1"/><path id="Fill-65" class="st7" d="M-739.6 48.5c-.1 0-.1 0 0 0-.3-.1-.8-.1-1.4-.1-1.2-.1-2.8-.2-4.3-.6-.1 0-.1-.1-.1-.2s.1-.1.2-.1c1.5.4 3.1.5 4.3.6.6 0 1.1.1 1.4.1.1 0 .1.1.1.2-.1.1-.2.1-.2.1"/><path id="Fill-67" class="st7" d="M-766.4 46.5c-.2-.1-.2-.2-.1-.3 1.2-1.4 2.2-4.9 1.4-10.6 0-.1 0-.2.1-.2s.2 0 .2.1c.9 5.8-.2 9.4-1.4 10.8-.1.2-.1.2-.2.2"/><path id="Fill-69" class="st7" d="M-789.3 88.5c-.1 0-.2-.1-.2-.2.3-2.7.7-5.3.9-7.9 1.3-11.5 2.4-20.6 5.9-24.9 1.8-2.3 5.4-3.8 8.9-5.3 1.4-.6 2.8-1.2 4.1-1.8.1 0 .2 0 .2.1s0 .2-.1.2c-1.3.6-2.7 1.2-4.1 1.8-3.4 1.4-7 2.9-8.8 5.2-3.4 4.2-4.5 13.3-5.8 24.7-.3 2.5-.6 5.1-1 7.9.1.1 0 .2 0 .2"/><path id="Fill-71" class="st7" d="M-753.3 18.5c-.1 0-.2-.1-.2-.2.2-1 1.3-2 2.9-1.7.1 0 .2.1.1.2 0 .1-.1.2-.2.1-1.5-.3-2.3.8-2.4 1.5-.1 0-.1.1-.2.1"/><path id="Fill-73" class="st7" d="M-769.3 39.5c-.1 0-.2-.1-.2-.2s.1-.2.2-.2c.3 0 .6-.1.7-.3.1-.1.1-.3 0-.6-.1-.2-.2-.3-.3-.5-.2-.3-.4-.6-.4-1.1 0-.6.5-.7.8-.8.3-.1.5-.1.6-.3.2-.3.1-.5-.2-.9-.2-.3-.4-.7-.2-1.1.1-.3.5-.4.7-.5.3-.1.5-.2.6-.4.1-.3 0-.6-.1-1-.2-.5-.3-1 .1-1.4.3-.3.7-.4 1.1-.6.5-.2.9-.3 1.1-.7.1-.2.1-.4.1-.6 0-.3 0-.5-.1-.8 0-.1 0-.2.1-.2s.2 0 .2.1c.1.3.1.6.1.9 0 .3 0 .5-.1.7-.2.6-.8.8-1.3.9-.4.1-.7.2-1 .5-.3.3-.2.7 0 1.1.1.4.3.8.1 1.2-.2.4-.5.5-.8.6-.3.1-.4.1-.5.3-.1.3 0 .5.2.8.2.4.5.8.2 1.2-.2.3-.5.4-.8.4-.4.1-.6.1-.6.5s.2.6.4.9c.1.1.2.3.3.5.2.3.2.6 0 .9-.2.5-.5.7-1 .7z"/><path id="Fill-75" class="st7" d="M-745.6 40.5c-.1 0-.1 0-.2-.1 0-.1 0-.2.1-.2.2-.1.4-.2.4-.3 0-.1-.1-.3-.2-.4-.2-.2-.3-.5-.2-.7.1-.3.4-.4.6-.4.1 0 .2-.1.3-.1.1-.2.1-.3-.1-.5-.1-.1-.2-.3-.2-.4 0-.2.3-.3.6-.4h.1c.1 0 .2-.2.2-.3 0-.3-.2-.5-.4-.7-.2-.2-.5-.5-.5-.8 0-.4.4-.6.7-.8.4-.2.6-.4.5-.8-.2-.5-.6-.9-1.1-1.2-.4-.3-.7-.6-1-1-.3-.5-.3-1-.4-1.6 0-.3-.1-.7-.1-1 0-.1 0-.2.1-.2s.2 0 .2.1c.1.3.1.6.2 1 0 .5.1 1.1.3 1.5.2.4.6.6.9.9.5.4 1 .8 1.2 1.4.2.6-.3.9-.6 1.1-.3.2-.5.3-.5.6 0 .2.2.4.4.6.2.2.5.5.5.9 0 .2-.1.5-.4.6h-.1c-.1 0-.2.1-.3.1 0 .1.1.2.1.3.1.2.3.5.1.9-.1.2-.3.2-.5.3-.2 0-.3.1-.3.2-.1.1.1.3.2.5.2.2.3.4.2.7-.1-.1-.3.1-.8.2.1 0 .1 0 0 0"/><path id="Fill-77" class="st7" d="M-767.1 13.5h-.1-.2c-.2 0-.5 0-.7-.4-.2-.4 0-.5.2-.7l.1-.1c.1-.2 0-.7-.2-.9-.1-.1-.3-.1-.5-.2-.4-.1-1-.2-1-.8 0-.4.2-.6.4-.9.2-.2.4-.4.4-.7 0-.2-.1-.4-.2-.5-.2-.4-.4-.8-.2-1.2.3-.5.8-.4 1.2-.4.4.1.6.1.7-.1.2-.3.2-.6.1-.9 0-.1-.1-.1-.2-.2-.2-.1-.4-.3-.3-.6 0-.3.3-.9.6-1 .2-.1.3 0 .5 0 .3.1.3.1.4-.1.1-.2 0-.3-.1-.5s-.2-.4-.1-.7c.3-.6.8-.5 1.1-.4.1 0 .3.1.3 0 .1-.1.2-.5.2-.8.1-.5.2-1 .5-1.2.6-.2 1 .1 1.2.2l.1.1v-.6c0-.3-.1-.6.1-.8.1-.1.3-.2.5-.1.4 0 .6.3.8.4.3.3.5.4.9.3.2-.1.2-.3.3-.6 0-.3.1-.8.6-.9.7-.1 1.2.2 1.5.8.1-.1.4-.3.7-.1.3.1.4.4.5.5.2-.1.6-.3.9-.2.2 0 .4.2.5.4.2.3.2.6.2.9 0 .2 0 .3.1.4h.3c.3-.1.4-.3.5-.6.1-.3.3-.7.8-.7.6 0 1.5.8 1.6 1.4v.4c0 .4 0 .9.4 1 .1 0 .2 0 .4-.1.3-.1.7-.3 1.1.1.5.5.3 1 .2 1.3v.1h.2c.4 0 1.1-.1 1.4.5.3.5.1.9-.1 1.1 0 .1-.1.1-.1.2 0 0 0 .1.1.1l.2-.1c.1-.1.2-.1.3-.1.5-.1.9.7 1 1 .2.5-.1 1.2-.6 1.5-.1.1-.3.1-.4.1-.1 0-.2 0-.2.2s.1.3.2.5c.1.1.1.2.2.3.1.3 0 .5-.1.6-.1.1-.1.2-.1.2 0 .2.1.3.1.5.1.2.2.4.1.6-.1.2-.2.3-.5.4-.1 0-.1 0-.2.1h-.1c-.1 0-.2 0-.2-.1s0-.2.1-.2.1 0 .2-.1h.1c.2-.1.3-.2.3-.2 0-.1 0-.2-.1-.4s-.2-.4-.2-.7c0-.1.1-.2.2-.3.1-.2.1-.2.1-.3 0-.1-.1-.2-.2-.2-.1-.2-.3-.4-.3-.8.1-.3.3-.4.4-.4.1 0 .2 0 .3-.1.3-.2.5-.8.4-1.1-.1-.3-.4-.8-.7-.8-.1 0-.1.1-.2.1-.1.1-.3.2-.5.1-.1 0-.2-.1-.3-.2-.1-.2 0-.4.1-.5.1-.2.3-.4 0-.7-.2-.4-.8-.4-1.1-.3-.3 0-.4 0-.5-.1-.1-.1 0-.3 0-.4.1-.3.2-.6-.1-.9-.3-.3-.5-.2-.8-.1-.2.1-.4.2-.7.1-.5-.2-.6-.8-.6-1.3v-.4c-.1-.4-.9-1.1-1.3-1.1-.3 0-.4.2-.5.5-.1.3-.3.7-.7.8-.3.1-.4 0-.5-.1-.2-.1-.2-.4-.2-.6 0-.2 0-.5-.2-.7l-.3-.3c-.3-.1-.7.2-.8.3h-.2c-.1 0-.1-.1-.1-.2s-.1-.3-.3-.4c-.2-.1-.3 0-.4.1-.1.1-.2.1-.3.1 0 0-.1 0-.2-.1-.3-.6-.7-.9-1.2-.8-.3.1-.3.2-.3.6 0 .3-.1.7-.5.9-.6.2-1-.1-1.2-.3-.2-.2-.4-.3-.7-.4h-.2c-.1.1-.1.3 0 .5v.7c0 .1-.1.2-.2.3-.1.1-.3 0-.4-.1-.2-.2-.5-.4-.9-.2-.2.1-.3.5-.3.9-.1.4-.1.8-.3 1-.2.2-.4.1-.6.1-.4-.1-.6-.1-.7.2-.1.1 0 .2.1.4s.2.4.1.7c-.2.4-.6.3-.8.3-.1 0-.2-.1-.3 0-.2.1-.4.6-.4.8 0 .1.1.2.2.3.1.1.2.1.3.3.2.3.2.8-.1 1.2-.2.3-.6.3-1 .2-.5-.1-.7-.1-.9.2-.1.2 0 .5.2.9.1.2.2.4.3.7.1.4-.2.7-.4.9-.2.2-.4.4-.3.6 0 .4.3.5.8.6.3.1.5.1.7.3.2.2.4.9.2 1.3l-.2.2c-.1.1-.1.1-.1.3.1.2.2.2.4.2.1 0 .3 0 .5.1.1.1.1.2 0 .2.1-.1.1-.1 0-.1"/><path id="Fill-79" class="st7" d="M-756 43.5c-3.5 0-6.5-2.9-7.5-5 0-.1 0-.2.1-.2s.2 0 .2.1c.9 2 3.8 4.8 7.2 4.8h.2c2.8-.1 4.7-1.5 6.5-4.7 1.1-1.9 1.5-4.7 1.5-5.8 0-.1.1-.2.2-.2s.2.1.2.2c0 1.1-.5 4-1.5 5.9-1.9 3.4-3.8 4.8-6.7 4.9h-.4"/><path id="Fill-81" class="st7" d="M-747.3 34.5h-.1c-.1 0-.1-.1-.1-.2s.1-.1.2-.1c0 0 .2 0 .4-.1.6-.3 1.6-1.3 1.9-2.5.2-.8.3-1.8-.2-2.4-.2-.3-.6-.4-1.2-.4-.1 0-.2-.1-.2-.2s.1-.2.2-.2c.6 0 1.1.1 1.4.5.6.7.5 1.8.3 2.7-.3 1.3-1.4 2.3-2 2.7-.2.1-.4.2-.6.2"/><path id="Fill-83" class="st7" d="M-745.7 28.5c-2.6-.9-2.9-2.3-3.5-4.7-.2-.6-.3-1.3-.5-2.1-.4-1.4-1.2-3-2.6-2.9-.1 0-.2-.1-.2-.1 0-.1.1-.2.2-.2 1.3 0 2.3 1.1 3 3.2.2.8.4 1.5.6 2.1.6 2.3.9 3.6 3.2 4.4.1 0 .1.1.1.2-.1.1-.2.1-.3.1"/><path id="Fill-85" class="st7" d="M-766.5 27.5c-.3 0-.6 0-.8-.1-.1 0-.1-.1-.1-.2s.1-.1.2-.1c2.8.7 5.4-2.7 6.8-5.8 1-2.3 1.8-3.3 2.8-3.7.6-.2 1.3-.1 2.1.3.1 0 .1.1.1.2s-.1.1-.2.1c-.7-.4-1.3-.4-1.9-.3-.9.3-1.7 1.4-2.6 3.5-1.4 3-3.8 6.1-6.4 6.1"/><path id="Fill-87" class="st7" d="M-752.3 26.5c-.1 0-.1 0-.2-.1 0-.1 0-.2.1-.3.7-.4 2.4-1.1 3.8-.1.1.1.1.2 0 .3-.1.1-.2.1-.2.1-1.2-1-2.8-.3-3.5.1"/><path id="Fill-89" class="st7" d="M-762.3 27.5c-.1 0-.1 0-.1-.1v-.3c1.2-1 3.4-.7 3.9-.2.1.1.1.2 0 .3-.1.1-.2.1-.2 0-.4-.4-2.4-.6-3.6.3"/><path id="Fill-91" class="st7" d="M-755.4 34.5s-.1 0-.1-.1 0-.2.1-.2c.4-.2.6-.4.6-.6.1-.3 0-.5-.2-.9-.2-.6-.5-1.2-.2-2.1 0-.1.1-.1.2-.1s.1.1.1.2c-.3.8 0 1.4.2 1.9.2.4.3.8.2 1.1-.1.3-.4.6-.9.8.1 0 0 0 0 0"/><path id="Fill-93" class="st7" d="M-749.5 30.5c0-.6-.4-1-1-1s-1 .4-1 1 .4 1 1 1c.5 0 1-.4 1-1"/><path id="Fill-95" class="st7" d="M-744.4 29.5c-.1 0-.1 0 0 0-.2-.1-.2-.2-.1-.2 2.6-4.2 2-10.5.1-14.3-1.8-3.5-4.3-4.6-5.8-4-.1 0-.2 0-.2-.1s0-.2.1-.2c1.6-.7 4.3.3 6.2 4.1 1.9 3.9 2.6 10.3-.1 14.6-.1.1-.2.1-.2.1"/><path id="Fill-97" class="st7" d="M-768.9 28.5c-.1 0-.1 0-.1-.1-1.3-2-2.6-8 .1-12.5 2.4-4 5.3-5.6 7.8-6.7 2.1-.9 5.4-.9 7.2 0 .7.4 1.2.9 1.4 1.4 0 .1 0 .2-.1.2s-.2 0-.2-.1c-.1-.5-.5-.9-1.2-1.2-1.8-.9-5-.9-7 0-2.5 1.1-5.3 2.7-7.7 6.6-2.7 4.4-1.4 10.2-.1 12.2.1 0 .1.1-.1.2.1 0 0 0 0 0"/><path id="Fill-99" class="st7" d="M-766.1 34.5c-.4 0-.8-.1-1.2-.4-1.2-.7-1.9-2.3-2.1-3.4-.3-1.2-.1-2.2.5-2.8.5-.5 1.2-.6 2.1-.4.1 0 .2.1.1.2 0 .1-.1.1-.2.1-.8-.2-1.4-.1-1.8.3-.5.5-.6 1.3-.4 2.4.3 1.1 1 2.6 2 3.2.4.3.9.4 1.4.3.1 0 .2 0 .2.1s0 .2-.1.2c-.2.2-.3.2-.5.2"/><path id="Fill-101" class="st7" d="M-758.5 30.5c0-.6-.4-1-1-1s-1 .4-1 1 .4 1 1 1 1-.4 1-1"/><path id="Fill-103" class="st7" d="M-758.1 37.9c.2.6.8 2.3 2.6 2.3s2.4-1.7 2.6-2.3c-.4.1-1.3.2-2.4.2-1.1 0-2.3-.1-2.8-.2m2.7 2.6s-.1 0 0 0c-2.5-.1-3.1-2.7-3.1-2.8v-.1s.1-.1.1 0c0 0 1.6.2 3 .2 1.6 0 2.6-.2 2.6-.2h.1s.1.1 0 .1c.2 0-.3 2.8-2.7 2.8"/><path id="Fill-105" class="st7" d="M-766.6 32.5s-.1 0-.1-.1c-.2-.5-.5-1.2-.7-1.5-.1-.1-.1-.2 0-.3 0-.1.1-.1.2-.1.3.4.7 1.1.8 1.7-.1.1-.1.2-.2.3"/><path id="Fill-107" class="st7" d="M-763.3 89.5c-.1 0-.2-.1-.2-.2.1-1.9.1-3.4.2-4.9.1-2.7.1-5.1.4-8.1l.1-.8c.4-4.3.6-7.1 1.9-9.3.6-1.1 1.5-2.3 2.7-3.9l.7-.9c1-1.3 2.2-2.8 3.3-4.5 2.3-3.4 5.1-7.8 5.5-12.3 0-.1.1-.2.2-.1.1 0 .2.1.1.2-.4 4.6-3.1 9.1-5.5 12.5-1.1 1.6-2.3 3.1-3.3 4.5l-.7.9c-1.2 1.6-2.1 2.8-2.7 3.8-1.3 2.2-1.5 5-1.9 9.2l-.1.8c-.3 3-.3 5.3-.4 8.1 0 1.4-.1 3.1-.2 4.9 0 0 0 .1-.1.1"/><path id="Fill-109" class="st7" d="M-761.7 69.5c-.1 0-.1 0-.1-.1-5.3-7.8-7.2-18.5-4.4-24.8 0-.1.1-.1.2-.1s.1.1.1.2c-2.7 6.3-.8 16.8 4.4 24.5 0 .1 0 .2-.2.3.1 0 .1 0 0 0"/><path id="Fill-111" class="st7" d="M-765.6 62.5c-.1 0-.1 0-.1-.1-.5-.7-1.2-1.1-1.8-1.5-.7-.4-1.3-.8-1.6-1.4-.2-.4 0-1 .2-1.5s.4-1 .2-1.3c-.2-.2-1.1-.7-2.1-1.2-2.3-1.2-3.8-2-3.7-2.7.1-.6.5-1 1.2-1.5.5-.5 1.2-1.1 2-2.1.5-.6.9-1.1 1.4-1.7 1.2-1.4 2.3-2.7 2.8-3.9.7-1.7 2-2 2.5-2.1.1 0 .2.1.2.1 0 .1-.1.2-.1.2-.4 0-1.6.3-2.2 1.9-.5 1.3-1.6 2.5-2.8 4-.4.5-.9 1.1-1.4 1.7-.8 1-1.5 1.7-2 2.1-.6.5-1 .9-1.1 1.4-.1.5 2.1 1.6 3.6 2.4 1.1.5 1.9 1 2.2 1.3.4.4.1 1-.1 1.6-.2.5-.4.9-.3 1.2.3.5.8.9 1.5 1.3.6.4 1.3.9 1.9 1.6-.2 0-.2.1-.4.2.1 0 0 0 0 0"/><path id="Fill-113" class="st7" d="M-742.7 52.5s-.1 0-.1-.1c-.4-.5-1-1.1-1.6-2-.9-1.3-1.8-3.7-2.3-5-.1-.2-.2-.5-.2-.6-.6-1.6-1.4-2.5-2.6-3-.1 0-.1-.1-.1-.2s.1-.1.2-.1c1.2.5 2.1 1.5 2.7 3.2.1.2.1.4.2.6.5 1.3 1.4 3.7 2.2 4.9.6.8 1.1 1.4 1.5 1.9.1.1.1.2 0 .2.2.2.2.2.1.2"/><path id="Fill-115" class="st7" d="M-757.3 63.5c-.1 0-.1 0 0 0-.2-.1-.2-.2-.1-.3 1.1-1.6 1.6-1.8 2.6-2.3.4-.2 1-.4 1.6-.8.5-.3.6-.9.8-1.5.2-.7.3-1.4 1.1-1.9.6-.4 2.3-.8 4.1-1.3 1.3-.3 2.6-.7 3.6-1 .1 0 .2 0 .2.1s0 .2-.1.2c-1 .3-2.3.7-3.6 1-1.8.5-3.4.9-4 1.3-.6.4-.8 1-.9 1.7-.1.6-.3 1.3-.9 1.7-.7.4-1.2.6-1.7.8-1 .4-1.5.7-2.5 2.1-.1.2-.2.2-.2.2"/><path id="Fill-117" class="st7" d="M-735.8 72.5c-1.7 0-3.3-.6-4.1-1.1-2.5-1.9-2.7-5.2-2.6-6.9v-.4-.4-.1c.1 0 .1-.1.2 0s.1.1.1.6v.4c-.1 1.7.1 4.8 2.5 6.7 1 .8 3.5 1.5 5.9.8 2-.6 3.3-2.2 4-4.6 0-.1.1-.1.2-.1s.1.1.1.2c-.8 3.2-2.7 4.4-4.2 4.8-.7 0-1.4.1-2.1.1"/><path id="Fill-119" class="st8" d="M-708.4 18c1.1.1 1.7.6 2.3 1.3.6.7 1.1 1.7 1.4 2.2.1.1.4-.4.8-.8.5-.5 1.1-.9 1.3-1 .3-.2-1.4-.1-1.8-.5-.3-.3 1-1.7.8-2-.2-.2-1.8.8-2.3.4-.4-.4.3-2.6.1-3.2 0-.1-1.6 2.6-1.9 2.6-.3 0-.7-.9-.8-.8 0 .1-.1 1.8.1 1.8"/><g id="Group-123" transform="translate(80 15)"><defs><filter id="Adobe_OpacityMaskFilter" filterUnits="userSpaceOnUse" x="-789.3" y="-1.2" width="6.5" height="7.2"><feColorMatrix values="1 0 0 0 0 0 1 0 0 0 0 0 1 0 0 0 0 0 1 0"/></filter></defs><mask maskUnits="userSpaceOnUse" x="-789.3" y="-1.2" width="6.5" height="7.2" id="mask-2_1_"><g filter="url(#Adobe_OpacityMaskFilter)"><path id="path-1_1_" class="st5" d="M-789.3-1.2h6.5v7.3h-6.5z"/></g></mask><path id="Fill-121" d="M-789 2.3c1 .1 1.7.5 2.4 1.3.5.6 1 1.4 1.4 2.1l.2-.2.5-.5c.3-.3.8-.6 1.1-.8h-.1c-.6-.1-1.2-.1-1.4-.3-.3-.2 0-.8.4-1.4.1-.2.3-.4.4-.6-.1 0-.4.1-.6.2-.7.2-1.3.5-1.7.2-.3-.3-.2-.9 0-1.9.1-.3.1-.7.1-.9-.1.2-.3.4-.4.6-.9 1.4-1.2 1.7-1.4 1.7-.3 0-.5-.3-.7-.6l-.1-.1c-.1.3-.1 1-.1 1.2zm3.9 3.7c-.1 0-.1.1-.2 0-.1 0-.1-.1-.1-.1-.5-.9-1-1.7-1.4-2.2-.6-.7-1.3-1.1-2.3-1.2-.2 0-.2-.2-.2-.3 0-.1-.1-1.6.2-1.7.2-.1.3.1.5.4.1.1.3.4.4.4.2-.1.8-1 1.2-1.6.7-1 .7-1 .8-1 .1 0 .1.1.1.1.1.3 0 .8-.1 1.5-.1.6-.3 1.4-.1 1.6.2.2.9-.1 1.3-.2.6-.2.9-.3 1-.1.1.2 0 .5-.4 1-.2.3-.5.8-.5.9.2.1.9.2 1.3.3.5.1.7.1.7.2 0 0 0 .1-.1.2-.2.1-.8.5-1.3.9-.2.2-.4.3-.5.5-.1.3-.2.4-.3.4z" mask="url(#mask-2_1_)" fill-rule="evenodd" clip-rule="evenodd" fill="#2f3541"/></g><path id="Fill-124" class="st7" d="M-707.6 60.5c-.1 0-.1 0-.1-.1s0-.2.1-.2c.3-.2 1.8-1.5 2.3-2.1.4-.5 1.1-2.1-.1-3.1-1.2-.9-2.9-1.6-3.3-1.1-.5.5-.6 1.8.4 2.9 1 1 1.4 1.1 2 1.2h.2c.1 0 .1.1.1.2s-.1.1-.2.1h-.2c-.6-.1-1.1-.3-2.2-1.3-1.2-1.1-1-2.6-.4-3.3.7-.8 2.6.1 3.8 1 1.3 1 .8 2.6.2 3.5-.6.7-2.1 2.1-2.6 2.3.1 0 0 0 0 0"/><path id="Fill-126" class="st11" d="M-726.2 56.5c0 .9.8 1.7 1.7 1.7 1 0 1.8-.8 1.8-1.7 0-1-.8-1.8-1.8-1.8-1 .1-1.7.8-1.7 1.8m1.7 2c-1.1 0-2-.9-2-2s.9-2 2.1-2c1.1 0 2 .9 1.9 2 0 1.1-.9 2-2 2"/><path id="Fill-128" class="st11" d="M-713.5 54.8c-1 0-1.8.8-1.8 1.8 0 .9.8 1.7 1.7 1.7 1 0 1.8-.8 1.8-1.7 0-1.1-.7-1.8-1.7-1.8m0 3.7c-1.1 0-2-.9-2-2s.9-2 2-2 2 .9 2 2-.9 2-2 2"/><path id="Fill-130" class="st11" d="M-717.6 57c0 .3-.2.4-.4.4-.3 0-.4-.2-.4-.4s.2-.4.4-.4c.3 0 .4.1.4.4"/><path id="Fill-132" class="st11" d="M-721 56.6c.3.1.4.2.4.4s-.2.4-.4.4c-.3 0-.4-.2-.4-.4 0-.3.2-.4.4-.4"/><path id="Fill-134" class="st11" d="M-719.6 57c0 .3-.2.4-.4.4-.3 0-.4-.2-.4-.4 0-.3.2-.4.4-.4.3 0 .4.2.4.4"/><path id="Fill-136" class="st11" d="M-717 56.6c.2 0 .4.2.4.4 0 .3-.2.4-.4.4-.3 0-.4-.1-.4-.4 0-.3.2-.4.4-.4"/><path id="Fill-138" class="st11" d="M-719 56.6c.2 0 .4.1.4.4 0 .3-.1.4-.4.4-.2 0-.4-.1-.4-.4 0-.2.1-.4.4-.4"/><path id="Fill-140" d="M-723.3 57.2c.6 0 .8-.3.6-.8-.1-.2-.2-.4-.4-.6-.7-.5-1.8-.6-2.5-.1-.3.2-.5.4-.6.8-.1.3.1.6.4.6.4.1.8-.1.8-.4 0-.4.3-.4.6-.4.4 0 .6.1.6.4 0 .4.2.5.5.5m-3.2-.7c0-1.1.9-2 2-2s2 .9 2 2-.9 2-2 2-2-.9-2-2" fill-rule="evenodd" clip-rule="evenodd" fill="#f39083"/><path id="Fill-142" d="M-712.8 58c.1 0 .3 0 .5-.1.3-.2.4-.4.3-.7-.2-.4-.6-.6-.8-.4-.3.2-.5 0-.6-.1-.3-.3-.3-.5-.1-.8.2-.2.2-.4 0-.7-.1-.2-.3-.4-.6-.4s-.4.3-.5.5c0 .1 0 .1-.1.2-.4 1.2.7 2.5 1.9 2.5m-.7-3.5c1.1 0 2 .9 2 2s-.9 2-2 2-2-.9-2-2 .9-2 2-2" fill-rule="evenodd" clip-rule="evenodd" fill="#bedca7"/><path id="Fill-144" class="st11" d="M-724 57.2c.1 0 .2 0 .2-.1.1-.1 0-.3-.1-.4-.4-1-1.9-1.1-2.3-.1-.1.1-.1.3-.1.4.1.1.2.1.3.1.1 0 .2-.1.2-.3 0-.1 0-.3.1-.4.4-.5 1.2-.2 1.3.5.2.2.3.3.4.3m0 .3c-.2 0-.4-.1-.5-.5-.1-.4-.2-.5-.5-.5-.2 0-.4 0-.5.5 0 .4-.3.5-.7.4-.3-.1-.4-.3-.3-.7.1-.4.3-.7.5-.9.6-.5 1.5-.5 2.1.1.2.2.3.4.4.6.1.7-.1 1-.5 1"/><path id="Fill-146" class="st11" d="M-713.4 57.2h.1c.2 0 .3 0 .4-.2.1-.1-.1-.2-.2-.3-.2-.1-.3-.1-.4 0-.1.1-.2.1-.3.1-.7-.1-1.1-.9-.8-1.5.1-.2 0-.4-.2-.5-.2-.1-.3.1-.3.2s-.1.2-.1.3c-.1.9.9 1.9 1.8 1.9m.1.3c-1.2 0-2.4-1.3-2.1-2.4 0-.1 0-.1.1-.2.1-.2.2-.4.5-.5.3 0 .5.2.6.4.2.2.1.4 0 .6-.2.3-.2.5.2.7.2.2.4.3.7.1.3-.2.7 0 .9.3.2.3.1.5-.3.7-.3.3-.5.3-.6.3"/><path id="Fill-148" class="st5" d="M-722.8 56.5c-.2 0-.3-.1-.3-.2-.2-.5-1.2-.7-1.6-.4-.1.1-.1.2-.1.3 0 .1-.1.2-.2.2s-.3 0-.4-.1c-.1-.1 0-.2.1-.3.6-.8 2.3-.7 2.8 0 .1.1.1.2.1.3-.2.2-.3.2-.4.2"/><path id="Fill-150" class="st5" d="M-713 57.5c-.8 0-1.6-.8-1.5-1.6 0-.1 0-.2.1-.2.1-.1.1-.3.3-.2.2.1.3.3.2.4-.3.5.1 1.2.7 1.2.1 0 .2 0 .3-.1.1-.1.2-.1.4 0 .1.1.2.2.1.3-.1.1-.2.1-.4.2h-.2"/><path id="Fill-152" class="st7" d="M-719 28.6c-4.6 0-8.4 3.8-8.4 8.4 0 4.6 3.8 8.4 8.4 8.4 4.6 0 8.4-3.8 8.4-8.4 0-4.6-3.8-8.4-8.4-8.4m0 16.9c-4.7 0-8.5-3.8-8.5-8.5s3.8-8.5 8.5-8.5 8.5 3.8 8.5 8.5-3.8 8.5-8.5 8.5"/><path id="Fill-154" class="st7" d="M-719 28.8c-4.5 0-8.2 3.7-8.2 8.2 0 4.5 3.7 8.2 8.2 8.2 4.5 0 8.2-3.7 8.2-8.2 0-4.5-3.7-8.2-8.2-8.2m0 16.7c-4.7 0-8.5-3.8-8.5-8.5s3.8-8.5 8.5-8.5 8.5 3.8 8.5 8.5-3.8 8.5-8.5 8.5"/><path id="Fill-156" class="st14" d="M-712.2 34.7c0 .1.1.1 0 0 .1 0 0 0 0 0m.1.1c.1.1.1.1 0 .1v-.1h-.1v.1-.3h.1c.1 0 .1 0 .1.1l-.1.1m.1 0c0-.1-.1-.2-.2-.3-.1 0-.2.1-.3.2 0 .1.1.2.2.3.2 0 .3-.1.3-.2m.1 0c0 .2-.1.3-.3.3-.2 0-.3-.1-.3-.3 0-.2.1-.3.3-.3.1 0 .2 0 .2.1.1 0 .1.1.1.2"/><path id="Fill-158" class="st14" d="M-718.9 36.9c-.2.1-.4.1-.6.1h-1v-1.6h1c.2 0 .4 0 .6.1.2.1.3.3.3.7.1.4-.1.6-.3.7m-4-1.5h1.5v4c0 .1.1.1.1.1h.8c.1 0 .1 0 .1-.1V38h1.1c.4 0 .8-.1 1.1-.3.4-.3.7-.9.7-1.4 0-.5-.2-1-.6-1.4-.3-.3-.8-.4-1.2-.4h-6.1c-.1 0-.1.1-.1.1v.7c0 .1.1.1.1.1h1.5v4c0 .1.1.1.1.1h.8c.1 0 .1-.1.1-.1v-4"/><path id="Fill-160" class="st8" d="M-716.4 34.5h2.3s.1 0 .1.1l1.4 2.3v.2l-1.4 2.3-.1.1h-2.3s-.1 0-.1-.1v-.7c0-.1 0-.1.1-.1h2l1-1.6-1-1.6h-2s-.1 0-.1-.1l.1-.8c-.1 0-.1 0 0 0"/></g></g></g><g id="Layer_2" class="st0"><g id="Group-158" transform="translate(65)" class="st1"><path id="Fill-1_1_" class="st15" d="M-17.8 108.1l15.9-8 .1-.7-17.4-2.2z"/><g id="Group-157" transform="translate(0 .345)"><g id="Group-4" transform="translate(44.385 85.296)"><defs><filter id="Adobe_OpacityMaskFilter_1_" filterUnits="userSpaceOnUse" x="-63.9" y="11.3" width="17.9" height="11.4"><feColorMatrix values="1 0 0 0 0 0 1 0 0 0 0 0 1 0 0 0 0 0 1 0"/></filter></defs><mask maskUnits="userSpaceOnUse" x="-63.9" y="11.3" width="17.9" height="11.4" id="mask-2_2_"><g filter="url(#Adobe_OpacityMaskFilter_1_)"><path id="path-1_2_" class="st5" d="M-63.9 11.3H-46v11.4h-17.9z"/></g></mask><path id="Fill-2" d="M-63.4 11.8L-62 22l15.5-7.8v-.3l-16.9-2.1zm1.2 10.9s-.1 0 0 0c-.1-.1-.2-.1-.2-.2l-1.4-10.9v-.2s.1-.1.2 0l17.5 2.2s.1 0 .1.1v.2l-.1.7c0 .1 0 .1-.1.2l-16 7.9c.1 0 .1 0 0 0z" mask="url(#mask-2_2_)" fill-rule="evenodd" clip-rule="evenodd" fill="#2f3541"/></g><path id="Fill-5_1_" d="M-2.6 24.6c1.4-1.3 2.5-1.9 4.7-1.6.6 0 1.6.5 2.3.6 1.1.2 3.3.1 4.3.5 1.9.8 3.4 1.9 4.3 3.2.8 1.2 1.8 3.6 2.4 6.8.9 4.7 1.3 11 2.1 15.3.6 3 2.2 6.1 2.2 6.1L-2 52.1l-5.7 2s-1.5-.5-2.6-3.1c-.9-2.2-1.4-6.3-.8-9.7.7-4.2 2-8 3.9-11.2 1.5-2.4 3.6-4.6 4.6-5.5" fill-rule="evenodd" clip-rule="evenodd" fill="#e2bb92"/><path id="Fill-7_1_" class="st8" d="M-15.5 57.4c1.4-1 7-2.8 10.5-4.2 1.5-.6 2.8-1.5 2.8-1.5l13.5.3s2.6 1.1 6.1 2.7c2.2 1 5 1.2 6.6 3.5.5.8.9 2.3 1.1 3.4.9 4.3-.1 9.4-.4 15-.3 4.2-.5 8.4-1 10.6-.2 1.2-1.3 5.8-2.3 6.3-.6.3-5.6 1.4-9.3 1.3-5.3-.2-9.7-.7-9.7-.7l-15.2-9-.4-5.5s-.6-2.3-.9-3.8c-.3-1.4-.4-2.6-.4-2.6L-21.3 85l-6.9-5.1s2.2-4 4.7-9.1c2.5-5.2 5.4-11.5 8-13.4"/><path id="Fill-9_1_" class="st19" d="M-1.4 32.7c1.6-1.9 4.2-2 5.8-.3.9 1 1.9 4.1 2.6 5.7.7 1.4 1.8 1.6 1.8 1.6l.2 5.2s-.1 1.9.1 3.5c.4 2.5 2.4 3.8 2.4 3.8s-.8 1-2 2c-1.5 1.2-3.9 2.5-6.9 2.6-2.2 0-4.9-.7-5.6-1.6-1.3-1.6 1-2.6 1-2.6l-.5-2.9s-1.6-1.1-2.5-3.5c-.9-2.3-.9-5.8-.9-5.8s.9-1 1.9-2.7c.9-1.7 1.8-4 2.6-5"/><path id="Fill-11_1_" class="st19" d="M-15.1 85.8s.8-2.2 1.6-3.1c.7-.9 1.3-.5 1.3-.5s1-.7 1.5-.8c.6 0 .9.5.9.5s.7-.3 1.3-.1c.6.2 1 .8 1 .8s1.4-1.4 1.8-.3.7 2.9.7 2.9 2 .8 2.6 1.4c.6.7-.3 1-.3 1l2.4.2h2.8s.9 1.2.9 3c0 1.9-.8 3.2-.8 3.2s-1.7-.1-4.2-.5c-2.5-.3-4.5 0-5.8-.1-.9 0-1.7-.2-1.7-.2s.3.6-.1.9c-.5.3-1.7.1-1.7.1s-.1.3-.8.5c-.7.1-1.3.6-2.3.2-1-.4-1.5-1.7-1.5-1.7s-1.4 0-2.5-.2-1.8-.7-1.8-.7l-1.1-7.4s2 1.8 3.5 2c1.3.3 2.3-1.1 2.3-1.1"/><path id="Fill-13_1_" class="st20" d="M-4.3 50.8c0-.5.2-.8.9-.8s1.3.8 1.4 1c.1.2.1.8-.5.8-.6.1-1.8-.5-1.8-1"/><path id="Fill-15_1_" class="st20" d="M8.6 43.1c0-.9 0-1.7.3-2.9.3-.9.8-1.8 1.1-1.9.4-.1 1.1 0 1.1 0s.1 3.2.1 3.9c0 1.1-.3 3.2-.3 3.2s-.6-.1-.8-.1c-.6-.1-1.5-.7-1.5-2.2"/><path id="Fill-17_1_" class="st20" d="M-9.2 39.4c.1-1 .9-2.4 1.3-2.4.5 0-.2 1.4-.3 3.4-.1 1.6.3 2.7-.2 2.7-.5-.1-1-1.9-.8-3.7"/><path id="Fill-19_1_" class="st5" d="M-.9 27c2.4-.9 8.6-.9 11.9 3.7 1.8 2.4 2.7 5.8 2.9 8.7.2 2.5-.1 4.6-1.5 5.7-.4.3-2.2 1-2.5-1.6-.2-1.5.9-3.4 1.1-5.8.1-1-.1-2.6-.4-3.6-.8-2.4-3.2-4.2-4.9-5.1-1.7-.9-5.8-.9-8.7 1-3.4 2.2-5 6.9-5 6.9s.5-3.6 2.2-6.3c1.6-2.1 4.4-3.4 4.9-3.6"/><path id="Fill-21_1_" class="st7" d="M-12.9 82.5c-.1 0-.2-.1-.2-.2-.2-3-.8-5-1-5.6-.4-1.3-.8-2.9-.4-5 .5-3.2.2-5.9-.1-8.8 0-.1.1-.2.2-.3.1 0 .2.1.3.2.3 2.9.6 5.6.1 8.9-.3 2 0 3.5.4 4.8.2.7.8 2.7 1 5.7-.1.1-.2.3-.3.3"/><path id="Fill-23_1_" class="st7" d="M-28.1 88.2c-1.4-.4-2.2-1.2-2.2-2.5-.2-2.4 2.4-7.2 4.6-11.1.6-1.1 1.1-2.1 1.6-3l2.2-4.4c2.1-4.5 3.8-8 6.6-10 1.6-1.1 4.5-2.1 7-2.9 2.2-.7 4.2-1.4 5-2 .1-.1.2 0 .3 0 .1.1 0 .2 0 .3-1 .7-3 1.4-5.3 2.1-2.5.8-5.3 1.7-6.8 2.9-2.7 1.9-4.4 5.4-6.4 9.8-.7 1.4-1.3 2.9-2.2 4.4-.4.9-1 1.9-1.6 3-2.1 3.8-4.7 8.6-4.5 10.8.1 1.1.7 1.8 1.9 2.1.1 0 .2.1.1.3-.2.1-.3.2-.3.2"/><path id="Fill-25_1_" class="st7" d="M-20.5 83.8c-.2 0-.3-.2-.2-.3.9-1.9 5.5-9.6 5.9-10.1.1-.1.2-.1.3 0 .1.1.1.2 0 .3-.4.6-5 8.2-5.9 10l-.1.1"/><path id="Fill-27_1_" class="st7" d="M13.1 95.1c-2.6 0-5.4-.1-7.5-.3-1.4-.1-2.7-.3-4-.4-2.3-.3-4.7-.6-7.9-.5-1.6.1-3-.2-4.1-.5-1.3-.3-2.3-.5-3.4-.1-.1 0-.2 0-.3-.1 0-.1 0-.2.1-.3 1.2-.5 2.4-.2 3.7.1 1.1.2 2.4.5 4 .5 3.2-.1 5.6.2 7.9.5 1.3.2 2.6.3 4 .4 8.3.6 14 .3 15.7-.8 1.8-1.1 2.3-5.7 2.6-8.3 0-.6.1-1.1.2-1.5 0-.1.1-.2.3-.2.1 0 .2.1.2.3 0 .4-.1.9-.2 1.4-.3 2.8-.8 7.4-2.8 8.7-1.5.8-4.9 1.1-8.5 1.1"/><path id="Fill-29_1_" class="st7" d="M24 86.8c-.1 0-.2-.1-.2-.3l.1-1c.2-2.2.4-3.9.5-6.9 0-1.5.2-3.1.3-4.9.5-5.5 1-11.8-1.2-15.5-1.1-1.8-3.6-2.7-6.3-3.6l-3.3-1.2c-3.6-1.6-5.7-3-5.2-8.8 0-.1.1-.2.2-.2s.2.1.2.2c-.5 5.5 1.6 6.8 4.9 8.3 1 .4 2.1.9 3.2 1.2 2.6.9 5.4 1.9 6.6 3.8 2.3 3.8 1.8 9.9 1.3 15.8-.1 1.7-.3 3.3-.3 4.9-.1 3-.3 4.7-.5 6.9l-.1 1c0 .2-.1.3-.2.3"/><path id="Fill-31_1_" class="st7" d="M15 84.1c-.1 0-.2-.1-.2-.2v-2c.1-4.9.2-11.5-.2-15.3 0-.1.1-.2.2-.3.1 0 .2.1.3.2.5 3.9.3 10.5.2 15.4v2c0 .1-.2.2-.3.2"/><path id="Fill-33_1_" class="st7" d="M-15.8 90.2h-.1c-.5-.5-.8-1-.8-1.6 0-1.2 1.1-2.6 3.1-4.4.8-.8 1.4-1 2.2-.9.1 0 .2.1.2.3 0 .1-.1.2-.3.2-.6-.1-1.1.1-1.8.8-1.8 1.7-2.9 3-2.9 4 0 .4.2.8.7 1.2.1.1.1.2 0 .3-.1 0-.2.1-.3.1"/><path id="Fill-35_1_" class="st7" d="M0 88.3c-1.3 0-2.3-.1-3-.3-.8-.2-1.5-.5-2.3-.9-.1 0-.2-.2-.1-.3 0-.1.2-.2.3-.1.8.3 1.5.6 2.2.9 1.6.5 5.4.4 9.1-.5 1.2-.3 2.4-.6 3.5-.9 3.6-1 6.2-1.7 8.7-1 .1 0 .2.1.1.3 0 .1-.1.2-.3.1-2.3-.7-4.9 0-8.4 1-1.1.3-2.2.6-3.5.9-2.2.5-4.5.8-6.3.8"/><path id="Fill-37_1_" class="st7" d="M-13.2 95.3c-.4 0-.7 0-1-.1-.9-.4-1.8-2-1.9-2.9 0-.7.9-1.6 1.6-2.3l.5-.5c.1-.1.2-.1.3 0 .1.1.1.2 0 .3l-.5.5c-.6.5-1.5 1.4-1.5 1.9 0 .8 1 2.2 1.6 2.5.4.2 1.3.1 1.9 0h.4c.5 0 .8-.3.8-.5 0 0-.1-.2-.3-.3-.3-.1-.6-.2-1-.3-.1 0-.2 0-.3-.1-.2-.1-.5-.2-.8-.4-.1-.1-.1-.2 0-.3.1-.1.2-.1.3 0 .1.1.3.2.5.2.1 0 .2 0 .3.1.3.1.7.2 1.1.4.1 0 .6.4.6.8s-.4.9-1.2 1h-1.4"/><path id="Fill-39_1_" class="st7" d="M-15.5 91.4c-.1 0-.2 0-.2-.1-.9-1.8.6-2.9 2.2-4.1.1-.1.2 0 .3 0 .1.1 0 .2 0 .3-1.7 1.3-2.7 2.1-2 3.5 0 .1 0 .2-.1.3-.1.1-.2.1-.2.1"/><path id="Fill-41_1_" class="st7" d="M-9.8 94.7h-.8c-.1 0-.2-.1-.2-.2s.1-.2.2-.2h.5c.3 0 .7 0 1-.1.1-.1.1-.2.1-.2 0-.1-.3-.3-.5-.4-.1 0-.2-.2-.1-.3 0-.1.2-.2.3-.1.1 0 .7.3.8.8 0 .1 0 .4-.4.6-.3.1-.6.1-.9.1"/><path id="Fill-43_1_" class="st7" d="M-15.5 89.4c-.1 0-.2-.1-.2-.2-.2-1.6.5-2.3 1.5-3.2.2-.1.3-.3.5-.5.1-.1.2-.1.3 0 .1.1.1.2 0 .3l-.5.5c-1 .9-1.6 1.5-1.3 2.9 0 .1-.1.2-.3.2"/><path id="Fill-45_1_" class="st7" d="M-14.8 85.8c-.1 0-.2-.1-.2-.3.1-1 1.2-3.3 2-3.5.4-.1.6 0 .8.2.2.2.3.7.2 1.2 0 .1-.1.2-.3.2-.1 0-.2-.1-.2-.3 0-.4 0-.7-.1-.8 0 0-.2-.1-.3 0-.4.1-1.4 2-1.6 3-.1.2-.2.3-.3.3"/><path id="Fill-47_1_" class="st7" d="M-9.6 85.3c-.9 0-1.9-1.3-2.2-2 0-.1 0-.2.1-.3.1 0 .2 0 .3.1.4.8 1.3 1.7 1.8 1.7.1 0 .2 0 .2-.1v-.5c-.1-.8-.8-2-1.2-2.2-.4-.2-1.3.4-1.6.8-.1.1-.2.1-.3 0-.1-.1-.1-.2 0-.3.1-.1 1.4-1.3 2.2-.8.6.4 1.2 1.7 1.4 2.6.1.4 0 .7-.1.9-.1 0-.3.1-.6.1"/><path id="Fill-49_1_" class="st7" d="M-7 86.8c-1 0-2.2-1.8-2.2-1.8-.1-.1 0-.2 0-.3.1-.1.2 0 .3 0 .4.5 1.3 1.6 1.8 1.6 0 0 .1 0 .2-.1.1-.3-.6-2.4-1.2-3.2l-.1-.1c-.5-.7-.6-.8-1.7-.5-.1 0-.2 0-.3-.1 0-.1 0-.2.1-.3 1.4-.4 1.7-.1 2.2.7l.1.1c.5.7 1.5 3.2 1.2 3.7 0 .1-.2.3-.4.3"/><path id="Fill-51_1_" class="st7" d="M-5.6 87.5c-.5 0-1.1-.6-1.2-.8-.1-.1-.1-.2 0-.3.1-.1.2-.1.3 0 .2.2.6.6.9.6h.1c.2-.3-.1-3-.6-4.3-.1-.3-.2-.4-.3-.4-.4-.1-1 .4-1.2.7-.1.1-.2.1-.3 0-.1-.1-.1-.2 0-.3.1-.1 1-1 1.7-.8.2 0 .5.2.7.7.3.9 1 4.1.5 4.7-.2.1-.3.2-.6.2.1 0 .1 0 0 0"/><path id="Fill-53_1_" class="st7" d="M-2.8 87.9c-.1 0-.2 0-.2-.1s0-.2.1-.3c.3-.1.4-.3.4-.4 0-.1-.2-.3-.7-.6l-.6-.3c-.9-.4-1.4-.7-1.7-.9-.1-.1-.1-.2 0-.3.1-.1.2-.1.3 0 .1.2 1 .6 1.5.8.2.1.5.2.6.3.6.3.9.7.9 1s-.1.5-.6.8c.1 0 .1 0 0 0"/><g id="Group-57" transform="translate(86.947 79.852)"><defs><filter id="Adobe_OpacityMaskFilter_2_" filterUnits="userSpaceOnUse" x="-64.3" y="11.7" width="11.7" height="1.9"><feColorMatrix values="1 0 0 0 0 0 1 0 0 0 0 0 1 0 0 0 0 0 1 0"/></filter></defs><mask maskUnits="userSpaceOnUse" x="-64.3" y="11.7" width="11.7" height="1.9" id="mask-4_2_"><g filter="url(#Adobe_OpacityMaskFilter_2_)"><path id="path-3_2_" class="st5" d="M-64.3 11.7h11.7v1.8h-11.7z"/></g></mask><path id="Fill-55_1_" d="M-52.9 13.5l-11.2-1.4c-.1 0-.2-.1-.2-.3 0-.1.1-.2.3-.2l11.2 1.4c.1 0 .2.1.2.3 0 .1-.2.2-.3.2" mask="url(#mask-4_2_)" fill-rule="evenodd" clip-rule="evenodd" fill="#2f3541"/></g><path id="Fill-58" class="st15" d="M-58.4 77.3c.1-.2.6-.2.6-.2l34.7 3.4s.6 0 1 .3c.3.3.4 1 .4 1l4.1 25.3s0 .3-.1.5c-.1.1-.4.1-.4.1l-34.8-4.7s-.8-.1-1.2-.4c-.4-.3-.5-.9-.5-.9L-58.5 78c.1 0 0-.5.1-.7"/><path id="Fill-60" class="st7" d="M-58.2 77.3v.6l3.9 23.7s0 .5.4.7c.3.2.9.3 1.1.4l34.8 4.7h.2v-.3l-4.1-25.3c0-.2-.1-.7-.3-.9-.3-.3-.8-.3-.8-.3l-34.8-3.4c-.1.1-.4.1-.4.1m40.2 30.6l-34.8-4.7s-.9-.1-1.3-.5c-.5-.4-.6-1-.6-1L-58.6 78c0-.1-.1-.6.1-1s.8-.3.8-.3l34.8 3.4s.7 0 1.1.4c.4.4.5 1.1.5 1.2l4.1 25.3c0 .1 0 .4-.1.7-.3.2-.6.2-.7.2"/><path id="Fill-62" class="st7" d="M-17.5 107c-.1 0-.2 0-.2-.1s0-.2.1-.3l15-7.4-16.7-2.1c-.1 0-.2-.1-.2-.3 0-.1.1-.2.3-.2l17.4 2.2c.1 0 .2.1.2.2s0 .2-.1.2l-15.8 7.8z"/><path id="Fill-64" class="st7" d="M-16.6 107.3c-.1 0-.2 0-.2-.1s0-.2.1-.3l14.3-7c.1-.1.4-.2.5-.3.1-.1 0-.3 0-.3 0-.1 0-.2.1-.3.1 0 .2 0 .3.1 0 0 .2.4 0 .8-.2.3-.6.5-.7.5l-14.4 6.9z"/><path id="Fill-66" class="st5" d="M-38.5 92.8c0-.9-.7-1.7-1.6-1.7-.9 0-1.6.7-1.6 1.6 0 .9.7 1.7 1.6 1.7.8 0 1.6-.7 1.6-1.6"/><path id="Fill-68" class="st7" d="M-40.1 91.4c-.3 0-.7.1-1 .4-.2.3-.4.6-.4 1s.1.7.4 1c.2.3.6.4 1 .4s.7-.1 1-.4c.2-.3.4-.6.4-1-.1-.7-.6-1.4-1.4-1.4m0 3.3c-.5 0-1-.2-1.3-.6-.3-.4-.5-.9-.5-1.3 0-.5.2-1 .6-1.3.3-.3.8-.5 1.3-.5 1 0 1.8.9 1.8 1.9 0 .5-.2 1-.6 1.3-.4.3-.8.5-1.3.5"/><path id="Fill-70" class="st7" d="M.2 50.7c-.4 0-.8 0-1.1-.1-2.5-.7-5.1-3.7-5.1-8.8 0-.1.1-.2.2-.2s.2.1.2.2c0 4.6 2.4 7.7 4.8 8.3 1.7.5 5.4-.4 7.4-3.2.1-.1.2-.1.3 0 .1.1.2.2.1.3-1.9 2.4-4.8 3.5-6.8 3.5"/><path id="Fill-72" class="st7" d="M-.6 44s-.1 0-.2-.1c-.7-.8-.2-1.4.1-1.9.1-.1.2-.2.2-.4.2-.3.1-.8 0-1 0-.1 0-.2.1-.3.1 0 .2 0 .3.1.1.4.2 1 0 1.5-.1.1-.2.3-.3.4-.4.5-.6.8-.1 1.3.1.2.1.3-.1.4z"/><path id="Fill-74" class="st7" d="M5.4 39.8c-1.4-.7-2.5-.6-3-.4-.1 0-.2 0-.3-.1 0-.1 0-.2.1-.3.8-.3 2-.2 3.3.4.1 0 .2.2.1.3 0 0-.1.1-.2.1"/><path id="Fill-76" class="st7" d="M-2 38.8h-.1c-.5-.4-1.1-.4-1.5-.4H-4c-.1 0-.2-.1-.2-.2s.1-.2.2-.2h.3c.5 0 1.2 0 1.9.5.1.1.1.2 0 .3H-2"/><path id="Fill-78" class="st7" d="M4.4 41.3c0-.4-.3-.7-.7-.7-.3 0-.5.4-.5.8s.3.7.7.7c.3 0 .5-.3.5-.8"/><path id="Fill-80" class="st5" d="M2 46.1s-.7 2-2.4 1.7c-1.4-.2-1.9-2.2-1.9-2.2s.9.1 2 .3c1 .2 2.3.2 2.3.2"/><path id="Fill-82" class="st7" d="M-2 45.9c.2.5.6 1.5 1.6 1.7 1.1.2 1.7-.8 2-1.3-.4 0-1.2-.1-2-.2-.6 0-1.2-.1-1.6-.2m1.9 2.2h-.3c-1.6-.2-2.1-2.3-2.1-2.4v-.2s.1-.1.2 0c0 0 .9.1 2 .3l2.2.2c.1 0 .1 0 .2.1v.2c-.2.6-1 1.8-2.2 1.8"/><path id="Fill-84" class="st7" d="M19.8 55.6s-.1 0-.2-.1c-2.4-3-2.9-8.6-3.4-13.1l-.3-3c-.4-3-1.2-8.3-2.7-11.1-2.2-4.1-5.6-4.7-7-4.4-.1 0-.2 0-.3-.2s0-.2.2-.3c2.2-.4 5.5.9 7.5 4.7 1.5 2.8 2.4 8.3 2.7 11.3.1.9.2 1.9.3 3 .4 4.4.9 9.9 3.3 12.8.2.1.1.3-.1.4.2 0 .1 0 0 0"/><path id="Fill-86" class="st7" d="M3.2 26.5c-.2 0-.3-.2-.2-.3.1-.3.2-.6.4-1 0-.1.2-.2.3-.1.1 0 .2.2.1.3l-.3.9c-.2.2-.2.2-.3.2"/><path id="Fill-88" class="st7" d="M2.5 30.1c-.1 0-.2-.1-.2-.2 0-.4 0-.9.1-1.3 0-.1.1-.2.3-.2.1 0 .2.1.2.3 0 .4-.1.9-.1 1.2-.1.1-.2.2-.3.2"/><path id="Fill-90" class="st7" d="M-7.7 54.4s-.1 0 0 0c-4.1-2.1-5.2-9.8-2.7-17.6 1.7-5.5 5.6-12 9.9-13.7 1.6-.6 3.3-.4 4.8.5.1 0 .1.2.1.3-.1.1-.3.2-.4.1-1.4-.9-2.9-1-4.4-.4-4.4 1.6-8.1 8.9-9.6 13.3-2.4 7.6-1.4 15.1 2.4 17 .1 0 .1.2.1.3 0 .1-.1.2-.2.2"/><path id="Fill-92" class="st7" d="M-6.9 41c-.1 0-.2-.1-.2-.2s0-.2.2-.3c1.4-.4 2.6-2.6 3.7-4.8 1.2-2.4 2.4-4.7 4-4.6.1 0 .2.1.2.2s-.1.2-.2.2c-1.3-.1-2.4 2.1-3.5 4.3-1.3 2.4-2.5 4.7-4.2 5.2"/><path id="Fill-94" class="st7" d="M8.9 40s-.1 0 0 0c-1.6-.2-2.4-2.3-3.2-4.4-.7-1.9-1.4-3.8-2.6-3.9-.1 0-.2-.1-.2-.3 0-.1.1-.2.3-.2 1.5.2 2.2 2.1 3 4.2.7 1.9 1.5 3.9 2.8 4.1.1 0 .2.1.2.3-.2.1-.3.2-.3.2"/><path id="Fill-96" class="st7" d="M-2.4 40.4c0-.4-.4-.7-.7-.6-.3 0-.5.4-.5.8s.4.7.7.6c.3 0 .6-.4.5-.8"/><path id="Fill-98" class="st7" d="M11.3 45.6h-.2c-.4 0-.7-.3-1-.7-.5-.8-.7-2.1-.4-3.4.1-.5.2-.9.4-1.3 0-.1.2-.2.3-.1.1 0 .2.2.1.3-.2.4-.3.8-.4 1.2-.2 1.2-.1 2.4.3 3 .2.3.4.4.6.5.9.1 1.9-1.1 2.3-2.8 0-.1.1-.2.3-.2.1 0 .2.1.2.3-.3 1.8-1.4 3.2-2.5 3.2"/><path id="Fill-100" class="st7" d="M13.7 42.5c-.2 0-.2-.1-.2-.3.7-2.6-.3-6.6-1.5-9.2-1.4-3.2-3.7-5.2-6.9-6-3.1-.8-6-.2-8.2 1.4-2.6 2-4.3 5-4.7 8.5 0 .1-.1.2-.3.2-.1 0-.2-.1-.2-.3.4-3.7 2.2-6.8 4.9-8.9 2.3-1.7 5.5-2.2 8.6-1.5 3.3.8 5.7 2.9 7.2 6.2 1.2 2.7 2.2 6.9 1.5 9.6.1.2 0 .3-.2.3"/><path id="Fill-102" class="st7" d="M-6.2 46.9h-.1c-3.8-3.1-1.6-10.9-.1-13.5 1.6-2.8 5.1-5.4 9.3-5.2 4.1.2 7.6 3 8.4 7 .5 2.4 0 3.9-.5 5.1-.2.5-.4 1-.5 1.4 0 .1-.1.2-.3.2-.1 0-.2-.1-.2-.3.1-.5.3-1 .5-1.5.5-1.2 1-2.6.5-4.9-.8-3.7-4.1-6.4-8-6.6-4.6-.2-7.8 3-8.9 5-1.4 2.4-3.4 10 0 12.9.1.1.1.2 0 .3 0 0 0 .1-.1.1"/><path id="Fill-104" class="st7" d="M11 45.6c-1.1 0-2.2-.5-2.4-1.1-.7-2-.2-5.6 1.3-6.3.3-.1 1-.1 1.1 0 .1 0 .2.1.2.3 0 .1-.1.2-.3.2H10c-1.3.6-1.8 4-1.1 5.7.2.5 1.3 1 2.5.8.1 0 .2 0 .3.2 0 .1 0 .2-.2.3-.1-.1-.3-.1-.5-.1"/><path id="Fill-106" class="st7" d="M-8.2 43.3c-1.2-.3-1.4-2.7-1.2-4.1.2-1.5.8-2.4 1.6-2.4.1 0 .2.1.2.2s-.1.2-.2.2c-.6 0-1 1-1.1 2-.2 1.7.2 3.5.8 3.6.1 0 .2.2.1.3 0 .1-.1.2-.2.2"/><path id="Fill-108" class="st7" d="M-2.3 50.8c-.1 0-.2-.1-.2-.2l-.1-1c0-.1 0-.2.2-.3.1 0 .2 0 .3.2l.1 1c-.1.2-.2.3-.3.3"/><path id="Fill-110" class="st7" d="M-1.8 54.3c-.1 0-.2-.1-.2-.2l-.3-2.4c0-.1.1-.2.2-.3.1 0 .2.1.3.2l.3 2.4c0 .2-.1.3-.3.3"/><path id="Fill-112" class="st7" d="M2 56.9c-1.1 0-2.1-.1-3-.4-1.8-.6-2.8-1.6-2.8-2.8 0-.1.1-.2.2-.2s.2.1.2.2c0 1 .9 1.9 2.4 2.3 3.1 1 9 .3 12.1-4.1.1-.1.2-.1.3 0 .1.1.1.2 0 .3-2.2 3.4-6.2 4.7-9.4 4.7"/><path id="Fill-114" class="st5" d="M-54.7 67.8h19.6c1.2 0 2.2 1 2.2 2.1 0 .5-.1.9-.4 1.2 0 0-.1 1 .6 1.8.3.4-2.3-.9-2.3-.9h-19.6c-1.2 0-2.2-1-2.2-2.1 0-1.2 1-2.1 2.1-2.1"/><path id="Fill-116" class="st7" d="M-54.7 68c-1.1 0-1.9.9-1.9 1.9 0 1 .9 1.9 1.9 1.9H-35c.6.3 1.2.6 1.7.8-.4-.8-.3-1.4-.3-1.5V71c.2-.3.3-.7.3-1.1 0-1-.9-1.9-1.9-1.9h-19.5zm22 5.3c-.2 0-.8-.2-2.4-1h-19.5c-1.3 0-2.4-1-2.4-2.4 0-1.3 1.1-2.4 2.4-2.4H-35c1.3 0 2.4 1 2.4 2.4 0 .5-.1 1-.4 1.3 0 .2 0 .9.6 1.6.1.2 0 .3 0 .4-.2 0-.2.1-.3.1z"/><path id="Fill-118" d="M-60.2 58.4h10.5c1.5 0 2.7 1 2.7 2.1s-1.2 2.1-2.7 2.1h-10.5c-.3 0-.6 0-.9-.1 0 0-2.8 1-2.2.5.8-.6.8-1.5.8-1.5-.2-.3-.3-.6-.3-1-.1-1.1 1.1-2.1 2.6-2.1" fill-rule="evenodd" clip-rule="evenodd" fill="#83dea5"/><g id="Group-122" transform="translate(.608 46.58)"><defs><filter id="Adobe_OpacityMaskFilter_3_" filterUnits="userSpaceOnUse" x="-64.3" y="11.6" width="16.9" height="5.1"><feColorMatrix values="1 0 0 0 0 0 1 0 0 0 0 0 1 0 0 0 0 0 1 0"/></filter></defs><mask maskUnits="userSpaceOnUse" x="-64.3" y="11.6" width="16.9" height="5.1" id="mask-6_2_"><g filter="url(#Adobe_OpacityMaskFilter_3_)"><path id="path-5_2_" class="st5" d="M-64.3 11.6h16.9v5.2h-16.9z"/></g></mask><path id="Fill-120" d="M-60.8 12.1c-1.3 0-2.4.8-2.4 1.9 0 .3.1.6.2.8v.1s0 .7-.5 1.3c.4-.1 1.1-.3 1.6-.5h.1c.3.1.6.1.9.1h10.5c1.3 0 2.4-.8 2.4-1.9 0-1-1.1-1.9-2.4-1.9l-10.4.1zm-3.2 4.7c-.2 0-.2 0-.3-.1 0-.1-.1-.2.1-.4.6-.4.7-1 .7-1.2-.2-.3-.3-.7-.3-1 0-1.3 1.3-2.3 2.9-2.3h10.5c1.6 0 2.9 1 2.9 2.3 0 1.3-1.3 2.3-2.9 2.3h-10.5c-.3 0-.6 0-.9-.1-1.3.3-1.9.5-2.2.5z" mask="url(#mask-6_2_)" fill-rule="evenodd" clip-rule="evenodd" fill="#2f3541"/></g><path id="Fill-123" class="st5" d="M-44.3 51.9h9c1.1 0 2 .9 2 2 0 .4-.1.8-.3 1.1 0 0 0 .9.5 1.4.5.6-2.2-.6-2.2-.6h-9c-1.1 0-2-.9-2-2s.9-1.9 2-1.9"/><path id="Fill-125" class="st7" d="M-44.3 52.1c-1 0-1.7.8-1.7 1.7 0 1 .8 1.7 1.7 1.7h9.1c.6.2 1.2.5 1.7.6-.3-.6-.4-1.2-.4-1.3v-.1c.2-.3.3-.6.3-1 0-1-.8-1.7-1.7-1.7l-9 .1zm11.2 4.6c-.3 0-.9-.1-2.2-.7h-9c-1.2 0-2.2-1-2.2-2.2 0-1.2 1-2.2 2.2-2.2h9c1.2 0 2.2 1 2.2 2.2 0 .4-.1.8-.3 1.1 0 .2.1.8.5 1.2.2.2.1.3.1.4-.2.2-.2.2-.3.2z"/><g id="Group-129" transform="translate(0 96.185)"><defs><filter id="Adobe_OpacityMaskFilter_4_" filterUnits="userSpaceOnUse" x="-64.3" y="11.2" width="0" height="0"><feColorMatrix values="1 0 0 0 0 0 1 0 0 0 0 0 1 0 0 0 0 0 1 0"/></filter></defs><mask maskUnits="userSpaceOnUse" x="-64.3" y="11.2" width="0" height="0" id="mask-8_2_"><g filter="url(#Adobe_OpacityMaskFilter_4_)"><path id="path-7_2_" class="st5" d="M-63.7 11.5h.3v.3h-.3z"/></g></mask></g><g id="Group-132" transform="translate(79.65)"><defs><filter id="Adobe_OpacityMaskFilter_5_" filterUnits="userSpaceOnUse" x="-63.8" y="11.4" width="16.2" height="10.7"><feColorMatrix values="1 0 0 0 0 0 1 0 0 0 0 0 1 0 0 0 0 0 1 0"/></filter></defs><mask maskUnits="userSpaceOnUse" x="-63.8" y="11.4" width="16.2" height="10.7" id="mask-10_2_"><g filter="url(#Adobe_OpacityMaskFilter_5_)"><path id="path-9_2_" class="st5" d="M-63.8 11.4h16.2v10.7h-16.2z"/></g></mask><path id="Fill-130_1_" d="M-61.1 11.9c-.3 0-.5.2-.5.5v6.3l-1.3 2.6 2.7-1.4h11.7c.3 0 .5-.2.5-.5v-6.9c0-.1 0-.3-.1-.4-.1-.1-.2-.1-.4-.1h-12.6zm-2.4 10.2h-.2c-.1-.1-.1-.2 0-.3l1.6-3.2v-6.1c0-.5.4-1 1-1h12.5c.3 0 .5.1.7.3s.3.4.3.7v6.9c0 .5-.4 1-1 1h-11.5l-3.4 1.7z" mask="url(#mask-10_2_)" fill-rule="evenodd" clip-rule="evenodd" fill="#a7b3ca"/></g><path id="Fill-133" class="st30" d="M27.1 15.8c-.1 0-.2.1-.2.2s.1.2.2.2h.1v-.1c0-.2 0-.3-.1-.3zm0 .9c-.1 0-.1 0 0 0-.4 0-.7-.3-.7-.7 0-.4.3-.7.7-.7.4 0 .7.3.7.7 0 .2 0 .3-.2.5-.2.1-.4.2-.5.2z"/><path id="Fill-135" class="st30" d="M24.7 15.8c-.1 0-.2.1-.2.2s.1.2.2.2.2-.1.2-.2-.1-.2-.2-.2zm0 .8c-.4 0-.7-.3-.7-.7 0-.4.3-.7.7-.7.4 0 .7.3.7.7 0 .4-.3.7-.7.7z"/><path id="Fill-137" class="st30" d="M22.4 15.8c-.1.1-.1.1-.1.2s.1.2.2.2h.1v-.1c0-.2-.1-.3-.2-.3m0 .9c-.4 0-.7-.3-.7-.7 0-.2 0-.3.2-.5.1-.1.3-.2.5-.2.4 0 .7.3.7.7 0 .2 0 .3-.2.5-.1.1-.3.2-.5.2"/><path id="Fill-139" class="st30" d="M-26.5 21.9c-.1 0-.2.1-.2.2v4.5s0 .1.1.2c0 0 .1.1.2.1h7.8l1.5.8-.7-1.5v-4.1s0-.1-.1-.2c0 0-.1-.1-.2-.1l-8.4.1zm9.8 6.7c-.1 0-.1 0 0 0l-2.2-1.2h-7.6c-.2 0-.4-.1-.5-.2-.1-.1-.2-.3-.2-.5v-4.5c0-.4.3-.7.7-.7h8.3c.2 0 .4.1.5.2.1.1.2.3.2.5v4l1.1 2.1v.3h-.3z"/><path id="Fill-141" class="st30" d="M-23.9 24.4s0 .1 0 0c0 .1 0 .1 0 0 0 .1.1.1 0 0 .1 0 0 0 0 0zm0 .6c-.3 0-.5-.2-.5-.5 0-.1 0-.3.1-.4.1-.1.3-.1.4-.1.3 0 .5.2.5.5s-.2.5-.5.5z"/><path id="Fill-143" class="st30" d="M-22.4 24.5c.1 0 .1 0 0 0 .1 0 0-.1 0 0 0-.1 0-.1 0 0m0 .5c-.3 0-.5-.2-.5-.5 0-.1 0-.3.1-.4.1-.1.2-.1.4-.1.1 0 .2 0 .3.1.1.1.1.2.1.4.2.3-.1.5-.4.5"/><path id="Fill-145" class="st30" d="M-20.9 24.4s0 .1 0 0c0 .1 0 .1 0 0 .1.1.1.1 0 0 .1.1.1 0 0 0zm0 .6c-.3 0-.5-.2-.5-.5 0-.1 0-.3.1-.4.1-.1.3-.1.4-.1.3 0 .5.2.5.5 0 .1 0 .3-.1.4-.1.1-.2.1-.4.1z"/><path id="Fill-147" class="st7" d="M-4.4 50.6c-2.3-.7-4.5-2.7-3.5-6 0-.1.2-.2.3-.1.1 0 .2.2.1.3-.9 2.9 1 4.7 3.1 5.3.1 0 .2.2.1.3.1.2 0 .2-.1.2"/><path id="Fill-149" class="st7" d="M-3.5 50.4c-.1 0-.2 0-.3.1-.3.1-.2.2-.2.3.2.4 1.2.8 1.6.7.1 0 .1-.1.2-.1 0-.1 0-.3-.1-.4-.3-.3-.9-.6-1.2-.6zm1 1.7c-.7 0-1.7-.5-2-1-.1-.3 0-.7.2-.9.7-.5 1.7 0 2.2.5.2.2.3.6.2.9 0 .2-.2.4-.4.4 0 0-.1.1-.2.1z"/><path id="Fill-151" class="st7" d="M-17.4 87.3c-1 0-2.3-.8-3.8-2.1-.1-.1-.1-.2 0-.3.1-.1.2-.1.3 0 1.9 1.7 3.3 2.1 3.8 2 .5-.2 1-.7 1.4-1.1.3-.3.5-.6.8-.8.1-.1.2 0 .3 0 .1.1 0 .2 0 .3-.2.2-.5.4-.8.7-.5.5-1 1-1.6 1.2h-.4z"/><path id="Fill-153" class="st7" d="M-15.8 93.6c-1.5 0-3-.3-4.1-1-.1 0-.1-.2-.1-.3 0-.1.2-.1.3-.1 1.1.6 2.6 1 4.1.9.1 0 .2.1.2.2s-.1.2-.2.2h-.2z"/><path id="Fill-155" class="st7" d="M2.4 94.3c-.2-.1-.2-.2-.2-.4 1.6-3.1.5-5.4.1-5.8-.1-.1-.1-.2 0-.3.1-.1.2-.1.3 0 .6.7 1.5 3.2 0 6.3 0 .2-.1.2-.2.2"/></g></g></g><g id="Layer_3"><g id="Page-1_2_"><g id="Question-3_2_" transform="translate(-410 -736)"><g id="Group-7_2_" transform="translate(313 736)"><g id="Group-127" transform="translate(97)"><path id="Fill-1_2_" class="st31" d="M39.7 100.9l-.2 3.8-1.9 9.1-3.7 4.6-2 1 37 .1-.5-4.3.3-4.9.8-2.9 1.3-3.3.4-2-.1-2.5s-2.2-.2-2.3-.2l-25.1.2-3.2.2-.8 1.1z"/><path id="Fill-3_1_" class="st32" d="M50.2 31.6c-.2 0-.3.1-.3.3.1.3.4.5.7.6.1 0 .2-.1.2-.2 0-.4-.3-.5-.6-.7m3.3 3.6c0-.4-.3-.7-.7-.6-.4 0-.7.2-.6.7 0 .4.3.6.6.6.4 0 .6-.2.7-.7m-11.3.2c.4 0 .7-.2.7-.7 0-.4-.3-.7-.7-.6-.4 0-.7.3-.6.7-.1.3.2.5.6.6m1.1-4.1c-.4.1-.8 0-1.3.1-.2 0-.5.1-.7.2-.2.1-.4.1-.3.4.1.2.3.1.4.1.4-.1.8-.1 1.1-.2.3 0 .5 0 .8-.1.2 0 .3-.1.2-.3.2-.2 0-.2-.2-.2m8 .2c-.1 0-.2 0-.3.1 0 .1 0 .2.1.3.3.2.6.3.9.3.4 0 .9.1 1.3.2.2.1.4.2.4-.1.1-.3-.1-.3-.3-.4-.6-.2-1.5 0-2.1-.4m-5.7 13.6c-.2 0-.3 0-.3.1 0 .2 0 .3.2.4.5.2.9.3 1.5.4.3 0 .6.1.8.2.2.1.3.4.5.1.1-.2-.1-.4-.3-.5-.8-.4-1.7-.2-2.4-.7m1.1-10c0-.2-.1-.5-.2-.9-.1-.2-.1-.4-.4-.3-.1.1-.1.3 0 .5.3 1 .1 1.9-.5 2.7-.2.3-.4.5-.6.8-.5.9-.2 1.9.7 2.3.2.1.5.3.6 0 .1-.3-.2-.3-.4-.4-.8-.5-.9-1.1-.4-1.8.2-.3.4-.5.6-.8.5-.6.6-1.2.6-2.1m-21.1 81.4c-.1-.1-.2-.2-.3-.2 0-.2-.1-.3-.3-.5-.9-.7-1.5-1.6-1.9-2.7-.7-1.9-1.1-3.8-1.3-5.8-.4-4-.9-8-1.5-12-.5-3.3-1.4-6.6-2.2-9.9 0-.2-.2-.4 0-.5.1-.1.3 0 .4.1 3.8 1.1 7.6.8 11.4 0 .2-.1.4-.1.4-.4h.6c-.5 3.1-1.4 6.1-2.4 9.1s-2.4 5.9-3.7 8.8c-1 2.2-1.6 4.4-1.7 6.8 0 .2-.1.5.2.5.3 0 .2-.2.3-.4 0-2.7.9-5.2 2-7.6 2-4.1 3.7-8.4 4.8-12.8.9-3.7 1.7-7.5 2.5-11.2.4-1.9.6-3.9 1.4-5.7 1.7-4.3 2.2-8.9 2.7-13.5.1-1.3-.1-2.6.4-3.8.8-2 1.8-3.9 2.4-6 .2-.9.6-1 1.5-.7.6.2 1.3.5 1.9.6.5 0 1 .1 1.5.3.3.1.7.3.8.6.3.8.6 1.7.9 2.6.1.2.1.3-.2.4-1.1.2-1.3.1-2-.9-.1-.2-.2-.4-.4-.6-.1-.2-.2-.3 0-.5.1-.2.3-.4.1-.5-.3-.2-.4.1-.5.3-.5.5-1.5.3-1.7-.3-.1-.2-.1-.5-.4-.4-.3.1-.2.3-.1.5.3.5.2 1.1 0 1.6-.1.5-.3.9-.3 1.4 0 .5-.3.7-.8.8-.5 0-1 .2-1.5.5-.2.1-.3.3-.2.5.1.2.3 0 .5-.1.3-.2.7-.3 1-.4 1.7-.3 3.4-.7 5-1.2 1-.4 1.9 0 2.3.9.5 1.1.8 2.2 1 3.4.1.4 0 .8-.4 1.2-.1-.3-.1-.5-.2-.7-.3-.9-.6-1.9-1.6-2.4-.1-.1-.2-.1-.1-.3.1-.1 0-.3-.1-.3-.2-.1-.3 0-.3.1-.2.4-.6.3-.9.3-1.7-.1-3.5.1-5.2.1-.6 0-1.1.4-1.4.9-.1.2-.2.3 0 .5.2.1.3 0 .4-.2.3-.4.7-.7 1.2-.7 2 0 4-.3 6-.1.5 0 .8.2 1 .6.5.7.8 1.5.8 2.4 0 .6-.2 1.1-.5 1.6-.1-.3 0-.5-.1-.8 0-.7-.4-1.1-1-1.4-.3-.1-.6-.1-.5-.5 0-.2-.2-.2-.3-.1-.3.3-.7.1-1 0-1-.2-2-.5-3-.7-.7-.1-1.3 0-1.9.2-.2.1-.3.2-.2.4.1.2.3.1.4.1.4-.2.9-.4 1.4-.3 1.7.3 3.4.7 5 1.3.5.2.8.6.7 1.1 0 1-.4 1.8-.8 2.7-.1.2-.3.4-.6.4-.6.2-1.2.2-1.8.2-.2 0-.3 0-.4-.2-.1-.2 0-.3.2-.5.4-.5.9-.7 1.5-1 .2-.1.5 0 .5-.4 0-.3-.4-.1-.5-.3 0-.2.5-.3.2-.6-.2-.2-.3 0-.5.1-.6.4-1.4.4-2-.1-.1-.1-.2-.2-.3-.1-.2.1-.2.2 0 .4.1.2.2.4.2.6.2 2.3.4 4.6-.3 6.9-.1.2-.1.3.1.4.2 0 .3-.1.3-.2.1-.2.2-.4.2-.6.3-1.1.3-2.3.3-3.5 0-.4 0-.6.6-.6 1.7.2 2.9-.6 3.8-2 .4-.6.6-1.2.8-1.9.1-.2.1-.4.3-.6.8-.6.9-1.4.6-2.3-.2-.8-.4-1.5-.7-2.3-.1-.4 0-.4.3-.5 2.3-.2 4.2-1.3 6-2.7.6-.5 1.2-1 1.7-1.6.1-.1.4-.3.1-.5-.2-.2-.3.1-.5.2-.3.3-.6.7-1 1-1.8 1.6-3.8 2.9-6.3 3.2-.6.1-1.5-.4-1.5-.9-.1-.9-.6-1.7-.8-2.6-.2-1.1-.9-1.6-2-1.7-1-.1-1.9-.3-2.8-.7-.4-.2-.8-.3-1.2-.1-.4.2-.5.1-.7-.3-1-2.8-1.3-5.6-1.2-8.6 0-.3.2-.6-.3-.7.2-1.6.4-3.3.5-4.9.2 0 .4-.1.4-.4.1-.4.1-.8.2-1.2.4-2.2.8-4.5 2-6.5.1-.2.1-.4 0-.5.1-.2.2-.4.4-.6.3-.4.8-.5 1-1 .2 0 .4-.1.7-.1.3 0 .4-.1.4-.3.2 0 .5 0 .7-.2.1 0 .1 0 .2-.1.4 0 .8-.3 1.2-.2.4.4.6-.1.8-.1.2.2.3.1.5.1.6-.1 1.2-.5 1.7 0 .1.1.4.1.6-.1.4.2.6.5.9.8.8 1.2 1.5 2.6 2.1 3.9 1.4 3.1 3 6 5.3 8.6.6.7 1.2 1.5 1.6 2.3-.1.4.1.7.2 1-.2.2-.2.4-.1.6.3 1 .4 2 .4 3 .1 4.1-.6 8.1-1.8 12-.7 2.3-1.5 4.6-1.7 7.1-.4 3.9 2.8 7.8 6.7 8.3.5.1.4.2.2.5-.6 1-1.3 2-2.2 2.8-3.3 3.3-7.4 4.6-12 4.4-3-.1-5.5-1.4-7.5-3.5-.3-.3-.3-.6-.2-.9.4-1 1-1.9 1.6-2.9.8-1.3 1.6-2.6 2-4 .1-.4.2-.9.2-1.4 0-.1 0-.3-.2-.3s-.2.1-.2.3c0 .2 0 .4-.1.6-.3 1.7-1.1 3.1-2 4.5-.8 1.3-1.5 2.5-2 3.9-.4 1.2-.4 2.3-.5 3.5-.2.1-.2.2 0 .3l-.1 3c-.1.1-.1.1 0 .2 0 1.1-.1 2.2-.1 3.3-.2.1-.2.2 0 .3-.1 2.7-.1 5.4-.2 8.1-.2.1-.2.1 0 .2v.9c-.2.1-.2.2 0 .3 0 2.1 0 4.2-.1 6.2h-.3c-.7.1-1.3.2-1.6.9-.3.8-.1 1.3.5 1.8.2.2.2.3 0 .5s-.4.4-.4.7v5.6c0 .4.1.8.6.8-.6 3.4-2.1 6.2-5.2 8.1-1.1.7-2.4 1.1-3.7.8-1.5-.3-2.5-1.2-3.3-2.4 0 .2-.1-.1-.4 0"/><path id="Fill-5_2_" class="st32" d="M74.9 104l-.2-.2c-1 .9-2 1.7-3 2.6-.3.2 0 .4.1.6.9.9 1.9 1.8 2.8 2.7.1.1.2.2.3.2.1.1.2.1.3 0 .1-.1.1-.2 0-.3l-.3-.3c-.8-.8-1.6-1.5-2.4-2.3-.3-.3-.3-.5 0-.8.4-.3.8-.7 1.2-1.1.4-.2.9-.6 1.2-1.1m7.8 15.2c-2.3-.1-4.7.1-7 .1-1.2 0-2.4-.2-3.5-.1v-.2c.2-1.6 0-3.1-.1-4.7-.1-1.5-.3-3-.4-4.6.2 0 .4.1.5.2.8.9 1.8.6 2.8.6.1 0 .3 0 .3-.2s-.2-.2-.4-.2h-1.2c-.5 0-.8-.1-1.1-.4-.3-.3-.5-.6-.9-.7-.3-1.3-.3-2.6-.4-3.9 0-.3 0-.5.1-.8.1-.1.3-.1.4-.2.5-.7 1.3-.6 2-.6h.6c.2 0 .4.1.4-.2 0-.2-.2-.2-.4-.2-.9 0-1.8-.1-2.6.4-.2.1-.2 0-.2-.1.1-.6.2-1.3.3-1.9.3-2.8-.1-5.5-.4-8.2-.2-1.8-.5-3.6-.6-5.4 0-.5.1-.6.6-.5.4.1.8.1 1.2.1 2.8.1 5.7 0 8.4-.7.6-.2.7-.2.7.5.1 2.7.1 5.3.3 8 .3 5 .6 10 1.1 15 .1 3 0 6-.5 8.9"/><g id="Group-9" transform="translate(.329 19.841)"><defs><filter id="Adobe_OpacityMaskFilter_6_" filterUnits="userSpaceOnUse" x="15.8" y="-.3" width="40.5" height="96.9"><feColorMatrix values="1 0 0 0 0 0 1 0 0 0 0 0 1 0 0 0 0 0 1 0"/></filter></defs><mask maskUnits="userSpaceOnUse" x="15.8" y="-.3" width="40.5" height="96.9" id="mask-2_3_"><g filter="url(#Adobe_OpacityMaskFilter_6_)"><path id="path-1_3_" class="st5" d="M15.8-.3h40.5v96.9H15.8z"/></g></mask><path id="Fill-7_2_" d="M43.6 41.5c-.2-.2-.4-.2-.5-.2-.2 0-.4-.2-.5.1-.1.2-.1.5.1.7.2.2.3-.1.5-.2.1-.1.2-.3.4-.4m-.2-8.2c-.3-.2-.5-.4-.7-.5-.3-.2-.6-.7-.9-.6-.3.2-.2.8-.3 1.2v.1c0 .2 0 .3.3.3.4-.2.9-.3 1.6-.5m-.8-2.1h-.5c-.3 0-.4.2-.2.4.6.6 1.3 1.1 2 1.5.1.1.2 0 .3-.1.1-.1 0-.2-.1-.3-.2-.4-.5-.7-.7-1.1-.1-.3-.3-.5-.8-.4M38.2 18c.4.1.3.5.3.7-.1 2.9.2 5.8 1.2 8.6.1.4.3.5.7.3.4-.2.9 0 1.2.1.9.4 1.8.6 2.7.7 1.1.1 1.8.7 2 1.7.2.9.7 1.7.8 2.7 0 .5 1 1 1.5.9 2.5-.3 4.4-1.6 6.3-3.2.3-.3.6-.7 1-1 .1-.1.2-.4.5-.2s0 .4-.1.5c-.5.6-1.1 1.1-1.7 1.6-1.8 1.4-3.6 2.5-5.9 2.7-.3 0-.4.1-.3.5.2.7.5 1.5.7 2.3.2.9.1 1.7-.6 2.3-.2.1-.2.4-.3.6-.2.6-.4 1.3-.8 1.9-.9 1.3-2.1 2.2-3.8 2-.5-.1-.6.2-.6.6 0 1.2 0 2.4-.3 3.5-.1.2-.1.4-.2.6-.1.1-.1.2-.3.2-.2-.1-.2-.2-.1-.4.8-2.3.5-4.6.3-6.9 0-.2-.1-.4-.2-.6-.1-.1-.1-.3 0-.4.1-.1.2 0 .3.1.5.5 1.4.5 2 .1.1-.1.3-.3.5-.1.3.3-.2.4-.2.6.1.1.5 0 .5.3s-.3.3-.5.4c-.6.2-1.1.5-1.5 1-.1.1-.3.3-.2.5.1.2.2.2.4.2.6 0 1.2-.1 1.8-.2.3-.1.5-.2.6-.4.4-.9.8-1.7.8-2.7 0-.5-.2-.9-.7-1.1-1.6-.6-3.3-.9-4.9-1.3-.5-.1-.9.1-1.4.3-.1.1-.3.1-.4-.1-.1-.2.1-.3.2-.4.6-.3 1.3-.4 1.9-.2 1 .2 2 .4 2.9.7.3.1.7.2 1 0 .1-.1.3-.1.3.1 0 .4.3.4.5.5.6.3.9.7 1 1.4 0 .3 0 .5.1.8.3-.5.5-1 .5-1.6-.1-.9-.4-1.7-.8-2.4-.2-.4-.6-.5-1-.6-2-.2-4 0-6 .1-.5 0-.9.2-1.2.7-.1.1-.2.3-.4.2-.2-.1-.1-.3 0-.5.3-.5.8-.8 1.4-.9 1.7-.1 3.4-.2 5.2-.1.4 0 .7 0 .9-.3-.1-.4 0-.4.2-.4.2.1.2.2.1.3 0 .1 0 .2.1.3 1 .5 1.3 1.4 1.6 2.4.1.2.1.4.2.7.4-.4.4-.8.4-1.2-.2-1.2-.5-2.3-1-3.4-.4-.9-1.3-1.2-2.3-.9-1.6.6-3.3.9-5 1.2-.4.1-.7.2-1 .4-.1.1-.3.3-.4.1-.2-.2 0-.4.2-.5.4-.3.9-.5 1.5-.5.5 0 .7-.2.8-.8 0-.5.2-.9.3-1.4.2-.5.3-1.1 0-1.6-.1-.2-.2-.4.1-.5.3-.1.3.2.4.4.2.7 1.2.8 1.7.3.1-.1.2-.4.5-.3.3.2.1.4-.1.5-.2.2-.1.3 0 .5.1.1.1.2.2.3.8 1.2.9 1.4 2.1 1.2.3 0 .3-.2.2-.4-.3-.9-.6-1.7-.9-2.6-.1-.3-.4-.5-.8-.6-.5-.2-1-.2-1.5-.3-.7-.1-1.3-.4-1.9-.6-.9-.3-1.3-.2-1.5.7-.6 2.1-1.5 4-2.3 6-.5 1.2-.3 2.6-.4 3.8-.5 4.6-1 9.2-2.7 13.6-.7 1.8-.9 3.8-1.4 5.7-.9 3.7-1.6 7.5-2.5 11.2-1.1 4.5-2.8 8.7-4.8 12.9-1.2 2.4-2 4.9-2 7.6 0 .2 0 .4-.3.4s-.2-.3-.2-.5c0-2.4.7-4.7 1.7-6.9 1.3-2.9 2.7-5.8 3.7-8.8 1-3 1.9-6 2.4-9.2.1-.2.1-.4.2-.5.4-1.9.9-3.9 1.3-5.8.7-2.9 1.2-5.9 2.3-8.7.4-1 .6-2.1.7-3.1 0-.1 0-.1.1-.2V46c0-.3.1-.5.1-.8.2-.5.2-.9-.2-.7-.4.2-.8.3-1.2.4-.4 0-.7.2-1.1.3-.6.1-1.3.3-1.9.5-.6 0-1.1.1-1.6.3-.3 0-.6 0-.8.1-.2 0-.4 0-.6.1-.5.1-1 .1-1.5.3-.1 0-.2 0-.4.1-.2 0-.4.1-.6.1-.1 0-.3 0-.4.1-.6 0-1.1.2-1.6.3-.1 0-.3 0-.4.1-.6 0-1.2.3-1.8.4-.6.1-1.2.4-1.7.8-.6.2-1.1.7-1.5 1.1-1.3 1.3-1.6 3-1.7 4.7-.2 2.9.3 5.7 1 8.5.3 1.3.9 1.8 2.1 2h.1c3.3.7 6.6.5 9.8-.2.3-.1.6-.3.9 0 0 .3-.2.3-.4.4-3.8.9-7.5 1.2-11.3 0-.1 0-.3-.2-.4-.1-.2.1 0 .3 0 .5.7 3.3 1.6 6.6 2.2 9.9.7 4 1.2 8 1.5 12 .2 2 .5 3.9 1.3 5.8.4 1 1 2 1.9 2.7.2.1.3.3.3.5-.3.2-.5 0-.7-.2-1.2-1-1.8-2.4-2.3-3.9-.6-2.1-.8-4.3-1.1-6.4-.6-5.6-1.4-11.2-2.7-16.7-.8-3.3-1.8-6.7-2.3-10.1-.3-2.1-.4-4.2 0-6.4.3-1.6 1-2.9 2.2-3.9.2-.1.4-.3.6-.5.2-.1.5-.2.7-.3.4-.2.8-.4 1.1-.5.1.1.3 0 .4-.1l1.2-.3c.1 0 .2 0 .3-.1.2 0 .4-.1.6-.1.2.1.4 0 .5-.1.4 0 .8-.1 1.2-.2.4.1.7-.1 1.1-.2 1.1 0 2.1-.4 3.1-.6.3 0 .5-.2.7-.4.8-1.1 1.3-2.2 1.2-3.6v-.8c0-.4-.2-.9-.3-1.3-.6-1.7-1.6-3.3-2.3-5-.1-.3-.2-.5-.3-.8-.4-2.3.2-4.4 1.1-6.4.8-1.7 1.8-3.3 2.7-4.9 1.5-3 2.5-6.1 3.4-9.3.8-2.9 1.4-5.9 2.6-8.8.3-.9.8-1.7 1.3-2.5.1-.1.2-.3.4-.4.2-.4.5-.8.9-1 .1-.1.2-.1.2-.2l.3-.3c.1 0 .4-.2.5-.2.1.4-.4.8-.7 1.1-.3.2-.6.5-.8.7-.9 1.3-1.7 2.8-2.2 4.3-.9 2.7-1.5 5.6-2.3 8.3-1.1 3.8-2.4 7.4-4.4 10.8-.9 1.5-1.7 3-2.2 4.6-.6 2-.6 3.9.2 5.8.5 1.2 1.2 2.2 1.6 3.5.4 1.2.8 2.4.7 3.6-.1.9-.4 1.8-.9 2.6-.1.1-.2.2-.1.3.1.1.2.1.3 0 1.5-.3 3-.7 4.5-1.2.4-.1.6-.4.6-.8.3-2.2.6-4.4.6-6.6 0-.7.1-1.4.4-2 .8-2 1.9-3.9 2.3-6.1.1-.3.1-.5 0-.7-1.1-3-1.5-6.1-1.4-9.3-.5-.2-.5-.4-.2-.6" mask="url(#mask-2_3_)" fill-rule="evenodd" clip-rule="evenodd" fill="#2f3541"/></g><g id="Group-12" transform="translate(29.9 17.24)"><defs><filter id="Adobe_OpacityMaskFilter_7_" filterUnits="userSpaceOnUse" x="15.9" y="-.7" width="38.1" height="103.1"><feColorMatrix values="1 0 0 0 0 0 1 0 0 0 0 0 1 0 0 0 0 0 1 0"/></filter></defs><mask maskUnits="userSpaceOnUse" x="15.9" y="-.7" width="38.1" height="103.1" id="mask-4_1_"><g filter="url(#Adobe_OpacityMaskFilter_7_)"><path id="path-3_1_" class="st5" d="M15.9-.7h38v103.1h-38z"/></g></mask><path id="Fill-10" d="M39.1 95.4l.1-2v-.3c.3-1.5.7-2.9 1.3-4.3.2-.6.4-1.1.6-1.7.2-.7.4-1.3.5-2 .2-1.3.2-2.7.1-4.1-.2-3-.7-6-1-9-.1-1.4-.2-2.8 0-4.2 0-.2 0-.4.3-.4.2 0 .2.3.2.4 0 .5-.1.9-.1 1.4 0 .4.1.5.5.6 1.9.2 3.7.2 5.6.1 1.4-.1 2.8-.3 4.2-.8.3-.1.5-.2.5-.6-.1-2.6-.1-5.1-.5-7.7-.3-2.3-1.2-4.3-3-5.9-1.2-1-2.7-1.7-4.1-2.4-.3-.1-.5-.2-.4-.5.3 0 .5 0 .8.1.9.4 1.9.8 2.8 1.4.4.3.5.1.5-.3 0-1-.3-1.9-.8-2.7-.7-1-1.6-1.8-2.5-2.7-1.1-1.1-1.8-2.3-2-3.9-.2-1.3 0-2.6.3-3.8.4-1.9.9-3.8 1.4-5.7.5-2 .4-3.9-.5-5.8-.6-1.3-1.5-2.4-2.4-3.4-1.8-2-2.8-4.4-3.3-7-.5-2.6-.8-5.3-1.6-7.9-1.1-3.5-2.8-6.5-5.9-8.5-3.1-2-6.5-2.7-10.2-2-1.4.3-2.6 1-3.7 1.9-.2.1-.4.4-.6.1 0-.4.4-.4.5-.7l.1-.1c.1 0 .3-.1.3-.3-.2.3-.1.3-.1.3.2 0 .3-.1.4-.2.7-.4 1.5-.7 2.3-1 .2 0 .4.1.5-.1 1-.1 2-.1 2.9-.2.2 0 .4.1.6.1h.8c.2.1.4.1.6.1.9.3 1.8.5 2.7.7.2.2.4.2.6.3 1.2.5 2.3 1.1 3.3 1.9.5.5.9 1.1 1.6 1.4.2.6.6 1 1.1 1.4.1.1.2.3.3.4 2.1 3.2 2.9 6.7 3.5 10.4.2 1.2.5 2.5.7 3.7.5 2.3 1.7 4.2 3.2 5.9.6.7 1.2 1.5 1.7 2.3 1.3 2 1.7 4.2 1.2 6.5s-1.1 4.6-1.6 6.9c-.2 1.1-.3 2.2-.1 3.3.2 1.6 1.3 2.8 2.5 3.9.8.8 1.6 1.5 2.2 2.5 0 .1 0 .2.2.3v.1c0 .2.1.4.2.6v.2c.1.3.1.7.2 1-.1.2-.1.5 0 .7-.2.5 0 .8.4 1.1 1.8 1.6 2.7 3.6 3.1 5.9.5 2.9.5 5.8.5 8.7.1 8 .7 15.9 1.4 23.8.3 2.9.1 5.8-.4 8.8 0 .2 0 .4-.3.4s-.2-.3-.3-.5c.5-2.9.7-5.9.4-8.9-.5-5-.8-10-1.1-15-.2-2.6-.2-5.3-.3-7.9 0-.6 0-.6-.7-.4-2.7.8-5.5.9-8.3.7-.4 0-.8 0-1.2-.1-.5-.1-.6.1-.6.5.1 1.8.4 3.6.6 5.4.4 2.7.7 5.4.4 8.2-.1.6-.2 1.3-.3 1.9-.2.3-.2.6-.2.9-.2.2-.2.5-.1.8.1 1.3.1 2.6.4 3.8-.1.2 0 .4 0 .6.1 1.5.3 3 .4 4.5.1 1.6.2 3.1.1 4.7v.2c-.1.2 0 .4-.3.4s-.2-.3-.2-.5v-1.3c.1-.1.1-.2 0-.4v-1.6c.1-.5-.1-1.1-.1-1.6 0-.2 0-.4-.1-.6.1-.2 0-.4 0-.6l-.5-4.7c0-.1 0-.1-.1-.1.1-.8 0-1.5-.2-2.2-.3.5-.5 1-.6 1.6-.1 0-.1.1-.1.2-.3.8-.6 1.6-.6 2.5-.3 1-.1 1.9-.1 2.9 0 .1 0 .2-.1.3 0 .4-.2.8 0 1.3 0 .1 0 .2.1.3-.1.2-.1.4 0 .6v1.6c0 .2-.1.3 0 .5 0 .3.1.5.1.8 0 .1 0 .3.1.4 0 .2 0 .4-.2.4-.2.1-.3-.1-.3-.3-.1-1-.2-2.1-.3-3.1v-2.7-.3c.1-.4.1-.5.1-.6" mask="url(#mask-4_1_)" fill-rule="evenodd" clip-rule="evenodd" fill="#2f3541"/></g><g id="Group-15" transform="translate(9.529 39.358)"><defs><filter id="Adobe_OpacityMaskFilter_8_" filterUnits="userSpaceOnUse" x="15.9" y="-.5" width="48" height="81.2"><feColorMatrix values="1 0 0 0 0 0 1 0 0 0 0 0 1 0 0 0 0 0 1 0"/></filter></defs><mask maskUnits="userSpaceOnUse" x="15.9" y="-.5" width="48" height="81.2" id="mask-6_1_"><g filter="url(#Adobe_OpacityMaskFilter_8_)"><path id="path-5_1_" class="st5" d="M15.9-.5h48v81.1h-48z"/></g></mask><path id="Fill-13_2_" d="M29.4 71.4c-.1.4-.3.7-.3 1.1 0 .1-.1.2-.1.3-.2.2-.1.4-.1.6-.3.4-.4.9-.6 1.4-.8 1.8-2.1 3.1-3.6 4.3-.2.1-.4.3-.6.4-1.2.7-2.5 1.2-4 1-1.9-.2-3.1-1.4-4.2-2.9-.1-.1-.1-.3 0-.4.3-.1.4.2.6.4.9 1.1 1.8 2.1 3.3 2.4 1.4.3 2.6-.2 3.8-.8 3.1-1.8 4.7-4.7 5.3-8.1v-.2c.6-2.1.8-4.4 1-6.6 0-.5.2-1 .1-1.5 0-.5.1-1 0-1.5v-.4c.1-2.1.1-4.2.1-6.2.1-.1.1-.2 0-.3.1-.3.1-.6 0-.9v-.2c.1-2.7.1-5.4.2-8.1.1-.1.1-.2 0-.3 0-1.1.1-2.2.1-3.3.1-.1.1-.1 0-.2l.1-3c.1-.1.1-.2 0-.3.1-1.2.1-2.4.5-3.5.5-1.4 1.2-2.7 2-3.9.9-1.4 1.8-2.8 2-4.5 0-.2 0-.4.1-.6 0-.1.1-.3.2-.3.2 0 .2.1.2.3 0 .5-.1.9-.2 1.4-.4 1.5-1.2 2.7-2 4-.6.9-1.2 1.9-1.6 2.9-.2.4-.1.6.2.9 2 2.2 4.5 3.4 7.5 3.5 4.6.2 8.7-1.2 12.1-4.4.9-.8 1.6-1.8 2.2-2.8.2-.3.3-.4-.2-.5-4-.4-7.1-4.3-6.7-8.2.2-2.4 1-4.8 1.7-7.1 1.2-3.9 1.9-7.9 1.8-12 0-1-.1-2-.4-3-.1-.2-.1-.4.1-.6.3.2.4.5.4.8.3 1.5.3 3.1.3 4.6-.1 3.4-.7 6.8-1.7 10-.7 2.3-1.5 4.5-1.8 6.9-.5 3.9 2.3 7.2 5.5 8 1.7.4 3.3.1 5-.3.1 0 .4 0 .4-.2s-.2-.2-.3-.3c-1.1-1.1-1.5-2.3-1.4-3.8.2-1.7 1-3.1 1.6-4.7 1.1-2.5 1.6-5.2.8-7.9 0-.1 0-.2-.1-.3 0-.1 0-.2.2-.3.1 0 .2 0 .3.1.1.1.1.3.1.4.7 2.6.4 5.2-.6 7.7-.6 1.4-1.3 2.7-1.7 4.2-.3 1.2-.2 2.4.5 3.5.5.8 1.2 1.4 2.3 1.2.6-.1 1.3-.1 1.9 0 .6.1 1.3.1 1.8.7-.3-.2-.6.1-.9 0-.8-.3-1.7-.3-2.6-.2-1.8.2-3.5.7-5.3.8-.2 0-.3.2-.4.3-2.7 4.7-7 7.2-12.4 7.8-4 .5-7.4-.6-10.2-3.4-.3-.3-.4-.2-.5.1-.2 1.1-.3 2.2-.3 3.3-.2 5.6-.3 11.2-.5 16.7-.1 2.1-.1 4.2-.1 6.3-.2.6-.2 1.1-.1 1.7-.1.3-.1.6-.1.9-.1.3-.2.6-.1.9-.1 1-.3 2.1-.4 3.1-.1.9-.4 1.7-.4 2.6l.2.5z" mask="url(#mask-6_1_)" fill-rule="evenodd" clip-rule="evenodd" fill="#2f3541"/></g><path id="Fill-16" class="st7" d="M23.9 28.2c0 .3.1.6.1.9.1.4.4.6.8.6s.7-.2.8-.6c.1-.3.1-.6.2-1 .1-.8.3-1.6.8-2.4.3-.5.7-1 1-1.5.8-1.3.8-2.6.2-3.9-.2-.5-.6-.9-1.1-1.1-1.5-.5-3.7-.2-4.9.8-.8.7-1.3 1.6-1.2 2.7.1.4.3.8.8.8s.7-.3.9-.7c.1-.2.1-.5.3-.7.5-.9 1.6-1.3 2.6-1 .8.3 1 .9.8 2-.2 1-.8 1.8-1.3 2.7-.5.7-.8 1.5-.8 2.4m4.7-5.9c.1.9-.2 1.7-.7 2.5-.9 1.2-1.6 2.6-1.7 4.2-.1.9-.5 1.2-1.3 1.3-.7 0-1.3-.3-1.4-1-.2-1.2-.1-2.4.5-3.5.5-.8 1-1.7 1.3-2.6v-.1c.3-.9.1-1.3-.4-1.5-.8-.3-1.7.1-2 .8-.1.2-.2.5-.2.7-.2.6-.7.9-1.3.8-.6 0-1-.4-1.2-1-.3-1.1.4-2.8 1.5-3.6 1.6-1 3.3-1.2 5-.5 1 .4 1.5 1.2 1.7 2.1.2.5.3 1 .2 1.4"/><path id="Fill-18" class="st7" d="M25.3 31.3c-.5 0-.8.4-.8.9s.4.8.8.8c.5 0 .9-.4.9-.9 0-.4-.4-.8-.9-.8m1.4.9c0 .7-.6 1.3-1.4 1.3-.7 0-1.3-.6-1.3-1.3 0-.7.6-1.3 1.3-1.3.8 0 1.4.6 1.4 1.3"/><path id="Fill-20" class="st7" d="M41.8 20.2c.4-.6 1.1-.8 1.7-1 .3 0 .6-.1.9 0v.2c-.2.4-.5.3-.8.3-.4 0-.8-.1-1.1.4-.1.3-.4.6-.7.1"/><path id="Fill-22" class="st39" d="M78.2 70.5c-.1-.2-.1-.4 0-.6.2.2.2.4 0 .6"/><path id="Fill-24" class="st39" d="M77.7 67.7c-.1 0-.1-.1-.1-.2.1 0 .1.1.1.2"/><path id="Fill-26" class="st39" d="M77.6 69c0-.1 0-.1 0 0 0-.1.1-.1 0 0"/><path id="Fill-28" d="M44.3 19.2c.4 0 .7-.4 1.2-.3.3.3.4.1.6-.1 1.1-.9 2.3-1.6 3.7-1.9 3.7-.8 7.1-.1 10.1 1.9 3.1 2 4.9 5 5.9 8.5.8 2.6 1.1 5.2 1.6 7.9.5 2.6 1.5 5 3.3 7 .9 1.1 1.8 2.2 2.4 3.4.9 1.8 1 3.8.5 5.8-.4 1.9-1 3.8-1.4 5.7-.3 1.2-.5 2.5-.3 3.8.2 1.5.9 2.8 2 3.9.8.9 1.8 1.6 2.5 2.7.5.8.9 1.7.8 2.7 0 .4-.1.6-.5.3-.9-.6-1.8-1-2.7-1.4-.3-.1-.5-.2-.8-.1-.1 0-.1 0-.2-.1-.4-.6-1.1-.6-1.8-.7-.6-.1-1.3-.1-1.9 0-1.1.2-1.7-.4-2.3-1.2-.7-1.1-.8-2.2-.5-3.5.4-1.5 1.1-2.8 1.7-4.2 1-2.5 1.3-5 .6-7.7 0-.1-.1-.3-.1-.4-.1-.1-.2-.2-.3-.1-.1 0-.2.1-.2.3 0 .1 0 .2.1.3.8 2.7.3 5.3-.8 7.9-.6 1.5-1.4 3-1.6 4.6-.2 1.5.3 2.7 1.4 3.8.1.1.3.1.2.3 0 .2-.3.1-.4.2-1.6.3-3.3.7-4.9.3-3.1-.8-6-4.1-5.4-8 .3-2.4 1.1-4.6 1.8-6.9 1-3.3 1.6-6.6 1.7-10 .1-1.6 0-3.1-.3-4.6-.1-.3-.1-.6-.4-.8-.1-.3-.3-.6-.2-1 .2 0 .3.2.4.3.7 1 1.3 2 1.7 3.1.5 1.4.8 2.8.5 4.3-.3 1.9-.9 3.8-1 5.7-.1 1 0 2 .5 2.9.1.2.2.4.5.3.2-.1.1-.3 0-.5-.4-.8-.5-1.7-.4-2.6.1-1.4.4-2.7.7-4.1.7-2.8.3-5.5-1.1-8-.8-1.5-1.9-2.8-3-4.1-2-2.2-3.5-4.7-4.8-7.4-.6-1.3-1.2-2.7-1.9-4-.8-1.3-1.5-2.6-3.2-2.7-.7-.1-2.2.5-2.4 1.2-.4-.1-.8.3-1.2.2.1-.5-.3-.7-.7-.9-.4-.3-.9-.3-1.4-.1-.2.1-.3.2-.2.4 0 .2.2.2.3.1.8-.3 1.3.1 1.8.5-.2.2-.4.1-.7.2-.8-.2-1.5-.3-2.2.2-.1.1-.3.2-.2.4.1.2.3.1.5.1.3-.1.6-.2.9-.2-.2.4-.7.6-1 .9-.1.2-.2.4-.4.6-.5.1-.6.5-.7.9-1 2-1.4 4.2-1.8 6.3-.1.4-.2.9-.1 1.3-.2 1.6-.4 3.3-.5 4.9-.2.2-.2.5-.2.7-.1 3.2.3 6.2 1.4 9.2.1.3 0 .5 0 .7-.5 2.1-1.5 4-2.3 6-.3.6-.4 1.3-.4 2 0 2.2-.3 4.4-.6 6.5-.1.4-.2.7-.6.8-1.5.5-3 .8-4.5 1.2-.1 0-.2.1-.3 0-.1-.1 0-.2.1-.3.5-.8.8-1.6.9-2.6.1-1.3-.3-2.4-.7-3.6-.4-1.2-1.1-2.3-1.6-3.4-.9-1.9-.8-3.8-.2-5.7.5-1.6 1.3-3.1 2.2-4.6 2.1-3.3 3.4-7 4.4-10.7.8-2.8 1.4-5.5 2.3-8.3.5-1.5 1.3-2.9 2.2-4.3.2-.3.5-.5.8-.7.3-.2.5-.5.5-.9h.1c.3.4.7.2.8-.1.3-.5.7-.4 1.1-.4.1.2.4.4.6 0" fill-rule="evenodd" clip-rule="evenodd" fill="#fa9fb3"/><path id="Fill-30" class="st31" d="M30 84.8c-.3-.2-.6 0-.9 0-3.3.7-6.5.9-9.8.2h-.1c-1.1-.2-1.8-.7-2.1-2-.6-2.8-1.2-5.7-1-8.6.1-1.8.5-3.4 1.7-4.8.4-.5.9-.9 1.5-1.1 1.2 0 2.4.1 3.6-.2h.4c.4.2.9.2 1.3.1.4 0 .9-.2 1.2.3.6.9 2.3.8 2.7-.4.1-.3.2-.4.5-.2.4.3.9.4 1.3.2.6-.3 1-.1 1.6 0 1 .3 1.7-.3 1.6-1.2 0-.2-.1-.5-.1-.7 0-.5.2-.6.6-.5.4.1.8 0 1.1 0v.2c0 .1 0 .1-.1.2-.1 1.1-.3 2.2-.7 3.2-1.2 2.8-1.7 5.9-2.3 8.8-.4 1.9-.9 3.9-1.3 5.9 0 .2-.1.4-.2.6H30z"/><path id="Fill-32" class="st7" d="M45.7 21.7c.2-.6 1.8-1.3 2.5-1.2 1.8.2 2.5 1.5 3.3 2.8.8 1.3 1.3 2.7 1.9 4 1.2 2.7 2.9 5.2 4.8 7.5 1.1 1.3 2.2 2.6 3 4.1 1.4 2.5 1.9 5.2 1.1 8.1-.4 1.3-.6 2.7-.8 4.1-.1.9 0 1.8.4 2.7.1.2.2.4 0 .5-.3.1-.4-.1-.5-.3-.3-1-.3-2-.3-3 .1-2 .8-3.9 1-5.8.2-1.5 0-3-.6-4.4-.4-1.1-1-2.2-1.7-3.2-.1-.2-.2-.3-.4-.3-.4-.9-1-1.6-1.7-2.4-2.3-2.6-4-5.5-5.4-8.6-.6-1.4-1.2-2.7-2.1-4-.2-.3-.5-.7-.9-.8-.7-.8-2-.8-2.9 0-.1 0-.3.5-.7.2"/><path id="Fill-34" class="st32" d="M39.8 101.8c.1.5-.2 1-.1 1.5H39c-.4 0-.5.1-.5.5v5.7c0 .2 0 .4.2.5v.2c-.5 0-.6-.4-.6-.8v-5.7c0-.3.2-.5.4-.7.2-.2.2-.3 0-.5-.6-.5-.8-1-.5-1.8.3-.8.9-.9 1.5-.9h.3v.5c-.9-.2-1.3 0-1.6.7-.2.6.1 1.1.6 1.4.7.3.8 0 1-.6-.1 0 0 0 0 0"/><path id="Fill-36" class="st7" d="M38.6 32.8c-.2-.4 0-.9.1-1.3.4-2.2.7-4.3 1.7-6.3.2-.3.3-.8.7-.9.1.2.1.3 0 .5-1.1 2-1.5 4.2-1.9 6.4-.1.4-.1.8-.2 1.2-.1.3-.2.4-.4.4"/><path id="Fill-38" class="st7" d="M46.4 35.3c0 .9-.2 1.5-.6 2.1-.2.3-.4.5-.6.8-.5.8-.4 1.4.4 1.8.2.1.5.1.4.4-.1.3-.4.1-.6 0-.9-.4-1.2-1.5-.7-2.3.2-.3.4-.5.6-.8.6-.8.8-1.7.5-2.7-.1-.2-.1-.4.1-.4.2-.1.3.1.4.3 0 .3.1.6.1.8"/><path id="Fill-40" class="st7" d="M45.4 45.2c.7.5 1.8.3 2.6.7.2.1.4.2.3.5-.2.3-.4 0-.6-.1-.3-.1-.6-.2-.9-.2-.5 0-1.1-.2-1.6-.4-.2-.1-.3-.2-.2-.4.1-.1.2-.1.4-.1"/><path id="Fill-42" class="st7" d="M51.2 31.5c.6.5 1.4.3 2.1.6.2.1.4.2.3.5-.1.3-.3.1-.4.1-.4-.2-.8-.2-1.2-.3-.3 0-.6-.1-.9-.4-.1 0-.1-.2-.1-.3 0-.1.1-.2.2-.2"/><path id="Fill-44" class="st7" d="M43.4 31.5c.2 0 .3 0 .4.1 0 .2-.1.2-.2.3-.4.1-.6.1-.9.1-.4 0-.8 0-1.1.1-.2.1-.4.1-.4-.1-.1-.2.1-.3.3-.3.2-.1.4-.1.7-.1.4 0 .8 0 1.2-.1"/><path id="Fill-46" class="st7" d="M41.8 35.4c-.4 0-.6-.2-.7-.6 0-.4.2-.7.6-.7.4 0 .7.2.7.6.1.5-.2.7-.6.7"/><path id="Fill-48" class="st7" d="M53.6 35.4c0 .4-.3.7-.7.6-.4 0-.6-.2-.6-.6 0-.4.2-.7.6-.7.5.1.7.3.7.7"/><path id="Fill-50" class="st7" d="M42.6 22.9c-.3 0-.6 0-.9.1-.2.1-.4.1-.5 0-.1-.2.1-.2.2-.3.8-.3 1.6-.3 2.4-.1 0 .2-.2.3-.4.3-.3-.1-.6-.1-.8 0"/><path id="Fill-52" class="st7" d="M44.8 22.4c-.6-.5-1.2-.9-2.1-.6-.1 0-.3 0-.3-.1 0-.2.1-.4.3-.5.5-.2 1.1-.1 1.6.1.4.2.9.4.8 1-.1.1-.2.1-.3.1"/><path id="Fill-54" class="st32" d="M47 21.6c.8-.6 1.9-.7 2.6 0-.1.2-.4.2-.5.1-.5-.4-1.1-.1-1.6 0-.1 0-.3.1-.5-.1"/><path id="Fill-56" class="st7" d="M50.5 31.5c.2.1.4.2.5.5 0 .1-.1.2-.2.1-.2-.1-.4-.2-.5-.4 0-.1.1-.2.2-.2"/><path id="Fill-58_1_" class="st39" d="M39.5 93.5c.1.1.1.2 0 .3-.1-.1-.1-.2 0-.3"/><path id="Fill-60_1_" class="st39" d="M40.2 77.3c.1.1.1.2 0 .3-.2-.2-.2-.3 0-.3"/><path id="Fill-62_1_" class="st39" d="M40.2 83.8c.1.1.1.2 0 .3-.2-.2-.2-.3 0-.3"/><path id="Fill-64_1_" class="st39" d="M40.2 80.5v.2c-.2 0-.1-.1 0-.2"/><path id="Fill-66_1_" class="st39" d="M39.5 92.3v.2c-.1-.1-.1-.2 0-.2"/><path id="Fill-68_1_" class="st32" d="M74.9 103.9c-.3.5-.7.9-1.1 1.3-.4.3-.7.7-1.1 1.1-.3.3-.3.6 0 .9.7.8 1.5 1.6 2.2 2.4.1.1.2.2.3.4.1.1.1.2 0 .3-.1.1-.2.1-.2 0l-.2-.2c-.8-1-1.7-1.9-2.5-2.9-.1-.2-.4-.4-.1-.6l2.7-2.7c-.1-.1 0-.1 0 0"/><path id="Fill-70_1_" class="st32" d="M71.4 104.4c0-.3 0-.7.2-1 .1.1 0 .3.2.1.8-.6 1.6-.4 2.5-.4.2 0 .4 0 .4.3s-.2.2-.4.2h-.6c-.7 0-1.4-.1-1.9.7-.1 0-.3 0-.4.1"/><path id="Fill-72_1_" class="st32" d="M71.4 109.5c-.1-.2-.1-.4 0-.6.4.1.6.4.8.6.3.3.6.4 1 .4h1.1c.1 0 .3-.1.3.1 0 .1-.2.2-.3.1-.9 0-1.8.2-2.5-.5-.1 0-.2-.1-.4-.1"/><path id="Fill-74_1_" class="st31" d="M30.6 66.6h.2c.2 0 .5.1.5-.1s-.2-.3-.4-.4h-.4c-.3 0-.6.2-.5.4 0 .3.3.1.5.1h.1"/><path id="Fill-76_1_" class="st32" d="M42.6 51.1c.4-.1.7.1.9.5.2.4.5.7.8 1.1.1.1.2.2.1.3h-.3c-.8-.4-1.6-.9-2.2-1.5-.2-.2-.1-.4.2-.4h.5"/><path id="Fill-78_1_" class="st32" d="M43.8 53.3c-.7.1-1.2.2-1.7.3-.3.1-.3 0-.3-.2.1-.3 0-.8.3-1 .3-.1.6.3.9.5l.8.4"/><path id="Fill-80_1_" class="st32" d="M25.4 67.3c0 .3-.3.6-.8.6-.5.1-.9-.2-1.1-.4.5-.1 1.2-.2 1.9-.2"/><path id="Fill-82_1_" class="st32" d="M43.8 61.7c-.2.1-.4.2-.6.2-.2.1-.4.3-.6.2-.2-.1-.2-.3-.1-.5s.4-.1.6-.1c.2 0 .4 0 .7.2"/><path id="Fill-84_1_" class="st39" d="M25.7 68c-.5-.1-.2-.8-.3-1.2.2 0 .3-.1.5-.1 0 .4 0 .8.1 1.1-.1 0-.2 0-.3.2"/><path id="Fill-86_1_" class="st31" d="M34.2 65.4c.1.1.1.1 0 .5v-.5"/><path id="Fill-88_1_" class="st32" d="M35.5 66.4v-.2c.1.1 0 .2 0 .2"/><path id="Fill-90_1_" class="st31" d="M46.9 101.7c0-.3-.2-.5-.4-.6-1.7-1.1-4.4-1.1-5.8.7-.1.1-.2.3-.3.2-.2 0-.1-.2-.2-.4 0-.3 0-.6-.4-.6 0-2.1 0-4.2.1-6.2.1-5.6.3-11.1.5-16.7 0-1.1.1-2.2.3-3.2.1-.4.2-.5.5-.1 2.8 2.8 6.2 3.8 10.2 3.4 5.4-.6 9.6-3.1 12.4-7.8.1-.2.2-.3.4-.3 1.8 0 3.5-.6 5.3-.8.9-.1 1.8-.1 2.6.2.3.1.6-.1.9 0 .1 0 .1 0 .2.1 0 .3.2.4.4.5 1.5.6 2.9 1.3 4.1 2.3 1.8 1.5 2.7 3.6 3 5.8.4 2.5.4 5.1.5 7.6 0 .4-.2.5-.5.6-1.4.5-2.8.7-4.2.8-1.9.1-3.7.1-5.6-.1-.4 0-.5-.2-.5-.6 0-.5.1-.9.1-1.4 0-.2.1-.4-.2-.4-.3-.1-.3.2-.3.4-.2 1.4-.1 2.8 0 4.2.3 3 .8 5.9 1 8.9.1 1.4.1 2.7-.1 4.1-.1.7-.3 1.3-.5 2-.2 0-.3 0-.3-.3v-2.7c0-.5-.3.8-.9.7-1.6 0-1.7-1.6-1.7-.1"/><path id="Fill-92_1_" class="st31" d="M50.3 101.5c-.4-.1-.9-.2-1.3.1"/><path id="Fill-94_1_" d="M71.1 108c-.1 0-.1 0 0 0 0-.1 0 0 0 0" fill-rule="evenodd" clip-rule="evenodd" fill="#e2defe"/><path id="Fill-96_1_" class="st32" d="M38.1 110.2c-.3 0-.3-.3-.3-.4v-5.6c0-.4.1-.5.5-.5h.8c-.2 2.2-.4 4.4-1 6.5"/><path id="Fill-98_1_" class="st32" d="M39.7 101.8h-.1c-.1.4-.3.7-1 .5-.6-.2-1-.7-.8-1.2.3-.6.8-.8 1.8-.6.3.5.2.9.1 1.3"/><path id="Fill-100_1_" class="st42" d="M23.9 28c0-.9.3-1.7.7-2.5.5-.9 1-1.8 1.2-2.8.3-1.1 0-1.8-.7-2-1-.4-2.1.1-2.5 1-.1.2-.2.5-.2.7-.1.4-.4.7-.8.7-.5 0-.7-.4-.8-.8-.1-1.1.4-2 1.2-2.8 1.1-1 3.3-1.3 4.6-.6.5.2.8.6 1 1.1.6 1.4.6 2.7-.2 4l-.9 1.5c-.4.8-.6 1.6-.7 2.5 0 .3-.1.7-.2 1-.1.4-.4.6-.8.6s-.7-.2-.8-.6c0-.4 0-.7-.1-1"/><path id="Fill-102_1_" class="st42" d="M25 30.9c.5 0 1 .4 1 .9s-.5 1-1 1-1-.4-1-1c0-.5.5-.9 1-.9"/><path id="Fill-104_1_" class="st39" d="M26.7 68c.4.1.7.3 1.1.1.1 0 .1-.1.2 0v.2c-.1.3-.5.4-.9.2-.1-.1-.2-.2-.4-.2V68"/><path id="Fill-106_1_" class="st39" d="M30.6 66.6h-.1c-.2 0-.5.1-.5-.1 0-.3.3-.4.5-.4h.4c.2.1.5.2.4.4 0 .2-.3.1-.5.1h-.2"/><path id="Fill-108_1_" class="st31" d="M19.5 68.8l1.1-.7 2.2-.5 4.1-.9 2.8-.5 1.7-.3 3.4-.8.9-.4h.1l.1.5-.3 1.6-1.4 2.5-11.8 2.6-3-3.1z"/><path id="Fill-110_1_" class="st7" d="M68.6 18.5c0 .3.1.6.1.9.1.4.4.6.8.6s.7-.2.8-.6c.1-.3.1-.6.2-1 .1-.8.3-1.6.8-2.4.3-.5.7-1 1-1.5.8-1.3.8-2.6.2-3.9-.2-.5-.6-.9-1.1-1.1-1.4-.7-3.7-.4-4.8.6-.8.7-1.3 1.6-1.2 2.7.1.4.3.8.8.8s.7-.3.9-.7c.1-.2.1-.5.3-.7.5-.9 1.6-1.3 2.6-1 .8.3 1 .9.8 2-.2 1-.8 1.8-1.3 2.7-.6.9-.9 1.7-.9 2.6m4.7-6c.1.9-.2 1.7-.7 2.5-.9 1.3-1.6 2.6-1.7 4.2-.1.9-.5 1.2-1.3 1.3-.7 0-1.3-.3-1.4-1-.2-1.2-.1-2.4.5-3.5.5-.8 1-1.7 1.3-2.6v-.1c.3-.9.1-1.3-.4-1.5-.8-.3-1.7.1-2 .8-.1.2-.2.5-.2.7-.2.6-.7.9-1.3.8-.6 0-1-.4-1.2-1-.3-1.1.4-2.8 1.5-3.6 1.6-1 3.3-1.1 5-.5 1 .4 1.5 1.2 1.7 2.1.2.6.2 1 .2 1.4"/><path id="Fill-112_1_" class="st7" d="M69.4 21.6c-.5 0-.8.4-.8.9s.4.8.8.8c.5 0 .9-.4.9-.9-.1-.5-.5-.8-.9-.8m1.3.8c0 .7-.6 1.3-1.4 1.3-.7 0-1.3-.6-1.3-1.3 0-.7.6-1.3 1.3-1.3.8 0 1.4.6 1.4 1.3"/><path id="Fill-114_1_" class="st42" d="M68.6 18.9c0-.9.3-1.7.7-2.5.5-.9 1-1.8 1.2-2.8.3-1.1 0-1.8-.7-2-1-.4-2.1.1-2.5 1-.1.2-.2.5-.2.7-.1.4-.4.7-.8.7-.5 0-.7-.4-.8-.8-.1-1.1.4-2 1.2-2.8 1.1-1 3.3-1.3 4.6-.6.5.2.8.6 1 1.1.6 1.4.6 2.7-.2 4l-.9 1.5c-.4.8-.6 1.6-.7 2.5 0 .3-.1.7-.2 1-.1.4-.4.6-.8.6s-.7-.2-.8-.6c0-.4-.1-.7-.1-1"/><path id="Fill-116_1_" class="st42" d="M69 21.8c.5 0 1 .4 1 .9s-.5 1-1 1-1-.4-1-1c.1-.5.5-.9 1-.9"/><g id="Group-120" transform="translate(20.043 .325)"><defs><filter id="Adobe_OpacityMaskFilter_9_" filterUnits="userSpaceOnUse" x="16.2" y="-.2" width="8" height="11.5"><feColorMatrix values="1 0 0 0 0 0 1 0 0 0 0 0 1 0 0 0 0 0 1 0"/></filter></defs><mask maskUnits="userSpaceOnUse" x="16.2" y="-.2" width="8" height="11.5" id="mask-8_1_"><g filter="url(#Adobe_OpacityMaskFilter_9_)"><path id="path-7_1_" class="st5" d="M16.2-.2h8v11.5h-8z"/></g></mask><path id="Fill-118_1_" d="M19.7 9.3c0 .3.1.6.1.9.1.4.4.6.8.6s.6-.2.7-.6c.1-.3.1-.6.2-.9.1-.8.3-1.6.7-2.3.3-.5.6-.9.9-1.4.7-1.2.7-2.5.2-3.8-.2-.5-.5-.8-1-1.1-1.3-.7-3.4-.5-4.5.5-.7.7-1.3 1.6-1.1 2.6 0 .4.3.8.7.8.4 0 .7-.3.8-.7.1-.2.1-.5.2-.7.4-.9 1.5-1.3 2.4-1 .7.3 1 .9.7 1.9-.2 1-.7 1.8-1.2 2.7-.3.9-.6 1.7-.6 2.5m4.4-5.8c.1.9-.2 1.7-.7 2.4-.9 1.3-1.5 2.6-1.6 4.1-.1.9-.5 1.2-1.2 1.2s-1.2-.3-1.3-1c-.2-1.2-.1-2.3.5-3.4.4-.8.9-1.6 1.2-2.5v-.1c.2-.8.1-1.3-.4-1.5-.8-.3-1.6.1-1.9.8-.1.2-.1.5-.2.7-.2.6-.7.9-1.2.8-.6 0-1-.4-1.1-.9-.3-1.1.3-2.7 1.4-3.5 1.5-1 3.1-1.1 4.7-.5.9.4 1.4 1.2 1.6 2.1.2.4.3.9.2 1.3" mask="url(#mask-8_1_)" fill-rule="evenodd" clip-rule="evenodd" fill="#2f3541"/></g><path id="Fill-121_1_" class="st7" d="M41.1 13.1c-.5 0-.8.4-.8.9s.4.8.8.8c.5 0 .9-.4.9-.9 0-.4-.4-.8-.9-.8m1.3.9c0 .7-.6 1.3-1.4 1.3-.7 0-1.3-.6-1.3-1.3 0-.7.6-1.3 1.3-1.3.9 0 1.5.6 1.4 1.3"/><path id="Fill-123_1_" class="st42" d="M39.7 9.8c0-.9.3-1.7.7-2.5.5-.9 1-1.8 1.2-2.8.3-1.1 0-1.8-.7-2-1-.4-2.1.1-2.5 1-.1.2-.2.5-.2.7-.1.4-.4.7-.8.7-.5 0-.7-.4-.8-.8-.1-1.1.4-2 1.2-2.8 1.1-1 3.3-1.3 4.6-.6.5.2.8.6 1 1.1.6 1.4.6 2.7-.2 4l-.9 1.5c-.4.8-.6 1.6-.7 2.5 0 .3-.1.7-.2 1-.1.4-.4.6-.8.6s-.7-.2-.8-.6c0-.4-.1-.7-.1-1"/><path id="Fill-125_1_" class="st42" d="M40.8 12.7c.5 0 1 .4 1 .9s-.5 1-1 1-1-.4-1-1c0-.5.5-.9 1-.9"/></g></g></g></g></g></svg>