<svg id="Layer_3" data-name="Layer 3" xmlns="http://www.w3.org/2000/svg" viewBox="0 0 380 200"><defs><style>.cls-1{fill:#fff;}.cls-2{fill:#ffedde;}.cls-3{fill:#d79e63;}.cls-4{fill:#e2e2e2;}.cls-5{fill:#00284c;}.cls-6{fill:#5b2714;}.cls-7{fill:#fc9001;}</style></defs><path class="cls-1" d="M298.25,90.28l1.16-.78s14.93,2.32,27.1,8.89c3.34,1.79,6.57,3.29,9.23,5.6a14.85,14.85,0,0,1,4,5.27c2.08,5.22-.38,15.31-1.69,22.08a109.21,109.21,0,0,1-6.38,21.3,71.73,71.73,0,0,1-4.1,8.31,4.9,4.9,0,0,1-.48,2.22,4.5,4.5,0,0,1-1.55,1.59,33.69,33.69,0,0,1-7.05,1.79,112,112,0,0,1-18.55.92,94.08,94.08,0,0,1-16.14-1.55,27.79,27.79,0,0,1-6.71-2.12,2.68,2.68,0,0,1-.63-2.18c.43-2.22,1.16-2.46,1.84-6.81a77.38,77.38,0,0,0,.67-9.85l-.29-10.63-5-1.93S261,148.73,252.36,151.29c-3.14.91-5.12-.92-7.15-2.42a35,35,0,0,1-6.08-5.94s-2.42.43-3.24-1.59-1.16-1.7-1.93-2.81a3.47,3.47,0,0,1-.58-2.12l8.21-8.5a3,3,0,0,1,2,.33c.87.58.68,1.21,1.59,2.08s1.36.63,2.08,1.4a3.47,3.47,0,0,1,.87,1.64l3.82,2.37a141.46,141.46,0,0,0,9.9-12.51,87.58,87.58,0,0,0,5.51-9.23c1.3-2.51,5.6-10.72,7.73-12.8,3.52-3.52,7.1-3.67,10.48-4.73,5.41-1.74,10.09-3.33,10.09-3.33Z"/><path class="cls-2" d="M234.25,136.79s-2-2.56-2.66-3.43c-1.45-2.12-2.51-3.76-4-5.89-.58-.87-1.79-2.41-2.42-3.28a16.53,16.53,0,0,0-2.41-2.85,8.24,8.24,0,0,0-3.53-1.26,37.62,37.62,0,0,0-4.15-.43,7.05,7.05,0,0,1-3.14-1.12,2.53,2.53,0,0,1-1-1.64,2,2,0,0,1,.29-1.3,4.59,4.59,0,0,1-.58-1.74,1.8,1.8,0,0,1,.82-1.26,4.45,4.45,0,0,0-.19-1,2.08,2.08,0,0,1,.05-1.21c.1-.58,1.45-1.26,1.45-1.26s-.53-.82-.87-1.25a10.47,10.47,0,0,0-3.82-2.66c-1.06-.43-2.85-1.26-3.86-1.79-.68-.34-3.48-1.16-3.58-2.7,0-.53.39-.92,1.55-.77,2.32.28,5.17,1.73,6.67,2.36s5.31,1.89,7.92,2.76c.72.24,2.41,1,2.41,1a6.9,6.9,0,0,1,2.42.24,16.27,16.27,0,0,1,3.14,2.9c1.11,1.16,1.93,2.42,3,3.67,1.45,1.74,3,4,4.5,5.7s3.52,4.2,5,5.7,4.54,4.35,4.54,4.35,0,.19-.1,1.5c-.09,1.59-2.6,5.07-5,5.89C236,136.26,234.25,136.79,234.25,136.79Z"/><path class="cls-2" d="M301,149.6s-1.88-1.74-2.46-2.32c-1.65-1.74-3.24-3.09-4.93-4.79-.92-.86-6.28-5.79-8.12-6.66-2.46-1.16-4.68-1.11-7.34-1.5a8.52,8.52,0,0,1-4.4-1.74c-.38-.38-.24-.72-.29-1.3a9.71,9.71,0,0,0-.14-1.31c-.19-.72-.77-1-.82-1.78s1-1.6.87-2.18-1-.72-1.26-1a2.5,2.5,0,0,1-.82-2c.05-.58.77-.92,1.31-1.06.24,0,.72-.25.58-.58-.49-1-6.67-2.52-7.15-2.81-.83-.43-2.71-.82-3.53-1.25-.63-.34-1.79-.82-1-1.84.29-.38,1.55-.33,3.19-.14a35.82,35.82,0,0,1,5.32,1.25c1.11.34,3.52,1.21,5.16,1.7s2.9.62,4.64,1.15a18.71,18.71,0,0,1,4.83,2c.82.49,1.6.92,2.37,1.45,1.11.78,3.24,2.56,4.25,3.43,2.46,2.08,4.4,3.92,6.91,5.9s4.2,3.47,6.47,5.12c1,.72,3.19,2.12,3.19,2.12s.19,3-.44,4.3a8.83,8.83,0,0,1-3.67,4.3A18.43,18.43,0,0,1,301,149.6Z"/><path class="cls-3" d="M287.43,95.64a37.91,37.91,0,0,1-1.49-5.75A57,57,0,0,1,286,78.73a73.83,73.83,0,0,1,1.45-11.5A30.93,30.93,0,0,1,290.86,58,13,13,0,0,1,296,53.27c2-1,8.7-2.22,10.39-2A20.7,20.7,0,0,1,314,53.85a15.63,15.63,0,0,1,4.93,4.78,27.11,27.11,0,0,1,2,4.45c.44,1.45,2.08,9.8,2.17,10.82a62.44,62.44,0,0,0,1.5,6.57c.53,2.17,2,6.67,2.27,7.49.87,2.56,3.34,6.18,3.87,8.84a21.14,21.14,0,0,1-.1,3.76l-3.48-1.88s0,1.16-.05,1.5c-.24,1.25-.43,2.51-.67,3.81-.53,2.56-3.34,5.27-4.93,7s-2.85,2.22-3.48,4c-.87,2.42-.46,3.14-.75,3.1A8.59,8.59,0,0,1,315,117a2.85,2.85,0,0,1-2.57-.2c-1.89-1.41-3-2.18-3.33-4.59a13.78,13.78,0,0,1,.38-5c.48-1.2,2.27-4.1,2.85-5.6a17.64,17.64,0,0,0,1.26-2.71c.38-2.27.34-4.78-2.13-5.84-4-1.69-8.4-4-11.59-3.53-1.31.2-3.72,3.19-3.72,3.19a50.27,50.27,0,0,1-7.05,2.66C288.45,95.44,287.43,95.64,287.43,95.64Z"/><path class="cls-2" d="M299.17,107.57c.1-1-.67-2.37-.82-3.43a29.18,29.18,0,0,1-.58-7.63,23.31,23.31,0,0,1,.29-3.67,4.81,4.81,0,0,1,.53-1.94,23.49,23.49,0,0,0,1-2.17s-1-.63-1.45-1A9.83,9.83,0,0,1,296,85.44a18.38,18.38,0,0,1-2.22-3.86,47.09,47.09,0,0,1-2.65-8.31,15.62,15.62,0,0,1,.38-7.15c.73-2,2.13-2.65,4.11-3.52,1.25-.54,3.14-1.41,4.49-1.26,1.74.19,2.37,1.5,3.38,2.66,1.35,1.64,2.51,3.76,4.2,5.07,1,.77,2.76,2.41,4.74,2.27,1.5-.1,2.8-1.84,3.91-.29.48.63.92.58.48,2.75s-1.73,2.51-1.88,3.09c-.29,1.55.29,5.7.58,7.25a13.54,13.54,0,0,1-.24,3.91c-.19,1.36,0,2.8-.1,4.16a29.06,29.06,0,0,1-1.35,6.52c-1,2.7-2.22,4.15-3.24,6.23-.77,1.64-1.4,3.38-1.4,3.38a19,19,0,0,1-1.93.58,14.32,14.32,0,0,1-5.56-.43,10.22,10.22,0,0,1-2-.68C299.51,107.71,299.17,107.67,299.17,107.57Z"/><path class="cls-4" d="M299.17,107.67a17.63,17.63,0,0,0,4.93,1.3,14.21,14.21,0,0,0,4.83-.58l-.1,1s-2.6,3.63-4.15,6.14a22.19,22.19,0,0,0-2,3.91s-1.3-3.48-2.22-6.42S299.17,107.67,299.17,107.67Z"/><path class="cls-5" d="M277.19,163.8a40.39,40.39,0,0,0,9.52,2.61,96.93,96.93,0,0,0,13.09,1.11,109,109,0,0,0,18.55-1,41.67,41.67,0,0,0,7.25-1.88l1,5.17a145.33,145.33,0,0,1,3.34,14.88A131.71,131.71,0,0,1,331.3,200a121.77,121.77,0,0,1-29,4c-14.83,0-30.19-4.35-30.19-4.35a77.2,77.2,0,0,1,1-13.33C274.44,177.37,277.19,163.8,277.19,163.8Z"/><path class="cls-6" d="M252.07,136.17a.26.26,0,0,1-.19-.1,30,30,0,0,0-3.62-2.37l-.29-.14a.31.31,0,0,1-.1-.44.32.32,0,0,1,.44-.09l.24.14a30.3,30.3,0,0,1,3.72,2.47.36.36,0,0,1,0,.48A1.59,1.59,0,0,1,252.07,136.17Z"/><path class="cls-6" d="M241.88,129a.24.24,0,0,1-.19-.1,66.63,66.63,0,0,1-7.59-7.63c-2.22-2.61-4.39-5.36-6.18-7.68-.24-.34-.48-.63-.72-1a27.74,27.74,0,0,0-5.56-5.84,3.82,3.82,0,0,0-2-.29h-.72a3.42,3.42,0,0,0-1.6.19,3,3,0,0,0-.82,1.69l-.05.1a4.09,4.09,0,0,1-.77,1.45c-.34.48-.63.87-.58,1.3s.15.34.15.34a1.46,1.46,0,0,0,1.2-.34,6.26,6.26,0,0,0,2.27-2.51c.05-.19.24-.24.44-.19s.24.24.19.43a6.71,6.71,0,0,1-2.56,2.85c-.34.19-1.25.68-1.88.34a1,1,0,0,1-.53-.92,2.63,2.63,0,0,1,.72-1.74,4.1,4.1,0,0,0,.68-1.25l0-.1a3.76,3.76,0,0,1,1.07-2.08,3.61,3.61,0,0,1,2-.34h.72a4.26,4.26,0,0,1,2.46.44,27.7,27.7,0,0,1,5.66,6c.24.29.48.63.72,1,1.84,2.32,4,5.08,6.18,7.69a70.92,70.92,0,0,0,7.54,7.58.35.35,0,0,1,.05.48C242,129,242,129,241.88,129Z"/><path class="cls-6" d="M212.7,109.45h0a.32.32,0,0,1-.33-.34c0-.86-1.84-2.27-3.53-3.09-1-.48-2-1-3-1.4a25.93,25.93,0,0,1-4.88-2.56c-1-.87-.82-1.5-.62-1.79.33-.62,1.35-.86,2.46-.53s3.72,1.36,5.89,2.27l2.71,1.07c.63.19,1.25.43,1.93.62,1.88.63,4,1.31,6,2.13a.34.34,0,0,1,.19.43.38.38,0,0,1-.43.2c-1.93-.82-4.06-1.5-5.9-2.13-.67-.24-1.35-.43-1.93-.63s-1.45-.53-2.75-1.06c-2.17-.87-4.83-1.93-5.85-2.22-.82-.24-1.54,0-1.69.24s.1.58.53,1a27.69,27.69,0,0,0,4.69,2.46c1,.48,2,.92,3,1.4.38.2,3.91,2,3.91,3.72C213,109.31,212.85,109.45,212.7,109.45Z"/><path class="cls-6" d="M250.62,151.82a4.76,4.76,0,0,1-1.64-.29c-2.56-.92-5.84-3.67-10-8.41a.33.33,0,0,1,.05-.48.36.36,0,0,1,.48.05c4.06,4.59,7.35,7.34,9.76,8.21,5.41,2,16.33-8.79,24-18.65a.32.32,0,0,1,.48,0,.31.31,0,0,1,.05.48C271.11,136.07,258.4,151.82,250.62,151.82Z"/><path class="cls-6" d="M234,137a.41.41,0,0,1-.29-.15c-.77-1.2-8.41-12-8.5-12.07l-.15-.2a15.65,15.65,0,0,0-2.61-3c-1.16-.92-4-1.26-5-1.35h-.1a15.09,15.09,0,0,1-5.36-1.26,2.71,2.71,0,0,1-1.35-2.22,1.29,1.29,0,0,1,.53-1.21c1.11-1,3.57-.82,4.59-.63a1.4,1.4,0,0,1,1.21,1.26,1.77,1.77,0,0,1-1,1.69,7.48,7.48,0,0,1-2.32.39.44.44,0,0,1-.39-.29c0-.2.1-.34.29-.34a7.67,7.67,0,0,0,2.13-.39,1.16,1.16,0,0,0,.58-1,.77.77,0,0,0-.68-.68c-1.16-.24-3.23-.19-4,.48a.76.76,0,0,0-.29.68,2,2,0,0,0,1,1.64,13.32,13.32,0,0,0,5.12,1.16h.1c1.73.19,4.15.53,5.36,1.45a17.45,17.45,0,0,1,2.75,3.14l.15.19c0,.1,7.73,10.92,8.5,12.13a.38.38,0,0,1-.1.48C234.05,137,234,137,234,137Z"/><path class="cls-6" d="M216.57,116.22a.26.26,0,0,1-.29-.2.31.31,0,0,1,.14-.43,1.82,1.82,0,0,0,1-1.4.72.72,0,0,0-.2-.68,7.38,7.38,0,0,0-3.18-.82,3.71,3.71,0,0,0-2.81.58c-.48.53,0,1.79.34,2.17a.32.32,0,0,1,0,.49.33.33,0,0,1-.48,0c-.58-.58-1.11-2.27-.39-3.1a4.13,4.13,0,0,1,3.38-.82,7,7,0,0,1,3.53,1,1.45,1.45,0,0,1,.48,1.3,2.54,2.54,0,0,1-1.35,1.94Z"/><path class="cls-6" d="M211.45,112.79a.36.36,0,0,1-.34-.25c-.05-.09-.77-2.41.82-3.33a5.53,5.53,0,0,1,3.43-.1.3.3,0,0,1,.24.39.29.29,0,0,1-.38.24,4.87,4.87,0,0,0-2.95,0c-1.11.68-.53,2.56-.53,2.56a.39.39,0,0,1-.2.44C211.5,112.79,211.5,112.79,211.45,112.79Z"/><path class="cls-6" d="M217.68,113.61a.32.32,0,0,1-.29-.2c0-.19,0-.38.19-.43.68-.29,1.11-.63,1.16-1.06a1.22,1.22,0,0,0-.63-1.11.32.32,0,0,0-.19-.1.34.34,0,0,1-.14-.44.33.33,0,0,1,.43-.14,1.53,1.53,0,0,1,.24.14,1.85,1.85,0,0,1,.92,1.74c-.05.49-.39,1.16-1.55,1.65A.16.16,0,0,0,217.68,113.61Z"/><path class="cls-6" d="M222.46,115.93a.35.35,0,0,1-.24-.1,12.44,12.44,0,0,1-2.42-5.46.38.38,0,0,1,.29-.39.34.34,0,0,1,.39.29,12.16,12.16,0,0,0,2.27,5.12.37.37,0,0,1,0,.49A.8.8,0,0,1,222.46,115.93Z"/><path class="cls-6" d="M253.38,134.52a.36.36,0,0,1-.2,0,.33.33,0,0,1,0-.49c1-1.35,2.22-2.85,3.47-4.39a80.92,80.92,0,0,0,8-11.11.34.34,0,0,1,.44-.15.34.34,0,0,1,.14.44A83.11,83.11,0,0,1,257.1,130c-1.26,1.55-2.42,3.05-3.48,4.4A.26.26,0,0,1,253.38,134.52Z"/><path class="cls-6" d="M266.47,116a.21.21,0,0,1-.15,0,.34.34,0,0,1-.14-.44L267,114c1.93-3.62,4.59-8.55,6.52-11.35a14.26,14.26,0,0,1,6.72-5c2-.68,4-1.21,5.84-1.74A47.56,47.56,0,0,0,296,92.3a.33.33,0,0,1,.44.15.31.31,0,0,1-.15.43,46.33,46.33,0,0,1-10,3.63c-1.84.53-3.77,1.06-5.8,1.74a13.28,13.28,0,0,0-6.38,4.73c-1.88,2.8-4.54,7.73-6.47,11.3l-.82,1.5A.33.33,0,0,1,266.47,116Z"/><path class="cls-6" d="M298.16,92.21c-.1,0-.15,0-.24-.1a.31.31,0,0,1,0-.48,5,5,0,0,0,1.25-2.9.33.33,0,0,1,.34-.29.29.29,0,0,1,.29.34,5.65,5.65,0,0,1-1.4,3.28C298.3,92.16,298.25,92.21,298.16,92.21Z"/><path class="cls-6" d="M322.89,148.87a.27.27,0,0,1-.19-.05c-1.79-1.16-4.2-2.56-6.72-4l-.91-.53a.37.37,0,0,1-.15-.43.39.39,0,0,1,.44-.15l.91.53c2.56,1.45,4.93,2.81,6.77,4a.37.37,0,0,1,.09.49A.27.27,0,0,1,322.89,148.87Z"/><path class="cls-6" d="M300.77,149.74c-.1,0-.15-.05-.24-.1-2.61-2.36-5.08-4.68-7.25-6.76-3.19-3-5.75-5.46-6.86-6.09a16.63,16.63,0,0,0-6.67-1.88c-1.11-.1-4.88-.53-6.33-2.08a2,2,0,0,1-.33-1.64,1.42,1.42,0,0,0-.1-1,4.15,4.15,0,0,0-.34-.49,2.41,2.41,0,0,1-.63-1.59,2.59,2.59,0,0,1,.49-1.21c.14-.24.38-.67.34-.77a2.15,2.15,0,0,0-.68-.58,2.64,2.64,0,0,1-1.4-2.22c0-1.26,1.11-1.55,1.69-1.74a1.92,1.92,0,0,1,.24,0,5.38,5.38,0,0,0-2.17-1.06l-.2,0c-2.32-.73-4.73-1.5-6.86-2.27l-.14-.05c-1-.34-2.17-.82-2.46-1.59a1.1,1.1,0,0,1,0-.87c.63-1.26,3-.78,5.41-.29l.58.09c1.11.24,3.05.87,5.17,1.55,2.37.77,5.07,1.64,6.86,2,4.74,1,8.07,3.52,11.6,6.47,1.78,1.45,3.43,2.85,5.07,4.25,2.08,1.74,4.25,3.58,6.76,5.65a54.09,54.09,0,0,0,5.51,3.92.31.31,0,0,1-.34.53,56.68,56.68,0,0,1-5.56-4c-2.51-2.08-4.68-3.92-6.76-5.65-1.64-1.41-3.28-2.76-5.07-4.26-3.48-2.89-6.76-5.36-11.3-6.32-1.84-.39-4.55-1.26-7-2a50.37,50.37,0,0,0-5.07-1.5l-.58-.1c-1.89-.38-4.25-.87-4.69,0a.3.3,0,0,0,0,.29c.15.39.82.78,2.08,1.21l.14,0c2.13.77,4.54,1.55,6.86,2.27l.2,0a4.78,4.78,0,0,1,2.65,1.45.56.56,0,0,1,0,.48c-.1.29-.43.34-.77.44-.73.19-1.21.38-1.21,1.11a1.91,1.91,0,0,0,1.11,1.69,2.74,2.74,0,0,1,.87.82c.24.43-.1,1-.38,1.45a1.88,1.88,0,0,0-.39.87,1.6,1.6,0,0,0,.48,1.16,4.89,4.89,0,0,1,.34.53,2.33,2.33,0,0,1,.14,1.4c0,.48-.09.87.15,1.11,1,1.11,3.72,1.69,5.89,1.84a16.25,16.25,0,0,1,7,2c1.16.67,3.72,3.09,7,6.18,2.17,2.08,4.63,4.4,7.24,6.76a.32.32,0,0,1,0,.49A.16.16,0,0,1,300.77,149.74Z"/><path class="cls-6" d="M322.26,164.57c-2.85,0-7.73-2.95-15.17-9.18a.36.36,0,0,1,0-.48.35.35,0,0,1,.48,0c2.75,2.32,11.16,9.37,15,9,3.14-.29,5.9-4,9.28-12.36a146,146,0,0,0,8.26-33.91c.29-2.42.19-7.15-1.21-9.42-2.41-4-7.34-6.81-11.88-9.08a.34.34,0,0,1-.15-.44.34.34,0,0,1,.44-.14c4.63,2.31,9.71,5.21,12.17,9.32,1.45,2.41,1.59,7.29,1.3,9.81a146.6,146.6,0,0,1-8.3,34.1c-3.48,8.65-6.38,12.46-9.81,12.75A1,1,0,0,1,322.26,164.57Z"/><path class="cls-6" d="M320.14,144H320a.32.32,0,0,1-.24-.39A190.69,190.69,0,0,1,328,118.2c.05-.2.24-.24.44-.2s.24.25.19.44a191.53,191.53,0,0,0-8.16,25.36A.31.31,0,0,1,320.14,144Z"/><path class="cls-6" d="M278,119.4a.32.32,0,0,1-.34-.33,31.51,31.51,0,0,0-1-4.83.32.32,0,0,1,.63-.15,29.75,29.75,0,0,1,1,5A.31.31,0,0,1,278,119.4Z"/><path class="cls-6" d="M277.1,164a.38.38,0,0,1-.25-.1c-1.15-1.35-.82-2.32-.24-4.1A29.12,29.12,0,0,0,278,154a67.62,67.62,0,0,0,.44-12.95c-.05-1.83-.15-3.86-.19-6.37a.34.34,0,1,1,.67,0c.05,2.51.1,4.59.2,6.37a68.67,68.67,0,0,1-.44,13,29.25,29.25,0,0,1-1.45,5.89c-.58,1.74-.82,2.42.1,3.48a.38.38,0,0,1,0,.48A.29.29,0,0,1,277.1,164Z"/><path class="cls-6" d="M272,199.88h0a.32.32,0,0,1-.34-.33c.43-11,2.22-20.34,3.81-28.65.49-2.42.92-4.73,1.31-6.91a.37.37,0,0,1,.38-.29.36.36,0,0,1,.29.39c-.38,2.22-.82,4.49-1.3,6.95a185,185,0,0,0-3.82,28.55A.31.31,0,0,1,272,199.88Z"/><path class="cls-6" d="M331.25,200.37a.34.34,0,0,1-.34-.34c-.1-11.16-2.13-19.76-3.77-26.67-.77-3.23-1.4-6-1.74-8.5,0-.19.1-.34.29-.39a.34.34,0,0,1,.39.29c.34,2.47,1,5.22,1.74,8.46,1.64,6.95,3.67,15.55,3.77,26.81a.34.34,0,0,1-.34.34Z"/><path class="cls-6" d="M291.64,73.46a.35.35,0,0,1-.34-.29c-.15-.72-1.31-7.14,2.22-9.61a.35.35,0,0,1,.39.58c-3.19,2.22-2.08,8.26-1.94,8.94a.32.32,0,0,1-.24.38Z"/><path class="cls-6" d="M303.91,90.47a4.25,4.25,0,0,1-.82,0,12.78,12.78,0,0,1-7.2-4.49,20.33,20.33,0,0,1-3.38-6.14c-.05-.19,0-.38.19-.43s.39,0,.43.19a19.45,19.45,0,0,0,3.29,6,12.07,12.07,0,0,0,6.76,4.2c4.4.63,8.89-4.68,9.76-8.59a.31.31,0,0,1,.39-.25.32.32,0,0,1,.24.39C312.75,85.15,308.54,90.47,303.91,90.47Z"/><path class="cls-1" d="M300.09,82.11a20.81,20.81,0,0,0,3.38-.38c1.45-.34,3.14-.92,3.14-.92s.1,4.15-2.37,4.59C301.3,85.93,300.09,82.11,300.09,82.11Z"/><path class="cls-6" d="M303.67,85.78c-2.18,0-3.48-2.27-3.92-3.57a.31.31,0,0,1,.05-.29.27.27,0,0,1,.24-.15,21.54,21.54,0,0,0,3.29-.33,25.4,25.4,0,0,0,3.09-.92c.1,0,.19,0,.29,0a.24.24,0,0,1,.14.24c0,.19.1,4.44-2.65,4.92C304.1,85.73,303.86,85.78,303.67,85.78Zm-3.1-3.38c.39.92,1.55,3,3.58,2.66,1.74-.34,2-2.76,2.08-3.82a23.71,23.71,0,0,1-2.76.77A14.18,14.18,0,0,1,300.57,82.4Z"/><path class="cls-6" d="M302,79.21a.17.17,0,0,1-.14,0c-.68-.29-1-.62-1.11-1.06a1.93,1.93,0,0,1,.53-1.54c.34-.49,0-1.45-.53-2.18a.38.38,0,0,1,.09-.48.38.38,0,0,1,.49.1c.58.82,1.06,2.07.53,2.85-.29.43-.53.82-.44,1.06s.34.43.78.63a.33.33,0,0,1,.14.43A.38.38,0,0,1,302,79.21Z"/><path class="cls-6" d="M293.76,72.74c-.09,0-.14,0-.24-.1a.38.38,0,0,1,0-.48,4.12,4.12,0,0,1,4.25-1,.35.35,0,0,1,.24.44.34.34,0,0,1-.43.24,3.56,3.56,0,0,0-3.57.77S293.86,72.74,293.76,72.74Z"/><path class="cls-6" d="M303.67,70.23a.32.32,0,0,1-.2-.58,4.48,4.48,0,0,1,4.4-.73c.19,0,.24.25.19.44s-.24.24-.43.19a3.87,3.87,0,0,0-3.77.58A.19.19,0,0,1,303.67,70.23Z"/><path class="cls-6" d="M295.84,76a1,1,0,0,1,.48-1.35,1,1,0,0,1,1.21.73,1,1,0,0,1-.48,1.35A1,1,0,0,1,295.84,76Z"/><path class="cls-6" d="M305.16,73.9a1,1,0,0,1,.53-1.35,1,1,0,0,1,1.21.77.93.93,0,1,1-1.74.58Z"/><path class="cls-6" d="M314.1,77.09a.34.34,0,0,1,0-.68,1.94,1.94,0,0,0,1.35-.63,4.82,4.82,0,0,0,1.06-3.43,1.61,1.61,0,0,0-1-1.54,1.52,1.52,0,0,0-1.69.58.33.33,0,0,1-.48,0,.32.32,0,0,1,0-.49,2.21,2.21,0,0,1,2.41-.77,2.31,2.31,0,0,1,1.45,2.13,5.58,5.58,0,0,1-1.26,4A2.43,2.43,0,0,1,314.1,77.09Z"/><path class="cls-6" d="M314.29,74.14h-.05a.3.3,0,0,1-.24-.39,1.63,1.63,0,0,1,.78-1,.31.31,0,0,1,.43.09.31.31,0,0,1-.1.44,1.16,1.16,0,0,0-.48.53A.36.36,0,0,1,314.29,74.14Z"/><path class="cls-6" d="M310.91,70.71c-3.57,0-6.13-4.1-7.15-5.8-1.79-2.89-3.14-3.67-4.59-2.8a.31.31,0,0,1-.43-.09.32.32,0,0,1,.09-.44c2.66-1.59,4.64,1.64,5.51,3,1.16,1.83,4.2,6.76,8.21,5.16.2,0,.39,0,.44.2s0,.38-.2.43A5.55,5.55,0,0,1,310.91,70.71Z"/><path class="cls-6" d="M295.55,62.69a.33.33,0,0,1-.34-.34,5,5,0,0,1,1.6-4.05,5.06,5.06,0,0,1,4.15-1,.34.34,0,1,1-.1.68,4.33,4.33,0,0,0-3.62.77,4.57,4.57,0,0,0-1.35,3.57A.33.33,0,0,1,295.55,62.69Z"/><path class="cls-6" d="M330.52,100.81h0a.31.31,0,0,1-.25-.39C330.86,97,329.8,95,328.3,92c-.53-1.06-1.16-2.27-1.74-3.62-1.4-3.28-2-6.23-3.14-11.06l-.34-1.45c-.48-2.17-.77-3.91-1.06-5.65a51.37,51.37,0,0,0-1.88-8.12,17.49,17.49,0,0,0-8.5-9.13,14.76,14.76,0,0,0-12-.38c-.2,0-.39,0-.44-.2s0-.38.19-.43a15.84,15.84,0,0,1,12.52.38,18,18,0,0,1,8.84,9.52,49.3,49.3,0,0,1,1.88,8.21c.29,1.69.58,3.48,1.06,5.61l.34,1.45a60.41,60.41,0,0,0,3.09,11c.58,1.35,1.16,2.47,1.69,3.58,1.5,2.89,2.66,5.21,2,8.79C330.81,100.71,330.67,100.81,330.52,100.81Z"/><path class="cls-6" d="M312.07,116.89a.27.27,0,0,1-.19,0c-3.19-2.31-4.11-5.21-2.95-9a20.91,20.91,0,0,1,2.22-4.64A20.87,20.87,0,0,0,313.62,98c1.25-4.45,1.54-9.38,1.11-18.12a.32.32,0,0,1,.29-.34c.14,0,.34.15.34.29.48,8.84.19,13.82-1.12,18.36a18.71,18.71,0,0,1-2.56,5.41,18.58,18.58,0,0,0-2.17,4.49c-1.06,3.48-.19,6.14,2.71,8.26a.33.33,0,0,1,0,.49S312.17,116.89,312.07,116.89Z"/><path class="cls-6" d="M317.05,118.27H317c-2.75-1.06-3.82-3.53-3.29-7.58,0-.2.2-.29.39-.29a.36.36,0,0,1,.29.38c-.48,3.77.39,5.94,2.85,6.91.19,0,.24.24.19.44A.57.57,0,0,1,317.05,118.27Z"/><path class="cls-6" d="M318.11,117.09a.31.31,0,0,1-.29-.25c-1-2.75,1.5-4.87,3.86-7a14.77,14.77,0,0,0,3.58-3.87c2-4.1,1.74-9.22-1-16.71a.38.38,0,0,1,.2-.44c.19,0,.38,0,.43.2,1.89,5.12,3.72,11.74,1,17.19a15.27,15.27,0,0,1-3.72,4.06c-2.32,2-4.54,3.92-3.72,6.23a.36.36,0,0,1-.2.44C318.21,117.09,318.16,117.09,318.11,117.09Z"/><path class="cls-6" d="M287.43,95.93a.27.27,0,0,1-.29-.2c-3.47-7.1-.91-25.07.05-29,1.69-6.81,3.63-11.21,8.7-13.72a.32.32,0,0,1,.43.15.31.31,0,0,1-.14.43c-4.83,2.42-6.72,6.67-8.36,13.29-1.16,4.63-3.33,22-.1,28.55a.31.31,0,0,1-.14.43C287.53,95.93,287.48,95.93,287.43,95.93Z"/><path class="cls-6" d="M301.25,135.1h0a.33.33,0,0,1-.34-.33A96.9,96.9,0,0,1,302.26,120c.63-2.27,2.23-4.68,4.26-7.77.62-.92,1.25-1.94,2-3a.37.37,0,0,1,.48-.1.33.33,0,0,1,.1.44c-.68,1.06-1.36,2.08-2,3-2,3-3.62,5.42-4.15,7.59a99.91,99.91,0,0,0-1.35,14.64A.33.33,0,0,1,301.25,135.1Z"/><path class="cls-6" d="M300.53,167.57a.36.36,0,0,1-.34-.29,20.77,20.77,0,0,1,.24-6.19,41.84,41.84,0,0,0,.48-9.37.32.32,0,1,1,.63-.05,40.79,40.79,0,0,1-.48,9.52,19.91,19.91,0,0,0-.25,6,.33.33,0,0,1-.28.39Z"/><path class="cls-6" d="M302.65,119.74a.33.33,0,0,1-.29-.19c-4.06-10.53-5.55-20.53-4.44-29a.34.34,0,1,1,.67.09c-1.11,8.36.39,18.26,4.4,28.65.05.19,0,.38-.19.43Z"/><path class="cls-6" d="M300.28,112.54a.33.33,0,0,1-.29-.19,14,14,0,0,0-1.83-3,32.12,32.12,0,0,1-3.38-5.56,10.12,10.12,0,0,0-4-4.63c-.68-.44-1.21-.78-1.12-1.45s.73-1,1.74-1.5a15.41,15.41,0,0,0,3.38-2.32,9.24,9.24,0,0,0,.87-1,15.87,15.87,0,0,1,3.48-3.39.33.33,0,0,1,.44.1.32.32,0,0,1-.1.44,16.34,16.34,0,0,0-3.33,3.23,11.67,11.67,0,0,1-.92,1.06,15.71,15.71,0,0,1-3.53,2.47c-.67.38-1.35.72-1.35,1s.19.44.82.82a11.14,11.14,0,0,1,4.2,4.93,30.67,30.67,0,0,0,3.29,5.46,14.28,14.28,0,0,1,1.93,3.19c.05.19,0,.38-.19.43A.39.39,0,0,0,300.28,112.54Z"/><path class="cls-6" d="M305.55,114.67a.22.22,0,0,1-.19-.1.35.35,0,0,1-.05-.48,18.35,18.35,0,0,1,3.14-2.85.34.34,0,1,1,.43.53,19.55,19.55,0,0,0-3,2.71A.36.36,0,0,1,305.55,114.67Z"/><path class="cls-6" d="M304.1,167.81c-11.35,0-23.09-1.5-27.29-3.92a.37.37,0,0,1-.15-.43.4.4,0,0,1,.44-.14c7.29,4.2,37.82,5.55,48.25,1.06,0,0,1.74-.78,1.79-3.58a.34.34,0,0,1,.34-.34h0a.34.34,0,0,1,.34.34c-.05,3.19-2.13,4.16-2.22,4.16C321.1,166.94,312.75,167.81,304.1,167.81Z"/><path class="cls-6" d="M305.31,109.26c-2.47,0-5.17-.58-6.38-1.55a.37.37,0,0,1-.05-.48.39.39,0,0,1,.49,0c1.73,1.4,7.24,1.89,9.51.82a.33.33,0,0,1,.44.15.31.31,0,0,1-.15.43A8.93,8.93,0,0,1,305.31,109.26Z"/><path class="cls-6" d="M233.38,137.08a.34.34,0,1,1,0-.67,9.32,9.32,0,0,0,6.09-2.9,7.27,7.27,0,0,0,2.12-5.36.34.34,0,0,1,.68,0A8,8,0,0,1,240,134,10.15,10.15,0,0,1,233.38,137.08Z"/><path class="cls-6" d="M238.64,143.17a5.93,5.93,0,0,1-1,0,2.67,2.67,0,0,1-2.27-2.07,4.69,4.69,0,0,0-.73-1.36l-.19-.19c-1.06-1.06-1.74-1.79-1.5-3.43a.38.38,0,0,1,.39-.29.37.37,0,0,1,.29.39c-.19,1.3.34,1.83,1.3,2.85l.2.19a4.11,4.11,0,0,1,.87,1.59c.33.83.58,1.5,1.73,1.65a9.79,9.79,0,0,0,8.27-3.38c.91-1.21,2-4.11,1.59-6a2.51,2.51,0,0,0-1.55-1.74,5.09,5.09,0,0,1-2.07-2,2.07,2.07,0,0,0-2.56-1.12.34.34,0,0,1-.44-.19c0-.19,0-.39.19-.43a2.7,2.7,0,0,1,3.39,1.4,4.52,4.52,0,0,0,1.83,1.74,3.23,3.23,0,0,1,1.84,2.17c.48,2.17-.73,5.27-1.69,6.57A10.64,10.64,0,0,1,238.64,143.17Z"/><path class="cls-6" d="M300.38,150.08a.36.36,0,0,1-.34-.29c-.05-.19.1-.34.29-.39a10.12,10.12,0,0,0,5.85-4.05,7.68,7.68,0,0,0,1.25-5.95.32.32,0,0,1,.63-.14,8.14,8.14,0,0,1-1.35,6.42,10.37,10.37,0,0,1-6.28,4.35C300.43,150.08,300.43,150.08,300.38,150.08Z"/><path class="cls-6" d="M305.89,155.54a2.81,2.81,0,0,1-2.66-1.74,3.73,3.73,0,0,0-1-1.26l-.25-.19c-1.25-.92-2.07-1.55-2.12-3.29a.32.32,0,0,1,.34-.33.33.33,0,0,1,.34.33c0,1.41.67,1.84,1.88,2.76l.24.19a4.82,4.82,0,0,1,1.21,1.45c.48.82.82,1.45,2.12,1.45a10.13,10.13,0,0,0,8-5,9.23,9.23,0,0,0,.58-6.52c-.38-1-1.06-1.2-1.88-1.54a5.55,5.55,0,0,1-2.51-1.69,2.2,2.2,0,0,0-2.85-.82.33.33,0,0,1-.44-.15.29.29,0,0,1,.15-.43,3,3,0,0,1,3.72,1,4.42,4.42,0,0,0,2.22,1.45,3.39,3.39,0,0,1,2.27,1.93c.87,2.18.19,5.56-.63,7.1a11.19,11.19,0,0,1-8.69,5.27Z"/><path class="cls-5" d="M311.85,118.85l1.32.1-.29,3.51a.12.12,0,0,0,.09.11l.74.06c.06,0,.11,0,.11-.09l.1-1.23,1,.08a1.62,1.62,0,0,0,1-.22,1.53,1.53,0,0,0,.68-1.2,1.48,1.48,0,0,0-1.46-1.68l-5.52-.44c-.05,0-.1,0-.11.09l-.05.62a.1.1,0,0,0,.1.11l1.32.11-.29,3.5a.1.1,0,0,0,.1.11l.74.06a.09.09,0,0,0,.1-.09Zm3.52,1.63a1,1,0,0,1-.51.07l-.87-.07.12-1.45.88.07a1,1,0,0,1,.49.17.79.79,0,0,1-.11,1.21Z"/><path class="cls-7" d="M317.28,118.46l2.34.19a.12.12,0,0,1,.11.07l1.29,2.2a.15.15,0,0,1,0,.16l-1.63,2a.11.11,0,0,1-.12,0l-2.34-.19a.08.08,0,0,1-.08-.09l.06-.67a.08.08,0,0,1,.09-.08l2,.16,1.09-1.31-.86-1.48-2-.16a.08.08,0,0,1-.08-.09l.05-.66a.07.07,0,0,1,.09-.07"/></svg>