<svg version="1.1" id="Layer_4" xmlns="http://www.w3.org/2000/svg" x="0" y="0" viewBox="0 0 380 200" xml:space="preserve" enable-background="new 0 0 380 200"><style>.st4{fill:#fa9700}</style><g id="Page-1"><g id="Homepage-V2" transform="translate(-328 -750)"><g id="Group-367" transform="translate(206 750)"><defs><filter id="Adobe_OpacityMaskFilter" filterUnits="userSpaceOnUse" x="241.8" y="1.3" width="229.4" height="174.5"><feColorMatrix values="1 0 0 0 0 0 1 0 0 0 0 0 1 0 0 0 0 0 1 0"/></filter></defs><mask maskUnits="userSpaceOnUse" x="241.8" y="1.3" width="229.4" height="174.5" id="mask-3_00000067952710514934516990000011139278064860508565_"><g filter="url(#Adobe_OpacityMaskFilter)"><path id="path-2_00000163766327080095473010000002368652425082610864_" d="M242 1.3h380c1.7 0 3 1.3 3 3v194c0 1.7-1.3 3-3 3H242c-1.7 0-3-1.3-3-3V4.3c0-1.7 1.3-3 3-3z" fill-rule="evenodd" clip-rule="evenodd" fill="#fff"/></g></mask><g id="Homeowners-v2-01_00000065771028723550775290000004860623066960383392_" mask="url(#mask-3_00000067952710514934516990000011139278064860508565_)"><g transform="translate(122.782)"><g id="Group" opacity=".3"><path id="Path" class="st4" d="m332.3 131.5-156.9-8.3c-.2 0-.3-.2-.4-.4V49.4c0-.2.1-.3.3-.4l168.2-39h.3c.1 0 .1.1.2.2.1.2-.1.4-.3.4l-167.9 39v72.9l156.5 8.3c.1 0 .3.1.3.2.1.1.1.3 0 .4 0 0-.1.1-.3.1z"/><path id="Path_00000153682380074369459270000005123224456147004050_" class="st4" d="M119.4 129.5c-.2 0-.3-.1-.4-.3 0-.2.1-.4.3-.4l53.6-6.1c.2 0 .4.1.4.3s-.1.4-.3.4l-53.6 6.1z"/><path id="Path_00000047024623435650984800000015988094409012116884_" class="st4" d="M175.5 49.7c-.1 0-.2 0-.2-.1l-5.5-4.1c-.1-.1-.2-.2-.1-.4 0-.1.1-.2.2-.3l170-42.2c.1 0 .3 0 .4.1s.1.2.1.4c0 .1-.1.2-.3.2l-169.2 42 4.8 3.6c.1.1.1.1.1.2s0 .2-.1.3c0 .1 0 .1-.1.2s0 .1-.1.1z"/><path id="Path_00000023277566688357267190000009804764487049609646_" class="st4" d="M167.3 45.2c-.1 0-.2-.1-.3-.2-.1-.2 0-.3.1-.4L202 17.8c.1 0 .1-.1.1-.1l38.4-13c.1 0 .3 0 .4.1s.1.2.1.4c0 .1-.1.2-.3.3l-38.3 12.9L169 44.1 338.4 1.3c.1 0 .3 0 .3.1s.1.2.1.3-.1.2-.3.2l-171 43.3h-.2z"/><path id="Path_00000121994357702486460470000003326899053727177096_" class="st4" d="M170.1 45.6c-.1 0-.1 0-.1-.1l-1.5-.7c-.2-.1-.2-.3-.2-.5.1-.2.3-.2.5-.2l1.5.7c.2.1.2.3.2.5-.1.2-.3.3-.4.3z"/><path id="Shape" class="st4" d="M180 71c-.1 0-.2-.1-.2-.1-.1-.1-.1-.2-.1-.3V51.3c0-.2.1-.3.3-.4l20.7-3.8c.1 0 .2 0 .3.1.1.1.1.2.1.3L201 68c0 .2-.1.3-.3.4L180 71zm.4-19.5v18.6l19.9-2.6.1-19.8-20 3.8z"/><path id="Shape_00000113341312071713270390000007731843995836097435_" class="st4" d="m200.2 113.4-20.3-.4c-.2 0-.3-.2-.4-.4l.1-28.7c0-.1 0-.2.1-.3.1-.1.2-.1.3-.1l20.4-1.6c.1 0 .2 0 .3.1.1.1.1.2.1.2l-.2 30.7c0 .1 0 .2-.1.2-.1.3-.2.4-.3.3zm-19.8-1 19.5.4.2-29.9-19.6 1.5-.1 28z"/><path id="Shape_00000047036657934628169750000014073240371548369305_" class="st4" d="M224.5 65.5c-.1 0-.2-.1-.2-.1-.1-.1-.1-.2-.1-.3l-.2-22.5c0-.2.1-.3.3-.4l21.2-4.3c.1 0 .2 0 .3.1.1.1.1.2.1.3l-.1 24.1c0 .2-.1.3-.3.4l-21 2.7zm.3-22.6.1 21.8 20.4-2.7.1-23.3-20.6 4.2z"/><path id="Shape_00000170243563651142524180000014138847725923744695_" class="st4" d="M280.9 58.3c-.2 0-.4-.2-.4-.4l.1-27.3c0-.2.1-.3.3-.4l28.5-5.6c.1 0 .2 0 .3.1.1.1.1.2.1.3l.1 29.3c0 .2-.1.3-.3.4l-28.7 3.6zm.3-27.3-.1 26.5L309 54V25.5L281.2 31z"/><path id="Shape_00000049907009344082498370000018317942257275177870_" class="st4" d="M181.2 69.7c-.1 0-.2-.1-.2-.1-.1-.1-.1-.2-.1-.3V52.1c0-.2.1-.3.3-.4l18.3-3.3c.1 0 .2 0 .3.1.1.1.1.2.1.3l-.1 18.2c0 .2-.1.3-.3.4l-18.3 2.3zm.4-17.3v16.5l17.5-2.2.1-17.4-17.6 3.1z"/><path id="Path_00000042708467161709838960000015464627849370028730_" class="st4" d="M190.2 68.3c-.2 0-.3-.2-.4-.4l-.1-17.2c0-.2.2-.3.4-.4.2 0 .3.2.4.4l.1 17.2c0 .1 0 .2-.1.3-.1 0-.2.1-.3.1z"/><path id="Shape_00000115516512202582762310000006693592985739543986_" class="st4" d="m199 112-17.8-.3c-.2 0-.3-.2-.4-.4l.1-25.9c0-.1 0-.2.1-.3s.2-.1.3-.1l17.9-1.5c.1 0 .2 0 .3.1.1.1.1.2.1.2l-.2 27.6c0 .1 0 .2-.1.2-.1.3-.2.4-.3.4zm-17.4-1 17.1.3.2-26.8-17.2 1.4-.1 25.1z"/><path id="Path_00000046330294025227798320000007262193445281421233_" class="st4" d="M190.1 111.6c-.2 0-.3-.2-.4-.4l-.1-26.1c0-.2.2-.3.4-.4.2 0 .3.2.4.4l.1 26.1c0 .1 0 .2-.1.3-.1.1-.2.1-.3.1z"/><path id="Shape_00000002351161616224435330000003025564938442247857_" class="st4" d="M225.7 63.9c-.1 0-.2-.1-.2-.1-.1-.1-.1-.2-.1-.3v-20c0-.2.1-.3.3-.4l18.8-3.8c.1 0 .2 0 .3.1.1.1.1.2.1.3l-.1 21.4c0 .2-.1.3-.3.4l-18.8 2.4zm.3-20v19.3l18-2.4.1-20.6-18.1 3.7z"/><path id="Path_00000146491355227113668190000011728536909716119460_" class="st4" d="M235.4 62.4c-.2 0-.3-.2-.4-.4V41.9c0-.2.2-.3.4-.4.2 0 .3.2.4.4l.1 20.1c0 .1 0 .2-.1.3-.2 0-.3.1-.4.1z"/><path id="Shape_00000068643161053438456270000011983137863535075471_" class="st4" d="M282.3 56.6c-.2 0-.4-.2-.4-.4l.1-24.5c0-.2.1-.3.3-.4l25.6-5.1c.1 0 .2 0 .3.1.1.1.1.2.1.3l.1 26.4c0 .2-.1.3-.3.4l-25.8 3.2zm.4-24.5-.1 23.7 24.9-3.1-.1-25.6-24.7 5z"/><path id="Path_00000126301842999856128220000001653129207467864709_" class="st4" d="M294.9 55c-.2 0-.3-.2-.4-.4l.3-25.2c0-.1.1-.3.2-.3.1-.1.3-.1.4 0 .1.1.2.2.2.3l-.3 25.2c0 .1 0 .2-.1.3-.1 0-.2.1-.3.1z"/><path id="Path_00000045613827450760929990000001578446756906915246_" class="st4" d="m245.7 126.9-20.2-1.2c-.2 0-.3-.2-.4-.4l.1-21.7c0-.2.2-.4.4-.4s.3.2.4.4l-.1 21.4 19.5 1.2.2-46.9-19.6 1.6-.1 21.4c0 .2-.2.3-.4.3s-.4-.2-.4-.3l.1-21.7c0-.2.1-.3.3-.4l20.2-1.7c.1 0 .2 0 .3.1.1.1.1.2.1.2l-.2 47.7c0 .1 0 .2-.1.2l-.1.2z"/><path id="Shape_00000166668025424549338450000003850482379223905441_" class="st4" d="m241.5 111.8-11.7-.1c-.2 0-.3-.2-.4-.4l.1-26.9c0-.2.1-.3.3-.4l11.8-1c.1 0 .2 0 .3.1.1.1.1.2.1.2l-.1 28c0 .1 0 .2-.1.2-.2.2-.2.3-.3.3zm-11.4-.9 11 .1.1-27.3-11 1-.1 26.2z"/><path id="Path_00000093899618201302112150000014262586218913775244_" class="st4" d="M227.8 106.7c-.5 0-1-.5-1-1.1v-2.1c0-.2.2-.3.4-.4.1 0 .2 0 .3.1s.1.2.1.3v2.1c0 .2.1.4.2.4s.2-.1.2-.4v-4.5c0-.2-.1-.4-.2-.4s-.2.1-.2.4v1.1c0 .2-.2.4-.4.4s-.4-.2-.4-.4v-1.1c0-.6.4-1.1 1-1.1.5 0 1 .5 1 1.1v4.5c0 .6-.4 1.1-1 1.1z"/><path id="Shape_00000147213438255830646610000006739437526907342268_" class="st4" d="M224.5 104.4c-.1 0-.2 0-.2-.1-.5-.2-.7-.5-.7-.7-.1-.4.2-.8.8-1.2.8-.5 2.4-.7 3.3-.4.4.1.6.4.6.8s-.2.7-.7.8c-.3.1-.6.1-.9.1-.3 0-.5 0-.8.1-.1 0-.2.1-.4.2-.3.2-.6.4-1 .4zm-.2-.9c.1 0 .1.1.2.1.1.1.4-.1.6-.2l.6-.3c.3-.1.6-.1.9-.1.3 0 .5 0 .8-.1 0 0 .1 0 .1-.1-.7-.2-2 0-2.7.4-.4.1-.5.3-.5.3z"/><path id="Shape_00000104670773635399303610000002047769861271935627_" class="st4" d="m241.1 129.7-24.6-1.9c-.2 0-.3-.2-.4-.4 0-.2.1-.3.3-.4l8.9-2h.1l20.2 1.1c.2 0 .3.1.4.3.1.2 0 .3-.2.4l-4.6 2.8-.1.1zm-22.1-2.5 22.1 1.7 3.5-2.1-19-1-6.6 1.4z"/><path id="Path_00000018197831708066973300000001532590952475856517_" class="st4" d="m241.3 130.9-24.8-2c-.2 0-.3-.2-.4-.4v-1c0-.2.2-.3.4-.3s.4.2.4.3v.7l24.3 1.9 4.2-2.6.1-1c0-.2.2-.4.4-.4s.4.2.4.4l-.1 1.2c0 .1-.1.2-.2.3l-4.5 2.7c0 .2-.1.2-.2.2z"/><path id="Path_00000155112578871802664410000018432366433950831259_" class="st4" d="M137.4 162c-.2 0-.3-.1-.4-.2-.1-.2.1-.4.2-.4 25.3-7.4 39.9-12 44.7-13.9 1.3-.5 2-1 2.2-1.6.2-.5-.1-1.1-.4-1.8-.6-1.3-1.3-2.9 1.3-4.6 5.1-3.5 18.9-7.7 29.5-10.5.2 0 .3.1.4.3s0 .3-.2.4c-10.6 2.9-24.3 7-29.4 10.4-2.1 1.5-1.6 2.5-1 3.7.4.7.7 1.5.4 2.3-.3.7-1.1 1.4-2.6 2-4.8 1.9-19.5 6.5-44.8 13.9h.1z"/><path id="Path_00000057111149582169409910000011036409005778094265_" class="st4" d="M174.2 175.8c-.2 0-.3-.1-.4-.2-.1-.2 0-.4.2-.5 15.2-6.6 29.9-14.7 35.7-19.8 2.8-2.4 2.7-4.1 2.5-5.8-.1-1.6-.3-3.2 2-5.2 4.7-4.1 14.9-8.6 25.3-12.8.2-.1.4 0 .5.2.1.2 0 .4-.2.5-9.8 4-20.5 8.6-25.1 12.6-2 1.7-1.9 3-1.7 4.6.1 1.8.3 3.7-2.7 6.4-5.8 5.2-20.6 13.3-35.9 19.9-.1.1-.1.1-.2.1z"/><path id="Path_00000090282107111212954210000009075840097848185988_" class="st4" d="M135.7 127.3c-.1 0-.2-.1-.3-.2-.1-.2-.4-.8 0-1.2.1-.1.3-.2.4-.2.1 0 .2-.1.2-.1-.1-.2-.2-.3-.3-.4-.3-.3-.5-.6-.5-1-.1-.4.2-.7.5-.9l.1-.1c-.1-.1-.2-.2-.3-.4-.4-.5-1-1.4-.1-2.4.6-.6 1.3-.4 1.8-.3.4.1.6.2.8 0 .4-.3.4-.5.1-.9-.2-.4-.4-.9-.1-1.4.2-.4.6-.6 1-.6.1 0 .2 0 .3-.1v-.3c0-.2-.1-.4 0-.5.2-.6.7-.9 1.1-1 .2-.1.4-.2.5-.3v-.2c0-.2-.1-.5.2-.8.8-.8 1.4-.4 1.9-.2.3.2.5.3.8.2.4-.1.6-.5.6-.9l-.1-.1c-.1-.2-.2-.4-.1-.7.2-.4.7-.4 1-.4.2 0 .4 0 .5-.1.1-.1 0-.2-.1-.3 0-.1-.1-.1-.1-.2-.1-.2-.1-.4-.2-.6-.2-.5-.6-1.3.2-2.1.3-.3.8-.8 1.4-.6.2 0 .3.2.4.3l.1.1c.1 0 .1-.2.1-.5.1-.5.1-1.1.8-1.3.1 0 .9-.3 1.3-.1.1.1.2.2.2.3l.1-.1c.1-.2.3-.3.5-.4.3-.1.7-.1 1 0 .4.1.5.1.7-.2.2-.2.1-.3-.2-.6-.2-.2-.5-.5-.5-.9 0-.5.4-.7.6-.8s.2-.1.2-.2c-.1-.1-.3-.3-.5-.4-.4-.3-1.1-.7-.8-1.6.1-.3.4-.7.8-.9.1-.1.3 0 .5 0h.2c.1-.2 0-.3-.1-.5-.1-.4-.2-1.1.5-1.6.4-.2.8-.2 1.2-.2.3 0 .6.1.7-.1.1-.1.1-.3.1-.5s0-.4.1-.6c.2-.7.8-1.3 1.6-1.8.8-.4 1.3.1 1.6.4.2.2.4.3.5.2.2-.1.2-.2.3-.5s.2-.7.6-.9c.4-.1.8.1 1.1.2.2.1.4.2.5.2.1-.1.1-.2.1-.4.1-.2.1-.4.2-.6.4-.5 1.1-.8 2-.7.7.1 1.1.2 1.3.5.2.3.3.6.4.9.1.4.3.8.5 1 .1.1.4-.1.5-.1l.1-.1c0-.1-.1-.2-.1-.2-.1-.2-.3-.5-.2-.8.2-.5.7-.4 1-.4.1 0 .4.1.4 0s-.1-.3-.1-.4c-.1-.4-.4-.9.2-1.5.7-.7 1.9-1.2 2.7-.5l.4.4c.1.2.2.2.2.2.2-.1.2-.1.3-.4.1-.2.1-.4.2-.5.2-.2.4-.2 1 0 .2.1.5.1.7.2v-.1c0-.2.1-.4.2-.6.5-.7 1.4-.6 2.2-.2.2.1.2.3.2.5-.1.2-.3.2-.5.2-.4-.2-1-.3-1.3.1v.1c0 .2 0 .7-.6.8-.2.1-.4 0-1-.2-.1 0-.2 0-.3-.1v.1c-.1.3-.2.8-1 .9-.5.1-.8-.4-.9-.6-.1-.1-.1-.2-.2-.2-.5-.4-1.3.1-1.7.5-.2.2-.2.4-.1.7.1.3.3.7-.1 1.2-.2.3-.7.2-1 .2h.2c.2.2.2.5.2.8-.1.2-.2.4-.5.5-.4.2-.8.3-1.1.2-.5-.2-.8-.8-1-1.4-.1-.2-.2-.5-.3-.7-.1-.1-.2-.2-.8-.2-.7-.1-1.1.1-1.4.4-.1.1-.1.2-.1.3-.1.2-.1.6-.4.8-.3.2-.7.1-1.1-.1-.2-.1-.5-.2-.7-.2 0 .1-.1.2-.1.3-.1.3-.2.9-.7 1-.7.3-1.1-.1-1.3-.4-.3-.3-.4-.4-.8-.2-.5.2-1 .7-1.1 1.3v.7c0 .4 0 .8-.3 1.1-.4.4-.8.3-1.3.3-.3 0-.6-.1-.7.1-.3.2-.3.4-.2.8.1.3.2.7-.1 1.2-.2.4-.6.3-.9.2h-.2c-.2.1-.3.2-.3.4-.1.3 0 .4.5.8.3.2.7.4.8.8.2.7-.3 1-.5 1.1-.2.1-.2.1-.2.2s.2.2.3.4c.3.3.8.8.3 1.6-.5.7-1.1.6-1.4.5-.2-.1-.4-.1-.6-.1 0 .1-.1.1-.1.2-.1.2-.4.4-.7.4-.4 0-.5-.4-.6-.5v-.1c-.2 0-.4.1-.6.1-.2.1-.2.4-.3.7-.1.4-.1 1-.7 1.2-.4.1-.6-.2-.7-.3l-.1-.1s-.2 0-.7.4c-.4.4-.4.7-.1 1.2.1.2.2.5.3.8 0 .1 0 .1.1.1.1.2.2.7-.1 1-.2.3-.7.3-1 .3h-.4c.1.1.1.2.1.4 0 .7-.4 1.5-1.1 1.6-.5.1-1-.1-1.3-.3-.4-.2-.7-.4-1 .1-.1.1-.1.1 0 .2 0 .2.1.4-.1.6-.2.4-.5.5-.9.7-.4.2-.6.2-.7.5v.2c.1.3.1.7-.2 1-.2.2-.5.2-.7.2-.2.1-.4.1-.5.3-.1.2-.1.3.1.7.2.4.6 1.2-.4 1.9-.5.4-1 .2-1.4.1-.5-.1-.8-.2-1.1.1-.5.5-.4.8.1 1.5.2.2.3.4.4.7.2.4-.1.7-.3.8l-.2.2c.1.2.2.4.4.6.2.2.4.4.5.8.2.5-.4.8-.7.9-.1 0-.2.1-.2.1 0 .1.1.3.1.4.1.2 0 .4-.2.5-.2-.3-.2-.3-.3-.3z"/><path id="Path_00000026150923070410009520000013049193027174716802_" class="st4" d="M141.9 112.8c-.8 0-1-.4-1.1-.8-.1-.1-.1-.3-.2-.4-.1 0-.5.1-.7.2-.4.1-.8.2-1.1.2-.8-.2-.9-.7-1-1.2 0-.1-.1-.3-.1-.4-.2-.4-1-.7-1.5-.7-.8.1-1.3.5-1.9 1.1-.1.2-.3.3-.5.4-.8.7-1.9.9-2.5 1-.6.1-1-.2-1.4-.5-.1-.2-.3-.3-.5-.3-.1 0-.2.1-.4.2-.3.2-.7.6-1.3.2-.2-.1-.5-.3-.7-.5-.5-.4-.7-.5-1.1-.4-.1.1-.2.1-.3.1-.1 0-.2-.1-.2-.2-.1-.2-.1-.4.1-.5.8-.5 1.4 0 1.9.4.2.2.3.3.5.4.2.1.3.1.6-.2.2-.2.5-.4.8-.4.4 0 .7.2 1 .5.3.2.5.4.8.4.8-.1 1.6-.4 2-.8.2-.1.3-.3.4-.4.6-.6 1.3-1.2 2.3-1.3.7-.1 1.9.3 2.2 1.2.1.2.1.4.2.5.1.4.1.5.5.6.2 0 .4-.1.7-.2.5-.2 1.1-.4 1.5 0 .1.2.2.4.3.5.1.3.2.4.6.4.2 0 .4-.2.7-.3.5-.3 1.1-.7 1.6-.4.2.1.4.3.5.4l.2.2c.2.1.2.3.1.5s-.3.2-.5.1-.3-.2-.4-.4l-.3-.3c-.2-.1-.6.1-1 .4 0 .4-.4.6-.8.7.1 0 .1 0 0 0z"/><path id="Path_00000078006058651447241140000015195780598232143235_" class="st4" d="M163.8 71.8c-.5-.1-1-.7-2.4-3-.2-.3-.4-.5-.4-.7-.3-.4-.5-.9-.7-1.3-.2-.5-.4-.9-.7-1.3-.1-.1-.1-.2-.1-.4 0-.1.2-.2.3-.2.1 0 .3 0 .3.1.4.5.5 1 .8 1.5l.6 1.2c.1.1.2.4.5.7.4.7 1.3 2.1 1.7 2.6.5-.8.3-2.8.1-4.3-.1-.6-.2-1.2-.2-1.6 0-.2.2-.3.4-.3s.4.2.4.3c0 .4.1 1 .2 1.5.2 1.8.5 4-.4 5-.2.2-.3.2-.4.2z"/><path id="Path_00000093142327124115489250000001234221837579305640_" class="st4" d="M163.7 93.7c-.2 0-.3-.1-.4-.3-.1-1.5-.2-3.9-.2-6.4-.1-3.1-.1-6.3-.4-8.1-.4-2.8-1.4-5.1-2.6-7.6l-.4-1c-.9-1.9-2.3-4.3-2.4-4.3-.1-.2-.1-.4.1-.5.1-.1.2-.1.3-.1.1 0 .2.1.2.2.1.1 1.5 2.3 2.4 4.4l.4 1c1.1 2.5 2.2 4.9 2.7 7.8.3 1.9.3 5.1.4 8.3 0 2.5.1 4.9.2 6.3 0 .1-.1.3-.3.3z"/><path id="Path_00000180367001637037083640000000139203227360847279_" class="st4" d="M167.5 81.7h-.1c-.8-.2-.8-1.5-.7-3.6v-.3c0-1.3 0-3.8-.1-6.4 0-2.5-.1-5-.1-6.4 0-.2.2-.4.4-.4s.4.2.4.4c0 1.3 0 3.8.1 6.4 0 2.5.1 5 .1 6.4v.4c-.1 1.5-.1 2.2.1 2.6.8-1.5 3.7-6.8 4.4-8.3.1-.2.3-.2.5-.2s.2.3.2.5c-.4.9-1.6 3.2-2.6 5.1-2 3.4-2.3 3.8-2.6 3.8z"/><path id="Path_00000165927654465021345840000012248097615716190904_" class="st4" d="M168.5 92.2c-.2 0-.3-.2-.4-.4 0-.9.2-8.5 1-10s2.4-4.7 3.2-6.7c.5-1.1.7-1.5.7-1.6.1-.2.3-.2.5-.1s.2.3.1.5c-.1.1-.4.7-.7 1.5-.9 1.9-2.4 5.2-3.3 6.7-.5 1-.8 6.3-.9 9.7.2.2 0 .4-.2.4z"/><path id="Path_00000075869754956704697420000009103679918767153086_" class="st4" d="M145.5 112.3c-.2 0-.3-.1-.4-.3-.5-1.8-.5-8.8-.5-14.4 0-2.6-.1-5.8-.4-9.1 0-.1 0-.2.1-.3.1-.1.2-.1.3 0 .1.1.2.2.2.3.2 3.3.4 6.6.4 9.2 0 7.8.2 12.8.5 14.2v.3c0-.1-.1 0-.2.1z"/><path id="Path_00000164503654724492123350000001089567727178748827_" class="st4" d="M147.7 108.8c-.2 0-.3-.2-.4-.4 0-.5-.1-1.2-.1-2-.1-2.5-.3-6.2.2-9.6.5-2.9 2-6.7 2.8-8.6l.2-.5c.1-.2.3-.2.5-.1s.3.3.2.4l-.2.5c-.7 1.7-2.3 5.6-2.8 8.4-.5 3.3-.4 7-.2 9.4.1.8.1 1.5.1 2 .1.3-.1.5-.3.5z"/><path id="Path_00000111177035783488657400000011770287907111482292_" class="st4" d="M146.8 93.9h-.1c-.2 0-.3-.1-.3-.3-.1-.9-.3-4-.4-5.7l-.1-.7c0-.2.2-.3.4-.3s.4.2.4.3l.1.7c.1 1.1.2 3 .3 4.3.2-.4.4-.9.5-1.3l.5-1.3c.6-1.5 1-2.2 1.1-2.5.1-.2.3-.2.5-.1s.2.3.1.5c-.2.3-.7 1.5-1.1 2.4l-.5 1.3c-1.1 2.5-1.2 2.7-1.4 2.7z"/><path id="Path_00000174565946579841880530000005522856934743906195_" class="st4" d="M156.1 67.5c-.2 0-.4 0-.5-.1h-.1c-.2-.1-.4-.1-.5-.2l-.1-.1c-.1-.1-.1-.2-.1-.3 0-.1.1-.2.2-.2s.2 0 .3.1l.1.1.1.1h.1c.5.1.5.1.6-.2.1-.4.3-.7.7-.9.5-.2.9-.1 1.3-.1.4.1.6.1.8-.1.3-.2.5-.5.7-.8.4-.5.8-1.3 2-1 .4.1.7.3.9.7.2.2.3.4.5.4.4.1.5-.1.8-.3.3-.2.6-.4 1-.5.8-.2 1 .5 1 .8 0 .1 0 .1.1.2.1-.1.2-.1.2-.2.3-.2.7-.5 1.1-.4.5.1.7.7.9 1.3.1.3.2.9.4.9 0 0 .1 0 .4-.2.1-.1.3-.1.5 0 .1.1.1.3 0 .5-.1.1-.6.6-1.1.5-.5-.1-.7-.8-.9-1.4-.1-.3-.2-.8-.4-.8s-.4.1-.6.3-.5.4-.8.3c-.4-.1-.5-.5-.5-.8 0-.1 0-.2-.1-.2h-.1c-.2.1-.5.2-.7.4-.4.2-.7.5-1.4.4-.4-.1-.7-.4-.9-.7-.2-.2-.3-.4-.5-.4-.7-.2-.8.1-1.2.7-.2.4-.5.7-.8 1-.5.4-1 .2-1.4.2-.4-.1-.6-.1-.8 0-.2.1-.2.2-.3.5-.1.1-.3.5-.9.5z"/><path id="Path_00000058576141454895363610000010215008477178407832_" class="st4" d="M174 73.7c-.4 0-.6-.4-.7-.5 0-.1-.1-.1-.1-.2-.1 0-.1.1-.2.1-.2.1-.5.2-.8.1-.4-.2-.5-.6-.5-.9-.1-.4-.1-.5-.2-.5-.1-.1-.4 0-.7.1-.4.1-.9.2-1.3-.1-.2-.2-.4-.5-.4-1 0-.1.1-.3.2-.3.1-.1.3-.1.4 0s.2.2.2.3c0 .4.1.4.1.5.1.1.4 0 .7-.1.4-.1.7-.1 1-.1.5.2.6.7.7 1.1 0 .1.1.3.1.4.1 0 .2 0 .3-.1.2-.1.4-.2.7-.1.3.1.5.3.6.5 0 0 0 .1.1.1h.1c.2 0 .3-.2.3-.3.1-.2.2-.6.8-.6.1 0 .3.1.3.2.1.1.1.3 0 .4-.1.1-.2.2-.3.2-.1 0-.1 0-.2.2s-.2.6-.8.7c-.2-.1-.3-.1-.4-.1z"/><path id="Path_00000144315339570239151480000010086630035543709602_" class="st4" d="M158.2 80.5c-.2 0-.5-.1-.7-.4-.4-.4-.3-1-.2-1.5.1-.5.1-.9-.1-1-.3-.2-.8.2-1.4.6-.7.5-1.7 1.3-2.5.5-.4-.4-.3-.8-.2-1.2.1-.4.1-.7-.1-.9-.2-.2-.7-.2-1.2-.2-.6 0-1.2 0-1.6-.5-.3-.4-.2-.9-.2-1.2.1-.4.1-.6-.2-.8-.7-.4-1.1-.2-1.6.1-.5.2-1.3.6-2.2-.1-.9-.7-1.1-1-.8-1.6.1-.2.2-.4.1-.7-.1-.4-.7-.5-1.4-.5h-.4c-.4 0-1.1-.1-1.1-.7 0-.7.3-1.2.6-1.6.2-.2.3-.4.4-.7-.2-.1-.4-.2-.4-.4-.1-.4.2-.9.4-1.2.3-.4.5-.7.4-1-.1-.4-.4-.4-1-.5-.7-.1-1.6-.2-1.7-1.5-.2-1.2.1-1.6.6-2 .1-.1.3-.2.4-.4 0-.3 0-.6-.1-.8 0-.1-.1-.1-.1-.2-.1-.1-.2-.3-.2-.4-.1-.4 0-.7.1-.9.1-.2.2-.4.1-.5-.2-.1-.3-.2-.5-.2-.4-.2-.7-.3-.7-.6s.3-.5.9-.8c.1-.1.2-.1.2-.1.3-.2.4-.5.4-.8-.1-.4-.3-.5-.9-.7-.6-.2-1.5-.5-1.5-1.7 0-.3.1-.6.2-.9.4-.9 1.2-1.2 1.9-1.4.5-.1.9-.2 1.1-.5.1-.2-.5-.9-.7-1.2-.3-.4-.5-.7-.5-.8-.2-.7.4-1 .7-1.3.1-.1.2-.1.3-.2-.1-.1-.3-.2-.4-.2-.2-.1-.5-.2-.6-.4-.5-.7.4-2.1.4-2.1.8-1.3 1.9-1 2.8-.7.7.2 1.3.4 1.8 0 .3-.2.5-.7.7-1.2.1-.1.1-.2.1-.2l-.2-.2-.3-.3c-.3-.5.5-1.4.5-1.4.3-.3.8-.4 1.3-.4h.2c-.1-.1-.3-.2-.4-.4-.3-.8.4-1.6.9-2 1-.7 3-.9 4.1-.5.4.1.5.4.7.7.3.5.4.5.5.4 0-.1-.1-.2-.1-.3-.1-.3-.3-.7-.1-1 .2-.2.4-.3.7-.4l-.1-.1c-.4-.5-.5-1.3-.1-1.9.8-1 2-.9 3-.5h.1c.7.2.9.2 1 .2 0-.1 0-.1.1-.2 0-.3.1-.6.4-.9.2-.1.4-.1.6-.1 0-.1-.1-.1-.1-.2-.1-.3-.3-.8.1-1.2.2-.2.7-.2 1-.1h.1c-.1-.1-.1-.2-.2-.3-.3-.4-.7-1 .1-1.8 1-1 3.5-.5 4.4.2.1.1.2.4.5.8.1.1.2.4.2.5.1-.1.1-.2.1-.3.1-.5.3-1 .8-1 .4 0 .5.4.5.5v.1c.2.1.5.2.8.1.1 0 .1-.1.1-.5s0-.9.4-1.3c.7-.5 1.3 0 1.7.4.1.1.2.1.2.2.1-.1.2-.2.2-.3.2-.3.5-.6.8-.7.1 0 .3.1.4.2l.1.1c.2-.3.3-.5.5-.5h.2v-.1c-.1-.2-.2-.5 0-.8.2-.2.6-.2.9-.2.2 0 .3.1.4.1.8.2 1.7.7 2.1 1.5.1.2.2.4.2.7.1.5.2.8.6.9h.1v-.3c.1-.3.1-.7.4-.9.2-.1.5-.2.7-.1.4 0 .7.3.8.6.1.1.1.1.1.2h.1c.1 0 .4-.1.6.1.2.2.4.4.5.7.1.1.1.2.1.2.1 0 .1-.1.1-.1.2-.2.5-.2.7-.1.2.1.3.2.4.4.1.2.1.4.1.7v.3c.4-.2.8-.4 1.2-.1.2.1.4.4.4.8 0 .2-.2.3-.4.3s-.4-.2-.4-.3v-.2c-.2 0-.3.1-.5.2s-.4.2-.6.1c-.5-.2-.4-.7-.4-1.2v-.2c-.2.1-.6.3-.9 0-.2-.2-.2-.4-.4-.5-.1-.1-.1-.3-.2-.4h-.1c-.1 0-.4.1-.5-.1-.1-.1-.3-.2-.4-.4-.1-.1-.2-.3-.4-.3h-.2c-.1.1-.1.3-.1.4-.1.3-.1.7-.4.9-.2.1-.4.1-.7.1-.8-.2-1-.9-1.1-1.5-.1-.2-.1-.4-.2-.5-.3-.7-1-1-1.7-1.2-.1 0-.2 0-.3-.1h.1c.1.2.2.7-.1 1-.2.2-.4.2-.5.2-.1.1-.1.2-.1.2-.2.4-.4.7-.6.7-.1 0-.2 0-.3-.1-.2-.1-.3-.3-.2-.5l-.2.2c-.3.4-.6.8-1 .5-.2-.1-.3-.2-.5-.4-.4-.4-.7-.5-.8-.3-.1.1-.1.3-.1.7 0 .4.1 1.1-.7 1.3-.4.1-1.1.1-1.5-.3l-.1-.1c0 .1-.1.2-.1.2-.1.4-.2.8-.5 1-.1.1-.2.1-.4 0-.3-.1-.5-.5-.8-1.1-.1-.2-.2-.5-.3-.5-.7-.5-2.8-.9-3.4-.2-.4.4-.2.5.1.9.2.3.5.7.4 1.2-.1.4-.7.3-.9.2-.1 0-.2-.1-.3-.1 0 .1.1.2.1.3.1.2.2.5.1.7-.1.5-.6.5-.8.4h-.2c0 .1-.1.2-.1.3 0 .2-.1.4-.2.6-.3.4-1.1.2-1.8 0h-.1c-1.1-.4-1.7-.2-2.2.3-.2.2-.1.7.1 1l-.1.2c.2.2.4.4.4.7 0 .1-.1.3-.1.4-.2.2-.4.2-.6.2h-.2c0 .1.1.2.1.3.1.3.5 1-.2 1.3-.8.4-1.3-.3-1.6-.7-.1-.2-.2-.3-.3-.4-.9-.3-2.7-.1-3.4.5-.4.2-.7.8-.7 1.1.1.1.1.1.2.1.3.2.7.5.5.9-.2.3-.7.4-1.1.4-.3 0-.8.1-.9.2-.2.2-.3.4-.4.6l.1.1c.2.2.7.5.4 1l-.2.4c-.2.5-.5 1.2-1 1.5-.8.5-1.7.2-2.4.1-1-.3-1.6-.4-2 .4-.3.4-.5 1.1-.4 1.3.1.1.2.1.3.1.4.2 1 .5.8 1-.1.4-.4.5-.7.7-.4.2-.4.3-.4.4 0 .1.2.4.4.6.5.7 1.1 1.5.7 2.1-.4.5-1 .7-1.5.9-.6.2-1.1.4-1.4 1-.1.2-.1.4-.1.6 0 .6.4.8 1 1 .5.2 1.3.5 1.3 1.3.1.7-.1 1.2-.6 1.6-.1.1-.1.1-.3.2-.1 0-.1.1-.2.1.4.2.7.3.8.5.2.5.1.9-.1 1.2-.1.1-.1.2-.1.3 0 .1.1.1.1.2.1.1.3.4.3.6.1.5.1 1.2-.2 1.5-.2.2-.4.3-.5.4-.4.2-.5.4-.3 1.3.1.8.5.8 1.1.9.5.1 1.2.1 1.6.9.3.7-.1 1.3-.5 1.7-.1.2-.3.4-.3.5.4.1.5.4.4.8-.1.3-.3.7-.5 1-.2.4-.5.7-.5 1.1.1 0 .4.1.4.1h.5c.7.1 1.8.1 2 1.2.1.4 0 .9-.2 1.2 0 0 0 .1-.1.1 0 0 .1.1.6.5.6.4 1 .3 1.5.1.5-.2 1.3-.5 2.2-.1.8.4.7 1.2.6 1.6-.1.3-.1.5 0 .6.2.2.6.2 1 .2.6 0 1.3 0 1.7.5.5.5.4 1.1.4 1.6-.1.3-.1.5 0 .6.3.3.7.1 1.6-.5.7-.5 1.4-1.1 2.2-.7.6.4.5 1.1.5 1.7-.1.4-.1.7.1.9.1.1.2.1.2.1.1 0 .3-.2.4-.4.2-.3.4-.6.8-.7.7-.1 1.1.4 1.3.7.1-.1.1-.2.1-.2.1-.3.2-.6.5-.7.2-.1.4-.1.6 0 .2.1.3.3.4.5.1-.1.3-.2.5-.2.1 0 .3.1.3.2.1.1.1.3 0 .4-.1.1-.2.2-.3.2l-.1.1c-.2.1-.6.4-.8.1-.1-.1-.2-.3-.2-.4v-.1c0 .1-.1.2-.1.4-.1.4-.3.9-.8.9-.3 0-.4-.2-.5-.4-.2-.4-.4-.5-.6-.4-.1 0-.2.2-.4.4 0-.9-.3-.5-.8-.5z"/><path id="Path_00000127014980273900294620000009561300301787192963_" class="st4" d="M167.1 79.5c-.2 0-.4-.1-.4-.3 0-.2.1-.4.3-.4l.2-.1c.2-.1.4-.1.7-.1.2 0 .3.1.5.1.2.1.3.2.3.4s-.2.3-.4.3c-.2-.1-.4-.1-.5-.1h-.1s-.1 0-.1.1l-.2.1c-.2-.1-.2 0-.3 0z"/><path id="Path_00000078728863214436812200000007204811217851500170_" class="st4" d="M171.3 80.8c-.1 0-.1 0-.2-.1-.2-.1-.3-.4-.4-.7l-.1-.2c-.1-.2.1-.4.2-.4.2-.1.4.1.4.2l.1.2v.1c.1-.1.3-.2.4-.2l.2-.1c0-.2 0-.4.2-.6.2-.2.4-.2.6-.2.1 0 .2-.1.2-.1v-.1c-.1-.2-.2-.7 0-.9.2-.2.4-.3.7-.3.4 0 .6.2.8.5l.2.2c0-.1.1-.2.2-.2.2 0 .4 0 .5.1.2.1.2.3.2.5-.1.1-.2.2-.4.2-.1.1-.2.3-.4.3-.4.1-.7-.2-.9-.4-.1-.1-.2-.2-.3-.2h-.1c0 .1.1.1.1.2.1.1.1.2.1.4 0 .5-.5.7-.9.7-.1 0-.1 0-.2.1v.1c0 .2 0 .4-.2.5l-.4.2c-.1 0-.3.2-.6.2z"/><path id="Path_00000165933752705494668350000017742867099535561400_" class="st4" d="M143.4 89.6h-.1c-.3-.1-.5-.2-.7-.7-.1-.2 0-.4.2-.5.2-.1.4 0 .5.2 0 .1.1.2.1.2.1 0 .4-.4.5-.6.1-.1.2-.2.2-.3.2-.2.6-.2.9-.2h.3c.1-.1.2-.1.2-.4.1-.3.2-.8.9-1 .5-.1.8.2 1.1.5.1.1.2.2.4.3.1 0 .2-.2.3-.2.3-.2.7-.7 1.3-.3.2.1.3.3.4.5 0 .1.1.1.1.2.1 0 .2 0 .2-.1.2-.1.4-.2.6-.1.5.1.8.4 1 .7.2.2.2.3.5.1.2-.1.4 0 .5.2.1.2 0 .4-.2.5-.8.4-1.2-.1-1.4-.4-.2-.2-.3-.4-.5-.4-.1 0-.1.1-.2.1-.2.1-.4.2-.8.1-.3-.1-.4-.3-.5-.6 0-.1-.1-.1-.1-.2-.1-.1-.1 0-.4.2-.2.2-.5.5-.9.4-.3-.1-.5-.3-.8-.5-.2-.2-.3-.3-.4-.3-.3.1-.4.2-.4.5-.1.2-.2.7-.7.9-.2 0-.4.1-.6.1h-.4c-.1.1-.1.2-.2.2-.1.4-.5.9-.9.9z"/><path id="Path_00000017507910552587646700000002452333143875736449_" class="st4" d="M139.1 99.2c-.1 0-.3 0-.4-.1-.6-.1-1.1-.7-1.3-1.3 0-.1 0-.2-.1-.3v-.2c-.3-.1-.5.1-.8.4-.4.3-.8.7-1.6.4-.5-.2-.5-.8-.5-1.2 0-.3 0-.7-.1-.7-.3-.2-.6-.1-1.1.1-.5.2-1.3.5-2-.2-.5-.5-.9-1.5-.3-2.3l.3-.3c.1-.1.4-.3.4-.4-.1 0-.2 0-.3-.1-.2-.1-.6-.1-.8-.4-.2-.4 0-.7.2-1 .1-.1.1-.2.2-.2h-.3c-.5 0-1.3-.1-1.3-.8 0-.5.4-.9.7-1.3.4-.5.7-.8.5-1-.2-.2-.6-.4-1-.5-.8-.2-1.9-.7-1.6-1.9.2-.9.9-1.2 1.4-1.3.3-.1.6-.2.8-.5 0-.1-.2-.3-.4-.4-.3-.2-.7-.4-.5-.8.1-.5.5-.8.8-1 .3-.2.5-.3.5-.5-.1-.1-.4-.1-.5-.2-.5-.2-1.3-.4-1.1-1.2.2-.9 1.1-2 2.1-2 .2 0 .4.1.6.1.3.1.6.2.9.2 0-.1 0-.1-.1-.1-.1-.2-.2-.5-.1-.7.1-.3.4-.5.7-.5.2-.1.2-.1.3-.1 0-.1-.1-.1-.2-.3-.2-.2-.5-.5-.4-1 .2-.5.6-.7 1-.8.2-.1.5-.2.6-.4 0-.1-.3-.3-.4-.4-.2-.1-.3-.2-.4-.3-.2-.2-.2-.5-.2-.7.1-.6.7-1.2 1.1-1.4.5-.4 1.3-.7 1.9-.4.2.1.4.2.5.4.4.3.5.4.8.1.1-.1.1-.4.1-.6 0-.3 0-.7.2-.9.3-.5.8-.4 1.1-.2.1 0 .1 0 .1.1-.1-.2-.2-.7.1-.9.1-.1.4-.1.8-.1.2 0 .5 0 .7-.1v-.2c.1-.2.1-.6.4-.8.6-.4 1.3-.7 2-.3.2.1.2.3.2.5s-.3.2-.5.2c-.4-.2-.7-.1-1.3.2 0 .1 0 .2-.1.2-.1.2-.1.6-.4.8-.2.1-.5.1-1 .1h-.2c0 .1.1.1.1.2.1.2.1.4.1.6-.2.5-.8.4-1 .2-.1 0-.3-.1-.4-.1-.1.1-.1.4-.1.5 0 .4 0 .9-.4 1.2-.8.6-1.3.2-1.7-.2-.1-.1-.3-.2-.4-.3-.2-.1-.6 0-1.2.4-.3.2-.7.6-.7.9 0 .1 0 .1.1.1.1.1.2.1.2.2.3.2 1 .7.7 1.3-.2.4-.6.6-1 .8-.3.1-.5.2-.6.5l.2.2c.2.2.5.5.4 1-.1.5-.5.6-.8.7-.1 0-.2 0-.2.1s0 .2.1.2c.1.2.1.4.1.6-.2.7-1 .4-1.7.2-.1 0-.3-.1-.4-.1-.6 0-1.3.8-1.4 1.5-.1.1.4.2.7.4.5.1 1.1.4 1 1-.1.5-.5.8-.8 1-.2.2-.4.3-.5.5l.2.2c.3.2.7.4.7.9 0 .2-.1.4-.2.6-.3.4-.7.5-1.1.7-.5.2-.8.4-1 .8-.1.5.2.7 1.1 1.1.5.2 1.1.4 1.4.9.5.7-.1 1.4-.5 1.9-.2.3-.5.6-.5.8.1 0 .4.1.6.1.4 0 .8.1 1 .4.1.4-.1.7-.3 1-.1.1-.1.1-.1.2.1 0 .2.1.2.1.2.1.4.1.6.2.2.1.3.3.3.5 0 .4-.4.7-.7 1-.1.1-.2.1-.2.2-.4.4-.1 1 .2 1.4.4.4.7.2 1.3 0 .5-.2 1.2-.5 1.9 0 .4.3.4.9.4 1.3 0 .2 0 .5.1.5.2.1.4 0 .8-.3s.8-.6 1.5-.5c.5.1.5.6.5.8V98c.1.3.4.6.7.7.5.1.7-.1 1-.7.2-.4.5-.9 1.1-1 1-.2 1.2.6 1.4 1 .1.1.1.4.2.4s.1-.2.2-.3c.1-.2.3-.6.7-.7.3-.1.6.1.8.4.1-.1.3-.1.4-.1.2 0 .3.2.3.4s-.1.4-.3.4c0 0-.1 0-.1.1-.2.1-.5.2-.7-.1-.1-.1-.1-.1-.1-.2s-.1-.1-.1-.1c0 .1-.1.2-.1.3-.1.2-.3.7-.8.7s-.7-.5-.8-.9c-.2-.6-.2-.6-.5-.5-.3.1-.4.4-.7.7-.7.1-1.1.7-1.9.7z"/><path id="Path_00000093888991273496265980000000125337524046727067_" class="st4" d="M149.9 99.2c-.5 0-.8-.5-.9-.7-.1-.1-.1-.2-.2-.2-.3-.1-.7-.2-1-.4 0 0-.1 0-.1-.1.1 0 .2 0 .2-.1l-.3.1-.4-.1c0-.2 0-.4.2-.5s.4-.1.6.1c.2.1.4.2.9.4.2.1.4.3.5.5.2.4.3.4.5.3s.2-.3.3-.7c.1-.3.1-.7.4-.9.2-.2.8-.3 1.2-.3.2 0 .5.1.5.3 0 0 .1.1.1.2.1-.1.1-.2.2-.2.8-.5 1.4-.2 1.9.1.2 0 .4 0 .5.1.1.1.2.3.2.4 0 .2-.2.3-.4.4-.1 0-.2-.1-.3-.2-.1 0-.2 0-.3-.1-.5-.3-.7-.4-1.2-.1l-.1.1c-.1.1-.3.4-.6.4-.4.1-.5-.4-.6-.7v-.1c-.2 0-.5 0-.7.1-.1.1-.1.3-.2.5-.1.4-.2.8-.7 1.2.2.2 0 .2-.2.2z"/><path id="Path_00000158717870665278157300000006861622916322512804_" class="st4" d="M157.9 95.9c-.1 0-.2-.1-.3-.2-.1-.1-.1-.2-.1-.3 0-.1.1-.2.2-.2.4-.2.4-.5.2-1.2-.1-.4-.2-.8-.1-1.2.2-.6.8-1 1.7-1h.1c-.1-.3 0-.7.2-1 .5-.7 1.1-.4 1.4-.2.1.1.2.1.3.1 0-.1 0-.3-.1-.4 0-.3-.1-.5.1-.7.2-.3.4-.5.5-.5.3-.1.5.1.7.2.1-.1.2-.4.5-.4.2 0 .3.2.4.4 0 .2-.1.3-.2.4-.1.1-.1.3-.2.4-.4.2-.7 0-.8-.1-.1 0-.1-.1-.1-.1l-.1.1v.4c.1.4.1 1-.4 1.2-.4.1-.7 0-.9-.1-.3-.1-.4-.2-.6.1-.1.1 0 .3 0 .5.1.3.1.6-.1.8-.1.1-.3.2-.6-.1l-.1-.1c-.3 0-.8.1-1 .5-.1.2 0 .4.1.7.2.5.4 1.4-.5 2-.1.1-.1 0-.2 0z"/><path id="Path_00000129173248896073556390000014980687129974449593_" class="st4" d="M344 96.3c-.2 0-.3-.2-.4-.4V5.1c0-.2.2-.4.4-.4s.4.2.4.4v90.8c0 .2-.2.3-.4.4z"/><path id="Path_00000008136779238302682390000018040092670580277177_" class="st4" d="M348.1 97.6c-.2 0-.3-.2-.4-.4V5.1c0-.1.1-.3.2-.3.1-.1.3-.1.4 0 .1.1.2.2.2.3v92.1c-.1.2-.2.4-.4.4z"/><path id="Path_00000029014985748242566130000003431554053174316941_" class="st4" d="M344.2 28.4c-.1 0-.3-.1-.3-.2-.1-.2 0-.4.2-.5.1-.1 2-.9 3.9-.1.2.1.3.3.2.5-.1.2-.3.3-.5.2-1.6-.7-3.3.1-3.4.1 0-.1 0 0-.1 0z"/><path id="Path_00000155142100087410624510000016643764988666776487_" class="st4" d="M344.1 82.2c-.1 0-.3-.1-.3-.2-.1-.2 0-.4.2-.5.1-.1 2-.9 3.9-.1.1.1.2.2.2.3s0 .3-.2.3c-.1.1-.2.1-.4 0-1.6-.7-3.3.1-3.4.1.1.1.1.1 0 .1z"/></g></g></g></g></g></g></svg>