<svg version="1.1" id="Layer_1" xmlns="http://www.w3.org/2000/svg" x="0" y="0" viewBox="0 0 380 200" xml:space="preserve" enable-background="new 0 0 380 200"><style>.st3{fill:#ffe7d2}.st6{fill:#fff}.st10{fill:#d6a981}.st12{fill:#bcc4cd}.st13{fill:#5b2714}</style><defs><filter id="Adobe_OpacityMaskFilter" filterUnits="userSpaceOnUse" x="252.8" y="52" width="124.4" height="179.5"><feColorMatrix values="1 0 0 0 0 0 1 0 0 0 0 0 1 0 0 0 0 0 1 0"/></filter></defs><mask maskUnits="userSpaceOnUse" x="252.8" y="52" width="124.4" height="179.5" id="mask-4_00000136412434217745699500000004718244327405904018_"><g filter="url(#Adobe_OpacityMaskFilter)"><path id="path-3_00000114753985287655883080000017320449217108028315_" d="M3 0h380c1.7 0 3 1.3 3 3v194c0 1.7-1.3 3-3 3H3c-1.7 0-3-1.3-3-3V3c0-1.7 1.3-3 3-3z" fill-rule="evenodd" clip-rule="evenodd" fill="#fff"/></g></mask><g id="Homeowners-v2-01" mask="url(#mask-4_00000136412434217745699500000004718244327405904018_)"><g transform="translate(122.782)"><path id="Path_00000081625312291458500680000001732139863585257355_" class="st3" d="M201.5 118.6c-.5-2.9-.4-5.9-.8-8.7-.1-1-.2-2.1-.5-3.1-.4-.9-.6-1.8-1.1-2.7-.5-.9-1.3-2.3-1.5-3.2-.4-1.3-.1-3.8-.1-3.8l-1.8-3.5s-2.2-1-3.4-2.1c-2.1-2.2-4-4.7-5.4-7.4-.7-1.4-1.3-2.9-1.8-4.4-.9-2.7-1.8-5.2-1.1-8.1.4-1.6 1.2-3.3 2.5-4.3 1.1-.9 2.5-1.3 3.7-1.7 1.1-.4 2.3-.6 3.4-.9 2-.5 4.8-.5 6.7.4 2.5 1.3 4.1 3.7 6.7 4.9 1.7.9 4.4-.9 5.5 1.3.7 1.5.7 3.3-.2 4.8-.6 1-1.4 1.5-1.4 2.8 0 2.3.9 5.3 1.8 7.4.6 1.4 1.5 3.8 1.5 3.8s-1.1 3.5-2.4 5.6c-1.9 3.1-4.6 5.5-6.8 7.8-1.2 1.2-1.2 2.7-1.5 4.3l-1 7.3-1 3.5z"/><path id="Path_00000101820292938878549990000015402793695153729691_" d="M203 108.8c-.2.8-.2 1.6-.3 2.4-.1 1.3-.3 2.7-.5 4.1-.1.5-.2 1.1-.4 1.6-.1.3-.4.5-.4.9l1.6-9z" fill="#ffedde"/><path id="Path_00000114775757475686137010000014750128580221908609_" d="m189.4 200.5 12.7-16.2 36.5 9.5.7 11.4.5 12 .2 11.4s-7.3 1.8-19.4 2c-12.1.2-29.1-1.3-29.1-1.3l-2.1-28.8z" fill="#002f57"/><path id="Path_00000122000316566746038080000016075802997826906779_" class="st6" d="m186.2 105.7 9.1-5.2 2.5-4 .5.6c-.2.6-.3 1.3-.3 2 .1 1.2.1 1.2.8 2.9.7 1.7 1.3 1.5 2.1 5.7s1.1 11.5 1.1 11.5l1.4-5.3.7-6.5s.2-2.1 1.2-3.9c1-1.7 2.8-3 2.8-3s3-3.1 4.7-6c1-1.8 1.8-3.8 2.1-5.9 0 0 .6-.4 1.5 1.2.7 1.2 2.7 2.5 2.7 2.5s2.7 1.9 8.4 4.4c5.7 2.5 13 4.2 17 9.4 2.9 3.9 4.6 10.6 5.5 16.8 1.1 7.5 1.3 15.1 1.3 15.1s.9 14.8 1.9 29.9c.4 5.8.5 12.1.5 16.7-.2 8.5-.4 8.8-.8 12.3-.2 1.7-1.2 1.8-1.2 1.8V197c-1.5-.7-3.1-1.2-4.7-1.5-2.7-.5-4.4.2-4.4.2l-.1 2.3s-.9.1-1.3-1.5c-.5-1.7-.5-5.2-.5-5.2s-.2-9.6-1-17-2.3-12.6-2.3-12.6-.5 3.5-.2 9.2c.5 8.4 2.1 20.1 1.7 22.4-.2 1.2-1.4 2-3.4 3.3-4.5 2.8-12.6 5.9-18.5 7.2-5 1.1-8.1.7-8.3.6-1.4-.6-2.5-3.7-3.5-6.9-1.6-5.6-2.4-12.2-2.4-12.2s-.5 3.7-1.1 7.5c-.7 4.2-1.6 8.5-2.1 9.9-1 2.6-9.4-2-9.4-2l-4-95z"/><path id="Path_00000047024205225919255330000014134326728239654793_" d="M150.6 106.6c.3-1.7-.2-3.2-.7-4.8-.5-1.6-.9-3-.5-4.6.3-1.4 1-2.5 2-3.5s2.5-2.5 2.8-4c.7-3-.5-5.2 0-8.2.3-2 1.7-4.9 2.9-6.5 1.8-2.3 4.9-4.3 7.7-5.1 2-.6 3-.7 5-.9 1.3-.1 4.9.9 5.8 1.2 2.4.9 5.5 2.9 7 5.1 2.7 4.1 1.4 9.5 2.5 14 .5 1.8 1.9 2.9 2.5 4.7.4 1 .2 2.6.2 3.8-.2 2.5-1.9 4.1-2.2 6.5-.1.9.4 2.1.7 2.9.4.9.5 2.7.4 3.7-.3 2.3-2.5 4.3-4 5.9-.7.7-1.5 1.4-2.3 1.9-1.1.6-2.2 1.2-3.4 1.5-6.7 2-13.9-1.6-19.6-4.9-3-1.7-7.9-4.1-7.9-8.3l1.1-.4z" fill="#dea870"/><path id="Path_00000106833813555351725710000016484022126039340678_" d="m139.1 192.5 51.3 5 2.2 31.2s-11.5 2.7-24.6 2.7-28-2.6-28-2.6-2.5-12.2-2.8-21.3c-.2-9.1 1.9-15 1.9-15z" fill="#ffebd8"/><path id="Path_00000178189122587806618820000007437275859558520756_" d="M144.4 108.9c1.4-1.1 3.1-1.8 4.9-2.1 2.8-.5 6.5-.5 8.6.7 9.6 5.7 22.2 13.2 22.2 13.2l7.2-.7s3.3 8.7 6.5 17c1.6 4.1 1.2 8 .8 9.6-.5 2.3-1.1 3.2-1.7 9.3-.9 10.2-1.7 25.1-1.7 25.1l-.7 10.2-.2 4.6s-.4.7-2.2 1.7c-3.5 2-10.8 5.1-20.6 4.6-9.1-.4-18.4-4.5-24-7.5-3.2-1.7-5.2-2.9-5.2-3.4.7-5.6 6.1-15.2 6.1-15.2l4.9-14.9-2.4-9.9-3.1 2s-.7 1.2-2.7 2.1c-1.3.6-4.2 1.3-5.5 1.6-3 .5-4.9-1.3-5.4-3.8-1-5.1 1.6-12.1 4.5-20.6 2.2-6.8 3.8-13.4 6-18.1 1-2.4 2.9-4.9 3.7-5.5z" fill="#fa9700"/><path id="Path_00000150069825471072831310000007130451391948256651_" class="st10" d="M157.9 107.4c.5 0 1.5-.1 2.2-.4 1.6-.7 2.1-1.9 2.4-3.5.1-.7.1-3.4.1-3.4l-2.1-5.3s-1.2-.3-2-1.2c-.9-1-1.5-2.1-1.2-3.4.3-1.2 1.7-1.2 2.5-1.9 2.1-1.4 4.8-3.4 6.7-5.3s2.4-3.4 3.4-5.9c.2-.5.7-1.9 1.5-1.4.9.4 1.7 1.5 2.5 2.1 1.5 1.2 3.4 2.3 4.7 3.7 1 1 1.5 2.4 2.2 3.6.7 1.2 2.7.4 2.9 2.4.2 1.1-.1 2.6-.8 3.6-.3.4-1.3 1-1.3 1s-.1 2.7-.3 4.1c-.1.3-.5 1.7-.6 2.1-1 1.8-1.9 3.2-1.9 3.2s-1 6.4-1.3 8.6c-.2 1.6 2.9 2.9 2.9 2.9s-4.9 3.8-5.7 4.6c-.6.6-1.2 1.4-2 1.9-1 .5-1.5-.4-1.5-.4s-3-3.2-4.2-4.4l-9.1-7.3z"/><path id="Path_00000037676131895590138380000016011529939234238880_" class="st3" d="M166.1 114.5c-1.5-1.9-4-3.9-6-5.2-.4-.2-1.5-1.3-2-1.3l8 6.5z"/><path id="Path_00000095332650366441630910000006523421122685331362_" class="st10" d="M142.3 138.5s-1 1.9-1.5 3c-1.2 2.7-1.5 6.2-.6 9.1.4 1 1 2.3 1.6 3.1.2.3 1 .7 1 .7s1.8-1.1 2.5-1.5c1.6-1 3.5-2.2 4.9-3.4 4.1-3.2 7.8-6.4 11.6-9.9 1.4-1.2 2.7-2.5 3.9-3.8 1.1-1.2 3-2.7 4.3-3.8 1.3-1.1 1.9-1.5 3.4-2.1 1.2-.4 2.4-.7 3.5-1.3 2.2-1.2 4.1-3.2 6.4-4.3l2.1-.9c.4-.1.9 0 1.3-.1 1-.1 2.2-.4 3-1 1.3-1-1.7-1.8-1.7-1.8s.9-2.1 1-2.8c.2-1-1.1-2.8-1.4-3.1-.7-.7-1.5-2-2.5-2-.9 0-2.6.6-2.6.6s-2-1.2-2.5-1.2c-.9 0-2.2 1.7-2.2 1.7s-1.2-.7-1.8-.7c-.9.1-2 2.3-2 2.3s-.9-.1-1.2.2c-1.2 1.2-1.7 2.9-2.5 4.3-1 1.8-2.1 3.5-3.7 4.8-2.1 1.8-4.7 3.4-7.1 4.9-3.7 2.3-7.7 4.1-11.5 6.1-1.2.6-2.6 1.2-3.8 1.8l-1.2.6c.1.2-.7.5-.7.5z"/><path id="Path_00000155130743490936379090000009924124267302122418_" class="st3" d="M149 161.6c-.4-.1-.9.1-1.2.4-.6.6-1.3 1.6-1.4 2.5-.1.2.1.7.1.7s-1.2 1.4-1.4 2.2c-.1.5 0 1 .1 1.4.1.2.1.6.1.6s-.7.6-1 1.3c-.2.4 0 1 .2 1.4 0 .2.1.3.2.5 0 0-.5.2-.6.4-.6.9-.3 2.5.2 3.4l.3.6.3.6c.6.9 1-.6 1-1 0-.1.2-.9.2-1 0 0 .4.4.5.4.6.1 1 .2 1.1-.4.2-.6.1-.8.1-1.4 0-.1-.1-.9-.1-.9s.7.7 1.1.4c.4-.3.7-1.1.7-1.5 0-.1-.2-.8-.1-.9l.5.1c.4.1.7-.2.8-.6.5-1.2.2-2.5-.1-3.7-.6-2-1.6-5.5-1.6-5.5z"/><path id="Path_00000152952399937614168380000014826352871049353346_" class="st3" d="M243.1 195.4c0 .9 0 1.8-.2 2.7-.3 1.5-1 3-1.4 4-.7 1.6-1.5 3.4-1.9 5.1-.4 1.6-.2 4.1-.2 5.8 0 1.3-.8 2.4.2 3.5.7.7 1.7-.1 2-.5.4-.6.7-1.3 1-1.9.5-1.4.1-3 .6-4.4.4-.9 1.7-.7 2.1.1.2.5.4 1.6.5 2.1.1.7.1 2.5.1 2.5s-1.1.6-1.4 1c-.8 1.2-1.8 2.2-2.4 3.5-.2.4-.2.8-.2 1.2 0 .1.2.3.1.5-.2.6-.9 1.6-.6 2.3.2.4 1 .3 1 .3.3.6-.3 1.5.1 2.2.8 1.5 2.5-.5 3.1-1.2.6-.7 2.2-2.7 2.2-2.7s1.7-1 2.5-2.1c.5-.7.8-1 1.4-2.2.5-1.2 1.1-4.7 1-6.7 0-1.5-.1-6.2-.5-9.8-.1-1.2.1-4.1.1-4.1s-1.1-.5-1.7-.8c-1.4-.6-3.9-.8-5.5-.8-.4-.1-2 .4-2 .4z"/><path id="Path_00000107549054567505668260000017176468763341296572_" d="M183.2 72.3c0 .7.1 1.4.2 2 .2 1 .4 1.9.7 2.8l-1.2-1.2c-.6-.8-1-1.7-1.4-2.6-.3-.5-.4-1.3-.7-1.7-.5-.7-1.2-1.4-1.4-2.3-.7-2-.7-3.2.1-5.2.5-1.4 2.3-3.9 3.3-5.1 2.4-2.9 5.9-5.3 9.7-6.1 1.8-.4 3.1-.1 5-.1 3 0 5.6.1 8.1 1.9.6.5 2.2 1.6 2.7 3s1 3.7 1.2 5.4c.1 1.3.3 2.6.6 3.9.1.5.3 1.7 0 2.2-1 1.3-3.7.1-4.7-.5-1.8-1-3-2.9-4.5-4.2-1.6-1.3-4-1.2-6-1-2.8.2-5.5 1.4-7.9 2.7-1 .5-2.5 1.8-2.9 2.8-.4 1-.6 1.3-.8 2.3-.1.3-.1 1-.1 1z" fill="#e2b27f"/><path id="Path_00000084501038909985183030000000999889831096561842_" class="st12" d="M188.6 123.4c0 .3-.8.7-.8.7l-.1.9s0 1-.1 1.4c-.2.7-1.1 1.2-1.4 1.9-.9 1.8-1.4 3.7-2.2 5.4-.2.5-.5 1.6-1.1 1.9-.8.3-.8-.8-.8-1.3.3-1.8.8-3.5 1.5-5 .2-.6.1-1.6.1-1.6s-1-.5-1.2-.9c-.3-.6-.2-1.3.1-2 .3-.8.8-1.8 1.4-2 .7-.3 1.6.3 2.5.5.5-.1 2.1-.2 2.1.1z"/><path id="Path_00000011749503007848563490000010383457243513735810_" class="st12" d="M187.5 125.6c.3 0 .6.2.8.5.1.1.4.2.2.5-.2.5-1.1.2-1.6.5-.5.4-1.5 1.6-1.6 2.3-.1.6.7.5 1 .7.3.3.1.9.2 1.3.1.2.2.4.2.6.2 1.6-.1 3.3.5 5 .1.2.5 1.2.8 1.1.5-.2.6-.7.7-1.1.1-1 .1-2.8-.1-3.8-.1-.9-.2-3.2-.2-3.2.4 0 .8-.2 1.1-.4.7-.6.6-3.1.2-3.8-.2-.5-.7-.6-1.3-.6-.4-.1-.7.1-1.1.1.1-.4.2.3.2.3z"/><path id="Shape_00000116221446643773348510000008532538867558413231_" class="st13" d="M150.2 171.4c-.9 0-1.3-1-1.8-2.3-.2-.4-.3-.8-.5-1.3l-.1-.2c-.8-1.9-1.6-3.6-.3-5.3.4-.6 1-1 1.6-1.3-.8-2.8-1.7-6.5-2.2-9.5-.1-.2.1-.4.3-.4.2 0 .3.1.4.3.5 3.6 1.8 8.2 2.6 11 .1.6.3 1.2.5 1.8.6 2.4.8 3.4.9 4.5.1 1 0 1.7-.3 2.2-.3.3-.7.5-1.1.5zm-1-9.7c-.5.2-.9.6-1.2 1.1-1 1.3-.4 2.7.4 4.5l.1.2c.2.4.3.9.5 1.3.5 1.2.8 1.8 1.2 1.8.2 0 .3-.1.5-.2.2-.3.3-.8.2-1.6-.1-1.1-.3-2.1-.9-4.4-.1-.4-.3-1.1-.5-1.8l-.3-.9z"/><path id="Path_00000061437855253828673470000009048582373302656926_" class="st13" d="M149 173c-.2 0-.3-.1-.5-.1-.5-.2-.8-.8-1-1.2-.1-.1-.1-.2-.1-.2-.2-.4-.5-.8-.8-1.1-.6-.8-1.2-1.6-1.4-2.5-.2-1.2 1.4-2.8 1.6-2.9.1-.1.3-.1.5 0s.1.3 0 .4c-.4.3-1.5 1.6-1.4 2.3s.7 1.5 1.2 2.2c.3.4.6.8.8 1.2.1.1.1.2.1.3.2.3.4.8.6.9.2.1.2.1.3 0 .3-.2.3-1.3.1-2-.1-.2.1-.4.2-.4.2-.1.4.1.4.2.2.6.4 2.1-.4 2.6.2.2 0 .3-.2.3z"/><path id="Path_00000160171944881886842350000007179384620099462319_" class="st13" d="M147.3 176.2c-.8 0-1.1-.8-1.5-1.7l-.1-.3-.5-1.1c-.5-1-1-1.9-.7-2.7.3-.7 1.1-1.3 1.2-1.4.1-.1.2-.1.4 0 .1.1.2.2.2.3 0 .1-.1.3-.2.3-.2.1-.8.6-.9 1-.2.5.2 1.3.6 2.1.2.4.4.7.5 1.1l.1.3c.5 1.3.6 1.4 1.2 1.2.2-.2.2-1.5-.1-2.7-.1-.2.1-.4.3-.4.2-.1.4.1.4.3.2.9.5 3.2-.4 3.6-.1.1-.2.1-.5.1z"/><path id="Path_00000111175710421533224170000001839709844272654249_" class="st13" d="M145.1 177.9c-.1 0-.2-.1-.3-.1-.4-.3-.5-1.1-.7-2.1l-.3-1.5c-.4-1.3.3-2.4.8-2.8.1-.1.2-.1.3-.1.1 0 .2.2.2.3s0 .3-.1.3c0 .1-.9.8-.5 1.9.1.5.2 1.1.3 1.5.1.6.3 1.5.4 1.6.3-.1.4-1.4.4-2.5 0-.1 0-.3.1-.4.1-.1.2-.1.3 0s.1.2.1.4c0 .5.1 2.9-.8 3.3l-.2.2z"/><path id="Path_00000075151077377911418830000012323103006985459390_" class="st13" d="M168.7 203.1c-1.3 0-2.6-.1-4-.2-11.7-1-26.4-9.9-26.7-10.9-.4-1.2 3.1-10.4 6.1-16 .1-.2.3-.2.5-.1.1 0 .1.1.2.2 0 .1 0 .2-.1.3-3.3 6-6.2 14.6-6.1 15.4.7 1 14.7 9.4 26.1 10.4 12.3 1 22.1-3.1 24.5-5.4.3-.3.4-.5.4-.6-.1-.9.1-2.9.3-5.9.2-2.9.5-6.5.7-10.2.2-4.1.5-8.7.9-13.3.3-3.6.5-6.9.7-9.5.1-2.3.6-4.7 1.1-6.9.7-3.3 1.4-6.3.9-9.6-.4-2.4-1.3-4.6-2.2-6.8-.7-1.5-1.3-3-1.6-4.5 0-.1 0-.3.1-.4.1-.1.2-.1.3-.1.1 0 .2.1.2.3.4 1.4 1 2.8 1.6 4.4.9 2.2 1.8 4.4 2.2 6.9.5 3.4-.2 6.7-.9 9.8-.5 2.2-1 4.4-1.1 6.8-.1 2.6-.4 5.9-.7 9.5-.4 4.5-.7 9.2-.9 13.2-.2 3.7-.4 7.3-.7 10.3-.2 2.8-.4 5-.3 5.8 0 .3-.2.7-.6 1.1-2 2.4-10.3 6-20.9 6z"/><path id="Path_00000008845729493349360320000002859712424671899289_" class="st13" d="M139.2 229c-.2 0-.4-.1-.4-.3-5-21.7-3-31-1.1-36l.3-.3c.2 0 .3 0 .4.1s.1.2.1.4c-1.9 5-3.9 14.1 1.1 35.6.1.3-.1.5-.4.5z"/><path id="Path_00000023961251964769486730000012595814557359202487_" class="st13" d="M191.5 229.9c-.1 0-.2 0-.2-.1s-.1-.2-.1-.3c-.6-13.3-1.8-30.8-1.8-31 0-.2.1-.3.3-.3.1 0 .3.1.3.3 0 .2 1.2 17.7 1.8 31v.3c-.1 0-.2.1-.3.1z"/><path id="Path_00000031165297508518241740000009672908031707508881_" class="st13" d="M143.2 138.1c-.2 0-.3-.1-.4-.2v-.3c0-.1.1-.2.2-.2 3.2-1.2 16.7-8.5 21.5-12 3.2-2.3 4-3.7 5.2-5.7l.1-.1c.4-.6.6-1.2.9-1.8.7-1.5 1.4-2.8 2.4-3.1 1.2-.4 2.5.9 3.8 1.9.2.2.5.4.7.6 1.2 1 1.9 2.1 2.4 3.5.4 1.3 1 3.8.2 4.5-.2.2-.6.4-1.3.1-.8-.4-1.4-1.6-1.8-2.5-.1-.3-.2-.5-.4-.7-.4-.7-2.2-1.5-2.9-1.8-.1 0-.2-.1-.2-.2v-.3c.1-.2.3-.3.5-.2.2.1 2.6 1 3.2 2.1.1.2.2.5.4.8.4.8.9 1.9 1.5 2.1.2.1.4.2.5.1.4-.3.2-1.9-.4-3.7-.4-1.2-1-2.1-2.1-3.1-.2-.2-.5-.4-.7-.6-.9-.9-2.3-2.1-3.1-1.8-.7.2-1.3 1.4-1.9 2.7-.3.6-.6 1.3-1 1.9l-.1.1c-1.2 2.1-2.1 3.6-5.4 6-4.8 3.5-18.3 10.8-21.6 12.1l-.2-.2z"/><path id="Path_00000170269171593254132680000012350847836656427662_" class="st13" d="M143.1 154.3c-.1 0-.2-.1-.3-.2-.1-.2 0-.4.2-.5 6.4-3.3 16.8-12.8 23-18.6 2.4-2.2 4.1-3.9 4.9-4.4 1.2-.8 2.3-1.3 3.7-1.7.7-.2 1.3-.4 2-.7 1.3-.5 2.1-1.3 2.8-2 .4-.5.9-.9 1.5-1.2.2-.1.4 0 .5.2s0 .4-.2.5c-.5.3-.9.7-1.3 1.1-.7.7-1.6 1.6-3 2.1-.7.3-1.4.5-2.1.7-1.3.4-2.3.8-3.5 1.6-.7.5-2.6 2.2-4.9 4.3-6.2 5.7-16.6 15.4-23.1 18.7-.1.1-.1.1-.2.1z"/><path id="Path_00000135686200078875034090000008543781006561001606_" class="st13" d="M186.3 122.6c-.5 0-1 0-1.5-.1-.2 0-.3-.2-.2-.3.1-.1.2-.2.4-.2 1.1.2 3.6 0 4.2-.5.1-.1.1-.2.1-.3-.2-.3-1.1-.5-1.4-.5-.2 0-.4-.2-.3-.3 0-.2.2-.3.5-.2.2 0 1.6.1 2.1.8.2.3.1.7-.2.9-.8.5-2.4.7-3.7.7z"/><path id="Path_00000105388974516043261070000017035411981015930273_" class="st13" d="M180.8 125c-.3 0-.5-.1-.7-.3-.1-.1-.1-.3 0-.5.1-.1.3-.1.4 0 .1.1.2.2.4.1.4-.1.9-.6.9-1 .3-1.2.7-5.1 0-5.8-1.2-1.1-4.6-3.8-5.7-4-.9-.1-1.4 1.6-1.4 1.6 0 .1-.1.2-.2.3s-.2 0-.3-.1c-.1-.1-.1-.2-.1-.4 0-.1.7-2.2 2.2-2.1 1.5.1 5.5 3.6 6 4.1 1.2 1.1.2 6.4.2 6.5-.2.7-.8 1.4-1.4 1.6h-.3z"/><path id="Path_00000047056900817064539040000004354876057648168346_" class="st13" d="M183.6 124.3c-.2 0-.3 0-.5-.1-.1-.1-.2-.2-.2-.4s.2-.3.3-.3c.3.1.5.1.8-.1.8-.5 1.2-2.6 1.3-3.4.2-1.4.3-2.6-.6-3.5-.3-.2-.6-.7-.9-1-.9-1.1-2.2-2.6-3.3-2.7-.9-.1-1.8 1.2-1.8 1.2-.1.2-.3.2-.4.1-.2-.1-.2-.4-.1-.5.1-.1 1-1.6 2.4-1.6 1.3.1 2.7 1.7 3.7 2.9.3.4.6.7.9 1 1.2 1.2 1 2.6.8 4.2s-.6 3.2-1.6 3.9c-.3.2-.5.3-.8.3z"/><path id="Path_00000149368294863743348500000000512703314747181982_" class="st13" d="M185.3 123.5c-.2 0-.3 0-.4-.1-.1 0-.3-.1-.3-.3 0-.1 0-.3.1-.4.1-.1.3-.1.4-.1.1 0 1 .2 1.9-1.3.5-.9 1.9-3.3 1.5-4.4-.5-1.2-1.6-3-2.8-3.8-1.1-.8-3 .3-3 .3-.1.1-.3.1-.4 0s-.2-.2-.2-.3c0-.1.1-.3.2-.3.1-.1 2.3-1.4 3.8-.3 1.3 1 2.6 2.9 3.1 4.2.5 1.2-.5 3.3-1.5 5-.9 1.6-1.9 1.8-2.4 1.8z"/><path id="Path_00000028291225174220225060000006875971714029088185_" class="st13" d="M172 125.9c-.1 0-.2 0-.2-.1-.1-.1-.1-.4 0-.5 0 0 1.3-1.3 1.8-3.2 0-.1.1-.2.2-.2s.2 0 .3.1.1.2.1.4c-.6 2.1-1.9 3.5-2 3.6-.1-.2-.1-.1-.2-.1z"/><path id="Path_00000031925851796706298430000006862620289129559959_" class="st13" d="M185.1 124.3c-.1 0-.2-.1-.3-.1-.2-.2-.2-.5-.2-.8 0-.2 0-.3.1-.5 0-.1.1-.2.2-.2s.2 0 .3.1c.1.1.1.2.1.3 0 .1-.1.2-.1.4s.1.4.2.6c.1.1 0 .3-.2.4l-.1-.2z"/><path id="Path_00000039829622159937524060000012647238661327739556_" class="st13" d="M186.9 125.9c-.2 0-.4 0-.5-.1-.1 0-.2-.2-.2-.3 0-.1 0-.3.1-.4s.2-.1.3-.1c.1.1.2.1.3.1.6 0 1.1-.8 1.1-1.7 0-.8-.4-1.5-1-1.6-.2 0-.3-.2-.2-.4 0-.2.2-.3.3-.3.8.2 1.4 1.2 1.4 2.4.1 1.3-.7 2.4-1.6 2.4z"/><path id="Shape_00000069372866104056091130000012937735860735888518_" class="st13" d="M186.3 126.7c-.2 0-.5-.1-.6-.2-.2-.1-.4-.3-.4-.5s.1-.4.2-.5c.2-.2.5-.3.8-.3l1.8-.1c.3 0 .6.1.8.2.2.1.3.3.4.5 0 .2-.1.4-.2.5-.2.2-.5.3-.8.3l-1.8.1h-.2zm1.9-1.1-1.8.1c-.1 0-.2 0-.3.1l-.1.1.1.1c.1 0 .2.1.3 0l1.8-.1c.1 0 .2 0 .3-.1l.1-.1-.1-.1c0 .1-.2 0-.3 0z"/><path id="Shape_00000001653683939297333760000009545685066520068236_" class="st13" d="M187.8 138.9c-.1 0-.2 0-.4-.1-.5-.2-.8-.7-.9-1.6 0-.2-.1-.9-.1-1.8 0-.3 0-.6-.1-.9-.1-.2-.1-.5-.1-.8 0-.4 0-.6.1-.8.1-.3 0-.5-.1-.8-.2-.3-.2-.9-.2-1.3h-.2c-1 .1-1.8-.6-1.9-1.6l-.2-2.3c0-.9.7-1.8 1.6-1.9l2.8-.2c.5 0 .9.1 1.3.4.4.3.6.7.6 1.2l.2 2.3c0 .5-.1.9-.4 1.2-.3.4-.7.6-1.2.6l.4 7.4c0 .1 0 .2-.1.3-.2.3-.6.7-1.1.7zm-1.6-8.6c.2 0 .3.2.4.4 0 .5.1.9.2 1.3.2.5.2.8.1 1.2 0 .2-.1.4-.1.6 0 .2 0 .4.1.6.1.3.2.7.2 1.1 0 .9.1 1.5.1 1.7.1.8.4 1 .4 1 .1.1.3-.1.5-.1l-.4-7.4c0-.2.1-.3.3-.4l.4-.1c.3 0 .6-.1.8-.4.2-.2.3-.5.2-.8l-.2-2.3c0-.3-.1-.5-.4-.7-.2-.2-.5-.3-.8-.2l-2.8.2c-.3 0-.5.1-.7.4s-.3.5-.2.8l.2 2.3c0 .3.1.5.4.7s.5.3.8.2l.5-.1z"/><path id="Path_00000011718147511154423450000004081194726869894546_" class="st13" d="M184.2 125.9c-.1 0-.1 0 0 0-.4-.3-.5-.7-.4-1.1.1-.4.3-.6.6-.6.1 0 .1.1.2.2s0 .2 0 .3c0 .1-.1.1-.2.1s-.2 0-.2.2c0 .1 0 .3.1.3.1.1.1.3.1.4l-.2.2z"/><path id="Path_00000054981460066993140000000017718526636072389804_" class="st13" d="M187.4 126.7c-.1 0-.1-.1-.2-.1-.1-.2-.1-.3 0-.4V125.9c0-.1-.1-.2-.1-.2-.1-.1-.2-.3-.1-.4 0-.2.2-.3.3-.2.2.1.3.2.4.4.1.2.1.5.1.7 0 .2-.1.3-.2.4-.1.1-.1.1-.2.1z"/><path id="Path_00000129917741765644271680000001441964568691343283_" class="st13" d="M186.6 129.1c-.1 0-.2 0-.3-.1h-.1c-.1 0-.1-.1-.1-.2v-.4c0-.1.1-.2.2-.1h.1c.1.1.2.1.3 0 .1-.1.2.1.2.3 0 .2-.1.4-.2.4 0 .1 0 .1-.1.1z"/><path id="Path_00000142891393888752456960000017902263782601041555_" class="st13" d="M182.4 136.2c-.3 0-.5-.1-.7-.2-.4-.3-.5-.9-.2-1.8.1-.2.2-.8.6-1.7.1-.3.2-.5.2-.8 0-.3.1-.5.2-.8.1-.2.2-.5.4-.7.2-.3.2-.4.2-.8-.1-.3.1-.9.2-1.3l-.1-.1c-.4-.1-.8-.4-1-.8-.2-.4-.3-.9-.1-1.3l.7-2.2c.1-.4.5-.8.9-1 .4-.2.9-.2 1.4-.1l1.7.5c.1 0 .2.1.3.3 0 .1 0 .3-.1.4s-.2.1-.4.1l-1.7-.5c-.3-.1-.6-.1-.8.1s-.4.4-.5.6l-.7 2.2c-.1.3-.1.5.1.8.1.2.4.4.6.5l.5.2c.2.1.3.3.2.5-.1.4-.4 1.1-.3 1.3.1.5-.1.8-.3 1.2l-.3.6c-.1.2-.1.4-.1.6 0 .4-.1.7-.2 1-.3.8-.5 1.4-.6 1.6-.2.8-.1 1.1 0 1.1.1.1.3.1.5.1l2.5-7.1c.1-.2.2-.3.4-.2.2 0 .3.2.2.4 0 .1 0 .1-.1.2l-2.5 7.2c0 .1-.1.2-.2.2-.3-.4-.5-.3-.9-.3z"/><path id="Path_00000013190430604682598360000006621479497401007022_" class="st13" d="M188.3 126.7c-.1 0-.3-.2-.3-.4s-.1-.5-.2-.7c-.1-.2-.1-.4 0-.5s.3-.1.4.1c.2.3.3.7.3 1.2 0 .2-.1.3-.2.3z"/><path id="Path_00000174560269040820654840000004943024865447826305_" class="st13" d="M142.8 155.1c-.2 0-.4 0-.7-.1-2-.7-3.8-4.9-3.3-9.3.5-4.3 2.9-7 4.1-7.6.1-.1.3-.1.4 0 .1.1.2.2.2.3 0 .1-.1.2-.2.3-1 .5-3.2 3.1-3.7 7-.5 4.4 1.4 8 2.8 8.6.2.1.7.2 1.2-.5.1-.1.2-.2.4-.1.1 0 .3.1.3.2s0 .3-.1.3c-.3.7-.9.9-1.4.9z"/><path id="Path_00000164494450673126920650000015567049891738999684_" class="st13" d="M136 141.3c-.1 0-.2-.1-.3-.2-.1-.1-.1-.2-.1-.3 0-.1.1-.2.2-.2 2.6-2 7.8-4.3 9.1-4.1.1 0 .2.1.2.2s.1.2 0 .3c-.1.3-.2.4-.4.3-1-.1-5.9 1.9-8.7 4 .1 0 0 0 0 0z"/><path id="Path_00000101795699730710383610000017438064532229859993_" class="st13" d="M135.3 157.6c-.6 0-1.3-.1-1.9-.3-3.3-1.6-4.2-5.4-2.7-11.2.7-2.6 1.6-5.2 2.4-7.6.4-1 .7-2 1-3 .4-1.1.7-2.2 1.2-3.4.7-2.1 1.5-4.3 2-6.3l.4-1.3c1.2-4.7 2.5-9.6 5.2-13.7 2.7-4.2 7.5-5.7 14.1-4.6 2.4.4 3.9.2 4.8-.6 1-.9 1.4-2.8 1.3-6.1 0-.2.2-.4.4-.4s.4.2.4.4c.2 3.5-.3 5.6-1.5 6.6-1 .9-2.7 1.2-5.4.7-6.3-1-10.7.4-13.3 4.3-2.7 4-3.9 8.9-5.1 13.5l-.4 1.3c-.5 2-1.3 4.2-2.1 6.4-.4 1.2-.8 2.3-1.2 3.4-.3.9-.6 1.9-1 3-.8 2.3-1.7 4.9-2.3 7.5-1.4 5.5-.6 8.9 2.3 10.3 2.3 1.1 9.7-1.3 10.8-3.4.1-.2.3-.2.5-.2s.2.3.2.5c-1.2 2.1-6.7 4.2-10.1 4.2z"/><path id="Path_00000024711892707722462920000012343716978230859198_" class="st13" d="M176 112.1c-.2 0-.3-.2-.3-.4.3-2.3 1-9 1-9 0-.1.1-.2.2-.3.1 0 .2 0 .3.1s.1.2.1.3c0 .1-.7 6.7-1 9 0 .1-.1.3-.3.3z"/><path id="Path_00000087404756373728711400000000003246034616447105_" class="st13" d="M152.1 128.3c-.1 0-.2 0-.3-.1-.1-.1-.1-.2-.1-.3-.1-2.6-.8-8.9-3.2-12.9-.1-.1-.1-.2 0-.3.1-.1.2-.2.3-.2.1 0 .3.1.3.2 2.5 4.2 3.2 10.6 3.3 13.2.1.2 0 .4-.3.4z"/><path id="Path_00000031899891788991626550000008197959307203588286_" class="st13" d="M170.6 119.4c-.1 0-.2 0-.3-.1-2-3-9.9-10.1-12.8-11.3-.1 0-.2-.2-.2-.3 0-.1 0-.3.2-.4.1-.1.3-.1.4 0 3.1 1.3 10.9 8.5 13.1 11.6.1.2.1.4-.1.5-.2-.1-.3 0-.3 0z"/><path id="Path_00000125577179582752635610000008299805016647458200_" class="st13" d="M172.1 105.6c-2.9 0-6.9-2.1-9-4.4-1.4-1.4-2.3-4.1-3.3-7.7-.1-.2.1-.4.2-.4.2-.1.4.1.4.2.8 3 1.8 5.9 3.1 7.3 2.2 2.3 6.6 4.6 9.2 4.1 3.1-.6 5.7-3.7 7.1-6.4 1.3-2.6.8-7.8.8-7.8 0-.2.1-.3.3-.4.1 0 .2 0 .3.1.1.1.1.2.1.3 0 .2.4 5.5-1 8.2-.7 1.4-3.3 6.1-7.6 6.8-.1 0-.3.1-.6.1z"/><path id="Path_00000011031458780946895260000007559374147912187555_" class="st6" d="M167.7 97.9s1.7-.2 3.3-.4c1.6-.3 3.1-.8 3.1-.8s.2 3.5-2.6 4c-2.7.5-3.8-2.8-3.8-2.8z"/><path id="Shape_00000036963419985020131010000009786579983124625571_" class="st13" d="M171.3 100.7c-2.6 0-3.6-3.1-3.6-3.2 0-.1 0-.2.1-.3.1-.1.2-.2.3-.2 0 0 1.7-.2 3.3-.5 1.6-.3 3-.7 3.1-.7.1 0 .2 0 .3.1.1.1.1.2.1.3.1 1.4-.4 4-2.9 4.5h-.7zm-2.7-3c.4.8 1.4 2.5 3.3 2.1 1.9-.3 2.2-2.3 2.3-3.2-.6.1-1.6.5-2.7.6-1.1.3-2.3.5-2.9.5z"/><path id="Path_00000116224781146699059920000015779758514468140421_" class="st13" d="M160.1 95.8h-.1c-2.3-.9-3.1-2.4-3.5-3.5-.2-.7-.1-1.5.3-2 .3-.5.9-.9 1.5-1 .2-.1.4.1.4.3.1.2-.1.4-.3.4-.4 0-.8.3-1 .7-.3.4-.3.9-.2 1.5.3.9 1 2.2 3 3 .2.1.2.2.2.4 0 .1-.1.2-.3.2z"/><path id="Path_00000031902590486208902120000002927883669906728840_" class="st13" d="M181.9 91.8c-.1 0-.1 0-.2-.1s-.1-.3 0-.5c.5-.6.9-2.9.6-3.9-.1-.4-.3-.5-.7-.5-.1 0-.2-.1-.3-.3 0-.2.1-.3.2-.4.5-.1 1 .2 1.2.8.5 1.3 0 3.9-.7 4.7.1.1 0 .2-.1.2z"/><path id="Path_00000111168988825034492970000002432204869379278246_" class="st13" d="M160 88.5c-.1 0-.3-.1-.3-.2-.1-.2 0-.4.2-.5 3.8-1.8 8-5.7 8.8-10.4 0-.1.1-.2.2-.3s.2 0 .3.1c.1.1.1.2.1.3-.9 4.9-5.2 9-9.1 10.9-.1.1-.2.1-.2.1z"/><path id="Path_00000144337990579382745040000010070956187829398435_" class="st13" d="M179.4 86.8c-.1 0-.3-.1-.3-.3-.6-1.9-1.9-3.7-3.8-5.1l-.3-.2c-1.9-1.4-3.8-2.8-4.9-5.2-.1-.2 0-.4.2-.5.2-.1.4 0 .4.2 1 2.2 2.7 3.5 4.6 5l.3.2c2.1 1.6 3.5 3.5 4.1 5.5.1.2 0 .4-.3.4.1.1.1.1 0 0 .1 0 .1 0 0 0z"/><path id="Path_00000131340360839729234540000005365154861021026455_" class="st13" d="M150.6 107.2c-.1 0-.1 0-.2-.1-.2-.1-.2-.3-.2-.5.3-.6.5-1.2.5-1.6 0-.7-.3-1.5-.6-2.4-.6-1.6-1.3-3.6-.6-5.9.4-1.3 1.4-2.3 2.5-3.3.9-.9 1.8-1.8 2.2-2.8.6-1.3.4-2.7.2-4.2-.1-1-.2-2-.2-3 .5-5.7 4.5-10.5 10.6-12.6.2-.1.4 0 .5.2.1.2 0 .4-.2.5-5.8 2.1-9.6 6.5-10.1 12-.1.9.1 1.9.2 2.8.2 1.5.4 3.1-.2 4.6-.5 1.1-1.4 2.1-2.4 3.1s-1.9 1.9-2.3 3.1c-.7 2.1-.1 3.9.5 5.4.3 1 .6 1.8.6 2.7 0 .7-.4 1.6-.6 2 .1-.1-.1 0-.2 0z"/><path id="Path_00000101813066528624237620000000796616959544539579_" class="st13" d="M185.9 113.7c-.1 0-.2 0-.2-.1-.1-.1-.1-.1-.1-.2s0-.2.1-.3c0 0 1.2-1.5 1.1-3.3 0-.8-.3-1.5-.6-2.3-.4-1.1-.9-2.3-.6-3.6.2-.9.6-1.7 1-2.5.7-1.3 1.4-2.6 1.4-4.6 0-2.2-.9-3.5-1.7-4.8-.7-1-1.4-2.1-1.6-3.7-.1-1.1-.2-2.1-.2-3.2-.1-2.2-.2-4.5-1.1-7.1-2-5.8-9.9-8.9-16.1-8.1-.1 0-.3 0-.4-.1s-.1-.2-.1-.4c0-.1.2-.2.3-.2 6.4-.9 14.7 2.2 16.9 8.6.9 2.6 1 5 1.1 7.2.1 1.1.1 2.1.2 3.1.2 1.4.8 2.4 1.5 3.4.9 1.3 1.7 2.8 1.7 5.2 0 2.1-.7 3.6-1.4 5-.4.8-.8 1.5-.9 2.3-.2 1.1.1 2.1.6 3.2.3.8.6 1.7.6 2.6.1 2.1-1.2 3.7-1.3 3.7 0 .1-.1.2-.2.2z"/><path id="Path_00000183941854574718830870000002944311250898534032_" class="st13" d="M171.9 94.2c-.1 0-.1 0-.1-.1-.1-.1-.2-.3-.1-.5.5-1 .3-1.2 0-1.7-.1-.1-.2-.3-.3-.4-.6-.9-.4-1.9-.2-2.9.1-.2.2-.2.3-.2.1 0 .2.2.2.4-.2.9-.3 1.7.1 2.2l.3.4c.5.6.8 1.2.1 2.6-.1.1-.2.2-.3.2z"/><path id="Path_00000084521517362647050740000015501374217392993430_" class="st13" d="M165.3 90.2c-.1-.5.2-.9.7-.9.4-.1.9.3.9.7s-.2.9-.7.9c-.4.1-.8-.2-.9-.7z"/><path id="Path_00000109749695505658292480000016792341720104833709_" class="st13" d="M174.1 88.6c-.1-.5.2-.9.7-.9.4 0 .9.3.9.7s-.2.9-.7.9c-.3.1-.7-.2-.9-.7z"/><path id="Path_00000078733784222757957650000014236560726502359953_" class="st13" d="M162.5 87.7c-.1 0-.2-.1-.3-.2-.1-.1-.1-.2-.1-.2 0-.1.1-.2.2-.2.5-.3 2.1-1.2 4.3-1 .2 0 .3.2.3.4s-.2.3-.4.3c-1.9-.2-3.3.6-3.8.9h-.2z"/><path id="Path_00000090296007323870185410000007427923786653531786_" class="st13" d="M172.9 85.3c-.1 0-.2 0-.3-.1-.1-.1-.1-.2.1-.3 1-.4 3-.6 4.5-.2.2.1.2.2.1.3-.1.1-.3.1-.4.1-1.2-.4-3-.1-3.7.2-.1-.1-.3 0-.3 0z"/><path id="Path_00000091732516826678857000000016830579478250788285_" class="st13" d="M210.5 77.1c-.1 0-.3-.1-.3-.2-.1-.2 0-.4.2-.5 1.6-.7 2.6-3 2.2-4.9-.2-.9-.6-1.6-1.2-1.7s-1.4.1-2.2.7c-.1.1-.4.1-.5 0-.1-.1-.1-.3 0-.5 1-.8 2-1.1 2.9-.9.9.3 1.4 1.1 1.7 2.3.5 2.2-.8 4.9-2.7 5.7h-.1z"/><path id="Path_00000132056828099705966950000016298053041996731784_" class="st13" d="M210.4 74.7c-.2-.1-.2-.3-.2-.4.1-.4.2-.8.5-1.1.1-.1.2-.1.3.1s.1.3 0 .4c-.2.2-.3.5-.4.9-.1 0-.1.1-.2.1z"/><path id="Path_00000044898450965935104910000004561129624857059742_" class="st13" d="M200.2 94.2c-2.8 0-6.2-1.6-8-3.2-1.8-1.6-3.3-4.1-4.5-5.9-.3-.5-.5-.8-.7-1.2-.1-.2-.1-.4.1-.5.2-.1.4-.1.5.1.2.4.5.7.8 1.2 1.1 1.7 2.6 4.2 4.3 5.8 2.1 1.8 5.8 3.4 8.6 3 4.5-.7 7.7-7.2 8.2-10.3 0-.1.1-.2.1-.2.1-.1.2-.1.3-.1.1 0 .2.1.3.1.1.1.1.2 0 .3-.4 2.8-3.6 10.1-8.8 10.9-.4-.1-.8 0-1.2 0z"/><path id="Path_00000168099554837497423260000005472559408328903101_" class="st13" d="M214.7 89.3c-.1 0-.2-.1-.3-.2-1.8-3.9-3-8.5-3.3-10.7 0-.1 0-.3.1-.4.1-.1.2-.1.4-.1s.2.2.2.3c.2 2.2 1.5 6.7 3.3 10.5.1.2 0 .4-.2.5-.1.1-.2.1-.2.1z"/><path id="Path_00000013172860045523187520000003304648365020234660_" class="st13" d="M199.4 99.1c-.1 0-.3-.1-.3-.2-.2-.4-.5-.9-.8-1.6-.9-1.7-2.1-4.2-3.1-5-.1-.1-.1-.3 0-.5.1-.1.4-.1.5 0 1.1 1 2.3 3.4 3.4 5.3.3.6.6 1.2.8 1.5.1.2 0 .4-.2.5h-.3z"/><path id="Path_00000105398539178828350050000009796526255855088056_" class="st6" d="M194.2 86.4s1.9-.6 3.7-1.3 3.4-1.5 3.4-1.5 1 3.5-2.1 4.6c-3.1 1.2-5-1.8-5-1.8z"/><path id="Shape_00000054266820167886824080000004142030565776593591_" class="st13" d="M197.8 88.5c-2.2 0-3.6-2.3-3.6-2.3-.1-.1-.1-.2 0-.3 0-.1.1-.2.2-.2 0 0 1.8-.6 3.3-1.3 1.6-.7 3-1.5 3-1.5.1-.1.2-.1.3 0 .1.1.2.1.2.2.3 1.3.3 4-2.1 5.1-.4.2-.8.3-1.3.3zm-2.8-2.4c.6.7 1.9 2.2 3.8 1.3 1.9-.8 1.9-2.9 1.8-3.7-.6.3-1.6.8-2.7 1.3s-2.3.9-2.9 1.1z"/><path id="Path_00000043428513337345249720000015613580041054896574_" class="st13" d="M195.4 82.8c-.1 0-1.2-.1-1.8-.7-.3-.3-.4-.7-.3-1.1 0-.1.1-.3.1-.4.3-1 .5-2.4-1.4-3.5-.2-.1-.3-.3-.1-.5.1-.2.3-.3.5-.1 2.4 1.5 2 3.3 1.8 4.3-.1.1-.1.3-.1.4-.1.2 0 .4.1.6.3.3.9.4 1.2.4.2 0 .4.2.4.4 0 .1-.2.2-.4.2z"/><path id="Path_00000176033646764455890930000008616277145636891821_" class="st13" d="M188.7 79.9c-.2-.4-.1-.9.3-1.1s.9 0 1.1.5c.2.4.1.9-.3 1.1-.5.1-.9-.1-1.1-.5z"/><path id="Path_00000046325397276657674580000015294610362579810183_" class="st13" d="M198.3 75.8c-.2-.4-.1-.9.4-1 .4-.1.9.1 1.1.5.2.4.1.9-.4 1-.4.1-1-.1-1.1-.5z"/><path id="Path_00000154425651350019938040000012268135367735379357_" class="st13" d="M186.5 76.3c-.1 0-.2 0-.2-.1-.1-.1-.1-.3 0-.4 1-.7 2.2-1.1 3.6-1.2.2 0 .3.1.3.3s-.2.3-.3.3c-1.7 0-2.8.8-3.1 1.1h-.3z"/><path id="Path_00000167360265203473511610000009230848625570293382_" class="st13" d="M195.3 72.3c-.1 0-.2 0-.2-.1-.1-.1-.1-.3 0-.5 1.5-1.3 3.5-2 5.2-1.8.2 0 .3.2.3.4s-.2.3-.4.3c-1.2-.1-3.1.2-4.6 1.6-.1 0-.2.1-.3.1z"/><path id="Path_00000157265868010189383210000004442965990263178942_" class="st13" d="M209.9 70.7c-.2 0-.3-.1-.3-.3-.1-.8-.2-1.8-.3-2.8-.3-3.5-.6-7.8-2.4-10-.8-1-2.8-2.8-5.2-3.2-.2 0-.3-.2-.3-.4s.2-.3.4-.3c3.2.5 5.4 3.2 5.6 3.5 1.8 2.4 2.2 6.9 2.5 10.4.1 1 .2 2 .3 2.7 0 .1 0 .2-.1.3s-.1.1-.2.1z"/><path id="Path_00000125574050703692048620000017630708244768513923_" class="st13" d="M199.3 53.6h-.2c-.2 0-.2-.2-.2-.4.3-.6 1-1 2-1.2.2 0 .3 0 .4.2.1.1-.1.3-.3.3-.5.1-1.2.3-1.5.9 0 .1-.1.2-.2.2z"/><path id="Path_00000038396558015908851470000004522770965534664110_" class="st13" d="M184.1 58.5c-.2 0-.3-.1-.3-.3-.1-.2 0-.5.2-.5.8-.3 1.8-1 2.9-1.7 2.4-1.5 5-3.2 7.1-3.2.6 0 2.3.2 2.4.2.1 0 .2.1.2.1s.1.2 0 .3c-.1.3-.2.4-.4.3 0 0-1.7-.2-2.3-.2-1.9 0-4.6 1.7-6.7 3.2-1.2.8-2.2 1.4-3.1 1.8z"/><path id="Path_00000162339906371880973160000014349153005525867146_" class="st13" d="M179.3 70.7c-.1 0-.3-.1-.3-.2-2.3-3.5.4-7 1-7.7 1.2-1.4 2.2-3.2 2.2-3.3.1-.2.3-.2.5-.2.2.1.2.3.2.5-.1.1-1 2-2.2 3.4-.5.6-3 3.8-1 6.9.1.1.1.2.1.3 0 .1-.1.2-.2.2-.1.1-.2.1-.3.1z"/><path id="Path_00000008866618838474945950000008535841924764683182_" class="st13" d="M181.9 76.3c-.1 0-.2-.1-.2-.2-1-2.2-1.1-4.2-1.1-4.3 0-.1 0-.2.1-.3s.1-.1.2-.1.2 0 .2.1c.1.1.1.2.1.3.1 1.4.5 2.7 1 3.9 0 .1.1.2 0 .3 0 .1-.1.2-.1.2-.1.1-.2.1-.2.1z"/><path id="Path_00000070104118869316238260000011850221649248507559_" class="st13" d="M207.4 70.7c-2.9-.3-5.4-3.2-6-5.2-.1-.2 0-.4.2-.5s.4 0 .5.3c.5 1.8 2.8 4.4 5.4 4.6.2 0 .3.2.3.4-.1.2-.2.4-.4.4z"/><path id="Path_00000145775877500577567850000016542563910689775494_" class="st13" d="M200.3 64.2h-.2s-2.3-.6-4.6-.1c-.2 0-.4 0-.5-.1-.1-.1 0-.2.2-.3 2.6-.6 5.1.1 5.2.1.2 0 .2.2.2.3-.1 0-.2.1-.3.1z"/><path id="Path_00000142863990537906532660000009386533950965236644_" class="st13" d="M189.9 65.8h-.1c-.5-.3-1.1-.3-1.7-.2-.1 0-.3 0-.4-.1 0-.1 0-.3.1-.3 0 0 1-.4 2.1.2.1.1.2.2.1.3.1 0 0 .1-.1.1z"/><path id="Path_00000101819609418658438340000009135963547254307215_" class="st13" d="M184.3 73.9c-.2 0-.4-.1-.4-.3-.8-3.3 1.3-5.4 3.2-6.2.2-.1.5 0 .6.2.1.2 0 .4-.2.5-1.7.7-3.5 2.5-2.8 5.4.1.2-.1.3-.4.4z"/><path id="Path_00000160191909620457364350000012193265271745068168_" class="st13" d="M192.4 65c-.1 0-.2-.1-.2-.1-.2-.4-.4-.6-1-.9-.1-.1-.2-.2-.2-.4s.2-.2.3-.2c.7.3 1 .6 1.3 1.2 0 .1 0 .3-.2.4z"/><path id="Path_00000029036882871327031610000000397960049379210394_" class="st13" d="M243.4 225.8c-.1 0-.2 0-.3-.1-.4-.2-.6-.6-.6-1.3-.1-1.5 1-3.5 1.8-5.1.3-.6.6-1.2.8-1.5.5-1.3 1.1-6.5 0-8.3-.2-.3-.4-.5-.6-.5s-.4 0-.5.1c-.5.5-.7 1.9-.8 3.2-.1 1-.2 2-.5 2.6-.5 1.2-1.6 2-2.5 1.8-.3-.1-1.1-.4-.9-1.9.1-.9.1-2.1.1-3.2 0-1.9 0-4 .3-5.5s1.1-3.2 1.8-4.8c.6-1.5 1.3-2.8 1.5-3.8.1-.3.1-1 .1-1.5v-.7c0-.1.1-.3.2-.3.1-.1.3-.1.4 0 .1.1.2.2.2.3v.7c0 .5 0 1.1-.1 1.6-.2 1.2-.9 2.5-1.5 4-.8 1.6-1.5 3.3-1.8 4.7-.3 1.4-.3 3.4-.3 5.3 0 1.2 0 2.4-.1 3.3 0 .4 0 1 .4 1.2.5.1 1.3-.4 1.7-1.3.2-.5.3-1.5.4-2.4.1-1.5.3-3 1.1-3.7.3-.3.7-.4 1.1-.3.5.1.8.4 1.1.8 1.2 2.1.6 7.6 0 9l-.8 1.6c-.8 1.5-1.8 3.5-1.8 4.7 0 .4.1.6.2.6.3.1 1-.4 1.5-1 1.2-1.5 2.5-3.1 3.4-4.7 1.1-2.1 1.3-4 1.5-6.8 0-.2.2-.4.4-.4s.4.2.4.4c-.2 2.8-.4 4.9-1.5 7.2-.9 1.6-2.2 3.3-3.5 4.8-.8.5-1.6 1.2-2.3 1.2z"/><path id="Path_00000028286438613146692740000012138641941582898319_" class="st13" d="M241.6 224.2c-.2 0-.5-.1-.6-.3-.7-.6-.1-2.1.1-2.5.7-1.5 3.3-4.1 3.8-4.4.2-.1.4-.1.5.1.1.2.1.4-.1.5-.6.4-2.9 2.9-3.6 4.2-.4.9-.4 1.5-.2 1.6.1.1.3.1.9-.3.1-.1.3-.1.4 0 .1.1.2.2.2.3 0 .1-.1.3-.2.3-.5.3-.8.5-1.2.5z"/><path id="Path_00000129883823826129052970000008710011835100505480_" class="st13" d="M242 220.9c-.1 0-.3-.1-.3-.2-.9-1.7 2.6-5 4-6.2.1-.1.2-.1.4-.1s.2.1.3.2c0 .1 0 .2-.1.3-2.2 1.8-4.3 4.5-3.8 5.4.1.2 0 .4-.2.5-.2.1-.2.1-.3.1z"/><path id="Path_00000163070236442633212970000008355010597708445869_" class="st13" d="M246.7 222.5c-.1 0-.2-.1-.3-.1-.1-.2-.1-.4.1-.5l.3-.2c2-1.7 3.6-3 4.3-5.2 1.3-3.7 1-8.5.7-13.1-.1-2.4-.3-4.9-.2-7.3 0-.2.2-.4.4-.4s.4.2.4.4c-.1 2.3.1 4.8.2 7.2.3 4.7.5 9.5-.7 13.4-.8 2.3-2.5 3.8-4.5 5.5l-.3.2c-.3.1-.3.1-.4.1z"/><path id="Path_00000098188518935781947460000000574054026803752126_" class="st13" d="M242 199c-1.9 0-2.2-4.9-2.5-13.6-.1-2.1-.2-4.3-.3-6.4-.4-6.9-1.1-10.3-1.8-13.7-.4-2-.9-4.1-1.2-6.9-.2-1.3-.3-2.5-.5-3.7-.8-6.3-1.5-12.3-2.9-19.4-.1-.2.1-.4.3-.4.2-.1.4.1.4.3 1.4 7.2 2.2 13.2 2.9 19.5.2 1.2.3 2.5.5 3.7.4 2.8.8 4.9 1.2 6.9.7 3.4 1.4 6.8 1.8 13.7.1 2.1.2 4.3.3 6.4.2 5.8.5 12.9 1.8 12.9.2 0 .3.2.4.4-.1.1-.2.2-.4.3z"/><path id="Path_00000176033662516012975740000007093567083191650726_" class="st13" d="M253 197.4c-.2 0-.4-.2-.4-.4 2-13.1.7-30.4-.3-43-.3-3.8-.5-7.1-.7-9.6-.4-9-1.1-27.9-6.1-36.7-3.2-5.6-9.3-7.8-15.2-9.9-3.6-1.3-7-2.6-9.6-4.5-.1-.1-.2-.3 0-.5.1-.1.3-.2.5-.1 2.4 1.9 5.8 3.1 9.4 4.4 6 2.2 12.3 4.5 15.6 10.3 5.1 8.9 5.8 27.9 6.2 37 .1 2.5.4 5.8.7 9.6 1 12.6 2.3 30 .3 43.1-.1.2-.3.2-.4.3z"/><path id="Path_00000034801892797733184010000018144744343666483639_" class="st13" d="M252.4 198.2c-.1 0-.3-.1-.3-.2-.1-.2 0-.4.2-.5.4-.2.6-.4.5-.5 0-.2-.8-.9-2.9-1.5-3-.8-6.8-1-7.6.1-.2.3-.1.9.4 1.5.1.2.1.4-.1.5-.1.1-.4.1-.5 0-.7-.9-.8-1.7-.4-2.3 1.2-1.6 5.7-1.1 8.4-.4 1.5.4 3.4 1.1 3.4 2.1.1.5-.3.9-1 1.2h-.1z"/><path id="Path_00000080904367655006624270000010479175372957537962_" class="st13" d="M230.7 127.5c-.1 0-.2 0-.3-.1-.1-.1-.1-.2-.1-.3-.7-8.6 3.7-18.6 4.9-19.8.1-.1.4-.1.5 0 .1.1.1.3 0 .5-1 .9-5.4 10.5-4.7 19.3 0 .1 0 .2-.1.3s0 .1-.2.1z"/><path id="Path_00000142895724117393815000000005103711013856344253_" class="st13" d="M210.4 204.6c-1.5 0-2.4-.2-2.9-.7-2.8-2.9-6-15-6.4-31.8-.4-16-.6-38.6-.6-45.6 0-4.3.7-7.2 1.3-9.8.4-1.5.7-2.9.8-4.2v-.2c.2-2.3.6-7 1.8-8.9.5-.8 1.5-1.7 2.6-2.7.9-.9 1.9-1.8 2.8-2.9 2-2.3 4.2-6.2 4.3-8.8 0-.2.2-.3.4-.3s.3.2.4.3c-.2 2.8-2.4 6.9-4.5 9.3-.9 1-1.9 2.1-2.8 2.9-1 1-1.9 1.9-2.4 2.6-1.2 1.7-1.6 6.5-1.7 8.6v.2c-.1 1.5-.5 2.9-.8 4.3-.6 2.5-1.3 5.4-1.3 9.6 0 7 .2 29.6.6 45.6.4 16 3.4 28.4 6.1 31.3.2.2.8.5 2.6.5 6.8-.1 22.8-5.3 27.6-10.6.2-.6-.3-6.7-.7-11.2-.1-1.3-.2-2.6-.4-4-.5-5.2-1.1-10.5-.5-17 0-.1.1-.2.2-.3.1 0 .3 0 .4.1.1.1.1.2.1.3-.7 6.5-.1 11.8.5 16.9.2 1.4.3 2.7.4 4.1.7 8.4.9 11.3.5 11.8-5.1 5.6-21.1 10.7-28.1 10.9 0-.3-.1-.4-.3-.3z"/><path id="Path_00000117640270330507223230000004965250167032988590_" class="st13" d="M238.7 206.3c-.1 0-.2 0-.3-.1s-.1-.2-.1-.3c-.2-5.3-.5-9.4-.9-12.2 0-.2.1-.4.3-.4.2 0 .4.1.4.3.3 2.8.5 6.9.9 12.2.2.3 0 .5-.3.5z"/><path id="Path_00000008843743492589147390000011330570621429366681_" class="st13" d="M239.7 229c-.1 0-.3-.2-.3-.4-.1-3.8-.1-7.7-.3-11.4 0-.1 0-.3.1-.3s.2-.1.3 0c.1.1.1.2.1.3.1 3.8.2 7.6.3 11.5 0 .2-.1.3-.2.3z"/><path id="Path_00000019655413563643644250000007000229139505766581_" class="st13" d="M201 120.2c-.2 0-.4-.2-.4-.4.2-5-.5-12.9-1.6-15.2-.2-.4-.4-.7-.6-1.2-1.1-2.1-2.4-4.5-1.4-6.7.1-.2.3-.2.5-.2.2.1.2.3.2.5-.9 1.8.4 4 1.4 6l.6 1.2c1.2 2.4 1.9 10.3 1.8 15.5-.2.3-.4.5-.5.5z"/><path id="Path_00000045581716135006428290000008908158456308614069_" class="st13" d="M209.7 110.5c-.5-.1-.9-.6-1.7-1.8-1-1.5-2.4-3.7-3.9-3.8-.2 0-.4-.2-.4-.4s.2-.4.4-.4c1.9.1 3.4 2.4 4.5 4.1.4.6.9 1.3 1.1 1.5.8-.6 3.9-5.9 5.9-10.1 1.8-3.6 2.7-5.7 2.6-6.5 0-.2-.1-.3-.6-.6s-1-.6-1.5-1c-.4-.4-.6-.8-.9-1.2-.3-.6-.5-.9-1.3-1-.1 0-.3-.1-.3-.2s-.1-.3 0-.4.2-.2.3-.2c1.2.1 1.6.7 2 1.4.2.3.4.7.7 1.1.4.4.8.7 1.3.9.5.2.9.5 1 1.1.1.9-.7 3-2.6 6.8-.5 1.2-5.3 10.7-6.6 10.7z"/><path id="Path_00000025442445945221997350000015622620810051298454_" class="st13" d="M196.1 108c-.1 0-.2 0-.3-.1-.9-.4-.9-6.1-.9-6.5.1-.9 1.1-2.3 2-3.6.3-.4.6-.8.8-1 .1-.2.3-.2.5-.1s.3.3.1.5c-.2.3-.5.7-.8 1.1-.8 1.1-1.8 2.5-1.9 3.2-.1 1.1.2 4.6.4 5.7.2-.3.4-.6.6-1 .7-1.1 1.5-2.5 2.4-3 .2-.1.4 0 .5.2.1.2 0 .4-.2.5-.8.3-1.6 1.7-2.1 2.7-.3.8-.6 1.4-1.1 1.4z"/><path id="Path_00000074443741373870110740000011151414040844010681_" class="st13" d="M186.5 105.6c-.2 0-.3-.1-.3-.3-.1-.2.1-.4.3-.4.9-.2 5.5-2.9 7.2-4.1.2-.1.3-.1.5.1.1.1.1.2 0 .3 0 .1-.1.2-.2.2-1.5 1.1-6.4 3.9-7.5 4.2z"/><path id="Path_00000017492587640041984780000013103984371899431352_" class="st13" d="M197.1 203.1c-2 0-5.1-1.5-7.5-2.9-.1-.1-.2-.2-.2-.3 0-.1 0-.3.1-.3.1-.1.2-.1.4 0 6.5 3.6 8.1 3 8.4 2.3 1.1-2.2 3-12.2 3.2-19.4 0-.2.2-.4.4-.4s.4.2.4.4c-.1 6.9-2 17.3-3.3 19.8-.4.5-1.1.8-1.9.8z"/><path id="Path_00000085212644370917462380000007559292859741277078_" class="st13" d="M208.3 230.7c-.2 0-.3-.1-.4-.3 0-.1-2.1-13.6-4.3-17.9-.4-.8-.9-1.5-1.4-2.3-.6-.8-1.1-1.7-1.6-2.6-.1-.2 0-.4.2-.5.2-.1.4 0 .5.2.4.9.9 1.7 1.5 2.5.5.7 1 1.5 1.4 2.3 2.2 4.3 4.3 17.6 4.4 18.1.1.2-.1.4-.3.5z"/></g></g></svg>