<?xml version="1.0" encoding="utf-8"?>
<!-- Generator: Adobe Illustrator 25.4.1, SVG Export Plug-In . SVG Version: 6.00 Build 0)  -->
<svg version="1.1" id="Layer_1" xmlns="http://www.w3.org/2000/svg" xmlns:xlink="http://www.w3.org/1999/xlink" x="0px" y="0px"
	 viewBox="0 0 234 53.3" style="enable-background:new 0 0 234 53.3;" xml:space="preserve">
<style type="text/css">
	.st0{clip-path:url(#SVGID_00000041283236999672925210000004938095156397442451_);fill:#00284C;}
	.st1{fill:#FFFFFF;}
	.st2{clip-path:url(#SVGID_00000170958569269028448320000008181759609294676407_);}
	.st3{clip-path:url(#SVGID_00000016784939497091454140000012912986974205428641_);fill:#F99702;}
</style>
<g>
	<g>
		<g>
			<defs>
				<path id="SVGID_1_" d="M0,3.8v45.8c0,2.1,1.7,3.7,3.7,3.7h210.5c1.2,0,2.4-0.6,3.1-1.6l16-22.9c0.9-1.3,0.9-3,0-4.3l-16-22.9
					c-0.7-1-1.9-1.6-3.1-1.6H3.7C1.7,0,0,1.7,0,3.8z"/>
			</defs>
			<clipPath id="SVGID_00000177470675496429361810000017089205030485937064_">
				<use xlink:href="#SVGID_1_"  style="overflow:visible;"/>
			</clipPath>
			<path style="clip-path:url(#SVGID_00000177470675496429361810000017089205030485937064_);fill:#00284C;" d="M-5-5h244v63.3H-5V-5
				z"/>
		</g>
	</g>
</g>
<path class="st1" d="M28,31.7c1.1,0,2.2,0.2,3,0.7c0.9,0.6,1.3,1.4,1.3,2.4c0,0.9-0.5,1.7-1.4,2.2c1.1,0.4,1.9,1.4,1.9,2.5
	c0,1.3-0.8,2.4-2,2.9c-0.8,0.4-1.9,0.4-2.9,0.4H25V31.7H28z M27.3,36.3H28c1.3,0,2.1-0.4,2.1-1.3c0-0.5-0.2-0.8-0.5-1
	c-0.4-0.3-1.1-0.3-1.8-0.3h-0.4v2.6H27.3z M27.3,41h0.5c0.7,0,1.4,0,1.9-0.2c0.4-0.2,0.6-0.5,0.6-1.1c0-0.9-0.6-1.5-1.7-1.5h-1.3V41
	z M36.4,35.6c0.5-0.8,1.1-1.3,2-1.3c0.4,0,0.8,0.1,1.1,0.2l-0.5,2c-0.2-0.1-0.5-0.2-0.8-0.2c-0.7,0-1.2,0.4-1.6,0.9v5.7h-2.3v-8.4h2
	L36.4,35.6z M44.9,42.9l-0.2-0.7c-0.5,0.7-1.4,0.9-2.3,0.9c-1.6,0-3-0.9-3-2.7c0-2.1,1.9-2.7,3.7-2.7c0.5,0,1,0.1,1.5,0.2v-0.1
	c0-1.1-0.4-1.7-1.7-1.7c-1,0-1.8,0.4-2.5,0.7l-0.6-1.6c1.1-0.5,2.4-0.9,3.6-0.9c2.3,0,3.5,1.4,3.5,3.6V43L44.9,42.9L44.9,42.9z
	 M44.6,39.2c-0.4-0.1-0.8-0.1-1.2-0.1c-0.8,0-1.8,0.3-1.8,1.3c0,0.7,0.6,1.1,1.3,1.1s1.2-0.3,1.7-0.7V39.2z M50.4,34.5l0.2,1.2
	c0.7-0.9,1.7-1.3,2.6-1.3c0.9,0,1.7,0.4,2.2,1.1c0.7,0.8,0.8,1.9,0.8,3.1V43h-2.3v-4.3c0-0.6,0-1.3-0.3-1.8
	c-0.2-0.4-0.6-0.6-1.1-0.6c-0.7,0-1.4,0.4-1.8,1.1V43h-2.3v-8.4L50.4,34.5L50.4,34.5z M64,42.9l-0.2-1c-0.6,0.9-1.7,1.2-2.6,1.2
	c-2.2,0-3.9-2-3.9-4.4s1.7-4.4,4-4.4c0.8,0,1.8,0.3,2.4,1v-4.4H66v12H64z M63.7,37.2c-0.6-0.7-1.2-0.9-2-0.9c-1.5,0-2.1,1.3-2.1,2.5
	s0.8,2.4,2.1,2.4c0.7,0,1.5-0.3,2-1.1V37.2z M72.2,36.8c-0.4-0.4-1-0.7-1.7-0.7c-0.4,0-0.8,0.2-0.8,0.6c0,0.5,0.6,0.8,1.3,1.1
	c1.1,0.4,2.5,1,2.5,2.6c0,1.9-1.6,2.7-3.2,2.7c-1.3,0-2.5-0.5-3.4-1.4l1.3-1.3c0.6,0.6,1.2,1,2,1c0.5,0,1.1-0.2,1.1-0.7
	c0-0.6-0.8-0.8-1.6-1.2c-1-0.4-2.1-1-2.1-2.5c0-1.7,1.5-2.6,3-2.6c1.1,0,2.1,0.4,2.9,1.1C73.5,35.5,72.2,36.8,72.2,36.8z M87.5,37.6
	c0,3.5-1.3,5.5-4.5,5.5c-3.1,0-4.5-2-4.5-5.5v-5.9h2.3v6.2c0,2.1,0.9,3.2,2.2,3.2c1.4,0,2.2-1,2.2-3.2v-6.2h2.3V37.6z M91.3,34.5
	l0.2,1.2c0.7-0.9,1.7-1.3,2.6-1.3s1.7,0.4,2.2,1.1c0.7,0.8,0.8,1.9,0.8,3.1V43h-2.3v-4.3c0-0.6,0-1.3-0.3-1.8
	c-0.2-0.4-0.6-0.6-1.1-0.6c-0.7,0-1.4,0.4-1.8,1.1V43h-2.3v-8.4L91.3,34.5L91.3,34.5z M104.9,42.9l-0.2-1c-0.6,0.9-1.7,1.2-2.6,1.2
	c-2.2,0-3.9-2-3.9-4.4s1.7-4.4,4-4.4c0.8,0,1.8,0.3,2.4,1v-4.4h2.3v12C106.9,42.9,104.9,42.9,104.9,42.9z M104.6,37.2
	c-0.6-0.7-1.2-0.9-2-0.9c-1.5,0-2.1,1.3-2.1,2.5s0.8,2.4,2.1,2.4c0.7,0,1.5-0.3,2-1.1V37.2z M110.3,39.3c0.2,1.2,0.9,2,2.1,2
	c1.1,0,1.6-0.4,2.2-1.2l1.5,1c-1,1.4-2,2.1-3.8,2.1c-2.5,0-4.3-1.8-4.3-4.3s1.9-4.5,4.3-4.5c2.3,0,4.1,1.6,4.1,3.9
	c0,0.3,0,0.7-0.1,1.1L110.3,39.3L110.3,39.3z M114,37.7c0-1-0.8-1.6-1.7-1.6c-1.1,0-1.7,0.7-1.9,1.6H114z M119.6,35.6
	c0.5-0.8,1.1-1.3,2-1.3c0.4,0,0.8,0.1,1.1,0.2l-0.5,2c-0.2-0.1-0.5-0.2-0.8-0.2c-0.7,0-1.2,0.4-1.6,0.9v5.7h-2.3v-8.4h2
	C119.5,34.5,119.6,35.6,119.6,35.6z M132,43.1c-3.3,0-5.9-2.6-5.9-5.8s2.5-5.8,5.9-5.8c3.3,0,5.9,2.6,5.9,5.8S135.3,43.1,132,43.1z
	 M132,33.5c-2,0-3.4,1.7-3.4,3.8s1.4,3.8,3.4,3.8s3.4-1.7,3.4-3.8S134,33.5,132,33.5z M141.2,34.5l0.2,1.2c0.7-0.9,1.7-1.3,2.6-1.3
	c0.9,0,1.7,0.4,2.2,1.1c0.7,0.8,0.8,1.9,0.8,3.1V43h-2.3v-4.3c0-0.6,0-1.3-0.3-1.8c-0.2-0.4-0.6-0.6-1.1-0.6c-0.7,0-1.4,0.4-1.8,1.1
	V43h-2.3v-8.4L141.2,34.5L141.2,34.5z M150.4,39.3c0.2,1.2,0.9,2,2.1,2c1.1,0,1.6-0.4,2.2-1.2l1.5,1c-1,1.4-2,2.1-3.8,2.1
	c-2.5,0-4.3-1.8-4.3-4.3s1.9-4.5,4.3-4.5c2.3,0,4.1,1.6,4.1,3.9c0,0.3,0,0.7-0.1,1.1L150.4,39.3L150.4,39.3z M154.1,37.7
	c0-1-0.8-1.6-1.7-1.6c-1.1,0-1.7,0.7-1.9,1.6H154.1L154.1,37.7z M164.7,31.7c1.8,0,4.1,0.9,4.1,3.4c0,1.7-1.2,2.7-2.4,3.1
	c1,1.4,2.7,3.7,3.4,4.7H167l-3.1-4.5h-0.4v4.5h-2.3V31.7H164.7z M163.5,36.5h0.9c1.2,0,2-0.4,2-1.4c0-0.9-0.7-1.5-1.7-1.5h-1.2V36.5
	z M178.4,38.7c0,2.5-1.8,4.4-4.4,4.4c-2.6,0-4.4-1.9-4.4-4.4s1.8-4.4,4.4-4.4C176.5,34.3,178.4,36.2,178.4,38.7z M174,36.2
	c-1.2,0-2.1,1.1-2.1,2.4c0,1.4,0.8,2.4,2.1,2.4s2.1-1.1,2.1-2.4C176.1,37.3,175.2,36.2,174,36.2z M187.8,38.7c0,2.5-1.8,4.4-4.4,4.4
	c-2.6,0-4.4-1.9-4.4-4.4s1.8-4.4,4.4-4.4C185.9,34.3,187.8,36.2,187.8,38.7z M183.4,36.2c-1.2,0-2.1,1.1-2.1,2.4
	c0,1.4,0.8,2.4,2.1,2.4s2.1-1.1,2.1-2.4C185.4,37.3,184.6,36.2,183.4,36.2z M193.5,32.9c-0.4-0.2-0.7-0.3-1.2-0.3
	c-0.4,0-0.6,0.1-0.7,0.3c-0.2,0.2-0.2,0.6-0.2,1v0.5h2.1v1.9h-2.1v6.5h-2.3v-6.5h-0.9v-1.9h0.9v-0.7c0-1,0.2-1.7,0.6-2.2
	c0.5-0.6,1.2-0.9,2.4-0.9c0.7,0,1.4,0.2,2.1,0.5L193.5,32.9L193.5,32.9z"/>
<path class="st1" d="M29,11.5c-0.8,0-1.5,0.4-1.5,1.1c0,0.9,1.1,1.1,1.9,1.4c1.6,0.5,3.5,1.3,3.5,3.6c0,2.4-2.3,3.5-4.2,3.5
	c-1.7,0-3.1-0.7-4.3-1.9l1.5-1.5c0.9,0.9,1.6,1.4,2.8,1.4c0.9,0,1.8-0.4,1.8-1.4s-1-1.3-2.2-1.7c-1.5-0.5-3.1-1.2-3.1-3.3
	s1.8-3.1,3.7-3.1c1.4,0,2.6,0.5,3.7,1.3l-1.3,1.6C30.7,11.9,29.8,11.5,29,11.5z M36.4,13.5c0.7-0.8,1.6-1.2,2.5-1.2s1.7,0.4,2.2,1.1
	c0.7,0.8,0.8,1.9,0.8,3.1v4.4h-2.3v-4.3c0-0.6,0-1.3-0.3-1.8c-0.2-0.4-0.6-0.6-1.1-0.6c-0.7,0-1.4,0.4-1.8,1.1v5.6h-2.3v-12h2.3
	C36.4,8.9,36.4,13.5,36.4,13.5z M51.8,16.7c0,2.5-1.8,4.4-4.4,4.4c-2.6,0-4.4-1.9-4.4-4.4s1.8-4.4,4.4-4.4
	C49.9,12.3,51.8,14.2,51.8,16.7z M47.4,14.2c-1.2,0-2.1,1.1-2.1,2.4c0,1.4,0.8,2.4,2.1,2.4s2.1-1.1,2.1-2.4S48.6,14.2,47.4,14.2z
	 M54.9,12.5l0.2,1c0.6-0.9,1.7-1.2,2.6-1.2c2.2,0,3.9,2,3.9,4.4s-1.7,4.4-3.9,4.4c-0.8,0-1.8-0.3-2.5-1v4.8h-2.3V12.5H54.9z
	 M55.2,18.2c0.6,0.7,1.2,0.9,2,0.9c1.5,0,2.1-1.3,2.1-2.5s-0.8-2.4-2.1-2.4c-0.7,0-1.5,0.3-2,1.1V18.2z M67.4,20.9v-8
	c-0.5,0.2-1.1,0.5-1.5,0.7v-2c0.7-0.4,1.5-0.8,2.3-1.2h1.5V21h-2.3V20.9z M78.8,15.6c0,3.4-1.4,5.5-4,5.5c-2.5,0-4-2.1-4-5.5
	s1.4-5.5,4-5.5S78.8,12.2,78.8,15.6z M73.2,15.6c0,2.4,0.6,3.6,1.7,3.6s1.7-1.2,1.7-3.6S76,12,74.9,12S73.2,13.2,73.2,15.6z
	 M87.7,15.6c0,3.4-1.4,5.5-4,5.5c-2.5,0-4-2.1-4-5.5s1.4-5.5,4-5.5C86.2,10.1,87.7,12.2,87.7,15.6z M82,15.6c0,2.4,0.6,3.6,1.7,3.6
	s1.7-1.2,1.7-3.6S84.8,12,83.7,12S82,13.2,82,15.6z M89.4,9.7h2.4l-1.2,4.4h-2.2C88.4,14.1,89.4,9.7,89.4,9.7z M97.3,14.8
	c-0.4-0.4-1-0.7-1.7-0.7c-0.4,0-0.8,0.2-0.8,0.6c0,0.5,0.6,0.8,1.3,1.1c1.1,0.4,2.5,1,2.5,2.6c0,1.9-1.6,2.7-3.2,2.7
	c-1.3,0-2.5-0.5-3.4-1.4l1.3-1.3c0.6,0.6,1.2,1,2,1c0.5,0,1.1-0.2,1.1-0.7c0-0.6-0.8-0.8-1.6-1.2c-1-0.4-2.1-1-2.1-2.5
	c0-1.7,1.5-2.6,3-2.6c1.1,0,2.1,0.4,2.9,1.1C98.6,13.5,97.3,14.8,97.3,14.8z M111.7,16.7c0,2.5-1.8,4.4-4.4,4.4s-4.4-1.9-4.4-4.4
	s1.8-4.4,4.4-4.4C109.8,12.3,111.7,14.2,111.7,16.7z M107.3,14.2c-1.2,0-2.1,1.1-2.1,2.4c0,1.4,0.8,2.4,2.1,2.4s2.1-1.1,2.1-2.4
	C109.3,15.3,108.5,14.2,107.3,14.2z M117.4,10.9c-0.4-0.2-0.7-0.3-1.2-0.3c-0.4,0-0.6,0.1-0.7,0.3c-0.2,0.2-0.2,0.6-0.2,1v0.5h2.1
	v1.9h-2.1v6.5H113v-6.5h-0.9v-1.9h0.9v-0.7c0-1,0.2-1.7,0.6-2.2c0.5-0.6,1.2-0.9,2.4-0.9c0.7,0,1.4,0.2,2.1,0.5
	C118.1,9.1,117.4,10.9,117.4,10.9z"/>
<g>
	<defs>
		<path id="SVGID_00000050653171891570639580000011965815268023158915_" d="M178.5,10.9c2.5,1.7,5,3.5,7.5,5.2
			c0.5,0.4,0.7,0.7,0.7,1.3V25c0,0.7-0.2,1-0.9,0.9h-1.5c-0.6,0.1-0.9-0.2-0.9-0.8v-6.3c0-0.4-0.1-0.6-0.5-0.9c-1.5-1-3-2-4.4-3
			c-0.3-0.2-0.6-0.2-0.9,0c-1.5,1-2.9,2-4.4,3c-0.4,0.2-0.5,0.5-0.4,0.9v6.4c0,0.5-0.2,0.7-0.7,0.7h-1.8c-0.4,0-0.6-0.2-0.6-0.6
			v-8.4c0-0.4,0.3-0.6,0.6-0.8c2.4-1.6,4.8-3.3,7.2-4.9c0.1-0.1,0.3-0.1,0.3-0.3L178.5,10.9L178.5,10.9z"/>
	</defs>
	<clipPath id="SVGID_00000111178155648470308570000011802559364707455678_">
		<use xlink:href="#SVGID_00000050653171891570639580000011965815268023158915_"  style="overflow:visible;"/>
	</clipPath>
	<g style="clip-path:url(#SVGID_00000111178155648470308570000011802559364707455678_);">
		<g>
			<defs>
				<rect id="SVGID_00000063615724065519882650000018402250847916761243_" x="-204.2" y="-993.1" width="1600" height="5131"/>
			</defs>
			<clipPath id="SVGID_00000048496854651020768230000006036767926227576208_">
				<use xlink:href="#SVGID_00000063615724065519882650000018402250847916761243_"  style="overflow:visible;"/>
			</clipPath>
			<path style="clip-path:url(#SVGID_00000048496854651020768230000006036767926227576208_);fill:#F99702;" d="M164.8,5.9h27v25h-27
				V5.9z"/>
		</g>
	</g>
</g>
</svg>
