<svg version="1.1" id="Layer_1" xmlns="http://www.w3.org/2000/svg" x="0" y="0" viewBox="0 0 640 400" xml:space="preserve" enable-background="new 0 0 640 400">
  <style>
    .st1,.st2{fill-rule:evenodd;clip-rule:evenodd;fill:#fff}.st2{fill:#fa9700}.st10,.st12,.st15,.st21,.st5,.st6,.st7{fill-rule:evenodd;clip-rule:evenodd;fill:#ffedde}.st10,.st12,.st15,.st21,.st6,.st7{fill:#d4dae0}.st10,.st12,.st15,.st21,.st7{fill:#2f3541}.st10,.st12,.st15,.st21{fill:#5b2714}.st12,.st15,.st21{fill:#262424}.st15,.st21{fill:#384154}.st21{fill:#e0cda7}
  </style>
  <g id="person">
    <path id="Fill-1" d="m533.1 147.9-33.2-23-9.9 9.1-11.6 31.5-45.5 50.7-11.7 76.5s-3.9-.3-6.6-1.1c-2.7-.8-4.3-2.2-4.3-2.2l-12 17.7s3 7.2 6.8 9.8c3 2 11.8 8.5 18.3 11.2 5.2 2.1 8.7.8 8.7.8l31.7 75.4 10 .1 7.5-71.5 14.6-1.1 5.7 72.3 11-.3L582.1 283l2.5-17.7s18.2 16.3 33.3 21.4c8.4 2.8 16.6-2.2 18.5-4.5 2.5-2.7 3.3-12.2 2-22.5-2-16.7-8.5-38.7-15.9-61.6-6.4-19.7-11.6-40.8-20.9-50.5-11.6-11.8-48.6-22.7-48.6-22.7l-5.9-7.9-14 30.9z" fill-rule="evenodd" clip-rule="evenodd" fill="#6982a9"/>
    <path id="Fill-3" class="st1" d="m534.1 147.2-42.4-.8s-8.5 33.1-13 83.4C474.3 280.3 474 404 474 404l27.7.1s1.7-126.1 9.9-176.3c8-50.2 22.5-80.6 22.5-80.6"/>
    <path id="Fill-5" class="st2" d="M494.5 129.4s-9.6 7.5-23.3 15.7c-3.5 2-8.6 3.9-12.2 6.1-5.4 3.1-13.8 6.4-19 8.7-2.9 1.3-3.7 1.3-5.2 3.5-2.6 3.6-2.9 9.2-3 14.6-.1 7.4.9 15.5 1.3 27.4.9 24-.2 55.2-.2 55.2l.9 26-1.3 116.7s3.8 1.2 12.2 1.6c8.3.3 21.1 0 21.1 0l2-136.8s2.1-47.7 8.9-82.3c3.4-17.2 6.1-30.6 9.6-40.8 3.6-10.8 8.2-15.6 8.2-15.6"/>
    <path id="Fill-7" class="st2" d="M610.3 138.7c-4.3-2.1-26-6.3-37.8-9.6-6.7-1.9-13.2-7.8-18.6-4.4-3 1.9-9 13-12.8 21.3-5.4 11.9-10.1 23.5-12.7 34.2-3.8 15.7-4.5 19.6-4.5 19.6s-6.3 17.3-9.1 53.4-2.4 150.7-2.4 150.7 6.4.2 27.2 0c20.9-.2 56.1-4.8 56.1-4.8s-1.9-65.3-1.1-81.8c.8-16.6 4.4-40.3 4.4-40.3l-14.2-11.6-2.5 16s-4.6-1.9-7.3-9.1c-2.7-7.2-3.5-19.8-3.5-19.8l-13.3-14.2s-1.6-.8-2.4-2.9c-.8-2.1-.7-5.7-.7-5.7l4.4-28.7s.8-1.1 4.5 1.1 10.2 7.8 10.2 7.8 2.4-20.1 8.6-36.1c6.2-16 16.3-27.8 16.3-27.8s3.5.6 7.6 8.7c3.8 7.4 8.7 20.3 8.7 20.3s4-13 3.1-22.4c-.6-8.2-6-12.9-8.2-13.9"/>
    <path id="Fill-9" d="M564.8 32.5s3.4-.4-4.9-9.3c-5.5-5.8-18.1-13.9-26.5-15.9-9.4-2.3-20.2-1.6-27.5 1.4-5.9 2.5-9.5 7.2-9.5 7.2s-3.7 1.6-7.2 6.2-6.8 12.3-6.8 12.3-9.6 8.3-9.9 15.7c-.2 6.3 8.4 9.2 8.4 9.2l47.3-4s17.6 49.7 26.7 44.1c1.5-.9 6.3-4.5 7.3-7.5.7-1.9 1.7-5.2 1.7-5.2s7.5-13.2 7.7-26.7c.3-16.6-6.8-27.5-6.8-27.5" fill-rule="evenodd" clip-rule="evenodd" fill="#ffd972"/>
    <path id="Fill-11" d="M555.5 102.9c-1.6-4.5-3.6-6.7-3.6-6.7s4.1-3.8 5-5.4c2.1-3.5 6.2-14.9 6.2-14.9s-4.8-22.8-14.2-31.2c-3.1-2.8-10.2-7.2-18.7-9.6-7-2-14.7-2.2-22.4-2.4-11.1-.2-24.9 5.2-24.9 5.2s-4.8 11.9-2.2 20.3c2.1 7 9.1 8.4 9.1 8.4s13-28.6 29.8-22.4c12.1 4.4 14.7 43.6 22.3 54.7.7 1 2.9 13.6 5.5 19.6.6 1.5 5.7 6.1 5.7 6.1s-.2-.3 2.2-.3c5.2.1 11.3 3.4 11.3 3.4s.1-2.6-1.9-5.4c-1.5-2-4.4-4.3-5.6-6.8" fill-rule="evenodd" clip-rule="evenodd" fill="#d5a175"/>
    <path id="Fill-13" class="st5" d="M555 75.9c-.8-1.1-3-2.7-4.5-2.6-2 .1-4 2.6-4.9.3-.9-2.2-1.8-9.2-5.9-12.9-2.7-2.4-8-6.1-10.3-8.6-4.6-4.8-4.3-7.1-9.9-9-9.8-3.4-20 .4-23.3 4.5-1.8 2.1-4.1 5.3-5.4 10.4-2.1 9.4-2 22.9-.3 31.4 3.1 16.6 12.8 23.4 12.8 23.4s.1 5.3-1.2 9.5c-1.2 4.3-3.8 7.5-3.8 7.5s-1.7 2.1-3.3 6.3c-1.6 4.1-3.1 10.2-3.1 10.2s3.3 5.9 13.6 6.8c11.8.9 27.9-5.2 27.9-5.2s2-5.6 5.7-12.3c3.7-6.6 9.2-14.2 9.2-14.2s-1-2.5-1.6-7.2c-.7-5.5-.7-13.9.7-20.5.7-3.4 3.1-3.1 5.4-5.5 2.7-3 4.9-8.5 2.2-12.3"/>
    <path id="Fill-15" class="st6" d="M577.8 190.5s-9.1-.2-18.4-1c-10-.9-18.8-.9-18.8-.9l18.6 12 3.6.4 11.6 8.9 3.4-19.4z"/>
    <path id="Fill-17" class="st6" d="M539 215.4c-2.1-.7-5-.8-7.2-.8-7.7-.3-11-3-11-3l-3.7 19.5s9.5-.1 19.1.3c9.5.4 19.1 1.5 19.1 1.5l-.4-3.5c.1-.1-6.5-10.9-15.9-14"/>
    <path id="Fill-19" class="st6" d="m475.5 189.9-43 2.2 1.2 38.9 36.9-.7z"/>
    <path id="Fill-21" class="st7" d="M353.4 267.4h.1l2-.3c.3-.1.6-.4.4-.8-.1-.3-.4-.6-.8-.4l-2 .3c-.3.1-.6.4-.4.8.2.2.4.4.7.4"/>
    <path id="Fill-23" class="st7" d="M430.3 329.9c.7 0 1.3-.1 1.9-.2.3-.1.6-.4.4-.8-.1-.3-.4-.6-.8-.4-7.8 1.7-23.5-10.4-23.7-10.5-.2-.2-.7-.1-.9.1-.2.2-.1.7.1.9.8.3 14.3 10.9 23 10.9"/>
    <path id="Fill-25" class="st7" d="M432.4 403.6c.3 0 .7-.3.7-.7 0-5.9.3-74.2.7-86.3.3-12 .7-24.6.7-30.5 0-.3-.3-.7-.7-.7-.3 0-.7.3-.7.7 0 5.9-.3 18.4-.7 30.4-.3 12-.7 80.4-.7 86.3.1.5.3.8.7.8"/>
    <path id="Fill-27" class="st7" d="M432.9 261.1c.3 0 .6-.2.7-.6 0-.4 1.5-41.2-.8-74.6-1.1-17.3 1.3-22.2 3.7-23.3 2.6-1.2 8.5-4 14.8-7 7.1-3.3 14.2-6.6 17.8-8.4 6.4-3.1 12-7.6 16.9-11.6 4.1-3.3 7.7-6.1 10.4-7.1.3-.1.4-.4.4-.8-.1-.3-.4-.4-.8-.4-2.9 1-6.5 3.9-10.8 7.2-4.8 3.9-10.4 8.3-16.7 11.3-3.6 1.8-10.8 5.2-17.8 8.4-6.3 2.9-12.2 5.7-14.8 7-3.9 1.9-5.3 10-4.4 24.6 2.1 33.3.8 74.1.8 74.5-.1.5.3.7.6.8"/>
    <path id="Fill-29" class="st7" d="M477.8 178.3c.3 0 .6-.2.6-.6 5-27 11.7-45.2 17.8-48.6.3-.1.4-.6.2-.9-.1-.3-.6-.4-.9-.2-6.6 3.6-13.3 21.5-18.4 49.3-.1.3.1.7.4.8.2.2.3.2.3.2"/>
    <path id="Fill-31" class="st7" d="M467.8 268.1c.3 0 .6-.2.7-.6 1.7-28.7 4.7-57.3 8.4-80.7 0-.3-.2-.7-.6-.7-.3-.1-.7.2-.7.6-3.8 23.4-6.8 52.1-8.5 80.9 0 .1.4.4.7.5"/>
    <path id="Fill-33" class="st7" d="M465.7 405c.3 0 .7-.2.7-.7.1-22.3.7-104.4 1.5-122.4 0-.3-.2-.7-.6-.7-.3 0-.7.2-.7.6-.8 18.2-1.5 100.2-1.5 122.5 0 .4.2.7.6.7"/>
    <path id="Fill-35" class="st7" d="M512.5 404.3c.3 0 .7-.3.7-.7-2.5-70.1 4-171.3 8.2-192 .1-.3-.1-.7-.4-.8-.3-.1-.7.1-.8.4-4.2 20.8-10.7 122.1-8.2 192.4 0 .3.2.7.5.7"/>
    <path id="Fill-37" class="st7" d="M528.6 180.7c.2 0 .6-.2.6-.4 1.6-4.9 2.9-9.2 4.1-12.6.6-1.8 1.1-3.4 1.6-4.8 5.9-18.3 17.3-36.8 19.3-37.9 1.7-.9 5.4.3 10.9 2.2 5.2 1.7 12.1 4.1 21 5.8.7.1 1.7.3 2.8.6 6.3 1.2 19.5 3.6 22.9 6.5 8.6 7.2 7.2 22.9 2.9 35.1-.1.3.1.7.3.8.3.1.7-.1.8-.3 4.4-12.7 5.8-28.8-3.3-36.4-3.7-3-16.6-5.5-23.5-6.7-1.1-.2-2-.3-2.8-.6-8.7-1.8-15.8-4.1-20.9-5.8-6.1-2-9.8-3.3-11.9-2.1-2.5 1.3-13.9 20.2-19.8 38.6-.4 1.5-1 3-1.6 4.8-1.1 3.4-2.6 7.6-4.1 12.6-.1.3.1.7.4.8h.3z"/>
    <path id="Fill-39" class="st7" d="M574.3 210.3c.3 0 .6-.2.7-.6 1.6-11.8 3.9-25.5 9.4-37.7 8.9-20 17-30.8 24.9-33.3.3-.1.6-.4.4-.8-.1-.3-.4-.6-.8-.4-8.3 2.6-16.7 13.7-25.7 34-5.5 12.3-7.8 26.2-9.5 38 0 .4.2.7.6.8-.1 0 0 0 0 0"/>
    <path id="Fill-41" class="st7" d="M584.1 282.3c3.4 0 7.3-2.7 11.4-7.8.2-.2.2-.7-.1-.9-.2-.2-.7-.2-.9.1-4.6 5.7-8.6 8.2-12 7.2-7.4-2.2-9.9-20.6-10.5-28.4 0-.3-.3-.6-.7-.6-.3 0-.6.3-.6.7.9 10 3.6 27.1 11.4 29.5.7.2 1.4.2 2 .2"/>
    <path id="Fill-43" class="st7" d="M588.9 222.3h.2c.3-.1.4-.4.3-.8-2.6-7-5.6-14.2-9.2-22.1-.1-.3-.6-.4-.8-.3-.3.1-.4.6-.3.8 3.6 7.8 6.6 15.1 9.1 22.1.1.1.5.3.7.3"/>
    <path id="Fill-45" class="st7" d="M583.2 281.3s1.5-10.3 2.2-16c0-.3-.2-.7-.6-.7s-.7.2-.7.6c-.8 5.7-2.2 16-2.2 16l1.3.1z"/>
    <path id="Fill-47" class="st7" d="M595.9 399.6c.4-.1.7-.3.7-.7-2.6-17.4 0-94.4 1.7-108.3.7-5.9 1.3-10.5 1.3-13.7 0-.3-.2-.7-.6-.7-.3 0-.7.2-.7.6-.1 3-.7 7.7-1.3 13.6-1.7 14-4.3 91-1.7 108.6-.1.3.2.6.6.6"/>
    <path id="Fill-49" class="st7" d="M497.2 131.4c.2 0 .3-.1.4-.2 4.5-5.2 6.8-11.9 6.3-18.3 0-.3-.3-.6-.7-.6-.3 0-.6.3-.6.7.6 6.1-1.7 12.3-5.9 17.3-.2.2-.2.7.1.9.1.2.3.2.4.2"/>
    <path id="Fill-51" class="st7" d="M491.2 134.4c.1 0 .2 0 .3-.1 2.6-1.7 4-3.8 5.5-5.6 1.3-1.8 2.5-3.3 4-4 .3-.1.4-.6.3-.8-.1-.3-.6-.4-.8-.3-1.9.9-3.3 2.6-4.6 4.4-1.3 1.8-2.8 3.8-5.2 5.4-.3.2-.3.6-.2.9.4 0 .5.1.7.1"/>
    <path id="Fill-53" class="st7" d="M515.9 117.6c15 0 23.7-11.7 27.5-18.6.1-.3 0-.7-.2-.9-.3-.1-.7 0-.9.2-3.7 6.8-12.2 18.3-27 17.9-8.7-.2-14.7-6.1-18.1-10.9-4.6-6.6-6.4-14.5-7.1-20 0-.3-.3-.6-.7-.6-.3 0-.6.3-.6.7.7 5.6 2.5 13.7 7.3 20.5 5.2 7.3 11.7 11.3 19.1 11.4.3.3.5.3.7.3"/>
    <path id="Fill-55" class="st7" d="M513.2 88.4c.1 0 .3-.1.4-.2.2-.2.2-.7 0-.9-2.1-2-1.6-3-.8-4.4.2-.4.6-1 .8-1.6.8-2.5.2-4-.4-5.4-.1-.3-.6-.4-.9-.3-.3.1-.4.6-.3.9.6 1.1 1 2.5.3 4.5-.1.4-.3.9-.7 1.3-.8 1.5-1.8 3.3 1 5.9.3.1.5.2.6.2"/>
    <path id="Fill-57" class="st7" d="M546.9 100.4c.1 0 .3 0 .4-.1.9-.8 1.9-1.5 2.9-2.1 4.1-2.8 8.9-6.1 13.7-22.1.1-.3-.1-.7-.4-.8-.3-.1-.7.1-.8.4-4.6 15.7-9.2 18.7-13.1 21.4-1 .7-2 1.3-3 2.2-.2.2-.2.7 0 .9-.1.2 0 .2.3.2"/>
    <path id="Fill-59" class="st7" d="M485.1 65.5c.2 0 .4-.1.6-.3.2-.3.1-.7-.2-.9-6.2-4-5.8-16.5-1.9-25.7.1-.3 0-.7-.3-.8-.3-.1-.7 0-.8.3-4.1 9.6-4.4 22.8 2.4 27.2-.1.2.1.2.2.2"/>
    <path id="Fill-61" class="st7" d="M494.8 67.7c.1 0 .2 0 .3-.1 1.9-1.1 5.6-1.6 8.4-.4.3.1.7 0 .8-.3.1-.3 0-.7-.3-.8-3.3-1.3-7.3-.8-9.5.4-.3.2-.4.6-.2.9.1.2.3.3.5.3"/>
    <path id="Fill-63" class="st7" d="M521.3 66.9c.1 0 .2 0 .3-.1 3.7-2.1 9.1-1.1 11 0 .3.2.7.1.9-.2.2-.3.1-.7-.2-.9-2.5-1.5-8.3-2.2-12.2 0-.3.2-.4.6-.2.9-.1.2.2.3.4.3"/>
    <path id="Fill-65" class="st1" d="M515.1 96.8c4.4-.2 8.9-1 8.9-1s-1.1 8.4-8.3 9.2c-7.9.9-9.4-8.5-9.4-8.5s4.4.5 8.8.3"/>
    <path id="Fill-67" class="st7" d="M523.2 96.5c-.4 2.1-2.1 7.3-7.6 7.8-5.9.7-8-5-8.5-7.2 1.6.1 4.8.3 8.1.2 3.2 0 6.4-.5 8-.8m-8.5 9.2c.3 0 .7 0 1.1-.1 7.6-.8 8.9-9.8 8.9-9.8 0-.2 0-.4-.2-.6-.1-.1-.3-.2-.6-.1 0 0-4.5.9-8.7 1-4.4.2-8.7-.3-8.7-.3-.2 0-.3 0-.6.2-.1.1-.2.3-.1.6-.1.1 1.5 9.1 8.9 9.1"/>
    <path id="Fill-69" class="st7" d="M548 90.7c.1 0 .1 0 0 0 6.1-.4 9-6.3 8.7-11.6-.1-2.8-1.6-5.2-3.8-6.1-2.1-.9-4.5-.4-6.5 1.3-.2.2-.3.7-.1.9.2.2.7.3.9.1 1.7-1.5 3.5-1.9 5.2-1.1 1.8.8 2.9 2.7 3 4.9.1 3.7-1.8 9.9-7.5 10.3-.3 0-.6.3-.6.7.1.4.4.6.7.6"/>
    <path id="Fill-71" class="st7" d="M549.5 83.1c.2 0 .6-.2.6-.4.2-.9.7-1.8 1.3-2.2.2-.2.3-.6.1-.9-.2-.2-.6-.3-.9-.1-.8.7-1.5 1.7-1.8 2.9-.1.3.1.7.4.8.2-.3.3-.1.3-.1"/>
    <path id="Fill-73" class="st7" d="M498.6 78.2c-.1-1.6.8-2.8 2-2.9 1.2-.1 2.2 1.1 2.2 2.7.1 1.6-.8 2.8-2 2.9-1 0-2.2-1.1-2.2-2.7"/>
    <path id="Fill-75" class="st7" d="M544.8 70.7h.1c.3-.1.6-.4.4-.8-2.2-8.2-7-11.6-11.1-14.6-3.7-2.7-6.8-4.9-7.8-9.9-.1-.3-.4-.6-.8-.4-.3.1-.6.4-.4.8 1.1 5.4 4.7 8 8.4 10.7 4.1 3 8.5 6.2 10.7 13.9 0 .2.3.3.5.3"/>
    <path id="Fill-77" class="st7" d="M548.3 121.9c.1 0 .2 0 .2-.1.3-.1.4-.6.3-.8-3-6.6-1.8-20.4-1.1-27 0-.3-.2-.7-.6-.7-.3 0-.7.2-.7.6-.7 6.7-1.9 20.7 1.2 27.7.1.1.4.3.7.3"/>
    <path id="Fill-79" class="st7" d="M553.2 125.3c.2 0 .3-.1.4-.2.2-.2.1-.7-.1-.9-1.7-1.3-2.5-2.5-3.1-3.5-.7-1-1.2-1.8-2.5-2.4-.3-.1-.7 0-.8.3-.1.3 0 .7.3.8.9.4 1.3 1.1 1.9 2 .7 1 1.6 2.2 3.5 3.7.1.1.3.2.4.2"/>
    <path id="Fill-81" class="st7" d="M520.6 42.2h.1c.3-.1.6-.4.4-.8-.4-1.8-1.7-4-4-5.3-1.5-.7-3.9-1.2-7.2.3-.3.1-.4.6-.3.8.1.3.6.4.8.3 2.2-1.1 4.4-1.2 6.1-.3 2 1 3 3 3.4 4.4.1.4.5.6.7.6"/>
    <path id="Fill-83" class="st7" d="M526 77.2c-.1-1.6.8-2.8 2-2.9 1.2 0 2.2 1.1 2.2 2.7.1 1.6-.8 2.8-2 2.9-1.1 0-2.1-1.1-2.2-2.7"/>
    <path id="Fill-85" class="st7" d="M622.8 251.1c.1 0 .2 0 .3-.1.2-.2.3-.6.1-.9-7-9.2-17.3-16.7-29.4-25.5-3.6-2.7-7.4-5.4-11.3-8.4-3.8-2.8-7.2-5.7-10.1-8.3-6.4-5.5-10.5-9.1-13.3-7.5-.3.1-.4.6-.2.9.1.3.6.4.9.2 2-1.1 6.4 2.6 11.9 7.4 2.9 2.6 6.3 5.5 10.1 8.3 3.9 3 7.7 5.7 11.3 8.4 12 8.7 22.3 16.1 29 25.2.3.2.6.3.7.3"/>
    <path id="Fill-87" class="st7" d="M624.1 288c4.5 0 8.6-1.6 12.2-5 7.1-7 3.9-32-9.5-74.1-.8-2.4-1.6-4.8-2.4-7.4-8.4-26.9-17.2-54.6-25-56.1-.3-.1-.7.1-.8.4-.1.3.1.7.4.8 7.1 1.3 16 29.9 24 55.3l2.4 7.4c13 41.2 16.5 66.4 9.9 72.9-16.9 16.7-48.3-15.1-71.3-38.4-2.2-2.2-4.4-4.5-6.5-6.5-.2-.2-.7-.2-.9 0-.2.2-.2.7 0 .9 2 2 4.1 4.3 6.4 6.5 18.8 18.8 43.1 43.3 61.1 43.3"/>
    <path id="Fill-89" class="st7" d="M426.1 259.6c.3 0 .6-.2.6-.4 3-14.6 7.1-44 7.2-44.3 0-.3-.2-.7-.6-.7-.3 0-.7.2-.7.6 0 .3-4 29.6-7.2 44.2-.1.3.1.7.4.8.2-.2.3-.2.3-.2"/>
    <path id="Fill-91" class="st7" d="M558.1 238.6c3.9 0 8.3-11.6 9.3-17.8 1.2-8-.6-16.7-4-19.6-1.1-.9-2.2-1.2-3.5-.8-.3.1-.6.4-.4.8.1.3.4.6.8.4.8-.2 1.6-.1 2.4.6 2.7 2.4 4.8 10.3 3.6 18.5-1.1 7.3-5.6 16.8-8.1 16.8-.4 0-1.9-.7-2.2-7.6 0-.3-.3-.7-.7-.6-.3 0-.6.3-.6.7.2 5.7 1.3 8.5 3.4 8.6"/>
    <path id="Fill-93" class="st7" d="M489.5 68c.3 0 .7-.3.7-.7-.2-11.2 4-17.4 7.6-20.5 3.9-3.6 9.2-5.2 14.2-4.5.3 0 .7-.2.7-.6 0-.3-.2-.7-.6-.7-5.5-.8-11 1-15.3 4.8-3.8 3.4-8.2 9.9-8 21.5.1.5.4.7.7.7"/>
    <path id="Fill-95" class="st7" d="M554.7 99.8h.2c3.3-1.3 5.5-4.1 6.6-5.8 9.1-13.3-4.8-42.4-11.4-49-8.7-8.7-25.1-13.8-42.7-13.2-24.9.9-32.4 11.4-33.6 13.6-1.7 2.9-2.2 5.6-1.3 8 1 2.8 3.7 5 8.3 6.7.3.1.7 0 .8-.3.1-.3 0-.7-.3-.8-4.1-1.6-6.7-3.6-7.5-6.1-.7-1.9-.2-4.3 1.2-6.8 1.2-2 8.3-12.1 32.5-12.9 17.3-.6 33.3 4.3 41.8 12.8 6.3 6.3 19.8 34.8 11.3 47.4-.8 1.2-3 4-6.1 5.3-.3.1-.4.4-.3.8-.1.2.2.3.5.3"/>
    <path id="Fill-97" class="st7" d="m563.2 81.8 1.2-.1c-.8-10.9-2.2-33.4-18.4-43.6-10.1-6.4-24.2-9.9-37.9-9.5-13.1.3-24.2 4.3-25.8 5.4-5.6 4-9.1 9.1-9.9 14.1 0 .3.2.7.6.7s.7-.2.7-.6c.4-2.7 2.2-8.1 9.4-13.3 1.3-1 12.2-4.8 25.1-5.2 13.5-.3 27.4 3.1 37.2 9.4 15.6 10 17 32.1 17.8 42.7"/>
    <path id="Fill-99" class="st7" d="M563.7 87.5c.2 0 .4-.1.6-.2 3.5-5.3 6.2-14.4 7-19 2.6-14.1.4-26.6-6.1-36-.2-.3-.6-.3-.9-.1-.3.2-.3.6-.1.9 6.3 9.2 8.3 21.3 5.8 35.1-.9 4.7-3.5 13.6-6.7 18.4-.2.3-.1.7.2.9-.1-.1.1 0 .2 0"/>
    <g id="Group-103" transform="translate(73 .59)">
      <defs>
        <filter id="Adobe_OpacityMaskFilter" filterUnits="userSpaceOnUse" x="414.5" y="4.4" width="78.7" height="36.5">
          <feColorMatrix values="1 0 0 0 0 0 1 0 0 0 0 0 1 0 0 0 0 0 1 0"/>
        </filter>
      </defs>
      <mask maskUnits="userSpaceOnUse" x="414.5" y="4.4" width="78.7" height="36.5" id="mask-2_00000003084831288217080040000011518162987789478569_">
        <g filter="url(#Adobe_OpacityMaskFilter)">
          <path id="path-1_00000165208374236847714170000017909675937545020320_" class="st1" d="M493.2 4.4h-78.7v36.5h78.7z"/>
        </g>
      </mask>
      <path id="Fill-101" d="M475.9 40.9c.2 0 .4-.1.6-.3 6.3-9.9 12.1-8.7 14.6-8.3.9.1 1.5.2 1.9-.1.1-.1.3-.4.2-.9-1-5.2-14-20.3-30.7-24.8-18.2-4.8-28 .2-31.7 2.1l-.2.1c-5.3 2.7-12.2 10.8-15.9 22.8-.1.3.1.7.4.8.3.1.7-.1.8-.4 3.6-11.6 10.5-19.5 15.4-22l.2-.1c3.9-2 13.1-6.7 30.8-2 15.6 4.1 28.3 18.3 29.7 23.4-.1 0-.3-.1-.6-.1-2.7-.4-9.1-1.7-15.8 8.9-.2.3-.1.7.2.9h.1" mask="url(#mask-2_00000003084831288217080040000011518162987789478569_)" fill-rule="evenodd" clip-rule="evenodd" fill="#2f3541"/>
    </g>
    <path id="Fill-104" class="st7" d="M482.4 35.1c.3 0 .6-.2.6-.4 1.7-7.1 10.8-17.7 13.8-18.2.3 0 .6-.3.6-.7 0-.3-.3-.6-.7-.6-3.7.6-13 11.9-14.8 19.2-.1.3.1.7.4.8 0-.1 0-.1.1-.1"/>
    <path id="Fill-106" class="st7" d="M562.2 120.1c1.8 1.8 3.4 3.4 3.8 6.7-.1.3.2.6.6.6.4 0 .7-.3.7-.7-.4-3.7-2.2-5.6-4.1-7.5"/>
    <path id="Fill-108" class="st7" d="M557.6 107.8c-.7-3.9-1.3-8.3-5-11.9-.2-.2-.7-.2-.9 0-.2.2-.2.7 0 .9 3.4 3.4 4 7.4 4.7 11.2"/>
    <path id="Fill-110" class="st7" d="M577.4 191.3c.3 0 .7-.3.7-.7 0-.3-.3-.7-.7-.7-4.5 0-10.9-.6-17.5-1-6.4-.6-13-1-19.4-1.2-.3 0-.7.2-.7.6 0 .3.2.7.6.7 6.3.2 12.9.8 19.3 1.2 6.8.5 13.1 1.1 17.7 1.1"/>
    <path id="Fill-112" class="st7" d="M432.8 192.8c5.3 0 20.1-.9 32-1.6 4-.2 7.7-.4 10.8-.7.3 0 .6-.3.6-.7 0-.3-.3-.7-.7-.6-3 .2-6.8.3-10.8.7-11.9.7-26.6 1.6-31.8 1.6-.3 0-.7.3-.7.7-.1.3.3.6.6.6"/>
    <path id="Fill-114" class="st7" d="M555.1 233.1c.3 0 .6-.2.7-.6 0-.3-.2-.7-.6-.7-.2 0-25.9-2.1-37.2-1.3-.3 0-.6.3-.6.7 0 .3.3.7.7.6 11.1-.8 36.7 1.3 37 1.3-.1 0 0 0 0 0"/>
    <path id="Fill-116" class="st7" d="M433.9 231.5c11.8-.3 29.8-.6 36.1-.6.3 0 .7-.3.7-.7 0-.3-.3-.7-.7-.7-6.4 0-24.3.2-36.1.6-.3 0-.7.3-.6.7.1.5.3.7.6.7"/>
    <path id="Fill-118" class="st7" d="M354.6 268.6h.1l1.6-.3c.3-.1.6-.3.4-.8-.1-.3-.4-.6-.8-.4l-1.6.3c-.3.1-.6.3-.4.8.2.2.4.4.7.4"/>
    <path id="Fill-120" class="st7" d="M409.3 319c3 0 5.7-2.1 6.7-5.4 1.7-5 2.2-15-1.1-20.4-1.3-2.1-3.1-3.3-5.3-3.6-.3 0-.7.2-.7.6 0 .3.2.7.6.7 1.8.2 3.3 1.2 4.4 3 3.1 4.9 2.6 14.6 1 19.3-.9 2.8-3.1 4.5-5.6 4.5-3.9 0-7.7-4.3-10.2-11.6-.1-.3-.4-.4-.8-.3-.3.1-.4.4-.3.8 3.6 11.3 9.1 12.4 11.3 12.4"/>
    <path id="Fill-122" class="st7" d="M433.4 294.3c.2 0 .4-.1.6-.3.1-.3 0-.7-.3-.9-3.7-1.8-7.1-1.7-10.3-1.5-3.6.2-7.3.4-11.6-2-.3-.1-.7-.1-.9.2-.2.3-.1.7.2.9 4.6 2.6 8.5 2.4 12.2 2.1 3.3-.2 6.3-.3 9.6 1.3.2.2.4.2.5.2"/>
    <path id="Fill-124" class="st1" d="M344.1 214.7c-.8-3.1-3-5.4-5-4.8-2 .4-3 3.5-2.2 6.6.8 3.1 3 5.4 5 4.8 2-.5 3-3.5 2.2-6.6"/>
    <path id="Fill-126" class="st7" d="M487.4 165.5c.3 0 .6-.2.6-.4 3.1-15.5 6.1-24.8 8-29.9 1.7-4.6 4.3-8.5 4.9-9.3.2-.2.2-.7 0-.9-.2-.2-.7-.2-.9 0-1 1.1-3.6 5.3-5.3 9.8-1.9 5.2-4.9 14.7-8.1 30.2-.1.3.1.7.4.8l.4-.3z"/>
    <path id="Fill-128" class="st7" d="M485.5 175.7c.3 0 .6-.2.6-.6l1-5.5c.1-.3-.1-.7-.6-.7-.3 0-.7.1-.7.6l-1 5.5c0 .3.3.7.7.7"/>
    <path id="Fill-130" class="st7" d="M476.1 269.9c.3 0 .6-.2.7-.6 1.6-32 4.1-60.2 7.7-84 0-.3-.2-.7-.6-.7-.3 0-.7.2-.7.6-3.6 23.8-6.2 52-7.7 84.1-.1.2.1.5.6.6"/>
    <path id="Fill-132" class="st7" d="M474.1 405c.3 0 .7-.3.7-.7 0-18.3.4-96.8 1.6-123.4 0-.3-.2-.7-.6-.7-.3 0-.7.2-.7.6-1 26.6-1.6 105.2-1.6 123.5-.1.3.2.7.6.7"/>
    <path id="Fill-134" class="st7" d="M523.2 177.1c.2 0 .6-.2.6-.4 10.8-35.5 21.5-50.9 25.7-55.8.2-.2.2-.7-.1-.9-.2-.2-.7-.2-.9.1-4.3 5-15.1 20.5-25.9 56.3-.1.3.1.7.4.8h.2z"/>
    <path id="Fill-136" class="st7" d="M501.8 405c.3 0 .7-.2.7-.7.4-51.9 5-156.9 12.9-194.2.1-.3-.1-.7-.4-.8-.3-.1-.7.1-.8.4-7.9 37.3-12.4 142.4-12.9 194.4-.2.5.1.9.5.9"/>
    <path id="Fill-138" class="st7" d="M508.4 153.8c10.5 0 22.4-3.8 25.6-6.1.2-.2.3-.6.1-.9-.2-.3-.6-.3-.9-.1-3.4 2.5-20.4 7.7-31.8 5.2-4.4-1-7.3-3-9-5.9-.1-.3-.6-.4-.9-.2-.3.1-.4.6-.2.9 1.8 3.3 5 5.5 9.8 6.6 2.4.3 4.8.5 7.3.5"/>
    <path id="Fill-140" class="st7" d="M527.5 88.1c.4 0 .8 0 1.2-.1 6.3-.7 10.7-6.4 10.3-13.6 0-.3-.3-.7-.7-.6-.3 0-.7.3-.6.7.2 6.5-3.7 11.7-9.2 12.2-2.6.2-4.8-.4-6.6-1.9-2.1-1.9-3.4-4.9-3.5-8.6 0-.3-.3-.7-.7-.6-.3 0-.7.3-.6.7.1 4 1.6 7.4 3.9 9.5 1.9 1.5 4.1 2.3 6.5 2.3"/>
    <path id="Fill-142" class="st7" d="M508.7 79.6c.1 0 .2 0 .3-.1 1.3-1 5.9-1.1 8.9 0 .3.1.7 0 .8-.3.1-.3 0-.7-.3-.8-3.1-1.2-8.1-1.2-10 .1-.3.2-.3.6-.1.9.1.1.3.2.4.2"/>
    <path id="Fill-144" class="st7" d="M499.9 88.7c3.6 0 6.8-2 8.3-5.4 1.2-2.7 1.2-5 1-7.1 0-.3-.3-.6-.7-.6-.3 0-.6.3-.6.7.1 1.8.1 3.9-.9 6.4-1.5 3.5-5.3 5.3-9.1 4.4-3.6-.8-7.3-4.1-7.1-11.1 0-.3-.2-.7-.6-.7-.3 0-.7.2-.7.6-.2 7.7 3.9 11.4 8.1 12.4.8.3 1.6.4 2.3.4"/>
    <path id="Fill-146" class="st7" d="M538.8 76.8h.1l5.6-1.2c.3-.1.6-.4.4-.8-.1-.3-.4-.6-.8-.4l-5.6 1.2c-.3.1-.6.4-.4.8.1.2.3.4.7.4"/>
    <path id="Fill-148" class="st7" d="M421.7 292.8c.3 0 .6-.2.7-.6 0 0 .3-3.1.8-4.1.1-.3-.1-.7-.4-.8-.3-.1-.7.1-.8.4-.4 1.2-.8 4.3-.8 4.4-.2.3.1.7.5.7-.1 0 0 0 0 0"/>
    <path id="Fill-150" class="st10" d="M607.2 69.5c.3 0 .7-.3.7-.7 0-.3-.2-.7-.7-.7h-2.9c-.3 0-.7.3-.7.7 0 .3.2.7.7.7h2.9z"/>
    <path id="Fill-152" class="st10" d="M600.7 69.5c.3 0 .7-.3.7-.7 0-.3-.2-.7-.7-.7h-2.9c-.3 0-.7.3-.7.7 0 .3.2.7.7.7h2.9z"/>
    <path id="Fill-154" class="st10" d="M602.6 67.9c.3 0 .7-.2.7-.6v-4.1c0-.3-.2-.7-.7-.7-.3 0-.7.3-.7.7v4.1c.1.3.3.6.7.6"/>
    <path id="Fill-156" class="st10" d="M602.6 75.7c.3 0 .7-.3.7-.7v-4.7c0-.3-.2-.7-.7-.7-.3 0-.7.3-.7.7V75c0 .3.3.7.7.7"/>
    <path id="Fill-158" class="st10" d="M596.3 38.8c.3 0 .7-.2.7-.7 0-.3-.2-.7-.7-.7h-2.6c-.3 0-.7.2-.7.7 0 .3.2.7.7.7h2.6z"/>
    <path id="Fill-160" class="st10" d="M590.6 38.8c.3 0 .7-.3.7-.7 0-.3-.2-.7-.7-.7h-2.5c-.3 0-.7.3-.7.7 0 .3.2.7.7.7h2.5z"/>
    <path id="Fill-162" class="st10" d="M592.4 37.4c.3 0 .7-.2.7-.6v-3.6c0-.3-.2-.7-.7-.7-.3 0-.7.3-.7.7v3.6c0 .3.2.6.7.6"/>
    <path id="Fill-164" class="st10" d="M592.3 44.1c.3 0 .7-.3.7-.7v-4.1c0-.3-.2-.7-.7-.7-.3 0-.7.3-.7.7v4.1c.1.4.3.7.7.7"/>
    <path id="Fill-166" class="st1" d="M462.2 64.7s-1.6-.2-2.6-1.8-1.3-4.6-1.3-4.6 0 2.9-1 4.5-3 1.7-3 1.7 1.8.2 2.8 1.7c1 1.5 1.2 4.6 1.2 4.6s.1-2.8 1.1-4.3 2.8-1.8 2.8-1.8"/>
    <path id="Fill-168" class="st10" d="M460.5 64.7c-.6.3-1.2.8-1.7 1.6-.2.3-.4.8-.6 1.2-.2-.6-.4-1.1-.8-1.6-.4-.6-.9-1-1.3-1.2.6-.3 1.1-.7 1.6-1.3.2-.4.4-1 .7-1.5.2.6.4 1.1.7 1.6.4.4 1 .8 1.4 1.2m-2.2 6.7c.3 0 .6-.2.7-.6 0 0 .1-2.6 1-3.9.8-1.2 2.4-1.6 2.4-1.6.3-.1.6-.3.4-.7 0-.3-.2-.6-.6-.6 0 0-1.3-.2-2.1-1.5-.9-1.3-1.2-4.3-1.2-4.3 0-.3-.3-.6-.7-.6-.3 0-.6.3-.6.6 0 0-.1 2.8-1 4.1-.8 1.2-2.5 1.3-2.6 1.3-.3 0-.6.2-.6.6 0 .3.2.6.6.7 0 0 1.6.2 2.5 1.5.8 1.1 1.1 3.5 1.1 4.3.1.5.3.7.7.7"/>
    <path id="Fill-170" d="M444.7 121.3c-3-.3-9.9-.2-9.9-.2l-31.3.8 1.1 32.6 3.9 8.3s38.7-3.1 63.4 9c6.8 3.4 12.5 9.8 15.8 16.1 3.9 7.5 4.8 14.9 4.7 19.7-.1 6.2-3.1 17.9-9.5 26.7-5.3 7.2-12.9 11.6-22.3 15.5-10.8 4.5-24.3 4.1-35 4.1-10.9 0-18.9.3-18.9.3l.1 32.4 3.2 9s12.8.9 29.2 0c10.8-.6 23.5-1.7 34.3-5.4 12-4.1 21.4-11 29.3-19.5 8.5-9.2 15.1-20.2 18-31 2.5-9.5 4.9-21.1 4.4-35.6-.6-16.7-5-36.4-13.8-48.8-6.8-9.5-16.5-17.9-25.6-22.9-15.3-8.1-20.6-8.7-41.1-11.1" fill-rule="evenodd" clip-rule="evenodd" fill="#e0e4ee"/>
    <path id="Fill-172" class="st12" d="M444.6 121.9h.4c20 2.3 25.4 3 40.3 11.1 9.5 5.2 19 13.7 25.4 22.7 4.1 5.7 7.5 13.5 9.9 22.6 2.2 8.1 3.5 17.1 3.8 25.9.5 14.6-1.9 26.1-4.4 35.4-2.7 10.4-9.1 21.3-17.8 30.7-8.6 9.3-18.1 15.6-29 19.4-10.7 3.7-23.2 4.8-34.1 5.4-14.7.8-26.5.1-28.7 0l-3-8.6-.1-31.8c2-.1 9.2-.3 18.4-.3h2.2c10.2 0 22.8.1 33-4.2 11.1-4.6 17.9-9.3 22.6-15.7 6.1-8.3 9.5-20.1 9.6-27 .1-3.9-.5-11.8-4.8-19.9-3.7-7.1-9.8-13.2-16.1-16.3-12.9-6.3-29.5-8.4-41.2-9.1-11.2-.6-20.2-.1-22.1 0l-3.7-7.8-1.1-32 30.7-.8c.1 0 6.9-.1 9.8.3m-20 174.7c4.3 0 9.3-.1 14.6-.4 10.9-.6 23.6-1.7 34.4-5.4 11.1-3.8 20.8-10.3 29.5-19.7 8.9-9.6 15.3-20.7 18.1-31.2 2.5-9.4 4.9-21 4.4-35.7-.3-8.9-1.7-17.9-3.8-26.1-2.5-9.3-5.8-17.1-10-23-6.5-9.1-16.1-17.7-25.8-23-15.1-8.3-20.5-8.9-40.7-11.2h-.4c-3-.3-9.7-.2-10-.2l-31.9.8 1.2 33.3 4.1 8.7h.4c.1 0 9.8-.8 22.4-.1 11.6.7 28 2.8 40.7 9 6.1 3 12 8.9 15.6 15.8 4.2 7.9 4.7 15.5 4.6 19.4-.1 6.7-3.4 18.2-9.4 26.3-4.6 6.2-11.2 10.8-22.1 15.3-10 4.2-22.5 4.1-32.6 4.1h-2.2c-10.8 0-18.9.3-19 .3h-.5l.1 33.1 3.3 9.5h.4c0-.1 5.8.4 14.6.4"/>
    <path id="Fill-174" fill-rule="evenodd" clip-rule="evenodd" fill="#f48076" d="m404 121.6-63.2 1.5.4 31.3 4 8.9 31.2-.4 32.5-.4-3.9-7.7z"/>
    <path id="Fill-176" class="st12" d="m408 162-31.6.4-30.8.3-3.8-8.4-.4-30.6 62-1.4 1 32.8 3.6 6.9zm-63.2 1.8 31.6-.3 33.5-.4-4.3-8.4-1-33.6-64.2 1.5.4 32 4 9.2z"/>
    <path id="Fill-178" fill-rule="evenodd" clip-rule="evenodd" fill="#92bdf4" d="m406.7 253.9-68.1.2v32.4l5 9.7 66.7-.4-3.3-9.4z"/>
    <path id="Fill-180" class="st12" d="m409.6 295.2-65.6.4-4.8-9.2v-31.8l67-.2.2 32 3.2 8.8zm-66.3 1.5h.3l67.5-.4-3.6-10-.2-32.9-69.3.2v33.2l5.3 9.9z"/>
    <path id="Fill-182" class="st15" d="M525.1 206.1c.4 0 .7-.3.7-.7-.4-14.3-3.5-28.5-9-41-15.1-34.4-54.1-45.3-85.4-44.1l-90.4 2c-.4 0-.7.3-.7.7v32c0 .1 0 .2.1.3l4.3 8.1c.1.2.4.4.6.4l31.4-.1c.4 0 .7-.3.7-.7 0-.4-.3-.7-.7-.7l-30.9.1-4-7.5v-31.1l89.7-2c30.9-1.3 69.2 9.5 84 43.2 5.4 12.3 8.5 26.3 8.9 40.4 0 .4.4.7.7.7"/>
    <path id="Fill-184" class="st15" d="M492 204.4c.4 0 .7-.4.7-.8-1.4-24.9-15.2-40.7-41.1-47-9.4-2.3-26.7-2.5-33.7-2.5l-76.5-.3c-.4 0-.7.3-.7.7 0 .4.3.7.7.7l76.5.3c7 0 24.2.2 33.4 2.4 25.2 6.2 38.7 21.5 40 45.7 0 .5.3.8.7.8"/>
    <path id="Fill-186" class="st15" d="m339 287.4 87.9-.3h.3c43.6 0 66.2-9.9 86.3-37.9 5.2-7.2 9.2-16.6 11.1-25.9.1-.4-.2-.8-.6-.8-.4-.1-.8.2-.8.6-1.8 8.9-5.9 18.4-10.9 25.3-19.8 27.5-42.1 37.3-85.2 37.3h-.3l-87.8.3c-.4 0-.7.3-.7.7-.1.4.3.7.7.7"/>
    <path id="Fill-188" class="st15" d="M410.4 296.3c.1 0 .2 0 .3-.1.4-.1.5-.6.4-.9l-3.6-9.2v-31.4c0-.4-.3-.7-.7-.7-.4 0-.7.3-.7.7v31.6c0 .1 0 .2.1.3l3.7 9.3c-.1.2.2.4.5.4"/>
    <path id="Fill-190" class="st15" d="M408.3 162.8c.1 0 .2 0 .3-.1.4-.2.5-.6.3-1l-3.6-7.3-.8-32.1c0-.4-.3-.7-.7-.7-.4 0-.7.3-.7.7l.8 32.2c0 .1 0 .2.1.3l3.7 7.4c.1.5.4.6.6.6"/>
    <path id="Fill-192" class="st15" d="M315 154h.2l15.1-4.5c.4-.1.6-.5.5-.9-.1-.4-.5-.6-.9-.5l-14.1 4.2.1-4.8c0-.2-.1-.4-.3-.6-.2-.1-.4-.2-.6-.1l-20.3 4.5c-.4.1-.6.5-.5.9.1.4.5.6.9.5l19.4-4.3-.1 4.9c0 .2.1.4.3.6 0 0 .2.1.3.1"/>
    <path id="Fill-194" class="st15" d="M300.9 154.4c.3 0 .6-.2.7-.6.1-.4-.2-.8-.6-.8l-5.5-1.2 4-3.4c.3-.3.3-.7.1-1-.3-.3-.7-.3-1-.1l-5.1 4.3c-.2.2-.3.5-.2.7.1.3.3.5.5.5l6.9 1.5c.1.1.2.1.2.1"/>
    <path id="Fill-196" class="st15" d="M326.9 134.6c.3 0 .6-.2.7-.6.1-.4-.2-.8-.6-.8l-14.5-2.7 2.3-4.3c.1-.2.1-.4 0-.6s-.3-.3-.5-.4l-20.1-5.3c-.4-.1-.8.1-.9.5-.1.4.1.8.5.9l19.2 5-2.3 4.3c-.1.2-.1.4 0 .6.1.2.3.4.5.4l15.5 2.9c.1.1.1.1.2.1"/>
    <path id="Fill-198" class="st15" d="M298.6 125.7c.2 0 .4-.1.6-.3.2-.3.2-.8-.1-1l-4.4-3.6 5.1-1.2c.4-.1.6-.5.5-.9-.1-.4-.5-.6-.9-.5l-6.5 1.5c-.3.1-.5.3-.5.5-.1.3 0 .5.2.7l5.5 4.5c.2.3.4.3.5.3"/>
    <path id="Fill-200" class="st15" d="M312.6 288.3h.2l15.1-4.5c.4-.1.6-.5.5-.9-.1-.4-.5-.6-.9-.5l-14.1 4.2.1-4.8c0-.2-.1-.4-.3-.6-.2-.1-.4-.2-.6-.1l-20.3 4.5c-.4.1-.6.5-.5.9.1.4.5.6.9.5l19.4-4.3-.1 4.9c0 .2.1.4.3.6 0 .1.2.1.3.1"/>
    <path id="Fill-202" class="st15" d="M298.5 288.7c.3 0 .6-.2.7-.6.1-.4-.2-.8-.6-.8l-5.5-1.2 4-3.4c.3-.3.3-.7.1-1-.3-.3-.7-.3-1-.1l-5.1 4.3c-.2.2-.3.5-.2.7.1.3.3.5.5.5l6.9 1.5c.1.1.2.1.2.1"/>
    <path id="Fill-204" class="st15" d="M324.5 268.9c.3 0 .6-.2.7-.6.1-.4-.2-.8-.6-.8l-14.5-2.7 2.3-4.3c.1-.2.1-.4 0-.6-.1-.2-.3-.4-.5-.4l-20.1-5.3c-.4-.1-.8.1-.9.5-.1.4.1.8.5.9l19.2 5-2.3 4.3c-.1.2-.1.4 0 .6.1.2.3.4.5.4l15.5 2.9c.1.1.1.1.2.1"/>
    <path id="Fill-206" class="st15" d="M296.2 260c.2 0 .4-.1.6-.3.2-.3.2-.8-.1-1l-4.4-3.6 5.1-1.2c.4-.1.6-.5.5-.9-.1-.4-.5-.6-.9-.5l-6.5 1.5c-.3.1-.5.3-.5.5-.1.3 0 .5.2.7l5.5 4.5c.2.3.4.3.5.3"/>
    <path id="Fill-208" class="st5" d="M496 166.3s-4.6-1.6-9.5-3.5c-3.3-1.2-7-3.2-8.5-3-1.5.2-2.1 1.7-1.2 4.1.7 2.3 4.3 5.4 4.3 5.4s-6.3 2.2-13.3 4.3c-5.9 1.7-12.5 3.3-15.5 5.2-1.2.7-1.9 3.3-1.7 3.8.4.9 3.8 1.7 8.4 1.4 6.8-.5 16-2.7 21.8-3.3 3.3-.4 4.7.5 4.7.5s-5.4 4.9-5.6 9c-.1 4.2 4.8 7.5 4.8 7.5s-1.1 3.1.5 5.6c1.6 2.3 6 3.9 6 3.9s-.5 7.2 5.3 4.9c2.7-1 7-2.8 10.5-3.1 5.2-.5 10.1 2.5 15.5 4.1 4.4 1.2 9.4 1.1 13 2.2 6.4 2 10.2 7.3 13.8 11 6.2 6.4 9.4 11.5 9.4 11.5s5.1-6.8 6.8-17.4c1.4-8.4-1.5-16-1.5-16s-4.9-3.9-12.8-9.4c-9.4-6.4-22.2-14.8-29-19.7-5.9-4.3-10.1-6.9-14.2-8.1-7.1-2-12-.9-12-.9"/>
    <path id="Fill-210" class="st7" d="M563.5 204.8c.2 0 .4-.1.6-.2.2-.2.1-.7-.1-1l-1.6-1.2c-6.7-4.9-13-9.5-17.5-12.2-8-4.8-13.7-8.8-18.6-12.3-5.1-3.7-9.4-6.8-15.2-9.9-7.7-4.1-19.6-1.4-26 .1l-.4.1c-4.6 1.1-8.9 2.3-13.6 3.8-1.9.6-3.8 1.2-5.8 1.9-1.5.5-3 .9-4.4 1.2-7 2-11.6 3.2-11.4 7.2 0 .6.4 1.1.9 1.5 2.7 2.1 11.5 1 15.1.4 2.7-.5 5.3-1 7.5-1.5 5.9-1.2 10.2-2.2 12.5-.5.4.2.7.1 1-.1.2-.4.1-.7-.1-1-2.8-2-7.3-1-13.6.2-2.2.5-4.8 1-7.5 1.5-6.9 1.1-12.5 1.1-13.9-.1-.2-.2-.4-.4-.4-.5-.2-2.6 3.3-3.7 10.2-5.7 1.4-.4 2.8-.7 4.4-1.2 2.1-.6 3.9-1.2 5.9-1.9 4.6-1.5 8.9-2.7 13.4-3.8l.4-.1c6.3-1.5 18-4.1 25.2-.2 5.7 3.1 10 6.2 15.1 9.7 4.9 3.6 10.6 7.7 18.6 12.5 4.6 2.7 10.7 7.3 17.4 12.2l1.6 1.2c0-.2.2-.1.3-.1"/>
    <path id="Fill-212" class="st7" d="M484.2 198.3c.1 0 .4-.1.5-.2.2-.2.2-.7 0-1-3-2.8-4.4-5.2-4.3-7.3.1-2.8 2.8-5.1 5.7-7.5 2.2-1.9 4.6-3.8 5.8-6.2.1-.4 0-.7-.2-1-.4-.1-.7 0-1 .2-1.1 2.1-3.3 3.9-5.6 5.7-3 2.5-6.2 5.1-6.3 8.5-.1 2.6 1.5 5.3 4.8 8.4.2.2.4.4.6.4"/>
    <path id="Fill-214" class="st7" d="M490.8 207.9c.2 0 .5-.1.6-.5.1-.4 0-.7-.4-.9-3.5-1.2-5.4-3-6-4.8-1-3.2 2.1-7.2 4.7-10.6 1.1-1.5 2.2-3 2.8-4.2.1-.4 0-.7-.2-1-.4-.1-.7 0-1 .2-.6 1.1-1.6 2.5-2.7 3.9-2.8 3.7-6 7.9-4.9 11.8.7 2.5 3 4.3 6.9 5.8.1.3.2.3.2.3"/>
    <path id="Fill-216" class="st7" d="M558.6 238.3c.1 0 .2 0 .5-.1.2-.2.4-.6.1-1-2.2-2.7-4.1-4.9-5.7-6.9l-2-2.5c-11.2-13.8-17.2-14.1-22.8-14.3-1.8-.1-3.7-.1-5.7-.7-2.7-.9-4.9-1.6-6.9-2.3-4.9-1.7-8.3-3-12-1.7-1.6.5-3.1 1.1-4.4 1.6-4.2 1.7-5.9 2.2-7.4-.2-1.4-2.5 2-6 4.7-8.9 1.5-1.5 2.7-2.8 3.3-3.9.1-.4 0-.7-.2-1-.4-.1-.7 0-1 .2-.5 1-1.7 2.3-3.1 3.7-3.1 3.2-6.8 7-4.9 10.5 2.1 3.7 5.2 2.5 9.1.9 1.2-.5 2.7-1.1 4.3-1.6 3.3-1 6.3 0 11.1 1.7 2 .7 4.3 1.5 7 2.3 2.1.6 4.1.7 6 .9 5.3.2 10.9.5 21.7 13.7l2 2.5c1.6 2 3.5 4.2 5.7 6.9.2 0 .4.2.6.2"/>
    <path id="Fill-218" class="st7" d="M481.3 170c.2 0 .4-.1.5-.2.2-.2.1-.7-.1-1-3.8-2.8-5.2-6.5-4.4-7.8.4-.6 1.2-.5 2-.2 1.4.5 2.8 1.1 4.3 1.7 3.6 1.5 8 3.3 13 4.7.4.1.7-.1.9-.5.1-.4-.1-.7-.5-.9-4.8-1.2-9-3-12.7-4.6-1.6-.6-3.1-1.4-4.4-1.9-1.6-.6-3-.2-3.6.9-1.1 2 .4 6.3 4.8 9.6 0 .1.1.2.2.2"/>
    <path id="Fill-220" class="st5" d="M414 293.8s-2 .1-5.6-3.5c-1-1-1.8-4.7-3.3-5.8-1.6-1.3-5.4-3.8-7-5-4.6-3.8-8.9-8.3-12.9-8.3-1.7 0-2.8 1.6-.7 4 2.2 2.7 7.9 6.4 6.7 7.9-1.8 2.4-13.1-4-16.7-8.7-3.4-4.4-4.9-9.2-8.7-11.4-2.1-1.2-3.8-.4-3.8-.4s-6.1-9.3-8.3-8.4c-.6.2-1.1 2-.8 4.3 1 6.4 5.6 18.1 5.6 18.1s-2.4-2.6-4.6-7c-2.6-4.8-5.3-11.8-7.6-14.5-1.7-2-2.6 0-2.9.3-.6.6-.2 4.6.8 8.2 2.4 8.3 7.5 19.6 7.5 19.6s-6.8-1.8-10.3-.9c-1.2.3-3 2.8-2.5 3.4.6.6 3.1 1.7 5.6 2.4.9.2 6.1 2.8 7.1 2.9 5.6.3 7.3.3 7.3.3l7.2 3.6s3.7 1.1 10 2.6c3.8.9 9.8 1.3 13.9 3.9l24 14.1s2.7-4.1 2.5-9.6c-.6-7.8-2.5-12.1-2.5-12.1"/>
    <path id="Fill-222" class="st7" d="M415 296.4c.2 0 .9.4.9.1.1-.3-1.2-3-1.5-3.1-5.4-1.8-5.8-3.6-6.3-5.6-.2-.9-.4-1.9-1.2-2.8-1.3-1.7-3.3-2.9-5.2-4-1.5-.9-2.9-1.8-4-2.9-4-4-9.8-8.6-13.5-7.2-.9.3-1.2.9-1.2 1.3-.3 1.7 1.7 3.8 4.7 6.8 1.5 1.5 3.3 3.1 3.4 3.8v.4c-.2.2-1.5.3-8.6-3.4-5.3-2.8-7.1-5.7-9.1-8.9-.7-1.1-1.3-2.2-2.2-3.5-3-4-5.4-6.8-8.3-5.8-.4.1-.8.4-.9.9-.7 1.7.9 5.3 3.6 11 .4 1 1 2 1.5 3 .3.7.6 1.3.9 1.9 1.9 4.4 2.6 5.8 6.7 8.6.3.2.7.1.9-.2.2-.3.1-.7-.2-.9-3.9-2.6-4.5-3.9-6.3-8.1-.2-.6-.6-1.2-.9-1.9-.4-1-.9-2-1.5-3-1.8-3.9-4.1-8.7-3.6-10 0-.1.1-.1.1-.1 1.9-.7 3.8 1.3 6.8 5.4.9 1.1 1.6 2.2 2.2 3.4 1.9 3.1 3.9 6.4 9.5 9.3 6.2 3.3 8.9 4.1 10 3.3.3-.2.7-.7.4-1.7-.2-1-1.6-2.4-3.7-4.5-1.8-1.8-4.6-4.5-4.4-5.6 0-.1 0-.2.4-.4 2.4-.9 6.8 1.6 12.1 7 1.2 1.2 2.8 2.1 4.3 3 1.8 1.1 3.6 2.1 4.8 3.7.6.7.8 1.5 1 2.4.6 2.1 1.1 4.5 7.1 6.5.3-.2 1.1 1.8 1.3 1.8"/>
    <path id="Fill-224" class="st7" d="M367.4 290.7c.2 0 .3-.1.4-.2.2-.2.2-.7-.1-.9-5.4-4.7-6.4-7.8-8.3-13.8l-.6-1.7c-.3-1.1-.8-2.2-1.2-3.6-1.1-3.1-2.5-7.1-3.6-10.9-.9-2.9-.7-4.6-.1-4.9.4-.2 1.2 0 2.1.8 2.8 2.2 5.4 8.1 5.4 8.1.1.3.6.4.8.3.3-.1.4-.6.3-.8-.1-.2-2.8-6.2-5.8-8.5-1.9-1.6-3.1-1.1-3.6-.8-1.2.8-1.5 3.1-.4 6.4 1.1 3.8 2.5 7.7 3.6 11 .4 1.3.9 2.6 1.2 3.6l.6 1.7c1.9 5.8 3 9.4 8.6 14.4.4-.3.5-.2.7-.2"/>
    <path id="Fill-226" class="st7" d="M362 293.4c.2 0 .3-.1.4-.2.2-.2.2-.7-.1-.9-.7-.6-1.5-1.2-2.1-1.8-3.6-2.9-7-5.7-9.3-11.2-2.9-6.7-5.3-13-6.1-16.4-1.3-6.1-.9-7.6-.3-8.1.2-.2.8-.2 1.5 0 1.1.4 3.4 5.4 5.2 9.4 2.5 5.5 4.9 11.1 7.3 12.9.2.2.7.1.9-.1.2-.2.1-.7-.1-.9-2.1-1.6-4.7-7.3-7-12.4-2.6-5.8-4.3-9.5-5.8-10.1-1.1-.4-2.1-.3-2.7.2-1.2 1.1-1.2 3.8 0 9.3.8 3.5 3.1 9.9 6.1 16.6 2.5 5.7 5.9 8.6 9.6 11.7.7.6 1.3 1.1 2.1 1.8.1.2.2.2.4.2"/>
    <path id="Fill-228" class="st7" d="M413.9 315.9c.2 0 .4-.1.6-.3.1-.3 0-.7-.3-.8-6.1-2.5-11.7-6.3-16.1-9.2-2.8-1.9-5.3-3.5-7.3-4.5-3.4-1.7-8.2-2.8-13.3-3.9-6.1-1.3-12.2-2.8-15.8-5.2-2.5-1.6-4.5-1.6-6.5-1.5-2 .1-4.1.1-6.8-1.6-2.2-1.5-4.4-2-5.9-2.6-1.1-.3-2.2-.7-2.4-1.1 0-.1-.1-.4.4-1.2 1.6-2.6 8.7-1.1 11.3-.2.3.1.7-.1.8-.4.1-.3-.1-.7-.4-.8-1-.3-10.4-3-12.8.8-.6 1-.8 1.7-.6 2.4.3 1 1.6 1.3 3.1 1.8 1.6.4 3.6 1.1 5.7 2.4 3 1.9 5.5 1.8 7.5 1.7 2-.1 3.7-.1 5.8 1.2 3.8 2.5 10.1 3.9 16.3 5.4 5 1.1 9.9 2.2 13 3.8 2 1 4.4 2.6 7.2 4.5 4.6 3 10.2 6.8 16.4 9.4h.1z"/>
  </g>
  <g id="tile1" class="circle circle-1">
    <path id="Fill-232" class="st2" d="M247.2 120.8c0-21.2-17.2-38.4-38.5-38.4s-38.5 17.2-38.5 38.4 17.2 38.4 38.5 38.4 38.5-17.2 38.5-38.4"/>
    <path id="Fill-236" class="st5" d="M199.9 130.5c.2 6.5 7.3 11.6 13.6 11.3 2.2-.1 6.1-1 6.8-3.5.7-2.3-1.1-4.5-.1-6.7.7-1.7 1.8-3.2 2.6-4.9 1.3-2.8 1.6-5.7 2.3-8.7.6-2.7 1.1-4.7.3-7.4-.7-2.2-1.5-5.4-3.3-7-1.4-1.2-2.1-1.3-3.8-1.6-6.3-1.2-11.5.8-15.3 6.3-1.6 2.3-4 3.4-4.6 6.3-.4 1.9.8 5.5.6 7.3s.2 4.2.5 6c.2.9.3 1.4.4 2.6"/>
    <path id="Fill-248" d="m215.9 131.4.5-1.6s7.2 3.5 10.2 4.3c3 .8 4.5 5.1 5.3 6.7 1.4 2.7 2.9 8.4 2.9 8.4s-4 3.7-4.9 4c-2.3.8-4 2.2-6.3 3.1-7.6 3.1-15.7 3.8-23.9 2.1-1.8-.4-4.9-1.9-6.7-2.4-3.4-1.1-6-2.9-8.5-5.3-1-1-2.8-2.5-2.8-2.5s1-3.8 1.4-4.6c1.1-2.7 2-5.2 4.4-7.1 2.1-1.6 4.9-2.4 7.2-3.5 1.5-.7 5.3-2.6 5.3-2.6s1.4 2.9 2 3.6c2.3 2.6 7 6.1 10.9 4.7 1.9-.7 4-1.5 4.1-3.7.1-1.3-1.1-3.6-1.1-3.6" fill-rule="evenodd" clip-rule="evenodd" fill="#87919d"/>
    <path id="Fill-252" d="M216.5 128.2s-.6 1.1.1 1.6c1.3.8 4.4 1.3 5.7 1.3.3 0 1.7.2 2-.1.3-.5-.1-1.4-.1-2.4s.4-2.1.5-2.6c.9-3.4 3.2-6.5 3.3-10.2.2-6.4-3-14.6-7.7-18.8-2.6-2.3-5.2-3.4-8.6-3.3-1.5 0-3.5.5-5.2.9-1.9.4-4.2 1-5.6 2.2-5.9 5-7.8 14.9-7.8 21.5 0 3.4 1 8.5 3 10.7 1 1.1 2.7 1 4.5 1.4 1.1.2 5.2.8 5.6-.4.3-.8-.6-.7-1.3-1.5-.7-.8-1.5-2-1.7-3-.3-1.3.5-3.4 0-4.7-.2-.6-.8-.7-1.3-1.2-1-.8-2.2-1.7-2.6-2.7-.5-1.5 0-2.9.5-3.4 1.2-1 3.5-.3 4.5-.8 4.7-2.4 8.3-10.4 14.3-9.7 2.9.3 3.8 3.2 4.5 5.6.6 2 .5 5.1.3 7.3-.4 3.7-1.2 5.6-2.5 8.6-.3.6-1.6 2.3-2.1 2.6-1.1.6-2.3 1.1-2.3 1.1" fill-rule="evenodd" clip-rule="evenodd" fill="#cbac8f"/>
    <path id="Fill-256" class="st15" d="M214.8 128.8c.3 0 .6 0 1-.1 5.9-.7 8-9.6 7.9-11.9 0-.3-.3-.5-.6-.5s-.5.3-.5.6c.1 1.9-1.9 10.2-6.9 10.7-2.9.3-5.5-1.1-6.2-1.6-2.3-1.5-3.6-3.6-4.1-4.7-.1-.3-.5-.4-.7-.3-.3.1-.4.5-.3.7.6 1.2 1.9 3.5 4.5 5.1.7.6 3.1 2 5.9 2"/>
    <path id="Fill-258" class="st15" d="M217.1 119c.2 0 .3-.1.4-.2 1-1.2.4-2.1 0-2.6-.1-.1-.2-.2-.2-.3-.3-.6-.4-1.2-.2-1.8.1-.3-.1-.6-.4-.7-.3-.1-.6.1-.7.4-.2.8-.1 1.7.3 2.6.1.2.2.3.3.5.3.5.5.7 0 1.2-.2.2-.1.6.1.8.1 0 .2.1.4.1"/>
    <path id="Fill-260" class="st15" d="M219 111.3c.1 0 .2 0 .3-.1.5-.4 1.5-.5 2-.1.2.2.6.2.8-.1s.2-.6-.1-.8c-1-.8-2.6-.6-3.4 0-.2.2-.3.5-.1.8.1.3.3.3.5.3"/>
    <path id="Fill-262" class="st15" d="M210 111.8c.1 0 .3-.1.4-.2.7-.7 2.2-.7 2.7-.4.3.2.6.1.8-.2.2-.3.1-.6-.2-.8-.9-.6-3-.4-4 .6-.2.2-.2.6 0 .8 0 .1.2.2.3.2"/>
    <path id="Fill-264" class="st15" d="M221.4 113.9c0-.6-.4-1.1-.9-1.1s-.9.5-.9 1.1c0 .6.4 1.1.9 1.1s.9-.5.9-1.1"/>
    <path id="Fill-266" class="st15" d="M212.6 114.2c0-.6-.5-1.1-1-1.1s-.9.6-.9 1.2.5 1.1 1 1.1.9-.5.9-1.2"/>
    <path id="Fill-268" class="st15" d="M202.1 119.9h.2c.3 0 .5-.3.5-.6s-.3-.5-.6-.5c-1.2.1-2.5-1.4-2.6-3-.1-.9.3-1.9.9-2.3.4-.2.9-.2 1.4.2.2.2.6.1.8-.1.2-.2.1-.6-.1-.8-1.2-.9-2.2-.6-2.6-.3-1 .6-1.6 2-1.4 3.4.1 1.9 1.7 4 3.5 4"/>
    <path id="Fill-270" class="st15" d="M201.8 117.3h.2c.3-.1.5-.4.4-.7-.2-.7-.8-1.5-1.5-1.8-.3-.1-.6 0-.7.2-.1.3 0 .6.2.7.4.2.8.7.9 1.1.1.3.3.5.5.5"/>
    <path id="Fill-272" class="st15" d="M223.5 113.1c.3 0 .5-.2.6-.5.1-3-.8-9.6-4.3-10.2-.3-.1-.6.2-.6.5s.2.6.5.6c2.5.4 3.5 6 3.3 9.1-.1.2.1.5.5.5"/>
    <path id="Fill-274" class="st15" d="M181.8 148.6c.3 0 .5-.2.5-.5 0-.1 1.1-6.2 5-10.5 1.9-2.1 4.7-3.1 7.4-4.1 2.2-.8 4.4-1.6 5.8-2.9.2-.2.2-.6 0-.8-.2-.2-.6-.2-.8 0-1.2 1.2-3.2 1.9-5.4 2.7-2.7 1-5.7 2.1-7.9 4.4-4.1 4.5-5.2 10.8-5.3 11 .1.4.3.7.7.7-.1 0-.1 0 0 0"/>
    <path id="Fill-276" class="st15" d="M230.1 153h.2c.3-.1.4-.4.3-.7l-.4-1c-.8-2.1-1.6-4.2-1.9-6.4-.1-.3-.3-.5-.6-.5-.3.1-.5.3-.5.6.4 2.3 1.2 4.5 2 6.6l.4 1c.1.3.3.4.5.4"/>
    <path id="Fill-278" class="st15" d="M234.7 149.4h.2c.3-.1.5-.4.4-.7 0 0-1.4-4.7-2.8-8.1l-.1-.2c-.9-2.1-1.9-4.5-3.8-5.9-1.1-.8-2.5-1.2-3.8-1.5l-.4-.1c-.6-.2-1-.4-1-.4-.3-.1-.6-.1-.8.2-.1.3-.1.6.2.8 0 0 .5.3 1.2.5l.4.1c1.2.3 2.5.7 3.4 1.3 1.7 1.2 2.6 3.5 3.4 5.4l.1.2c1.4 3.3 2.7 8 2.7 8 .2.3.4.4.7.4"/>
    <path id="Fill-280" class="st15" d="M215.1 135.2c.2 0 .4-.1.5-.4.5-1.3 1.2-4.6 1.5-6.6 0-.3-.2-.6-.5-.6s-.6.2-.6.5c-.3 1.9-1 5.1-1.4 6.3-.1.3 0 .6.3.7 0 .1.1.1.2.1"/>
    <path id="Fill-282" class="st15" d="M211 139.5c2.2 0 4.3-.7 5.6-2 1.6-1.6 1.3-4.3.1-5.9-.2-.2-.5-.3-.8-.1-.2.2-.3.5-.1.8.9 1.2 1.1 3.3 0 4.4-1.3 1.3-3.5 1.9-5.7 1.7-1.9-.2-5.4-1.2-8.2-5.5-.2-.3-.5-.3-.8-.2-.3.2-.3.5-.2.8 3.1 4.8 7 5.8 9.1 6 .3-.1.6 0 1 0"/>
    <path id="Fill-284" class="st15" d="M203.8 111.6c2.9 0 5.5-2.7 7.2-4.4l.5-.5c1.8-1.8 3.1-3.1 5.5-3.2.3 0 .5-.3.5-.6s-.3-.5-.6-.5c-2.9.1-4.4 1.7-6.2 3.5l-.5.5c-2 2-5 5.1-7.8 3.8-.3-.1-.6 0-.7.3-.1.3 0 .6.3.7.6.3 1.2.4 1.8.4"/>
    <path id="Fill-286" class="st15" d="M215.8 101.2h.2c.3-.1.4-.4.3-.7-.7-2.1-3-3.9-4.9-4.5-.3-.1-.6.1-.7.4-.1.3.1.6.4.7 1.7.6 3.6 2.3 4.2 3.8.1.2.3.3.5.3"/>
    <path id="Fill-288" class="st15" d="M196.5 129.9c.1 0 .3 0 .4-.1.2-.2.3-.6.1-.8-3.4-4-3.5-10.1-3.2-14.4.5-8.3 4.8-15.1 8.5-17.9 1.7-1.3 3.4-1.8 4.8-1.4.3.1.6-.1.7-.4.1-.3-.1-.6-.4-.7-1.8-.4-3.7.1-5.8 1.6-3.9 2.9-8.4 10-8.9 18.7-.3 4.5-.2 11 3.5 15.2 0 .1.1.2.3.2"/>
    <path id="Fill-290" class="st15" d="M224.7 130.8c.1 0 .2 0 .3-.1.3-.2.3-.5.2-.8-1.1-1.8-.4-3.4.7-5.8 1.6-3.5 3.8-8.2 1.8-16.5-1.5-6-5.5-11.2-10.5-13.5-3.1-1.4-6.1-1.5-8.4-.3-.3.1-.4.5-.2.7.1.3.5.4.7.2 2-1 4.7-.9 7.5.4 3.7 1.7 8.2 5.9 9.9 12.8 1.9 7.9-.2 12.5-1.7 15.8-1.2 2.6-2.1 4.6-.7 6.9.1.1.2.2.4.2"/>
    <path id="Fill-292" class="st15" d="M202.7 131c.5 0 .9-.1 1.3-.2.3-.1.5-.4.4-.7-.1-.3-.4-.5-.7-.4-1.9.5-4.5-.4-5.2-2.4-.1-.3-.4-.4-.7-.3-.3.1-.4.4-.3.7.8 2.1 3.1 3.3 5.2 3.3"/>
    <path id="Fill-294" class="st15" d="M206.4 130.1c.2 0 .4-.1.5-.2.2-.3.1-.6-.2-.8-2.5-1.6-3.8-3.5-3-8 .1-.3-.1-.6-.4-.6-.3-.1-.6.1-.6.4-1 5.3 1.1 7.5 3.5 9.1 0 .1.1.1.2.1"/>
    <path id="Fill-296" class="st15" d="M220.9 131.4h.4c.3 0 .5-.3.5-.6s-.3-.5-.6-.5c-1 .1-3.3-.3-4.2-1-.2-.2-.6-.1-.8.1-.2.2-.1.6.1.8 1.2.8 3.4 1.2 4.6 1.2"/>
    <path id="Fill-298" class="st15" d="M215.3 123.8c1 0 2-.2 2.6-.5.3-.1.4-.5.2-.7-.1-.3-.5-.4-.7-.2-.9.4-3 .6-4.2-.1-.3-.1-.6-.1-.8.2-.1.3-.1.6.2.8.9.3 1.8.5 2.7.5"/>
    <path id="Fill-300" class="st15" d="M208.8 83.2c20.9 0 37.8 16.9 37.8 37.8 0 20.8-17 37.8-37.8 37.8-20.9 0-37.8-16.9-37.8-37.8s16.9-37.8 37.8-37.8m0 76.6c21.5 0 38.9-17.4 38.9-38.9 0-21.4-17.5-38.9-38.9-38.9s-38.9 17.4-38.9 38.9 17.4 38.9 38.9 38.9"/>
    <path id="Fill-302" class="st15" d="M192.8 156.1c.3 0 .5-.2.5-.5.3-2 .6-4.7.7-6.7 0-.3-.2-.6-.5-.6s-.6.2-.6.5c-.1 2-.4 4.6-.7 6.6 0 .4.2.6.6.7"/>
  </g>
  <g id="tile2" class="circle circle-2">
    <path id="Fill-234" class="st2" d="M164.3 202.4c0-23.8-19.2-43.1-42.9-43.1s-42.9 19.3-42.9 43.1 19.2 43.1 42.9 43.1 42.9-19.3 42.9-43.1"/>
    <path id="Fill-238" class="st5" d="M121.8 237.3c-3.7-2.8-2.9-8.3-4.6-12.4-1.4-3.3-4.3-5.7-5.4-9.2-.5-1.6.5-3.6.4-6.1 0-1.2-1.1-4.3-1.1-4.3s-5.3-3.2-3.8-7.1c.7-1.7 3.3-1 4.2-2.7 1.1-2.1 1.3-4.5 2.4-6.5 2.1-3.8 8.8-6 12.8-5.1.7.2 1.2.7 1.8 1.1 2.4 1.5 4.7 3.4 5.6 6.3.5 1.6.9-.2 1.3 1.4.1.4-.3 5.5-.3 5.5s1.7 0 2.2.7c.8 1.1.4 2.2 0 3.4-.4 1.2-2.9 3.4-2.9 3.4s-.6 2.4-1.6 4.5c-.6 1.2-1.5 1.9-1.8 2.8-.9 3.2-.4 6.4-1.5 9.7-1.4 4.1-3.7 7.2-5.6 11-.4 1-1 4.4-2.1 3.6"/>
    <path id="Fill-242" d="M131.4 214.6s2.4.5 6.5 2.2c4.1 1.6 9.8 4.3 9.8 4.3 1.8.7 4.7 1.8 6.6 2.6 1.5.7 2.8 2.3 2.8 2.3s-2.9 4.6-3.8 5.4c-2.1 2.1-3.7 3.3-5.8 5.3-6.2 5.7-14 7.5-22 8.6-5.1.7-12.1.1-17.1-1.7-4.6-1.6-8.1-3.1-11.9-5.9-2.4-1.8-3.4-2.6-5.6-4.7-1.3-1.2-5.5-7.2-5.5-7.2s3.9-1.7 5.2-2.4c3.7-2.1 8.7-3 12.2-5.4 1.1-.8 7.3-3.5 7.3-3.5l2.2-3.5s.2 3.1.5 3.8c.8 2.2 5.1 6.2 6.2 8.6 1 2.3.1 3.4 1 5.7.3.7 1 2.2 1.2 2.8.5 1.5.5 4.5 1 4.2.4-.2 1.6-4.9 1.9-6.1.6-2.2.2-4.9 1.2-7.2.9-2.1 3.8-4 4.2-4.7 1-1.6 1.9-3.5 1.9-3.5" fill-rule="evenodd" clip-rule="evenodd" fill="#d3d9e5"/>
    <path id="Fill-244" class="st1" d="M121.6 208.8c.3-1.1.3-.5 2.5-.5.4 0 3 .2 3.4.3 1.3.3-.7 2.4-1.4 2.9-1.5 1.3-5-1-4.5-2.7"/>
    <path id="Fill-250" d="M120.9 185.8c1.6-.4 4.2-.4 5.9.2 2.4.8 2.3 2.7 4 4.6.8 1 4.6 1.8 4.6 1.8l-.4 5.8 2.4.1c.8-2.2 2.5-10.3 1.7-12.5-.7-2.1-2.4-4.9-4.1-6.2-3.8-3.1-7.6-6.1-12.9-5.8-1.5.1-3.1 1.8-4.9 2.6-1.3.6-3.8-.1-4.7.7-1.6 1.6-4.1 3.5-4.5 5.9-.3 1.3-.7 5.1-.8 7.4-.1 2.3.8 6.7.8 6.7s2.3 1.2 3.7-.4c2.2-2.7 3.2-5 4.4-7.3.7-.9 1.1-2.7 4.8-3.6" fill-rule="evenodd" clip-rule="evenodd" fill="#fedf9f"/>
    <path id="Fill-304" class="st15" d="M157.1 226.4c.1 0 .3 0 .4-.1.2-.2.2-.6 0-.8-2-2.2-3.8-2.7-5.9-3.4-1.1-.3-2.3-.7-3.7-1.3-4.6-2.2-10.3-4.8-13.2-5.4-.3-.1-.6.1-.7.4-.1.3.1.6.4.7 3.2.7 10 3.9 13 5.3 1.4.7 2.7 1.1 3.8 1.4 2 .6 3.6 1.1 5.4 3.1.2 0 .4.1.5.1"/>
    <path id="Fill-306" class="st15" d="M85.8 226c.1 0 .2 0 .3-.1 2.1-1.4 4.2-2.1 6.7-2.8 1.3-.4 2.6-.8 4-1.4 2.3-.9 4.6-2.2 7-3.5 2-1.1 4.1-2.3 6.6-3.5.3-.1.4-.5.3-.7-.1-.3-.5-.4-.7-.3-2.5 1.2-4.6 2.3-6.6 3.5-2.3 1.3-4.6 2.6-6.8 3.4-1.4.5-2.7 1-4 1.4-2.4.8-4.7 1.5-6.9 3-.3.2-.3.5-.2.8-.1.1.1.2.3.2"/>
    <path id="Fill-308" class="st15" d="M123.6 217.8c5.3 0 9.2-4.3 11.5-12.8.1-.3-.1-.6-.4-.7-.3-.1-.6.1-.7.4-2.2 8.3-5.9 12.3-11 12-5.4-.4-9.4-5.3-10.6-9.9-.1-.3-.4-.5-.7-.4-.3.1-.5.4-.4.7 1.3 5.1 5.7 10.4 11.6 10.8.3-.1.5-.1.7-.1"/>
    <path id="Fill-310" class="st15" d="M111 205.6c.3 0 .5-.2.6-.5 0-.3-.2-.6-.5-.6-1.7-.2-3.5-2.2-3.5-4.7 0-1.1.4-1.9.9-2.1.5-.2 1.1 0 1.8.6.2.2.6.2.8 0 .2-.2.2-.6 0-.8-1-.9-2.1-1.2-3-.8-1 .4-1.6 1.5-1.6 3.1-.1 3.1 2.3 5.6 4.5 5.8"/>
    <path id="Fill-312" class="st15" d="M134.6 205.9c.1 0 .2 0 .3-.1.1 0 1.9-1 2.9-3.6.7-1.7.6-3 0-3.9-.3-.4-1-.9-2.3-.7-.3 0-.5.3-.5.6s.3.5.6.5c.6-.1 1 0 1.2.3.4.5.4 1.6-.1 2.8-.9 2.2-2.4 3-2.4 3-.3.1-.4.5-.2.7.1.3.3.4.5.4"/>
    <path id="Fill-314" class="st15" d="M124.7 205.1c.1 0 .2 0 .3-.1 1.6-1.2 1.4-2.1 1-3.2-.3-.7-.7-1.5 0-2.9.1-.3 0-.6-.3-.7-.3-.1-.6 0-.7.3-.8 1.8-.3 3 0 3.8.3.8.5 1.1-.6 1.8-.2.2-.3.5-.1.8.1.2.3.2.4.2"/>
    <path id="Fill-316" class="st15" d="M117 195.8c.1 0 .2 0 .3-.1.7-.5 2.2-1 3.4-.1.2.2.6.1.8-.1.2-.2.1-.6-.1-.8-1.5-1.1-3.5-.8-4.7.1-.2.2-.3.5-.1.8.1.2.3.2.4.2"/>
    <path id="Fill-318" class="st15" d="M132.8 196.3c.1 0 .3-.1.4-.2.2-.2.2-.6 0-.8-.8-.8-2.9-1.4-4.7-.3-.3.2-.3.5-.2.8.2.3.5.3.8.2 1.3-.8 2.8-.4 3.3.1.1.1.2.2.4.2"/>
    <path id="Fill-320" class="st15" d="M110.5 202.4h.1c.3-.1.5-.4.4-.7-.4-1.6-1.8-2.2-1.8-2.3-.3-.1-.6 0-.7.2-.1.3 0 .6.2.7 0 0 1 .5 1.3 1.6 0 .3.3.5.5.5"/>
    <path id="Fill-322" class="st15" d="M130.2 217.3c.3 0 .5-.2.6-.5 0-1.5.1-2.7.1-2.7 0-.3-.2-.6-.5-.6s-.6.2-.6.5c0 0-.1 1.3-.1 2.8-.1.3.2.5.5.5z"/>
    <path id="Fill-324" class="st15" d="M112.7 215.1c.3 0 .6-.3.6-.6-.1-2.6-.3-5-1-7.8-.1-.3-.4-.5-.7-.4-.3.1-.5.4-.4.7.7 2.7.9 4.9 1 7.5 0 .3.2.6.5.6"/>
    <path id="Fill-326" class="st15" d="M134.6 201.9c.2 0 .5-.2.5-.4.3-1 .7-4.9.7-7.3 0-.3-.2-.6-.6-.6-.3 0-.6.2-.6.6 0 2.4-.5 6.2-.7 7-.1.3.1.6.4.7.2-.1.3 0 .3 0"/>
    <path id="Fill-328" class="st15" d="M106.3 189.3c.1 0 .3 0 .4-.1.8-.7 1.1-2 1.4-3.6.3-1.6.7-3.3 1.6-4.8 1.6-2.7 4.5-4.3 6.3-3.6.3.1.6 0 .7-.3.1-.3 0-.6-.3-.7-2.4-.9-5.7.9-7.7 4.1-1 1.7-1.4 3.6-1.8 5.2-.3 1.3-.6 2.6-1.1 3-.2.2-.3.5-.1.8.3-.1.4 0 .6 0"/>
    <path id="Fill-330" class="st15" d="M108.1 197.4c.4-.1.6-.3.5-.6 0 0-.7-4.2-.6-5.6 0-.3-.2-.6-.5-.6s-.6.2-.6.5c-.1 1.5.6 5.7.6 5.9.1.2.3.4.6.4"/>
    <path id="Fill-332" class="st15" d="M137.1 180h.4c.3-.1.5-.3.5-.6s-.3-.5-.6-.5c-.5.1-2.5-.2-4-1.4-6.4-5.1-12-5.7-15.4-1.6-.2.2-.2.6.1.8.2.2.6.2.8-.1 4.1-5.1 11-.5 13.8 1.7 1.4 1.2 3.3 1.7 4.4 1.7"/>
    <path id="Fill-334" class="st15" d="M111.2 196.3c2.9 0 4-2.8 4.9-5.2.9-2.3 1.7-4.5 3.8-4.6.3 0 .5-.3.5-.6s-.3-.5-.6-.5c-2.9.1-3.9 2.9-4.8 5.3-1.1 3-2 4.8-4.4 4.5-.3 0-.6.2-.6.5s.2.6.5.6h.7"/>
    <path id="Fill-336" class="st15" d="M135.9 192.8h.3c.3 0 .5-.3.5-.6s-.2-.5-.6-.5c-4.2.1-5.6-2.1-6.9-4-1.1-1.6-2.2-3.3-4.9-2.4-.3.1-.4.4-.3.7.1.3.4.4.7.3 1.8-.6 2.4.2 3.6 2 1.3 1.9 3 4.5 7.6 4.5"/>
    <path id="Fill-338" class="st15" d="M137.8 196.9c.2 0 .4-.1.5-.4 2.4-6.7 1.8-12.4-1.8-15.7-.2-.2-.6-.2-.8 0-.2.2-.2.6 0 .8 3.2 3 3.8 8.2 1.5 14.5-.1.3 0 .6.3.7.2 0 .2.1.3.1"/>
    <path id="Fill-340" class="st15" d="M120.1 183.5c.4-.1.6-.3.5-.6-.3-1.9-1.1-3.7-2.3-5-.2-.2-.6-.2-.8 0-.2.2-.2.6 0 .8 1 1.1 1.8 2.7 2 4.4.1.2.3.4.6.4"/>
    <path id="Fill-342" class="st15" d="M121.6 186c.3 0 .6-.2.6-.6 0-1.1 1.4-1.7 2.2-1.8.3 0 .5-.3.5-.6s-.3-.5-.6-.5c-1.3.1-3.2 1.1-3.2 2.9-.1.4.2.6.5.6"/>
    <path id="Fill-344" class="st15" d="M129.3 199.3c0-.7.4-1.2.9-1.3.6-.1 1.1.4 1.1 1.1 0 .7-.4 1.2-.9 1.3-.5.1-1-.4-1.1-1.1"/>
    <path id="Fill-346" class="st15" d="M122.9 245.7h.2c.3-.1.4-.4.3-.7-.4-.9-.5-3-.6-5.2-.2-3.4-.4-7.4-1.5-9.4-.8-1.4-.9-2.8-1-4.2-.1-1.1-.2-2.1-.6-2.9-.8-1.8-2.6-3.8-3.8-5.1-1.9-2-3.1-3.3-3.2-6.7 0-.3-.3-.5-.6-.5s-.6.3-.5.6c.1 3.8 1.5 5.3 3.5 7.4 1.2 1.3 2.8 3.1 3.6 4.8.3.7.4 1.6.5 2.6.1 1.4.3 3.1 1.2 4.7 1.1 1.8 1.2 5.8 1.4 8.9.1 2.4.2 4.5.6 5.5 0 0 .3.2.5.2"/>
    <path id="Fill-348" class="st15" d="M122.2 237.3c.2 0 .4-.1.5-.3 2.1-4.7 2.4-9.4 2.6-12.2.1-1.7 1-2.6 2.2-3.6.6-.6 1.3-1.2 2-2 1.6-2.2 1.7-3 1.8-4v-.3c0-.3-.2-.6-.5-.6s-.6.2-.6.5v.4c-.1.8-.1 1.4-1.5 3.4-.6.8-1.2 1.3-1.8 1.9-1.2 1.1-2.4 2.2-2.6 4.4-.2 2.7-.5 7.3-2.5 11.8-.1.3 0 .6.3.7-.1-.1 0-.1.1-.1"/>
    <path id="Fill-350" class="st15" d="M109.9 228.8c.9 0 2-.6 3.3-1.4.4-.2.9-.6 1.4-.9 1.1-.8 2.7-2 3.7-1.8.3.1.6.3.8.8.1.3.5.4.7.2.3-.1.4-.5.2-.7-.4-.7-.9-1.2-1.5-1.3-1.5-.3-3.2.9-4.6 2-.5.3-.9.7-1.3.9-1.6.9-2.6 1.5-3.1 1.1-.2-.1.1-1 .3-1.5.2-.6.4-1.3.5-2 .4-2.3.4-2.9 0-5.8-.3-2.7.5-4.7 2.2-7.5.2-.3.1-.6-.2-.8-.3-.2-.6-.1-.8.2-1.8 3-2.7 5.2-2.4 8.2.3 2.8.3 3.3 0 5.5-.1.6-.3 1.3-.5 1.8-.4 1.1-.7 2.2.2 2.8.5.1.8.2 1.1.2"/>
    <path id="Fill-352" class="st15" d="M133.5 227.3c.5 0 1-.1 1.4-.5.7-.6.2-1.6-.4-2.9-.4-.9-.9-1.9-1.1-3-.1-.4-.1-.9-.2-1.3-.3-2.1-.6-4.2-1.7-5.9-.2-.3-.5-.3-.8-.2-.3.2-.3.5-.2.8 1 1.5 1.2 3.4 1.5 5.4.1.4.1.9.2 1.3.2 1.2.7 2.4 1.2 3.3.3.6.7 1.4.6 1.6-.4.4-1.7.1-3-.6-.2-.1-.4-.2-.7-.4-1.5-.9-3.9-2.2-5.6-1.6-.3.1-.4.4-.3.7.1.3.4.4.7.3 1.3-.5 3.4.8 4.7 1.5.3.1.5.3.7.4.7.5 1.9 1.1 3 1.1"/>
    <path id="Fill-354" class="st15" d="M127.3 208.9c0 .3-.2.8-.6 1.3-.3.5-.9 1-1.9 1.1-.9.1-1.6-.3-2-.8-.5-.5-.8-1.2-.9-1.5.8-.3 4.4-.4 5.4-.1zm-2.8 3.6h.4c1.4-.2 2.2-1 2.7-1.6.6-.9.9-1.8.8-2.4-.1-.3-.2-1-3.9-.9-3.6.1-3.7.9-3.7 1.2-.1.7.4 1.8 1.2 2.6.7.7 1.6 1.1 2.5 1.1z"/>
    <path id="Fill-356" class="st15" d="M118.3 199.4c0-.7.4-1.2 1-1.3.6 0 1.1.5 1.1 1.1 0 .7-.4 1.2-1 1.3-.6 0-1.1-.5-1.1-1.1"/>
    <path id="Fill-358" class="st15" d="M121.5 160.1c23.4 0 42.5 19 42.5 42.4s-19 42.4-42.5 42.4c-23.4 0-42.5-19-42.5-42.4s19-42.4 42.5-42.4m0 85.9c24 0 43.6-19.5 43.6-43.5S145.6 159 121.5 159c-24 0-43.6 19.5-43.6 43.5 0 23.9 19.5 43.5 43.6 43.5"/>
  </g>
  <g id="tile3" class="circle circle-3">
    <path id="Fill-230" class="st2" d="M263.3 277.1c0-19.8-16-35.8-35.7-35.8-19.7 0-35.7 16-35.7 35.8 0 19.8 16 35.8 35.7 35.8 19.6 0 35.7-16 35.7-35.8"/>
    <path id="Fill-240" class="st5" d="M228.6 309c-2 2.9-2.3-5.6-3-7.3-1.5-3.8-5.8-5.9-6.6-10-.2-1.1.5-2.4.6-3.5.3-2 .1-4-.1-5.9-.1-.6-.1-1.8-.7-2.2-.5-.2-1.4 0-1.8-.5-.7-.8-1.5-2.2-1.6-3.2-.2-.9 0-2.3.7-2.9.8-.8 2.2-.8 2.5-1.7 1.4-4.2 2.9-8.3 6.4-11.2 1.8-1.5 5.5-2.1 7.8-2 6.8.3 9.4 5.2 8.8 10.6-.3 2.7-.8 10.5-1.9 13.1-1.3 3.1-3.5 5.4-3.5 5.4l-.5 5.5s-1.1 2.3-1.1 3c-.6 4.4-3.5 9.2-6 12.8"/>
    <path id="Fill-246" class="st1" d="M236.6 287.6c1.2.2 2 3.2 2 3.2s2.1.3 2.6.6c3 1.7 5.5 2.8 7.4 3.3 1.1.3 4.5.9 6.6 1.6.9.3 1.7 1.2 1.7 1.2s-3 4.4-6.2 7c-3.2 2.6-4.8 3.8-7.9 5.1-1.2.5-3.1 1.1-4.3 1.6-4.3 1.7-12.5 1.7-16.6 1.3-7.8-.8-11.5-3.5-18.4-8.8-2.2-1.7-6.4-7.7-6.4-7.7s5.8-1.5 6.3-1.7c2.4-1 4.1-1.8 5.5-2.9.9-.7 2.1-2 3.5-2.7 1.5-.7 2.3-.1 2.3-.1s3-4 3.7-4.3c.7-.3 1.2 0 1.2 0l-.8 6.3s.8 2.6 1.6 3.8c1.5 2.3 4.6 3.3 5.6 5.7.7 1.5.5 5.6 1 7.2 0 .1 1 2.5 1.3 2.6.3.1.1-4.5.1-4.7.2-1.4-.1-2.2.5-3.5 1.3-2.9 4.9-5.6 6.2-8.7.8-1.3-.1-5.6 1.5-5.4"/>
    <path id="Fill-254" d="M241.8 268.6c.2-.3 1-1.4 1.3-2.6.3-1.1.8-5-.1-6.7-1-2-3.4-2.5-5.9-3.8-1.9-.9-4.1-2.5-5.8-2.8-3.8-.7-8.1.9-11.2 3.4-1.2.9-3.5 2.1-4.2 3.4-1.4 2.5-1.8 4.5-1.6 7.4.1.9 1.9 6.5 1.9 6.5s1.5.2 2.7-.5c1.1-.7 2.8-2.6 3.6-4.5.9-2 2.6-7.3 4.2-8.6 1.6-1.3 3.7.2 5.6.3 1.9.1 4.4-.9 6 .7.9.9 1.3 2.6 1.8 3.9.2.4 1.5 1.7 1.5 1.7s.1 2.3.2 2.2" fill-rule="evenodd" clip-rule="evenodd" fill="#cbbca9"/>
    <path id="Fill-360" class="st15" d="M242.4 267.2c.2 0 .4-.1.5-.3.1-.3 0-.6-.3-.7-2.1-.8-2.4-2.3-2.7-3.4-.1-.3-.2-.6-.3-.8-.9-2.2-2.9-3.1-5.3-2.6-.3.1-.5.4-.4.7.1.3.4.5.7.4 1.9-.4 3.3.3 4.1 2 .1.2.1.4.2.7.3 1.2.8 3.1 3.4 4.2 0-.2 0-.2.1-.2"/>
    <path id="Fill-362" class="st15" d="M231.8 260c.3 0 .5-.2.6-.5 0-.4.5-.8 1-1.1.3-.2 1.2-.5 2 .1.2.2.6.1.8-.1.2-.3.1-.6-.1-.8-.9-.6-2.1-.7-3.1-.2-.9.4-1.6 1.2-1.6 2-.2.3 0 .6.4.6-.1 0 0 0 0 0"/>
    <path id="Fill-364" class="st15" d="M219.9 265.6c3.4 0 4.5-1.5 5.9-3.8.8-1.4 1.6-2.2 2.4-2.3.5-.1.9.1 1.4.5.2.2.6.2.8-.1.2-.2.2-.6-.1-.8-.7-.6-1.5-.8-2.3-.7-1.1.2-2.1 1.1-3.1 2.9-1.3 2.3-2.2 3.3-5 3.3-.3 0-.6.2-.6.6 0 .2.2.4.6.4z"/>
    <path id="Fill-366" class="st15" d="M218.5 272.6c2.1 0 4-2.3 4.8-5.6.1-.3-.1-.6-.4-.7-.3-.1-.6.1-.7.4-.6 2.7-2.2 4.7-3.7 4.7-.3 0-.6.2-.6.6 0 .3.3.6.6.6z"/>
    <path id="Fill-368" class="st15" d="M243.1 265.3c.3 0 .5-.2.5-.5v-.2c.4-3.9.8-7.5-5.6-8.9-.3-.1-.6.1-.7.4-.1.3.1.6.4.7 5.4 1.1 5.1 3.9 4.7 7.7v.2c.1.3.3.5.7.6"/>
    <path id="Fill-370" class="st15" d="M216.9 257.7c1.8 0 2.8-.6 4.2-1.6.8-.6 2.9-2 4.7-2.5 2.6-.8 6.4-.6 9.2 1.6.2.2.6.2.8-.1.2-.2.2-.6-.1-.8-3-2.5-7.3-2.7-10.2-1.8-1.9.6-3.9 1.9-5 2.7-1.3.9-2.1 1.4-3.6 1.4-.3 0-.6.2-.6.6 0 .3.2.5.6.5z"/>
    <path id="Fill-372" class="st15" d="M216.1 273.9h.2c.3-.1.4-.4.3-.7-3.3-8.1-1.7-11.2 0-13.5.2-.2.1-.6-.1-.8-.2-.2-.6-.1-.8.1-2.1 2.7-3.5 6.3-.2 14.6.2.2.4.3.6.3"/>
    <path id="Fill-374" class="st15" d="M218.8 280.5h.5c.3 0 .5-.3.5-.6s-.3-.5-.6-.5c-.7.1-1.3-.1-1.9-.5-.8-.6-1.3-1.8-1.4-3-.1-1.1.4-1.7.9-1.9.2-.1.7-.2 1.1.2.2.2.6.2.8 0 .2-.2.2-.6 0-.8-.6-.7-1.6-.8-2.4-.4-1.1.5-1.7 1.7-1.5 3 .1 1.5.8 2.9 1.9 3.8.5.5 1.2.7 2.1.7"/>
    <path id="Fill-376" class="st15" d="M218.3 277.7c.1 0 .2 0 .3-.1.3-.2.3-.5.1-.8-.3-.5-1-.9-1.8-1.2-.3-.1-.6.1-.7.3-.1.3.1.6.3.7.6.2 1 .5 1.2.8.3.2.4.3.6.3"/>
    <path id="Fill-378" class="st15" d="M234.2 277.7c.1 0 .3 0 .4-.1 1.1-1 .4-2.1.1-2.6-.1-.2-.2-.3-.2-.4-.1-.5-.1-.9.1-1.5.1-.3 0-.6-.3-.7-.3-.1-.6 0-.7.3-.3.8-.3 1.4-.1 2.1.1.3.2.5.4.7.4.6.5.8.1 1.1-.2.2-.2.6 0 .8-.1.2 0 .3.2.3"/>
    <path id="Fill-380" class="st15" d="M229.6 273.3c0-.6-.4-1.2-.9-1.2s-1 .5-1 1.1c0 .6.4 1.2.9 1.2s1-.4 1-1.1"/>
    <path id="Fill-382" class="st15" d="M231.8 289.5h.3c5-.2 8.3-4.9 9.3-13.2 0-.3-.2-.6-.5-.6s-.6.2-.6.5c-.6 4.5-2.4 12.1-8.3 12.3-3.6.1-7.7-2.8-9.6-6.9-.1-.3-.5-.4-.7-.3-.3.1-.4.5-.3.7 2 4.4 6.3 7.5 10.4 7.5"/>
    <path id="Fill-384" class="st15" d="M257 298.1c.2 0 .4-.1.5-.3.2-.3.1-.6-.2-.8-2.3-1.3-4.8-2-7.2-2.7-.9-.2-1.9-.5-2.8-.8-.7-.2-1.7-.7-2.8-1.2-2.1-1.1-4.4-2.2-5.8-2-.3 0-.5.3-.5.6.1.3.3.5.6.5 1.1-.2 3.3.9 5.1 1.8 1.1.6 2.1 1.1 2.9 1.3.9.3 1.9.5 2.8.8 2.5.7 4.8 1.3 6.9 2.5.3.3.4.3.5.3"/>
    <path id="Fill-386" class="st15" d="M197.5 296.5h.2c.8-.2 1.7-.4 2.5-.6 2.1-.5 4.3-1.1 6.5-2.2 1.9-.9 3.2-2 4.3-2.9 1.6-1.3 2.5-1.9 3.6-1.5.3.1.6 0 .7-.3.1-.3 0-.6-.3-.7-1.8-.7-3.1.4-4.7 1.7-1 .8-2.4 1.9-4.1 2.8-2.1 1.1-4.2 1.6-6.3 2.1-.8.2-1.7.4-2.5.7-.3.1-.5.4-.4.7 0 0 .2.2.5.2"/>
    <path id="Fill-388" class="st15" d="M219.1 291c.3 0 .5-.2.5-.4.6-3 1.1-6.1.6-8.8-.1-.3-.3-.5-.6-.4-.3.1-.5.3-.4.6.5 2.5 0 5.5-.6 8.4-.1.3.1.6.4.7 0-.1 0-.1.1-.1"/>
    <path id="Fill-390" class="st15" d="M235.2 293.8c.2 0 .5-.2.5-.4.3-1.1.4-2.6.4-3.8 0-.7.1-1.3.1-1.7.1-.3-.2-.6-.5-.6-.3-.1-.6.2-.6.5-.1.4-.1 1.1-.1 1.8-.1 1.1-.1 2.5-.4 3.6-.1.3.1.6.4.7l.2-.1"/>
    <path id="Fill-392" class="st15" d="M228.8 313.3c.3 0 .6-.3.6-.6-.1-2.8-.2-6.8-.1-9.1.2-2.8 1.3-3.9 2.8-5.3.7-.7 1.4-1.3 2.1-2.3.7-1 2.4-3.6 2.2-6 0-.3-.3-.5-.6-.5s-.5.3-.5.6c.1 2.1-1.5 4.6-2 5.3-.6.9-1.3 1.5-2 2.1-1.5 1.4-2.9 2.8-3.2 6-.1 1.8-.1 4.6.1 9.2.1.4.3.6.6.6"/>
    <path id="Fill-394" class="st15" d="M228.5 310.8c.1 0 .3 0 .4-.1.2-.2.3-.5.1-.8-1.4-1.6-1.5-3.8-1.7-5.9-.1-1.3-.2-2.5-.5-3.6-.5-1.4-1.8-2.5-3-3.4-1.1-.9-2.2-1.7-2.8-2.9-1.4-2.5-1.5-4-1.6-6.8 0-.3-.3-.5-.6-.5s-.5.3-.5.6c.1 2.9.2 4.6 1.7 7.3.7 1.3 1.9 2.3 3.1 3.2 1.2.9 2.3 1.8 2.6 2.9.3 1 .4 2.1.5 3.4.1 2.2.3 4.7 1.9 6.6.1-.1.2 0 .4 0"/>
    <path id="Fill-396" class="st15" d="M229.9 307.2c.3 0 .5-.2.6-.5.1-4 1.2-4.8 2.1-5.5l.3-.3c.4-.3.7-.6 1-1 .9-1 1.5-1.6 2.5-1.3.5.1 1.3.7 2 1.2 1.6 1 2.6 1.6 3.2 1.3.3-.1.4-.3.5-.6.1-.5-.2-1.3-.9-3-.3-.8-.7-1.6-1-2.4-.2-.5-.4-1.2-.6-1.9-.6-2.2-1.4-4.9-2.7-6.3-.2-.2-.6-.2-.8 0-.2.2-.2.6 0 .8 1.2 1.3 1.9 3.8 2.5 5.9.2.7.4 1.4.6 2 .3.8.7 1.7 1 2.5.3.7.6 1.6.8 2-.5-.2-1.4-.8-2-1.2-.9-.6-1.7-1.1-2.3-1.3-1.8-.6-2.9.6-3.7 1.6-.3.3-.6.6-.8.9-.1.1-.2.2-.3.2-1.1.8-2.4 1.8-2.6 6.4 0 .2.3.4.6.5z"/>
    <path id="Fill-398" class="st15" d="M212.8 300.9s.1 0 0 0c.7 0 1.5-.6 2.7-1.7.9-.8 5.5-2.8 7.2-1.8.3.2.6.1.8-.2.2-.3.1-.6-.2-.8-2.4-1.4-7.6 1.1-8.5 1.9-.9.8-1.4 1.1-1.7 1.3 0-.7.2-2.3.4-3.6l.2-1.4c.3-2 .7-4.4 1.2-5 .6-.7 1.2-1.5 1.8-2.3.9-1.2 2.1-2.8 2.7-2.7.3.1.6-.1.6-.4.1-.3-.1-.6-.4-.6-1.3-.2-2.4 1.2-3.8 3.1-.6.7-1.1 1.5-1.7 2.2-.7.8-1.1 2.7-1.5 5.6l-.2 1.4c-.5 3.2-.6 4.2-.2 4.7.2.2.4.3.6.3"/>
    <path id="Fill-400" class="st15" d="M227 270.7c.1 0 .2 0 .3-.1.6-.4 1.8-.8 2.8-.1.2.2.6.1.8-.1.2-.2.1-.6-.1-.8-1.3-1-3.1-.7-4.2.1-.2.2-.3.5-.1.8.2.2.3.2.5.2"/>
    <path id="Fill-402" class="st15" d="M240 270.6c.1 0 .3-.1.4-.2.2-.2.2-.6 0-.8-.7-.7-2.6-1.3-4.1-.3-.3.2-.3.5-.2.8.2.3.5.3.8.2 1.1-.7 2.3-.3 2.7.1.1.2.2.2.4.2"/>
    <path id="Fill-404" class="st15" d="M232.8 283c1.1 0 2.1-.2 2.9-.5.3-.1.4-.5.2-.7-.1-.3-.5-.4-.7-.2-1.1.5-3.7.6-5-.1-.3-.1-.6 0-.7.2-.1.3 0 .6.2.7.8.4 2 .6 3.1.6"/>
    <path id="Fill-406" class="st15" d="M239.3 278.4c1.9 0 3.6-1.4 4-3.5.1-.4.1-.9 0-1.3 0-.3-.3-.5-.6-.5s-.5.3-.5.6v1c-.3 1.7-1.8 2.8-3.4 2.5-1.5-.3-2.6-2.1-2.3-3.8.1-.3-.1-.6-.4-.6-.3-.1-.6.1-.6.4-.4 2.3 1 4.7 3.2 5.1.2 0 .4.1.6.1"/>
    <path id="Fill-408" class="st15" d="M228.3 278.6c2 0 3.8-1.5 4.2-3.5.1-.7.1-1.3-.1-1.9-.1-.3-.4-.5-.7-.4-.3.1-.5.4-.4.7.1.5.1.9 0 1.4-.3 1.7-1.9 2.9-3.6 2.6-.8-.1-1.5-.6-1.9-1.2-.5-.7-.6-1.5-.5-2.4.1-.3-.1-.6-.4-.6-.3-.1-.6.1-.6.4-.2 1.1 0 2.3.7 3.2.6.9 1.6 1.5 2.6 1.7h.7"/>
    <path id="Fill-410" class="st15" d="M232 275h.2c.8-.4 2.5-.6 3.2-.2.3.2.6.1.8-.2.2-.3.1-.6-.2-.8-1.1-.8-3.3-.3-4.3.1-.3.1-.4.5-.3.7.2.3.4.4.6.4"/>
    <path id="Fill-412" class="st15" d="M224.1 274.8c.3 0 .5-.2.5-.5.1-.3-.1-.6-.4-.6l-3.2-.6c-.3-.1-.6.1-.6.4-.1.3.1.6.4.6l3.2.6.1.1"/>
    <path id="Fill-414" class="st15" d="M227.7 242.1c19.4 0 35.2 15.8 35.2 35.1 0 19.4-15.8 35.1-35.2 35.1-19.4 0-35.2-15.8-35.2-35.1 0-19.4 15.7-35.1 35.2-35.1m0 71.4c20 0 36.3-16.3 36.3-36.2 0-20-16.3-36.3-36.3-36.3-20 0-36.3 16.3-36.3 36.3 0 19.9 16.2 36.2 36.3 36.2"/>
    <path id="Fill-416" class="st15" d="M239.5 273.1c0-.7-.4-1.2-.9-1.2s-1 .5-1 1.1c0 .7.4 1.2.9 1.2.5.1 1-.4 1-1.1"/>
    <path id="Fill-418" class="st15" d="M241.4 270.1c.3 0 .5-.2.6-.5.1-1.5.1-3.2.1-3.3 0-.3-.2-.5-.6-.5-.3 0-.5.3-.5.6 0 0 .1 1.6-.1 3.1-.1.3.1.6.5.6-.1 0 0 0 0 0"/>
  </g>
  <g id="tile4" class="circle circle-4">
    <path id="Fill-420" class="st15" d="M49.6 261.1c.1 0 .2 0 .3-.1.4-.3 1.1-.4 1.5 0 .2.1.4.1.6-.1.1-.2.1-.4-.1-.6-.7-.6-1.9-.5-2.5 0-.2.1-.2.4-.1.6 0 .1.1.2.3.2"/>
    <path id="Fill-422" class="st15" d="M52.9 262.4c.2 0 .4-.2.4-.4.1-2.2-.6-7.1-3.1-7.5-.2 0-.4.1-.5.3 0 .2.1.4.3.5 1.8.3 2.5 4.4 2.4 6.6 0 .3.2.5.5.5z"/>
    <path id="Fill-424" class="st15" d="M33.5 258.4c.1 0 .2 0 .3-.1.5-.5 1.6-.5 2-.3.2.1.4.1.6-.1.1-.2.1-.4-.1-.6-.7-.4-2.2-.3-2.9.4-.2.2-.2.4 0 .6-.1.1 0 .1.1.1"/>
    <path id="Fill-426" class="st15" d="M29 258.3c2.1 0 4-2 5.3-3.2l.4-.4c1.3-1.3 2.2-2.3 4-2.3.2 0 .4-.2.4-.4s-.2-.4-.4-.4c-2.1 0-3.2 1.2-4.5 2.6l-.3.3c-1.5 1.5-3.7 3.7-5.7 2.8-.2-.1-.4 0-.5.2-.1.2 0 .4.2.5.2.2.7.3 1.1.3"/>
    <path id="Fill-428" class="st15" d="M37.8 250.7h.1c.2-.1.3-.3.2-.5-.5-1.5-2.2-2.8-3.6-3.3-.2-.1-.4.1-.5.3-.1.2.1.4.3.5 1.3.4 2.7 1.7 3 2.8.2.1.3.2.5.2"/>
    <path id="Fill-430" class="st2" d="M60.8 265.1c0-15.5-12.6-28-28.1-28s-28.1 12.6-28.1 28c0 15.5 12.6 28 28.1 28s28.1-12.6 28.1-28"/>
    <path id="Fill-432" class="st21" d="M26.1 272.1c.1 4.8 5.3 8.5 9.9 8.2 1.6-.1 4.4-.8 5-2.6.5-1.7-.8-3.3-.1-4.9.5-1.2 1.3-2.4 1.9-3.6 1-2 1.2-4.2 1.7-6.3.4-2 .8-3.4.2-5.4-.5-1.6-1.1-3.9-2.4-5.1-1-.9-1.6-1-2.8-1.2-4.6-.9-8.4.6-11.2 4.6-1.2 1.7-2.9 2.5-3.3 4.6-.3 1.4.6 4 .5 5.3-.1 1.3.1 3.1.4 4.4.1.8.2 1.2.2 2"/>
    <path id="Fill-434" d="m37.9 272.8.4-1.2s5.3 2.6 7.4 3.2c2.2.6 3.3 3.7 3.9 4.9 1 2 2.1 6.1 2.1 6.1s-2.9 2.7-3.6 2.9c-1.7.6-2.9 1.6-4.6 2.3-5.5 2.3-11.5 2.8-17.5 1.5-1.3-.3-3.6-1.4-4.9-1.8-2.5-.8-4.4-2.1-6.2-3.9-.7-.7-2-1.8-2-1.8s.8-2.7 1-3.4c.8-1.9 1.5-3.8 3.2-5.2 1.5-1.2 3.6-1.7 5.3-2.5 1.1-.5 3.9-1.9 3.9-1.9s1.1 2.1 1.5 2.6c1.7 1.9 5.1 4.5 7.9 3.4 1.4-.5 2.9-1.1 3-2.7 0-.9-.8-2.5-.8-2.5" fill-rule="evenodd" clip-rule="evenodd" fill="#cabdff"/>
    <path id="Fill-436" d="M38.3 270.4s-.4.8.1 1.1c.9.6 3.3.9 4.2.9.2 0 1.3.2 1.4-.1.2-.3-.1-1-.1-1.8 0-.7.3-1.5.4-1.9.6-2.5 2.3-4.7 2.4-7.5.2-4.7-2.2-10.7-5.6-13.7-1.9-1.7-3.8-2.5-6.3-2.4-1.1 0-2.5.4-3.8.6-1.4.3-3.1.7-4.1 1.6-4.3 3.6-5.7 10.9-5.7 15.7 0 2.5.8 6.2 2.2 7.8.7.8 2 .8 3.3 1 .8.2 3.8.6 4.1-.3.2-.6-.4-.5-1-1.1-.5-.6-1.1-1.4-1.3-2.2-.2-1 .3-2.5 0-3.4-.1-.4-.6-.5-1-.8-.8-.6-1.6-1.3-1.9-2-.4-1.1 0-2.1.4-2.5.9-.7 2.6-.2 3.3-.6 3.4-1.7 6.1-7.6 10.4-7.1 2.1.2 2.8 2.3 3.3 4.1.4 1.5.4 3.7.2 5.4-.3 2.7-.9 4.1-1.9 6.3-.2.4-1.2 1.6-1.6 1.9-.5.7-1.4 1-1.4 1" fill-rule="evenodd" clip-rule="evenodd" fill="#ff9178"/>
    <path id="Fill-438" class="st15" d="M37.1 270.8h.7c4.3-.5 5.8-7 5.7-8.7 0-.2-.2-.4-.4-.4s-.4.2-.4.4c.1 1.4-1.4 7.4-5 7.8-2.1.2-4-.8-4.5-1.1-1.7-1.1-2.6-2.6-3-3.4-.1-.2-.3-.3-.5-.2-.2.1-.3.3-.2.5.4.9 1.4 2.6 3.3 3.8.5.4 2.2 1.3 4.3 1.3"/>
    <path id="Fill-440" class="st15" d="M38.7 263.7c.1 0 .2-.1.3-.2.7-.9.3-1.5 0-1.9-.1-.1-.1-.2-.2-.3-.2-.4-.3-.9-.1-1.3.1-.2-.1-.4-.3-.5-.2-.1-.4.1-.5.3-.2.6-.1 1.3.2 1.9.1.1.1.2.2.4.2.3.3.5 0 .9-.1.2-.1.4.1.6.1.1.2.1.3.1"/>
    <path id="Fill-442" class="st15" d="M41.8 260c0-.4-.3-.8-.7-.8-.4 0-.6.4-.6.8s.3.8.7.8c.4 0 .7-.4.6-.8"/>
    <path id="Fill-444" class="st15" d="M35.4 260.2c0-.5-.4-.8-.8-.8s-.7.4-.6.9c0 .5.4.8.8.8s.6-.4.6-.9"/>
    <path id="Fill-446" class="st15" d="M27.8 264.3h.1c.2 0 .4-.2.4-.4s-.2-.4-.4-.4c-.9.1-1.8-1-1.9-2.2-.1-.7.2-1.4.7-1.7.3-.2.6-.1 1 .2.2.1.4.1.6-.1.1-.2.1-.4-.1-.6-.9-.7-1.6-.4-1.9-.2-.7.4-1.2 1.5-1.1 2.5.1 1.5 1.2 2.9 2.6 2.9"/>
    <path id="Fill-448" class="st15" d="M27.6 262.5h.1c.2-.1.3-.3.3-.5-.2-.5-.6-1.1-1.1-1.3-.2-.1-.4 0-.5.2-.1.2 0 .4.2.5.3.1.6.5.7.8-.1.2.1.3.3.3"/>
    <path id="Fill-450" class="st15" d="M12.9 285.4c.2 0 .4-.1.4-.3 0 0 .8-4.5 3.7-7.7 1.4-1.5 3.4-2.3 5.4-3 1.6-.6 3.2-1.1 4.2-2.1.2-.2.2-.4 0-.6-.2-.2-.4-.2-.6 0-.9.9-2.4 1.4-3.9 2-2 .7-4.2 1.5-5.7 3.2-3 3.3-3.8 7.9-3.9 8.1 0 .1.1.3.4.4"/>
    <path id="Fill-452" class="st15" d="M51.6 285.9h.1c.2-.1.3-.3.3-.5 0 0-1-3.5-2-5.9l-.1-.2c-.6-1.5-1.4-3.3-2.8-4.3-.8-.6-1.8-.9-2.8-1.1l-.3-.1c-.4-.1-.7-.3-.7-.3-.2-.1-.4 0-.6.2-.1.2 0 .4.2.6 0 0 .4.2.9.3l.3.1c.9.2 1.8.5 2.5 1 1.2.9 1.9 2.5 2.5 4l.1.2c1 2.4 2 5.8 2 5.8 0 .1.2.2.4.2"/>
    <path id="Fill-454" class="st15" d="M37.2 275.5c.2 0 .3-.1.4-.3.3-.9.9-3.3 1.1-4.8 0-.2-.1-.4-.3-.5-.2 0-.4.1-.5.3-.2 1.4-.7 3.7-1.1 4.6-.1.2 0 .4.2.5.1.2.2.2.2.2"/>
    <path id="Fill-456" class="st15" d="M34.2 278.7c1.6 0 3.1-.5 4.1-1.5 1.2-1.2 1-3.2.1-4.3-.1-.2-.4-.2-.6-.1-.2.1-.2.4-.1.6.7.9.8 2.4 0 3.2-.9.9-2.5 1.4-4.2 1.2-1.4-.1-4-.9-6-4.1-.1-.2-.4-.2-.6-.1-.2.1-.2.4-.1.6 2.3 3.5 5.1 4.3 6.6 4.4.3.1.6.1.8.1"/>
    <path id="Fill-458" class="st15" d="M23.7 271.7c.1 0 .2 0 .3-.1.2-.1.2-.4 0-.6-2.5-2.9-2.6-7.4-2.4-10.6.4-6.1 3.5-11.1 6.2-13.1 1.3-.9 2.5-1.3 3.5-1.1.2.1.4-.1.5-.3.1-.2-.1-.4-.3-.5-1.3-.3-2.7.1-4.2 1.2-2.9 2.1-6.2 7.3-6.5 13.7-.2 3.3-.1 8 2.6 11.1 0 .2.1.3.3.3"/>
    <path id="Fill-460" class="st15" d="M44.3 272.3c.1 0 .1 0 .2-.1.2-.1.2-.4.1-.6-.8-1.3-.3-2.5.5-4.3 1.2-2.5 2.8-6 1.3-12.1-1.1-4.4-4-8.2-7.7-9.9-2.3-1-4.4-1.1-6.2-.2-.2.1-.3.3-.2.5.1.2.3.3.5.2 1.5-.8 3.5-.7 5.5.3 2.7 1.2 6 4.3 7.2 9.3 1.4 5.8-.1 9.1-1.2 11.5-.9 1.9-1.6 3.3-.5 5 .2.4.4.4.5.4"/>
    <path id="Fill-462" class="st15" d="M28.2 272.5c.3 0 .7 0 1-.1.2-.1.3-.3.3-.5-.1-.2-.3-.3-.5-.3-1.4.4-3.3-.3-3.8-1.7-.1-.2-.3-.3-.5-.2-.2.1-.3.3-.2.5.5 1.4 2.2 2.3 3.7 2.3"/>
    <path id="Fill-464" class="st15" d="M30.9 271.8c.1 0 .3-.1.3-.2.1-.2.1-.4-.1-.6-1.8-1.2-2.8-2.6-2.2-5.8 0-.2-.1-.4-.3-.5-.2 0-.4.1-.5.3-.7 3.9.8 5.5 2.6 6.7.1.1.1.1.2.1"/>
    <path id="Fill-466" class="st15" d="M41.5 272.8h.3c.2 0 .4-.2.4-.4s-.2-.4-.4-.4c-.8.1-2.4-.2-3.1-.7-.2-.1-.4-.1-.6.1-.1.2-.1.4.1.6.8.5 2.4.8 3.3.8"/>
    <path id="Fill-468" class="st15" d="M37.4 267.2c.8 0 1.5-.2 1.9-.4.2-.1.3-.3.2-.5-.1-.2-.3-.3-.5-.2-.6.3-2.2.5-3.1-.1-.2-.1-.4 0-.6.2-.1.2 0 .4.2.6.6.3 1.3.4 1.9.4"/>
    <path id="Fill-470" class="st15" d="M32.7 237.5c15.3 0 27.7 12.4 27.7 27.6 0 15.2-12.4 27.6-27.7 27.6-15.3 0-27.7-12.3-27.7-27.6 0-15.2 12.4-27.6 27.7-27.6m0 56.1c15.7 0 28.5-12.8 28.5-28.4 0-15.7-12.8-28.4-28.5-28.4S4.2 249.6 4.2 265.2c0 15.6 12.8 28.4 28.5 28.4"/>
  </g>
  <g id="tile5" class="circle circle-5">
    <path id="Fill-472" class="st2" d="M64.7 140.2c0-17.8-14.4-32.3-32.3-32.3-17.8 0-32.3 14.5-32.3 32.3 0 17.8 14.4 32.3 32.3 32.3 17.8 0 32.3-14.4 32.3-32.3"/>
    <path id="Fill-474" class="st21" d="M33.7 167.7c-2 2.9-2.3-5.6-3-7.3-1.5-3.8-5.8-5.9-6.6-10-.2-1.1.5-2.4.6-3.5.3-2 .1-4-.1-5.9-.1-.6-.1-1.8-.7-2.2-.5-.2-1.4 0-1.8-.5-.7-.8-1.5-2.2-1.6-3.2-.2-.9 0-2.3.7-2.9.8-.8 2.2-.8 2.5-1.7 1.4-4.2 2.9-8.3 6.4-11.2 1.8-1.5 5.5-2.1 7.8-2 6.8.3 9.4 5.2 8.8 10.6-.3 2.7-.8 10.5-1.9 13.1-1.3 3.1-3.5 5.4-3.5 5.4l-.5 5.5s-1.1 2.3-1.1 3c-.6 4.4-3.5 9.2-6 12.8"/>
    <path id="Fill-476" class="st1" d="M41 148.9c1.2.2 2.7.7 2.7.7s2.1.3 2.6.6c3 1.7 5.5 2.8 7.4 3.3 1.1.3 4.5.9 6.6 1.6.9.3 1.7 1.2 1.7 1.2s-3 4.4-6.2 7c-3.2 2.6-4.8 3.8-7.9 5.1-1.2.5-3.1 1.1-4.3 1.6-4.3 1.7-12.5 1.7-16.6 1.3-7.8-.8-11.5-3.5-18.4-8.8-2.2-1.7-6.4-7.7-6.4-7.7s5.8-1.5 6.3-1.7c2.4-1 4.1-1.8 5.5-2.9.9-.7 2.1-2 3.5-2.7 1.5-.7 2.3-.1 2.3-.1s3.4.4 4.1.1c.7-.3-.1 1.5-.1 1.5v.5s.8 2.6 1.6 3.8c1.5 2.3 4.6 3.3 5.6 5.7.7 1.5.1-1.7.6-.1 0 .1 1 .5 1.3.7.3.2.7.3.7.1.2-1.4-.7-.7.2.3 1.3-2.9 5-5.1 6.3-8.1.9-1.5-.7-3.3.9-3"/>
    <path id="Fill-478" d="M46.9 127.4c.2-.3 1-1.4 1.3-2.6.3-1.1.8-5-.1-6.7-1-2-3.4-2.5-5.9-3.8-1.9-.9-4.2-2.5-5.8-2.8-3.8-.7-8.1.9-11.2 3.4-1.2.9-3.5 2.1-4.2 3.4-1.4 2.5-1.8 4.5-1.6 7.4.1.9 1.9 6.5 1.9 6.5s1.5.2 2.7-.5c1.1-.7 2.8-2.6 3.6-4.5.9-2 2.6-7.3 4.2-8.6 1.6-1.3 3.7.2 5.6.3 1.9.1 4.4-.9 6 .8.9.9 1.3 2.6 1.8 3.9.2.4 1.5 1.7 1.5 1.7s.1 2.2.2 2.1" fill-rule="evenodd" clip-rule="evenodd" fill="#8c6680"/>
    <path id="Fill-480" class="st15" d="M23.6 131.3c2.1 0 4-2.3 4.8-5.6.1-.3-.1-.6-.4-.7-.3-.1-.6.1-.7.4-.6 2.7-2.2 4.7-3.7 4.7-.3 0-.6.2-.6.6 0 .3.3.6.6.6z"/>
    <path id="Fill-482" class="st15" d="M48.2 124c.3 0 .5-.2.6-.5v-.2c.4-3.9.8-7.5-5.6-8.9-.3-.1-.6.1-.7.4-.1.3.1.6.4.7 5.4 1.1 5.1 3.9 4.7 7.7v.2c0 .3.3.6.6.6"/>
    <path id="Fill-484" class="st15" d="M22 116.5c1.8 0 2.8-.6 4.2-1.6.8-.6 2.9-2 4.7-2.5 2.6-.8 6.4-.6 9.2 1.6.2.2.6.2.8-.1.2-.2.2-.6-.1-.8-3-2.5-7.3-2.7-10.2-1.8-1.9.6-3.9 1.9-5 2.7-1.3.9-2.1 1.4-3.6 1.4-.3 0-.6.2-.6.6s.3.5.6.5z"/>
    <path id="Fill-486" class="st15" d="M21.2 132.6h.2c.3-.1.4-.4.3-.7-3.3-8.1-1.7-11.2 0-13.5.2-.2.1-.6-.1-.8-.2-.2-.6-.1-.8.1-2.1 2.7-3.5 6.3-.2 14.6.2.2.4.3.6.3"/>
    <path id="Fill-488" class="st15" d="M23.9 139.3h.5c.3 0 .5-.3.5-.6s-.3-.5-.6-.5c-.7.1-1.3-.1-1.9-.5-.8-.6-1.3-1.8-1.4-3-.1-1.1.4-1.7.9-1.9.2-.1.7-.2 1.1.2.2.2.6.2.8 0 .2-.2.2-.6 0-.8-.6-.7-1.6-.8-2.4-.4-1.1.5-1.7 1.7-1.5 3 .1 1.5.8 2.9 1.9 3.8.5.4 1.3.7 2.1.7"/>
    <path id="Fill-490" class="st15" d="M23.4 136.4c.1 0 .2 0 .3-.1.3-.2.3-.5.1-.8-.3-.5-1-.9-1.8-1.2-.3-.1-.6.1-.7.3-.1.3.1.6.3.7.6.2 1 .5 1.2.8.3.2.5.3.6.3"/>
    <path id="Fill-492" class="st15" d="M39.3 136.4c.1 0 .3 0 .4-.1 1.1-1 .4-2.1.1-2.6-.1-.2-.2-.3-.2-.4-.1-.5-.1-.9.1-1.5.1-.3 0-.6-.3-.7-.3-.1-.6 0-.7.3-.3.8-.3 1.4-.1 2.1.1.3.2.5.4.7.4.6.5.8.1 1.1-.2.2-.2.6 0 .8-.1.3.1.3.2.3"/>
    <path id="Fill-494" class="st15" d="M34.7 132c0-.6-.4-1.2-.9-1.2s-1 .5-1 1.1c0 .6.4 1.2.9 1.2.5.1 1-.4 1-1.1"/>
    <path id="Fill-496" class="st15" d="M36.9 148.2h.3c5-.2 8.3-4.9 9.3-13.2 0-.3-.2-.6-.5-.6s-.6.2-.6.5c-.6 4.5-2.4 12.1-8.3 12.3-3.6.1-7.7-2.8-9.6-6.9-.1-.3-.5-.4-.7-.3-.3.1-.4.5-.3.7 2 4.4 6.4 7.5 10.4 7.5"/>
    <path id="Fill-498" class="st15" d="M60.8 156.3c.2 0 .3-.1.4-.3.1-.2.1-.6-.2-.7-2.1-1.2-4.4-1.9-6.7-2.5-.9-.2-1.7-.5-2.6-.7-.6-.2-1.6-.7-2.6-1.2-2-1-4-2-5.4-1.8-.3 0-.5.3-.4.6 0 .3.3.5.6.4 1-.2 3.1.9 4.8 1.7 1 .5 2 1 2.7 1.2.9.3 1.8.5 2.6.7 2.3.6 4.5 1.2 6.5 2.4.1.1.2.2.3.2"/>
    <path id="Fill-500" class="st15" d="M3.9 154.6H4c.8-.2 1.6-.4 2.3-.6 2-.5 4-1 6.1-2 1.7-.9 3-1.9 4-2.7 1.5-1.2 2.3-1.8 3.3-1.4.3.1.6 0 .7-.3.1-.3 0-.6-.3-.7-1.6-.6-2.8.3-4.4 1.6-1 .8-2.2 1.8-3.8 2.6-2 1-3.9 1.5-5.9 2-.8.2-1.6.4-2.3.6-.3.1-.4.4-.4.6.2.2.4.3.6.3"/>
    <path id="Fill-502" class="st15" d="M24.2 149.8c.3 0 .5-.2.5-.4.6-3 1.1-6.1.6-8.8-.1-.3-.3-.5-.6-.4-.3.1-.5.3-.4.6.5 2.5 0 5.5-.6 8.4-.1.3.1.6.4.7 0-.1.1-.1.1-.1"/>
    <path id="Fill-504" class="st15" d="M40.4 152.6c.2 0 .5-.2.5-.4.3-1.1.4-2.6.4-3.8 0-.7.1-1.3.1-1.7.1-.3-.2-.6-.5-.6-.3-.1-.6.2-.6.5-.1.4-.1 1.1-.1 1.8-.1 1.1-.1 2.5-.4 3.5-.1.3.1.6.4.7h.2"/>
    <path id="Fill-506" class="st15" d="M46.2 159z"/>
    <path id="Fill-508" class="st15" d="M32.1 129.5c.1 0 .2 0 .3-.1.6-.4 1.8-.8 2.8-.1.2.2.6.1.8-.1.2-.2.1-.6-.1-.8-1.3-1-3.1-.7-4.2.1-.2.2-.3.5-.1.8.2.1.3.2.5.2"/>
    <path id="Fill-510" class="st15" d="M45.1 129.4c.1 0 .3-.1.4-.2.2-.2.2-.6 0-.8-.7-.7-2.6-1.3-4.1-.3-.3.2-.3.5-.2.8.2.3.5.3.8.2 1.1-.7 2.3-.3 2.7.1.1.1.2.2.4.2"/>
    <path id="Fill-512" class="st15" d="M37.9 141.7c1.1 0 2.1-.2 2.9-.5.3-.1.4-.5.2-.7-.1-.3-.5-.4-.7-.2-1.1.5-3.7.6-5-.1-.3-.1-.6 0-.7.2-.1.3 0 .6.2.7.8.4 2 .6 3.1.6"/>
    <g id="Group-516" transform="translate(571 102.59)">
      <defs>
        <filter id="Adobe_OpacityMaskFilter_00000039100526794103510790000013983176382569869198_" filterUnits="userSpaceOnUse" x="-571" y="4.6" width="65.5" height="65.4">
          <feColorMatrix values="1 0 0 0 0 0 1 0 0 0 0 0 1 0 0 0 0 0 1 0"/>
        </filter>
      </defs>
      <mask maskUnits="userSpaceOnUse" x="-571" y="4.6" width="65.5" height="65.4" id="mask-4_00000130613873854256914660000013345694391860004758_">
        <g filter="url(#Adobe_OpacityMaskFilter_00000039100526794103510790000013983176382569869198_)">
          <path id="path-3_00000095340444822330946610000003507280800132110759_" class="st1" d="M-505.5 4.6H-571v65.5h65.5z"/>
        </g>
      </mask>
      <path id="Fill-514" d="M-538.2 5.6c17.5 0 31.8 14.2 31.8 31.7S-520.7 69-538.2 69-570 54.8-570 37.3c0-17.4 14.3-31.7 31.8-31.7m0 64.5c18.1 0 32.8-14.7 32.8-32.7s-14.7-32.7-32.8-32.7c-18.1 0-32.8 14.7-32.8 32.7s14.7 32.7 32.8 32.7" mask="url(#mask-4_00000130613873854256914660000013345694391860004758_)" fill-rule="evenodd" clip-rule="evenodd" fill="#384154"/>
    </g>
    <path id="Fill-517" class="st15" d="M44.6 131.8c0-.7-.4-1.2-.9-1.2s-1 .5-1 1.1c0 .7.4 1.2.9 1.2.5.1 1-.4 1-1.1"/>
    <path id="Fill-519" class="st15" d="M46.5 128.9c.3 0 .5-.2.6-.5.1-1.5.1-3.2.1-3.3 0-.3-.2-.5-.6-.5-.3 0-.5.3-.5.6 0 0 .1 1.6-.1 3.1-.1.3.1.5.5.6"/>
    <path id="Fill-521" class="st21" d="M24.3 149.8c0 4.9 2.4 10.8 7.2 10.8 4.9 0 8.4-4.3 8.4-9.2"/>
  </g>
</svg>