<svg version="1.1" id="Layer_1" xmlns="http://www.w3.org/2000/svg" xmlns:xlink="http://www.w3.org/1999/xlink" x="0" y="0" viewBox="0 0 150 120" xml:space="preserve"><style>.st7{fill:#ffefe9}.st22{fill:#384154}</style><g id="Layer_2_1_"><g id="Layer_1-2"><defs><path id="SVGID_1_" d="M30.5 12h89v96h-89z"/></defs><clipPath id="SVGID_2_"><use xlink:href="#SVGID_1_" overflow="visible"/></clipPath><g clip-path="url(#SVGID_2_)"><defs><path id="SVGID_3_" d="M35.5 15h78v120h-78z"/></defs><clipPath id="SVGID_4_"><use xlink:href="#SVGID_3_" overflow="visible"/></clipPath><g clip-path="url(#SVGID_4_)"><defs><path id="SVGID_5_" d="M51.9 65.2c.2-.8.6-1.6 1.1-2.3 1.7-1.5 4.1-3 4.5-6 .8-6.2-.9-13.5-.2-19.8.3-3.1 1-6.1 2.1-9 1.4-3.1 2.6-6.4 5.8-8 2.5-1.3 3.9-1.2 6.7-1.2 1.3-.2 2.7-.5 4-.8 1.7-.2 3.5-.1 5.2.5 4.7 1.6 6.8 4.5 8.5 8.8.6 1.4 1.6 5 2 6.5.6 2.5 1 5.4 1.3 6.7.5 2.6 1.8 5.1 3.7 7 1.2 1 2.2 2.2 3.1 3.4.7.9 1.1 1.9 1.3 3 .8 3.1-2.4 6.3-1.8 9.5.2.8.6 1.5 1.2 2.1.7.7 1.5 1.4 2.4 1.9.6.5 1.2 1.1 1.7 1.8.6 1 1.2 2.9.7 4.1-.5 1.1-2 .5-2.9.4-1-.2-2-.5-2.9-.9-1.5-.5-3.1-.9-4.7-1.2-4.2-.8-8.5-1.1-12.7-1.6-6.3-.8-12.7-1.2-19-2.1-2.9-.4-5.9-.8-8.8-1.3-.6-.1-2.7-.1-2.7-.1s.3-1.3.4-1.4"/></defs><clipPath id="SVGID_6_"><use xlink:href="#SVGID_5_" overflow="visible"/></clipPath><g clip-path="url(#SVGID_6_)"><defs><path id="SVGID_7_" d="M30.5 12h89v96h-89z"/></defs><clipPath id="SVGID_8_"><use xlink:href="#SVGID_7_" overflow="visible"/></clipPath><g clip-path="url(#SVGID_8_)"><path fill="#fa9700" d="M46.5 13h64v66h-64z"/></g></g><defs><path id="SVGID_9_" d="M71.3 23.8c-1.2-.1-2.2-.6-3-.7-4.2-.2-5.1 3-5.9 4.6-1 2.1-1 4-1.2 6.3-.4 4-.5 7.9-.3 11.9.3 2.4.9 4.7 1.7 7 .5 1.6 1.3 3 2.1 4.4.2 1.6 0 3.2-.5 4.7-.7.9-1.6 1.6-2.7 2.1-1.3.6-3 1.1-3 1.1.4 1 1.1 1.9 2 2.5 2 1.2 4.1 1.9 6.4 2.2 3.5.2 6.9-.4 10.1-1.8 3.4-1.3 7-2.2 9.7-4.8.6-.6-3.2-3.4-3.2-3.4s.1-6 .8-8.3c0-.2.3-1.5.5-2.5.2-.7.6-1.4 1.1-1.9.7-.4 1.4-.9 1.9-1.6.5-.8.8-1.8.8-2.8 0 0-2.7-1.8-5.9-7.2-1.2-2.1-2.2-4.2-3.1-6.5-.9-2.3-1.4-4.1-2.7-5.3-2-1.8-4.1.1-5.6 0"/></defs><clipPath id="SVGID_10_"><use xlink:href="#SVGID_9_" overflow="visible"/></clipPath><g clip-path="url(#SVGID_10_)"><defs><path id="SVGID_11_" d="M30.5 12h89v96h-89z"/></defs><clipPath id="SVGID_12_"><use xlink:href="#SVGID_11_" overflow="visible"/></clipPath><g clip-path="url(#SVGID_12_)"><path class="st7" d="M53.5 18h40v57h-40z"/></g></g><defs><path id="SVGID_13_" d="M37.6 66.1h74.8V108H37.6z"/></defs><clipPath id="SVGID_14_"><use xlink:href="#SVGID_13_" overflow="visible"/></clipPath><g clip-path="url(#SVGID_14_)"><defs><path id="SVGID_15_" d="M36.5 66h76v70h-76z"/></defs><clipPath id="SVGID_16_"><use xlink:href="#SVGID_15_" overflow="visible"/></clipPath><g clip-path="url(#SVGID_16_)"><defs><path id="SVGID_17_" d="M59.5 66.1s-.8.2-1.6.3c-.8.2-3.3.3-5.3.6s-4.8 0-6.9.6c-1.5.3-2.9.9-4.2 1.7-1 .8-1.8 1.7-2.3 2.8-.7 1.6-1.2 3.3-1.5 5-.3 2.9 1.1 9.8 1.1 9.8s1.5 5 2.2 9c.7 3.8 1.7 8.9 2.5 12.7.6 2.8.8 5.8 1.2 8.7.5 2.9.7 5.7.7 8.6-.1 1.5-.7 3.1-.2 4.5.3 1.1.4 2.3.3 3.4-.1 1.8 8.8.2 11.6-.5 4-1 9.1-1.8 12.5-.9 3.4.9 6.1 1.6 8.1 2 1.8.3 3.6.5 5.4.4 2-.2 4-.8 6.1-1s7.4 1.4 8.5 0c.3-1 .4-2 .3-3 .1-2.3.1-4.8.1-4.8s.3-3.3.4-5.5c.1-1.1.5-3.7.5-4.8.1-1.9 1.2-4.7 1.7-6.5.6-1.4 1-2.9 1.4-4.4.2-1.6.3-3.1.3-4.7 0 0 3.9-.2 5.3-1.6 1.9-1.9 2.5-2.3 3.2-4.9.3-1.3.3-2.6.3-3.9 0-1.7 1.2-5.6 1.2-6.8 0-1.4-.2-2.9-.7-4.2-.7-1.4-2.8-2.7-4-3.5-1.7-.9-3.5-1.6-5.4-2-2.5-.6-5.3-1.1-7.3-2.1-1.4-.8-2.7-1.5-2.7-1.5s-.5 1.5-4.5 1c-4.2-.6-8.5-1.1-12.7-1.5-2.8-.1-10.3.9-10.3.9-1.1-.3-2.1-.7-3.1-1.3-.9-.7-1.7-1.5-2.2-2.6"/></defs><clipPath id="SVGID_18_"><use xlink:href="#SVGID_17_" overflow="visible"/></clipPath><g clip-path="url(#SVGID_18_)"><defs><path id="SVGID_19_" d="M37.5 66h75v42h-75z"/></defs><clipPath id="SVGID_20_"><use xlink:href="#SVGID_19_" overflow="visible"/></clipPath><g clip-path="url(#SVGID_20_)"><path fill="#fff" d="M32.6 61.1h84.8V140H32.6z"/></g></g></g></g><defs><path id="SVGID_21_" d="M68.3 87.6c-.4-.8-.6-1.6-.5-2.5 0 0-2.5-2.7-3-4.1-1.2-3.7-1.5-4.1-1.3-8 .2-1.1.5-2.3 1-3.3.4-1 1-1.9 1.6-2.8-.3-1.2-.4-2.4-.4-3.6.1-1.3.5-2.5 1.3-3.5 1.3-1.5 3.7-.5 5 0 .6.2 3.3 2.1 3.3 2.1 1.8.3 3.6.4 5.4.3 1.5-.2 1.4-.2 1.4-.2s4.5-2.7 5.6-2.8c.9.1 1.8.3 2.7.7.8.6 1.3 1.6 1.3 2.6 0 1.5-.2 3-.5 4.5l1 2.5c.5 1.6.9 3.3 1.2 5 .1 2-.2 4.1-.9 6-.9 1.4-1.9 2.8-3 4.1l-.1 2.2c-1.6.6-3.1 1.2-4.8 1.7-.7.1-1.5 0-2.2-.2-1.3.3-2.5.6-3.8.7-.8 0-.6-1.4-1.4-1.3-.4 0-.8.1-1.2.2-.6.4-1.2.7-1.8 1-1.3.1-2.5 0-3.7-.4-.7-.3-1.7-.2-2.2-.9"/></defs><clipPath id="SVGID_22_"><use xlink:href="#SVGID_21_" overflow="visible"/></clipPath><g clip-path="url(#SVGID_22_)"><defs><path id="SVGID_23_" d="M30.5 12h89v96h-89z"/></defs><clipPath id="SVGID_24_"><use xlink:href="#SVGID_23_" overflow="visible"/></clipPath><g clip-path="url(#SVGID_24_)"><path fill="#ffe1e1" d="M58.5 54h40v40h-40z"/></g></g><defs><path id="SVGID_25_" d="M63.7 76.6c-1.5-1.5-2.4.2-2.2.4.2.6.3 1.3.3 1.9 0 .6-.1 1.2-.3 1.7 0 .8.2 1 .2 2-.1.7-.2 1.4-.2 2.1.1.4.2.9.5 1.2.2 1.6.6 3.1 1.1 4.6.9 1.4 2.1 2.5 3.5 3.3 1.6.8 3.4 1.2 5.2 1.1 1.2-.1 2.4-.5 3.5-1.1.7.1 1.3.2 2 .3.5-.1.9-.4 1.2-.8 1 .5 2.1.9 3.2 1.1.4 0 .9-.2 1.2-.5 1.5-.7 2.8-1.7 3.9-3 1.1-1.2 2.4-2.8 2.7-4.5.1-.6-.8-.8-1.5-.8s-3 2.1-3 2.1l-2.8-.2c.8-.7 1.5-1.6 2.2-2.4.3-.3.4-.8.4-1.2-.3-.6-1.7-.5-2.3-.4-1.6.2-4.8 3.4-4.8 3.4-.4-.1-.8-.1-1.2 0-.5.2-1.2.8-1.6 1-.5.2-1.1.3-1.7.2.6-.7 1-1.6 1.1-2.5 0-.6-1.1-.8-1.4-.9-1.1-.3-4.2 2.6-4.2 2.6l-.4-3.2-2.6-3-1.2-3.6-.8-.9z"/></defs><clipPath id="SVGID_26_"><use xlink:href="#SVGID_25_" overflow="visible"/></clipPath><g clip-path="url(#SVGID_26_)"><defs><path id="SVGID_27_" d="M30.5 12h89v96h-89z"/></defs><clipPath id="SVGID_28_"><use xlink:href="#SVGID_27_" overflow="visible"/></clipPath><g clip-path="url(#SVGID_28_)"><path class="st7" d="M56.5 71h38v29h-38z"/></g></g><defs><path id="SVGID_29_" d="M82.9 94.4c-.1.1-.3.2-.4.3s.9 1.1 1 1.2c.6.3 1.3.5 2 .5l1.7-.8c1 .7 2.1 1.2 3.3 1.5 1.3.1 2.5-.2 3.7-.8.5-.4.9-.9 1.2-1.4.7-.3 1.4-.9 1.8-1.6.3-.5.5-1 .5-1.5.9-.7 1.6-1.7 1.9-2.8.3-1.5-2.3-3.6-2.3-3.6s.6-.6-.7-1.7c-1.5-1-3-1.9-4.6-2.6l-1.2 2.2-2 2.4-.3 1.8c-1.5 1.3-2.9 2.7-4 4.3-.6.9-1.1 1.7-1.6 2.6"/></defs><clipPath id="SVGID_30_"><use xlink:href="#SVGID_29_" overflow="visible"/></clipPath><g clip-path="url(#SVGID_30_)"><defs><path id="SVGID_31_" d="M30.5 12h89v96h-89z"/></defs><clipPath id="SVGID_32_"><use xlink:href="#SVGID_31_" overflow="visible"/></clipPath><g clip-path="url(#SVGID_32_)"><path class="st7" d="M77.5 76h27v26h-27z"/></g></g><defs><path id="SVGID_33_" d="M82.9 60c-.2 0-.3-.1-.3-.2-.4-3 1-9.3 1.3-10.5 0-.2.2-.3.4-.2.2 0 .3.2.2.3-.8 3.5-1.6 8.1-1.3 10.3 0 .1-.1.3-.3.3"/></defs><clipPath id="SVGID_34_"><use xlink:href="#SVGID_33_" overflow="visible"/></clipPath><g clip-path="url(#SVGID_34_)"><defs><path id="SVGID_35_" d="M30.5 12h89v96h-89z"/></defs><clipPath id="SVGID_36_"><use xlink:href="#SVGID_35_" overflow="visible"/></clipPath><g clip-path="url(#SVGID_36_)"><path class="st22" d="M77.5 44h12v21h-12z"/></g></g><defs><path id="SVGID_37_" d="M60.8 36c-.2 0-.3-.1-.3-.3.1-2.7.7-5.3 1.5-7.8.7-1.9 2.1-3.5 3.9-4.4 1.4-.6 2.9-.6 4.3-.1.2.1.3.2.2.4-.1.2-.3.3-.4.2-1.2-.5-2.6-.4-3.8.1-1.6.9-2.9 2.3-3.5 4-.9 2.5-1.4 5-1.5 7.6 0 .2-.2.3-.4.3"/></defs><clipPath id="SVGID_38_"><use xlink:href="#SVGID_37_" overflow="visible"/></clipPath><g clip-path="url(#SVGID_38_)"><defs><path id="SVGID_39_" d="M30.5 12h89v96h-89z"/></defs><clipPath id="SVGID_40_"><use xlink:href="#SVGID_39_" overflow="visible"/></clipPath><g clip-path="url(#SVGID_40_)"><path class="st22" d="M55.5 18h20v23h-20z"/></g></g><defs><path id="SVGID_41_" d="M65.2 60c-.1 0-.1 0-.2-.1-2.7-2.9-4.4-8.9-4.6-16.6 0-.2.1-.3.2-.3.2 0 .3.1.3.3.2 7.5 1.8 13.4 4.4 16.2.1.1.1.3 0 .4.1.1 0 .1-.1.1"/></defs><clipPath id="SVGID_42_"><use xlink:href="#SVGID_41_" overflow="visible"/></clipPath><g clip-path="url(#SVGID_42_)"><defs><path id="SVGID_43_" d="M30.5 12h89v96h-89z"/></defs><clipPath id="SVGID_44_"><use xlink:href="#SVGID_43_" overflow="visible"/></clipPath><g clip-path="url(#SVGID_44_)"><path class="st22" d="M55.5 38h15v27h-15z"/></g></g><defs><path id="SVGID_45_" d="M75.8 60c-.1 0-.2-.1-.3-.2-.1-.2 0-.3.2-.4 3.2-1 6.2-4.4 7.2-8.2 0-.2.2-.2.4-.2s.3.2.2.4c-1.1 4-4.2 7.5-7.7 8.6"/></defs><clipPath id="SVGID_46_"><use xlink:href="#SVGID_45_" overflow="visible"/></clipPath><g clip-path="url(#SVGID_46_)"><defs><path id="SVGID_47_" d="M30.5 12h89v96h-89z"/></defs><clipPath id="SVGID_48_"><use xlink:href="#SVGID_47_" overflow="visible"/></clipPath><g clip-path="url(#SVGID_48_)"><path class="st22" d="M70.5 46h18v19h-18z"/></g></g><defs><path id="SVGID_49_" d="M70.9 47h-.2c-.7-.3-1.2-1.1-1.3-1.9 0-.6.3-1.2.7-1.7.2-.3.4-.6.5-1 .3-1 .1-2.1-.4-3-.1-.1 0-.3.1-.4.2-.1.3 0 .4.1.6 1.1.7 2.3.4 3.4-.1.4-.4.8-.6 1.2-.3.4-.5.8-.6 1.3 0 .6.4 1 1 1.3.1.1.2.2.1.4.1.2 0 .3-.1.3"/></defs><clipPath id="SVGID_50_"><use xlink:href="#SVGID_49_" overflow="visible"/></clipPath><g clip-path="url(#SVGID_50_)"><defs><path id="SVGID_51_" d="M30.5 12h89v96h-89z"/></defs><clipPath id="SVGID_52_"><use xlink:href="#SVGID_51_" overflow="visible"/></clipPath><g clip-path="url(#SVGID_52_)"><path class="st22" d="M64.5 34h12v18h-12z"/></g></g><defs><path id="SVGID_53_" d="M66.2 37h-.1c-.9-.3-2-.4-2.9-.1-.1.1-.4.1-.5 0-.1-.1-.1-.3 0-.5.5-.5 2.7-.5 3.7 0 .2.1.3.3.2.4-.2.2-.3.3-.4.2"/></defs><clipPath id="SVGID_54_"><use xlink:href="#SVGID_53_" overflow="visible"/></clipPath><g clip-path="url(#SVGID_54_)"><defs><path id="SVGID_55_" d="M30.5 12h89v96h-89z"/></defs><clipPath id="SVGID_56_"><use xlink:href="#SVGID_55_" overflow="visible"/></clipPath><g clip-path="url(#SVGID_56_)"><path class="st22" d="M57.5 31h14v11h-14z"/></g></g><defs><path id="SVGID_57_" d="M78.2 37h-.1c-1-.4-2.1-.4-3.2-.2-.2 0-.3-.1-.4-.2 0-.2.1-.3.2-.4 1.2-.3 2.4-.2 3.6.2.2.1.2.2.2.4-.1.1-.2.2-.3.2"/></defs><clipPath id="SVGID_58_"><use xlink:href="#SVGID_57_" overflow="visible"/></clipPath><g clip-path="url(#SVGID_58_)"><defs><path id="SVGID_59_" d="M30.5 12h89v96h-89z"/></defs><clipPath id="SVGID_60_"><use xlink:href="#SVGID_59_" overflow="visible"/></clipPath><g clip-path="url(#SVGID_60_)"><path class="st22" d="M69.5 31h14v11h-14z"/></g></g><defs><path id="SVGID_61_" d="M77.5 39.5c0-.3-.2-.5-.5-.5s-.5.2-.5.5.2.5.5.5.5-.2.5-.5"/></defs><clipPath id="SVGID_62_"><use xlink:href="#SVGID_61_" overflow="visible"/></clipPath><g clip-path="url(#SVGID_62_)"><defs><path id="SVGID_63_" d="M30.5 12h89v96h-89z"/></defs><clipPath id="SVGID_64_"><use xlink:href="#SVGID_63_" overflow="visible"/></clipPath><g clip-path="url(#SVGID_64_)"><path class="st22" d="M71.5 34h11v11h-11z"/></g></g><defs><path id="SVGID_65_" d="M67.5 39.5c0-.3-.2-.5-.5-.5s-.5.2-.5.5.2.5.5.5.5-.2.5-.5"/></defs><clipPath id="SVGID_66_"><use xlink:href="#SVGID_65_" overflow="visible"/></clipPath><g clip-path="url(#SVGID_66_)"><defs><path id="SVGID_67_" d="M30.5 12h89v96h-89z"/></defs><clipPath id="SVGID_68_"><use xlink:href="#SVGID_67_" overflow="visible"/></clipPath><g clip-path="url(#SVGID_68_)"><path class="st22" d="M61.5 34h11v11h-11z"/></g></g><defs><path id="SVGID_69_" d="M57.2 49c-.2 0-.3-.1-.3-.3 0-1.3-.1-2.6-.3-4.3-.5-5.5.1-11.1 1.7-16.4 1.4-4.5 4.8-11.8 11.9-10.9.2 0 .3.2.3.3s-.2.3-.3.3c-6.6-.9-9.9 6.1-11.2 10.4-1.6 5.2-2.2 10.7-1.7 16.2.1 1.7.2 3.1.2 4.3 0 .2-.1.4-.3.4z"/></defs><clipPath id="SVGID_70_"><use xlink:href="#SVGID_69_" overflow="visible"/></clipPath><g clip-path="url(#SVGID_70_)"><defs><path id="SVGID_71_" d="M30.5 12h89v96h-89z"/></defs><clipPath id="SVGID_72_"><use xlink:href="#SVGID_71_" overflow="visible"/></clipPath><g clip-path="url(#SVGID_72_)"><path class="st22" d="M51.5 12h24v42h-24z"/></g></g><defs><path id="SVGID_73_" d="M92.2 37c-.1 0-.3-.1-.3-.2-.7-4-1.8-8-3.5-11.8-3.3-6.9-9.7-8.4-14.5-6.8-.2.1-.3 0-.4-.2-.1-.2 0-.3.2-.4 5.1-1.7 11.7-.1 15.2 7.1 1.7 3.8 2.9 7.8 3.6 11.9 0 .2-.1.3-.2.4h-.1"/></defs><clipPath id="SVGID_74_"><use xlink:href="#SVGID_73_" overflow="visible"/></clipPath><g clip-path="url(#SVGID_74_)"><defs><path id="SVGID_75_" d="M30.5 12h89v96h-89z"/></defs><clipPath id="SVGID_76_"><use xlink:href="#SVGID_75_" overflow="visible"/></clipPath><g clip-path="url(#SVGID_76_)"><path class="st22" d="M68.5 12h29v30h-29z"/></g></g><defs><path id="SVGID_77_" d="M72.8 22c-.1 0-.3-.1-.3-.3v-.6c0-1 .2-2 .5-3 0-.1.2-.2.3-.2h.1c.1.1.2.2.1.3-.3.9-.4 1.9-.4 2.8v.6c-.1.3-.2.4-.3.4"/></defs><clipPath id="SVGID_78_"><use xlink:href="#SVGID_77_" overflow="visible"/></clipPath><g clip-path="url(#SVGID_78_)"><defs><path id="SVGID_79_" d="M30.5 12h89v96h-89z"/></defs><clipPath id="SVGID_80_"><use xlink:href="#SVGID_79_" overflow="visible"/></clipPath><g clip-path="url(#SVGID_80_)"><path class="st22" d="M67.5 13h11v14h-11z"/></g></g><defs><path id="SVGID_81_" d="M71.1 52c-1.1 0-2.3-.1-3.4-.3-.2 0-.2-.2-.2-.3.1-.1.2-.2.4-.1 1.8.4 5.7.4 7.2-.3.1-.1.3 0 .4 0 .1.1.1.2 0 .3h-.1c-1.4.6-2.9.8-4.3.7"/></defs><clipPath id="SVGID_82_"><use xlink:href="#SVGID_81_" overflow="visible"/></clipPath><g clip-path="url(#SVGID_82_)"><defs><path id="SVGID_83_" d="M30.5 12h89v96h-89z"/></defs><clipPath id="SVGID_84_"><use xlink:href="#SVGID_83_" overflow="visible"/></clipPath><g clip-path="url(#SVGID_84_)"><path class="st22" d="M62.5 46h18v11h-18z"/></g></g><defs><path id="SVGID_85_" d="M102.6 100c-1.6 0-3.2-.3-4.8-.7-1.3-.3-2.6-.8-3.8-1.3-1.1-.5-2.3-1-3.5-1.3l-.4-.1c-1-.2-1.8-.6-2.6-1.2-.1-.1-.1-.3 0-.4.1-.1.3-.1.4 0 .7.6 1.5 1 2.3 1.1l.4.1c1.2.4 2.4.9 3.5 1.3 1.2.5 2.4 1 3.7 1.3 4 .9 6.2.9 8.6-.2 1.5-.8 2.6-2.1 3.4-3.6.6-1.3.9-2.8.8-4.3v-1.2c.1-.8.3-1.7.5-2.7.6-3 1.4-6.3-.5-8.7-2.2-2.8-6.4-3.9-9.1-4.7l-1-.3-1.4-.4c-2.5-.7-5-1.4-6.1-2.2-.1-.1-.2-.3-.1-.4.1-.1.3-.2.4-.1 1 .8 3.6 1.5 5.9 2.1l1.4.4 1 .3c2.8.8 7.1 1.9 9.5 4.9 2.1 2.6 1.3 6.1.7 9.2-.2.9-.4 1.8-.5 2.6v1.2c.1 1.6-.2 3.2-.9 4.6v.1c-.8 1.6-2.1 2.9-3.6 3.8-1.4.5-2.8.9-4.2.8"/></defs><clipPath id="SVGID_86_"><use xlink:href="#SVGID_85_" overflow="visible"/></clipPath><g clip-path="url(#SVGID_86_)"><defs><path id="SVGID_87_" d="M30.5 12h89v96h-89z"/></defs><clipPath id="SVGID_88_"><use xlink:href="#SVGID_87_" overflow="visible"/></clipPath><g clip-path="url(#SVGID_88_)"><path class="st22" d="M82.5 65h35v40h-35z"/></g></g><defs><path id="SVGID_89_" d="M56.9 100c-5.6 0-9.1-2.7-12.8-5.4l-.4-.3c-2.5-2.2-4.6-4.9-6-7.9-.7-2-1.1-4-1.2-6.1-.2-3.4.6-6.7 2.4-9.6 2-2.9 6.4-3.7 9.6-3.7 4.7-.1 10.5-.5 14.3-2.8 1.5-.9 2.1-2.4 2.2-5.8 0-.2.1-.3.3-.3.2 0 .3.1.3.3-.1 3.6-.7 5.3-2.4 6.3-3.9 2.4-9.8 2.8-14.6 2.9-3.1.1-7.3.8-9.1 3.5-1.7 2.8-2.5 6-2.3 9.2.1 2 .5 4.1 1.1 6 1.4 2.9 3.4 5.5 5.8 7.6l.5.3c3.6 2.7 7 5.3 12.4 5.3 2.4-.1 4.7-.5 7-1.2.8-.2 1.7-.4 2.5-.6 1.2-.2 2.5-.4 3.8-.4 1.5-.1 2.9-.1 3.6-.7.1-.1.3-.1.4.1.1.1.1.3-.1.4-.9.7-2.3.8-4 .8-1.2 0-2.5.2-3.7.4-.8.2-1.7.4-2.5.6-2.3.7-4.7 1-7.1 1.2"/></defs><clipPath id="SVGID_90_"><use xlink:href="#SVGID_89_" overflow="visible"/></clipPath><g clip-path="url(#SVGID_90_)"><defs><path id="SVGID_91_" d="M30.5 12h89v96h-89z"/></defs><clipPath id="SVGID_92_"><use xlink:href="#SVGID_91_" overflow="visible"/></clipPath><g clip-path="url(#SVGID_92_)"><path class="st22" d="M31.5 53h48v52h-48z"/></g></g><g><defs><path id="SVGID_93_" d="M67.5 88c-.1 0-.3-.1-.3-.2-.1-.5-.2-1-.2-1.5 0-.4-.1-.8-.2-1.2-.3-.5-.7-1-1.1-1.5-.4-.4-.8-.9-1.1-1.3-1.6-2.5-2.3-5.5-2.1-8.4.2-1.6.6-3.2 1.3-4.8.2-.4.4-.7.6-1.1.3-.4.5-.9.7-1.3.1-.3 0-.6-.1-.9 0-.2-.1-.4-.1-.5 0-.4-.4-3.8.8-5.7 1-1.5 2.5-1.9 4.8-1.1 1.1.4 2.1 1 3 1.8.4.4.9.7 1.4.9 2.3.3 4.6.3 6.8 0 .5-.2.9-.5 1.3-.8.8-.6 1.7-1.1 2.7-1.6 1.9-.8 4-.3 5.4 1.2 1 1.3.6 3.3.4 4.7v.2c0 .2-.1.3-.1.5-.1.4-.2.8-.1 1.2.2.8.5 1.7.8 2.5.2.5.4 1.1.6 1.6.9 2.8 1.1 5.7.3 8.6-.3 1.4-1 2.7-2 3.8l-.6.6c-.3.3-.6.7-.9 1.1-.1.5-.2 1-.2 1.5 0 .2-.1.3-.3.3-.2 0-.3-.1-.3-.3 0-.6.1-1.2.2-1.8l.9-1.2c.2-.2.3-.4.5-.6.9-1 1.6-2.3 1.9-3.6.7-2.7.6-5.6-.3-8.2-.2-.5-.4-1.1-.6-1.6-.3-.8-.6-1.7-.8-2.5-.1-.5 0-1 .1-1.5.1-.2.1-.3.1-.5v-.2c.2-1.3.6-3.2-.3-4.3-1.2-1.3-3-1.7-4.6-1-.9.5-1.8 1-2.6 1.5-.5.4-1 .7-1.6.9-2.4.3-4.7.3-7.1-.1-.6-.2-1.1-.6-1.6-1-.9-.7-1.8-1.2-2.8-1.6-2-.7-3.2-.4-4 .9s-.9 3.6-.8 5.3c0 .2 0 .3.1.5.1.4.2.8.1 1.2-.2.5-.4 1-.8 1.5-.2.3-.4.7-.6 1-.6 1.5-1 3-1.2 4.6-.2 2.8.5 5.7 2 8.1.3.4.6.9 1 1.2.5.5.9 1.1 1.2 1.7.1.4.2.9.2 1.4 0 .5.1 1 .2 1.4 0 .2-.1.3-.2.4.3-.2.3-.2.2-.2"/></defs><clipPath id="SVGID_94_"><use xlink:href="#SVGID_93_" overflow="visible"/></clipPath><g clip-path="url(#SVGID_94_)"><defs><path id="SVGID_95_" d="M30.5 12h89v96h-89z"/></defs><clipPath id="SVGID_96_"><use xlink:href="#SVGID_95_" overflow="visible"/></clipPath><g clip-path="url(#SVGID_96_)"><path class="st22" d="M57.5 53h41v40h-41z"/></g></g></g><g><defs><path id="SVGID_97_" d="M81.5 67.5c0-.3-.2-.5-.5-.5s-.5.2-.5.5.2.5.5.5.5-.2.5-.5"/></defs><clipPath id="SVGID_98_"><use xlink:href="#SVGID_97_" overflow="visible"/></clipPath><g clip-path="url(#SVGID_98_)"><defs><path id="SVGID_99_" d="M30.5 12h89v96h-89z"/></defs><clipPath id="SVGID_100_"><use xlink:href="#SVGID_99_" overflow="visible"/></clipPath><g clip-path="url(#SVGID_100_)"><path class="st22" d="M75.5 62h11v11h-11z"/></g></g></g><g><defs><path id="SVGID_101_" d="M76.5 67.5c0-.3-.2-.5-.5-.5s-.5.2-.5.5.2.5.5.5.5-.2.5-.5"/></defs><clipPath id="SVGID_102_"><use xlink:href="#SVGID_101_" overflow="visible"/></clipPath><g clip-path="url(#SVGID_102_)"><defs><path id="SVGID_103_" d="M30.5 12h89v96h-89z"/></defs><clipPath id="SVGID_104_"><use xlink:href="#SVGID_103_" overflow="visible"/></clipPath><g clip-path="url(#SVGID_104_)"><path class="st22" d="M70.5 62h11v11h-11z"/></g></g></g><g><defs><path id="SVGID_105_" d="M78.6 76h-.2c-2.3-.1-3.9-1-4.6-2.6-.5-1.1-.5-2.4.1-3.5.4-.7 1-1.3 1.8-1.6.9-.3 1.8-.4 2.7-.3.2 0 .3.1.3.3 0 .2-.2.3-.4.2-.8-.1-1.6-.1-2.3.2-.7.3-1.2.7-1.5 1.4-.5.9-.5 2-.1 3 .6 1.3 2 2.1 4 2.2 1.4.1 2.8-.4 3.8-1.4.8-.9.9-2.3.3-3.3-.6-.9-1.4-1.5-2.5-1.8-.2 0-.2-.2-.2-.3.1-.2.2-.2.4-.2 1.2.3 2.2 1 2.9 2.1.7 1.3.6 2.9-.3 4-1.2 1.1-2.6 1.7-4.2 1.6"/></defs><clipPath id="SVGID_106_"><use xlink:href="#SVGID_105_" overflow="visible"/></clipPath><g clip-path="url(#SVGID_106_)"><defs><path id="SVGID_107_" d="M30.5 12h89v96h-89z"/></defs><clipPath id="SVGID_108_"><use xlink:href="#SVGID_107_" overflow="visible"/></clipPath><g clip-path="url(#SVGID_108_)"><path class="st22" d="M68.5 63h20v18h-20z"/></g></g></g><g><defs><path id="SVGID_109_" d="M80.1 73c-.3 0-.4-.2-.4-.3.1-.4 0-.9-.2-1.3-.1-.1 0-.3.2-.4.2-.1.4 0 .5.1.3.5.4 1.1.2 1.6-.1.2-.2.3-.3.3"/></defs><clipPath id="SVGID_110_"><use xlink:href="#SVGID_109_" overflow="visible"/></clipPath><g clip-path="url(#SVGID_110_)"><defs><path id="SVGID_111_" d="M30.5 12h89v96h-89z"/></defs><clipPath id="SVGID_112_"><use xlink:href="#SVGID_111_" overflow="visible"/></clipPath><g clip-path="url(#SVGID_112_)"><path class="st22" d="M74.5 66h11v12h-11z"/></g></g></g><g><defs><path id="SVGID_113_" d="M77.1 73c-.1 0-.3 0-.4-.2-.3-.5-.3-1.1 0-1.6.1-.2.3-.2.5-.2s.4.2.3.4c-.2.4-.2.8-.1 1.2.1.1 0 .3-.2.4h-.1"/></defs><clipPath id="SVGID_114_"><use xlink:href="#SVGID_113_" overflow="visible"/></clipPath><g clip-path="url(#SVGID_114_)"><defs><path id="SVGID_115_" d="M30.5 12h89v96h-89z"/></defs><clipPath id="SVGID_116_"><use xlink:href="#SVGID_115_" overflow="visible"/></clipPath><g clip-path="url(#SVGID_116_)"><path class="st22" d="M71.5 66h11v12h-11z"/></g></g></g><g><defs><path id="SVGID_117_" d="M106.2 72c-.2 0-.3-.1-.3-.3 0-2.2-1.7-3.7-3.1-4.8l-.3-.2c-1-.6-1.8-1.3-2.4-2.3-1.3-2.3-.5-4.3.3-6.3.7-1.3 1-2.9.9-4.4-.4-2.6-2-4.1-3.4-5.4l-1.5-1.5c-2.1-2.4-3.5-5.4-3.8-8.6 0-.2.1-.3.3-.3.2 0 .3.1.3.3.4 3.1 1.7 6 3.7 8.3.4.5.9 1 1.4 1.4 1.5 1.4 3.2 2.9 3.6 5.7.1 1.6-.2 3.3-.9 4.7-.8 1.9-1.5 3.7-.3 5.8.6.8 1.3 1.5 2.2 2.1l.3.2c1.6 1.1 3.4 2.7 3.4 5.2-.1.3-.2.4-.4.4"/></defs><clipPath id="SVGID_118_"><use xlink:href="#SVGID_117_" overflow="visible"/></clipPath><g clip-path="url(#SVGID_118_)"><defs><path id="SVGID_119_" d="M30.5 12h89v96h-89z"/></defs><clipPath id="SVGID_120_"><use xlink:href="#SVGID_119_" overflow="visible"/></clipPath><g clip-path="url(#SVGID_120_)"><path class="st22" d="M87.5 33h24v44h-24z"/></g></g></g><g><defs><path id="SVGID_121_" d="M52.8 66c-.2 0-.3-.2-.2-.4.2-1.9 1.6-3.3 2.7-4.5.4-.4.8-.9 1.2-1.4 1.3-2.6 1.8-5.5 1.5-8.4 0-.2.1-.3.2-.4.2 0 .3.1.3.3.3 3-.2 6.1-1.6 8.8-.4.5-.8 1.1-1.3 1.5-1 1.1-2.4 2.4-2.5 4.1 0 .3-.1.4-.3.4"/></defs><clipPath id="SVGID_122_"><use xlink:href="#SVGID_121_" overflow="visible"/></clipPath><g clip-path="url(#SVGID_122_)"><defs><path id="SVGID_123_" d="M30.5 12h89v96h-89z"/></defs><clipPath id="SVGID_124_"><use xlink:href="#SVGID_123_" overflow="visible"/></clipPath><g clip-path="url(#SVGID_124_)"><path class="st22" d="M47.5 46h16v25h-16z"/></g></g></g><g><defs><path id="SVGID_125_" d="M63.8 90c-.1 0-.2-.1-.3-.2-.3-.7-.8-1.4-1.3-1.9-.7-.6-1.3-1.5-1.6-2.4-.1-.6 0-1.2.1-1.7v-.2c.1-.4 0-.8-.1-1.2 0-.2-.1-.3-.1-.5 0-.5 0-1 .1-1.5 0-.2.1-.3.1-.5 0-.6 0-1.2-.1-1.8l-.1-.3c-.1-.4-.1-.9.2-1.3.3-.3.7-.5 1.1-.4 1.1 0 2.3 1.2 2.8 2.9.1.2.2.6.3 1.1.3 1.3.8 3.5 1.5 4.1.1.1.1.3 0 .4-.1.1-.3.2-.4.1-.9-.8-1.4-2.9-1.7-4.5-.1-.4-.2-.8-.2-1-.4-1.4-1.4-2.4-2.2-2.4-.2 0-.5 0-.6.2-.1.3-.1.5-.1.8l.1.3c.1.7.2 1.3.1 2 0 .2 0 .3-.1.5-.1.4-.1.9-.1 1.3 0 .2.1.3.1.5.1.5.1 1 .1 1.4v.2c-.1.5-.2 1-.1 1.4.3.8.7 1.6 1.4 2.1.6.6 1.1 1.3 1.5 2.1-.1.1-.2.3-.4.4"/></defs><clipPath id="SVGID_126_"><use xlink:href="#SVGID_125_" overflow="visible"/></clipPath><g clip-path="url(#SVGID_126_)"><defs><path id="SVGID_127_" d="M30.5 12h89v96h-89z"/></defs><clipPath id="SVGID_128_"><use xlink:href="#SVGID_127_" overflow="visible"/></clipPath><g clip-path="url(#SVGID_128_)"><path class="st22" d="M55.5 71h16v24h-16z"/></g></g></g><g><defs><path id="SVGID_129_" d="M67.2 95c-.5 0-1-.1-1.4-.3-1-.5-1.9-2.3-2.3-3.8 0-.2.1-.3.2-.4.2 0 .3.1.4.2.3 1.3 1 2.5 2 3.4.9.4 1.9.3 2.7-.2.7-.5 1.2-1.1 1.5-1.8l.3-.6 1.2-1.8c.2-.3.4-.6.7-.8.6-.6 1-1.4 1.3-2.2.1-.2.1-.5-.1-.7-.3-.3-.8-.4-1.2-.3-1.1.1-2.8 1.4-4 2.6-.5.5-.9 1-1.4 1.5-.4.5-.9 1-1.4 1.5-.1.1-.3.1-.4 0-.1-.1-.1-.3 0-.4.5-.5.9-1 1.4-1.5s.9-1 1.4-1.5c.8-.8 2.9-2.6 4.4-2.7.6-.1 1.3.1 1.8.5.3.4.4.8.2 1.3-.3.9-.8 1.7-1.4 2.4-.2.3-.4.6-.6.8-.4.6-.8 1.2-1.1 1.8l-.3.6c-.4.8-1 1.5-1.7 2-.8.2-1.5.4-2.2.4"/></defs><clipPath id="SVGID_130_"><use xlink:href="#SVGID_129_" overflow="visible"/></clipPath><g clip-path="url(#SVGID_130_)"><defs><path id="SVGID_131_" d="M30.5 12h89v96h-89z"/></defs><clipPath id="SVGID_132_"><use xlink:href="#SVGID_131_" overflow="visible"/></clipPath><g clip-path="url(#SVGID_132_)"><path class="st22" d="M58.5 80h21v20h-21z"/></g></g></g><g><defs><path id="SVGID_133_" d="M76.6 95c-1.1-.1-2.1-.3-3.2-.8-.8-.4-1.7-.6-2.6-.7-.2 0-.3-.1-.3-.3 0-.2.2-.3.3-.3 1 .1 1.9.4 2.8.7 1.1.5 2.3.8 3.5.7.6-.1 1-.8 1.4-1.4.1-.3.3-.5.5-.7.7-.8 1.3-1.7 2.2-2.6.3-.3.5-.6.7-1 .3-.5.6-.9 1-1.3.2-.2.4-.4.7-.6.9-.8 1.6-1.3 1.2-1.8-.6-.7-2.4-.1-3.5.5-1.4.9-2.7 1.9-3.8 3-1.1 1.1-2.1 2.3-3 3.6-.1.1-.3.2-.4.1-.1-.1-.2-.2-.1-.4.9-1.3 1.9-2.5 3-3.6 1.2-1.2 2.6-2.2 4-3.1 1.2-.7 3.4-1.5 4.3-.3.8 1-.3 1.9-1.2 2.6-.2.2-.4.4-.7.6-.3.3-.6.7-.9 1.2-.2.4-.5.8-.8 1.1-.8.9-1.5 1.7-2.1 2.6-.2.2-.3.4-.4.7-.4.7-.9 1.5-1.8 1.7-.3-.2-.6-.2-.8-.2"/></defs><clipPath id="SVGID_134_"><use xlink:href="#SVGID_133_" overflow="visible"/></clipPath><g clip-path="url(#SVGID_134_)"><defs><path id="SVGID_135_" d="M30.5 12h89v96h-89z"/></defs><clipPath id="SVGID_136_"><use xlink:href="#SVGID_135_" overflow="visible"/></clipPath><g clip-path="url(#SVGID_136_)"><path class="st22" d="M65.5 79h25v21h-25z"/></g></g></g><g><defs><path id="SVGID_137_" d="M81.4 95H81c-.3 0-.6-.1-.9-.2H80l-.4-.2c-.6-.2-1.1-.4-1.7-.5-.2 0-.3-.1-.3-.3 0-.2.2-.3.4-.3.7.1 1.3.3 1.9.5l.3.1h.1c.3.1.5.2.8.2 1.1 0 2.2-.4 3-1.2.2-.2.4-.3.6-.4.2-.1.5-.3.7-.5.5-.3 1-.6 1.4-1 .3-.3.6-.6.8-1 .1-.2.2-.4.4-.7s.4-.6.7-.9c.4-.5 1.1-1.3 1-1.5-.1-.5-.3-.6-.4-.6-.6-.2-2 .4-3.1 1.2-.2.2-1.6 1.3-1.8 1.6-.3.3-.6.6-1 .8l-.6.4-1.5 1c-.5.3-1 .6-1.4.9-.1.1-.3.1-.5 0-.1-.1-.1-.3 0-.4l1.5-1c.6-.4 1.2-.8 1.5-.9s.4-.3.6-.4c.3-.2.6-.4.9-.7.6-.6 1.3-1.2 1.9-1.7.4-.3 2.5-1.7 3.7-1.3.4.1.8.5.8 1 .1.4-.4 1-1.1 1.9-.2.3-.5.6-.7.8-.2.2-.3.4-.4.6-.3.5-.6.9-1 1.2-.5.4-1 .7-1.5 1-.2.2-.5.3-.7.4l-.6.4c-.8 1-1.8 1.5-2.9 1.7"/></defs><clipPath id="SVGID_138_"><use xlink:href="#SVGID_137_" overflow="visible"/></clipPath><g clip-path="url(#SVGID_138_)"><defs><path id="SVGID_139_" d="M30.5 12h89v96h-89z"/></defs><clipPath id="SVGID_140_"><use xlink:href="#SVGID_139_" overflow="visible"/></clipPath><g clip-path="url(#SVGID_140_)"><path class="st22" d="M72.5 81h23v19h-23z"/></g></g></g><g><defs><path id="SVGID_141_" d="M85.8 94c-.2 0-.3-.1-.3-.3s.1-.3.3-.3c.2 0 .3-.1.5-.1l.1-.1c1.5-.6 2.7-1.7 3.5-3.1l.3-.4c.3-.4.6-.9.8-1.4.1-.3.3-.7.5-1 .3-.4.5-.9.5-1.4 0-.1-.1-.3-.2-.3-.3-.1-.7-.1-1 .1-.3.2-.5.4-.7.7-.1.1-.3.1-.4 0-.1-.1-.1-.3 0-.4.2-.3.5-.6.8-.9.5-.3 1-.3 1.5-.1.3.2.5.5.5.9 0 .6-.2 1.3-.5 1.8-.2.3-.3.6-.5.9-.2.5-.5 1-.9 1.5-.1.1-.2.2-.3.4-.8 1.5-2.2 2.6-3.7 3.3h-.1c-.3.1-.5.2-.7.2"/></defs><clipPath id="SVGID_142_"><use xlink:href="#SVGID_141_" overflow="visible"/></clipPath><g clip-path="url(#SVGID_142_)"><defs><path id="SVGID_143_" d="M30.5 12h89v96h-89z"/></defs><clipPath id="SVGID_144_"><use xlink:href="#SVGID_143_" overflow="visible"/></clipPath><g clip-path="url(#SVGID_144_)"><path class="st22" d="M80.5 80h17v19h-17z"/></g></g></g><g><defs><path id="SVGID_145_" d="M91.8 95c-.7 0-1.4-.2-2.1-.4-.2-.1-.2-.2-.2-.4 0-.1.2-.2.3-.2 2.7 1 3.8-.2 4-.5.1-.8-.1-1.5-.5-2.2-.1-.2-.2-.5-.3-.8-.1-.2-.1-.5-.1-.7-.1-.7-.2-1.9-.7-2.2-.1-.1-.2-.1-.3 0-.9.2-1.2 2.1-1.1 3.7 0 .2-.1.3-.3.3-.2 0-.3-.1-.3-.3 0-.7-.1-3.9 1.6-4.4.3-.1.5 0 .8.1.6.4.8 1.7.9 2.6 0 .2.1.4.1.7 0 .2.2.4.3.7.5.8.7 1.8.5 2.7-.6.9-1.6 1.4-2.6 1.3"/></defs><clipPath id="SVGID_146_"><use xlink:href="#SVGID_145_" overflow="visible"/></clipPath><g clip-path="url(#SVGID_146_)"><defs><path id="SVGID_147_" d="M30.5 12h89v96h-89z"/></defs><clipPath id="SVGID_148_"><use xlink:href="#SVGID_147_" overflow="visible"/></clipPath><g clip-path="url(#SVGID_148_)"><path class="st22" d="M84.5 82h15v18h-15z"/></g></g></g><g><defs><path id="SVGID_149_" d="M86.3 95c-.9-.1-1.7-.3-2.5-.7h-.1c-.2-.1-.2-.2-.2-.4 0-.1.2-.2.3-.2h.2c1 .4 2.2.9 2.8.6.5-.3.9-.7 1.3-1.1l.2-.2.4-.4c.5-.4 1.1-1 1.1-1.2 0-.2-.3-.6-1-.7-.2 0-.3-.2-.2-.3 0-.2.1-.3.3-.3 1 .1 1.6.6 1.5 1.3 0 .5-.6 1.1-1.4 1.7l-.4.4c-.1 0-.1.1-.2.2-.4.5-.9.9-1.5 1.2-.1.1-.3.1-.6.1"/></defs><clipPath id="SVGID_150_"><use xlink:href="#SVGID_149_" overflow="visible"/></clipPath><g clip-path="url(#SVGID_150_)"><defs><path id="SVGID_151_" d="M30.5 12h89v96h-89z"/></defs><clipPath id="SVGID_152_"><use xlink:href="#SVGID_151_" overflow="visible"/></clipPath><g clip-path="url(#SVGID_152_)"><path class="st22" d="M78.5 85h17v15h-17z"/></g></g></g><g><defs><path id="SVGID_153_" d="M94.6 94c-.2 0-.3-.1-.3-.3 0-.1.1-.3.3-.3 1.1 0 2.1-.8 2.4-1.9.1-.7-.1-1.3-.6-1.8-.1-.2-.3-.4-.4-.7-.2-.3-.3-.7-.4-1-.2-.7-.4-1.2-1.1-1.4-.3-.1-.6-.1-.8.2-.5.7-.7 1.5-.5 2.3 0 .2-.1.3-.2.3s-.3-.1-.3-.2c-.2-1 0-2.1.7-2.9.4-.3.9-.4 1.4-.3.8.3 1.3 1 1.4 1.8.1.3.2.6.3.8.1.2.2.4.4.6.6.6.8 1.5.7 2.3-.5 1.5-1.6 2.4-3 2.5"/></defs><clipPath id="SVGID_154_"><use xlink:href="#SVGID_153_" overflow="visible"/></clipPath><g clip-path="url(#SVGID_154_)"><defs><path id="SVGID_155_" d="M30.5 12h89v96h-89z"/></defs><clipPath id="SVGID_156_"><use xlink:href="#SVGID_155_" overflow="visible"/></clipPath><g clip-path="url(#SVGID_156_)"><path class="st22" d="M87.5 81h15v18h-15z"/></g></g></g><g><defs><path id="SVGID_157_" d="M99.2 91c-.1 0-.2 0-.3-.1-.1-.1-.1-.3 0-.4.9-.6 1.5-1.5 1.8-2.5.2-.6-.7-1.5-1.2-2.1-.2-.1-.3-.3-.4-.5-.6-.7-1.3-1.3-2.2-1.8-1.1-.6-2.3-1-3.5-1.1-.4-.1-.8 0-1.1.3-.2.2-.2.4-.1.6.2.8 1.5 1.5 2.4 2 .1.1.2.2.1.4s-.3.2-.5.1c-1.2-.6-2.5-1.4-2.7-2.4-.1-.4 0-.9.2-1.2.5-.4 1.1-.6 1.7-.5 1.3.1 2.6.6 3.8 1.2.9.5 1.7 1.1 2.3 1.9.1.2.3.3.4.4.7.7 1.6 1.7 1.4 2.6-.3 1.1-1 2.1-2 2.8.1.3 0 .3-.1.3"/></defs><clipPath id="SVGID_158_"><use xlink:href="#SVGID_157_" overflow="visible"/></clipPath><g clip-path="url(#SVGID_158_)"><defs><path id="SVGID_159_" d="M30.5 12h89v96h-89z"/></defs><clipPath id="SVGID_160_"><use xlink:href="#SVGID_159_" overflow="visible"/></clipPath><g clip-path="url(#SVGID_160_)"><path class="st22" d="M86.5 77h20v19h-20z"/></g></g></g><g><defs><path id="SVGID_161_" d="M97.2 85c-.2 0-.3-.1-.3-.3-.1-.5-.3-1-.7-1.4-.4-.5-1-.9-1.5-1.3l-.5-.3-.5-.3c-.4-.3-.8-.5-1.2-.8-.1-.1-.2-.3-.1-.4 0-.1.2-.2.3-.2.4.2.8.5 1.2.8l.5.3.5.3c.6.4 1.2.8 1.7 1.4.4.5.7 1.2.8 1.9.1.1 0 .3-.2.3.1 0 .1 0 0 0"/></defs><clipPath id="SVGID_162_"><use xlink:href="#SVGID_161_" overflow="visible"/></clipPath><g clip-path="url(#SVGID_162_)"><defs><path id="SVGID_163_" d="M30.5 12h89v96h-89z"/></defs><clipPath id="SVGID_164_"><use xlink:href="#SVGID_163_" overflow="visible"/></clipPath><g clip-path="url(#SVGID_164_)"><path class="st22" d="M87.5 75h15v15h-15z"/></g></g></g><g><defs><path id="SVGID_165_" d="M83.4 89c-.6 0-1.2-.1-1.7-.3-.1-.1-.2-.3-.2-.4 0-.1.1-.2.3-.2h.1c.7.3 1.5.4 2.3.2.1-.1.3 0 .3.2s0 .3-.2.4c-.3.1-.6.1-.9.1"/></defs><clipPath id="SVGID_166_"><use xlink:href="#SVGID_165_" overflow="visible"/></clipPath><g clip-path="url(#SVGID_166_)"><defs><path id="SVGID_167_" d="M30.5 12h89v96h-89z"/></defs><clipPath id="SVGID_168_"><use xlink:href="#SVGID_167_" overflow="visible"/></clipPath><g clip-path="url(#SVGID_168_)"><path class="st22" d="M76.5 83h13v11h-13z"/></g></g></g><g><defs><path id="SVGID_169_" d="M73.4 89h-.6c-.2 0-.3-.2-.3-.3 0-.2.2-.3.3-.3.6.1 1.1 0 1.7-.2.2-.1.4-.3.6-.4.2-.2.4-.3.6-.4.5-.2 1-.3 1.5-.3.2 0 .3.1.3.3 0 .2-.1.3-.3.3-.4 0-.9.1-1.3.3-.2.1-.3.2-.5.3-.5.5-1.2.8-2 .7"/></defs><clipPath id="SVGID_170_"><use xlink:href="#SVGID_169_" overflow="visible"/></clipPath><g clip-path="url(#SVGID_170_)"><defs><path id="SVGID_171_" d="M30.5 12h89v96h-89z"/></defs><clipPath id="SVGID_172_"><use xlink:href="#SVGID_171_" overflow="visible"/></clipPath><g clip-path="url(#SVGID_172_)"><path class="st22" d="M67.5 82h15v12h-15z"/></g></g></g><g><defs><path id="SVGID_173_" d="M60.2 78c-.1 0-.2 0-.2-.1-.7-.7-1.5-1.4-2.3-1.9-.6-.4-1.1-.8-1.7-1.3l-1.8-1.8c-1.1-1.3-2.4-2.4-3.8-3.2 0 0-3.8-1.9-6.4-.7-.1.1-.3 0-.4-.1-.1-.2 0-.3.1-.4 3-1.3 6.9.7 7 .8 1.5.9 2.9 2 4 3.3.6.6 1.1 1.2 1.8 1.7.5.4 1.1.9 1.6 1.2.9.6 1.7 1.2 2.4 2 .1.1.1.3 0 .4-.1.1-.2.1-.3.1"/></defs><clipPath id="SVGID_174_"><use xlink:href="#SVGID_173_" overflow="visible"/></clipPath><g clip-path="url(#SVGID_174_)"><defs><path id="SVGID_175_" d="M30.5 12h89v96h-89z"/></defs><clipPath id="SVGID_176_"><use xlink:href="#SVGID_175_" overflow="visible"/></clipPath><g clip-path="url(#SVGID_176_)"><path class="st22" d="M38.5 63h27v20h-27z"/></g></g></g><g><defs><path id="SVGID_177_" d="M96.8 82c-.1 0-.1 0-.2-.1s-.2-.2-.1-.3v-.1c1-.8 2.2-1.4 3.5-1.6.6-.1 1.3-.3 2-.5l.7-.2c1.7-.7 3.6-1.1 5.4-1.2.2 0 .3.1.3.3 0 .2-.2.3-.3.3-1.8.2-3.5.6-5.2 1.2l-.7.2c-.7.2-1.4.4-2 .6-1.2.1-2.3.6-3.2 1.4h-.2"/></defs><clipPath id="SVGID_178_"><use xlink:href="#SVGID_177_" overflow="visible"/></clipPath><g clip-path="url(#SVGID_178_)"><defs><path id="SVGID_179_" d="M30.5 12h89v96h-89z"/></defs><clipPath id="SVGID_180_"><use xlink:href="#SVGID_179_" overflow="visible"/></clipPath><g clip-path="url(#SVGID_180_)"><path class="st22" d="M91.5 73h22v14h-22z"/></g></g></g><g><defs><path id="SVGID_181_" d="M44 135c-.2 0-.3-.2-.3-.4.3-1 .2-2-.1-3-.3-.9-.4-1.9-.3-2.8 0-.6.1-1 .1-1.5.2-1.6.2-3.1 0-4.7-.1-1-.2-2-.3-2.9-.5-5-.9-8.9-2-15.5-.8-4.6-2.2-11-3.1-15.2l-.6-2.6c0-.2.1-.3.2-.4.2 0 .3.1.3.2l.6 2.6c.9 4.2 2.3 10.6 3.1 15.2 1.1 6.6 1.5 10.5 2 15.5.1.9.2 1.9.3 2.9.2 1.6.2 3.2 0 4.8 0 .5-.1.9-.1 1.5-.1.9 0 1.8.3 2.7.3 1.1.4 2.2.1 3.3.1.2-.1.3-.2.3"/></defs><clipPath id="SVGID_182_"><use xlink:href="#SVGID_181_" overflow="visible"/></clipPath><g clip-path="url(#SVGID_182_)"><defs><path id="SVGID_183_" d="M30.5 12h89v96h-89z"/></defs><clipPath id="SVGID_184_"><use xlink:href="#SVGID_183_" overflow="visible"/></clipPath><g clip-path="url(#SVGID_184_)"><path class="st22" d="M32.5 81h17v59h-17z"/></g></g></g><g><defs><path id="SVGID_185_" d="M92.2 96c-1.3 0-2.5-.3-3.6-1-.1-.1-.2-.3-.1-.4.1-.1.3-.2.4-.1 1.5.9 3.3 1.1 5 .6.9-.3 1.7-1 2-1.9.1-.2.3-.2.4-.2.1.1.2.3.2.4-.4 1.1-1.3 1.9-2.4 2.3-.6.2-1.2.3-1.9.3"/></defs><clipPath id="SVGID_186_"><use xlink:href="#SVGID_185_" overflow="visible"/></clipPath><g clip-path="url(#SVGID_186_)"><defs><path id="SVGID_187_" d="M30.5 12h89v96h-89z"/></defs><clipPath id="SVGID_188_"><use xlink:href="#SVGID_187_" overflow="visible"/></clipPath><g clip-path="url(#SVGID_188_)"><path class="st22" d="M83.5 88h18v13h-18z"/></g></g></g><g><defs><path id="SVGID_189_" d="M70.4 96h-.7c-2.5-.1-8.5-1.1-9.2-7.7 0-.2.1-.3.3-.3.2 0 .3.1.3.2.6 5.9 5.7 7 8.6 7.1 2.4.1 3.7-.4 4.3-.8.1-.1.3-.1.4.1.1.1.1.3-.1.4-1.1.8-2.5 1.2-3.9 1"/></defs><clipPath id="SVGID_190_"><use xlink:href="#SVGID_189_" overflow="visible"/></clipPath><g clip-path="url(#SVGID_190_)"><defs><path id="SVGID_191_" d="M30.5 12h89v96h-89z"/></defs><clipPath id="SVGID_192_"><use xlink:href="#SVGID_191_" overflow="visible"/></clipPath><g clip-path="url(#SVGID_192_)"><path class="st22" d="M55.5 83h24v18h-24z"/></g></g></g><g><defs><path id="SVGID_193_" d="M105.2 90c-.1 0-.2-.1-.3-.2-1.1-3-3.9-5.1-7.1-5.2-.2 0-.3-.1-.3-.3 0-.2.1-.3.3-.3 2.1-.2 5.9 1.2 7.7 5.6.1.2 0 .3-.2.4h-.1"/></defs><clipPath id="SVGID_194_"><use xlink:href="#SVGID_193_" overflow="visible"/></clipPath><g clip-path="url(#SVGID_194_)"><defs><path id="SVGID_195_" d="M30.5 12h89v96h-89z"/></defs><clipPath id="SVGID_196_"><use xlink:href="#SVGID_195_" overflow="visible"/></clipPath><g clip-path="url(#SVGID_196_)"><path class="st22" d="M92.5 79h18v16h-18z"/></g></g></g><g><defs><path id="SVGID_197_" d="M53.8 90c-.2 0-.3-.2-.3-.3.2-3.8 1.5-8.4 6.7-8.7.1 0 .3.1.3.3 0 .2-.1.3-.3.3-4.8.3-6 4.5-6.2 8.1.1.2 0 .3-.2.3"/></defs><clipPath id="SVGID_198_"><use xlink:href="#SVGID_197_" overflow="visible"/></clipPath><g clip-path="url(#SVGID_198_)"><defs><path id="SVGID_199_" d="M30.5 12h89v96h-89z"/></defs><clipPath id="SVGID_200_"><use xlink:href="#SVGID_199_" overflow="visible"/></clipPath><g clip-path="url(#SVGID_200_)"><path class="st22" d="M48.5 76h17v19h-17z"/></g></g></g><g><defs><path id="SVGID_201_" d="M96.8 134c-.2 0-.3-.1-.3-.3 0-6 .5-12.8.9-16.2.3-3.3 1.1-6.5 2.3-9.6.2-.5.3-.9.5-1.4.6-1.9.8-4 .7-6v-.2c0-.2.1-.3.3-.3.2 0 .3.1.3.3v.2c.1 2.1-.1 4.2-.7 6.2l-.5 1.4c-1.2 3-1.9 6.2-2.2 9.4-.4 3.4-.9 10.2-.9 16.1-.1.3-.2.4-.4.4"/></defs><clipPath id="SVGID_202_"><use xlink:href="#SVGID_201_" overflow="visible"/></clipPath><g clip-path="url(#SVGID_202_)"><defs><path id="SVGID_203_" d="M30.5 12h89v96h-89z"/></defs><clipPath id="SVGID_204_"><use xlink:href="#SVGID_203_" overflow="visible"/></clipPath><g clip-path="url(#SVGID_204_)"><path class="st22" d="M91.5 95h15v44h-15z"/></g></g></g><g><defs><path id="SVGID_205_" d="M64.2 69c-2.1-.4-3.9-1.7-4.7-3.6-.1-.1 0-.3.1-.4.1-.1.3 0 .3.1.8 1.7 2.4 2.9 4.3 3.3.1 0 .2.2.2.3 0 .2-.1.3-.2.3"/></defs><clipPath id="SVGID_206_"><use xlink:href="#SVGID_205_" overflow="visible"/></clipPath><g clip-path="url(#SVGID_206_)"><defs><path id="SVGID_207_" d="M30.5 12h89v96h-89z"/></defs><clipPath id="SVGID_208_"><use xlink:href="#SVGID_207_" overflow="visible"/></clipPath><g clip-path="url(#SVGID_208_)"><path class="st22" d="M54.5 60h15v14h-15z"/></g></g></g><g><defs><path id="SVGID_209_" d="M86.8 62h-.1c-.2-.1-.2-.2-.2-.4.8-1.3 2.4-1.9 3.8-1.4.1.1.2.2.2.4 0 .1-.2.2-.3.2-1.2-.3-2.4.1-3.1 1.1-.1 0-.2.1-.3.1"/></defs><clipPath id="SVGID_210_"><use xlink:href="#SVGID_209_" overflow="visible"/></clipPath><g clip-path="url(#SVGID_210_)"><defs><path id="SVGID_211_" d="M30.5 12h89v96h-89z"/></defs><clipPath id="SVGID_212_"><use xlink:href="#SVGID_211_" overflow="visible"/></clipPath><g clip-path="url(#SVGID_212_)"><path class="st22" d="M81.5 55h14v12h-14z"/></g></g></g><g><defs><path id="SVGID_213_" d="M71.2 62c-.1 0-.2 0-.2-.1a4.1 4.1 0 0 0-3.1-1.4c-.1 0-.3-.1-.3-.2s.1-.3.2-.3c1.4-.1 2.8.5 3.8 1.6.1.1 0 .2-.1.3-.1.1-.2.1-.3.1"/></defs><clipPath id="SVGID_214_"><use xlink:href="#SVGID_213_" overflow="visible"/></clipPath><g clip-path="url(#SVGID_214_)"><defs><path id="SVGID_215_" d="M30.5 12h89v96h-89z"/></defs><clipPath id="SVGID_216_"><use xlink:href="#SVGID_215_" overflow="visible"/></clipPath><g clip-path="url(#SVGID_216_)"><path class="st22" d="M62.5 55h14v12h-14z"/></g></g></g><g><defs><path id="SVGID_217_" d="M91.2 49c-.2 0-.3-.1-.3-.3-.3-3.7-2.4-5.7-4.4-7.6-1-.9-2-1.9-2.8-3.1-2.2-3.5-4.1-7.2-5.6-11-.5-1.5-1.6-2.7-3-3.3-.7-.2-1.5 0-2.1.4-.1.1-.3.1-.4-.1-.1-.1-.1-.3.1-.4.8-.6 1.8-.8 2.7-.5 1.4.4 2.6 1.7 3.4 3.7 1.5 3.8 3.3 7.5 5.5 10.9.8 1.1 1.7 2.1 2.7 3 2.1 2 4.2 4 4.5 8 0 .2-.1.3-.3.3"/></defs><clipPath id="SVGID_218_"><use xlink:href="#SVGID_217_" overflow="visible"/></clipPath><g clip-path="url(#SVGID_218_)"><defs><path id="SVGID_219_" d="M30.5 12h89v96h-89z"/></defs><clipPath id="SVGID_220_"><use xlink:href="#SVGID_219_" overflow="visible"/></clipPath><g clip-path="url(#SVGID_220_)"><path class="st22" d="M67.5 18h29v36h-29z"/></g></g></g><g><defs><path id="SVGID_221_" d="M85.8 47c-.1 0-.3-.1-.3-.3s.1-.3.3-.3c.6 0 1.8-1.3 2.2-3.2 0-.1.2-.2.3-.2.1 0 .2.2.2.3-.4 2-1.6 3.7-2.7 3.7"/></defs><clipPath id="SVGID_222_"><use xlink:href="#SVGID_221_" overflow="visible"/></clipPath><g clip-path="url(#SVGID_222_)"><defs><path id="SVGID_223_" d="M30.5 12h89v96h-89z"/></defs><clipPath id="SVGID_224_"><use xlink:href="#SVGID_223_" overflow="visible"/></clipPath><g clip-path="url(#SVGID_224_)"><path class="st22" d="M80.5 38h13v14h-13z"/></g></g></g><g><defs><path id="SVGID_225_" d="M86.7 44c-.2-.1-.3-.3-.2-.4.1-.2.2-.5.3-.8l.2-.5c.1-.2.2-.2.3-.1.1.1.1.3.1.4l-.2.6c-.1.3-.2.6-.3.8h-.2"/></defs><clipPath id="SVGID_226_"><use xlink:href="#SVGID_225_" overflow="visible"/></clipPath><g clip-path="url(#SVGID_226_)"><defs><path id="SVGID_227_" d="M30.5 12h89v96h-89z"/></defs><clipPath id="SVGID_228_"><use xlink:href="#SVGID_227_" overflow="visible"/></clipPath><g clip-path="url(#SVGID_228_)"><path class="st22" d="M81.5 37h11v12h-11z"/></g></g></g><g><defs><path id="SVGID_229_" d="M50.2 58H50l-4.5-3.4c-.1-.1-.1-.3-.1-.4.1-.1.3-.2.4-.1l4.5 3.4c.1.1.1.3.1.4 0 .1-.1.2-.2.1"/></defs><clipPath id="SVGID_230_"><use xlink:href="#SVGID_229_" overflow="visible"/></clipPath><g clip-path="url(#SVGID_230_)"><defs><path id="SVGID_231_" d="M30.5 12h89v96h-89z"/></defs><clipPath id="SVGID_232_"><use xlink:href="#SVGID_231_" overflow="visible"/></clipPath><g clip-path="url(#SVGID_232_)"><path class="st22" d="M40.5 49h15v14h-15z"/></g></g></g><g><defs><path id="SVGID_233_" d="m46.2 61-4.5-.5c-.2 0-.3-.1-.2-.3.1-.1.2-.2.3-.2l4.4.5c.2 0 .3.1.2.3.1.1-.1.2-.2.2"/></defs><clipPath id="SVGID_234_"><use xlink:href="#SVGID_233_" overflow="visible"/></clipPath><g clip-path="url(#SVGID_234_)"><defs><path id="SVGID_235_" d="M30.5 12h89v96h-89z"/></defs><clipPath id="SVGID_236_"><use xlink:href="#SVGID_235_" overflow="visible"/></clipPath><g clip-path="url(#SVGID_236_)"><path class="st22" d="M36.5 55h15v11h-15z"/></g></g></g><g><defs><path id="SVGID_237_" d="M53.2 54c-.1 0-.2-.1-.3-.2l-3.3-5.4c-.1-.1-.1-.3.1-.4.2-.1.4-.1.5.1l3.4 5.4c.1.1.1.3-.1.4-.2.1-.2.1-.3.1"/></defs><clipPath id="SVGID_238_"><use xlink:href="#SVGID_237_" overflow="visible"/></clipPath><g clip-path="url(#SVGID_238_)"><defs><path id="SVGID_239_" d="M30.5 12h89v96h-89z"/></defs><clipPath id="SVGID_240_"><use xlink:href="#SVGID_239_" overflow="visible"/></clipPath><g clip-path="url(#SVGID_240_)"><path class="st22" d="M44.5 43h14v16h-14z"/></g></g></g><g><defs><path id="SVGID_241_" d="M103.8 60c-.1 0-.2 0-.2-.1-.1-.1-.1-.4 0-.5l3.4-3.3c.1-.1.3-.1.4 0 .1.1.1.3 0 .5l-3.4 3.3s-.1.1-.2.1"/></defs><clipPath id="SVGID_242_"><use xlink:href="#SVGID_241_" overflow="visible"/></clipPath><g clip-path="url(#SVGID_242_)"><defs><path id="SVGID_243_" d="M30.5 12h89v96h-89z"/></defs><clipPath id="SVGID_244_"><use xlink:href="#SVGID_243_" overflow="visible"/></clipPath><g clip-path="url(#SVGID_244_)"><path class="st22" d="M98.5 51h14v14h-14z"/></g></g></g><g><defs><path id="SVGID_245_" d="M106.8 63c-.1 0-.2-.1-.2-.1-.1-.1 0-.3.1-.3l4.5-2.5c.1-.1.3 0 .3.1.1.1 0 .3-.1.3l-4.5 2.5h-.1"/></defs><clipPath id="SVGID_246_"><use xlink:href="#SVGID_245_" overflow="visible"/></clipPath><g clip-path="url(#SVGID_246_)"><defs><path id="SVGID_247_" d="M30.5 12h89v96h-89z"/></defs><clipPath id="SVGID_248_"><use xlink:href="#SVGID_247_" overflow="visible"/></clipPath><g clip-path="url(#SVGID_248_)"><path class="st22" d="M101.5 55h15v13h-15z"/></g></g></g><g><defs><path id="SVGID_249_" d="M106.8 67c-.1 0-.3-.1-.2-.3 0-.2 0-.4.2-.4l4.5-1.3c.2 0 .3.1.3.3 0 .2 0 .4-.2.4l-4.6 1.3"/></defs><clipPath id="SVGID_250_"><use xlink:href="#SVGID_249_" overflow="visible"/></clipPath><g clip-path="url(#SVGID_250_)"><defs><path id="SVGID_251_" d="M30.5 12h89v96h-89z"/></defs><clipPath id="SVGID_252_"><use xlink:href="#SVGID_251_" overflow="visible"/></clipPath><g clip-path="url(#SVGID_252_)"><path class="st22" d="M101.5 60h15v12h-15z"/></g></g></g></g></g></g></g></svg>