<svg id="Layer_1" data-name="Layer 1" xmlns="http://www.w3.org/2000/svg" xmlns:xlink="http://www.w3.org/1999/xlink" viewBox="0 0 150 120"><defs><style>.cls-1,.cls-2{fill:none;}.cls-2{clip-rule:evenodd;}.cls-3{clip-path:url(#clip-path);}.cls-4{clip-path:url(#clip-path-2);}.cls-5{clip-path:url(#clip-path-3);}.cls-6{clip-path:url(#clip-path-4);}.cls-7{clip-path:url(#clip-path-5);}.cls-8{clip-path:url(#clip-path-6);}.cls-9{clip-path:url(#clip-path-7);}.cls-10{clip-path:url(#clip-path-8);}.cls-11{clip-path:url(#clip-path-9);}.cls-12{clip-path:url(#clip-path-10);}.cls-13{clip-path:url(#clip-path-11);}.cls-14{clip-path:url(#clip-path-12);}.cls-15{clip-path:url(#clip-path-13);}.cls-16{clip-path:url(#clip-path-14);}.cls-17{clip-path:url(#clip-path-15);}.cls-18{clip-path:url(#clip-path-16);}.cls-19{clip-path:url(#clip-path-17);}.cls-20{clip-path:url(#clip-path-18);}.cls-21{clip-path:url(#clip-path-19);}.cls-22{clip-path:url(#clip-path-20);}.cls-23{clip-path:url(#clip-path-21);}.cls-24{clip-path:url(#clip-path-22);}.cls-25{clip-path:url(#clip-path-23);}.cls-26{clip-path:url(#clip-path-24);}.cls-27{clip-path:url(#clip-path-25);}.cls-28{clip-path:url(#clip-path-26);}.cls-29{clip-path:url(#clip-path-27);}.cls-30{clip-path:url(#clip-path-28);}.cls-31{clip-path:url(#clip-path-29);}.cls-32{clip-path:url(#clip-path-30);}.cls-33{clip-path:url(#clip-path-31);}.cls-34{clip-path:url(#clip-path-32);}.cls-35{clip-path:url(#clip-path-33);}.cls-36{clip-path:url(#clip-path-34);}.cls-37{clip-path:url(#clip-path-35);}.cls-38{clip-path:url(#clip-path-36);}.cls-39{clip-path:url(#clip-path-37);}.cls-40{clip-path:url(#clip-path-38);}.cls-41{clip-path:url(#clip-path-39);}.cls-42{clip-path:url(#clip-path-40);}.cls-43{clip-path:url(#clip-path-41);}.cls-44{clip-path:url(#clip-path-42);}.cls-45{clip-path:url(#clip-path-43);}.cls-46{clip-path:url(#clip-path-44);}.cls-47{clip-path:url(#clip-path-45);}.cls-48{clip-path:url(#clip-path-46);}.cls-49{clip-path:url(#clip-path-47);}.cls-50{clip-path:url(#clip-path-48);}.cls-51{clip-path:url(#clip-path-49);}.cls-52{clip-path:url(#clip-path-50);}.cls-53{clip-path:url(#clip-path-51);}.cls-54{clip-path:url(#clip-path-52);}.cls-55{clip-path:url(#clip-path-53);}.cls-56{clip-path:url(#clip-path-54);}.cls-57{isolation:isolate;}.cls-58{clip-path:url(#clip-path-55);}.cls-59{clip-path:url(#clip-path-56);}.cls-60{clip-path:url(#clip-path-57);}.cls-61{fill:#ffbf69;}.cls-62{clip-path:url(#clip-path-58);}.cls-63{clip-path:url(#clip-path-60);}.cls-64{clip-path:url(#clip-path-62);}.cls-65{clip-path:url(#clip-path-64);}.cls-66{clip-path:url(#clip-path-66);}.cls-67{clip-path:url(#clip-path-68);}.cls-68{clip-path:url(#clip-path-70);}.cls-69{clip-path:url(#clip-path-72);}.cls-70{clip-path:url(#clip-path-74);}.cls-71{clip-path:url(#clip-path-76);}.cls-72{clip-path:url(#clip-path-78);}.cls-73{fill:#5b2714;}.cls-74{clip-path:url(#clip-path-80);}.cls-75{clip-path:url(#clip-path-82);}.cls-76{clip-path:url(#clip-path-84);}.cls-77{clip-path:url(#clip-path-86);}.cls-78{clip-path:url(#clip-path-88);}.cls-79{clip-path:url(#clip-path-90);}.cls-80{clip-path:url(#clip-path-92);}.cls-81{clip-path:url(#clip-path-94);}.cls-82{clip-path:url(#clip-path-96);}.cls-83{clip-path:url(#clip-path-98);}.cls-84{clip-path:url(#clip-path-100);}.cls-85{clip-path:url(#clip-path-102);}.cls-86{clip-path:url(#clip-path-104);}.cls-87{clip-path:url(#clip-path-106);}.cls-88{clip-path:url(#clip-path-108);}.cls-89{clip-path:url(#clip-path-110);}.cls-90{clip-path:url(#clip-path-112);}.cls-91{clip-path:url(#clip-path-114);}.cls-92{clip-path:url(#clip-path-116);}.cls-93{clip-path:url(#clip-path-118);}.cls-94{clip-path:url(#clip-path-120);}.cls-95{clip-path:url(#clip-path-122);}.cls-96{clip-path:url(#clip-path-124);}.cls-97{clip-path:url(#clip-path-126);}.cls-98{fill:#e76e46;}.cls-99{clip-path:url(#clip-path-128);}.cls-100{fill:#ffdabb;}.cls-101{clip-path:url(#clip-path-130);}.cls-102{clip-path:url(#clip-path-132);}.cls-103{clip-path:url(#clip-path-134);}.cls-104{fill:#b6896a;}.cls-105{clip-path:url(#clip-path-136);}.cls-106{fill:#fa9700;}.cls-107{clip-path:url(#clip-path-138);}.cls-108{fill:#fff;}.cls-109{clip-path:url(#clip-path-140);}.cls-110{fill:#99b189;}.cls-111{clip-path:url(#clip-path-142);}.cls-112{clip-path:url(#clip-path-144);}.cls-113{clip-path:url(#clip-path-146);}.cls-114{clip-path:url(#clip-path-148);}.cls-115{clip-path:url(#clip-path-150);}.cls-116{clip-path:url(#clip-path-152);}.cls-117{clip-path:url(#clip-path-154);}.cls-118{clip-path:url(#clip-path-156);}.cls-119{clip-path:url(#clip-path-158);}.cls-120{clip-path:url(#clip-path-160);}.cls-121{clip-path:url(#clip-path-162);}.cls-122{clip-path:url(#clip-path-164);}.cls-123{fill:#fffaf0;}.cls-124{clip-path:url(#clip-path-166);}.cls-125{clip-path:url(#clip-path-168);}.cls-126{clip-path:url(#clip-path-170);}.cls-127{clip-path:url(#clip-path-172);}.cls-128{clip-path:url(#clip-path-174);}.cls-129{clip-path:url(#clip-path-176);}.cls-130{clip-path:url(#clip-path-178);}.cls-131{clip-path:url(#clip-path-180);}.cls-132{clip-path:url(#clip-path-182);}.cls-133{clip-path:url(#clip-path-184);}.cls-134{clip-path:url(#clip-path-186);}.cls-135{clip-path:url(#clip-path-188);}.cls-136{clip-path:url(#clip-path-190);}.cls-137{clip-path:url(#clip-path-192);}.cls-138{clip-path:url(#clip-path-194);}.cls-139{clip-path:url(#clip-path-196);}.cls-140{clip-path:url(#clip-path-198);}.cls-141{clip-path:url(#clip-path-200);}.cls-142{clip-path:url(#clip-path-202);}.cls-143{clip-path:url(#clip-path-204);}.cls-144{clip-path:url(#clip-path-206);}.cls-145{clip-path:url(#clip-path-208);}.cls-146{clip-path:url(#clip-path-210);}.cls-147{clip-path:url(#clip-path-212);}.cls-148{clip-path:url(#clip-path-214);}.cls-149{clip-path:url(#clip-path-216);}.cls-150{clip-path:url(#clip-path-218);}.cls-151{clip-path:url(#clip-path-220);}.cls-152{clip-path:url(#clip-path-222);}.cls-153{clip-path:url(#clip-path-224);}.cls-154{clip-path:url(#clip-path-226);}.cls-155{clip-path:url(#clip-path-228);}.cls-156{clip-path:url(#clip-path-230);}.cls-157{clip-path:url(#clip-path-232);}.cls-158{clip-path:url(#clip-path-234);}.cls-159{clip-path:url(#clip-path-236);}.cls-160{clip-path:url(#clip-path-238);}.cls-161{clip-path:url(#clip-path-240);}.cls-162{clip-path:url(#clip-path-242);}.cls-163{clip-path:url(#clip-path-244);}.cls-164{clip-path:url(#clip-path-246);}.cls-165{clip-path:url(#clip-path-248);}.cls-166{clip-path:url(#clip-path-250);}.cls-167{clip-path:url(#clip-path-252);}.cls-168{clip-path:url(#clip-path-254);}.cls-169{clip-path:url(#clip-path-256);}.cls-170{clip-path:url(#clip-path-258);}.cls-171{clip-path:url(#clip-path-260);}.cls-172{clip-path:url(#clip-path-262);}.cls-173{clip-path:url(#clip-path-264);}.cls-174{clip-path:url(#clip-path-266);}.cls-175{clip-path:url(#clip-path-268);}.cls-176{clip-path:url(#clip-path-270);}.cls-177{clip-path:url(#clip-path-272);}.cls-178{clip-path:url(#clip-path-274);}.cls-179{clip-path:url(#clip-path-276);}.cls-180{clip-path:url(#clip-path-278);}.cls-181{clip-path:url(#clip-path-280);}.cls-182{clip-path:url(#clip-path-282);}.cls-183{clip-path:url(#clip-path-284);}.cls-184{clip-path:url(#clip-path-286);}.cls-185{clip-path:url(#clip-path-288);}.cls-186{clip-path:url(#clip-path-290);}.cls-187{clip-path:url(#clip-path-292);}.cls-188{clip-path:url(#clip-path-294);}.cls-189{clip-path:url(#clip-path-296);}.cls-190{clip-path:url(#clip-path-298);}.cls-191{clip-path:url(#clip-path-300);}.cls-192{clip-path:url(#clip-path-302);}.cls-193{clip-path:url(#clip-path-304);}.cls-194{clip-path:url(#clip-path-306);}.cls-195{clip-path:url(#clip-path-308);}.cls-196{clip-path:url(#clip-path-310);}.cls-197{clip-path:url(#clip-path-312);}.cls-198{clip-path:url(#clip-path-314);}.cls-199{clip-path:url(#clip-path-316);}.cls-200{clip-path:url(#clip-path-318);}.cls-201{clip-path:url(#clip-path-320);}.cls-202{clip-path:url(#clip-path-322);}.cls-203{clip-path:url(#clip-path-324);}.cls-204{clip-path:url(#clip-path-326);}.cls-205{clip-path:url(#clip-path-328);}.cls-206{clip-path:url(#clip-path-330);}.cls-207{clip-path:url(#clip-path-332);}.cls-208{clip-path:url(#clip-path-334);}.cls-209{clip-path:url(#clip-path-336);}.cls-210{clip-path:url(#clip-path-338);}</style><clipPath id="clip-path"><path class="cls-1" d="M129.48,227.94c.9-2.1,1.8-4.7,3.8-5.9.5-.3,3.7-1.4,4-.5.2.5-.2.9-.3,1.4a34.29,34.29,0,0,1-2.3,5.2c-2.4,5.3-2.6,11.9-3.2,17.6a23.55,23.55,0,0,1-1,4.6,4.59,4.59,0,0,1-.7,1.6c-1.3.9-4.1.6-4.4-1.2-.5-3,.1-6.2.7-9.2Z"/></clipPath><clipPath id="clip-path-2"><path class="cls-1" d="M84.58,227.74a18.2,18.2,0,1,1,18.2,18.4,18.14,18.14,0,0,1-18.2-18.4"/></clipPath><clipPath id="clip-path-3"><path class="cls-1" d="M129.48,227.94c.9-2.1,1.8-4.7,3.8-5.9.5-.3,2.7-.9,2.4-.6s-.3.2-.5.6a33.76,33.76,0,0,0-2.4,4.1c-2.4,5.3-2.7,6.4-3.2,9.4a69.31,69.31,0,0,1-1.7,7.9c-.1.4-.9,5.7-.8,6.1.4,3.4-1.5,2.8-1.8,1-.5-3,.1-6.2.7-9.2Z"/></clipPath><clipPath id="clip-path-4"><path class="cls-1" d="M128,241.14a12.81,12.81,0,0,0,1.3-3.9c0-1.3-.1-2.3.6-2.2s2.4.6,2.4.6-.2,2-.3,2.7-.5,3.9-.5,3.9Z"/></clipPath><clipPath id="clip-path-5"><path class="cls-1" d="M127.78,252.64a3.19,3.19,0,0,1-1.4-.3,2.16,2.16,0,0,1-1.5-1.8c-.5-3.1.2-6.4.7-9.3,0-.2.2-.3.4-.3h0c.2,0,.3.2.3.4h0c-.6,2.9-1.2,6.1-.7,9.1a1.51,1.51,0,0,0,1.1,1.2,2.87,2.87,0,0,0,2.7-.2,6.72,6.72,0,0,0,.6-1.2V250a24.24,24.24,0,0,0,1-4.5l.3-3.3c.5-5,.9-10.1,2.9-14.5.2-.5.5-1,.8-1.6a27.49,27.49,0,0,0,1.5-3.6.76.76,0,0,1,.2-.4.88.88,0,0,0,.1-.7l-.1-.1a7.73,7.73,0,0,0-3.4.8c-1.7,1.1-2.6,3.2-3.4,5.1l-.3.7a.32.32,0,1,1-.6-.2l.3-.7c.8-2,1.7-4.3,3.6-5.4.5-.3,2.9-1.2,4-.8a1.21,1.21,0,0,1,.5.5,1.72,1.72,0,0,1-.2,1.2.37.37,0,0,0-.1.3,17.25,17.25,0,0,1-1.6,3.7c-.2.5-.5,1-.7,1.5-2,4.3-2.4,9.4-2.9,14.3l-.3,3.3a26.28,26.28,0,0,1-1,4.7v.2a3.46,3.46,0,0,1-.8,1.6,2.75,2.75,0,0,1-2,.5"/></clipPath><clipPath id="clip-path-6"><path class="cls-1" d="M130.68,231.34h-.1c-.2,0-.3-.2-.2-.4h0c1.2-3.5,2.7-7.4,5-9.7a.45.45,0,0,1,.5,0c.2.1.1.3,0,.5-2.2,2.2-3.7,6-4.8,9.5-.1.1-.2.2-.4.1"/></clipPath><clipPath id="clip-path-7"><path class="cls-1" d="M127,252.24a.27.27,0,0,1-.3-.3h0a48.19,48.19,0,0,1,1.3-10.7c0-.2.2-.3.4-.3s.3.2.3.4a47.2,47.2,0,0,0-1.2,10.6.91.91,0,0,1-.5.3h0"/></clipPath><clipPath id="clip-path-8"><path class="cls-1" d="M102.78,246.44a18.7,18.7,0,1,1,18.4-18.9v.2a18.54,18.54,0,0,1-18.4,18.7m0-36.8a18.05,18.05,0,1,0,17.9,18.2v-.2a18,18,0,0,0-17.9-18"/></clipPath><clipPath id="clip-path-9"><path class="cls-1" d="M110.68,217.84a14.25,14.25,0,0,0,3.1,2.9,46,46,0,0,1,4.7,4.1c1.7,1.7,2.4,4.1,4.4,5.5a13.69,13.69,0,0,0,3.2,1.6c1.2.4,2.6.7,3.1,2a6.51,6.51,0,0,1,.1,3.1,5.42,5.42,0,0,1-.6,2.5,4.87,4.87,0,0,1-1.6,2.4,4.77,4.77,0,0,1-2.9.1c-2.2-.4-4.3-.8-6.4-1.4-1-.2-2.3-.8-3.3-.4-.8.3-1.3,1.6-1.7,2.2-1.4,2.5-2.4,5.1-3.7,7.7a11.74,11.74,0,0,1-1.5,2.7s-.5.6-.6.6c.1-.4.1-.9.2-1.3a7.39,7.39,0,0,0,0-2.1,16.72,16.72,0,0,0-2.2-6.5c-.9-1.6-2-3.2-2.9-4.8-.3-.5-2.3-1.7-2.6-2.2l-5-15.1Z"/></clipPath><clipPath id="clip-path-10"><path class="cls-1" d="M56.38,234.14l-5.5.8a11.58,11.58,0,0,1,1.3,4.1,20.2,20.2,0,0,1-.3,4.9l5.4-.9Z"/></clipPath><clipPath id="clip-path-11"><path class="cls-1" d="M52.08,238.84a11.23,11.23,0,0,0-1.4-4,9.64,9.64,0,0,0-2.4,0,25.9,25.9,0,0,0-5.5.7c-.6.2-1.5,1-2.1,1.1a4.42,4.42,0,0,0-2,.2c-.5.3-.9.9-1.5,1.1-.3.1-.7-.2-1-.1-.6.1-1.1.8-1.6.9s-.8-.2-1.2-.1c-.6.1-1.1.7-1.7.8-.3,0-.6-.2-1-.2-.8.2-1.6,1.2-2.4,1.2-.3,0-.7-.2-1-.1-.8.1-1.1.8-1.8,1.1s-1.1,0-1.6.1-.9.6-1.4.8-1.2-.2-1.8.2c-.3.2-.7.8-1.1.8s-.8-.4-1.3,0c-.4.2-.7.7-1.1.9s-.3-.2-.6-.2a2,2,0,0,0-1.8,1.6,8.42,8.42,0,0,0,.7,3.5c.8,1.7,1.8,4.4,4,5,1.2.3,1.8-1.2,2.6-1.3,1-.1,1.2-.8,2.1-1,1.1-.4,2.4-.4,3.5-.8.5-.2.7-.7,1.1-.9s.8.2,1.2,0,1.3-1,1.5-1c1.3.2,1.6-.4,2.8-.9.3-.1,1,.2,1.5,0s.6-.6,1-.8c.7-.4,1.9-.2,2.6-.5a7,7,0,0,0,.9-.6c1.4-.1,2.7-.2,4.1-.4,1.9-.5,5.4-1.3,7.2-2.3a15.08,15.08,0,0,0,.5-4.8"/></clipPath><clipPath id="clip-path-12"><path class="cls-1" d="M26.78,187.84c1.4,1.9-7.3-5.9-2.7-.7s11,11.1,14.5,14.3c4.4,4,8.6,7.7,14.5,12.8,1.7,1.5,3,2.7,5.8,5s4.3,2.9,5.4,4.4c1.8,2.4,3.8,5.1,4.9,6.3,1.5,1.6,2.7,1.9,3.6,2.9,2.2,2.5,3.5,5,6.8,8.3s-1.6,4.6-2.7,5.6c-.5.4-.4.8-.2,1.6.2,1.2,1.8,2.1,3.1,2.3a23.78,23.78,0,0,0,5.3-1.1c.7-.2.9-.9,1.4-1,1-.4,2.6.1,3.4-.3s1.8-1.7,2.3-1.6c1,.3,2.5,1.8,4.1.1,3.5-3.5,2.7-1.8,5.4-1.8,5.2-.1,2.5-2.7,1.7-4.7s-2.6-.9-3-3.7.7-7.5-1.1-9.8-5.1-4.3-3.5-4.9,4.4-.2,2.6-2.1-4.1-2.3-7.1-3.9c-1.6-.8-3.1-2.1-5.1-3.4a35.45,35.45,0,0,0-6.2-3,46.74,46.74,0,0,1-13.4-8c-1.6-1.5-6.3-7-11.2-12.5"/></clipPath><clipPath id="clip-path-13"><path class="cls-1" d="M94.58,220.74a37.15,37.15,0,0,1,8-2.5c4.2-.9,7.7-1,7.8-.4s-3.2,1.8-7.3,2.7a61.29,61.29,0,0,1-7.3,1.1c-1.6-.2-1.2-.9-1.2-.9"/></clipPath><clipPath id="clip-path-14"><path class="cls-1" d="M89.28,227.64l-19,2.5-1.4,1.5a17.06,17.06,0,0,0,.3,4.5c.5,2.4,1.3,5.4,1.3,5.4l1.8.6,22.7-5s-.5-1.2-1.1-2.8a31.21,31.21,0,0,0-1.5-3.9,5,5,0,0,0-3.1-2.8"/></clipPath><clipPath id="clip-path-15"><path class="cls-1" d="M68.48,232c-.8,0-2.3.8-3.3.3s-6.3-.1-7.5,0c-.6.1-.9,2.8-.8,5.5a33.53,33.53,0,0,0,.8,5.4s7.6-.1,8.4-.7,4.3-1,4.3-1-.8-3-1.2-5.6c-.4-2.1-.4-4-.7-3.9"/></clipPath><clipPath id="clip-path-16"><path class="cls-1" d="M101,236.84c-.1,0-.9-.3-.9.1.1,2.2-1.6,1.8-3.1,1.3a16.78,16.78,0,0,0-5.9.7c-.8.2-1.6,1-2.5,1.2-1.2.3-2.5-.1-3.3.2-.4.1-.6.7-.8.7-.8.2-2.4,1.8-3.1,1.7a18.1,18.1,0,0,0-2.3.3c-.7,0-.8-2.2-.8-2.2l-4.5,1a28,28,0,0,0,2,6.4,105.28,105.28,0,0,0,7.8,12.9c.7.8,3.3.3,3.3.3s19.3-7,20.2-7.8a13.54,13.54,0,0,0-.4-7.2c-.8-2.6-3.2-5.7-3.9-7.1-.4-.9-1.4-2.5-1.8-2.5m2.1,3.3c.4.1.6.5.9,1a34.82,34.82,0,0,1,2.2,4.3c.8,2.1-2.4,4.7-2.5,4.8-.9.8-14.1,6.5-14.1,6.5a6.2,6.2,0,0,1-2.7.2,5,5,0,0,1-2.2-1.3,12.18,12.18,0,0,1-3.3-4.8c-.2-.4.2-1,.2-2s4.3-1.7,4-2.2c-1.5-2.6-2.3-5.8-.5-6.4,2.3-.8,3.3,1,4.2.8s-.2-1.9,2.3-2.3c2.2-.3,4,2.2,4.4,2.4,1.5.8,2.3-.3,3.8-.8a18.29,18.29,0,0,1,3.3-.2"/></clipPath><clipPath id="clip-path-17"><path class="cls-1" d="M117.48,241l7,1.8a.92.92,0,0,1,.7,1.1h0a.92.92,0,0,1-1.1.7l-7-1.8a.92.92,0,0,1-.7-1.1h0a.92.92,0,0,1,1.1-.7"/></clipPath><clipPath id="clip-path-18"><path class="cls-1" d="M122.88,226.84l6.9,1.7a.92.92,0,1,1-.4,1.8h0l-7-1.8a.92.92,0,0,1,.4-1.8c-.1.1,0,.1.1.1"/></clipPath><clipPath id="clip-path-19"><path class="cls-1" d="M124.18,244.94h-.3l-7-1.7a1.56,1.56,0,0,1-.8-.6,1.18,1.18,0,0,1-.1-1,1.22,1.22,0,0,1,1.5-.9l7,1.7a1.33,1.33,0,0,1,1,1.5,1.3,1.3,0,0,1-1.3,1m-7-3.6a.63.63,0,0,0-.6.5.9.9,0,0,0,.1.5,1.38,1.38,0,0,0,.4.3l7,1.8a.57.57,0,0,0,.7-.4.9.9,0,0,0-.1-.5,1.38,1.38,0,0,0-.4-.3l-7-1.7c0-.2,0-.2-.1-.2"/></clipPath><clipPath id="clip-path-20"><path class="cls-1" d="M129.58,230.84h-.3l-7-1.8a1.23,1.23,0,0,1-.8-1.6,1.35,1.35,0,0,1,1.5-.9l7,1.7a1.33,1.33,0,0,1,1,1.5,1.57,1.57,0,0,1-1.4,1.1m-7-3.6a.75.75,0,0,0-.5.7c0,.2.2.3.3.4l7,1.7a.57.57,0,0,0,.7-.4h0a.57.57,0,0,0-.4-.7h0l-7-1.8-.1.1"/></clipPath><clipPath id="clip-path-21"><path class="cls-1" d="M96.78,221.54h-.2a.27.27,0,0,1-.3-.3h0a.27.27,0,0,1,.3-.3h0a35,35,0,0,0,6.4-.8c4-.8,6.5-1.8,7-2.2-.6-.2-3.4-.1-7.3.7a29.65,29.65,0,0,0-6.6,2,.44.44,0,0,1-.5-.1c-.1-.2,0-.4.1-.4h0a28.12,28.12,0,0,1,6.8-2.1,48.53,48.53,0,0,1,5.5-.8c2.3-.1,2.7.2,2.7.6s-.1.8-2.3,1.6a31.8,31.8,0,0,1-5.3,1.4c-2.1.3-4.2.6-6.3.7"/></clipPath><clipPath id="clip-path-22"><path class="cls-1" d="M107.18,253.64h0c-.2,0-.2-.1-.3-.1s-.1-.2.1-1.3V252a7.39,7.39,0,0,0,0-2.1,16.27,16.27,0,0,0-2.2-6.4c-.4-.8-.9-1.5-1.4-2.3s-1-1.7-1.5-2.5c-.3-.5-.5-1-.8-1.5-.1-.2,0-.4.2-.4a.6.6,0,0,1,.4.1c.3.5.5,1,.8,1.5.5.9,1,1.7,1.5,2.5s1,1.5,1.4,2.3a15.62,15.62,0,0,1,2.2,6.7,8.1,8.1,0,0,1,0,2.2.77.77,0,0,1-.1.3h0a12.81,12.81,0,0,0,1.1-2c.1-.2.1-.3.2-.5.5-1,.9-2,1.4-3a40.86,40.86,0,0,1,2.3-4.7l.2-.4c.4-.7.9-1.7,1.6-2a5.66,5.66,0,0,1,2.9.2l.6.2,1.4.3a40.33,40.33,0,0,0,5,1.1h.4a3.6,3.6,0,0,0,2.3-.1,3.9,3.9,0,0,0,1.3-2l.1-.2a6.87,6.87,0,0,0,.5-2.4v-.2a8.78,8.78,0,0,0-.1-2.8c-.4-1-1.4-1.3-2.4-1.7l-.4-.1a13.69,13.69,0,0,1-3.2-1.6,10.78,10.78,0,0,1-2.8-3.2,19.52,19.52,0,0,0-1.7-2.3,35.52,35.52,0,0,0-4.7-4l-.5-.4a13.26,13.26,0,0,1-2.7-2.6.35.35,0,0,1,.5-.5.1.1,0,0,0,.1.1,9.92,9.92,0,0,0,2.6,2.4l.5.4a47.16,47.16,0,0,1,4.8,4.1,10.77,10.77,0,0,1,1.8,2.4,9.58,9.58,0,0,0,2.6,3.1,12.66,12.66,0,0,0,3.1,1.5l.4.1c1.1.4,2.4.8,2.9,2.1a7.62,7.62,0,0,1,.2,3v.2a5.83,5.83,0,0,1-.6,2.6l-.1.2a5.33,5.33,0,0,1-1.6,2.3,4.19,4.19,0,0,1-2.7.2h-.4a46.44,46.44,0,0,1-5.1-1.1l-1.4-.4-.6-.2a5,5,0,0,0-2.4-.3c-.5.2-1,1.1-1.3,1.7-.1.1-.1.3-.2.4-.8,1.5-1.5,3.1-2.2,4.6-.4,1-.9,2.1-1.4,3.1l-.2.5a10.89,10.89,0,0,1-1.4,2.3C107.48,253.54,107.28,253.64,107.18,253.64Z"/></clipPath><clipPath id="clip-path-23"><path class="cls-1" d="M72.18,242.34h-.1l-1.8-.6a.22.22,0,0,1-.2-.2s-.8-3-1.3-5.4a17.53,17.53,0,0,1-.3-4.6c0-.1,0-.1.1-.2l1.4-1.5c0-.1.1-.1.2-.1l19.4-2.5c.2,0,.3.1.4.3s-.1.3-.3.4h0l-19.3,2.5-1.3,1.4a15.6,15.6,0,0,0,.3,4.3c.4,2,1.1,4.5,1.3,5.2l1.5.5,22.8-5c.2,0,.4.1.4.2s-.1.4-.2.4l-23,4.9h0"/></clipPath><clipPath id="clip-path-24"><path class="cls-1" d="M81.08,250.64h-.2c-.9-.4-2.2-4.9-2.4-6.5a1.31,1.31,0,0,1,.3-1.2,1.84,1.84,0,0,1,1.6-.5,5,5,0,0,0,1.2-.2l1.4-.7,1.1-.5c.2-.1.4,0,.4.2h0c.1.2,0,.4-.2.4-.5.2-.8.4-1.1.5s-.8.4-1.4.7a4,4,0,0,1-1.5.3,1.61,1.61,0,0,0-1.1.3.88.88,0,0,0-.1.7A21.39,21.39,0,0,0,81,250v-.4c0-.2.1-.3.3-.4s.3.1.4.3h0a1.37,1.37,0,0,1-.4,1.2c0-.1-.1-.1-.2-.1"/></clipPath><clipPath id="clip-path-25"><path class="cls-1" d="M87.58,240.64c-.2,0-.3-.1-.4-.3s.1-.3.3-.4c.6-.1,1.3-.3,2.1-.4.2,0,.4.1.4.3h0c0,.2-.1.4-.3.4l-2.1.4h0"/></clipPath><clipPath id="clip-path-26"><path class="cls-1" d="M93.78,239.54a.27.27,0,0,1-.3-.3c0-.2.1-.3.3-.4h0c1-.1,1.8-.2,2.6-.3.2,0,.3.2.3.4a.32.32,0,0,1-.3.3c-.7,0-1.6.2-2.6.3h0"/></clipPath><clipPath id="clip-path-27"><path class="cls-1" d="M95.58,241.84c-.2,0-.3-.1-.4-.3s.1-.3.3-.4l7.1-1.4c.2,0,.4.1.4.3s-.1.4-.3.4l-7.1,1.4h0"/></clipPath><clipPath id="clip-path-28"><path class="cls-1" d="M87.58,258.34a4.58,4.58,0,0,1-3.3-1.7,17,17,0,0,1-3.5-6.1c0-.2.1-.4.3-.4s.4.1.4.3a16.57,16.57,0,0,0,3.4,5.9c1.9,1.9,2.8,1.7,4.6,1.2l.4-.1a98.58,98.58,0,0,0,13.4-5.8c1.4-.9,2.3-2.6,3.3-4.6a.4.4,0,0,1,.4-.2c.2.1.2.3.2.5-1,2.1-2,3.8-3.6,4.8a95.82,95.82,0,0,1-13.6,5.8l-.4.1a4.65,4.65,0,0,1-2,.3"/></clipPath><clipPath id="clip-path-29"><path class="cls-1" d="M87.28,257.34a4.58,4.58,0,0,1-3.3-1.7,3.92,3.92,0,0,1-.8-1,.36.36,0,0,1,.6-.4,6.47,6.47,0,0,0,.8.9c1.9,1.9,2.8,1.7,4.6,1.2l.4-.1a98.58,98.58,0,0,0,13.4-5.8,9.27,9.27,0,0,0,3.1-4.2.4.4,0,0,1,.4-.2c.2.1.2.3.2.5a10.79,10.79,0,0,1-3.4,4.5,95.82,95.82,0,0,1-13.6,5.8l-.4.1a4.77,4.77,0,0,1-2,.4"/></clipPath><clipPath id="clip-path-30"><path class="cls-1" d="M78.78,243.64c-.1,0-.3-.1-.3-.2a8,8,0,0,1-.3-1.5.75.75,0,0,0-.1-.5c0-.2.1-.4.3-.4s.4.1.4.3h0a.75.75,0,0,0,.1.5,6.75,6.75,0,0,0,.2,1.4c.1.2,0,.4-.2.4h-.1"/></clipPath><clipPath id="clip-path-31"><path class="cls-1" d="M57.68,243.64c-.2,0-.3-.1-.3-.2a48.52,48.52,0,0,1-.9-5.5c0-.1-.4-5.7,1-5.8.1,0,6.5-.6,7.7,0a3.33,3.33,0,0,0,2.2-.1,3.55,3.55,0,0,1,1-.2.27.27,0,0,1,.3.3h0c0,.2-.1.3-.3.4h-.1a1.88,1.88,0,0,0-.8.2,3.88,3.88,0,0,1-2.6.1c-.8-.4-5.5-.1-7.4,0-.3.2-.6,2.4-.4,5.1a30,30,0,0,0,.8,5.1c3.6-.1,7.5-.3,7.9-.7.9-.7,4.1-1,4.4-1s.3.1.4.3-.1.3-.3.4h0a13.18,13.18,0,0,0-4.1.9c-.8.5-7.2.6-8.5.7Z"/></clipPath><clipPath id="clip-path-32"><path class="cls-1" d="M51.78,244.24c-.1,0-.2,0-.2-.1a.37.37,0,0,1-.1-.3,19.39,19.39,0,0,0,.3-4.8,14.19,14.19,0,0,0-1.2-4,.44.44,0,0,1,.1-.5h.1l5.5-.8c.2,0,.4.1.4.3s-.1.3-.3.4h0l-5.1.8a12.74,12.74,0,0,1,1.1,3.8,17.06,17.06,0,0,1-.3,4.5l4.9-.8c.2,0,.3.1.4.3s-.1.3-.3.4l-5.3.8h0"/></clipPath><clipPath id="clip-path-33"><path class="cls-1" d="M104.18,228.64a10.87,10.87,0,0,1-1.8-.1c-.2,0-.3-.2-.3-.4s.2-.3.4-.3h0a16.4,16.4,0,0,0,13.3-4.8.35.35,0,0,1,.5.5h0a17.11,17.11,0,0,1-12.1,5.1"/></clipPath><clipPath id="clip-path-34"><path class="cls-1" d="M132.48,236h0l-2.6-.6c-.2,0-.3-.2-.2-.4s.2-.3.4-.2h0l2.4.6c.2,0,.3.2.2.4h0c0,.1-.2.2-.2.2"/></clipPath><clipPath id="clip-path-35"><path class="cls-1" d="M131.58,242.54h0l-3.4-.9c-.2-.1-.3-.2-.2-.4s.2-.3.4-.2h0l3.3.9c.2,0,.3.2.2.4h0c0,.2-.1.3-.3.2"/></clipPath><clipPath id="clip-path-36"><path class="cls-1" d="M20.68,252.74c-.1,0-.2-.1-.3-.1-.3-.4-.5-.8-.8-1.2-1.4-2-2.7-3.9-2.7-6.8a.3.3,0,0,1,.6,0c0,2.7,1.2,4.4,2.6,6.4a8.34,8.34,0,0,1,.8,1.2c.1.2.1.4-.1.5h-.1"/></clipPath><clipPath id="clip-path-37"><path class="cls-1" d="M23.38,251.74c-.1,0-.1,0-.2-.1-2.2-1.6-3.9-5.6-3.9-8a.3.3,0,0,1,.6,0c0,2.2,1.6,6,3.7,7.5.2.1.2.3.1.5s-.2.2-.3.1"/></clipPath><clipPath id="clip-path-38"><path class="cls-1" d="M25.78,250.84c-.1,0-.2,0-.2-.1-1.8-1.8-3.9-5-3.9-8.1,0-.2.2-.3.4-.3a.32.32,0,0,1,.3.3c0,2.9,2,5.9,3.6,7.6a.45.45,0,0,1,0,.5h0a.35.35,0,0,1-.2.1"/></clipPath><clipPath id="clip-path-39"><path class="cls-1" d="M28.78,250h-.1c-1.9-1-3-4-3.6-5.8a4.62,4.62,0,0,1-.4-2.6c.1-.2.2-.3.4-.2s.3.2.2.4a4.09,4.09,0,0,0,.3,2.2c.6,1.6,1.6,4.6,3.3,5.4a.4.4,0,0,1,.2.4h0c-.1.1-.2.2-.3.2"/></clipPath><clipPath id="clip-path-40"><path class="cls-1" d="M31.08,248.74c-.1,0-.1,0-.2-.1-1.6-1-2.6-4.2-3-5.9l-.1-.6a4.4,4.4,0,0,1-.2-1.6.32.32,0,0,1,.3-.3.27.27,0,0,1,.3.3h0a7.72,7.72,0,0,0,.2,1.5l.1.6c.3,1.5,1.3,4.5,2.7,5.5a.44.44,0,0,1,.1.5.35.35,0,0,1-.2.1"/></clipPath><clipPath id="clip-path-41"><path class="cls-1" d="M33.88,247.74c-.1,0-.2,0-.2-.1a12.47,12.47,0,0,1-3.1-8.3c0-.2.1-.4.3-.4s.4.1.4.3v.1a11.93,11.93,0,0,0,2.9,7.9.45.45,0,0,1,0,.5h0c-.1-.1-.2,0-.3,0"/></clipPath><clipPath id="clip-path-42"><path class="cls-1" d="M36.48,246.84c-.1,0-.2,0-.2-.1-2-2-2.9-5.5-2.9-8,0-.2.2-.3.4-.3a.32.32,0,0,1,.3.3c0,2.4.9,5.8,2.7,7.5a.45.45,0,0,1,0,.5.44.44,0,0,0-.3.1"/></clipPath><clipPath id="clip-path-43"><path class="cls-1" d="M39.08,246.14c-.1,0-.1,0-.2-.1-1.8-1.4-2.7-6.5-2.7-7.9a.27.27,0,0,1,.3-.3h0a.27.27,0,0,1,.3.3h0c0,1.4.9,6.2,2.4,7.3a.44.44,0,0,1,.1.5.22.22,0,0,1-.2.2"/></clipPath><clipPath id="clip-path-44"><path class="cls-1" d="M41.28,245.74c-.1,0-.2,0-.2-.1-1.7-1.7-2.9-7.1-2.3-8.4.1-.2.2-.3.4-.2s.3.2.2.4h0c-.4,1,.7,6.1,2.2,7.6a.45.45,0,0,1,0,.5h0c-.1.2-.2.2-.3.2"/></clipPath><clipPath id="clip-path-45"><path class="cls-1" d="M43.18,245.64c-.1,0-.2,0-.2-.1-2.1-2.1-2.9-6.8-2-9,.1-.2.3-.3.4-.2s.3.3.2.4c-.8,2-.1,6.4,1.9,8.3a.45.45,0,0,1,0,.5h0c-.2.1-.2.1-.3.1"/></clipPath><clipPath id="clip-path-46"><path class="cls-1" d="M56.68,190.34c6,6.8,9.8,11,10.2,11.4l1.7,1.2a57.82,57.82,0,0,0,4.8,3.3,48.5,48.5,0,0,0,6.5,3.1c1.4.6,2.9,1.2,4.3,1.9a18.52,18.52,0,0,1,3.3,2.1c.8.5,1.6,1.1,2.4,1.6,1.4.8,2.8,1.5,4.2,2.2l1.4.7a7.76,7.76,0,0,1,2.4,1.6c.1.1.2.1.3.2s.1,0,.2-.1a.44.44,0,0,0,.1-.5,8.32,8.32,0,0,0-2.6-1.9l-1.4-.7c-1.4-.7-2.9-1.4-4.2-2.2-.8-.5-1.6-1-2.4-1.6a39.56,39.56,0,0,0-3.4-2.2c-1.4-.7-2.9-1.3-4.4-1.9a41.23,41.23,0,0,1-6.4-3c-1.6-1-3.2-2.2-4.7-3.3-.6-.4-1.1-.8-1.7-1.2s-5.4-5.9-10.2-11.3"/></clipPath><clipPath id="clip-path-47"><path class="cls-1" d="M98.48,238.84h-.2a4.7,4.7,0,0,1-3.1-1.6,13.87,13.87,0,0,1-2.1-4,9.41,9.41,0,0,0-2.5-4.3,4.35,4.35,0,0,1-.6-.7,4.26,4.26,0,0,0-1.2-1.1,14.08,14.08,0,0,0-4.5-.7,20.68,20.68,0,0,1-3.5-.3,13.68,13.68,0,0,1-4.5-2.3c-.2-.1-.2-.3-.1-.5s.3-.2.4-.1h0a14.91,14.91,0,0,0,4.3,2.3,18.41,18.41,0,0,0,3.3.3,15.94,15.94,0,0,1,4.8.7,4.43,4.43,0,0,1,1.5,1.2l.6.6a9.68,9.68,0,0,1,2.6,4.6,12.32,12.32,0,0,0,1.9,3.8,4,4,0,0,0,2.6,1.4,1.75,1.75,0,0,0,1.2-.4c.4-.4.3-1.6.2-2.6a5.7,5.7,0,0,1-.1-1.3c0-.4.1-.8.1-1.2a12.27,12.27,0,0,0-.3-5.4,9.62,9.62,0,0,0-2.3-3l-.5-.5c-1.8-1.9-4-4.6-4.7-6.4-.1-.2,0-.4.2-.4s.4,0,.4.2c.7,1.8,2.8,4.3,4.6,6.2l.5.5a10.76,10.76,0,0,1,2.4,3.2,11.76,11.76,0,0,1,.3,5.6c0,.4-.1.8-.1,1.2a4.87,4.87,0,0,0,.1,1.2c.1,1.2.3,2.5-.4,3.1a1.36,1.36,0,0,1-1.3.7"/></clipPath><clipPath id="clip-path-48"><path class="cls-1" d="M65.48,224.24a14.85,14.85,0,0,0-1.1-1.5c-.1-.1-.4-.3-1.8-1.5-29.7-24.4-30-26.2-35.3-34h-.8c5.3,7.7,5.5,9.7,35.7,34.5a18.55,18.55,0,0,0,1.8,1.4c.3.3.6.9,1.1,1.5a30.14,30.14,0,0,0,4.9,5.8c.1,0,.1.1.2.1a.32.32,0,0,0,.3-.3.37.37,0,0,0-.1-.3,23.94,23.94,0,0,1-4.9-5.7"/></clipPath><clipPath id="clip-path-49"><path class="cls-1" d="M101.68,244.64a6.28,6.28,0,0,1-1.9-.3c-.2-.1-.4-.1-.6-.2a2.83,2.83,0,0,1-1.8-.9c-.6-.8.3-2.1,1-2.5,1.6-1.2,3.2-.8,4.8-.3h.1c.2,0,.3.2.2.4s-.2.3-.4.2H103c-1.6-.4-2.9-.7-4.3.2-.5.3-1.1,1.2-.8,1.6a2,2,0,0,0,1.4.6l.7.2a4.25,4.25,0,0,0,3.8-.3c.2-.1.4-.1.5.1s.1.4-.1.5a3.67,3.67,0,0,1-2.5.7"/></clipPath><clipPath id="clip-path-50"><path class="cls-1" d="M94.28,247.14c-2.1,0-3.2-1.8-4.1-3.3h0c-.6-1-1.4-2.3-.9-3.7a2.42,2.42,0,0,1,1.8-1.6,5.59,5.59,0,0,1,4.4,1.7l.1.1a13,13,0,0,1,1.8,2.3c.1.2,0,.4-.2.4a.6.6,0,0,1-.4-.1,11.78,11.78,0,0,0-1.7-2.2v-.1a4.84,4.84,0,0,0-3.8-1.5,1.89,1.89,0,0,0-1.4,1.2c-.4,1.1.3,2.2.8,3.1h0c1.2,2,2.2,3.3,4.2,2.9a3.31,3.31,0,0,0,1.9-1.4,3.74,3.74,0,0,1,1.5-1.3c.2-.1.4,0,.4.1s0,.4-.2.4a4.89,4.89,0,0,0-1.3,1.2,4,4,0,0,1-2.3,1.7c0,.1-.3.1-.6.1"/></clipPath><clipPath id="clip-path-51"><path class="cls-1" d="M88.48,248.34a4.17,4.17,0,0,1-2.4-.9,6.3,6.3,0,0,1-2.2-5.9,2,2,0,0,1,1.5-1.7,4.53,4.53,0,0,1,4,1.2.35.35,0,0,1-.5.5,4.06,4.06,0,0,0-3.3-1.1,1.38,1.38,0,0,0-1.1,1.2,5.72,5.72,0,0,0,2,5.2,2.91,2.91,0,0,0,3.2.5l.1-.1a2.76,2.76,0,0,0,1.6-1.2.4.4,0,0,1,.4-.2.25.25,0,0,1,.1.4h0a3.17,3.17,0,0,1-1.9,1.5h-.1a1.64,1.64,0,0,1-1.4.6"/></clipPath><clipPath id="clip-path-52"><path class="cls-1" d="M82.58,249.64c-.2,0-.3-.1-.3-.2s.1-.4.2-.4h0l2.7-.7.5-.2.3-.3.1-.3c0-.2.2-.3.4-.2h0c.2,0,.3.2.2.4l-.1.4c0,.1,0,.1-.1.2l-.4.4a.1.1,0,0,0-.1.1l-.6.3h-.1l-2.7.5h0"/></clipPath><clipPath id="clip-path-53"><rect class="cls-1" x="11.3" y="0.42" width="127.4" height="119.17"/></clipPath><clipPath id="clip-path-54"><rect class="cls-1" x="-633.4" y="-1388.93" width="878.64" height="1882.48"/></clipPath><clipPath id="clip-path-55"><rect class="cls-1" x="14.59" y="15.79" width="122.46" height="108.18"/></clipPath><clipPath id="clip-path-56"><path class="cls-2" d="M66.29,43.38a6.92,6.92,0,0,1,.93-2.68c1.85-2,5.91-2.32,10.84-1.24a20,20,0,0,1,5.65,2.22c2.84,1.7,4.28,3.8,3.84,5.71a5,5,0,0,1-1.62,2.93c-2.06,1.26-5.62,1.57-10.09.58a18.24,18.24,0,0,1-7.18-3.27c-1.81-1.35-2.72-2.74-2.37-4.25"/></clipPath><clipPath id="clip-path-57"><rect class="cls-1" x="15.14" y="17.44" width="121.36" height="102.14"/></clipPath><clipPath id="clip-path-58"><path class="cls-2" d="M105.17,21.52a6.47,6.47,0,0,1,2.09-2.17c2-.7,5.06,0,8.12,1.65a33,33,0,0,1,2.84,1.74,15.79,15.79,0,0,1,3.21,2.78,14.48,14.48,0,0,1,2.13,2.87c1.06,1.95,1.15,3.45.25,4.85-1.13,1.74-2.75,2.94-6.15,2a21.76,21.76,0,0,1-5.81-2.6c-5.52-3.45-8.46-8.42-6.68-11.11"/></clipPath><clipPath id="clip-path-60"><path class="cls-2" d="M42.7,23.51c3.5-4.51,7.54-6.51,10.23-6a8.34,8.34,0,0,1,2.16,1.42c2.1,1.58,1.72,6.36-2.63,12s-9,7.34-11.14,5.77c-.59-.46-2.07-1.27-2.38-2.32-.5-1.82,0-4.56,1.41-7.28a27.48,27.48,0,0,1,2.35-3.55"/></clipPath><clipPath id="clip-path-62"><path class="cls-2" d="M54.44,58.56a2.14,2.14,0,1,1,3.76,1.85,2.23,2.23,0,0,1-2.91,1.34,2.26,2.26,0,0,1-.85-3.19"/></clipPath><clipPath id="clip-path-64"><path class="cls-2" d="M92,58.53a5.81,5.81,0,0,1,2.06-4.3,6.41,6.41,0,0,1,3.79-1.64,4.25,4.25,0,0,1,2.81,1.17,3.48,3.48,0,0,1,1.23,2.91c0,2.91-2.88,6.35-5.43,6.35A4.18,4.18,0,0,1,92,58.53"/></clipPath><clipPath id="clip-path-66"><path class="cls-2" d="M87.27,35.38c-.63-.87.35-2.56,2.14-3.8s3.42-1.2,4-.34.07,2.35-1.72,3.58a5.42,5.42,0,0,1-3.49,1.27,2.26,2.26,0,0,1-.94-.71"/></clipPath><clipPath id="clip-path-68"><path class="cls-2" d="M25.7,70.15c1.16-2.58,4-3.93,6.17-3a3.82,3.82,0,0,1,2.05,1.72,5.71,5.71,0,0,1-.12,4.68c-1.26,3-4,4.36-6.17,3.44a4.16,4.16,0,0,1-2.51-3.07,6.32,6.32,0,0,1,.58-3.79"/></clipPath><clipPath id="clip-path-70"><path class="cls-2" d="M33.82,97.62a2.46,2.46,0,0,1,.76-2.34,10.17,10.17,0,0,1,5.51-1.51c2.24,0,4.81.6,5.94,1.66.57.57.38,1.47.38,2,0,1.63-2.84,2.89-6.26,2.89s-6.33-1.11-6.33-2.74"/></clipPath><clipPath id="clip-path-72"><path class="cls-2" d="M99.71,94.87a1.66,1.66,0,0,1,1.65-1.65A1.65,1.65,0,0,1,103,94.87a1.66,1.66,0,0,1-1.65,1.65,1.65,1.65,0,0,1-1.65-1.65"/></clipPath><clipPath id="clip-path-74"><path class="cls-2" d="M99.32,111.56c-.43-.57.06-1.68,1.23-2.56s2.43-1.23,2.86-.66-.15,1.86-1.32,2.75-2.34,1-2.77.47"/></clipPath><clipPath id="clip-path-76"><path class="cls-2" d="M115.09,92.11A4.15,4.15,0,0,1,119,87.73a4,4,0,0,1,2.81,1,5.31,5.31,0,0,1,1.56,3.61,4.54,4.54,0,0,1-4.47,4.22c-2.11,0-3.76-2-3.76-4.41"/></clipPath><clipPath id="clip-path-78"><path class="cls-2" d="M81.12,49.84a20.42,20.42,0,0,1-5.26-.74c-5.7-1.59-9.74-5.13-9-7.88s6-3.73,11.68-2.17c4.06,1.13,7.36,3.21,8.6,5.44a3.25,3.25,0,0,1,.41,2.45C87,48.8,84.49,49.84,81.12,49.84ZM73.2,38.67c-3.17,0-5.55.95-6,2.64-.68,2.56,3.25,5.89,8.75,7.42s10.55.66,11.23-1.89a2.86,2.86,0,0,0-.37-2.17c-1.18-2.11-4.46-4.17-8.38-5.26A20.32,20.32,0,0,0,73.2,38.67Z"/></clipPath><clipPath id="clip-path-80"><path class="cls-2" d="M80.7,51.49a21.14,21.14,0,0,1-5.31-.73c-5.84-1.58-9.83-5-9.09-7.72l.4-1.44.36.1-.4,1.44c-.68,2.51,3.28,5.76,8.83,7.27s10.64.64,11.32-1.86l.47-1.6.35.11s-.28.94-.46,1.58c-.5,1.82-3.08,2.85-6.47,2.85"/></clipPath><clipPath id="clip-path-82"><path class="cls-2" d="M81.08,48.74a20.54,20.54,0,0,1-5.71-.85c-3.84-1.16-6.9-3.1-7.8-5a2,2,0,0,1-.13-1.68c.86-2.07,5.87-2.45,11.16-.86,3.87,1.16,6.89,3.08,7.72,4.9a1.85,1.85,0,0,1,.05,1.62c-.55,1.19-2.63,1.83-5.29,1.83m-8.63-9c-2.41,0-4.23.55-4.66,1.6a1.65,1.65,0,0,0,.12,1.39c.84,1.74,3.89,3.65,7.57,4.76,5.14,1.51,9.81.84,10.55-.78a1.53,1.53,0,0,0,0-1.33c-.77-1.69-3.78-3.58-7.49-4.69a21.39,21.39,0,0,0-6-1"/></clipPath><clipPath id="clip-path-84"><path class="cls-2" d="M43.55,37.76a3.14,3.14,0,0,1-1.89-.57h0c-2.42-1.84-1.25-7.25,2.66-12.31s8.91-7.56,11.31-5.76a3.27,3.27,0,0,1,1.2,2.27C57.18,24,55.67,27.94,53,31.43c-3,3.9-6.77,6.33-9.42,6.33m-1.66-.87C44.12,38.57,49,36,52.67,31.21c2.64-3.43,4.13-7.26,3.79-9.78a2.89,2.89,0,0,0-1.06-2c-2.23-1.68-7.07.87-10.78,5.68s-4.94,10.11-2.73,11.8"/></clipPath><clipPath id="clip-path-86"><path class="cls-2" d="M41.27,37.21l-1.28-1A3.28,3.28,0,0,1,38.81,34c-.36-2.63,1.14-6.61,3.82-10.13,3.8-5,8.83-7.62,11.21-5.8.55.44,1.39,1.06,1.39,1.06l-.22.31s-.84-.63-1.4-1.07c-2.21-1.69-7,.88-10.69,5.73-2.61,3.45-4.08,7.32-3.74,9.85a2.91,2.91,0,0,0,1,2l1.27,1Z"/></clipPath><clipPath id="clip-path-88"><path class="cls-2" d="M43.66,37.21a2.06,2.06,0,0,1-1.09-.28,2.22,2.22,0,0,1-1-1.53c-.45-2.18.83-5.81,3.25-9.25,3.2-4.47,7.79-7.4,9.82-6.27a2.09,2.09,0,0,1,1,1.46c.48,2.1-.79,5.7-3.25,9.17-2.82,4-6.49,6.7-8.77,6.7m-.9-.6c1.83,1.1,6.2-1.85,9.37-6.32,2.36-3.34,3.64-6.9,3.19-8.87a1.8,1.8,0,0,0-.83-1.21c-1.67-.93-6,1.51-9.35,6.16-2.33,3.3-3.61,6.9-3.18,9a1.81,1.81,0,0,0,.8,1.29"/></clipPath><clipPath id="clip-path-90"><path class="cls-2" d="M120.22,36.11c-2.53,0-6-1.34-9.26-3.78-3.48-2.61-5.94-5.94-6.27-8.49a3.16,3.16,0,0,1,.56-2.45c1.83-2.33,7.25-1.18,12.32,2.6,3.47,2.61,5.93,5.94,6.26,8.49a3.15,3.15,0,0,1-.55,2.45,3.73,3.73,0,0,1-3.06,1.18M105.55,21.63a2.73,2.73,0,0,0-.48,2.16c.32,2.45,2.72,5.69,6.11,8.24,4.82,3.61,10.11,4.81,11.8,2.67a2.77,2.77,0,0,0,.48-2.17c-.32-2.45-2.72-5.68-6.11-8.24-4.83-3.6-10.13-4.8-11.8-2.66"/></clipPath><clipPath id="clip-path-92"><path class="cls-2" d="M122.65,34.46a.2.2,0,0,1-.11,0,.19.19,0,0,1,0-.26s.62-.82,1-1.34A2.79,2.79,0,0,0,124,30.7c-.31-2.42-2.67-5.61-6-8.13-4.72-3.57-9.92-4.75-11.57-2.63l-1,1.2-.29-.23,1-1.2c1.78-2.28,7.2-1.13,12.08,2.56,3.41,2.58,5.82,5.86,6.14,8.38a3.09,3.09,0,0,1-.54,2.41c-.43.52-1,1.32-1,1.33a.16.16,0,0,1-.14.07"/></clipPath><clipPath id="clip-path-94"><path class="cls-2" d="M119.63,35c-2.08,0-5.06-1.19-7.95-3.22-4.62-3.26-7.4-7.5-6.19-9.47a2.14,2.14,0,0,1,1.49-.95c2.12-.44,5.64.8,9,3.15,4.34,3.05,7.16,7.46,6,9.44a2,2,0,0,1-1.39.95,4.16,4.16,0,0,1-1,.1M107.89,21.66a3.74,3.74,0,0,0-.84.08,1.81,1.81,0,0,0-1.25.77c-1.09,1.78,1.7,5.88,6.09,9,3.24,2.28,6.7,3.52,8.61,3.07a1.65,1.65,0,0,0,1.16-.78c.91-1.61-1.43-5.78-5.93-8.94-2.78-2-5.79-3.17-7.84-3.17"/></clipPath><clipPath id="clip-path-96"><path class="cls-2" d="M39.84,100.36c-2.28,0-4.36-.6-5.38-1.56a1.86,1.86,0,0,1-.65-1.3c0-1.68,2.72-3.08,6.25-3.17,2.42-.07,4.67.54,5.73,1.56a1.8,1.8,0,0,1,.65,1.3c0,1.68-2.71,3.07-6.24,3.17h-.36m-5.66-2.87a1.52,1.52,0,0,0,.54,1.05c1,.94,3.14,1.51,5.47,1.45,3.27-.09,5.91-1.34,5.89-2.8a1.5,1.5,0,0,0-.54-1c-1-1-3.14-1.52-5.47-1.46-3.27.09-5.92,1.35-5.89,2.8"/></clipPath><clipPath id="clip-path-98"><path class="cls-2" d="M34,97.62a.19.19,0,0,1-.19-.18s0-.55,0-.9c0-1.76,2.71-3.21,6.24-3.31,2.41-.07,4.65.57,5.71,1.62a1.94,1.94,0,0,1,.65,1.36c0,.38,0,1,0,1a.18.18,0,0,1-.17.2.18.18,0,0,1-.19-.18s0-.61,0-1a1.6,1.6,0,0,0-.54-1.09c-1-1-3.14-1.58-5.45-1.52-3.27.09-5.91,1.4-5.88,2.92,0,.35,0,.88,0,.88a.19.19,0,0,1-.17.21h0"/></clipPath><clipPath id="clip-path-100"><path class="cls-2" d="M39.72,99.81c-2.84,0-5.16-.89-5.35-2.12h0a1.37,1.37,0,0,1,.36-1c.8-1,2.79-1.64,5.06-1.76,3-.18,5.83.81,6.09,2.12a1.26,1.26,0,0,1-.3,1c-.73.93-2.71,1.62-5,1.76l-.83,0m-5-2.17c.15,1,2.57,2,5.79,1.78,2.22-.13,4.09-.77,4.76-1.62a.91.91,0,0,0,.23-.72c-.2-1-2.73-2-5.71-1.82-2.14.11-4.07.76-4.8,1.63a1,1,0,0,0-.27.75"/></clipPath><clipPath id="clip-path-102"><path class="cls-2" d="M88.44,36.11a1.35,1.35,0,0,1-1.17-.49,1.22,1.22,0,0,1-.16-.94,5.18,5.18,0,0,1,2.18-2.88c1.75-1.25,3.59-1.55,4.19-.68s-.29,2.54-2,3.81a5.64,5.64,0,0,1-3,1.18M92.31,31a5.23,5.23,0,0,0-2.8,1.11,4.84,4.84,0,0,0-2,2.64.91.91,0,0,0,.1.65c.42.6,2,.43,3.67-.78s2.35-2.69,1.94-3.28a1,1,0,0,0-.87-.34"/></clipPath><clipPath id="clip-path-104"><path class="cls-2" d="M89.13,36.66a1.29,1.29,0,0,1-1.14-.5c-.11-.19-.32-.47-.32-.48a.2.2,0,0,1,0-.27.17.17,0,0,1,.25,0s.22.29.34.49c.4.6,1.93.43,3.57-.79a4.88,4.88,0,0,0,2-2.67.91.91,0,0,0-.1-.66l-.29-.42.28-.23.3.41a1.33,1.33,0,0,1,.17,1,6.17,6.17,0,0,1-5.07,4.12"/></clipPath><clipPath id="clip-path-106"><path class="cls-2" d="M99.44,111.89h-.19a.77.77,0,0,1-.5-.25.62.62,0,0,1-.13-.51A4,4,0,0,1,100.3,109a4.43,4.43,0,0,1,2.62-1,.74.74,0,0,1,.5.26c.44.55-.23,1.66-1.56,2.59a4.79,4.79,0,0,1-2.42,1m3.29-3.48a4.54,4.54,0,0,0-2.19.91A3.68,3.68,0,0,0,99,111.17a.31.31,0,0,0,0,.24.42.42,0,0,0,.26.12,4.12,4.12,0,0,0,2.32-.91c1.15-.81,1.73-1.77,1.48-2.09a.35.35,0,0,0-.25-.11h-.13"/></clipPath><clipPath id="clip-path-108"><path class="cls-2" d="M100.06,111.89h-.18a.74.74,0,0,1-.5-.26l-.22-.26.3-.23.23.28a.32.32,0,0,0,.24.11,4,4,0,0,0,2.28-.9,3.73,3.73,0,0,0,1.51-1.86.29.29,0,0,0,0-.24c-.07-.1-.19-.24-.19-.24l.3-.23.2.25a.69.69,0,0,1,.12.5,4,4,0,0,1-1.65,2.1,4.65,4.65,0,0,1-2.39,1"/></clipPath><clipPath id="clip-path-110"><path class="cls-2" d="M96,63a3.38,3.38,0,0,1-1.4-.29,3.33,3.33,0,0,1-1.82-2.1,5.84,5.84,0,0,1,.58-4.55c1.44-2.71,4.33-4.15,6.46-3.2a3.38,3.38,0,0,1,1.83,2.1,5.88,5.88,0,0,1-.59,4.55A6.17,6.17,0,0,1,96,63M98.42,53a5.79,5.79,0,0,0-4.71,3.3,5.49,5.49,0,0,0-.56,4.25,3,3,0,0,0,1.63,1.88c1.94.86,4.63-.5,6-3a5.49,5.49,0,0,0,.56-4.25,3,3,0,0,0-1.63-1.87A3.09,3.09,0,0,0,98.42,53"/></clipPath><clipPath id="clip-path-112"><path class="cls-2" d="M94.15,62.47a.15.15,0,0,1-.11,0,8.86,8.86,0,0,1-1.24-1.2c-1-1.36-1-3.41,0-5.33,1.42-2.59,4.42-4,6.55-3a5.08,5.08,0,0,1,1.35.83.18.18,0,0,1,0,.26.19.19,0,0,1-.26,0,4.75,4.75,0,0,0-1.25-.76c-2-.89-4.75.42-6.08,2.85A4.49,4.49,0,0,0,93.1,61a9.79,9.79,0,0,0,1.17,1.13.19.19,0,0,1,0,.26.2.2,0,0,1-.15.06"/></clipPath><clipPath id="clip-path-114"><path class="cls-2" d="M96.19,62.47A3.24,3.24,0,0,1,95,62.24a2.92,2.92,0,0,1-1.63-1.77,4.73,4.73,0,0,1,.51-3.84c1.26-2.29,3.81-3.5,5.68-2.7a2.89,2.89,0,0,1,1.63,1.77,4.73,4.73,0,0,1-.51,3.84,5.4,5.4,0,0,1-4.45,2.93m2.07-8.42a5,5,0,0,0-4.09,2.75,4.37,4.37,0,0,0-.48,3.55,2.54,2.54,0,0,0,1.42,1.55c1.71.7,4-.43,5.21-2.54h0a4.43,4.43,0,0,0,.48-3.54,2.56,2.56,0,0,0-1.43-1.55,2.78,2.78,0,0,0-1.11-.22"/></clipPath><clipPath id="clip-path-116"><path class="cls-2" d="M29.19,77.3A3.48,3.48,0,0,1,27,76.52c-1.83-1.51-1.85-4.72,0-7.16a5.86,5.86,0,0,1,3.88-2.47,3.57,3.57,0,0,1,2.73.75c1.82,1.5,1.83,4.71,0,7.16a5.86,5.86,0,0,1-3.88,2.47l-.5,0m2.12-10.07a3.4,3.4,0,0,0-.45,0,5.44,5.44,0,0,0-3.62,2.31c-1.7,2.29-1.72,5.29,0,6.67a3.08,3.08,0,0,0,2.43.66,5.44,5.44,0,0,0,3.62-2.31c1.69-2.3,1.7-5.29,0-6.67a3.08,3.08,0,0,0-2-.69"/></clipPath><clipPath id="clip-path-118"><path class="cls-2" d="M27.79,76.75l-.07,0a6.14,6.14,0,0,1-1.31-.81c-1.79-1.49-1.85-4.7-.13-7.17A4.83,4.83,0,0,1,31,66.38a10.69,10.69,0,0,1,1.58.57.18.18,0,0,1-.15.33,10.33,10.33,0,0,0-1.5-.54A4.47,4.47,0,0,0,26.58,69c-1.59,2.27-1.56,5.33.05,6.67a7,7,0,0,0,1.23.77.19.19,0,0,1,.1.24.18.18,0,0,1-.17.11"/></clipPath><clipPath id="clip-path-120"><path class="cls-2" d="M29.1,76.75a2.75,2.75,0,0,1-1.84-.69c-1.5-1.34-1.52-4.22,0-6.43a4.83,4.83,0,0,1,3.22-2.19,2.76,2.76,0,0,1,2.24.66c1.49,1.38,1.5,4.2,0,6.43h0a4.8,4.8,0,0,1-3.21,2.19Zm1.76-9a2.36,2.36,0,0,0-.37,0,4.44,4.44,0,0,0-3,2c-1.38,2-1.39,4.7,0,5.91a2.39,2.39,0,0,0,2,.57,4.43,4.43,0,0,0,3-2c1.34-2,1.35-4.69,0-5.92A2.35,2.35,0,0,0,30.86,67.8Z"/></clipPath><clipPath id="clip-path-122"><path class="cls-2" d="M55.86,61.92a1.66,1.66,0,0,1-1.08-.38,2.56,2.56,0,0,1,0-3.39A2.73,2.73,0,0,1,56.59,57a1.65,1.65,0,0,1,1.27.37,2.54,2.54,0,0,1,0,3.4,2.65,2.65,0,0,1-1.8,1.15h-.23m.94-4.58h-.17a2.33,2.33,0,0,0-1.57,1,2.2,2.2,0,0,0,0,2.91,1.27,1.27,0,0,0,1,.28,2.34,2.34,0,0,0,1.55-1h0a2.17,2.17,0,0,0,0-2.91,1.22,1.22,0,0,0-.82-.3"/></clipPath><clipPath id="clip-path-124"><path class="cls-2" d="M55.52,61.37h-.06a1.84,1.84,0,0,1-.65-.4,2.49,2.49,0,0,1-.06-3.37,2.46,2.46,0,0,1,2.34-1.13,7.81,7.81,0,0,1,.77.25.17.17,0,0,1,.1.23.19.19,0,0,1-.23.11s-.49-.18-.72-.24a2.12,2.12,0,0,0-2,1,2.18,2.18,0,0,0,0,2.89,1.9,1.9,0,0,0,.53.33.18.18,0,0,1,.11.23.16.16,0,0,1-.17.12"/></clipPath><clipPath id="clip-path-126"><path class="cls-2" d="M53.42,87.44c0-1.83-1.88-3-3.11-4.46A7.32,7.32,0,0,1,49,80.3l-1.35-.08L41.53,78.7c-2.8-.61-5.56-.92-7.13-2.52-3.07-3.1-1-10.32-1-10.32l6.29-7.56s1.49-.31,3.72-.57c2.07-.27,4.87-.65,6.82.57,1.54,1,2.38,3.25,3.38,5.23a19.45,19.45,0,0,0,2.72,3.86,9.81,9.81,0,0,1,2-.46A11.57,11.57,0,0,1,64,69c1,.64,2.26-.2,3.34-.69a5.6,5.6,0,0,1,1.8-.46l13.61-.92a6.66,6.66,0,0,1,1.5.35,5.69,5.69,0,0,0,2.57.8c1.15-.12,3-1.41,4-1.8a4.73,4.73,0,0,1,4.38.08A19.51,19.51,0,0,0,98,62.39a37.84,37.84,0,0,1,1.84-3.6,3.6,3.6,0,0,1,1.31-1.41c1.87-1,4.33-1,6.4-.88a21.56,21.56,0,0,1,3.07.5c.76.11,1.38.15,1.38.15l6.32,7.37a26.43,26.43,0,0,1,.58,4.47c.08,2,0,4.66-1.46,5.93-2.18,1.83-6.25,2.59-9.58,3.17-2,.34-3.19.84-4.11,1a6.54,6.54,0,0,1-1.22,0,6.2,6.2,0,0,1-1.23,2.63c-1.19,1.45-3.18,2.83-3.07,4.7.23,5,1.23,12.87,1.92,19.9s1.15,13.33,1.15,13.33a103.26,103.26,0,0,1-25.39,3.75,100.48,100.48,0,0,1-25.3-3.82s.34-7,1.07-14.33c.34-3.51.77-7.83,1.15-11.15a64.48,64.48,0,0,0,.58-6.69"/></clipPath><clipPath id="clip-path-128"><path class="cls-2" d="M26,32.48c1.05-.27-.5-1.16-1.43-2.64-.7-1.12-.78-1.81-.59-2.24.16-.27.62-.46,1.05,0s1.05,1.43,1.52,2,3.73,2.79,4.16,3.37A8.49,8.49,0,0,1,32,36.66c.31,1.39.7,3.1.7,3.1a4.33,4.33,0,0,1-1.67,1.08,7,7,0,0,1-2.3.19,6.23,6.23,0,0,0-1.47-3.21c-.39-.35-2.06-1.24-2.49-1.66-.27-.28-.93-1-1.25-1.28s-1.36-.54-1.59-.74-.85-.77-1.05-1-1.59-.69-1.86-1-.7-.62-.9-.82c-.39-.42-2.68-1.16-2.91-1.51-.55-.77,1.71-.65,1.71-.65s0-.93.46-.78a6.79,6.79,0,0,1,1.68,1.39s.23-.3.77-.07a7.37,7.37,0,0,1,1.29,1.08s1.12.54,1.59.74c1.32.42,2.6,1,3.22.89"/></clipPath><clipPath id="clip-path-130"><path class="cls-2" d="M67.54,51.75a10.32,10.32,0,0,1,5.26-2.32,28.89,28.89,0,0,1,8,.46,18.94,18.94,0,0,0,.15,3A7.71,7.71,0,0,0,81.9,55c.65.31,1.34.54,1.34,2.67C83.24,58,82,59,82,59L80.8,68.67l.38,1.18.65.57.11,1.1a9.91,9.91,0,0,1-1.6,2.17c-1,1.06-2.55,2.43-4,2.51A5.92,5.92,0,0,1,73.22,75a19.75,19.75,0,0,1-3.43-2.77l.11-.84a2.37,2.37,0,0,0,.77-.72,2.94,2.94,0,0,0,.26-1s-.69-2.83-.34-3.69c.12-.3,1.74.69,1.69.68-4-.72-4.29-5-4.78-5.16a2.36,2.36,0,0,1-1.82-2.63c.11-1.25.8-1.37.8-1.37l.15-1.74Z"/></clipPath><clipPath id="clip-path-132"><path class="cls-2" d="M125.69,31.38c-1-.27.51-1.16,1.44-2.63.7-1.13.78-1.82.58-2.25-.15-.27-.62-.46-1,0s-1,1.43-1.51,2-3.73,2.79-4.16,3.37a8.49,8.49,0,0,0-1.36,3.64c-.31,1.39-.7,3.1-.7,3.1a4.33,4.33,0,0,0,1.67,1.08,6.94,6.94,0,0,0,2.29.19,6.28,6.28,0,0,1,1.48-3.21c.39-.35,2.06-1.24,2.49-1.66.27-.27,1-1,1.24-1.28s1.36-.54,1.6-.74.85-.77,1.05-1,1.59-.7,1.86-1,.7-.62.89-.81c.39-.43,2.69-1.17,2.92-1.52.54-.77-1.71-.65-1.71-.65s0-.93-.47-.78a6.88,6.88,0,0,0-1.67,1.4s-.23-.31-.77-.08a7.37,7.37,0,0,0-1.29,1.08s-1.13.55-1.59.74c-1.32.42-2.6,1-3.23.89"/></clipPath><clipPath id="clip-path-134"><path class="cls-2" d="M68.78,47.17a12.5,12.5,0,0,1,8.54-1.49c1.6.38,3.1,2.48,3.1,2.48L82,52.55l.19,1.87A8.35,8.35,0,0,1,80,52.51a10.88,10.88,0,0,1-1.46-2.79,10.52,10.52,0,0,0-2.75-.87,12.33,12.33,0,0,0-4.33.3c-.88.23-2.76,2.45-2.76,2.45A11.72,11.72,0,0,1,68,54.69,7.77,7.77,0,0,1,66.56,57l-.35-3.74c0-.08-.23-4.13,2.57-6.07"/></clipPath><clipPath id="clip-path-136"><path class="cls-2" d="M67.83,45.43c.39-.9.66,2.06,1.71,2.69.39.23,1.2-.2,1.43-.39.9-.74.32-5.62,1.17-5.58s1.2,2.23,1.59,3.36.9,1.4.9,1.4l1.75.31a8.8,8.8,0,0,0,.31-1.6c.07-.78.11-1.71.58-1.36.7.47.93,3.31,1,3.39.12.23,1.56,1.33,1.91.9s.15-2.69.42-2.46c1.17,1.13,1,6.12,1,6.12a8.87,8.87,0,0,0-2.8-1.91,11.35,11.35,0,0,0-5.9-.62,10.92,10.92,0,0,0-5,2.45,9.14,9.14,0,0,0-2.18,2.65,16.51,16.51,0,0,1-.85-3.12,8.75,8.75,0,0,1-.16-2.8c.08-.24.82,1,1.24,2.06.12.32.51,0,.78-.35a3.79,3.79,0,0,0,.78-1c.39-.9.19-3.66.39-4.09"/></clipPath><clipPath id="clip-path-138"><path class="cls-2" d="M83.69,94.06c-.15-2.77-.37-9.39-.71-14.54-.37-5.43-.86-9.36-.86-9.36a1.21,1.21,0,0,1-.63-.46A3.55,3.55,0,0,1,81,68.47s.15-2.15.45-2.15c.52,0,2.65,1.57,3.62,4.42.82,2.35,1.68,9.81,2.24,18.94.45,7.35.93,15.93,1.15,22.36s.23,10.81.23,10.81a11.48,11.48,0,0,1-1.83.38c-1.12.16-2.61.2-2.61.2s0-20.13-.6-29.37"/></clipPath><clipPath id="clip-path-140"><path class="cls-2" d="M70.13,72.89,76.8,76.5l5.64-4.14s1,13.53,1.47,26.18.42,24.39.42,24.39-3.82.46-8,.5-8.52-.42-8.52-.42,0-14.27.57-26.77,1.7-23.35,1.7-23.35"/></clipPath><clipPath id="clip-path-142"><path class="cls-2" d="M68.39,93.3c.15-2.75.3-6.72.64-11.84C69.41,76.07,70.09,71,70.09,71a1.29,1.29,0,0,0,.69-.53,2.65,2.65,0,0,0,.38-1.11s-.27-2.45-.57-2.45c-.53,0-2.7,1.23-3.72,4-.84,2.33-2,9.29-2.58,18.34-.46,7.3-1,15.82-1.18,22.2s-.19,10.82-.19,10.82a14.49,14.49,0,0,0,1.82.34c1.14.15,2.85.27,2.85.27s.26-20.41.8-29.58"/></clipPath><clipPath id="clip-path-144"><path class="cls-2" d="M34.36,66.66l1.25-.34a21.14,21.14,0,0,0,5.24,6.1,45.4,45.4,0,0,0,6.33,4.21,7.58,7.58,0,0,0,2.56.91L49.31,79a37,37,0,0,1-5.16-1.1c-1.94-.57-4.43-1.33-5.9-2.55a9.8,9.8,0,0,1-3-4.89,29.11,29.11,0,0,1-.9-3.75"/></clipPath><clipPath id="clip-path-146"><path class="cls-2" d="M36.56,65.84l1.32-1.29.64-1a6.91,6.91,0,0,1,2.27,1.59c1.36,1.33,3,3.52,4.42,5a13.92,13.92,0,0,0,5.63,3.41l-1.29,3.18a49.86,49.86,0,0,1-5.85-4.28c-1.51-1.29-3-3.11-4.27-4.36a19,19,0,0,0-2.87-2.27"/></clipPath><clipPath id="clip-path-148"><path class="cls-2" d="M39.73,60.27A17.37,17.37,0,0,1,46.33,63a47.86,47.86,0,0,1,7.25,6.56l-1.14,1.67A48.77,48.77,0,0,1,45.15,66a37.2,37.2,0,0,0-4.66-3.77,5.73,5.73,0,0,0-1.18-.46Z"/></clipPath><clipPath id="clip-path-150"><path class="cls-2" d="M39.46,58.27a9,9,0,0,0,1.48-.12,23.6,23.6,0,0,1,3.16-.51c1.87-.15,4-.31,5.8.67,2,1.09,2.77,3.87,3.82,5.86a14.81,14.81,0,0,0,2.61,3.48l-1.48.86s-4.52-7-6.74-8.21c-1.68-1-3.27-.66-4.83-.7-2.1-.08-4-.35-4-.35Z"/></clipPath><clipPath id="clip-path-152"><path class="cls-2" d="M116,65.22l1.28.23s-.15.91-.62,2.63-1.08,4.12-2.91,5.65c-3.77,3.09-11.53,4.12-11.53,4.12l-.31-1.19a42.56,42.56,0,0,0,8.31-5A29.92,29.92,0,0,0,116,65.22"/></clipPath><clipPath id="clip-path-154"><path class="cls-2" d="M100.81,72.34s2.11-.27,5.2-2.71c1.54-1.25,3-3.51,4.37-5a12.07,12.07,0,0,1,2.67-2.15l1,1.43,1,.79a22.77,22.77,0,0,0-3.47,2.83c-2.56,2.33-2.86,3.61-5.46,5.34s-4,2.79-4,2.79Z"/></clipPath><clipPath id="clip-path-156"><path class="cls-2" d="M112,59.18l.38,1.29-2.52,1.64-4.16,3.63a73.2,73.2,0,0,1-6.49,4.42l-1.11-1.52a25.65,25.65,0,0,1,5.81-5.71,28.76,28.76,0,0,1,5.61-3,14.21,14.21,0,0,1,2.48-.7"/></clipPath><clipPath id="clip-path-158"><path class="cls-2" d="M99.1,60.45c1.32-3,1.7-3.68,4.83-4a36.3,36.3,0,0,1,6.88.57,3.36,3.36,0,0,0,1,0l-.07.87s-1.55.08-3.48.15c-1.51,0-3.59,0-4.87.72-1.85,1-3.59,3.68-4.84,5.32l-2.12,2.76-1.09-.79a23.18,23.18,0,0,0,3.78-5.62"/></clipPath><clipPath id="clip-path-160"><path class="cls-2" d="M70.06,72.82l.19-.88s3.61,3.82,6.68,4c2.42.19,5.6-4.73,5.6-4.73l.16,1.49a21.64,21.64,0,0,1-2,2.17,12.56,12.56,0,0,1-2,1.49s.11,11.57,0,20.74-.5,15.93-.5,15.93l.57,10.27s-1.38.08-2.45.08-1.81-.08-1.81-.08L75,113s.38-8.4.46-17.45-.11-18.83-.11-18.83a12.79,12.79,0,0,1-2.73-1.49,19.75,19.75,0,0,1-2.57-2.37"/></clipPath><clipPath id="clip-path-162"><path class="cls-2" d="M58,79.21a1.69,1.69,0,0,1,1.81-1.91,3.16,3.16,0,0,1,2.58,2.8,2,2,0,0,1-2,2.14c-1.16,0-2.41-1.83-2.41-3"/></clipPath><clipPath id="clip-path-164"><path class="cls-2" d="M28.32,43.26a.94.94,0,0,1,.24-.65l-.24-1.78a5,5,0,0,0,2.58,0,4.73,4.73,0,0,0,2-1.46l.54,1.69a1.82,1.82,0,0,1,.59,1c.47,1.69,1.25,5.2,2.35,8.21,1.56,4.39,3.47,8.32,3.47,8.32a18.16,18.16,0,0,1-2.3,4.9c-1.88,2.51-3.48,2.78-3.48,2.78a23.55,23.55,0,0,1-2.35-6.06c-.86-3-1.6-7.36-2.26-10.75a39.82,39.82,0,0,1-1.14-6.25"/></clipPath><clipPath id="clip-path-166"><path class="cls-2" d="M117.73,40.39l.43-.23s.59-2.19.67-1.81A3.51,3.51,0,0,0,121,39.93a3.61,3.61,0,0,0,2.3-.19L123,41.66s.35.54.28.77c-.28.84-1.22,6.61-2.35,11.83-.63,2.89-1,5.08-1.64,7.11s-1.53,3.85-1.92,3.85a6.79,6.79,0,0,1-3-2.46,15.63,15.63,0,0,1-2.5-4.61,1.55,1.55,0,0,1,0-.66l1.09-2.69s1.69-3.53,2.47-5.84a76.13,76.13,0,0,0,2.34-8.57"/></clipPath><clipPath id="clip-path-168"><path class="cls-2" d="M28.32,41.14a7,7,0,0,0,2.55,0A4.47,4.47,0,0,0,32.8,40a10,10,0,0,1,.46,1.72c0,.39-1.77,1.57-2.74,1.57-.54,0-1.93-.18-1.93-.18Z"/></clipPath><clipPath id="clip-path-170"><path class="cls-2" d="M118.8,38.31a11.86,11.86,0,0,0,2.07,1.24,7.84,7.84,0,0,0,2.45,0l-.3,1.91a6.22,6.22,0,0,1-2.71,0A4.08,4.08,0,0,1,118.38,40Z"/></clipPath><clipPath id="clip-path-172"><path class="cls-2" d="M123,40h0a.23.23,0,0,1-.2-.26,5.43,5.43,0,0,1,1.32-2.95,7.51,7.51,0,0,1,1.52-1.09,11.08,11.08,0,0,0,1.13-.75,8.77,8.77,0,0,0,2-2.69l.23-.42c.22-.37.58-1,.42-1.19a.11.11,0,0,0-.1-.06,1.29,1.29,0,0,0-.67.42c-.24.3-.45.59-.65.87a6.89,6.89,0,0,1-2,2.05c-.2.12-.56.3-.95.49a14.52,14.52,0,0,0-1.31.7.24.24,0,0,1-.33-.06.23.23,0,0,1,.06-.32A14.35,14.35,0,0,1,124.8,34c.37-.18.72-.36.9-.47a6.28,6.28,0,0,0,1.89-1.92c.2-.29.42-.58.67-.89a1.64,1.64,0,0,1,1.05-.6.62.62,0,0,1,.48.26c.33.44-.07,1.13-.39,1.69a3.36,3.36,0,0,0-.22.4,9.25,9.25,0,0,1-2.12,2.83,9.44,9.44,0,0,1-1.19.79,7.15,7.15,0,0,0-1.41,1,4.89,4.89,0,0,0-1.21,2.71.25.25,0,0,1-.24.2"/></clipPath><clipPath id="clip-path-174"><path class="cls-2" d="M128,33.92a.24.24,0,0,1-.22-.15.22.22,0,0,1,.13-.28l.06,0a4.82,4.82,0,0,0,2.24-1.32A13.24,13.24,0,0,0,131,31c.17-.25.35-.52.55-.8.47-.66.78-1.14.59-1.27s-.54.15-.92.52-.92,1-1.35,1.56a6.41,6.41,0,0,0-.4.6.23.23,0,0,1-.31.09.22.22,0,0,1-.09-.3,4.21,4.21,0,0,1,.45-.66,18.55,18.55,0,0,1,1.38-1.6c.4-.4,1-.94,1.5-.58s.09,1.09-.47,1.89c-.2.28-.38.55-.55.8a13.57,13.57,0,0,1-.87,1.21,5.32,5.32,0,0,1-2.42,1.44l-.06,0-.08,0"/></clipPath><clipPath id="clip-path-176"><path class="cls-2" d="M130.7,32.27a.25.25,0,0,1-.22-.14.23.23,0,0,1,.13-.3l.25-.09a4.45,4.45,0,0,0,1.8-1,7,7,0,0,0,.93-1.39l.17-.3c.1-.18.21-.37.32-.54s.38-.61.29-.7-.15-.09-.58.18a4.28,4.28,0,0,0-1.16,1.12.22.22,0,0,1-.32,0,.21.21,0,0,1-.05-.31,4.64,4.64,0,0,1,1.27-1.22c.65-.42,1-.3,1.18-.12.32.35,0,.79-.23,1.25-.1.16-.21.33-.31.51l-.17.31A7.25,7.25,0,0,1,133,31a4.88,4.88,0,0,1-2,1.13l-.25.09-.08,0"/></clipPath><clipPath id="clip-path-178"><path class="cls-2" d="M132.9,30.62a.25.25,0,0,1-.19-.09.21.21,0,0,1,0-.31,9.58,9.58,0,0,1,1.75-.89l.26-.12.35-.13c.56-.21.93-.37.91-.63l-.05,0a2.4,2.4,0,0,0-1.55.12.26.26,0,0,1-.33-.1.21.21,0,0,1,.1-.3,2.83,2.83,0,0,1,2-.12.5.5,0,0,1,.3.41c.05.6-.62.85-1.21,1.08l-.33.12-.26.11a10.17,10.17,0,0,0-1.65.84.23.23,0,0,1-.15.05"/></clipPath><clipPath id="clip-path-180"><path class="cls-2" d="M129,30.57a.22.22,0,0,1-.21-.15.27.27,0,0,1,.12-.32c1.31-.62,1.33-.59,1.45-.44a.27.27,0,0,1,0,.29.22.22,0,0,1-.24.13,11.14,11.14,0,0,0-1.08.47.13.13,0,0,1-.08,0"/></clipPath><clipPath id="clip-path-182"><path class="cls-2" d="M119.16,38.86h-.07a.23.23,0,0,1-.15-.29,31.14,31.14,0,0,0,.83-3.4,11.08,11.08,0,0,1,.53-2.09,7.16,7.16,0,0,1,2-2.31c.47-.39.9-.71,1.28-1a16.44,16.44,0,0,0,1.45-1.18,8.63,8.63,0,0,0,.79-1c.6-.8,1.17-1.55,1.76-1.35.91.36.61,1.17.25,2.11a4.37,4.37,0,0,1-1,1.57l-.27.3a3.92,3.92,0,0,1-.28.31c-.39.4-.55.62-.47.79a8,8,0,0,0,2.69-.81.24.24,0,0,1,.3.13.23.23,0,0,1-.13.3c-2.85,1.12-3.07.86-3.2.7-.4-.53.11-1.05.47-1.43l.27-.28a2.79,2.79,0,0,1,.28-.32,4,4,0,0,0,1-1.42c.4-1.06.44-1.35,0-1.52-.26-.09-.84.69-1.23,1.2a9.33,9.33,0,0,1-.85,1,15.42,15.42,0,0,1-1.48,1.2c-.39.3-.8.61-1.27,1a6.79,6.79,0,0,0-1.9,2.14,10.29,10.29,0,0,0-.51,2,30.29,30.29,0,0,1-.84,3.45.24.24,0,0,1-.22.16"/></clipPath><clipPath id="clip-path-184"><path class="cls-2" d="M122,40a3.8,3.8,0,0,1-3-1.33.19.19,0,0,1,0-.28.24.24,0,0,1,.31,0,3.66,3.66,0,0,0,3.74,1.06.23.23,0,0,1,.26.16.19.19,0,0,1-.17.23A5.53,5.53,0,0,1,122,40"/></clipPath><clipPath id="clip-path-186"><path class="cls-2" d="M118.6,40.51l-.07,0a.27.27,0,0,1-.14-.32,9,9,0,0,0,.25-1.07,2.09,2.09,0,0,1,.51-1.3.2.2,0,0,1,.3.08.27.27,0,0,1-.07.34c-.17.13-.24.51-.33,1a11.37,11.37,0,0,1-.25,1.13.23.23,0,0,1-.2.17"/></clipPath><clipPath id="clip-path-188"><path class="cls-2" d="M123.18,42.15h0a.24.24,0,0,1-.22-.25c0-.36.11-.71.17-1s.2-1,.09-1a.23.23,0,0,1-.11-.31.25.25,0,0,1,.33-.1c.44.21.33.79.18,1.53-.06.3-.13.64-.17,1a.24.24,0,0,1-.24.2"/></clipPath><clipPath id="clip-path-190"><path class="cls-2" d="M121.56,42.15a4,4,0,0,1-3.7-1.88A.21.21,0,0,1,118,40a.25.25,0,0,1,.32.09c.59,1,1.9,2.07,4.76,1.5a.23.23,0,0,1,.28.16.22.22,0,0,1-.18.26,8.54,8.54,0,0,1-1.58.16"/></clipPath><clipPath id="clip-path-192"><path class="cls-2" d="M112,57.53l-.08,0a.22.22,0,0,1-.13-.3c.46-1.24,1-2.46,1.45-3.65a58,58,0,0,0,2.47-6.74l.13-.44c.41-1.41.88-3,1.18-4.58,0-.23.08-.43.11-.61.16-.92.25-1.42.91-1.76a.22.22,0,0,1,.3.1.25.25,0,0,1-.1.32c-.44.23-.5.48-.67,1.42,0,.18-.07.39-.11.62-.31,1.6-.78,3.2-1.19,4.62l-.13.44a57.45,57.45,0,0,1-2.48,6.79c-.49,1.18-1,2.41-1.45,3.64a.24.24,0,0,1-.21.15"/></clipPath><clipPath id="clip-path-194"><path class="cls-2" d="M117.51,65.22a.19.19,0,0,1-.12,0,.23.23,0,0,1-.07-.32c1.54-2.41,2.48-7.1,3.31-11.23.21-1.07.42-2.08.62-3,.56-2.49,1-5.07,1.24-6.61.1-.58.17-1,.22-1.31l0-.16a1.47,1.47,0,0,0,0-1.13.23.23,0,1,1,.38-.25,1.86,1.86,0,0,1,.07,1.49c0,.05,0,.1,0,.15,0,.26-.12.71-.21,1.28-.26,1.55-.68,4.13-1.25,6.64-.2.93-.4,1.93-.62,3-.84,4.17-1.79,8.9-3.37,11.39a.23.23,0,0,1-.2.11"/></clipPath><clipPath id="clip-path-196"><path class="cls-2" d="M118.69,65.77a5.92,5.92,0,0,1-4.41-1.84,9.81,9.81,0,0,1-2.48-6.74.24.24,0,0,1,.26-.21.23.23,0,0,1,.22.24,9.38,9.38,0,0,0,2.35,6.4,5.47,5.47,0,0,0,4.06,1.69.23.23,0,0,1,.24.23.24.24,0,0,1-.24.23"/></clipPath><clipPath id="clip-path-198"><path class="cls-2" d="M118.15,65.77h-.06c-3.17-.84-6.45-6.21-6.29-8.56A.23.23,0,0,1,112,57a.24.24,0,0,1,.22.25c-.15,2.17,3,7.3,5.95,8.08a.24.24,0,0,1,.17.28.24.24,0,0,1-.23.18"/></clipPath><clipPath id="clip-path-200"><path class="cls-2" d="M95.55,66.32a.22.22,0,0,1-.15-.06.24.24,0,0,1,0-.33l.47-.56a15.26,15.26,0,0,0,1.84-2.56c.31-.53.57-1.1.85-1.71a25.35,25.35,0,0,1,1.79-3.34c1.16-1.75,4-2.27,8.73-1.6l.87.17a9.31,9.31,0,0,0,1.44.22h.14a1.8,1.8,0,0,1,.7.06.25.25,0,0,1,.13.31.23.23,0,0,1-.3.13,2.08,2.08,0,0,0-.52,0h-.16a11.18,11.18,0,0,1-1.52-.24c-.28-.06-.56-.12-.84-.16-4.47-.63-7.26-.16-8.29,1.4a25.63,25.63,0,0,0-1.76,3.28c-.28.61-.55,1.19-.87,1.74a13.94,13.94,0,0,1-1.89,2.63l-.46.55a.21.21,0,0,1-.17.09"/></clipPath><clipPath id="clip-path-202"><path class="cls-2" d="M103,79.49a2.38,2.38,0,0,1-.39,0,.24.24,0,0,1-.17-.28.24.24,0,0,1,.28-.18,8.84,8.84,0,0,0,3.14-.61c.8-.23,1.64-.47,2.42-.63l.59-.12c2.22-.44,6.86-1.36,8.16-2.83s1.43-4.47,1.43-5.85a16.81,16.81,0,0,0-.7-4.51.22.22,0,0,1,.11-.31.23.23,0,0,1,.3.12,17.09,17.09,0,0,1,.74,4.7c0,1.44,0,4.43-1.54,6.16s-6,2.49-8.42,3l-.58.12c-.76.15-1.59.39-2.39.62a12.75,12.75,0,0,1-3,.65"/></clipPath><clipPath id="clip-path-204"><path class="cls-2" d="M81.91,70.71a.2.2,0,0,1-.11,0,2.17,2.17,0,0,1-1-1.34,27,27,0,0,1-.27-5.55.23.23,0,0,1,.25-.22.24.24,0,0,1,.21.26,26.06,26.06,0,0,0,.26,5.39,1.68,1.68,0,0,0,.77,1,.25.25,0,0,1,.09.33.24.24,0,0,1-.2.12"/></clipPath><clipPath id="clip-path-206"><path class="cls-2" d="M70.32,71.26a.27.27,0,0,1-.23-.12.21.21,0,0,1,.1-.3,1.56,1.56,0,0,0,1-1.31,13.22,13.22,0,0,0-.79-4,.22.22,0,0,1,.18-.27.27.27,0,0,1,.33.15,13.65,13.65,0,0,1,.81,4.18,2,2,0,0,1-1.25,1.67.28.28,0,0,1-.13,0"/></clipPath><clipPath id="clip-path-208"><path class="cls-2" d="M67.56,123.43a.24.24,0,0,1-.24-.23c-.13-18.42,1.45-48.07,2.81-52.87a.24.24,0,0,1,.3-.16.23.23,0,0,1,.17.28c-1.33,4.67-2.92,34.75-2.8,52.75a.24.24,0,0,1-.24.23Z"/></clipPath><clipPath id="clip-path-210"><path class="cls-2" d="M84.12,123.43a.22.22,0,0,1-.22-.23c-.38-34.35-1.63-50-2.31-53.87a.23.23,0,0,1,.18-.26.22.22,0,0,1,.26.18c.68,3.86,1.93,19.56,2.31,53.94a.23.23,0,0,1-.22.24Z"/></clipPath><clipPath id="clip-path-212"><path class="cls-2" d="M63.15,122.88h0a.23.23,0,0,1-.23-.23c.15-19.42,2-45.34,3.63-50.43a8.57,8.57,0,0,1,4.27-5.33.23.23,0,0,1,.22.4A8.15,8.15,0,0,0,67,72.36c-1.61,5-3.46,30.91-3.61,50.29a.23.23,0,0,1-.23.23"/></clipPath><clipPath id="clip-path-214"><path class="cls-2" d="M89.05,122.88a.22.22,0,0,1-.22-.23c-.19-20.06-2-46.43-3.45-51.31a8.5,8.5,0,0,0-4.22-5.14.23.23,0,0,1-.09-.31.22.22,0,0,1,.3-.1,9,9,0,0,1,4.44,5.41c1.49,4.91,3.28,31.35,3.47,51.45a.23.23,0,0,1-.23.23Z"/></clipPath><clipPath id="clip-path-216"><path class="cls-2" d="M76.83,76.2c-1.83,0-5.58-2.79-6.73-4.44a.25.25,0,0,1,.05-.33.24.24,0,0,1,.33,0c1.18,1.71,5,4.36,6.43,4.24s4.62-3.11,5.34-4.87a.22.22,0,0,1,.3-.12.23.23,0,0,1,.12.31c-.79,1.93-4,5-5.72,5.16h-.12"/></clipPath><clipPath id="clip-path-218"><path class="cls-2" d="M76.62,77.3c-1.83,0-5.82-2.56-7.07-4.27a.23.23,0,0,1,.38-.27c1.17,1.6,5.2,4.18,6.78,4.07s4.68-2.87,5.54-4.36a.24.24,0,0,1,.41.23c-.93,1.6-4.21,4.47-5.92,4.59h-.12"/></clipPath><clipPath id="clip-path-220"><path class="cls-2" d="M76,113a18.47,18.47,0,0,1-8.07-1.6.21.21,0,0,1-.08-.29.26.26,0,0,1,.32-.07c3.69,2,11.7,2.26,15.77-.2a.25.25,0,0,1,.32.06.2.2,0,0,1-.07.29A16.64,16.64,0,0,1,76,113"/></clipPath><clipPath id="clip-path-222"><path class="cls-2" d="M74.18,124h0a.27.27,0,0,1-.27-.24c0-1.11.42-8.92.51-10.45.7-12,.63-34.68.5-36.3a.25.25,0,0,1,.26-.24.26.26,0,0,1,.29.21c.15,2,.17,24.82-.5,36.35-.09,1.53-.46,9.34-.51,10.44a.26.26,0,0,1-.27.23"/></clipPath><clipPath id="clip-path-224"><path class="cls-2" d="M78.57,124h0a.24.24,0,0,1-.23-.24c0-.44-.11-2.29-.24-4.23-.18-2.64-.38-5.62-.34-6.53.67-12,.65-34.9.54-36.53a.24.24,0,0,1,.23-.25.24.24,0,0,1,.26.22c.13,2,.11,25-.53,36.59,0,.88.15,3.85.33,6.47.14,2,.26,3.81.24,4.27a.25.25,0,0,1-.25.23"/></clipPath><clipPath id="clip-path-226"><path class="cls-2" d="M101.52,120.13h0a.23.23,0,0,1-.21-.25c.23-2.89-2.61-29.13-3-32.29a5,5,0,0,1,1.87-4.75c.18-.17.34-.32.48-.47a6.17,6.17,0,0,0,1.85-3.12,8.76,8.76,0,0,0-.72-4.42,17.88,17.88,0,0,0-4.55-7.34,6.64,6.64,0,0,0-3.52-1.79c-1.53-.16-3,.64-4.49,1.42-.55.29-1.07.57-1.58.79a3.37,3.37,0,0,1-2.16-.34l-.33-.16a5.11,5.11,0,0,0-2.24-.63.24.24,0,0,1-.2-.26.23.23,0,0,1,.25-.2,5.7,5.7,0,0,1,2.4.67l.31.16a2.92,2.92,0,0,0,1.79.34c.5-.22,1-.49,1.55-.78,1.44-.77,3.08-1.65,4.74-1.47a7.08,7.08,0,0,1,3.79,1.91,18.31,18.31,0,0,1,4.67,7.52,9.1,9.1,0,0,1,.74,4.66,6.59,6.59,0,0,1-2,3.35l-.5.5a4.51,4.51,0,0,0-1.73,4.36c.39,3.16,3.24,29.46,3,32.38a.23.23,0,0,1-.23.21"/></clipPath><clipPath id="clip-path-228"><path class="cls-2" d="M33.5,66.86a.23.23,0,1,1,0-.45,5.48,5.48,0,0,0,4.07-1.69,9.43,9.43,0,0,0,2.35-6.4.24.24,0,0,1,.47,0A9.74,9.74,0,0,1,37.92,65a5.94,5.94,0,0,1-4.42,1.83"/></clipPath><clipPath id="clip-path-230"><path class="cls-2" d="M33.49,66.86a.22.22,0,0,1-.22-.17.23.23,0,0,1,.17-.28c2.93-.78,6.09-5.92,6-8.09a.23.23,0,0,1,.21-.24.23.23,0,0,1,.25.21c.15,2.36-3.13,7.73-6.3,8.57h-.06"/></clipPath><clipPath id="clip-path-232"><path class="cls-2" d="M56.1,67.41a.2.2,0,0,1-.17-.08l-.46-.54a15.25,15.25,0,0,1-1.9-2.64c-.32-.55-.58-1.13-.87-1.74A24.26,24.26,0,0,0,51,59.12c-1-1.56-3.83-2-8.29-1.39-.28,0-.56.1-.84.16a9.85,9.85,0,0,1-1.51.23h-.17a1.43,1.43,0,0,0-.52,0,.23.23,0,0,1-.3-.14.24.24,0,0,1,.13-.3,1.8,1.8,0,0,1,.7-.06h.15a9.37,9.37,0,0,0,1.43-.22l.86-.17c4.72-.67,7.58-.15,8.74,1.6a25.13,25.13,0,0,1,1.78,3.34c.28.61.55,1.18.86,1.71a13.86,13.86,0,0,0,1.84,2.56c.15.18.31.36.46.55a.25.25,0,0,1,0,.34.21.21,0,0,1-.15,0"/></clipPath><clipPath id="clip-path-234"><path class="cls-2" d="M48.63,80.59a12.75,12.75,0,0,1-3-.65c-.8-.23-1.63-.47-2.39-.63l-.58-.12c-2.46-.48-7-1.39-8.43-3S32.72,71.48,32.72,70a15.64,15.64,0,0,1,.77-4.68.23.23,0,0,1,.31-.11.24.24,0,0,1,.11.31A15,15,0,0,0,33.17,70c0,1.39,0,4.26,1.42,5.87s5.94,2.39,8.17,2.84l.59.12c.78.15,1.61.4,2.42.63a9,9,0,0,0,3.14.61.23.23,0,0,1,.1.45,1.48,1.48,0,0,1-.38,0"/></clipPath><clipPath id="clip-path-236"><path class="cls-2" d="M50.91,120.13a.23.23,0,0,1-.23-.21c-.23-3,2.46-27.9,2.83-30.88a4.52,4.52,0,0,0-1.77-4.33c-.18-.17-.35-.33-.5-.49a6.52,6.52,0,0,1-2-3.33A9,9,0,0,1,50,76.25a18.23,18.23,0,0,1,4.69-7.47,7.56,7.56,0,0,1,3.81-1.89c1.69-.18,3.38.71,4.86,1.51.51.26,1,.52,1.45.73a2.66,2.66,0,0,0,1.84-.39,5.28,5.28,0,0,0,.53-.27,3.64,3.64,0,0,1,2.09-.59.23.23,0,1,1,0,.46,3.22,3.22,0,0,0-1.86.53,4.48,4.48,0,0,1-.58.29,3,3,0,0,1-2.22.38c-.47-.21-1-.47-1.46-.74-1.5-.8-3-1.62-4.61-1.46A7.22,7.22,0,0,0,55,69.12a17.93,17.93,0,0,0-4.56,7.29,8.69,8.69,0,0,0-.72,4.4,6.1,6.1,0,0,0,1.86,3.1c.14.15.3.3.48.47A5,5,0,0,1,54,89.1C53.61,92,50.91,117,51.14,119.88a.23.23,0,0,1-.21.25h0"/></clipPath><clipPath id="clip-path-238"><path class="cls-2" d="M28.63,41.05a.24.24,0,0,1-.23-.19,4.89,4.89,0,0,0-1.21-2.71,7.15,7.15,0,0,0-1.41-1,8.77,8.77,0,0,1-1.19-.79,9.46,9.46,0,0,1-2.12-2.82c-.06-.13-.14-.26-.22-.41-.32-.56-.72-1.25-.39-1.7a.61.61,0,0,1,.48-.25c.52,0,1,.57,1,.59.3.35.54.68.77,1a6,6,0,0,0,1.79,1.83c.19.11.54.29.91.47a12.92,12.92,0,0,1,1.36.74.22.22,0,0,1,.06.32.24.24,0,0,1-.33.06,13.26,13.26,0,0,0-1.31-.7c-.38-.19-.74-.37-.94-.5A6.38,6.38,0,0,1,23.76,33c-.23-.31-.46-.63-.74-1a1.21,1.21,0,0,0-.67-.43.17.17,0,0,0-.11.07c-.15.2.21.82.42,1.19.1.16.18.31.24.43a8.85,8.85,0,0,0,2,2.68,10.07,10.07,0,0,0,1.13.75,7.81,7.81,0,0,1,1.51,1.08,5.4,5.4,0,0,1,1.33,3,.23.23,0,0,1-.2.26h0"/></clipPath><clipPath id="clip-path-240"><path class="cls-2" d="M23.7,35h-.08l-.06,0a5.27,5.27,0,0,1-2.42-1.44,13.75,13.75,0,0,1-.88-1.22c-.16-.25-.35-.51-.54-.79-.56-.8-1-1.5-.47-1.89s1.09.18,1.5.58a21,21,0,0,1,1.39,1.6,5.33,5.33,0,0,1,.43.66.22.22,0,0,1-.09.3.23.23,0,0,1-.31-.09,4.89,4.89,0,0,0-.39-.59,20.39,20.39,0,0,0-1.35-1.57c-.38-.37-.72-.67-.92-.53s.12.62.59,1.28c.19.28.37.55.55.8a13.24,13.24,0,0,0,.84,1.17,4.82,4.82,0,0,0,2.23,1.31l.06,0a.21.21,0,0,1,.13.28.22.22,0,0,1-.21.14"/></clipPath><clipPath id="clip-path-242"><path class="cls-2" d="M21,33.37l-.09,0-.24-.09a4.79,4.79,0,0,1-2-1.14,6.73,6.73,0,0,1-1-1.47l-.17-.29c-.1-.19-.21-.37-.31-.53-.28-.46-.55-.89-.24-1.23s.54-.31,1.19.1a4.67,4.67,0,0,1,1.27,1.23.22.22,0,0,1-.05.31.24.24,0,0,1-.33,0,3.9,3.9,0,0,0-1.14-1.11c-.44-.29-.57-.21-.6-.18s.13.4.3.69a5.69,5.69,0,0,1,.32.55l.17.29A7,7,0,0,0,19,31.82a4.58,4.58,0,0,0,1.81,1l.25.09a.23.23,0,0,1,.13.29.25.25,0,0,1-.22.15"/></clipPath><clipPath id="clip-path-244"><path class="cls-2" d="M18.75,31.72a.27.27,0,0,1-.15,0A9.08,9.08,0,0,0,17,30.84l-.27-.12-.32-.13c-.59-.22-1.26-.47-1.21-1.07a.5.5,0,0,1,.3-.41,2.84,2.84,0,0,1,2,.12.21.21,0,0,1,.1.3.25.25,0,0,1-.33.09,2.46,2.46,0,0,0-1.55-.11l-.06,0c0,.26.35.41.92.62l.34.14.27.12a10.12,10.12,0,0,1,1.74.88.22.22,0,0,1,.05.32.25.25,0,0,1-.19.09"/></clipPath><clipPath id="clip-path-246"><path class="cls-2" d="M22.61,31.66a.11.11,0,0,1-.08,0c-.58-.27-1-.43-1.12-.47a.2.2,0,0,1-.16-.07.27.27,0,0,1,0-.31c.1-.17.14-.23,1.48.4a.25.25,0,0,1,.11.32.2.2,0,0,1-.2.15"/></clipPath><clipPath id="clip-path-248"><path class="cls-2" d="M32.48,40a.25.25,0,0,1-.22-.16,35.25,35.25,0,0,1-.84-3.45,10.42,10.42,0,0,0-.5-2A7.09,7.09,0,0,0,29,32.21c-.47-.38-.88-.69-1.27-1A15.36,15.36,0,0,1,26.26,30a8.34,8.34,0,0,1-.85-1c-.38-.52-1-1.29-1.23-1.2s-.37.45,0,1.51a4,4,0,0,0,.94,1.42c.11.11.2.22.29.32a3.58,3.58,0,0,0,.27.29c.36.38.86.9.47,1.42-.13.17-.35.43-3.2-.69a.23.23,0,0,1-.13-.3.22.22,0,0,1,.3-.13,8.09,8.09,0,0,0,2.69.81c.09-.17-.08-.39-.47-.79-.1-.11-.2-.21-.28-.31l-.28-.3a4.7,4.7,0,0,1-1-1.58c-.35-.94-.66-1.75.25-2.1.6-.21,1.17.55,1.77,1.35a7.65,7.65,0,0,0,.79,1A18.45,18.45,0,0,0,28,30.86c.38.28.81.61,1.28,1a7.12,7.12,0,0,1,2,2.31,10.07,10.07,0,0,1,.54,2.09,30.22,30.22,0,0,0,.82,3.39.22.22,0,0,1-.15.29l-.07,0"/></clipPath><clipPath id="clip-path-250"><path class="cls-2" d="M29.68,41.05a6.22,6.22,0,0,1-1.18-.12.2.2,0,0,1-.17-.24.22.22,0,0,1,.26-.15,3.66,3.66,0,0,0,3.74-1.06.23.23,0,0,1,.3,0,.19.19,0,0,1,0,.28,3.8,3.8,0,0,1-3,1.32"/></clipPath><clipPath id="clip-path-252"><path class="cls-2" d="M33.6,41.6a.21.21,0,0,1-.2-.16,11.37,11.37,0,0,1-.25-1.13c-.09-.49-.17-.86-.34-1a.29.29,0,0,1-.06-.35A.19.19,0,0,1,33,38.9c.32.24.41.7.52,1.3.06.32.13.68.24,1.07a.27.27,0,0,1-.13.32H33.6"/></clipPath><clipPath id="clip-path-254"><path class="cls-2" d="M28.47,43.25a.24.24,0,0,1-.24-.2c0-.35-.11-.69-.17-1-.15-.74-.26-1.32.18-1.53a.25.25,0,0,1,.33.1.23.23,0,0,1-.11.31c-.11.05,0,.69.08,1a9.35,9.35,0,0,1,.18,1,.24.24,0,0,1-.22.25h0"/></clipPath><clipPath id="clip-path-256"><path class="cls-2" d="M30.08,43.25a7.73,7.73,0,0,1-1.57-.17.21.21,0,0,1-.18-.25.23.23,0,0,1,.28-.16c2.86.57,4.17-.5,4.76-1.5a.24.24,0,0,1,.32-.09.21.21,0,0,1,.1.29,4,4,0,0,1-3.71,1.88"/></clipPath><clipPath id="clip-path-258"><path class="cls-2" d="M39.63,58.63a.23.23,0,0,1-.21-.15C39,57.24,38.45,56,38,54.83A57.83,57.83,0,0,1,35.46,48l-.13-.43c-.41-1.42-.88-3-1.2-4.63q-.08-.41-.12-.72c-.15-.86-.19-1.07-.62-1.29a.24.24,0,0,1-.1-.32.22.22,0,0,1,.3-.1c.65.33.72.8.86,1.64,0,.2.08.43.13.7.3,1.57.77,3.18,1.19,4.59l.12.43a62.23,62.23,0,0,0,2.48,6.76c.5,1.19,1,2.42,1.47,3.66a.24.24,0,0,1-.13.3l-.08,0"/></clipPath><clipPath id="clip-path-260"><path class="cls-2" d="M34.13,66.32a.23.23,0,0,1-.19-.11C32.35,63.72,31.4,59,30.56,54.82c-.21-1.07-.41-2.07-.61-3-.57-2.51-1-5.09-1.25-6.64-.09-.58-.17-1-.22-1.29l0-.14a1.82,1.82,0,0,1,.07-1.49.23.23,0,0,1,.32-.07.24.24,0,0,1,.06.32,1.45,1.45,0,0,0,0,1.12l0,.17c.06.27.13.72.23,1.31.25,1.54.67,4.11,1.24,6.61.2.93.4,1.94.62,3,.83,4.13,1.77,8.82,3.31,11.23a.24.24,0,0,1-.07.32.28.28,0,0,1-.13,0"/></clipPath><clipPath id="clip-path-262"><path class="cls-2" d="M49,79.49h0c-4.13-.83-9.48-2.27-11.5-4.44-1.36-1.48-2.27-3.85-3.05-7.91a.22.22,0,1,1,.44-.09c.77,4,1.65,6.28,2.94,7.69,2,2.19,7.93,3.64,11.26,4.3a.24.24,0,0,1,.18.27.23.23,0,0,1-.23.18"/></clipPath><clipPath id="clip-path-264"><path class="cls-2" d="M49,77.85h-.07c-3.68-1.11-11.33-6.64-14-11.73a.23.23,0,1,1,.41-.22c2.57,5,10.07,10.41,13.67,11.5a.22.22,0,0,1,.16.29.23.23,0,0,1-.22.17"/></clipPath><clipPath id="clip-path-266"><path class="cls-2" d="M49.5,77.3a.24.24,0,0,1-.15-.06,15.19,15.19,0,0,0-1.65-1.09,24.59,24.59,0,0,1-4.23-3.07c-.69-.67-1.35-1.35-2-2.08a34.8,34.8,0,0,0-5.31-4.81.23.23,0,0,1-.06-.32.23.23,0,0,1,.33-.06,35.23,35.23,0,0,1,5.38,4.87c.7.72,1.35,1.4,2,2.06a23.08,23.08,0,0,0,4.15,3,15.22,15.22,0,0,1,1.71,1.14.23.23,0,0,1,0,.33.23.23,0,0,1-.18.08"/></clipPath><clipPath id="clip-path-268"><path class="cls-2" d="M55,68.51a.22.22,0,0,1-.18-.08c-.5-.57-1.08-1.37-1.76-2.29-1.76-2.42-4-5.43-5.91-6a60.68,60.68,0,0,0-6.06-.47l-1.57-.09a.23.23,0,1,1,0-.45l1.55.09a55,55,0,0,1,6.17.48c2.1.57,4.35,3.65,6.16,6.13.67.91,1.25,1.71,1.74,2.26a.22.22,0,0,1,0,.32.27.27,0,0,1-.15.05"/></clipPath><clipPath id="clip-path-270"><path class="cls-2" d="M53.35,69.61a.23.23,0,0,1-.17-.08c-5.84-6.86-12.26-8.69-13.66-8.81a.22.22,0,0,1-.21-.24.21.21,0,0,1,.24-.2c1.45.11,8,2,14,9a.22.22,0,0,1,0,.32.27.27,0,0,1-.15,0"/></clipPath><clipPath id="clip-path-272"><path class="cls-2" d="M52.26,71.26a.2.2,0,0,1-.11,0A41.83,41.83,0,0,1,43.72,65a16.4,16.4,0,0,0-4.28-3.18.24.24,0,0,1-.12-.3.23.23,0,0,1,.3-.13A16.62,16.62,0,0,1,44,64.65a41.91,41.91,0,0,0,8.35,6.17.24.24,0,0,1-.11.44"/></clipPath><clipPath id="clip-path-274"><path class="cls-2" d="M51.16,74h-.07c-4.53-1.29-6.53-3.91-8.29-6.22A11.78,11.78,0,0,0,38.89,64a.23.23,0,0,1-.11-.31.24.24,0,0,1,.31-.11,12,12,0,0,1,4.07,3.9c1.72,2.25,3.67,4.81,8.06,6.06a.23.23,0,0,1,.16.28.22.22,0,0,1-.22.17"/></clipPath><clipPath id="clip-path-276"><path class="cls-2" d="M102.68,77.85a.23.23,0,0,1-.22-.19.24.24,0,0,1,.18-.27c3.33-.66,9.21-2.11,11.25-4.3,1.3-1.41,2.18-3.71,2.94-7.69a.24.24,0,0,1,.27-.18.24.24,0,0,1,.18.27c-.78,4.07-1.69,6.43-3,7.91-2,2.17-7.37,3.61-11.5,4.44h0"/></clipPath><clipPath id="clip-path-278"><path class="cls-2" d="M102.69,76.75a.24.24,0,0,1-.07-.46c3.61-1.08,11.1-6.51,13.67-11.49a.24.24,0,0,1,.32-.11.24.24,0,0,1,.1.32c-2.62,5.09-10.27,10.62-13.95,11.73h-.07"/></clipPath><clipPath id="clip-path-280"><path class="cls-2" d="M102.14,75.65a.27.27,0,0,1-.18-.08.24.24,0,0,1,0-.33,14,14,0,0,1,1.71-1.13,24.49,24.49,0,0,0,4.15-3c.68-.66,1.34-1.35,2-2.07a35.76,35.76,0,0,1,5.38-4.87.24.24,0,0,1,.33.06.24.24,0,0,1-.06.32,34.8,34.8,0,0,0-5.31,4.81c-.7.73-1.36,1.42-2.06,2.08a23.35,23.35,0,0,1-4.23,3.07,14.31,14.31,0,0,0-1.64,1.1.3.3,0,0,1-.16.05"/></clipPath><clipPath id="clip-path-282"><path class="cls-2" d="M96.65,66.86a.21.21,0,0,1-.15,0,.22.22,0,0,1,0-.32c.49-.55,1.07-1.34,1.74-2.26,1.8-2.48,4.05-5.56,6.17-6.13a57.14,57.14,0,0,1,6.16-.48l1.55-.09a.23.23,0,0,1,.25.21.22.22,0,0,1-.21.24l-1.57.09a60.16,60.16,0,0,0-6,.47c-2,.52-4.16,3.53-5.92,5.95-.68.93-1.26,1.73-1.76,2.3a.26.26,0,0,1-.18.07"/></clipPath><clipPath id="clip-path-284"><path class="cls-2" d="M98.29,68.51a.24.24,0,0,1-.14-.05.22.22,0,0,1,0-.32c5.94-7,12.53-8.85,14-9a.23.23,0,1,1,0,.45c-1.4.11-7.82,1.94-13.66,8.8a.23.23,0,0,1-.18.08"/></clipPath><clipPath id="clip-path-286"><path class="cls-2" d="M99.39,70.16a.22.22,0,0,1-.2-.12.24.24,0,0,1,.09-.32,41.14,41.14,0,0,0,8.35-6.17,16.62,16.62,0,0,1,4.4-3.26.22.22,0,0,1,.29.13.22.22,0,0,1-.12.3,16.37,16.37,0,0,0-4.27,3.18,42.13,42.13,0,0,1-8.43,6.23.23.23,0,0,1-.11,0"/></clipPath><clipPath id="clip-path-288"><path class="cls-2" d="M101,72.9a.22.22,0,0,1-.22-.16.23.23,0,0,1,.15-.29c4.32-1.26,6.3-3.81,8-6.06a12.37,12.37,0,0,1,4.09-3.9.24.24,0,0,1,.31.11.23.23,0,0,1-.11.31,11.83,11.83,0,0,0-3.93,3.76c-1.79,2.31-3.82,4.92-8.28,6.23H101"/></clipPath><clipPath id="clip-path-290"><path class="cls-2" d="M75.62,68c-2.85,0-5.14-2-6-2.9-.61-.62-1.5-2.05-2.27-5.3V59.7a.22.22,0,0,1,.17-.27.22.22,0,0,1,.28.17l0,0c.74,3.16,1.58,4.51,2.15,5.09.87.89,3.23,3,6.09,2.75s4.53-2.49,5.49-4.36c.86-1.66.68-5.32.68-5.36a.23.23,0,0,1,.22-.24.24.24,0,0,1,.25.22c0,.15.19,3.82-.73,5.6-1.46,2.82-3.49,4.41-5.88,4.6h-.44"/></clipPath><clipPath id="clip-path-292"><path class="cls-2" d="M67.64,61.37h-.06a2.31,2.31,0,0,1-1.92-2.29c0-.73.1-1.73.91-2.07a.22.22,0,0,1,.29.12.23.23,0,0,1-.12.29c-.44.18-.64.69-.64,1.66a1.9,1.9,0,0,0,1.6,1.87.22.22,0,0,1-.06.43"/></clipPath><clipPath id="clip-path-294"><path class="cls-2" d="M82.35,59.18a.22.22,0,0,1-.18-.12.27.27,0,0,1,.07-.34,2.16,2.16,0,0,0,1.07-2.41c-.19-1-.49-1.5-1-1.59a.25.25,0,0,1-.17-.28c0-.14.13-.23.24-.2.65.12,1.08.77,1.3,2a2.69,2.69,0,0,1-1.26,2.93.15.15,0,0,1-.11,0"/></clipPath><clipPath id="clip-path-296"><path class="cls-2" d="M72.8,62.09a14.6,14.6,0,0,0,5-.72s-.08,2.54-2.07,2.73c-2.14.26-2.88-2-2.88-2"/></clipPath><clipPath id="clip-path-298"><path class="cls-2" d="M75.06,64.12c-2,0-2.79-2.23-2.79-2.25a.23.23,0,0,1,0-.21.28.28,0,0,1,.2-.1A15.86,15.86,0,0,0,75,61.41a16.57,16.57,0,0,0,2.41-.57.22.22,0,0,1,.22,0,.26.26,0,0,1,.1.19c0,1-.55,2.87-2.31,3l-.38,0M72.84,62a2.49,2.49,0,0,0,2.54,1.6c1.4-.13,1.77-1.57,1.86-2.24a15.48,15.48,0,0,1-2.15.48,15.23,15.23,0,0,1-2.25.16"/></clipPath><clipPath id="clip-path-300"><path class="cls-2" d="M66.66,57a.23.23,0,0,1-.23-.22,7.2,7.2,0,0,0-.13-.89,2.45,2.45,0,0,1,.48-2.24,10.72,10.72,0,0,1,7-4.24c5-.62,7.62,2,7.9,2.26a3.58,3.58,0,0,1,1,2.58v.11a.23.23,0,0,1-.22.25.24.24,0,0,1-.25-.22v-.11A3.19,3.19,0,0,0,81.35,52c-.26-.28-2.69-2.71-7.5-2.12a10.43,10.43,0,0,0-6.68,4,2,2,0,0,0-.41,1.89,7.91,7.91,0,0,1,.13.94.24.24,0,0,1-.21.26h0"/></clipPath><clipPath id="clip-path-302"><path class="cls-2" d="M66.59,55.33a.23.23,0,0,1-.16-.06c-.49-.49-1.07-3-1.28-5.45-.08-.92,0-1.2.23-1.27s.49.29,1,1.38c.13.29.31.7.43.93l.48-.53c.22-.23.45-.49.64-.71a6.17,6.17,0,0,0,.11-1.9c0-1.26,0-2,.23-2.38a.35.35,0,0,1,.35-.16c.29,0,.41.42.63,1.11A4.61,4.61,0,0,0,70,48c.21.19.79-.14,1.07-.29a1.51,1.51,0,0,1,.24-.13c.29-.13.4-1.69.46-2.62.12-1.72.22-2.7.77-2.77s.91.84,1.49,2.45c.27.77.74,2.06,1,2.14a5.54,5.54,0,0,0,1.6.22,4.83,4.83,0,0,0,.23-1.28c.1-.9.16-1.41.45-1.56a.37.37,0,0,1,.35,0c.37.22.56,1,.81,2.21a5.78,5.78,0,0,0,.37,1.35c.38.17,1.24.63,1.54.8a5.69,5.69,0,0,0,0-1.21c0-.91,0-1.35.28-1.47s.3,0,.46.18c.81.93,1.08,5.6,1,6.39a.21.21,0,0,1-.25.19.21.21,0,0,1-.19-.25c.12-.87-.21-5-.8-6a9,9,0,0,0,0,.9c0,.94,0,1.49-.28,1.66a.4.4,0,0,1-.41,0c-.28-.16-1.17-.64-1.57-.82-.25-.13-.36-.56-.59-1.65a7.34,7.34,0,0,0-.54-1.86,7.24,7.24,0,0,0-.18,1.13c-.1,1-.18,1.68-.64,1.68a5.72,5.72,0,0,1-1.76-.24c-.46-.13-.79-1-1.3-2.42-.28-.78-.76-2.09-1-2.15A7.08,7.08,0,0,0,72.23,45c-.12,1.72-.23,2.78-.74,3l-.2.1c-.43.25-1.14.65-1.6.24a4.92,4.92,0,0,1-.91-1.88,6,6,0,0,0-.25-.69,8.44,8.44,0,0,0-.08,2c0,1.18,0,1.91-.21,2.2s-.44.49-.66.73-.5.54-.58.65a.23.23,0,0,1-.24.13c-.24,0-.39-.27-.84-1.31-.1-.23-.23-.53-.35-.77,0,.12,0,.26,0,.44.23,2.68.83,4.85,1.15,5.16a.24.24,0,0,1,0,.33A.25.25,0,0,1,66.59,55.33Z"/></clipPath><clipPath id="clip-path-304"><path class="cls-2" d="M74.8,59.73a.25.25,0,0,1-.11,0,1.38,1.38,0,0,1-.54-1.8l0-.1a2.38,2.38,0,0,0-.25-2.1.25.25,0,0,1,.07-.32.18.18,0,0,1,.27.08,2.86,2.86,0,0,1,.28,2.5l0,.1c-.2.72-.07.89.39,1.23a.27.27,0,0,1,.06.33.19.19,0,0,1-.17.12"/></clipPath><clipPath id="clip-path-306"><path class="cls-2" d="M70.61,57.34c0-.46.17-.87.48-.91s.58.29.61.74-.17.86-.48.9-.54-.28-.61-.73"/></clipPath><clipPath id="clip-path-308"><path class="cls-2" d="M78.28,56c-.07-.45-.37-.73-.67-.69s-.47.49-.4.94.37.74.67.7.47-.5.4-.95"/></clipPath><clipPath id="clip-path-310"><path class="cls-2" d="M69.17,55.33a.22.22,0,0,1-.15-.06A.19.19,0,0,1,69,55a2.88,2.88,0,0,1,2.51-.71.21.21,0,0,1,.17.24.2.2,0,0,1-.25.16,2.47,2.47,0,0,0-2.13.59.2.2,0,0,1-.15.06"/></clipPath><clipPath id="clip-path-312"><path class="cls-2" d="M75.8,53.58a.25.25,0,0,1-.22-.13.24.24,0,0,1,.1-.33,3.2,3.2,0,0,1,3-.09.25.25,0,1,1-.22.44,2.75,2.75,0,0,0-2.58.08.2.2,0,0,1-.11,0"/></clipPath><clipPath id="clip-path-314"><path class="cls-2" d="M67.51,55.88a.19.19,0,0,1-.15-.07.25.25,0,0,1,0-.31c.93-1,1.19-3.79,1.19-3.81a.21.21,0,0,1,.22-.2.22.22,0,0,1,.18.24c0,.12-.28,3-1.32,4.09a.16.16,0,0,1-.13.06"/></clipPath><clipPath id="clip-path-316"><path class="cls-2" d="M80.8,53.68a.28.28,0,0,1-.13,0c-1.23-.79-2.31-3.37-2.36-3.48a.24.24,0,0,1,.14-.31.24.24,0,0,1,.31.13s1.08,2.56,2.17,3.26a.24.24,0,0,1,.07.33.22.22,0,0,1-.2.1"/></clipPath><clipPath id="clip-path-318"><path class="cls-2" d="M66.41,50.94h0a.21.21,0,0,1-.14-.26,5.33,5.33,0,0,1,1.31-2.42.19.19,0,0,1,.28,0,.23.23,0,0,1,0,.3,4.88,4.88,0,0,0-1.2,2.23.19.19,0,0,1-.19.15"/></clipPath><clipPath id="clip-path-320"><path class="cls-2" d="M69.18,47.64a.22.22,0,0,1-.19-.13.31.31,0,0,1,.08-.37A9.35,9.35,0,0,1,71.43,46a.21.21,0,0,1,.27.19.27.27,0,0,1-.16.32,8.76,8.76,0,0,0-2.26,1.09.19.19,0,0,1-.1,0"/></clipPath><clipPath id="clip-path-322"><path class="cls-2" d="M77,45.8h0a7.1,7.1,0,0,0-1.71-.2.24.24,0,0,1-.22-.25.23.23,0,0,1,.22-.24,7.43,7.43,0,0,1,1.81.21.25.25,0,0,1,.16.29.22.22,0,0,1-.21.2"/></clipPath><clipPath id="clip-path-324"><path class="cls-2" d="M80.26,48.74a.23.23,0,0,1-.21-.14,4.25,4.25,0,0,0-2.17-2.15.24.24,0,0,1-.11-.32.23.23,0,0,1,.31-.11,4.68,4.68,0,0,1,2.39,2.39.23.23,0,0,1-.12.31.15.15,0,0,1-.09,0"/></clipPath><clipPath id="clip-path-326"><path class="cls-2" d="M60.68,82.24a2.83,2.83,0,0,1-2.44-1.81,2.69,2.69,0,0,1-.08-2.13,1.66,1.66,0,0,1,1-.91,2.61,2.61,0,0,1,3,1.73,2.65,2.65,0,0,1,.07,2.13,1.6,1.6,0,0,1-1,.91,1.82,1.82,0,0,1-.52.08m-1-4.5a1.4,1.4,0,0,0-.41.06,1.21,1.21,0,0,0-.72.68,2.47,2.47,0,0,0,2.5,3.26,1.2,1.2,0,0,0,.71-.67,2.27,2.27,0,0,0-.08-1.78,2.4,2.4,0,0,0-2-1.55"/></clipPath><clipPath id="clip-path-328"><path class="cls-2" d="M61,82.24a.25.25,0,0,1-.2-.1.22.22,0,0,1,.07-.31,4.45,4.45,0,0,0,.6-.43,1.84,1.84,0,0,0,.17-2.11A2.43,2.43,0,0,0,59,77.82a1.69,1.69,0,0,0-.57.25A.26.26,0,0,1,58,78a.21.21,0,0,1,0-.31,2.35,2.35,0,0,1,.74-.34,2.92,2.92,0,0,1,3.28,1.72,2.21,2.21,0,0,1-.25,2.57,3.81,3.81,0,0,1-.7.52.23.23,0,0,1-.14,0"/></clipPath><clipPath id="clip-path-330"><path class="cls-2" d="M101.41,97.07a1.67,1.67,0,0,1-1-.37,1.7,1.7,0,0,1-.65-1.17,1.59,1.59,0,0,1,.42-1.27,1.46,1.46,0,0,1,1-.48,1.73,1.73,0,0,1,1.8,1.53,1.55,1.55,0,0,1-.41,1.27,1.48,1.48,0,0,1-1,.48h-.12m-.11-2.94h-.09a1.16,1.16,0,0,0-.78.36,1.28,1.28,0,0,0-.32,1h0a1.35,1.35,0,0,0,.51.93,1.26,1.26,0,0,0,.89.27,1.07,1.07,0,0,0,.77-.35,1.21,1.21,0,0,0,.32-1,1.38,1.38,0,0,0-1.3-1.22"/></clipPath><clipPath id="clip-path-332"><path class="cls-2" d="M101.72,96.52a.17.17,0,0,1-.16-.12.18.18,0,0,1,.11-.23,2.34,2.34,0,0,0,.44-.19,1.16,1.16,0,0,0,.55-1.19,1.35,1.35,0,0,0-.44-.93,1,1,0,0,0-.77-.28,3.75,3.75,0,0,0-.42.08.16.16,0,0,1-.21-.12.18.18,0,0,1,.11-.22,4,4,0,0,1,.49-.09,1.32,1.32,0,0,1,1,.36,1.67,1.67,0,0,1,.56,1.17,1.55,1.55,0,0,1-.72,1.53,3,3,0,0,1-.51.22h0"/></clipPath><clipPath id="clip-path-334"><path class="cls-2" d="M118.54,97.07a4.29,4.29,0,0,1-4-4.12,4.62,4.62,0,0,1,1-3.4A3.52,3.52,0,0,1,118,88.29a4.25,4.25,0,0,1,4.24,4.11,4.62,4.62,0,0,1-1,3.4,3.5,3.5,0,0,1-2.41,1.26h-.25m-3.62-4.15c.21,2.22,1.93,3.93,3.84,3.78a3.19,3.19,0,0,0,2.17-1.14,4.27,4.27,0,0,0,.91-3.13c-.2-2.23-1.93-3.93-3.84-3.78a3.17,3.17,0,0,0-2.16,1.14,4.27,4.27,0,0,0-.92,3.13"/></clipPath><clipPath id="clip-path-336"><path class="cls-2" d="M119.74,96.52a.17.17,0,0,1-.17-.12.17.17,0,0,1,.11-.23,12.2,12.2,0,0,0,1.42-.57,3.76,3.76,0,0,0,1.83-3.79,4,4,0,0,0-4.05-3.7,5.26,5.26,0,0,0-1.34.26.19.19,0,0,1-.24-.11.17.17,0,0,1,.11-.23,5.55,5.55,0,0,1,1.44-.28,4.33,4.33,0,0,1,4.45,4,4.15,4.15,0,0,1-2,4.14,11.33,11.33,0,0,1-1.48.59h-.07"/></clipPath><clipPath id="clip-path-338"><path class="cls-2" d="M118.53,96A3.74,3.74,0,0,1,116,89.86a3.05,3.05,0,0,1,2.07-1,3.58,3.58,0,0,1,3.64,3.33,3.65,3.65,0,0,1-.85,2.77,3,3,0,0,1-2.07,1h-.21m-3-3.38a3.19,3.19,0,0,0,3.23,3,2.62,2.62,0,0,0,1.81-.9,3.35,3.35,0,0,0-2.47-5.5,2.6,2.6,0,0,0-1.81.9,3.28,3.28,0,0,0-.76,2.49"/></clipPath></defs><g class="cls-55"><g class="cls-56"><g class="cls-57"><g class="cls-58"><g class="cls-59"><g class="cls-60"><rect class="cls-61" x="63.47" y="36.11" width="26.91" height="18.12"/></g></g><g class="cls-62"><g class="cls-60"><rect class="cls-61" x="101.91" y="16.34" width="25.26" height="21.97"/></g></g><g class="cls-63"><g class="cls-60"><rect class="cls-61" x="36.01" y="14.7" width="23.06" height="25.26"/></g></g><g class="cls-64"><g class="cls-60"><rect class="cls-61" x="51.39" y="54.23" width="9.88" height="10.43"/></g></g><g class="cls-65"><g class="cls-60"><rect class="cls-61" x="89.28" y="49.84" width="15.38" height="15.93"/></g></g><g class="cls-66"><g class="cls-60"><rect class="cls-61" x="84.34" y="27.87" width="12.08" height="10.98"/></g></g><g class="cls-67"><g class="cls-60"><rect class="cls-61" x="22.28" y="64.12" width="14.83" height="15.93"/></g></g><g class="cls-68"><g class="cls-60"><rect class="cls-61" x="31.07" y="91.03" width="18.12" height="12.08"/></g></g><g class="cls-69"><g class="cls-60"><rect class="cls-61" x="96.97" y="90.48" width="8.79" height="8.79"/></g></g><g class="cls-70"><g class="cls-60"><rect class="cls-61" x="96.42" y="105.3" width="9.88" height="9.34"/></g></g><g class="cls-71"><g class="cls-60"><rect class="cls-61" x="112.34" y="84.99" width="13.73" height="14.28"/></g></g><g class="cls-72"><g class="cls-60"><rect class="cls-73" x="64.02" y="35.56" width="26.36" height="17.02"/></g></g><g class="cls-74"><g class="cls-60"><rect class="cls-73" x="63.47" y="38.86" width="26.91" height="15.38"/></g></g><g class="cls-75"><g class="cls-60"><rect class="cls-73" x="64.57" y="36.66" width="24.71" height="14.83"/></g></g><g class="cls-76"><g class="cls-60"><rect class="cls-73" x="37.66" y="15.79" width="21.97" height="24.71"/></g></g><g class="cls-77"><g class="cls-60"><rect class="cls-73" x="36.01" y="14.7" width="21.97" height="25.26"/></g></g><g class="cls-78"><g class="cls-60"><rect class="cls-73" x="38.76" y="16.89" width="19.77" height="23.06"/></g></g><g class="cls-79"><g class="cls-60"><rect class="cls-73" x="101.91" y="17.44" width="24.71" height="21.42"/></g></g><g class="cls-80"><g class="cls-60"><rect class="cls-73" x="102.46" y="15.79" width="24.71" height="21.42"/></g></g><g class="cls-81"><g class="cls-60"><rect class="cls-73" x="102.46" y="18.54" width="22.52" height="19.22"/></g></g><g class="cls-82"><g class="cls-60"><rect class="cls-73" x="31.07" y="91.58" width="18.12" height="11.53"/></g></g><g class="cls-83"><g class="cls-60"><rect class="cls-73" x="31.07" y="90.48" width="18.12" height="9.88"/></g></g><g class="cls-84"><g class="cls-60"><rect class="cls-73" x="31.62" y="92.13" width="17.02" height="10.43"/></g></g><g class="cls-85"><g class="cls-60"><rect class="cls-73" x="84.34" y="27.87" width="12.08" height="10.98"/></g></g><g class="cls-86"><g class="cls-60"><rect class="cls-73" x="84.88" y="28.42" width="12.08" height="10.98"/></g></g><g class="cls-87"><g class="cls-60"><rect class="cls-73" x="95.87" y="105.3" width="10.43" height="9.34"/></g></g><g class="cls-88"><g class="cls-60"><rect class="cls-73" x="96.42" y="105.3" width="10.43" height="9.34"/></g></g><g class="cls-89"><g class="cls-60"><rect class="cls-73" x="89.83" y="49.84" width="14.83" height="15.93"/></g></g><g class="cls-90"><g class="cls-60"><rect class="cls-73" x="89.28" y="49.84" width="14.28" height="15.38"/></g></g><g class="cls-91"><g class="cls-60"><rect class="cls-73" x="90.38" y="50.94" width="13.73" height="14.28"/></g></g><g class="cls-92"><g class="cls-60"><rect class="cls-73" x="22.83" y="64.12" width="14.83" height="15.93"/></g></g><g class="cls-93"><g class="cls-60"><rect class="cls-73" x="22.28" y="63.57" width="13.18" height="15.93"/></g></g><g class="cls-94"><g class="cls-60"><rect class="cls-73" x="23.38" y="64.67" width="13.18" height="14.83"/></g></g><g class="cls-95"><g class="cls-60"><rect class="cls-73" x="51.39" y="54.23" width="9.88" height="10.43"/></g></g><g class="cls-96"><g class="cls-60"><rect class="cls-73" x="51.39" y="53.68" width="9.34" height="10.43"/></g></g><g class="cls-97"><g class="cls-60"><rect class="cls-98" x="29.97" y="53.68" width="91.71" height="72.49"/></g></g><g class="cls-99"><g class="cls-60"><rect class="cls-100" x="12.4" y="24.58" width="23.06" height="19.22"/></g></g><g class="cls-101"><g class="cls-60"><rect class="cls-100" x="62.92" y="46.55" width="23.06" height="32.4"/></g></g><g class="cls-102"><g class="cls-60"><rect class="cls-100" x="116.19" y="23.48" width="23.06" height="19.22"/></g></g><g class="cls-103"><g class="cls-60"><rect class="cls-104" x="63.47" y="42.7" width="21.42" height="17.02"/></g></g><g class="cls-105"><g class="cls-60"><rect class="cls-106" x="61.82" y="39.41" width="22.52" height="18.12"/></g></g><g class="cls-107"><g class="cls-60"><rect class="cls-108" x="78.29" y="63.57" width="13.18" height="62.6"/></g></g><g class="cls-109"><g class="cls-60"><rect class="cls-110" x="65.12" y="69.61" width="21.97" height="56.56"/></g></g><g class="cls-111"><g class="cls-60"><rect class="cls-108" x="60.17" y="64.12" width="13.73" height="61.5"/></g></g><g class="cls-112"><g class="cls-60"><rect class="cls-106" x="31.62" y="63.57" width="20.87" height="18.12"/></g></g><g class="cls-113"><g class="cls-60"><rect class="cls-106" x="33.81" y="60.82" width="19.77" height="18.67"/></g></g><g class="cls-114"><g class="cls-60"><rect class="cls-106" x="36.56" y="57.53" width="19.77" height="16.47"/></g></g><g class="cls-115"><g class="cls-60"><rect class="cls-106" x="36.56" y="54.78" width="22.52" height="16.47"/></g></g><g class="cls-116"><g class="cls-60"><rect class="cls-106" x="99.16" y="62.47" width="20.87" height="18.12"/></g></g><g class="cls-117"><g class="cls-60"><rect class="cls-106" x="98.06" y="59.73" width="19.77" height="18.67"/></g></g><g class="cls-118"><g class="cls-60"><rect class="cls-106" x="95.32" y="56.43" width="19.77" height="16.47"/></g></g><g class="cls-119"><g class="cls-60"><rect class="cls-106" x="92.57" y="53.68" width="21.97" height="15.93"/></g></g><g class="cls-120"><g class="cls-60"><rect class="cls-106" x="67.31" y="68.51" width="18.12" height="57.66"/></g></g><g class="cls-121"><g class="cls-60"><rect class="cls-61" x="55.23" y="74.55" width="9.88" height="10.43"/></g></g><g class="cls-122"><g class="cls-60"><rect class="cls-123" x="25.58" y="36.66" width="17.02" height="32.4"/></g></g><g class="cls-124"><g class="cls-60"><rect class="cls-123" x="109.05" y="35.56" width="17.02" height="32.4"/></g></g><g class="cls-125"><g class="cls-60"><rect class="cls-110" x="25.58" y="37.21" width="10.43" height="8.79"/></g></g><g class="cls-126"><g class="cls-60"><rect class="cls-110" x="115.64" y="35.56" width="10.43" height="8.79"/></g></g><g class="cls-127"><g class="cls-60"><rect class="cls-73" x="120.03" y="27.33" width="12.63" height="15.38"/></g></g><g class="cls-128"><g class="cls-60"><rect class="cls-73" x="124.97" y="25.68" width="10.43" height="10.98"/></g></g><g class="cls-129"><g class="cls-60"><rect class="cls-73" x="127.72" y="24.58" width="9.88" height="10.43"/></g></g><g class="cls-130"><g class="cls-60"><rect class="cls-73" x="129.91" y="25.13" width="9.34" height="8.24"/></g></g><g class="cls-131"><g class="cls-60"><rect class="cls-73" x="126.07" y="26.82" width="7.14" height="6.5"/></g></g><g class="cls-132"><g class="cls-60"><rect class="cls-73" x="116.19" y="23.48" width="15.38" height="18.12"/></g></g><g class="cls-133"><g class="cls-60"><rect class="cls-73" x="116.19" y="35.56" width="9.88" height="7.14"/></g></g><g class="cls-134"><g class="cls-60"><rect class="cls-73" x="115.64" y="35.01" width="6.59" height="8.24"/></g></g><g class="cls-135"><g class="cls-60"><rect class="cls-73" x="120.18" y="36.66" width="6.28" height="8.24"/></g></g><g class="cls-136"><g class="cls-60"><rect class="cls-73" x="115.09" y="37.21" width="10.98" height="7.69"/></g></g><g class="cls-137"><g class="cls-60"><rect class="cls-73" x="109.05" y="36.66" width="12.08" height="23.61"/></g></g><g class="cls-138"><g class="cls-60"><rect class="cls-73" x="114.54" y="38.31" width="11.53" height="29.65"/></g></g><g class="cls-139"><g class="cls-60"><rect class="cls-73" x="109.05" y="54.23" width="12.63" height="14.28"/></g></g><g class="cls-140"><g class="cls-60"><rect class="cls-73" x="109.05" y="54.23" width="12.08" height="14.28"/></g></g><g class="cls-141"><g class="cls-60"><rect class="cls-73" x="92.57" y="53.14" width="22.52" height="15.93"/></g></g><g class="cls-142"><g class="cls-60"><rect class="cls-73" x="99.71" y="61.37" width="21.97" height="20.87"/></g></g><g class="cls-143"><g class="cls-60"><rect class="cls-73" x="77.75" y="60.82" width="7.14" height="12.63"/></g></g><g class="cls-144"><g class="cls-60"><rect class="cls-73" x="67.31" y="62.47" width="7.14" height="11.53"/></g></g><g class="cls-145"><g class="cls-60"><rect class="cls-73" x="64.57" y="67.41" width="8.79" height="58.76"/></g></g><g class="cls-146"><g class="cls-60"><rect class="cls-73" x="78.84" y="66.32" width="8.24" height="59.86"/></g></g><g class="cls-147"><g class="cls-60"><rect class="cls-73" x="60.17" y="64.12" width="13.73" height="61.5"/></g></g><g class="cls-148"><g class="cls-60"><rect class="cls-73" x="78.29" y="63.02" width="13.73" height="62.6"/></g></g><g class="cls-149"><g class="cls-60"><rect class="cls-73" x="67.31" y="67.96" width="18.12" height="10.98"/></g></g><g class="cls-150"><g class="cls-60"><rect class="cls-73" x="66.76" y="69.61" width="18.67" height="10.43"/></g></g><g class="cls-151"><g class="cls-60"><rect class="cls-73" x="65.12" y="108.05" width="21.97" height="7.69"/></g></g><g class="cls-152"><g class="cls-60"><rect class="cls-73" x="71.16" y="74" width="7.14" height="52.72"/></g></g><g class="cls-153"><g class="cls-60"><rect class="cls-73" x="75" y="73.45" width="6.59" height="53.27"/></g></g><g class="cls-154"><g class="cls-60"><rect class="cls-73" x="79.94" y="62.47" width="25.81" height="60.41"/></g></g><g class="cls-155"><g class="cls-60"><rect class="cls-73" x="30.52" y="55.33" width="12.63" height="14.28"/></g></g><g class="cls-156"><g class="cls-60"><rect class="cls-73" x="30.52" y="55.33" width="12.08" height="14.28"/></g></g><g class="cls-157"><g class="cls-60"><rect class="cls-73" x="36.56" y="54.23" width="22.52" height="15.93"/></g></g><g class="cls-158"><g class="cls-60"><rect class="cls-73" x="29.97" y="62.47" width="21.97" height="20.87"/></g></g><g class="cls-159"><g class="cls-60"><rect class="cls-73" x="46.44" y="64.12" width="25.81" height="58.76"/></g></g><g class="cls-160"><g class="cls-60"><rect class="cls-73" x="18.99" y="28.42" width="12.63" height="15.38"/></g></g><g class="cls-161"><g class="cls-60"><rect class="cls-73" x="16.24" y="26.78" width="10.43" height="10.98"/></g></g><g class="cls-162"><g class="cls-60"><rect class="cls-73" x="14.04" y="25.68" width="9.88" height="10.43"/></g></g><g class="cls-163"><g class="cls-60"><rect class="cls-73" x="12.4" y="26.23" width="9.34" height="8.24"/></g></g><g class="cls-164"><g class="cls-60"><rect class="cls-73" x="18.44" y="27.93" width="7.14" height="6.48"/></g></g><g class="cls-165"><g class="cls-60"><rect class="cls-73" x="20.09" y="24.58" width="15.38" height="18.12"/></g></g><g class="cls-166"><g class="cls-60"><rect class="cls-73" x="25.58" y="36.66" width="9.88" height="7.14"/></g></g><g class="cls-167"><g class="cls-60"><rect class="cls-73" x="29.97" y="36.11" width="6.59" height="8.24"/></g></g><g class="cls-168"><g class="cls-60"><rect class="cls-73" x="25.18" y="37.76" width="6.28" height="8.24"/></g></g><g class="cls-169"><g class="cls-60"><rect class="cls-73" x="25.58" y="38.31" width="10.98" height="7.69"/></g></g><g class="cls-170"><g class="cls-60"><rect class="cls-73" x="30.52" y="37.76" width="12.08" height="23.61"/></g></g><g class="cls-171"><g class="cls-60"><rect class="cls-73" x="25.58" y="39.41" width="11.53" height="29.65"/></g></g><g class="cls-172"><g class="cls-60"><rect class="cls-73" x="31.62" y="64.12" width="20.32" height="18.12"/></g></g><g class="cls-173"><g class="cls-60"><rect class="cls-73" x="32.17" y="63.02" width="19.77" height="17.57"/></g></g><g class="cls-174"><g class="cls-60"><rect class="cls-73" x="33.26" y="63.02" width="19.22" height="17.02"/></g></g><g class="cls-175"><g class="cls-60"><rect class="cls-73" x="36.56" y="56.43" width="21.42" height="14.83"/></g></g><g class="cls-176"><g class="cls-60"><rect class="cls-73" x="36.56" y="57.53" width="19.77" height="14.83"/></g></g><g class="cls-177"><g class="cls-60"><rect class="cls-73" x="36.56" y="58.63" width="18.67" height="15.38"/></g></g><g class="cls-178"><g class="cls-60"><rect class="cls-73" x="36.01" y="60.82" width="18.12" height="15.93"/></g></g><g class="cls-179"><g class="cls-60"><rect class="cls-73" x="99.71" y="62.47" width="20.32" height="18.12"/></g></g><g class="cls-180"><g class="cls-60"><rect class="cls-73" x="99.71" y="61.92" width="19.77" height="17.57"/></g></g><g class="cls-181"><g class="cls-60"><rect class="cls-73" x="99.16" y="61.37" width="19.22" height="17.02"/></g></g><g class="cls-182"><g class="cls-60"><rect class="cls-73" x="93.67" y="54.78" width="21.42" height="14.83"/></g></g><g class="cls-183"><g class="cls-60"><rect class="cls-73" x="95.32" y="56.43" width="19.77" height="14.83"/></g></g><g class="cls-184"><g class="cls-60"><rect class="cls-73" x="96.42" y="57.53" width="18.67" height="15.38"/></g></g><g class="cls-185"><g class="cls-60"><rect class="cls-73" x="98.06" y="59.73" width="18.12" height="15.93"/></g></g><g class="cls-186"><g class="cls-60"><rect class="cls-73" x="64.57" y="54.78" width="20.87" height="15.93"/></g></g><g class="cls-187"><g class="cls-60"><rect class="cls-73" x="62.92" y="54.23" width="7.69" height="9.88"/></g></g><g class="cls-188"><g class="cls-60"><rect class="cls-73" x="79.39" y="51.49" width="7.14" height="10.43"/></g></g><g class="cls-189"><g class="cls-60"><rect class="cls-108" x="70.06" y="58.63" width="10.43" height="8.24"/></g></g><g class="cls-190"><g class="cls-60"><rect class="cls-73" x="69.51" y="58.08" width="10.98" height="8.79"/></g></g><g class="cls-191"><g class="cls-60"><rect class="cls-73" x="63.47" y="46.55" width="21.97" height="13.18"/></g></g><g class="cls-192"><g class="cls-60"><rect class="cls-73" x="62.37" y="39.41" width="22.52" height="18.67"/></g></g><g class="cls-193"><g class="cls-60"><rect class="cls-73" x="71.16" y="52.59" width="6.59" height="9.88"/></g></g><g class="cls-194"><g class="cls-60"><rect class="cls-73" x="67.86" y="53.68" width="6.59" height="7.14"/></g></g><g class="cls-195"><g class="cls-60"><rect class="cls-73" x="74.45" y="52.59" width="6.59" height="7.14"/></g></g><g class="cls-196"><g class="cls-60"><rect class="cls-73" x="66.21" y="51.49" width="8.24" height="6.59"/></g></g><g class="cls-197"><g class="cls-60"><rect class="cls-73" x="72.8" y="49.95" width="8.79" height="6.38"/></g></g><g class="cls-198"><g class="cls-60"><rect class="cls-73" x="64.57" y="48.74" width="7.14" height="9.88"/></g></g><g class="cls-199"><g class="cls-60"><rect class="cls-73" x="75.55" y="47.1" width="8.24" height="9.34"/></g></g><g class="cls-200"><g class="cls-60"><rect class="cls-73" x="63.47" y="45.45" width="7.14" height="8.24"/></g></g><g class="cls-201"><g class="cls-60"><rect class="cls-73" x="66.21" y="43.25" width="8.24" height="7.14"/></g></g><g class="cls-202"><g class="cls-60"><rect class="cls-73" x="72.25" y="42.35" width="7.69" height="6.19"/></g></g><g class="cls-203"><g class="cls-60"><rect class="cls-73" x="75" y="43.25" width="8.24" height="8.24"/></g></g><g class="cls-204"><g class="cls-60"><rect class="cls-73" x="55.23" y="74.55" width="9.88" height="10.43"/></g></g><g class="cls-205"><g class="cls-60"><rect class="cls-73" x="55.23" y="74.55" width="9.88" height="10.43"/></g></g><g class="cls-206"><g class="cls-60"><rect class="cls-73" x="96.97" y="91.03" width="8.79" height="8.79"/></g></g><g class="cls-207"><g class="cls-60"><rect class="cls-73" x="98.06" y="90.48" width="7.69" height="8.79"/></g></g><g class="cls-208"><g class="cls-60"><rect class="cls-73" x="111.79" y="85.54" width="13.18" height="14.28"/></g></g><g class="cls-209"><g class="cls-60"><rect class="cls-73" x="114.54" y="84.99" width="11.53" height="14.28"/></g></g><g class="cls-210"><g class="cls-60"><rect class="cls-73" x="112.34" y="86.08" width="12.08" height="12.63"/></g></g></g></g></g></g></svg>