<svg version="1.1" id="Layer_1" xmlns="http://www.w3.org/2000/svg" xmlns:xlink="http://www.w3.org/1999/xlink" x="0" y="0" viewBox="0 0 150 120" xml:space="preserve"><style>.st2{fill:#a7b3cc}.st75{fill:#fff}.st78{fill:#ffedde}.st87{fill:#002f57}.st93{fill:#a6daef}.st98{fill:#ffedda}.st105{fill:#c8af96}.st110{fill:#384154}</style><g id="Layer_2_1_"><g id="Layer_1-2"><defs><path id="SVGID_1_" d="M134.9 107.1c-.1 0-.1-.1-.2-.1-.7-5.1-.8-10.2-.5-15.3.2-1.9.5-3.8.7-6 .5-3.9 1-7.9 1.2-11.3.2-6.7-.3-13.4-1.6-20-.3-1.2-.5-2.5-.8-3.9-1-4.6-2.1-9.9-3.5-13.5l-.1-.3c-1.7-4.3-3.6-9.3-5.6-11.5-2-2.2-4-1-6.6.8l-.2.2c-2.5 1.8-3.8 2.8-4.3 4.3 0 .1-.1.1-.2.1s-.1-.1-.1-.2c.4-1.6 1.8-2.6 4.4-4.5l.2-.2c2.6-1.9 4.8-3.2 7-.8 2 2.3 3.9 7.2 5.6 11.6l.1.3c1.4 3.6 2.5 8.9 3.5 13.5.3 1.4.6 2.8.8 3.9 1.3 6.6 1.9 13.4 1.7 20.2-.1 3.4-.7 7.4-1.2 11.3-.3 2.1-.5 4.1-.7 5.9-.3 5.1-.1 10.2.5 15.2.1.2 0 .3-.1.3"/></defs><clipPath id="SVGID_2_"><use xlink:href="#SVGID_1_" overflow="visible"/></clipPath><g clip-path="url(#SVGID_2_)"><defs><path id="SVGID_3_" d="M-297.6-948.3h1434.7v3073.9H-297.6z"/></defs><clipPath id="SVGID_4_"><use xlink:href="#SVGID_3_" overflow="visible"/></clipPath><g clip-path="url(#SVGID_4_)"><path class="st2" d="M108.6 19.2h32.3v92.4h-32.3z"/></g></g><defs><path id="SVGID_5_" d="M133.1 107.1c-.1 0-.1-.1-.1-.1-.6-5.1-.8-10.2-.5-15.2.2-1.8.4-3.8.7-5.9.5-3.8 1-7.8 1.1-11.2.2-6.7-.3-13.4-1.6-20-.3-1.2-.5-2.5-.8-3.9-.9-4.6-2-9.8-3.4-13.4v-.1c-1.6-4.3-3.5-9.1-5.4-11.4-.1-.1-.1-.2 0-.2.1-.1.1-.1.2 0 2 2.3 3.8 7.2 5.5 11.4v.1c1.4 3.6 2.5 8.8 3.4 13.5.3 1.4.6 2.8.8 3.9 1.3 6.6 1.8 13.3 1.7 20.1-.1 3.4-.6 7.4-1.1 11.3-.3 2.1-.5 4.1-.7 5.9-.3 5.1-.1 10.2.5 15.2-.1-.1-.1 0-.3 0"/></defs><clipPath id="SVGID_6_"><use xlink:href="#SVGID_5_" overflow="visible"/></clipPath><g clip-path="url(#SVGID_6_)"><defs><path id="SVGID_7_" d="M-297.6-948.3h1434.7v3073.9H-297.6z"/></defs><clipPath id="SVGID_8_"><use xlink:href="#SVGID_7_" overflow="visible"/></clipPath><g clip-path="url(#SVGID_8_)"><path class="st2" d="M118.5 21h20.6v90.6h-20.6z"/></g></g><defs><path id="SVGID_9_" d="M127.3 106.2c-.1 0-.1-.1-.1-.1-.6-6.4-1.9-21.5-.7-32 .5-4.3.7-8.7.7-13.1-.3-8-1.7-15.9-4.2-23.6l-.1-.4c-.7-2.2-2.1-6.7-1.5-9.7 0-.1.1-.1.1-.1.1 0 .1.1.1.2-.6 2.9.8 7.4 1.5 9.5l.1.4c2.5 7.6 3.9 15.6 4.2 23.6 0 4.4-.2 8.8-.7 13.1-1.2 10.4.2 25.5.7 31.9.1.2.1.3-.1.3.1 0 .1 0 0 0"/></defs><clipPath id="SVGID_10_"><use xlink:href="#SVGID_9_" overflow="visible"/></clipPath><g clip-path="url(#SVGID_10_)"><defs><path id="SVGID_11_" d="M-297.6-948.3h1434.7v3073.9H-297.6z"/></defs><clipPath id="SVGID_12_"><use xlink:href="#SVGID_11_" overflow="visible"/></clipPath><g clip-path="url(#SVGID_12_)"><path class="st2" d="M116.7 22.8h15.2v87.9h-15.2z"/></g></g><defs><path id="SVGID_13_" d="M125.5 78.4c-3.5-2.2-3.5-3.2-3.4-5.2v-1c0-6-.3-17.9-1.3-24.4l-.1-.8c-.7-4.9-.8-5.7 1.5-7.1.1-.1.2-.1.2 0v.2c-2.2 1.3-2.1 2-1.4 6.8l.1.8c.9 6.5 1.3 18.4 1.3 24.4v1c-.1 2-.1 2.8 3.2 4.9.1.1.1.1 0 .2 0 .1-.1.1-.1.2"/></defs><clipPath id="SVGID_14_"><use xlink:href="#SVGID_13_" overflow="visible"/></clipPath><g clip-path="url(#SVGID_14_)"><defs><path id="SVGID_15_" d="M-297.6-948.3h1434.7v3073.9H-297.6z"/></defs><clipPath id="SVGID_16_"><use xlink:href="#SVGID_15_" overflow="visible"/></clipPath><g clip-path="url(#SVGID_16_)"><path class="st2" d="M115.8 35.3h14.3v47.5h-14.3z"/></g></g><defs><path id="SVGID_17_" d="M40.7 106.2c-.1 0-.2-.1-.2-.2.2-2.5.3-4.7.4-6.9 0-.1.1-.1.2-.1s.2.1.2.2c-.1 2.2-.3 4.4-.4 6.9.1 0-.1.1-.2.1"/></defs><clipPath id="SVGID_18_"><use xlink:href="#SVGID_17_" overflow="visible"/></clipPath><g clip-path="url(#SVGID_18_)"><defs><path id="SVGID_19_" d="M-297.6-948.3h1434.7v3073.9H-297.6z"/></defs><clipPath id="SVGID_20_"><use xlink:href="#SVGID_19_" overflow="visible"/></clipPath><g clip-path="url(#SVGID_20_)"><path class="st2" d="M36 94.5h9.9v16.1H36z"/></g></g><defs><path id="SVGID_21_" d="M43.3 58.6c-.1 0-.1-.1-.1-.2.1-.6.2-1.3.2-1.9 1.6-12.3 2.6-20.4 6.9-22 1.4-.4 2.8-.8 4.3-.9.1 0 .2 0 .2.1s0 .2-.1.2c-1.5.2-2.9.5-4.3.9-4.1 1.5-5.2 9.6-6.7 21.9-.1.6-.2 1.2-.2 1.9h-.2"/></defs><clipPath id="SVGID_22_"><use xlink:href="#SVGID_21_" overflow="visible"/></clipPath><g clip-path="url(#SVGID_22_)"><defs><path id="SVGID_23_" d="M-297.6-948.3h1434.7v3073.9H-297.6z"/></defs><clipPath id="SVGID_24_"><use xlink:href="#SVGID_23_" overflow="visible"/></clipPath><g clip-path="url(#SVGID_24_)"><path class="st2" d="M38.7 29.1h20.6v34.1H38.7z"/></g></g><defs><path id="SVGID_25_" d="M68.4 33.5c-.1 0-.1-.1-.2-.2s.1-.3.1-.3c2-.2 4-.3 6-.4.1 0 .2.1.2.2s-.1.2-.2.3c-1.9.1-3.9.3-5.9.4"/></defs><clipPath id="SVGID_26_"><use xlink:href="#SVGID_25_" overflow="visible"/></clipPath><g clip-path="url(#SVGID_26_)"><defs><path id="SVGID_27_" d="M-297.6-948.3h1434.7v3073.9H-297.6z"/></defs><clipPath id="SVGID_28_"><use xlink:href="#SVGID_27_" overflow="visible"/></clipPath><g clip-path="url(#SVGID_28_)"><path class="st2" d="M63.8 28.2H79v9.9H63.8z"/></g></g><defs><path id="SVGID_29_" d="M119.6 107.1c-.1 0-.1-.1-.1-.2v-.8c.2-6.9.6-23 .5-35.3v-1.6c0-5.6-.1-13.2-.7-19.6-.7-7.5-1.9-11.8-3.7-12.7-2.9-1.5-8.8-2.6-17.6-3.2-.1 0-.2-.1-.2-.2s.1-.2.2-.2c8.8.6 14.8 1.7 17.7 3.2 4.3 2.2 4.4 21.2 4.5 32.6v1.6c.1 12.3-.3 28.4-.5 35.3v.8c0 .2-.1.3-.1.3"/></defs><clipPath id="SVGID_30_"><use xlink:href="#SVGID_29_" overflow="visible"/></clipPath><g clip-path="url(#SVGID_30_)"><defs><path id="SVGID_31_" d="M-297.6-948.3h1434.7v3073.9H-297.6z"/></defs><clipPath id="SVGID_32_"><use xlink:href="#SVGID_31_" overflow="visible"/></clipPath><g clip-path="url(#SVGID_32_)"><path class="st2" d="M93.4 29.1h31.4v82.5H93.4z"/></g></g><defs><path id="SVGID_33_" d="M37.1 106.2c-.1 0-.3-.1-.2-.2.1-2 .3-4 .4-6 0-.1.1-.1.3-.1s.3.1.2.2c-.1 1.9-.3 3.9-.4 6 0 0-.1.1-.3.1"/></defs><clipPath id="SVGID_34_"><use xlink:href="#SVGID_33_" overflow="visible"/></clipPath><g clip-path="url(#SVGID_34_)"><defs><path id="SVGID_35_" d="M-297.6-948.3h1434.7v3073.9H-297.6z"/></defs><clipPath id="SVGID_36_"><use xlink:href="#SVGID_35_" overflow="visible"/></clipPath><g clip-path="url(#SVGID_36_)"><path class="st2" d="M32.4 95.4h9.9v15.2h-9.9z"/></g></g><defs><path id="SVGID_37_" d="M40.6 60.4c-.1 0-.1-.1-.1-.2.3-2.7.7-5.1.9-7.2.2-1.5.4-2.8.5-4 .1-.5.1-1 .2-1.4 1-8.1 2-16.4 7-17.8 3.7-1 28.9-1.6 37.8-1.7.1 0 .1 0 .1.1s0 .2-.1.2c-8.9.1-34.1.7-37.7 1.7-4.8 1.4-5.8 9.6-6.8 17.6-.1.5-.1 1-.2 1.4-.1 1.2-.3 2.5-.5 4-.3 2.1-.6 4.4-.9 7.2 0 .1-.1.1-.2.1"/></defs><clipPath id="SVGID_38_"><use xlink:href="#SVGID_37_" overflow="visible"/></clipPath><g clip-path="url(#SVGID_38_)"><defs><path id="SVGID_39_" d="M-297.6-948.3h1434.7v3073.9H-297.6z"/></defs><clipPath id="SVGID_40_"><use xlink:href="#SVGID_39_" overflow="visible"/></clipPath><g clip-path="url(#SVGID_40_)"><path class="st2" d="M36 23.7h55.6v41.2H36z"/></g></g><defs><path id="SVGID_41_" d="M120.1 39.8c-.1 0-.1 0-.2-.1-.1-.4-.2-.9-.3-1.3-.6-2.3-1.3-5-4.3-7-2-1.3-5-1.8-10-2.4-1.5-.2-15.4-.4-18.1-.5-.1 0-.1-.1-.1-.1 0-.1.1-.1.2-.1 2.7.2 16.6.3 18.1.5 5.1.6 8.1 1.2 10.1 2.5 3.1 2 3.8 4.8 4.4 7.2.1.5.2.9.3 1.3.1-.1.1 0-.1 0 .1 0 .1 0 0 0"/></defs><clipPath id="SVGID_42_"><use xlink:href="#SVGID_41_" overflow="visible"/></clipPath><g clip-path="url(#SVGID_42_)"><defs><path id="SVGID_43_" d="M-297.6-948.3h1434.7v3073.9H-297.6z"/></defs><clipPath id="SVGID_44_"><use xlink:href="#SVGID_43_" overflow="visible"/></clipPath><g clip-path="url(#SVGID_44_)"><path class="st2" d="M82.6 23.7h42.1v20.6H82.6z"/></g></g><defs><path id="SVGID_45_" d="M41.6 106.2c-.1 0-.2-.1-.2-.1.1-2.1.3-4.1.4-6 0-.1.1-.1.2-.1s.2.1.2.1c-.1 1.9-.3 3.9-.4 6 .1 0-.1.1-.2.1"/></defs><clipPath id="SVGID_46_"><use xlink:href="#SVGID_45_" overflow="visible"/></clipPath><g clip-path="url(#SVGID_46_)"><defs><path id="SVGID_47_" d="M-297.6-948.3h1434.7v3073.9H-297.6z"/></defs><clipPath id="SVGID_48_"><use xlink:href="#SVGID_47_" overflow="visible"/></clipPath><g clip-path="url(#SVGID_48_)"><path class="st2" d="M36.9 95.4h9.9v15.2h-9.9z"/></g></g><defs><path id="SVGID_49_" d="M45.1 57.7c-.1 0-.1-.1-.1-.2l.1-.8c1.4-11.7 2.4-19.4 6.4-20.9.7-.3 1.5-.5 2.2-.6.1 0 .2 0 .2.1s0 .2-.1.2c-.8.1-1.5.3-2.2.6-3.8 1.4-4.8 9.1-6.3 20.6l-.1.8c0 .2 0 .2-.1.2"/></defs><clipPath id="SVGID_50_"><use xlink:href="#SVGID_49_" overflow="visible"/></clipPath><g clip-path="url(#SVGID_50_)"><defs><path id="SVGID_51_" d="M-297.6-948.3h1434.7v3073.9H-297.6z"/></defs><clipPath id="SVGID_52_"><use xlink:href="#SVGID_51_" overflow="visible"/></clipPath><g clip-path="url(#SVGID_52_)"><path class="st2" d="M40.5 30.8h17.9v31.4H40.5z"/></g></g><defs><path id="SVGID_53_" d="M69.3 34.4c-.1 0-.2-.1-.2-.2s.1-.3.1-.3c1.7-.2 3.4-.3 5.1-.4.1 0 .2.1.2.3s-.1.3-.2.3c-1.6.1-3.3.2-5 .3"/></defs><clipPath id="SVGID_54_"><use xlink:href="#SVGID_53_" overflow="visible"/></clipPath><g clip-path="url(#SVGID_54_)"><defs><path id="SVGID_55_" d="M-297.6-948.3h1434.7v3073.9H-297.6z"/></defs><clipPath id="SVGID_56_"><use xlink:href="#SVGID_55_" overflow="visible"/></clipPath><g clip-path="url(#SVGID_56_)"><path class="st2" d="M64.7 29.1H79V39H64.7z"/></g></g><defs><path id="SVGID_57_" d="M118.8 107.1c-.1 0-.1-.1-.1-.2.1-2.2.6-21.9.4-36.1v-1.5c0-5.4-.1-12.8-.7-19.1-.6-7.3-1.8-11.5-3.5-12.3-2.9-1.5-8.9-2.5-17.8-3.1-.1 0-.1-.1-.1-.1 0-.1.1-.1.2-.1 9 .6 14.9 1.6 17.9 3.1 4.1 2.1 4.3 20.6 4.3 31.7v1.5c.1 14.2-.4 34-.4 36.2-.1-.1-.1 0-.2 0"/></defs><clipPath id="SVGID_58_"><use xlink:href="#SVGID_57_" overflow="visible"/></clipPath><g clip-path="url(#SVGID_58_)"><defs><path id="SVGID_59_" d="M-297.6-948.3h1434.7v3073.9H-297.6z"/></defs><clipPath id="SVGID_60_"><use xlink:href="#SVGID_59_" overflow="visible"/></clipPath><g clip-path="url(#SVGID_60_)"><path class="st2" d="M92.5 30h31.4v81.6H92.5z"/></g></g><defs><path id="SVGID_61_" d="M48.7 43.4c-.1 0-.1 0-.2-.1 0-.1 0-.2.1-.2 1-.2 2.1-.4 3.3-.6.1 0 .2 0 .2.1s0 .2-.1.2c-1.2.2-2.3.4-3.3.6"/></defs><clipPath id="SVGID_62_"><use xlink:href="#SVGID_61_" overflow="visible"/></clipPath><g clip-path="url(#SVGID_62_)"><defs><path id="SVGID_63_" d="M-297.6-948.3h1434.7v3073.9H-297.6z"/></defs><clipPath id="SVGID_64_"><use xlink:href="#SVGID_63_" overflow="visible"/></clipPath><g clip-path="url(#SVGID_64_)"><path class="st2" d="M44.1 38h12.6v9.9H44.1z"/></g></g><defs><path id="SVGID_65_" d="M117.4 44.3c-2-1-8.4-2-17.3-2.6-9.2-.6-19.7-.8-29-.5-.1 0-.2-.1-.2-.1 0-.1.1-.2.2-.2 19.2-.7 42.2.9 46.4 3.1.1 0 .1.1.1.2s-.1.1-.2.1"/></defs><clipPath id="SVGID_66_"><use xlink:href="#SVGID_65_" overflow="visible"/></clipPath><g clip-path="url(#SVGID_66_)"><defs><path id="SVGID_67_" d="M-297.6-948.3h1434.7v3073.9H-297.6z"/></defs><clipPath id="SVGID_68_"><use xlink:href="#SVGID_67_" overflow="visible"/></clipPath><g clip-path="url(#SVGID_68_)"><path class="st2" d="M66.5 36.2h55.6v12.6H66.5z"/></g></g><defs><path id="SVGID_69_" d="M128.2 67.6c-.1 0-.1 0-.1-.1-.3-.3-.3-1.9-.5-4.9-.1-1.4-.1-3-.3-4.5-.2-4.3-.8-8.6-1.6-12.8 0-.1 0-.2.1-.2s.2 0 .2.1c.9 4.2 1.4 8.5 1.6 12.8.1 1.6.2 3.1.3 4.5.1 2.3.2 4.5.4 4.7.1 0 .1.1 0 .2 0 .2 0 .2-.1.2"/></defs><clipPath id="SVGID_70_"><use xlink:href="#SVGID_69_" overflow="visible"/></clipPath><g clip-path="url(#SVGID_70_)"><defs><path id="SVGID_71_" d="M-297.6-948.3h1434.7v3073.9H-297.6z"/></defs><clipPath id="SVGID_72_"><use xlink:href="#SVGID_71_" overflow="visible"/></clipPath><g clip-path="url(#SVGID_72_)"><path class="st2" d="M121.2 40.7h11.7v31.4h-11.7z"/></g></g><defs><path id="SVGID_73_" d="M136.5 67.7h.9V107h-.9z"/></defs><clipPath id="SVGID_74_"><use xlink:href="#SVGID_73_" overflow="visible"/></clipPath><g clip-path="url(#SVGID_74_)"><defs><path id="SVGID_75_" d="M136.4 67.6h1.8v39.5h-1.8z"/></defs><clipPath id="SVGID_76_"><use xlink:href="#SVGID_75_" overflow="visible"/></clipPath><g clip-path="url(#SVGID_76_)"><defs><path id="SVGID_77_" d="M137.2 107c-.1 0-.1-.1-.1-.2.2-4.9-.2-34.1-.6-39 0-.1 0-.2.1-.2s.1 0 .1.1c.4 4.9.8 34.2.6 39.1 0 .2-.1.2-.1.2"/></defs><clipPath id="SVGID_78_"><use xlink:href="#SVGID_77_" overflow="visible"/></clipPath><g clip-path="url(#SVGID_78_)"><defs><path id="SVGID_79_" d="M136.4 67.6h.9v39.5h-.9z"/></defs><clipPath id="SVGID_80_"><use xlink:href="#SVGID_79_" overflow="visible"/></clipPath><g clip-path="url(#SVGID_80_)"><path class="st2" d="M132 63.2h9.8v48.3H132z"/></g></g></g></g><defs><path id="SVGID_81_" d="m91.6 80.2-4-1.6c-.1 0-.1-.1-.1-.2s.1-.1.2-.1l4 1.6 25.3-.8.3-24.3-9.6-3-29.2.1V60c0 .1-.1.1-.2.2-.1 0-.1-.1-.2-.2v-8.3c0-.1.1-.1.2-.2h29.4l9.7 3c.1 0 .1.1.1.1l-.3 24.5c0 .1-.1.1-.1.2l-25.5.9"/></defs><clipPath id="SVGID_82_"><use xlink:href="#SVGID_81_" overflow="visible"/></clipPath><g clip-path="url(#SVGID_82_)"><defs><path id="SVGID_83_" d="M-297.6-948.3h1434.7v3073.9H-297.6z"/></defs><clipPath id="SVGID_84_"><use xlink:href="#SVGID_83_" overflow="visible"/></clipPath><g clip-path="url(#SVGID_84_)"><path class="st2" d="M73.7 47h48.4v37.7H73.7z"/></g></g><defs><path id="SVGID_85_" d="m91.8 55.1-13.5-3.3c-.1 0-.1-.1-.1-.1 0-.1.1-.1.1-.1h.1l13.5 3.3 24.8-.5c.1 0 .1.1.2.1 0 .1-.1.1-.1.1l-25 .5"/></defs><clipPath id="SVGID_86_"><use xlink:href="#SVGID_85_" overflow="visible"/></clipPath><g clip-path="url(#SVGID_86_)"><defs><path id="SVGID_87_" d="M-297.6-948.3h1434.7v3073.9H-297.6z"/></defs><clipPath id="SVGID_88_"><use xlink:href="#SVGID_87_" overflow="visible"/></clipPath><g clip-path="url(#SVGID_88_)"><path class="st2" d="M73.7 47h47.5v12.6H73.7z"/></g></g><defs><path id="SVGID_89_" d="M91.9 79.3c-.2 0-.3-.1-.3-.2l.2-24.8c0-.1.2-.2.3-.2.2 0 .3.1.3.2l-.2 24.8c.1.1-.1.2-.3.2"/></defs><clipPath id="SVGID_90_"><use xlink:href="#SVGID_89_" overflow="visible"/></clipPath><g clip-path="url(#SVGID_90_)"><defs><path id="SVGID_91_" d="M-297.6-948.3h1434.7v3073.9H-297.6z"/></defs><clipPath id="SVGID_92_"><use xlink:href="#SVGID_91_" overflow="visible"/></clipPath><g clip-path="url(#SVGID_92_)"><path class="st2" d="M87.1 49.7H97v34.1h-9.9z"/></g></g><defs><path id="SVGID_93_" d="M90.8 105.3 77.3 100c-.1 0-.1-.1-.1-.1v-4.8c0-.1.1-.1.1-.1.1 0 .1.1.2.1v4.7l13.2 5.3 25.3-.8.3-24.7c0-.1.1-.2.2-.2s.2.1.2.2l-.3 24.9c0 .1-.1.1-.2.1l-25.4.7"/></defs><clipPath id="SVGID_94_"><use xlink:href="#SVGID_93_" overflow="visible"/></clipPath><g clip-path="url(#SVGID_94_)"><defs><path id="SVGID_95_" d="M-297.6-948.3h1434.7v3073.9H-297.6z"/></defs><clipPath id="SVGID_96_"><use xlink:href="#SVGID_95_" overflow="visible"/></clipPath><g clip-path="url(#SVGID_96_)"><path class="st2" d="M72.8 74.8h48.4v35H72.8z"/></g></g><defs><path id="SVGID_97_" d="M90.9 105.3c-.1 0-.2-.1-.2-.2l.5-23.9c0-.1.1-.2.2-.2s.2.1.2.2l-.5 23.9c0 .1-.1.2-.2.2"/></defs><clipPath id="SVGID_98_"><use xlink:href="#SVGID_97_" overflow="visible"/></clipPath><g clip-path="url(#SVGID_98_)"><defs><path id="SVGID_99_" d="M-297.6-948.3h1434.7v3073.9H-297.6z"/></defs><clipPath id="SVGID_100_"><use xlink:href="#SVGID_99_" overflow="visible"/></clipPath><g clip-path="url(#SVGID_100_)"><path class="st2" d="M86.2 76.6h9.9v33.2h-9.9z"/></g></g><defs><path id="SVGID_101_" d="M80.7 51.5c-.1 0-.1-.1-.1-.2v-3H70.2c-.1 0-.1-.1-.1-.2s.1-.2.2-.2h10.5c.1 0 .1.1.1.2v3.2c-.1.1-.1.2-.2.2z"/></defs><clipPath id="SVGID_102_"><use xlink:href="#SVGID_101_" overflow="visible"/></clipPath><g clip-path="url(#SVGID_102_)"><defs><path id="SVGID_103_" d="M-297.6-948.3h1434.7v3073.9H-297.6z"/></defs><clipPath id="SVGID_104_"><use xlink:href="#SVGID_103_" overflow="visible"/></clipPath><g clip-path="url(#SVGID_104_)"><path class="st2" d="M65.6 43.4h19.7V56H65.6z"/></g></g><defs><path id="SVGID_105_" d="M78.9 51.5c-.1 0-.2-.1-.2-.1v-.6H68.4c-.1 0-.2 0-.2-.1s.1-.1.2-.1h10.4c.1 0 .2.1.2.1v.7s0 .1-.1.1z"/></defs><clipPath id="SVGID_106_"><use xlink:href="#SVGID_105_" overflow="visible"/></clipPath><g clip-path="url(#SVGID_106_)"><defs><path id="SVGID_107_" d="M-297.6-948.3h1434.7v3073.9H-297.6z"/></defs><clipPath id="SVGID_108_"><use xlink:href="#SVGID_107_" overflow="visible"/></clipPath><g clip-path="url(#SVGID_108_)"><path class="st2" d="M63.8 46.1h19.7V56H63.8z"/></g></g><defs><path id="SVGID_109_" d="M78.3 49.7h-.2c-.1 0-.1-.1 0-.2l2.4-1.6h.2c.1 0 .1.1 0 .2l-2.4 1.6c.1 0 0 0 0 0"/></defs><clipPath id="SVGID_110_"><use xlink:href="#SVGID_109_" overflow="visible"/></clipPath><g clip-path="url(#SVGID_110_)"><defs><path id="SVGID_111_" d="M-297.6-948.3h1434.7v3073.9H-297.6z"/></defs><clipPath id="SVGID_112_"><use xlink:href="#SVGID_111_" overflow="visible"/></clipPath><g clip-path="url(#SVGID_112_)"><path class="st2" d="M73.7 43.4h11.7v10.8H73.7z"/></g></g><defs><path id="SVGID_113_" d="M119.2 97.4H116c-.1 0-.2-.1-.2-.2s.1-.2.2-.2h3.2c.1 0 .2.1.2.2s-.1.2-.2.2"/></defs><clipPath id="SVGID_114_"><use xlink:href="#SVGID_113_" overflow="visible"/></clipPath><g clip-path="url(#SVGID_114_)"><defs><path id="SVGID_115_" d="M-297.6-948.3h1434.7v3073.9H-297.6z"/></defs><clipPath id="SVGID_116_"><use xlink:href="#SVGID_115_" overflow="visible"/></clipPath><g clip-path="url(#SVGID_116_)"><path class="st2" d="M111.3 92.6h12.6v9.3h-12.6z"/></g></g><defs><path id="SVGID_117_" d="M14.9 108c-.1 0-.1-.1-.1-.2.9-6.8.1-15.9-.8-25.5-.9-9.4-1.8-19.1-1-27.2 1.1-11.9 3.7-20.8 4.9-23.8 2-4.9 4.3-7.4 7-7.6 4.2-.2 12.6 1.9 16.3 3.3 1.7.7 4.4 1.7 4.8 4.2 0 .1 0 .2-.1.2s-.2 0-.2-.1c-.4-2.3-2.9-3.3-4.6-3.9-3.7-1.4-12-3.5-16.1-3.3-2.6.1-4.8 2.5-6.7 7.4-1.2 3-3.8 11.8-4.9 23.7-.7 8.1.2 17.7 1 27.1.9 9.7 1.7 18.8.8 25.6-.1 0-.2.1-.3.1"/></defs><clipPath id="SVGID_118_"><use xlink:href="#SVGID_117_" overflow="visible"/></clipPath><g clip-path="url(#SVGID_118_)"><defs><path id="SVGID_119_" d="M-297.6-948.3h1434.7v3073.9H-297.6z"/></defs><clipPath id="SVGID_120_"><use xlink:href="#SVGID_119_" overflow="visible"/></clipPath><g clip-path="url(#SVGID_120_)"><path class="st2" d="M8.2 19.2h42.1v93.3H8.2z"/></g></g><defs><path id="SVGID_121_" d="M18.5 108c-.1 0-.1-.1-.1-.2.6-7.3-.3-15.5-1.3-24.3S15 65.8 15.6 57.6c1.2-15.7 3.6-22.7 4.3-24.5 2-5 4.3-7.5 7-7.6 2.6-.1 8.7 1 12.6 2.2 2.8.9 4.4 1.9 4.7 3 0 .1 0 .2-.1.2s-.2 0-.2-.1c-.2-.7-1.1-1.7-4.5-2.8-3.9-1.2-9.9-2.3-12.4-2.2s-4.8 2.6-6.8 7.4c-.7 1.8-3.1 8.7-4.3 24.4-.6 8.2.4 17.2 1.5 25.9 1 8.7 2 17 1.3 24.4-.1 0-.1.1-.2.1"/></defs><clipPath id="SVGID_122_"><use xlink:href="#SVGID_121_" overflow="visible"/></clipPath><g clip-path="url(#SVGID_122_)"><defs><path id="SVGID_123_" d="M-297.6-948.3h1434.7v3073.9H-297.6z"/></defs><clipPath id="SVGID_124_"><use xlink:href="#SVGID_123_" overflow="visible"/></clipPath><g clip-path="url(#SVGID_124_)"><path class="st2" d="M10.9 21h37.7v91.5H10.9z"/></g></g><defs><path id="SVGID_125_" d="M24.1 108c-.1 0-.1-.1-.1-.2.5-8.1-1.1-21-2.4-31.4-.1-1-.3-2-.4-3-.9-6.6-1.6-12.3-1.1-19.2.4-3.8 1-7.5 1.7-11.2.2-.9.4-1.9.7-2.9.9-3.5 2-7.6 1.1-10 0-.1 0-.2.1-.2s.2 0 .2.1c.9 2.6-.1 6.6-1 10.2-.3 1-.5 2-.7 2.9-.8 3.7-1.4 7.4-1.7 11.1-.5 6.9.2 12.6 1.1 19.1.1 1 .3 1.9.4 3 1.3 10.4 3 23.3 2.4 31.4-.2.2-.2.3-.3.3"/></defs><clipPath id="SVGID_126_"><use xlink:href="#SVGID_125_" overflow="visible"/></clipPath><g clip-path="url(#SVGID_126_)"><defs><path id="SVGID_127_" d="M-297.6-948.3h1434.7v3073.9H-297.6z"/></defs><clipPath id="SVGID_128_"><use xlink:href="#SVGID_127_" overflow="visible"/></clipPath><g clip-path="url(#SVGID_128_)"><path class="st2" d="M15.4 25.5h13.5v87H15.4z"/></g></g><defs><path id="SVGID_129_" d="M24.9 86.4c-.1 0-.1-.1-.2-.1-.3-4.5-.8-8.9-1.6-13.3-.8-4.1-1.3-8.2-1.4-12.3-.1-6.3.7-12.5 2.2-18.6l.1-.2c.5-1.6 1.3-3.9 2.9-4.8.1 0 .2 0 .2.1v.2c-1.5.9-2.2 3-2.8 4.6l-.1.2c-1.5 6-2.2 12.2-2.2 18.5.1 4.1.6 8.2 1.4 12.3.8 4.4 1.4 8.8 1.6 13.3 0 .1 0 .2-.1.1 0 .1 0 .1 0 0"/></defs><clipPath id="SVGID_130_"><use xlink:href="#SVGID_129_" overflow="visible"/></clipPath><g clip-path="url(#SVGID_130_)"><defs><path id="SVGID_131_" d="M-297.6-948.3h1434.7v3073.9H-297.6z"/></defs><clipPath id="SVGID_132_"><use xlink:href="#SVGID_131_" overflow="visible"/></clipPath><g clip-path="url(#SVGID_132_)"><path class="st2" d="M17.2 32.6h14.3v58.3H17.2z"/></g></g><defs><path id="SVGID_133_" d="M35.3 64c-.1 0-.1-.1-.1-.2.1-1.5.2-3.1.2-4.2v-.3c.1-2.7.1-4.3.3-7.2v-.9c.2-3.6.2-6.2-.7-7-1.1-1-4.7-1.5-7.7-2-1-.1-2-.3-2.8-.4-.1 0-.1-.1-.1-.2s.1-.1.2-.1c.8.2 1.8.3 2.8.4 3.1.4 6.7 1 7.8 2 1 .9 1 3.5.8 7.2v.9c-.1 2.9-.2 4.5-.3 7.2v.3c0 1.1-.1 2.7-.2 4.2-.1.2-.1.3-.2.3"/></defs><clipPath id="SVGID_134_"><use xlink:href="#SVGID_133_" overflow="visible"/></clipPath><g clip-path="url(#SVGID_134_)"><defs><path id="SVGID_135_" d="M-297.6-948.3h1434.7v3073.9H-297.6z"/></defs><clipPath id="SVGID_136_"><use xlink:href="#SVGID_135_" overflow="visible"/></clipPath><g clip-path="url(#SVGID_136_)"><path class="st2" d="M19.9 37.1h20.6v31.4H19.9z"/></g></g><defs><path id="SVGID_137_" d="M28.5 71.2c-1.9 0-3.9-.2-5.8-.4-.1 0-.1-.1-.1-.2s.1-.2.2-.2c1.9.2 3.9.4 5.8.4 1.5.1 2.9 0 4.4-.4 1.2-.5 1.8-2 1.9-5.4 0-.1.1-.2.2-.2s.1.1.1.2c-.1 3-.5 5.1-2.1 5.7-1.6.5-3.1.6-4.6.5"/></defs><clipPath id="SVGID_138_"><use xlink:href="#SVGID_137_" overflow="visible"/></clipPath><g clip-path="url(#SVGID_138_)"><defs><path id="SVGID_139_" d="M-297.6-948.3h1434.7v3073.9H-297.6z"/></defs><clipPath id="SVGID_140_"><use xlink:href="#SVGID_139_" overflow="visible"/></clipPath><g clip-path="url(#SVGID_140_)"><path class="st2" d="M18.1 60.4h21.5v15.2H18.1z"/></g></g><defs><path id="SVGID_141_" d="M39.8 58.6c-.1 0-.1-.1-.1-.1v-.7c.3-4.9.6-10.5.5-13.3-.1-3.3-3-3.8-5.4-4.2h-.1c-3.7-.7-7.5-1.2-7.5-1.2-.1 0-.1-.1-.1-.2s.1-.1.2-.1c0 0 3.8.5 7.5 1.2h.1c2.3.4 5.5 1 5.6 4.5.1 2.7-.2 8.1-.4 13.3v.6c-.1.2-.2.3-.3.2"/></defs><clipPath id="SVGID_142_"><use xlink:href="#SVGID_141_" overflow="visible"/></clipPath><g clip-path="url(#SVGID_142_)"><defs><path id="SVGID_143_" d="M-297.6-948.3h1434.7v3073.9H-297.6z"/></defs><clipPath id="SVGID_144_"><use xlink:href="#SVGID_143_" overflow="visible"/></clipPath><g clip-path="url(#SVGID_144_)"><path class="st2" d="M22.6 34.4H45v28.7H22.6z"/></g></g><defs><path id="SVGID_145_" d="M30.6 58.8s.2-1.1.3-1.4c.4-1.5.8-3.2 1.2-4.7.9-3.4 3.1-6.4 6.1-8.2 3.1-1.5 6.3-2.7 9.7-3.6 1.6-.4 6.6-2 6.6-2l3 2.8c1.4.4 2.7.7 4.2.8 2.1 0 4.2-.3 6.2-1.1 1.1-.4 2.1-.8 3.1-1.3 0 0 3.3 1.6 5.6 2.5 1.9.7 6 1.9 8.5 3.3 1.3.7 3.2 3.2 3.9 4.2 1 1.6 3.1 8.5 4.6 14.5.8 3.3 2.1 7.2 2.5 9s1.8 7.4 2.1 9.2c.3 1.8 1 4.4.2 6.5-.5 1.4-1.6 2.4-3.1 2.7-2 .6-4.2.8-6.3.5-1-.2-3.1-.4-3.6-1.6-.8-1.8 1.5-3.8 1.1-5.7-.2-.8-1.1-1.6-.9-2.5 0-.3 0-1 .5-1s2.2.1 2.2.1-.5-1.9-.6-2.2c-.7-1.7-1.5-3.5-2.4-5.1-.7-1.4-1.3-2.8-1.8-4.2l-.7-2.2s-.3 1.3-.4 1.6C81.9 71.4 81 75 81 75c-.4 1.4-.8 2.9-1.3 4.3-.2.4.4 2 0 2.2-.4.1-.9.2-1.3.1-1 0-2 .1-3 0-9.1-.7-18-1.3-26.8-4.4-4.5-1.6-9-3.5-12.3-7.1-.8-.9-1.5-1.8-2.2-2.7-1.6-2.1-2.8-4.5-3.5-7 .1-.5 0-1 0-1.6"/></defs><clipPath id="SVGID_146_"><use xlink:href="#SVGID_145_" overflow="visible"/></clipPath><g clip-path="url(#SVGID_146_)"><defs><path id="SVGID_147_" d="M-297.6-948.3h1434.7v3073.9H-297.6z"/></defs><clipPath id="SVGID_148_"><use xlink:href="#SVGID_147_" overflow="visible"/></clipPath><g clip-path="url(#SVGID_148_)"><path class="st75" d="M26.1 34.4h77.1v62.8H26.1z"/></g></g><g><defs><path id="SVGID_149_" d="M21.3 79.3c-.5-.3-.9 1.1-1.1 1.5-.2.3-1.2 3-1.2 3l2.2-.8c-.1-.1 1-3.1.1-3.7"/></defs><clipPath id="SVGID_150_"><use xlink:href="#SVGID_149_" overflow="visible"/></clipPath><g clip-path="url(#SVGID_150_)"><defs><path id="SVGID_151_" d="M-297.6-948.3h1434.7v3073.9H-297.6z"/></defs><clipPath id="SVGID_152_"><use xlink:href="#SVGID_151_" overflow="visible"/></clipPath><g clip-path="url(#SVGID_152_)"><path class="st78" d="M14.5 74.8h11.7v13.5H14.5z"/></g></g></g><g><defs><path id="SVGID_153_" d="M85.4 82.9c1.2.2 2.3 1 2.8 2.2.7 1.4.9 3.1.6 4.6-.2.7-.6 1.4-1.3 1.8-.5.2-1.1.4-1.7.4l-3.1-2.3c.6-1 1-2.1 1.4-3.3.1-.9.2-3.6 1.3-3.4"/></defs><clipPath id="SVGID_154_"><use xlink:href="#SVGID_153_" overflow="visible"/></clipPath><g clip-path="url(#SVGID_154_)"><defs><path id="SVGID_155_" d="M-297.6-948.3h1434.7v3073.9H-297.6z"/></defs><clipPath id="SVGID_156_"><use xlink:href="#SVGID_155_" overflow="visible"/></clipPath><g clip-path="url(#SVGID_156_)"><path class="st78" d="M78.1 78.4h15.2v17.9H78.1z"/></g></g></g><g><defs><path id="SVGID_157_" d="M55.6 39.2c.3.7.6 1.3 1.1 1.9.6.6 1.4 1.1 2.2 1.4.8.4 1.8.7 2.7.8 1.2.1 4.3.4 6.8-.8 1.1-.6 2.1-1.3 3-2.1 0 0-1.5-1.4-1.6-2.4-.1-1.3 0-2.6.2-3.9.2-1 .4-2 .7-3 .3-1 .7-1.1.7-1.1 1-.4 1.7-1.2 2.1-2.2.1-.6.1-1.2 0-1.8-.2-.5-1.5-1.3-1.9-1.7-1-1-.8-2.9-2-3.9-1.4-1.1-3-1.8-4.7-2.1-1.7-.4-3.5-.1-5 .9-2 1.2-5 5.6-5 5.6-.7.3-1.2 1-1.1 1.8.1.7.4 1.4.9 2 .3.4.8.6 1.3.6l1.5 5.7c0 .8 0 1.6-.2 2.4-.3.8-.9 1.5-1.7 1.9"/></defs><clipPath id="SVGID_158_"><use xlink:href="#SVGID_157_" overflow="visible"/></clipPath><g clip-path="url(#SVGID_158_)"><defs><path id="SVGID_159_" d="M-297.6-948.3h1434.7v3073.9H-297.6z"/></defs><clipPath id="SVGID_160_"><use xlink:href="#SVGID_159_" overflow="visible"/></clipPath><g clip-path="url(#SVGID_160_)"><path class="st78" d="M49.5 13.8h28.7v34.1H49.5z"/></g></g></g><g><defs><path id="SVGID_161_" d="M69.8 29.9c-.7 0-1.5-.1-2.2-.2-.9-.1-1.8-.4-2.6-.7-.9-.6-1.9-.8-2.9-.8-1.1.2-2 1-3.1 1.2-1.3.2-2.6.2-3.9.2-.2.5-.3 1-.2 1.6.1.6.3 1.1.5 1.6 0 .8.1 1.5.3 2.2.9 1 1.9 1.8 3 2.4 1 .8 2.2 1.3 3.5 1.6 1.5.2 2.8-.6 4.3-1.5 1.4-.9 3.6-2.7 3.6-3.7.1-.8.1-1.6-.2-2.4-.1-.5-.2-1-.1-1.5"/></defs><clipPath id="SVGID_162_"><use xlink:href="#SVGID_161_" overflow="visible"/></clipPath><g clip-path="url(#SVGID_162_)"><defs><path id="SVGID_163_" d="M-297.6-948.3h1434.7v3073.9H-297.6z"/></defs><clipPath id="SVGID_164_"><use xlink:href="#SVGID_163_" overflow="visible"/></clipPath><g clip-path="url(#SVGID_164_)"><path class="st75" d="M50.3 23.7h24.2v19.7H50.3z"/></g></g></g><g><defs><path id="SVGID_165_" d="M37.8 110.1c0-1 0-2 .1-3.1.2-2 .8-5 .9-6.1.3-3.8.2-4.7.6-8.5.3-2.2.8-4.4 1.1-6.6.3-3 .6-6 1.2-9 .6-3.4 1.7-6.9 2.2-10.3.4-2.7 1.1-7.1 1.1-7.1l-.6-11.7.1-4.9c.5-.4 1-.7 1.6-1 .6-.2 1.3-.3 2-.3 0 0 .1 3.9.1 4.3.2 4.5 1 13.5 1 13.5.6.4 1.1.9 1.6 1.4 2.1 2.1 5.7 2.1 8.4 2.5 1.8.3 3.6.5 5.4.6 1.3.1 2.6.2 4 .1.7-.1 1.4-.4 2-.8 3.2-1.6 3.5-3 3.5-3s1-8.2 1.1-9.3c.1-1.3 1.3-7.7 1.3-7.7.5-.1 1.1-.1 1.6 0 .7.2 1.3.4 1.9.8l-.8 4.1-1.3 12.5c.4.6.6 1.3.6 2.1.2 1.4.6 2.7 1.2 4 .9 2.1.8 5.5 1.1 7.7.2 1.1.3 2.2.2 3.3-.3 5.2-.7 11.1-.1 16.3.4 3.4 1.1 4.9 1.6 8.3.1.7.6 2.9.8 4.6l.3 3.3s-3.1 1.4-9.1.8c-4.1-.4-8.3-1-12.6-.6-4.7.5-9.3 1.8-14.1 1.2-2.4-.3-4.9-1.1-7.3-1.4-.9-.1-1.8-.1-2.7 0"/></defs><clipPath id="SVGID_166_"><use xlink:href="#SVGID_165_" overflow="visible"/></clipPath><g clip-path="url(#SVGID_166_)"><defs><path id="SVGID_167_" d="M-297.6-948.3h1434.7v3073.9H-297.6z"/></defs><clipPath id="SVGID_168_"><use xlink:href="#SVGID_167_" overflow="visible"/></clipPath><g clip-path="url(#SVGID_168_)"><path class="st87" d="M33.3 37.1H88V116H33.3z"/></g></g></g><g><defs><path id="SVGID_169_" d="m21.8 60.2.5-.8 1-.3 36.5-.5 4.1.2 15.3 1.1 1.2.3.4.9-.2 33-.6.9-15.9 1.3-42.4-1.1z"/></defs><clipPath id="SVGID_170_"><use xlink:href="#SVGID_169_" overflow="visible"/></clipPath><g clip-path="url(#SVGID_170_)"><defs><path id="SVGID_171_" d="M-297.6-948.3h1434.7v3073.9H-297.6z"/></defs><clipPath id="SVGID_172_"><use xlink:href="#SVGID_171_" overflow="visible"/></clipPath><g clip-path="url(#SVGID_172_)"><path fill="#e1cfbb" d="M17.2 54.2h68.1v46.6H17.2z"/></g></g></g><g><defs><path id="SVGID_173_" d="M85.1 82.6c-.1-.6-.3-1.2-.7-1.6.1-.7.1-1.5-.1-2.3-.3-.7-.7-1.4-1.2-2.1-.4-.8-.9-1.5-1.5-2.1-.6-.4-1.2-.8-1.8-1.1-.7-.3-1.4-.4-2.1-.5-.3.5-.3 1.1.1 1.5.6.5 1.3 1 2 1.5.3.3.6.6.9 1v1.3c-.3-.1-.6-.1-1-.1-1.1 0-2.1-.4-3.1-.3-.5 0-1.3.1-1 .9.1.5.4.9.9 1 1.4.6 2.8 1 4.2 1.4l-.1 2.1c-.9.1-1.8.2-2.7.4-.3.1-1.5.3-1.8.4-.3.2-.5.4-.7.7-.7 1.4 2.6 1.1 3.1 1l2.1-.1v1.7s-1.1.6-1.2.6c-.7.2-3.7.7-2.7 1.8.5.5 2.6.1 3.2.1.8-.2 1.6-.4 2.3-.7 0 0 1.4.2 1.6-.2.7-1.1 1.2-2.3 1.4-3.6.2-.9.1-1.8-.1-2.7"/></defs><clipPath id="SVGID_174_"><use xlink:href="#SVGID_173_" overflow="visible"/></clipPath><g clip-path="url(#SVGID_174_)"><defs><path id="SVGID_175_" d="M-297.6-948.3h1434.7v3073.9H-297.6z"/></defs><clipPath id="SVGID_176_"><use xlink:href="#SVGID_175_" overflow="visible"/></clipPath><g clip-path="url(#SVGID_176_)"><path class="st93" d="M71 68.5h18.8v26H71z"/></g></g></g><g><defs><path id="SVGID_177_" d="M22.3 82.9c-.8.2-1.6.5-2.2 1.1-.4.5-.5 1.2-.3 1.8-.4.3-.8.8-.9 1.4.1.7.3 1.4.7 2 0 0-.2 1.7-.2 2.1-.1 2-.4 4 .9 5.7.6.8 2.1 1 3 1.1 2.4.3 4.8 0 7-.8.9-.2 1.7-.9 2.1-1.7l-2.3-.2-1.2-.6c-1.5-.3-3.6.5-5.2.3-.6-.1-1.1-.5-1.4-1v-2.2c.5 0 1-.5 1-1-.2-.9-.5-1.9-1-2.7v-5.3z"/></defs><clipPath id="SVGID_178_"><use xlink:href="#SVGID_177_" overflow="visible"/></clipPath><g clip-path="url(#SVGID_178_)"><defs><path id="SVGID_179_" d="M-297.6-948.3h1434.7v3073.9H-297.6z"/></defs><clipPath id="SVGID_180_"><use xlink:href="#SVGID_179_" overflow="visible"/></clipPath><g clip-path="url(#SVGID_180_)"><path class="st93" d="M14.5 78.4h22.4v24.2H14.5z"/></g></g></g><g><defs><path id="SVGID_181_" d="m36 59.7.2 10s-.3 3.3.4 4.7c.1.2 1-1 1.2-.8.3.5.5 1 .6 1.5.2.4.4.5.6.5.5-.2 1.2-.9 1.6-.8.5.3.9.6 1.3.9.4.3.5-1.2 1.2-1 .9.3 1.1 1.6 1.2.9.2-1.6.3-3.2.3-4.9V59.8l14.8-1.2-9.7.1-13.7 1z"/></defs><clipPath id="SVGID_182_"><use xlink:href="#SVGID_181_" overflow="visible"/></clipPath><g clip-path="url(#SVGID_182_)"><defs><path id="SVGID_183_" d="M-297.6-948.3h1434.7v3073.9H-297.6z"/></defs><clipPath id="SVGID_184_"><use xlink:href="#SVGID_183_" overflow="visible"/></clipPath><g clip-path="url(#SVGID_184_)"><path class="st98" d="M31.5 54.2h32.3v26H31.5z"/></g></g></g><g><defs><path id="SVGID_185_" d="M37 95.2s-.1-4.9-.1-6.6c.1-1.8 0-6.3.3-6.5s.8 1.5 1 1.8c.3.4.5-.9 1-.7.2.1.7 1.5 1.2 1.7.3.2.9-1.1 1.1-1.4.1-.1.3 0 .4.3.3.6.5 1.7.8 1.7.5 0 .6-1.1.9-1.3.2-.2.4.3.5 1.3.1 1.8-.1 6-.1 6l-.1 4-6.9-.3z"/></defs><clipPath id="SVGID_186_"><use xlink:href="#SVGID_185_" overflow="visible"/></clipPath><g clip-path="url(#SVGID_186_)"><defs><path id="SVGID_187_" d="M-297.6-948.3h1434.7v3073.9H-297.6z"/></defs><clipPath id="SVGID_188_"><use xlink:href="#SVGID_187_" overflow="visible"/></clipPath><g clip-path="url(#SVGID_188_)"><path class="st98" d="M32.4 77.5h16.1v22.4H32.4z"/></g></g></g><g><defs><path id="SVGID_189_" d="M73.9 19.5c.2.4.3.8.5 1.2.1.5.2.9.2 1.4.1 1.5-2.2.3-3.6-.2-1-.4-2.1-.9-2.9-1.1-1.1-.5-2.2-.8-3.3-1-2.8-.3-6.2.7-9 1.3-1.2.3-2.4.6-3.6.8-.5-.5 1-2.4 1-2.4 0-1.4 0-2.8.2-4.2 1.4-4.4 6.3-7.3 10.8-6.8 4.5.4 8.2 3.5 9.6 7.7.3 1.1.3 2.2.1 3.3"/></defs><clipPath id="SVGID_190_"><use xlink:href="#SVGID_189_" overflow="visible"/></clipPath><g clip-path="url(#SVGID_190_)"><defs><path id="SVGID_191_" d="M-297.6-948.3h1434.7v3073.9H-297.6z"/></defs><clipPath id="SVGID_192_"><use xlink:href="#SVGID_191_" overflow="visible"/></clipPath><g clip-path="url(#SVGID_192_)"><path class="st87" d="M47.7 3.9h31.4v23.3H47.7z"/></g></g></g><g><defs><path id="SVGID_193_" d="m53 21.7.5 3.7s-.1-.1.3 0c.5.1 1.1-.2 1.3-.7.4-.7 1-2.3 1-2.3.8-.1 1.6-.5 2.2-1.1.1-.1 1.2-1.1 1-1.2-.2-.2-2.4.6-3.2.8-.7.1-1.4.3-2 .6-.3.1-1.1 0-1.1.2"/></defs><clipPath id="SVGID_194_"><use xlink:href="#SVGID_193_" overflow="visible"/></clipPath><g clip-path="url(#SVGID_194_)"><defs><path id="SVGID_195_" d="M-297.6-948.3h1434.7v3073.9H-297.6z"/></defs><clipPath id="SVGID_196_"><use xlink:href="#SVGID_195_" overflow="visible"/></clipPath><g clip-path="url(#SVGID_196_)"><path class="st105" d="M48.6 15.6h15.2v14.3H48.6z"/></g></g></g><g><defs><path id="SVGID_197_" d="M69.2 21c.2.8.4 1.5.6 2.3.3.8.7 1.5 1.4 2.1.3.3 1.1.1 1.1.1l.5-2.9s-1.4-.6-2-.9c-.2-.2-1.6-.7-1.6-.7"/></defs><clipPath id="SVGID_198_"><use xlink:href="#SVGID_197_" overflow="visible"/></clipPath><g clip-path="url(#SVGID_198_)"><defs><path id="SVGID_199_" d="M-297.6-948.3h1434.7v3073.9H-297.6z"/></defs><clipPath id="SVGID_200_"><use xlink:href="#SVGID_199_" overflow="visible"/></clipPath><g clip-path="url(#SVGID_200_)"><path class="st105" d="M64.7 16.5h12.6V30H64.7z"/></g></g></g><g><defs><path id="SVGID_201_" d="M71.2 30.8c-.1 0-.2-.1-.2-.1 0-.1 0-.2.1-.3 1.1-.4 2-1.4 2.1-2.6.1-.5 0-1.1-.3-1.5-.3-.3-.6-.5-1-.5-.1 0-.2-.1-.2-.2s.1-.2.2-.2c.5 0 1 .2 1.4.6.4.5.5 1.2.4 1.8-.2 1.4-1.2 2.6-2.5 3"/></defs><clipPath id="SVGID_202_"><use xlink:href="#SVGID_201_" overflow="visible"/></clipPath><g clip-path="url(#SVGID_202_)"><defs><path id="SVGID_203_" d="M-297.6-948.3h1434.7v3073.9H-297.6z"/></defs><clipPath id="SVGID_204_"><use xlink:href="#SVGID_203_" overflow="visible"/></clipPath><g clip-path="url(#SVGID_204_)"><path class="st110" d="M66.5 21h11.7v14.3H66.5z"/></g></g></g><g><defs><path id="SVGID_205_" d="M55.5 30c-1.1-.1-2-.8-2.3-1.8-.4-.8-.2-1.8.5-2.4.4-.2.9-.3 1.3-.1.1 0 .1.1.1.2-.1.1-.2.1-.3.1-.2-.1-.5-.1-.8 0-.5.6-.6 1.4-.3 2 .3.9 1 1.5 1.9 1.6.1 0 .2.1.2.2-.1.1-.2.2-.3.2"/></defs><clipPath id="SVGID_206_"><use xlink:href="#SVGID_205_" overflow="visible"/></clipPath><g clip-path="url(#SVGID_206_)"><defs><path id="SVGID_207_" d="M-297.6-948.3h1434.7v3073.9H-297.6z"/></defs><clipPath id="SVGID_208_"><use xlink:href="#SVGID_207_" overflow="visible"/></clipPath><g clip-path="url(#SVGID_208_)"><path class="st110" d="M48.6 21h11.7v13.5H48.6z"/></g></g></g><g><defs><path id="SVGID_209_" d="M71.1 28.2c-.1-.1-.1-.2-.1-.2.2-.3.4-.5.7-.7.1 0 .2 0 .2.1s0 .2-.1.2c-.2.1-.4.3-.5.6h-.2"/></defs><clipPath id="SVGID_210_"><use xlink:href="#SVGID_209_" overflow="visible"/></clipPath><g clip-path="url(#SVGID_210_)"><defs><path id="SVGID_211_" d="M-297.6-948.3h1434.7v3073.9H-297.6z"/></defs><clipPath id="SVGID_212_"><use xlink:href="#SVGID_211_" overflow="visible"/></clipPath><g clip-path="url(#SVGID_212_)"><path class="st110" d="M66.5 22.8h9.9v9.9h-9.9z"/></g></g></g><g><defs><path id="SVGID_213_" d="M70.3 32.6c-.2 0-.3-.1-.2-.2.1-.2.3-.4.4-.6 0-.1.2-.1.3-.1.1 0 .2.1.2.2-.1.2-.2.5-.4.7-.1 0-.2.1-.3 0"/></defs><clipPath id="SVGID_214_"><use xlink:href="#SVGID_213_" overflow="visible"/></clipPath><g clip-path="url(#SVGID_214_)"><defs><path id="SVGID_215_" d="M-297.6-948.3h1434.7v3073.9H-297.6z"/></defs><clipPath id="SVGID_216_"><use xlink:href="#SVGID_215_" overflow="visible"/></clipPath><g clip-path="url(#SVGID_216_)"><path class="st110" d="M65.6 27.3h9.9v9.9h-9.9z"/></g></g></g><g><defs><path id="SVGID_217_" d="M55.5 29.1c-.1 0-.2 0-.3-.1-.1-.5-.2-.9-.3-1.5 0-.1.1-.2.2-.2s.3.1.3.2c.1.5.2 1 .3 1.4l-.2.2"/></defs><clipPath id="SVGID_218_"><use xlink:href="#SVGID_217_" overflow="visible"/></clipPath><g clip-path="url(#SVGID_218_)"><defs><path id="SVGID_219_" d="M-297.6-948.3h1434.7v3073.9H-297.6z"/></defs><clipPath id="SVGID_220_"><use xlink:href="#SVGID_219_" overflow="visible"/></clipPath><g clip-path="url(#SVGID_220_)"><path class="st110" d="M50.3 22.8h9.9v10.8h-9.9z"/></g></g></g><g><defs><path id="SVGID_221_" d="M63.3 27.3c-.3 0-.4-.1-.4-.1.1-.2.2-.4 0-.6-.2-.2 0-.1.2-.2.2 0 .3 0 .5.1.3.2.2.5.1.7 0 0-.2.1-.4.1"/></defs><clipPath id="SVGID_222_"><use xlink:href="#SVGID_221_" overflow="visible"/></clipPath><g clip-path="url(#SVGID_222_)"><defs><path id="SVGID_223_" d="M-297.6-948.3h1434.7v3073.9H-297.6z"/></defs><clipPath id="SVGID_224_"><use xlink:href="#SVGID_223_" overflow="visible"/></clipPath><g clip-path="url(#SVGID_224_)"><path class="st110" d="M58.4 21.9h9.9v9.9h-9.9z"/></g></g></g><g><defs><path id="SVGID_225_" d="M67.4 26.8c0-.2-.2-.4-.5-.4-.2 0-.4.2-.4.4s.2.4.5.4c.2.1.4-.1.4-.4"/></defs><clipPath id="SVGID_226_"><use xlink:href="#SVGID_225_" overflow="visible"/></clipPath><g clip-path="url(#SVGID_226_)"><defs><path id="SVGID_227_" d="M-297.6-948.3h1434.7v3073.9H-297.6z"/></defs><clipPath id="SVGID_228_"><use xlink:href="#SVGID_227_" overflow="visible"/></clipPath><g clip-path="url(#SVGID_228_)"><path class="st110" d="M62 21.9h9.9v9.9H62z"/></g></g></g><g><defs><path id="SVGID_229_" d="M69 24.6h-.1c-.9-.5-2-.5-3-.1-.1 0-.2 0-.3-.1 0-.1 0-.2.1-.3 1.1-.5 2.3-.4 3.4.2.1.1.1.2.1.3H69"/></defs><clipPath id="SVGID_230_"><use xlink:href="#SVGID_229_" overflow="visible"/></clipPath><g clip-path="url(#SVGID_230_)"><defs><path id="SVGID_231_" d="M-297.6-948.3h1434.7v3073.9H-297.6z"/></defs><clipPath id="SVGID_232_"><use xlink:href="#SVGID_231_" overflow="visible"/></clipPath><g clip-path="url(#SVGID_232_)"><path class="st110" d="M61.1 19.2h12.6v9.9H61.1z"/></g></g></g><g><defs><path id="SVGID_233_" d="M60.9 24.6h-.1c-.9-.5-1.9-.5-2.9-.1-.1.1-.2.1-.3 0-.1-.1-.1-.2 0-.3.7-.6 2.5-.5 3.4 0 .1.1.2.2.1.3-.1.1-.2.1-.2.1"/></defs><clipPath id="SVGID_234_"><use xlink:href="#SVGID_233_" overflow="visible"/></clipPath><g clip-path="url(#SVGID_234_)"><defs><path id="SVGID_235_" d="M-297.6-948.3h1434.7v3073.9H-297.6z"/></defs><clipPath id="SVGID_236_"><use xlink:href="#SVGID_235_" overflow="visible"/></clipPath><g clip-path="url(#SVGID_236_)"><path class="st110" d="M53 19.2h12.6v9.9H53z"/></g></g></g><g><defs><path id="SVGID_237_" d="M55.7 22.8c-.2 0-.5 0-.7-.1-.1 0-.2-.1-.2-.2s.1-.2.2-.2c1.8.4 3-.9 3.9-2.1.1-.1.2-.1.3 0 .1.1.1.2 0 .3-.9 1.2-2 2.3-3.5 2.3"/></defs><clipPath id="SVGID_238_"><use xlink:href="#SVGID_237_" overflow="visible"/></clipPath><g clip-path="url(#SVGID_238_)"><defs><path id="SVGID_239_" d="M-297.6-948.3h1434.7v3073.9H-297.6z"/></defs><clipPath id="SVGID_240_"><use xlink:href="#SVGID_239_" overflow="visible"/></clipPath><g clip-path="url(#SVGID_240_)"><path class="st110" d="M50.3 15.6h13.5v11.7H50.3z"/></g></g></g><g><defs><path id="SVGID_241_" d="M73 26.4c-.1 0-.2-.1-.2-.3.1-.4.2-.8.2-1.2.2-.6.2-1.3.3-1.9 0-.1.1-.2.2-.2s.2.1.2.2c0 .7-.1 1.4-.3 2-.1.4-.2.8-.2 1.2 0 .1-.1.2-.2.2"/></defs><clipPath id="SVGID_242_"><use xlink:href="#SVGID_241_" overflow="visible"/></clipPath><g clip-path="url(#SVGID_242_)"><defs><path id="SVGID_243_" d="M-297.6-948.3h1434.7v3073.9H-297.6z"/></defs><clipPath id="SVGID_244_"><use xlink:href="#SVGID_243_" overflow="visible"/></clipPath><g clip-path="url(#SVGID_244_)"><path class="st110" d="M68.3 18.3h9.9v12.6h-9.9z"/></g></g></g><g><defs><path id="SVGID_245_" d="M53.7 24.6c-.1 0-.2-.1-.3-.2-.2-1.1-.3-2.1-.4-3.2 0-.1.1-.2.3-.2s.3.1.3.2c0 1.1.1 2.1.3 3.2 0 .1-.1.2-.2.2"/></defs><clipPath id="SVGID_246_"><use xlink:href="#SVGID_245_" overflow="visible"/></clipPath><g clip-path="url(#SVGID_246_)"><defs><path id="SVGID_247_" d="M-297.6-948.3h1434.7v3073.9H-297.6z"/></defs><clipPath id="SVGID_248_"><use xlink:href="#SVGID_247_" overflow="visible"/></clipPath><g clip-path="url(#SVGID_248_)"><path class="st110" d="M48.6 16.5h9.9v12.6h-9.9z"/></g></g></g><g><defs><path id="SVGID_249_" d="M59.3 26.8c0-.2-.2-.4-.5-.4-.2 0-.4.2-.4.4s.2.4.5.4c.2.1.4-.1.4-.4"/></defs><clipPath id="SVGID_250_"><use xlink:href="#SVGID_249_" overflow="visible"/></clipPath><g clip-path="url(#SVGID_250_)"><defs><path id="SVGID_251_" d="M-297.6-948.3h1434.7v3073.9H-297.6z"/></defs><clipPath id="SVGID_252_"><use xlink:href="#SVGID_251_" overflow="visible"/></clipPath><g clip-path="url(#SVGID_252_)"><path class="st110" d="M53.9 21.9h9.9v9.9h-9.9z"/></g></g></g><g><defs><path id="SVGID_253_" d="M71.7 24.6c-1.4-.1-1.9-1.5-2.3-2.9-.1-.2-.1-.3-.2-.5 0-.1 0-.2.1-.2s.2 0 .2.1c.1.2.1.3.2.5.4 1.3.9 2.6 2 2.6.1 0 .2.1.2.2s-.1.2-.2.2"/></defs><clipPath id="SVGID_254_"><use xlink:href="#SVGID_253_" overflow="visible"/></clipPath><g clip-path="url(#SVGID_254_)"><defs><path id="SVGID_255_" d="M-297.6-948.3h1434.7v3073.9H-297.6z"/></defs><clipPath id="SVGID_256_"><use xlink:href="#SVGID_255_" overflow="visible"/></clipPath><g clip-path="url(#SVGID_256_)"><path class="st110" d="M64.7 16.5h11.7v12.6H64.7z"/></g></g></g><g><defs><path id="SVGID_257_" d="M55 25.5c-.1 0-.2-.1-.2-.2s.1-.2.2-.2c.7 0 1.1-.8 1.2-1.2 0-.1.1-.2.2-.2s.2.1.2.2c-.1.5-.6 1.5-1.6 1.6"/></defs><clipPath id="SVGID_258_"><use xlink:href="#SVGID_257_" overflow="visible"/></clipPath><g clip-path="url(#SVGID_258_)"><defs><path id="SVGID_259_" d="M-297.6-948.3h1434.7v3073.9H-297.6z"/></defs><clipPath id="SVGID_260_"><use xlink:href="#SVGID_259_" overflow="visible"/></clipPath><g clip-path="url(#SVGID_260_)"><path class="st110" d="M50.3 19.2h10.8V30H50.3z"/></g></g></g><g><defs><path id="SVGID_261_" d="M85 81.1c-.1 0-.2-.1-.1-.2.3-1.4-.1-2.8-1-3.9l-.2-.2c-.2-.3-.3-.5-.4-.7-.3-.6-.8-1.1-1.3-1.5-.5-.3-.9-.5-1.4-.7l-.1-.1c-.4-.2-.8-.3-1.2-.4-.4-.1-.6 0-.6.1-.1.1-.1.3 0 .4.1.7.9 1.2 1.7 1.6.3.2.5.3.7.5.6.5 1.1 1.2 1.4 2l.2.4c.1.1 0 .2-.1.3-.1.1-.2 0-.2-.1l-.2-.4c-.3-.7-.7-1.3-1.3-1.8-.2-.2-.5-.3-.7-.4-.8-.5-1.7-1-1.8-1.9-.1-.3 0-.5.1-.7.2-.2.5-.3 1-.2.4.1.9.2 1.3.4l.1.1c.4.2.9.4 1.4.7.6.4 1.1.9 1.4 1.6.1.2.3.5.4.7l.2.2c1 1.1 1.4 2.7 1.1 4.2-.2-.1-.3 0-.4 0"/></defs><clipPath id="SVGID_262_"><use xlink:href="#SVGID_261_" overflow="visible"/></clipPath><g clip-path="url(#SVGID_262_)"><defs><path id="SVGID_263_" d="M-297.6-948.3h1434.7v3073.9H-297.6z"/></defs><clipPath id="SVGID_264_"><use xlink:href="#SVGID_263_" overflow="visible"/></clipPath><g clip-path="url(#SVGID_264_)"><path class="st110" d="M73.7 68.5h16.1v17H73.7z"/></g></g></g><g><defs><path id="SVGID_265_" d="M82.6 83.8c-.2 0-.2-.1-.2-.2.1-.2.1-.4 0-.5-.3-.5-.8-.9-1.4-1-.7-.2-1.4-.5-2.2-.6-.7-.2-1.4-.3-2.1-.6-.6-.2-1.4-.7-1.3-1.4 0-.3.1-.5.3-.7.4-.3 1.2-.2 2.2-.1l.5.1c.3 0 .6.1.9.1 1.8 0 3.5.6 5 1.6.1 0 .1.2.1.3 0 .1-.2.1-.3.1H84c-1.4-1-3.1-1.5-4.8-1.5-.3 0-.7 0-1-.1l-.5-.1c-.8-.1-1.6-.2-1.8 0-.1.1-.2.3-.2.4 0 .4.5.9 1.1 1 .7.2 1.3.4 2 .6.7.2 1.5.4 2.2.6.7.2 1.3.6 1.6 1.2.1.3.1.6 0 .9.2-.2.1-.1 0-.1"/></defs><clipPath id="SVGID_266_"><use xlink:href="#SVGID_265_" overflow="visible"/></clipPath><g clip-path="url(#SVGID_266_)"><defs><path id="SVGID_267_" d="M-297.6-948.3h1434.7v3073.9H-297.6z"/></defs><clipPath id="SVGID_268_"><use xlink:href="#SVGID_267_" overflow="visible"/></clipPath><g clip-path="url(#SVGID_268_)"><path class="st110" d="M71 73.9h17.9v14.3H71z"/></g></g></g><g><defs><path id="SVGID_269_" d="M77.9 90.9c-.6 0-1-.1-1.2-.7-.1-.2 0-.4.1-.5.3-.5 1.3-.7 2.3-1l.3-.1c.6-.1 1.3-.3 1.8-.7h.1c.4-.3.8-.5.9-1v-.1c-.4-.2-.9-.3-1.3-.3h-.6c-1.2.1-2.3.1-3.5 0-.6-.1-1.3-.4-1.3-1s.6-1 1.8-1.3c.8-.2 1.6-.3 2.3-.4l1.8-.3c.8-.2 1.7-.2 2.6-.2.1 0 .2.1.1.2 0 .1-.1.2-.2.1-.8-.1-1.6 0-2.4.2l-1.8.3c-.8.1-1.6.2-2.3.4-.9.2-1.5.5-1.5.9s.6.5.9.6c1.1.1 2.3.1 3.4 0h.6s1.2-.1 1.6.4c.1.1.1.3.1.4-.1.6-.6.9-1.1 1.2h-.1c-.6.4-1.2.6-1.9.7l-.3.1c-.9.2-1.8.4-2 .8v.2c.1.4.6.4 1.3.4h.6c.8 0 1.5-.1 2.3-.3l.3-.1c.9-.3 1.8-.8 2.4-1.6.2-.3.2-.7.1-1-.1-.3-.1-.6 0-.9.1-.3.3-.6.5-.9.2-.2.3-.4.4-.7 0-.3 0-.7-.1-1-.1-.3-.2-.6-.2-.9 0-.1.1-.2.2-.2s.2.1.2.2c0 .3.1.5.2.8.2.4.2.8.1 1.2-.1.3-.3.6-.5.8-.2.2-.3.5-.4.7v.8c.1.5 0 .9-.2 1.3-.6.8-1.5 1.4-2.5 1.7l-.3.1c-.8.3-1.6.4-2.4.4h-1.2"/></defs><clipPath id="SVGID_270_"><use xlink:href="#SVGID_269_" overflow="visible"/></clipPath><g clip-path="url(#SVGID_270_)"><defs><path id="SVGID_271_" d="M-297.6-948.3h1434.7v3073.9H-297.6z"/></defs><clipPath id="SVGID_272_"><use xlink:href="#SVGID_271_" overflow="visible"/></clipPath><g clip-path="url(#SVGID_272_)"><path class="st110" d="M71 78.4h18.8v17H71z"/></g></g></g><g><defs><path id="SVGID_273_" d="M21.7 91.8c-.2 0-.5-.1-.7-.2-1-.7-1.9-1.7-2.5-2.8l-.1-.1c-.4-.5-.5-1.1-.3-1.6.2-.7 1-1.2 2.2-1.6.1 0 .2 0 .2.1s0 .2-.1.2c-1.1.4-1.7.8-1.9 1.3-.1.4 0 .9.3 1.3l.1.1c.6 1.1 1.4 2 2.3 2.7.2.2.5.2.7 0 .4-.5.4-1.1.1-1.6-.2-.3-.4-.7-.6-1-.4-.6-.7-1.3-.8-2 0-.1.1-.2.2-.2s.2.1.2.2c0 .7.3 1.3.7 1.8.2.3.4.7.6 1 .4.7.3 1.5-.2 2.1-.1.2-.3.3-.4.3"/></defs><clipPath id="SVGID_274_"><use xlink:href="#SVGID_273_" overflow="visible"/></clipPath><g clip-path="url(#SVGID_274_)"><defs><path id="SVGID_275_" d="M-297.6-948.3h1434.7v3073.9H-297.6z"/></defs><clipPath id="SVGID_276_"><use xlink:href="#SVGID_275_" overflow="visible"/></clipPath><g clip-path="url(#SVGID_276_)"><path class="st110" d="M13.6 81.1h13.5v15.2H13.6z"/></g></g></g><g><defs><path id="SVGID_277_" d="M19.2 83.8c-.1 0-.2-.1-.2-.2.4-1.8 1.2-3.5 2.3-5 .1-.1.2-.2.3-.1.1.1.1.2.1.3-1 1.5-1.8 3.1-2.2 4.9-.1 0-.2 0-.3.1"/></defs><clipPath id="SVGID_278_"><use xlink:href="#SVGID_277_" overflow="visible"/></clipPath><g clip-path="url(#SVGID_278_)"><defs><path id="SVGID_279_" d="M-297.6-948.3h1434.7v3073.9H-297.6z"/></defs><clipPath id="SVGID_280_"><use xlink:href="#SVGID_279_" overflow="visible"/></clipPath><g clip-path="url(#SVGID_280_)"><path class="st110" d="M14.5 73.9h11.7v14.3H14.5z"/></g></g></g><g><defs><path id="SVGID_281_" d="M24 97.2c-.3 0-.6 0-.8-.1-.6-.1-1.1-.3-1.6-.5-.8-.3-1.6-.8-2.1-1.4-.6-.9-.4-2.6-.2-4.3.1-.8.2-1.6.2-2.5 0-.1.1-.2.2-.2s.2.1.2.2c0 .8 0 1.7-.2 2.5-.2 1.6-.4 3.2.1 4 .5.6 1.2 1.1 1.9 1.3.5.2 1 .4 1.6.5.7.1 1.3.1 2-.1l.5-.1c1-.1 2-.3 2.9-.5h.1c1.5-.4 1.6-.7 1.6-.7 0-.1-.1-.3-.5-.5-.7-.2-1.5-.3-2.3-.2H27c-.3 0-.7.1-1.1.1-.7.2-1.5.2-2.3.1-1.2-.5-2.2-1.4-2.8-2.5 0-.1 0-.2.1-.3.1 0 .2 0 .3.1.5 1 1.4 1.8 2.5 2.3.7.1 1.4.1 2.1-.1.4-.1.7-.1 1.1-.1h.4c.8-.1 1.7-.1 2.5.2.2.1.8.4.8.9s-1 .8-1.9 1.1h-.1c-1 .2-2 .4-3 .5l-.5.1c-.3.2-.7.2-1.1.2"/></defs><clipPath id="SVGID_282_"><use xlink:href="#SVGID_281_" overflow="visible"/></clipPath><g clip-path="url(#SVGID_282_)"><defs><path id="SVGID_283_" d="M-297.6-948.3h1434.7v3073.9H-297.6z"/></defs><clipPath id="SVGID_284_"><use xlink:href="#SVGID_283_" overflow="visible"/></clipPath><g clip-path="url(#SVGID_284_)"><path class="st110" d="M14.5 83.8h20.6v17.9H14.5z"/></g></g></g><g><defs><path id="SVGID_285_" d="M24.1 98.1c-1.4 0-2.7-.6-3.6-1.6-.3-.5-.5-1.1-.6-1.7 0-.1 0-.2.2-.3.1 0 .2.1.2.2.1.5.2 1 .5 1.4 1 1.1 2.4 1.6 3.8 1.4.9-.2 1.6-.3 2.4-.6l.8-.2c1-.3 2.6-.7 3.3-2 0-.1.1-.1.2-.1.1.1.1.2.1.3-.8 1.5-2.4 1.9-3.5 2.2l-.8.2c-.8.2-1.6.4-2.5.6-.1.2-.3.2-.5.2"/></defs><clipPath id="SVGID_286_"><use xlink:href="#SVGID_285_" overflow="visible"/></clipPath><g clip-path="url(#SVGID_286_)"><defs><path id="SVGID_287_" d="M-297.6-948.3h1434.7v3073.9H-297.6z"/></defs><clipPath id="SVGID_288_"><use xlink:href="#SVGID_287_" overflow="visible"/></clipPath><g clip-path="url(#SVGID_288_)"><path class="st110" d="M15.4 90H36v12.6H15.4z"/></g></g></g><g><defs><path id="SVGID_289_" d="M25.1 98.1c-.5 0-1.1-.1-1.5-.3-.1-.1-.1-.2-.1-.3 0-.1.1-.1.2-.1h.1c1.1.7 4.8-.1 6.5-1 .6-.3 1.7-.9 1.8-1.7 0-.1.1-.2.2-.2s.2.2.2.3c-.2 1-1.4 1.7-2 2-1.8.8-3.6 1.2-5.4 1.3"/></defs><clipPath id="SVGID_290_"><use xlink:href="#SVGID_289_" overflow="visible"/></clipPath><g clip-path="url(#SVGID_290_)"><defs><path id="SVGID_291_" d="M-297.6-948.3h1434.7v3073.9H-297.6z"/></defs><clipPath id="SVGID_292_"><use xlink:href="#SVGID_291_" overflow="visible"/></clipPath><g clip-path="url(#SVGID_292_)"><path class="st110" d="M19 90h17.9v12.6H19z"/></g></g></g><g><defs><path id="SVGID_293_" d="M21 88.2c-.1 0-.2-.1-.2-.2v-1.8l.2-24.9c0-.4.2-.8.5-1.1.4-.2.8-.3 1.2-.3l35-.4s4 0 6 .1 6.1.4 6.1.4l10 .9c.4 0 .7.2 1 .4.2.3.3.7.3 1l-.2 12.1c0 .1-.1.2-.2.2s-.2-.1-.2-.2l.2-12.1c0-.3-.1-.5-.2-.8-.2-.2-.4-.3-.7-.3l-10-.8s-4-.3-6.1-.4-5.9-.1-6-.1l-35 .4c-.3 0-.6.1-.9.2-.2.2-.3.5-.3.8L21.2 88c0 .1-.1.2-.2.2"/></defs><clipPath id="SVGID_294_"><use xlink:href="#SVGID_293_" overflow="visible"/></clipPath><g clip-path="url(#SVGID_294_)"><defs><path id="SVGID_295_" d="M-297.6-948.3h1434.7v3073.9H-297.6z"/></defs><clipPath id="SVGID_296_"><use xlink:href="#SVGID_295_" overflow="visible"/></clipPath><g clip-path="url(#SVGID_296_)"><path class="st110" d="M16.3 55.1h69v37.7h-69z"/></g></g></g><g><defs><path id="SVGID_297_" d="M22.1 94.5c-.2 0-.4-.1-.4-.2V92c0-.1.2-.2.4-.2s.4.1.4.2V94.3c0 .1-.2.2-.4.2"/></defs><clipPath id="SVGID_298_"><use xlink:href="#SVGID_297_" overflow="visible"/></clipPath><g clip-path="url(#SVGID_298_)"><defs><path id="SVGID_299_" d="M-297.6-948.3h1434.7v3073.9H-297.6z"/></defs><clipPath id="SVGID_300_"><use xlink:href="#SVGID_299_" overflow="visible"/></clipPath><g clip-path="url(#SVGID_300_)"><path class="st110" d="M17.2 87.3h9.9V99h-9.9z"/></g></g></g><g><defs><path id="SVGID_301_" d="M64.2 96.3h-.9l-33.4-.7c-.1 0-.2-.1-.2-.2s.1-.2.2-.2l33.4.7h1.4c.7 0 1.4-.1 1.4-.1l14.2-1c.2 0 .5-.1.7-.2.1-.2.2-.4.2-.7v-3.7c0-.1.1-.2.2-.2s.2.1.2.2v3.7c0 .3-.1.6-.3.9-.3.2-.6.3-1 .3l-14.2 1.1s-.7.1-1.5.1h-.4"/></defs><clipPath id="SVGID_302_"><use xlink:href="#SVGID_301_" overflow="visible"/></clipPath><g clip-path="url(#SVGID_302_)"><defs><path id="SVGID_303_" d="M-297.6-948.3h1434.7v3073.9H-297.6z"/></defs><clipPath id="SVGID_304_"><use xlink:href="#SVGID_303_" overflow="visible"/></clipPath><g clip-path="url(#SVGID_304_)"><path class="st110" d="M25.2 85.5h61v15.2h-61z"/></g></g></g><g><defs><path id="SVGID_305_" d="M81.3 87.3c-.2 0-.4-.1-.4-.2v-1.4c0-.1.2-.2.4-.2s.4.1.4.2v1.4c0 .2-.2.2-.4.2"/></defs><clipPath id="SVGID_306_"><use xlink:href="#SVGID_305_" overflow="visible"/></clipPath><g clip-path="url(#SVGID_306_)"><defs><path id="SVGID_307_" d="M-297.6-948.3h1434.7v3073.9H-297.6z"/></defs><clipPath id="SVGID_308_"><use xlink:href="#SVGID_307_" overflow="visible"/></clipPath><g clip-path="url(#SVGID_308_)"><path class="st110" d="M76.4 81.1h9.9v10.8h-9.9z"/></g></g></g><g><defs><path id="SVGID_309_" d="M81.3 83.8c-.2 0-.4-.1-.4-.2v-2.2c0-.1.2-.2.4-.2s.4.1.4.2v2.2l-.4.2"/></defs><clipPath id="SVGID_310_"><use xlink:href="#SVGID_309_" overflow="visible"/></clipPath><g clip-path="url(#SVGID_310_)"><defs><path id="SVGID_311_" d="M-297.6-948.3h1434.7v3073.9H-297.6z"/></defs><clipPath id="SVGID_312_"><use xlink:href="#SVGID_311_" overflow="visible"/></clipPath><g clip-path="url(#SVGID_312_)"><path class="st110" d="M76.4 76.6h9.9v11.7h-9.9z"/></g></g></g><g><defs><path id="SVGID_313_" d="M81.3 78.4c-.2 0-.4-.1-.4-.1v-.6c0-.1.2-.1.4-.1s.4.1.4.1v.6s-.2.1-.4.1"/></defs><clipPath id="SVGID_314_"><use xlink:href="#SVGID_313_" overflow="visible"/></clipPath><g clip-path="url(#SVGID_314_)"><defs><path id="SVGID_315_" d="M-297.6-948.3h1434.7v3073.9H-297.6z"/></defs><clipPath id="SVGID_316_"><use xlink:href="#SVGID_315_" overflow="visible"/></clipPath><g clip-path="url(#SVGID_316_)"><path class="st110" d="M76.4 73h9.9v9.9h-9.9z"/></g></g></g><g><defs><path id="SVGID_317_" d="m80.6 60.4-15.9-.2-42-.4c-.1 0-.2-.1-.2-.1 0-.1.1-.1.2-.1l42 .4 15.8.2c.1 0 .2.1.2.1.1.1 0 .1-.1.1"/></defs><clipPath id="SVGID_318_"><use xlink:href="#SVGID_317_" overflow="visible"/></clipPath><g clip-path="url(#SVGID_318_)"><defs><path id="SVGID_319_" d="M-297.6-948.3h1434.7v3073.9H-297.6z"/></defs><clipPath id="SVGID_320_"><use xlink:href="#SVGID_319_" overflow="visible"/></clipPath><g clip-path="url(#SVGID_320_)"><path class="st110" d="M18.1 55.1h67.3V65H18.1z"/></g></g></g><g><defs><path id="SVGID_321_" d="M64 96.3c-.1 0-.2-.1-.2-.2l.5-35.5c0-.1.1-.2.2-.2s.2.1.2.2l-.5 35.5c0 .1-.1.2-.2.2"/></defs><clipPath id="SVGID_322_"><use xlink:href="#SVGID_321_" overflow="visible"/></clipPath><g clip-path="url(#SVGID_322_)"><defs><path id="SVGID_323_" d="M-297.6-948.3h1434.7v3073.9H-297.6z"/></defs><clipPath id="SVGID_324_"><use xlink:href="#SVGID_323_" overflow="visible"/></clipPath><g clip-path="url(#SVGID_324_)"><path class="st110" d="M59.3 56h9.9v44.8h-9.9z"/></g></g></g><g><defs><path id="SVGID_325_" d="M81.1 74.8c-.2 0-.2-.1-.2-.2.6-1.7 1.4-4.6 2.1-7.1.4-1.3.7-2.5 1-3.5.3-.9 1.5-5 2.9-6.2.1-.1.2-.1.3 0 .1.1.1.2 0 .3-1 .8-2.1 3.7-2.7 6-.3.9-.6 2.2-1 3.5-.7 2.5-1.5 5.4-2.1 7.1-.2 0-.2.1-.3.1"/></defs><clipPath id="SVGID_326_"><use xlink:href="#SVGID_325_" overflow="visible"/></clipPath><g clip-path="url(#SVGID_326_)"><defs><path id="SVGID_327_" d="M-297.6-948.3h1434.7v3073.9H-297.6z"/></defs><clipPath id="SVGID_328_"><use xlink:href="#SVGID_327_" overflow="visible"/></clipPath><g clip-path="url(#SVGID_328_)"><path class="st110" d="M76.4 53.3h15.2v26H76.4z"/></g></g></g><g><defs><path id="SVGID_329_" d="M88.7 82c-.1 0-.2-.1-.2-.2-.3-1-.7-1.9-1.2-2.7-.2-.4-.5-.9-.7-1.3l-.9-1.8c-1.3-2.3-2.3-4.7-3-7.2 0-.1 0-.2.1-.2s.2 0 .3.1c.7 2.5 1.8 4.9 3 7.2l.9 1.8c.3.6.5.9.7 1.3.5.8 1 1.7 1.2 2.7 0 .1-.1.2-.2.3"/></defs><clipPath id="SVGID_330_"><use xlink:href="#SVGID_329_" overflow="visible"/></clipPath><g clip-path="url(#SVGID_330_)"><defs><path id="SVGID_331_" d="M-297.6-948.3h1434.7v3073.9H-297.6z"/></defs><clipPath id="SVGID_332_"><use xlink:href="#SVGID_331_" overflow="visible"/></clipPath><g clip-path="url(#SVGID_332_)"><path class="st110" d="M78.1 64h15.2v22.4H78.1z"/></g></g></g><g><defs><path id="SVGID_333_" d="M86 91.8h-.1c-.9-.5-1.7-1-2.4-1.7l-.8-.6c-.1-.1-.1-.2 0-.2.1-.1.2-.1.3 0 .3.2.5.4.8.6.7.6 1.5 1.2 2.4 1.6.1 0 .1.2.1.3-.1 0-.2.1-.3 0"/></defs><clipPath id="SVGID_334_"><use xlink:href="#SVGID_333_" overflow="visible"/></clipPath><g clip-path="url(#SVGID_334_)"><defs><path id="SVGID_335_" d="M-297.6-948.3h1434.7v3073.9H-297.6z"/></defs><clipPath id="SVGID_336_"><use xlink:href="#SVGID_335_" overflow="visible"/></clipPath><g clip-path="url(#SVGID_336_)"><path class="st110" d="M78.1 84.7h12.6v11.7H78.1z"/></g></g></g><g><defs><path id="SVGID_337_" d="M77.1 43.4c-1.4-.5-2.6-1.1-3.8-1.9-2.4-1.4-2.5-2.7-2-6.9 0-.1.1-.2.2-.2s.2.1.2.2c-.5 4.4-.3 5.2 1.8 6.5 1.2.7 2.4 1.3 3.7 1.8.1.1.1.2.1.3l-.2.2"/></defs><clipPath id="SVGID_338_"><use xlink:href="#SVGID_337_" overflow="visible"/></clipPath><g clip-path="url(#SVGID_338_)"><defs><path id="SVGID_339_" d="M-297.6-948.3h1434.7v3073.9H-297.6z"/></defs><clipPath id="SVGID_340_"><use xlink:href="#SVGID_339_" overflow="visible"/></clipPath><g clip-path="url(#SVGID_340_)"><path class="st110" d="M66.5 30h15.2v17.9H66.5z"/></g></g></g><g><defs><path id="SVGID_341_" d="M91.5 94.5c-1.2 0-2.5-.2-3.7-.6-.5-.2-2.3-.9-2-1.6 0-.1.1-.2.3-.1.1 0 .2.1.1.3-.1.2.8.8 1.8 1.1 1.9.6 4 .7 6 .4 1.4-.1 2.7-.6 3.8-1.3 1.3-1.1 1.7-2.7 1.4-5.4-.9-7-2.8-13.6-4.8-20.5-.6-2-1.2-4-1.7-6.1l-.5-1.7c-.8-3-1.6-6.1-3.2-8.6-2-3.1-4.9-4.2-8.2-5.5l-.7-.3c-.1 0-.2-.1-.1-.3 0-.1.2-.1.3-.1l.7.3c3.3 1.2 6.3 2.4 8.4 5.6 1.6 2.6 2.4 5.7 3.2 8.7l.4 1.6c.6 2 1.2 4.1 1.7 6.1 2 6.9 3.9 13.5 4.8 20.5.4 2.8-.1 4.6-1.5 5.8-1.2.8-2.6 1.3-4 1.4-.8.2-1.7.3-2.5.3"/></defs><clipPath id="SVGID_342_"><use xlink:href="#SVGID_341_" overflow="visible"/></clipPath><g clip-path="url(#SVGID_342_)"><defs><path id="SVGID_343_" d="M-297.6-948.3h1434.7v3073.9H-297.6z"/></defs><clipPath id="SVGID_344_"><use xlink:href="#SVGID_343_" overflow="visible"/></clipPath><g clip-path="url(#SVGID_344_)"><path class="st110" d="M75.5 39.8h28.7V99H75.5z"/></g></g></g><g><defs><path id="SVGID_345_" d="M88.2 83.8c-.4 0-.8 0-1.2-.1-.2-.1-.4-.1-.6 0-.1 0-.2 0-.3-.1 0-.1 0-.2.1-.2.3-.1.5-.1.8 0 .8.2 1.7.1 2.5-.1.4-.1.8-.3 1.2-.4 1.6-.6 3.6-1.4 5.2-.2.1.1.1.2 0 .3-.1.1-.2.1-.3 0-1.4-1-3.2-.3-4.8.3-.5.2-.9.3-1.3.4-.3 0-.8 0-1.3.1"/></defs><clipPath id="SVGID_346_"><use xlink:href="#SVGID_345_" overflow="visible"/></clipPath><g clip-path="url(#SVGID_346_)"><defs><path id="SVGID_347_" d="M-297.6-948.3h1434.7v3073.9H-297.6z"/></defs><clipPath id="SVGID_348_"><use xlink:href="#SVGID_347_" overflow="visible"/></clipPath><g clip-path="url(#SVGID_348_)"><path class="st110" d="M81.7 77.5h18.8v10.8H81.7z"/></g></g></g><g><defs><path id="SVGID_349_" d="M86.9 82.9h-.1c-.5-.1-.9-.3-1.4-.5-.1 0-.1-.1-.1-.2.1-.1.2-.1.3-.1.4.2.8.4 1.2.5h.2c.1 0 .1.1.1.2 0 0-.1.1-.2.1"/></defs><clipPath id="SVGID_350_"><use xlink:href="#SVGID_349_" overflow="visible"/></clipPath><g clip-path="url(#SVGID_350_)"><defs><path id="SVGID_351_" d="M-297.6-948.3h1434.7v3073.9H-297.6z"/></defs><clipPath id="SVGID_352_"><use xlink:href="#SVGID_351_" overflow="visible"/></clipPath><g clip-path="url(#SVGID_352_)"><path class="st110" d="M80.8 77.5h10.8v9.9H80.8z"/></g></g></g><g><defs><path id="SVGID_353_" d="M47.8 41.6c-.1 0-.2-.1-.2-.1 0-.1 0-.2.1-.2l1-.3 1-.2c1.6-.4 3.1-.9 4.6-1.6 1.6-.8 2-1.5 1.8-3.5 0-.1.1-.2.2-.2s.2.1.2.2c.1 2.2-.4 3.1-2.1 3.9-1.5.7-3.1 1.2-4.7 1.6l-1 .3-.9.1"/></defs><clipPath id="SVGID_354_"><use xlink:href="#SVGID_353_" overflow="visible"/></clipPath><g clip-path="url(#SVGID_354_)"><defs><path id="SVGID_355_" d="M-297.6-948.3h1434.7v3073.9H-297.6z"/></defs><clipPath id="SVGID_356_"><use xlink:href="#SVGID_355_" overflow="visible"/></clipPath><g clip-path="url(#SVGID_356_)"><path class="st110" d="M43.2 30.8h17.9V46H43.2z"/></g></g></g><g><defs><path id="SVGID_357_" d="M30.8 59.5c-.1 0-.2-.1-.1-.2l.3-1.2c.5-2.3 1.4-6.2 2.2-7.6 2.4-4.6 7-6.5 11.7-8 .1 0 .2 0 .3.1 0 .1 0 .2-.1.2-4.5 1.4-9 3.3-11.4 7.8-.7 1.4-1.6 5.2-2.1 7.5l-.3 1.2c-.3.2-.3.3-.5.2"/></defs><clipPath id="SVGID_358_"><use xlink:href="#SVGID_357_" overflow="visible"/></clipPath><g clip-path="url(#SVGID_358_)"><defs><path id="SVGID_359_" d="M-297.6-948.3h1434.7v3073.9H-297.6z"/></defs><clipPath id="SVGID_360_"><use xlink:href="#SVGID_359_" overflow="visible"/></clipPath><g clip-path="url(#SVGID_360_)"><path class="st110" d="M26.1 38h23.3v26H26.1z"/></g></g></g><g><defs><path id="SVGID_361_" d="M40.3 59.5c-.1 0-.2 0-.2-.1-.4-.8-.7-1.7-1-2.5-.3-1.2-.8-2.3-1.3-3.4 0-.1 0-.2.1-.2s.2 0 .3.1c.5 1.1 1 2.2 1.3 3.4.2.8.5 1.7.9 2.5.1.1 0 .2-.1.2"/></defs><clipPath id="SVGID_362_"><use xlink:href="#SVGID_361_" overflow="visible"/></clipPath><g clip-path="url(#SVGID_362_)"><defs><path id="SVGID_363_" d="M-297.6-948.3h1434.7v3073.9H-297.6z"/></defs><clipPath id="SVGID_364_"><use xlink:href="#SVGID_363_" overflow="visible"/></clipPath><g clip-path="url(#SVGID_364_)"><path class="st110" d="M33.3 48.8H45V64H33.3z"/></g></g></g><g><defs><path id="SVGID_365_" d="M77.5 61.3c-.1 0-.2-.1-.2-.2.4-2 .8-5.5 1.2-8.9.4-3 .7-5.9 1-7.7 0-.1.1-.2.3-.2.1 0 .2.1.2.2-.3 1.8-.6 4.7-1 7.7-.4 3.4-.8 6.9-1.2 9-.1.1-.2.2-.3.1"/></defs><clipPath id="SVGID_366_"><use xlink:href="#SVGID_365_" overflow="visible"/></clipPath><g clip-path="url(#SVGID_366_)"><defs><path id="SVGID_367_" d="M-297.6-948.3h1434.7v3073.9H-297.6z"/></defs><clipPath id="SVGID_368_"><use xlink:href="#SVGID_367_" overflow="visible"/></clipPath><g clip-path="url(#SVGID_368_)"><path class="st110" d="M72.8 39.8h11.7v26H72.8z"/></g></g></g><g><defs><path id="SVGID_369_" d="M73.9 59.5c-.1 0-.2-.1-.2-.2.5-5.1 2.1-15.9 2.3-16.6.1-.2.2-.3.4-.3 1.3.1 2.5.5 3.5 1.2 0 .1 0 .2-.1.3h-.2c-.9-.6-1.9-.9-2.9-1.1h-.3c-.2.6-1.8 11.2-2.3 16.4 0 .2-.1.3-.2.3"/></defs><clipPath id="SVGID_370_"><use xlink:href="#SVGID_369_" overflow="visible"/></clipPath><g clip-path="url(#SVGID_370_)"><defs><path id="SVGID_371_" d="M-297.6-948.3h1434.7v3073.9H-297.6z"/></defs><clipPath id="SVGID_372_"><use xlink:href="#SVGID_371_" overflow="visible"/></clipPath><g clip-path="url(#SVGID_372_)"><path class="st110" d="M69.2 38h15.2v26H69.2z"/></g></g></g><g><defs><path id="SVGID_373_" d="M48.4 59.5c-.1 0-.1-.1-.1-.2 0-1.4-.1-4-.3-6.9-.2-3.9-.4-8.3-.4-10.7 0-.1.1-.2.1-.2.1 0 .1.1.1.2 0 2.4.2 6.8.4 10.7.1 2.8.3 5.5.3 6.9.1.2 0 .2-.1.2"/></defs><clipPath id="SVGID_374_"><use xlink:href="#SVGID_373_" overflow="visible"/></clipPath><g clip-path="url(#SVGID_374_)"><defs><path id="SVGID_375_" d="M-297.6-948.3h1434.7v3073.9H-297.6z"/></defs><clipPath id="SVGID_376_"><use xlink:href="#SVGID_375_" overflow="visible"/></clipPath><g clip-path="url(#SVGID_376_)"><path class="st110" d="M43.2 37.1h9.9V64h-9.9z"/></g></g></g><g><defs><path id="SVGID_377_" d="M44.8 59.5c-.1 0-.2-.1-.2-.2-.4-4.2-.6-11.7-.5-16.2 0-.4.6-.8 1.2-1.1.7-.3 2-.7 2.3-.3.1.1.1.2 0 .3-.1.1-.2.1-.2 0-.7-.1-1.4.1-1.9.4-.7.3-1 .6-1 .7-.2 4.6.1 11.9.5 16.1 0 .2-.1.3-.2.3"/></defs><clipPath id="SVGID_378_"><use xlink:href="#SVGID_377_" overflow="visible"/></clipPath><g clip-path="url(#SVGID_378_)"><defs><path id="SVGID_379_" d="M-297.6-948.3h1434.7v3073.9H-297.6z"/></defs><clipPath id="SVGID_380_"><use xlink:href="#SVGID_379_" overflow="visible"/></clipPath><g clip-path="url(#SVGID_380_)"><path class="st110" d="M39.6 37.1h12.6V64H39.6z"/></g></g></g><g><defs><path id="SVGID_381_" d="M87.2 91.8c-.3 0-.6-.1-.9-.1-.1 0-.2-.1-.1-.2 0-.1.1-.2.3-.1 1 .4 2.1-.1 2.5-1.1 1-2 .2-6-1.9-7-.1-.1-.1-.2-.1-.3.1-.1.2-.1.3-.1 2.3 1.2 3.1 5.3 2.1 7.5-.4.9-1.2 1.4-2.2 1.4"/></defs><clipPath id="SVGID_382_"><use xlink:href="#SVGID_381_" overflow="visible"/></clipPath><g clip-path="url(#SVGID_382_)"><defs><path id="SVGID_383_" d="M-297.6-948.3h1434.7v3073.9H-297.6z"/></defs><clipPath id="SVGID_384_"><use xlink:href="#SVGID_383_" overflow="visible"/></clipPath><g clip-path="url(#SVGID_384_)"><path class="st110" d="M81.7 78.4h12.6v17.9H81.7z"/></g></g></g><g><defs><path id="SVGID_385_" d="M62.4 43.4c-.4 0-.9 0-1.3-.1-2.1-.2-5.8-1-7.1-4.2 0-.1 0-.2.1-.2s.2 0 .3.1c1.2 3 4.8 3.7 6.7 3.9 4 .3 8.3-1 9.5-2.9.1-.1.2-.1.3-.1.1.1.1.2.1.3-1.2 1.9-4.9 3.2-8.6 3.2"/></defs><clipPath id="SVGID_386_"><use xlink:href="#SVGID_385_" overflow="visible"/></clipPath><g clip-path="url(#SVGID_386_)"><defs><path id="SVGID_387_" d="M-297.6-948.3h1434.7v3073.9H-297.6z"/></defs><clipPath id="SVGID_388_"><use xlink:href="#SVGID_387_" overflow="visible"/></clipPath><g clip-path="url(#SVGID_388_)"><path class="st110" d="M49.5 34.4h26v13.5h-26z"/></g></g></g><g><defs><path id="SVGID_389_" d="M83.3 110.7c-.1 0-.2-.1-.2-.2 0-3.3-.9-7-1.8-10.6-.5-2.1-1-4.1-1.3-6 0-.1.1-.2.2-.2s.2.1.3.2c.3 1.9.8 3.9 1.3 6 .9 3.6 1.8 7.3 1.8 10.7-.1 0-.2.1-.3.1"/></defs><clipPath id="SVGID_390_"><use xlink:href="#SVGID_389_" overflow="visible"/></clipPath><g clip-path="url(#SVGID_390_)"><defs><path id="SVGID_391_" d="M-297.6-948.3h1434.7v3073.9H-297.6z"/></defs><clipPath id="SVGID_392_"><use xlink:href="#SVGID_391_" overflow="visible"/></clipPath><g clip-path="url(#SVGID_392_)"><path class="st110" d="M75.5 89.1h12.6v26H75.5z"/></g></g></g><g><defs><path id="SVGID_393_" d="M38 110.7c-.1 0-.2-.1-.2-.2 0-2.4.3-4.7.7-7 .4-2.3.6-4.6.7-6.9 0-.1.1-.2.2-.2s.2.1.2.2c0 2.3-.3 4.7-.7 7-.4 2.3-.6 4.6-.7 6.9 0 .1-.1.2-.2.2"/></defs><clipPath id="SVGID_394_"><use xlink:href="#SVGID_393_" overflow="visible"/></clipPath><g clip-path="url(#SVGID_394_)"><defs><path id="SVGID_395_" d="M-297.6-948.3h1434.7v3073.9H-297.6z"/></defs><clipPath id="SVGID_396_"><use xlink:href="#SVGID_395_" overflow="visible"/></clipPath><g clip-path="url(#SVGID_396_)"><path class="st110" d="M33.3 91.8h10.8v23.3H33.3z"/></g></g></g><g><defs><path id="SVGID_397_" d="M74.3 20.1c-.1 0-.2-.1-.2-.2.3-2.8-.7-5.6-2.6-7.7C68.5 9.1 64 8 60 9.4c-2.1.7-3.9 2-5.2 3.8-1.2 1.9-1.7 4.1-1.4 6.3 0 .1-.1.2-.2.2s-.2-.1-.2-.2c-.3-2.3.2-4.6 1.5-6.6 1.3-1.8 3.2-3.2 5.4-4 4.2-1.5 8.9-.3 11.9 2.9 2 2.2 3 5.1 2.7 8 0 .2-.1.3-.2.3"/></defs><clipPath id="SVGID_398_"><use xlink:href="#SVGID_397_" overflow="visible"/></clipPath><g clip-path="url(#SVGID_398_)"><defs><path id="SVGID_399_" d="M-297.6-948.3h1434.7v3073.9H-297.6z"/></defs><clipPath id="SVGID_400_"><use xlink:href="#SVGID_399_" overflow="visible"/></clipPath><g clip-path="url(#SVGID_400_)"><path class="st110" d="M48.6 3.9h30.5v20.6H48.6z"/></g></g></g><g><defs><path id="SVGID_401_" d="M74.4 19.2c-.1 0-.1 0 0 0-2.4-1.3-5-2.2-7.6-2.7-3.2-.6-7.8-.8-11.6 1.9-.1.1-.2.1-.3 0v-.1c-.1-.1 0-.2.1-.3 3.9-2.8 8.6-2.6 11.9-2 2.7.5 5.3 1.4 7.7 2.8.1.1.1.2.1.3-.2.1-.3.1-.3.1"/></defs><clipPath id="SVGID_402_"><use xlink:href="#SVGID_401_" overflow="visible"/></clipPath><g clip-path="url(#SVGID_402_)"><defs><path id="SVGID_403_" d="M-297.6-948.3h1434.7v3073.9H-297.6z"/></defs><clipPath id="SVGID_404_"><use xlink:href="#SVGID_403_" overflow="visible"/></clipPath><g clip-path="url(#SVGID_404_)"><path class="st110" d="M50.3 11.1H79v12.6H50.3z"/></g></g></g><g><defs><path id="SVGID_405_" d="M73.7 22.8c-.9-.1-1.9-.4-2.7-.8-1.8-.8-3.7-1.5-5.6-2-2.1-.3-4.2-.1-6.1.5-.6.1-1.1.3-1.8.4-.5.1-1.2.3-2 .5-.9.3-1.8.5-2.8.6-.2 0-.4 0-.5-.2-.1-.1-.3-.5 1.1-2.4.1-.1.2-.1.3 0 .1.1.1.2 0 .3-1 1.4-1.1 1.9-1.1 2 .1.1 0 0 .1 0l2.7-.6c.8-.2 1.6-.4 2.1-.5s1.2-.3 1.8-.4c2-.6 4.2-.8 6.3-.5 1.9.5 3.8 1.2 5.7 2 1.3.6 2.4.9 2.9.7.1 0 .1-.1.1-.1.2-.5-.4-1.8-.6-2.4-.1-.2-.1-.3-.1-.4 0-.1 0-.2.1-.2s.2 0 .2.1.1.2.1.3c.4 1 .9 2.1.6 2.7-.1.1-.2.3-.3.3-.2.1-.4.1-.5.1"/></defs><clipPath id="SVGID_406_"><use xlink:href="#SVGID_405_" overflow="visible"/></clipPath><g clip-path="url(#SVGID_406_)"><defs><path id="SVGID_407_" d="M-297.6-948.3h1434.7v3073.9H-297.6z"/></defs><clipPath id="SVGID_408_"><use xlink:href="#SVGID_407_" overflow="visible"/></clipPath><g clip-path="url(#SVGID_408_)"><path class="st110" d="M47.7 14.7h31.4v12.6H47.7z"/></g></g></g><g><defs><path id="SVGID_409_" d="M19.2 85.5c-.1 0-.2-.1-.2-.2-.2-.8-.1-1.6.3-2.2.5-.7 1.2-1.1 2.1-1.2.1 0 .2.1.2.2s-.1.2-.2.2c-.7.1-1.4.4-1.8 1-.3.5-.4 1.2-.3 1.8.1.2.1.4-.1.4"/></defs><clipPath id="SVGID_410_"><use xlink:href="#SVGID_409_" overflow="visible"/></clipPath><g clip-path="url(#SVGID_410_)"><defs><path id="SVGID_411_" d="M-297.6-948.3h1434.7v3073.9H-297.6z"/></defs><clipPath id="SVGID_412_"><use xlink:href="#SVGID_411_" overflow="visible"/></clipPath><g clip-path="url(#SVGID_412_)"><path class="st110" d="M14.5 77.5h11.7v12.6H14.5z"/></g></g></g><g><defs><path id="SVGID_413_" d="M83.5 90c-.3 0-.5-.1-.8-.3-.1-.1-.1-.2 0-.3.1-.1.2-.1.3-.1.2.2.6.2.8.1.8-.3 1.3-1 1.6-1.8.6-1.6.6-3.6-.1-5.4 0-.1 0-.2.1-.3.1 0 .2 0 .2.1.7 1.9.8 4 .1 5.9-.3.9-1 1.6-1.8 2-.1.1-.3.1-.4.1"/></defs><clipPath id="SVGID_414_"><use xlink:href="#SVGID_413_" overflow="visible"/></clipPath><g clip-path="url(#SVGID_414_)"><defs><path id="SVGID_415_" d="M-297.6-948.3h1434.7v3073.9H-297.6z"/></defs><clipPath id="SVGID_416_"><use xlink:href="#SVGID_415_" overflow="visible"/></clipPath><g clip-path="url(#SVGID_416_)"><path class="st110" d="M78.1 77.5h12.6v17H78.1z"/></g></g></g><g><defs><path id="SVGID_417_" d="M62.6 38.9c-.3 0-.7 0-1-.1-1.3-.4-2.4-1.1-3.5-1.9l-.4-.3c-.8-.5-1.4-1.2-2-1.9-.2-.5-.4-1-.3-1.5 0-.4 0-.7-.1-1.1-.3-.7-.8-2.7-.3-3.2.3-.3.8-.2 1.4-.1.3.1.7.1 1.1.1.8 0 1.6-.2 2.3-.5.3-.1.6-.3.9-.4.5-.4 1.1-.6 1.8-.6.8 0 1.6.2 2.3.7.6.4 1.3.7 2.1.8.9.2 1.9.3 2.8.3.1 0 .2 0 .2.1.2.6.3 1.2.2 1.9v1.2c.1.5 0 1-.1 1.5-.2.6-1.2 1.6-2.3 2.5l-.1.1c-1.1.8-3 2.4-5 2.4m-6.9-9.8c-.1 0-.3 0-.4.1-.2.2 0 1.7.4 2.8.1.4.2.8.2 1.2 0 .4 0 .9.2 1.3.5.7 1.2 1.3 1.9 1.8l.4.3c1 .8 2.1 1.4 3.3 1.9 1.9.5 3.8-.8 5.6-2.3l.1-.1c.5-.4 2-1.7 2.2-2.3.1-.5.1-.9.1-1.4V31.1c.1-.5 0-1-.1-1.6-.9 0-1.9-.1-2.8-.3-.8-.1-1.5-.4-2.2-.8-.6-.4-1.3-.6-2.1-.6-.6.1-1.1.3-1.6.6-.3.2-.6.3-1 .5-.8.3-1.6.5-2.4.5-.4 0-.7 0-1.1-.1-.3-.2-.5-.2-.7-.2"/></defs><clipPath id="SVGID_418_"><use xlink:href="#SVGID_417_" overflow="visible"/></clipPath><g clip-path="url(#SVGID_418_)"><defs><path id="SVGID_419_" d="M-297.6-948.3h1434.7v3073.9H-297.6z"/></defs><clipPath id="SVGID_420_"><use xlink:href="#SVGID_419_" overflow="visible"/></clipPath><g clip-path="url(#SVGID_420_)"><path class="st110" d="M50.3 22.8h24.2v20.6H50.3z"/></g></g></g><g><defs><path id="SVGID_421_" d="M70.3 30c-.2 0-.2-.2-.2-.3.2-.4.3-.8.4-1.2.2-.8.5-1.5 1-2.1.1-.1.2-.1.3 0 .1.1.1.2 0 .3-.4.6-.8 1.2-.9 1.9-.1.4-.3.8-.5 1.2 0 .1-.1.2-.1.2"/></defs><clipPath id="SVGID_422_"><use xlink:href="#SVGID_421_" overflow="visible"/></clipPath><g clip-path="url(#SVGID_422_)"><defs><path id="SVGID_423_" d="M-297.6-948.3h1434.7v3073.9H-297.6z"/></defs><clipPath id="SVGID_424_"><use xlink:href="#SVGID_423_" overflow="visible"/></clipPath><g clip-path="url(#SVGID_424_)"><path class="st110" d="M65.6 21.9h10.8v12.6H65.6z"/></g></g></g><g><defs><path id="SVGID_425_" d="M55.6 29.1c-.1 0-.1-.1-.1-.2-.1-1-.3-2.1-.6-3.1 0-.1 0-.2.1-.3.1-.1.2 0 .2.1.3 1.1.5 2.1.7 3.2-.2.1-.2.2-.3.3"/></defs><clipPath id="SVGID_426_"><use xlink:href="#SVGID_425_" overflow="visible"/></clipPath><g clip-path="url(#SVGID_426_)"><defs><path id="SVGID_427_" d="M-297.6-948.3h1434.7v3073.9H-297.6z"/></defs><clipPath id="SVGID_428_"><use xlink:href="#SVGID_427_" overflow="visible"/></clipPath><g clip-path="url(#SVGID_428_)"><path class="st110" d="M50.3 21h9.9v12.6h-9.9z"/></g></g></g><g><defs><path id="SVGID_429_" d="M44.3 75.7c-.3 0-.4-.3-.6-.5-.2-.3-.3-.5-.5-.5-.2.1-.3.2-.4.4-.1.3-.3.5-.6.6-.2 0-.4-.1-.9-.4-.2-.1-.4-.2-.5-.3-.3 0-.7.1-.9.3-.2.2-.5.3-.8.4-.6.1-.8-.6-.9-1.1-.1-.3-.2-.7-.4-.8s-.3.3-.4.4c-.1.1-.4.5-.7.5-.1 0-.2-.1-.3-.2-.4-.7-.4-3.5-.4-8.2v-.9c0-2.3-.1-5.7-.1-5.7 0-.1.1-.2.2-.2s.2.1.2.2c0 0 .1 3.4.1 5.7v.9c0 3.3 0 7.4.3 7.7.1-.1.3-.2.4-.3.3-.3.5-.5.8-.5.4.1.6.6.7 1.1s.2.8.5.8c.2 0 .4-.1.6-.3.3-.3.8-.5 1.2-.4.2.1.5.2.7.4l.6.3c.2-.1.3-.2.4-.4.1-.2.3-.4.5-.5.4-.2.7.3 1 .6l.3.3c.4-.6.3-9.8.2-15.4 0-.1.1-.2.2-.2s.2.1.2.2c.1 2.5.3 14.8-.3 15.6-.2.3-.3.4-.4.4"/></defs><clipPath id="SVGID_430_"><use xlink:href="#SVGID_429_" overflow="visible"/></clipPath><g clip-path="url(#SVGID_430_)"><defs><path id="SVGID_431_" d="M-297.6-948.3h1434.7v3073.9H-297.6z"/></defs><clipPath id="SVGID_432_"><use xlink:href="#SVGID_431_" overflow="visible"/></clipPath><g clip-path="url(#SVGID_432_)"><path class="st110" d="M31.5 55.1h17.9v25.1H31.5z"/></g></g></g><g><defs><path id="SVGID_433_" d="M43.7 95.4c-.1 0-.2-.1-.2-.2 0 0 .1-5.1.1-7.7v-.4c.1-.8 0-1.6-.2-2.4-.1.1-.2.3-.3.4-.3.5-.5 1-.9.8-.4-.2-.5-.6-.6-1.1-.1-.5-.2-.8-.4-.8s-.3.3-.4.5c-.2.4-.6 1-1.1.7-.4-.2-.7-.6-.8-1 0-.2-.2-.5-.3-.6h-.1l-.3.3c-.1.1-.3.4-.5.4-.1 0-.2 0-.3-.1-.2-.3-.4-.6-.5-1-.1-.2-.1-.3-.2-.5 0 0 0-.1-.1-.2-.3 1.4-.3 8.2-.2 12.6 0 .1-.1.2-.2.2s-.2-.1-.2-.2c0 0-.1-3.1 0-6.3 0-6.4.3-6.7.5-6.8 0-.1.1-.1.2-.1.2 0 .2.2.3.4l.1.1c.1.2.2.4.2.6.1.3.2.6.4.8.1-.1.2-.2.2-.3.2-.2.3-.5.6-.5.1 0 .3 0 .4.1.2.2.4.5.4.8.1.3.3.6.6.8.2.1.3-.1.6-.6s.4-.8.8-.8.6.6.7 1.1c.1.3.2.8.4.9.1 0 .3-.4.4-.6.2-.4.4-.7.6-.7.1 0 .2 0 .3.1.4.4.4 1.6.3 2.8v.4c0 2.6-.1 7.7-.1 7.7 0 .3-.1.4-.2.4"/></defs><clipPath id="SVGID_434_"><use xlink:href="#SVGID_433_" overflow="visible"/></clipPath><g clip-path="url(#SVGID_434_)"><defs><path id="SVGID_435_" d="M-297.6-948.3h1434.7v3073.9H-297.6z"/></defs><clipPath id="SVGID_436_"><use xlink:href="#SVGID_435_" overflow="visible"/></clipPath><g clip-path="url(#SVGID_436_)"><path class="st110" d="M31.5 77.5h17v22.4h-17z"/></g></g></g></g></g></svg>