<svg version="1.1" id="Layer_1" xmlns="http://www.w3.org/2000/svg" xmlns:xlink="http://www.w3.org/1999/xlink" x="0" y="0" viewBox="0 0 150 120" xml:space="preserve"><style>.st2{fill:#bfbfbf}.st5{fill:#d8d6d7}.st12{fill:#463b39}.st21{fill:#fa9700}.st26{fill:#9d9a9c}</style><g id="Layer_2_1_"><g id="Layer_1-2"><defs><path id="SVGID_1_" d="M128.5 64.3c.9-2.1 1.8-4.7 3.8-5.9.5-.3 3.7-1.4 4-.5.2.5-.2.9-.3 1.4-.6 1.8-1.4 3.5-2.3 5.2-2.4 5.3-2.6 11.9-3.2 17.6-.2 1.6-.5 3.1-1 4.6-.1.6-.4 1.1-.7 1.6-1.3.9-4.1.6-4.4-1.2-.5-3 .1-6.2.7-9.2l3.4-13.6z"/></defs><clipPath id="SVGID_2_"><use xlink:href="#SVGID_1_" overflow="visible"/></clipPath><g clip-path="url(#SVGID_2_)"><defs><path id="SVGID_3_" d="M-596.5-1054.3h1600v3428h-1600z"/></defs><clipPath id="SVGID_4_"><use xlink:href="#SVGID_3_" overflow="visible"/></clipPath><g clip-path="url(#SVGID_4_)"><path class="st2" d="M119 52.5h22.2v41.2H119z"/></g></g><defs><path id="SVGID_5_" d="M83.6 64.1c.1-10.1 8.3-18.1 18.4-18s18.1 8.3 18 18.4c-.1 10-8.2 18-18.2 18-10.1-.1-18.3-8.3-18.2-18.4"/></defs><clipPath id="SVGID_6_"><use xlink:href="#SVGID_5_" overflow="visible"/></clipPath><g clip-path="url(#SVGID_6_)"><defs><path id="SVGID_7_" d="M-596.5-1054.3h1600v3428h-1600z"/></defs><clipPath id="SVGID_8_"><use xlink:href="#SVGID_7_" overflow="visible"/></clipPath><g clip-path="url(#SVGID_8_)"><path class="st5" d="M78.6 40.7H125v46.8H78.6z"/></g></g><defs><path id="SVGID_9_" d="M128.5 64.3c.9-2.1 1.8-4.7 3.8-5.9.5-.3 2.7-.9 2.4-.6s-.3.2-.5.6c-.9 1.3-1.7 2.7-2.4 4.1-2.4 5.3-2.7 6.4-3.2 9.4-.4 2.7-1 5.3-1.7 7.9-.1.4-.9 5.7-.8 6.1.4 3.4-1.5 2.8-1.8 1-.5-3 .1-6.2.7-9.2l3.5-13.4z"/></defs><clipPath id="SVGID_10_"><use xlink:href="#SVGID_9_" overflow="visible"/></clipPath><g clip-path="url(#SVGID_10_)"><defs><path id="SVGID_11_" d="M-596.5-1054.3h1600v3428h-1600z"/></defs><clipPath id="SVGID_12_"><use xlink:href="#SVGID_11_" overflow="visible"/></clipPath><g clip-path="url(#SVGID_12_)"><path class="st5" d="M119 52.7h20.6v40.7H119z"/></g></g><defs><path id="SVGID_13_" d="M127 77.5c.6-1.2 1.1-2.5 1.3-3.9 0-1.3-.1-2.3.6-2.2.7.1 2.4.6 2.4.6s-.2 2-.3 2.7-.5 3.9-.5 3.9l-3.5-1.1z"/></defs><clipPath id="SVGID_14_"><use xlink:href="#SVGID_13_" overflow="visible"/></clipPath><g clip-path="url(#SVGID_14_)"><defs><path id="SVGID_15_" d="M-596.5-1054.3h1600v3428h-1600z"/></defs><clipPath id="SVGID_16_"><use xlink:href="#SVGID_15_" overflow="visible"/></clipPath><g clip-path="url(#SVGID_16_)"><path class="st5" d="M122 66.5h14.3v17.2H122z"/></g></g><defs><path id="SVGID_17_" d="M126.8 89c-.5 0-1-.1-1.4-.3-.8-.3-1.4-.9-1.5-1.8-.5-3.1.2-6.4.7-9.3 0-.2.2-.3.4-.3s.3.2.3.4c-.6 2.9-1.2 6.1-.7 9.1.1.6.6 1.1 1.1 1.2.9.4 1.9.3 2.7-.2.3-.4.4-.8.6-1.2v-.2c.5-1.5.8-3 1-4.5l.3-3.3c.5-5 .9-10.1 2.9-14.5.2-.5.5-1 .8-1.6.6-1.2 1.1-2.4 1.5-3.6 0-.1.1-.3.2-.4.1-.2.2-.5.1-.7l-.1-.1c-.7-.2-2.9.5-3.4.8-1.7 1.1-2.6 3.2-3.4 5.1l-.3.7c-.1.2-.3.2-.4.2-.2-.1-.2-.3-.2-.4l.3-.7c.8-2 1.7-4.3 3.6-5.4.5-.3 2.9-1.2 4-.8.2.1.4.3.5.5.1.4 0 .8-.2 1.2-.1.1-.1.2-.1.3-.4 1.3-.9 2.5-1.6 3.7-.2.5-.5 1-.7 1.5-2 4.3-2.4 9.4-2.9 14.3l-.3 3.3c-.2 1.6-.5 3.1-1 4.7v.2c-.1.6-.4 1.1-.8 1.6-.6.4-1.2.6-2 .5"/></defs><clipPath id="SVGID_18_"><use xlink:href="#SVGID_17_" overflow="visible"/></clipPath><g clip-path="url(#SVGID_18_)"><defs><path id="SVGID_19_" d="M-596.5-1054.3h1600v3428h-1600z"/></defs><clipPath id="SVGID_20_"><use xlink:href="#SVGID_19_" overflow="visible"/></clipPath><g clip-path="url(#SVGID_20_)"><path class="st12" d="M118.7 52.2h22.9v41.9h-22.9z"/></g></g><defs><path id="SVGID_21_" d="M129.7 67.7h-.1c-.2 0-.3-.2-.2-.4 1.2-3.5 2.7-7.4 5-9.7.1-.1.3-.1.5 0s.1.3 0 .5c-2.2 2.2-3.7 6-4.8 9.5-.1.1-.2.2-.4.1"/></defs><clipPath id="SVGID_22_"><use xlink:href="#SVGID_21_" overflow="visible"/></clipPath><g clip-path="url(#SVGID_22_)"><defs><path id="SVGID_23_" d="M-596.5-1054.3h1600v3428h-1600z"/></defs><clipPath id="SVGID_24_"><use xlink:href="#SVGID_23_" overflow="visible"/></clipPath><g clip-path="url(#SVGID_24_)"><path class="st12" d="M124.4 52.5H140v20.3h-15.6z"/></g></g><defs><path id="SVGID_25_" d="M126 88.6c-.2 0-.3-.1-.3-.3 0-3.6.5-7.2 1.3-10.7 0-.2.2-.3.4-.3s.3.2.3.4c-.8 3.5-1.2 7-1.2 10.6-.2.2-.4.3-.5.3"/></defs><clipPath id="SVGID_26_"><use xlink:href="#SVGID_25_" overflow="visible"/></clipPath><g clip-path="url(#SVGID_26_)"><defs><path id="SVGID_27_" d="M-596.5-1054.3h1600v3428h-1600z"/></defs><clipPath id="SVGID_28_"><use xlink:href="#SVGID_27_" overflow="visible"/></clipPath><g clip-path="url(#SVGID_28_)"><path class="st12" d="M120.6 72.3h11.9v21.3h-11.9z"/></g></g><defs><path id="SVGID_29_" d="M101.8 82.8c-10.4.1-18.8-8.2-19-18.5s8.2-18.8 18.5-18.9c10.3-.1 18.8 8.2 18.9 18.5v.2c.1 10.2-8.1 18.6-18.4 18.7m0-36.8c-10-.1-18.1 7.9-18.2 17.9-.1 10 7.9 18.1 17.9 18.2 10 .1 18.1-7.9 18.2-17.9V64c0-9.9-8-17.9-17.9-18"/></defs><clipPath id="SVGID_30_"><use xlink:href="#SVGID_29_" overflow="visible"/></clipPath><g clip-path="url(#SVGID_30_)"><defs><path id="SVGID_31_" d="M-596.5-1054.3h1600v3428h-1600z"/></defs><clipPath id="SVGID_32_"><use xlink:href="#SVGID_31_" overflow="visible"/></clipPath><g clip-path="url(#SVGID_32_)"><path class="st12" d="M78.2 40.3h47.1v47.5H78.2z"/></g></g><defs><path id="SVGID_33_" d="M109.7 54.2c.9 1.1 1.9 2.1 3.1 2.9 1.7 1.3 3.2 2.6 4.7 4.1 1.7 1.7 2.4 4.1 4.4 5.5 1 .7 2.1 1.2 3.2 1.6 1.2.4 2.6.7 3.1 2 .3 1 .3 2.1.1 3.1 0 .9-.2 1.7-.6 2.5-.3.8-.8 1.9-1.6 2.4-.9.3-1.9.4-2.9.1-2.2-.4-4.3-.8-6.4-1.4-1-.2-2.3-.8-3.3-.4-.8.3-1.3 1.6-1.7 2.2-1.4 2.5-2.4 5.1-3.7 7.7-.4 1-.9 1.9-1.5 2.7 0 0-.5.6-.6.6.1-.4.1-.9.2-1.3.1-.7.1-1.4 0-2.1-.3-2.3-1-4.5-2.2-6.5-.9-1.6-2-3.2-2.9-4.8-.3-.5-2.3-1.7-2.6-2.2l-5-15.1 16.2-3.6z"/></defs><clipPath id="SVGID_34_"><use xlink:href="#SVGID_33_" overflow="visible"/></clipPath><g clip-path="url(#SVGID_34_)"><defs><path id="SVGID_35_" d="M-596.5-1054.3h1600v3428h-1600z"/></defs><clipPath id="SVGID_36_"><use xlink:href="#SVGID_35_" overflow="visible"/></clipPath><g clip-path="url(#SVGID_36_)"><path class="st21" d="M88.8 49.2h44.7v45.5H88.8z"/></g></g><defs><path id="SVGID_37_" d="m55.4 70.5-5.5.8c.7 1.3 1.1 2.6 1.3 4.1.1 1.6 0 3.3-.3 4.9l5.4-.9-.9-8.9z"/></defs><clipPath id="SVGID_38_"><use xlink:href="#SVGID_37_" overflow="visible"/></clipPath><g clip-path="url(#SVGID_38_)"><defs><path id="SVGID_39_" d="M-596.5-1054.3h1600v3428h-1600z"/></defs><clipPath id="SVGID_40_"><use xlink:href="#SVGID_39_" overflow="visible"/></clipPath><g clip-path="url(#SVGID_40_)"><path class="st2" d="M44.8 65.5h16.3v19.8H44.8z"/></g></g><defs><path id="SVGID_41_" d="M51.1 75.2c-.2-1.4-.7-2.8-1.4-4-.8-.1-1.6-.1-2.4 0-1.8 0-3.7.3-5.5.7-.6.2-1.5 1-2.1 1.1-.7-.1-1.4 0-2 .2-.5.3-.9.9-1.5 1.1-.3.1-.7-.2-1-.1-.6.1-1.1.8-1.6.9-.5 0-.8-.2-1.2-.1-.6.1-1.1.7-1.7.8-.3 0-.6-.2-1-.2-.8.2-1.6 1.2-2.4 1.2-.3 0-.7-.2-1-.1-.8.1-1.1.8-1.8 1.1-.6.3-1.1 0-1.6.1s-.9.6-1.4.8-1.2-.2-1.8.2c-.3.2-.7.8-1.1.8s-.8-.4-1.3 0c-.4.2-.7.7-1.1.9-.4.2-.3-.2-.6-.2-.9.1-1.6.7-1.8 1.6 0 1.2.2 2.4.7 3.5.8 1.7 1.8 4.4 4 5 1.2.3 1.8-1.2 2.6-1.3 1-.1 1.2-.8 2.1-1 1.1-.4 2.4-.4 3.5-.8.5-.2.7-.7 1.1-.9.4-.2.8.2 1.2 0 .3-.1 1.3-1 1.5-1 1.3.2 1.6-.4 2.8-.9.3-.1 1 .2 1.5 0s.6-.6 1-.8c.7-.4 1.9-.2 2.6-.5.3-.1.7-.5.9-.6 1.4-.1 2.7-.2 4.1-.4 1.9-.5 5.4-1.3 7.2-2.3.4-1.5.6-3.1.5-4.8"/></defs><clipPath id="SVGID_42_"><use xlink:href="#SVGID_41_" overflow="visible"/></clipPath><g clip-path="url(#SVGID_42_)"><defs><path id="SVGID_43_" d="M-596.5-1054.3h1600v3428h-1600z"/></defs><clipPath id="SVGID_44_"><use xlink:href="#SVGID_43_" overflow="visible"/></clipPath><g clip-path="url(#SVGID_44_)"><path class="st26" d="M8.8 66.2h47.4v29.3H8.8z"/></g></g><defs><path id="SVGID_45_" d="M25.8 24.2c1.4 1.9-7.3-5.9-2.7-.7s11 11.1 14.5 14.3c4.4 4 8.6 7.7 14.5 12.8 1.7 1.5 3 2.7 5.8 5s4.3 2.9 5.4 4.4c1.8 2.4 3.8 5.1 4.9 6.3 1.5 1.6 2.7 1.9 3.6 2.9 2.2 2.5 3.5 5 6.8 8.3 3.3 3.3-1.6 4.6-2.7 5.6-.5.4-.4.8-.2 1.6.2 1.2 1.8 2.1 3.1 2.3 1.8-.2 3.6-.5 5.3-1.1.7-.2.9-.9 1.4-1 1-.4 2.6.1 3.4-.3.8-.4 1.8-1.7 2.3-1.6 1 .3 2.5 1.8 4.1.1 3.5-3.5 2.7-1.8 5.4-1.8 5.2-.1 2.5-2.7 1.7-4.7s-2.6-.9-3-3.7c-.4-2.8.7-7.5-1.1-9.8-1.8-2.3-5.1-4.3-3.5-4.9s4.4-.2 2.6-2.1-4.1-2.3-7.1-3.9c-1.6-.8-3.1-2.1-5.1-3.4-2-1.2-4-2.2-6.2-3-4.9-1.9-9.4-4.6-13.4-8-1.6-1.5-6.3-7-11.2-12.5"/></defs><clipPath id="SVGID_46_"><use xlink:href="#SVGID_45_" overflow="visible"/></clipPath><g clip-path="url(#SVGID_46_)"><defs><path id="SVGID_47_" d="M-596.5-1054.3h1600v3428h-1600z"/></defs><clipPath id="SVGID_48_"><use xlink:href="#SVGID_47_" overflow="visible"/></clipPath><g clip-path="url(#SVGID_48_)"><path fill="#feede5" d="M16.7 16.7h92v75.4h-92z"/></g></g><defs><path id="SVGID_49_" d="M93.6 57.1c2.6-1.1 5.2-2 8-2.5 4.2-.9 7.7-1 7.8-.4s-3.2 1.8-7.3 2.7c-2.4.5-4.9.9-7.3 1.1-1.6-.2-1.2-.9-1.2-.9"/></defs><clipPath id="SVGID_50_"><use xlink:href="#SVGID_49_" overflow="visible"/></clipPath><g clip-path="url(#SVGID_50_)"><defs><path id="SVGID_51_" d="M-596.5-1054.3h1600v3428h-1600z"/></defs><clipPath id="SVGID_52_"><use xlink:href="#SVGID_51_" overflow="visible"/></clipPath><g clip-path="url(#SVGID_52_)"><path class="st26" d="M88.6 48.7h25.8v14.1H88.6z"/></g></g><defs><path id="SVGID_53_" d="m88.3 64-19 2.5-1.4 1.5c-.1 1.5 0 3 .3 4.5.5 2.4 1.3 5.4 1.3 5.4l1.8.6 22.7-5s-.5-1.2-1.1-2.8c-.4-1.3-.9-2.6-1.5-3.9-.7-1.4-1.7-2.4-3.1-2.8"/></defs><clipPath id="SVGID_54_"><use xlink:href="#SVGID_53_" overflow="visible"/></clipPath><g clip-path="url(#SVGID_54_)"><defs><path id="SVGID_55_" d="M-596.5-1054.3h1600v3428h-1600z"/></defs><clipPath id="SVGID_56_"><use xlink:href="#SVGID_55_" overflow="visible"/></clipPath><g clip-path="url(#SVGID_56_)"><path class="st21" d="M62.8 59h36.1v24.5H62.8z"/></g></g><defs><path id="SVGID_57_" d="M67.5 68.4c-.8 0-2.3.8-3.3.3-.9-.5-6.3-.1-7.5 0-.6.1-.9 2.8-.8 5.5.1 1.8.4 3.6.8 5.4 0 0 7.6-.1 8.4-.7.8-.7 4.3-1 4.3-1s-.8-3-1.2-5.6c-.4-2.1-.4-4-.7-3.9"/></defs><clipPath id="SVGID_58_"><use xlink:href="#SVGID_57_" overflow="visible"/></clipPath><g clip-path="url(#SVGID_58_)"><defs><path id="SVGID_59_" d="M-596.5-1054.3h1600v3428h-1600z"/></defs><clipPath id="SVGID_60_"><use xlink:href="#SVGID_59_" overflow="visible"/></clipPath><g clip-path="url(#SVGID_60_)"><path class="st5" d="M50.8 63.4h23.6v21.2H50.8z"/></g></g><defs><path id="SVGID_61_" d="M100 73.2c-.1 0-.9-.3-.9.1.1 2.2-1.6 1.8-3.1 1.3-2-.1-4 .1-5.9.7-.8.2-1.6 1-2.5 1.2-1.2.3-2.5-.1-3.3.2-.4.1-.6.7-.8.7-.8.2-2.4 1.8-3.1 1.7-.8 0-1.5.2-2.3.3-.7 0-.8-2.2-.8-2.2l-4.5 1c.4 2.2 1.1 4.4 2 6.4 2.3 4.5 4.9 8.8 7.8 12.9.7.8 3.3.3 3.3.3s19.3-7 20.2-7.8c.5-2.4.4-4.9-.4-7.2-.8-2.6-3.2-5.7-3.9-7.1-.4-.9-1.4-2.5-1.8-2.5m2.1 3.3c.4.1.6.5.9 1 .8 1.4 1.6 2.8 2.2 4.3.8 2.1-2.4 4.7-2.5 4.8-.9.8-14.1 6.5-14.1 6.5-.9.3-1.8.3-2.7.2-.8-.2-1.6-.7-2.2-1.3-1.5-1.3-2.6-3-3.3-4.8-.2-.4.2-1 .2-2s4.3-1.7 4-2.2c-1.5-2.6-2.3-5.8-.5-6.4 2.3-.8 3.3 1 4.2.8s-.2-1.9 2.3-2.3c2.2-.3 4 2.2 4.4 2.4 1.5.8 2.3-.3 3.8-.8 1.1-.1 2.2-.3 3.3-.2"/></defs><clipPath id="SVGID_62_"><use xlink:href="#SVGID_61_" overflow="visible"/></clipPath><g clip-path="url(#SVGID_62_)"><defs><path id="SVGID_63_" d="M-596.5-1054.3h1600v3428h-1600z"/></defs><clipPath id="SVGID_64_"><use xlink:href="#SVGID_63_" overflow="visible"/></clipPath><g clip-path="url(#SVGID_64_)"><path class="st26" d="M67.9 68.1h43.5V103H67.9z"/></g></g><defs><path id="SVGID_65_" d="m116.5 77.4 7 1.8c.5.1.8.6.7 1.1-.1.5-.6.8-1.1.7l-7-1.8c-.5-.1-.8-.6-.7-1.1.1-.5.6-.8 1.1-.7"/></defs><clipPath id="SVGID_66_"><use xlink:href="#SVGID_65_" overflow="visible"/></clipPath><g clip-path="url(#SVGID_66_)"><defs><path id="SVGID_67_" d="M-596.5-1054.3h1600v3428h-1600z"/></defs><clipPath id="SVGID_68_"><use xlink:href="#SVGID_67_" overflow="visible"/></clipPath><g clip-path="url(#SVGID_68_)"><path class="st2" d="M110.3 72.3h18.8v13.6h-18.8z"/></g></g><defs><path id="SVGID_69_" d="m121.9 63.2 6.9 1.7c.5.1.8.6.7 1.1-.1.5-.6.8-1.1.7l-7-1.8c-.5-.1-.8-.6-.7-1.1.1-.5.6-.8 1.1-.7-.1.1 0 .1.1.1"/></defs><clipPath id="SVGID_70_"><use xlink:href="#SVGID_69_" overflow="visible"/></clipPath><g clip-path="url(#SVGID_70_)"><defs><path id="SVGID_71_" d="M-596.5-1054.3h1600v3428h-1600z"/></defs><clipPath id="SVGID_72_"><use xlink:href="#SVGID_71_" overflow="visible"/></clipPath><g clip-path="url(#SVGID_72_)"><path class="st2" d="M115.7 58.2h18.8v13.6h-18.8z"/></g></g><g><defs><path id="SVGID_73_" d="M123.2 81.3h-.3l-7-1.7c-.3-.1-.6-.3-.8-.6-.2-.3-.2-.7-.1-1 .2-.7.9-1.1 1.5-.9l7 1.7c.7.2 1.1.8 1 1.5-.1.6-.7 1-1.3 1m-7-3.6c-.3 0-.5.2-.6.5 0 .2 0 .3.1.5.1.1.2.2.4.3l7 1.8c.3.1.6-.1.7-.4 0-.2 0-.3-.1-.5-.1-.1-.2-.2-.4-.3l-7-1.7c0-.2 0-.2-.1-.2"/></defs><clipPath id="SVGID_74_"><use xlink:href="#SVGID_73_" overflow="visible"/></clipPath><g clip-path="url(#SVGID_74_)"><defs><path id="SVGID_75_" d="M-596.5-1054.3h1600v3428h-1600z"/></defs><clipPath id="SVGID_76_"><use xlink:href="#SVGID_75_" overflow="visible"/></clipPath><g clip-path="url(#SVGID_76_)"><path class="st12" d="M110 72h19.5v14.3H110z"/></g></g></g><g><defs><path id="SVGID_77_" d="M128.6 67.2h-.3l-7-1.8c-.7-.2-1-.9-.8-1.6.2-.6.8-1 1.5-.9l7 1.7c.7.2 1.1.8 1 1.5-.3.7-.8 1.1-1.4 1.1m-7-3.6c-.3.1-.5.4-.5.7 0 .2.2.3.3.4l7 1.7c.3.1.6-.1.7-.4.1-.3-.1-.6-.4-.7l-7-1.8-.1.1"/></defs><clipPath id="SVGID_78_"><use xlink:href="#SVGID_77_" overflow="visible"/></clipPath><g clip-path="url(#SVGID_78_)"><defs><path id="SVGID_79_" d="M-596.5-1054.3h1600v3428h-1600z"/></defs><clipPath id="SVGID_80_"><use xlink:href="#SVGID_79_" overflow="visible"/></clipPath><g clip-path="url(#SVGID_80_)"><path class="st12" d="M115.4 57.9h19.5v14.3h-19.5z"/></g></g></g><g><defs><path id="SVGID_81_" d="M95.8 57.9h-.2c-.2 0-.3-.1-.3-.3 0-.2.1-.3.3-.3 2.1-.1 4.3-.3 6.4-.8 4-.8 6.5-1.8 7-2.2-.6-.2-3.4-.1-7.3.7-2.3.4-4.5 1.1-6.6 2-.2.1-.4 0-.5-.1-.1-.2 0-.4.1-.4 2.2-1 4.5-1.7 6.8-2.1 1.8-.4 3.6-.6 5.5-.8 2.3-.1 2.7.2 2.7.6s-.1.8-2.3 1.6c-1.7.6-3.5 1.1-5.3 1.4-2.1.3-4.2.6-6.3.7"/></defs><clipPath id="SVGID_82_"><use xlink:href="#SVGID_81_" overflow="visible"/></clipPath><g clip-path="url(#SVGID_82_)"><defs><path id="SVGID_83_" d="M-596.5-1054.3h1600v3428h-1600z"/></defs><clipPath id="SVGID_84_"><use xlink:href="#SVGID_83_" overflow="visible"/></clipPath><g clip-path="url(#SVGID_84_)"><path class="st12" d="M89.5 48.4h25.2v14.5H89.5z"/></g></g></g><g><defs><path id="SVGID_85_" d="M106.2 90c-.2 0-.2-.1-.3-.1-.1-.1-.1-.2.1-1.3v-.2c.1-.7.1-1.4 0-2.1-.3-2.3-1-4.4-2.2-6.4-.4-.8-.9-1.5-1.4-2.3-.5-.7-1-1.7-1.5-2.5-.3-.5-.5-1-.8-1.5-.1-.2 0-.4.2-.4.1 0 .3 0 .4.1.3.5.5 1 .8 1.5.5.9 1 1.7 1.5 2.5s1 1.5 1.4 2.3c1.2 2 2 4.3 2.2 6.7.1.7.1 1.5 0 2.2 0 0 0 .1-.1.3.4-.6.8-1.3 1.1-2 .1-.2.1-.3.2-.5.5-1 .9-2 1.4-3 .7-1.6 1.4-3.2 2.3-4.7l.2-.4c.4-.7.9-1.7 1.6-2 1-.2 2-.1 2.9.2l.6.2 1.4.3c1.6.5 3.3.8 5 1.1h.4c.8.2 1.6.2 2.3-.1.6-.5 1.1-1.2 1.3-2l.1-.2c.3-.8.5-1.6.5-2.4v-.2c.1-.9.1-1.9-.1-2.8-.4-1-1.4-1.3-2.4-1.7l-.4-.1c-1.1-.4-2.2-.9-3.2-1.6-1.1-.9-2.1-1.9-2.8-3.2-.5-.8-1.1-1.6-1.7-2.3-1.5-1.5-3-2.8-4.7-4l-.5-.4c-1-.7-1.9-1.6-2.7-2.6-.1-.1-.1-.4 0-.5.1-.1.4-.1.5 0 0 0 0 .1.1.1.7.9 1.6 1.8 2.6 2.4l.5.4c1.7 1.3 3.3 2.6 4.8 4.1.7.7 1.3 1.5 1.8 2.4.6 1.2 1.5 2.2 2.6 3.1 1 .6 2 1.2 3.1 1.5l.4.1c1.1.4 2.4.8 2.9 2.1.3 1 .3 2 .2 3v.2c0 .9-.2 1.8-.6 2.6l-.1.2c-.3.9-.9 1.7-1.6 2.3-.9.4-1.8.4-2.7.2h-.4c-1.7-.3-3.4-.6-5.1-1.1l-1.4-.4-.6-.2c-.8-.3-1.6-.4-2.4-.3-.5.2-1 1.1-1.3 1.7-.1.1-.1.3-.2.4-.8 1.5-1.5 3.1-2.2 4.6-.4 1-.9 2.1-1.4 3.1l-.2.5c-.4.8-.8 1.6-1.4 2.3-.7.7-.9.8-1 .8z"/></defs><clipPath id="SVGID_86_"><use xlink:href="#SVGID_85_" overflow="visible"/></clipPath><g clip-path="url(#SVGID_86_)"><defs><path id="SVGID_87_" d="M-596.5-1054.3h1600v3428h-1600z"/></defs><clipPath id="SVGID_88_"><use xlink:href="#SVGID_87_" overflow="visible"/></clipPath><g clip-path="url(#SVGID_88_)"><path class="st12" d="M95.2 48.9h38.6V95H95.2z"/></g></g></g><g><defs><path id="SVGID_89_" d="M71.2 78.7h-.1l-1.8-.6c-.1 0-.2-.1-.2-.2 0 0-.8-3-1.3-5.4-.3-1.5-.4-3-.3-4.6 0-.1 0-.1.1-.2l1.4-1.5c0-.1.1-.1.2-.1l19.4-2.5c.2 0 .3.1.4.3 0 .2-.1.3-.3.4l-19.3 2.5-1.3 1.4c-.1 1.4 0 2.9.3 4.3.4 2 1.1 4.5 1.3 5.2l1.5.5 22.8-5c.2 0 .4.1.4.2s-.1.4-.2.4l-23 4.9"/></defs><clipPath id="SVGID_90_"><use xlink:href="#SVGID_89_" overflow="visible"/></clipPath><g clip-path="url(#SVGID_90_)"><defs><path id="SVGID_91_" d="M-596.5-1054.3h1600v3428h-1600z"/></defs><clipPath id="SVGID_92_"><use xlink:href="#SVGID_91_" overflow="visible"/></clipPath><g clip-path="url(#SVGID_92_)"><path class="st12" d="M62.5 58.6h37v25.1h-37z"/></g></g></g><g><defs><path id="SVGID_93_" d="M80.1 87h-.2c-.9-.4-2.2-4.9-2.4-6.5-.1-.4 0-.9.3-1.2.4-.4 1-.6 1.6-.5.4 0 .8-.1 1.2-.2l1.4-.7 1.1-.5c.2-.1.4 0 .4.2.1.2 0 .4-.2.4-.5.2-.8.4-1.1.5-.3.2-.8.4-1.4.7-.5.2-1 .3-1.5.3s-.9.1-1.1.3c-.1.2-.2.5-.1.7.3 2 1 4 1.9 5.9V86c0-.2.1-.3.3-.4.2 0 .3.1.4.3.1.4-.1.9-.4 1.2 0-.1-.1-.1-.2-.1"/></defs><clipPath id="SVGID_94_"><use xlink:href="#SVGID_93_" overflow="visible"/></clipPath><g clip-path="url(#SVGID_94_)"><defs><path id="SVGID_95_" d="M-596.5-1054.3h1600v3428h-1600z"/></defs><clipPath id="SVGID_96_"><use xlink:href="#SVGID_95_" overflow="visible"/></clipPath><g clip-path="url(#SVGID_96_)"><path class="st12" d="M72.5 72.3h16.1V92H72.5z"/></g></g></g><g><defs><path id="SVGID_97_" d="M86.6 77c-.2 0-.3-.1-.4-.3 0-.2.1-.3.3-.4.6-.1 1.3-.3 2.1-.4.2 0 .4.1.4.3 0 .2-.1.4-.3.4l-2.1.4"/></defs><clipPath id="SVGID_98_"><use xlink:href="#SVGID_97_" overflow="visible"/></clipPath><g clip-path="url(#SVGID_98_)"><defs><path id="SVGID_99_" d="M-596.5-1054.3h1600v3428h-1600z"/></defs><clipPath id="SVGID_100_"><use xlink:href="#SVGID_99_" overflow="visible"/></clipPath><g clip-path="url(#SVGID_100_)"><path class="st12" d="M81.2 70.9h12.7V82H81.2z"/></g></g></g><g><defs><path id="SVGID_101_" d="M92.8 75.9c-.2 0-.3-.1-.3-.3 0-.2.1-.3.3-.4 1-.1 1.8-.2 2.6-.3.2 0 .3.2.3.4 0 .1-.1.3-.3.3-.7 0-1.6.2-2.6.3"/></defs><clipPath id="SVGID_102_"><use xlink:href="#SVGID_101_" overflow="visible"/></clipPath><g clip-path="url(#SVGID_102_)"><defs><path id="SVGID_103_" d="M-596.5-1054.3h1600v3428h-1600z"/></defs><clipPath id="SVGID_104_"><use xlink:href="#SVGID_103_" overflow="visible"/></clipPath><g clip-path="url(#SVGID_104_)"><path class="st12" d="M87.5 69.9h13.3v11H87.5z"/></g></g></g><g><defs><path id="SVGID_105_" d="M94.6 78.2c-.2 0-.3-.1-.4-.3 0-.2.1-.3.3-.4l7.1-1.4c.2 0 .4.1.4.3s-.1.4-.3.4l-7.1 1.4"/></defs><clipPath id="SVGID_106_"><use xlink:href="#SVGID_105_" overflow="visible"/></clipPath><g clip-path="url(#SVGID_106_)"><defs><path id="SVGID_107_" d="M-596.5-1054.3h1600v3428h-1600z"/></defs><clipPath id="SVGID_108_"><use xlink:href="#SVGID_107_" overflow="visible"/></clipPath><g clip-path="url(#SVGID_108_)"><path class="st12" d="M89.3 71.1h17.8v12.1H89.3z"/></g></g></g><g><defs><path id="SVGID_109_" d="M86.6 94.7c-1 0-2-.4-3.3-1.7-1.6-1.8-2.8-3.9-3.5-6.1 0-.2.1-.4.3-.4.2 0 .4.1.4.3.7 2.2 1.9 4.2 3.4 5.9 1.9 1.9 2.8 1.7 4.6 1.2l.4-.1c4.6-1.6 9-3.5 13.4-5.8 1.4-.9 2.3-2.6 3.3-4.6.1-.2.3-.2.4-.2.2.1.2.3.2.5-1 2.1-2 3.8-3.6 4.8-4.4 2.3-8.9 4.2-13.6 5.8l-.4.1c-.7.2-1.3.4-2 .3"/></defs><clipPath id="SVGID_110_"><use xlink:href="#SVGID_109_" overflow="visible"/></clipPath><g clip-path="url(#SVGID_110_)"><defs><path id="SVGID_111_" d="M-596.5-1054.3h1600v3428h-1600z"/></defs><clipPath id="SVGID_112_"><use xlink:href="#SVGID_111_" overflow="visible"/></clipPath><g clip-path="url(#SVGID_112_)"><path class="st12" d="M74.8 78.2h36.3v21.6H74.8z"/></g></g></g><g><defs><path id="SVGID_113_" d="M86.3 93.7c-1 0-2-.4-3.3-1.7-.3-.3-.6-.6-.8-1-.1-.1-.1-.4.1-.5.1-.1.4-.1.5.1.2.3.5.6.8.9 1.9 1.9 2.8 1.7 4.6 1.2l.4-.1c4.6-1.6 9-3.5 13.4-5.8 1.4-1.1 2.5-2.5 3.1-4.2.1-.2.3-.2.4-.2.2.1.2.3.2.5-.7 1.8-1.9 3.3-3.4 4.5-4.4 2.3-8.9 4.2-13.6 5.8l-.4.1c-.7.3-1.3.4-2 .4"/></defs><clipPath id="SVGID_114_"><use xlink:href="#SVGID_113_" overflow="visible"/></clipPath><g clip-path="url(#SVGID_114_)"><defs><path id="SVGID_115_" d="M-596.5-1054.3h1600v3428h-1600z"/></defs><clipPath id="SVGID_116_"><use xlink:href="#SVGID_115_" overflow="visible"/></clipPath><g clip-path="url(#SVGID_116_)"><path class="st12" d="M77.1 77.5h33.5v21.2H77.1z"/></g></g></g><g><defs><path id="SVGID_117_" d="M72.6 78.1h33.8v20.1H72.6z"/></defs><clipPath id="SVGID_118_"><use xlink:href="#SVGID_117_" overflow="visible"/></clipPath><g clip-path="url(#SVGID_118_)"><defs><path id="SVGID_119_" d="M72.5 77.7h34v21h-34z"/></defs><clipPath id="SVGID_120_"><use xlink:href="#SVGID_119_" overflow="visible"/></clipPath><g clip-path="url(#SVGID_120_)"><defs><path id="SVGID_121_" d="M84.2 98.3c-.7.1-1.3-.1-1.9-.5-2.9-4.2-5.5-8.5-7.9-13-.8-2-1.5-4.1-1.9-6.2 0-.2.1-.3.3-.4.2 0 .3.1.4.3.4 2.1 1 4.1 1.8 6 2.3 4.4 4.9 8.7 7.7 12.8.4.4 2 .4 3 .2 7.7-2.8 19.4-7.2 20.1-7.7.1-.1.4-.1.5 0 .1.1.1.4 0 .5-.9.7-18.4 7-20.3 7.7-.6.2-1.2.2-1.8.3"/></defs><clipPath id="SVGID_122_"><use xlink:href="#SVGID_121_" overflow="visible"/></clipPath><g clip-path="url(#SVGID_122_)"><defs><path id="SVGID_123_" d="M72.5 77.7h34v21h-34z"/></defs><clipPath id="SVGID_124_"><use xlink:href="#SVGID_123_" overflow="visible"/></clipPath><g clip-path="url(#SVGID_124_)"><path class="st12" d="M67.6 73.1h43.8v30.1H67.6z"/></g></g></g></g></g><g><defs><path id="SVGID_125_" d="M77.8 80c-.1 0-.3-.1-.3-.2-.2-.5-.2-1-.3-1.5 0-.2 0-.4-.1-.5 0-.2.1-.4.3-.4s.4.1.4.3c0 .2 0 .4.1.5 0 .5.1.9.2 1.4.1.2 0 .4-.2.4h-.1"/></defs><clipPath id="SVGID_126_"><use xlink:href="#SVGID_125_" overflow="visible"/></clipPath><g clip-path="url(#SVGID_126_)"><defs><path id="SVGID_127_" d="M-596.5-1054.3h1600v3428h-1600z"/></defs><clipPath id="SVGID_128_"><use xlink:href="#SVGID_127_" overflow="visible"/></clipPath><g clip-path="url(#SVGID_128_)"><path class="st12" d="M72.2 72.4h11V85h-11z"/></g></g></g><g><defs><path id="SVGID_129_" d="M56.7 80c-.2 0-.3-.1-.3-.2-.4-1.8-.7-3.6-.9-5.5 0-.1-.4-5.7 1-5.8.1 0 6.5-.6 7.7 0 .7.2 1.5.2 2.2-.1.3-.1.7-.2 1-.2.2 0 .3.1.3.3 0 .2-.1.3-.3.4h-.1c-.3 0-.6.1-.8.2-.8.3-1.8.4-2.6.1-.8-.4-5.5-.1-7.4 0-.3.2-.6 2.4-.4 5.1.1 1.7.4 3.4.8 5.1 3.6-.1 7.5-.3 7.9-.7.9-.7 4.1-1 4.4-1 .2 0 .3.1.4.3 0 .2-.1.3-.3.4-1.3.1-3.5.5-4.1.9-.8.5-7.2.6-8.5.7z"/></defs><clipPath id="SVGID_130_"><use xlink:href="#SVGID_129_" overflow="visible"/></clipPath><g clip-path="url(#SVGID_130_)"><defs><path id="SVGID_131_" d="M-596.5-1054.3h1600v3428h-1600z"/></defs><clipPath id="SVGID_132_"><use xlink:href="#SVGID_131_" overflow="visible"/></clipPath><g clip-path="url(#SVGID_132_)"><path class="st12" d="M50.5 63.1h24.2V85H50.5z"/></g></g></g><g><defs><path id="SVGID_133_" d="M50.8 80.6c-.1 0-.2 0-.2-.1-.1-.1-.1-.2-.1-.3.3-1.6.4-3.2.3-4.8-.2-1.4-.6-2.7-1.2-4-.1-.2 0-.4.1-.5h.1l5.5-.8c.2 0 .4.1.4.3 0 .2-.1.3-.3.4l-5.1.8c.6 1.2.9 2.5 1.1 3.8.1 1.5 0 3-.3 4.5l4.9-.8c.2 0 .3.1.4.3 0 .2-.1.3-.3.4l-5.3.8"/></defs><clipPath id="SVGID_134_"><use xlink:href="#SVGID_133_" overflow="visible"/></clipPath><g clip-path="url(#SVGID_134_)"><defs><path id="SVGID_135_" d="M-596.5-1054.3h1600v3428h-1600z"/></defs><clipPath id="SVGID_136_"><use xlink:href="#SVGID_135_" overflow="visible"/></clipPath><g clip-path="url(#SVGID_136_)"><path class="st12" d="M44.5 65.1h16.9v20.4H44.5z"/></g></g></g><g><defs><path id="SVGID_137_" d="M13.5 70.8h36.7v20H13.5z"/></defs><clipPath id="SVGID_138_"><use xlink:href="#SVGID_137_" overflow="visible"/></clipPath><g clip-path="url(#SVGID_138_)"><defs><path id="SVGID_139_" d="M12.5 70.7h38v21h-38z"/></defs><clipPath id="SVGID_140_"><use xlink:href="#SVGID_139_" overflow="visible"/></clipPath><g clip-path="url(#SVGID_140_)"><defs><path id="SVGID_141_" d="M18.8 90.8c-.1 0-.3 0-.4-.1-2.2-.6-3.3-3-4.1-4.8l-.2-.4c-.5-1.2-.7-2.4-.7-3.7.2-1 1.1-1.8 2.1-1.9.2 0 .4.1.5.2.2-.1.3-.2.4-.4.2-.2.4-.4.6-.5.3-.2.7-.2 1.1-.1.1 0 .2.1.4.1.1 0 .4-.2.5-.4l.4-.4c.4-.2.8-.2 1.2-.2.2.1.4.1.7 0 .2-.1.3-.2.5-.3.3-.2.6-.4 1-.5h.8c.2 0 .5 0 .7-.1.2-.1.4-.3.6-.4.3-.3.8-.5 1.2-.7.2 0 .5 0 .7.1h.4c.4-.1.8-.3 1.1-.5.4-.3.8-.5 1.2-.6.2 0 .5 0 .7.1.1 0 .2.1.3.1.3 0 .5-.2.7-.3.3-.2.6-.3.9-.4.3-.1.5-.1.8 0h.4l.6-.3c.3-.3.6-.4 1-.5.2 0 .5 0 .7.1.1 0 .2.1.3.1.3-.1.5-.3.7-.5.2-.2.4-.4.7-.5.5-.2 1-.3 1.6-.2h.6c.4-.1.8-.3 1.1-.6.3-.2.6-.4 1-.5 1.6-.4 3.2-.7 4.8-.7h.8c.2 0 .4 0 .6-.1.6-.1 1.2-.1 1.9 0 .2 0 .3.2.2.4 0 .2-.2.3-.4.2-.5-.1-1.1-.1-1.6 0l-.7.1h-.8c-1.6 0-3.1.2-4.6.7-.3.1-.6.3-.8.5-.4.3-.9.5-1.4.7H39c-.4-.1-.8 0-1.2.2-.2.1-.4.3-.6.5-.3.3-.6.5-.9.7-.2.1-.5.1-.8 0-.1-.1-.2-.1-.4-.1-.3.1-.5.2-.7.4-.3.3-.6.4-1 .5-.2 0-.4 0-.6-.1h-.5c-.2.1-.5.2-.7.3-.3.2-.7.4-1 .4-.2 0-.4 0-.5-.1 0-.3-.1-.3-.2-.3-.4.1-.7.3-1 .5-.4.3-.9.6-1.5.7-.2 0-.4 0-.5-.1h-.4c-.3.1-.6.3-.9.5-.2.2-.5.4-.8.5-.3.1-.7.1-1 .1h-.6c-.3.1-.5.2-.7.4-.2.1-.4.3-.6.4-.3.2-.7.2-1.1.1-.3-.1-.5 0-.8.1l-.3.3c-.2.3-.6.5-1 .6-.2 0-.4 0-.6-.1-.2-.1-.4-.1-.5 0-.2.1-.3.3-.4.4-.2.2-.4.4-.7.6-.2.1-.5.1-.7-.1h-.1c-.7.1-1.3.6-1.5 1.3 0 1.1.2 2.3.7 3.3l.2.4c.7 1.7 1.8 3.9 3.7 4.4.5.1.8-.1 1.3-.6.3-.4.7-.6 1.2-.7.4 0 .8-.2 1.1-.5.3-.3.6-.4 1-.6.6-.2 1.1-.3 1.7-.4.6-.1 1.2-.2 1.8-.4.2-.1.4-.2.5-.4.2-.2.4-.3.6-.5.2-.1.5-.1.7 0h.5c.1 0 .3-.2.5-.4.6-.5.9-.7 1.1-.6.5.1 1.1-.1 1.5-.4.3-.2.7-.4 1.1-.5.2-.1.5-.1.7 0 .3.1.5.1.8 0 .2-.1.3-.2.4-.3.2-.2.3-.3.5-.4.5-.2 1.1-.3 1.6-.3.4 0 .7 0 1.1-.1.1-.1.2-.1.3-.2.2-.2.4-.3.7-.4h.3c1.2-.1 2.5-.2 3.7-.4.5-.1 1.1-.3 1.7-.4 1.6-.3 3.1-.8 4.6-1.5.2-.1.4 0 .5.1.1.2 0 .4-.1.5-1.5.7-3.1 1.3-4.8 1.6-.6.1-1.1.2-1.6.4-1.3.2-2.6.4-3.9.4h-.3c-.1.1-.2.1-.3.2-.2.1-.3.2-.5.3-.4.1-.8.2-1.2.2-.5 0-.9.1-1.3.3-.1.1-.3.2-.4.3-.2.2-.4.4-.7.5-.4.1-.8.1-1.2 0h-.4c-.3.1-.6.3-.9.5-.6.4-1.3.6-1.9.4-.2.2-.5.3-.7.5-.2.2-.4.3-.7.5-.3.1-.6.1-.9 0h-.3c-.1.1-.3.2-.4.3-.2.2-.5.4-.8.6-.6.2-1.2.3-1.9.4-.6.1-1.1.2-1.6.4-.3.1-.5.2-.8.4-.4.4-.9.6-1.4.6-.2 0-.5.3-.8.5-.5.3-1.1.6-1.7.6"/></defs><clipPath id="SVGID_142_"><use xlink:href="#SVGID_141_" overflow="visible"/></clipPath><g clip-path="url(#SVGID_142_)"><defs><path id="SVGID_143_" d="M13.5 70.7h37v21h-37z"/></defs><clipPath id="SVGID_144_"><use xlink:href="#SVGID_143_" overflow="visible"/></clipPath><g clip-path="url(#SVGID_144_)"><path class="st12" d="M8.5 65.8h46.7v30H8.5z"/></g></g></g></g></g><g><defs><path id="SVGID_145_" d="M103.2 65c-.6 0-1.2 0-1.8-.1-.2 0-.3-.2-.3-.4s.2-.3.4-.3c4.9.5 9.9-1.3 13.3-4.8.1-.1.3-.1.5 0 .1.1.1.3 0 .5-3.2 3.2-7.5 5.1-12.1 5.1"/></defs><clipPath id="SVGID_146_"><use xlink:href="#SVGID_145_" overflow="visible"/></clipPath><g clip-path="url(#SVGID_146_)"><defs><path id="SVGID_147_" d="M-596.5-1054.3h1600v3428h-1600z"/></defs><clipPath id="SVGID_148_"><use xlink:href="#SVGID_147_" overflow="visible"/></clipPath><g clip-path="url(#SVGID_148_)"><path class="st12" d="M96.1 54.3h24.3V70H96.1z"/></g></g></g><g><defs><path id="SVGID_149_" d="m131.5 72.4-2.6-.6c-.2 0-.3-.2-.2-.4 0-.2.2-.3.4-.2l2.4.6c.2 0 .3.2.2.4 0 .1-.2.2-.2.2"/></defs><clipPath id="SVGID_150_"><use xlink:href="#SVGID_149_" overflow="visible"/></clipPath><g clip-path="url(#SVGID_150_)"><defs><path id="SVGID_151_" d="M-596.5-1054.3h1600v3428h-1600z"/></defs><clipPath id="SVGID_152_"><use xlink:href="#SVGID_151_" overflow="visible"/></clipPath><g clip-path="url(#SVGID_152_)"><path class="st12" d="M123.6 66.1h13.1v11.3h-13.1z"/></g></g></g><g><defs><path id="SVGID_153_" d="m130.6 78.9-3.4-.9c-.2-.1-.3-.2-.2-.4 0-.2.2-.3.4-.2l3.3.9c.2 0 .3.2.2.4 0 .2-.1.3-.3.2"/></defs><clipPath id="SVGID_154_"><use xlink:href="#SVGID_153_" overflow="visible"/></clipPath><g clip-path="url(#SVGID_154_)"><defs><path id="SVGID_155_" d="M-596.5-1054.3h1600v3428h-1600z"/></defs><clipPath id="SVGID_156_"><use xlink:href="#SVGID_155_" overflow="visible"/></clipPath><g clip-path="url(#SVGID_156_)"><path class="st12" d="M121.9 72.4h14V84h-14z"/></g></g></g><g><defs><path id="SVGID_157_" d="M19.7 89.1c-.1 0-.2-.1-.3-.1-.3-.4-.5-.8-.8-1.2-1.4-2-2.7-3.9-2.7-6.8 0-.2.1-.3.3-.3.2 0 .3.1.3.3 0 2.7 1.2 4.4 2.6 6.4.3.4.6.8.8 1.2.1.2.1.4-.1.5h-.1"/></defs><clipPath id="SVGID_158_"><use xlink:href="#SVGID_157_" overflow="visible"/></clipPath><g clip-path="url(#SVGID_158_)"><defs><path id="SVGID_159_" d="M-596.5-1054.3h1600v3428h-1600z"/></defs><clipPath id="SVGID_160_"><use xlink:href="#SVGID_159_" overflow="visible"/></clipPath><g clip-path="url(#SVGID_160_)"><path class="st12" d="M10.9 75.7H25v18.4H10.9z"/></g></g></g><g><defs><path id="SVGID_161_" d="M22.4 88.1c-.1 0-.1 0-.2-.1-2.2-1.6-3.9-5.6-3.9-8 0-.2.2-.3.3-.3.2 0 .3.2.3.3 0 2.2 1.6 6 3.7 7.5.2.1.2.3.1.5-.1.1-.2.2-.3.1"/></defs><clipPath id="SVGID_162_"><use xlink:href="#SVGID_161_" overflow="visible"/></clipPath><g clip-path="url(#SVGID_162_)"><defs><path id="SVGID_163_" d="M-596.5-1054.3h1600v3428h-1600z"/></defs><clipPath id="SVGID_164_"><use xlink:href="#SVGID_163_" overflow="visible"/></clipPath><g clip-path="url(#SVGID_164_)"><path class="st12" d="M13.3 74.7h14.5v18.4H13.3z"/></g></g></g><g><defs><path id="SVGID_165_" d="M24.8 87.2c-.1 0-.2 0-.2-.1-1.8-1.8-3.9-5-3.9-8.1 0-.2.2-.3.4-.3.1 0 .3.1.3.3 0 2.9 2 5.9 3.6 7.6.1.1.1.3 0 .5 0 0-.1.1-.2.1"/></defs><clipPath id="SVGID_166_"><use xlink:href="#SVGID_165_" overflow="visible"/></clipPath><g clip-path="url(#SVGID_166_)"><defs><path id="SVGID_167_" d="M-596.5-1054.3h1600v3428h-1600z"/></defs><clipPath id="SVGID_168_"><use xlink:href="#SVGID_167_" overflow="visible"/></clipPath><g clip-path="url(#SVGID_168_)"><path class="st12" d="M15.7 73.7h14.4v18.5H15.7z"/></g></g></g><g><defs><path id="SVGID_169_" d="M27.8 86.4h-.1c-1.9-1-3-4-3.6-5.8-.4-.8-.5-1.7-.4-2.6.1-.2.2-.3.4-.2.2 0 .3.2.2.4-.1.8 0 1.5.3 2.2.6 1.6 1.6 4.6 3.3 5.4.2.1.2.3.2.4-.1.1-.2.2-.3.2"/></defs><clipPath id="SVGID_170_"><use xlink:href="#SVGID_169_" overflow="visible"/></clipPath><g clip-path="url(#SVGID_170_)"><defs><path id="SVGID_171_" d="M-596.5-1054.3h1600v3428h-1600z"/></defs><clipPath id="SVGID_172_"><use xlink:href="#SVGID_171_" overflow="visible"/></clipPath><g clip-path="url(#SVGID_172_)"><path class="st12" d="M18.6 72.7h14.5v18.7H18.6z"/></g></g></g><g><defs><path id="SVGID_173_" d="M30.1 85.1c-.1 0-.1 0-.2-.1-1.6-1-2.6-4.2-3-5.9l-.1-.6c-.2-.5-.2-1.1-.2-1.6 0-.2.2-.3.3-.3.2 0 .3.1.3.3 0 .5.1 1 .2 1.5l.1.6c.3 1.5 1.3 4.5 2.7 5.5.1.1.2.3.1.5 0 0-.1.1-.2.1"/></defs><clipPath id="SVGID_174_"><use xlink:href="#SVGID_173_" overflow="visible"/></clipPath><g clip-path="url(#SVGID_174_)"><defs><path id="SVGID_175_" d="M-596.5-1054.3h1600v3428h-1600z"/></defs><clipPath id="SVGID_176_"><use xlink:href="#SVGID_175_" overflow="visible"/></clipPath><g clip-path="url(#SVGID_176_)"><path class="st12" d="M21.5 71.6h13.9v18.5H21.5z"/></g></g></g><g><defs><path id="SVGID_177_" d="M32.9 84.1c-.1 0-.2 0-.2-.1-2.2-2.2-3.1-5.8-3.1-8.3 0-.2.1-.4.3-.4.2 0 .4.1.4.3v.1c0 2.4.8 5.7 2.9 7.9.1.1.1.3 0 .5-.1-.1-.2 0-.3 0"/></defs><clipPath id="SVGID_178_"><use xlink:href="#SVGID_177_" overflow="visible"/></clipPath><g clip-path="url(#SVGID_178_)"><defs><path id="SVGID_179_" d="M-596.5-1054.3h1600v3428h-1600z"/></defs><clipPath id="SVGID_180_"><use xlink:href="#SVGID_179_" overflow="visible"/></clipPath><g clip-path="url(#SVGID_180_)"><path class="st12" d="M24.6 70.3h13.6v18.8H24.6z"/></g></g></g><g><defs><path id="SVGID_181_" d="M35.5 83.2c-.1 0-.2 0-.2-.1-2-2-2.9-5.5-2.9-8 0-.2.2-.3.4-.3.1 0 .3.1.3.3 0 2.4.9 5.8 2.7 7.5.1.1.1.3 0 .5-.2 0-.3.1-.3.1"/></defs><clipPath id="SVGID_182_"><use xlink:href="#SVGID_181_" overflow="visible"/></clipPath><g clip-path="url(#SVGID_182_)"><defs><path id="SVGID_183_" d="M-596.5-1054.3h1600v3428h-1600z"/></defs><clipPath id="SVGID_184_"><use xlink:href="#SVGID_183_" overflow="visible"/></clipPath><g clip-path="url(#SVGID_184_)"><path class="st12" d="M27.4 69.8h13.4v18.4H27.4z"/></g></g></g><g><defs><path id="SVGID_185_" d="M38.1 82.5c-.1 0-.1 0-.2-.1-1.8-1.4-2.7-6.5-2.7-7.9 0-.2.1-.3.3-.3.2 0 .3.1.3.3 0 1.4.9 6.2 2.4 7.3.1.1.2.3.1.5 0 .1-.1.2-.2.2"/></defs><clipPath id="SVGID_186_"><use xlink:href="#SVGID_185_" overflow="visible"/></clipPath><g clip-path="url(#SVGID_186_)"><defs><path id="SVGID_187_" d="M-596.5-1054.3h1600v3428h-1600z"/></defs><clipPath id="SVGID_188_"><use xlink:href="#SVGID_187_" overflow="visible"/></clipPath><g clip-path="url(#SVGID_188_)"><path class="st12" d="M30.2 69.2h13.2v18.3H30.2z"/></g></g></g><g><defs><path id="SVGID_189_" d="M40.3 82.1c-.1 0-.2 0-.2-.1-1.7-1.7-2.9-7.1-2.3-8.4.1-.2.2-.3.4-.2.2.1.3.2.2.4-.4 1 .7 6.1 2.2 7.6.1.1.1.3 0 .5s-.2.2-.3.2"/></defs><clipPath id="SVGID_190_"><use xlink:href="#SVGID_189_" overflow="visible"/></clipPath><g clip-path="url(#SVGID_190_)"><defs><path id="SVGID_191_" d="M-596.5-1054.3h1600v3428h-1600z"/></defs><clipPath id="SVGID_192_"><use xlink:href="#SVGID_191_" overflow="visible"/></clipPath><g clip-path="url(#SVGID_192_)"><path class="st12" d="M32.7 68.4h13v18.7h-13z"/></g></g></g><g><defs><path id="SVGID_193_" d="M42.2 82c-.1 0-.2 0-.2-.1-2.1-2.1-2.9-6.8-2-9 .1-.2.3-.3.4-.2.2.1.3.3.2.4-.8 2-.1 6.4 1.9 8.3.1.1.1.3 0 .5-.2.1-.2.1-.3.1"/></defs><clipPath id="SVGID_194_"><use xlink:href="#SVGID_193_" overflow="visible"/></clipPath><g clip-path="url(#SVGID_194_)"><defs><path id="SVGID_195_" d="M-596.5-1054.3h1600v3428h-1600z"/></defs><clipPath id="SVGID_196_"><use xlink:href="#SVGID_195_" overflow="visible"/></clipPath><g clip-path="url(#SVGID_196_)"><path class="st12" d="M34.6 67.6h12.9v19.3H34.6z"/></g></g></g><g><defs><path id="SVGID_197_" d="M55.7 26.7c6 6.8 9.8 11 10.2 11.4l1.7 1.2c1.5 1.1 3.1 2.3 4.8 3.3 2.1 1.2 4.2 2.2 6.5 3.1 1.4.6 2.9 1.2 4.3 1.9 1.2.6 2.3 1.3 3.3 2.1.8.5 1.6 1.1 2.4 1.6 1.4.8 2.8 1.5 4.2 2.2l1.4.7c.9.4 1.7.9 2.4 1.6.1.1.2.1.3.2.1 0 .1 0 .2-.1s.2-.3.1-.5c-.7-.8-1.6-1.4-2.6-1.9l-1.4-.7c-1.4-.7-2.9-1.4-4.2-2.2-.8-.5-1.6-1-2.4-1.6-1.1-.8-2.2-1.5-3.4-2.2-1.4-.7-2.9-1.3-4.4-1.9-2.2-.8-4.3-1.8-6.4-3-1.6-1-3.2-2.2-4.7-3.3-.6-.4-1.1-.8-1.7-1.2-.6-.4-5.4-5.9-10.2-11.3"/></defs><clipPath id="SVGID_198_"><use xlink:href="#SVGID_197_" overflow="visible"/></clipPath><g clip-path="url(#SVGID_198_)"><defs><path id="SVGID_199_" d="M-596.5-1054.3h1600v3428h-1600z"/></defs><clipPath id="SVGID_200_"><use xlink:href="#SVGID_199_" overflow="visible"/></clipPath><g clip-path="url(#SVGID_200_)"><path class="st12" d="M50.7 21.3h51.9V61H50.7z"/></g></g></g><g><defs><path id="SVGID_201_" d="M97.5 75.2h-.2c-1.2-.1-2.3-.7-3.1-1.6-.9-1.2-1.6-2.5-2.1-4-.4-1.6-1.3-3.1-2.5-4.3-.2-.2-.4-.4-.6-.7-.3-.4-.7-.8-1.2-1.1-1.5-.5-3-.7-4.5-.7-1.2 0-2.3-.1-3.5-.3-1.7-.5-3.2-1.3-4.5-2.3-.2-.1-.2-.3-.1-.5.1-.1.3-.2.4-.1 1.3 1 2.8 1.8 4.3 2.3 1.1.2 2.2.3 3.3.3 1.6 0 3.2.2 4.8.7.6.3 1.1.7 1.5 1.2l.6.6c1.3 1.3 2.2 2.9 2.6 4.6.4 1.4 1.1 2.7 1.9 3.8.7.8 1.6 1.3 2.6 1.4.4 0 .9-.1 1.2-.4.4-.4.3-1.6.2-2.6-.1-.4-.1-.9-.1-1.3s.1-.8.1-1.2c.3-1.8.2-3.7-.3-5.4-.6-1.1-1.3-2.2-2.3-3l-.5-.5c-1.8-1.9-4-4.6-4.7-6.4-.1-.2 0-.4.2-.4.2-.1.4 0 .4.2.7 1.8 2.8 4.3 4.6 6.2l.5.5c1 .9 1.8 2 2.4 3.2.7 1.7.5 3.8.3 5.6 0 .4-.1.8-.1 1.2 0 .4 0 .8.1 1.2.1 1.2.3 2.5-.4 3.1-.2.5-.8.7-1.3.7"/></defs><clipPath id="SVGID_202_"><use xlink:href="#SVGID_201_" overflow="visible"/></clipPath><g clip-path="url(#SVGID_202_)"><defs><path id="SVGID_203_" d="M-596.5-1054.3h1600v3428h-1600z"/></defs><clipPath id="SVGID_204_"><use xlink:href="#SVGID_203_" overflow="visible"/></clipPath><g clip-path="url(#SVGID_204_)"><path class="st12" d="M70.1 48.4h34.4v31.8H70.1z"/></g></g></g><g><defs><path id="SVGID_205_" d="M64.5 60.6c-.5-.7-.8-1.2-1.1-1.5-.1-.1-.4-.3-1.8-1.5-29.7-24.4-30-26.2-35.3-34h-.8c5.3 7.7 5.5 9.7 35.7 34.5 1 .8 1.7 1.4 1.8 1.4.3.3.6.9 1.1 1.5 1.4 2.1 3 4.1 4.9 5.8.1 0 .1.1.2.1.2 0 .3-.2.3-.3 0-.1 0-.2-.1-.3-2-1.7-3.6-3.6-4.9-5.7"/></defs><clipPath id="SVGID_206_"><use xlink:href="#SVGID_205_" overflow="visible"/></clipPath><g clip-path="url(#SVGID_206_)"><defs><path id="SVGID_207_" d="M-596.5-1054.3h1600v3428h-1600z"/></defs><clipPath id="SVGID_208_"><use xlink:href="#SVGID_207_" overflow="visible"/></clipPath><g clip-path="url(#SVGID_208_)"><path class="st12" d="M20.4 18.5h54v53.4h-54z"/></g></g></g><g><defs><path id="SVGID_209_" d="M100.7 81c-.6 0-1.3-.1-1.9-.3-.2-.1-.4-.1-.6-.2-.7-.1-1.4-.4-1.8-.9-.6-.8.3-2.1 1-2.5 1.6-1.2 3.2-.8 4.8-.3h.1c.2 0 .3.2.2.4 0 .2-.2.3-.4.2h-.1c-1.6-.4-2.9-.7-4.3.2-.5.3-1.1 1.2-.8 1.6.4.4.9.6 1.4.6l.7.2c1.2.5 2.7.4 3.8-.3.2-.1.4-.1.5.1.1.2.1.4-.1.5-.7.5-1.6.8-2.5.7"/></defs><clipPath id="SVGID_210_"><use xlink:href="#SVGID_209_" overflow="visible"/></clipPath><g clip-path="url(#SVGID_210_)"><defs><path id="SVGID_211_" d="M-596.5-1054.3h1600v3428h-1600z"/></defs><clipPath id="SVGID_212_"><use xlink:href="#SVGID_211_" overflow="visible"/></clipPath><g clip-path="url(#SVGID_212_)"><path class="st12" d="M91.2 71.4h17.2v14.7H91.2z"/></g></g></g><g><defs><path id="SVGID_213_" d="M93.3 83.5c-2.1 0-3.2-1.8-4.1-3.3-.6-1-1.4-2.3-.9-3.7.3-.8 1-1.5 1.8-1.6 1.6-.1 3.3.5 4.4 1.7l.1.1c.7.7 1.3 1.5 1.8 2.3.1.2 0 .4-.2.4-.1 0-.3 0-.4-.1-.5-.8-1-1.5-1.7-2.2V77c-1-1-2.3-1.6-3.8-1.5-.6.1-1.2.6-1.4 1.2-.4 1.1.3 2.2.8 3.1 1.2 2 2.2 3.3 4.2 2.9.8-.2 1.4-.7 1.9-1.4.4-.6.9-1 1.5-1.3.2-.1.4 0 .4.1.1.2 0 .4-.2.4-.5.3-.9.7-1.3 1.2-.5.8-1.3 1.4-2.3 1.7 0 .1-.3.1-.6.1"/></defs><clipPath id="SVGID_214_"><use xlink:href="#SVGID_213_" overflow="visible"/></clipPath><g clip-path="url(#SVGID_214_)"><defs><path id="SVGID_215_" d="M-596.5-1054.3h1600v3428h-1600z"/></defs><clipPath id="SVGID_216_"><use xlink:href="#SVGID_215_" overflow="visible"/></clipPath><g clip-path="url(#SVGID_216_)"><path class="st12" d="M83.1 69.8h19.7v18.7H83.1z"/></g></g></g><g><defs><path id="SVGID_217_" d="M87.5 84.7c-.9 0-1.7-.4-2.4-.9-1.7-1.4-2.6-3.7-2.2-5.9.1-.8.7-1.5 1.5-1.7 1.5-.3 2.9.2 4 1.2.1.1.1.3 0 .5-.1.1-.3.1-.5 0-.9-.9-2.1-1.2-3.3-1.1-.6.1-1 .6-1.1 1.2-.3 2 .5 3.9 2 5.2.9.8 2.1 1 3.2.5l.1-.1c.7-.2 1.2-.6 1.6-1.2.1-.2.3-.2.4-.2.2.1.2.3.1.4-.4.7-1.1 1.3-1.9 1.5h-.1c-.4.5-.9.6-1.4.6"/></defs><clipPath id="SVGID_218_"><use xlink:href="#SVGID_217_" overflow="visible"/></clipPath><g clip-path="url(#SVGID_218_)"><defs><path id="SVGID_219_" d="M-596.5-1054.3h1600v3428h-1600z"/></defs><clipPath id="SVGID_220_"><use xlink:href="#SVGID_219_" overflow="visible"/></clipPath><g clip-path="url(#SVGID_220_)"><path class="st12" d="M77.7 71.1H96v18.6H77.7z"/></g></g></g><g><defs><path id="SVGID_221_" d="M81.6 86c-.2 0-.3-.1-.3-.2 0-.2.1-.4.2-.4l2.7-.7.5-.2.3-.3.1-.3c0-.2.2-.3.4-.2.2 0 .3.2.2.4l-.1.4c0 .1 0 .1-.1.2l-.4.4s-.1 0-.1.1l-.6.3h-.1l-2.7.5"/></defs><clipPath id="SVGID_222_"><use xlink:href="#SVGID_221_" overflow="visible"/></clipPath><g clip-path="url(#SVGID_222_)"><defs><path id="SVGID_223_" d="M-596.5-1054.3h1600v3428h-1600z"/></defs><clipPath id="SVGID_224_"><use xlink:href="#SVGID_223_" overflow="visible"/></clipPath><g clip-path="url(#SVGID_224_)"><path class="st12" d="M76.3 78.6h14.4V91H76.3z"/></g></g></g></g></g></svg>