<svg version="1.1" id="Layer_1" xmlns="http://www.w3.org/2000/svg" x="0" y="0" viewBox="0 0 150 120" xml:space="preserve"><style>.st0,.st1{fill-rule:evenodd;clip-rule:evenodd;fill:#ffedde}.st1{fill:#936c51}.st10,.st12,.st2,.st3,.st4,.st8,.st9{fill-rule:evenodd;clip-rule:evenodd;fill:#ffd5e3}.st10,.st12,.st3,.st4,.st8,.st9{fill:#fff}.st10,.st12,.st4,.st8,.st9{fill:#00284c}.st10,.st12,.st8,.st9{fill:#86d1b8}.st10,.st12,.st9{fill:#b1c2d2}.st10,.st12{fill:#7a8b9a}.st12{fill:#ff6b5a}.st13{fill:#365555}.st14{fill-rule:evenodd;clip-rule:evenodd;fill:#335353}.st15{fill:#64cdcf}</style><g id="Layer_2_1_"><g id="Layer_1-2"><g id="_ÎÓÈ_2_1_"><path class="st0" d="M45.5 9.5c-.1-.8 2.5 1.5 2.6.9 0-.2-.6-.7-1.1-1.5-.4-.5-.7-1.1-.8-1.7 0-.2.2-.4.6 0 .8.8 2 2.7 2.1 2.4s-.1-.4-.3-1c-.5-1-.8-2.1-1.1-3.2 0-.4.4-.7.7-.1.4.7.8 2.4 1.2 2.5.1 0 .2-.3.2-.3-.1-.6-.2-1.3-.3-1.9 0-.6.3-.8.4-.6.2.4.4.9.5 1.3.1.3.3.7.6 1.5s.4 1.6.7 2.4c.5 1.1.7 2.7 1.2 3.8.9 2 2 4 3.2 5.8-.1.4-.3.7-.5 1-.2.2-.5.4-.8.5-.6.2-1.2.2-1.8 0 0 0-.8-1.8-1.5-3.4-.4-1.3-1-2.6-1.7-3.8-.3-.4-1-1.2-1.3-1.6-.3-.4-.3-.7-.8-1-.8-.8-1.8-1.1-2-2z"/><path class="st1" d="M60.2 13.9s3-.6 4.2 1.7c.4.7.8 1 1 1.7.2 1 .2 2.1.1 3.1 0 .8-.1 1.7-.2 2.5-.8 2.5-2.7 2.5-2.7 2.5l-.5 1s.7.8.5 1.5c-.1.5-1.3.6-1.3.6s-1.5-2.3-2.5-4.3-2-3.8-2-3.8l3.4-6.5z"/><path class="st0" d="M98.8 18.7c.3-.2.4.5.4 1.2 0 .5-.1.9-.2 1.3 0 0 .9-2 1.2-1.4.1.6 0 1.2-.1 1.8-.1.3-.2.7-.4 1 0 0 .9-.9 1-.6s-.9 1.7-.9 1.7c.5-.1.9-.1 1.4-.1.3 0 .6.1.5.3-.1.2-1 .5-1.2.7-.3.3-.6.6-1 .8-.5.2-1 .5-1.4.8-1.8 2.1-3 3.8-3 3.8-.1-.5-.3-.9-.6-1.3s-.7-.7-1.1-1c1.6-1 3-2.4 4-4.1.5-1.1.8-2.2 1-3.4 0-.3.1-1.3.4-1.5z"/><path class="st1" d="M38.5 70.7c.3.2.6.5.9.7.2.1.5.3.7.3l-1 4.5-1.4-.6c-.6-.8-.8-1.8-.8-2.7.1-1 .7-1.9 1.6-2.2zM49.9 87.7l3.6 1.5c-.3.6-.5 1.2-.7 1.8-.1.4-.2.8-.2 1.2l-2.6.5-1.9-.9 1.8-4.1z"/><path class="st0" d="M98.8 47.2s1.4.5 2.6.8c.7.2 1.4.3 2.2.5.1.7.1 1.5 0 2.2-.1.7-.4 1.3-.7 1.9l-3.2-.4c-.4-.7-.6-1.4-.7-2.2-.3-.9-.3-1.9-.2-2.8zM85.3 65.6c.1-.8.3-1.5.6-2.2.4-.8 1-1.6 1.6-2.3l2.7 3.4c-.4.7-.9 1.3-1.5 1.8-.5.4-1.1.7-1.8.8l-1.6-1.5z"/><path class="st2" d="M87 67.1c.7-.3 1.3-.7 1.9-1.1.5-.4 1-.9 1.4-1.5.4.4.9.8 1.4 1.1.4.3.8.5 1.2.6-.4 1.1-1.1 2-1.9 2.8-.6.5-1.5.6-2.2.3L87 67.1zM103.4 48.4c1.9.2 3.7.1 5.6-.4 1.7-.4 2.9-1.9 4-2.5.6-.2 1.2-.2 1.8 0 0 0 1-.3 1.2.5.2.8-.3 2.8-.9 4-.2.5-.5.9-.9 1.3-.7.4-1.4.8-2 1.3-.9.8-1.6 2.2-2 2.2-1.1-.1-2.3-.4-3.3-.9-1.9-.8-4.7-1.5-4.7-1.5.4-.5.7-1.1.9-1.8.2-.6.3-1.4.3-2.2z"/><path class="st3" d="M34.2 70.2c.4-1.1 1.1-1.5 1.7-1.5 1.3 0 2.6 1.9 2.6 1.9-.9.5-1.5 1.4-1.5 2.4s.3 2 .9 2.8c0 0-.8 1.5-1.6 3.4-.7 1.7-1.4 2.7-2.5 2.6-.8-.3-1.4-.9-1.6-1.7-.2-.5-.3-1.1-.3-1.7.1-1.6.6-3.2 1.4-4.7.4-1 .6-2.8.9-3.5zM48.5 91.5c.4.5.9.8 1.5.8s1.1-.1 1.6-.3h1c.2 1 .6 1.8 1.3 2.5.8.9 2.3 1.4 3.1 2 .3.3.5.7.6 1.1.2.4.2.8 0 1.1-.6.7-1.6 1-2.5.9-1.7-.3-3.3-.8-4.8-1.5-1.2-.5-2.3-.7-3-.9-.2-.1-.3-.2-.5-.3-.1-.8-.1-1.7.1-2.5.6-1 1-2 1.6-2.9z"/><path class="st4" d="m41.7 55.7 17.4.8s.6 3.7 1.1 8.1c.4 2.7.5 5.4.3 8.1-.5 3.8-2.5 7.4-3.8 10.4-.9 2.1-1.6 4.2-2.2 6.3-.8.1-1.6.1-2.4-.2-.9-.4-1.6-1-2.3-1.7.4-2 1-4 1.8-6 .9-2.3 2.4-4.7 2.5-6.3 0-1-.1-1.9-.4-2.8-.5-2.4-1.4-4.6-2.6-6.6-.2 1.6-.3 3.2-.3 4.7 0 3.4.2 7.3-.9 8.3-.7.7-1.6 1.2-2.6 1.2-1.9-.1-4.2-1.6-6-2.3-1-.4-1.7-.4-2-.9-.4-1-.4-2.1-.1-3.1.2-.8.6-1.5 1.2-2 .6-.3 1.4.2 2.1.6.4.2.9.3 1.4.4-1-3.2-1.7-6.5-2.3-9.8-.3-2.5-.3-4.9.1-7.2z"/><path class="st3" d="M44 32.3c-.1-.3-.1-.7 0-1 .4-.6 1.4-1.3 2.4-2.5.7-.9 1.5-1.8 2.3-2.5 1-.7 2.1-1.1 3.3-1.2.7-.1 1.3-.1 2 0l7.2 3.4s.8 0 1.1-.6c.2-.5 0-1-.3-1.3l.3-.5c.7.6 1.4 1.2 2.2 1.7.7.5 1.3 1 1.9 1.6-.3 1.1-.7 2.2-1.2 3.2-.5 1.1-1 1.2-1 1.2s-1 3-2.2 7.5c-.2.8-.4 1.7-.8 2.6-.6 1.4-1.1 2.8-1.5 4.3-.1.8 0 1.5.1 2.3 0 .5-.1 1-.2 1.5-.1.9.1 1.8.6 2.6.3.5.6.7.5 1-.2.8-1.4 1.4-1.4 1.4l-.2-.6c-1.6 1-3.4 1.6-5.2 1.8-3.1.1-6.2-.4-9.1-1.4-1.1-.2-2.1-.7-3-1.2-.6-.5 0-1.1.2-3.2.1-1 0-2.3.2-3.4.3-1.9.8-3.8 1.4-5.7l.4-11z"/><path class="st1" d="M44.8 31.5c1 .4 2 1.1 2.8 1.9.6.7.9 1.6 1 2.5l-3.1 3c.6.8 1.4 1.5 2.2 2.1.8.5 1.8.9 2.7 1.1 0 0 0-.4.7-.6.2 0 .6.1.8.1s.7-.3.9-.3.8.2 1 .2.7-.2.9-.1c.6.1 1 1.8 1 2-.1.4-.2.8-.3 1.1h.6c-.1.3-.3.6-.6.9-.3.2-.7.4-1.1.3-.6 0-.7-.4-.7-.4l-.5-.1c-.2.1-.4.1-.5.2-.2 0-.5-.1-.7-.2 0 0-2.7-.3-2.9-.2-2.3.2-7.4-2.1-8.5-3.4-.4-.4-.7-.8-.9-1.3-.2-.5-.3-1-.2-1.5.1-1.7 1.8-3.1 3.2-4.6.7-.9 1.5-1.8 2.2-2.7z"/><path d="M56.5 14.6c.3-.7 1.1-.9 1.7-1.2.7-.6 1.6-1 2.6-1 .9.2 1.8.6 2.7 1.1.7.3 3.1 2 2.7 3.4-.1.3-.3.5-.7.6 0 0-.3-.9-1.7-.5-.6.1-1.2 0-1.8-.1-.6.2-1.2.6-1.5 1.2-.3.6-.8 1.2-1.4 1.7-.5.3-1.1.4-1.7.2-.3 0-.5.1-.7.3-.3-.5-.5-1.1-.6-1.6-.3-1.5-.2-2.9.4-4.1z" fill-rule="evenodd" clip-rule="evenodd" fill="#365555"/><path d="M68 27.9c.5-.3 1-.5 1.6-.7.7 0 1.5 0 2.2.1.8 0 1.2-.5 1.8-.2 1 .4 1.8 1.1 2.3 2 .3.5.8 2 1.4 3 .6 1 1.1 1.3 1.3 2.5.2 1.2-.8 2.2-1 3.1-.2.7.7 1.5.7 1.5l-2.5.8-8.7-1.4-2.9-5c.5-.3.9-.7 1.1-1.3.6-1.1.8-3.2 2.7-4.4z" fill-rule="evenodd" clip-rule="evenodd" fill="#e1b485"/><path class="st0" d="M71.5 30.4c.4-.1 1-.2 1.5-.4.5-.1.6-.3 1-.2.9.2 1.1 1.1 1.4 1.6.3.6.6 1.3.9 2 .4 1 .5 2 .3 3.1 0 .5-.2 1.1-.4 1.5-.4.5-1 .9-1.6 1l-.8 1.8-1.1.5c-.3-.6-.7-1-1.2-1.4-.7-.5-1.5-.9-2.3-1.3.4-.3.6-.8.8-1.3.1-.7.2-1.4.2-2.1.5-.5.9-1.1 1-1.8-.2-1.2-.9-2.5.3-3z"/><path d="M84.6 41.2s1.4.3 3.6.9c2.5.6 5.9 1.6 7.8 2.1 1.2.3 2.4.3 3.6.1 0 0 .3 0 .6 1 .2.9.3 1.8.4 2.7l-1.8-.6c-.1 1 0 2.1.1 3.1.2.6.4 1.2.7 1.7l.7.3c-1.1 0-2.2-.1-3.3-.2-1.4-.1-2.9-.3-4.3-.6s-2.8-.9-4.1-1.6l-2.5-1.5s.1 1.6.2 3.4c.1 1.8.1 3.9.1 3.9l3.6 3.2c-.1.5-.2 1-.4 1.5-.3.7-.6 1.3-1 1.9l-1.2-1.4c-.6.7-1.1 1.5-1.5 2.3-.3.7-.5 1.4-.6 2.2l1.2 1.1c0 1.1-.1 2.3-.3 3.4-.1 1.3-.8 2.4-1.9 3.1-1.5.9-4.1.6-6.6.6-2.7.1-5.5.6-6.9.4-1.6-.3-3.1-1.3-3.8-2.8-1.3-2.4-2.1-5-2.4-7.7.4-.4.8-.7 1.3-1 .6-.4 1.2-.7 1.9-1 0 0 1.1-10.6 5.3-15.7s11.5-4.8 11.5-4.8z" fill-rule="evenodd" clip-rule="evenodd" fill="#55c7cc"/><path class="st8" d="M88.7 69.4c.6 0 1.2-.1 1.8-.3.4-.2.7-.5.9-.9 0 0 4.3.2 5.9.8 1.6.6.6 1.8.6 1.8L95.8 72l-3.5 1-1.4-.2-2.2-3.4zM106.4 51.4c.8 0 1.7-.1 2.4-.3.9-.4 1.8-.8 2.7-1.1.8-.1 1.3 1 1.3 1-1 .4-1.8 1.1-2.5 1.9-.4.6-1 1.2-1.6 1.6l-1.2-.4c-.8-.3-2.2-.8-2.2-.8s1-.3 1.2-.8c.4-.4-.1-1.1-.1-1.1z"/><path class="st9" d="m63 77.6-2.6-.1-.2-1.2-.5.1-1.3-1.5 9.5-2.2c.9.9 2.1 1.4 3.4 1.5 1.9 0 3.8-.1 5.6-.3 2-.1 3.9 0 5.2-.1 1.8 0 3.3-1.3 3.6-3l3.7.3 1.4 1.8 8.3-1.1 10 .8v.3l-23 2.7-10.8.5c-.8.2-1.6.4-2.3.7-.7.3-1.4.6-2 1.1h-2.6c1.6.9 3.1 1.9 4.5 3 2.4 1.9 8 7 8 7l1 .9.7.7c2.3 2.2 4.3 4.7 6 7.4.3.6.6 1.2.8 1.9 0 0 .1 1 .2 2.7s0 4.2 0 4.2.3.2.3.4-.3.5-.3.5c.2.3.4.7.5 1.1.1.4.1.8 0 1.1l-.5.2c.2.4.4.7.6 1.2l.3 1.5s-.9 1-1.7.3c-.5-.4-2.6-.2-2.6-.2s-.5 0-.4-.7c.1-.5.2-1 .5-1.4.2-.3.5-.5.8-.6-.3-.3-.4-.7-.4-1.1.2-.5.4-.9.8-1.3 0 0-.4-.4-.3-.7 0-.3.5-.4.5-.4s.1-1.9.1-3.3c.2-2.3-.4-4.5-1.8-6.4-.8-1.2-4.5-5.1-4.5-5.1l-1.1-1s-.6-.7-1-1c-2.4-2.4-5-4.7-7.6-6.9-1.5-1.2-3.2-2.2-5.1-2.9-.5-.2-1.1-.3-1.7-.2-1.1.3-1.9 1-2.5 2-1.8 2.9-3.5 6-4.8 9.2-1.8 4-2.7 5.9-2.7 5.9l.2.4-.2.5c.2.3.4.6.5 1 .1.4 0 .8-.1 1.1l-.5.2c.3.3.5.7.7 1.1.1.5.2 1 .2 1.5l-1.6.1-2.8-.2s-.6.2-.5-.7c.1-.4.3-.9.5-1.3.2-.3.4-.5.8-.7-.2-.4-.2-.8-.1-1.2.1-.3.3-.6.6-.9.1-.1.2-.3.2-.4-.1-.2-.1-.4-.1-.7.1-.3.5-.4.5-.4s4.2-9 6.7-13.4c1.9-3.4 3-4.3 3-4.3z"/><path class="st10" d="M51.8 100.4c.2-.3.5-.5.8-.5.4-.1.8-.1 1.1.1.3.4.2 1.1.5 1.6.3.4 1.2.2 1.2.2s.1 2.3-.7 3.1-2.5.2-2.5.2c-.4-.6-.7-1.3-.8-2.1-.2-.8 0-1.8.4-2.6z"/><path d="M67.1 38.7c1-.1 2 0 2.9.3 1 .5 1.9 1.2 2.7 2.1l1-.2.9-2 1-.2.4 1.3c1.3-.3 2.5-.7 3.7-1.3.7-.3 1.3-.7 1.9-1.2 1.5-1.1 3.3-3 5.2-4.6 1.8-1.6 3.6-3 4.7-4 .5-.5 1.1-.9 1.6-1.2.6.1 1.1.4 1.5.9.4.6.6 1.2.8 1.9 0 0-.5.4-1 .9-.7.6-1.4 1.5-2.4 2.4-1.7 1.5-3.2 2.8-3.2 2.8l-4.2 4.5c-1.1-.2-2.2.1-2.9.9-1 1.4-1.8 3-2.2 4.6-.3-.4-.6-.7-1-1-.8-.7-1.9-1-2.9-.7-2 .6-2.6 1.4-4.1 4.4-1.1 2.6-2 5.2-2.7 7.9-.4 1.4-.7 2.9-.9 4.4-.7.3-1.4.6-2 1-.4.3-.8.7-1.1 1.2 0 0-.4 0-.4-.9 0-.3.1-.7 0-1.2 0-.7-.8-2.9-.8-3.8-.2-3.6.2-8.3-.2-12-.2-2-.9-4-1.8-5.8-1.9-4-4.2-7.7-5.8-11.2-.4-.8-.7-1.9-1-2.6-.6-1.4-1.8-3.2-2.3-4.1-.9-1.6-.1-2.3-.1-2.3l.7 1.3c.7.2 1.4.1 2-.1.6-.4.9-1.1 1.1-1.8l.5.6 7.6 13.8 2.8 5z" fill-rule="evenodd" clip-rule="evenodd" fill="#fc9001"/><path class="st12" d="M48 43.3c1-.2 2-.3 3-.3.2.2.3.5.3.8 0 .3 0 .6-.1.9l.7.8c-.3 0-.5.1-.8.2-.3.1-.5.3-.7.5-.5-.2-.9-.5-1.3-.8-.9-.7-1.7-1.6-1.1-2.1zM55.7 43h7l.4 1.2-7.7.1.3-1.3z"/><path class="st3" d="M111.5 46.7c.5-.5 1.2-1 1.9-1.2.5-.1.9 0 1.4.2 0 0 1.1-.3 1.3.4 0 1.3-.3 2.5-.7 3.7-.3.6-.7 1.2-1.2 1.7-.6.5-1.3.5-2.2 1.3-.3.3-1.2 1.6-1.5 1.9-.3.3-1.6-.2-1.6-.2l.9-.8 1-1.5 2-1.3s-.4-.8-.9-.9c-.9 0-1.7.3-2.5.8-1 .4-2.1.6-3.2.5-.3-.6-.5-1.3-.4-1.9.2-.8 1.4-1.2 1.4-1.2 1.6 0 3.1-.5 4.3-1.5zM92.7 66.2c1.5.7 3.1 1.1 4.8 1.1 1.1-.2 2.2-.2 3.2 0 .4.2.8.4 1 .8 0 0 .8.8.6 1.1-.6 1-1.5 1.8-2.6 2.2-1.5.7-3.6.6-4.6 1-1.9.7-3.3 1.3-3.3 1.3l-1-1 1.6-.4 2.2-1.1 3.2-.5c-.1-.4-.2-.8-.5-1.1-.8-.5-1.7-.8-2.6-.7-1.2-.1-2.3-.4-3.4-.9 0-.5.2-.9.4-1.3.3-.2.6-.4 1-.5z"/><path class="st9" d="m85 75.5 1.7-.1c-1 1.9-1.8 4-2.5 6.1-1.4 4.2-3 10.6-3 10.6.1.1.2.2.2.4s0 .3-.1.5l.7 1v1.2l-.5.2c.2.3.3.6.4 1 .1.4.3.9.4 1.3l-1.4.1h-2.5c-.2 0-.3-.1-.4-.2 0-.4.1-.9.3-1.3.2-.4.5-.8.9-1-.2-.2-.4-.6-.3-.9 0-.4.4-.7.6-1 .1-.2.1-.3.1-.5-.1-.2-.1-.4 0-.6.1-.2.2-.3.4-.3 0 0 1.1-4.3 2.4-8.4 1.3-4.3 2.6-8.1 2.6-8.1zM89.3 74.8l2.2-.1s2.4 2.8 5.3 6.8c2.2 2.9 4.2 6 5.9 9.3.8 1.5 1.3 3.1 1.6 4.7.2 1.3.2 2.7.1 4-.1 1.4 0 2.9 0 2.9.1.1.2.3.2.4 0 .1 0 .3-.1.4.2.3.4.6.6 1 .1.3.1.7 0 1l-.6.2c.3.3.5.7.6 1.1.1.5.2.9.2 1.4l-.6.1-.9.1-2.6-.1-.4-.1c-.1-.5 0-1 .2-1.4.2-.4.6-.8 1-1.1-.2-.3-.3-.7-.3-1.1.1-.4.4-.8.7-1.1v-.6c0-.1.2-.2.3-.3v-5.4l-13.2 3.4-.3-1.9 13.2-3.4s-.5-2.7-3.8-7.8c-1.7-2.6-4-6.1-6-8.6-.9-1.3-2-2.6-3.3-3.8z"/><path class="st0" d="M46.5 42.1z"/><path class="st10" d="M78.9 96.5c.1-.2.3-.4.6-.4.3-.1.6-.1.9.2.3.4.4.9.4 1.4 0 .2 1 .1 1 .1s.2 2.1-.5 2.9c-.7.7-2.1.2-2.1.2-.4-.6-.7-1.3-.8-2-.1-.9.1-1.7.5-2.4zM86.9 110.1c.1-.3.4-.4.6-.5.4-.1.8-.1 1.1.1.3.5.5 1 .6 1.5.1.3 1.1.2 1.1.2s.2 2.4-.6 3.2c-.8.8-2.3.3-2.3.3-.5-.7-.8-1.5-.9-2.3-.2-.8 0-1.7.4-2.5zM101.8 106.9c.1-.2.4-.4.6-.4h.9s.5 1.3.6 1.6c.1.3 1.1.2 1.1.2s.2 2.4-.6 3.2c-.8.8-2.3.1-2.3.1-.5-.5-.8-1.3-.8-2-.1-1 .1-1.9.5-2.7z"/><path class="st4" d="M38.6 70.6s-.5-.6-.8-.8c-.9-.8-1.7-1-2.5 0-.4.7-.7 1.6-.8 2.4-.2.8-.5 1.5-.9 2.2-.2.4-.6 1.7-.7 2.2-.4 1.3-.3 2.6.3 3.8.2.5.5.9 1 1.1.6.2 1.1-.5 1.4-1 .3-.7.5-1 .8-1.8.3-.7.6-1.4 1-2.1.1-.1.5-1.1.5-1.1-.3-.4-.5-.9-.7-1.4-.3-1-.1-2.1.4-3 .3-.1.6-.3 1-.5zM52.7 92.2c-.2-.1-.4-.2-.6-.2-.6 0-1.3.4-2 .4s-.7-.2-1.1-.4c-.2-.1-.7-.4-.7-.4s-.3.5-.4.7c-.2.5-.4 1.1-.5 1.4-.2.7-.3 1.3-.3 2 .3.2.7.4 1.1.6.5.2 2.3.6 2.9.9l1 .6.8-1.2s-.4-.4-.1-.7c.2-.1.3-.2.5-.3l.4-1c-.3-.3-.5-.6-.7-1-.1-.6-.2-1-.3-1.4zM55.2 95.5c-.2.2-.2.4-.2.7.1.2 0 .5-.1.7.3.3.4.6.5 1 0 .2.1.8.1.8.5 0 1.1-.1 1.6-.3.4-.3.6-.8.4-1.2-.3-.6-.9-.8-1.4-1.1l-.9-.6z"/></g><path class="st13" d="M85.4 66.2c-1.2-.8-2.2-1.6-3.1-2.6l-.3-.3c-1.9-1.8-3.6-3.8-5-6.1-.5-.9-1-1.8-1.4-2.8-.4-1-.9-2-1.4-2.9-.1-.1-.1-.2 0-.2.1-.1.2 0 .2 0 .6 1 1 2 1.5 3 .4.9.8 1.9 1.3 2.8 1.4 2.2 3.1 4.2 5 6l.3.3c.9.9 1.9 1.8 3 2.5.1.1.1.2.1.2 0 .1-.1.1-.2.1z"/><path class="st13" d="M91.9 73.8h-.2c-.4-.2-.7-.5-.9-.8-.1-.1-.2-.2-.2-.3-.3-.3-.6-.7-.8-1.1v-.1c-.2-.4-.5-.8-.7-1.2-.2-.4-.4-.8-.7-1.1-1-1.3-2-2.5-3.3-3.5-.1-.1-.1-.2-.1-.2.1-.1.2-.1.2-.1 1.2 1.1 2.3 2.3 3.3 3.6.2.3.4.7.7 1.1.2.4.4.8.7 1.1v.1c.2.4.5.7.8 1l.3.3c.2.3.5.6.7.7.6-.1 1.3-.3 1.8-.6.5-.2 1-.5 1.6-.6.5-.1 1.1-.2 1.7-.3.9 0 1.7-.2 2.5-.5 1-.5 2.5-1.6 2.7-2.3.1-.3-.4-.8-.5-.9V68c-.2-.3-.5-.5-.8-.7-.5-.2-1.1-.3-1.7-.1-.4.1-.7.1-1.1.1h-.4c-.8.1-1.7 0-2.5-.2-1.7-.4-3.3-1.2-4.7-2.4-1.1-1.1-2.1-2.3-3-3.6-.1-.1-.1-.2 0-.2.1-.1.2-.1.2 0 .9 1.3 1.9 2.5 3 3.6 1.3 1.2 2.8 2 4.5 2.4.8.2 1.6.3 2.4.2h.4c.3 0 .7 0 1-.1.6-.2 1.3-.1 1.9.1.4.2.7.4.9.8.2.1.8.7.6 1.2-.3 1.2-2.8 2.6-2.9 2.6-.8.4-1.7.6-2.6.6-.5 0-1.1.1-1.6.2l-1.5.6c-.4.4-1 .6-1.7.7zM67 67.9c-.1 0-.2-.1-.2-.2.4-5.3 1.4-10.6 3.2-15.6.8-2.2 1.8-4.2 3.2-6 1.4-1.3 3.6-1.9 5.2-.4 1.6 1.6 3 3.4 4.1 5.3 1.3 2 2.9 3.9 4.7 5.5.5.5 1.1 1 1.6 1.4.4.3.8.7 1.2 1.1.1.1.1.2 0 .2-.1.1-.2.1-.2 0-.4-.4-.8-.7-1.2-1.1-.5-.4-1.1-.9-1.6-1.4-1.8-1.7-3.4-3.5-4.8-5.6-1.1-1.9-2.5-3.7-4.1-5.2-1.5-1.4-3.5-.8-4.8.4-1.3 1.8-2.4 3.8-3.1 5.9-1.8 5-2.8 10.2-3.2 15.5.2.1.1.2 0 .2zM100 52.7c-1 0-2.7-.2-3.9-.3-2.4-.2-4.7-.8-6.9-1.8-.7-.3-1.4-.7-2-1.2-.7-.5-1.5-1-2.3-1.3-.1 0-.1-.1-.1-.2s.1-.1.2-.1c.9.3 1.7.8 2.4 1.3.6.4 1.3.8 2 1.2 2.1 1 4.4 1.6 6.8 1.7 1.2.1 2.9.3 3.9.3.1 0 .2.1.2.2s-.1.2-.3.2c.1 0 .1 0 0 0z"/><path class="st13" d="M110.1 55c-.3 0-.6-.1-.9-.2l-.4-.1c-.5-.1-.9-.2-1.4-.4h-.1c-.4-.2-.9-.3-1.2-.5-.4-.2-.8-.3-1.2-.5-1.7-.5-3.5-.8-5.3-.9-.1 0-.2-.1-.2-.2s.1-.2.2-.2c1.8.1 3.6.4 5.4 1 .4.1.8.3 1.2.5s.8.3 1.2.5h.1c.4.2.9.3 1.3.4l.4.1c.3.1.6.1.9.1.3-.2.5-.5.7-.8.5-.7 1.1-1.4 1.9-1.8 1.1-.5 2-1.4 2.5-2.6.5-1.1.7-2.3.7-3.4 0-.1-.1-.2-.2-.2-.3-.1-.7-.2-1-.1h-.1c-.6-.2-1.2-.2-1.8.1-.3.2-.5.4-.8.6-.6.7-1.4 1.2-2.3 1.5-1.9.6-4 .9-6 .7-1.7-.3-3.4-.7-5-1.2-.1 0-.1-.1-.1-.2s.1-.1.2-.1c1.6.6 3.3 1 5 1.2 1.9.2 3.9 0 5.7-.6.8-.3 1.5-.8 2.2-1.5.2-.3.5-.5.8-.7.6-.3 1.4-.4 2.1-.1.4-.1.8-.1 1.2.1.2.1.3.3.3.5 0 1.2-.2 2.5-.7 3.7-.5 1.2-1.4 2.2-2.6 2.7-.7.4-1.2 1-1.7 1.7-.3.5-.6.8-.9.9h-.1zM79.4 47c-.1 0-.2-.1-.1-.2.5-2.1 1.8-5.7 4.1-5.8 1.7 0 3.3.3 4.9.9l1.7.5c2.5.7 3.6 1 5.6 1.5 1.2.3 2.4.4 3.6.1h.2c.1 0 .2 0 .2.1s-.1.2-.1.2h-.2c-1.3.2-2.5.2-3.8-.2-2.1-.4-3.2-.8-5.7-1.5l-1.7-.5c-1.5-.6-3.2-.9-4.8-.9-2.2.1-3.4 3.9-3.8 5.5.1.3 0 .3-.1.3zM71.9 74.4h-.8c-3.3-.2-4.8-3.4-5.5-5.8-.5-1.6-.9-3.2-1-4.8 0-.1.1-.2.2-.2s.2.1.2.2c.1 1.6.5 3.2 1 4.7.8 2.3 2.1 5.4 5.2 5.6 1.6 0 3.1-.1 4.7-.2.6-.1 1.1-.1 1.5-.1h1.8c1.9 0 4.2 0 5.2-.6 1.3-.9 1.9-3.9 1.9-6.3 0-.1.1-.2.2-.2s.2.1.2.2c0 2.6-.6 5.6-2.1 6.6-1.1.5-3.5.5-5.5.5h-1.8c-.5 0-.9.1-1.5.1-1.1.1-2.7.3-3.9.3zM86.6 56c-.1 0-.2-.1-.2-.2 0-2-.2-4.2-.3-6 0-.1.1-.2.2-.2s.2.1.2.2c.1 1.8.2 4 .3 6l-.2.2z"/><path class="st13" d="M77.6 70.5c-.1 0-.2-.1-.1-.2.3-2.4.5-4.8.3-7.2v-4.7c0-.1.1-.2.2-.2s.2.1.2.2c-.1 1.5 0 3.2 0 4.7.1 2.4 0 4.9-.4 7.3 0 .1-.1.1-.2.1zM55.9 19.8c-.1 0-.1 0-.1-.1v-.1c-1.1-1.8-2.1-3.5-2.8-4.8-.6-1-1-2.1-1.2-3.3v-.2c-.2-.7-.5-1.3-.8-1.9-.2-.2-.3-.5-.4-.8-.4-1.2-.6-1.3-.7-1.4v.1c-.1.5-.1 1 .1 1.5.1.2.1.4.1.6.1.4.1.7 0 1.1-.1.5-.1 1.1 0 1.6 0 .1 0 .2-.1.2s-.2 0-.2-.1c-.1-.6-.1-1.2 0-1.7v-1c0-.1-.1-.4-.1-.6-.2-.6-.3-1.2-.1-1.8.1-.1.2-.1.3-.1.3 0 .6.5 1 1.6.1.2.2.5.4.7.4.6.7 1.3.9 2v.2c.2 1.1.5 2.2 1.1 3.2.7 1.3 1.7 3 2.8 4.7v.1c0 .1 0 .2-.2.3.1 0 .1 0 0 0z"/><path class="st13" d="M72 42.1h-.1c-.6-.4-1.2-.8-1.8-1-.7-.3-1.3-.6-1.9-1-1.1-1-2-2.3-2.6-3.7-.4-.7-.8-1.5-1.4-2.5-1-1.7-2.3-4-3.4-6S58.6 24 58 23.1c-.4-.7-.8-1.4-1.2-2.2-.5-1-.9-1.8-1.3-1.8-.1 0-.2-.1-.2-.2s.1-.2.2-.2c.6 0 1 .9 1.6 2 .3.7.7 1.4 1.1 2.1.6 1 1.7 2.9 2.8 4.9s2.4 4.2 3.4 6c.5.9 1 1.8 1.4 2.5.6 1.4 1.4 2.6 2.5 3.6.6.4 1.2.7 1.8 1 .7.2 1.3.6 1.9 1 .1.1.1.2 0 .2.1 0 .1 0 0 .1.1-.1.1 0 0 0zM51.4 10.2c-.1 0-.2-.1-.2-.1s-.3-1.2-.7-2.3c-.1-.3-.2-.5-.3-.8-.1-.2-.2-.6-.4-1.1-.1-.3-.1-.5-.3-.8l-.1.1c-.2.2.1 1.5.2 2v.1c0 .1 0 .2-.1.2s-.2 0-.2-.1v-.2c-.2-1.1-.4-2-.1-2.4.1-.1.3-.2.5-.2.2.1.3.4.5 1 .1.4.2.8.3 1.1s.2.5.3.8c.3 1.2.7 2.4.7 2.4.1.1.1.2-.1.3.1-.1.1-.1 0 0z"/><path class="st13" d="M52.9 21.4c-.1 0-.1 0-.2-.1l-1-2.2c-.5-1-.9-2.2-1.3-3.1-.2-.6-.4-1-.5-1.2-.3-.6-.7-1.1-1.2-1.6-.3-.3-.6-.7-.9-1.1-.2-.4-.6-.8-1-1-.2-.1-.3-.2-.5-.3-.6-.5-1.3-1-1-1.5 0-.1.1-.1.2-.1.2-.1.5.1 1 .5.2.1.4.3.6.4l.6.3-.3-.3-.4-.4c-1-1.3-1.5-2.2-1.2-2.6.1-.1.2-.2.3-.2.3 0 .5.3.8.8.1.2.2.4.4.5.7.3 1.1.8 1.5 1.2-.1-.2-.2-.5-.3-.7l-.3-.6c-.1-.2-1.1-2.7-.7-3.1.1-.1.3-.2.4-.2.2.1.4.3.6.9.3.8 1 2.4 1.1 2.4 0 .1 0 .2-.1.2s-.2 0-.2-.1-.8-1.6-1.1-2.4c-.2-.6-.4-.7-.4-.7s-.1 0-.1.1c.1.9.3 1.9.7 2.7l.3.6c.3.7.5 1.1.2 1.3s-.5 0-1.7-1.5c-.2-.2-.3-.4-.4-.5s-.4-.6-.5-.6c0 .1.2 1 1.2 2.2.1.1.2.3.3.4.3.3.5.6.4.8 0 .1-.1.1-.2.2-.2.1-.4 0-1-.3-.2-.1-.5-.3-.7-.4-.2-.2-.5-.3-.7-.4 0 .1 0 .4 1 1l.5.3c.5.3.9.7 1.2 1.1.2.4.5.7.8 1 .5.5.8 1.1 1.1 1.7.1.2.2.6.5 1.2.3.9.8 2 1.3 3l1 2.2c.2 0 .1.1-.1.2.1 0 .1 0 0 0z"/><path class="st13" d="M63.3 45.4c-.1 0-.2-.1-.2-.1-1.2-3.8-2.9-7.5-4.9-11l-.1-.3c-1.4-2.3-2.6-4.8-3.5-7.4-.4-1.1-.9-2.1-1.5-3-.9-1.5-1.7-2.8-1-3.8.1-.1.2-.1.2 0 .1.1.1.2 0 .2-.6.8.1 2 1 3.4.6.9 1.2 1.9 1.6 3 .9 2.5 2.1 5 3.5 7.3l.2.3c2 3.5 3.7 7.2 4.9 11.1 0 .2-.1.3-.2.3zM84.5 41.3h-.1c-.1-.1-.1-.2 0-.2 1.2-1.1 2.2-2.3 3-3.2l.5-.5c.6-.7 1.3-1.3 2-1.8.3-.2.6-.5 1-.8 1.1-1 2.3-2.2 3-3 .3-.3.5-.5.8-.7.2-.2.4-.3.4-.4 0-.1.1-.2.2-.2s.2.1.2.2c0 .3-.2.4-.5.7-.3.2-.5.5-.8.7-.8.8-1.9 2-3 3l-1 .8c-.7.5-1.3 1.1-1.9 1.8l-.5.5c-.8.9-1.9 2.1-3.1 3.2-.1-.1-.1-.1-.2-.1zM95.2 30.1h-.1c-.1-.1-.1-.2 0-.2.3-.4.7-.9 1-1.3l.8-1 .4-.5c.4-.6.9-1.1 1.6-1.3.4-.2.8-.5 1.1-.8.2-.2.4-.3.6-.4l.4-.2c.2-.1.6-.3.6-.4-.5-.1-1 0-1.4.2-.7.3-1 .2-1.2 0s-.3-.4-.2-1.2v-.5c0-.5.1-1 .2-1.5.3-1.9 0-1.9 0-1.9-.1.3-.2.7-.2 1 0 .2-.1.5-.1.7-.1.3-.2.7-.3 1 0 .2-.1.3-.1.5-.4 1.4-1.2 2.7-2.3 3.7-.9.9-1.6 1.5-2.3 2-.1.1-.2.1-.2 0-.1-.1-.1-.2 0-.2.8-.6 1.6-1.3 2.3-2 1.1-.9 1.8-2.1 2.2-3.5 0-.2.1-.4.1-.5l.3-1.2c.1-.2.1-.4.1-.6.1-.6.2-1 .4-1.2.1-.1.2-.1.2 0 .4.1.5.8.2 2.3-.1.5-.1 1-.2 1.5v.5c-.1.7 0 .8 0 .8s.3.2.9 0c.5-.2 1.1-.3 1.7-.2.1 0 .2.1.2.2.1.4-.3.6-.8.8l-.3.2c-.2.1-.3.2-.5.4-.3.4-.8.6-1.2.9-.6.2-1.1.7-1.4 1.2l-.4.5-.8 1c-.3.5-.7.9-1 1.3-.1-.2-.2-.1-.3-.1zM75.8 40.3c-.1 0-.2-.1-.2-.2s0-.1.1-.1c.3-.1.7-.2 1.1-.3 1-.2 1.9-.6 2.8-1 1.8-1 3.4-2.3 4.9-3.8.6-.6 1.3-1.2 2.1-1.9.6-.5 1.3-1.1 2-1.6s1.2-1 1.7-1.4c1.5-1.3 2.4-2.2 2.9-2.2.1 0 .2.1.2.2s-.1.2-.2.2c-1 .6-1.9 1.3-2.7 2.1-.5.5-1.1.9-1.8 1.4-.6.5-1.4 1-2 1.6-.8.7-1.5 1.4-2.1 1.9-1.4 1.5-3.1 2.8-4.9 3.9-.9.5-1.9.8-2.8 1.1-.3-.2-.7-.1-1.1.1z"/><path class="st13" d="M98.7 23.9c-.1 0-.2-.1-.1-.2.2-.6.4-1.1.7-1.7.1-.2.2-.5.3-.7.4-1 .4-1.2.3-1.3-.2.3-.4.6-.5 1l-.3.6c0 .1-.1.1-.2.1s-.1-.1-.1-.2l.3-.6c.4-.8.6-1.3.9-1.2.1 0 .2.1.2.2.1.2.1.5-.3 1.6-.1.2-.2.5-.3.7-.3.5-.5 1-.7 1.6 0 0-.1 0-.2.1z"/><path class="st13" d="M99.1 24c-.2 0-.2-.1-.2-.2l.1-.2c.8-1.6 1.1-2.5.9-2.8-.1-.1-.1-.2 0-.2.1-.1.2-.1.2 0 .4.5-.1 1.8-.8 3.2l-.1.2c0-.1-.1 0-.1 0z"/><path class="st13" d="M99.6 24.1h-.1c-.1-.1-.1-.2 0-.2.4-.5.7-1 1-1.5l-.6.6c-.1.2-.3.4-.5.5-.1.1-.2.1-.2 0-.1-.1-.1-.2 0-.2.2-.1.3-.3.4-.5.4-.5.7-.9 1-.7.1 0 .1.1.1.2.1.3-.8 1.6-1.1 1.8.1 0 0 0 0 0zM74.2 39.1c-1.2 0-2.3-.4-3.3-1.1-.1-.1-.1-.2 0-.2.1-.1.2-.1.2 0 1.2.9 2.7 1.2 4.2.8.6-.3.9-.9 1.1-2 .2-.9.2-1.7-.1-2.6 0-.1 0-.2.1-.2s.2 0 .2.1c.3.9.3 1.9.1 2.8 0 .9-.5 1.8-1.3 2.2-.4.2-.8.2-1.2.2zM75.2 31.3c-.1 0-.1 0-.2-.1-.2-.6-.7-1.1-1.3-1.3-.1 0-.1-.1-.1-.2s.1-.1.2-.1c.7.3 1.2.8 1.5 1.5.1 0 .1.1-.1.2.1-.1.1-.1 0 0zM71.8 33.4h-.1c-.1-.1-.1-.2 0-.2.4-.3.8-.5 1.3-.5.1 0 .2.1.1.2 0 .1-.1.2-.2.2-.4 0-.7.1-1 .4 0-.1 0-.1-.1-.1zM74.8 32.3c-.1 0-.1 0-.2-.1s0-.2.1-.2c.3-.2.6-.2.9-.2.1 0 .1.1.1.2s-.1.1-.2.1c-.2 0-.4 0-.7.2.1 0 0 0 0 0z"/><path class="st13" d="M74.7 35c-.2 0-.2-.1-.2-.2.1-.3.2-.4.1-.5l-.1-.1c-.3-.1-.5-.3-.5-.7 0-.1.1-.2.2-.2s.2.1.2.2c0 .2.1.3.3.3.1 0 .2.1.3.2.2.3.1.6 0 .9-.1 0-.2.1-.3.1z"/><path class="st3" d="M73.6 36.2s.5.9 1.4.8c.8-.2.7-1.4.7-1.4-.3.1-.7.3-1 .4-.4.1-1.1.2-1.1.2z"/><path class="st13" d="M74.8 37.1c-.6-.1-1-.4-1.3-.8-.1-.1 0-.2.1-.2h.1c.4-.1.8-.2 1.1-.3.3-.1.6-.2.9-.4h.2c.1 0 .1.1.1.1 0 .1.1 1.4-.9 1.6h-.3zm-.9-.8c.2.3.6.5 1 .5.5-.1.6-.6.6-1-.2.1-.4.2-.7.3-.3 0-.6.2-.9.2zM73.7 41c-.1 0-.1-.1-.1-.2.2-.7.5-1.3.9-1.9.1-.1.2-.1.2 0 .1.1.1.2 0 .2-.4.6-.7 1.1-.9 1.8l-.1.1zM67.8 37c-.1 0-.1-.1-.1-.2.3-.6.8-1 1.4-1.2.4-.2.7-.4 1-.7.5-.7.8-1.7.6-2.6 0-1-.1-2 1.2-2.2.1 0 .2 0 .2.1s0 .2-.1.2c-1 .1-1 .7-1 1.9.2 1-.1 2-.7 2.8-.3.3-.7.6-1.1.8-.5.2-1 .6-1.2 1.1 0 0-.1.1-.2 0zM72.9 30.1c-.1 0-.1 0-.2-.1-.1-.3-.4-.5-.7-.6-.3-.1-.6 0-.8.2-.1 0-.2 0-.2-.1s0-.2.1-.2c.3-.2.7-.3 1.1-.2.4.1.7.4.9.8l-.2.2c.1 0 .1 0 0 0zM77.9 39h-.1c-.4-.5-.5-1.2-.2-1.8l.2-.4c.2-.4.4-.8.5-1.2.2-.8 0-1.6-.5-2.1-.1-.2-.2-.3-.4-.5-.4-.6-.7-1.3-.9-2-.2-.6-.5-1.2-.8-1.8-.9-1.5-2.4-2-3.2-1.7-.1 0-.2 0-.2-.1s0-.2.1-.2c1-.4 2.7.3 3.6 1.9.3.6.6 1.2.8 1.8.2.7.5 1.4.9 2 .1.2.2.4.3.5.6.7.8 1.5.6 2.4-.1.5-.3.9-.6 1.3l-.2.3c-.2.4-.3 1 .1 1.3.1.1.1.2 0 .3zM64.3 34c-.1 0-.1 0-.2-.1 0-.1 0-.2.1-.2.8-.6 1.3-1.5 1.4-2.4.2-.9.6-1.8 1.1-2.5.7-.9 1.8-1.5 3-1.6.7-.1 1.3 0 1.9.4.1.1.1.2 0 .2-.1.1-.2.1-.2 0-.5-.3-1.1-.4-1.6-.3-1.1.1-2.1.6-2.7 1.5-.5.7-.9 1.5-1.1 2.4-.2 1-.8 1.9-1.7 2.6.1 0 .1 0 0 0zM69.1 38.8c-.1 0-.1 0-.1-.1-.1-.1-.1-.2 0-.2.5-.5.8-1.3.7-2 0-.1.1-.2.2-.2s.2.1.2.2c.1.8-.2 1.6-.8 2.2-.1 0-.2 0-.2.1zM91.2 72.8h-.4c-.1 0-.2-.1-.1-.2 0-.1.1-.2.2-.2.9 0 1.8-.3 2.5-.8.4-.2.7-.4 1-.5.5-.2 1-.2 1.5-.3.8-.1 1.7-.2 2.4-.5 1.2-.5 2.3-1.3 3-2.4 0-.1.1-.1.2-.1s.1.1.1.2c-.2.7-2 2.2-3.2 2.6-.8.3-1.7.5-2.5.5-.5 0-1 .1-1.4.2-.3.1-.7.3-1 .5-.6.7-1.4.9-2.3 1zM108.8 54.7c-.1 0-.1 0-.2-.1 0-.1 0-.2.1-.2.5-.3 1-.7 1.3-1.2.2-.4.5-.7.9-1 .3-.3.6-.5 1-.7.7-.3 1.2-.8 1.6-1.4.7-1.3 1-2.8 1-4.3 0-.1 0-.2.1-.2s.2 0 .2.1c.3.7-.4 3.5-1.1 4.6-.4.6-1 1.2-1.7 1.5-.4.2-.7.4-1 .6-.3.3-.6.6-.8 1-.3.5-.8 1-1.4 1.3.1 0 0 0 0 0zM88.9 69.6h-.2c-.1 0-.2-.1-.2-.2s.1-.2.2-.2c.8.1 1.6-.1 2.2-.6.1-.2.2-.5.3-.8.2-.8.4-1.7 1.3-1.8.1 0 .2.1.2.2s-.1.2-.2.2c-.7.1-.8.8-1 1.5l-.3.9c-.6.6-1.4.8-2.3.8zM105.5 53.5c-.1 0-.2-.1-.2-.1 0-.1 0-.2.1-.2.4-.1.8-.4 1-.7.1-.2 0-.4-.1-.5-.5-.6-.8-1.4-.7-2.2.1-.7.6-1.3 1.4-1.4.1 0 .2 0 .2.1s0 .2-.1.2c-.6.1-1 .6-1.1 1.2 0 .7.2 1.4.7 1.9.2.2.2.5.1.8-.2.4-.7.7-1.3.9zM85.7 66.2c-.2 0-.4-.1-.5-.3-.5-.8.7-3.1 1.7-4.5.8-1.1 2.6-3.1 3.2-2.7.2.1.6.4-1.3 3.6-.1.1-.2.1-.2.1-.1 0-.1-.1-.1-.2 1.6-2.8 1.4-3.2 1.4-3.2-.2-.1-1.3.8-2.7 2.6-1.1 1.5-2 3.6-1.7 4.1 0 0 .1.1.3.1.1 0 .2 0 .2.1s0 .2-.1.2l-.2.1zM100 52.7h-.2c-.8-.3-1.3-2.9-1.3-4.6 0-1.7.3-4.1 1-4.1.4 0 .8.4 1.1 3.7 0 .1-.1.2-.2.2s-.2-.1-.2-.2c-.3-3.2-.7-3.3-.7-3.3-.2.1-.6 1.5-.7 3.8 0 1.9.5 4 1.1 4.3 0 0 .1 0 .3-.1.1-.1.2 0 .2 0v.2s-.2.1-.4.1zM86.9 67.2c-.1 0-.2-.1-.2-.2s.1-.2.2-.2c1.3-.3 2.4-1.2 3-2.4 0-.1.1-.1.2-.1s.1.1.1.2c-.6 1.4-1.9 2.4-3.3 2.7zM102.2 52.6c-.1 0-.1 0-.1-.1-.1-.1-.1-.2 0-.2.7-.5 1.2-2.5 1-3.9 0-.1.1-.2.2-.2s.2.1.2.2c.2 1.4-.3 3.6-1.1 4.2h-.2z"/><path class="st13" d="M97.9 70.9c-.1 0-.2-.1-.2-.2 0-1.5-2.1-1.5-3.1-1.5h-.5c-1-.1-1.9-.4-2.8-1-.1-.1-.1-.2 0-.2.1-.1.2-.1.2 0 .8.5 1.6.9 2.6.9h.4c1.1 0 3.4 0 3.5 1.9.1.1 0 .1-.1.1z"/><path class="st13" d="M92.4 68.8c-.1 0-.2-.1-.2-.2 0-.7.3-1.4.9-2 .1-.1.2-.1.3 0 .1.1.1.1 0 .2-.4.5-.7 1.1-.8 1.8 0 .1-.1.1-.2.2 0-.1 0 0 0 0zM93.6 69c-.1 0-.1-.1-.1-.2.1-.6.4-1.2.8-1.8.1-.1.2-.1.2 0 .1.1.1.2 0 .2-.3.5-.6 1-.7 1.6 0 .2-.1.2-.2.2zM94.9 69.1c-.1 0-.2-.1-.2-.2.1-.6.3-1.2.7-1.7.1-.1.2-.1.2 0 .1.1.1.2 0 .2-.3.4-.5 1-.6 1.5.1.2 0 .2-.1.2zM107.1 51.6h-.7c-.1 0-.2-.1-.2-.2s.1-.2.2-.2c1.3.1 2.5-.1 3.7-.7h.1l.3-.2c.9-.4 1.7-.8 2.5.6 0 .1 0 .2-.1.2s-.2 0-.2-.1c-.6-1.1-1.1-.9-2-.5l-.3.2h-.1c-1.1.6-2.1.9-3.2.9z"/><path class="st13" d="M107.6 51.5c-.1 0-.1 0-.1-.1-.5-.9-.6-2-.1-3 .1-.1.2-.1.2 0 .1.1.1.2 0 .2-.4.8-.3 1.8.1 2.6.1.1.1.2-.1.3.1 0 0 0 0 0zM108.7 51.2c-.1 0-.1 0-.2-.1-.4-.9-.4-2-.1-2.9 0-.1.1-.1.2-.1s.1.1.1.2c-.3.9-.2 1.8.1 2.6.1.1.1.2-.1.3.1-.1.1-.1 0 0zM109.8 50.7c-.1 0-.1 0-.2-.1-.3-.9-.3-1.9-.1-2.8 0-.1.1-.1.2-.1s.1.1.1.2c-.2.8-.2 1.7.1 2.6.1.1.1.2 0 .2h-.1zM111.1 50.3c-.1 0-.1 0-.1-.1-.3-1.1-.3-2.2.1-3.3 0-.1.2-.1.2-.1.1 0 .1.2.1.2-.4.9-.4 2-.1 2.9.1.1.1.2 0 .2-.1.2-.2.2-.2.2zM96.3 69.2c-.1 0-.2-.1-.1-.2.1-.6.3-1.2.7-1.8.1-.1.2-.1.2 0 .1.1.1.2 0 .2-.3.5-.6 1-.7 1.6 0 .2-.1.2-.1.2zM51.2 44.7c-.1 0-.2-.1-.2-.2.1-.3.1-.6.2-.9-.1-.2-.2-.4-.4-.6-.1-.1-.1-.2 0-.2.1-.1.2-.1.2 0 .2.2.4.5.4.8 0 .4 0 .7-.2 1.1.1 0 .1 0 0 0zM51.7 45.3c-.1 0-.2-.1-.2-.2s.1-.2.2-.2h.2c.3-.2.5-.9.6-1.1 0-.3 0-.7-.2-1-.1-.2-.2-.4-.2-.6 0-.1 0-.2.1-.2s.2 0 .2.1c.1.2.2.4.2.6.2.4.3.8.2 1.2 0 .1-.2 1.1-.8 1.4h-.3z"/><path class="st13" d="M52.5 45.4c-.2 0-.4-.1-.6-.2-.1-.1-.1-.2 0-.2.1-.1.2-.1.2 0 .1.1.2.1.4.1s.3-.1.5-.2c.4-.4.6-.9.6-1.5 0-.2-.1-.4-.2-.7-.1-.2-.2-.5-.2-.7 0-.1 0-.2.1-.2s.2 0 .2.1c.1.2.1.4.2.6.1.2.2.5.2.7.1.6-.2 1.3-.6 1.8-.2.3-.4.4-.8.4z"/><path class="st13" d="M53.6 45.4c-.2 0-.3 0-.5-.1-.1 0-.1-.2-.1-.2 0-.1.2-.1.2-.1.3.1.7 0 .9-.3.3-.4.4-.8.3-1.3 0-.3-.1-.5-.2-.8 0-.2-.1-.3-.2-.5 0-.1 0-.2.1-.2s.2 0 .2.1l.2.5c.1.3.2.5.2.8.1.5 0 1.1-.3 1.5 0 .4-.4.6-.8.6z"/><path class="st13" d="M54.6 45.2c-.1 0-.2 0-.3-.1-.1 0-.1-.1-.1-.2s.1-.1.2-.1c.3.1.4 0 .6-.3l.1-.2c.3-.4.4-.9.3-1.4 0-.1-.1-.2-.1-.3-.1-.4-.3-.8-.5-1.1-.1-.1-.3-.1-.6-.1-.3.1-.6 0-.9 0-.2-.1-.3-.1-.5-.1s-.3.1-.5.2c-.1.1-.3.1-.4.2H51c-.4.3-.8.8-1 1.3 0 .1-.1.1-.2.1s-.1-.1-.1-.2c.1-.3.9-1.5 1.3-1.6h.9c.1 0 .2-.1.3-.1.2-.1.4-.2.6-.2.2 0 .4 0 .6.1.2.1.5.1.7 0 .3-.1.7 0 .9.2.3.4.5.8.6 1.2 0 .1.1.2.1.3.1.6 0 1.2-.4 1.7l-.1.2c0 .2-.3.4-.6.5z"/><path class="st13" d="M54.1 45.7c-.2 0-.4 0-.5-.1-.1-.1-.1-.2-.1-.3 0-.1.1-.2.2-.2s.2.1.2.1h.8c.5-.1 1-.5 1.1-1 0-.1.1-.1.2-.1s.1.1.1.2c-.2.7-.7 1.2-1.4 1.3h-.6zM50.3 42.2c-1.7-.2-3.3-1.1-4.4-2.5l-.9-1.2c-.4-.7-.9-1.2-1.5-1.6-.1 0-.1-.2-.1-.2 0-.1.2-.1.2-.1.7.4 1.3 1 1.7 1.7.2.4.5.8.9 1.2 1 1.3 2.5 2.1 4.2 2.4.1 0 .2.1.2.2-.1 0-.2.1-.3.1zM44.1 31.6c-.1 0-.1 0 0 0-.2-.1-.2-.2-.1-.2.3-.4.7-.8 1.1-1.1.2-.2.4-.4.7-.6.5-.5.9-1 1.3-1.5s.8-1 1.2-1.4c.9-.9 2.2-1.4 3.5-1.5h.2c.5-.1.9-.1 1.4-.1h.8c.1 0 .2 0 .2.1s-.1.2-.2.2h-.8c-.4 0-.9 0-1.3.1h-.2c-1.2.1-2.4.6-3.3 1.5-.4.4-.8.9-1.2 1.4-.4.5-.8 1-1.3 1.5-.2.2-.5.5-.7.6-.4.3-.7.7-1 1.1-.2-.1-.3-.1-.3-.1z"/><path class="st13" d="M48.4 45c-2.6-.5-8.6-2-9.3-5.6-.3-1.4.9-2.8 2-4 .3-.4.7-.7 1-1 .9-.9 1.8-1.9 2.6-3 .1-.1.2-.1.2 0 .1.1.1.2 0 .2-.8 1.1-1.7 2.1-2.6 3-.3.4-.7.7-1 1-1.3 1.4-2.1 2.6-1.9 3.7.6 3.4 7.1 4.9 9 5.3.1 0 .2.1.1.2.1.1 0 .2-.1.2z"/><path class="st13" d="M46 38.5h-.1c-.1-.1-.1-.2 0-.2 0 0 1.9-1.9 2.5-2.4.1-.1.2 0 .2.1v.2c-.6.5-2.5 2.4-2.5 2.4 0-.1 0-.1-.1-.1zM52.7 31.7c-.1 0-.1-.1-.1-.2.3-1.4.6-3.8-.2-4.7-.1-.1-.1-.2 0-.2.1-.1.2-.1.2 0 .9 1 .6 3.7.3 5 0 0-.1.1-.2.1zM66.4 29.7c-.1 0-.1 0-.2-.1-.6-.8-1.4-1.4-2.3-1.9-.6-.4-1.2-.9-1.8-1.4-.1-.1-.1-.2 0-.2.1-.1.2-.1.2 0 .5.5 1.1 1 1.7 1.4.9.5 1.7 1.2 2.3 2 .1.1.1.2 0 .2h.1zM52.4 58.5h-.8c-3.6-.2-9.7-2.3-10.1-2.9-.2-.4-.1-.8 0-1.4.1-.4.2-.7.2-1.1.2-1 .2-2 .2-3.1v-.2c.1-1.2.3-2.4.7-3.5.2-.6.4-1.3.6-2.2 0-.1.1-.2.2-.1.1 0 .1.1.1.2-.2.8-.4 1.5-.5 2.2-.3 1.1-.6 2.3-.7 3.4v.2c0 1-.1 2.1-.2 3.1-.1.4-.2.7-.3 1.1-.1.5-.2.8-.1 1.1.3.4 6.2 2.5 9.8 2.8 2.8.1 5.6-.6 8-2.1.3-.2.6-.4 1-.5.1 0 .2.1.2.2s0 .1-.1.2c-.3.1-.6.3-.9.5-2.2 1.3-4.7 2.1-7.3 2.1zM61.6 43.1c-.1 0-.2-.1-.1-.2 0-.2.1-.4.2-.6s.2-.5.2-.9c0-.1.1-.1.2-.1s.2.1.1.2c-.1.3-.2.6-.2.9s-.1.4-.2.6c0 .1-.1.1-.2.1z"/><path class="st13" d="M59.3 57.2c-.1 0-.2-.1-.2-.1 0-.1 0-.1.1-.2.6-.4 1.4-.9 1.3-1.2l-.2-.4c-.4-.7-.7-1.4-.8-2.2-.1-.5 0-1.1.1-1.6.1-.2.1-.5.1-.8 0-.1 0-.3-.1-.5-.1-.5-.1-1-.1-1.5.2-1.2.6-2.3 1.1-3.3l.2-.4.2-.6c0-.1.1-.1.2-.1s.1.1.1.2l-.3.6v.3c-.5 1-.9 2.1-1.1 3.3 0 .5 0 .9.1 1.4 0 .2.1.4.1.5 0 .3 0 .6-.1.9-.2.5-.2 1-.1 1.5.2.7.4 1.4.8 2.1.1.2.2.3.2.5.1.4-.5.9-1.6 1.6.1 0 0 0 0 0zM44.3 75.2c-.1 0-.2-.1-.2-.2-.3-1.6-.9-4.2-1.5-6.6-.3-1.4-.6-2.7-.8-3.6-.8-3-.9-6.2-.3-9.2 0-.1.1-.1.2-.1s.1.1.1.2c-.6 3-.4 6.1.3 9.1.2.9.5 2.2.8 3.6.6 2.3 1.2 5 1.5 6.6.1.1.1.2-.1.2.1 0 .1 0 0 0zM34.4 81.7c-.2 0-.4-.1-.6-.2-.8-.6-1.2-1.5-1.2-2.5-.1-1.6.3-3.2 1-4.6.4-.8.7-1.6.8-2.4.1-.7.4-1.4.7-2 .2-.4.7-.8 1.2-.9.6 0 1.1.2 1.5.6.2.1.3.3.4.5.5.6 1.1 1.1 1.9 1.5.1 0 .1.1.1.2s-.1.1-.2.1c-.8-.4-1.5-.9-2-1.6-.1-.2-.3-.3-.4-.4-.3-.3-.8-.5-1.2-.5-.4.1-.7.3-.9.7-.3.6-.5 1.2-.6 1.9-.2.9-.4 1.7-.9 2.5-.7 1.4-1 2.9-1 4.4 0 .9.3 1.7 1 2.3.3.2.7.2 1 0 .4-.2.8-1.3 1.1-2 .1-.2.1-.3.2-.4.4-1.1.9-2.1 1.5-3.1.1-.1.2-.1.2-.1.1.1.1.2.1.2-.6 1-1 2-1.5 3-.1.1-.1.3-.2.4-.5 1.1-.8 2-1.3 2.2-.2.1-.5.2-.7.2z"/><path class="st13" d="M33.9 82c-.2 0-.4-.1-.6-.1-1.1-.5-1.5-2.4-1.6-3.4 0-1.6.4-3.1 1.2-4.5.4-.8.7-1.6.8-2.5.1-.7.4-1.5.7-2.1.2-.4.7-.8 1.2-.9.6 0 1.1.2 1.5.6.1.1.1.2 0 .2-.1.1-.2.1-.2 0-.3-.3-.8-.5-1.2-.5-.4.1-.7.3-.9.7-.3.6-.6 1.3-.7 2-.2.9-.4 1.8-.9 2.6-.8 1.3-1.2 2.8-1.2 4.3.1 1 .5 2.7 1.4 3.1.5.2 1 .1 1.4-.2.1-.1.2-.1.2 0v.2c-.3.3-.7.4-1.1.5zM52 97.7l-.7-.3c-.4-.3-.9-.5-1.4-.6-1-.2-1.9-.6-2.8-1-.4-.4 0-1.9.1-2.3.3-.8.7-1.7 1.1-2.4.6-1.1 1.1-2.2 1.5-3.4 0-.1.1-.1.2-.1s.1.1.1.2c-.4 1.2-.9 2.4-1.5 3.5-.4.8-.8 1.6-1.1 2.4-.2.6-.3 1.3-.2 1.9.8.4 1.7.7 2.7.9.5.1 1 .4 1.5.6l.5.3c.1 0 .1.2.1.2 0 .1 0 .2-.1.1zM55.6 98.8h-.1c-.1 0-.2-.1-.2-.2s.1-.2.2-.2c.5 0 1-.1 1.5-.3.2-.1.4-.4.4-.6 0-.1 0-.2.1-.2s.2 0 .2.1v.1c0 .4-.3.7-.6.9-.4.2-.9.4-1.5.4z"/><path class="st13" d="M57.6 97.7c-.1 0-.2-.1-.2-.2 0-.4-.2-.7-.6-.9-.5-.4-1.1-.7-1.7-1-.1 0-.1-.1-.1-.2s.1-.1.2-.1c.6.3 1.2.6 1.8 1 .5.3.7.8.7 1.3.1.1 0 .1-.1.1zM53.7 94.5s-.1 0-.1-.1c-.5-.5-.8-1-.9-1.7-.2-1 0-1.7.6-3.3 0-.1.1-.1.2-.1s.1.1.1.2c-.7 1.7-.8 2.2-.6 3.1.1.6.4 1.1.8 1.5.1.1.1.2 0 .2 0 .2-.1.2-.1.2zM52.8 99.4c-.3-.1-.7-.3-1-.5-.6-.3-1.3-.6-2-.8-1-.2-1.9-.6-2.8-1-.4-.3-.2-1.8 0-2.2 0-.1.2-.1.2-.1.1 0 .1.1.1.2-.2.6-.2 1.3 0 1.9.8.4 1.7.7 2.7.9.7.2 1.4.5 2 .8.3.2.7.3 1 .4.1 0 .1.1.1.2 0 .2-.1.3-.3.2.1.1 0 .1 0 0z"/><path class="st13" d="M55.4 99.9c-.1 0-.2-.1-.2-.2s.1-.2.2-.2c.8 0 1.5-.2 2.1-.7.3-.3.1-.9 0-1.2l.3-.2c.3.5.3 1.1-.1 1.6-.6.6-1.5.9-2.3.9zM47.4 80.1c-1.6-.2-3.2-.7-4.6-1.6-.9-.5-1.8-.9-2.8-1.2-.5-.2-.8-.3-1-.5-.3-1-.3-2.1 0-3.2.2-.9.9-2.2 1.3-2.3.8 0 1.5.2 2.2.6.4.2.8.3 1.2.4.1 0 .2.1.1.2 0 .1-.1.2-.2.1-.4-.1-.8-.2-1.2-.4-.6-.3-1.3-.5-1.9-.6-.5.6-.9 1.2-1.1 2-.2 1-.2 2 0 2.9 0 .1.3.2.8.4 1 .3 1.9.7 2.8 1.2 2.6 1.3 4.6 2.1 6.2 1s1.5-3.9 1.4-5.5v-.2c-.1-2.1-.1-4.3.1-6.4 0-1.2.3-2.3.7-3.4 0-.1.1-.1.2-.1s.1.1.1.2c-.4 1.2-.7 2.3-.7 3.5-.2 2.1-.2 4.3-.1 6.4v.2c.1 1.7.2 4.6-1.6 5.8-.5.3-1.2.5-1.9.5z"/><path class="st13" d="M53.7 89.7c-.5 0-1-.1-1.5-.3-1.1-.4-2.6-1.5-2.6-2.1.5-2.2 1.2-4.3 1.9-6.4.3-.7.6-1.4.9-2 .6-1.2 1.1-2.5 1.4-3.8-.1-1.9-.5-3.7-1.2-5.5-.4-1.3-1-2.6-1.8-3.8-.1-.1-.1-.2 0-.2.1-.1.2-.1.2 0 .8 1.2 1.4 2.6 1.8 3.9.7 1.8 1.1 3.7 1.2 5.6-.2 1.4-.7 2.8-1.4 4-.3.7-.6 1.4-.9 2-.8 2-1.4 4.1-1.9 6.3.6.8 1.4 1.4 2.3 1.7.6.2 1.3.3 2 .2l.3-.9c.5-1.3 1.3-3.7 1.8-4.9.4-1 .8-1.9 1.2-2.9.9-2.1 1.8-4.3 2.5-6.6.7-2.2.1-6.8-.2-9.9 0-.4-.1-.8-.1-1.2-.3-2.8-.7-5.6-.9-6.3 0-.1 0-.2.1-.2s.2 0 .2.1c.2.7.6 3.5.9 6.4 0 .3.1.8.1 1.2.3 3.1.9 7.8.2 10.1-.7 2.2-1.6 4.4-2.5 6.6-.4.9-.8 1.9-1.2 2.9-.5 1.1-1.3 3.6-1.8 4.9-.3.8-.3 1-.4 1s-.1.1-.6.1zM38.9 76.2c-.4-.1-.9-.3-1.3-.5-.4-.3-.7-.8-.8-1.4-.5-1.4.1-3 1.4-3.8.1-.1.2 0 .2.1s0 .2-.1.2c-1.1.7-1.6 2.1-1.2 3.4.1.4.3.8.6 1.1.4.2.8.3 1.2.5.1 0 .2.1.1.2.1.2 0 .2-.1.2zM52 62c-.1 0-.2-.1-.2-.2v-3.4c0-.1.1-.2.2-.2s.2.1.2.2v3.4c-.1.1-.1.2-.2.2zM50.1 92.6c-.6-.1-1.2-.3-1.6-.7l-.1-.1c-.1-.1-.1-.2 0-.2.1-.1.2-.1.2 0l.1.1c.4.4 1 .7 1.6.6.1 0 .3-.1.4-.1.6-.3 1.3-.3 1.9-.2.1 0 .2.1.2.2s-.1.2-.2.2h-.1c-.6-.1-1.2 0-1.7.2-.1.1-.3.1-.4.1l-.3-.1zM48.1 36.6c-.1 0-.2-.1-.2-.1 0-.1 0-.2.1-.2s.2 0 .2-.2c0-1-.4-2-1.1-2.8-1.2-1.2-2.7-2-3.1-1.8-.1.1-.1.4.1.8 0 .1 0 .2-.1.2s-.2 0-.2-.1c-.2-.6-.2-1 .1-1.2.7-.4 2.5.8 3.5 1.8.8.8 1.2 1.9 1.2 3.1 0 .3-.2.5-.5.5z"/><path class="st13" d="M48.1 36.7c-.1 0-.2-.1-.2-.1 0-.1 0-.2.1-.2.5-.1 1.3-1 2.1-1.9.5-.5.9-1.1 1.4-1.5.1-.1.2-.1.2 0 .1.1.1.2 0 .2-.5.5-1 1-1.4 1.5-.8 1-1.5 1.8-2.2 2zM65.5 19c-.1 0-.2-.1-.2-.2 0-.5 0-1.1-.2-1.6 0-.1 0-.2.1-.2s.2 0 .2.1c.2.6.3 1.1.3 1.7 0 .1-.1.2-.2.2zM62.7 25.6c-1.3-.1-2.5-.7-3.4-1.6-.1-.1-.1-.2 0-.2.1-.1.2 0 .2 0 .3.5 2.5 2 3.8 1.4 1.9-.9 1.9-4 1.9-4.1 0-.1.1-.2.2-.2s.2.1.2.2 0 3.4-2.1 4.5c-.2-.1-.5 0-.8 0zM63.1 21.9c-.1 0-.2-.1-.2-.1 0-.1 0-.2.1-.2s.2-.1.3-.2v-.1l-.1-.3c-.3-.3-.4-.7-.2-1.1 0-.1.1-.1.2-.1s.1.1.1.2c-.1.3 0 .6.2.8l.2.2c.1.1.1.3 0 .4-.2.2-.4.4-.6.5zM64 19.2c-.1 0-.2-.1-.2-.2s0-.1.1-.1c.3-.1.7-.2 1.1-.1.1 0 .1.2.1.2 0 .1-.1.1-.2.1-.2-.1-.5-.1-.9.1zM60.7 19.5c-.1 0-.1 0-.2-.1s0-.2 0-.2c.4-.2.9-.3 1.4-.2.1 0 .2.1.1.2 0 .1-.1.1-.2.1-.2-.1-.6-.1-1.1.2zM58 22.5h-.3c-.1 0-.1-.1-.1-.2s.1-.1.2-.1h.3c.1 0 .2 0 .2.1s-.1.2-.2.2H58zM56.8 20.5c-.2 0-.2-.2-.2-.2.1-.2.4-.4.6-.5.2-.1.5 0 .7.1.1.1.1.2 0 .2-.1.1-.2.1-.2 0h-.4c-.2 0-.3.1-.4.3 0 .1 0 .1-.1.1zM57.9 21.5c-.1 0-.1-.1-.2-.1-.1-.1-.1-.3-.3-.4-.1-.1-.1-.2-.1-.2.1-.1.2-.1.2-.1.2.1.4.3.4.6.2.1.2.2 0 .2z"/><path class="st14" d="M61.7 20.4c0-.2-.1-.3-.2-.3s-.3.1-.3.2v.1c0 .2.1.3.3.4.1 0 .2-.2.2-.4z"/><path class="st13" d="M58.8 19.8h-.3c-.1 0-.2-.1-.1-.2 0-.1.1-.1.2-.1.9.2 1.4-.5 1.8-1.3.3-.8.9-1.4 1.7-1.7.1 0 .2 0 .2.1s0 .2-.1.2c-.7.3-1.2.8-1.5 1.5-.3.5-.9 1.5-1.9 1.5zM62.7 17.2h-.1c-.1 0-.2-.1-.2-.2s.1-.2.2-.2c.4.1.9-.1 1.1-.5.1-.1.2-.1.3 0 .1 0 .1.1.1.2-.3.5-.8.8-1.4.7zM64.2 17.2c-.1 0-.2-.1-.2-.2s.1-.2.2-.2c.4 0 .7-.2 1-.5.1-.1.1-.2.1-.4 0-.1 0-.2.1-.2s.2 0 .2.1c.1.2 0 .5-.1.6-.3.5-.8.7-1.3.8z"/><path class="st13" d="M65.4 17.7c-.1 0-.1 0-.2-.1 0-.1 0-.2.1-.2.3-.1.6-.4.7-.7.1-.3 0-.7-.3-.9-.1-.1-.1-.2 0-.2.1-.1.2-.1.2 0 .5.5.6 1.3.1 1.8 0 0-.2.2-.6.3zM66.1 15.3c-.4 0-.9-.2-1.2-.6-.4-.5-1-.9-1.7-1-.1 0-.2-.1-.2-.2s.1-.2.2-.2c.7.1 1.4.5 1.9 1.1.2.3.6.4.9.4.1 0 .2.1.2.2.1.1 0 .2-.1.3 0-.1 0 0 0 0z"/><path class="st13" d="M58.8 13.4h-.1c-.1-.1-.1-.2 0-.2.7-.7 1.7-1 2.7-.8l.9.3c.3.1.6.3.9.3.1 0 .2 0 .2.1s0 .2-.1.2h-.1c-.3-.1-.7-.2-1-.3l-.9-.3c-.9-.1-1.7.1-2.3.7h-.2zM56.1 17c-.1 0-.2-.1-.2-.1-.1-.9.1-1.8.6-2.6.4-.5.9-.8 1.5-.8.1 0 .2.1.1.2 0 .1-.1.1-.1.1-.5 0-1 .3-1.3.7-.5.7-.7 1.5-.6 2.3.2.1.1.2 0 .2zM56.8 20.3c-.1 0-.1 0-.2-.1-.1-.2-.2-.4-.2-.6-.3-.6-.5-1.3-.5-2 0-.1.1-.2.2-.2s.2.1.2.2c0 .7.2 1.3.5 1.9l.3.6c-.1.1-.1.2-.3.2.1 0 .1 0 0 0z"/><path class="st3" d="M61.9 22.7s.3 1.2 1.2 1.1 1-1.3 1-1.3c-.3.1-.7.1-1.1.2h-1.1z"/><path class="st13" d="M63 24c-.8 0-1.2-.8-1.3-1.2v-.1s.1-.1.2-.1H63c.3 0 .7-.1 1-.2h.2s.1.1.1.2c-.1-.1-.3 1.2-1.3 1.4zm-.8-1.1c.1.3.4.8.9.7s.7-.6.8-.9c-.3.1-.5.1-.8.1-.3.1-.6.1-.9.1z"/><path class="st14" d="M64.8 20.2c0-.2-.1-.3-.2-.3-.2 0-.3.2-.3.3 0 .2.1.3.2.4.2-.1.3-.3.3-.4z"/><path class="st13" d="M61.6 27.4s-.1 0 0 0c-.2-.1-.2-.2-.2-.2.4-.7.8-1.4 1-1.7 0-.1.1-.1.2-.1s.1.1.1.2c-.2.3-.5 1-1 1.7 0 .1 0 .1-.1.1zM61.5 28.6h-.2c-.1 0-.2-.1-.1-.2 0-.1.1-.2.2-.1.2.1.5 0 .6-.2.2-.2.3-.5.3-.8 0-.1.1-.2.2-.2s.2.1.2.1c.1.4-.1.8-.4 1.1-.3.2-.5.3-.8.3zM55.7 43.2c-.1 0-.2-.1-.2-.1 0-.1.1-.2.2-.2h6.8c.1 0 .2.1.2.2s-.1.2-.2.2l-6.8-.1zM55.4 44.5c-.1 0-.2-.1-.2-.2s.1-.2.2-.2l7.5-.1c.1 0 .2.1.2.2s-.1.2-.2.2l-7.5.1zM64.7 64.2c-.1 0-.1 0-.1-.1-.3-.4-.4-.9-.3-1.3V62c0-.3-.1-.5-.2-.8-.1-.5-.3-1.2-.5-2.5-.3-2.4-.4-4.7-.3-7.1v-5.1c0-.1.1-.2.2-.2s.2.1.2.2c.1 1.8 0 3.5 0 5.1-.1 2.3 0 4.7.3 7 .2 1.2.3 1.9.5 2.5.1.3.1.5.2.8v.9c-.1.4 0 .8.3 1.1.1.1.1.2 0 .2-.2 0-.3.1-.3.1z"/><path class="st13" d="M64.7 64c-.1 0-.2 0-.2-.1v-.1c.3-.9 2.6-1.9 3.1-2.1.1 0 .2 0 .2.1s0 .2-.1.2c-.8.3-2.6 1.2-2.9 1.9l-.1.1zM76.9 39.8c-.5-.3-.7-.8-.5-1.3 0-.1.1-.1.2-.1s.1.1.1.2c-.1.5 0 .8.3.9.1 0 .1.2.1.2 0 .1-.1.1-.2.1zM67.2 38.7c-.1 0-.2 0-.3-.1-.1 0-.1-.1-.1-.2s.2-.1.2-.1c.3.2.9-.2 1.2-.6.1-.1.2-.1.2-.1.1.1.1.2.1.2-.3.6-.8.8-1.3.9zM53.8 21.6c-.5 0-1-.1-1.5-.4-.1 0-.1-.2-.1-.2 0-.1.2-.1.2-.1.7.4 1.4.4 2.2.1.6-.3 1.1-1 1.2-1.7 0-.1.1-.1.2-.1s.2.1.1.2c-.1.8-.7 1.5-1.4 1.9-.2.2-.6.3-.9.3zM95.2 30.6c-.1 0-.2-.1-.2-.2-.1-.8-.6-1.6-1.2-2.1-.2-.2-.5-.3-.8-.3-.1 0-.2 0-.2-.1s0-.2.1-.2h.1c.4 0 .8.1 1.1.4.7.6 1.2 1.4 1.3 2.4.1 0 0 .1-.2.1zM73.3 42.8c-.1 0-.1-.1-.2-.1-.6-1.9-3.2-3.9-4.7-3.9-.1 0-.2 0-.2-.1s0-.2.1-.2h.1c1.8 0 4.5 2.2 5.1 4.1 0 .1 0 .2-.1.2h-.1z"/><path class="st13" d="M72.6 41.3c-.1 0-.2-.1-.2-.2s.1-.2.1-.2c.8 0 1.5-.5 1.9-1.2 0-.1.1-.1.2-.1s.1.2.1.2c-.3 1-1.1 1.5-2.1 1.5z"/><path class="st13" d="M73.8 42.2c-.1 0-.1 0-.2-.1 0-.1 0-.2.1-.2.8-.2 1.4-.8 1.7-1.5.2-.5.1-1-.1-1.5-.1-.1 0-.2 0-.3.1-.1.2 0 .3 0 .3.5.4 1.2.2 1.8-.4.9-1.1 1.6-2 1.8zM50.3 46.4c-.1 0-.2 0-.3-.1-1-.5-1.8-1.3-2.4-2.2-.1-.2-.1-.5 0-.7.2-.3.6-.5.9-.5.8-.1 1.6-.1 2.3-.1.1 0 .2.1.2.2s-.1.2-.2.2c-.8 0-1.5 0-2.3.1-.3 0-.5.1-.7.3-.1.1-.1.3 0 .4.6.8 1.3 1.5 2.2 2 .1.1.2 0 .5-.2.1-.1.3-.2.4-.3.2-.1.3-.1.5-.2l-1.2-1.2-.2-.2c-.1-.1 0-.2 0-.3h.2l.2.2c.5.4.9.8 1.3 1.3.1.1.1.2.1.3 0 .1-.2.2-.4.2s-.3.1-.5.1c.1.3 0 .3-.1.4-.1.2-.3.2-.5.3z"/><path class="st13" d="M60.7 75.9c-.1 0-.1-.1-.2-.1l-.3-1.5-5-23.1s-.3-1.5-.6-2.7c-.2-.8-2.1-2.2-2.9-2.8-.1-.1-.1-.2 0-.2.1-.1.2-.1.2 0 .3.2 2.7 1.9 3 3 .3 1.2.6 2.7.6 2.7l5.3 24.6c.1 0 .1.1-.1.1z"/><path class="st13" d="m85 53.5-32.1-4.6c-.1 0-.1 0-.1-.1v-.2c.2-.5.6-.9 1.2-1.2.7-.2 1.5-.3 2.3-.3l7.2-.1c.1 0 .2.1.2.2s-.1.2-.2.2l-7.2.1c-.7 0-1.4 0-2.1.2-.4.2-.7.5-.9.8L85 53.1l20-.1c.1 0 .2.1.2.2s-.1.2-.2.2l-20 .1z"/><path class="st13" d="M59.9 76.5s-.1 0-.1-.1L58.4 75v-.1l-5.6-26.1c0-.1 0-.2.1-.2s.2 0 .2.1l5.5 26.1 1.3 1.3h.3c.1 0 .2.1.2.2s-.1.2-.2.2h-.3zM64.9 76.3c-.1 0-.2-.1-.2-.2s.1-.2.2-.2l2.8-.1c.1 0 .2.1.2.2s-.1.2-.2.2l-2.8.1zM71.8 76.1c-.1 0-.2-.1-.2-.2s0-.2.1-.2l14.3-.5 23.2-2.7.3-17.7c0-.1.1-.2.2-.2s.2.1.2.2l-.3 18c0 .1-.1.2-.1.2l-23.3 2.7-14.4.4z"/><path class="st13" d="M85.9 75.5c-.1 0-.2-.1-.2-.2l-1.1-21.9c0-.1.1-.2.2-.2s.2.1.2.1l1.1 21.8c0 .3-.1.3-.2.4z"/><path class="st13" d="M84.9 54.3 53 49.7c-.1 0-.2-.1-.2-.2s.1-.2.2-.2L84.9 54l22.2-.1c.1 0 .2.1.2.2s-.1.2-.2.2H84.9z"/><path class="st13" d="m55.8 53.8-1.7-.5s-1-.3-1.2-1c-.3-1.1-.6-2.7-.6-2.7-.1-.6-.3-1.2-.5-1.8-.2-.5-1.1-1.2-1.5-1.4-.1-.1-.1-.2-.1-.2.1-.1.2-.1.2 0 .1 0 1.4.8 1.6 1.6.2.6.4 1.8.4 1.9s.3 1.6.5 2.7c.2.5 1 .8 1 .8l1.7.5c.1 0 .1.1.1.2.2-.1.2-.1.1-.1z"/><path class="st13" d="m84.8 56.2-31.2-4.6c-.1 0-.2-.1-.2-.2s.1-.2.2-.2l31.1 4.6 24.7-.3c.1 0 .2.1.2.2s-.1.2-.2.2l-24.6.3zM85.3 63.2l-30.1-4.4c-.1 0-.2-.1-.2-.2s.1-.2.2-.2l30.1 4.4 24.1-1.1c.1 0 .2.1.2.2s-.1.2-.2.2l-24.1 1.1zM85.6 70.5l-28.8-4c-.1 0-.2-.1-.2-.2s.1-.2.2-.2l28.8 4 23.6-1.9c.1 0 .2 0 .2.1s0 .2-.1.2h-.1l-23.6 2zM58.5 73.9c-.1 0-.2-.1-.2-.2s.1-.2.2-.2l27.3-.8 23.5-2.6c.1 0 .2.1.2.2s-.1.2-.2.2l-23.5 2.6-27.3.8z"/><path class="st13" d="M109.2 72.6 86 70.9c-.1 0-.2-.1-.2-.2s.1-.2.2-.2l23.2 1.6c.1 0 .2.1.2.2 0 .2-.1.3-.2.3zM58.7 75c-.1 0-.2-.1-.2-.1 0-.1 0-.2.1-.2l9.4-2.1c.1 0 .2 0 .2.1s0 .2-.1.2L58.7 75zM75.5 75.8c-.1 0-.2-.1-.2-.1l-2.9-23.1c0-.1.1-.2.2-.2s.2.1.2.2l2.9 23.1s-.1.1-.2.1zM76.8 75.8c-.1 0-.2-.1-.2-.2l-2.7-23c0-.1 0-.2.1-.2s.2 0 .2.1v.1l2.8 23c0 .1-.1.2-.2.2zM77.9 75.8c-.1 0-.1-.1-.1-.1L75.5 53c0-.1.1-.2.1-.2.1 0 .2.1.2.1L78 75.6c.1.1 0 .2-.1.2zM79.1 75.7c-.1 0-.2-.1-.2-.2L77 53.2c0-.1 0-.2.1-.2s.2 0 .2.1v.1l1.9 22.3c.1.2 0 .3-.1.2zM80.6 75.7c-.1 0-.2-.1-.2-.2l-1.9-22.1c0-.1.1-.2.2-.2s.2.1.2.1l2 22.1c-.1.2-.2.2-.3.3zM82 75.7c-.1 0-.2-.1-.2-.2l-1.7-21.9c0-.1.1-.2.2-.2s.2.1.2.1l1.6 21.9c.1.2 0 .2-.1.3zM83.4 75.5c-.1 0-.2-.1-.2-.2l-1.4-21.5c0-.1.1-.2.1-.2.1 0 .2.1.2.1l1.5 21.5c.1.2 0 .3-.2.3.1 0 .1 0 0 0zM84.9 75.5c-.1 0-.1-.1-.1-.2l-1.4-21.1c0-.1.1-.2.2-.2s.2.1.2.2l1.4 21.1c-.1.1-.1.2-.3.2zM74 75.9c-.1 0-.2-.1-.2-.2l-2.9-23.4c0-.1.1-.2.2-.2s.2.1.2.2l2.9 23.4c0 .1-.1.2-.2.2zM72.5 76c-.1 0-.2-.1-.2-.2l-3-23.8c0-.1.1-.2.2-.2s.2 0 .2.1l3 23.8c0 .2-.1.2-.2.3zM71.1 75.9c-.1 0-.2-.1-.2-.2l-3.1-23.9c0-.1.1-.2.2-.2s.2.1.2.1l3.1 23.9c0 .2-.1.3-.2.3z"/><path class="st13" d="M71.5 75.8c-.1 0-.2-.1-.2-.2l-3.1-23.8c0-.1.1-.2.2-.1.1 0 .1.1.1.1l3.1 23.8c.1.2 0 .3-.1.2zM68.3 75.5l-.1-1-3-23c0-.1.1-.2.2-.2s.2 0 .2.1l3.1 23.9-.4.2zM67.3 76c-.1 0-.2-.1-.2-.1l-3.4-24.5c0-.1 0-.2.1-.2s.2 0 .2.1l3.4 24.5c.1.1.1.2-.1.2.1 0 .1 0 0 0zM66.1 76.1c-.1 0-.2-.1-.2-.1l-3.8-25c0-.1 0-.2.1-.2s.2 0 .2.1l3.8 25c.1.1 0 .2-.1.2zM64.8 76.1c-.1 0-.2-.1-.2-.1l-4-25.2c0-.1 0-.2.1-.2s.2 0 .2.1l4 25.1c.1.2 0 .3-.1.3zM63.3 75.8c-.1 0-.2-.1-.2-.2L59 50.5c0-.1.1-.2.2-.2s.2 0 .2.1l4.1 25.2c0 .1-.1.2-.2.2zM62 75.9c-.1 0-.2 0-.2-.1l-4.6-25.4c0-.1 0-.2.1-.2s.2 0 .2.1l4.6 25.5c.1 0 0 .1-.1.1zM87.2 75.3c-.1 0-.2-.1-.2-.2l-.9-20.8c0-.1.1-.2.2-.2s.2.1.2.2l.9 20.8c0 .1-.1.2-.2.2zM88.7 75.1c-.1 0-.2-.1-.2-.2l-.9-20.8c0-.1.1-.2.2-.2s.2.1.2.2l.9 20.8c0 .1-.1.2-.2.2zM90.2 74.9c-.1 0-.2-.1-.2-.2l-.8-20.6c0-.1 0-.2.1-.2s.2 0 .2.1v.1l.9 20.6c0 .2-.1.2-.2.2zM91.7 74.9c-.1 0-.2-.1-.2-.2l-.8-20.4c0-.1.1-.2.2-.2s.2.1.2.2l.8 20.4c0 .1-.1.2-.2.2zM93.2 74.6c-.1 0-.2-.1-.2-.2l-.7-20.2c0-.1.1-.2.2-.2s.2.1.2.2l.7 20.2c0 .1-.1.2-.2.2zM94.6 74.4c-.1 0-.2-.1-.2-.2l-.6-20c0-.1.1-.2.2-.2s.2.1.2.2l.6 20c0 .1-.1.2-.2.2zM108.2 72.9c-.1 0-.2-.1-.2-.2l.1-18.2c0-.1.1-.2.2-.2s.2.1.2.2l-.1 18.2c0 .1-.1.2-.2.2zM106.9 73c-.1 0-.2-.1-.2-.2V54.2c0-.1.1-.2.2-.2s.2.1.2.2l-.1 18.6c.1.1 0 .2-.1.2zM105.6 73.3c-.1 0-.2-.1-.2-.2V54.2c0-.1.1-.2.2-.2s.2.1.2.2v18.9c0 .1-.1.2-.2.2zM104.4 73.3c-.1 0-.2-.1-.2-.2v-19c0-.1.1-.2.2-.2s.2.1.2.2v19.1s-.1.1-.2.1zM96 74.3c-.1 0-.2-.1-.2-.2l-.3-19.8c0-.1.1-.2.2-.2s.2.1.2.2l.3 19.8c0 .1-.1.2-.2.2zM97.3 74.1c-.1 0-.2-.1-.2-.2l-.3-19.8c0-.1.1-.2.2-.2s.2.1.2.2l.3 19.9c0 .1-.1.1-.2.1zM98.7 74c-.1 0-.2-.1-.2-.2l-.3-19.5c0-.1.1-.2.2-.2s.2.1.2.2l.3 19.5c0 .1-.1.2-.2.2zM100.1 73.9c-.1 0-.2-.1-.2-.2l-.3-19.4c0-.1.1-.2.2-.2s.2.1.2.2l.3 19.4c0 .1-.1.2-.2.2zM101.4 73.7c-.1 0-.2-.1-.2-.2l-.3-19.3c0-.1.1-.2.2-.2s.2.1.2.2l.3 19.4s-.1.1-.2.1zM102.9 73.4c-.1 0-.2-.1-.2-.2l-.3-19c0-.1.1-.2.2-.2s.2.1.2.2l.3 19c0 .1-.1.2-.2.2zM56 48.7c-.1 0-.2 0-.2-.1l-.2-1c0-.1 0-.2.1-.2s.2 0 .2.1l.2 1c.1.1 0 .2-.1.2zM58.2 48.9c-.1 0-.2-.1-.2-.1l-.2-1.2c0-.1 0-.2.1-.2s.2 0 .2.1l.2 1.2c.1.1 0 .2-.1.2zM60.1 49.2c-.1 0-.2-.1-.2-.1l-.3-1.5c0-.1 0-.2.1-.2s.2 0 .2.1l.3 1.5c.1.1 0 .2-.1.2.1 0 0 0 0 0zM61.9 49.4c-.1 0-.2-.1-.2-.2l-.3-1.7c0-.1 0-.2.1-.2s.2.1.2.2l.3 1.7c.1.1.1.2-.1.2zM87.5 52.8c-.1 0-.2-.1-.2-.2l-.1-3.2c0-.1.1-.2.2-.2s.2.1.2.1l.1 3.2c-.1.2-.1.2-.2.3zM88.9 52.8c-.1 0-.2-.1-.2-.2l-.1-2.3c0-.1.1-.2.2-.2s.2.1.2.2l.1 2.3c0 .1-.1.2-.2.2zM90.4 52.8c-.1 0-.2-.1-.2-.2V51c0-.1.1-.2.2-.2s.2.1.2.2v1.7s-.1.1-.2.1zM91.9 52.8c-.1 0-.2-.1-.2-.2v-1.2c0-.1.1-.2.2-.2s.2.1.2.2v1.2c-.1.2-.1.2-.2.2zM93.4 52.8c-.1 0-.2-.1-.2-.2v-.7c0-.1.1-.2.2-.2s.2.1.2.2v.8c0 .1-.1.1-.2.1zM95.2 52.8c-.1 0-.2-.1-.2-.2v-.5c0-.1.1-.2.2-.2s.2.1.2.2v.5c0 .1-.1.2-.2.2zM53.7 99.4c-.7 0-1.3-.3-1.8-.7-.2-.5-.1-1.1.2-1.6.1-.1.2-.2.2-.3.1-.1.2-.2.2-.3 0-.1.1-.2.1-.2 0-.1.1-.2.2-.2s.2.1.2.2 0 .3-.1.4c-.1.1-.2.3-.3.4l-.2.2c-.2.3-.3.8-.2 1.1.4.3 1 .5 1.5.6.5-.1 1-.2 1.5-.4.1-.4.1-.8 0-1.2 0-.1-.1-.2-.2-.3-.1-.1-.2-.3-.3-.5 0-.1.1-.2.2-.2s.2.1.2.2.1.2.2.3c.1.1.2.3.3.5.1.5.1 1 0 1.5-.1.3-1.6.5-1.9.5zM52.5 105.5c-.4 0-.7-.3-1-.9-.3-.6-.4-1.3-.4-1.9 0-1.6.6-2.8 1.3-2.8.8 0 1.4 1.2 1.4 2.8 0 .7-.1 1.4-.3 2-.3.5-.6.9-1 .8zm-1-2.8c0 .6.1 1.2.3 1.8.2.4.4.7.7.7.2 0 .5-.2.7-.7.2-.6.3-1.2.3-1.8 0-1.5-.5-2.5-1-2.5s-1 1-1 2.5z"/><path class="st13" d="M52.4 104c-.4 0-.6-.7-.6-1.3 0-.3 0-.6.1-.9.1-.4.3-.5.5-.5.4 0 .6.7.6 1.3 0 .3 0 .6-.1.9-.2.4-.4.5-.5.5zm0-2.3c-.1 0-.2.4-.2 1s.2 1 .3 1c.2-.3.3-.6.2-1-.1-.7-.3-1-.3-1zM52.5 100.2c-.1 0-.2-.1-.2-.1 0-.1.1-.2.2-.2h1.1c.1 0 .2.1.2.2s-.1.2-.2.2c-.4-.2-.8-.2-1.1-.1zM53.1 105.5c-.2 0-.5 0-.7-.1-.1 0-.2-.1-.1-.2 0-.1.1-.2.2-.1.5.1 1 .1 1.5 0 .7-.2 1-.9 1.1-2.3v-.9c0-.1.1-.2.1-.2.1 0 .2.1.2.1v1c-.1 1.6-.5 2.5-1.3 2.7-.4.1-.7.1-1 0zM51.2 101.8l-.3-.1c-.4-.2 0-1.4.1-1.6.3-.6.7-1.1 1.3-1.3.1 0 .2 0 .2.1s0 .2-.1.2c-.5.2-.9.6-1.2 1.2-.2.4-.2.8-.2 1.2l.2.1v.2z"/><path class="st13" d="M54.6 102c-.3 0-.5 0-.6-.1 0-.1-.1-.2-.1-.3 0-.5-.2-.9-.4-1.3-.3-.4-.9-1.1-1.7-.8-.1 0-.2 0-.2-.1s0-.2.1-.2c.7-.3 1.5 0 2.1.9.3.4.4.9.5 1.4v.1c.4 0 .8 0 1.2-.1 0-.3-.2-1.9-.8-2.3-.1-.1-.1-.2-.1-.2.1-.1.2-.1.2-.1.8.5 1 2.4.9 2.7s-.2.2-.5.2c.1.1-.3.2-.6.2z"/><path class="st13" d="M52.4 100.1c-.1 0-.2-.1-.2-.2v-.6c0-.1.1-.2.2-.2s.2.1.2.2v.7s-.1.1-.2.1zM80.5 95.7c-.6 0-1.1-.2-1.6-.6-.2-.5-.2-1 .1-1.4.1-.1.1-.2.2-.3.1-.1.1-.2.2-.3v-.7c0-.1.1-.2.1-.2.1 0 .2.1.2.2 0 .3 0 .6-.1.9l-.3.3-.2.2c-.2.3-.2.7-.1 1 .4.3.9.4 1.4.4.5-.1.9-.2 1.3-.3 0-.3 0-.7-.1-1 0-.1-.1-.3-.2-.4-.2-.3-.3-.6-.3-.9 0-.1.1-.2.2-.2s.2.1.2.2c0 .3.1.5.3.8.1.1.2.3.2.4.1.4.1.9 0 1.3s-1.4.6-1.5.6zM79.6 101.1c-.7 0-1.2-1-1.3-2.4 0-.6 0-1.2.2-1.7s.5-.8.9-.8c.7 0 1.3 1 1.3 2.4 0 .6 0 1.2-.2 1.7s-.5.8-.9.8zm-1-2.5c.1 1.2.5 2.1 1 2.1.2 0 .4-.2.6-.6.2-.5.2-1 .2-1.6-.1-1.2-.5-2.1-1-2.1-.2 0-.4.2-.6.6-.2.5-.3 1.1-.2 1.6z"/><path class="st13" d="M79.4 99.8c-.4 0-.6-.6-.6-1.2s.1-1.2.5-1.2c.1 0 .3.1.4.4.1.2.2.5.2.8.1.5-.1 1.2-.5 1.2zm-.2-1.2c0 .3.1.6.2.8.1-.3.2-.6.1-.9 0-.3-.1-.6-.2-.8-.1.3-.1.6-.1.9zM79.4 96.4c-.1 0-.2-.1-.2-.2s.1-.2.2-.2h.9c.1 0 .2.1.2.2s-.1.2-.2.2c-.3-.1-.6 0-.9 0zM80 101.1h-.5c-.1 0-.2-.1-.1-.2 0-.1.1-.2.2-.2.4.1.8 0 1.2-.1.6-.2.8-.9.9-2.1 0-.3 0-.5-.1-.8 0-.1.1-.2.2-.2s.2.1.2.2v.9c0 1.4-.4 2.2-1.1 2.4-.3.1-.6.1-.9.1zM78.3 97.9l-.3-.1c-.4-.2-.1-1.2 0-1.4.2-.6.6-1 1.1-1.2.1 0 .2 0 .2.1s0 .2-.1.2c-.5.2-.8.5-1 1-.1.3-.2.7-.2 1l.2.1.1.3z"/><path class="st13" d="M81.2 97.9c-.2 0-.4 0-.4-.1-.1-.1-.1-.2-.1-.3-.1-.4-.2-.8-.4-1.1-.2-.4-.8-.9-1.4-.6-.1 0-.2 0-.2-.1s0-.2.1-.2c.7-.3 1.5 0 1.9.7.2.4.4.8.5 1.3v.1c.3 0 .7 0 1-.1 0-.3-.2-1.6-.7-1.9-.1-.1-.1-.2 0-.3 0-.1.1-.1.2-.1.7.4 1 2.1.9 2.4-.1.2-.2.2-.5.2-.5.1-.7.1-.9.1z"/><path class="st13" d="M79.4 96.4c-.1 0-.2-.1-.2-.2v-.6c0-.1.1-.2.2-.2s.2.1.2.1v.6c-.1.2-.1.3-.2.3z"/><path class="st13" d="M88.9 105.9c-.5 0-1-.2-1.2-.6 0-.1 0-.2.1-.2s.2 0 .2.1c.1.3.6.4 1 .3s.6-.2.6-.2c.1-1.9.1-3.9-.1-5.8-.3-3.8-5.1-8.6-9.2-12.4-5.2-4.8-11.2-10.3-14.8-10-2.3.2-3.2.8-5.4 4.6-2 3.6-4.5 8.9-5.8 11.7l-.2.5c-.3.6-.6 1.2-.8 1.8 0 0 0 .1.1.2.4.2.8.2 1.2.1 0-.1.1-.1.2-.1s.1.2.1.2c-.2.4-1.2.3-1.6.1-.3-.2-.3-.5-.2-.6.2-.4.6-1.3.9-1.9.1-.2.2-.4.2-.5C55.5 90.3 58 85 60 81.5c2.2-3.9 3.2-4.6 5.6-4.7 3.8-.3 9.5 5 15.1 10.1 4.4 4.1 9 8.7 9.3 12.6.1 1.9.2 3.9.1 5.8 0 .3-.3.5-.9.6h-.3z"/><path class="st13" d="M71.4 77.7h-3c-.1 0-.2-.1-.2-.2s.1-.2.2-.2h2.9c.6-.4 1.2-.7 1.8-1 .9-.3 1.7-.6 2.6-.8.1 0 .2 0 .2.1s0 .2-.1.2c-.9.2-1.7.5-2.6.8-.6.4-1.2.7-1.8 1.1z"/><path class="st13" d="M63.2 77.7h-2.8c-.1 0-.2-.1-.2-.2l-.2-1.7v-.1l.1-.1 3.9-.1c.1 0 .1 0 .2.1.5.5 1.2.7 1.9.6.8.1 1.6-.2 2.1-.8l.1-.1 2.6-.1c.1 0 .2.1.2.2l.2 2.1c0 .1-.1.2-.1.2-.1 0-.2-.1-.2-.2l-.2-1.9-2.3.1c-.6.6-1.5.9-2.3.9-.8.1-1.6-.2-2.2-.7l-3.6.1.2 1.4h2.7c.1 0 .2.1.2.2-.1 0-.2.1-.3.1z"/><path class="st13" d="M71.9 77.4c-.1 0-.2-.1-.2-.2l-.2-1.2-.5-.5c-.1-.1-.1-.2 0-.2.1-.1.2-.1.2 0l.6.5.1.1.2 1.3c0 .1-.1.2-.2.2zM87.9 105.4c-.1 0-.2-.1-.2-.2 0 0 .1-3.2 0-5.3-.3-3.3-3.2-6.5-7.7-10.9-5.1-4.9-10.8-10.2-14-10.3-1.7-.1-2.8 1.1-4.7 4.6-2.5 4.6-6.1 12.8-6.2 12.9 0 .1-.1.1-.2.1s-.1-.1-.1-.2 3.7-8.2 6.2-12.9c2-3.7 3.2-4.9 5-4.8 3.4.1 9.1 5.5 14.3 10.4 4.6 4.4 7.6 7.6 7.8 11.1.2 2.2 0 5.4 0 5.4-.1 0-.1.1-.2.1z"/><path class="st13" d="M54.2 97c-.4 0-.8-.1-1.2-.3-.4-.2-.5-.5-.5-.8s.4-.6.6-.7c.1 0 .2 0 .2.1s0 .2-.1.2c-.2.1-.4.2-.4.4s.1.3.4.5c.5.3 1.1.4 1.6.1 0 0 .1-.1 0-.3-.1-.1-.1-.2 0-.2.1-.1.2-.1.2 0 .2.2.2.5 0 .8-.1.1-.4.2-.8.2zM88.7 109.1c-.7 0-1.3-.3-1.8-.7-.2-.5-.2-1.1.1-1.6.1-.1.2-.2.2-.3.1-.1.2-.2.2-.3v-.2c0-.1.1-.2.2-.2s.2.1.2.2 0 .2-.1.3c-.1.1-.2.3-.3.4-.1.1-.1.2-.2.3-.2.3-.3.8-.1 1.1.5.3 1 .5 1.6.5.5-.1 1-.2 1.5-.4.1-.4 0-.8-.1-1.2 0-.1-.1-.2-.2-.3-.1-.1-.2-.3-.3-.5 0-.1 0-.2.1-.2s.2 0 .2.1v.1c0 .1.1.2.2.3.1.1.2.3.3.4.1.5.1 1 0 1.5 0 .4-1.4.6-1.7.7zM87.7 115.2c-.4 0-.7-.3-1-.8-.3-.6-.4-1.3-.4-1.9 0-.7 0-1.4.3-2 .2-.6.6-.9 1-.9s.8.3 1 .8c.5 1.2.6 2.6.1 3.9-.3.5-.6.8-1 .9zm-.2-5.3c-.2 0-.5.3-.7.7-.2.6-.3 1.2-.3 1.8 0 .6.1 1.2.4 1.8.2.4.4.7.7.7.2 0 .5-.3.7-.7.2-.6.3-1.2.3-1.8 0-.6-.1-1.2-.4-1.8-.2-.5-.5-.7-.7-.7z"/><path class="st13" d="M87.5 113.7c-.4 0-.6-.7-.6-1.3 0-.7.1-1.4.6-1.4.4 0 .6.7.6 1.3s-.2 1.4-.6 1.4zm-.1-2.3c-.2.3-.2.7-.2 1 0 .6.2 1 .3 1 .2-.3.3-.7.2-1 0-.6-.2-1-.3-1zM87.5 109.9c-.1 0-.2-.1-.2-.1 0-.1 0-.2.1-.2.4-.1.7-.1 1.1-.1.1 0 .2.1.2.2s-.1.2-.2.2h-.1c-.3-.1-.6-.1-.9 0zM88.5 115.3c-.3 0-.6 0-.9-.1-.1 0-.1-.1-.1-.2s.1-.1.2-.1c.5.1 1.1.1 1.6 0 .6-.2.8-1 .9-2.4v-.9c0-.1.1-.2.1-.2.1 0 .2.1.2.1v1c0 1.6-.4 2.5-1.1 2.8h-.9zM86.3 111.5l-.3-.1c-.4-.2-.1-1.4 0-1.6.2-.6.7-1.1 1.3-1.4.1 0 .2 0 .2.1s0 .2-.1.2c-.5.2-.9.7-1.1 1.2-.2.4-.2.8-.2 1.2l.2.1v.3z"/><path class="st13" d="M89.5 111.6c-.2 0-.4 0-.5-.1-.1-.1-.1-.2-.1-.3-.1-.5-.2-.9-.5-1.3s-.9-1.1-1.7-.7c-.1 0-.2 0-.2-.1s0-.2.1-.2c.7-.3 1.5 0 2.1.8.3.4.4.9.5 1.4v.1c.4 0 .8 0 1.2-.1 0-.3-.2-1.9-.8-2.2-.1-.1-.1-.2-.1-.2 0-.1.1-.1.2-.1.8.5 1.1 2.4 1 2.7-.1.3-.2.2-.5.2-.1.1-.4.1-.7.1z"/><path class="st13" d="M87.4 109.9c-.1 0-.2-.1-.2-.2v-.7c0-.1.1-.2.2-.2s.2.1.2.2v.7c0 .1 0 .1-.2.2.1-.1.1 0 0 0zM88.9 106.5c-.3 0-.6-.1-.9-.2-.7-.3-.8-.6-.8-.8 0-.3.2-.5.5-.6.1 0 .2 0 .2.1s0 .2-.1.2-.2.1-.2.3c0 .1 0 .3.6.5s1.7.1 1.9-.2c.1-.1-.1-.3-.2-.3s-.1-.2-.1-.2c0-.1.2-.1.2-.1.4.4.4.7.3.8-.3.4-.8.6-1.4.5zM103.6 103.1c-.4.1-.9-.2-1-.6 0-.1 0-.2.1-.2s.2 0 .2.1c0 .2.4.3.7.3.3 0 .6-.2.6-.3.1-2.5.1-4.5 0-6.1-.2-3.8-4-9.7-6.9-13.8l-.2-.3c-2.2-3.2-4-5.6-5.8-7.2-.1-.1-.1-.2-.1-.2.1-.1.2-.1.2-.1 1.9 1.6 3.6 4.1 5.9 7.3l.2.3c3.1 4.5 6.7 10.1 6.9 14 .1 1.7.1 3.7 0 6.2 0 .4-.5.6-.9.6h.1zM81.2 87.8c-.1 0-.1-.1-.1-.2.8-2.8 1.9-6.6 2.9-9.4.4-1.2.7-2 1-2.7 0-.1.1-.1.2-.1s.1.1.1.2c-.3.7-.6 1.5-1 2.7-1 2.8-2.1 6.7-2.8 9.4-.1 0-.2.1-.3.1zM80.7 92.6h-.3c-.4 0-.6-.4-.6-.7v-.1c.1-.5.3-1.3.5-1.9 0-.2.1-.4.1-.4 0-.1.1-.1.2-.1s.1.1.1.2-.1.2-.1.4c-.2.5-.4 1.4-.5 1.8-.1.2.1.3.3.4.1.1.3.1.5 0 0-.1.1-.1.2-.1s.1.1.1.2c-.1.3-.3.4-.5.3z"/><path class="st13" d="M102.8 102.6c-.1 0-.2-.1-.2-.2 0 0 .1-3.2 0-5.5 0-.1.1-.2.2-.1.1 0 .1.1.1.1.1 2.3 0 5.5 0 5.5.1.1 0 .2-.1.2zM102.5 95.2c-.1 0-.2-.1-.2-.1-.6-2.9-2.5-5.8-4.9-9.5-2.8-4.2-6-9-8.3-10.3-.1-.1-.1-.2-.1-.2 0-.1.1-.1.2-.1 2.3 1.3 5.5 6.2 8.4 10.4 2.5 3.8 4.3 6.7 5 9.6.1.1.1.2-.1.2zM82.1 88.7c-.1 0-.2-.1-.1-.2.8-2.9 1.8-6.3 2.6-8.5.4-1.6 1.1-3.2 2-4.6.1-.1.2-.1.2 0 .1.1.1.2 0 .2-.9 1.4-1.6 2.9-2 4.4-.7 2.2-1.8 5.6-2.5 8.5 0 .1-.1.2-.2.2zM81.1 92.5c-.1 0-.2-.1-.2-.2l.5-1.9c0-.1.1-.1.2-.1s.2.1.1.2l-.5 1.9c0 .1 0 .1-.1.1z"/><path class="st13" d="M80.7 93.1c-.4 0-.9-.1-1.2-.4-.2-.2-.2-.4-.1-.6.1-.2.3-.3.5-.3.1 0 .2.1.2.2s-.1.2-.2.2-.2.1-.2.1c0 .1 0 .2.1.3.4.3.9.4 1.4.2 0 0 .2-.1-.1-.5-.1-.1-.1-.2 0-.2.1-.1.2-.1.2 0 .4.6.1.9 0 1h-.6zM103.6 103.6h-.1c-.5 0-.9-.2-1.2-.6-.1-.3 0-.6.3-.8.1-.1.2-.1.2 0 .1.1.1.2 0 .2-.1.1-.3.3-.2.4.1.2.4.4.9.4.4 0 .9-.1 1-.3.1-.2-.1-.2-.2-.3-.1-.1-.1-.2 0-.2.1-.1.2-.1.2 0 .3.3.3.6.3.7-.1.3-.7.5-1.2.5z"/><path class="st13" d="M103.5 105.9c-.6 0-1.2-.3-1.7-.7-.2-.5-.2-1 .1-1.5.1-.1.1-.2.2-.3.1-.1.2-.2.2-.3v-.1c0-.1.1-.1.2-.1s.1.1.1.2l-.1.2-.3.3-.2.2c-.2.3-.2.7-.1 1.1.4.3.9.5 1.5.5.5-.1 1-.2 1.4-.3.1-.4 0-.8-.1-1.1 0-.1-.1-.2-.2-.3-.1-.1-.2-.3-.3-.5 0-.1 0-.2.1-.2s.2 0 .2.1v.1c0 .1.1.2.2.3.1.1.2.3.3.4.1.5.1.9 0 1.4.1.3-1.3.5-1.5.6zM102.5 111.7c-.7 0-1.3-1.1-1.4-2.6 0-.6.1-1.3.3-1.9.2-.6.6-.9.9-.9.4 0 .7.3 1 .8.3.6.4 1.2.4 1.9 0 .6-.1 1.3-.3 1.9-.2.5-.5.8-.9.8zm-1-2.7c.1 1.4.6 2.3 1 2.3.2 0 .4-.2.6-.7.2-.6.3-1.1.2-1.7 0-.6-.1-1.2-.4-1.7-.2-.4-.4-.6-.7-.6-.2 0-.4.2-.6.7-.1.6-.2 1.1-.1 1.7z"/><path class="st13" d="M102.3 110.3c-.4 0-.6-.7-.6-1.3 0-.6.1-1.3.5-1.3s.6.7.6 1.3c0 .3 0 .6-.1.8 0 .4-.2.5-.4.5zm-.2-1.3c0 .6.2.9.3.9.2-.3.2-.7.2-1 0-.6-.2-.9-.3-.9-.2.3-.3.6-.2 1zM102.3 106.6c-.1 0-.2-.1-.1-.2 0-.1.1-.1.1-.1.3 0 .7-.1 1-.1.1 0 .2.1.2.2s-.1.2-.2.2h-1zM103.3 111.8c-.3 0-.6 0-.9-.1-.1 0-.1-.1-.1-.2s.1-.1.2-.1c.5.1 1 .1 1.5 0 .5-.2.8-1 .8-2.3v-.9c0-.1 0-.2.1-.2s.2 0 .2.1v1c0 1.6-.4 2.4-1.1 2.7h-.7zM101.2 108.2l-.3-.1c-.4-.2-.1-1.3 0-1.6.2-.6.7-1.1 1.3-1.3.1 0 .2 0 .2.1s0 .2-.1.2c-.5.2-.9.7-1.1 1.2-.1.4-.2.7-.2 1.1l.2.1v.3zm-.2-.4z"/><path class="st13" d="M104.3 108.3c-.2.1-.4 0-.5-.1 0-.1-.1-.2 0-.3-.1-.4-.2-.9-.4-1.2-.3-.4-.8-1-1.6-.7-.1 0-.2 0-.2-.1s0-.2.1-.2c.7-.3 1.4 0 2 .8.3.4.4.9.5 1.4v.1c.4 0 .8 0 1.1-.1 0-.3-.2-1.8-.8-2.1-.1 0-.1-.1-.1-.2s.2-.1.2-.1c.8.4 1 2.3.9 2.6-.1.3-.2.2-.5.2.1-.1-.4 0-.7 0z"/><path class="st13" d="M102.3 106.6c-.1 0-.2-.1-.2-.2v-.6c0-.1.1-.2.2-.2s.2.1.2.1v.6c0 .2-.1.3-.2.3zM89.7 98.6c-.1 0-.2-.1-.2-.1 0-.1 0-.2.1-.2l12.9-3.3c.1 0 .2 0 .2.1s0 .2-.1.2l-12.9 3.3z"/><path class="st13" d="M89.9 100.2c-.1 0-.2-.1-.2-.1 0-.1 0-.2.1-.2l12.9-3.2c.1 0 .2 0 .2-.1.1-.2.2-.5.1-.8 0-.2-.1-.4-.2-.5 0 0-.1-.1-.3 0-.1 0-.2 0-.2-.1s0-.2.1-.2c.2-.1.4 0 .6.1.2.2.3.4.4.7.1.4 0 .8-.2 1.1-.1.1-.3.2-.4.2l-12.9 3.1zM44.6 47.2c-1.7 0-9-2.7-12-7.5v-.2c.1-.1.2-.1.2 0 3 4.6 10 7.3 11.7 7.3.1 0 .2.1.2.2s0 .1-.1.2zM40.3 47.3c-3.1-.2-6.2-1.5-7.8-3.2-.1-.1 0-.2 0-.2h.2c1.5 1.6 4.6 2.8 7.6 3 .1 0 .2.1.1.2.1.1 0 .1-.1.2zM76.2 26.9s-.1 0 0 0c-.2-.1-.2-.2-.1-.2l2-2.6c.1-.1.2-.1.3 0 .1.1.1.2 0 .3l-2 2.6s-.1 0-.2-.1zM77.6 28.4c-.1 0-.1 0-.1-.1s0-.2.1-.2l3.7-2.1c.1 0 .2 0 .2.1s0 .2-.1.2l-3.8 2.1c.1 0 .1 0 0 0zM78.5 30.2c-.1 0-.2-.1-.2-.1 0-.1 0-.2.1-.2l2.4-.6c.1 0 .2 0 .2.1s0 .2-.1.2l-2.4.6zM74.5 26c-.2 0-.2-.1-.2-.2l.6-1.5c0-.1.1-.1.2-.1s.1.1.1.2l-.6 1.5c.1.1 0 .1-.1.1zM75.2 33.5c0 .1 0 .1 0 0-.2-.1-.2-.2-.1-.2.2-.2.4-.4.7-.4.1 0 .2.1.2.2s-.1.2-.2.2c-.2 0-.3.1-.4.2h-.2zM72.3 34.5c-.1 0-.1 0-.2-.1 0-.1 0-.2.1-.2.3-.2.7-.3 1-.2.1 0 .1.2.1.2 0 .1-.1.1-.2.1-.2 0-.5 0-.7.2h-.1z"/><path class="st15" d="m49.2 86.7-3.1-.4-33.2-4.5c-.1 0-.2-.1-.1-.2 0-.1.1-.2.2-.2l36.3 4.9v.2l-.1.2zM79.5 90.8l-20-2.7c-.1 0-.2 0-.2-.1s0-.2.1-.2H59.7l19.8 2.7c.1 0 .2.1.2.2-.1 0-.1.1-.2.1zM101.1 93.7l-15.3-2.1c-.1 0-.2-.1-.2-.2s.1-.2.2-.2l15.3 2.1c.1 0 .2.1.2.2s-.1.2-.2.2zM137.1 98.6l-32.3-4.4c-.1 0-.2-.1-.2-.2s.1-.2.2-.2l32.3 4.4"/></g></g></svg>