<svg version="1.1" id="Layer_1" xmlns="http://www.w3.org/2000/svg" xmlns:xlink="http://www.w3.org/1999/xlink" x="0" y="0" viewBox="0 0 150 120" xml:space="preserve"><style>.st2{fill:#fa9700}.st12{fill:#ffc064}.st23{fill:#5b2714}</style><g id="Layer_2_1_"><g id="Layer_1-2"><defs><path id="SVGID_1_" d="M20.7 27.4h.2c.1 0-.1-.1 0-.1l102.4.1c1.6 0 3 .9 3.8 2.3l4.6 9.1c.8 1.5.5 3.3-.5 4.6l-22.8 27c-.6.7-1.4 1.2-2.2 1.4l-35.5 8.6-27.6 6.7-21.6 5.2c-1.1.3-2.2.1-3.1-.5-.2-.1-.3-.2-.5-.4-.4-.4-.7-.8-.9-1.3-.2-.5-.3-1.1-.3-1.6v-57c.2-1.9 2-3.2 4-4.1"/></defs><clipPath id="SVGID_2_"><use xlink:href="#SVGID_1_" overflow="visible"/></clipPath><g clip-path="url(#SVGID_2_)"><defs><path id="SVGID_3_" d="M-852.6-1054.9h1600v3428h-1600z"/></defs><clipPath id="SVGID_4_"><use xlink:href="#SVGID_3_" overflow="visible"/></clipPath><g clip-path="url(#SVGID_4_)"><path class="st2" d="M11.6 22.3h125.5v75.1H11.6z"/></g></g><defs><path id="SVGID_5_" d="M81.2 27.3h44.6l5.4 5.8 1.7 8.3V89c-.2.9-.6 1.8-1.2 2.6-.6.6-1.4 1-2.3 1.1H20.1l-1.2-.3s4-1.6 10.3-7.5c2.9-2.6 5.8-5.3 8.4-8.2 2.1-2.1 4-4.3 5.8-6.7 4.1-5.8 8.1-13.7 12.4-20.5 2.4-3.8 5.2-7.4 8.1-10.8 8.5-9.5 17.3-11.4 17.3-11.4"/></defs><clipPath id="SVGID_6_"><use xlink:href="#SVGID_5_" overflow="visible"/></clipPath><g clip-path="url(#SVGID_6_)"><defs><path id="SVGID_7_" d="M-852.6-1054.9h1600v3428h-1600z"/></defs><clipPath id="SVGID_8_"><use xlink:href="#SVGID_7_" overflow="visible"/></clipPath><g clip-path="url(#SVGID_8_)"><path fill="#fff" d="M13.9 22.3h123.9v75.3H13.9z"/></g></g><defs><path id="SVGID_9_" d="m61 75.9-1 .1-.2-.4-.6-3 .5-.4 17.4-3.1.2.3.5 3-.2.4-.9.2L79 84.6c-2.3.2-4.6.6-6.9 1.1-3.9.9-8.7 2.5-8.7 2.5L61 75.9z"/></defs><clipPath id="SVGID_10_"><use xlink:href="#SVGID_9_" overflow="visible"/></clipPath><g clip-path="url(#SVGID_10_)"><defs><path id="SVGID_11_" d="M-852.6-1054.9h1600v3428h-1600z"/></defs><clipPath id="SVGID_12_"><use xlink:href="#SVGID_11_" overflow="visible"/></clipPath><g clip-path="url(#SVGID_12_)"><path class="st2" d="M54.1 64H84v29.2H54.1z"/></g></g><defs><path id="SVGID_13_" d="m78.3 59.4 28.8.1.5.5v5l-.5.4h-1.4l.1 19.2s-6.8-.8-13.2-.9c-4.2 0-8.4.2-12.5.6V65.5h-1.7l-.4-.6V60l.3-.6z"/></defs><clipPath id="SVGID_14_"><use xlink:href="#SVGID_13_" overflow="visible"/></clipPath><g clip-path="url(#SVGID_14_)"><defs><path id="SVGID_15_" d="M-852.6-1054.9h1600v3428h-1600z"/></defs><clipPath id="SVGID_16_"><use xlink:href="#SVGID_15_" overflow="visible"/></clipPath><g clip-path="url(#SVGID_16_)"><path class="st2" d="M72.8 54.4h39.8v35.2H72.8z"/></g></g><defs><path id="SVGID_17_" d="M60.9 65.8c1.1-.6 5.3 3.3 5.3 3.3.4-.2.8-.4 1.2-.5.3-.1.7-.1 1 0 .4-.9.9-1.7 1.6-2.5 1.3-1.4 3-2.4 3.6-2.1.8.5.3 1.4.3 2.2.1.8.9 1.9.9 2.5s-.9 1-.9 1l-11.8 2.1s-1.8.1-2.4-.6c-.3-.5.7-1.7.5-2.4.1-.7.2-2.7.7-3"/></defs><clipPath id="SVGID_18_"><use xlink:href="#SVGID_17_" overflow="visible"/></clipPath><g clip-path="url(#SVGID_18_)"><defs><path id="SVGID_19_" d="M-852.6-1054.9h1600v3428h-1600z"/></defs><clipPath id="SVGID_20_"><use xlink:href="#SVGID_19_" overflow="visible"/></clipPath><g clip-path="url(#SVGID_20_)"><path class="st12" d="M54.9 58.9H80v17.8H54.9z"/></g></g><defs><path id="SVGID_21_" d="M83.2 49c1.3-.5 2.5.8 3.7 2 1.5 1.6 2.8 3.4 3.9 5.2.6-.3 1.2-.5 1.8-.6.5-.1 1 0 1.4.2 1-1.3 2.1-2.5 3.4-3.5 1.4-1.2 3.1-2.2 4.9-2.8 1-.3 1.4-.4 1.7.2.2.7-.7 2.5 0 4.4.5 1 1.1 1.9 1.8 2.6.5.7.6 1.1.2 1.5-.4.5-1 .8-1.6 1.1l-9-.1s-5.2-.1-8.3.1c-3.7.2-7.1-.9-8.1-1.7-1.8-1.5 0-1.9 1.6-4.1.9-1.3 1.2-4 2.6-4.5"/></defs><clipPath id="SVGID_22_"><use xlink:href="#SVGID_21_" overflow="visible"/></clipPath><g clip-path="url(#SVGID_22_)"><defs><path id="SVGID_23_" d="M-852.6-1054.9h1600v3428h-1600z"/></defs><clipPath id="SVGID_24_"><use xlink:href="#SVGID_23_" overflow="visible"/></clipPath><g clip-path="url(#SVGID_24_)"><path class="st12" d="M73.3 43.9h38v20.6h-38z"/></g></g><defs><path id="SVGID_25_" d="M64.7 87.8c5.3-1.7 10.7-2.9 16.2-3.6 7.9-1.1 15.9-1 23.8.3 18.8 2.8 25 8 25 8l-75 .1s2.3-2.1 10-4.8"/></defs><clipPath id="SVGID_26_"><use xlink:href="#SVGID_25_" overflow="visible"/></clipPath><g clip-path="url(#SVGID_26_)"><defs><path id="SVGID_27_" d="M-852.6-1054.9h1600v3428h-1600z"/></defs><clipPath id="SVGID_28_"><use xlink:href="#SVGID_27_" overflow="visible"/></clipPath><g clip-path="url(#SVGID_28_)"><path fill="#cfcfeb" d="M49.7 78.5h85v19.1h-85z"/></g></g><defs><path id="SVGID_29_" d="M22.8 73.5h18.7c1 0 1.9.9 1.9 1.9v9.1c0 1.1-.8 1.9-1.9 1.9H22.8c-1.1 0-1.9-.9-1.9-1.9v-9.1c0-1 .8-1.9 1.9-1.9"/></defs><clipPath id="SVGID_30_"><use xlink:href="#SVGID_29_" overflow="visible"/></clipPath><g clip-path="url(#SVGID_30_)"><defs><path id="SVGID_31_" d="M-852.6-1054.9h1600v3428h-1600z"/></defs><clipPath id="SVGID_32_"><use xlink:href="#SVGID_31_" overflow="visible"/></clipPath><g clip-path="url(#SVGID_32_)"><path fill="#ffca67" d="M15.9 68.5h32.5v22.9H15.9z"/></g></g><defs><path id="SVGID_33_" d="M41.5 86.7H22.8c-1.2 0-2.1-1-2.1-2.2v-9.1c0-1.2 1-2.1 2.1-2.1h18.7c1.2 0 2.1 1 2.2 2.1v9.1c0 1.2-1 2.2-2.2 2.2zm-18.7-13c-.9 0-1.7.7-1.7 1.7v9.1c0 .9.7 1.7 1.6 1.7h18.7c.9 0 1.7-.7 1.7-1.7v-9.1c0-.9-.7-1.7-1.7-1.7H22.8z"/></defs><clipPath id="SVGID_34_"><use xlink:href="#SVGID_33_" overflow="visible"/></clipPath><g clip-path="url(#SVGID_34_)"><defs><path id="SVGID_35_" d="M-852.6-1054.9h1600v3428h-1600z"/></defs><clipPath id="SVGID_36_"><use xlink:href="#SVGID_35_" overflow="visible"/></clipPath><g clip-path="url(#SVGID_36_)"><path class="st23" d="M15.6 68.3h33v23.4h-33z"/></g></g><defs><path id="SVGID_37_" d="M29.5 78v.8l-.1.2c-.1 0-.1.1-.2.1-.2.1-.5.2-.7.2-.2.1-.5.1-.7.1-.3 0-.6 0-.8-.1-.2-.1-.5-.2-.7-.3-.2-.2-.3-.3-.4-.5-.1-.2-.1-.5-.1-.8 0-.3 0-.5.1-.7.1-.2.2-.4.4-.6.2-.2.4-.3.7-.3.3-.1.6-.1.9-.1.2 0 .5 0 .7.1.2.1.4.1.5.2l.3.3c.1.1.1.2.1.3 0 .1 0 .2-.1.2-.1.1-.2.1-.3.1h-.2c-.1 0-.1-.1-.1-.1l-.3-.3c-.1-.1-.2-.1-.3-.2-.1 0-.3-.1-.4-.1-.2 0-.4 0-.5.1-.1.1-.3.1-.4.2-.1.1-.2.2-.2.4-.1.2-.1.3-.1.5 0 .3.1.7.3.9.2.2.6.4.9.3.2 0 .3 0 .5-.1.2 0 .3-.1.5-.2V78H28c-.1 0-.2 0-.4-.1-.1 0-.1-.1-.1-.2s0-.1.1-.2.2-.1.3-.1h1.2c.1 0 .1.1.2.1.1.2.1.3.2.5"/></defs><clipPath id="SVGID_38_"><use xlink:href="#SVGID_37_" overflow="visible"/></clipPath><g clip-path="url(#SVGID_38_)"><defs><path id="SVGID_39_" d="M-852.6-1054.9h1600v3428h-1600z"/></defs><clipPath id="SVGID_40_"><use xlink:href="#SVGID_39_" overflow="visible"/></clipPath><g clip-path="url(#SVGID_40_)"><path class="st23" d="M20.7 70.9h13.8v13.5H20.7z"/></g></g><defs><path id="SVGID_41_" d="M30.3 79v-2.7c0-.1 0-.2.1-.3.1-.1.2-.1.3-.1.1 0 .2 0 .3.1.1.1.1.2.1.3V79c0 .1 0 .2-.1.3-.1.1-.2.1-.3.1-.1 0-.2 0-.3-.1-.1 0-.1-.2-.1-.3"/></defs><clipPath id="SVGID_42_"><use xlink:href="#SVGID_41_" overflow="visible"/></clipPath><g clip-path="url(#SVGID_42_)"><defs><path id="SVGID_43_" d="M-852.6-1054.9h1600v3428h-1600z"/></defs><clipPath id="SVGID_44_"><use xlink:href="#SVGID_43_" overflow="visible"/></clipPath><g clip-path="url(#SVGID_44_)"><path class="st23" d="M25.3 70.9h10.8v13.5H25.3z"/></g></g><defs><path id="SVGID_45_" d="M34.4 76.5h-1.6v.9h1.3c.1 0 .2 0 .3.1.1 0 .1.1.1.2s0 .2-.1.2-.2.1-.3.1h-1.3v1c0 .1 0 .2-.1.3-.1.1-.2.1-.3.1-.1 0-.2 0-.3-.1-.1 0-.2-.2-.1-.3v-2.7c0-.1 0-.2.1-.3 0-.1.1-.1.2-.1H34.5c.1 0 .2 0 .3.1.1 0 .1.1.1.2s0 .1-.1.2c-.2.1-.3.1-.4.1"/></defs><clipPath id="SVGID_46_"><use xlink:href="#SVGID_45_" overflow="visible"/></clipPath><g clip-path="url(#SVGID_46_)"><defs><path id="SVGID_47_" d="M-852.6-1054.9h1600v3428h-1600z"/></defs><clipPath id="SVGID_48_"><use xlink:href="#SVGID_47_" overflow="visible"/></clipPath><g clip-path="url(#SVGID_48_)"><path class="st23" d="M27 71h12.8v13.5H27z"/></g></g><defs><path id="SVGID_49_" d="M38 76.5h-.9V79c0 .1 0 .2-.1.3-.1.1-.2.1-.3.1-.1 0-.2 0-.3-.1-.1-.1-.1-.2-.1-.3v-2.5h-.9c-.1 0-.2 0-.3-.1-.1-.1-.1-.3 0-.4.1-.1.2-.1.3-.1H38c.1 0 .2 0 .3.1.1 0 .1.1.1.2s0 .2-.1.2c-.1.1-.2.1-.3.1"/></defs><clipPath id="SVGID_50_"><use xlink:href="#SVGID_49_" overflow="visible"/></clipPath><g clip-path="url(#SVGID_50_)"><defs><path id="SVGID_51_" d="M-852.6-1054.9h1600v3428h-1600z"/></defs><clipPath id="SVGID_52_"><use xlink:href="#SVGID_51_" overflow="visible"/></clipPath><g clip-path="url(#SVGID_52_)"><path class="st23" d="M30 71h13.4v13.5H30z"/></g></g><g><defs><path id="SVGID_53_" d="M27.8 82.5c0 .1 0 .2-.1.4-.1.1-.2.3-.3.4-.1.1-.3.2-.5.3-.2.1-.5.1-.7.1-.2 0-.4 0-.6-.1-.2 0-.3-.1-.5-.2-.1-.1-.3-.2-.4-.3-.1-.1-.2-.2-.3-.4-.1-.1-.1-.3-.2-.4 0-.2-.1-.3-.1-.5 0-.3 0-.5.1-.7.1-.2.2-.4.4-.6.2-.2.4-.3.6-.4.2-.1.5-.1.7-.1.3 0 .6.1.9.2.2.1.4.2.6.4.1.1.2.3.2.5 0 .1 0 .1-.1.2s-.1.1-.2.1-.2 0-.2-.1c-.1 0-.1-.1-.2-.2-.1-.2-.2-.3-.4-.4-.2-.1-.3-.1-.5-.1-.3 0-.6.1-.8.3-.2.3-.3.6-.3.9 0 .2 0 .5.1.7.1.2.2.3.4.4.2.1.4.1.6.1.2 0 .4-.1.6-.2.2-.1.3-.2.3-.4 0-.1.1-.2.1-.2.1-.1.2-.1.3-.1.1 0 .2 0 .3.1.1.2.1.3.2.3"/></defs><clipPath id="SVGID_54_"><use xlink:href="#SVGID_53_" overflow="visible"/></clipPath><g clip-path="url(#SVGID_54_)"><defs><path id="SVGID_55_" d="M-852.6-1054.9h1600v3428h-1600z"/></defs><clipPath id="SVGID_56_"><use xlink:href="#SVGID_55_" overflow="visible"/></clipPath><g clip-path="url(#SVGID_56_)"><path class="st23" d="M19.2 75.2h13.6v13.5H19.2z"/></g></g></g><g><defs><path id="SVGID_57_" d="m31 83.3-.2-.4h-1.6l-.2.4c0 .1-.1.2-.2.4-.1.1-.2.1-.2.1-.1 0-.2 0-.3-.1-.1-.1-.1-.1-.1-.2v-.1c0-.1.1-.1.1-.2l1-2.2c0-.1.1-.1.1-.2s.1-.2.1-.2c0-.1.1-.1.2-.1s.2-.1.3-.1c.1 0 .2 0 .3.1.1 0 .1.1.2.1 0 .1.1.1.1.2s.1.2.1.3l1 2.2c.1.1.1.2.1.4 0 .1-.1.2-.1.2-.1.1-.2.1-.3.1h-.2c-.1 0-.1 0-.1-.1 0 0-.1-.1-.1-.2.1-.3.1-.4 0-.4zm-1.6-1h1.2l-.6-1.5-.6 1.5z"/></defs><clipPath id="SVGID_58_"><use xlink:href="#SVGID_57_" overflow="visible"/></clipPath><g clip-path="url(#SVGID_58_)"><defs><path id="SVGID_59_" d="M-852.6-1054.9h1600v3428h-1600z"/></defs><clipPath id="SVGID_60_"><use xlink:href="#SVGID_59_" overflow="visible"/></clipPath><g clip-path="url(#SVGID_60_)"><path class="st23" d="M23.2 75.2H37v13.5H23.2z"/></g></g></g><g><defs><path id="SVGID_61_" d="M33.6 82.2h-.2v1.1c0 .1 0 .2-.1.3-.1.1-.2.1-.3.1-.1 0-.2 0-.3-.1-.1-.1-.1-.2-.1-.3v-2.7c0-.1 0-.2.1-.3.1-.1.2-.1.4-.1h1.8c.1 0 .2 0 .4.1.1 0 .2.1.3.2.1.1.2.2.2.3.1.1.1.2.1.4s-.1.5-.3.6c-.3.1-.6.2-.9.2.2.1.3.2.4.3.1.1.2.3.3.4.1.1.2.2.2.4 0 .1.1.1.1.2 0 0 0 .1-.1.1l-.1.1h-.2c-.1 0-.2 0-.2-.1l-.2-.1c-.1-.1-.1-.2-.2-.3l-.3-.4c-.1-.2-.2-.3-.3-.4-.1-.1-.2-.2-.3-.2 0 .1-.1.1-.2.2m.4-1.5h-.7v.9h1.2c.1 0 .2-.1.3-.2.1-.1.1-.2.1-.3 0-.1 0-.2-.1-.3l-.2-.2c0 .1-.2.1-.6.1"/></defs><clipPath id="SVGID_62_"><use xlink:href="#SVGID_61_" overflow="visible"/></clipPath><g clip-path="url(#SVGID_62_)"><defs><path id="SVGID_63_" d="M-852.6-1054.9h1600v3428h-1600z"/></defs><clipPath id="SVGID_64_"><use xlink:href="#SVGID_63_" overflow="visible"/></clipPath><g clip-path="url(#SVGID_64_)"><path class="st23" d="M27.5 75.2h13.3v13.5H27.5z"/></g></g></g><g><defs><path id="SVGID_65_" d="M37 80.2h1.1c.2 0 .5 0 .7.1.2 0 .4.1.5.3.4.3.7.9.6 1.4 0 .2 0 .4-.1.6 0 .2-.1.3-.2.4-.1.1-.2.3-.3.4-.1.1-.2.2-.4.2-.1.1-.3.1-.4.1h-1.6c-.1 0-.2 0-.3-.1-.1 0-.1-.1-.2-.2v-2.8c0-.1 0-.2.1-.3.3-.1.4-.1.5-.1zm.3.6v2.3h1.1c.1 0 .2-.1.2-.1.3-.2.4-.6.4-1 0-.3-.1-.5-.2-.7-.1-.2-.3-.3-.5-.3s-.4-.1-.6-.1l-.4-.1z"/></defs><clipPath id="SVGID_66_"><use xlink:href="#SVGID_65_" overflow="visible"/></clipPath><g clip-path="url(#SVGID_66_)"><defs><path id="SVGID_67_" d="M-852.6-1054.9h1600v3428h-1600z"/></defs><clipPath id="SVGID_68_"><use xlink:href="#SVGID_67_" overflow="visible"/></clipPath><g clip-path="url(#SVGID_68_)"><path class="st23" d="M31.5 75.2h13.4v13.4H31.5z"/></g></g></g><g><defs><path id="SVGID_69_" d="M19.3 92.5c-.1 0-.2-.1-.2-.3 0-.1 0-.2.1-.2 2.9-1.7 5.7-3.7 8.3-5.8.1-.1.2-.1.3 0 .1.1.1.2 0 .3-2.6 2.1-5.4 4.1-8.4 5.8 0 .1 0 .1-.1.2"/></defs><clipPath id="SVGID_70_"><use xlink:href="#SVGID_69_" overflow="visible"/></clipPath><g clip-path="url(#SVGID_70_)"><defs><path id="SVGID_71_" d="M-852.6-1054.9h1600v3428h-1600z"/></defs><clipPath id="SVGID_72_"><use xlink:href="#SVGID_71_" overflow="visible"/></clipPath><g clip-path="url(#SVGID_72_)"><path class="st23" d="M14 81.2h18.8v16.3H14z"/></g></g></g><g><defs><path id="SVGID_73_" d="M40.6 27.1h40.9v46.5H40.6z"/></defs><clipPath id="SVGID_74_"><use xlink:href="#SVGID_73_" overflow="visible"/></clipPath><g clip-path="url(#SVGID_74_)"><defs><path id="SVGID_75_" d="M40.4 26.1h42v48h-42z"/></defs><clipPath id="SVGID_76_"><use xlink:href="#SVGID_75_" overflow="visible"/></clipPath><g clip-path="url(#SVGID_76_)"><defs><path id="SVGID_77_" d="M40.9 73.6c-.1 0-.1 0-.1-.1-.1-.1-.1-.2 0-.3 4.1-5.3 7.8-11 11-16.9 1.9-3.3 3.7-6.5 5.7-9.4 6.2-9.4 12.4-14.3 16.4-16.8 2.3-1.5 4.8-2.5 7.4-3.1.1 0 .3.1.3.2s-.1.2-.2.3c-.1 0-11.7 1.7-23.6 19.6-1.9 2.9-3.7 6-5.6 9.3-3.2 5.9-6.9 11.6-11 16.9-.2.3-.3.3-.3.3"/></defs><clipPath id="SVGID_78_"><use xlink:href="#SVGID_77_" overflow="visible"/></clipPath><g clip-path="url(#SVGID_78_)"><defs><path id="SVGID_79_" d="M40.4 27.1h42v47h-42z"/></defs><clipPath id="SVGID_80_"><use xlink:href="#SVGID_79_" overflow="visible"/></clipPath><g clip-path="url(#SVGID_80_)"><path class="st23" d="M35.6 22.1h50.9v56.5H35.6z"/></g></g></g></g></g><g><defs><path id="SVGID_81_" d="M72.8 39.6H118c.4 0 .8.4.8.8v1.7c0 .4-.4.8-.8.8H72.8c-.4 0-.8-.4-.8-.8v-1.7c0-.4.3-.7.8-.8"/></defs><clipPath id="SVGID_82_"><use xlink:href="#SVGID_81_" overflow="visible"/></clipPath><g clip-path="url(#SVGID_82_)"><defs><path id="SVGID_83_" d="M-852.6-1054.9h1600v3428h-1600z"/></defs><clipPath id="SVGID_84_"><use xlink:href="#SVGID_83_" overflow="visible"/></clipPath><g clip-path="url(#SVGID_84_)"><path fill="#d8d4f2" d="M67 34.6h56.8v13.2H67z"/></g></g></g><g><defs><path id="SVGID_85_" d="M118 43.1H72.8c-.6 0-1-.4-1-1v-1.7c0-.6.4-1 1-1H118c.6 0 1 .4 1 1v1.7c0 .5-.4 1-1 1zm-45.2-3.2c-.3 0-.5.2-.5.5v1.7c0 .3.2.5.5.5H118c.3 0 .5-.2.5-.5v-1.7c0-.3-.2-.5-.5-.5H72.8z"/></defs><clipPath id="SVGID_86_"><use xlink:href="#SVGID_85_" overflow="visible"/></clipPath><g clip-path="url(#SVGID_86_)"><defs><path id="SVGID_87_" d="M-852.6-1054.9h1600v3428h-1600z"/></defs><clipPath id="SVGID_88_"><use xlink:href="#SVGID_87_" overflow="visible"/></clipPath><g clip-path="url(#SVGID_88_)"><path class="st23" d="M66.7 34.4H124v13.7H66.7z"/></g></g></g><g><defs><path id="SVGID_89_" d="M106.9 65.7H78.6c-.6 0-1-.4-1-1v-4.5c0-.6.4-1 1-1h28.3c.6 0 1 .4 1 1v4.5c0 .5-.4 1-1 1zm-28.3-6c-.3 0-.5.2-.5.5v4.5c0 .3.2.5.5.5h28.3c.3 0 .5-.2.5-.5v-4.5c0-.3-.2-.5-.5-.5H78.6z"/></defs><clipPath id="SVGID_90_"><use xlink:href="#SVGID_89_" overflow="visible"/></clipPath><g clip-path="url(#SVGID_90_)"><defs><path id="SVGID_91_" d="M-852.6-1054.9h1600v3428h-1600z"/></defs><clipPath id="SVGID_92_"><use xlink:href="#SVGID_91_" overflow="visible"/></clipPath><g clip-path="url(#SVGID_92_)"><path class="st23" d="M72.6 54.2h40.3v16.5H72.6z"/></g></g></g><g><defs><path id="SVGID_93_" d="M79.9 84.5c-.1 0-.2-.1-.2-.2V65.5c0-.1.1-.3.2-.3s.2.1.2.2v18.8c.1.2 0 .3-.2.3"/></defs><clipPath id="SVGID_94_"><use xlink:href="#SVGID_93_" overflow="visible"/></clipPath><g clip-path="url(#SVGID_94_)"><defs><path id="SVGID_95_" d="M-852.6-1054.9h1600v3428h-1600z"/></defs><clipPath id="SVGID_96_"><use xlink:href="#SVGID_95_" overflow="visible"/></clipPath><g clip-path="url(#SVGID_96_)"><path class="st23" d="M74.7 60.3h10.5v29.2H74.7z"/></g></g></g><g><defs><path id="SVGID_97_" d="M105.6 84.7c-.1 0-.2-.1-.2-.2v-19c0-.1.2-.2.3-.2.1 0 .2.1.2.2v19c0 .1-.1.2-.3.2"/></defs><clipPath id="SVGID_98_"><use xlink:href="#SVGID_97_" overflow="visible"/></clipPath><g clip-path="url(#SVGID_98_)"><defs><path id="SVGID_99_" d="M-852.6-1054.9h1600v3428h-1600z"/></defs><clipPath id="SVGID_100_"><use xlink:href="#SVGID_99_" overflow="visible"/></clipPath><g clip-path="url(#SVGID_100_)"><path class="st23" d="M100.4 60.2h10.5v29.5h-10.5z"/></g></g></g><g><defs><path id="SVGID_101_" d="M54.4 92.7c-.1 0-.2 0-.2-.1-.1-.1 0-.3.1-.3 9.4-5.6 23.1-8.9 37.6-8.9h.2c14.5 0 28.3 3.2 37.9 8.8.1.1.2.2.1.3-.1.1-.2.2-.3.1-9.5-5.6-23.3-8.8-37.7-8.8h-.2c-14.4 0-28 3.2-37.3 8.8 0 .1-.1.1-.2.1"/></defs><clipPath id="SVGID_102_"><use xlink:href="#SVGID_101_" overflow="visible"/></clipPath><g clip-path="url(#SVGID_102_)"><defs><path id="SVGID_103_" d="M-852.6-1054.9h1600v3428h-1600z"/></defs><clipPath id="SVGID_104_"><use xlink:href="#SVGID_103_" overflow="visible"/></clipPath><g clip-path="url(#SVGID_104_)"><path class="st23" d="M49.2 78.4h85.9v19.3H49.2z"/></g></g></g><g><defs><path id="SVGID_105_" d="M60.1 76.2c-.4 0-.7-.2-.7-.6l-.5-2.7c0-.4.2-.7.6-.8l17.3-3.3c.2 0 .4 0 .5.1.2.1.3.3.3.5l.5 2.7c0 .2 0 .4-.1.5-.1.2-.3.3-.5.3l-17.3 3.3h-.1zm-.5-3.7c-.1 0-.2.1-.2.3l.5 2.7c0 .1.2.2.3.2l17.3-3.3c.1 0 .1 0 .2-.1v-.2l-.5-2.8c0-.1 0-.1-.1-.2h-.2l-17.3 3.4z"/></defs><clipPath id="SVGID_106_"><use xlink:href="#SVGID_105_" overflow="visible"/></clipPath><g clip-path="url(#SVGID_106_)"><defs><path id="SVGID_107_" d="M-852.6-1054.9h1600v3428h-1600z"/></defs><clipPath id="SVGID_108_"><use xlink:href="#SVGID_107_" overflow="visible"/></clipPath><g clip-path="url(#SVGID_108_)"><path class="st23" d="M53.9 63.8h29.3v17.4H53.9z"/></g></g></g><g><defs><path id="SVGID_109_" d="M63.4 88.4c-.1 0-.2-.1-.2-.2L61 76.6l-.2-.6v-.1c0-.1.1-.2.2-.2s.2.1.2.2l.1.6 2.2 11.6c.1.1 0 .2-.1.3"/></defs><clipPath id="SVGID_110_"><use xlink:href="#SVGID_109_" overflow="visible"/></clipPath><g clip-path="url(#SVGID_110_)"><defs><path id="SVGID_111_" d="M-852.6-1054.9h1600v3428h-1600z"/></defs><clipPath id="SVGID_112_"><use xlink:href="#SVGID_111_" overflow="visible"/></clipPath><g clip-path="url(#SVGID_112_)"><path class="st23" d="M55.8 70.7h12.8v22.7H55.8z"/></g></g></g><g><defs><path id="SVGID_113_" d="M78.9 84.8c-.1 0-.2-.1-.2-.2L76.5 73c0-.1.1-.3.2-.3s.2.1.3.2l2.2 11.6c0 .1-.1.2-.3.3"/></defs><clipPath id="SVGID_114_"><use xlink:href="#SVGID_113_" overflow="visible"/></clipPath><g clip-path="url(#SVGID_114_)"><defs><path id="SVGID_115_" d="M-852.6-1054.9h1600v3428h-1600z"/></defs><clipPath id="SVGID_116_"><use xlink:href="#SVGID_115_" overflow="visible"/></clipPath><g clip-path="url(#SVGID_116_)"><path class="st23" d="M71.5 67.6h12.6v22.1H71.5z"/></g></g></g><g><defs><path id="SVGID_117_" d="M62.4 72H62c-.8 0-1.8-.1-2.2-.6-.2-.3-.2-.7 0-1 .3-.9.5-1.9.5-2.8 0-1 0-1.8 1.1-1.8 2 0 5.2 3.2 6.2 4.9.1.1 0 .3-.1.3-.1.1-.3 0-.3-.1-1-1.8-4-4.7-5.8-4.7-.5 0-.6.2-.6 1.3 0 1-.2 2-.5 3-.1.2-.1.4 0 .6.3.4 1.2.4 1.8.4h.5c.1 0 .2.1.2.3-.1.2-.2.2-.4.2"/></defs><clipPath id="SVGID_118_"><use xlink:href="#SVGID_117_" overflow="visible"/></clipPath><g clip-path="url(#SVGID_118_)"><defs><path id="SVGID_119_" d="M-852.6-1054.9h1600v3428h-1600z"/></defs><clipPath id="SVGID_120_"><use xlink:href="#SVGID_119_" overflow="visible"/></clipPath><g clip-path="url(#SVGID_120_)"><path class="st23" d="M54.6 60.6h17.9V77H54.6z"/></g></g></g><g><defs><path id="SVGID_121_" d="M69.3 70.5c-.1 0-.2-.1-.2-.2s-.1-.2-.1-.4c-.1-.4-.3-1-.6-1.2-.7-.1-1.3.1-1.9.5-.1.1-.2.1-.3 0-.1-.1-.1-.3 0-.4.7-.5 1.5-.8 2.4-.6.5.2.7 1 .9 1.5 0 .1.1.2.1.3-.1.3-.1.5-.3.5"/></defs><clipPath id="SVGID_122_"><use xlink:href="#SVGID_121_" overflow="visible"/></clipPath><g clip-path="url(#SVGID_122_)"><defs><path id="SVGID_123_" d="M-852.6-1054.9h1600v3428h-1600z"/></defs><clipPath id="SVGID_124_"><use xlink:href="#SVGID_123_" overflow="visible"/></clipPath><g clip-path="url(#SVGID_124_)"><path class="st23" d="M61 63.2h13.5v12.3H61z"/></g></g></g><g><defs><path id="SVGID_125_" d="M73.9 69.8c-.1 0-.2-.1-.2-.2s.1-.2.1-.2c.8-.4.8-.6.7-1.1-.1-.2-.2-.4-.2-.6s-.3-.6-.5-1.1c-.1-.4-.2-.9-.1-1.3 0-.6 0-.9-.2-1-.2-.1-.5 0-1.3.5-1.5.9-2.7 2.3-3.4 3.9 0 .1-.2.2-.3.1-.1 0-.2-.2-.1-.3.8-1.7 2.1-3.1 3.6-4.1.6-.3 1.2-.7 1.8-.5s.6.9.5 1.5c0 .4 0 .8.1 1.1.2.5.3.8.4 1.1l.3.6c.3.9 0 1.3-.9 1.7l-.3-.1"/></defs><clipPath id="SVGID_126_"><use xlink:href="#SVGID_125_" overflow="visible"/></clipPath><g clip-path="url(#SVGID_126_)"><defs><path id="SVGID_127_" d="M-852.6-1054.9h1600v3428h-1600z"/></defs><clipPath id="SVGID_128_"><use xlink:href="#SVGID_127_" overflow="visible"/></clipPath><g clip-path="url(#SVGID_128_)"><path class="st23" d="M63.2 58.7h16.9v16.1H63.2z"/></g></g></g><g><defs><path id="SVGID_129_" d="M69.2 69.7h-.1c-.1-.1-.2-.2-.1-.3.6-.8 1.4-1.3 2.3-1.4.1 0 .3.1.3.2s-.1.2-.2.3c-.8.1-1.5.6-2 1.2-.1 0-.2.1-.2 0"/></defs><clipPath id="SVGID_130_"><use xlink:href="#SVGID_129_" overflow="visible"/></clipPath><g clip-path="url(#SVGID_130_)"><defs><path id="SVGID_131_" d="M-852.6-1054.9h1600v3428h-1600z"/></defs><clipPath id="SVGID_132_"><use xlink:href="#SVGID_131_" overflow="visible"/></clipPath><g clip-path="url(#SVGID_132_)"><path class="st23" d="M63.9 62.9h12.6v11.8H63.9z"/></g></g></g><g><defs><path id="SVGID_133_" d="M85.1 59.7c-.1 0-5.9-.6-6.8-2.5-.2-.4-.1-.9.2-1.3.3-.4.6-.7.9-1 .5-.6 1-1.3 1.4-2 .3-.5.5-1.1.7-1.6.6-1.5 1.1-2.8 2.5-2.6 1.9.3 5.4 3.8 7.6 8.5.4.7.5 1.5.3 2.2 0 .1-.2.2-.3.2-.1 0-.2-.2-.2-.3.2-.6.1-1.3-.2-1.9-1.7-3.6-5.2-7.8-7.3-8.2-.9-.2-1.3.8-1.9 2.3-.2.6-.5 1.1-.8 1.7-.4.7-.9 1.4-1.4 2-.3.3-.6.6-.8 1-.2.2-.3.5-.1.8.5 1.2 4.5 2 6.4 2.2.1 0 .2.1.2.3-.2 0-.3.1-.4.2"/></defs><clipPath id="SVGID_134_"><use xlink:href="#SVGID_133_" overflow="visible"/></clipPath><g clip-path="url(#SVGID_134_)"><defs><path id="SVGID_135_" d="M-852.6-1054.9h1600v3428h-1600z"/></defs><clipPath id="SVGID_136_"><use xlink:href="#SVGID_135_" overflow="visible"/></clipPath><g clip-path="url(#SVGID_136_)"><path class="st23" d="M73.2 43.7h23.7v21H73.2z"/></g></g></g><g><defs><path id="SVGID_137_" d="M95.2 59.5c-.1 0-.2-.1-.2-.2 0-.2-.1-.4-.1-.7-.1-.8-.3-2.2-.8-2.5-1-.3-2-.3-2.9.3-.1.1-.3 0-.3-.1-.1-.1-.1-.3.1-.3.5-.4 2.4-.9 3.5-.3.7.4.9 1.8 1 2.9 0 .3.1.5.1.6-.2.1-.2.3-.4.3"/></defs><clipPath id="SVGID_138_"><use xlink:href="#SVGID_137_" overflow="visible"/></clipPath><g clip-path="url(#SVGID_138_)"><defs><path id="SVGID_139_" d="M-852.6-1054.9h1600v3428h-1600z"/></defs><clipPath id="SVGID_140_"><use xlink:href="#SVGID_139_" overflow="visible"/></clipPath><g clip-path="url(#SVGID_140_)"><path class="st23" d="M85.7 50.4h14.7v14.1H85.7z"/></g></g></g><g><defs><path id="SVGID_141_" d="M104.6 59.6c-.1 0-.2-.1-.2-.1-.1-.1 0-.3.1-.3.8-.4 1.3-.8 1.4-1.2.1-.4-.4-1.2-1-1.9-.7-.7-1.2-1.6-1.4-2.5-.1-.8 0-1.6.2-2.4.1-.6.2-1.2.1-1.4-.2-.2-.4-.2-1.3 0-2.9.7-7 4.2-8 6-.1.1-.2.1-.3.1-.1-.1-.2-.2-.1-.3 1-1.8 5.3-5.5 8.3-6.2.9-.2 1.4-.2 1.7.1.3.3.3 1 .1 1.8-.2.7-.2 1.5-.2 2.3.2.9.7 1.6 1.3 2.3.6.8 1.2 1.5 1.1 2.3-.1.6-.7 1-1.6 1.5l-.2-.1"/></defs><clipPath id="SVGID_142_"><use xlink:href="#SVGID_141_" overflow="visible"/></clipPath><g clip-path="url(#SVGID_142_)"><defs><path id="SVGID_143_" d="M-852.6-1054.9h1600v3428h-1600z"/></defs><clipPath id="SVGID_144_"><use xlink:href="#SVGID_143_" overflow="visible"/></clipPath><g clip-path="url(#SVGID_144_)"><path class="st23" d="M89 44.2h22.4v20.4H89z"/></g></g></g><g><defs><path id="SVGID_145_" d="M95 57.9h-.1c-.1-.1-.1-.2-.1-.3.7-1 3.3-1.6 4.2-1.7.1 0 .2.1.2.2s-.1.2-.2.2c-1 0-3.3.7-3.9 1.5.1 0 0 .1-.1.1"/></defs><clipPath id="SVGID_146_"><use xlink:href="#SVGID_145_" overflow="visible"/></clipPath><g clip-path="url(#SVGID_146_)"><defs><path id="SVGID_147_" d="M-852.6-1054.9h1600v3428h-1600z"/></defs><clipPath id="SVGID_148_"><use xlink:href="#SVGID_147_" overflow="visible"/></clipPath><g clip-path="url(#SVGID_148_)"><path class="st23" d="M89.8 50.8h14.5v12H89.8z"/></g></g></g><g><defs><path id="SVGID_149_" d="M128.1 92.9H21.9c-3 0-5.5-2.5-5.5-5.5V32.7c0-3 2.5-5.5 5.5-5.5h106.2c3 0 5.5 2.5 5.5 5.5v54.7c0 3-2.4 5.5-5.5 5.5zM21.9 27.8c-2.7 0-4.9 2.2-5 4.9v54.7c0 2.7 2.2 4.9 5 4.9h106.2c2.7 0 5-2.2 5-5V32.7c0-2.7-2.3-5-5-4.9H21.9z"/></defs><clipPath id="SVGID_150_"><use xlink:href="#SVGID_149_" overflow="visible"/></clipPath><g clip-path="url(#SVGID_150_)"><defs><path id="SVGID_151_" d="M-852.6-1054.9h1600v3428h-1600z"/></defs><clipPath id="SVGID_152_"><use xlink:href="#SVGID_151_" overflow="visible"/></clipPath><g clip-path="url(#SVGID_152_)"><path class="st23" d="M11.4 22.2h127.3v75.7H11.4z"/></g></g></g></g></g></svg>