<svg id="Layer_1" data-name="Layer 1" xmlns="http://www.w3.org/2000/svg" xmlns:xlink="http://www.w3.org/1999/xlink" viewBox="0 0 500 500"><defs><style>.cls-1,.cls-2{fill:none;}.cls-1{clip-rule:evenodd;}.cls-3{clip-path:url(#clip-path);}.cls-4{clip-path:url(#clip-path-2);}.cls-5{fill:#d8e8f8;}.cls-6{clip-path:url(#clip-path-3);}.cls-7{fill:#fff;}.cls-8{clip-path:url(#clip-path-5);}.cls-9{fill:#a27e6d;}.cls-10{clip-path:url(#clip-path-7);}.cls-11{fill:#ffcc87;}.cls-12{clip-path:url(#clip-path-9);}.cls-13{fill:#f4f3f8;}.cls-14{clip-path:url(#clip-path-11);}.cls-15{clip-path:url(#clip-path-13);}.cls-16{fill:#ffe1c7;}.cls-17{clip-path:url(#clip-path-15);}.cls-18{clip-path:url(#clip-path-17);}.cls-19{clip-path:url(#clip-path-19);}.cls-20{fill:#936c51;}.cls-21{clip-path:url(#clip-path-21);}.cls-22{clip-path:url(#clip-path-23);}.cls-23{fill:#bac2d1;}.cls-24{clip-path:url(#clip-path-25);}.cls-25{clip-path:url(#clip-path-27);}.cls-26{clip-path:url(#clip-path-29);}.cls-27{fill:#fa9700;}.cls-28{clip-path:url(#clip-path-31);}.cls-29{clip-path:url(#clip-path-33);}.cls-30{fill:#d9dfeb;}.cls-31{clip-path:url(#clip-path-35);}.cls-32{fill:#858b97;}.cls-33{clip-path:url(#clip-path-37);}.cls-34{clip-path:url(#clip-path-39);}.cls-35{fill:#002f57;}.cls-36{clip-path:url(#clip-path-41);}.cls-37{fill:#6982a9;}.cls-38{clip-path:url(#clip-path-43);}.cls-39{clip-path:url(#clip-path-45);}.cls-40{clip-path:url(#clip-path-47);}.cls-41{fill:#332e3c;}.cls-42{clip-path:url(#clip-path-49);}.cls-43{clip-path:url(#clip-path-51);}.cls-44{clip-path:url(#clip-path-53);}.cls-45{clip-path:url(#clip-path-55);}.cls-46{clip-path:url(#clip-path-57);}.cls-47{clip-path:url(#clip-path-59);}.cls-48{clip-path:url(#clip-path-61);}.cls-49{clip-path:url(#clip-path-63);}.cls-50{clip-path:url(#clip-path-65);}.cls-51{clip-path:url(#clip-path-67);}.cls-52{clip-path:url(#clip-path-69);}.cls-53{clip-path:url(#clip-path-71);}.cls-54{clip-path:url(#clip-path-73);}.cls-55{clip-path:url(#clip-path-75);}.cls-56{clip-path:url(#clip-path-77);}.cls-57{clip-path:url(#clip-path-79);}.cls-58{clip-path:url(#clip-path-81);}.cls-59{clip-path:url(#clip-path-83);}.cls-60{clip-path:url(#clip-path-85);}.cls-61{clip-path:url(#clip-path-87);}.cls-62{clip-path:url(#clip-path-89);}.cls-63{clip-path:url(#clip-path-91);}.cls-64{clip-path:url(#clip-path-93);}.cls-65{clip-path:url(#clip-path-95);}.cls-66{clip-path:url(#clip-path-97);}.cls-67{clip-path:url(#clip-path-99);}.cls-68{clip-path:url(#clip-path-101);}.cls-69{clip-path:url(#clip-path-103);}.cls-70{clip-path:url(#clip-path-105);}.cls-71{clip-path:url(#clip-path-107);}.cls-72{clip-path:url(#clip-path-109);}.cls-73{clip-path:url(#clip-path-111);}.cls-74{clip-path:url(#clip-path-113);}.cls-75{clip-path:url(#clip-path-115);}.cls-76{clip-path:url(#clip-path-117);}.cls-77{clip-path:url(#clip-path-119);}.cls-78{clip-path:url(#clip-path-121);}.cls-79{clip-path:url(#clip-path-123);}.cls-80{clip-path:url(#clip-path-125);}.cls-81{clip-path:url(#clip-path-127);}.cls-82{clip-path:url(#clip-path-129);}.cls-83{clip-path:url(#clip-path-131);}.cls-84{clip-path:url(#clip-path-133);}.cls-85{clip-path:url(#clip-path-135);}.cls-86{clip-path:url(#clip-path-137);}.cls-87{clip-path:url(#clip-path-139);}.cls-88{clip-path:url(#clip-path-141);}.cls-89{clip-path:url(#clip-path-143);}.cls-90{clip-path:url(#clip-path-145);}.cls-91{clip-path:url(#clip-path-147);}.cls-92{clip-path:url(#clip-path-149);}.cls-93{clip-path:url(#clip-path-151);}.cls-94{clip-path:url(#clip-path-153);}.cls-95{clip-path:url(#clip-path-155);}.cls-96{clip-path:url(#clip-path-157);}.cls-97{clip-path:url(#clip-path-159);}.cls-98{clip-path:url(#clip-path-161);}.cls-99{clip-path:url(#clip-path-163);}.cls-100{clip-path:url(#clip-path-165);}.cls-101{clip-path:url(#clip-path-167);}.cls-102{clip-path:url(#clip-path-169);}.cls-103{clip-path:url(#clip-path-171);}.cls-104{clip-path:url(#clip-path-173);}.cls-105{clip-path:url(#clip-path-175);}.cls-106{clip-path:url(#clip-path-177);}.cls-107{clip-path:url(#clip-path-179);}.cls-108{clip-path:url(#clip-path-181);}.cls-109{clip-path:url(#clip-path-183);}.cls-110{clip-path:url(#clip-path-185);}.cls-111{clip-path:url(#clip-path-187);}.cls-112{clip-path:url(#clip-path-189);}.cls-113{clip-path:url(#clip-path-191);}.cls-114{clip-path:url(#clip-path-193);}.cls-115{clip-path:url(#clip-path-195);}.cls-116{clip-path:url(#clip-path-197);}.cls-117{clip-path:url(#clip-path-199);}.cls-118{clip-path:url(#clip-path-201);}.cls-119{clip-path:url(#clip-path-203);}.cls-120{clip-path:url(#clip-path-205);}.cls-121{clip-path:url(#clip-path-207);}.cls-122{clip-path:url(#clip-path-209);}.cls-123{clip-path:url(#clip-path-211);}.cls-124{clip-path:url(#clip-path-213);}.cls-125{clip-path:url(#clip-path-215);}.cls-126{clip-path:url(#clip-path-217);}.cls-127{clip-path:url(#clip-path-219);}.cls-128{clip-path:url(#clip-path-221);}.cls-129{clip-path:url(#clip-path-223);}.cls-130{clip-path:url(#clip-path-225);}.cls-131{clip-path:url(#clip-path-227);}.cls-132{clip-path:url(#clip-path-229);}.cls-133{clip-path:url(#clip-path-231);}.cls-134{clip-path:url(#clip-path-233);}.cls-135{clip-path:url(#clip-path-235);}.cls-136{clip-path:url(#clip-path-237);}.cls-137{clip-path:url(#clip-path-239);}.cls-138{clip-path:url(#clip-path-241);}.cls-139{clip-path:url(#clip-path-243);}.cls-140{clip-path:url(#clip-path-245);}.cls-141{clip-path:url(#clip-path-247);}.cls-142{clip-path:url(#clip-path-249);}.cls-143{clip-path:url(#clip-path-251);}.cls-144{clip-path:url(#clip-path-253);}.cls-145{clip-path:url(#clip-path-255);}.cls-146{clip-path:url(#clip-path-257);}.cls-147{clip-path:url(#clip-path-259);}.cls-148{clip-path:url(#clip-path-261);}.cls-149{clip-path:url(#clip-path-263);}.cls-150{clip-path:url(#clip-path-265);}.cls-151{clip-path:url(#clip-path-267);}.cls-152{clip-path:url(#clip-path-269);}.cls-153{clip-path:url(#clip-path-271);}.cls-154{clip-path:url(#clip-path-273);}.cls-155{clip-path:url(#clip-path-275);}.cls-156{clip-path:url(#clip-path-277);}.cls-157{clip-path:url(#clip-path-279);}.cls-158{clip-path:url(#clip-path-281);}.cls-159{clip-path:url(#clip-path-283);}.cls-160{clip-path:url(#clip-path-285);}.cls-161{clip-path:url(#clip-path-287);}.cls-162{clip-path:url(#clip-path-289);}.cls-163{clip-path:url(#clip-path-291);}.cls-164{isolation:isolate;}.cls-165{clip-path:url(#clip-path-293);}.cls-166{clip-path:url(#clip-path-294);}.cls-167{clip-path:url(#clip-path-295);}.cls-168{clip-path:url(#clip-path-296);}.cls-169{clip-path:url(#clip-path-298);}.cls-170{clip-path:url(#clip-path-299);}.cls-171{clip-path:url(#clip-path-300);}.cls-172{clip-path:url(#clip-path-301);}.cls-173{clip-path:url(#clip-path-303);}.cls-174{clip-path:url(#clip-path-305);}.cls-175{clip-path:url(#clip-path-307);}.cls-176{clip-path:url(#clip-path-309);}.cls-177{clip-path:url(#clip-path-311);}.cls-178{clip-path:url(#clip-path-313);}.cls-179{clip-path:url(#clip-path-315);}.cls-180{clip-path:url(#clip-path-316);}.cls-181{clip-path:url(#clip-path-317);}.cls-182{clip-path:url(#clip-path-318);}.cls-183{clip-path:url(#clip-path-320);}.cls-184{clip-path:url(#clip-path-321);}.cls-185{clip-path:url(#clip-path-322);}</style><clipPath id="clip-path"><path class="cls-1" d="M145.4,144.87l17.08-3.64,2.09-3.85a46.56,46.56,0,0,0,.22-11.13A51.45,51.45,0,0,0,162.15,115a71.29,71.29,0,0,0-11,8.48,37.41,37.41,0,0,0-6.72,9.25,9.81,9.81,0,0,1-6.61-2.64c-3.19-2.87-6.94-6.83-6.39-10.69,1.22-9.58,15.31-16.19,15.31-16.19a124.78,124.78,0,0,1,20.82-8.48c17.85-5.73,43.29-13,67.75-19.39,18.61-4.85,37-9.36,48.46-11.23,8.16-1.33,12.89,6.93,14.43,13.65A24.53,24.53,0,0,1,298.4,89a58.09,58.09,0,0,1,17.85-10.47c5.07-1.76,9.91-2.86,16.52-1.65,9.14,1.65,20.49,13.66,30,21.37,1.88,1.43,4.63,3.09,6.17,4.08,5.51,3.63,10.25,1.87,12.34,3.85s2.86,6.61,2.42,10.69c-.44,4.4-2.42,8.59-1.76,9.36,1.43,1.65,6.61-2.09,8.59-7.49,1.21-3.19.33-8.37,1.32-9.47,1.22-1.32,8.05.33,10.14,1,4.62,1.43,5.18,4.74,5.62,7,1.1,5.62.66,16.41-1.77,25.77a70.48,70.48,0,0,1-6.16,15.31s17.62-6.93,24.78-2.31c2.86,1.87,2.64,5,.88,12.23-1.54,6.28-7.71,30.73-7.71,30.73L414,219.33l-2.75,17.4s-9.58,2.87-9.8,4.41,8.92,1.76,8.92,1.76l-1.54,25.56-2.54,59.92-1.65,21.48s-.66,1.76-4.29,4.63c-5.4,4.18-15.1,10.35-19.06,13.77-1.1,1-28.2,23.9-28.2,23.9-7.82,6.39-16.19,14.87-21.81,18.95-7.6,5.5-7.16,5.61-9.8,6.27-5,1.22-6.72-2.42-6.72-2.42a68.33,68.33,0,0,1-13.11,19.28c-5.84,5.95-16.08,13.88-22.25,12.34a18.21,18.21,0,0,1-6.39-4.3,16.9,16.9,0,0,1-3.42-5.51c-.11-1.54,5-3.41,6.83-6.06,3.2-4.51,4-10.24,2.1-11.23-1.33-.66-3.75,3.74-7.71,6.72-3.31,2.53-8.49,3.74-9.7,3.19-3.52-1.43-6.06-5.84-9.58-7.49-11.79-5.51-25.56-7.38-34.15-11.56a27.49,27.49,0,0,1-11.78-10.58S156.53,361.1,156,369c-.22,2.31-5.95,9-6.83,10.13-1.65,2-9.81,8-13.66,6.06-2.09-1.1-2.2-3.53-3.42-6.83a41.21,41.21,0,0,0-6.72-11.46c-5.39-6.16-12-10.46-16.52-13.54a60.89,60.89,0,0,1-5.29-4.08,32.79,32.79,0,0,1,3-10.68c2.53-5.29,6-10.91,6-10.91l-2.21-.66s-8.48,9.47-9.14,9.58c-2.42.22-1.87-11.78-1.87-11.78l-7.6-61.58L94,249.18a39.5,39.5,0,0,1,9.58-9.58c5.95-4.19,14.32-7,14.32-7L123,216.47a41.39,41.39,0,0,0-8.7-4.63,104.87,104.87,0,0,0-12.56-3.75,18.16,18.16,0,0,0-1.65,5.73c-.11,2.76.66,4.19-3.2,3.86a48.81,48.81,0,0,1-14.53-2.87c-4.3-1.43-7.39-3.08-8.6-7.16-1.32-4.51,7.38-19.71,10.69-24.78a90.51,90.51,0,0,1,19.16-20.49,118.78,118.78,0,0,1,10.8-6.94,85.59,85.59,0,0,1,31-10.57"/></clipPath><clipPath id="clip-path-2"><rect class="cls-2" x="-315.54" y="-1767.65" width="1897.35" height="4065.06"/></clipPath><clipPath id="clip-path-3"><path class="cls-1" d="M151.46,175.38c12.45-16.85,34.59-34.37,61.8-48.58,8.26-4.29,16.19-7,25.22-10.68,10.14-4,21.15-8.71,29.19-12,29.52-11.79,30.4-14.32,30.4-14.32a26.49,26.49,0,0,0,8.49,6.94c7.82,4.41,20.81,9.69,35.35,19.61,8.82,6.06,19.5,15.09,28.31,21.7,3,2.2,7.38,4.62,10.14,6.61,6.83,4.95,10.68,10.57,14,13.1a7.29,7.29,0,0,0,5.4,1.44,29.35,29.35,0,0,0-3.2,7.6c-2.2,8-4.19,22.14-5.18,43.4-1.54,33,2.32,81.4,2.32,81.4l6.94,45.93,3,13s-3,.44-9.8,3.2-17.41,7.6-17.41,7.6L269.32,398.77l-19.6-6.06-48.58-71.93L149.7,314.5,130.31,294s0-16.85-1.65-31.83a233,233,0,0,0-5.18-28.09s2.21-11.79,2.21-19c0-4.51,5.72-17,12.22-25.88,5.4-7.27,11.68-11.35,13.55-13.88"/></clipPath><clipPath id="clip-path-5"><path class="cls-1" d="M307.22,156.32c13.77-8.7,41.3-10.57,41.3-10.57a21.79,21.79,0,0,1,8.71,4.62c3.41,3.09,5.61,8.27,5.06,12.12-2.09,14.1-20.16,23.35-28.09,28.42-13.76,8.7-40.64-10.24-40.64-10.24s0-15.54,13.66-24.35"/></clipPath><clipPath id="clip-path-7"><path class="cls-1" d="M167.1,144.54s20.6,5.39,34.15,14A64.16,64.16,0,0,1,221.41,179L207,194.11s-42.08-18.62-49.79-23.69c-5.84-3.85-5.18-14.21-1.1-19.27s11-6.61,11-6.61"/></clipPath><clipPath id="clip-path-9"><path class="cls-1" d="M246.52,256.45c-2.75-5.07-16.52-20.38-16.52-20.38l-7.27-9.36s-.55-4.19-1.65-6.17-3.64-1.21-3.64-1.21l-39.76,14a22.07,22.07,0,0,0-5.18,4,18.91,18.91,0,0,0-3.19,5.18l-3.64-1.32-5.07-.55a9.82,9.82,0,0,0-3-3,6.76,6.76,0,0,0-3.75-.56l-4.4-3.52-1.76.22-6.61,15.42s-5.4,3.53-5.07,6.39,6.28,5.07,6.28,5.07l2.86,3.19,3,1a21.42,21.42,0,0,0,2.75,3.31,11.73,11.73,0,0,0,3,2l2,14.87-7.93,19.61-8.49-3.75a46.89,46.89,0,0,0-7.6-6.17c-2.31-1.32-4.84.44-4.84.44l-13.55,34.81a9.62,9.62,0,0,0,2,6.06c2.2,2.76,2.86,2.31,6,4.85s3.63,3.85,5.84,5.29,2.42,1,2.42,1,1,4.51,6.39,9.69,16.41,11.13,16.41,11.13l22.14,17S202.35,403.73,223.5,402c6.72-.55,11-2.31,15.75-8.59,6.28-8.26,7.93-19.83,9.47-32.05.78-6.5,1.44-15.54,1.88-22.47.66-10.14,1-17.08,1.87-25.89.66-6.5,1.54-14.1,1.76-20.82.11-3.63-.11-9.14-.11-12.56.44-8.92-4.73-17.84-7.6-23.13"/></clipPath><clipPath id="clip-path-11"><path class="cls-1" d="M270,257.77c2.76-5.06,16.53-20.38,16.53-20.38l6.5-9.91,2.2-5.95,3-1.21,40.32,14.32a34.46,34.46,0,0,1,4.52,4,9.16,9.16,0,0,1,2,3.85L357,265l3.52,21.48,7.6,19.17,7.49-2.42s3.2-4.08,6.5-5.95c2.31-1.32,7.27-.55,7.27-.55l13,35L400.74,337,394,342.59l-5.29,5.29-2.86.77s-1.44,4.85-6.94,10-15,10.8-15,10.8L341.7,386.21s-44.95,35.8-64.78,9.7c-9.58-12.56-10.9-32.06-12.11-52.22-1.1-17.62-2.76-34.37-3.2-50.12-.11-3.63.66-8.59.66-11.89-.33-9.81,4.85-18.73,7.71-23.91"/></clipPath><clipPath id="clip-path-13"><path class="cls-1" d="M69.62,261.41c3.08-3.09,9.14-2.42,14.21-2a60.07,60.07,0,0,1,21.59,6.16,7.45,7.45,0,0,1,2.86,3s7.38,13.77,11.57,19.28a46,46,0,0,0,8.26,8.37s1.43,11.78-1.76,20.37-11,14-11,14a34.37,34.37,0,0,0-7.71-4.18c-5-1.65-9.8-1.76-16-2.09-7.05-.33-16-9.48-20.05-11.9-9.25-5.51-5.18-12.34-5.18-12.34s-3.19-3.85-3.41-7.16,2.53-6.28,2.53-6.28a4.93,4.93,0,0,1-2.2-3,11.77,11.77,0,0,1,.22-6.5c1.43-3.19,7.82-3.52,7.82-3.52A9.63,9.63,0,0,1,68,268.57c-.45-2.42.55-6.06,1.65-7.16"/></clipPath><clipPath id="clip-path-15"><path class="cls-1" d="M158.29,162.27a39.68,39.68,0,0,0,9.69,5c4.63,1.76,8.26,2.86,13.77,2.64,4.63-.22,8.59,3.75,11,4.41a24.78,24.78,0,0,0,11,0s2.76,8.37,7.05,8.92c3.31.44,6.61-3.74,9.7-4.19,2.64-.33,5.17,2.87,5.39,6.28a15.81,15.81,0,0,1-3.74,10.58,14.84,14.84,0,0,1-6.83,4,103.13,103.13,0,0,0,.66,14.43,22.15,22.15,0,0,0,3.08,8.93,70.6,70.6,0,0,1-14.21,11c-7.15,3.86-15.31,5.18-20.15,8.48-1.77,1.21-4.3,10.91-4.3,10.91l-4.51,5.84.32-7.94,2.87-10.57L176.58,229a22.41,22.41,0,0,1-6.06-1.1,12.88,12.88,0,0,1-4.41-2.86,49.83,49.83,0,0,1-10.46-25.56c-.67-6.5-.11-10.57.55-17.29.55-6.06.55-10.91,1-14.87.33-1.87,1.1-5.07,1.1-5.07"/></clipPath><clipPath id="clip-path-17"><path class="cls-1" d="M114.56,224.4c.77-.22,3.19-1.21,3.19-1.21s3.86-7.61,6.06-7.83,5.95-.33,7.71,1c3.2,2.31,11.24,10,11.24,10l-.55,5,5.73,4s.33,6.5-2.21,11.35-8,8.15-8,8.15l-4.29-2.53a10.15,10.15,0,0,1-6,3.41c-3,.44-7.27-1.21-10.47-1.54-1.65-.22-4.29.22-5.5-.44-1.55-.77-.67-3.75,2.09-4.52,4.4-1.1,12.33-.11,12.23-2.2,0-.66-2.43-2.65-4.74-3.64-3.42-1.43-8.26-1.65-11.46-2.75a5.27,5.27,0,0,1-3.3-3.08c-.22-1.66,2-2.32,2-2.32s-1.32-2.31-.55-3.52a6.61,6.61,0,0,1,2.2-1.88s-1.65-3.63,4.63-5.39"/></clipPath><clipPath id="clip-path-19"><path class="cls-1" d="M293.23,180.45c4.07-2.1,8.48,6.94,15.75,2.53,2.64-1.65,6.39-8,6.39-8a41.7,41.7,0,0,0,7.82-5.84c4.51-4.41,9.69-10.57,12.78-11.35,2-.55,5.61-.44,7.38-.66,4-.33,7.93-1.1,10.57.88,4.19,3.2,4.85,13.77,5.4,23s1.21,17-.55,25.88c-1.43,7.16-5.73,15.2-9.36,18.84-5.4,5.4-10.36,4.51-10.36,4.51L336.52,241l2.86,11,.22,8.27s-2.2-1.1-4.51-5.18-1.55-8.59-4.74-11.13c-1.87-1.43-12.89-4.4-21.59-9.47A47.35,47.35,0,0,1,297,224.29a46.65,46.65,0,0,0,2.54-10.69,62,62,0,0,0-.11-13.11,13.07,13.07,0,0,1-6.94-5.17c-3-4-5.29-11.79.77-14.87"/></clipPath><clipPath id="clip-path-21"><path class="cls-1" d="M411.75,266.25c8.59-3.85,25.12-7.27,31.84-5.17,3.19,1,4.73,5.51,3.52,8.7a17.12,17.12,0,0,1-3.19,5.18s6.17-.22,7.82,3a11.73,11.73,0,0,1,.66,6.28,7.54,7.54,0,0,1-2.76,4,5.77,5.77,0,0,1,3.2,5.5c-.44,4.19-3.86,7.38-3.86,7.38s1.88,4.41.11,7.6c-1.54,3-6.39,4.52-10,8.16a51.71,51.71,0,0,1-8.59,6.49c-6.61,4.08-13.77,2.54-20.05,3.53-5.4.77-11.13,4.85-11.13,4.85a35.1,35.1,0,0,1-9.8-14c-3.08-8.6-2.42-20.27-2.42-20.27s6.28-4,9.69-9.69c2.31-4,5.4-9.59,7.71-13.66,2.09-3.86,3.53-6.17,7.27-7.83"/></clipPath><clipPath id="clip-path-23"><path class="cls-1" d="M406.57,187.5c.56-.78,1.33-.11,1.88,1.65.66,2.42,1.1,6.5,3.08,8.92,2.54,2.86,8.7,2.09,10,1.32,1.1-.66,7-2.64,7.38-5.73.44-4.18-2.43-9.47-3.2-12.44-.55-1.77.11-2.65,1.21-2,3.09,1.77,12.45,13,14.21,15.21,3.2,4.29-1.65,10.68-4.51,16.52a44.18,44.18,0,0,0-3.86,11.23l2.09,38.34-14.76,2.86-3.19-37.23a40.27,40.27,0,0,0-4.74-9.58c-2.53-3.64-6.61-5.84-7.38-11.24-.66-4,.22-15.86,1.76-17.84"/></clipPath><clipPath id="clip-path-25"><path class="cls-1" d="M422.33,326.29l8-2.21,10.24-8.15a81.7,81.7,0,0,0,5.51,8.82c2.64,3.52,5.4,5.72,6.39,10.24a18.31,18.31,0,0,1,.22,7.27c-.33,4.63-1.32,9.36-2.64,10.46-2,1.66-.67-8.59-5.4-11-2.32-1.21-7.6-.77-11.13.44-2.64.88-3.74,2.42-4.84,2.86s-1.22,4.85-.11,7.38c3.3,7.16,3.19,9,1.21,8.38-4.08-1.44-6.72-5.51-9.37-8.93-3-3.74-5.72-6.94-5.39-10.46.66-6.72,7.27-15.09,7.27-15.09"/></clipPath><clipPath id="clip-path-27"><path class="cls-1" d="M129,210.85c-1-1.32-1.21-3.09-3.86-5.95a102.65,102.65,0,0,0-18.83-15c-5.51-3.42-12.89-4.74-16.86-5.18-1.87-.22-9-1.1-14.43-.33-4.62.66-5.5,3.2-9.36,3-1.32-.11-3.63-.22-4.73-.44-3-.78-2.32-1.88-4-2.32-1.1-.33-4.63-.33-5.73.55-1.54,1.21-.55,12-.44,13.22,0,.55,2.31,1.1,3.64,1.43a4.67,4.67,0,0,0,3-.55c1.32-.77,1.76-2.09,4.74-2.64,3.52-.66,10.57.66,13.55,1.1,4.4.77,6.38,6.28,6.49,8.15.89,18,.12,50.45.12,50.45l11,.22S93.19,247.42,93,235c-.11-9.47-.77-21.48,1.21-29.3,3.2-12.78,21.37-1.32,30.29,4,3.75,2.31,5.62,2.75,4.52,1.21"/></clipPath><clipPath id="clip-path-29"><path class="cls-1" d="M290,138.48c1.77-2.21,6.94-7.27,6.94-7.27s9-7.49,18.29-8.37a28.62,28.62,0,0,1,16,2.86S343,130.11,345.66,133c1.65,1.76,4.19,5,5.84,7.16,1,1.32,1.76,2.31,1.76,2.31l5.73.77s9.8.56,11.12,3c2.54,4.74-6.83,15-6.83,15s-1.21-5.73-4.84-9.47-9.92-5.84-9.92-5.84-21,5.84-34.69,14.43a62.52,62.52,0,0,0-19.94,20.16l-3.53,2a36.62,36.62,0,0,1-7.71-20.27c-.55-7.38,3.2-18.39,7.38-23.68"/></clipPath><clipPath id="clip-path-31"><path class="cls-1" d="M182.74,124.27c3.2-.88,7.38-2.76,11.13-3.09,15.42-1,27.32,10.58,27.32,10.58s11.12,12.67,12,25C234.19,170.64,225,181,225,181l-4-2.1a21.9,21.9,0,0,0-2.87-5.5c-3.19-4.3-9.14-9.92-17.29-15.09-13.55-8.6-33.93-13.88-33.93-13.88s-6.17,1.43-9.47,5.06-5.18,10.14-5.18,10.14-10.35-9.26-6.94-14.76c2.2-3.64,11.9-2.76,11.9-2.76l4.74-1c.22-.11,6.6-12.78,20.7-16.85"/></clipPath><clipPath id="clip-path-33"><path class="cls-1" d="M421.33,224.29s.78-2.54,2.43-3c2.86-.66,4.4,2.32,4.4,2.32l3.31,36.9-6.94,1.32Z"/></clipPath><clipPath id="clip-path-35"><path class="cls-1" d="M79.09,317.81A33.1,33.1,0,0,0,87,323.09,26.85,26.85,0,0,0,96.93,325l.23,17.18a3.24,3.24,0,0,1-1.55,2.09,12.33,12.33,0,0,1-6.61,2,14.64,14.64,0,0,1-7-1.44A9.07,9.07,0,0,1,79.09,342Z"/></clipPath><clipPath id="clip-path-37"><path class="cls-1" d="M81.51,256.45s4-.44,7.82-.55c1.77,0,4-.33,5.07.33a6,6,0,0,1,3.09,5.84l-18.29-3Z"/></clipPath><clipPath id="clip-path-39"><path class="cls-1" d="M169.86,242.9l-2,7.27A56.56,56.56,0,0,0,162,261.63c-3.2,7.71-6.72,19.5-6.72,19.5a21.94,21.94,0,0,0,9.91,7.05c6.06,1.87,14.21.22,14.21.22s4.41-19.94,14-34.92c3.19-5.07,7.93-8.59,12-11.9,6.16-5.07,27.75-5.84,29.63-2.53.66,1.1,11.12,11.89,16.19,21.26,2,3.63,2.09,10.13,2,11.12-.11,1.65-2.09-7.71-9.58-14.87-3.75-3.63-11-6.61-16-7.49-2.76-.55-8.37,1-12.34,3.42C210.28,255.57,207,260,205,262.4c-5.18,6.39-10.58,31.5-10.58,31.5l4.74,6.72,2.53,7.27-1,23.36.22,8s-1.65,1.87-15.09-6.94C179,327.94,169.09,320,161,314a28.91,28.91,0,0,0-10.35-4.51l-3.53-5.18,1.77-10.8-1-1.65a34.81,34.81,0,0,1,1.43-6.83,184.34,184.34,0,0,1,7.93-22.36,79.76,79.76,0,0,1,12.56-19.72"/></clipPath><clipPath id="clip-path-41"><path class="cls-1" d="M245.2,379.93c1.65-5.61,3.41-12.45,3.41-12.45l1.55,15-.44,10.24L241.9,390a105,105,0,0,0,3.3-10"/></clipPath><clipPath id="clip-path-43"><path class="cls-1" d="M268.33,374.87a148.83,148.83,0,0,0,6.39,17.84c.66,1.43,6.39,11.13,17.63,11,10.46-.11,23.79-4.41,31.17-7.38a54.65,54.65,0,0,0,5.84-2.87l2.09,2.2s-10,6.39-14.54,10.8-3.3,6.72-3.3,6.72l-21.81-5.4-23-9.47a58.87,58.87,0,0,1-1-9.36c-.11-6,.55-14.1.55-14.1"/></clipPath><clipPath id="clip-path-45"><path class="cls-1" d="M345.55,243.78l2,7.27a56.18,56.18,0,0,1,5.84,11.46c3.2,7.71,6.72,19.5,6.72,19.5a22,22,0,0,1-9.91,7.05c-6.06,1.87-14.21.22-14.21.22s-4.41-19.94-14-34.92c-3.2-5.07-7.93-8.59-12-11.9-6.17-5.07-27.76-5.84-29.63-2.53-.66,1.1-11.13,11.89-16.19,21.26-2,3.63-2.1,10.13-2,11.12.1,1.66,2.09-7.71,9.58-14.87,3.74-3.63,11-6.61,16-7.49,2.75-.55,8.37,1,12.34,3.42,5.06,3.08,8.37,7.49,10.35,9.91,5.18,6.39,10.58,31.5,10.58,31.5l-4.74,6.72-2.53,7.27,1,23.36.11,8.81s1.32,1.1,14.76-7.71c6.83-4.41,16.74-12.34,24.78-18.4a29,29,0,0,1,10.36-4.51l3.52-5.18-1.76-10.8,1-1.65a34.81,34.81,0,0,0-1.43-6.83,184.34,184.34,0,0,0-7.93-22.36,79.76,79.76,0,0,0-12.56-19.72"/></clipPath><clipPath id="clip-path-47"><path class="cls-1" d="M128.33,297.15a.81.81,0,0,1-.47-.14c-6-4.15-10-10.55-13-15.21l-.28-.46c-.74-1.23-1.46-2.62-2.22-4.09-2.17-4.19-4.63-8.95-8.29-11.05-1.85-1.13-8.39-3.64-14.08-4.87-5.32-1.16-14.55-2.06-18.44-.37a5.19,5.19,0,0,0-2.88,4.26,8.76,8.76,0,0,0,3.72,7.87.83.83,0,0,1-1,1.31c-3.15-2.46-4.78-6-4.34-9.39a6.81,6.81,0,0,1,3.86-5.57c4.47-1.93,14.3-.85,19.45.28,5.94,1.28,12.6,3.85,14.58,5.06,4.06,2.33,6.63,7.31,8.9,11.71.75,1.45,1.46,2.81,2.17,4l.27.44c2.85,4.55,6.76,10.77,12.49,14.73a.82.82,0,0,1-.47,1.5"/></clipPath><clipPath id="clip-path-49"><path class="cls-1" d="M66.64,287.35h0c-2.52-.13-4.37-2.77-4.63-5.14-.43-2.76.27-6.59,3.66-8.22a12.56,12.56,0,0,1,6.14-1h.93c1.85,0,4,0,6.32.12,3,.11,6,.22,9.07.1A.84.84,0,0,1,89,274a.83.83,0,0,1-.79.86c-3.11.13-6.34,0-9.2-.1-2.27-.09-4.42-.16-6.24-.12-.33,0-.66,0-1,0a11.09,11.09,0,0,0-5.39.81c-2.58,1.23-3.09,4.28-2.75,6.51.19,1.71,1.5,3.63,3.09,3.71a.83.83,0,0,1,0,1.65"/></clipPath><clipPath id="clip-path-51"><path class="cls-1" d="M79.09,306.63a.7.7,0,0,1-.31-.07,105.41,105.41,0,0,1-13.5-7.14c-2.09-1.51-3.52-5.4-3.12-8.51a5.67,5.67,0,0,1,3.64-4.83c3.56-1.44,17.44,1.92,17.58,2a.83.83,0,0,1-.42,1.6c-3.6-.95-14.14-3-16.56-2a4,4,0,0,0-2.6,3.5c-.35,2.72,1,5.92,2.44,7A104.12,104.12,0,0,0,79.4,305a.83.83,0,0,1,.46,1.08.84.84,0,0,1-.77.52"/></clipPath><clipPath id="clip-path-53"><path class="cls-1" d="M115.44,331a.72.72,0,0,1-.35-.08c-1.1-.51-2.28-1.16-3.52-1.84-2.56-1.39-5.46-3-7.18-3-1.1-.07-2.22-.12-3.37-.17-4.45-.2-9-.4-13.15-1.74-3.35-1.12-6.21-3.41-9-5.63-1.22-1-2.38-1.91-3.57-2.74a52.84,52.84,0,0,1-8.61-6.83c-2.62-2.74-2.35-6.93-.77-9.48a.83.83,0,0,1,1.41.87,6.31,6.31,0,0,0,.55,7.47,52.19,52.19,0,0,0,8.35,6.61c1.25.87,2.48,1.86,3.68,2.81,2.65,2.13,5.39,4.33,8.45,5.35,3.89,1.27,8.38,1.47,12.72,1.66,1.15.05,2.28.1,3.38.17,2.08.09,5,1.69,7.88,3.24,1.22.67,2.38,1.3,3.43,1.8a.81.81,0,0,1,.4,1.09.83.83,0,0,1-.75.48"/></clipPath><clipPath id="clip-path-55"><path class="cls-1" d="M88.05,347.17c-4.62,0-7-1.3-8.13-2.43a4.84,4.84,0,0,1-1.55-3.47l-.22-23.35a.83.83,0,0,1,.82-.83h0a.83.83,0,0,1,.83.82L80,341.26a3.16,3.16,0,0,0,1,2.29c1,1,3.14,2.1,7.69,2,5.83-.2,7.9-2.41,7.9-4.24l-.44-15.84a.83.83,0,1,1,1.65-.05l.44,15.87c0,2.71-2.49,5.68-9.5,5.91h-.76"/></clipPath><clipPath id="clip-path-57"><path class="cls-1" d="M97.27,262.84a.79.79,0,0,1-.83-.77v-1.65a3.11,3.11,0,0,0-3.14-3.14H82.84a3.15,3.15,0,0,0-2.87,2,.82.82,0,0,1-1.06.48.84.84,0,0,1-.48-1.07,4.77,4.77,0,0,1,4.41-3.06H93.3a4.8,4.8,0,0,1,4.79,4.79V262a.87.87,0,0,1-.82.88"/></clipPath><clipPath id="clip-path-59"><path class="cls-1" d="M125.2,256.63a20.18,20.18,0,0,1-6.5-1.16,14.31,14.31,0,0,0-4-.49c-2-.06-3.75-.12-4.4-1.33A3.19,3.19,0,0,1,110,251a4.66,4.66,0,0,1,3-2.56,15,15,0,0,1,7.52-.82c2.94.35,4.2-.27,4.36-.62a.3.3,0,0,0,0-.24c-.5-1.11-3.44-2.78-5.49-3.36a38,38,0,0,0-4.58-.78,37,37,0,0,1-4-.65c-2.18-.54-3.61-1.14-4.47-2.58a3,3,0,0,1-.33-3.09c1-1.76,4.06-1.9,7.1-1.9.8,0,1.67-.05,2.59-.1a26.23,26.23,0,0,1,6.83.22,19.18,19.18,0,0,1,4.74,1.9l.75.38c.38.21.72.42,1.06.62a20.31,20.31,0,0,0,5.58,2.61.83.83,0,0,1,.62,1,.81.81,0,0,1-1,.62,21.68,21.68,0,0,1-6-2.8l-1-.59-.71-.36a17.7,17.7,0,0,0-4.34-1.75,23.89,23.89,0,0,0-6.39-.19c-.94.05-1.83.1-2.68.1-1.51,0-5,0-5.66,1.07-.22.37,0,1,.31,1.43.5.84,1.38,1.3,3.46,1.82,1,.24,2.35.42,3.8.61a41.8,41.8,0,0,1,4.8.82c1.8.52,5.68,2.35,6.56,4.28a1.83,1.83,0,0,1,0,1.61c-.61,1.38-2.8,2-6,1.57a13.36,13.36,0,0,0-6.76.72,3.19,3.19,0,0,0-2,1.57,1.58,1.58,0,0,0,.21,1.33c.21.39,1.9.44,3,.48a15.45,15.45,0,0,1,4.48.58c5.27,1.79,8.71,1,11.12.11a5.71,5.71,0,0,0,2.26-2.16,9.2,9.2,0,0,1,2.44-2.5,14,14,0,0,1,1.46-.72,6.72,6.72,0,0,0,2.32-1.45c.62-.66.51-1.61.26-3a6,6,0,0,1-.11-2.62,4.23,4.23,0,0,1,1.6-2.15,3.47,3.47,0,0,0,1.37-1.81,5.57,5.57,0,0,0-.35-3.42,8.33,8.33,0,0,1-.45-1.82,5.6,5.6,0,0,1,.55-2.32c.46-1.15.71-1.9.32-2.64-.5-.94-2.92-3.14-5.05-5.07-1.76-1.6-3.57-3.25-4.64-4.47-2.1-2.47-7.72-2-8.6-1.57-2.49,1.2-4.5,4.68-4.5,6.31a.83.83,0,1,1-1.65,0c0-2.35,2.42-6.35,5.42-7.79,1.33-.67,7.83-1.27,10.58,2,1,1.14,2.78,2.76,4.5,4.32,2.56,2.32,4.77,4.33,5.4,5.52.78,1.48.21,2.9-.24,4a4.22,4.22,0,0,0-.44,1.58,7.57,7.57,0,0,0,.37,1.43,7.08,7.08,0,0,1,.37,4.38,5,5,0,0,1-1.9,2.63,2.77,2.77,0,0,0-1.07,1.3,5.25,5.25,0,0,0,.14,1.9c.25,1.38.56,3.09-.66,4.4a8,8,0,0,1-2.86,1.83,14.29,14.29,0,0,0-1.3.64,7.79,7.79,0,0,0-2,2.07,7,7,0,0,1-3,2.72,16,16,0,0,1-5.73,1.06"/></clipPath><clipPath id="clip-path-61"><path class="cls-1" d="M108.39,235.91a.82.82,0,0,1-.58-.24,3.49,3.49,0,0,1-.88-1.6,3.57,3.57,0,0,1,.22-2.85c.9-1.5,3-2,5.4-2.52.51-.11,1-.23,1.59-.37,4.53-1.13,7.43-1.64,8.21-1.77,2.37-.38,4.28.58,6.13,1.5,2.64,1.33,6.6,3.3,10,5a.82.82,0,0,1,.39,1.1.83.83,0,0,1-1.11.38c-3.41-1.65-7.38-3.63-10-5-1.69-.84-3.29-1.64-5.12-1.35-.76.12-3.61.63-8.08,1.74l-1.63.39c-2,.44-3.81.86-4.34,1.75a2,2,0,0,0,0,1.58,1.74,1.74,0,0,0,.45.85.83.83,0,0,1,0,1.17.86.86,0,0,1-.59.24"/></clipPath><clipPath id="clip-path-63"><path class="cls-1" d="M110.15,230.4a.83.83,0,0,1-.76-.52,3.37,3.37,0,0,1,0-2.8c1.09-2.35,4.81-3.58,7.53-4.49l1.2-.4c.68-.22,1.35-.46,2-.71,2.61-.92,5.3-1.89,7.29-1.29a41.61,41.61,0,0,1,6.1,3.42c1.92,1.19,3.91,2.43,5.5,3.25a.82.82,0,0,1,.36,1.11.84.84,0,0,1-1.11.36c-1.65-.85-3.67-2.11-5.62-3.32a44.35,44.35,0,0,0-5.74-3.25c-1.43-.43-3.87.44-6.23,1.28-.69.25-1.38.5-2,.71l-1.21.41c-2.29.76-5.76,1.92-6.55,3.62a1.8,1.8,0,0,0,0,1.49.83.83,0,0,1-.46,1.07.81.81,0,0,1-.31.06"/></clipPath><clipPath id="clip-path-65"><path class="cls-1" d="M137.69,255.73a.78.78,0,0,1-.46-.14c-.09-.06-2.13-1.46-3.57-2.56a.83.83,0,1,1,1-1.31c1.4,1.08,3.47,2.49,3.49,2.51a.82.82,0,0,1-.47,1.5"/></clipPath><clipPath id="clip-path-67"><path class="cls-1" d="M147.38,235.91a.86.86,0,0,1-.4-.11,39,39,0,0,1-5.19-3.5.82.82,0,1,1,1.06-1.26,38.74,38.74,0,0,0,4.94,3.32.82.82,0,0,1,.32,1.12.83.83,0,0,1-.73.43"/></clipPath><clipPath id="clip-path-69"><path class="cls-1" d="M114,332.07a.83.83,0,0,1-.79-.58.82.82,0,0,1,.54-1c4.37-1.35,16.2-12.71,13.64-35.58a.83.83,0,0,1,.73-.92.84.84,0,0,1,.91.73c2.68,23.9-10.09,35.9-14.79,37.34a.67.67,0,0,1-.24,0"/></clipPath><clipPath id="clip-path-71"><path class="cls-1" d="M129.48,347.7c-2.76,0-4.72-2.12-6.78-4.35a24.61,24.61,0,0,0-4.41-4c-5-3.31-5.79-5.69-5.55-9.45a.83.83,0,0,1,.88-.77.82.82,0,0,1,.77.88c-.2,3.12.21,4.92,4.81,8a26.18,26.18,0,0,1,4.71,4.29c2.18,2.35,3.9,4.2,6.36,3.74,4.14-.74,9.52-6,13.73-13.29,4.44-7.76,6.6-15.95,5.76-21.92-.7-5-3.29-5.83-6.3-6.84a16.67,16.67,0,0,1-4.14-1.84,34.85,34.85,0,0,1-4.65-3.95c-2.4-2.34-3.39-3.3-7.68-2.22a.81.81,0,0,1-1-.59.83.83,0,0,1,.59-1c5.2-1.31,6.81.26,9.24,2.64a32.53,32.53,0,0,0,4.44,3.76,15.27,15.27,0,0,0,3.72,1.64c3.24,1.09,6.58,2.21,7.42,8.18,1.84,13.09-10.62,35.26-20.83,37.06a6,6,0,0,1-1.09.11"/></clipPath><clipPath id="clip-path-73"><path class="cls-1" d="M136.81,256.07a.83.83,0,0,1-.18-1.64c3.89-.85,12.11-9.82,10.06-20.18a.83.83,0,1,1,1.62-.32c2.15,10.87-6.17,21-11.32,22.12l-.18,0"/></clipPath><clipPath id="clip-path-75"><path class="cls-1" d="M147.42,265.34c-2.58,0-3.67-1.49-4.55-2.7a5.53,5.53,0,0,0-1.81-1.82l-1.19-.56c-2.29-1-4.88-2.2-4.77-5.93a.86.86,0,0,1,.85-.8.84.84,0,0,1,.81.85c-.08,2.5,1.32,3.26,3.79,4.38.42.19.84.38,1.26.59a7,7,0,0,1,2.39,2.32c.92,1.26,1.59,2.16,3.67,2s8-4.89,10.64-11.7c1.58-3.8,2.59-10.47.31-12.66a3.7,3.7,0,0,0-2.33-1,14.16,14.16,0,0,1-3.24-.85,10.34,10.34,0,0,1-3-1.95c-1.4-1.19-2-1.65-3.36-.86a.82.82,0,1,1-.84-1.42c2.4-1.42,3.93-.12,5.27,1a9.12,9.12,0,0,0,2.51,1.68,13,13,0,0,0,2.89.75,5.21,5.21,0,0,1,3.2,1.39c3,2.86,1.82,10.33.09,14.47-2.83,7.27-9.12,12.48-12,12.74l-.59,0"/></clipPath><clipPath id="clip-path-77"><path class="cls-1" d="M221.54,403c-12.25,0-27.94-5.64-40.08-12.44-6.81-3.85-14.19-9.67-20.7-14.8-3.2-2.52-6.23-4.9-8.79-6.73-2.18-1.55-4.23-3-6.13-4.26C137,358.71,131.13,354.7,129,347.45a.82.82,0,0,1,.55-1,.81.81,0,0,1,1,.55c2,6.68,7.66,10.56,16.22,16.43,1.91,1.31,4,2.72,6.16,4.28,2.59,1.86,5.63,4.25,8.85,6.79,6.47,5.09,13.8,10.86,20.49,14.65,15.15,8.48,35.84,15.16,47.9,10.95,15.28-5.34,18.17-34.73,19.82-64.36.42-7.73,1.09-14.91,1.74-21.86,1.69-18.17,3.16-33.86-1.68-46.32a27.4,27.4,0,0,0-17.68-16.72c-4.93-1.46-9.74-1.24-12.24.57-12.16,8.62-16.4,23.73-17.85,32-1.1,6.3-.54,14.39-.09,20.89l.1,1.61a131.87,131.87,0,0,1-.21,19.48c-.23,3.51-.44,6.83-.44,10.53a.83.83,0,1,1-1.66,0c0-3.75.22-7.1.46-10.64a131.72,131.72,0,0,0,.21-19.26l-.11-1.6c-.45-6.6-1-14.8.12-21.29,1.48-8.49,5.87-24.07,18.51-33,2.9-2.09,8.27-2.41,13.67-.81A29.05,29.05,0,0,1,251.59,267c5,12.82,3.5,28.69,1.78,47.06-.64,6.94-1.31,14.1-1.73,21.8C250,366,247,396,230.71,401.64a28,28,0,0,1-9.17,1.37"/></clipPath><clipPath id="clip-path-79"><path class="cls-1" d="M221.74,350.91a.85.85,0,0,1-.63-.29c-4.36-5.06-12.76-7.57-18.9-9.4a52.4,52.4,0,0,1-5.49-1.84c-7.82-3.47-16.89-10.3-23.51-15.3-1-.73-2.14-1.65-3.36-2.62-5-4-11.87-9.49-19.13-11.22a.83.83,0,0,1,.38-1.61c7.63,1.82,14.65,7.43,19.79,11.54,1.2,1,2.33,1.87,3.31,2.59,6.56,4.95,15.54,11.72,23.2,15.11a47.92,47.92,0,0,0,5.28,1.76c6.34,1.89,15,4.49,19.68,9.91a.83.83,0,0,1-.08,1.17.86.86,0,0,1-.54.2"/></clipPath><clipPath id="clip-path-81"><path class="cls-1" d="M156.64,174.11h0a.83.83,0,0,1-.79-.86l.06-1.22a34.85,34.85,0,0,1,1.75-10.91.83.83,0,1,1,1.56.54,33.14,33.14,0,0,0-1.66,10.45l-.06,1.22a.82.82,0,0,1-.82.78"/></clipPath><clipPath id="clip-path-83"><path class="cls-1" d="M175.63,229.68c-4.43,0-9-1.4-13.21-8.5-2.22-3.73-9.37-16.94-7.93-30.25a.83.83,0,0,1,1.65.18c-1.4,12.8,5.55,25.61,7.71,29.23,4,6.76,8.16,7.94,13.23,7.64,5.81-.22,21.21-7.08,28-17.15a.84.84,0,0,1,1.15-.23.82.82,0,0,1,.22,1.15c-7.07,10.5-23.21,17.65-29.29,17.88-.51,0-1,.05-1.53.05"/></clipPath><clipPath id="clip-path-85"><path class="cls-1" d="M212.93,200.88a.83.83,0,1,1,0-1.65c3.88,0,10.72-4.49,11.85-10.46.68-3.55.14-6.56-1.43-8-1.13-1.06-2.75-1.33-4.82-.8a.83.83,0,0,1-.41-1.61c3.31-.84,5.28.2,6.36,1.21,2,1.89,2.72,5.37,1.93,9.55-1.3,6.85-9,11.8-13.48,11.8"/></clipPath><clipPath id="clip-path-87"><path class="cls-1" d="M218.65,223.9a.83.83,0,0,1-.77-.53c-2.91-7.51-3.14-12.85-3.14-19.57a.83.83,0,0,1,1.66,0c0,6.54.21,11.73,3,19a.82.82,0,0,1-.47,1.07,1,1,0,0,1-.3.05"/></clipPath><clipPath id="clip-path-89"><path class="cls-1" d="M216.12,191a.83.83,0,0,1-.62-1.38,8.25,8.25,0,0,1,4.23-2.58.83.83,0,0,1,.27,1.63,6.67,6.67,0,0,0-3.26,2.05.84.84,0,0,1-.62.28"/></clipPath><clipPath id="clip-path-91"><path class="cls-1" d="M176.35,258.82a.82.82,0,0,1-.82-.79,38.73,38.73,0,0,1,1.7-13.57c.6-2.08,1-3.59.73-5.27l-.36-1.81a46.74,46.74,0,0,0-1.88-7.57.82.82,0,0,1,1.49-.7,45,45,0,0,1,2,7.94l.37,1.83c.36,2.09-.14,3.83-.77,6a36.78,36.78,0,0,0-1.64,13,.83.83,0,0,1-.79.86h0"/></clipPath><clipPath id="clip-path-93"><path class="cls-1" d="M189.47,307.67c-4,0-12.06-3.43-13.26-5.28-1.07-1.66.56-6.93,4.36-18.71,1-3.21,2.15-6.68,3.26-10.29,3.76-12.15,9-24.61,21.91-33.48,4.37-3.07,18-5.21,24.64-3.88,5.26,1,8.6,5.59,12.47,10.85,1.38,1.87,2.8,3.81,4.42,5.74,6.46,7.74,6.58,11.89,6.91,23a.83.83,0,0,1-1.65.05c-.32-11-.43-14.66-6.53-22-1.65-2-3.09-3.93-4.48-5.82-3.66-5-6.83-9.29-11.46-10.21-6.72-1.34-19.67,1-23.38,3.62-11.78,8.11-17,18.9-21.27,32.61-1.12,3.62-2.24,7.09-3.27,10.3-2.55,7.93-5.19,16.12-4.54,17.32s8.17,4.52,11.86,4.52h.08c.75,0,1.11-.17,1.2-.32.66-1.18,1.44-4.77,2.42-9.32.94-4.37,2.11-9.8,3.66-15.26,5.51-19.35,13.25-29.73,23.66-31.76a.83.83,0,0,1,1,.65.82.82,0,0,1-.66,1c-9.74,1.9-17.06,11.9-22.38,30.59-1.54,5.41-2.7,10.81-3.64,15.15-1,4.88-1.8,8.4-2.61,9.82a2.85,2.85,0,0,1-2.6,1.13Z"/></clipPath><clipPath id="clip-path-95"><path class="cls-1" d="M194.75,289.66h-.09c-4.22-.46-11.17-2.82-13.47-4.32a.82.82,0,0,1,.9-1.38c2.11,1.37,8.8,3.63,12.75,4.05a.83.83,0,0,1,.73.92.82.82,0,0,1-.82.73"/></clipPath><clipPath id="clip-path-97"><path class="cls-1" d="M153.55,271.27a.83.83,0,0,1-.53-.2l-.67-.56c-1.72-1.42-4.32-3.56-5-5.29a.83.83,0,0,1,1.55-.58c.49,1.32,3.08,3.45,4.47,4.6l.69.57a.82.82,0,0,1,.09,1.16.8.8,0,0,1-.63.3"/></clipPath><clipPath id="clip-path-99"><path class="cls-1" d="M171.29,203.08a.85.85,0,0,1-.56-.21c-4.38-4-3.56-6-1.81-8.74l.56-.89c1.46-2.61,2.06-4.41,1.21-9.58a.84.84,0,0,1,.69-.95.83.83,0,0,1,.94.69c.89,5.43.31,7.59-1.41,10.67-.21.35-.41.66-.61,1-1.37,2.12-2.12,3.29,1.54,6.61a.83.83,0,0,1-.55,1.44"/></clipPath><clipPath id="clip-path-101"><path class="cls-1" d="M175.06,212.1c-3.39,0-6.93-.73-9.44-2.57a.83.83,0,0,1,1-1.33c3.55,2.61,9.55,2.67,13.63,1.63a.81.81,0,0,1,1,.59.82.82,0,0,1-.59,1,23.06,23.06,0,0,1-5.58.67"/></clipPath><clipPath id="clip-path-103"><path class="cls-1" d="M160.82,185.73c0-1.65,1-2.86,2.21-2.86s2.2,1.32,2.2,2.86-1,2.87-2.2,2.87-2.21-1.32-2.21-2.87"/></clipPath><clipPath id="clip-path-105"><path class="cls-1" d="M184.73,187.94c0-1.66,1-2.87,2.2-2.87s2.2,1.32,2.2,2.87-1,2.86-2.2,2.86-2.2-1.32-2.2-2.86"/></clipPath><clipPath id="clip-path-107"><path class="cls-1" d="M167.21,178.19a.77.77,0,0,1-.48-.16,8.47,8.47,0,0,0-7.48-.89.82.82,0,1,1-.59-1.54,10.11,10.11,0,0,1,9,1.09.83.83,0,0,1-.49,1.5"/></clipPath><clipPath id="clip-path-109"><path class="cls-1" d="M192.88,181.38a.86.86,0,0,1-.44-.12,12.51,12.51,0,0,0-9.81-1.45.82.82,0,0,1-.44-1.59,14.17,14.17,0,0,1,11.13,1.64.82.82,0,0,1-.44,1.52"/></clipPath><clipPath id="clip-path-111"><path class="cls-1" d="M165.34,288.34l-.19,0a.82.82,0,0,1-.61-1c4.18-17.38,6-23.34,9.23-26.8,1.4-1.48,5.65-5.95,6.54-8.73.22-.7.41-1.56.6-2.47.57-2.65,1.22-5.66,3.31-7.29,1.32-1.08,3.68-1.91,6.95-3.06a119.86,119.86,0,0,0,11.71-4.64c7.55-3.44,17-11.74,16.5-13.77,0-.15-.49-.36-1.56-.29a.83.83,0,0,1-.09-1.66c2.33-.13,3.06.78,3.25,1.55.94,3.8-10.95,12.72-17.4,15.67a120.32,120.32,0,0,1-11.86,4.7c-3.11,1.09-5.36,1.88-6.47,2.79-1.63,1.28-2.21,4-2.72,6.35-.21,1-.4,1.85-.65,2.63-.9,2.81-4.37,6.68-6.91,9.35-3,3.18-4.72,9-8.83,26.06a.82.82,0,0,1-.8.63"/></clipPath><clipPath id="clip-path-113"><path class="cls-1" d="M191.34,256.51a.81.81,0,0,1-.66-.33,23.58,23.58,0,0,1-3.27-7.14c-1-3.14-1.72-5.07-3.19-5a.83.83,0,1,1-.09-1.65c2.79-.18,3.79,2.89,4.85,6.12a22.43,22.43,0,0,0,3,6.65.83.83,0,0,1-.65,1.33"/></clipPath><clipPath id="clip-path-115"><path class="cls-1" d="M227.8,234.7a.82.82,0,0,1-.74-.46,24.8,24.8,0,0,0-2.51-3.72,27,27,0,0,1-2.67-4,13,13,0,0,1-.78-2.5c-.6-2.48-1-3.65-2.67-3.65a.83.83,0,0,1,0-1.66c3.09,0,3.78,2.85,4.28,4.93a11,11,0,0,0,.66,2.15,23.68,23.68,0,0,0,2.5,3.71,27,27,0,0,1,2.67,4,.83.83,0,0,1-.74,1.2"/></clipPath><clipPath id="clip-path-117"><path class="cls-1" d="M150.84,294.82a3.33,3.33,0,0,1-.75-.09c-1.59-.39-3.13-1.87-2.86-3.6.94-4.94,6.38-30.3,21.88-48.76a.84.84,0,0,1,1.17-.1.82.82,0,0,1,.1,1.16c-15.24,18.15-20.6,43.14-21.52,48-.11.72.78,1.52,1.62,1.72s.82-.14.86-.25.11-.43.23-.93c4.5-18.25,10.12-33.34,16.25-43.62A.83.83,0,0,1,169,248a.82.82,0,0,1,.28,1.13c-4.22,7.08-10.43,20.31-16.06,43.17-.14.53-.22.88-.26,1a2.08,2.08,0,0,1-2.08,1.46"/></clipPath><clipPath id="clip-path-119"><path class="cls-1" d="M156.64,276.55a.74.74,0,0,1-.29-.05,5.81,5.81,0,0,1-2.52-1.53,4.14,4.14,0,0,0-.62-.54.81.81,0,0,1-.23-1.14.82.82,0,0,1,1.14-.23,5,5,0,0,1,.87.74,4.34,4.34,0,0,0,1.93,1.15.83.83,0,0,1,.49,1.06.81.81,0,0,1-.77.54"/></clipPath><clipPath id="clip-path-121"><path class="cls-1" d="M147,304.86h-.1a.82.82,0,0,1-.72-.92,51,51,0,0,1,2-10.44.83.83,0,0,1,1.55.58c-.49,1.31-1.22,4.11-1.93,10.06a.83.83,0,0,1-.82.72"/></clipPath><clipPath id="clip-path-123"><path class="cls-1" d="M179.33,289.44h0l-4.11,0c-12.68-.11-13.71-.12-19.87-7.53a.82.82,0,1,1,1.27-1.05c5.67,6.82,6.15,6.82,18.62,6.93l4.11,0a.83.83,0,1,1,0,1.65"/></clipPath><clipPath id="clip-path-125"><path class="cls-1" d="M201.58,308.72a.83.83,0,0,1-.81-.64c-2-8.77-6.34-13.22-6.38-13.26a.82.82,0,0,1,1.16-1.17c.2.19,4.71,4.79,6.84,14.06a.83.83,0,0,1-.63,1l-.18,0"/></clipPath><clipPath id="clip-path-127"><path class="cls-1" d="M168.58,254.67h-.09a1.15,1.15,0,0,1-1-.74c-.62-1.42,0-3.93.83-7.12.39-1.53.8-3.12,1.09-4.71.69-4.28,6.1-8.25,7.17-9a.82.82,0,0,1,1.15.21.83.83,0,0,1-.2,1.15c-2.18,1.52-6,4.91-6.49,7.93-.31,1.67-.72,3.28-1.12,4.84a26.81,26.81,0,0,0-1,5.37,37.17,37.17,0,0,0,3.86-6.64l.05-.1a.83.83,0,1,1,1.48.74l0,.1C170.36,254.34,169.22,254.67,168.58,254.67Z"/></clipPath><clipPath id="clip-path-129"><path class="cls-1" d="M175,260.91a.73.73,0,0,1-.25,0,.82.82,0,0,1-.53-1c2-6-1-15.64-3.93-18a.84.84,0,0,1-.11-1.17.82.82,0,0,1,1.16-.11c3.33,2.75,6.71,12.95,4.45,19.84a.83.83,0,0,1-.79.57"/></clipPath><clipPath id="clip-path-131"><path class="cls-1" d="M221.63,179.4a.82.82,0,0,1-.74-.46c-2.43-5-7-10.12-13.31-14.91-17.2-13.29-40.94-20.27-52.32-21-4.79-.33-7.91.46-9.06,2.29-1.34,2.12.19,5.17.69,6.06a34.61,34.61,0,0,0,6.56,7.84.82.82,0,0,1,.06,1.16.83.83,0,0,1-1.17.06,36.06,36.06,0,0,1-6.88-8.24c-.62-1.09-2.49-4.86-.66-7.76,1.51-2.41,5.07-3.44,10.57-3.06,11.58.72,35.75,7.81,53.21,21.32,6.48,4.94,11.25,10.3,13.79,15.49a.82.82,0,0,1-.38,1.1.8.8,0,0,1-.36.09"/></clipPath><clipPath id="clip-path-133"><path class="cls-1" d="M223.94,180.5a.81.81,0,0,1-.78-.57c-5.49-17-27.17-29.31-44.08-34.72-9.59-3.05-17.28-3.79-22.88-2.19a.83.83,0,0,1-.45-1.59c5.91-1.69,13.93-1,23.83,2.21a100.23,100.23,0,0,1,26.58,13.07c9.67,6.85,15.91,14.49,18.57,22.71a.83.83,0,0,1-.53,1,.78.78,0,0,1-.26,0"/></clipPath><clipPath id="clip-path-135"><path class="cls-1" d="M162.26,142.28a.86.86,0,0,1-.36-.08.84.84,0,0,1-.39-1.11c3.63-7.49,13.82-16.46,23.2-17.86a.82.82,0,0,1,.94.7.81.81,0,0,1-.69.93c-9.68,1.45-19,10.78-22,17a.82.82,0,0,1-.74.47"/></clipPath><clipPath id="clip-path-137"><path class="cls-1" d="M225.26,182.15a.84.84,0,0,1-.53-.19.82.82,0,0,1-.1-1.16,32.79,32.79,0,0,0,7.31-24.69,38.45,38.45,0,0,0-14.57-26,.84.84,0,0,1-.14-1.17.83.83,0,0,1,1.16-.13,40.08,40.08,0,0,1,15.19,27.14,34.41,34.41,0,0,1-7.68,25.92.85.85,0,0,1-.64.29"/></clipPath><clipPath id="clip-path-139"><path class="cls-1" d="M192.55,150a.93.93,0,0,1-.29-.05.83.83,0,0,1-.49-1.07,39.32,39.32,0,0,1,9.93-14.06c3.88-3.5,9.94-7.41,16.77-6.18a.83.83,0,1,1-.29,1.63c-11-2-21.88,11.23-24.86,19.19a.83.83,0,0,1-.77.54"/></clipPath><clipPath id="clip-path-141"><path class="cls-1" d="M168.64,142.06a.8.8,0,0,1-.44-.13.83.83,0,0,1-.25-1.14C174.81,130,180.74,124.4,187.76,122c2.76-1,12.7-3.64,24.55,2.35l.82.46c2.44,1.38,5.49,3.09,6.48,5.09a.82.82,0,0,1-1.47.74c-.78-1.55-3.69-3.19-5.82-4.39l-.79-.44c-11.23-5.68-20.62-3.16-23.23-2.25-6.64,2.32-12.31,7.75-19,18.17a.84.84,0,0,1-.7.38"/></clipPath><clipPath id="clip-path-143"><path class="cls-1" d="M212,184.3a6.89,6.89,0,0,1-3.64-1c-3.78-2.3-5.25-7.54-5.7-9.69a.82.82,0,0,1,1.61-.35c.86,4,2.71,7.27,5,8.63a5.49,5.49,0,0,0,4.49.55.82.82,0,0,1,1,.58.83.83,0,0,1-.58,1,8.12,8.12,0,0,1-2.14.3"/></clipPath><clipPath id="clip-path-145"><path class="cls-1" d="M154.33,167.5a.81.81,0,0,1-.75-.47,16.44,16.44,0,0,1,.35-14.21c2.48-4.85,7.26-8.16,13.46-9.32a.83.83,0,1,1,.3,1.63c-7.28,1.36-10.7,5.34-12.29,8.44a14.78,14.78,0,0,0-.33,12.75.82.82,0,0,1-.39,1.1.77.77,0,0,1-.35.08"/></clipPath><clipPath id="clip-path-147"><path class="cls-1" d="M163.58,166.51a.66.66,0,0,1-.28,0,9.08,9.08,0,0,1-5.24-4.81,10.22,10.22,0,0,1,.24-8.18.82.82,0,0,1,1.52.64,8.62,8.62,0,0,0-.25,6.87,7.4,7.4,0,0,0,4.29,3.93.83.83,0,0,1-.28,1.6"/></clipPath><clipPath id="clip-path-149"><path class="cls-1" d="M179.89,170.61c-6.22,0-12.71-3.27-13.93-10.07a.83.83,0,0,1,1.63-.29c1.19,6.6,8.24,9.35,14.28,8.58a.84.84,0,0,1,.92.72.82.82,0,0,1-.71.92,17.76,17.76,0,0,1-2.19.14"/></clipPath><clipPath id="clip-path-151"><path class="cls-1" d="M196.45,175.89a11.67,11.67,0,0,1-10.95-7.27.81.81,0,0,1,.48-1.06A.82.82,0,0,1,187,168a10.15,10.15,0,0,0,12.32,5.78.82.82,0,1,1,.47,1.58,11.52,11.52,0,0,1-3.38.49"/></clipPath><clipPath id="clip-path-153"><path class="cls-1" d="M387.19,298.48a.84.84,0,0,1-.68-.36.82.82,0,0,1,.21-1.15c5.73-4,9.64-10.19,12.49-14.74l.28-.44c.7-1.16,1.4-2.53,2.15-4,2.27-4.4,4.85-9.38,8.93-11.72,2-1.2,8.61-3.77,14.56-5,5.14-1.13,15-2.21,19.45-.28a6.8,6.8,0,0,1,3.85,5.58,10.36,10.36,0,0,1-4.34,9.38.83.83,0,0,1-1.16-.15.82.82,0,0,1,.15-1.15,8.78,8.78,0,0,0,3.72-7.87,5.19,5.19,0,0,0-2.88-4.27c-3.89-1.69-13.13-.79-18.44.38-5.69,1.22-12.24,3.73-14.07,4.85-3.68,2.11-6.13,6.87-8.3,11.06-.76,1.47-1.48,2.86-2.22,4.09l-.28.45c-2.93,4.67-6.94,11.06-12.95,15.22a.84.84,0,0,1-.47.15"/></clipPath><clipPath id="clip-path-155"><path class="cls-1" d="M448.87,288.78a.83.83,0,0,1,0-1.65c1.52-.08,2.79-2.05,3.08-3.83.35-2.22-.16-5.26-2.73-6.5a11.06,11.06,0,0,0-5.41-.8h-1c-1.84,0-4,0-6.26.12-2.85.11-6.08.23-9.19.1a.81.81,0,0,1-.79-.85.82.82,0,0,1,.86-.8c3,.12,6.1,0,9.06-.1,2.3-.09,4.47-.16,6.35-.12h.91a12.53,12.53,0,0,1,6.15,1c3.38,1.62,4.07,5.45,3.64,8.24-.4,2.44-2.16,5.09-4.62,5.22h-.05"/></clipPath><clipPath id="clip-path-157"><path class="cls-1" d="M436.43,308a.83.83,0,0,1-.77-.52.82.82,0,0,1,.45-1.07,104.16,104.16,0,0,0,13.16-7c1.45-1,2.8-4.24,2.45-7a4,4,0,0,0-2.59-3.49c-2.43-1-13,1.06-16.57,2a.84.84,0,0,1-1-.59.82.82,0,0,1,.59-1c.14,0,14-3.41,17.6-1.95a5.7,5.7,0,0,1,3.62,4.82c.4,3.11-1,7-3.12,8.51-2.9,2.09-11.16,6.19-13.5,7.15a.85.85,0,0,1-.31.06"/></clipPath><clipPath id="clip-path-159"><path class="cls-1" d="M399.75,332.18a.83.83,0,0,1-.36-1.57c.92-.43,1.95-1,3-1.51,3.17-1.64,6.45-3.33,8.66-3.42,1.07-.07,2.2-.12,3.35-.17,4.34-.19,8.83-.39,12.73-1.66,3.06-1,5.8-3.22,8.45-5.34,1.19-1,2.43-1.95,3.67-2.81a52.9,52.9,0,0,0,8.36-6.62,6.32,6.32,0,0,0,.55-7.47.83.83,0,1,1,1.41-.87c1.58,2.55,1.84,6.75-.77,9.48a53.52,53.52,0,0,1-8.62,6.84c-1.18.82-2.34,1.75-3.57,2.73-2.76,2.22-5.62,4.52-9,5.63-4.11,1.34-8.71,1.55-13.16,1.74-1.14,0-2.27.1-3.35.17-1.86.08-5.11,1.76-8,3.24-1.08.56-2.13,1.09-3.06,1.53a.77.77,0,0,1-.35.08"/></clipPath><clipPath id="clip-path-161"><path class="cls-1" d="M401.51,333.39a1.07,1.07,0,0,1-.25,0c-4.7-1.45-17.46-13.45-14.78-37.35a.83.83,0,0,1,1.64.19c-2.57,22.87,9.26,34.23,13.63,35.58a.82.82,0,0,1-.24,1.61"/></clipPath><clipPath id="clip-path-163"><path class="cls-1" d="M386,349.13a6,6,0,0,1-1.09-.11c-10.2-1.8-22.66-24-20.82-37.06.84-6,4.18-7.09,7.41-8.18a15.19,15.19,0,0,0,3.74-1.64,32.08,32.08,0,0,0,4.42-3.76c2.44-2.38,4.05-3.95,9.24-2.63a.82.82,0,0,1,.6,1,.83.83,0,0,1-1,.6c-4.3-1.09-5.29-.13-7.68,2.21a33.46,33.46,0,0,1-4.65,3.94,16.67,16.67,0,0,1-4.14,1.85c-3,1-5.61,1.88-6.31,6.84-.83,6,1.32,14.16,5.77,21.92,4.21,7.34,9.59,12.56,13.72,13.29,2.48.46,4.19-1.39,6.37-3.74a26.21,26.21,0,0,1,4.71-4.29c4.6-3,5-4.84,4.8-8a.83.83,0,0,1,.77-.88.84.84,0,0,1,.88.77c.25,3.76-.52,6.14-5.54,9.45a24.3,24.3,0,0,0-4.41,4c-2.06,2.23-4,4.35-6.79,4.35"/></clipPath><clipPath id="clip-path-165"><path class="cls-1" d="M293.86,404.33a27.82,27.82,0,0,1-9.17-1.37c-16.24-5.68-19.24-35.63-20.93-65.83-.41-7.7-1.08-14.86-1.73-21.79-1.71-18.38-3.19-34.25,1.79-47.07a29,29,0,0,1,18.75-17.71c5.4-1.6,10.77-1.28,13.67.82,12.64,8.95,17,24.53,18.51,33,1.13,6.49.57,14.69.12,21.28l-.11,1.61a131.72,131.72,0,0,0,.21,19.26c.23,3.54.45,6.89.45,10.64a.83.83,0,1,1-1.65,0c0-3.69-.22-7-.45-10.53a133.38,133.38,0,0,1-.21-19.49l.11-1.6c.45-6.5,1-14.59-.1-20.89-1.44-8.24-5.68-23.34-17.84-32-2.51-1.81-7.31-2-12.24-.57a27.35,27.35,0,0,0-17.68,16.72c-4.84,12.46-3.38,28.15-1.68,46.31.65,6.95,1.32,14.14,1.73,21.86,1.65,29.64,4.55,59,19.83,64.36,12.06,4.21,32.74-2.47,47.9-10.95,6.69-3.79,14-9.56,20.48-14.65,3.22-2.54,6.26-4.93,8.85-6.78,2.2-1.56,4.25-3,6.16-4.28,8.57-5.87,14.23-9.75,16.22-16.44a.83.83,0,0,1,1.59.47c-2.17,7.25-8,11.26-16.88,17.33-1.9,1.31-3.94,2.71-6.13,4.26-2.56,1.83-5.58,4.21-8.78,6.73-6.52,5.13-13.9,11-20.7,14.8-12.15,6.8-27.83,12.44-40.09,12.44"/></clipPath><clipPath id="clip-path-167"><path class="cls-1" d="M293.78,352.23a.86.86,0,0,1-.54-.2.83.83,0,0,1-.09-1.17c4.68-5.42,13.35-8,19.69-9.91a47.63,47.63,0,0,0,5.27-1.76c7.66-3.39,16.64-10.16,23.2-15.1,1-.73,2.12-1.64,3.32-2.6,5.13-4.1,12.16-9.72,19.78-11.54a.83.83,0,0,1,1,.62.82.82,0,0,1-.61,1c-7.27,1.73-14.13,7.22-19.14,11.22-1.21,1-2.36,1.89-3.37,2.63-6.61,5-15.68,11.83-23.5,15.29a52.1,52.1,0,0,1-5.48,1.84c-6.14,1.83-14.55,4.34-18.91,9.4a.81.81,0,0,1-.62.29"/></clipPath><clipPath id="clip-path-169"><path class="cls-1" d="M358.66,173.89h-.05a.84.84,0,0,1-.78-.87c0-.15.74-14.5-7.15-16a.81.81,0,0,1-.65-1,.83.83,0,0,1,1-.66c9.31,1.77,8.53,17.06,8.49,17.71a.82.82,0,0,1-.82.78"/></clipPath><clipPath id="clip-path-171"><path class="cls-1" d="M339.87,231c-.51,0-1,0-1.53-.05-6.06-.23-22.2-7.38-29.27-17.88a.81.81,0,0,1,.22-1.14.82.82,0,0,1,1.15.22c6.78,10.07,22.19,16.93,28,17.15,5.07.3,9.28-.88,13.25-7.64,2.16-3.62,9.1-16.43,7.71-29.23a.82.82,0,0,1,1.64-.18c1.45,13.31-5.7,26.52-7.93,30.26-4.17,7.1-8.77,8.49-13.22,8.49"/></clipPath><clipPath id="clip-path-173"><path class="cls-1" d="M302.59,202.31c-4.53,0-12.18-4.95-13.48-11.8-.79-4.17-.09-7.66,1.92-9.55,1.08-1,3.07-2,6.37-1.2a.81.81,0,0,1,.59,1,.83.83,0,0,1-1,.6c-2.07-.53-3.69-.26-4.83.81-1.56,1.47-2.1,4.48-1.43,8,1.14,6,8,10.45,11.86,10.45a.83.83,0,1,1,0,1.65"/></clipPath><clipPath id="clip-path-175"><path class="cls-1" d="M296.86,225.22a.79.79,0,0,1-.3-.05.84.84,0,0,1-.47-1.07c2.81-7.24,3-12.44,3-19a.83.83,0,1,1,1.65,0c0,6.73-.22,12.07-3.14,19.58a.83.83,0,0,1-.77.52"/></clipPath><clipPath id="clip-path-177"><path class="cls-1" d="M299.4,192.4a.84.84,0,0,1-.62-.28,6.65,6.65,0,0,0-3.26-2.05.81.81,0,0,1-.68-.95.83.83,0,0,1,1-.68A8.22,8.22,0,0,1,300,191a.83.83,0,0,1-.07,1.17.8.8,0,0,1-.54.21"/></clipPath><clipPath id="clip-path-179"><path class="cls-1" d="M339.16,260.14h0a.82.82,0,0,1-.79-.86,37.05,37.05,0,0,0-1.64-13c-.64-2.21-1.14-4-.78-6l.38-1.84a44,44,0,0,1,2-7.95.82.82,0,0,1,1.1-.4.83.83,0,0,1,.4,1.1,44.35,44.35,0,0,0-1.88,7.58l-.37,1.82c-.29,1.66.14,3.16.74,5.25a39.11,39.11,0,0,1,1.7,13.56.83.83,0,0,1-.83.79"/></clipPath><clipPath id="clip-path-181"><path class="cls-1" d="M326,309h-.2a2.67,2.67,0,0,1-2.45-1.13c-.8-1.42-1.56-4.94-2.61-9.82-.93-4.34-2.1-9.74-3.63-15.15-5.32-18.68-12.65-28.69-22.39-30.58a.83.83,0,0,1,.32-1.63c10.41,2,18.15,12.42,23.66,31.76,1.55,5.46,2.72,10.89,3.66,15.26,1,4.55,1.75,8.15,2.43,9.34.07.13.39.28,1.06.3,3.67.06,11.32-3.38,12.07-4.52s-2-9.39-4.54-17.32c-1-3.2-2.16-6.68-3.27-10.3-4.25-13.71-9.5-24.5-21.27-32.61-3.71-2.61-16.66-5-23.38-3.61-4.63.91-7.8,5.21-11.47,10.2-1.39,1.89-2.83,3.85-4.47,5.82-6.1,7.3-6.21,11-6.53,22a.86.86,0,0,1-.85.81.83.83,0,0,1-.8-.85c.32-11.09.44-15.24,6.91-23,1.61-1.93,3-3.87,4.41-5.74,3.87-5.26,7.22-9.81,12.48-10.84,6.67-1.34,20.27.8,24.65,3.87,12.87,8.87,18.13,21.34,21.9,33.48,1.11,3.62,2.23,7.08,3.26,10.29,3.79,11.78,5.43,17.06,4.35,18.72C338.11,305.56,330,309,326,309"/></clipPath><clipPath id="clip-path-183"><path class="cls-1" d="M320.76,291a.82.82,0,0,1-.08-1.64c3.94-.43,10.63-2.69,12.74-4.06a.83.83,0,1,1,.9,1.39c-2.3,1.49-9.25,3.85-13.47,4.31h-.09"/></clipPath><clipPath id="clip-path-185"><path class="cls-1" d="M343.35,203a.83.83,0,0,1-.56-1.44c3.67-3.32,2.91-4.49,1.54-6.61-.19-.3-.39-.61-.59-.94-1.56-2.61-2.75-5.12-1.52-9.57a.82.82,0,0,1,1.59.44c-1,3.51-.34,5.47,1.35,8.28.18.31.37.6.56.89,1.75,2.7,2.56,4.77-1.82,8.74a.84.84,0,0,1-.55.21"/></clipPath><clipPath id="clip-path-187"><path class="cls-1" d="M351,207.54s-1.1,10.25-8,10.69c-7.6.55-9.37-8.59-9.37-8.59s5.18-.11,9-.55a58.38,58.38,0,0,0,8.37-1.55"/></clipPath><clipPath id="clip-path-189"><path class="cls-1" d="M342.24,219.08c-7.63,0-9.49-9.19-9.51-9.29a.85.85,0,0,1,.17-.67.84.84,0,0,1,.63-.31c.05,0,5.18-.11,9-.55a57.26,57.26,0,0,0,8.25-1.51.78.78,0,0,1,.75.17.8.8,0,0,1,.29.71c0,.45-1.26,10.94-8.81,11.42l-.72,0m-7.64-8.65c.66,2.2,2.83,7.37,8.25,7,4.83-.3,6.55-6.17,7.08-8.75a53.26,53.26,0,0,1-7.28,1.26c-2.8.32-6.33.47-8,.52"/></clipPath><clipPath id="clip-path-191"><path class="cls-1" d="M354,185.73c0-1.65-1-2.86-2.2-2.86s-2.2,1.32-2.2,2.86,1,2.87,2.2,2.87,2.2-1.21,2.2-2.87"/></clipPath><clipPath id="clip-path-193"><path class="cls-1" d="M329.91,188.71c0-1.66-1-2.87-2.21-2.87s-2.2,1.33-2.2,2.87,1,2.86,2.2,2.86,2.21-1.32,2.21-2.86"/></clipPath><clipPath id="clip-path-195"><path class="cls-1" d="M347.75,178.3a.82.82,0,0,1-.66-.34.83.83,0,0,1,.18-1.16,10.11,10.11,0,0,1,9-1.09.82.82,0,0,1,.48,1.06.83.83,0,0,1-1.07.48,8.5,8.5,0,0,0-7.48.89.82.82,0,0,1-.49.16"/></clipPath><clipPath id="clip-path-197"><path class="cls-1" d="M321.87,181.82a.82.82,0,0,1-.44-1.52c4.24-2.68,9.57-2.89,12.43-1.72a.83.83,0,0,1-.63,1.53c-2.12-.87-6.91-1-10.92,1.59a.88.88,0,0,1-.44.12"/></clipPath><clipPath id="clip-path-199"><path class="cls-1" d="M350.18,289.66a.82.82,0,0,1-.81-.63c-4.13-17.18-5.88-23-8.82-26.06-1.34-1.34-5.84-6-6.91-9.35-.25-.78-.45-1.68-.65-2.63-.51-2.38-1.1-5.07-2.71-6.33-1.13-.93-3.37-1.71-6.48-2.81a120.35,120.35,0,0,1-11.87-4.7c-6.45-3-18.33-11.87-17.4-15.66.2-.78.9-1.67,3.26-1.55a.82.82,0,0,1,.78.87.85.85,0,0,1-.87.78c-1.08-.06-1.52.14-1.56.29-.5,2,8.95,10.33,16.49,13.77a120.9,120.9,0,0,0,11.72,4.64c3.26,1.15,5.62,2,7,3.08,2.07,1.61,2.72,4.62,3.29,7.27.2.91.39,1.77.61,2.48.76,2.37,4,6.16,6.52,8.7,3.24,3.35,5,9,9.25,26.82a.83.83,0,0,1-.61,1,.65.65,0,0,1-.19,0"/></clipPath><clipPath id="clip-path-201"><path class="cls-1" d="M324.18,257.94a.84.84,0,0,1-.5-.17.83.83,0,0,1-.15-1.16,22.69,22.69,0,0,0,3-6.65c1.06-3.23,2-6.29,4.85-6.12a.83.83,0,0,1-.1,1.65c-1.43-.09-2.15,1.84-3.18,5a23.53,23.53,0,0,1-3.28,7.15.81.81,0,0,1-.65.32"/></clipPath><clipPath id="clip-path-203"><path class="cls-1" d="M287.72,236a.84.84,0,0,1-.37-.09.83.83,0,0,1-.37-1.11,26.36,26.36,0,0,1,2.67-4,24.89,24.89,0,0,0,2.51-3.73,12.16,12.16,0,0,0,.65-2.14c.5-2.08,1.18-4.92,4.27-4.92a.83.83,0,1,1,0,1.65c-1.61,0-2.07,1.17-2.67,3.66a12.81,12.81,0,0,1-.77,2.48,26.53,26.53,0,0,1-2.67,4,24.07,24.07,0,0,0-2.51,3.72.84.84,0,0,1-.74.46"/></clipPath><clipPath id="clip-path-205"><path class="cls-1" d="M364.67,296.15a2.07,2.07,0,0,1-2.06-1.43c-.05-.18-.14-.54-.27-1.07-5.64-22.86-11.85-36.09-16.07-43.16a.84.84,0,0,1,.29-1.14.83.83,0,0,1,1.13.29c6.13,10.29,11.75,25.37,16.25,43.62.13.5.21.83.25,1s.13.39.85.22,1.73-1,1.61-1.74c-.92-4.82-6.28-29.82-21.51-47.95a.83.83,0,1,1,1.26-1.07c15.5,18.45,20.94,43.82,21.88,48.72.28,1.77-1.27,3.26-2.85,3.64a3,3,0,0,1-.76.1"/></clipPath><clipPath id="clip-path-207"><path class="cls-1" d="M358.88,277.88a.83.83,0,0,1-.29-1.61,4.27,4.27,0,0,0,1.93-1.15,6,6,0,0,1,.87-.74.83.83,0,1,1,.92,1.38,3.66,3.66,0,0,0-.62.53,5.89,5.89,0,0,1-2.53,1.54.92.92,0,0,1-.28.05"/></clipPath><clipPath id="clip-path-209"><path class="cls-1" d="M368.46,305.52a.82.82,0,0,1-.82-.72,49.06,49.06,0,0,0-1.82-9.4.82.82,0,0,1,.48-1.06.83.83,0,0,1,1.06.48,47.21,47.21,0,0,1,1.92,9.78.83.83,0,0,1-.72.92h-.1"/></clipPath><clipPath id="clip-path-211"><path class="cls-1" d="M336.19,290.76a.83.83,0,1,1,0-1.65l4.11,0c12.46-.11,12.95-.11,18.61-6.93a.83.83,0,0,1,1.28,1.06c-6.16,7.4-7.2,7.41-19.87,7.52l-4.11,0Z"/></clipPath><clipPath id="clip-path-213"><path class="cls-1" d="M313.83,309.16l-.19,0a.83.83,0,0,1-.62-1c2.13-9.2,6.69-13.07,6.89-13.23a.82.82,0,0,1,1,1.27s-4.33,3.72-6.33,12.33a.83.83,0,0,1-.8.64"/></clipPath><clipPath id="clip-path-215"><path class="cls-1" d="M346.94,256c-.65,0-1.78-.33-5.6-8l0-.1a.82.82,0,1,1,1.47-.74l.05.1a37.87,37.87,0,0,0,3.86,6.64,26,26,0,0,0-1-5.37c-.4-1.56-.82-3.17-1.12-4.82-.49-3-4.31-6.43-6.49-8a.82.82,0,0,1-.21-1.15.81.81,0,0,1,1.15-.2c1.08.75,6.48,4.72,7.17,9,.3,1.57.7,3.16,1.09,4.7.82,3.18,1.46,5.69.84,7.11a1.17,1.17,0,0,1-1,.75h-.09"/></clipPath><clipPath id="clip-path-217"><path class="cls-1" d="M340.48,262.12a.83.83,0,0,1-.78-.56c-2.25-6.85,1.13-17,4.44-19.73a.83.83,0,0,1,1.06,1.27c-2.91,2.4-5.95,11.79-3.93,17.94a.83.83,0,0,1-.53,1,.75.75,0,0,1-.26,0"/></clipPath><clipPath id="clip-path-219"><path class="cls-1" d="M293.89,180.72a.86.86,0,0,1-.36-.08.83.83,0,0,1-.38-1.11c2.53-5.19,7.3-10.55,13.79-15.49,17.46-13.5,41.63-20.6,53.21-21.32,5.51-.37,9.05.65,10.57,3.06,1.82,2.9,0,6.67-.66,7.75a36.18,36.18,0,0,1-6.88,8.25.82.82,0,1,1-1.11-1.22,34.61,34.61,0,0,0,6.55-7.84c.51-.88,2-3.93.7-6.06-1.15-1.82-4.28-2.62-9.06-2.29-11.38.71-35.13,7.69-52.32,21-6.28,4.79-10.88,10-13.31,14.91a.83.83,0,0,1-.74.46"/></clipPath><clipPath id="clip-path-221"><path class="cls-1" d="M291.68,181.82a.73.73,0,0,1-.25,0,.83.83,0,0,1-.53-1c2.65-8.22,8.9-15.86,18.57-22.71A100.67,100.67,0,0,1,336,145c12-3.86,19-3.21,23.67-2.22a.82.82,0,1,1-.34,1.61c-4.51-.95-11.18-1.56-22.82,2.18-16.91,5.42-38.6,17.75-44.08,34.72a.83.83,0,0,1-.79.57"/></clipPath><clipPath id="clip-path-223"><path class="cls-1" d="M353.26,143.6a.81.81,0,0,1-.74-.47c-3-6.17-12.28-15.5-22-16.94a.83.83,0,1,1,.24-1.64c9.39,1.41,19.58,10.37,23.2,17.86a.83.83,0,0,1-.38,1.11.94.94,0,0,1-.36.08"/></clipPath><clipPath id="clip-path-225"><path class="cls-1" d="M290.25,183.48a.84.84,0,0,1-.63-.3,34.45,34.45,0,0,1-7.69-25.92,40.12,40.12,0,0,1,15.19-27.14.82.82,0,0,1,1.16.14.83.83,0,0,1-.14,1.16,38.4,38.4,0,0,0-14.56,26,32.75,32.75,0,0,0,7.31,24.69.82.82,0,0,1-.11,1.16.81.81,0,0,1-.53.2"/></clipPath><clipPath id="clip-path-227"><path class="cls-1" d="M323,151.31a.8.8,0,0,1-.77-.54c-3-8-13.84-21.18-24.86-19.19A.83.83,0,0,1,297,130c6.84-1.23,12.89,2.68,16.77,6.18a39.14,39.14,0,0,1,9.93,14.07.83.83,0,0,1-.48,1.06,1,1,0,0,1-.29.05"/></clipPath><clipPath id="clip-path-229"><path class="cls-1" d="M346.87,143.38a.82.82,0,0,1-.69-.38c-6.65-10.42-12.33-15.85-19-18.17-2.61-.91-12-3.43-23.25,2.27l-.76.43c-2.13,1.19-5.05,2.84-5.82,4.38a.83.83,0,0,1-1.48-.74c1-2,4-3.71,6.49-5.08l.78-.45c11.88-6,21.82-3.33,24.58-2.37,7,2.45,12.95,8.08,19.82,18.84a.82.82,0,0,1-.7,1.27"/></clipPath><clipPath id="clip-path-231"><path class="cls-1" d="M361.19,168.93a.81.81,0,0,1-.75-1.17,14.74,14.74,0,0,0-.33-12.76c-1.58-3.09-5-7.08-12.29-8.44a.82.82,0,0,1,.3-1.62c6.21,1.15,11,4.46,13.47,9.31a16.48,16.48,0,0,1,.35,14.21.82.82,0,0,1-.75.47"/></clipPath><clipPath id="clip-path-233"><path class="cls-1" d="M420.23,263.34a.83.83,0,0,1-.82-.77c0-.28-2-27.95-3.52-37.83-.35-2.28-3.65-6.72-6.57-10.63-2.31-3.11-4.3-5.8-4.95-7.48-1.26-3.48-.3-16.22,1.44-19.22a1.8,1.8,0,0,1,1.18-.95c1.59-.26,2.06,1.79,2.64,4.4.62,2.77,1.47,6.56,3.61,7.31,4.59,1.67,13.12-.82,14.73-4.3,1.4-3.1-.34-6.76-1.74-9.71-1.21-2.53-2.25-4.72-.62-5.83a2,2,0,0,1,1.88,0c4,1.67,14.36,13,15.37,18.47.63,3.22-1.75,7.46-4.28,11.94-2.21,4-4.51,8-4.86,11.53-.75,6.9,2,39.07,2,39.4a.83.83,0,0,1-1.65.14c-.11-1.33-2.75-32.66-2-39.71.38-3.85,2.76-8.08,5.06-12.17s4.61-8.19,4.09-10.82c-1-5.64-12.71-17.24-14.75-17.38-.32.42.58,2.31,1.24,3.7,1.47,3.08,3.48,7.3,1.75,11.11-2.15,4.66-11.69,7-16.79,5.17-3-1-3.92-5.18-4.66-8.51a18.07,18.07,0,0,0-.82-2.95c-1.28,2.1-2.49,14.46-1.28,17.78.56,1.46,2.58,4.19,4.73,7.07,3.18,4.27,6.46,8.69,6.88,11.37,1.52,9.94,3.51,37.68,3.53,38a.82.82,0,0,1-.77.88h-.06"/></clipPath><clipPath id="clip-path-235"><path class="cls-1" d="M424.2,262.12a.81.81,0,0,1-.82-.76l-2.87-36.46a4.37,4.37,0,0,1,4-4.63,4.47,4.47,0,0,1,3.11,1,4.12,4.12,0,0,1,1.51,2.93L432,259.8a.83.83,0,0,1-.75.89.85.85,0,0,1-.9-.76l-2.86-35.58a2.5,2.5,0,0,0-.92-1.77,2.82,2.82,0,0,0-1.95-.66,2.72,2.72,0,0,0-2.42,2.87L425,261.23a.82.82,0,0,1-.76.89h-.06"/></clipPath><clipPath id="clip-path-237"><path class="cls-1" d="M415.93,206.62a15.27,15.27,0,0,1-4.18-.49c-7.46-2.09-7.44-9.82-7.43-12.37v-.21a.83.83,0,0,1,1.65,0v.22c0,4.2.69,9.22,6.23,10.78,3.66,1,11,.27,16.55-2.8,2.11-1.18,4.82-3.21,5.67-6.22,1.22-4.39-1.78-10.45-3.58-12.57a.82.82,0,0,1,.09-1.16.84.84,0,0,1,1.17.09c2.06,2.42,5.32,9,3.91,14.09-.8,2.81-3,5.31-6.46,7.22a29.54,29.54,0,0,1-13.62,3.42"/></clipPath><clipPath id="clip-path-239"><path class="cls-1" d="M430.91,361.68a2.8,2.8,0,0,1-1-.23c-3.9-1.62-14.3-13-15.41-18.59-.62-3.35,1.86-7.68,4.48-12.26.94-1.65,1.92-3.35,2.75-5a.82.82,0,1,1,1.47.74c-.85,1.7-1.83,3.43-2.79,5.09-2.47,4.31-4.8,8.39-4.29,11.13,1.18,5.88,12.7,17.34,14.75,17.48.32-.42-.58-2.31-1.24-3.7-1.47-3.08-3.47-7.3-1.75-11.11,2.12-4.62,11.67-6.92,16.79-5.06,3,1,3.84,5.13,4.54,8.4a15.6,15.6,0,0,0,.84,3.11c1.33-1.85,2.62-14.32,1.38-17.72-.54-1.4-2.51-4.09-4.6-6.93-2.79-3.81-5.68-7.74-6.64-10.48a.83.83,0,1,1,1.56-.55c.88,2.51,3.82,6.51,6.41,10.05,2.25,3.06,4.19,5.7,4.82,7.33,1.29,3.56.27,16.26-1.53,19.15a1.72,1.72,0,0,1-1.25.92c-1.64.17-2.06-1.91-2.61-4.54-.61-2.87-1.36-6.44-3.48-7.18-4.71-1.72-13.11.67-14.72,4.19-1.41,3.1.33,6.77,1.73,9.71,1.21,2.53,2.25,4.72.62,5.83a1.44,1.44,0,0,1-.8.23"/></clipPath><clipPath id="clip-path-241"><path class="cls-1" d="M425.63,358.29A.85.85,0,0,1,425,358c-2.06-2.43-5.32-9-3.91-14.09,2.55-8.59,17.71-12,24.38-10,7.48,2.07,7.44,9.48,7.42,12.27v.31a.83.83,0,0,1-1.65,0v-.32c0-2.67.05-8.94-6.22-10.67-6-1.71-20.09,1.34-22.34,8.91-1.22,4.38,1.78,10.44,3.58,12.56a.82.82,0,0,1-.09,1.16.86.86,0,0,1-.54.2"/></clipPath><clipPath id="clip-path-243"><path class="cls-1" d="M345.88,156.71a.83.83,0,0,1-.79-.58c-.44-1.4-2.22-3.71-4.58-3a.84.84,0,0,1-1-.55.82.82,0,0,1,.55-1c3.2-1,5.92,1.73,6.65,4.07a.83.83,0,0,1-.54,1,.77.77,0,0,1-.25,0"/></clipPath><clipPath id="clip-path-245"><path class="cls-1" d="M313.27,175.74a9.81,9.81,0,0,1-2.52-.33.83.83,0,0,1,.42-1.6c5.65,1.49,9.85-3.28,14.31-8.32s9-10.14,15-8.31a.83.83,0,0,1-.48,1.59c-5-1.54-9,3-13.3,7.81-4,4.51-8.1,9.16-13.45,9.16"/></clipPath><clipPath id="clip-path-247"><path class="cls-1" d="M305.33,185a5.93,5.93,0,0,1-3.69-1.3.83.83,0,1,1,1-1.3,4.27,4.27,0,0,0,3.66.83,8.58,8.58,0,0,0,5.34-4.64.83.83,0,0,1,1.47.77,10.26,10.26,0,0,1-6.45,5.49,6.34,6.34,0,0,1-1.35.15"/></clipPath><clipPath id="clip-path-249"><path class="cls-1" d="M124.91,215.64a.47.47,0,0,1-.16,0,.82.82,0,0,1-.65-1,25.37,25.37,0,0,1,1-3.64.83.83,0,0,1,1.06-.5.82.82,0,0,1,.49,1.06,25.18,25.18,0,0,0-1,3.41.82.82,0,0,1-.81.66"/></clipPath><clipPath id="clip-path-251"><path class="cls-1" d="M127.45,208.37a.78.78,0,0,1-.33-.07.82.82,0,0,1-.43-1.08c5.1-11.86,16.77-28.72,29.23-38a.83.83,0,0,1,1.16.17.82.82,0,0,1-.17,1.15c-12.22,9.12-23.69,25.68-28.7,37.34a.84.84,0,0,1-.76.5"/></clipPath><clipPath id="clip-path-253"><path class="cls-1" d="M96.92,218.56a14.2,14.2,0,0,1-4.09-.54.82.82,0,1,1,.5-1.57,13,13,0,0,0,5.22.33c.24-.07.31-.23.41-1.56a19,19,0,0,1,1.85-7.15.83.83,0,0,1,1.5.71,17.37,17.37,0,0,0-1.7,6.57c-.11,1.39-.21,2.58-1.56,3a8.42,8.42,0,0,1-2.13.2"/></clipPath><clipPath id="clip-path-255"><path class="cls-1" d="M82.17,215.53l-.17,0c-3.73-.82-7-2.83-8.51-5.25a5.22,5.22,0,0,1-.82-4,.82.82,0,0,1,1-.61.83.83,0,0,1,.62,1,3.72,3.72,0,0,0,.6,2.75c1.3,2.06,4.16,3.79,7.47,4.52a.82.82,0,0,1-.18,1.63"/></clipPath><clipPath id="clip-path-257"><path class="cls-1" d="M73.36,207.93a.82.82,0,0,1-.78-1.09c1.2-3.6,5.18-4,8.52-3.87a.84.84,0,0,1,.8.85.79.79,0,0,1-.85.8c-4.11-.1-6.24.74-6.9,2.74a.83.83,0,0,1-.79.57"/></clipPath><clipPath id="clip-path-259"><path class="cls-1" d="M121.94,217a.84.84,0,0,1-.52-.18c-2-1.65-9.06-5.05-18.3-7.45-.18,0-.62-.17-1.6-.49-1.55-.51-4.15-1.36-7.11-2.15a.84.84,0,0,1-.59-1,.85.85,0,0,1,1-.59c3,.81,5.63,1.67,7.2,2.18.67.22,1.31.43,1.45.46,9,2.32,16.46,5.73,19,7.76a.84.84,0,0,1,.12,1.17.81.81,0,0,1-.64.3"/></clipPath><clipPath id="clip-path-261"><path class="cls-1" d="M73.47,207.16l-.2,0a.83.83,0,0,1-.6-1A67.63,67.63,0,0,1,75.34,198a.83.83,0,1,1,1.55.59,65,65,0,0,0-2.62,7.94.82.82,0,0,1-.8.63"/></clipPath><clipPath id="clip-path-263"><path class="cls-1" d="M83.61,184.91a.81.81,0,0,1-.45-.13.84.84,0,0,1-.25-1.14c15.53-24.21,43.05-38.19,62.22-39.49a.83.83,0,0,1,.11,1.65c-18.75,1.27-45.7,15-60.94,38.73a.83.83,0,0,1-.69.38"/></clipPath><clipPath id="clip-path-265"><path class="cls-1" d="M130.31,294.51a.82.82,0,0,1-.82-.81,357,357,0,0,0-2.42-37.8.83.83,0,0,1,.71-.93.82.82,0,0,1,.93.71,355.21,355.21,0,0,1,2.43,38,.83.83,0,0,1-.81.84Z"/></clipPath><clipPath id="clip-path-267"><path class="cls-1" d="M93.41,250.89a.83.83,0,0,1-.71-1.25,40.22,40.22,0,0,1,13.16-12.73.83.83,0,1,1,.87,1.41,38.41,38.41,0,0,0-12.61,12.17.84.84,0,0,1-.71.4"/></clipPath><clipPath id="clip-path-269"><path class="cls-1" d="M136.89,386.08a4.7,4.7,0,0,1-1.84-.32c-1.57-.68-2.28-2.54-3.27-5.1a40.47,40.47,0,0,0-10.85-16.54,83.49,83.49,0,0,0-13.74-10.49c-3.35-2.11-5.2-3.27-4.9-5.32l0-.16c.58-3.37,1.55-9,9-19.8a.82.82,0,1,1,1.35.94c-7.27,10.49-8.2,15.9-8.76,19.14l0,.14c-.13.92,1.25,1.84,4.15,3.66a84.7,84.7,0,0,1,14,10.69,42,42,0,0,1,11.25,17.15c.84,2.19,1.45,3.77,2.39,4.17,2.67,1.16,12.47-2.45,18.54-14.38a.84.84,0,0,1,1.11-.36.82.82,0,0,1,.36,1.11c-5.61,11-14.26,15.47-18.83,15.47"/></clipPath><clipPath id="clip-path-271"><path class="cls-1" d="M134.39,385.05a.82.82,0,0,1-.83-.79c-.24-6.08,7.88-16.19,13.26-19.78a.83.83,0,0,1,.91,1.38c-5,3.32-12.72,13.06-12.52,18.34a.81.81,0,0,1-.79.85h0"/></clipPath><clipPath id="clip-path-273"><path class="cls-1" d="M100.77,337.4a1.51,1.51,0,0,1-.9-.31c-1.06-.7-1.66-7.93-1.78-11.32a.83.83,0,0,1,.8-.86.83.83,0,0,1,.85.8,47.08,47.08,0,0,0,1.18,10c.61-.25,2.15-2.1,3.3-3.47a47.33,47.33,0,0,1,5.06-5.46.82.82,0,0,1,1.16.07.83.83,0,0,1-.07,1.17,46.89,46.89,0,0,0-4.88,5.27C103.5,335.67,102.05,337.4,100.77,337.4Z"/></clipPath><clipPath id="clip-path-275"><path class="cls-1" d="M319.74,418.49a7.14,7.14,0,0,1-3.56-.94,7.61,7.61,0,0,1-3.36-6.52,3.81,3.81,0,0,1,2.47-3.45,3.05,3.05,0,0,1,2.76,0,3.7,3.7,0,0,1,1.48,2.76c1.39-1.26,4.09-4.1,6.17-6.29,2.61-2.73,5.06-5.3,6.11-6.15a10.17,10.17,0,0,0-2.76-3.68.84.84,0,0,1-.11-1.17.83.83,0,0,1,1.17-.1,13,13,0,0,1,4.24,7.39,14.08,14.08,0,0,1-1.65,8.89c-2.4,3.63-7.64,9.25-13,9.25m-2.95-9.58a2.52,2.52,0,0,0-.9.21,2.14,2.14,0,0,0-1.42,2,6.06,6.06,0,0,0,2.52,5c4.92,2.77,11.26-3.13,14.32-7.77a12.55,12.55,0,0,0,1.43-7.63c-.09-.39-.19-.78-.31-1.15-1.16,1.06-3.38,3.38-5.53,5.64-5.84,6.13-7.08,7.31-7.8,7.39h0c-.92,0-1-.85-1.12-1.47s-.23-1.8-.76-2.11a.84.84,0,0,0-.42-.1"/></clipPath><clipPath id="clip-path-277"><path class="cls-1" d="M314.82,409.51a.84.84,0,0,1-.45-.13.82.82,0,0,1-.25-1.14c2.28-3.6,12.88-11.37,16.16-13.17a.83.83,0,0,1,.8,1.45c-3.56,2-13.64,9.56-15.56,12.6a.84.84,0,0,1-.7.39"/></clipPath><clipPath id="clip-path-279"><path class="cls-1" d="M326.83,415.35a.86.86,0,0,1-.67-.33.83.83,0,0,1,.17-1.16c7-5.29,16.32-13.57,25.31-21.58,4.65-4.15,9-8.06,13-11.43,14.32-12.26,23.87-19.07,30.19-23.58,3.77-2.68,6.24-4.44,7.61-5.88-4.42.93-20.32,7.73-30.17,12.75a.82.82,0,0,1-1.11-.35.84.84,0,0,1,.36-1.12c5.06-2.58,12.76-6.11,19.15-8.77,12.63-5.25,13.31-4.41,13.81-3.81.22.27.48.85-.21,1.72-1.35,1.73-4,3.64-8.48,6.81-6.29,4.49-15.81,11.27-30.08,23.48-3.92,3.37-8.3,7.27-12.95,11.41-9,8-18.34,16.34-25.42,21.67a.83.83,0,0,1-.49.17"/></clipPath><clipPath id="clip-path-281"><path class="cls-1" d="M404.21,350.91a1,1,0,0,1-.52-.14c-1.19-.9-3.43-11.42-3.87-13.52a.83.83,0,0,1,.64-1,.84.84,0,0,1,1,.64c1.06,5.1,1.94,8.5,2.54,10.48.49-4.33,1-13.75,1.22-18.83a.81.81,0,0,1,.87-.78.82.82,0,0,1,.78.86c-1.09,21.61-1.48,21.8-2.24,22.19a1.06,1.06,0,0,1-.4.08"/></clipPath><clipPath id="clip-path-283"><path class="cls-1" d="M408.78,268.51h0a.83.83,0,0,1-.78-.87c.63-10.2,1.15-17.84,1.63-24a26.81,26.81,0,0,0-4.16-.68c-3.61-.44-5.42-.66-5.29-2,.11-1,1.47-1.54,5.66-2.93a28.92,28.92,0,0,0,4.51-1.72l.19-1.44c0-.08,1.12-10.44,2.33-16.14a.82.82,0,1,1,1.61.34c-1.19,5.62-2.29,15.9-2.3,16l-.22,1.67c-.2,1-1.53,1.51-5.6,2.86-1.14.38-2.67.89-3.67,1.3.87.16,2.07.31,3,.41,3.72.45,5.76.7,5.63,2.12-.48,6.21-1,13.94-1.65,24.32a.81.81,0,0,1-.82.77"/></clipPath><clipPath id="clip-path-285"><path class="cls-1" d="M393.47,292.53a.82.82,0,0,1-.82-.74c-1.42-12.73-2.25-24.06-2.54-34.66-1.58-48.11,3.32-89,7.38-96,2.93-5.08,15.3-8.7,23.23-6.79,4.09,1,6.44,3.37,6.62,6.72.12,3.13-1.22,7.9-3.25,15.12-1.69,6-3.8,13.56-5.91,23.1a.83.83,0,1,1-1.62-.36c2.12-9.58,4.24-17.13,5.94-23.18,2-7.08,3.3-11.75,3.19-14.61-.14-2.61-1.94-4.36-5.36-5.18-7.22-1.74-18.82,1.52-21.41,6-3.87,6.7-8.7,48.07-7.16,95.18.29,10.54,1.12,21.83,2.53,34.52a.83.83,0,0,1-.73.91h-.09"/></clipPath><clipPath id="clip-path-287"><path class="cls-1" d="M397.35,160.07c-2.76,0-5.89-3.25-9.46-6.95-1.72-1.78-3.49-3.62-5.32-5.21a46.3,46.3,0,0,0-6.66-4.78,89.3,89.3,0,0,1-9.5-6.65c-3.09-2.43-6.2-4.91-9.24-7.36-9.11-7.3-17.72-14.2-24.27-18.13-3.08-1.83-7.77-4-12.74-6.4C305.27,97.56,296.34,93,298,89.14c2.32-5.48,21.33-13.07,28-13.61,7.17-.58,13.44,3.12,15.8,4.52,4.56,2.79,8.91,6.71,13.52,10.86,2.86,2.57,5.81,5.24,8.82,7.59a34.38,34.38,0,0,0,9.33,5,14.75,14.75,0,0,0,2.75.53c2.09.28,4.45.59,5.89,2.37,2.14,2.66,2.91,6.8,2.27,12.3a32.72,32.72,0,0,1-1,4.51c-.22.81-.51,1.87-.6,2.44a4,4,0,0,0,1.16-.35l.21-.09a11.36,11.36,0,0,0,4.76-4.7,18,18,0,0,0,1.52-6.53c0-.44.09-.88.14-1.32a7.23,7.23,0,0,0,0-.83,3.65,3.65,0,0,1,.66-2.74c1-1,3.06-.81,4.27-.68,4.06.54,8.46,1.45,10.81,4.14,2.08,2.47,3.83,9.22,2.52,20.79-1,7.18-6.36,25.53-10.76,26.6h0A4,4,0,0,1,397.35,160.07ZM327.51,77.12c-.46,0-.93,0-1.39.06-6.74.54-24.71,8.07-26.62,12.6-1.14,2.69,12.4,9.09,21.36,13.32,5,2.36,9.73,4.6,12.89,6.47,6.65,4,15.3,10.92,24.45,18.26,3,2.44,6.14,4.93,9.23,7.35a89.66,89.66,0,0,0,9.35,6.55,47.21,47.21,0,0,1,6.87,4.93c1.89,1.64,3.69,3.51,5.43,5.31,3.23,3.35,6.57,6.82,8.61,6.41,2.75-.7,8.25-16.2,9.5-25.19,1.34-11.82-.71-17.83-2.13-19.51-2.25-2.58-7.29-3.25-9.72-3.57-.69-.08-2.46-.28-2.94.2-.21.21-.19,1-.18,1.54a7.43,7.43,0,0,1,0,1.07c-.05.42-.09.85-.14,1.28a19.49,19.49,0,0,1-1.71,7.15,13,13,0,0,1-5.59,5.44l-.19.08a3.4,3.4,0,0,1-3,.21c-.85-.51-.55-1.61.17-4.26a32.3,32.3,0,0,0,1-4.26c.58-5-.06-8.77-1.91-11.07-1-1.27-2.87-1.51-4.82-1.77a15.75,15.75,0,0,1-3.07-.61,35.73,35.73,0,0,1-9.82-5.3c-3.05-2.4-6-5.08-8.91-7.67-4.55-4.1-8.84-8-13.27-10.68C338.86,80.24,333.58,77.12,327.51,77.12Z"/></clipPath><clipPath id="clip-path-289"><path class="cls-1" d="M164.46,138.09h-.09a.83.83,0,0,1-.73-.92l.08-.77a42.09,42.09,0,0,0,.36-9.6c-1-8.25-4.24-18.25-10.18-21.59-2.63-1.47-5.6-1.48-8.82,0a.82.82,0,0,1-1.09-.41.83.83,0,0,1,.41-1.09c3.72-1.69,7.19-1.66,10.3.08,5.51,3.09,9.63,11.62,11,22.82a44.37,44.37,0,0,1-.35,10l-.09.78a.82.82,0,0,1-.82.73"/></clipPath><clipPath id="clip-path-291"><rect class="cls-2" x="130.73" y="63.29" width="169.03" height="70.52"/></clipPath><clipPath id="clip-path-293"><rect class="cls-2" x="129.15" y="62.1" width="171.95" height="72.34"/></clipPath><clipPath id="clip-path-294"><path class="cls-1" d="M143.77,133.81l-.25,0c-3-.38-8.07-3.64-10.84-7.91-1.82-2.79-2.38-5.6-1.62-8.13,2.87-9.64,12.93-14.2,23.59-19,15.56-7,115.94-35,130.29-35.43,5.86-.22,10.71,4,13.25,11.46,2.33,6.52,1.7,12.81.51,15.18-1.45,2.91-25,13-59.86,27.15l-6.76,2.76c-5.77,2.4-11.7,4.86-17.53,7.17a.83.83,0,0,1-.61-1.54c5.82-2.3,11.74-4.76,17.47-7.14l6.8-2.78c14.17-5.76,57.27-23.3,59-26.36.88-1.77,1.62-7.67-.6-13.89C295.28,71.32,292,64.7,285,65c-13.89.43-115.07,28.68-129.67,35.29-10.3,4.66-20,9.06-22.68,18-.78,2.59.33,5.11,1.41,6.76,2.49,3.82,7.1,6.85,9.68,7.17.32-.08,1.06-1.29,1.66-2.27a36.8,36.8,0,0,1,15.82-14.83.83.83,0,1,1,.75,1.47,34.91,34.91,0,0,0-15.16,14.22c-1.11,1.82-1.87,3.07-3,3.07"/></clipPath><clipPath id="clip-path-295"><rect class="cls-2" x="130.34" y="63.29" width="169.58" height="71.15"/></clipPath><clipPath id="clip-path-296"><rect class="cls-2" x="204.17" y="389.13" width="110.93" height="58.42"/></clipPath><clipPath id="clip-path-298"><rect class="cls-2" x="203.86" y="388.21" width="113.84" height="60.48"/></clipPath><clipPath id="clip-path-299"><path class="cls-1" d="M280.58,447.55a6.71,6.71,0,0,1-.67,0c-3.61-.46-6.8-3.63-9.45-6.67l-.27-.37c-.69-.92-1.72-2.32-1.46-3.64.12-1,1.18-1.68,2-2.15a5.48,5.48,0,0,0,.64-.42l.72-.57c2-1.55,3.81-3,4.91-5.12a11.32,11.32,0,0,0,1.25-6.51l0-.22a4.8,4.8,0,0,0-.29-1.28c-.44.4-1.21,1.26-1.8,1.92a33.52,33.52,0,0,1-3.14,3.24c-2.87,2.45-7.23,5.26-11.52,4.82-2.23-.17-3.83-2-5.24-3.61a16.3,16.3,0,0,0-1.91-2,34.73,34.73,0,0,0-9.44-4.93c-3.78-1.29-7.78-2.34-11.65-3.35-5.85-1.53-11.37-3-16.09-5.17-5.91-2.82-10.11-6.42-12.49-10.7a1.83,1.83,0,0,0-.13-.22,2.29,2.29,0,0,1-.21-.36.82.82,0,1,1,1.47-.74,1.57,1.57,0,0,0,.12.19,3.82,3.82,0,0,1,.21.36c2.19,3.94,6.15,7.31,11.74,10,4.57,2.12,10,3.55,15.8,5.06,3.9,1,7.93,2.08,11.76,3.38a36.48,36.48,0,0,1,9.92,5.2,16.28,16.28,0,0,1,2.14,2.17c1.26,1.45,2.57,2.94,4.15,3.06,4,.41,8.15-2.61,10.3-4.43a35.49,35.49,0,0,0,3-3.09c1.88-2.1,2.67-3,3.55-2.53,1.1.51,1.29,1.86,1.41,2.77l0,.16c.5,2.49-.44,5.62-1.39,7.54-1.28,2.44-3.36,4.08-5.37,5.67l-.7.55a6.63,6.63,0,0,1-.83.56c-.42.25-1.14.68-1.18,1-.13.68.71,1.8,1.15,2.4l.25.34c2.39,2.74,5.3,5.66,8.35,6.05,2.18.27,8.25-1.34,17.43-9.07,6.68-5.6,16.94-19,15.86-21.63-.75-2-5.24-2.79-10-3.65-2.5-.45-5.08-.92-7.53-1.6a44.7,44.7,0,0,1-7.94-3,85.28,85.28,0,0,0-10.6-4.17c-3.26-1.07-6.56-2.12-9.81-3.16-9.63-3.08-18.71-6-25.72-8.87a.83.83,0,1,1,.63-1.53c6.94,2.86,16,5.76,25.59,8.82,3.26,1,6.56,2.1,9.82,3.17a87.6,87.6,0,0,1,10.78,4.24,42.8,42.8,0,0,0,7.69,2.91c2.38.66,4.92,1.12,7.39,1.57,5.45,1,10.17,1.83,11.23,4.66,1.75,4.18-10.55,18.66-16.32,23.5-8.38,7.05-14.76,9.48-18,9.49"/></clipPath><clipPath id="clip-path-300"><rect class="cls-2" x="203.86" y="388.21" width="111.47" height="60.48"/></clipPath><clipPath id="clip-path-301"><path class="cls-1" d="M223.51,381a35.6,35.6,0,0,1-11-2.09c-3.73-1.28-8.86-3.93-14.8-7-5.29-2.72-11.27-5.81-17.1-8.33-.86-.38-1.75-.76-2.65-1.14-12.13-5.19-27.22-11.64-36.26-25.05a.82.82,0,0,1,.23-1.14.81.81,0,0,1,1.14.22c8.77,13,23.61,19.35,35.53,24.45l2.67,1.14c5.88,2.54,11.89,5.65,17.19,8.38,5.88,3,11,5.66,14.58,6.91,7.9,2.67,14.16,2.64,17.62-.09.59-.46.57-1.68.37-2.59a23.85,23.85,0,0,1-.57-7,14.85,14.85,0,0,1,1.72-4.81c.93-1.86,1.81-3.62,1.58-5.7a48.87,48.87,0,0,0-1.82-8.34c-.36-1.25-.71-2.51-1-3.78a74.19,74.19,0,0,1-2.56-21.17c.24-5.76,1.43-12.63,2.69-19.91,1-6.1,2.14-12.4,2.6-17.9,1.29-15.4-1.47-27.47-8.19-35.87a.83.83,0,0,1,1.29-1c7,8.74,9.87,21.2,8.55,37-.46,5.57-1.56,11.91-2.62,18-1.25,7.22-2.43,14.05-2.67,19.71a73,73,0,0,0,2.51,20.69c.31,1.26.66,2.5,1,3.73a50.84,50.84,0,0,1,1.88,8.62c.27,2.55-.75,4.61-1.75,6.61a13.45,13.45,0,0,0-1.56,4.25,22.51,22.51,0,0,0,.54,6.46c.2.88.5,3.09-1,4.23a13,13,0,0,1-8.21,2.44"/></clipPath><clipPath id="clip-path-303"><path class="cls-1" d="M291.24,382.14A13,13,0,0,1,283,379.7c-1.46-1.14-1.15-3.34-.95-4.24a22,22,0,0,0,.53-6.46,13,13,0,0,0-1.56-4.24c-1-2-2-4.06-1.74-6.62a51.15,51.15,0,0,1,1.88-8.61c.35-1.23.7-2.46,1-3.72a72.76,72.76,0,0,0,2.51-20.69c-.23-5.67-1.41-12.49-2.66-19.71-1.06-6.13-2.16-12.47-2.62-18.05-1.32-15.84,1.55-28.3,8.55-37a.83.83,0,0,1,1.16-.13.83.83,0,0,1,.13,1.16c-6.72,8.4-9.48,20.47-8.2,35.88.46,5.5,1.55,11.8,2.61,17.89,1.26,7.28,2.44,14.16,2.68,19.92a74.23,74.23,0,0,1-2.56,21.17c-.3,1.27-.66,2.52-1,3.77a48.9,48.9,0,0,0-1.83,8.34c-.22,2.08.65,3.84,1.58,5.7a14.43,14.43,0,0,1,1.72,4.8,23.57,23.57,0,0,1-.56,7c-.2.91-.23,2.13.36,2.59,3.46,2.73,9.72,2.76,17.63.09,3.61-1.24,8.69-3.87,14.57-6.9,5.31-2.74,11.32-5.85,17.2-8.39l2.66-1.14c11.92-5.1,26.76-11.45,35.53-24.45a.83.83,0,1,1,1.37.93c-9,13.4-24.13,19.85-36.25,25-.91.38-1.79.76-2.66,1.14-5.82,2.52-11.81,5.61-17.09,8.33-5.94,3.07-11.07,5.72-14.8,7a35.6,35.6,0,0,1-11,2.09"/></clipPath><clipPath id="clip-path-305"><path class="cls-1" d="M93.52,257a.84.84,0,0,1-.83-.8c0-1.55-1.2-38.06-.21-47.7.42-3.91,1.75-6.67,4-8.2s5.3-1.85,9.18-.89c5.43,1.33,11,4.86,15.55,7.69,2.6,1.64,6.13,3.86,7.05,3.69-.75-2.91-16.47-19.19-30.31-23.56-6.74-2.1-13.47-2.17-20.34-2.05A13.2,13.2,0,0,0,70.62,187c-2.17,1.34-6.19,1.22-8.6,1.15l-1.1,0a3.57,3.57,0,0,1-2.75-1.59c-.18-.22-.4-.5-.52-.52-2.28-.51-5.88-.55-6.19.43-.58,1.83-.31,10.59,0,12.14a1,1,0,0,0,.33.2c1.5.65,5,.23,5.59-.07a2.28,2.28,0,0,0,.54-.64,3.68,3.68,0,0,1,1.81-1.64c3.46-1.31,11-.67,14.32,0,6.31,1.4,8.34,4.41,9,13.41,1,13.66.34,45.91.33,46.24a.83.83,0,0,1-.82.81h0a.83.83,0,0,1-.81-.85c0-.32.65-32.5-.33-46.07-.64-8.25-2.23-10.7-7.73-11.92-3.64-.71-10.52-1.13-13.4,0a2.23,2.23,0,0,0-1,1,3.34,3.34,0,0,1-1.07,1.15,11.69,11.69,0,0,1-7,.21,2.08,2.08,0,0,1-1.37-1.39c-.35-1.63-.7-10.74,0-13,1-3.1,7.84-1.62,8.13-1.55a2.6,2.6,0,0,1,1.44,1.09c.47.58.8.94,1.51,1l1.11,0c2.08.07,5.93.18,7.66-.89a15.05,15.05,0,0,1,7.82-2.11c7-.12,13.87,0,20.84,2.14,13.91,4.39,30.05,20.69,31.37,24.61a1.54,1.54,0,0,1-.1,1.44c-1.3,1.88-4.34,0-9.38-3.21-4.41-2.77-9.9-6.22-15.06-7.48-3.4-.84-6-.63-7.85.64s-2.88,3.6-3.25,7c-1,9.53.21,47.1.23,47.47a.84.84,0,0,1-.8.86Z"/></clipPath><clipPath id="clip-path-307"><path class="cls-1" d="M269.1,399.82a.82.82,0,0,1-.81-.68c-1.24-6.74-1.14-14.17-1.05-21.36,0-1.82.05-3.6.05-5.34a.83.83,0,0,1,1.65,0c0,1.74,0,3.54-.05,5.36-.09,7.11-.18,14.46,1,21a.83.83,0,0,1-.67,1l-.15,0"/></clipPath><clipPath id="clip-path-309"><path class="cls-1" d="M249.83,393h-.05a.83.83,0,0,1-.78-.87,162.09,162.09,0,0,0-.45-19.86c-.2-3.13-.4-6.36-.54-9.8a.83.83,0,0,1,.79-.86.81.81,0,0,1,.86.8c.14,3.42.34,6.64.54,9.75a165.19,165.19,0,0,1,.45,20.06.83.83,0,0,1-.82.79"/></clipPath><clipPath id="clip-path-311"><path class="cls-1" d="M169.42,243.51l-.17,0a23.31,23.31,0,0,1-2.9-.89c-1.85-.65-3.76-1.32-5-.9a.82.82,0,1,1-.53-1.56c1.82-.61,4,.16,6.12.9a22.2,22.2,0,0,0,2.68.83.83.83,0,0,1-.16,1.64"/></clipPath><clipPath id="clip-path-313"><rect class="cls-2" x="12.94" y="162.6" width="39.22" height="58.98"/></clipPath><clipPath id="clip-path-315"><rect class="cls-2" x="11.75" y="161.72" width="41.5" height="60.48"/></clipPath><clipPath id="clip-path-316"><path class="cls-1" d="M30.07,221.59a.81.81,0,0,1-.39-.1.83.83,0,0,1-.34-1.12c1-1.94,1.27-3.39.7-4.33-1.17-1.92-5.67-1.86-8.65-1.81-2.57,0-3.74,0-4.1-.88-.45-1.1.83-1.89,3.64-3.63,3.09-1.91,8.26-5.11,7.58-7.57-.76-2.69-6.83-5.8-10.84-7.86C14.06,192.44,13,191.87,13,191a1,1,0,0,1,.3-.86c.66-.69,2.18-.62,5.85-.38,5.12.35,13.68.92,15.64-2.74,2.08-3.88-5.18-13.06-9.08-18-3.2-4.06-3.93-5-3.31-5.9.95-1.28,2.71,0,6.22,2.54,4.66,3.39,11.71,8.49,17.15,7.5a7.39,7.39,0,0,0,4.92-3.51.83.83,0,1,1,1.38.91,9,9,0,0,1-6,4.22c-6.13,1.12-13.52-4.23-18.41-7.78-1.05-.76-2.19-1.59-3-2.13.62.87,1.55,2,2.4,3.12,4.71,6,11.82,15,9.24,19.79-2.46,4.61-11.34,4-17.21,3.62-1.21-.08-2.6-.18-3.58-.17.79.46,1.94,1.05,3,1.6,4.53,2.32,10.73,5.5,11.68,8.88,1,3.66-4.37,7-8.3,9.43-.77.47-1.65,1-2.26,1.44.55,0,1.23,0,1.83,0,3.56,0,8.42-.11,10.08,2.61.9,1.47.68,3.48-.65,6a.82.82,0,0,1-.73.44"/></clipPath><clipPath id="clip-path-317"><rect class="cls-2" x="12.94" y="161.72" width="40.32" height="60.48"/></clipPath><clipPath id="clip-path-318"><rect class="cls-2" x="446.28" y="163.26" width="39.22" height="58.99"/></clipPath><clipPath id="clip-path-320"><rect class="cls-2" x="445.77" y="161.72" width="40.32" height="61.66"/></clipPath><clipPath id="clip-path-321"><path class="cls-1" d="M468.37,222.25a.82.82,0,0,1-.73-.44c-1.33-2.49-1.55-4.5-.65-6,1.66-2.73,6.53-2.66,10.08-2.62.61,0,1.29,0,1.83,0-.61-.43-1.49-1-2.26-1.45-3.93-2.44-9.32-5.77-8.29-9.42.94-3.39,7.14-6.57,11.67-8.89,1.07-.55,2.23-1.14,3-1.6-.92,0-2.37.09-3.58.17-5.87.4-14.74,1-17.21-3.61-2.58-4.84,4.54-13.84,9.24-19.8.86-1.08,1.78-2.25,2.41-3.12-.86.54-2,1.37-3.05,2.13-4.88,3.55-12.27,8.9-18.41,7.79a9.08,9.08,0,0,1-6-4.23.84.84,0,0,1,.24-1.15.82.82,0,0,1,1.14.24,7.4,7.4,0,0,0,4.93,3.51c5.45,1,12.48-4.11,17.14-7.49,3.51-2.55,5.27-3.83,6.22-2.56.62.87-.11,1.86-3.31,5.91-3.9,4.93-11.15,14.11-9.08,18,2,3.66,10.53,3.09,15.64,2.75,3.68-.25,5.19-.32,5.85.37a1.07,1.07,0,0,1,.3.88c-.07.87-1.11,1.44-4.71,3.29-4,2.06-10.09,5.17-10.84,7.86-.69,2.46,4.48,5.66,7.57,7.57,2.81,1.74,4.1,2.53,3.63,3.65-.35.91-1.52.89-4.09.86-3,0-7.48-.11-8.65,1.82-.57.93-.33,2.38.7,4.32a.83.83,0,0,1-.34,1.12.81.81,0,0,1-.39.1"/></clipPath><clipPath id="clip-path-322"><rect class="cls-2" x="445.77" y="162.9" width="40.32" height="60.48"/></clipPath></defs><g class="cls-3"><g class="cls-4"><rect class="cls-5" x="67.74" y="58.06" width="364.79" height="394.64"/></g></g><g class="cls-6"><g class="cls-4"><rect class="cls-7" x="117.55" y="83.86" width="291.98" height="320.84"/></g></g><g class="cls-8"><g class="cls-4"><rect class="cls-9" x="287.63" y="139.82" width="80.68" height="59.31"/></g></g><g class="cls-10"><g class="cls-4"><rect class="cls-11" x="146.99" y="138.61" width="80.35" height="61.43"/></g></g><g class="cls-12"><g class="cls-4"><rect class="cls-13" x="107.52" y="213.25" width="152.67" height="194.76"/></g></g><g class="cls-14"><g class="cls-4"><rect class="cls-13" x="255.67" y="214.39" width="152.64" height="196.97"/></g></g><g class="cls-15"><g class="cls-4"><rect class="cls-16" x="57.06" y="253.12" width="77.3" height="83.4"/></g></g><g class="cls-17"><g class="cls-4"><rect class="cls-16" x="149.42" y="156.34" width="82.46" height="109.01"/></g></g><g class="cls-18"><g class="cls-4"><rect class="cls-16" x="100.35" y="209.3" width="53.53" height="52.38"/></g></g><g class="cls-19"><g class="cls-4"><rect class="cls-20" x="283.5" y="150.74" width="82.38" height="115.5"/></g></g><g class="cls-21"><g class="cls-4"><rect class="cls-20" x="381.09" y="254.51" width="77.7" height="83.1"/></g></g><g class="cls-22"><g class="cls-4"><rect class="cls-23" x="398.66" y="173.09" width="49.48" height="96.23"/></g></g><g class="cls-24"><g class="cls-4"><rect class="cls-23" x="409.1" y="310.01" width="49.82" height="56.81"/></g></g><g class="cls-25"><g class="cls-4"><rect class="cls-23" x="44.44" y="178.17" width="90.8" height="84.32"/></g></g><g class="cls-26"><g class="cls-4"><rect class="cls-27" x="276.67" y="116.74" width="99.81" height="71.61"/></g></g><g class="cls-28"><g class="cls-4"><rect class="cls-27" x="138.78" y="115.19" width="100.42" height="71.73"/></g></g><g class="cls-29"><g class="cls-4"><rect class="cls-30" x="415.41" y="215.29" width="21.99" height="52.49"/></g></g><g class="cls-31"><g class="cls-4"><rect class="cls-32" x="73.16" y="311.88" width="29.92" height="40.28"/></g></g><g class="cls-33"><g class="cls-4"><rect class="cls-32" x="73.27" y="249.89" width="30.17" height="18.11"/></g></g><g class="cls-34"><g class="cls-4"><rect class="cls-35" x="141.24" y="231.12" width="117.96" height="114.26"/></g></g><g class="cls-36"><g class="cls-4"><rect class="cls-37" x="235.97" y="361.56" width="20.12" height="37.08"/></g></g><g class="cls-38"><g class="cls-4"><rect class="cls-37" x="261.84" y="368.94" width="75.54" height="50.19"/></g></g><g class="cls-39"><g class="cls-4"><rect class="cls-35" x="256.21" y="232" width="117.96" height="114.91"/></g></g><g class="cls-40"><g class="cls-4"><rect class="cls-41" x="61.08" y="252.45" width="74" height="50.63"/></g></g><g class="cls-42"><g class="cls-4"><rect class="cls-41" x="55.93" y="267.08" width="38.95" height="26.2"/></g></g><g class="cls-43"><g class="cls-4"><rect class="cls-41" x="56.16" y="279.79" width="33.76" height="32.76"/></g></g><g class="cls-44"><g class="cls-4"><rect class="cls-41" x="58.81" y="293.1" width="63.38" height="43.8"/></g></g><g class="cls-45"><g class="cls-4"><rect class="cls-41" x="72.22" y="311.16" width="32.02" height="41.94"/></g></g><g class="cls-46"><g class="cls-4"><rect class="cls-41" x="72.45" y="249.7" width="31.58" height="19.07"/></g></g><g class="cls-47"><g class="cls-4"><rect class="cls-41" x="99.69" y="208.38" width="50.11" height="54.18"/></g></g><g class="cls-48"><g class="cls-4"><rect class="cls-41" x="100.81" y="220.54" width="44.08" height="21.29"/></g></g><g class="cls-49"><g class="cls-4"><rect class="cls-41" x="103.17" y="214.08" width="42.27" height="22.25"/></g></g><g class="cls-50"><g class="cls-4"><rect class="cls-41" x="127.41" y="245.62" width="17.04" height="16.04"/></g></g><g class="cls-51"><g class="cls-4"><rect class="cls-41" x="135.56" y="224.91" width="18.58" height="16.92"/></g></g><g class="cls-52"><g class="cls-4"><rect class="cls-41" x="107.25" y="288.03" width="28.08" height="49.97"/></g></g><g class="cls-53"><g class="cls-4"><rect class="cls-41" x="106.78" y="287.91" width="50.73" height="65.72"/></g></g><g class="cls-54"><g class="cls-4"><rect class="cls-41" x="130.05" y="227.34" width="24.53" height="34.66"/></g></g><g class="cls-55"><g class="cls-4"><rect class="cls-41" x="129.17" y="226.72" width="38.55" height="44.55"/></g></g><g class="cls-56"><g class="cls-4"><rect class="cls-41" x="123.01" y="242.3" width="137.92" height="166.64"/></g></g><g class="cls-57"><g class="cls-4"><rect class="cls-41" x="144.15" y="302.68" width="84.34" height="54.16"/></g></g><g class="cls-58"><g class="cls-4"><rect class="cls-41" x="149.88" y="154.63" width="15.27" height="25.41"/></g></g><g class="cls-59"><g class="cls-4"><rect class="cls-41" x="148.37" y="184.26" width="64.15" height="51.34"/></g></g><g class="cls-60"><g class="cls-4"><rect class="cls-41" x="206.17" y="172.09" width="26.48" height="34.72"/></g></g><g class="cls-61"><g class="cls-4"><rect class="cls-41" x="208.81" y="197.04" width="16.59" height="32.79"/></g></g><g class="cls-62"><g class="cls-4"><rect class="cls-41" x="209.36" y="181.07" width="17.26" height="15.82"/></g></g><g class="cls-63"><g class="cls-4"><rect class="cls-41" x="169.56" y="222.71" width="16.08" height="42.04"/></g></g><g class="cls-64"><g class="cls-4"><rect class="cls-41" x="169.96" y="229.7" width="90.15" height="83.9"/></g></g><g class="cls-65"><g class="cls-4"><rect class="cls-41" x="174.89" y="277.89" width="26.62" height="17.7"/></g></g><g class="cls-66"><g class="cls-4"><rect class="cls-41" x="141.4" y="258.18" width="18.91" height="19.02"/></g></g><g class="cls-67"><g class="cls-4"><rect class="cls-41" x="161.58" y="176.77" width="17.08" height="32.24"/></g></g><g class="cls-68"><g class="cls-4"><rect class="cls-41" x="159.36" y="202.11" width="27.83" height="15.92"/></g></g><g class="cls-69"><g class="cls-4"><rect class="cls-41" x="154.89" y="176.94" width="16.27" height="17.59"/></g></g><g class="cls-70"><g class="cls-4"><rect class="cls-41" x="178.8" y="179.14" width="16.26" height="17.59"/></g></g><g class="cls-71"><g class="cls-4"><rect class="cls-41" x="152.2" y="169.07" width="21.77" height="15.04"/></g></g><g class="cls-72"><g class="cls-4"><rect class="cls-41" x="175.66" y="171.81" width="23.98" height="15.5"/></g></g><g class="cls-73"><g class="cls-4"><rect class="cls-41" x="158.58" y="212.67" width="68.38" height="81.6"/></g></g><g class="cls-74"><g class="cls-4"><rect class="cls-41" x="177.42" y="236.47" width="20.67" height="25.96"/></g></g><g class="cls-75"><g class="cls-4"><rect class="cls-41" x="211.68" y="212.8" width="22.87" height="27.83"/></g></g><g class="cls-76"><g class="cls-4"><rect class="cls-41" x="141.27" y="236.15" width="35.23" height="64.6"/></g></g><g class="cls-77"><g class="cls-4"><rect class="cls-41" x="146.91" y="266.99" width="16.49" height="15.49"/></g></g><g class="cls-78"><g class="cls-4"><rect class="cls-41" x="140.19" y="287.04" width="15.49" height="23.75"/></g></g><g class="cls-79"><g class="cls-4"><rect class="cls-41" x="149.22" y="274.59" width="36.86" height="20.78"/></g></g><g class="cls-80"><g class="cls-4"><rect class="cls-41" x="188.22" y="287.48" width="20.12" height="27.17"/></g></g><g class="cls-81"><g class="cls-4"><rect class="cls-41" x="161.27" y="227" width="22.5" height="33.59"/></g></g><g class="cls-82"><g class="cls-4"><rect class="cls-41" x="164.09" y="234.38" width="18.39" height="32.46"/></g></g><g class="cls-83"><g class="cls-4"><rect class="cls-41" x="138.09" y="135.39" width="90.3" height="49.93"/></g></g><g class="cls-84"><g class="cls-4"><rect class="cls-41" x="149.22" y="134.62" width="81.48" height="51.81"/></g></g><g class="cls-85"><g class="cls-4"><rect class="cls-41" x="155.5" y="117.29" width="36.09" height="30.91"/></g></g><g class="cls-86"><g class="cls-4"><rect class="cls-41" x="211.13" y="122.69" width="28.59" height="65.39"/></g></g><g class="cls-87"><g class="cls-4"><rect class="cls-41" x="185.79" y="122.47" width="39.29" height="33.45"/></g></g><g class="cls-88"><g class="cls-4"><rect class="cls-41" x="161.89" y="114.59" width="63.74" height="33.4"/></g></g><g class="cls-89"><g class="cls-4"><rect class="cls-41" x="196.7" y="166.64" width="23.98" height="23.59"/></g></g><g class="cls-90"><g class="cls-4"><rect class="cls-41" x="146.2" y="137.56" width="28.09" height="35.87"/></g></g><g class="cls-91"><g class="cls-4"><rect class="cls-41" x="151.39" y="147.03" width="18.95" height="25.41"/></g></g><g class="cls-92"><g class="cls-4"><rect class="cls-41" x="160.02" y="153.64" width="28.71" height="22.89"/></g></g><g class="cls-93"><g class="cls-4"><rect class="cls-41" x="179.51" y="161.57" width="26.84" height="20.25"/></g></g><g class="cls-94"><g class="cls-4"><rect class="cls-41" x="380.43" y="253.77" width="74" height="50.64"/></g></g><g class="cls-95"><g class="cls-4"><rect class="cls-41" x="420.64" y="268.4" width="38.95" height="26.31"/></g></g><g class="cls-96"><g class="cls-4"><rect class="cls-41" x="425.59" y="281.12" width="33.76" height="32.76"/></g></g><g class="cls-97"><g class="cls-4"><rect class="cls-41" x="392.99" y="294.42" width="63.71" height="43.69"/></g></g><g class="cls-98"><g class="cls-4"><rect class="cls-41" x="380.18" y="289.35" width="28.08" height="49.97"/></g></g><g class="cls-99"><g class="cls-4"><rect class="cls-41" x="358.01" y="289.34" width="50.73" height="65.72"/></g></g><g class="cls-100"><g class="cls-4"><rect class="cls-41" x="254.48" y="243.62" width="137.92" height="166.64"/></g></g><g class="cls-101"><g class="cls-4"><rect class="cls-41" x="287.02" y="304" width="84.34" height="54.16"/></g></g><g class="cls-102"><g class="cls-4"><rect class="cls-41" x="344.08" y="149.46" width="21.36" height="30.36"/></g></g><g class="cls-103"><g class="cls-4"><rect class="cls-41" x="303" y="185.59" width="64.15" height="51.34"/></g></g><g class="cls-104"><g class="cls-4"><rect class="cls-41" x="282.86" y="173.52" width="26.48" height="34.72"/></g></g><g class="cls-105"><g class="cls-4"><rect class="cls-41" x="290.11" y="198.36" width="16.59" height="32.79"/></g></g><g class="cls-106"><g class="cls-4"><rect class="cls-41" x="288.9" y="182.5" width="17.26" height="15.82"/></g></g><g class="cls-107"><g class="cls-4"><rect class="cls-41" x="329.87" y="224.03" width="16.08" height="42.04"/></g></g><g class="cls-108"><g class="cls-4"><rect class="cls-41" x="255.41" y="231.02" width="90.15" height="83.9"/></g></g><g class="cls-109"><g class="cls-4"><rect class="cls-41" x="314.01" y="279.22" width="26.62" height="17.7"/></g></g><g class="cls-110"><g class="cls-4"><rect class="cls-41" x="335.78" y="177.88" width="17.27" height="31.03"/></g></g><g class="cls-111"><g class="cls-4"><rect class="cls-7" x="327.61" y="201.61" width="29.26" height="22.57"/></g></g><g class="cls-112"><g class="cls-4"><rect class="cls-41" x="326.79" y="200.79" width="30.92" height="24.22"/></g></g><g class="cls-113"><g class="cls-4"><rect class="cls-41" x="343.7" y="176.94" width="16.27" height="17.59"/></g></g><g class="cls-114"><g class="cls-4"><rect class="cls-41" x="319.57" y="179.91" width="16.26" height="17.59"/></g></g><g class="cls-115"><g class="cls-4"><rect class="cls-41" x="341" y="169.18" width="21.77" height="15.04"/></g></g><g class="cls-116"><g class="cls-4"><rect class="cls-41" x="315.11" y="171.97" width="25.19" height="15.78"/></g></g><g class="cls-117"><g class="cls-4"><rect class="cls-41" x="288.55" y="214" width="68.38" height="81.59"/></g></g><g class="cls-118"><g class="cls-4"><rect class="cls-41" x="317.42" y="237.9" width="20.67" height="25.96"/></g></g><g class="cls-119"><g class="cls-4"><rect class="cls-41" x="280.96" y="214.12" width="22.87" height="27.83"/></g></g><g class="cls-120"><g class="cls-4"><rect class="cls-41" x="339.01" y="237.47" width="35.23" height="64.61"/></g></g><g class="cls-121"><g class="cls-4"><rect class="cls-41" x="352.12" y="268.31" width="16.49" height="15.49"/></g></g><g class="cls-122"><g class="cls-4"><rect class="cls-41" x="359.83" y="288.36" width="15.38" height="23.09"/></g></g><g class="cls-123"><g class="cls-4"><rect class="cls-41" x="329.43" y="275.91" width="36.86" height="20.78"/></g></g><g class="cls-124"><g class="cls-4"><rect class="cls-41" x="307.07" y="288.8" width="20.12" height="26.29"/></g></g><g class="cls-125"><g class="cls-4"><rect class="cls-41" x="331.74" y="228.33" width="22.5" height="33.59"/></g></g><g class="cls-126"><g class="cls-4"><rect class="cls-41" x="333.04" y="235.71" width="18.38" height="32.35"/></g></g><g class="cls-127"><g class="cls-4"><rect class="cls-41" x="287.13" y="136.72" width="90.29" height="49.93"/></g></g><g class="cls-128"><g class="cls-4"><rect class="cls-41" x="284.93" y="136.05" width="81.37" height="51.7"/></g></g><g class="cls-129"><g class="cls-4"><rect class="cls-41" x="323.92" y="118.61" width="36.09" height="30.92"/></g></g><g class="cls-130"><g class="cls-4"><rect class="cls-41" x="275.8" y="124.01" width="28.59" height="65.39"/></g></g><g class="cls-131"><g class="cls-4"><rect class="cls-41" x="290.44" y="123.79" width="39.29" height="33.45"/></g></g><g class="cls-132"><g class="cls-4"><rect class="cls-41" x="289.89" y="115.91" width="63.74" height="33.4"/></g></g><g class="cls-133"><g class="cls-4"><rect class="cls-41" x="341.22" y="138.99" width="28.1" height="35.87"/></g></g><g class="cls-134"><g class="cls-4"><rect class="cls-41" x="397.86" y="172.17" width="51.02" height="97.1"/></g></g><g class="cls-135"><g class="cls-4"><rect class="cls-41" x="414.57" y="214.33" width="23.32" height="53.72"/></g></g><g class="cls-136"><g class="cls-4"><rect class="cls-41" x="398.39" y="175.67" width="43.9" height="36.88"/></g></g><g class="cls-137"><g class="cls-4"><rect class="cls-41" x="408.44" y="309.51" width="51.02" height="58.1"/></g></g><g class="cls-138"><g class="cls-4"><rect class="cls-41" x="414.82" y="327.42" width="44.01" height="36.8"/></g></g><g class="cls-139"><g class="cls-4"><rect class="cls-41" x="333.51" y="145.43" width="19.13" height="17.21"/></g></g><g class="cls-140"><g class="cls-4"><rect class="cls-41" x="304.21" y="150.87" width="42.81" height="30.8"/></g></g><g class="cls-141"><g class="cls-4"><rect class="cls-41" x="295.39" y="172.26" width="23.76" height="18.71"/></g></g><g class="cls-142"><g class="cls-4"><rect class="cls-41" x="118.16" y="204.53" width="14.5" height="17.04"/></g></g><g class="cls-143"><g class="cls-4"><rect class="cls-41" x="120.69" y="163.12" width="42.48" height="51.18"/></g></g><g class="cls-144"><g class="cls-4"><rect class="cls-41" x="86.32" y="201.67" width="21.99" height="22.82"/></g></g><g class="cls-145"><g class="cls-4"><rect class="cls-41" x="66.62" y="199.69" width="22.31" height="21.77"/></g></g><g class="cls-146"><g class="cls-4"><rect class="cls-41" x="66.61" y="197.03" width="21.22" height="16.83"/></g></g><g class="cls-147"><g class="cls-4"><rect class="cls-41" x="87.87" y="199.14" width="40.83" height="23.75"/></g></g><g class="cls-148"><g class="cls-4"><rect class="cls-41" x="66.72" y="191.54" width="16.15" height="21.55"/></g></g><g class="cls-149"><g class="cls-4"><rect class="cls-41" x="76.85" y="138.22" width="75.09" height="52.62"/></g></g><g class="cls-150"><g class="cls-4"><rect class="cls-41" x="121.13" y="249.03" width="15.93" height="51.4"/></g></g><g class="cls-151"><g class="cls-4"><rect class="cls-41" x="86.65" y="230.86" width="26.4" height="25.96"/></g></g><g class="cls-152"><g class="cls-4"><rect class="cls-41" x="96.33" y="322.07" width="65.42" height="69.95"/></g></g><g class="cls-153"><g class="cls-4"><rect class="cls-41" x="127.63" y="358.42" width="26.4" height="32.57"/></g></g><g class="cls-154"><g class="cls-4"><rect class="cls-41" x="92.16" y="318.98" width="24.42" height="24.35"/></g></g><g class="cls-155"><g class="cls-4"><rect class="cls-41" x="306.88" y="386.84" width="33.58" height="37.59"/></g></g><g class="cls-156"><g class="cls-4"><rect class="cls-41" x="308.06" y="389.04" width="29.37" height="26.4"/></g></g><g class="cls-157"><g class="cls-4"><rect class="cls-41" x="320.07" y="343.71" width="90.56" height="77.56"/></g></g><g class="cls-158"><g class="cls-4"><rect class="cls-41" x="393.87" y="321.84" width="18.91" height="35"/></g></g><g class="cls-159"><g class="cls-4"><rect class="cls-41" x="394.2" y="212.13" width="26.18" height="62.31"/></g></g><g class="cls-160"><g class="cls-4"><rect class="cls-41" x="383.88" y="147.86" width="49.4" height="150.6"/></g></g><g class="cls-161"><g class="cls-4"><rect class="cls-41" x="291.85" y="69.54" width="123.36" height="96.46"/></g></g><g class="cls-162"><g class="cls-4"><rect class="cls-41" x="137.99" y="96.51" width="33.83" height="47.51"/></g></g><g class="cls-163"><g class="cls-4"><g class="cls-164"><g class="cls-165"><g class="cls-166"><g class="cls-167"><rect class="cls-41" x="124.8" y="57.36" width="180.89" height="82.37"/></g></g></g></g></g></g><g class="cls-168"><g class="cls-4"><g class="cls-164"><g class="cls-169"><g class="cls-170"><g class="cls-171"><rect class="cls-41" x="198.24" y="383.2" width="122.79" height="70.27"/></g></g></g></g></g></g><g class="cls-172"><g class="cls-4"><rect class="cls-41" x="135.67" y="242.98" width="105.91" height="143.99"/></g></g><g class="cls-173"><g class="cls-4"><rect class="cls-41" x="273.17" y="244.08" width="105.91" height="143.99"/></g></g><g class="cls-174"><g class="cls-4"><rect class="cls-41" x="43.54" y="177.51" width="92.28" height="85.37"/></g></g><g class="cls-175"><g class="cls-4"><rect class="cls-41" x="261.26" y="365.69" width="14.6" height="40.06"/></g></g><g class="cls-176"><g class="cls-4"><rect class="cls-41" x="242.08" y="355.66" width="14.65" height="43.26"/></g></g><g class="cls-177"><g class="cls-4"><rect class="cls-41" x="154.29" y="233.99" width="21.88" height="15.45"/></g></g><g class="cls-178"><g class="cls-4"><g class="cls-164"><g class="cls-179"><g class="cls-180"><g class="cls-181"><rect class="cls-41" x="7.01" y="156.67" width="51.08" height="70.84"/></g></g></g></g></g></g><g class="cls-182"><g class="cls-4"><g class="cls-164"><g class="cls-183"><g class="cls-184"><g class="cls-185"><rect class="cls-41" x="440.36" y="157.33" width="51.07" height="70.84"/></g></g></g></g></g></g></svg>