<svg version="1.1" id="Layer_1" xmlns="http://www.w3.org/2000/svg" xmlns:xlink="http://www.w3.org/1999/xlink" x="0" y="0" viewBox="0 0 150 120" xml:space="preserve"><style>.st5{fill:#abd3e9}.st18{fill:#ffe1c7}.st27{fill:#6d98ba}.st37{fill:#5b2714}.st150{fill:#fb7d7a}</style><g id="Layer_2_1_"><g id="Layer_1-2"><defs><path id="SVGID_1_" d="M14 23.9s2.2-.1 5.9-.1c2 0 4.5.1 7.1.2 2.9.1 6 .2 9.3.5 3.4.2 6.8.8 10.1 1.6 2.9.9 5.8 2.1 8.5 3.5.6.3 1.3.8 1.9 1.1 11.4 6.4 26.6 21.8 27.3 22.5s4.9 5.2 6.2 6.9c.6.8 1.2 1.6 1.6 2.4 0 0 17.1 5.4 26.8 12.9s12 16.8 12 16.8c.1 1.7-.5 2-1.4 2.8-1.6 1.5-3.5 2.5-5.7 2.8-4.3.6-10.3.6-17.2 1.8-7.8 1.4-16.1 4.3-26.2.1-12.7-5.2-14.6-8-22.9-11.8-8.6-3.9-17.1-4.8-22.5-10.7-6.2-6.8-7.6-15.8-9.9-23.7-2.8-10.2-10.3-9.2-12.6-18.1S14 23.9 14 23.9"/></defs><clipPath id="SVGID_2_"><use xlink:href="#SVGID_1_" overflow="visible"/></clipPath><g clip-path="url(#SVGID_2_)"><defs><path id="SVGID_3_" d="M-1108.4-1058.1h1600v3428h-1600z"/></defs><clipPath id="SVGID_4_"><use xlink:href="#SVGID_3_" overflow="visible"/></clipPath><g clip-path="url(#SVGID_4_)"><path fill="#fa9700" d="M6.6 18.7h129.2V107H6.6z"/></g></g><defs><path id="SVGID_5_" d="M26.5 25.7c3 .1 5.9.3 9.4.6 3.3.2 6.6.7 9.9 1.5 3.8 1.2 7.4 2.8 11 4.6 1.2.6 4.6 3.4 7 5.3 5.4 4.2 12.2 9.5 16.8 13.7 1.8 1.7 3.4 3.5 4.8 5.4 1.4 1.9 1 2.7 1 2.7l-.7.6-44.1.5-14.3 1c-.7-2.7-1.3-5.3-2-7.8-2.9-10.2-10.3-9.2-12.7-18.1-1.4-5.1-.6-8.2.3-10-.2 0 5.8-.3 13.6 0"/></defs><clipPath id="SVGID_6_"><use xlink:href="#SVGID_5_" overflow="visible"/></clipPath><g clip-path="url(#SVGID_6_)"><defs><path id="SVGID_7_" d="M-1108.4-1058.1h1600v3428h-1600z"/></defs><clipPath id="SVGID_8_"><use xlink:href="#SVGID_7_" overflow="visible"/></clipPath><g clip-path="url(#SVGID_8_)"><path class="st5" d="M6.7 20.5h84.7v46H6.7z"/></g></g><defs><path id="SVGID_9_" d="M26.5 25.9c3 .1 5.9.3 9.4.6 3.3.2 6.6.7 9.9 1.5 3.7 1.2 7.4 2.8 10.9 4.5 1.3.6 4.6 3.4 7 5.3 5.4 4.2 12.2 9.5 16.8 13.7 1.8 1.7 3.4 3.5 4.8 5.4 1.4 1.9 1 2.7 1 2.7l-.7.6-44.1.5-14.3 1c-.7-2.6-1.3-5.3-2-7.8-2.8-10.2-10.3-9.2-12.6-18.1-1.4-5.1-.6-8.2.3-9.9-.2 0 5.8-.3 13.6 0"/></defs><clipPath id="SVGID_10_"><use xlink:href="#SVGID_9_" overflow="visible"/></clipPath><g clip-path="url(#SVGID_10_)"><defs><path id="SVGID_11_" d="M-1108.4-1058.1h1600v3428h-1600z"/></defs><clipPath id="SVGID_12_"><use xlink:href="#SVGID_11_" overflow="visible"/></clipPath><g clip-path="url(#SVGID_12_)"><path class="st5" d="M6.7 20.7h84.7v46H6.7z"/></g></g><defs><path id="SVGID_13_" d="M128.1 85.7c-.4.2-.7.6-.9 1-.4 1.2-.9 3-1.3 4.4-.3 1-.7 1.9-.9 2.7s-2.1 4.3-2.1 4.3c1.7-.1 3.4-.6 5-1.4 2.7-1.4 3.3-2.8 3.3-2.8s-.3-1.5-.7-2.9c-.3-1-.7-2-1.1-3l-1.3-2.3z"/></defs><clipPath id="SVGID_14_"><use xlink:href="#SVGID_13_" overflow="visible"/></clipPath><g clip-path="url(#SVGID_14_)"><defs><path id="SVGID_15_" d="M-1108.4-1058.1h1600v3428h-1600z"/></defs><clipPath id="SVGID_16_"><use xlink:href="#SVGID_15_" overflow="visible"/></clipPath><g clip-path="url(#SVGID_16_)"><path fill="#deeaf0" d="M117.9 80.7h18.3V103h-18.3z"/></g></g><defs><path id="SVGID_17_" d="M62 84.9h62.7v17.2H62z"/></defs><clipPath id="SVGID_18_"><use xlink:href="#SVGID_17_" overflow="visible"/></clipPath><g clip-path="url(#SVGID_18_)"><defs><path id="SVGID_19_" d="M61.6 83.9h64v19h-64z"/></defs><clipPath id="SVGID_20_"><use xlink:href="#SVGID_19_" overflow="visible"/></clipPath><g clip-path="url(#SVGID_20_)"><defs><path id="SVGID_21_" d="m62 90.4 8.5-.1c4.2 0 9.5-.2 15.7-.5 3-.1 6.4-.4 9.7-.6 7-.3 14-1.1 20.9-2.2 4-.8 6.4-2.3 7.7-1.8.6.2 0 2.7-.8 5.1-.3 1.1-.8 2.3-1.2 3.3-.8 1.7-1.8 3.4-3 4.9-4.2.2-8.4.7-12.6 1.4-5.7.9-13.1 3-19 2.2-7.1-1.1-13.5-4.5-18.1-7.2-4.8-2.8-7.8-4.5-7.8-4.5"/></defs><clipPath id="SVGID_22_"><use xlink:href="#SVGID_21_" overflow="visible"/></clipPath><g clip-path="url(#SVGID_22_)"><defs><path id="SVGID_23_" d="M61.6 84.9h64v18h-64z"/></defs><clipPath id="SVGID_24_"><use xlink:href="#SVGID_23_" overflow="visible"/></clipPath><g clip-path="url(#SVGID_24_)"><path fill="#999ca6" d="M57 79.9h72.7v27.2H57z"/></g></g></g></g><defs><path id="SVGID_25_" d="m68.9 34.8 5 2s8 .9 12 2.6c.4.2.7.5.9.9.9 1.6.3 2.4.3 2.4.4.2.8.4 1.2.5.4.1.7.2 1.1.1.4.8.7 1.7.9 2.6.3 1.7.5 3.5.4 5.2.1 2.2-.3 3.6-2.2 3.5-.3 0-.7-.2-.9-.5-.3-.4-.6-.8-1-1.2-.9.5-1.9.7-2.9.7-1.5 0-3-.4-4.2-1.2-.7-.4-1.5-1-2.4-1.6-1.2-.7-2.4-1.6-3.3-2.6-1.3-1.6-2.3-3.5-2.9-5.5 0 0-1.2-.8-1.8-1.1-1.4-.7-2.8-1.6-4-2.7-.5-.4-1-.9-1.4-1.3-.2-.2-.5-.6-.5-.6s-.4.1-.6-.1c-.1-.2-.2-.4-.2-.5-.3.1-.7.2-1 .2-.4-.1-.6-.8-.6-.8-.3-.1-.6-.2-.8-.3-.2-.2-.4-.4-.5-.7-.3 0-.5-.1-.7-.3-.1-.2-.3-.3-.4-.5-.1 0-.3 0-.4-.1-.3-.1-.5-.3-.7-.6-.4-1.1-.4-2.4.2-3.4.1-.3.3-.5.5-.6.3-.2.9.1.9.1.1-.2.3-.4.5-.4h1c.1-.1.3-.2.5-.3.4-.1.9 0 1.2.3.2.1.3.2.5.3.4.1.8-.1 1.2.1.3.2.5.4.6.7l.6 1.2c.5.8 1.1 1.5 1.9 2 .7.7 1.3 1.1 2 1.5"/></defs><clipPath id="SVGID_26_"><use xlink:href="#SVGID_25_" overflow="visible"/></clipPath><g clip-path="url(#SVGID_26_)"><defs><path id="SVGID_27_" d="M-1108.4-1058.1h1600v3428h-1600z"/></defs><clipPath id="SVGID_28_"><use xlink:href="#SVGID_27_" overflow="visible"/></clipPath><g clip-path="url(#SVGID_28_)"><path class="st18" d="M52 23.9h43.9v35.8H52z"/></g></g><defs><path id="SVGID_29_" d="m86.2 53.4.9-.5s.7 2 1.7 2c1.2 0 2-1.5 2-1.5-.2 1-.1 2.1.1 3.1.2.6.9 1 1.3 1.5.4.4.7.8.9 1.3.4.9.2 1.3.9 2.2.6.6 1.2 1.2 1.9 1.6.4.3.7.7 1 1.1l-4.8-1.7c-.4-.8-.9-1.6-1.5-2.3-1-1.3-2.5-2.7-3.3-3.9-1.5-2.3-1-2.9-1.1-2.9"/></defs><clipPath id="SVGID_30_"><use xlink:href="#SVGID_29_" overflow="visible"/></clipPath><g clip-path="url(#SVGID_30_)"><defs><path id="SVGID_31_" d="M-1108.4-1058.1h1600v3428h-1600z"/></defs><clipPath id="SVGID_32_"><use xlink:href="#SVGID_31_" overflow="visible"/></clipPath><g clip-path="url(#SVGID_32_)"><path fill="#fff" d="M81.2 47.9h20.7v21.2H81.2z"/></g></g><defs><path id="SVGID_33_" d="M71.2 40.1c.8-1.8 2.1-3.3 3.8-4.4 1.8-1 4-1.3 6-.8 1 .5 1.9 1.1 2.6 1.8.8.8 1.4 1.6 2 2.5-.3 0-.7.1-.9.4-.4.5-.7 1.3-1.8 1.5-1.5.2-4-1.1-5.6-.1-1.9 1.3-3.4 3.2-4.2 5.5-.1.7.1 1.5.7 2-1 .3-2-.1-2.7-.9-1.8-2.1.2-7.5.1-7.5"/></defs><clipPath id="SVGID_34_"><use xlink:href="#SVGID_33_" overflow="visible"/></clipPath><g clip-path="url(#SVGID_34_)"><defs><path id="SVGID_35_" d="M-1108.4-1058.1h1600v3428h-1600z"/></defs><clipPath id="SVGID_36_"><use xlink:href="#SVGID_35_" overflow="visible"/></clipPath><g clip-path="url(#SVGID_36_)"><path fill="#dba770" d="M65.3 29.7h25.3v23.9H65.3z"/></g></g><defs><path id="SVGID_37_" d="m89.4 43.4-1-.1c.3-.3.7-.6 1.1-.6.5 0 .9.5 1.4.4.4-.1.8-.1 1.2-.1.2.1.3.2.4.4 1.9.1 3.7.3 5.6.6 1.5.3 3 .8 4.5 1.3 0 0 1.8.6 3.6 1.3 1.4.6 2.6 1.3 4.5 2.2 1.4.7 3 1.3 4.5 2 2.6 1.3 5.1 2.8 7.5 4.5 3.2 2.1 6.1 4.6 8.8 7.4 1.4 1.6 2.8 3.3 4 5.1.6.7 1 .9.8 1.1-.4.2-.9.4-1.3.5-.7.2-1.2.4-1.2.4-.4.5-.7 1.1-.9 1.7-.7 1.8-1.7 4.8-2.9 6.5-.6.9-1.5 1.8-2.4 2.4-.7.4-1.4.7-2.2.9-1.4-1.6-2.9-3.2-4.5-4.6-1.8-1.5-3.7-2.9-5.7-4.2l-2.1-.5c-.2.2-.5.3-.8.2-.5-.1-.7-.4-1.3-.7s-1 0-1.3-.4c-.3-.4-.3-1-.3-1L97.1 64c-.3-.4-.7-.7-1.1-1-.7-.5-1.4-1-2-1.6-.5-.6-.5-1.5-.9-2.3-.5-.8-1.1-1.5-1.8-2.1-.7-.6-.6-1.5-.5-2.7.1-1.4.2-2.8.1-4.2-.1-1.6-.3-3.2-.6-4.8-.3-.6-.6-1.3-.9-1.9"/></defs><clipPath id="SVGID_38_"><use xlink:href="#SVGID_37_" overflow="visible"/></clipPath><g clip-path="url(#SVGID_38_)"><defs><path id="SVGID_39_" d="M-1108.4-1058.1h1600v3428h-1600z"/></defs><clipPath id="SVGID_40_"><use xlink:href="#SVGID_39_" overflow="visible"/></clipPath><g clip-path="url(#SVGID_40_)"><path class="st27" d="M83.4 37.7h58v48.8h-58z"/></g></g><defs><path id="SVGID_41_" d="M108.5 64.3c.6.3 1.1.8 1.5 1.3.3.4.5.9.6 1.4.1.8 0 1.6-.2 2.4-.1.4-.3.7-.5 1.1 0 0-1.7-.4-2.2-.6-1-.3-1.9-.6-3-.9-.5-.1-.9-.2-1.4-.2-.4 0-.9.1-1.2.3-.9.4-1.4 1-2.5 1-1.1.1-2.3-.1-3.3-.2H95c-.8.1-1.7 0-2.5-.1-.3-.1-.5-.2-.6-.4-.1-.2-.1-.3-.1-.3h-1.2c-.5.1-1 .1-1.4 0-.4 0-.8-.1-1.2-.2-.2-.1-.3-.2-.4-.4-.4 0-.9 0-1.3-.1-.3-.1-.5-.3-.7-.5 0 0-1-.3-.7-.7.3-.5 1-.6 1.3-.7.3-.1 2-.5 2.3-.6.8-.3 2-.5 2.5-.6.5-.1 1.2-.4 1.7-.5.7-.2 1.5-.3 2.3-.3.8 0 1.6.1 2.4 0s1.8-.3 2.6-.3c.8.1 1.6.1 2.4 0l6.1.1z"/></defs><clipPath id="SVGID_42_"><use xlink:href="#SVGID_41_" overflow="visible"/></clipPath><g clip-path="url(#SVGID_42_)"><defs><path id="SVGID_43_" d="M-1108.4-1058.1h1600v3428h-1600z"/></defs><clipPath id="SVGID_44_"><use xlink:href="#SVGID_43_" overflow="visible"/></clipPath><g clip-path="url(#SVGID_44_)"><path class="st18" d="M79.6 59.3h36.1v16.2H79.6z"/></g></g><defs><path id="SVGID_45_" d="m84.7 53.7 1.4-.3c.1.3.2.7.3 1 .2.7.6 1.6.6 1.6l-2.3-2.3z"/></defs><clipPath id="SVGID_46_"><use xlink:href="#SVGID_45_" overflow="visible"/></clipPath><g clip-path="url(#SVGID_46_)"><defs><path id="SVGID_47_" d="M-1108.4-1058.1h1600v3428h-1600z"/></defs><clipPath id="SVGID_48_"><use xlink:href="#SVGID_47_" overflow="visible"/></clipPath><g clip-path="url(#SVGID_48_)"><path class="st27" d="M79.7 48.4h12.2V61H79.7z"/></g></g><defs><path id="SVGID_49_" d="M125.1 81.7c.3-.1.6-.2.8-.3 1.5-.6 2.8-1.7 3.7-3 1.3-2 2.3-4.1 3-6.3.2-.8.5-1.5 1-2.2.7-.4 1.4-.6 2.2-.7.4.8.8 1.6 1 2.4.5 1.8.8 3.6 1 5.5.3 3.2.5 6.4.3 9.7-.8 1.3-1.7 2.5-2.8 3.6-1.2 1.3-2.6 2.4-4 3.5-.5-2.3-1.3-4.5-2.3-6.6-1.1-2-2.4-3.8-3.9-5.6"/></defs><clipPath id="SVGID_50_"><use xlink:href="#SVGID_49_" overflow="visible"/></clipPath><g clip-path="url(#SVGID_50_)"><defs><path id="SVGID_51_" d="M-1108.4-1058.1h1600v3428h-1600z"/></defs><clipPath id="SVGID_52_"><use xlink:href="#SVGID_51_" overflow="visible"/></clipPath><g clip-path="url(#SVGID_52_)"><path fill="#a8d0ed" d="M120.1 64.2h23v34.7h-23z"/></g></g><defs><path id="SVGID_53_" d="M116.1 64.5c-1.1-.2-2.3-.2-3.5-.1-.1 0-.2-.1-.2-.1 0-.1 0-.2.1-.2 1.2-.1 2.4 0 3.6.1.1 0 .1.1.1.2.1 0 .1.1-.1.1"/></defs><clipPath id="SVGID_54_"><use xlink:href="#SVGID_53_" overflow="visible"/></clipPath><g clip-path="url(#SVGID_54_)"><defs><path id="SVGID_55_" d="M-1108.4-1058.1h1600v3428h-1600z"/></defs><clipPath id="SVGID_56_"><use xlink:href="#SVGID_55_" overflow="visible"/></clipPath><g clip-path="url(#SVGID_56_)"><path class="st37" d="M107.5 59h13.8v10.5h-13.8z"/></g></g><defs><path id="SVGID_57_" d="M85.3 68.3c-.8-.1-.9-.5-.9-.7.1-.4.4-.8.8-.8.3-.1.8-.2 1.4-.4.9-.3 2.1-.6 3.2-.8.7-.1 1.4-.3 2.1-.6l1.2-.3c.4-.1 1-.1 1.7-.1.9 0 2.1-.1 3.1-.2 2.1-.2 4.2-.3 6.3-.3h.8c1.1.1 2.3.1 3.4 0 .1 0 .2 0 .2.1s0 .2-.1.2c-1.1.1-2.3.1-3.4 0h-.8c-2.1-.1-4.2 0-6.3.3-1 .1-2.2.2-3.2.2-.7 0-1.3 0-1.7.1s-.7.2-1.1.3c-.7.2-1.4.4-2.2.6-1.1.2-2.1.5-3.1.8l-1.4.4c-.4.1-.6.3-.6.5s.2.3.6.3c.1 0 .2.1.1.2s-.1.2-.1.2"/></defs><clipPath id="SVGID_58_"><use xlink:href="#SVGID_57_" overflow="visible"/></clipPath><g clip-path="url(#SVGID_58_)"><defs><path id="SVGID_59_" d="M-1108.4-1058.1h1600v3428h-1600z"/></defs><clipPath id="SVGID_60_"><use xlink:href="#SVGID_59_" overflow="visible"/></clipPath><g clip-path="url(#SVGID_60_)"><path class="st37" d="M79.3 59.2h34.3v14.1H79.3z"/></g></g><defs><path id="SVGID_61_" d="M86.7 68.9c-.5 0-1-.1-1.4-.4-.1-.1-.2-.3-.1-.4.1-.6 1-.8 2.4-1.1l.7-.1c1.5-.3 2.9-.7 4.3-1.3.1 0 .2 0 .2.1s0 .2-.1.2c-1.4.5-2.9 1-4.3 1.2l-.7.1c-1 .2-2.1.4-2.1.8 0 .1 0 .1.1.2.5.3 1.1.4 1.7.2.1 0 .2.1.2.1 0 .1-.1.2-.1.2-.4.1-.6.1-.8.2"/></defs><clipPath id="SVGID_62_"><use xlink:href="#SVGID_61_" overflow="visible"/></clipPath><g clip-path="url(#SVGID_62_)"><defs><path id="SVGID_63_" d="M-1108.4-1058.1h1600v3428h-1600z"/></defs><clipPath id="SVGID_64_"><use xlink:href="#SVGID_63_" overflow="visible"/></clipPath><g clip-path="url(#SVGID_64_)"><path class="st37" d="M80.2 60.6h17.6v13.3H80.2z"/></g></g><defs><path id="SVGID_65_" d="M89.2 69.4c-.6.1-1.2 0-1.7-.3-.2-.1-.3-.3-.3-.5s.2-.4.5-.5c.4-.2.8-.3 1.2-.3.5-.1 1-.2 1.4-.4.5-.1.9-.2 1.4-.3.8-.1 1.6-.3 2.3-.6.1 0 .2 0 .2.1s0 .2-.1.2c-.8.3-1.6.5-2.4.6-.5 0-.9.1-1.3.3-.5.2-1 .3-1.5.4-.4.1-.8.2-1.1.3-.2.1-.3.2-.3.2s0 .1.2.2c.5.3 2.3.2 3.3.2h.7c.1 0 .2.1.2.1 0 .1 0 .2-.1.2h-.6c-.9 0-1.5 0-2 .1"/></defs><clipPath id="SVGID_66_"><use xlink:href="#SVGID_65_" overflow="visible"/></clipPath><g clip-path="url(#SVGID_66_)"><defs><path id="SVGID_67_" d="M-1108.4-1058.1h1600v3428h-1600z"/></defs><clipPath id="SVGID_68_"><use xlink:href="#SVGID_67_" overflow="visible"/></clipPath><g clip-path="url(#SVGID_68_)"><path class="st37" d="M82.1 61.5h17.1v12.9H82.1z"/></g></g><defs><path id="SVGID_69_" d="M109.9 70.7c-.2-.1-.8-.2-1.5-.4-1.7-.5-4.3-1.2-5-1.3-.7 0-1.4.3-1.9.7-.5.3-1.2.6-1.8.7-.7 0-1.7 0-2.5-.1-.9-.1-1.9-.1-2.8-.1-.7.1-1.4.1-2.1-.1-.2-.1-.7-.3-.7-.7-.1-.6.6-.7 1-.8h.2l.8-.2c.9-.2 1.7-.4 2.6-.6.1 0 .2.1.2.1 0 .1-.1.2-.1.2-.9.1-1.7.3-2.6.5l-.9.1h-.2c-.5.1-.7.2-.7.4s.3.3.4.4c.7.2 1.3.2 2 .1.9 0 1.9 0 2.8.1.8.1 1.6.1 2.5.1.6-.1 1.1-.3 1.7-.6.6-.4 1.4-.7 2.1-.7.7.1 3.4.8 5.1 1.3.7.2 1.3.4 1.5.4.1 0 .1.1.1.2-.1.1-.1.2-.2.3"/></defs><clipPath id="SVGID_70_"><use xlink:href="#SVGID_69_" overflow="visible"/></clipPath><g clip-path="url(#SVGID_70_)"><defs><path id="SVGID_71_" d="M-1108.4-1058.1h1600v3428h-1600z"/></defs><clipPath id="SVGID_72_"><use xlink:href="#SVGID_71_" overflow="visible"/></clipPath><g clip-path="url(#SVGID_72_)"><path class="st37" d="M86.5 62.8H115v12.8H86.5z"/></g></g><defs><path id="SVGID_73_" d="M118 73.3c-1.7-.1-3.4-.4-5.1-.8-.1 0-.1-.1-.1-.2s.1-.1.2-.1c4.3 1.1 6 .9 6.6.5 1.8-1.1 2.1-3.5.8-6.2-.9-1.6-2-3-3.4-4.2-.7-.7-1.4-1.5-2.1-2.2l-1-1.3c-1.9-2.5-4.8-6.3-6.4-7.7-.1-.1-.1-.1 0-.2h.2c1.7 1.4 4.5 5.2 6.4 7.7.4.5.7 1 1 1.3.6.8 1.3 1.5 2 2.2 1.4 1.2 2.5 2.7 3.4 4.3 1.3 2.9.9 5.5-1 6.6-.3.2-.9.4-1.5.3"/></defs><clipPath id="SVGID_74_"><use xlink:href="#SVGID_73_" overflow="visible"/></clipPath><g clip-path="url(#SVGID_74_)"><defs><path id="SVGID_75_" d="M-1108.4-1058.1h1600v3428h-1600z"/></defs><clipPath id="SVGID_76_"><use xlink:href="#SVGID_75_" overflow="visible"/></clipPath><g clip-path="url(#SVGID_76_)"><path class="st37" d="M102.5 45.7h24v32.6h-24z"/></g></g><defs><path id="SVGID_77_" d="M103.8 64.5c-.2 0-.5-.2-1.4-1.1l-.2-.2c-.4-.3-.8-.7-1.2-.9-.8-.5-1.5-1.1-2.1-1.9-.1-.1-.1-.2 0-.2.1-.1.2-.1.2 0 .6.7 1.2 1.3 2 1.8.4.3.9.6 1.2.9.1.1.2.1.2.2.4.4.8.7 1.2 1 .1 0 .2.1.2.2.1 0 0 .2-.1.2"/></defs><clipPath id="SVGID_78_"><use xlink:href="#SVGID_77_" overflow="visible"/></clipPath><g clip-path="url(#SVGID_78_)"><defs><path id="SVGID_79_" d="M-1108.4-1058.1h1600v3428h-1600z"/></defs><clipPath id="SVGID_80_"><use xlink:href="#SVGID_79_" overflow="visible"/></clipPath><g clip-path="url(#SVGID_80_)"><path class="st37" d="M93.9 55.1H109v14.4H93.9z"/></g></g><defs><path id="SVGID_81_" d="M97 55.9c-.1 0-.2-.1-.2-.1.1-2.8 2.8-5.7 7.8-6 .1 0 .2.1.2.1 0 .1-.1.2-.1.2-4.7.2-7.3 3-7.4 5.6-.1.1-.2.1-.3.2"/></defs><clipPath id="SVGID_82_"><use xlink:href="#SVGID_81_" overflow="visible"/></clipPath><g clip-path="url(#SVGID_82_)"><defs><path id="SVGID_83_" d="M-1108.4-1058.1h1600v3428h-1600z"/></defs><clipPath id="SVGID_84_"><use xlink:href="#SVGID_83_" overflow="visible"/></clipPath><g clip-path="url(#SVGID_84_)"><path class="st37" d="M91.8 44.7h18v16.1h-18z"/></g></g><defs><path id="SVGID_85_" d="M125.3 81.7c-.1 0-.2-.1-.2-.1 0-.1 0-.2.1-.2 4-.8 5.8-5.6 7-8.8.6-1.6 1-2.7 1.5-2.9.5-.2 1-.4 1.6-.5.3-.1.5-.1.8-.2-.4-.3-.8-.7-1.1-1.2-.2-.4-.5-.8-.8-1.1-.3-.3-.5-.7-.8-1-1-1.3-2.1-2.6-3.3-3.8-3.2-3-6.7-5.7-10.4-8.1-2.3-1.5-4.8-2.7-7.4-3.8-1.5-.7-2.9-1.3-4.2-2-2.9-1.5-5.9-2.6-9-3.4-1.4-.4-2.8-.6-4.2-.7-.8-.1-1.8-.1-2.6-.3-.1 0-.1-.1-.1-.2s.1-.1.2-.1c.8.1 1.7.2 2.6.3 1.4.1 2.9.3 4.3.7 3.1.8 6.2 2 9.1 3.5 1.3.7 2.7 1.3 4.2 2 2.6 1 5.1 2.3 7.4 3.8 3.7 2.4 7.3 5.1 10.5 8.1 1.2 1.2 2.3 2.4 3.3 3.8.3.3.5.7.8 1 .3.4.6.7.8 1.1.3.4.6.8 1 1.1.1.1.2.2.2.4-.1.2-.4.3-1.1.5-.5.1-1 .3-1.5.5-.4.2-.8 1.3-1.3 2.7-1.4 3.1-3.2 8-7.4 8.9z"/></defs><clipPath id="SVGID_86_"><use xlink:href="#SVGID_85_" overflow="visible"/></clipPath><g clip-path="url(#SVGID_86_)"><defs><path id="SVGID_87_" d="M-1108.4-1058.1h1600v3428h-1600z"/></defs><clipPath id="SVGID_88_"><use xlink:href="#SVGID_87_" overflow="visible"/></clipPath><g clip-path="url(#SVGID_88_)"><path class="st37" d="M87.2 38.3h54.3v48.5H87.2z"/></g></g><defs><path id="SVGID_89_" d="M138.1 86.9c-.1 0-.2-.1-.2-.2.5-3.5-.5-14.9-2.3-17.3-.1-.1-.1-.2 0-.2.1-.1.2-.1.2 0 1.8 2.5 2.8 13.9 2.4 17.6 0 0 0 .1-.1.1"/></defs><clipPath id="SVGID_90_"><use xlink:href="#SVGID_89_" overflow="visible"/></clipPath><g clip-path="url(#SVGID_90_)"><defs><path id="SVGID_91_" d="M-1108.4-1058.1h1600v3428h-1600z"/></defs><clipPath id="SVGID_92_"><use xlink:href="#SVGID_91_" overflow="visible"/></clipPath><g clip-path="url(#SVGID_92_)"><path class="st37" d="M130.6 64.1h12.8v27.8h-12.8z"/></g></g><defs><path id="SVGID_93_" d="M131.1 94.1c-.1 0-.2-.1-.2-.1-.5-2.8-1.5-5.6-3-8-.1-.1-.2-.3-.3-.4-3.2-5.2-7.6-9.5-12.9-12.7-.1 0-.1-.1-.1-.2s.1-.1.2-.1c5.3 3.2 9.8 7.5 13 12.8.1.1.2.3.2.4 1.5 2.5 2.6 5.2 3 8.1.2.1.2.1.1.2-.1 0 0 0 0 0"/></defs><clipPath id="SVGID_94_"><use xlink:href="#SVGID_93_" overflow="visible"/></clipPath><g clip-path="url(#SVGID_94_)"><defs><path id="SVGID_95_" d="M-1108.4-1058.1h1600v3428h-1600z"/></defs><clipPath id="SVGID_96_"><use xlink:href="#SVGID_95_" overflow="visible"/></clipPath><g clip-path="url(#SVGID_96_)"><path class="st37" d="M109.7 67.6h26.5v31.5h-26.5z"/></g></g><defs><path id="SVGID_97_" d="M57 32.8c-.1 0-.1 0 0 0-1.8-1-3.3-1.9-4.6-2.5-2.3-1-4.8-1.8-7.2-2.5-4.8-1.1-14.2-2.3-32.4-2-.1 0-.2 0-.2-.1v-.1c0-.1.1-.2.2-.2 18.2-.3 27.7.9 32.4 2 2.5.6 4.9 1.5 7.3 2.5 1.3.6 2.8 1.4 4.5 2.5.1 0 .1.1.1.2s-.1.2-.1.2"/></defs><clipPath id="SVGID_98_"><use xlink:href="#SVGID_97_" overflow="visible"/></clipPath><g clip-path="url(#SVGID_98_)"><defs><path id="SVGID_99_" d="M-1108.4-1058.1h1600v3428h-1600z"/></defs><clipPath id="SVGID_100_"><use xlink:href="#SVGID_99_" overflow="visible"/></clipPath><g clip-path="url(#SVGID_100_)"><path class="st37" d="M7.6 20.4h54.5v17.4H7.6z"/></g></g><g><defs><path id="SVGID_101_" d="M27.2 61.7c-.1 0-.2-.1-.2-.1 0-.1.1-.2.1-.2l9.1-.5c13.7-.7 39.9-1 48.4-.9.7 0 1.1-.2 1.3-.5s.1-1.8-3.2-5.5v-.2c.1-.1.2-.1.2 0 2.6 2.9 3.7 4.9 3.2 5.9-.2.5-.7.7-1.6.7-8.5-.1-34.7.2-48.4.9l-8.9.4z"/></defs><clipPath id="SVGID_102_"><use xlink:href="#SVGID_101_" overflow="visible"/></clipPath><g clip-path="url(#SVGID_102_)"><defs><path id="SVGID_103_" d="M-1108.4-1058.1h1600v3428h-1600z"/></defs><clipPath id="SVGID_104_"><use xlink:href="#SVGID_103_" overflow="visible"/></clipPath><g clip-path="url(#SVGID_104_)"><path class="st37" d="M22.1 48.6h69.4v18H22.1z"/></g></g></g><g><defs><path id="SVGID_105_" d="M119.2 98.5s-.1 0-.1-.1c-.1-.1-.1-.2 0-.2 1.7-2.1 3-4.6 3.9-7.1l.2-.5c.6-1.9 1.5-4.5 1.2-5.3 0-.1-.1-.2-.3-.2-.9 0-1.8.2-2.7.6-4.6 1.4-9.4 2.3-14.2 2.7-18.9 1.7-25.7 1.8-40.7 2H62c-.1 0-.2-.1-.2-.2s.1-.2.2-.2h4.4c14.9-.2 21.7-.3 40.7-2 4.8-.4 9.5-1.3 14.2-2.7.9-.4 1.9-.6 2.9-.6.2 0 .4.2.5.4.3.9-.5 3.4-1.2 5.5l-.2.5c-.9 2.7-2.3 5.2-4.1 7.4.1-.1.1-.1 0 0"/></defs><clipPath id="SVGID_106_"><use xlink:href="#SVGID_105_" overflow="visible"/></clipPath><g clip-path="url(#SVGID_106_)"><defs><path id="SVGID_107_" d="M-1108.4-1058.1h1600v3428h-1600z"/></defs><clipPath id="SVGID_108_"><use xlink:href="#SVGID_107_" overflow="visible"/></clipPath><g clip-path="url(#SVGID_108_)"><path class="st37" d="M56.9 79.7h72.9v23.8H56.9z"/></g></g></g><g><defs><path id="SVGID_109_" d="M67.5 92.7h-1.6c-.1 0-.2-.1-.2-.2s.1-.2.2-.2c16.7.1 40.5-.9 58.5-5.7.1 0 .2 0 .2.1s0 .2-.1.2c-17.6 4.7-40.4 5.8-57 5.8"/></defs><clipPath id="SVGID_110_"><use xlink:href="#SVGID_109_" overflow="visible"/></clipPath><g clip-path="url(#SVGID_110_)"><defs><path id="SVGID_111_" d="M-1108.4-1058.1h1600v3428h-1600z"/></defs><clipPath id="SVGID_112_"><use xlink:href="#SVGID_111_" overflow="visible"/></clipPath><g clip-path="url(#SVGID_112_)"><path class="st37" d="M60.7 81.6h68.9v16.1H60.7z"/></g></g></g><g><defs><path id="SVGID_113_" d="M69.9 95.1c-.1 0-.2-.1-.1-.2 0-.1.1-.1.1-.1 18 .1 35.9-1.7 53.6-5.3.1 0 .2 0 .2.1s0 .2-.1.2c-17.7 3.6-35.7 5.3-53.7 5.3"/></defs><clipPath id="SVGID_114_"><use xlink:href="#SVGID_113_" overflow="visible"/></clipPath><g clip-path="url(#SVGID_114_)"><defs><path id="SVGID_115_" d="M-1108.4-1058.1h1600v3428h-1600z"/></defs><clipPath id="SVGID_116_"><use xlink:href="#SVGID_115_" overflow="visible"/></clipPath><g clip-path="url(#SVGID_116_)"><path class="st37" d="M64.8 84.4h63.9V100H64.8z"/></g></g></g><g><defs><path id="SVGID_117_" d="M74.5 97.6c-.1 0-.2-.1-.2-.2s.1-.2.2-.2c16.1-.2 32.2-1.9 48.1-5 .1 0 .2 0 .2.1s0 .2-.1.2c-15.9 3.2-32 4.9-48.2 5.1"/></defs><clipPath id="SVGID_118_"><use xlink:href="#SVGID_117_" overflow="visible"/></clipPath><g clip-path="url(#SVGID_118_)"><defs><path id="SVGID_119_" d="M-1108.4-1058.1h1600v3428h-1600z"/></defs><clipPath id="SVGID_120_"><use xlink:href="#SVGID_119_" overflow="visible"/></clipPath><g clip-path="url(#SVGID_120_)"><path class="st37" d="M69.3 87.2h58.5v15.4H69.3z"/></g></g></g><g><defs><path id="SVGID_121_" d="M80.1 100.1c-.1 0-.2-.1-.2-.2s.1-.2.1-.2c13.8-.6 27.6-2.2 41.2-4.7.1 0 .2 0 .2.1s0 .2-.1.2c-16.6 3.4-34.4 4.4-41.2 4.8"/></defs><clipPath id="SVGID_122_"><use xlink:href="#SVGID_121_" overflow="visible"/></clipPath><g clip-path="url(#SVGID_122_)"><defs><path id="SVGID_123_" d="M-1108.4-1058.1h1600v3428h-1600z"/></defs><clipPath id="SVGID_124_"><use xlink:href="#SVGID_123_" overflow="visible"/></clipPath><g clip-path="url(#SVGID_124_)"><path class="st37" d="M74.9 90h51.6v15.1H74.9z"/></g></g></g><g><defs><path id="SVGID_125_" d="M97.9 64.7c-2.5-1-4.9-1.8-5.8-2-2.6-.8-39.7-.1-64.1 1.3-.1 0-.2-.1-.2-.2s.1-.2.1-.2c24.4-1.3 61.7-2 64.3-1.2.9.3 3.3 1.1 5.8 2 .1 0 .1.1.1.2 0 0-.1.1-.2.1"/></defs><clipPath id="SVGID_126_"><use xlink:href="#SVGID_125_" overflow="visible"/></clipPath><g clip-path="url(#SVGID_126_)"><defs><path id="SVGID_127_" d="M-1108.4-1058.1h1600v3428h-1600z"/></defs><clipPath id="SVGID_128_"><use xlink:href="#SVGID_127_" overflow="visible"/></clipPath><g clip-path="url(#SVGID_128_)"><path class="st37" d="M22.7 57h80.4v12.7H22.7z"/></g></g></g><g><defs><path id="SVGID_129_" d="M59.8 88.5h-1.6c-.1 0-.2-.1-.2-.2s.1-.2.2-.2c7.3 0 16.8-.2 23.6-.5 16.8-.9 33-1.8 37.3-3.6 2.1-.8 3.2-1.9 3.3-3.1.2-2.1-2.4-4.9-7.5-8.1-.1 0-.1-.1-.1-.2s.1-.1.2-.1c5.3 3.3 7.9 6.1 7.7 8.4-.1 1.4-1.3 2.5-3.5 3.4-4.3 1.7-20.5 2.7-37.4 3.6-6.3.4-15 .6-22 .6"/></defs><clipPath id="SVGID_130_"><use xlink:href="#SVGID_129_" overflow="visible"/></clipPath><g clip-path="url(#SVGID_130_)"><defs><path id="SVGID_131_" d="M-1108.4-1058.1h1600v3428h-1600z"/></defs><clipPath id="SVGID_132_"><use xlink:href="#SVGID_131_" overflow="visible"/></clipPath><g clip-path="url(#SVGID_132_)"><path class="st37" d="M53 67.6h74.7v25.9H53z"/></g></g></g><g><defs><path id="SVGID_133_" d="M92.1 62.6c-.1 0-.1-.1-.2-.1-.2-.9-2.7-3.8-7.2-8.6v-.2c.1-.1.2-.1.2 0 4.6 4.9 7 7.7 7.3 8.7 0 .1 0 .2-.1.2"/></defs><clipPath id="SVGID_134_"><use xlink:href="#SVGID_133_" overflow="visible"/></clipPath><g clip-path="url(#SVGID_134_)"><defs><path id="SVGID_135_" d="M-1108.4-1058.1h1600v3428h-1600z"/></defs><clipPath id="SVGID_136_"><use xlink:href="#SVGID_135_" overflow="visible"/></clipPath><g clip-path="url(#SVGID_136_)"><path class="st37" d="M79.6 48.6h17.6v19H79.6z"/></g></g></g><g><defs><path id="SVGID_137_" d="M57.1 30.9c0 .1-.1.1 0 0-5.4-3.3-11.3-5.4-17.5-6-8.5-.9-17-1.2-25.5-1-.1 0-.2-.1-.1-.2 0-.1.1-.1.1-.1 11.6-.1 19.9.3 25.5 1 6.8.9 11.1 2.3 17.6 6.1.1 0 .1.1.1.2-.1 0-.2.1-.2 0"/></defs><clipPath id="SVGID_138_"><use xlink:href="#SVGID_137_" overflow="visible"/></clipPath><g clip-path="url(#SVGID_138_)"><defs><path id="SVGID_139_" d="M-1108.4-1058.1h1600v3428h-1600z"/></defs><clipPath id="SVGID_140_"><use xlink:href="#SVGID_139_" overflow="visible"/></clipPath><g clip-path="url(#SVGID_140_)"><path class="st37" d="M8.9 18.6h53.3V36H8.9z"/></g></g></g><g><defs><path id="SVGID_141_" d="M58.3 34.4c-.5 0-.9-.3-1.1-.7-.3-.6-.4-1.3-.3-2 0-.8.3-1.5.7-2.1.4-.4 1-.4 1.4-.1.1.1.1.2 0 .2 0 .1-.1.1-.2.1-.3-.2-.7-.2-1 .1-.4.5-.7 1.2-.7 1.9-.1.6 0 1.2.3 1.8.2.4.5.6.9.6.1 0 .2.1.2.2 0-.1-.1 0-.2 0z"/></defs><clipPath id="SVGID_142_"><use xlink:href="#SVGID_141_" overflow="visible"/></clipPath><g clip-path="url(#SVGID_142_)"><defs><path id="SVGID_143_" d="M-1108.4-1058.1h1600v3428h-1600z"/></defs><clipPath id="SVGID_144_"><use xlink:href="#SVGID_143_" overflow="visible"/></clipPath><g clip-path="url(#SVGID_144_)"><path class="st37" d="M51.8 24.4H64v15.1H51.8z"/></g></g></g><g><defs><path id="SVGID_145_" d="M59.4 35.3c-.6-.1-1.1-.5-1.2-1-.2-.7-.3-1.4-.2-2.1.1-.9.5-2.9 1.6-3.1.3 0 .6 0 .9.1.1 0 .2.1.1.2 0 .1-.1.2-.2.1-.3 0-.5-.1-.8-.1-.9.1-1.2 2-1.3 2.8-.1.6 0 1.3.1 1.9.1.5.5.8 1 .8.1 0 .1.1.1.2.1.1.1.2-.1.2"/></defs><clipPath id="SVGID_146_"><use xlink:href="#SVGID_145_" overflow="visible"/></clipPath><g clip-path="url(#SVGID_146_)"><defs><path id="SVGID_147_" d="M-1108.4-1058.1h1600v3428h-1600z"/></defs><clipPath id="SVGID_148_"><use xlink:href="#SVGID_147_" overflow="visible"/></clipPath><g clip-path="url(#SVGID_148_)"><path class="st37" d="M53 24.1h12.7v16.2H53z"/></g></g></g><g><defs><path id="SVGID_149_" d="M63 37.5c-.1 0-.2 0-.3-.1-.5-.4-.4-.9-.3-1.3.3-.8.8-1.6 1.5-2.2.1-.1.2-.1.2 0 .1.1.1.2 0 .2-.6.5-1.1 1.2-1.4 2-.1.5-.1.7.1.9 0 0 .2.1.5-.2l.2-.2c.2-.2.3-.4.5-.5.1-.1.2-.2.4-.2.2-.1.4-.3.6-.5.3-.3.3-1.1.3-1.8v-1c-.1-.3-.2-.5-.3-.8-.1-.2-.2-.3-.2-.5-.2-.6-.5-1.1-.8-1.5-.2-.2-.5-.2-.8-.1h-.5l-.4-.2c-.2-.2-.5-.3-.8-.4-.7-.1-1 .5-1.5 1.6-.1.2-.2.4-.3.7-.4 1.1-.5 2.3-.1 3.5.1.5.5.8 1 .8h.1c.1 0 .1.1.1.2s-.1.1-.2.1h-.1c-.6-.1-1.1-.5-1.3-1.1-.4-1.2-.3-2.6.2-3.8l.3-.6c.4-1.1.8-2 1.8-1.9.3.1.6.3.9.5.1.1.2.1.3.2h.3c.4-.1.8 0 1.1.2.4.5.8 1.1.9 1.7.1.2.1.3.2.5.1.3.2.5.3.8v1.1c.1.7-.1 1.4-.4 2-.2.2-.4.4-.6.5l-.3.2c-.2.1-.3.3-.5.5l-.2.2c0 .4-.2.5-.5.5"/></defs><clipPath id="SVGID_150_"><use xlink:href="#SVGID_149_" overflow="visible"/></clipPath><g clip-path="url(#SVGID_150_)"><defs><path id="SVGID_151_" d="M-1108.4-1058.1h1600v3428h-1600z"/></defs><clipPath id="SVGID_152_"><use xlink:href="#SVGID_151_" overflow="visible"/></clipPath><g clip-path="url(#SVGID_152_)"><path class="st37" d="M54.1 23.7h16.7v18.9H54.1z"/></g></g></g><g><defs><path id="SVGID_153_" d="M61.7 37.1c-.4 0-.7-.2-.8-.5-.3-1.1-.4-2.3-.1-3.4.3-.9.8-1.8 1.4-2.5.1-.1.1-.1.2 0s.1.1 0 .2c-.6.7-1 1.6-1.4 2.4-.3 1.1-.3 2.2.1 3.2.1.2.3.3.5.3s.4-.1.5-.2c.1-.3.2-.5.1-.8 0-.2 0-.4.1-.6.3-1.1.9-2.1 1.7-2.9h.2c.1.1.1.2 0 .2-.8.7-1.4 1.7-1.7 2.7 0 .2-.1.3-.1.5 0 .3-.1.6-.2.9.1.3-.2.5-.5.5"/></defs><clipPath id="SVGID_154_"><use xlink:href="#SVGID_153_" overflow="visible"/></clipPath><g clip-path="url(#SVGID_154_)"><defs><path id="SVGID_155_" d="M-1108.4-1058.1h1600v3428h-1600z"/></defs><clipPath id="SVGID_156_"><use xlink:href="#SVGID_155_" overflow="visible"/></clipPath><g clip-path="url(#SVGID_156_)"><path class="st37" d="M55.5 25.5h13.8v16.6H55.5z"/></g></g></g><g><defs><path id="SVGID_157_" d="M73.6 36.9c-.9-.4-2-.8-2.9-1.1-.9-.3-1.8-.7-2.7-1.1-1.2-.6-2.3-1.6-3-2.8l-.1-.2c-.1-.1-.1-.2 0-.2.1-.1.2-.1.2 0l.1.2c.7 1.1 1.7 2.1 2.9 2.7.9.4 1.7.8 2.6 1.1.9.3 2 .8 2.9 1.1.1 0 .1.1.1.2.1 0 0 .1-.1.1.1 0 0 0 0 0"/></defs><clipPath id="SVGID_158_"><use xlink:href="#SVGID_157_" overflow="visible"/></clipPath><g clip-path="url(#SVGID_158_)"><defs><path id="SVGID_159_" d="M-1108.4-1058.1h1600v3428h-1600z"/></defs><clipPath id="SVGID_160_"><use xlink:href="#SVGID_159_" overflow="visible"/></clipPath><g clip-path="url(#SVGID_160_)"><path class="st37" d="M59.9 26.3h18.9v15.5H59.9z"/></g></g></g><g><defs><path id="SVGID_161_" d="M69.8 42.3c-.1.1-.1.1 0 0-2.5-1.2-4.8-2.9-6.6-4.9v-.2c.1-.1.2-.1.2 0 1.8 2 4 3.6 6.4 4.8.1 0 .1.1.1.2s-.1.2-.1.1"/></defs><clipPath id="SVGID_162_"><use xlink:href="#SVGID_161_" overflow="visible"/></clipPath><g clip-path="url(#SVGID_162_)"><defs><path id="SVGID_163_" d="M-1108.4-1058.1h1600v3428h-1600z"/></defs><clipPath id="SVGID_164_"><use xlink:href="#SVGID_163_" overflow="visible"/></clipPath><g clip-path="url(#SVGID_164_)"><path class="st37" d="M58.1 32.2h16.8v15.2H58.1z"/></g></g></g><g><defs><path id="SVGID_165_" d="M87 43.1s-.1 0 0 0c-.2 0-.2-.1-.2-.2.4-1.1.1-2.2-.7-3-.3-.3-.8-.4-1.1-.2-.4.2-.6.6-.5 1 0 .1-.1.2-.2.2s-.2-.1-.2-.2c0-.5.3-1 .7-1.3.5-.3 1.1-.2 1.5.2 1 .9 1.3 2.3.8 3.5 0 .1-.1.2-.1.2"/></defs><clipPath id="SVGID_166_"><use xlink:href="#SVGID_165_" overflow="visible"/></clipPath><g clip-path="url(#SVGID_166_)"><defs><path id="SVGID_167_" d="M-1108.4-1058.1h1600v3428h-1600z"/></defs><clipPath id="SVGID_168_"><use xlink:href="#SVGID_167_" overflow="visible"/></clipPath><g clip-path="url(#SVGID_168_)"><path class="st37" d="M79.1 34.1h13.3v14H79.1z"/></g></g></g><g><defs><path id="SVGID_169_" d="M85.9 41.7c-.1 0-.1 0-.1-.1-.2-.3-.2-.6-.1-.8 0-.1.1-.1.2-.1s.1.1.1.2c0 .2 0 .4.1.6.1.1.1.2 0 .2-.1-.1-.1-.1-.2 0"/></defs><clipPath id="SVGID_170_"><use xlink:href="#SVGID_169_" overflow="visible"/></clipPath><g clip-path="url(#SVGID_170_)"><defs><path id="SVGID_171_" d="M-1108.4-1058.1h1600v3428h-1600z"/></defs><clipPath id="SVGID_172_"><use xlink:href="#SVGID_171_" overflow="visible"/></clipPath><g clip-path="url(#SVGID_172_)"><path class="st37" d="M80.6 35.6h10.5v11.1H80.6z"/></g></g></g><g><defs><path id="SVGID_173_" d="M83.6 54c-1.8-.1-3.4-.7-4.8-1.7-.1-.1-.1-.2 0-.2 0-.1.1-.1.2-.1 1.4 1 3 1.5 4.6 1.6 1.1 0 3-.3 3.7-1 1.4-1.4 2-4.4.6-7.3 0-.1 0-.2.1-.2s.2 0 .2.1c1.5 3.1.8 6.2-.7 7.7-.8.8-2.7 1.1-3.9 1.1"/></defs><clipPath id="SVGID_174_"><use xlink:href="#SVGID_173_" overflow="visible"/></clipPath><g clip-path="url(#SVGID_174_)"><defs><path id="SVGID_175_" d="M-1108.4-1058.1h1600v3428h-1600z"/></defs><clipPath id="SVGID_176_"><use xlink:href="#SVGID_175_" overflow="visible"/></clipPath><g clip-path="url(#SVGID_176_)"><path class="st37" d="M73.6 40h20.3v19H73.6z"/></g></g></g><g><defs><path id="SVGID_177_" d="M75.8 50.2c-.1 0-.1 0 0 0-1.3-.7-2.3-1.7-2.9-2.9 0-.1 0-.2.1-.2s.2 0 .2.1c.6 1.2 1.6 2.1 2.7 2.8.1 0 .1.1.1.2-.1-.1-.2 0-.2 0"/></defs><clipPath id="SVGID_178_"><use xlink:href="#SVGID_177_" overflow="visible"/></clipPath><g clip-path="url(#SVGID_178_)"><defs><path id="SVGID_179_" d="M-1108.4-1058.1h1600v3428h-1600z"/></defs><clipPath id="SVGID_180_"><use xlink:href="#SVGID_179_" overflow="visible"/></clipPath><g clip-path="url(#SVGID_180_)"><path class="st37" d="M67.8 42h13.1v13.2H67.8z"/></g></g></g><g><defs><path id="SVGID_181_" d="M82.8 51.8c-.1 0-.1 0-.1-.1s0-.2.1-.2c1.1-.7 1.8-1.8 2-3.1 0-.1.1-.2.2-.2s.2.1.2.2c-.3 1.4-1.1 2.7-2.4 3.4"/></defs><clipPath id="SVGID_182_"><use xlink:href="#SVGID_181_" overflow="visible"/></clipPath><g clip-path="url(#SVGID_182_)"><defs><path id="SVGID_183_" d="M-1108.4-1058.1h1600v3428h-1600z"/></defs><clipPath id="SVGID_184_"><use xlink:href="#SVGID_183_" overflow="visible"/></clipPath><g clip-path="url(#SVGID_184_)"><path class="st37" d="M77.6 43.3h12.5v13.5H77.6z"/></g></g></g><g><defs><path id="SVGID_185_" d="M81.5 49.8c-.1 0-.2 0-.3-.1-.2-.1-.3-.2-.4-.5-.3-1-.4-1.3-1.1-1.3-.1 0-.2-.1-.1-.2 0-.1.1-.2.2-.1.9.1 1.2.6 1.4 1.6 0 .1.1.2.2.2.2 0 .5 0 .7-.2.1-.1.2 0 .2 0 0 .1 0 .2-.1.2-.2.3-.4.4-.7.4"/></defs><clipPath id="SVGID_186_"><use xlink:href="#SVGID_185_" overflow="visible"/></clipPath><g clip-path="url(#SVGID_186_)"><defs><path id="SVGID_187_" d="M-1108.4-1058.1h1600v3428h-1600z"/></defs><clipPath id="SVGID_188_"><use xlink:href="#SVGID_187_" overflow="visible"/></clipPath><g clip-path="url(#SVGID_188_)"><path class="st37" d="M74.5 42.6h12.8v12.2H74.5z"/></g></g></g><g><defs><path id="SVGID_189_" d="M78 50.5c-.1 0-.1-.1-.2-.1 0-.1 0-.2.1-.2.4-.2.8-.5.9-1 0-.1.1-.1.2-.1s.1.1.2.2c-.2.5-.6 1-1.2 1.2"/></defs><clipPath id="SVGID_190_"><use xlink:href="#SVGID_189_" overflow="visible"/></clipPath><g clip-path="url(#SVGID_190_)"><defs><path id="SVGID_191_" d="M-1108.4-1058.1h1600v3428h-1600z"/></defs><clipPath id="SVGID_192_"><use xlink:href="#SVGID_191_" overflow="visible"/></clipPath><g clip-path="url(#SVGID_192_)"><path class="st37" d="M72.8 44.1h11.3v11.4H72.8z"/></g></g></g><g><defs><path id="SVGID_193_" d="M81.2 46.4c-.1 0-.1 0-.1-.1s0-.2.1-.2c.4-.3.7-.7.8-1.2 0-.1.1-.2.2-.2s.2.1.2.2c-.1.6-.5 1.2-1.2 1.5.1 0 0 0 0 0"/></defs><clipPath id="SVGID_194_"><use xlink:href="#SVGID_193_" overflow="visible"/></clipPath><g clip-path="url(#SVGID_194_)"><defs><path id="SVGID_195_" d="M-1108.4-1058.1h1600v3428h-1600z"/></defs><clipPath id="SVGID_196_"><use xlink:href="#SVGID_195_" overflow="visible"/></clipPath><g clip-path="url(#SVGID_196_)"><path class="st37" d="M76.1 39.7h11.2v11.7H76.1z"/></g></g></g><g><defs><path id="SVGID_197_" d="M76.2 49.5c-.1 0-.1-.1-.1-.2.2-.7.6-1.3 1.2-1.7.1-.1.2-.1.2 0 .1.1.1.2 0 .2-.6.3-.9.9-1.1 1.5 0 .1 0 .2-.2.2"/></defs><clipPath id="SVGID_198_"><use xlink:href="#SVGID_197_" overflow="visible"/></clipPath><g clip-path="url(#SVGID_198_)"><defs><path id="SVGID_199_" d="M-1108.4-1058.1h1600v3428h-1600z"/></defs><clipPath id="SVGID_200_"><use xlink:href="#SVGID_199_" overflow="visible"/></clipPath><g clip-path="url(#SVGID_200_)"><path class="st37" d="M71.1 42.5h11.5v12H71.1z"/></g></g></g><g><defs><path id="SVGID_201_" d="M79.2 45.3c-.1 0-.2-.1-.2-.2.3-.8.9-1.5 1.6-2 .1-.1.2 0 .2 0 .1.1 0 .2 0 .2-.7.4-1.2 1.1-1.4 1.8l-.2.2"/></defs><clipPath id="SVGID_202_"><use xlink:href="#SVGID_201_" overflow="visible"/></clipPath><g clip-path="url(#SVGID_202_)"><defs><path id="SVGID_203_" d="M-1108.4-1058.1h1600v3428h-1600z"/></defs><clipPath id="SVGID_204_"><use xlink:href="#SVGID_203_" overflow="visible"/></clipPath><g clip-path="url(#SVGID_204_)"><path class="st37" d="M74 38.1h11.9v12.2H74z"/></g></g></g><g><defs><path id="SVGID_205_" d="M85.6 39.4c-.1 0-.1 0-.1-.1-1.2-2.3-4-4.8-5.9-4.6-.1 0-.2-.1-.2-.1 0-.1.1-.2.1-.2 2.2-.3 5.2 2.5 6.3 4.7 0 .2-.1.3-.2.3"/></defs><clipPath id="SVGID_206_"><use xlink:href="#SVGID_205_" overflow="visible"/></clipPath><g clip-path="url(#SVGID_206_)"><defs><path id="SVGID_207_" d="M-1108.4-1058.1h1600v3428h-1600z"/></defs><clipPath id="SVGID_208_"><use xlink:href="#SVGID_207_" overflow="visible"/></clipPath><g clip-path="url(#SVGID_208_)"><path class="st37" d="M74.3 29.4h16.5v15H74.3z"/></g></g></g><g><defs><path id="SVGID_209_" d="M70.5 41.3h-.1c-.1-.1-.1-.2 0-.2.4-.4.7-.8.9-1.3.1-.3.2-.5.4-.7 1.1-1.9 3.2-3.9 5.7-3.8.1 0 .2.1.2.2s-.1.2-.2.2c-2.4-.1-4.4 1.9-5.5 3.7-.1.2-.2.5-.4.7-.2.5-.5 1-.9 1.5 0-.3 0-.3-.1-.3"/></defs><clipPath id="SVGID_210_"><use xlink:href="#SVGID_209_" overflow="visible"/></clipPath><g clip-path="url(#SVGID_210_)"><defs><path id="SVGID_211_" d="M-1108.4-1058.1h1600v3428h-1600z"/></defs><clipPath id="SVGID_212_"><use xlink:href="#SVGID_211_" overflow="visible"/></clipPath><g clip-path="url(#SVGID_212_)"><path class="st37" d="M65.3 30.1h17.2v16.2H65.3z"/></g></g></g><g><defs><path id="SVGID_213_" d="M72.8 48.6c-.8 0-1.6-.5-2-1.2-.8-1.6-.9-3.5-.2-5.2 0-.1.1-.1.2-.1s.1.1.1.2c-.6 1.6-.6 3.4.2 4.9.4.6 1 1 1.7 1 .1 0 .2.1.2.2s-.1.2-.2.2"/></defs><clipPath id="SVGID_214_"><use xlink:href="#SVGID_213_" overflow="visible"/></clipPath><g clip-path="url(#SVGID_214_)"><defs><path id="SVGID_215_" d="M-1108.4-1058.1h1600v3428h-1600z"/></defs><clipPath id="SVGID_216_"><use xlink:href="#SVGID_215_" overflow="visible"/></clipPath><g clip-path="url(#SVGID_216_)"><path class="st37" d="M65.1 37h12.8v16.5H65.1z"/></g></g></g><g><defs><path id="SVGID_217_" d="M76.6 41.6h-.1c-.1-.1-.1-.2 0-.2.8-.8 1.9-1.1 3-.9.8.2 1.7-.1 2.4-.6.1-.1.2-.1.2 0 .1.1.1.2 0 .2-.7.6-1.7.9-2.6.7-1-.2-2 .1-2.7.8h-.2"/></defs><clipPath id="SVGID_218_"><use xlink:href="#SVGID_217_" overflow="visible"/></clipPath><g clip-path="url(#SVGID_218_)"><defs><path id="SVGID_219_" d="M-1108.4-1058.1h1600v3428h-1600z"/></defs><clipPath id="SVGID_220_"><use xlink:href="#SVGID_219_" overflow="visible"/></clipPath><g clip-path="url(#SVGID_220_)"><path class="st37" d="M71.5 34.8h15.7v11.8H71.5z"/></g></g></g><g><defs><path id="SVGID_221_" d="M82.6 41.4c-.2 0-.4-.1-.6-.1-.1 0-.1-.1-.1-.2s.1-.1.2-.1c.4.2.9.1 1.2-.2.1-.1.2-.1.2 0 .1.1.1.2 0 .2-.2.2-.5.4-.9.4"/></defs><clipPath id="SVGID_222_"><use xlink:href="#SVGID_221_" overflow="visible"/></clipPath><g clip-path="url(#SVGID_222_)"><defs><path id="SVGID_223_" d="M-1108.4-1058.1h1600v3428h-1600z"/></defs><clipPath id="SVGID_224_"><use xlink:href="#SVGID_223_" overflow="visible"/></clipPath><g clip-path="url(#SVGID_224_)"><path class="st37" d="M76.9 35.7h11.7v10.7H76.9z"/></g></g></g><g><defs><path id="SVGID_225_" d="M72.5 46.6c-.1 0-.3 0-.4-.1-.1 0-.1-.1-.1-.2s.1-.1.2-.1c.3.1.7 0 1-.4.1-.1.2-.1.2 0 .1.1.1.1 0 .2-.2.4-.5.6-.9.6"/></defs><clipPath id="SVGID_226_"><use xlink:href="#SVGID_225_" overflow="visible"/></clipPath><g clip-path="url(#SVGID_226_)"><defs><path id="SVGID_227_" d="M-1108.4-1058.1h1600v3428h-1600z"/></defs><clipPath id="SVGID_228_"><use xlink:href="#SVGID_227_" overflow="visible"/></clipPath><g clip-path="url(#SVGID_228_)"><path class="st37" d="M67 40.8h11.5v10.8H67z"/></g></g></g><g><defs><path id="SVGID_229_" d="M74.3 44.1c-.3 0-.6-.2-.8-.4-.3-.3-.4-.8-.3-1.2 0-.1.1-.2.2-.1.1 0 .1.1.2.2-.1.4 0 .7.2 1 .1.2.3.3.5.3.1 0 .2.1.2.2h-.2"/></defs><clipPath id="SVGID_230_"><use xlink:href="#SVGID_229_" overflow="visible"/></clipPath><g clip-path="url(#SVGID_230_)"><defs><path id="SVGID_231_" d="M-1108.4-1058.1h1600v3428h-1600z"/></defs><clipPath id="SVGID_232_"><use xlink:href="#SVGID_231_" overflow="visible"/></clipPath><g clip-path="url(#SVGID_232_)"><path class="st37" d="M68.2 37.3h11.3v11.8H68.2z"/></g></g></g><g><defs><path id="SVGID_233_" d="M75.5 42.8h-.1c-.3-.4-.4-.8-.4-1.2.1-.5.4-1 .8-1.3.1-.1.2-.1.2 0 .1.1.1.1 0 .2-.4.2-.6.6-.7 1.1 0 .3.1.6.3.8.1.1.1.2 0 .2 0 .1 0 .2-.1.2"/></defs><clipPath id="SVGID_234_"><use xlink:href="#SVGID_233_" overflow="visible"/></clipPath><g clip-path="url(#SVGID_234_)"><defs><path id="SVGID_235_" d="M-1108.4-1058.1h1600v3428h-1600z"/></defs><clipPath id="SVGID_236_"><use xlink:href="#SVGID_235_" overflow="visible"/></clipPath><g clip-path="url(#SVGID_236_)"><path class="st37" d="M70 35.3h11.1v12.5H70z"/></g></g></g><g><defs><path id="SVGID_237_" d="M122.9 98.1c-.1 0-.1 0 0 0-.1-.1-.2-.1-.1-.2 1.4-2.4 2.5-4.9 3.2-7.6.1-.4.2-.7.3-1.1.4-1.6.8-3.1 1.6-3.6 0-.1.1-.1.2 0s.1.1 0 .2c-.7.4-1.1 1.9-1.5 3.4-.1.4-.2.7-.3 1.1-.3.9-1.6 5.4-3.2 7.7 0 .1-.1.1-.2.1"/></defs><clipPath id="SVGID_238_"><use xlink:href="#SVGID_237_" overflow="visible"/></clipPath><g clip-path="url(#SVGID_238_)"><defs><path id="SVGID_239_" d="M-1108.4-1058.1h1600v3428h-1600z"/></defs><clipPath id="SVGID_240_"><use xlink:href="#SVGID_239_" overflow="visible"/></clipPath><g clip-path="url(#SVGID_240_)"><path class="st37" d="M117.7 80.6h15.4v22.5h-15.4z"/></g></g></g><g><defs><path id="SVGID_241_" d="M89.2 43.6c-.6 0-1.2-.2-1.7-.5-.1 0-.1-.1-.1-.2s.1-.1.2-.1c.5.3 1.1.4 1.7.4.1 0 .2.1.2.2s-.1.2-.3.2c.1 0 .1 0 0 0"/></defs><clipPath id="SVGID_242_"><use xlink:href="#SVGID_241_" overflow="visible"/></clipPath><g clip-path="url(#SVGID_242_)"><defs><path id="SVGID_243_" d="M-1108.4-1058.1h1600v3428h-1600z"/></defs><clipPath id="SVGID_244_"><use xlink:href="#SVGID_243_" overflow="visible"/></clipPath><g clip-path="url(#SVGID_244_)"><path class="st37" d="M82.4 37.8h12.1v10.8H82.4z"/></g></g></g><g><defs><path id="SVGID_245_" d="M96.9 64.3c-.1 0-.1 0-.2-.1-.4-.6-1-1.1-1.6-1.5-.5-.4-1-.8-1.4-1.3-.3-.5-.5-1-.6-1.5-.1-.5-.3-.9-.5-1.3-.2-.3-.5-.6-.8-.8-.6-.4-1-1-1.2-1.8-.1-.7-.1-1.5 0-2.2v-1.6c.1-1.6 0-3.2-.2-4.8-.1-1.6-.6-3.1-1.5-4.3-.1-.1-.1-.2 0-.2.1-.1.2-.1.2 0 1 1.3 1.5 2.9 1.6 4.5.2 1.6.3 3.2.2 4.9v.3c0 .4 0 .9-.1 1.3-.1.7-.1 1.5 0 2.2.2.6.5 1.2 1.1 1.6l.9.9c.3.4.5.9.6 1.4.1.5.3.9.5 1.4.4.5.8.9 1.4 1.2.7.4 1.2 1 1.7 1.6.1.1.1.2 0 .2 0-.1 0-.1-.1-.1"/></defs><clipPath id="SVGID_246_"><use xlink:href="#SVGID_245_" overflow="visible"/></clipPath><g clip-path="url(#SVGID_246_)"><defs><path id="SVGID_247_" d="M-1108.4-1058.1h1600v3428h-1600z"/></defs><clipPath id="SVGID_248_"><use xlink:href="#SVGID_247_" overflow="visible"/></clipPath><g clip-path="url(#SVGID_248_)"><path class="st37" d="M83.9 37.6h18.2v31.6H83.9z"/></g></g></g><g><defs><path id="SVGID_249_" d="M90.7 55.9s-.1 0-.1-.1c-.1-.1-.1-.2 0-.2.9-1.2 1.1-1.2 1.9-.9.2.1.4.1.5.1 1.2.3 1.7.3 1.8.2-.1-1.1-.3-2.1-.7-3.1-.3-.9-.7-2.9-1.2-4.8-.3-1.6-.7-3.1-.8-3.6-.2-.5-.3-.4-.8-.4-.5.1-1.1 0-1.5-.3-.5-.3-1.1.1-1.4.4-.1.1-.2.1-.2 0-.1-.1-.1-.2 0-.2.7-.6 1.3-.8 1.8-.4.4.3.8.3 1.3.2.4-.1.9-.2 1.2.6.2.5.5 2 .8 3.6.4 1.8.9 3.8 1.1 4.7.4 1.2.9 3 .7 3.4s-1.3.2-2.2 0c-.2 0-.4-.1-.5-.2-.7-.2-.8-.2-1.6.8.1.2 0 .2-.1.2"/></defs><clipPath id="SVGID_250_"><use xlink:href="#SVGID_249_" overflow="visible"/></clipPath><g clip-path="url(#SVGID_250_)"><defs><path id="SVGID_251_" d="M-1108.4-1058.1h1600v3428h-1600z"/></defs><clipPath id="SVGID_252_"><use xlink:href="#SVGID_251_" overflow="visible"/></clipPath><g clip-path="url(#SVGID_252_)"><path class="st37" d="M83.2 37.5h17.1v23.4H83.2z"/></g></g></g><g><defs><path id="SVGID_253_" d="M89.3 53.4c-.7-.1-1.4-.3-2.1-.5-.1 0-.1-.1-.1-.2s.1-.1.2-.1c.6.2 1.3.4 2 .5.1 0 .2.1.2.2 0 0-.1.1-.2.1"/></defs><clipPath id="SVGID_254_"><use xlink:href="#SVGID_253_" overflow="visible"/></clipPath><g clip-path="url(#SVGID_254_)"><defs><path id="SVGID_255_" d="M-1108.4-1058.1h1600v3428h-1600z"/></defs><clipPath id="SVGID_256_"><use xlink:href="#SVGID_255_" overflow="visible"/></clipPath><g clip-path="url(#SVGID_256_)"><path class="st37" d="M82.1 47.5h12.4v10.9H82.1z"/></g></g></g><g><defs><path id="SVGID_257_" d="M89.5 59.1h-.1c-2.1-2.4-3.3-3.7-3.4-5.6 0-.1.1-.2.2-.2s.2.1.2.2c.1 1.7 1.3 3 3.3 5.4.1.1.1.2 0 .2h-.2"/></defs><clipPath id="SVGID_258_"><use xlink:href="#SVGID_257_" overflow="visible"/></clipPath><g clip-path="url(#SVGID_258_)"><defs><path id="SVGID_259_" d="M-1108.4-1058.1h1600v3428h-1600z"/></defs><clipPath id="SVGID_260_"><use xlink:href="#SVGID_259_" overflow="visible"/></clipPath><g clip-path="url(#SVGID_260_)"><path class="st37" d="M81 48.3h13.7v15.8H81z"/></g></g></g><g><defs><path id="SVGID_261_" d="M88.9 55c-.5 0-.9-.2-1.2-.7 0-.1 0-.2.1-.2.1-.1.2 0 .2 0 .2.4.7.6 1.1.5.8-.2 1.3-.8 1.5-1.5 0-.1.1-.1.2-.1s.1.1.1.2c-.3.9-.9 1.5-1.8 1.8h-.2z"/></defs><clipPath id="SVGID_262_"><use xlink:href="#SVGID_261_" overflow="visible"/></clipPath><g clip-path="url(#SVGID_262_)"><defs><path id="SVGID_263_" d="M-1108.4-1058.1h1600v3428h-1600z"/></defs><clipPath id="SVGID_264_"><use xlink:href="#SVGID_263_" overflow="visible"/></clipPath><g clip-path="url(#SVGID_264_)"><path class="st37" d="M82.7 48H96v12H82.7z"/></g></g></g><g><defs><path id="SVGID_265_" d="M109.5 71.4c-.2 0-.2-.1-.2-.2 1.4-2.3 1.2-3.9.8-4.8-.4-1-1.2-1.7-2.2-2-.1 0-.1-.1-.2-.2 0-.1.1-.1.2-.1 1.1.3 2.1 1.1 2.5 2.2.4 1 .6 2.7-.8 5.2.1-.1 0-.1-.1-.1"/></defs><clipPath id="SVGID_266_"><use xlink:href="#SVGID_265_" overflow="visible"/></clipPath><g clip-path="url(#SVGID_266_)"><defs><path id="SVGID_267_" d="M-1108.4-1058.1h1600v3428h-1600z"/></defs><clipPath id="SVGID_268_"><use xlink:href="#SVGID_267_" overflow="visible"/></clipPath><g clip-path="url(#SVGID_268_)"><path class="st37" d="M102.9 59h13v17.4h-13z"/></g></g></g><g><defs><path id="SVGID_269_" d="M112.3 72.6c-.4-.1-.7-.2-1-.4-.2-.2-.5-.3-.7-.4-.2-.1-.4-.1-.6-.1-.5-.1-.9-.2-.9-1.1 0-.1.1-.2.2-.2s.2.1.2.2c0 .7.2.7.6.7.2 0 .4.1.6.1.3.1.5.3.8.4.3.2.6.3.9.4.7 0 1.1-.9 1.3-1.4.7-1.9.5-4-.6-5.7-.3-.5-.8-1-1.3-1.3-.3-.1-.6-.1-.9.1-.3.2-.6.2-.9.2-.3 0-.5-.1-.7-.2-.4-.2-.7-.3-1.1-.1-.2.2-.5.4-.7.7-.1.1-.2.1-.2 0-.1-.1-.1-.1 0-.2.2-.3.5-.5.7-.7.4-.3 1-.3 1.4 0 .2.1.4.2.6.2.3 0 .5-.1.7-.2.4-.2.8-.3 1.2-.1.6.3 1.1.8 1.4 1.4 1.1 1.8 1.3 4 .6 5.9-.4 1.1-1 1.7-1.6 1.7"/></defs><clipPath id="SVGID_270_"><use xlink:href="#SVGID_269_" overflow="visible"/></clipPath><g clip-path="url(#SVGID_270_)"><defs><path id="SVGID_271_" d="M-1108.4-1058.1h1600v3428h-1600z"/></defs><clipPath id="SVGID_272_"><use xlink:href="#SVGID_271_" overflow="visible"/></clipPath><g clip-path="url(#SVGID_272_)"><path class="st37" d="M102.2 58.3h17.2v19.2h-17.2z"/></g></g></g><g><defs><path id="SVGID_273_" d="M135.8 78.6c-.1 0-.2-.1-.2-.1-.1-.3-.1-.6-.1-.8 0-.3-.1-.5-.2-.8-.2-.4-.4-.7-.7-.9l-.9-.9c-.4-.6-.6-1.2-.8-1.9 0-.1 0-.2.1-.2s.2 0 .2.1c.1.6.4 1.2.8 1.8.2.3.5.6.8.8.4.3.7.6.8 1.1.1.3.2.6.2.8 0 .3.1.5.1.8.1.1.1.2-.1.2"/></defs><clipPath id="SVGID_274_"><use xlink:href="#SVGID_273_" overflow="visible"/></clipPath><g clip-path="url(#SVGID_274_)"><defs><path id="SVGID_275_" d="M-1108.4-1058.1h1600v3428h-1600z"/></defs><clipPath id="SVGID_276_"><use xlink:href="#SVGID_275_" overflow="visible"/></clipPath><g clip-path="url(#SVGID_276_)"><path class="st37" d="M127.9 68H141v15.7h-13.1z"/></g></g></g><g><defs><path id="SVGID_277_" d="M75.5 28.7s-1.4-1.2-2 0 2.1 2.4 2.8 2.2 1.7-3 .7-3.5-1.5 1.3-1.5 1.3"/></defs><clipPath id="SVGID_278_"><use xlink:href="#SVGID_277_" overflow="visible"/></clipPath><g clip-path="url(#SVGID_278_)"><defs><path id="SVGID_279_" d="M-1108.4-1058.1h1600v3428h-1600z"/></defs><clipPath id="SVGID_280_"><use xlink:href="#SVGID_279_" overflow="visible"/></clipPath><g clip-path="url(#SVGID_280_)"><path class="st150" d="M68.5 22.4h13.9V36H68.5z"/></g></g></g><g><defs><path id="SVGID_281_" d="M76.2 18.6s-.5-1.2-1.2-.6.6 2.1 1.1 2.1c.4.1 1.8-1.4 1.4-2s-1.3.5-1.3.5"/></defs><clipPath id="SVGID_282_"><use xlink:href="#SVGID_281_" overflow="visible"/></clipPath><g clip-path="url(#SVGID_282_)"><defs><path id="SVGID_283_" d="M-1108.4-1058.1h1600v3428h-1600z"/></defs><clipPath id="SVGID_284_"><use xlink:href="#SVGID_283_" overflow="visible"/></clipPath><g clip-path="url(#SVGID_284_)"><path class="st150" d="M69.8 12.9h12.7v12.3H69.8z"/></g></g></g><g><defs><path id="SVGID_285_" d="M80.1 23.3s-.2-1.6-1.2-1.1 0 2.6.5 2.9 2.6-.9 2.3-1.8c-.4-.9-1.6 0-1.6 0"/></defs><clipPath id="SVGID_286_"><use xlink:href="#SVGID_285_" overflow="visible"/></clipPath><g clip-path="url(#SVGID_286_)"><defs><path id="SVGID_287_" d="M-1108.4-1058.1h1600v3428h-1600z"/></defs><clipPath id="SVGID_288_"><use xlink:href="#SVGID_287_" overflow="visible"/></clipPath><g clip-path="url(#SVGID_288_)"><path class="st150" d="M73.4 17.1h13.2v13H73.4z"/></g></g></g></g></g></svg>