<svg version="1.1" id="Layer_1" xmlns="http://www.w3.org/2000/svg" x="0" y="0" viewBox="0 0 328 174" xml:space="preserve" enable-background="new 0 0 328 174"><style>.st0,.st1,.st2,.st4,.st5{fill-rule:evenodd;clip-rule:evenodd;fill:#c7d3e0}.st1,.st2,.st4,.st5{fill:#384154}.st2,.st4,.st5{fill:#dbab82}.st4,.st5{fill:#fff}.st5{fill:#002f57}</style><g id="Page-1"><g id="Register-Screen" transform="translate(-1062 -890)"><g id="Group-196" transform="translate(1062 890)"><path id="Fill-1" class="st0" d="M151.3 97C95 97 39 94.8.3 88.7c-.2 0-.4-.2-.3-.4 0-.2.2-.3.5-.3 85.3 13.3 255 8 326.1 1.3.2 0 .4.1.4.3 0 .2-.1.4-.4.4-38.8 3.8-107.3 7-175.3 7"/><path id="Fill-3" class="st0" d="M211.8 76c-.9 0-1.6-.3-2-.7-.6-.6-.9-1.7-.8-3.1.2-2.3 1.5-5.4 3.9-7.2 1.7-1.3 2.1-2.7 2.5-3.9.3-1.1.7-2.1 1.8-2.8.6-.3 2.2-.9 3.7 1.4.1.2 0 .4-.1.5-.2.1-.4.1-.6-.1-.8-1.3-1.7-1.7-2.6-1.2-.9.5-1.1 1.3-1.4 2.3-.4 1.3-.9 2.9-2.8 4.3-2.2 1.6-3.4 4.6-3.5 6.6-.1 1.1.1 2.1.6 2.5.7.7 2.8.8 4.9-1.1.2-.1.4-.1.6 0 .2.2.1.4 0 .6-1.6 1.4-3 1.9-4.2 1.9"/><path id="Fill-5" class="st0" d="M215.6 60c-.1 0-.2 0-.2-.1-.9-.6-2.1-1.1-3.3-1.7-1-.5-2.1-1-3-1.5-.5-.3-1.2-.8-2-1.4-1.8-1.3-4.4-3.1-6.9-4.1-3.4-1.3-6.2-1.5-9.2-1.7-2.1-.2-4.2-.3-6.7-.9-.2 0-.3-.2-.3-.5 0-.2.3-.3.5-.3 2.4.5 4.5.7 6.6.8 3.1.2 5.9.5 9.5 1.8 2.7 1 5.2 2.8 7.1 4.2.8.5 1.4 1 1.9 1.3.8.5 1.9 1 2.9 1.5 1.2.6 2.4 1.1 3.4 1.7.2.1.2.4.1.5-.1.3-.3.4-.4.4"/><path id="Fill-7" class="st0" d="M126.4 71c-.1 0-.2-.1-.3-.2-.1-.2-.1-.4.1-.6.9-.6 2.3-2.2 4-3.9 2.6-2.8 5.7-6.2 9-8.4 4.9-3.3 10.9-5.4 17.4-5.9.2 0 .4.1.4.4 0 .2-.1.4-.4.4-6.4.5-12.3 2.5-17.1 5.8-3.2 2.2-6.3 5.6-8.9 8.3-1.7 1.9-3.1 3.4-4.1 4.1h-.1"/><path id="Fill-9" class="st1" d="M148.6 156c-.2 0-.3-.1-.4-.3-.4-2.1-1.4-3.4-2.3-4.8-1.4-2.1-2.9-4.2-2.9-8.7 0-6.7 1.4-10.2 2.8-13.6.2-.4.4-.9.5-1.3.1-.2.3-.3.5-.2.2.1.3.3.2.5-.2.4-.4.9-.5 1.3-1.4 3.3-2.8 6.7-2.8 13.3 0 4.3 1.3 6.2 2.8 8.3 1 1.4 2 2.9 2.5 5.1 0 .1-.1.3-.4.4.1 0 0 0 0 0"/><path id="Fill-11" class="st1" d="M179.4 172h-.2c-.2-.1-.3-.3-.2-.5l2.1-4.2c.1-.2.4-.3.6-.2.2.1.3.3.2.5l-2.1 4.2c0 .1-.2.2-.4.2"/><path id="Fill-13" class="st0" d="M180.6 32c-.2 0-.4-.1-.4-.3L175 3.5c0-.2.1-.4.3-.5.2 0 .4.1.5.3l5.2 28.2c0 .2-.1.5-.4.5"/><path id="Fill-15" class="st2" d="M156 46.9c0-.4 1.1-.4 1.5-.6 1.1-.6 1.8-1 2.7-1.9 1.5-1.7 1.9-4.7 2.1-6.9.2-2.1.2-3.8-.1-5.9-.2-1.1-.7-1.1-1.5-1.8-1.7-1.5-2.5-4-1.3-6.1.5-.9 1.6-1.2 2.2-2.1 1.4-2 2.3-4.2 3.9-6 2.9-3.2 8.2-7 12.9-5.3 1.3.5 2.1.1 3.1.9 1.2 1 2.4 4 2.8 5.6.5 1.9.7 4.9.7 8.1-.1 3.2-1 7.1-1.9 9.7-.3.9-.7 2-1.4 2.7-.5.5-1.8 1.6-1.8 1.6l-.5 2.6s.1.6.8 1.2c.7.7 2.1 1.2 2.1 1.2s-.1 5.4-1 7.6c-2.6 6.1-11.5 9.4-17.4 6.1-2.9-1.7-4.7-4.2-6.5-7-.5-.8-.7-1.7-1.1-2.6 0-.3-.3-.8-.3-1.1"/><path id="Fill-17" d="M184.3 18.4s.6 0 1.2-.6c.4-.4.7-1.3.8-1.7.1-.4 0-1.7.2-2.2.2-.5.6-.5.5-.9-.2-.6-1.2-.4-1.4-.9-.1-.3.3-.5 0-.8-.1-.2-.7.2-1-.1-.3-.2-.1-.9-.2-1-.3-.3-.3-.9-.7-1.3-.3-.3-1-.1-1.4-.4-.5-.4-.7-1.2-1.2-1.6-.3-.2-.5 0-.8-.1-.3-.1-.3-.5-.5-.7-.3-.2-.7 0-1-.2-.4-.3-.4-.8-.9-1-.3-.1-.8 0-1.1-.1-.4-.1-.1-.5-.7-.8-.6-.3-1 .2-1.4 0-.6-.2-1.4-1-2-1.1-.6-.1-.7.4-1.2.6-.4.2-1.2-.5-1.7-.5-.7-.1-.8.4-1.3.5-.8.1-1.4-.6-2.2-.4-.5.1-.4.8-.6 1.1-.1.3-.4.3-.7.4-.7.2-1.1-.8-1.8-.6-.7.2-.4.9-.8 1.2-.3.3-.8-.5-1.3-.3s0 1.1-.5 1.2c-.4.1-1.1-.2-1.5-.1-.3.1-.3.8-.5 1-.3.4-.8.3-1.1.7-.6.8-.1 1.9-.5 2.7-.2.4-.6.6-.7 1-.2.4-.1.9-.3 1.2-.1.3-.5.4-.5.7-.1.3.4 1 .2 1.2-.3.3-.7.1-.8.8-.1.6.6 1.1.7 1.6.1.3-.6.6-.5 1 .1.4.8 1.2.9 1.7.2.7-.7.9-.6 1.6.1.6 1.1.7 1.4 1.3.3.9-.6 1 .1 1.8.1.1.9 1.6 1.1 1.6.4 0 .8-1.2 1.2-1.4.9-.3 2-.2 2.8-.6.5-.3.3-.7.6-1 .1-.2.4-.2.5-.4.1-.2.1-.5.1-.7.1-.2.8 0 1-.1.4-.3.1-.9.5-1.2.3-.2.9 0 1.1-.4.3-.6.2-1.2.1-1.8 0-.2-.1-.6.1-.7.4-.3 1-.1 1.4-.4.3-.2.2-1.1.6-1.4.3-.3 1-.1 1.3-.4.4-.4.1-1.2.5-1.5.5-.4 1.1.4 1.6.1.8-.4.1-2.2 1.2-2.4.5-.1 1.1.4 1.6.3.5-.1.6-.7 1.3-.6.8.1 1.3.7 2.1.8.6.1 1.2-.2 1.7 0s.6.7 1.3.8c.4 0 1-.2 1.2.1 1.5 1.4 2.5 5.4 2.5 5.4" fill-rule="evenodd" clip-rule="evenodd" fill="#95715a"/><path id="Fill-19" class="st2" d="M218.7 58.2s4.2 2.7 5.5 3.4c1.2.6 2.4 1.2 3.5 1.8 1.8 1 3.4 2.6 5.4 3.1 1.1.3 3.5-.3 4.6-.7 1.3-.4 2.2-1.2 2.6-1.8.4-.6 1.7-2.4 1.7-2.4s-1.2-.5-1.5-1.3c-.1-.4-.3-1-.3-1s-.4-.1-.9-1c-.1-.2-.3-1.2-.3-1.2s-.8-.3-1.3-1.5c-.6-1.5-1-4-1-5 0-.6.1-1.2.2-1.8.1-1-.5-3.3 1-3.6 1-.2 2 1.3 2.5 1.9.2.3.6.8.6.8s1.6-.7 2.3-.9c1-.3 2.2.1 3 .5 2.1 1.1 5 3.5 5.5 6 .2.9-.1 1.7 0 2.6.1.9.4 2.8.3 3.7-.2 2-1.5 2.7-1.7 4.7-.4 4.1-.1 9.2-2.3 12.9-1 1.7-3.2 3.1-4.9 4-.9.5-2.3.6-3.3.7-3.9.3-7.7-.5-11.4-1.9-1.1-.4-2.1-1-3.1-1.5-3.3-1.4-7.1-3.7-9.8-5.9-1.3-1.1-4.7-3.3-4.7-3.3s0-.1-.3-.8c-.7-1.4-.2-2.6.3-3.9.8-2.2 1.8-4.1 3.9-5.3.9-.6 1.9-1 3-1.1 0-.3.9-.2.9-.2"/><path id="Fill-21" class="st2" d="M146.4 176s.3-1.5.4-2.1c.3-1.5.6-2.9.9-4.3.2-.6.6-2.5.6-2.5s-1-1.9-1.6-2.7c-1-1.4-2.1-3-2.8-4.5-.2-.5-1.2-1.6-1-2.1.3-1 1.4-2 2.2-2.6 2.2-1.7 4.9-2.9 7.6-3.7 5.3-1.5 11.8-2.6 16.5.9 1 .7 2.1 1.5 2.8 2.6 1.7 2.8 2.5 6.3 4.4 8.9.5.7 1.2 1.4 1.9 2 .5.4 2.6.8 2.6.8l-2.4 4.8.4 2c.1.5-8.5 1.6-17.4 2.2-6.7.4-15.1.3-15.1.3"/><path id="Fill-23" class="st2" d="M118.7 126.6c-1.1-.2-.7 2.1-.7 2.2-.2 1.1.5 3.2 1.6 3.4 1.1.2 1-.8 1-.8s-.8-4.7-1.9-4.8m6.8-61.6s2.2 2.4 3 3.2c1.9 1.7 3.6 4.5 4.3 7 .3 1 .1 3.3.1 3.3s-5.1 3.2-5.9 3.8c-1.5 1-3.7 1.5-4.5 3.3-.3.7 0 1.7-.1 2.4-.3 1.8-.6 3.1-1 4.9-.6 2.7-1.4 5.3-2.3 8-.9 2.6-1.6 5.8-2.2 8.5-.8 3.9.2 7.3 2.1 10.6.9 1.5 2.9 3.1 3.5 4.8.5 1.3.1 1.9.3 3.3.1 1 1.4 2.8 1.2 3.8-.1.9-1 .9-1 .9s-.7 1.5-1.7 2.3c-.6.5-1.3.5-1.3.5s-1.8.9-3.8 1.3c-1.5.3-2.9.3-4.1.1-1.2-.2-2.1-.5-2.8-1.5-1.2-1.9-2.3-4-2.5-6.4-.1-2 .9-5.3 1.3-7.3.3-1.6.4-7.6 0-9.8-.3-1.5-.4-4.8-.6-6.3-.3-2.1-.4-5-.4-7.1 0-6.5.9-11.8 3.4-17.9.6-1.6 1.9-3.5 3.1-4.7 1.3-1.3 2.9-3.2 3.8-3.7.8-.6 2.2-1.8 3.2-2.7 1.3-1.3 4.9-4.6 4.9-4.6"/><path id="Fill-25" class="st4" d="M175 31s3.3.9 4.9.8c.4 0 2.1-.2 2.1-.2s-.5 1.5-.6 1.7c-.6 1.2-1.1 1.5-2.5 1.7-1.6.2-3-1-3.6-2.4-.3-.5-.3-1.6-.3-1.6"/><path id="Fill-27" class="st4" d="M149.1 102.8c0-2.4-.9-5.2-1.8-8.8-.5-2.3-1.1-6.6-1.6-8.7-.5-2.1-1.1-8.6-1.8-9-.8-.4-2.7.8-4.1 1.8-1.1.8-2.4 1.9-3.2 1.8-4.1-.3-8.6-3.1-9.8-5.1-1.2-2-1.8-7.6-1.8-9.6 0-1 .9-1.3 2.6-3 2.7-2.8 6.9-7.2 7.8-8 3.5-3.2 9.3-4.5 13.9-5.5 4-.9 7.1-1.7 7.1-1.7s1.9 4.5 5 7.2c3 2.6 7.1 3.6 10.4 3.4 10.8-.5 11.2-12.5 11.2-12.5.8 0-.5-.4 1.5.1 1.4.4 12.3 1 16 2.2 3.7 1.2 7.1 3.6 10.2 5.8 1.7 1.2 2.4 1.6 4.1 2.8.4.3 2.9 1 3.1 1.6.2 1-.9 1.2-1.3 2-.7 1.3-1.2 3.7-2.1 4.8-.7.8-1.8 1.2-2.5 2.2-.5.7-1.1 1.5-1.4 2.3-.1.1-.5.8-.4 1 .2.2 1.3.7 1.5.9 1 .7 2 1.3 2.9 2.1.3.2 1.2 1.1 1.2 1.1s-2.3 1.4-2.8 1.6c-2.8.7-3.4-1.3-5.2-3.3-.3-.3-1.4-1.1-2.6-1.6-1-.5-2-.6-2-.6s-1.2 2.8-1.5 3.6c-1.1 2.9-1.8 6-2.4 9.1-.6 3.2-1.4 6.3-1.6 9.6-.3 6.6-.1 13.3-.4 19.9-.2 4.2-.4 7.5-1.1 11.7-.3 2.2-.4 5-.8 7.2-.4 2.1-1.5 6.3-1.5 6.3s-1.4.2-2.2.9c-3.6 2.9-8.5 1.7-12.7 1.3-4-.4-8.3-.6-12.2-1.7-5.1-1.5-10.1-4.6-14.6-7.2-1.6-.9-3.3-1.9-4.9-2.9-1.5-.9-3.6-2-4.5-3.6-.6-1 .2-2.3.2-2.3s0-1.2.2-2.8c.3-1.6 1-3.1 1.2-4 .6-2.2 1.3-2.4 2.3-4.5.1-.2 2.5-3.7 2.4-7.9"/><path id="Fill-29" class="st5" d="M184.1 45s-.1.8 0 1c0 .5-.2 1.4 0 1.8.1.2 1.7.5 1.8.6 2 .3 4.1.4 6.1.7 3 .4 6 .8 8.8 1.9 4 1.6 7.2 4.9 11.2 6.7 1.1.5 2.2 1.2 3.4 1.7.4.2 1.1.6 1.1.6s.7-.7 1-.8c.3-.2 1.5-.7 1.5-.7s-1.8-1.1-2-1.1c-1.8-1-3.6-2.1-5.3-3.4-1.9-1.4-3.5-3-5.6-4.2-3-1.7-5.9-2.5-9.2-3.1-3-.5-6-.6-8.9-.9-.8 0-3.9-.8-3.9-.8"/><path id="Fill-31" class="st5" d="M156.9 53.1c0 .1.1.2 0 .2-1.8.2-5.8.8-6 .9-4.2.9-8.9 2.9-12.3 5.3-3.4 2.4-5.5 4.9-8.5 7.7-1.1 1-2.2 2.2-3.4 3.2-.2.1-1 .6-1 .6s-1.1-4.1-.6-5.9c.2-.6 1-1.2 1.4-1.6.9-.9 1.7-1.6 2.5-2.5 1.2-1.2 2-2.7 3.2-3.9 1.5-1.5 3.5-2.7 5.3-3.6 2.5-1.3 4.7-2.5 7.5-3.2 1.3-.3 2.5-.7 3.8-1.1 1-.3 2.1-.3 3-.6.4-.1 2.7-.5 2.7-.5s1.8 4 2.4 5"/><path id="Fill-33" class="st5" d="M181.9 44s.2 2-.1 3.8c-.2 1.4-.8 2.6-1 3.2-.9 2.8-3.6 4.5-6 5.5-.8.3-1.8.7-2.7.8-4.1.7-10.1-1.3-12.6-5-1-1.5-1.8-2.5-2.2-3.4-.4-.9-.9-2.1-.9-2.1s-2.7.6-2.4 1.5c.7 1.8 2.4 4.3 3.7 5.7 1.9 2.1 4.3 4.2 7.2 5.2 3.9 1.4 7.7 1 11.2-.5 3.3-1.3 5.5-4.4 6.9-7.5.8-1.9.9-6.3.9-6.3l-2-.9z"/><path id="Fill-35" class="st5" d="M194 137.6v2.3c-.1 1.4-.3 2.7-.5 4.2-.2 2.7-1 5.3-1.9 7.8-1 3.1-2.7 7.2-3.4 9.4-.7 2.2-.6 3.2-1.2 4.7-.3.6-.7 1.4-2.7 1.8-2 .5-2.4.3-4.3.1-.9-.1-3.1-.9-3.1-.9s-1.2-2.6-2-4.3c-.7-1.7-1.4-2.8-2.4-4.8-.9-1.6-1.9-3.4-1.9-3.4s-1.2-.8-3-1.3c-2.4-.7-6.3-.7-8.2-.5-3.6.4-5.9 1.2-9.2 2.6-1 .4-3.3 1.6-4.9 2.7-1 .7-1.7 1.7-1.7 1.7l2.9 5.2s-.5-.3-.6-.4c-1-.7-1.8-1.1-2.5-2.2-1.6-2.6-2.9-6.5-3.6-9.5-.6-2.8-1.7-5.5-1.9-8.4-.3-4.4.3-8.5 1.8-12.7.8-2.2.7-2.8 1.3-5 .2-.6 1.8-4.3 1.8-4.3s1.9 1.3 2.1 1.5c1.4 1 3.1 2 4.6 2.8 5.7 3.1 10.8 5.5 17 7.3 6.3 1.8 12.6 3.4 19.1 4.2 1.6.2 3.3.4 4.9.3 1.2-.5 3.5-.9 3.5-.9"/><path id="Fill-37" class="st4" d="M188.5 78c1.1-.1 1.1 3.5 1.1 4.5.1 4.2.4 8.3.4 12.5 0 1.1-.1 2.2-.1 3.3 0 .4.2 1.3-.4 1.4-.4.1-.9-.1-1.3 0-1.3.2-2.7.4-4 .3-1-.1-2-.3-3-.2-4.6.3-9.3.6-13.9.9-1.7.1-3.4.3-5.1.3-.6 0-1.6.3-2.1-.1-1-.7-.8-2.5-1-3.5-1-4-.5-8.3-1-12.3-.2-1.2 0-2.4.1-3.6 0-.3-.1-1.3.2-1.5.6-.4 1.9-.3 2.5-.3 2.3 0 4.7.4 7 .5 4.8.2 9.5-.4 14.3-1 1.4-.2 2.9-.4 4.3-.7.7-.2 1.3-.4 2-.5"/><path id="Fill-39" class="st4" d="M147.2 126.8s-1.7 4.6-2.2 6.4c-1.3 4-1.6 10.4-.1 14.5 1 2.6 2.4 3.1 3.4 5.7.2.6.9 1.7.7 2.3 0 0-3.2 1.8-4.2 2.7-.4.4-.9 1-1.2 1.5-.1.2-.3 1.2-.4 1.1-1.4-1.9-2.7-6-3.4-8.2-1.3-4.3-1.5-7-1.8-11.5-.2-3.2.8-7.3 1.4-9.5.5-1.7 1.4-3.9 2-5.6.1-.5.5-1.8.9-2.1.2-.3 4.9 2.7 4.9 2.7"/><g id="Group-43" transform="translate(0 100)"><defs><filter id="Adobe_OpacityMaskFilter" filterUnits="userSpaceOnUse" x="0" y=".5" width="327.8" height="21.4"><feColorMatrix values="1 0 0 0 0 0 1 0 0 0 0 0 1 0 0 0 0 0 1 0"/></filter></defs><mask maskUnits="userSpaceOnUse" x="0" y=".5" width="327.8" height="21.4" id="mask-2_1_"><g filter="url(#Adobe_OpacityMaskFilter)"><path id="path-1_1_" class="st4" d="M0 .5h327.8v21.4H0z"/></g></mask><path id="Fill-41" d="M327 1.4c-2.4.4 1 .4-12.4 2.2-16.1 2.2-31.8 2.5-48 1.3-12.1-.9-22.5-1.3-36.4-2.8-7.9-.8-16.6-1.6-27.1-1.6-12.9.1-26.8 2.7-39.3 5.2-12.7 2.5-32.8 7-45.7 7.8-4.6.3-12.2.9-21.8 1-11.5.1-25.4-.4-37.7-1.4-9-.8-19-1.7-26.7-2.8C13.2 7.8 4.1 5.5 1.1 4.8-.8 4.3-.2 8 2.5 9c4.8 1.9 28.6 7 37.1 8.4 17.7 3.1 54.1 5.5 71.7 3.9 15.7-1.5 19.1-2.2 34.7-4.6 6.8-1.1 14-2.6 20.6-4.3 8.8-2.3 17.2-4.8 26.3-5.7 6.9-.7 9-.8 16-.7 6.4 0 16.7.9 22.8 1.5 8.1.7 16.4 1.4 24.1 2 17.4 1.4 33.4 1.3 50.9-.1 4.8-.4 17.3-2.7 18.6-3.1 2.2-.6 3.4-5.2 1.7-4.9" mask="url(#mask-2_1_)" fill-rule="evenodd" clip-rule="evenodd" fill="#e7585c"/></g><path id="Fill-44" class="st1" d="M124.4 85c-.1 0-.3-.1-.4-.2-.1-.2 0-.5.2-.6 4.2-2.4 5.5-3.3 8.2-5.1.2-.1.4-.1.6.1.1.2.1.5-.1.6-2.6 1.9-4 2.8-8.2 5.2h-.3"/><path id="Fill-46" class="st1" d="M108.6 114c-.2 0-.4-.2-.4-.4-.1-1.5-.3-3.1-.5-4.7s-.4-3.3-.6-5.3c-.7-7.9.5-19.5 4.7-26.2 1.6-2.6 3.1-3.9 5-5.5.5-.5 1.1-1 1.7-1.5.5-.5 1.2-1.1 1.9-1.7 1.2-1.1 2.6-2.4 3.9-3.6.2-.1.4-.1.5 0 .1.2.1.4 0 .6-1.3 1.2-2.7 2.5-3.9 3.6-.7.6-1.3 1.2-1.9 1.7-.6.6-1.2 1.1-1.7 1.5-1.8 1.6-3.3 2.9-4.8 5.4-4.1 6.5-5.3 17.9-4.6 25.7.2 1.9.4 3.6.6 5.2.2 1.6.4 3.2.5 4.7 0 .3-.1.5-.4.5.1 0 .1 0 0 0"/><path id="Fill-48" class="st1" d="M136.5 80c-1 0-2.3-.3-3.7-.8-3.2-1.3-6.7-4.1-7-7.4-.1-.4-.2-1-.3-1.7-.5-2.4-1.1-5.4.4-6.5.9-.7 2.9-2.9 4.7-4.9 1.4-1.6 2.6-2.9 3.1-3.3 2.9-2.3 6-4 7.8-4.8 3.4-1.5 6.3-2.1 9.2-2.6 1.3-.2 2.5-.5 3.7-.8 4.3-1.1 5.6-2.2 6.4-3.7 1.6-3.1 1.6-8.3 1.5-10 0-.2.1-.4.4-.4.2 0 .4.1.4.4.1 1.8.1 7.1-1.5 10.4-1 1.9-2.8 3-6.9 4.1-1.2.3-2.5.6-3.8.8-2.8.5-5.7 1.1-9 2.6-1.4.6-4.6 2.3-7.6 4.7-.4.3-1.7 1.7-3 3.2-1.8 2-3.8 4.3-4.8 5-1.1.8-.5 3.8-.1 5.8.1.7.3 1.3.3 1.8.3 3 3.5 5.5 6.6 6.8 2.2.9 4.2 1 5 .3 1.6-1.3 4.9-3.6 8.6-3.8.2 0 .4.2.4.4s-.2.4-.4.4c-3.4.2-6.6 2.3-8.1 3.6-.6.2-1.4.4-2.3.4"/><path id="Fill-50" class="st1" d="M114.6 138c-2.8 0-4.8-1-5.4-2.7-.3-.8-.6-1.4-1-2-.5-.8-.9-1.6-1.1-2.7-.3-1.9.3-4.3.7-6.5.2-.9.4-1.7.5-2.4v-.3c0-.2.2-.4.5-.3.2 0 .4.2.3.4v.3c-.1.7-.3 1.6-.5 2.5-.5 2.1-1 4.5-.7 6.2.1.9.5 1.6 1 2.5.3.6.7 1.3 1 2.1.7 1.9 3.5 2.2 4.6 2.2.2 0 .4.2.4.4.1.1-.1.3-.3.3"/><path id="Fill-52" class="st1" d="M115.5 138c-.8 0-1.5-.3-2.6-1.2-1.4-1.3-1.7-2.1-2-3.2-.2-.6-.4-1.2-.8-2-.1-.2 0-.4.1-.5.2-.1.4 0 .5.2.5.9.7 1.6.9 2.2.3 1 .5 1.7 1.8 2.8 1.6 1.4 2.3 1.1 3.8.6.4-.1.8-.3 1.3-.4.2-.1.4.1.5.3.1.2-.1.4-.3.5-.5.1-.9.3-1.2.4-.8.1-1.4.3-2 .3"/><path id="Fill-54" class="st1" d="M118.2 137c-1.9 0-3.5-1-4.3-1.9-.7-.8-1-1.5-1.2-2.1-.2-.5-.4-.9-.7-1.5-.1-.2 0-.4.2-.5.2-.1.4 0 .6.1.4.6.6 1.1.7 1.6.2.7.5 1.2 1.1 1.9.9 1.1 3.4 2.3 5.8 1 .2-.1.4 0 .6.1.1.2.1.4-.1.5-1 .6-1.9.8-2.7.8"/><path id="Fill-56" class="st1" d="M123.4 133c-1 0-2-.8-2.9-2.3-.4-.7-.5-1.5-.7-2.2-.1-.6-.3-1.3-.5-1.5 0 0-.1-.1-.4 0-.3.5 0 3.7 1.7 5.2.2.1.2.4 0 .6-.1.2-.4.2-.5 0-1.8-1.5-2.3-4.6-2-5.7.1-.4.3-.7.5-.7.4-.1.8-.1 1.1.1.6.3.7 1.1.9 2 .1.6.3 1.4.6 1.9.9 1.5 1.8 2.1 2.7 1.8.3-.1.3-.2.3-.2.1-.3-.1-1-.4-1.7-.2-.4-.4-.8-.5-1.3-.3-1.1-.3-1.6-.3-2.1v-.8c-.1-1.6-1.1-2.7-2.1-3.8-.5-.5-1-1.1-1.4-1.7-.1-.2-.1-.4.1-.5.2-.1.4-.1.5.1.4.6.9 1.1 1.3 1.6 1.1 1.2 2.2 2.4 2.3 4.3v.8c0 .5 0 .9.3 1.9.1.4.3.8.5 1.2.4.9.7 1.7.4 2.3-.1.3-.4.5-.8.6-.2.1-.5.1-.7.1"/><path id="Fill-58" class="st1" d="M116.5 113c-.2 0-.4-.2-.4-.4-.1-.9-.1-1.8 0-2.5.3-3.7 1.6-7.1 2.8-10.4.7-2 1.5-4.1 2.1-6.2l.3-1.2c.5-2 1.1-4 .9-5.9 0-.2.2-.4.4-.4s.4.1.4.4c.2 2-.4 4.2-1 6.2-.1.4-.2.8-.3 1.1-.6 2.2-1.3 4.3-2.1 6.3-1.3 3.4-2.4 6.6-2.7 10.2-.1.7 0 1.6 0 2.4 0 .2-.1.4-.4.4"/><path id="Fill-60" class="st1" d="M120.2 136h-.4c-1.1-.1-3-1-4.2-2.4-.6-.7-.8-1.3-1-2-.1-.5-.3-1.1-.6-2-.1-.2 0-.5.2-.5.2-.1.4 0 .5.2.4.9.5 1.6.7 2.1.2.7.3 1.2.8 1.7 1.1 1.2 2.7 2 3.7 2.1.8.1 1.5-.1 1.9-.6.4-.4 1-1.2 1.3-2 .1-.2.3-.3.5-.2.2.1.3.3.2.5-.3.9-1.1 1.9-1.5 2.3-.2.3-1 .8-2.1.8"/><path id="Fill-62" class="st1" d="M120.5 133c-.1 0-.2 0-.3-.1-.2-.2-.2-.5 0-.7l1.1-1.1c.2-.2.5-.1.7.1.1.2.1.5-.1.7-.3.2-.6.5-1 .9-.2.1-.3.2-.4.2"/><path id="Fill-64" class="st1" d="M248.6 63c-.9-.2-2-.2-3.1-.2-2.4.1-5.2.1-5.5-2.4 0-.2.1-.4.3-.4.2 0 .4.1.4.4.2 1.6 2 1.7 4.7 1.7 1.2 0 2.3 0 3.2.2.2.1.3.3.3.5 0 .1-.1.2-.3.2"/><path id="Fill-66" class="st1" d="M241.2 60c-1 0-1.9-.3-2.1-1.5-.4-1.9 1.3-2.4 2.2-2.7.1 0 .2-.1.3-.1.6-.2 1.2-.5 1.7-.7 1.6-.8 3.2-1.6 6.5-.5.2.1.3.3.2.5-.1.2-.3.3-.5.2-3-1-4.3-.3-5.9.5-.5.3-1.1.5-1.8.8-.1 0-.2.1-.4.1-1.1.3-1.9.6-1.6 1.7.3 1.1 1.4 1 3.2.6.3 0 .5-.1.8-.1 1.9-.3 4.1-.2 5.5-.1.2 0 .4.2.3.4 0 .2-.2.4-.4.3-1.4-.2-3.5-.2-5.3.1-.2 0-.5.1-.7.1-.6.3-1.4.4-2 .4"/><path id="Fill-68" class="st1" d="M210.6 76c-.4-.1-.8-.5-1.5-1.3-1.3-1.4-3.4-3.8-5.7-3.9-.2 0-.4-.2-.4-.4s.2-.4.4-.4c2.6.1 4.9 2.6 6.3 4.2.4.5.9 1 1 1.1.2 0 .3.2.3.4s-.2.3-.4.3"/><path id="Fill-70" class="st1" d="M216.6 74c-.1 0-.2 0-.2-.1-.4-.3-.8-.6-1.3-.9-1.6-1.1-3.3-2.4-4.8-3.2-.2-.1-.3-.4-.2-.6.1-.2.4-.3.6-.2 1.5.8 3.3 2.1 4.9 3.3.5.3.9.7 1.3.9.2.1.2.4.1.6-.2.1-.3.2-.4.2"/><path id="Fill-72" class="st1" d="M237.2 83c-1.1 0-2.1-.1-3.1-.3-2.4-.5-8.8-2.1-16.1-7-.6-.4-1.2-.9-1.9-1.3-.2-.1-.2-.4-.1-.6.1-.2.4-.2.5-.1.7.5 1.3 1 1.9 1.3 7.4 5 14 6.5 15.9 6.9 3.2.6 8.1.2 10.8-1.9 1.6-1.3 2.9-3 3.4-4.8.5-1.7.6-3.7.6-5.5.1-2.3.2-4.7 1-6.8.1-.3.2-.6.4-.9.3-.6.6-1.2.6-1.8 0-.5 0-1.1-.1-1.6-.1-.6-.1-1.1-.1-1.7 0-.2 0-.3.1-.5.1-1.1.3-2.3-.5-3-1.1-1-3.7-2.5-5-2.5-1.3 0-2.7.9-4 1.7-.6.4-1.1.7-1.7 1-.5.3-.9.5-1.1 1-.3.8-.1 1.3.5 2.4.1.2 0 .4-.2.5-.2.1-.4 0-.5-.1-.7-1.2-1-2-.5-3.1.3-.8.9-1.1 1.5-1.4.5-.3 1-.6 1.6-1 1.4-.9 2.9-1.8 4.4-1.8 1.6 0 4.3 1.6 5.6 2.7 1 .9.9 2.4.7 3.6 0 .2 0 .3-.1.5 0 .5 0 1 .1 1.6.1.6.1 1.2.1 1.8-.1.7-.4 1.4-.7 2.1-.1.3-.3.6-.4.9-.8 2.1-.9 4.4-1 6.6-.1 1.9-.2 3.9-.7 5.7-.5 2-1.9 3.9-3.7 5.2-1.9 1.5-5.2 2.2-8.2 2.2"/><path id="Fill-74" class="st1" d="M238.7 55c-.1 0-.3-.1-.4-.2-.8-1.9-.1-2.8.7-4l.6-.9c1.3-2.1 2.4-2.4 3.9-2.8 1.3-.3 2.9.4 5 2.2l.3.3c1 .8 2.1 1.7 2.1 3.2 0 .2-.2.4-.4.4s-.4-.2-.4-.4c0-1.1-.9-1.9-1.8-2.6l-.3-.3c-1.9-1.6-3.3-2.3-4.3-2-1.5.3-2.3.6-3.5 2.5-.2.4-.4.7-.6 1-.8 1.1-1.3 1.8-.6 3.2.1.2 0 .4-.2.5 0-.1 0-.1-.1-.1"/><path id="Fill-76" class="st1" d="M238.7 58c-.1 0-.2 0-.2-.1-1-.7-1.5-2.2-1.8-3.4-.1-.2-.1-.5-.2-.7-.6-1.8-.4-2.8-.2-3.8.1-.5.2-1 .1-1.5V48c-.1-1.4-.1-2.4 1.4-3 .4-.1.9 0 1.4.4.9.7 1.9 2.1 1.9 3 0 .2-.2.4-.4.4s-.4-.2-.4-.4c0-.5-.8-1.7-1.6-2.3-.3-.3-.6-.3-.7-.3-1 .3-1 .7-.9 2.2v.5c0 .7-.1 1.2-.2 1.7-.2.9-.3 1.8.2 3.4.1.2.1.5.2.7.3 1.1.7 2.4 1.5 2.9.2.1.2.4.1.6 0 .1-.1.2-.2.2"/><path id="Fill-78" class="st1" d="M233.4 68c-.1 0-.3-.1-.3-.2-.1-.2 0-.4.2-.5.6-.3 1.5-.5 2.4-.7 1.1-.2 2.3-.4 2.9-.9 1.1-.9 1.6-1.7 2.3-2.8.1-.2.3-.5.5-.7.1-.2.4-.2.5-.1.2.1.2.4.1.6-.2.3-.3.5-.4.7-.7 1.1-1.2 2-2.5 3-.8.6-2 .8-3.2 1-.9.2-1.7.3-2.2.6h-.3"/><path id="Fill-80" class="st1" d="M220.6 60c-.2 0-.3-.1-.4-.2-.5-1.2-2.2-2.1-4.1-3.1-1.6-.8-3.4-1.7-5-3-4.5-3.8-8.9-6-13-6.5-1.7-.2-3.2-.3-4.7-.5-3.7-.3-7.3-.6-11.2-1.9-.2-.1-.3-.3-.2-.5.1-.2.3-.3.5-.2 3.8 1.3 7.3 1.6 11 1.9 1.5.1 3.1.3 4.7.5 4.3.5 8.9 2.8 13.5 6.7 1.5 1.3 3.3 2.2 4.8 2.9 2.1 1.1 3.9 2 4.5 3.5.1.2 0 .4-.2.5-.1-.1-.1-.1-.2-.1"/><path id="Fill-82" class="st1" d="M231.6 66c-.1 0-.2 0-.2-.1-2.1-1.4-4.1-2.4-6.3-3.5s-4.5-2.2-6.9-3.8c-.2-.1-.2-.4-.1-.5.1-.2.4-.2.6-.1 2.4 1.6 4.6 2.7 6.8 3.7 2.2 1.1 4.3 2.1 6.4 3.5.2.1.2.4.1.5-.2.2-.3.3-.4.3"/><path id="Fill-84" class="st1" d="M177.4 49h-.1c-.2-.1-.3-.3-.3-.5.9-2.6 1.5-5.4 2.1-9.2 0-.2.3-.4.5-.3.2 0 .4.2.4.4-.6 3.8-1.2 6.7-2.2 9.3 0 .2-.2.3-.4.3"/><path id="Fill-86" class="st1" d="M197.4 100c-.2 0-.4-.2-.4-.4l.2-7c.2-8.1 3.2-19 7.1-25.4.1-.2.4-.3.6-.1.2.1.3.3.2.5-3.8 6.3-6.8 17.1-7 25l-.2 7c-.1.2-.3.4-.5.4"/><path id="Fill-88" class="st1" d="M193.4 138h-.1c-.2-.1-.3-.3-.3-.5 2.1-5.8 2.5-10 2.9-14.1l.1-1.3c.4-4 .9-10.7 1.1-15.7 0-.2.2-.4.4-.4s.4.2.4.4c-.2 5-.7 11.7-1.1 15.7l-.1 1.3c-.4 4.1-.8 8.4-2.9 14.3 0 .2-.2.3-.4.3"/><path id="Fill-90" class="st1" d="M147.5 109h-.1c-.2-.1-.3-.3-.2-.5.5-1.6 1.2-3.9 1.1-6.4 0-1.2-.3-2.1-.6-3.6-.2-1-.5-2.2-.9-3.8-.5-2.3-1-5.9-1.6-9.3-.4-2.8-.9-5.4-1.2-7 0-.2.1-.4.3-.5.2 0 .4.1.4.3.3 1.6.7 4.2 1.2 7 .6 3.4 1.1 6.9 1.6 9.2.3 1.6.6 2.8.8 3.8.4 1.5.6 2.5.6 3.8.1 2.6-.6 4.9-1.1 6.6 0 .3-.1.4-.3.4"/><path id="Fill-92" class="st1" d="M143.5 122c-.2 0-.4-.2-.5-.4-.2-2.3.1-4 1.1-5.4.1-.2.4-.3.6-.1.2.1.3.4.2.6-.8 1.2-1.2 2.8-.9 4.9 0 .2-.2.4-.5.4z"/><path id="Fill-94" class="st1" d="M182.1 168c-2.1 0-4.3-.6-5.9-1.7-.2-.1-.2-.4-.1-.5.1-.2.4-.2.5-.1 2.4 1.7 6 1.9 8 1.2.7-.2 1.5-.7 1.8-1.6l.6-2.4c.5-1.9 1-4 2.2-7.3l.3-.9c1.7-4.4 3.4-9 3.6-16.2 0-.2.2-.4.4-.4s.4.2.4.4c-.2 7.4-2 12-3.7 16.5l-.3.9c-1.2 3.3-1.7 5.4-2.2 7.2-.2.8-.4 1.6-.6 2.5-.3.9-1 1.7-2.3 2.1-.7.2-1.7.3-2.7.3"/><path id="Fill-96" class="st1" d="M179.6 174c-.2 0-.3-.1-.4-.3-.8-3-4.1-12.5-9.2-20.1-.1-.2-.1-.4.1-.5.2-.1.4-.1.5.1 5.1 7.7 8.4 17.3 9.3 20.3.1.2-.1.4-.3.5.1 0 0 0 0 0"/><path id="Fill-98" class="st1" d="M172.6 158c-.2 0-.4-.2-.4-.4.2-2-1.5-4.3-3.8-7.4-.6-.8-1.3-1.7-2-2.7-.3-.5-.7-1.1-1.1-1.7-1.6-2.6-3.7-6.2-8.1-8-.2-.1-.3-.3-.2-.5.1-.2.3-.3.5-.2 4.7 1.9 6.9 5.7 8.5 8.4.4.6.7 1.2 1 1.7.7 1 1.3 1.8 2 2.7 2.4 3.2 4.1 5.6 3.9 7.9.1 0-.1.2-.3.2"/><path id="Fill-100" class="st1" d="M155.6 177c-.1 0-.3-.1-.3-.2-.5-.7-1-1.5-1.6-2.4-2.9-4.2-7.3-10.5-9.6-14.9-.1-.2 0-.4.2-.5.2-.1.4 0 .5.2 2.2 4.4 6.6 10.6 9.5 14.8.6.9 1.2 1.7 1.6 2.4.1.2.1.4-.1.6h-.2"/><path id="Fill-102" class="st1" d="M143.6 162c-.1 0-.2-.1-.3-.2-4.4-7.1-5.5-18.7-5.3-23.2.2-4 3-12.7 5-17.4.1-.2.3-.3.5-.2.2.1.3.3.2.5-2 4.7-4.7 13.2-4.9 17.1-.2 4.4.8 15.8 5.2 22.7.1.2.1.4-.1.5-.1.2-.2.2-.3.2"/><path id="Fill-104" class="st1" d="M176 41c-3.2 0-6.8-1.4-9.8-4-.2-.1-.2-.4 0-.5.1-.2.4-.2.6 0 3.2 2.7 6.9 4 10.1 3.8 1.7-.1 3.1-.8 3.9-1.7 1.9-2.3 3.3-6.3 3.5-10.2 0-.2.2-.4.4-.4s.4.2.4.4c-.2 4-1.6 8.2-3.7 10.6-.9 1.1-2.5 1.8-4.5 2h-.9"/><path id="Fill-106" class="st1" d="M180.9 28c-.1 0-.2 0-.3-.1-.2-.1-.2-.4-.1-.5.9-.8.5-1.1-.1-1.5-.1-.1-.2-.1-.3-.2-1.3-.9-1.3-1.8-1.1-2.4.1-.2.3-.3.6-.2.2.1.4.3.3.4-.2.6.1 1.1.8 1.7l.2.2c.6.4 1.7 1.2.2 2.5.1.1-.1.1-.2.1"/><path id="Fill-108" class="st1" d="M184.6 20c-.1 0-.2 0-.3-.1-.9-.4-1.7-.5-2.8-.3-.2 0-.5 0-.5-.2-.1-.1 0-.3.3-.3 1.3-.3 2.5-.1 3.6.4.2.1.2.3.1.4-.2.1-.3.1-.4.1"/><path id="Fill-110" class="st1" d="M175.6 18h-.2c-1.3-.5-2.8-.4-3.8-.1-.2.1-.5 0-.6-.1-.1-.1 0-.3.2-.4 1.4-.5 3.2-.4 4.5.1.2.1.3.3.2.4 0 0-.2.1-.3.1"/><path id="Fill-112" class="st1" d="M174.9 31.9c.1.5.5 1.5 1.2 2.3.7.7 1.5 1.1 2.4 1 1.9 0 2.5-1.9 2.7-2.7-.6.1-1.6.1-2.7.1-1.3-.1-2.6-.4-3.5-.6l-.1-.1zm3.5 4.1c-2.2 0-3.3-1.6-3.8-2.6-.2-.5-.8-1.8-.5-2.3.1-.1.3-.2.5-.1.2 0 .4.1.6.2.8.2 2.1.6 3.3.6 1.2.1 2.3-.1 2.8-.1.3 0 .5-.1.7.2.1.2-.1 1.6-.7 2.6-.7.9-1.7 1.5-2.9 1.5z"/><path id="Fill-114" class="st1" d="M183 24c0-.5-.2-1-.5-1s-.5.4-.5 1 .2 1 .5 1 .5-.5.5-1"/><path id="Fill-116" class="st1" d="M175 23c0-.6-.2-1-.5-1s-.5.5-.5 1c0 .6.2 1 .5 1s.5-.5.5-1"/><path id="Fill-118" class="st1" d="M162.6 31s-.1 0 0 0c-2.1-.3-3.5-1.5-4.3-3.7-.5-1.4-.3-2.8.6-3.6.7-.7 1.8-.8 3-.5.2.1.4.3.3.5-.1.2-.3.3-.5.3-.9-.3-1.7-.1-2.2.3-.7.6-.8 1.7-.4 2.8.7 1.9 1.9 3 3.6 3.2.2 0 .4.2.4.4-.1.2-.3.3-.5.3"/><path id="Fill-120" class="st1" d="M162.6 28c-.1 0-.2-.1-.3-.2-.2-.3-.6-.9-1.1-1.1-.2-.1-.3-.3-.2-.5.1-.2.3-.3.5-.2.7.3 1.2 1 1.5 1.4.1.2 0 .4-.1.5-.1.1-.2.1-.3.1"/><path id="Fill-122" class="st1" d="M184.6 19c-.2 0-.4-.2-.4-.4 0-1-1.3-4-2.1-4.9-.1-.1-.2-.4 0-.6.1-.2.4-.2.5 0 1 1 2.4 4.2 2.4 5.5 0 .2-.2.4-.4.4"/><g id="Group-126" transform="translate(146 166)"><defs><filter id="Adobe_OpacityMaskFilter_1_" filterUnits="userSpaceOnUse" x=".8" y=".5" width="2.8" height="9.5"><feColorMatrix values="1 0 0 0 0 0 1 0 0 0 0 0 1 0 0 0 0 0 1 0"/></filter></defs><mask maskUnits="userSpaceOnUse" x=".8" y=".5" width="2.8" height="9.5" id="mask-4_1_"><g filter="url(#Adobe_OpacityMaskFilter_1_)"><path id="path-3_1_" class="st4" d="M.8.5h2.8V10H.8z"/></g></mask><path id="Fill-124" d="M1.2 10s-.1 0 0 0c-.3 0-.4-.2-.4-.4.1-.3 1.5-6.9 2-8.8.1-.2.3-.3.5-.3.2.1.4.3.3.5-.6 1.9-2 8.6-2 8.7-.1.2-.2.3-.4.3" mask="url(#mask-4_1_)" fill-rule="evenodd" clip-rule="evenodd" fill="#384154"/></g><path id="Fill-127" class="st1" d="M146.7 164h-.2c-2.3-1.1-3.5-2.3-3.5-3.7-.1-2.6 4.1-4.8 5.8-5.7.3-.2.5-.3.6-.3 4.4-3.1 15.2-4.5 20.5-1.8 1.9 1 3 2.5 3.1 4.3 0 .2-.2.4-.4.4s-.4-.2-.4-.4c-.1-1.5-1-2.7-2.6-3.6-5-2.5-15.5-1.2-19.7 1.7-.1.1-.3.2-.7.4-1.5.8-5.4 2.8-5.4 5 0 1.1 1.1 2.1 3.1 3 .2.1.3.3.2.5-.1.1-.2.2-.4.2"/><path id="Fill-129" class="st1" d="M191.4 138c-4.5 0-12.7-1-20.9-3.4-13-3.8-27.3-11.3-27.5-13.2 0-.2.1-.4.3-.4.2 0 .4.1.4.3.3 1.2 13.1 8.6 26.9 12.5 11.9 3.4 22.7 3.7 23.6 3.1.2-.2.4-.2.6 0 .2.1.2.4 0 .6-.2.3-1.5.5-3.4.5"/><path id="Fill-131" class="st1" d="M175.4 152c-.1 0-.2 0-.3-.1-.2-.1-.2-.4 0-.5 3-3.1 6.1-4.5 8.6-5.6.6-.3 1.2-.5 1.7-.8.2-.1.4 0 .5.2.1.2 0 .4-.2.5-.5.3-1.1.5-1.7.8-2.5 1.1-5.5 2.4-8.4 5.4 0 .1-.1.1-.2.1"/><path id="Fill-133" class="st1" d="M161.4 73.3c-1.2 0-2.1.1-2.3.4-.9 1.1.4 17.6 1.1 20.2.2.7 4.6.1 7.5-.2 2.6-.3 5.6-.7 8-.7h5.5c4.1.1 8.4.1 9.1-.6l.1-.1c-.2-2-.2-4.9-.2-8-.1-5.1-.2-10.9-.8-12.2-.4-.4-4 .1-6.9.6-2.8.4-5.9.9-8.9 1.1-2.8.2-5.7 0-8.3-.2-1.5-.2-2.9-.3-3.9-.3zm.4 21.7c-1.4 0-2.2-.2-2.4-.9-.4-1.6-2.2-19.4-.9-20.9.7-.8 2.8-.8 6.7-.5 2.5.2 5.4.3 8.2.2 3-.2 6.1-.7 8.8-1.1 5-.8 7.2-1.1 7.7-.1.7 1.5.8 6.9.9 12.6 0 3.1.1 6 .2 8 0 .3-.1.5-.3.7-.9 1-4.1 1-9.6.9h-5.5c-2.4 0-5.3.4-7.9.7-2.5.2-4.5.4-5.9.4z"/><path id="Fill-135" class="st1" d="M171 58c-5 0-11-2.7-14-10.5-.1-.2 0-.4.2-.5.2-.1.4 0 .5.2 3.2 8.4 10.1 10.6 15.1 9.8 5.3-.8 9-4.6 9.4-9.7 0-.2.2-.4.4-.4s.4.2.4.4c-.4 5.5-4.4 9.6-10 10.4-.7.3-1.3.3-2 .3"/><path id="Fill-137" class="st1" d="M174.9 90c.3-.1.4-.2.4-.5-.7-3.2.1-7 .5-9.3.3-1.3.3-1.8.2-2-.1-.1-.2-.2-.3-.2-.2 0-.6 0-3.5 4.5-.1.2-.1.4.1.5.2.1.4.1.5-.1.9-1.3 1.9-2.7 2.5-3.5 0 .2-.1.5-.2.8-.5 2.3-1.2 6.2-.5 9.6-.1.1.1.2.3.2"/><path id="Fill-139" class="st1" d="M173.5 89.9c.7 0 1.4 0 2-.1.7 0 1.4-.1 2-.1.2 0 .4-.1.4-.3 0-.2-.2-.3-.4-.3-.7 0-1.4 0-2.1.1-1.2.1-2.5.1-4-.1-.2 0-.4.1-.5.2 0 .2.1.3.3.3.9.2 1.6.3 2.3.3"/><path id="Fill-141" class="st1" d="M170 61c-6 0-12.6-3.7-16-12.6-.1-.2 0-.4.2-.5.2-.1.4 0 .5.2 3.8 10.2 12 13.2 18.4 11.7 5.4-1.3 10.6-6.2 10.1-14.4 0-.2.1-.4.4-.4.2 0 .4.1.4.4.6 8.7-4.9 13.9-10.7 15.2-1.1.3-2.2.4-3.3.4"/><path id="Fill-143" class="st1" d="M189 141c-9.1 0-28.6-4.5-46.8-17.3-.2-.1-.2-.4-.1-.5.1-.2.4-.2.6-.1 21.7 15.3 43.4 17.8 48.9 17 .2 0 .4.1.5.3 0 .2-.1.4-.3.4-.9.1-1.8.2-2.8.2"/><path id="Fill-145" class="st1" d="M169.6 126c-6.2-1.4-11-4.2-14.5-8.4-.1-.2-.1-.4.1-.5.2-.1.4-.1.5.1 3.5 4.1 8 6.7 14 8.1.2 0 .3.2.3.5-.1.1-.2.2-.4.2"/><path id="Fill-147" class="st1" d="M95.2 115c-33.1 0-75.7-4.8-93.9-10-.2 0-.3-.2-.3-.4.1-.2.3-.3.5-.3 22 6.3 79.5 11.9 112.9 9.3 15-1.2 27-3.7 39.8-6.3 13-2.7 26.5-5.5 43.9-6.9 10.2-.8 23.8.4 39.6 1.8 27 2.5 60.6 5.5 89.9-1.4.2-.1.4.1.5.3 0 .2-.1.4-.3.5-29.4 6.9-63.1 3.8-90.1 1.4-15.8-1.4-29.4-2.7-39.5-1.8-17.3 1.4-30.8 4.2-43.8 6.9-12.8 2.6-24.8 5.1-39.9 6.3-5.9.4-12.4.6-19.3.6"/><path id="Fill-149" class="st1" d="M92.3 122c-41.7 0-76.5-9-91-13.4-.2-.1-.3-.3-.3-.5.1-.2.3-.3.5-.3 16.9 5.1 61.7 16.5 112.7 12.5 19.9-1.6 42.7-6.2 57.5-10l1.8-.5c12.4-3.2 16.5-4.3 29.8-4.8 8-.3 21.5.8 35.8 2.1 11.4 1 23.2 2 33.8 2.4 23.6 1 46.6-2.1 53.6-4.6.2-.1.4 0 .5.2.1.2 0 .4-.2.5-7 2.5-30.2 5.6-53.9 4.6-10.6-.4-22.4-1.5-33.9-2.4-14.3-1.2-27.7-2.4-35.7-2.1-13.1.5-17 1.5-29.6 4.8l-1.8.5c-14.8 3.8-37.7 8.4-57.6 10-7.5.7-14.9 1-22 1"/><path id="Fill-151" class="st1" d="M163.4 23c-.2 0-.4-.2-.4-.4s.2-.4.4-.4h.1V22c0-.2 0-.6.3-.8.3-.1.6-.1.8-.1.3.1.3 0 .4-.1 0 0 0-.2-.1-.3-.1-.3-.1-.7.2-.9.3-.2.6-.1.9-.1h.3l.1-.2c.1-.2 0-.4-.1-.7-.1-.4-.3-.9 0-1.4.3-.6.9-.6 1.4-.6h.3v-.4c0-.3 0-.7.5-1.1.3-.2.6-.2.8-.2.2 0 .3 0 .4-.1v-.4c0-.3 0-.8.5-1.1.4-.2.8-.1 1.1 0 .3.1.3.1.5 0s.2-.5.3-.9c.1-.5.1-1 .5-1.2.3-.2.6-.2 1.1-.1.2 0 .4.2.5.3.1.1.2.1.2.1.1 0 .1 0 .3-.2.1-.2.3-.5.7-.6.7-.1 1.2.2 1.6.5.2.1.3.3.5.3.3.1.4.1.6 0 .2-.1.4-.2.7-.2.5 0 1 .4 1.3.8.1.2 0 .4-.2.5-.2.1-.4 0-.5-.2-.1-.2-.4-.4-.5-.4-.1 0-.3.1-.4.1-.3.1-.7.3-1.3 0-.3-.1-.5-.3-.7-.4-.4-.3-.6-.4-1-.4 0 0-.1.1-.1.2-.1.2-.4.7-1.1.6-.2 0-.4-.2-.6-.3-.1-.1-.2-.1-.2-.1h-.4c-.1.1-.2.4-.2.7-.1.5-.1 1.1-.6 1.4-.5.3-.9.1-1.2 0-.2-.1-.3-.1-.4-.1-.1 0-.1.2-.1.4 0 .3 0 .6-.2.9-.3.4-.7.4-1 .4-.2 0-.3 0-.3.1-.2.2-.2.3-.2.5s0 .4-.1.7c-.2.4-.7.4-1 .4-.4 0-.6 0-.7.1-.1.3-.1.5 0 .9.1.3.2.7.1 1.1-.2.9-.9.8-1.2.7h-.2v.2c.1.3.1.6-.1.9-.4.5-.8.4-1.1.4h-.3v.1c0 .2 0 .5-.2.8-.2.4-.5.5-.7.5"/><path id="Fill-153" class="st1" d="M158.4 8c-.2 0-.4-.2-.4-.4 0-.4.2-.6.6-.7 0-.2 0-.5.4-.7.1-.1.3-.1.4-.1V6c0-.2 0-.7.6-.9.3-.1.5 0 .7.1.1 0 .2.1.3.1v-.2c0-.2 0-.7.6-1 .4-.1.7 0 1 .2.4.2.4.2.5.1.1-.1.1-.3.2-.4.1-.4.3-.9.9-1 .5-.1.9.3 1.2.5l.3.3c.1 0 .4-.2.4-.2v-.2c0-.2-.2-.8.5-1 .1 0 .1 0 .2-.1.2-.1.5-.2.8-.2.3 0 .5.2.7.3.2.1.4.2.5.2.1 0 .1-.1.3-.2.1-.2.3-.4.6-.5.7-.2 1.2.1 1.6.4.2.1.4.3.7.3.2 0 .3 0 .5-.2s.4-.4.8-.4c.5-.1.9.3 1.1.6l.2.2c.1.1.2.1.4.1s.4.1.5.2c0 0 .6.3.6.8 0 .2-.2.4-.4.4s-.4-.1-.4-.3c0-.1-.1-.1-.2-.2s-.3-.1-.4-.1c-.2-.1-.4-.1-.6-.2-.2-.1-.3-.3-.4-.4l-.3-.3c-.1 0-.3.1-.4.2-.3.2-.6.5-1.2.4-.3-.1-.6-.2-.9-.4-.4-.2-.7-.4-1-.3-.1 0-.1.1-.2.2-.2.2-.4.4-.8.5-.4.1-.7-.2-1-.3-.1-.1-.3-.2-.4-.2-.1 0-.2.1-.4.1-.1 0-.2.1-.3.1v.1c0 .1.1.3 0 .5-.1.6-1 .8-1 .8-.4.1-.8-.2-1-.5-.1-.2-.3-.3-.4-.3-.1 0-.2.1-.3.5-.1.3-.2.6-.4.8-.5.5-1 .2-1.4 0-.1-.1-.3-.2-.3-.1h-.1V5c0 .2 0 .4-.2.7-.4.5-.9.3-1.2.3-.1 0-.2-.1-.2-.1V6c0 .2 0 .5-.2.7-.4.3-.6.3-.7.3 0 .1 0 .4-.2.5-.1.1-.3.2-.4.2-.1.2-.2.3-.4.3z"/><path id="Fill-155" class="st1" d="M158.5 26c-.1 0-.2 0-.3-.1-.3-.2-.4-.5-.4-.9 0-.1 0-.3-.1-.4-.1-.1-.2-.2-.3-.4-.1-.1-.3-.2-.4-.4-.3-.5-.1-1 0-1.3.1-.3.1-.4.1-.5-.1-.1-.2-.2-.4-.3-.3-.1-.7-.3-.9-.9-.1-.2-.3-1-.1-1.5.1-.2.3-.3.4-.4l.1-.1v-.1c0-.2-.2-.5-.4-.8-.2-.3-.4-.6-.5-1-.2-.7.3-.9.5-1-.1-.1-.2-.3-.2-.4-.3-.4-.7-1-.4-1.7.2-.4.6-.5.8-.5 0-.1-.1-.1-.1-.2-.1-.3-.2-.6-.2-.9.1-.4.4-.6.7-.8.1-.1.3-.2.3-.2s0-.1-.1-.2c-.1-.2-.2-.6 0-.9V10c.2-.2.3-.4.4-.4.1 0 .2-.1.3-.1 0-.3-.1-.7.3-.9.2-.1.4 0 .5.2.1.1 0 .3 0 .4v.2c0 .2.1.5 0 .7-.2.3-.5.2-.7.2 0 0 0 .1-.1.1l-.1.1s.1.1.1.2c.1.2.2.6 0 .9-.1.2-.3.3-.5.5-.1.1-.3.2-.3.3 0 .1.1.3.1.4.1.3.3.7.1 1-.1.2-.3.2-.5.3-.1 0-.3.1-.3.1-.1.2 0 .4.3.8.2.3.5.7.4 1.1-.1.3-.3.4-.5.5.1.2.2.5.4.7.2.3.5.7.5 1.1.1.6-.2.8-.4.9l-.2.2c0 .1 0 .4.1.7.1.2.2.3.5.4.2.1.5.2.7.6.3.4.1.9 0 1.2-.1.3-.2.5-.1.7l.1.1c.2.1.5.3.6.7.1.2.1.3.1.5 0 .1 0 .2.1.3.2 0 .4.1.4.3.1.2 0 .4-.2.5 0 .5-.1.5-.2.5z"/><path id="Fill-157" class="st1" d="M186.3 18c-.1 0-.3-.1-.4-.2-.1-.1-.1-.2 0-.3 0-.2 0-.4.1-.5.1-.1.2-.1.3-.1 0-.2-.1-.3.1-.5.1-.1.2-.1.2-.2v-.1c-.2-.2-.4-.5-.3-.9.1-.3.3-.4.5-.5-.2-.2-.3-.4-.3-.8.1-.4.4-.5.6-.5h.1c0-.1-.2-.2-.6-.3-.3-.1-.6-.2-.8-.4-.3-.3-.1-.7 0-.8-.2 0-.8.1-1-.4-.1-.3-.1-.5 0-.7v-.2l-.2-.1c-.1 0-.3-.1-.4-.3-.1-.3 0-.5.2-.7 0-.1.1-.1.1-.2-.2-.1-.4-.1-.8-.1s-.8.1-1.2-.2c-.4-.3-.4-.7-.4-1.1 0-.2 0-.4-.1-.6-.2-.3-.2-.2-.5-.2-.2.1-.5.2-.9 0-.3-.1-.3-.4-.3-.6-.2.2-.5.4-1 .1-.3-.2-.4-.4-.5-.6-.1-.2-.1-.2-.2-.2-.2 0-.4-.2-.4-.4s.2-.4.4-.4c.6 0 .8.4.9.7.1.1.1.2.2.2h.1c.1-.1.3-.3.7-.2.5.1.6.5.6.7h.2c.3-.1.8-.2 1.3.4.3.3.3.7.3 1 0 .3 0 .5.1.5.1.1.3.1.6.1.4 0 1-.1 1.5.4.4.4.2.8.1 1 .2.1.3.2.4.4.1.3.1.5 0 .7v.1h.1c.2 0 .5-.1.8.1.2.1.3.3.3.5 0 .3-.1.5-.2.6.1 0 .2.1.3.1.5.1 1.2.4 1.2 1.2 0 .5-.4.6-.6.7l.1.1c.1.2.3.4.3.7-.1.4-.4.4-.6.5l.1.1c.1.1.2.3.3.5 0 .1.1.3 0 .6-.1.1-.2.2-.3.2.1.2.1.4-.1.6-.1.1-.2.2-.4.2 0 .2-.2.4-.3.4-.2-.1-.3-.1-.3-.1"/><path id="Fill-159" class="st1" d="M215.6 60c-.1 0-.2 0-.2-.1-.9-.6-2.1-1.1-3.2-1.7-1-.5-2.1-1-3-1.5-.5-.3-1.2-.8-2-1.4-1.8-1.3-4.3-3.1-6.9-4.1-3.4-1.3-6.2-1.5-9.3-1.7-2.1-.2-4.3-.3-6.7-.9-.2 0-.3-.2-.3-.5 0-.2.3-.3.5-.3 2.4.5 4.5.7 6.6.8 3.1.2 6 .4 9.5 1.8 2.6 1 5.2 2.8 7.1 4.2.8.5 1.4 1 1.9 1.3.8.5 1.9 1 2.9 1.5 1.2.6 2.4 1.1 3.3 1.7.2.1.2.4.1.5 0 .3-.2.4-.3.4"/><path id="Fill-161" class="st1" d="M126.4 71c-.1 0-.3-.1-.3-.2-.1-.2-.1-.4.1-.5.9-.6 2.4-2.2 4.2-4 2.7-2.8 6.1-6.2 9.4-8.4 6.3-4.2 13.2-5.5 17.9-5.9.2 0 .4.1.4.4 0 .2-.1.4-.4.4-4.6.4-11.3 1.7-17.5 5.8-3.2 2.1-6.6 5.6-9.2 8.3-1.8 1.9-3.3 3.4-4.3 4.1h-.3"/><path id="Fill-163" class="st1" d="M211.8 76c-.9 0-1.6-.3-2-.7-.6-.6-.9-1.7-.8-3.1.2-2.3 1.5-5.4 3.9-7.2 1.7-1.3 2.1-2.7 2.5-3.9.3-1.1.7-2.1 1.8-2.8.6-.3 2.2-.9 3.7 1.4.1.2 0 .4-.1.5-.2.1-.4.1-.6-.1-.8-1.3-1.7-1.7-2.6-1.2-.9.5-1.1 1.3-1.4 2.3-.4 1.3-.9 2.9-2.8 4.3-2.2 1.6-3.4 4.6-3.5 6.6-.1 1.1.1 2.1.6 2.5.7.7 2.8.8 4.9-1.1.2-.1.4-.1.6 0 .2.2.1.4 0 .6-1.6 1.4-3 1.9-4.2 1.9"/><path id="Fill-165" class="st1" d="M148.6 156c-.2 0-.3-.1-.4-.3-.4-2.1-1.4-3.4-2.3-4.8-1.4-2.1-2.9-4.2-2.9-8.7 0-6.7 1.4-10.2 2.8-13.6.2-.4.4-.9.5-1.3.1-.2.3-.3.5-.2.2.1.3.3.2.5-.2.4-.4.9-.5 1.3-1.4 3.3-2.8 6.7-2.8 13.3 0 4.3 1.3 6.2 2.8 8.3 1 1.4 2 2.9 2.5 5.1 0 .1-.1.3-.4.4.1 0 0 0 0 0"/><path id="Fill-167" class="st1" d="M179.4 172h-.2c-.2-.1-.3-.3-.2-.5l2.1-4.2c.1-.2.4-.3.6-.2.2.1.3.3.2.5l-2.1 4.2c0 .1-.2.2-.4.2"/><path id="Fill-169" class="st4" d="M198 24.1s-1-.1-1.6-1.1c-.6-1-.8-2.9-.8-2.9s0 1.9-.7 2.9c-.6 1-1.9 1.1-1.9 1.1s1.1.2 1.8 1.1c.6.9.8 2.9.8 2.9s.1-1.8.7-2.7c.6-1.1 1.7-1.3 1.7-1.3"/><path id="Fill-171" class="st1" d="M193.6 23.5c.3.2.7.5.9.9.2.3.4.7.5 1.1.1-.3.2-.7.4-.9.3-.5.7-.8 1.1-1-.3-.2-.7-.5-1-1-.2-.3-.4-.7-.5-1.1-.1.4-.3.8-.4 1.1-.2.4-.6.7-1 .9zm1.5 4.5c-.2 0-.4-.2-.4-.4 0 0-.1-2-.7-2.8-.6-.8-1.6-1-1.6-1-.2 0-.3-.2-.3-.4s.2-.4.4-.4c0 0 1.1-.1 1.7-.9.5-.8.6-2.3.6-2.8 0-.2.2-.4.4-.4s.4.1.4.3c0 0 .2 1.9.8 2.8.5.8 1.4 1 1.4 1 .2 0 .3.2.3.4s-.1.3-.3.4c0 0-1 .2-1.6 1.1-.6.9-.7 2.6-.7 2.6-.1.3-.2.5-.4.5z"/><path id="Fill-173" class="st4" d="M153 27.6s-.8-.1-1.3-1-.7-2.6-.7-2.6 0 1.7-.5 2.5c-.5.9-1.5.9-1.5.9s.9.1 1.4 1c.5.8.6 2.6.6 2.6s.1-1.5.6-2.4c.5-.8 1.4-1 1.4-1"/><path id="Fill-175" class="st1" d="M149.5 28c.2.2.5.4.7.7.1.2.3.5.4.8l.3-.6c.2-.4.5-.7.8-.9-.2-.2-.5-.4-.7-.8-.1-.2-.2-.5-.3-.7-.1.3-.2.5-.3.7-.3.4-.6.7-.9.8zm1 4c-.2 0-.4-.2-.4-.4 0-.5-.2-1.8-.6-2.4-.4-.7-1.2-.8-1.2-.8-.2 0-.3-.2-.3-.4s.2-.4.4-.4c0 0 .9-.1 1.3-.8.4-.7.5-1.9.5-2.4 0-.2.2-.4.4-.4s.4.1.4.4c0 0 .2 1.7.7 2.4.4.7 1.1.8 1.1.8.2 0 .3.2.3.4s-.1.4-.3.4c0 0-.8.2-1.2.9-.5.8-.5 2.2-.5 2.2-.2.3-.4.5-.6.5z"/><path id="Fill-177" class="st4" d="M204 12.6s-.8-.1-1.3-1S202 9 202 9s0 1.7-.5 2.5c-.5.9-1.5.9-1.5.9s.9.1 1.4 1c.5.8.6 2.6.6 2.6s.1-1.5.6-2.4c.5-.8 1.4-1 1.4-1"/><path id="Fill-179" class="st1" d="M201.5 13c.2.2.5.4.7.7.1.2.3.5.4.8l.3-.6c.2-.4.5-.7.8-.9-.2-.2-.5-.4-.7-.8-.1-.2-.2-.5-.3-.7-.1.3-.2.5-.3.7-.3.4-.6.6-.9.8zm1 4c-.2 0-.4-.2-.4-.4 0-.5-.2-1.8-.6-2.4-.4-.7-1.2-.8-1.2-.8-.2 0-.3-.2-.3-.4s.2-.4.4-.4c0 0 .9-.1 1.3-.8.4-.7.5-1.9.5-2.4 0-.2.2-.4.4-.4s.4.1.4.4c0 0 .2 1.7.7 2.4.4.7 1.1.8 1.1.8.2 0 .3.2.3.4s-.1.4-.3.4c0 0-.8.2-1.2.9-.4.6-.5 1.8-.5 2.2-.2.3-.4.5-.6.5z"/><path id="Fill-181" class="st4" d="M150 4.6s-.8-.1-1.3-1S148 1 148 1s0 1.7-.5 2.5c-.5.9-1.5 1-1.5 1s.9.1 1.4 1c.5.8.6 2.5.6 2.5s.1-1.6.6-2.4c.5-.8 1.4-1 1.4-1"/><g id="Group-185" transform="translate(145)"><defs><filter id="Adobe_OpacityMaskFilter_2_" filterUnits="userSpaceOnUse" x=".2" y=".3" width="5.5" height="7.4"><feColorMatrix values="1 0 0 0 0 0 1 0 0 0 0 0 1 0 0 0 0 0 1 0"/></filter></defs><mask maskUnits="userSpaceOnUse" x=".2" y=".3" width="5.5" height="7.4" id="mask-6_1_"><g filter="url(#Adobe_OpacityMaskFilter_2_)"><path id="path-5_1_" class="st4" d="M.2.3h5.5v7.4H.2z"/></g></mask><path id="Fill-183" d="M1.9 4c.3.2.5.4.7.6.2.3.3.6.4.8.1-.2.2-.4.3-.5.3-.4.6-.6.9-.8-.2-.2-.5-.4-.7-.8-.2-.2-.3-.4-.4-.6l-.3.6c-.3.4-.6.6-.9.7zM3 7.7c-.2 0-.4-.2-.4-.4 0-.4-.2-1.7-.6-2.2-.5-.6-1.4-.7-1.4-.7C.4 4.3.2 4.2.2 4s.2-.4.4-.4c0 0 1-.1 1.4-.7.4-.6.5-1.8.5-2.2 0-.2.2-.4.4-.4s.4.1.4.3c0 0 .2 1.5.7 2.3.5.7 1.2.8 1.2.8.2 0 .4.2.4.4s-.1.3-.3.4c0 0-.9.2-1.4.8-.3.6-.4 1.7-.5 2.1 0 .2-.1.3-.4.3z" mask="url(#mask-6_1_)" fill-rule="evenodd" clip-rule="evenodd" fill="#384154"/></g><path id="Fill-186" class="st4" d="M142 15.5s-.6-.1-1-.7-.5-1.8-.5-1.8 0 1.2-.4 1.8c-.4.6-1.1.7-1.1.7s.7.1 1.1.7c.4.6.5 1.8.5 1.8s.1-1.1.4-1.7c.3-.6 1-.8 1-.8"/><path id="Fill-188" class="st1" d="M140.5 16l.4.4c.1.1.1.2.2.3 0-.1.1-.1.1-.2.1-.2.3-.4.5-.6-.2-.1-.3-.3-.4-.5-.1-.1-.1-.2-.2-.3 0 .1-.1.2-.1.3-.2.3-.4.5-.5.6zm.5 3c-.2 0-.4-.2-.4-.4 0-.3-.1-1.3-.4-1.7-.3-.4-.9-.5-.9-.5-.2 0-.4-.2-.3-.4 0-.2.2-.4.4-.4 0 0 .6 0 .9-.5.3-.4.4-1.4.4-1.7 0-.2.2-.4.4-.4s.4.1.4.4c0 .3.2 1.3.5 1.7.3.5.8.6.8.6.2 0 .3.2.3.4s-.1.4-.3.4c0 0-.6.1-.9.6-.3.4-.4 1.3-.4 1.6-.1.1-.3.3-.5.3z"/><path id="Fill-190" class="st1" d="M130.6 100h-.1c-4.1-1.6-23.7-13.3-33.4-28.4-.1-.2-.1-.4.1-.5.2-.1.4-.1.5.1 9.6 14.9 29 26.5 33 28.1.2.1.3.3.2.5 0 .1-.1.2-.3.2"/><path id="Fill-192" class="st1" d="M113.6 97h-.2c-3.8-1.9-10.9-6.2-16.3-13.3-.1-.2-.1-.4.1-.6.2-.1.4-.1.5.1 5.3 7 12.4 11.2 16.1 13.1.2.1.3.3.2.5-.1.1-.2.2-.4.2"/><path id="Fill-194" class="st1" d="M109.6 79c-.1 0-.2 0-.3-.1-6.1-6-8.9-11.1-11.2-15.2l-.1-.1c-.1-.2 0-.4.2-.6.2-.1.4 0 .5.2l.1.1c2.3 4 5.1 9.1 11.1 15 .2.2.2.4 0 .6-.1.1-.2.1-.3.1"/></g></g></g></svg>