<svg version="1.1" id="Layer_1" xmlns="http://www.w3.org/2000/svg" x="0" y="0" viewBox="0 0 88 81" xml:space="preserve"><style>.st1{fill-rule:evenodd;clip-rule:evenodd;fill:#00284c}.st2{enable-background:new}.st3{fill:#fff}</style><g id="Page-1"><g id="Homepage-V2" transform="translate(-1311 -134)"><g id="Group-21" transform="translate(1312 134)"><path id="Path" d="M79.9 42.1H6c-3.4 0-6 2.7-6 5.8v.8c0 1.9 1 3.8 2.6 4.9l36.9 25.2c2.1 1.4 4.8 1.4 6.9 0l36.9-25.2c1.6-1.1 2.6-3 2.6-4.9v-.8c.1-3.1-2.6-5.8-6-5.8z" fill="#00284c" stroke="#fc9001"/><path id="Rectangle" class="st1" d="M0 0h86v47H0z"/><path id="Rectangle_00000127761036338206215250000015545048252016640409_" class="st1" d="M0 0h86v47H0z"/><g class="st2"><path class="st3" d="M34.3 21.4V25h-1.2v-8.4h4.3v1h-3.1v2.7h3.1v1l-3.1.1zM38.6 17.8v-1.2h1.1v1.2h-1.1zm0 7.2v-6h1.1v6h-1.1zM42.4 19v1c.4-.7 1.2-1.1 2-1.1s1.4.3 1.7.8c.4.6.5 1.4.5 2.3v3h-1.1v-3c0-.6 0-1.2-.3-1.7-.2-.3-.5-.5-1-.5-.7 0-1.4.5-1.8 1.2v4h-1.1v-6h1.1zM51.8 25v-.6c-.5.6-1 .8-1.8.8-1.1 0-2.1-.5-2.1-1.8 0-1.5 1.4-2 2.7-2 .3 0 .7 0 1.2.1v-.2c0-.9-.4-1.4-1.4-1.4-.7 0-1.4.3-1.9.5l-.3-.9c.6-.3 1.5-.6 2.4-.6 1.7 0 2.4.9 2.4 2.5V25h-1.2zm-.1-2.7c-.4-.1-.8-.1-1.1-.1-.7 0-1.7.2-1.7 1.1 0 .7.6 1 1.2 1s1.1-.3 1.6-.7v-1.3zM55.5 19v1c.4-.7 1.2-1.1 2-1.1s1.4.3 1.7.8c.4.6.5 1.4.5 2.3v3h-1.1v-3c0-.6 0-1.2-.3-1.7-.2-.3-.5-.5-1-.5-.7 0-1.4.5-1.8 1.2v4h-1.1v-6h1.1zM65.7 24.6c-.4.4-1.1.6-1.8.6-1.7 0-3.1-1.2-3.1-3.1 0-1.8 1.4-3.1 3.1-3.1.6 0 1.2.2 1.7.5l-.5.9c-.3-.3-.8-.4-1.2-.4-1.1 0-2 .9-2 2.1 0 1.3.9 2.1 2 2.1.4 0 .9-.2 1.3-.4l.5.8zM67.2 22.3c.1 1 .8 1.9 1.9 1.9.8 0 1.4-.3 1.8-1l.8.5c-.6 1-1.4 1.4-2.6 1.4-1.9 0-3-1.4-3-3.1 0-1.8 1.3-3.1 3-3.1 1.6 0 2.7 1.2 2.7 2.8v.6h-4.6zm.1-.9h3.4c0-.9-.7-1.6-1.6-1.6-1 0-1.6.7-1.8 1.6z"/></g><g class="st2"><path class="st3" d="M37 36.2c-2.4 0-4.3-1.9-4.3-4.3s1.9-4.3 4.3-4.3 4.3 1.9 4.3 4.3c.1 2.4-1.8 4.3-4.3 4.3zm0-7.6c-1.8 0-3.1 1.5-3.1 3.3 0 1.9 1.3 3.3 3.1 3.3s3.1-1.5 3.1-3.3c0-1.9-1.3-3.3-3.1-3.3zM43.8 30.1v.8c.4-.6 1.2-.9 1.9-.9 1.7 0 3 1.4 3 3.2 0 1.6-1.2 3.1-3 3.1-.7 0-1.4-.3-1.9-.8v3.6h-1.1v-9h1.1zm0 4.2c.4.6 1.1.9 1.7.9 1.4 0 2.1-1.1 2.1-2.1 0-1.1-.8-2.1-2-2.1-.6 0-1.5.4-1.8 1.1v2.2zM51 31.1v3.2c0 .6.2 1 .8 1 .2 0 .5-.1.7-.2l.3.9c-.3.2-.7.3-1.1.3-.8 0-1.4-.4-1.6-.9-.1-.3-.2-.8-.2-1.2v-3h-.8v-1h.8v-1.4H51v1.4h1.7v1l-1.7-.1zM53.6 28.9v-1.2h1.1v1.2h-1.1zm0 7.2v-6h1.1v6h-1.1zM62 33.1c0 1.8-1.3 3.1-3.1 3.1s-3.1-1.4-3.1-3.1 1.3-3.1 3.1-3.1 3.1 1.4 3.1 3.1zM58.9 31c-1.1 0-1.9 1-1.9 2.1 0 1.2.8 2.1 1.9 2.1s1.9-1 1.9-2.1c.1-1.2-.7-2.1-1.9-2.1zM64.2 30.1v1c.4-.7 1.2-1.1 2-1.1s1.4.3 1.7.8c.4.6.5 1.4.5 2.3v3.1h-1.1v-3c0-.6 0-1.2-.3-1.7-.2-.3-.5-.5-1-.5-.7 0-1.4.5-1.8 1.2v4h-1.1v-6l1.1-.1zM73 31.3c-.3-.2-.8-.4-1.2-.4-.6 0-.9.3-.9.8s.6.7 1.2.9c.8.3 1.8.7 1.8 1.8 0 1.3-1 1.9-2.2 1.9-.8 0-1.6-.3-2.1-.9l.8-.6c.4.4.8.6 1.3.6.6 0 1.1-.3 1.1-.9 0-.5-.6-.7-1.2-.9-.8-.3-1.7-.7-1.7-1.7 0-1.2.9-1.8 1.9-1.8.7 0 1.4.2 1.8.7l-.6.5z"/></g><g class="st2"><path class="st3" d="m38.3 47.2-.7-1.8H34l-.6 1.8h-1.3l3.3-8.4h1l3.2 8.4h-1.3zm-3.8-2.8h2.8l-1.4-3.8-1.4 3.8zM44.9 41.2l-2.3 6h-1l-2.3-6h1.2l1.6 4.6 1.6-4.6h1.2zM49.2 47.2v-.6c-.5.6-1 .8-1.8.8-1.1 0-2.1-.5-2.1-1.8 0-1.5 1.4-2 2.7-2 .3 0 .7 0 1.2.1v-.2c0-.9-.4-1.4-1.4-1.4-.7 0-1.4.3-1.9.5l-.3-.9c.6-.3 1.5-.6 2.4-.6 1.7 0 2.4.9 2.4 2.5v3.6h-1.2zm-.1-2.7c-.4-.1-.8-.1-1.1-.1-.7 0-1.7.2-1.7 1.1 0 .7.6 1 1.2 1s1.1-.3 1.6-.7v-1.3zM51.8 40v-1.2h1.1V40h-1.1zm0 7.2v-6h1.1v6h-1.1zM55.6 47.2h-1.1v-9h1.1v9zM60.8 47.2v-.6c-.5.6-1 .8-1.8.8-1.1 0-2.1-.5-2.1-1.8 0-1.5 1.4-2 2.7-2 .3 0 .7 0 1.2.1v-.2c0-.9-.4-1.4-1.4-1.4-.7 0-1.4.3-1.9.5l-.3-.9c.6-.3 1.5-.6 2.4-.6 1.7 0 2.4.9 2.4 2.5v3.6h-1.2zm0-2.7c-.4-.1-.8-.1-1.1-.1-.7 0-1.7.2-1.7 1.1 0 .7.6 1 1.2 1s1.1-.3 1.6-.7v-1.3zM64.5 38.2V42c.4-.6 1.2-.9 1.9-.9 1.7 0 3 1.4 3 3.2 0 1.6-1.2 3.1-3 3.1-.7 0-1.4-.3-1.9-.8v.6h-1.1v-9h1.1zm0 7.2c.4.6 1.1.9 1.7.9 1.4 0 2.1-1.1 2.1-2.1 0-1.1-.8-2.1-2-2.1-.6 0-1.5.4-1.8 1.1v2.2zM71.7 47.2h-1.1v-9h1.1v9zM73.9 44.5c.1 1 .8 1.9 1.9 1.9.8 0 1.4-.3 1.8-1l.8.5c-.6 1-1.4 1.4-2.6 1.4-1.9 0-3-1.4-3-3.1 0-1.8 1.3-3.1 3-3.1 1.6 0 2.7 1.2 2.7 2.8v.6h-4.6zm.1-.9h3.4c0-.9-.7-1.6-1.6-1.6-1 0-1.6.7-1.8 1.6z"/></g><path d="M10.5 47v-3.8H13V33.1h-2.5v-3.7H13V27c0-5.7 3.7-9.8 8.9-9.8 2.3 0 4.8.6 6.5 1.6l-1.7 3.4c-1.1-1-2.9-1.4-4.6-1.4-3.7 0-5.1 3.2-5.1 7.3v1.2h6V33h-6v10.1h11.4V47H10.5z" fill="#fc9001" class="st2"/></g></g></g></svg>