<svg version="1.1" id="Layer_3" xmlns="http://www.w3.org/2000/svg" x="0" y="0" viewBox="0 0 140 160" xml:space="preserve" enable-background="new 0 0 140 160"><style>.st0,.st2,.st5{fill-rule:evenodd;clip-rule:evenodd;fill:#fff}.st2,.st5{fill:#ffedde}.st5{fill:#332e3c}</style><g id="Group-198" transform="translate(1039 1400)"><path id="Fill-1_00000165925074257810482120000005008656181289227159_" class="st0" d="m-1025.7-1329.8 56.3-2.4-.4-13.4-.5-26.8-56.1-2.4z"/><path id="Fill-2" fill-rule="evenodd" clip-rule="evenodd" fill="#ffa189" d="m-1021.4-1372.8 12 .3v.7l-12-.2z"/><g id="Group-197"><path id="Fill-3_00000111894199657190364230000011226898582387398800_" class="st2" d="M-979.4-1348.7s-2.5-2.3-4.2-4.6c-1.2-1.6-2-3.4-1.5-3.5.2 0 .5-.3 1.1.1 1 .6 2.4 2.4 3.8 3.6 1.3 1.1 1.8 1.4 2.7 2.2.9.8 1.1 1.4 2.2 1.6.8.2 1.4-.2 2.2-.2.8 0 1.6 1.2 1.6 1.2s.8 1.1 1.5 2.3c.9 1.3 1.9 2.8 3.7 5.2 1.1 1.3 2.9 2.8 4.3 4.3 4.1 4.4 8.1 8.8 8.1 8.8l-3.8 1.9-5.2 1.9s-1.5-2.5-3.2-5.2c-1.2-1.9-2.5-4-3.9-5.5-.9-1-1.9-1.1-3-1.3-1.3-.3-2.6-.8-3.7-1.8-.6-.6-1.2-1-1.7-1.4-1.2-.8-1.9-1.1-2.5-1.6-.8-.7-2.3-1.8-3.4-2.6-.8-.6-1.3-1.2-1.2-1.5.3-.5 1.2-.8 2.4-.3 1.3.4 3 1.6 4.1 1.9 1 .3 1.7-.5 1.7-.5s-1.7.6-2.4-.7c-.3-.6-1.4-2.3-1.5-3.1.2-1.1 1.8-1.2 1.8-1.2"/><path id="Fill-5_00000098938300028463866670000009556465918059248513_" class="st2" d="m-958.5-1357.2 9.2.1 2 8.4 1 15.6-4.5 2.3s-.1-2.2-.7-4.2c-.3-1.1-.6-2.1-1-2.9-.5-.9-1.8-1-3-1.2-.9-.1-1.8-.3-2-.5-1.3-1-1.4-2.7-1.6-5.2l-.6-3.5v-2.2s-1.2-.8-1.1-1.5c.2-.9 1.5-1.2 2.1-2.3.4-1 .2-2.9.2-2.9"/><path id="Fill-7_00000052822101586319921010000003961479531162535358_" d="M-918.6-1264.5c-.1-1.3-.2-3.1 0-5.4.3-3.1.9-5.2 1.5-9.6.4-2.6.8-7.3 1.2-10 .9-7 2.6-12.3 3.4-18.7.5-3.6.7-8.9.6-11.5-.1-5.3-2.6-7.5-4.9-8.7-1.9-1-3.7-1.3-3.7-1.3s-22.4.4-25.7-1.8c-.5-.3-1.6-.8-1.6-.8s-1.9.8-2.7 1.3c-1.7 1.1-2.7 2.8-2.7 2.8s-3.1 1.9-5.8 2.9c-2.9 1.1-6.3 1.9-8.7 3.4-1.2.7-2 1.7-2.8 2.8-1.7 2.6-2.6 6.2-3.2 11-.8 6.3-1.1 14.4-1.6 22-.2 3.6-.8 7.2-1.4 10.3-.5 2.9-1.1 6-1.4 8.1-.2 1.3-.2 2.3-.2 3.2h59.7z" fill-rule="evenodd" clip-rule="evenodd" fill="#fffbf0"/><path id="Fill-9_00000146457177175726086680000009430236129333748665_" d="M-959.1-1365.9c1.6-2.2 2.8-2.3 5-3.4 3.3-1.6 7.1-3.2 11.3-3.9 2.5-.4 5.6-.4 7.5.1 4.6 1.2 9.5 4.9 10.7 12.6.1.9.4 2.2.5 4.2.4 4.4.8 11.2 1.8 17.5.8 5.6 2.2 11.1 2.8 16.3.5 4 .6 7.7.4 11.2-.2 2.5-1.8 7.2-2 9.8-.1 1.8 1.4 1.9.1 2.6-1.7.8-3.1 0-3.9-.2-1-.3-.5.5-1.6 1-.7.4-2 .7-3.3.9-4.2.4-6.6-1.6-7.8-1.3-3.3 1-7.6.2-7.7-2.7 0-2.2-1.1-3.9-2.5-6.7-.9-1.9-1.7-3.9-1.9-6.2-.5-5.7 1-12.8 1.3-18.4.2-2.9.2-5.5 0-7.8-.3-3.6-1-6.2-1-6.2s1.1-2.7.5-4.3c-.6-1.5-2.4-.2-3.8-1.3-.9-.7-2.3-2.9-2.3-2.9s-1.7-.6-3.1-1.8c-.9-.7-1.9-2.2-2.2-3.2-.3-1.7.4-4.6 1.2-5.9" fill-rule="evenodd" clip-rule="evenodd" fill="#fa9700"/><path id="Fill-11_00000063617187840255626730000018002053505325101227_" class="st5" d="M-959.9-1350.4h-.1c-.7-.5-1.3-1.2-1-1.9.1-.3.4-.5.7-.7.2-.2.5-.3.8-.6.4-.4.8-.8.8-1.6 0-.1.1-.2.2-.2s.2.1.2.2c0 1.1-.6 1.7-.9 1.9-.3.3-.6.5-.8.6-.3.2-.5.3-.6.5-.2.4.3 1 .8 1.4.1.1.1.2.1.3-.1 0-.1.1-.2.1"/><path id="Fill-13_00000008831433732099240540000011093288114881596582_" class="st5" d="M-950.8-1330.6c-.1 0-.2-.1-.2-.2-.3-3.9-.9-5.2-1.7-7-.4-.8-1.5-1-2.8-1.1-1.1-.1-2.3-.3-2.8-1-.7-1-.8-2.1-1-3.4-.1-.7-.2-1.5-.3-2.4-.6-2.9-.6-4.7.1-6 .1-.1.2-.2.3-.1.1.1.2.2.1.3-.6 1.2-.6 2.9 0 5.7.2.9.3 1.7.4 2.4.2 1.3.3 2.3.9 3.2.4.6 1.4.7 2.5.8 1.3.1 2.6.3 3.1 1.4.9 1.8 1.4 3.2 1.8 7.1-.1.1-.2.2-.4.3"/><path id="Fill-15_00000134943205858966660480000001469514385131517584_" class="st5" d="M-950.6-1345.2h-.1c-.1 0-.2-.1-.2-.2s.1-.2.2-.2c.9.1 1.8-1.1 2-2.7.2-1.5-.3-2.3-.8-2.5-.4-.2-.9-.1-1.3.2-.1.1-.2.1-.3 0-.1-.1-.1-.2 0-.3.6-.5 1.2-.6 1.8-.3.8.4 1.2 1.6 1 3-.1 1.7-1.2 3-2.3 3"/><path id="Fill-17_00000049209482026437553340000005056643513640063619_" class="st5" d="M-919.8-1298.6c-.1 0-.1 0-.2-.1-.9-.9-1.7-2.1-.8-5.4.1-.4.3-.9.5-1.5.3-.9.6-1.9.8-2.6 1.1-5.3.5-13.5-1.7-24.1-1.7-7.9-2.6-19.8-3-24.9-.6-8.5-3.8-11.8-6.6-13.6-3.2-2.2-7.9-3-12.2-2.1-2.5.5-7.1 1.5-10.3 4.1-.1.1-.2.1-.3 0-.1-.1-.1-.2 0-.3 3.3-2.6 8-3.6 10.5-4.2 4.4-.9 9.3-.1 12.6 2.2 2.6 1.8 6.1 5.2 6.8 14 .4 5.1 1.3 17 3 24.9 2.3 10.7 2.9 18.9 1.7 24.3-.2.8-.5 1.8-.8 2.7-.2.6-.4 1.1-.5 1.5-.8 3.1-.1 4.1.7 5 .1.1.1.2 0 .3-.1-.2-.1-.2-.2-.2"/><path id="Fill-19_00000092420961995557710680000010858691197319693203_" class="st5" d="M-951.8-1351.8c-2.8-.6-4.4-4.9-4.4-7 0-.1.1-.2.2-.2s.2.1.2.2c0 2.2 1.7 6.1 4 6.6.1 0 .2.2.2.3 0 0-.1.1-.2.1"/><path id="Fill-21_00000112616086062146357700000009351175140716583831_" class="st5" d="M-956.8-1355.2h-.1c-2.5-1.7-3.7-4.1-3.6-6.9.2-2.8 1.8-5.1 3.2-5.8.1-.1.3 0 .3.1.1.1 0 .3-.1.3-1.3.7-2.8 2.8-3 5.4-.1 1.8.4 4.4 3.4 6.5.1.1.1.2.1.3 0 .1-.1.1-.2.1"/><path id="Fill-23_00000098902030588299187780000016059011450703585949_" class="st5" d="M-950.4-1347.7c-.2 0-.3-.2-.2-.3 0 0 .2-.7.6-1 .1-.1.2-.1.3 0 .1.1.1.2 0 .3-.2.2-.4.7-.4.8-.1.2-.2.2-.3.2"/><path id="Fill-25_00000026843328314804562140000005227755880540988077_" class="st5" d="M-978.2-1264.5c0-2.4.5-5.2 1.2-8.6.6-3.3 1.3-7.1 1.8-11.8.4-3.8.6-7.4.7-10.9.3-4.9.5-9.6 1.3-14.4 1-6 2.9-9.9 5.8-11.6.8-.5 2.5-1.1 4.5-1.8 3.1-1.1 6.9-2.5 9.6-4.1.6-.4 3.2-1.8 4.8-2 .1 0 .2-.1.2-.2s-.1-.2-.3-.2c-1.7.2-4.3 1.6-5 2-2.7 1.7-6.5 3-9.6 4.1-2 .7-3.8 1.3-4.6 1.9-3 1.8-5 5.8-6 11.9-.8 4.8-1 9.5-1.3 14.5-.2 3.5-.4 7.1-.7 10.8-.5 4.7-1.2 8.5-1.8 11.8-.6 3.4-1.1 6.2-1.2 8.7h.6z"/><g id="Group-29" transform="translate(105.51 45.925)"><defs><filter id="Adobe_OpacityMaskFilter" filterUnits="userSpaceOnUse" x="-1026.2" y="-1375.8" width="9.1" height="65.4"><feColorMatrix values="1 0 0 0 0 0 1 0 0 0 0 0 1 0 0 0 0 0 1 0"/></filter></defs><mask maskUnits="userSpaceOnUse" x="-1026.2" y="-1375.8" width="9.1" height="65.4" id="mask-4_00000162321804443666572180000017815091308804109731_"><g filter="url(#Adobe_OpacityMaskFilter)"><path id="path-3_00000122716755739044376100000006539887870098322318_" class="st0" d="M-1026.2-1375.8h9.1v65.4h-9.1z"/></g></mask><path id="Fill-27_00000154391842018061635160000017711369089492606873_" d="m-1026-1375.3.6.2c3.2 1 6.5 2.1 7.4 7.2 1.2 6.3-.3 15-1.9 22.7-1.6 7.8-1.8 9.8-2.2 13.1-.2 1.8-.4 4.1-1 8.1-.1.8-.3 2-.6 3.2-.3 1.6-.6 3.2-.7 4.2-.1 1.1-.2 2.1-.1 3.2 0 1.2.1 2.2.2 3h.5c-.1-.7-.1-1.7-.2-3 0-1 0-2.1.1-3.1s.4-2.6.7-4.2c.2-1.2.4-2.4.6-3.3.6-4 .8-6.3 1-8.1.3-3.3.5-5.2 2.2-13 1.6-7.7 3.1-16.4 1.9-22.9-1-5.5-4.4-6.5-7.7-7.6l-.6-.2c-.1 0-.3 0-.3.1-.1.2-.1.3.1.4" mask="url(#mask-4_00000162321804443666572180000017815091308804109731_)" fill-rule="evenodd" clip-rule="evenodd" fill="#332e3c"/></g><path id="Fill-30_00000134942545375845424980000010396913395052449975_" class="st5" d="M-945.7-1298.4c-.1 0-.1 0 0 0-.2-.1-.3-.2-.2-.3.8-2.1.4-3.2-.2-5.1-.4-1.2-1-2.4-1.6-3.6-.3-.5-.5-1-.7-1.5-.9-1.9-1.8-5.6-1.3-9.9.1-1.2.3-2.5.5-3.8.5-3.6 1-7.6 1-12.8v-.9c0-2.5 0-5.1-.6-7.5 0-.1 0-.2.2-.3.1 0 .2 0 .3.2.6 2.4.6 5 .6 7.6v.9c0 5.3-.5 9.3-1 12.9-.2 1.3-.3 2.6-.5 3.8-.5 4.5.6 8.2 1.3 9.7.2.5.5 1 .7 1.5.6 1.2 1.2 2.4 1.6 3.6.7 1.9 1.1 3.1.2 5.4-.2.1-.2.1-.3.1"/><path id="Fill-32_00000011002940600345919870000007886810431580542607_" class="st5" d="M-957.8-1302.8c-.1 0-.2-.1-.2-.2-1.4-8-3.4-11.3-6.5-14.5-.1-.1-.1-.2 0-.3.1-.1.2-.1.3 0 3.2 3.2 5.3 6.6 6.7 14.7-.1.2-.2.3-.3.3"/><path id="Fill-34_00000077294303233619089670000010964122857597820827_" class="st5" d="M-959.2-1264.5c.8-5 1.1-11.5 1.3-16.3.1-1.7.1-3.1.2-4.2.3-4.6 1.2-11 2.4-14 0-.1 0-.3-.1-.3s-.3 0-.3.1c-1.3 3-2.1 9.4-2.4 14.1-.1 1.1-.1 2.6-.2 4.2-.2 4.9-.5 11.4-1.3 16.4h.4z"/><path id="Fill-36_00000132769202753692173590000003367899192719874449_" class="st5" d="M-938.2-1298c-.9 0-1.9-.4-2.6-1.1-.9-.9-1.4-2.1-1.3-3.2 0-.1.1-.2.2-.2s.2.1.2.2c-.1 1 .4 2.1 1.2 2.8.8.7 1.8 1.1 2.7.9.1 0 .2.1.3.2 0 .1-.1.2-.2.3-.2.1-.4.1-.5.1"/><path id="Fill-38_00000103977878033482326040000000635484224421172925_" class="st5" d="M-933.8-1297.1s-.1 0 0 0c-1.5-.1-3.1-1.1-3.2-3 0-.1.1-.2.2-.2s.2.1.2.2c.1 1.6 1.5 2.4 2.8 2.6.1 0 .2.1.2.2s-.1.2-.2.2"/><path id="Fill-40_00000015333509720250324410000005990211739452843181_" class="st5" d="M-928-1296.7c-.1 0-.2-.1-.2-.2s0-.2.1-.3c3.3-1.1 4.2-4.8 3.7-7.8 0-.1.1-.2.2-.3.1 0 .2.1.3.2.5 3.2-.5 7.2-4.1 8.4"/><path id="Fill-42_00000067212048705758252510000017980409891671921585_" class="st5" d="M-944.8-1329c-.2 0-.2-.1-.2-.3.4-3.2.1-8.9-1-12.4 0-.1 0-.2.2-.3.1 0 .2 0 .3.2 1.1 3.6 1.3 9.3 1 12.5-.1.2-.2.3-.3.3"/><path id="Fill-44_00000175300442206319995640000011896839657017419701_" class="st5" d="M-962.9-1323.9c-.1 0-.2 0-.2-.1-.7-1.1-1.3-2.1-1.9-3-2.1-3.3-3.4-5.4-4.7-7.1-1-1.2-1.8-1.4-2.9-1.6-.7-.1-1.4-.3-2.3-.8-1.1-.6-1.6-1-2.3-1.6-.3-.2-.6-.5-1-.8-.5-.4-1-.7-1.5-1-.7-.5-1.5-1-2.2-1.6-.6-.6-1.3-1-1.9-1.4-1.1-.8-1.9-1.3-1.7-1.9.1-.4.4-.6.7-.7.9-.3 2.6.2 4.5 1.4 1 .7 1.9.9 2.5.8.3-.1.6-.3.7-.5.7-1.2.2-2.5-1.5-4l-.3-.3c-1.9-1.7-3-2.8-4.3-4.4-.6-.7-2.5-3.2-2.1-4.2.1-.2.3-.4.7-.4.6 0 1.4.8 2.6 1.9.3.3.6.6 1 .9.9.8 1.3 1.2 1.8 1.5.3.2.6.5 1 .8.3.3.6.6.9.8.7.6 1.3 1.2 3 2.4.1.1.1.2.1.3-.1.1-.2.1-.3.1-1.7-1.2-2.4-1.9-3.1-2.5-.3-.3-.5-.5-.9-.8-.4-.4-.7-.6-1-.8-.5-.4-.9-.7-1.8-1.5-.3-.3-.7-.6-1-.9-.9-.9-1.8-1.7-2.2-1.7-.2 0-.3.1-.3.1-.2.5.6 2.1 2 3.8 1.3 1.6 2.4 2.6 4.3 4.4l.3.3c1.9 1.7 2.4 3.2 1.5 4.6-.2.3-.5.6-1 .8-.7.2-1.7-.1-2.8-.9-1.7-1.1-3.3-1.6-4-1.3-.2.1-.4.2-.5.5-.1.3.7.8 1.5 1.3.6.4 1.3.9 2 1.5s1.4 1.1 2.2 1.6c.5.3 1.1.7 1.6 1.1.4.3.7.6 1.1.8.7.5 1.2 1 2.2 1.5.8.4 1.5.6 2.2.7 1.1.2 2 .4 3.1 1.8 1.4 1.7 2.7 3.9 4.8 7.1.6.9 1.2 1.9 1.9 3 .1.1 0 .2-.1.3-.3-.3-.4-.3-.4-.3"/><path id="Fill-46_00000079446266751293922440000007539414691120012170_" class="st5" d="M-953.8-1327.6c-.1 0-.1 0-.2-.1l-3.1-3.4c-2.4-2.6-4.3-4.6-4.9-5.3-.7-.8-1.5-1.6-2.3-2.3-1.2-1.1-2.3-2.2-3.3-3.6-.5-.6-1-1.5-1.6-2.5-.7-1-1.4-2.2-2.2-3.3-1-1.4-1.5-1.3-2.2-1.1-.5.1-1.2.3-2.1-.1-.1 0-.2-.2-.1-.3 0-.1.2-.2.3-.1.8.3 1.3.2 1.8 0 .8-.2 1.6-.3 2.7 1.3.8 1.1 1.5 2.3 2.2 3.4.6 1 1.1 1.8 1.6 2.4 1 1.3 2.1 2.4 3.3 3.5.8.7 1.6 1.5 2.3 2.4.6.7 2.5 2.7 4.9 5.3l3.1 3.4c.1.1.1.2 0 .3-.1.1-.1.1-.2.1"/><path id="Fill-48_00000041272744204950498880000002254910652846077590_" class="st5" d="M-977.9-1343.4c-1.5 0-1.9-.9-2.5-2-.1-.3-.3-.6-.4-.9-.4-.8-.5-1.4-.3-1.9.3-.5.9-.7 1.8-.8.1 0 .2.1.2.2s-.1.2-.2.2c-.8 0-1.3.2-1.5.5-.2.3-.1.8.3 1.4.2.3.3.6.5.9.6 1.3 1 2 2.8 1.7.1 0 .2.1.3.2 0 .1-.1.2-.2.3-.3.2-.5.2-.8.2"/><g id="Group-52"><defs><filter id="Adobe_OpacityMaskFilter_00000047061463098925774040000008504098915108738990_" filterUnits="userSpaceOnUse" x="-1026.4" y="-1375.7" width="57" height="45.2"><feColorMatrix values="1 0 0 0 0 0 1 0 0 0 0 0 1 0 0 0 0 0 1 0"/></filter></defs><mask maskUnits="userSpaceOnUse" x="-1026.4" y="-1375.7" width="57" height="45.2" id="mask-6_00000109715747842638980700000004283639375279170193_"><g filter="url(#Adobe_OpacityMaskFilter_00000047061463098925774040000008504098915108738990_)"><path id="path-5_00000097467415648354640130000011135783573305963925_" class="st0" d="M-1026.4-1375.7h57v45.2h-57z"/></g></mask><path id="Fill-50_00000092429595225816222980000010992365686762515072_" d="M-1025.5-1330.5c-.1 0-.1 0-.2-.1 0 0-.1-.1-.1-.2l-.7-44.7c0-.1 0-.1.1-.2 0 0 .1-.1.2-.1l55.7 2.4c.1 0 .2.1.2.2l.4 26.5c0 .1-.1.2-.2.2s-.2-.1-.2-.2l-.4-26.3-55.3-2.4.7 44.3 55.4-2.3v-.9c0-.1.1-.2.2-.2s.2.1.2.2v1.1c0 .1-.1.2-.2.2l-55.8 2.5" mask="url(#mask-6_00000109715747842638980700000004283639375279170193_)" fill-rule="evenodd" clip-rule="evenodd" fill="#332e3c"/></g><path id="Fill-53_00000053540601753774712470000002071317672273732275_" class="st5" d="M-1020.9-1333.4c-.1 0-.1 0-.2-.1 0 0-.1-.1-.1-.2l-.6-36.7c0-.1 0-.1.1-.2 0 0 .1-.1.2-.1l47.7 1.8c.1 0 .2.1.2.2l.3 18.9c0 .1-.1.2-.2.2s-.2-.1-.2-.2l-.3-18.6-47.2-1.8.5 36.2 47.4-1.7v-.2c0-.1.1-.2.2-.2s.2.1.2.2v.4c0 .1-.1.2-.2.2l-47.8 1.9"/><path id="Fill-55_00000065775258278941315170000003245529154312091528_" class="st5" d="M-977.6-1345.7c-.4 0-.7 0-.9-.1-.1 0-.2-.2-.1-.3 0-.1.2-.2.3-.1.2.1.6.1 1.3 0 .1 0 .2.1.2.2s-.1.2-.2.2c-.2.1-.4.1-.6.1"/><path id="Fill-57_00000142865116888878099940000013734084223743505072_" class="st5" d="M-1013.9-1333.6c-.1 0-.2-.1-.2-.2l-.3-36c0-.1.1-.2.2-.2s.2.1.2.2l.3 36c0 .1-.1.2-.2.2z"/><path id="Fill-59_00000180327056439947241830000009845700903597363378_" class="st5" d="M-1006.7-1334c-.1 0-.2-.1-.2-.2v-1.4l-.3-33.8c0-.1.1-.2.2-.2s.2.1.2.2l.3 35.2c0 .1-.1.2-.2.2z"/><path id="Fill-61_00000135682251527959264450000016717233618103046565_" class="st5" d="M-999.6-1334.2c-.1 0-.2-.1-.2-.2v-2.6l-.3-32.1c0-.1.1-.2.2-.2s.2.1.2.2l.3 34.8s-.1.1-.2.1z"/><path id="Fill-63_00000083088473031897050930000006528257984656640937_" class="st5" d="M-992.3-1334.4c-.1 0-.2-.1-.2-.2v-2.9l-.3-31.4c0-.1.1-.2.2-.2s.2.1.2.2l.3 34.3c0 .1-.1.2-.2.2z"/><path id="Fill-65_00000079478523330761310930000012263821965873668743_" class="st5" d="M-985.7-1334.9c-.1 0-.2-.1-.2-.2l-.3-33.5c0-.1.1-.2.2-.2s.2.1.2.2l.3 33.5c0 .1-.1.2-.2.2z"/><path id="Fill-67_00000111188806743106394490000008733983451716922018_" class="st5" d="M-979.2-1352.3c-.1 0-.2-.1-.2-.2l-.1-15.9c0-.1.1-.2.2-.2s.2.1.2.2l.1 15.9c0 .1-.1.2-.2.2z"/><path id="Fill-69_00000023988706744893490410000000101242180296243134_" class="st5" d="M-979.1-1343c-.1 0-.2-.1-.2-.2v-.5c0-.1.1-.2.2-.2s.2.1.2.2v.5c0 .1-.1.2-.2.2z"/><path id="Fill-71_00000117643469737975603060000000736079215235709324_" class="st5" d="M-979-1335.2c-.1 0-.2-.1-.2-.2v-4.1c0-.1.1-.2.2-.2s.2.1.2.2v4.1c0 .1-.1.2-.2.2z"/><path id="Fill-73_00000128471763494614040160000006820236064039302574_" class="st5" d="m-973.8-1361.7-47.4-.6c-.1 0-.2-.1-.2-.2s.1-.2.2-.2l47.4.6c.1 0 .2.1.2.2s-.1.2-.2.2"/><path id="Fill-75_00000160873578740610828780000012488176552715978139_" class="st5" d="M-1020.9-1355.5c-.1 0-.2-.1-.2-.2s.1-.2.2-.2l35.7-.2c.1 0 .2.1.2.2s-.1.2-.2.2l-35.7.2z"/><path id="Fill-77_00000155834374925542341460000002028121765248508335_" class="st5" d="M-983.1-1355.7c-.1 0-.2-.1-.2-.2s.1-.2.2-.2l9.5-.1c.1 0 .2.1.2.2s-.1.2-.2.2l-9.5.1z"/><path id="Fill-79_00000000182781396740611280000001437974234630335134_" class="st5" d="M-1020.6-1340.9c-.1 0-.2-.1-.2-.2s.1-.2.2-.2l37.9-1v.4l-37.9 1z"/><path id="Fill-81_00000000921805881047448410000008590996807592125103_" class="st5" d="M-1020.9-1348c-.1 0-.2-.1-.2-.2s.1-.2.2-.2l41.5-.6c.1 0 .2.1.2.2s-.1.2-.2.2l-41.5.6z"/><path id="Fill-83_00000086680852915353523220000010699326196419521415_" class="st5" d="m-1021.2-1372.4 11.6.4v-.7l-11.6-.6v.9zm11.9.9s-.1 0 0 0l-12.1-.4c-.1 0-.2-.1-.2-.2v-1.3c0-.1 0-.1.1-.2 0 0 .1-.1.2-.1l12.1.6c.1 0 .2.1.2.2v1.1c0 .1 0 .1-.1.2s-.2.1-.2.1z"/><path id="Fill-85_00000070815072682854125580000001927188784762455736_" class="st5" d="M-1019.3-1365.8c-.1 0-.2-.1-.2-.2v-2.2c-.1.2-.2.4-.3.4-.1.1-.2.1-.3.1-.1-.1-.1-.2-.1-.3.1-.1.2-.2.3-.4.4-.7.5-.8.7-.7.2.1.2.1.2 1.5v1.6c-.1.1-.2.2-.3.2z"/><path id="Fill-87_00000059989536998621814910000000861014688565020831_" class="st5" d="M-1011.8-1365.6c-1 0-1.1-.1-1.2-.2-.1-.2 0-.4.5-.9l.3-.4c.2-.3.5-.6.4-1 0-.2-.3-.2-.4-.2 0 0-.4 0-.4.3 0 .1-.1.2-.2.2s-.2-.1-.2-.2c0-.4.3-.7.8-.7s.8.2.9.6c.1.6-.3 1.1-.5 1.4l-.3.4c-.1.1-.2.3-.3.4h1.1c.1 0 .2.1.2.2s-.1.2-.2.2h-.1c-.1-.1-.3-.1-.4-.1z"/><path id="Fill-89_00000152978781154909607700000006692914588094488470_" class="st5" d="M-1004.7-1365.5c-.4 0-.7-.2-.8-.6 0-.1 0-.2.2-.3.1 0 .2 0 .3.2.1.3.3.3.4.3.2 0 .5-.2.6-.5.1-.5-.4-.7-.4-.7-.1 0-.2-.1-.2-.2s0-.2.1-.2c.2-.1.5-.3.4-.5 0-.3-.3-.3-.4-.3-.2 0-.4.1-.4.3 0 .1-.1.2-.3.2-.1 0-.2-.1-.2-.3.1-.4.5-.7.9-.7s.8.3.8.7c.1.3-.1.6-.3.8h.1c.3.2.4.6.3 1-.2.5-.7.8-1.1.8"/><path id="Fill-91_00000072968817614881210950000016086839510553399971_" class="st5" d="M-997.5-1366.3c-.8 0-.9-.1-.9-.2s-.1-.2.2-1.8c0-.1.1-.2.3-.2.1 0 .2.1.2.3-.1.5-.2 1.2-.2 1.4h.9c.1 0 .2.1.2.2s-.1.2-.2.2c-.2.1-.4.1-.5.1z"/><path id="Fill-93_00000000940314294845769520000012059531882963393951_" class="st5" d="M-997-1365.1s-.1 0 0 0c-.1 0-.2-.1-.2-.2l.1-2.3c0-.1.1-.2.2-.2s.2.1.2.2l-.1 2.3c0 .1-.1.2-.2.2"/><path id="Fill-95_00000179643558958262532260000001858475517627748026_" class="st5" d="M-990.7-1365c-.2 0-.4 0-.6-.1-.1 0-.2-.2-.1-.3 0-.1.2-.2.3-.1.4.1.7.1.9-.1.2-.1.1-.4.1-.5-.1-.4-.5-.4-.8-.4-.2 0-.3 0-.4-.2-.1-.2-.1-.4-.1-.7v-.2c0-.1 0-.2.1-.2.2-.2.5-.2 1.2-.1.1 0 .2.1.2.2s-.1.2-.2.2h-.8v.5c.3 0 1.1 0 1.3.8.1.4 0 .7-.2 1-.3.2-.6.2-.9.2"/><path id="Fill-97_00000106846236633002957570000003336332129946300092_" class="st5" d="M-984.4-1366.1v.5c0 .1.1.3.2.4.1.1.3 0 .5 0 .1-.1.2-.1.2-.2.1-.2 0-.4-.1-.6 0-.1-.1-.1-.2-.1-.3-.2-.5-.1-.6 0m.3 1.4c-.1 0-.2 0-.4-.1s-.4-.3-.5-.7c-.1-.7.3-1.9 1.2-2.3.1 0 .3 0 .3.1s0 .3-.1.3c-.3.1-.6.4-.7.7h.4c.2 0 .4.2.5.3.2.3.2.7.2 1-.1.2-.2.4-.4.5-.1.2-.3.2-.5.2"/><path id="Fill-99_00000177454827522294778060000016339652344957463466_" class="st5" d="M-977.6-1364.6c-.2 0-.3-.1-.2-.3.1-.4.3-1.1.6-1.7.1-.2.2-.5.2-.7-.2 0-.7-.1-1.1-.1-.1 0-.2-.1-.2-.2s.1-.2.2-.2c.9 0 1.4 0 1.6.2.1.1.1.2.1.3 0 .1-.1.4-.3.8-.2.6-.5 1.3-.5 1.6-.2.2-.3.3-.4.3"/><path id="Fill-101_00000121975922891313176540000017878570795168784256_" class="st5" d="M-1019.3-1361.1c-.1 0-.1 0-.2.1s-.2.2-.2.3c0 .1.1.3.3.4.2-.2.3-.2.2-.4.1-.2 0-.3-.1-.4zm-.1 1.5c0 .1-.1.1-.1.2-.2.3-.3.5-.2.7.1.2.3.2.5.2.1 0 .2-.1.2-.1.1-.2 0-.4-.1-.7-.1-.2-.2-.3-.3-.3zm.1 1.5c-.3 0-.7-.2-.8-.4-.1-.2-.2-.6.2-1.2.1-.1.1-.2.2-.2-.2-.2-.4-.5-.4-.8 0-.2.1-.4.3-.6.2-.2.5-.2.7-.1.2.1.4.4.4.7 0 .4-.2.6-.4.8l.3.3c.2.4.3.8.2 1.1-.1.2-.3.4-.6.4h-.1z"/><path id="Fill-103_00000133517162902099159710000014335239868746145195_" class="st5" d="M-1011.9-1361c-.1 0-.1 0 0 0-.4 0-.5.3-.5.4-.1.3 0 .7.2.8.2.1.5-.1.6-.2v-.2c0-.4 0-.7-.2-.8h-.1m-.2 3c-.2 0-.4 0-.6-.1-.1 0-.2-.2-.1-.3 0-.1.2-.2.3-.1.3.1.4.1.6 0 .2-.1.3-.5.3-.9-.4.2-.7.1-.8 0-.4-.2-.6-.8-.5-1.3.1-.5.4-.8.9-.8.2 0 .5 0 .6.2.2.2.3.6.3 1.1v.3c0 .6 0 1.4-.5 1.7-.2.2-.3.2-.5.2"/><path id="Fill-105_00000023277478583974449910000008277401679610359465_" class="st5" d="M-1005.2-1358.1c-.1 0-.2-.1-.2-.2v-2.1c-.1.2-.2.3-.3.4-.1.1-.2.1-.3.1-.1-.1-.1-.2-.1-.3.1-.1.2-.2.3-.4.4-.7.5-.8.7-.7.2.1.2.1.1 1.1v1.9c0 .1-.1.2-.2.2z"/><path id="Fill-107_00000016759702144933161930000017174872664188165534_" class="st5" d="M-1003.6-1360.9c-.1 0-.2.1-.3.3-.2.6-.2 1.6 0 2 .1.1.2.1.2.1.1 0 .2 0 .3-.1.2-.2.3-.9.2-1.7 0-.4-.2-.6-.4-.6zm0 2.9c-.1 0-.1 0 0 0-.3 0-.5-.2-.7-.4-.4-.6-.2-1.9-.1-2.4.1-.4.4-.6.8-.6s.8.4.9 1c.1.5.1 1.6-.4 2.1-.1.2-.3.3-.5.3z"/><path id="Fill-109_00000178921138504291511470000015039410333493581745_" class="st5" d="M-998.2-1358.1c-.1 0-.2-.1-.2-.2v-2.1c-.1.2-.2.3-.3.4-.1.1-.2.1-.3.1-.1-.1-.1-.2-.1-.3.1-.1.2-.2.3-.4.4-.7.5-.8.7-.7.2.1.2.1.1 1.1v1.9c.1.1 0 .2-.2.2z"/><path id="Fill-111_00000134960119061442438010000001635682484541530045_" class="st5" d="M-996.6-1358.1c-.1 0-.2-.1-.2-.2v-2.1c-.1.2-.2.3-.3.4-.1.1-.2.1-.3.1-.1-.1-.1-.2-.1-.3.1-.1.2-.2.3-.4.4-.7.5-.8.7-.7.2.1.2.1.1 1.1v1.9c0 .1-.1.2-.2.2z"/><path id="Fill-113" class="st5" d="M-990.9-1358.2c-.1 0-.2-.1-.2-.2v-2c-.1.2-.2.3-.2.4-.1.1-.2.1-.3.1-.1-.1-.1-.2-.1-.3.1-.1.2-.2.3-.4.4-.7.5-.8.7-.7.2.1.2.2.1 1v1.9c0 .1-.1.2-.3.2z"/><path id="Fill-115" class="st5" d="M-984.3-1358.2c-.1 0-.2-.1-.2-.2v-1.9c-.1.1-.2.3-.2.3-.1.1-.2.1-.3.1-.1-.1-.1-.2-.1-.3 0-.1.1-.2.2-.4.4-.7.4-.8.7-.7.2.1.2.1.2 1.4v1.5c-.1.1-.2.2-.3.2z"/><path id="Fill-117" class="st5" d="M-982.7-1358.1c-.4 0-.7-.2-.8-.6 0-.1 0-.2.2-.3.1 0 .2 0 .3.2.1.2.3.2.3.2.2 0 .4-.2.5-.5.1-.5-.3-.6-.4-.6-.1 0-.2-.1-.2-.2s0-.2.1-.2c.1-.1.4-.3.4-.5s-.2-.3-.3-.3c-.2 0-.3.1-.3.3 0 .1-.1.2-.3.2-.1 0-.2-.1-.2-.3.1-.4.4-.7.8-.7s.7.3.8.6c0 .3-.1.6-.3.7.2.2.4.5.4 1-.2.7-.6 1-1 1"/><path id="Fill-119" class="st5" d="M-977.6-1358.2c-.1 0-.2-.1-.2-.2v-1.9c-.1.1-.2.3-.2.3-.1.1-.2.1-.3.1-.1-.1-.1-.2-.1-.3 0-.1.1-.2.2-.4.4-.7.4-.8.6-.6.2.1.2.1.2 1.3v1.5c0 .1-.1.2-.2.2z"/><path id="Fill-121" class="st5" d="M-976.1-1359.3c-.7 0-.8-.1-.8-.2s-.1-.2.2-1.6c0-.1.1-.2.3-.2.1 0 .2.1.2.3-.1.5-.2 1-.2 1.2h.7c.1 0 .2.1.2.2s-.1.2-.2.2c-.2.1-.3.1-.4.1z"/><path id="Fill-123" class="st5" d="M-975.7-1358.2c-.1 0-.2-.1-.2-.2l.1-2c0-.1.1-.2.2-.2s.2.1.2.2l-.1 2c0 .1-.1.2-.2.2"/><path id="Fill-125" class="st5" d="M-1019.3-1351.4c-.1 0-.2-.1-.2-.2v-2.2c-.1.2-.2.4-.3.4-.1.1-.2.1-.3.1-.1-.1-.1-.2-.1-.3.1-.1.2-.2.3-.4.4-.7.5-.8.7-.7.2.1.2.1.2 1.5v1.6c-.1.1-.2.2-.3.2z"/><path id="Fill-127" class="st5" d="M-1017.7-1351.3c-.2 0-.4 0-.6-.1-.1 0-.2-.2-.1-.3 0-.1.2-.2.3-.1.4.1.7.1.9-.1.2-.1.2-.4.2-.7-.1-.4-.5-.5-.9-.5-.2 0-.3 0-.4-.2-.1-.2-.1-.5-.1-.8v-.2c0-.1 0-.2.1-.2.2-.2.5-.2 1.3-.1.1 0 .2.1.2.2s-.1.2-.2.2c-.2 0-.7-.1-.9 0v.6c.4 0 1.2 0 1.3.9.1.5 0 .9-.3 1.1-.3.2-.5.3-.8.3"/><path id="Fill-129" class="st5" d="M-1012.3-1351.5c-.1 0-.2-.1-.2-.2v-2.2c-.1.2-.2.4-.3.4-.1.1-.2.1-.3.1-.1-.1-.1-.2-.1-.3.1-.1.2-.2.3-.4.4-.7.5-.8.7-.7.2.1.2.1.2 1.5v1.6c-.1 0-.2.2-.3.2z"/><path id="Fill-131" class="st5" d="M-1011.2-1353v.5c0 .2.1.4.3.5.1.1.3 0 .5-.1.1-.1.2-.1.2-.3.1-.2 0-.5-.1-.7-.1-.1-.2-.1-.2-.1-.3 0-.5.1-.7.2.1 0 .1 0 0 0m.5 1.5c-.1 0-.3 0-.4-.1-.2-.1-.4-.3-.5-.8-.1-.8.3-2.1 1.3-2.5.1 0 .3 0 .3.1s0 .3-.1.3c-.4.1-.6.5-.8.8.2 0 .3-.1.5 0 .3 0 .5.2.6.4.2.3.3.7.2 1.1-.1.2-.2.4-.4.6-.4.1-.6.1-.7.1"/><path id="Fill-133" class="st5" d="M-1005.1-1351.7c-.1 0-.2-.1-.2-.2v-2.2c-.1.2-.2.4-.3.4-.1.1-.2.1-.3.1-.1-.1-.1-.2-.1-.3.1-.1.2-.2.3-.4.4-.7.5-.8.7-.7.2.1.2.1.2 1.5v1.6c-.1.1-.2.2-.3.2z"/><path id="Fill-135" class="st5" d="M-1003.7-1351.6c-.2 0-.3-.1-.2-.3.1-.4.4-1.2.6-1.9.1-.3.2-.6.3-.8h-1.1c-.1 0-.2-.1-.3-.2 0-.1.1-.2.2-.2.9-.1 1.4 0 1.6.1.1.1.1.2.1.3 0 .1-.1.4-.3 1l-.6 1.8c-.1.1-.2.2-.3.2z"/><path id="Fill-137" class="st5" d="M-997.9-1351.7c-.1 0-.2-.1-.2-.2v-2.2c-.1.2-.2.4-.3.4-.1.1-.2.1-.3.1-.1-.1-.1-.2-.1-.3.1-.1.2-.2.3-.4.4-.7.5-.8.7-.7.2.1.2.1.2 1.5v1.6c0 .1-.1.2-.3.2z"/><path id="Fill-139" class="st5" d="M-996.2-1354.6c-.1 0-.1 0-.2.1s-.2.2-.2.3c0 .1.1.3.3.4.2-.2.3-.2.2-.4.1-.3 0-.4-.1-.4zm-.1 1.4c0 .1-.1.1-.1.2-.2.3-.3.5-.2.7.1.2.3.2.5.2.1 0 .2-.1.2-.1.1-.2 0-.4-.1-.7l-.3-.3zm.1 1.6c-.3 0-.7-.2-.8-.4-.1-.2-.2-.6.2-1.2.1-.1.1-.2.2-.2-.2-.2-.4-.5-.4-.8 0-.2.1-.4.3-.6.2-.2.5-.2.7-.1.2.1.4.4.4.7 0 .4-.2.6-.4.8l.3.3c.2.4.3.8.2 1.1-.1.2-.3.4-.6.4h-.1z"/><path id="Fill-141" class="st5" d="M-990.7-1351.9c-.1 0-.2-.1-.2-.2v-2.1c-.1.2-.2.3-.2.4-.1.1-.2.1-.3.1-.1-.1-.1-.2-.1-.3 0-.1.1-.2.2-.4.4-.7.4-.8.7-.7.2.1.2.1.2 1.4v1.5c-.1.2-.2.3-.3.3z"/><path id="Fill-143" class="st5" d="M-989.2-1354.7c-.3 0-.4.2-.5.4-.1.3 0 .6.2.7.2.1.4-.1.6-.2v-.2c0-.3 0-.6-.2-.7.1.1 0 0-.1 0m-.1 2.9c-.2 0-.3 0-.5-.1-.1 0-.2-.2-.1-.3 0-.1.2-.2.3-.1.2.1.4.1.5 0 .2-.1.2-.5.3-.8-.4.2-.6.1-.8 0-.4-.2-.6-.7-.4-1.2.1-.4.4-.7.8-.8.2 0 .4 0 .6.2.2.2.3.6.3 1.1v.3c0 .6 0 1.3-.5 1.6-.2 0-.3.1-.5.1"/><path id="Fill-145" class="st5" d="M-984.7-1354.3c-.1 0-.2-.1-.2-.2 0-.2.1-.3.2-.5.1-.1.2-.1.3 0 .1.1.1.2 0 .3 0 0-.1.1-.1.2s-.1.2-.2.2"/><path id="Fill-147" class="st5" d="M-983.9-1352.1c-.9 0-1-.1-1.1-.2-.1-.2 0-.4.4-.9l.3-.4.2-.2c.1-.1.2-.1.3-.1.1.1.1.2.1.3-.1.1-.1.2-.2.2l-.3.4c-.1.1-.2.2-.3.4h1c.1 0 .2.1.2.2s-.1.2-.2.2h-.1c-.1.1-.2.1-.3.1"/><path id="Fill-149" class="st5" d="M-977.2-1352.3c-.8 0-.9-.1-1-.2-.1-.2 0-.4.4-.9l.3-.4c.2-.2.4-.5.4-.9 0-.2-.2-.2-.3-.2 0 0-.3 0-.3.2 0 .1-.1.2-.2.2s-.2-.1-.2-.2c0-.4.3-.7.7-.7.4 0 .7.2.8.6.1.6-.3 1-.5 1.3l-.3.4c-.1.1-.2.2-.2.3h.9c.1 0 .2.1.2.2s-.1.2-.2.2h-.1c-.2.1-.3.1-.4.1"/><path id="Fill-151" class="st5" d="M-975.6-1352.3c-.1 0-.2-.1-.2-.2V-1354.2c-.1.1-.1.2-.2.3-.1.1-.2.1-.3.1-.1-.1-.1-.2-.1-.3 0-.1.1-.2.2-.4.4-.6.4-.7.6-.6.2.1.2.1.1 1.1v1.6c.1 0 0 .1-.1.1z"/><path id="Fill-153" class="st5" d="M-953.1-1327.9h-.1c-.1-.1-.2-.2-.1-.3 1-2 3.3-3.4 5-4 .1 0 .3 0 .3.1s0 .2-.1.3c-1.6.6-3.8 1.9-4.7 3.8-.2 0-.3.1-.3.1"/><path id="Fill-155" class="st5" d="M-1019.3-1344c-.6 0-.7-.1-.7-.2-.1-.2 0-.4.5-.9l.3-.4c.2-.3.5-.6.4-1 0-.2-.3-.2-.4-.2 0 0-.4 0-.4.3 0 .1-.1.2-.2.2s-.2-.1-.2-.2c0-.4.3-.7.8-.7s.8.2.9.6c.1.6-.3 1.1-.5 1.4l-.3.4-.3.3h1.3c.1 0 .2.1.2.2s-.1.2-.2.2h-.3c-.4-.1-.7 0-.9 0"/><path id="Fill-157" class="st5" d="M-1016.9-1344.1c-.4 0-.5 0-.6-.2-.1-.2 0-.4.5-.9l.3-.4c.2-.3.5-.6.4-1 0-.2-.3-.2-.4-.2 0 0-.4 0-.4.3 0 .1-.1.2-.2.2s-.2-.1-.2-.2c0-.4.3-.7.8-.7.4 0 .8.2.9.6.1.6-.3 1.1-.5 1.4l-.3.4-.3.3h1.2c.1 0 .2.1.2.2s-.1.2-.2.2h-1.2"/><path id="Fill-159" class="st5" d="M-1012.6-1344.3c-.4 0-.5 0-.6-.2-.1-.2 0-.4.5-.9l.3-.4c.2-.3.5-.6.4-1 0-.2-.3-.2-.4-.2 0 0-.4 0-.4.3 0 .1-.1.2-.2.2s-.2-.1-.2-.2c0-.4.3-.7.8-.7.4 0 .8.2.9.6.1.6-.3 1.1-.5 1.4l-.3.4-.3.3h1.2c.1 0 .2.1.2.2s-.1.2-.2.2h-1.2"/><path id="Fill-161" class="st5" d="M-1010.1-1344.3c-.4 0-.7-.2-.8-.6 0-.1 0-.2.2-.3.1 0 .2 0 .3.2.1.3.3.3.4.3.2 0 .5-.2.6-.5.1-.5-.4-.7-.4-.7-.1 0-.2-.1-.2-.2s0-.2.1-.2c.2-.1.5-.3.4-.5 0-.3-.3-.3-.4-.3-.2 0-.4.1-.4.3 0 .1-.1.2-.3.2-.1 0-.2-.1-.2-.3.1-.4.5-.7.9-.7s.8.3.8.7c.1.3-.1.6-.3.8.3.2.5.5.4 1-.2.5-.6.8-1.1.8.1 0 0 0 0 0"/><path id="Fill-163" class="st5" d="M-1005.4-1344.6c-.4 0-.5 0-.6-.2-.1-.2 0-.4.5-.9l.3-.4c.2-.3.5-.6.4-1 0-.2-.3-.2-.4-.2 0 0-.4 0-.4.3 0 .1-.1.2-.2.2s-.2-.1-.2-.2c0-.4.3-.7.8-.7.4 0 .8.2.9.6.1.6-.3 1.1-.5 1.4l-.3.4-.3.3h1.2c.1 0 .2.1.2.2s-.1.2-.2.2h-1.2"/><path id="Fill-165" class="st5" d="M-1002.9-1345.6c-.8 0-.9-.1-.9-.2s-.1-.2.2-1.8c0-.1.1-.2.3-.2.1 0 .2.1.2.3-.1.5-.2 1.2-.2 1.4h.9c.1 0 .2.1.2.2s-.1.2-.2.2c-.2.1-.4.1-.5.1z"/><path id="Fill-167" class="st5" d="M-1002.4-1344.6c-.1 0-.2-.1-.2-.2v-2c0-.1.1-.2.2-.2s.2.1.2.2v2c.1.1-.1.2-.2.2"/><path id="Fill-169" class="st5" d="M-998.2-1344.7c-.4 0-.5 0-.6-.2-.1-.2 0-.4.5-.9l.3-.4c.2-.3.5-.6.4-1 0-.2-.3-.2-.4-.2-.1 0-.4.1-.4.3 0 .1-.1.2-.2.2s-.2-.1-.2-.2c0-.4.3-.7.8-.7.4 0 .8.2.9.6.1.6-.3 1-.5 1.3l-.3.4-.3.3h1.2c.1 0 .2.1.2.2s-.1.2-.2.2h-.3c-.4.1-.7.1-.9.1"/><path id="Fill-171" class="st5" d="M-995.7-1344.8c-.2 0-.4 0-.6-.1-.1 0-.2-.2-.2-.3 0-.1.2-.2.3-.2.4.1.8.1.9-.1.2-.1.1-.4.1-.5-.1-.4-.5-.4-.9-.4-.2 0-.3 0-.4-.2-.1-.2-.1-.4-.1-.7v-.2c0-.1 0-.2.1-.2.2-.2.5-.2 1.3-.1.1 0 .2.1.2.2s-.1.2-.2.2h-.9v.5c.4 0 1.2 0 1.4.8.1.4 0 .7-.2 1-.2.2-.5.3-.8.3"/><path id="Fill-173" class="st5" d="M-991.1-1344.9c-.4 0-.5 0-.6-.2-.1-.2 0-.4.5-.9l.3-.4c.2-.3.5-.6.4-1 0-.2-.3-.2-.4-.2-.1 0-.3.1-.4.3 0 .1-.1.2-.2.2s-.2-.1-.2-.2c0-.4.3-.7.8-.7.4 0 .8.2.9.6.1.6-.3 1-.5 1.3l-.3.4-.3.3h1.2c.1 0 .2.1.2.2s-.1.2-.2.2h-.3c-.4.1-.7.1-.9.1"/><path id="Fill-175" class="st5" d="M-988.9-1346.3v.5c0 .1.1.3.2.4.1.1.3 0 .5 0 .1-.1.2-.1.2-.2.1-.2 0-.4-.1-.6 0-.1-.1-.1-.2-.1-.2-.2-.4-.1-.6 0m.4 1.4c-.1 0-.2 0-.4-.1s-.4-.3-.5-.7c-.1-.7.3-1.9 1.2-2.3.1 0 .3 0 .3.1s0 .3-.1.3c-.3.1-.6.4-.7.7h.4c.2 0 .4.2.5.3.2.3.2.7.2 1-.1.2-.2.4-.4.5-.2.2-.4.2-.5.2"/><path id="Fill-177" class="st5" d="M-984.7-1345.1c-.2-.1-.3-.2-.2-.3.1-.1.2-.3.5-.6l.3-.4c.2-.3.5-.6.4-1 0-.2-.3-.2-.4-.2-.1 0-.3.1-.4.3 0 .1-.1.2-.2.2s-.2-.1-.2-.2c0-.4.3-.7.8-.7s.8.2.9.6c.1.6-.3 1-.5 1.3l-.3.4c-.2.2-.4.4-.4.5-.1 0-.2.1-.3.1"/><path id="Fill-179_00000173839550835297522380000013390697625142916505_" class="st5" d="M-983.5-1345c-.1 0-.2-.1-.2-.2s.1-.2.2-.2h.4c.1 0 .2.1.2.2s-.1.2-.2.2h-.4c.1 0 0 0 0 0"/><path id="Fill-181_00000088844784324835491680000012191093064318973321_" class="st5" d="M-982.1-1344.9s0-.1 0 0c-.2 0-.3-.1-.2-.3.1-.4.3-1.1.6-1.7.1-.2.2-.5.2-.7-.2 0-.7-.1-1.1-.1-.1 0-.2-.1-.2-.2s.1-.2.2-.2c.9 0 1.4 0 1.6.2.1.1.1.2.1.3 0 .1-.1.4-.3.8-.2.6-.5 1.3-.5 1.6-.2.2-.3.3-.4.3"/><path id="Fill-183_00000098191962240875369240000016664427476116706463_" class="st5" d="M-1019.4-1337.1c-.6 0-.7-.1-.7-.2-.1-.2 0-.4.5-.9l.3-.4c.2-.3.5-.6.4-1 0-.2-.3-.2-.4-.2 0 0-.4 0-.4.3 0 .1-.1.2-.2.2s-.2-.1-.2-.2c0-.4.3-.7.8-.7s.8.2.9.6c.1.6-.3 1.1-.5 1.4l-.3.4-.3.3h1.3c.1 0 .2.1.2.2s-.1.2-.2.2h-1.2"/><path id="Fill-185" class="st5" d="M-1016.7-1340.1c-.1 0-.1 0 0 0-.3 0-.5.2-.5.4-.1.3 0 .6.2.8.2.1.5-.1.6-.2v-.2c0-.4 0-.6-.2-.7l-.1-.1m-.2 3c-.2 0-.3 0-.6-.1-.1 0-.2-.2-.1-.3 0-.1.2-.2.3-.1.3.1.5.1.6 0 .2-.1.3-.5.3-.9-.4.2-.7.1-.9 0-.4-.2-.6-.8-.4-1.2.1-.4.4-.7.9-.8.2 0 .5.1.6.2.2.2.3.6.3 1.1v.3c0 .6 0 1.3-.5 1.6-.1.1-.3.2-.5.2"/><path id="Fill-187" class="st5" d="M-1012.3-1337.2c-.4 0-.7-.2-.8-.6 0-.1 0-.2.2-.3.1 0 .2 0 .3.2.1.3.3.3.4.3.2 0 .5-.2.6-.5 0-.2 0-.4-.2-.5-.1-.1-.3-.1-.3-.1-.1 0-.2-.1-.2-.2s0-.2.1-.2c.2-.1.5-.3.4-.5 0-.3-.3-.3-.4-.3-.2 0-.4.1-.4.3 0 .1-.1.2-.3.2-.1 0-.2-.1-.2-.3.1-.4.5-.7.9-.7s.8.3.8.7c.1.3-.1.6-.3.8h.1c.3.2.4.6.3 1 0 .4-.5.7-1 .7.1 0 .1 0 0 0"/><path id="Fill-189" class="st5" d="M-1010.1-1339.9c-.2.6-.2 1.6 0 2 .1.1.2.1.2.1.1 0 .2 0 .3-.1.2-.2.3-.9.2-1.7 0-.4-.3-.6-.5-.6-.1 0-.2.1-.2.3m.3 2.6c-.1 0-.1 0 0 0-.3 0-.5-.2-.7-.4-.4-.6-.2-1.9-.1-2.4.1-.4.4-.6.8-.6s.8.4.9 1c.1.5.1 1.6-.4 2.1-.1.2-.3.3-.5.3"/><path id="Fill-191" class="st5" d="M-1005.1-1337.5c-.4 0-.7-.2-.8-.6 0-.1 0-.2.2-.3.1 0 .2 0 .3.2.1.3.3.3.4.3.2 0 .5-.2.6-.5 0-.2 0-.4-.2-.5-.1-.1-.3-.1-.3-.1-.1 0-.2-.1-.2-.2s0-.2.1-.2c.2-.1.5-.3.4-.5 0-.3-.3-.3-.4-.3-.2 0-.4.1-.4.3 0 .1-.1.2-.3.2-.1 0-.2-.1-.2-.3.1-.4.5-.7.9-.7s.8.3.8.7c.1.3-.1.6-.3.8h.1c.3.2.4.6.3 1-.1.4-.6.7-1 .7"/><path id="Fill-193" class="st5" d="M-1002.9-1337.6c-.1 0-.2-.1-.2-.2v-1.9c-.1.2-.2.3-.3.4-.1.1-.2.1-.3.1-.1-.1-.1-.2-.1-.3.1-.1.2-.2.3-.4.4-.7.5-.8.7-.7.2.1.2.1.2 1.2v1.7s-.1.1-.3.1z"/><path id="Fill-195" class="st5" d="M-988.9-1358.3c-1 0-1.1-.1-1.2-.2-.1-.2 0-.4.5-.9l.3-.4c.2-.3.5-.6.4-1 0-.2-.3-.2-.4-.2 0 0-.4 0-.4.3 0 .1-.1.2-.2.2s-.2-.1-.2-.2c0-.4.3-.7.8-.7.4 0 .8.2.9.6.1.6-.3 1.1-.5 1.4l-.3.4c-.1.1-.2.3-.3.4h1.1c.1 0 .2.1.2.2s-.1.2-.2.2h-.1c-.2-.1-.3-.1-.4-.1z"/></g></g></svg>