<svg id="Layer_1" data-name="Layer 1" xmlns="http://www.w3.org/2000/svg" xmlns:xlink="http://www.w3.org/1999/xlink" viewBox="0 0 150 120"><defs><style>.cls-1,.cls-2{fill:none;}.cls-1{clip-rule:evenodd;}.cls-3{clip-path:url(#clip-path);}.cls-4{clip-path:url(#clip-path-2);}.cls-5{fill:#8d9da3;}.cls-6{clip-path:url(#clip-path-3);}.cls-7{clip-path:url(#clip-path-5);}.cls-8{clip-path:url(#clip-path-7);}.cls-9{clip-path:url(#clip-path-9);}.cls-10{fill:#cc8b87;}.cls-11{clip-path:url(#clip-path-11);}.cls-12{clip-path:url(#clip-path-13);}.cls-13{fill:#c0807b;}.cls-14{clip-path:url(#clip-path-15);}.cls-15{clip-path:url(#clip-path-17);}.cls-16{clip-path:url(#clip-path-19);}.cls-17{clip-path:url(#clip-path-21);}.cls-18{clip-path:url(#clip-path-23);}.cls-19{clip-path:url(#clip-path-25);}.cls-20{clip-path:url(#clip-path-27);}.cls-21{clip-path:url(#clip-path-29);}.cls-22{clip-path:url(#clip-path-31);}.cls-23{clip-path:url(#clip-path-33);}.cls-24{clip-path:url(#clip-path-35);}.cls-25{clip-path:url(#clip-path-37);}.cls-26{clip-path:url(#clip-path-39);}.cls-27{clip-path:url(#clip-path-41);}.cls-28{isolation:isolate;}.cls-29{clip-path:url(#clip-path-44);}.cls-30{clip-path:url(#clip-path-45);}.cls-31{fill:#65605d;}.cls-32{clip-path:url(#clip-path-46);}.cls-33{fill:#5c5754;}.cls-34{clip-path:url(#clip-path-48);}.cls-35{clip-path:url(#clip-path-50);}.cls-36{clip-path:url(#clip-path-52);}.cls-37{clip-path:url(#clip-path-54);}.cls-38{fill:#716c69;}.cls-39{clip-path:url(#clip-path-56);}.cls-40{clip-path:url(#clip-path-58);}.cls-41{clip-path:url(#clip-path-60);}.cls-42{clip-path:url(#clip-path-62);}.cls-43{fill:#d7938e;}.cls-44{clip-path:url(#clip-path-64);}.cls-45{clip-path:url(#clip-path-66);}.cls-46{clip-path:url(#clip-path-68);}.cls-47{clip-path:url(#clip-path-70);}.cls-48{clip-path:url(#clip-path-72);}.cls-49{clip-path:url(#clip-path-74);}.cls-50{fill:#ecdcc2;}.cls-51{clip-path:url(#clip-path-76);}.cls-52{fill:#e1d1b7;}.cls-53{clip-path:url(#clip-path-78);}.cls-54{clip-path:url(#clip-path-80);}.cls-55{clip-path:url(#clip-path-82);}.cls-56{clip-path:url(#clip-path-84);}.cls-57{fill:#f6e6cc;}.cls-58{clip-path:url(#clip-path-86);}.cls-59{clip-path:url(#clip-path-88);}.cls-60{clip-path:url(#clip-path-90);}.cls-61{clip-path:url(#clip-path-92);}.cls-62{fill:#fc9001;}.cls-63{clip-path:url(#clip-path-94);}.cls-64{fill:#8b6263;}.cls-65{clip-path:url(#clip-path-96);}.cls-66{fill:#f9ebe0;}.cls-67{clip-path:url(#clip-path-98);}.cls-68{fill:#fbc8ba;}.cls-69{clip-path:url(#clip-path-100);}.cls-70{fill:#4a3e3e;}.cls-71{clip-path:url(#clip-path-102);}.cls-72{fill:#3f3033;}.cls-73{clip-path:url(#clip-path-104);}.cls-74{clip-path:url(#clip-path-106);}.cls-75{clip-path:url(#clip-path-108);}.cls-76{clip-path:url(#clip-path-110);}.cls-77{clip-path:url(#clip-path-112);}.cls-78{clip-path:url(#clip-path-114);}.cls-79{clip-path:url(#clip-path-116);}.cls-80{clip-path:url(#clip-path-118);}.cls-81{clip-path:url(#clip-path-120);}.cls-82{fill:#feaca9;}.cls-83{clip-path:url(#clip-path-122);}.cls-84{clip-path:url(#clip-path-124);}.cls-85{clip-path:url(#clip-path-126);}.cls-86{clip-path:url(#clip-path-128);}.cls-87{clip-path:url(#clip-path-130);}.cls-88{fill:#6e5a5c;}.cls-89{clip-path:url(#clip-path-132);}.cls-90{clip-path:url(#clip-path-134);}.cls-91{clip-path:url(#clip-path-136);}.cls-92{clip-path:url(#clip-path-138);}.cls-93{clip-path:url(#clip-path-140);}.cls-94{clip-path:url(#clip-path-142);}.cls-95{fill:#ee8c41;}.cls-96{clip-path:url(#clip-path-144);}.cls-97{clip-path:url(#clip-path-146);}.cls-98{fill:#2e2020;}.cls-99{clip-path:url(#clip-path-148);}.cls-100{clip-path:url(#clip-path-150);}.cls-101{clip-path:url(#clip-path-152);}.cls-102{clip-path:url(#clip-path-154);}.cls-103{clip-path:url(#clip-path-156);}.cls-104{clip-path:url(#clip-path-158);}.cls-105{clip-path:url(#clip-path-160);}.cls-106{clip-path:url(#clip-path-162);}.cls-107{clip-path:url(#clip-path-164);}.cls-108{clip-path:url(#clip-path-166);}.cls-109{clip-path:url(#clip-path-168);}.cls-110{clip-path:url(#clip-path-170);}.cls-111{clip-path:url(#clip-path-172);}.cls-112{clip-path:url(#clip-path-174);}.cls-113{clip-path:url(#clip-path-176);}.cls-114{clip-path:url(#clip-path-178);}.cls-115{clip-path:url(#clip-path-180);}.cls-116{clip-path:url(#clip-path-182);}.cls-117{clip-path:url(#clip-path-184);}.cls-118{clip-path:url(#clip-path-186);}.cls-119{clip-path:url(#clip-path-188);}.cls-120{clip-path:url(#clip-path-190);}.cls-121{clip-path:url(#clip-path-192);}.cls-122{clip-path:url(#clip-path-194);}.cls-123{clip-path:url(#clip-path-196);}.cls-124{clip-path:url(#clip-path-198);}.cls-125{clip-path:url(#clip-path-200);}.cls-126{fill:#fff;}.cls-127{clip-path:url(#clip-path-202);}.cls-128{clip-path:url(#clip-path-204);}.cls-129{clip-path:url(#clip-path-206);}.cls-130{clip-path:url(#clip-path-208);}.cls-131{clip-path:url(#clip-path-210);}.cls-132{clip-path:url(#clip-path-212);}.cls-133{clip-path:url(#clip-path-214);}.cls-134{clip-path:url(#clip-path-216);}.cls-135{clip-path:url(#clip-path-218);}.cls-136{clip-path:url(#clip-path-220);}.cls-137{clip-path:url(#clip-path-222);}.cls-138{clip-path:url(#clip-path-224);}.cls-139{clip-path:url(#clip-path-226);}.cls-140{clip-path:url(#clip-path-228);}.cls-141{clip-path:url(#clip-path-230);}.cls-142{clip-path:url(#clip-path-232);}.cls-143{clip-path:url(#clip-path-234);}.cls-144{clip-path:url(#clip-path-236);}.cls-145{clip-path:url(#clip-path-238);}.cls-146{clip-path:url(#clip-path-240);}.cls-147{clip-path:url(#clip-path-242);}.cls-148{clip-path:url(#clip-path-244);}.cls-149{clip-path:url(#clip-path-246);}.cls-150{clip-path:url(#clip-path-248);}.cls-151{clip-path:url(#clip-path-250);}.cls-152{clip-path:url(#clip-path-252);}.cls-153{clip-path:url(#clip-path-254);}.cls-154{clip-path:url(#clip-path-256);}.cls-155{clip-path:url(#clip-path-258);}.cls-156{clip-path:url(#clip-path-260);}.cls-157{clip-path:url(#clip-path-262);}.cls-158{clip-path:url(#clip-path-264);}.cls-159{clip-path:url(#clip-path-266);}.cls-160{clip-path:url(#clip-path-268);}.cls-161{clip-path:url(#clip-path-270);}</style><clipPath id="clip-path"><path class="cls-1" d="M63.4,106.75h-.06a59.81,59.81,0,0,1-7.43-2.61c-3.73-1.53-7.58-3.08-11.81-3.3a.31.31,0,0,1,.06-.62c4.35.22,8.24,1.8,12,3.36a60.68,60.68,0,0,0,7.33,2.61.29.29,0,0,1,.22.37.56.56,0,0,1-.34.19"/></clipPath><clipPath id="clip-path-2"><rect class="cls-2" x="-342.48" y="-1327.54" width="1600" height="7432"/></clipPath><clipPath id="clip-path-3"><path class="cls-1" d="M93.29,100.44a.26.26,0,0,1-.27-.19.3.3,0,0,1,.15-.4l.28-.13a8.15,8.15,0,0,1,3.23-.93.31.31,0,0,1,.31.31.31.31,0,0,1-.31.31,8,8,0,0,0-3,.87l-.28.13a.24.24,0,0,1-.13,0"/></clipPath><clipPath id="clip-path-5"><path class="cls-1" d="M29.5,92.54a2.1,2.1,0,0,1-1.62-.62c-.81-.84-.72-2.36-.65-3.69a8.3,8.3,0,0,0,0-1.5,11.13,11.13,0,0,0-1-2.92c-.52-1.24-1.15-2.45-1.71-3.63a50.26,50.26,0,0,1-2.36-5.26,53,53,0,0,1-1.92-7.27,53.72,53.72,0,0,0-2-7.46c-.22-.59-.53-1.24-.84-1.95-1.31-2.86-3-6.4-1.06-9.05,1-1.39,3.42-1.11,5.56-.84a9.88,9.88,0,0,0,3.11.1A40.11,40.11,0,0,0,29.34,47a32.73,32.73,0,0,1,4.6-1.56A87.85,87.85,0,0,1,55,43.29a.31.31,0,0,1,0,.62A88.35,88.35,0,0,0,34.06,46a37.8,37.8,0,0,0-4.5,1.53A33.77,33.77,0,0,1,25.21,49,10.3,10.3,0,0,1,21.88,49c-2-.25-4.19-.5-5,.59C15.2,51.9,16.75,55.25,18,58c.34.71.65,1.4.87,2a55,55,0,0,1,2,7.52,58.85,58.85,0,0,0,1.89,7.18,49,49,0,0,0,2.33,5.15c.59,1.18,1.22,2.43,1.74,3.67a12.08,12.08,0,0,1,1,3.11,9.21,9.21,0,0,1,0,1.58c-.06,1.22-.13,2.58.5,3.23a1.47,1.47,0,0,0,1.15.41.29.29,0,0,1,.31.31c0,.19-.16.43-.31.43"/></clipPath><clipPath id="clip-path-7"><path class="cls-1" d="M126.36,90a.3.3,0,0,1-.31-.32,5,5,0,0,1,.71-2,5.47,5.47,0,0,0,.38-.77l.15-.34a33,33,0,0,0,1.8-5.35c.25-1.3.5-2.67.75-4a79.24,79.24,0,0,1,3.33-13.55c.21-.56.49-1.18.8-1.86,1.22-2.67,2.74-6,.84-8.11-.84-1-2.92-.47-4.41-.09l-1.24.28c-2.58.37-6-1.12-8.8-2.3-.68-.32-1.33-.59-1.92-.81-4.64-1.81-10-3.64-15.42-2.3a.3.3,0,1,1-.15-.59c5.56-1.4,11.06.46,15.78,2.33.59.22,1.25.53,2,.81,2.67,1.15,6,2.61,8.45,2.26.31,0,.72-.15,1.18-.24,1.65-.41,3.95-1,5,.28,2.14,2.45.53,6-.75,8.76a15.45,15.45,0,0,0-.77,1.83,79.62,79.62,0,0,0-3.33,13.43c-.25,1.3-.5,2.64-.75,4a33,33,0,0,1-1.83,5.46l-.12.35a6.78,6.78,0,0,1-.41.8,4.58,4.58,0,0,0-.65,1.71c0,.22-.12.35-.31.35"/></clipPath><clipPath id="clip-path-9"><path class="cls-1" d="M46.53,66.47a110.38,110.38,0,0,1,3-12.18,38.69,38.69,0,0,1,3.82-8,20.53,20.53,0,0,1,4.85-4.69,20.15,20.15,0,0,0,1.93-1.46c1.83-1.83,3.76-3.17,5-3.17,2,0,4,.09,5.44,3.73,1.83,4.63,2.83,13.36,2.83,17.34,0,2.27-1,5.75-1.71,9.51-.41,2-1,4.41-.81,6.18.28,2.12.62,3.76.93,5.35.5,2.3.87,3.94.47,2.67a5.72,5.72,0,0,0-3.39-3c-2.18-.78-5.13-.59-6.78,1.15s-5.25,5.28-6.3,7c-1.43,2.3-3,2.76-4.35,3.73-.44.31-.66-.25-1.06.31A38.42,38.42,0,0,1,45,97.3a14.45,14.45,0,0,1-6.18,3.36c-2.92.77-6.71-.35-8.92-1.62a7,7,0,0,1-2.11-2.11c-.56-.53-.81-1.87.43-3.17a24.15,24.15,0,0,1,2.24-1.68c.9-.72,2.46-1.87,3.48-2.61C36,88,38.79,88.16,40.12,87.23c1.09-.75,1-2.7,1-2.92a11.49,11.49,0,0,1,2.21-4,18,18,0,0,1,2.85-2.7s-.93-1.68-1.27-2.21c-1.06-1.71,1-6.52,1.59-9"/></clipPath><clipPath id="clip-path-11"><path class="cls-1" d="M77.85,66.35c0-6.84,1.34-14,4-19.49.62-1.27,1.4-2.79,2-4s.87-2.11,1.21-2.7C86.27,38,91.9,39,93.7,39c.9,0,2,.84,3,1.46a19.16,19.16,0,0,1,5.72,7.27,47.37,47.37,0,0,1,3,9.76c.81,3.7,1.74,6.87,1.9,7.33.28.81.46,1.43.84,2.37a4.59,4.59,0,0,0,1,2,18.94,18.94,0,0,1,3.51,4,4.89,4.89,0,0,1,.72,3.73c-.41,1.12-2,1.93-4,2.92a16,16,0,0,0-2.92,1.71,7.89,7.89,0,0,0,2.27,5.25c1.15,1,5.31,1.93,8.79,2.43,3.86.56,7.06.65,8.52,1,5.37,1.31,6.62,2.37,8.36,4.26a3.35,3.35,0,0,1,.53,3A5,5,0,0,1,131,99.6a86.07,86.07,0,0,1-10.1-.41c-4.54-.34-8.3-.68-8.55-.62a27.13,27.13,0,0,1-3,1,44.41,44.41,0,0,1-10.22.09c-3.45-.43-7.74-6.18-8-6.59-1-1.68-2.15-3.73-2.15-3.73s-1.61-.77-2.79-1.46a20.84,20.84,0,0,1-7.34-8.57c-1.92-4.48-1-8.71-1-13"/></clipPath><clipPath id="clip-path-13"><path class="cls-1" d="M45,97.49s1.59-1.81,2.36-2.74,3.11-4,2.8-3.23a27.87,27.87,0,0,0-1.06,2.83,15.58,15.58,0,0,0-.49,3.2,7.87,7.87,0,0,0,.09,2.14c.16.84.37,1.65.37,1.65L48,101.09Z"/></clipPath><clipPath id="clip-path-15"><path class="cls-1" d="M50.5,90.93a15.9,15.9,0,0,0,1.15-2.15c.47-1.08,1.09-1.8,1.62-3.17a23.36,23.36,0,0,1,2.08-4.07A13.19,13.19,0,0,1,58,78.62c.78-.59.78-.62,1.71-.25a5.7,5.7,0,0,0,2.74.38A30.86,30.86,0,0,0,65.51,78c.47-.15-.37.44-1.49.9a6,6,0,0,0-2.86,1.68c-1,1.12-2,2-3,3.23S56.44,86.08,55.57,87a29.58,29.58,0,0,1-2.92,2.8,5.15,5.15,0,0,1-2.15,1.15"/></clipPath><clipPath id="clip-path-17"><path class="cls-1" d="M45.1,71.51c1.46.46,4.07.21,4.72-.53s.15-.13.62.34a6.94,6.94,0,0,0,2,1.83c1,.47,2.33.84,1.59,1.06s-.94.28-2.58.81a19.23,19.23,0,0,0-4,2c-.75.46-.9,1.09-1.43.28A7.29,7.29,0,0,1,44.85,75a4.71,4.71,0,0,1-.13-2.15c.1-.74,0-1.49.38-1.36"/></clipPath><clipPath id="clip-path-19"><path class="cls-1" d="M84.22,42.64c-.06.49,1.62,1.18,4,1a19.67,19.67,0,0,0,6.87-2.14c1-.62,2.17-.72,1.24-1.31a25.45,25.45,0,0,0-2.39-1.67c-.5-.16-4.54-.19-6.37-.22s-2.18.34-2.4,1.21-.87,2.67-.93,3.08"/></clipPath><clipPath id="clip-path-21"><path class="cls-1" d="M89.32,89.41a7.08,7.08,0,0,1-1.77-.63,28.34,28.34,0,0,1-3.17-2.45,21.17,21.17,0,0,1-3.7-4,15.35,15.35,0,0,1-2.21-4.13,32,32,0,0,1-.78-5.6c0-1.55.22-5.22.25-6.71s.19-3.07.25-4.16-.71-2,.09-2.52,1.15-1.89,3.61,1.93S89,76.79,89,78.19a28.34,28.34,0,0,1-.07,3,11.55,11.55,0,0,0,0,3.23c.22,1.31.63,4.29.63,4.29s.18.75-.25.66"/></clipPath><clipPath id="clip-path-23"><path class="cls-1" d="M113,98.42c2-.59,4.66-1.4,6.37-1.77a23.86,23.86,0,0,1,5.62-.47c1.4.06,2.15.65,3.58.16s2.86-1.78,3.07-2.8.69-.93,1.59-.25a5,5,0,0,1,2,2.42,2.16,2.16,0,0,1-.44,2,3.82,3.82,0,0,1-2.39,1.59,20.89,20.89,0,0,1-3.79.59c-1.87.15-3.95-.31-6.93-.53s-3.14-.34-5.29-.47-5.34.13-3.38-.46"/></clipPath><clipPath id="clip-path-25"><path class="cls-1" d="M108.68,73.59c.46-.59.87-.78.8-1.43a16.25,16.25,0,0,0-.43-2.3c-.16-.68-.47-1.43.09-.93a9.63,9.63,0,0,1,1.59,1.52c.59.75,1.27,1.31,1.36,2.14s.94,1.34-.18,1.65-3.73-.06-3.23-.65"/></clipPath><clipPath id="clip-path-27"><path class="cls-1" d="M84.59,52.86c.9-1.21,1.56-2.61,2.52-3.79A27,27,0,0,1,89,46.89a18.75,18.75,0,0,1,2.51-2.2c.1-.06.81-.56.94-.5.37.22-.38.75-.59,1.09-.59.87-1.28,1.64-1.9,2.48a33.94,33.94,0,0,0-3.6,6.37,5.82,5.82,0,0,0-.69,1.81c0,.18,0-.35,0-.53a6.14,6.14,0,0,0-.15-.72,5.07,5.07,0,0,0-.5-1.33c-.13-.13-.5-.44-.44-.5"/></clipPath><clipPath id="clip-path-29"><path class="cls-1" d="M87.17,52.92c.31,0,0,1.43,0,1.65,0,2.08.84,3.76,3.08,3.23,2.55-.59,4.72-2.24,7.12-3.14A6.82,6.82,0,0,1,99.11,54c.09,0,.65-.12.62.13-.07.59-1.37,1.39-1.77,1.74-1.4,1.11-4.76,3.35-4.39,5.59.13.78,1.12,1.4,1.68,1.83,1,.84,2.08,1.65,3.11,2.52.09.09,1.49,1.31,1.27,1.46s-.84-.34-1.27-.47c-1.15-.37-2.3-.68-3.42-1.11-1.3-.53-2.64-.87-4-1.4-.49-.19-1.21-.13-1.61-.53a11.72,11.72,0,0,1-2-2.61,14.93,14.93,0,0,1-1-2.58,5.38,5.38,0,0,1,0-4.29c.15-.47.21-1.37.77-1.4"/></clipPath><clipPath id="clip-path-31"><path class="cls-1" d="M108.58,80c0-.47-2.3.31-2.79.34a9.23,9.23,0,0,1-2.64-.31c-.19,0-.88-.28-1.06-.12-.44.31-.16,1.55-.06,1.95a6.1,6.1,0,0,0,3.85,3.73c.31.13,1.55.62,1.93.31.21-.18-.28-.9-.38-1a6.13,6.13,0,0,1-1-2.8c-.13-1.43,2-1,2.14-2.08"/></clipPath><clipPath id="clip-path-33"><path class="cls-1" d="M38.66,92.76s-.68.62-.81.78a2.88,2.88,0,0,0-.59,1.93c.1,1.11,1.81,1.92,2.68,2.26.53.19,1.49.1,1.61.78.47,2.27-3.7,2.58-5.06,2.39a7.15,7.15,0,0,1-1.4-.18l-1.68-.41a10.56,10.56,0,0,1-4.32-2.11,9.19,9.19,0,0,1-1.4-1.46c-1.43-2.27.78-3.11,2.27-4.2,1.68-1.21,3-2.45,4.79-3.63,1.3-.9,3.26-.84,4.66-1.4.09,0,1.15-.62,1.21-.5.65,1.28-.34,3.14-.87,4.26a3.62,3.62,0,0,1-.65,1c-.1.13-.59.44-.44.53"/></clipPath><clipPath id="clip-path-35"><path class="cls-1" d="M58,79.09a11.43,11.43,0,0,1-3.57-1.21,7.62,7.62,0,0,1-1.87-1.4,4.14,4.14,0,0,1-.93-.84C50.47,73.93,53,74,54,73.93a4.45,4.45,0,0,1,1.62.65c1.15.56,2.39.47,3.42,1.43.46.44,1,1.59.68,2.21a1.83,1.83,0,0,1-1.74.87"/></clipPath><clipPath id="clip-path-37"><path class="cls-1" d="M57.9,42c-.44,0,.62.66.93,1a17.5,17.5,0,0,1,1.24,1.36A21.15,21.15,0,0,1,62.5,48.7a66.63,66.63,0,0,1,3.39,8.91c.21.72.49,1.43.74,2.15,0,.09.19.53.31.53.47,0,.44-1.15.47-1.4a10.89,10.89,0,0,0-.16-3c-.71-3.94-2.7-9.07-.56-12.92.81-1.46,3.14,0,4-1.22.25-.37-.31-1.27-.53-1.58a9.3,9.3,0,0,0-2-2c-.81-.74-1.49-1.68-2.73-1.49-2.33.4-3.61,2.33-5.22,3.79-.47.37-1.65,1.49-2.24,1.52"/></clipPath><clipPath id="clip-path-39"><path class="cls-1" d="M67.07,71.16c1.8,0,4-.21,3.82.78a8.69,8.69,0,0,0,.18,3.11c.22.93.32,1.8.69,3.23S73,82.82,72.41,82a10.71,10.71,0,0,0-2.08-2.27A5.7,5.7,0,0,0,68,78.34c-1.09-.25-2.86.9-2.77-.53s0-6.65,1.84-6.65"/></clipPath><clipPath id="clip-path-41"><path class="cls-1" d="M94.94,69.05c1.52,1.21,2.52,3.89,3.23,6.78s2,7.36,3.89,9.75,8.11,4.54,6.83,4.35-2.67.59-3.79.25-3.66-1.27-4.78-2.76A13.62,13.62,0,0,1,97.89,82c-.21-1.58-.8-4.82-1-6.22a14.79,14.79,0,0,0-.75-3.41c-.43-1.09-1.8-3.83-1.18-3.33"/></clipPath><clipPath id="clip-path-44"><path class="cls-1" d="M50,92.08c.16-.25-.06-.87.56-1.15a17.85,17.85,0,0,0,3.86-2.8A30.88,30.88,0,0,0,58.89,83a14,14,0,0,1,4.63-4,5.68,5.68,0,0,1,3-.62,6.82,6.82,0,0,1,5.87,3.39,24.33,24.33,0,0,1,2.46,7.33c.25,1.18.71,2.58.87,3.64,0,.34.74.43,2.08.15,2.52-.52,5.56-3,7.74-3.69,2.86-.94,3.54.06,3.54.4A56.92,56.92,0,0,1,92.21,98a69.52,69.52,0,0,1,1.61,11,79.61,79.61,0,0,1-15.38,2,53.31,53.31,0,0,1-13.7-1.8l-1-2.86s-7.55-2.05-10.53-3.63c0,0-3.39-1-3.92-1.59-1.65-1.74-.19-7.7.68-9.07"/></clipPath><clipPath id="clip-path-45"><rect class="cls-2" x="48.52" y="77.46" width="46" height="34"/></clipPath><clipPath id="clip-path-46"><path class="cls-1" d="M57.87,84.4c.18-.09-.1.62-.13.81-.06.56-.12,1.18-.15,1.74a7.78,7.78,0,0,0,1,4.51c2.18,3.41,2.74,7.58,3.92,11.37.31,1,.68,1.9,1,2.86,0,.12.28.84.09.78a18.24,18.24,0,0,1-3.41-.94,33.76,33.76,0,0,0-7.46-3.13c-1.28-.35-2.92-.44-3.64-1.81a6.89,6.89,0,0,1-.31-2.27,16.4,16.4,0,0,1,.44-4.78,5.89,5.89,0,0,1,.9-2.05,7.85,7.85,0,0,1,1.83-1.31,15.73,15.73,0,0,0,2.18-1.89c1.3-1.22,2.2-3,3.79-3.89"/></clipPath><clipPath id="clip-path-48"><path class="cls-1" d="M82.67,90.62c.37-.06-2,2.3-2.77,3.17a35.46,35.46,0,0,0-2.45,3.38c-.16.25-.28.5-.44.78s-.12.47-.28.41-.15-.78-.15-.81c-.13-.72-.28-1.4-.38-2.08-.06-.47-.74-2.15-.4-2.55s2-.06,2.58-.22c1.49-.47,2.67-1.77,4.29-2.08"/></clipPath><clipPath id="clip-path-50"><path class="cls-1" d="M86.52,92.89a.85.85,0,0,1,.87-.87.88.88,0,0,1,.87.87.87.87,0,0,1-1.74,0"/></clipPath><clipPath id="clip-path-52"><path class="cls-1" d="M87.51,95.15a.86.86,0,0,1,.87-.87.87.87,0,0,1,.87.87.87.87,0,0,1-1.74,0"/></clipPath><clipPath id="clip-path-54"><path class="cls-1" d="M69,82.23a.85.85,0,0,1,.87-.87.88.88,0,0,1,.87.87.85.85,0,0,1-.87.87.9.9,0,0,1-.87-.87"/></clipPath><clipPath id="clip-path-56"><path class="cls-1" d="M70,84.5a.85.85,0,0,1,.87-.87.87.87,0,1,1-.87.87"/></clipPath><clipPath id="clip-path-58"><path class="cls-1" d="M93.08,71.07a.87.87,0,0,1,1-.68.86.86,0,0,1,.65,1,.87.87,0,0,1-1,.69.85.85,0,0,1-.65-1.06"/></clipPath><clipPath id="clip-path-60"><path class="cls-1" d="M93.54,73.49a.86.86,0,1,1,1.68.38.86.86,0,1,1-1.68-.38"/></clipPath><clipPath id="clip-path-62"><path class="cls-1" d="M95.81,43.16A.9.9,0,0,1,96.18,42a.85.85,0,0,1,1.15.41A.89.89,0,0,1,97,43.57a.86.86,0,0,1-1.15-.41"/></clipPath><clipPath id="clip-path-64"><path class="cls-1" d="M97.71,44.75a.9.9,0,0,1,.37-1.18.85.85,0,0,1,1.15.4.9.9,0,0,1-.37,1.18.85.85,0,0,1-1.15-.4"/></clipPath><clipPath id="clip-path-66"><path class="cls-1" d="M55.94,45.28a.88.88,0,0,1,1.21.28.88.88,0,0,1-.31,1.21.9.9,0,0,1-1.21-.28.91.91,0,0,1,.31-1.21"/></clipPath><clipPath id="clip-path-68"><path class="cls-1" d="M54.54,47.33a.87.87,0,1,1,.9,1.49.9.9,0,0,1-1.21-.28.87.87,0,0,1,.31-1.21"/></clipPath><clipPath id="clip-path-70"><path class="cls-1" d="M45,82a.86.86,0,0,1-1-.71.9.9,0,0,1,.74-1,.86.86,0,0,1,1,.72A.92.92,0,0,1,45,82"/></clipPath><clipPath id="clip-path-72"><path class="cls-1" d="M47.08,80.7a.85.85,0,0,1-1-.71.89.89,0,0,1,.75-1,.85.85,0,0,1,1,.71.89.89,0,0,1-.75,1"/></clipPath><clipPath id="clip-path-74"><path class="cls-1" d="M73.34,55.25a53,53,0,0,0-2-12.68c-.55-1.86-1-2.33-1.39-3.72-1.34-5.44,5.78-7.46,8.67-7.46,4.81,0,7.45,2.33,6.46,8.39a12.41,12.41,0,0,1-1.4,3.45A16.36,16.36,0,0,0,82,46.71c-.21.87.13.4.78,2,.19.46.5,1.12.65,1.61s.59,1.65.75,2.3c.09.37.81.37,1.12,1.25A35.53,35.53,0,0,0,86,58.17a20.24,20.24,0,0,0,1.83,3.76c1.12,1.84,2.71,3.89,2.65,4.45a25.2,25.2,0,0,1,.21,2.86C90.5,71.1,90,73,89.6,75.33s-.59,5-.87,6.4c-.19.93-3-1.18-4.51-3-.62-.77-1.68-4.1-2.52-6.74s-1.18-4.72-1.64-5.87c-.07-.16-.47-2.12-.9-3.67-.44-1.71-.91-3-.91-3s-.15,1.33-.24,3.23c-.1,1.71-.1,4-.19,4.47a38.41,38.41,0,0,0,.34,10.1,17.6,17.6,0,0,0,4.54,7.68c2.51,2.49,5.37,4,5,4.07a23.33,23.33,0,0,0-5.19,1.43,12.79,12.79,0,0,1-4.38,2.33,9,9,0,0,1-2.52.25s-.74-3.73-1.64-7.09c-.5-1.77-1.19-2.92-1.5-4.53-.09-.56-.8-3-1.24-4.94a18.65,18.65,0,0,1-.43-3.67c0-1.4,1.42-7.4,2.17-12.15a27.5,27.5,0,0,0,.37-5.32"/></clipPath><clipPath id="clip-path-76"><path class="cls-1" d="M81.67,46.71a15.76,15.76,0,0,1-.31-2.3c0-1,0-2-.09-2.58s.31-.68.81-1.31a12.5,12.5,0,0,0,1.64-2.05c.31-.68.41-1.52.94-.68a2.78,2.78,0,0,1,.52,2.42c-.31.66-1,2-1.43,3s-2.08,3.48-2.08,3.48"/></clipPath><clipPath id="clip-path-78"><path class="cls-1" d="M70.3,39.53A13.1,13.1,0,0,1,72.41,38c.53-.25.28.31,0,1s-.75,1.34-.31,2a25.5,25.5,0,0,0,3.14,3.57c.68.56,1.18.56,1.37,2.09s1.67,3.45,1.15,3.66-2.86.1-3,1.5-.12,4.63-.25,7.42-1.3,7.52-1.8,10.38a17.85,17.85,0,0,0,.4,8.08c.81,2.89,4.35,15.14,4.35,15.14l-1.83.06s-.15-1.74-.34-2.71S74.37,86.8,74,85.49s-1.34-2.8-1.53-3.82-.68-3.2-1.08-5a13.48,13.48,0,0,1-.47-5c.28-1.39.53-3.82,1.09-5.75a47.36,47.36,0,0,0,1.18-7,37,37,0,0,0,0-6.65c-.25-1.77-.93-6.15-1.25-7.33s-.87-2.8-1.15-3.73S69.71,40,70.3,39.53"/></clipPath><clipPath id="clip-path-80"><path class="cls-1" d="M78.38,56.68a5.66,5.66,0,0,0,3.6-.37,9.25,9.25,0,0,0,2.58-2.11c.47-.75-.06-1.93-.28-1.56a6.38,6.38,0,0,1-1.64,1.8,4.35,4.35,0,0,1-2.15,1.09c-1.12.22-1.18-.22-1.71.22s-1.61.81-.4.93"/></clipPath><clipPath id="clip-path-82"><path class="cls-1" d="M89.66,65.17A24.81,24.81,0,0,1,89,70.23c-.31,1.37-.65,3.64-1.58,5.07S84.72,79,84.72,79s.93,1,1.58,1.55A8.3,8.3,0,0,0,88.23,82c.59.22.68.19.65-1a14.25,14.25,0,0,1,.47-4.29,25.7,25.7,0,0,0,1.05-4.32c.16-1.24.13-2.27.22-3.7a6.39,6.39,0,0,0-.06-2.49c-.28-.93-.93-2.26-.9-1.08"/></clipPath><clipPath id="clip-path-84"><path class="cls-1" d="M85.31,62.21a.84.84,0,0,1,.74-1A.88.88,0,0,1,87,62a.83.83,0,0,1-.75,1,.87.87,0,0,1-1-.78"/></clipPath><clipPath id="clip-path-86"><path class="cls-1" d="M86.55,64.36a.83.83,0,0,1,.75-1,.86.86,0,0,1,1,.77.85.85,0,0,1-.75,1,.87.87,0,0,1-1-.78"/></clipPath><clipPath id="clip-path-88"><path class="cls-1" d="M73.93,73.65a.89.89,0,0,1-.65-1.06A.87.87,0,0,1,74.34,72,.89.89,0,0,1,75,73a.85.85,0,0,1-1.06.62"/></clipPath><clipPath id="clip-path-90"><path class="cls-1" d="M76.39,73.25a.88.88,0,0,1-.65-1.06.85.85,0,0,1,1.05-.62.86.86,0,1,1-.4,1.68"/></clipPath><clipPath id="clip-path-92"><path class="cls-1" d="M65.08,64.67a14.84,14.84,0,0,0-3.51-.22,23.05,23.05,0,0,0-3.83.47,1.9,1.9,0,0,0-1.08.65s.12,1.34.15,1.9,1.43,8.88,1.43,8.88c.16.47.31.87.47,1.25.4.8,1.68,1.3,3.54,1.3s3.48-.53,3.73-1.49a42.22,42.22,0,0,0,1.21-11.72c-.15-.55-1.12-.77-2.11-1"/></clipPath><clipPath id="clip-path-94"><path class="cls-1" d="M57.65,66.22c0-.37,2-.87,4.29-.87s4.26.44,4.26.78-2.21.68-4.57.68-4-.21-4-.59"/></clipPath><clipPath id="clip-path-96"><path class="cls-1" d="M50.1,71.16a5,5,0,0,1,1-2.11,15.81,15.81,0,0,1,2.36-2.33,5.35,5.35,0,0,1,2.46-1c.47,0,.9-.07.87.52s-.12.94.28,1.09.84.59,1.55.93a4.33,4.33,0,0,1,1.43.81c.5.47,1.06.81.34.87s-1.39,0-.77.38,1.89,1.18,2.11,1.42.75.6,0,.66a18.57,18.57,0,0,1-2,.09c-.25,0,.16.22.84.56s1.37.65,1.52,1.06.35.52-.34.59-1.24.12-.71.46,1.43.75.81.94a5,5,0,0,1-2.34.24,4.26,4.26,0,0,1-2.42-1.11c-.47-.69-.59-.63-1.18-.78a6.85,6.85,0,0,1-2-.56c-.84-.47-2-1.09-2.58-1.49s-1.43-.56-1.27-1.25"/></clipPath><clipPath id="clip-path-98"><path class="cls-1" d="M58,75.7c0-.28-.34-.59-.28-.87s.56-.31.47-.53c-.22-.53-1-.71-.9-1.49a1.18,1.18,0,0,1,.34-.75c.12-.09.46,0,.4-.15-.31-.53-.93-.65-1.09-1.37-.06-.25,0-.65.28-.77s.66,0,.56-.16-.4-.22-.52-.37a1,1,0,0,1,.18-1.56c.56-.28,1.93.9,2.39,1.22.16.12.53.27.6.49s0,.31-.28.44-.38,0-.32.09c.22.28.47.44.69.75s1.77,1.12,1.55,1.61c-.06.13-.71.1-.71.1a4.91,4.91,0,0,0-1.53,0c-.24.12.44.34.66.46.56.34,1.3.62,1.64,1.24s-.62.6-1,.6a4.44,4.44,0,0,1-.75-.1c-.06,0-.21,0-.15,0,.43.31.93.5,1.37.81.06.06.34.34.24.47-.49.71-2.23.37-3,.34-.31-.06-.81-.16-.84-.5"/></clipPath><clipPath id="clip-path-100"><path class="cls-1" d="M62.72,24.43a17.37,17.37,0,0,1,1.08-6.62,12.53,12.53,0,0,1,3.39-5.22,6.41,6.41,0,0,1,4-1.56c.59,0,1.21.19,1.8.19,1.31,0,2.58-.5,4-.44a9.56,9.56,0,0,1,6.06,2.52c3.39,3.08,5.56,9.6,6.53,12.93a66.11,66.11,0,0,0,2.79,7.36A11.55,11.55,0,0,1,94,37.23a3.48,3.48,0,0,1-1.21,3,3.37,3.37,0,0,1-3.11,0c-.28-.12-.81.13-1.4.31s-1.4.38-1.71.16a7.58,7.58,0,0,1-2.36-3.11,10.47,10.47,0,0,1-.38-3c-.12-.75-.55-2-.74-2-.47.06.68-4.1.59-4a4.28,4.28,0,0,1-2.8.22,31.85,31.85,0,0,1-6.55-4.32c-2.06-1.65-3.48-3-4.54-3-2.21,0-3.48,6.1-2.95,9.17a14,14,0,0,0,1.33,3.85c.9,1.68,2.24,3.27,2.15,3.39-.47.62-1.06,1.21-1.71,1-.38-.16-2-.16-2.67-1.19C64.7,36,64.36,33,64.27,32.38c-.28-1.77-1.55-6.15-1.55-8"/></clipPath><clipPath id="clip-path-102"><path class="cls-1" d="M64.3,31.57c.28-1.3,1.4-3.29,2-5.12s1.06-4.73,1.62-5.16a1.58,1.58,0,0,1,1.55-.16c.43.13.59.13-.28.65a3.17,3.17,0,0,0-1.59,1.9,12.75,12.75,0,0,0-.77,3.7,13.45,13.45,0,0,0,.28,4.19c.46,1.4.18,1.65,1.24,3.39s2.18,2.52,1.8,3-.49.94-1.18,1a2,2,0,0,1-1.89-.37c-.81-.59-1.31-.53-1.74-1.81a14.64,14.64,0,0,1-.81-3.17c-.16-1.15-.41-1.08-.22-2"/></clipPath><clipPath id="clip-path-104"><path class="cls-1" d="M83,32.51c.21-1,1.24-3.21,1.18-2S84.07,32.44,84,33s0,2.3-.21,1.71-.32-.62-.5-1.18-.56,0-.34-1"/></clipPath><clipPath id="clip-path-106"><path class="cls-1" d="M84.87,38.69a5.68,5.68,0,0,0,5-1.59c1.55-1.55,2.76-3.38,3.26-2.36a5,5,0,0,1,.74,2.58c0,1.18.19,2.21-.71,2.55s-1,.72-1.93.53-1.43-.47-2.17-.19a3.43,3.43,0,0,1-2.18.31c-.71-.21-2.36-1.89-2-1.83"/></clipPath><clipPath id="clip-path-108"><path class="cls-1" d="M66.6,29.21c0-3.95,1.31-7.21,3.14-7.83,1.06-.34,4,2.83,6.15,4.38a20.11,20.11,0,0,0,6.25,3.11c1,.19,1.77-1.09,1.77-.09,0,.52.31,2.17.25,3.14,0,.34-1,.15-1,.49a7.37,7.37,0,0,0,.72,2.36,8.88,8.88,0,0,1,.21,2.46,9.41,9.41,0,0,1-1.18,2.36c-.68.93-1.36,1.27-1.49,1.83a26.26,26.26,0,0,0,.5,6.75c.31,1.12-2,2.95-3.36,2.95-.49,0-.43-.59-1.08-1.15a6.94,6.94,0,0,1-1.56-4.23c-.06-.68-2.79-1.33-3-2s-.81-1.89-1-2.48a4.61,4.61,0,0,1,.87-3.08c.19-.25-.18-.06-1.09.59s-2.11,1.59-2.57,1.43a.59.59,0,0,1-.25-.81,7.87,7.87,0,0,1,1.33-1.64c.38-.41-.81-1.18-.81-1.18A16,16,0,0,1,68,34a17.74,17.74,0,0,1-1.4-4.82"/></clipPath><clipPath id="clip-path-110"><path class="cls-1" d="M80.62,37.51a22.67,22.67,0,0,0,1.3-2.27c.28-.68.78-3,1-2.42s.62,1.43.77,1.86,0,.62.19,1.49a2.35,2.35,0,0,1-.16,2.15A8.46,8.46,0,0,1,82,40.62c-.77.81-.84,1-1-.13s-.69-2.42-.37-3"/></clipPath><clipPath id="clip-path-112"><path class="cls-1" d="M69.05,21.88a17.22,17.22,0,0,1,4.11,3.17c1.52,1.77,4.07,4.1,5.68,4.72A41.18,41.18,0,0,0,83.19,31L83,32.19l1.12,0a7.2,7.2,0,0,0,.12-1.83,8.47,8.47,0,0,0-.4-1.68c-.16-.4-.5.06-1.12.16a7.8,7.8,0,0,1-3.79-1,44.35,44.35,0,0,1-4.23-3,38,38,0,0,0-3.88-3,1.36,1.36,0,0,0-1.78.06"/></clipPath><clipPath id="clip-path-114"><path class="cls-1" d="M71.76,36.36c.53-.16.62-.65,1.12-.22.34.28-.38,1.09-.5,1.28C72,38.16,70,40.34,69,40c-.31-.12.06-.59.13-.65.59-.71,1.33-1.3,1.92-2.05a10.71,10.71,0,0,1,.72-.9"/></clipPath><clipPath id="clip-path-116"><path class="cls-1" d="M73.22,38c.19-.13.62-.28.68,0s-.4,1-.34,1.08.28-.31.5-.06c.74.93-.65,1.68-.5,2.36,0,.1.34,0,.44.16.21.5,0,1.12,0,1.62s1,.27,1.24.59a6,6,0,0,1,.68,1.7c-.93.1-1.55-.8-2.23-1.27a4.44,4.44,0,0,1-.75-.56c-.31-.4-.12-1-.34-1.33-.78-1.19-1.31-2.34-.25-3.83.22-.31.56-.25.84-.46"/></clipPath><clipPath id="clip-path-118"><path class="cls-1" d="M78,50.25a5.08,5.08,0,0,0,2.65-1.68c.18-.25.65-1.18,1.08-.74a1,1,0,0,1-.12,1.24c-.65.74-1.87,2-3,2-.41,0-1.37-.62-.66-.84"/></clipPath><clipPath id="clip-path-120"><path class="cls-1" d="M69.05,33.38c-.06-.41.5-.84,1.25-1s1.4.16,1.46.56-.5.84-1.24,1-1.4-.16-1.47-.56"/></clipPath><clipPath id="clip-path-122"><path class="cls-1" d="M76.39,31.67c-.06-.41.5-.84,1.24-1s1.4.16,1.46.56-.49.84-1.24,1-1.4-.16-1.46-.56"/></clipPath><clipPath id="clip-path-124"><path class="cls-1" d="M73.9,32.91c.1-.47.1-1.52.38-1.65.12-.06.28.25.43.62A6.32,6.32,0,0,1,75,33c0,.41-.06.75-.34.87s-.87-.56-.78-1"/></clipPath><clipPath id="clip-path-126"><path class="cls-1" d="M63.9,23.21a.32.32,0,0,1-.31-.28,4.92,4.92,0,0,1,.31-3,.33.33,0,0,1,.43-.12.34.34,0,0,1,.13.43,5.05,5.05,0,0,0-.22,2.61.3.3,0,0,1-.28.34Z"/></clipPath><clipPath id="clip-path-128"><path class="cls-1" d="M65.17,23.49a.38.38,0,0,1-.31-.21c-.19-.72-.37-2.74.37-3.42a.3.3,0,0,1,.44,0,.3.3,0,0,1,0,.43c-.47.41-.41,2.05-.19,2.8a.31.31,0,0,1-.22.37Z"/></clipPath><clipPath id="clip-path-130"><path class="cls-1" d="M83.57,18.24a.28.28,0,0,1-.25-.12,3.6,3.6,0,0,1-.47-.78,2.06,2.06,0,0,0-.74-1,.31.31,0,0,1-.1-.44.32.32,0,0,1,.44-.09,2.71,2.71,0,0,1,1,1.21,4.54,4.54,0,0,0,.41.68.33.33,0,0,1,0,.44.32.32,0,0,1-.21.06"/></clipPath><clipPath id="clip-path-132"><path class="cls-1" d="M84.72,17.93a.3.3,0,0,1-.31-.25A4.23,4.23,0,0,0,83,15.6l-.16-.16a.3.3,0,0,1,0-.43.31.31,0,0,1,.44,0l.15.15A4.79,4.79,0,0,1,85,17.56a.31.31,0,0,1-.25.37Z"/></clipPath><clipPath id="clip-path-134"><path class="cls-1" d="M86.58,36.67a.22.22,0,0,1-.15,0c-.94-.56-.84-1.71-.81-2.39a.31.31,0,0,1,.62.06c-.06.77-.06,1.49.5,1.83a.32.32,0,0,1,.09.44.49.49,0,0,1-.25.09"/></clipPath><clipPath id="clip-path-136"><path class="cls-1" d="M85.59,37.66a.29.29,0,0,1-.28-.18,7,7,0,0,1-.78-3.2.31.31,0,0,1,.62,0,6.24,6.24,0,0,0,.72,2.92.32.32,0,0,1-.13.4.17.17,0,0,1-.15.06"/></clipPath><clipPath id="clip-path-138"><path class="cls-1" d="M50.1,71.13A5.9,5.9,0,0,1,51,69a20.64,20.64,0,0,1,2.89-2.52A4.27,4.27,0,0,1,56,65.79c.44,0,.56,0,.63.56s.34,1,0,1.24-.9.5-.55.9.52.56.31.9-.75.19-.38.81.56,1,.38,1.37,0,.37-.19.93a2.62,2.62,0,0,0-.12,1.31c0,.49,0,.84-.44.62s-1.68-.56-2.67-1a14.43,14.43,0,0,1-2.86-2.33"/></clipPath><clipPath id="clip-path-140"><path class="cls-1" d="M56.56,66.38a11.34,11.34,0,0,0-5,4.41c-.25.47-.37,1.43-.93.72-.78-1-.1-1.59.62-2.46A8.17,8.17,0,0,1,55,66.19c.25-.09.62-.4.87-.43.59-.07.68.62.68.62"/></clipPath><clipPath id="clip-path-142"><path class="cls-1" d="M63.87,68.86A.84.84,0,0,1,65,68.37a.87.87,0,0,1,.47,1.15.85.85,0,0,1-1.12.49.9.9,0,0,1-.46-1.15"/></clipPath><clipPath id="clip-path-144"><path class="cls-1" d="M64,71.35a.85.85,0,0,1,1.12-.5A.88.88,0,0,1,65.54,72a.84.84,0,0,1-1.12.5A.89.89,0,0,1,64,71.35"/></clipPath><clipPath id="clip-path-146"><path class="cls-1" d="M91.24,40.77a4.41,4.41,0,0,1-1-.12,3,3,0,0,0-1-.1.37.37,0,0,1-.35-.28.35.35,0,0,1,.28-.34,3.12,3.12,0,0,1,1.15.13,4.76,4.76,0,0,0,1,.12,2,2,0,0,0,1.92-1.09c.69-1.33,0-3.6-1-5.06a29.68,29.68,0,0,1-3-7.74C88,22.22,86.77,18,84,14.85c-4-4.53-8-3.79-10-3.41a3.94,3.94,0,0,1-1.21.12,4.23,4.23,0,0,0-2.83,0C64.77,13,63.4,19.86,63.12,21.91a22.7,22.7,0,0,0,1,8.45,22.26,22.26,0,0,1,.56,2.49c.75,5.37,2.58,5.84,4.07,5.65a.3.3,0,0,1,.35.28.31.31,0,0,1-.28.34c-3.45.44-4.38-3.32-4.76-6.18a21.68,21.68,0,0,0-.56-2.39,22.39,22.39,0,0,1-1-8.7c.31-2.18,1.71-9.39,7.3-10.94a5.11,5.11,0,0,1,3.14,0,3.1,3.1,0,0,0,.93-.13c2-.37,6.28-1.18,10.57,3.61,2.89,3.23,4.22,7.74,5.41,11.68.87,2.89,1.67,5.63,3,7.55,1.12,1.65,1.8,4.14,1,5.69a2.7,2.7,0,0,1-2.45,1.43.31.31,0,0,1-.16.06"/></clipPath><clipPath id="clip-path-148"><path class="cls-1" d="M74.59,34.12a.21.21,0,0,1-.13,0,1.36,1.36,0,0,1-.59-1.8,1.71,1.71,0,0,0-.18-1.62.2.2,0,0,1,.06-.31.22.22,0,0,1,.31.06,2.27,2.27,0,0,1,.25,2c-.13.56-.22.93.4,1.31a.19.19,0,0,1,.06.31.18.18,0,0,1-.18.09"/></clipPath><clipPath id="clip-path-150"><path class="cls-1" d="M83.29,32.57h-.13a.31.31,0,1,1,.07-.62,1.06,1.06,0,0,0,.46-.07.34.34,0,0,1,.41.19.32.32,0,0,1-.19.4,1.91,1.91,0,0,1-.62.1"/></clipPath><clipPath id="clip-path-152"><path class="cls-1" d="M67.75,20.29a.3.3,0,0,1-.31-.25A8.22,8.22,0,0,1,69,13.42a.31.31,0,0,1,.47.41A7.53,7.53,0,0,0,68,19.89a.32.32,0,0,1-.22.37.09.09,0,0,1-.06,0"/></clipPath><clipPath id="clip-path-154"><path class="cls-1" d="M82.2,29.24c-2.39,0-5.41-2.39-8.11-4.57-2.42-1.92-4.94-3.94-6-3.23a.31.31,0,1,1-.37-.49c1.4-1,3.85,1,6.68,3.26,3.14,2.52,6.71,5.34,8.86,4.13a.31.31,0,0,1,.43.13.31.31,0,0,1-.12.43,2.9,2.9,0,0,1-1.4.34"/></clipPath><clipPath id="clip-path-156"><path class="cls-1" d="M67.1,32a.29.29,0,0,1-.28-.19c-.78-1.64-.62-6,.65-8.64a3.24,3.24,0,0,1,2-2,.32.32,0,0,1,.37.22.31.31,0,0,1-.21.37A2.83,2.83,0,0,0,68,23.43c-1.15,2.39-1.34,6.59-.65,8.11a.32.32,0,0,1-.16.41.12.12,0,0,1-.12.06"/></clipPath><clipPath id="clip-path-158"><path class="cls-1" d="M83.51,30.61a.31.31,0,0,1-.16-.06.25.25,0,0,1,0-.34l.09-.13a2.15,2.15,0,0,1,.19-.22.29.29,0,0,1,.34,0,.3.3,0,0,1,0,.35c-.06.06-.12.15-.19.21l-.09.13a.26.26,0,0,1-.18.09"/></clipPath><clipPath id="clip-path-160"><path class="cls-1" d="M87.48,41.08a2.77,2.77,0,0,1-1.74-.59c-1.67-1.27-2.27-4.22-2.23-5.9a7.81,7.81,0,0,1,.12-1.06A11.28,11.28,0,0,0,83.57,29a11.26,11.26,0,0,0-1.8-3.51c-.35-.5-.66-1-1-1.49a.32.32,0,0,1,.13-.44.31.31,0,0,1,.43.13c.28.46.59.93.93,1.46a11.36,11.36,0,0,1,1.9,3.73,11.24,11.24,0,0,1,.06,4.82,6.93,6.93,0,0,0-.12,1c0,1.49.49,4.29,2,5.41a2.37,2.37,0,0,0,2.14.37,6.48,6.48,0,0,0,1.62-1c1-.68,1.86-1.36,2.54-1a.3.3,0,1,1-.24.56c-.38-.16-1.25.49-1.93,1A7.25,7.25,0,0,1,88.45,41c-.34,0-.66.09-1,.09"/></clipPath><clipPath id="clip-path-162"><path class="cls-1" d="M92.39,41a6.48,6.48,0,0,1-1-.09.23.23,0,0,1-.19-.28.22.22,0,0,1,.28-.19c1.49.25,2.52,0,3-.78.94-1.4,0-4.32-1.39-6.59a60.57,60.57,0,0,1-4-9.16c-.35-.87-.59-1.59-.69-1.74a.21.21,0,0,1,.1-.31.21.21,0,0,1,.31.09c.09.19.31.71.71,1.8a64.92,64.92,0,0,0,4,9.11c1.34,2.2,2.52,5.4,1.4,7.08A2.74,2.74,0,0,1,92.39,41"/></clipPath><clipPath id="clip-path-164"><path class="cls-1" d="M81.36,29.74c-2.73,0-5.19-2.45-7.24-4.51-.59-.59-1.12-1.11-1.65-1.55-.18-.19-.4-.34-.59-.53l-.25-.25a.33.33,0,0,1,0-.43.33.33,0,0,1,.44,0l.25.25a7.79,7.79,0,0,0,.59.52q.8.7,1.68,1.59c2.51,2.49,5.65,5.62,9,3.7a.31.31,0,0,1,.43.12.33.33,0,0,1-.12.44,5.24,5.24,0,0,1-2.46.68"/></clipPath><clipPath id="clip-path-166"><path class="cls-1" d="M69.93,37.66a.28.28,0,0,1-.25-.12A15.61,15.61,0,0,1,66.82,32a.31.31,0,0,1,.59-.16,15.3,15.3,0,0,0,2.73,5.29.31.31,0,0,1,0,.43.25.25,0,0,1-.18.06"/></clipPath><clipPath id="clip-path-168"><path class="cls-1" d="M80.71,37.6a.47.47,0,0,1-.19-.06.29.29,0,0,1-.06-.44,13.45,13.45,0,0,0,2.39-6.33.28.28,0,0,1,.34-.28.27.27,0,0,1,.28.34A14.38,14.38,0,0,1,81,37.48a.39.39,0,0,1-.25.12"/></clipPath><clipPath id="clip-path-170"><path class="cls-1" d="M69.4,32a1.27,1.27,0,0,1-.34,0,.24.24,0,0,1-.19-.28.24.24,0,0,1,.28-.19A2.47,2.47,0,0,0,70.76,31a.23.23,0,0,1,.32.1.21.21,0,0,1-.1.31A2.85,2.85,0,0,1,69.4,32"/></clipPath><clipPath id="clip-path-172"><path class="cls-1" d="M70.05,32.07a.32.32,0,0,1-.16,0A.23.23,0,0,1,70,31.6c.09,0,.25-.06.34-.12s.06,0,.09-.06a.23.23,0,0,1,.31.12.22.22,0,0,1-.12.31l-.09,0a.85.85,0,0,1-.5.19"/></clipPath><clipPath id="clip-path-174"><path class="cls-1" d="M76.67,30.55a2,2,0,0,1-.44-.06.26.26,0,0,1-.15-.31.25.25,0,0,1,.31-.16c.53.19,1.43-.28,1.71-.4a.24.24,0,0,1,.31.09.25.25,0,0,1-.09.31,3.82,3.82,0,0,1-1.65.53"/></clipPath><clipPath id="clip-path-176"><path class="cls-1" d="M77.23,30.73h-.06a.46.46,0,0,1-.35-.37.23.23,0,0,1,.16-.28.22.22,0,0,1,.28.16l.09-.1a.25.25,0,0,1,.31-.06.24.24,0,0,1,.07.31.65.65,0,0,1-.5.34"/></clipPath><clipPath id="clip-path-178"><path class="cls-1" d="M83.78,35.15a.26.26,0,0,1-.27-.19,12.61,12.61,0,0,1-.81-2.36.31.31,0,0,1,.25-.37.31.31,0,0,1,.37.25,9.33,9.33,0,0,0,.78,2.23.32.32,0,0,1-.16.41.34.34,0,0,1-.16,0"/></clipPath><clipPath id="clip-path-180"><path class="cls-1" d="M46.18,78a.31.31,0,0,1-.28-.19,8.79,8.79,0,0,0-.52-.9,5.07,5.07,0,0,1-1-2.36,16.54,16.54,0,0,1,1.12-6.28c.31-1,.59-1.92.81-2.86,1.49-6.93,3.45-14.76,7.55-20.26a18.61,18.61,0,0,1,4.1-3.7c.34-.24.72-.49,1.06-.77a17.13,17.13,0,0,0,1.65-1.46,7.76,7.76,0,0,1,4-2.52.32.32,0,0,1,.12.62,7.41,7.41,0,0,0-3.73,2.33,20,20,0,0,1-1.71,1.52l-1.05.78a17.13,17.13,0,0,0-4,3.58c-4.07,5.4-6,13.17-7.46,20-.22,1-.53,2-.81,2.89a16,16,0,0,0-1.09,6,4.9,4.9,0,0,0,.87,2.08c.19.31.38.62.56,1a.33.33,0,0,1-.12.41c-.06.09-.09.09-.16.09"/></clipPath><clipPath id="clip-path-182"><path class="cls-1" d="M72.6,81.92a.33.33,0,0,1-.31-.25c-.13-.47-.25-1-.41-1.56-.68-2.58-1.55-5.74-1.27-8,.25-2.09.71-4.23,1.15-6.25a57.48,57.48,0,0,0,1.33-8.39c.19-3.11-1.24-13.55-3-17.22a.31.31,0,0,1,.15-.4.32.32,0,0,1,.41.15c1.8,3.64,3.32,14,3.11,17.53A59.9,59.9,0,0,1,72.38,66c-.44,2-.87,4.14-1.12,6.22s.59,5.28,1.28,7.8c.15.56.31,1.09.4,1.58a.32.32,0,0,1-.22.38.23.23,0,0,0-.12,0"/></clipPath><clipPath id="clip-path-184"><path class="cls-1" d="M61.94,67.19c-2.08,0-5.56-.31-5.56-1.5s3.51-1.49,5.56-1.49,5.56.31,5.56,1.49-3.48,1.5-5.56,1.5M57,65.69c.12.32,1.92.87,4.94.87s4.85-.55,4.94-.87c-.09-.27-1.9-.87-4.94-.87s-4.82.56-4.94.87"/></clipPath><clipPath id="clip-path-186"><path class="cls-1" d="M62.37,79.21h-.12c-2,0-3.36-.56-3.82-1.49a11.24,11.24,0,0,1-.5-1.27.32.32,0,0,1,.22-.41.31.31,0,0,1,.4.22c.16.47.31.87.44,1.18.34.69,1.55,1.12,3.26,1.15s3.23-.5,3.42-1.24a43.81,43.81,0,0,0,1.18-11.59v0a.26.26,0,0,1,.19-.28.32.32,0,0,1,.34,0c.12.09.12.09.12,1.3,0,.62,0,1.59-.06,2.77a42.55,42.55,0,0,1-1.15,8c-.28,1-1.8,1.71-3.92,1.71"/></clipPath><clipPath id="clip-path-188"><path class="cls-1" d="M56.81,67.71a.33.33,0,0,1-.31-.28,11.82,11.82,0,0,1-.09-1.27c0-.15,0-.28,0-.37v-.1a.3.3,0,0,1,.31-.34c.31,0,.31.16.37.75,0,.31.06.74.09,1.27a.36.36,0,0,1-.34.34h0"/></clipPath><clipPath id="clip-path-190"><path class="cls-1" d="M56.07,74.77H56c-2.61-.65-4.47-1.43-6.18-3.51a.31.31,0,1,1,.47-.41c1.61,2,3.29,2.68,5.84,3.33a.3.3,0,0,1-.06.59"/></clipPath><clipPath id="clip-path-192"><path class="cls-1" d="M60.35,76.54c-.49,0-1,0-1.27-.06a3.75,3.75,0,0,1-3.39-4,.29.29,0,0,1,.31-.31.29.29,0,0,1,.31.31,3.1,3.1,0,0,0,2.83,3.36,6.09,6.09,0,0,0,2.46-.1,9.13,9.13,0,0,0-2.74-1.08c-.18-.07-.34-.1-.43-.13a.31.31,0,1,1,.21-.59c.1,0,.25.06.44.13,1.9.55,3,1,3.14,1.46a.6.6,0,0,1-.06.59,2.9,2.9,0,0,1-1.81.4"/></clipPath><clipPath id="clip-path-194"><path class="cls-1" d="M61.16,75a3,3,0,0,1-.5,0,6.88,6.88,0,0,1-3.6-1.28c-.75-.53-1.4-1.4-.9-2.21a.31.31,0,0,1,.43-.09.31.31,0,0,1,.1.44c-.38.56.68,1.3.74,1.33a6.26,6.26,0,0,0,3.3,1.18,2.77,2.77,0,0,0,1.12-.06,3.44,3.44,0,0,0-.81-.65A7.64,7.64,0,0,0,59.92,73c-.25-.09-.5-.22-.78-.34a.28.28,0,0,1-.12-.41.28.28,0,0,1,.4-.12c.25.12.5.25.72.34a7.24,7.24,0,0,1,1.21.65c.87.56,1.21,1,1.09,1.37s-.5.47-1.28.47"/></clipPath><clipPath id="clip-path-196"><path class="cls-1" d="M61,72.75h-.32a9.86,9.86,0,0,1-3.69-1,2,2,0,0,1-1.18-1.3,1.66,1.66,0,0,1,.34-1.37.34.34,0,0,1,.43-.06.31.31,0,0,1,.06.43,1,1,0,0,0-.24.84,1.41,1.41,0,0,0,.8.9,9.77,9.77,0,0,0,3.48,1,1.86,1.86,0,0,0,.91-.1,2.06,2.06,0,0,0-.44-.4c-.15-.09-.31-.22-.43-.31a2,2,0,0,0-.41-.28,9,9,0,0,0-1.65-.78l0,0a.31.31,0,0,1,.25-.56l0,0a10,10,0,0,1,1.74.84c.16.1.31.22.44.31a1.6,1.6,0,0,0,.4.28c.22.16.9.59.72,1.12s-.69.5-1.21.5"/></clipPath><clipPath id="clip-path-198"><path class="cls-1" d="M60,70.23a11.24,11.24,0,0,1-3.23-.78,1.6,1.6,0,0,1-1-1,1.23,1.23,0,0,1,.63-1.09.34.34,0,0,1,.43.06.35.35,0,0,1-.06.44c-.16.12-.41.34-.37.53s.24.4.59.56a10.26,10.26,0,0,0,3.17.71,5.37,5.37,0,0,0-.41-.44,3.36,3.36,0,0,0-.53-.31,1.55,1.55,0,0,1-.28-.15,2.78,2.78,0,0,0-.52-.25,4.67,4.67,0,0,1-1.09-.62.3.3,0,0,1,0-.44.3.3,0,0,1,.43,0,4.82,4.82,0,0,0,.93.53l.59.28c.1,0,.16.09.25.12a3,3,0,0,1,.66.41c.28.25.9.78.62,1.24-.13.22-.44.28-.81.28"/></clipPath><clipPath id="clip-path-200"><path class="cls-1" d="M61.32,65.48a3.27,3.27,0,0,0,.34-.9c.4-2.61-3.61-1.53-4.72-2.77a1.81,1.81,0,0,1-.31-1.89c.34-.75,1-1.71.43-2.52-.87-1.18-2.73-.87-3.26-2.61,0-.13-.28-1-.1-1.09,0,0,.25.71.28.75a1.93,1.93,0,0,0,.66.83c1.12.94,2.54.56,3.48,1.9s-1,2.64-.22,3.92S61,61.53,62,62.87A2.17,2.17,0,0,1,62.06,65c-.12.28-.93,1-.74.47"/></clipPath><clipPath id="clip-path-202"><path class="cls-1" d="M62.28,64c.37-2.27-2.17-1.93-3.11-3a3.84,3.84,0,0,1-.56-1.8,3.51,3.51,0,0,1,0-.56s0-.28,0-.28.16.59.22.81a2.41,2.41,0,0,0,.78,1.33c.9.75,2.08.44,2.86,1.43a1.7,1.7,0,0,1,.31,1.56c0,.12-.53.84-.5.53"/></clipPath><clipPath id="clip-path-204"><path class="cls-1" d="M59.55,59.17c-.31,0-.31-.72-.38-1-.18-.93.31-1.8-.52-2.58-1.5-1.39-3.08-.93-4.23-4.47-.09-.31-.28-1,0-1.28.06-.06.06.63.09.91a4.63,4.63,0,0,0,1,2.08C56.84,54.2,59,54.13,60,56c.53.9-.21,1.27-.52,2a1.24,1.24,0,0,0-.13.68c.09.19.31.47.16.44"/></clipPath><clipPath id="clip-path-206"><path class="cls-1" d="M50,75.92a.29.29,0,0,1-.28-.22,7.57,7.57,0,0,1,1.92-7.83,10.27,10.27,0,0,1,3.61-2.33s1.05-.37,1.3.15a.33.33,0,0,1-.12.41A.33.33,0,0,1,56.1,66a1.33,1.33,0,0,0-.59.09,9.24,9.24,0,0,0-3.39,2.17,7,7,0,0,0-1.77,7.18.33.33,0,0,1-.19.41.18.18,0,0,1-.12,0"/></clipPath><clipPath id="clip-path-208"><path class="cls-1" d="M38.6,93.13a.29.29,0,0,1-.25-.12.34.34,0,0,1,.06-.43c1.62-1.22,1.87-3.49,2.09-5.66A14.21,14.21,0,0,1,41.24,83c1.74-4.25,7.34-7.42,12-9a.33.33,0,0,1,.4.19.32.32,0,0,1-.19.4c-4.31,1.43-9.94,4.57-11.62,8.64a14.55,14.55,0,0,0-.71,3.7c-.25,2.33-.5,4.73-2.33,6.09a.24.24,0,0,1-.19.06"/></clipPath><clipPath id="clip-path-210"><path class="cls-1" d="M36.89,101.21a14.11,14.11,0,0,1-6.62-1.8c-2.7-1.4-3.76-3.17-3-4.94a4.46,4.46,0,0,1,1.89-1.68c.28-.18.56-.34.78-.49.47-.38.93-.78,1.4-1.19a13.29,13.29,0,0,1,3.6-2.48A14.36,14.36,0,0,1,37.14,88a7.7,7.7,0,0,0,3.14-1.15.32.32,0,0,1,.43.06.31.31,0,0,1-.06.43,8.18,8.18,0,0,1-3.39,1.28,11.35,11.35,0,0,0-2.11.59,13,13,0,0,0-3.42,2.39c-.46.41-.93.81-1.43,1.18a9.26,9.26,0,0,1-.8.53c-.66.41-1.43.87-1.65,1.4-.78,1.86,1,3.29,2.73,4.16,4.17,2.18,8,2.27,11.9.31a10.92,10.92,0,0,0,3.17-2.89c.25-.28.5-.59.75-.83a32.83,32.83,0,0,0,6.12-8.92c.13-.28.25-.59.41-.87,1.27-2.86,2.89-6.44,5.75-7.87a.32.32,0,0,1,.4.13.33.33,0,0,1-.13.4c-2.67,1.34-4.22,4.79-5.46,7.58-.13.32-.28.6-.41.91a34.84,34.84,0,0,1-6.24,9.07c-.25.28-.47.56-.72.84a11.84,11.84,0,0,1-3.36,3,13.55,13.55,0,0,1-5.87,1.43"/></clipPath><clipPath id="clip-path-212"><path class="cls-1" d="M67.16,59.88a.29.29,0,0,1-.31-.31A22.64,22.64,0,0,0,66.23,55c-.1-.49-.22-1-.31-1.52-.94-5.06-1.87-9.23-4.76-13a.35.35,0,0,1,.06-.44.34.34,0,0,1,.44.07c3,3.94,3.91,8.17,4.88,13.33.09.5.18,1,.31,1.49a23.76,23.76,0,0,1,.65,4.69.38.38,0,0,1-.34.31"/></clipPath><clipPath id="clip-path-214"><path class="cls-1" d="M108.89,73.65a.27.27,0,0,1-.21-.09.3.3,0,0,1,0-.44c.56-.56.53-1.33.28-2.33A31.57,31.57,0,0,0,107.71,67c-.4-1.09-.8-2.24-1.11-3.39-.41-1.49-.78-3-1.15-4.69-1.71-7.33-3.67-15.66-10.76-19.21a.27.27,0,0,1-.12-.4.27.27,0,0,1,.4-.12c7.37,3.66,9.33,12.15,11.1,19.61.37,1.64.74,3.2,1.15,4.66.31,1.12.71,2.23,1.08,3.32.44,1.28.91,2.55,1.25,3.89a2.89,2.89,0,0,1-.44,2.92.33.33,0,0,1-.22.09"/></clipPath><clipPath id="clip-path-216"><path class="cls-1" d="M110,74.52a3.33,3.33,0,0,1-1.08-.25A14.44,14.44,0,0,1,105,71.88a41.23,41.23,0,0,0-11.93-7.09,10.19,10.19,0,0,0-2.58-.52c-.31,0-.62-.1-.93-.13a.31.31,0,0,1-.25-.34.3.3,0,0,1,.34-.25c.31.06.59.09.9.12a14.41,14.41,0,0,1,2.7.56,41.76,41.76,0,0,1,12.12,7.21,13.65,13.65,0,0,0,3.79,2.3,1.77,1.77,0,0,0,1,.19c.75-.75.31-1.34-.5-2.21a3.76,3.76,0,0,1-.77-1,.33.33,0,0,1,.12-.41.32.32,0,0,1,.4.13,4.15,4.15,0,0,0,.69.87c.71.78,1.71,1.83.49,3.08a1,1,0,0,1-.59.15"/></clipPath><clipPath id="clip-path-218"><path class="cls-1" d="M104.2,84.22c-.06,0-.09,0-.12,0a.28.28,0,0,1-.13-.41c1.18-2.33,2.83-3.11,4.73-4l1.49-.74c.22-.13.46-.22.68-.35,1-.46,1.9-.9,2.21-2,.53-2-1-3.88-2.27-5.43-.19-.22-.34-.44-.5-.62a2.18,2.18,0,0,0-.46-.44c-.62-.59-1.09-1-1.09-1.46a.31.31,0,1,1,.62,0c0,.19.62.75.87,1s.4.38.53.53.31.41.5.62c1.33,1.65,3,3.73,2.36,6a3.82,3.82,0,0,1-2.52,2.39c-.22.1-.47.22-.68.34-.53.28-1,.53-1.53.75-1.89.9-3.38,1.62-4.44,3.76A.25.25,0,0,1,104.2,84.22Z"/></clipPath><clipPath id="clip-path-220"><path class="cls-1" d="M103,100.53a12.16,12.16,0,0,1-8.42-3c-5.25-4.69-7-11-5.66-20,.13-.87.31-1.81.5-2.8.78-4,1.71-9-.37-10.63a.31.31,0,0,1-.06-.43.33.33,0,0,1,.43-.07c2.43,1.84,1.46,6.84.62,11.25-.18,1-.37,1.93-.49,2.77-1.34,8.7.4,14.88,5.46,19.42,4.14,3.7,9.36,3.11,13.93,2,1.4-.31,2.76-.71,4.25-1.15,5.57-1.58,11.28-3.23,16.79-1a.32.32,0,0,1,.18.4.32.32,0,0,1-.4.19c-5.29-2.12-10.91-.5-16.38,1-1.49.44-2.89.81-4.29,1.15a29.5,29.5,0,0,1-6.09.78"/></clipPath><clipPath id="clip-path-222"><path class="cls-1" d="M128.6,100.06c-1.37,0-2.74-.12-4-.24-.62-.07-1.21-.13-1.77-.16l-3.24-.28c-2.33-.22-4.75-.43-7-.43a.32.32,0,0,1,0-.63c2.3,0,4.72.22,7.09.44,1,.09,2.17.22,3.2.28.59,0,1.18.09,1.8.15,2.64.25,5.59.56,8-.37,1.49-.56,2.27-1.34,2.33-2.27.09-1.58-1.87-3.38-3.73-4.38-3.45-1.83-7.37-2.17-11.19-2.52A37,37,0,0,1,110.73,88a6.57,6.57,0,0,1-4.57-6.28.31.31,0,0,1,.62,0A6,6,0,0,0,111,87.39,36.7,36.7,0,0,0,120.11,89c3.86.34,7.86.72,11.41,2.61,2.11,1.12,4.19,3.08,4.07,5-.06,1.22-1,2.15-2.74,2.8a11.88,11.88,0,0,1-4.25.65"/></clipPath><clipPath id="clip-path-224"><path class="cls-1" d="M106.35,90.46a8.42,8.42,0,0,1-1.71-.15c-6.19-1.15-7.12-7.8-7.86-13.15-.16-1.21-.35-2.39-.53-3.42a20.43,20.43,0,0,0-1.71-4.38.33.33,0,0,1,.12-.4.34.34,0,0,1,.41.12,19.79,19.79,0,0,1,1.77,4.51c.21,1.06.37,2.2.56,3.45.74,5.4,1.61,11.56,7.36,12.61a13.45,13.45,0,0,0,4.2-.06.32.32,0,0,1,.34.28.29.29,0,0,1-.28.34,14.82,14.82,0,0,1-2.67.25"/></clipPath><clipPath id="clip-path-226"><path class="cls-1" d="M81.83,48.2a.3.3,0,0,1-.31-.25,21.64,21.64,0,0,1-.5-4.29,25.84,25.84,0,0,0-.5-4.16l-.06-.22c-.16-.71-.43-1.9-1.09-2.18a8.22,8.22,0,0,0-1.55-.46c-.28-.06-.59-.13-.87-.22s-.68-.25-1.06-.37a4.08,4.08,0,0,0-2.67-.47,3.87,3.87,0,0,0-.9.65c-.16.13-.28.28-.44.41a12.53,12.53,0,0,0-2.39,2.61.82.82,0,0,0-.12.15,1.42,1.42,0,0,0-.28.31c.52.28,1.3-.34,2.17-1.14a3.18,3.18,0,0,1,1.28-.91.33.33,0,0,1,.37.22.31.31,0,0,1-.22.37,4.34,4.34,0,0,0-1,.78c-.94.84-2.18,2-3.14,1.06a.39.39,0,0,1-.13-.31c0-.28.25-.53.53-.81l.1-.09a14.45,14.45,0,0,1,2.51-2.71A4.13,4.13,0,0,0,72,35.8,3.26,3.26,0,0,1,73.1,35a4.46,4.46,0,0,1,3.13.5,8.93,8.93,0,0,0,1,.37c.28.06.56.16.84.22a9.83,9.83,0,0,1,1.68.5c.93.4,1.24,1.74,1.42,2.61l.07.21a22.39,22.39,0,0,1,.49,4.29,27.3,27.3,0,0,0,.5,4.17.32.32,0,0,1-.22.37l-.18,0"/></clipPath><clipPath id="clip-path-228"><path class="cls-1" d="M71.76,41.67a.3.3,0,0,1-.31-.25,3.67,3.67,0,0,1,.65-2.89,3.54,3.54,0,0,1,2.42-1.46,4.2,4.2,0,0,1,1.19.16,2.3,2.3,0,0,0,1,.12.32.32,0,0,1,.37.22.31.31,0,0,1-.21.37,3.07,3.07,0,0,1-1.28-.12,3.09,3.09,0,0,0-1-.16,2.76,2.76,0,0,0-2,1.22A3,3,0,0,0,72,41.27a.32.32,0,0,1-.22.37s0,0-.06,0"/></clipPath><clipPath id="clip-path-230"><path class="cls-1" d="M72.22,42.64a.32.32,0,0,1-.28-.19,1.92,1.92,0,0,1-.06-1.15,1.35,1.35,0,0,0,.06-.34,3.76,3.76,0,0,1,.44-1.24c.62-.91,1.77-.81,2.77-.72a3.93,3.93,0,0,0,1.33,0,.31.31,0,0,1,.16.59,5.43,5.43,0,0,1-1.56,0c-.93-.09-1.77-.15-2.2.44a3.14,3.14,0,0,0-.34,1c0,.13-.07.25-.1.37a1.27,1.27,0,0,0,0,.75.31.31,0,0,1-.15.4c0,.07,0,.07-.07.07"/></clipPath><clipPath id="clip-path-232"><path class="cls-1" d="M75.67,46a.32.32,0,0,1-.21-.09,5,5,0,0,0-1.25-.81c-.93-.53-2-1.12-1.92-2.58.06-1.21,1.4-1.3,2.48-1.37a4,4,0,0,0,1.4-.24.34.34,0,0,1,.44.09.33.33,0,0,1-.1.43,4.27,4.27,0,0,1-1.67.35c-1.15.09-1.9.18-1.93.77,0,1.09.68,1.49,1.61,2a6.48,6.48,0,0,1,1.37.9.3.3,0,0,1,0,.44.24.24,0,0,1-.22.09"/></clipPath><clipPath id="clip-path-234"><path class="cls-1" d="M77.85,50.69a.3.3,0,0,1-.25-.13A4.12,4.12,0,0,0,77,50a2.6,2.6,0,0,1-1-1.24,7.59,7.59,0,0,1-.25-1.8c-.06-1.18-.16-2.43-1-3a1.29,1.29,0,0,0-.71-.18,2.68,2.68,0,0,1-.56-.07.3.3,0,0,1-.22-.37c.07-.15.22-.28.38-.22s.28,0,.43.07a2,2,0,0,1,1.06.28c1.09.77,1.18,2.2,1.24,3.48a7.87,7.87,0,0,0,.22,1.67,1.9,1.9,0,0,0,.78,1,5.72,5.72,0,0,1,.62.59.3.3,0,0,1-.22.5"/></clipPath><clipPath id="clip-path-236"><path class="cls-1" d="M85.84,56.4a.13.13,0,0,1-.1,0,.31.31,0,0,1-.18-.4c1.3-3.67,3.23-8.3,6.77-11.84a.3.3,0,0,1,.44,0,.3.3,0,0,1,0,.43c-3.45,3.45-5.35,8-6.62,11.59a.35.35,0,0,1-.31.25"/></clipPath><clipPath id="clip-path-238"><path class="cls-1" d="M89,62.84a.34.34,0,0,1-.21-.1.29.29,0,0,1,0-.43c2.39-2.74,6.15-6.56,10.78-8.33a.32.32,0,0,1,.4.19.31.31,0,0,1-.18.4c-4.51,1.71-8.18,5.47-10.54,8.14a.24.24,0,0,1-.22.13"/></clipPath><clipPath id="clip-path-240"><path class="cls-1" d="M82,46.93c-.06,0-.09,0-.12,0a.27.27,0,0,1-.13-.4c.25-.5.53-1,.81-1.52a24.69,24.69,0,0,0,2.27-5.16.3.3,0,1,1,.59.15,25.26,25.26,0,0,1-2.33,5.29c-.28.53-.56,1-.78,1.52a.49.49,0,0,1-.31.16"/></clipPath><clipPath id="clip-path-242"><path class="cls-1" d="M89.1,89.65c-1.62,0-7.8-4.38-10.29-9.82-1.86-4.07-1.52-9.57-1.18-14.94.13-2,.25-4,.25-5.84a.3.3,0,0,1,.31-.32.3.3,0,0,1,.31.32c0,1.86-.12,3.82-.25,5.9-.34,5.28-.65,10.72,1.12,14.64C81.83,85,88,89,89.07,89h0a.32.32,0,0,1,.31.31.29.29,0,0,1-.31.31h0"/></clipPath><clipPath id="clip-path-244"><path class="cls-1" d="M79.12,56.06a2.86,2.86,0,0,1-.52,0c-1-.16-1.15-1.68-1.31-2.86a5.9,5.9,0,0,0-.15-1s0-.06,0-.13c-.15-.46-.43-1.43.19-1.77.34-.15.62.1.81.31s.18.19.25.19a3.66,3.66,0,0,0,1.4-.5,4.89,4.89,0,0,0,1.86-1.86,5.8,5.8,0,0,0,0-.78c0-.37,0-.47.16-.56a.31.31,0,0,1,.28,0c.8.34,1,1.27,1.15,2,0,.22.09.4.12.56a5.57,5.57,0,0,0,.37.84,4.55,4.55,0,0,1,.66,2c-.35,1.95-3.21,3.6-5.26,3.6m-1.55-5.13a2,2,0,0,0,.16,1,.23.23,0,0,1,0,.12,6.68,6.68,0,0,1,.15,1.06c.1.84.25,2.23.78,2.33,1.71.28,4.75-1.28,5.1-3a6.79,6.79,0,0,0-.59-1.58,6.2,6.2,0,0,1-.41-.93c-.06-.19-.09-.41-.15-.63A4.2,4.2,0,0,0,82.26,48a1.76,1.76,0,0,1-.09.69,5.73,5.73,0,0,1-2.11,2.14,3.67,3.67,0,0,1-1.84.56,1.2,1.2,0,0,1-.56-.37s-.06-.1-.09-.13"/></clipPath><clipPath id="clip-path-246"><path class="cls-1" d="M88.1,82.23a.18.18,0,0,1-.12,0,12.33,12.33,0,0,1-3.36-2.8C82.7,77.32,82,74.61,81.39,72l-.15-.62c-.31-1.24-.66-2.52-1-3.73s-.68-2.51-1-3.76c-.19-.68-.37-1.4-.56-2.08a38.58,38.58,0,0,1-1-4c-.19-1.11,0-1.86.65-2.17a.33.33,0,0,1,.4.12.34.34,0,0,1-.12.41c-.47.25-.38,1.15-.31,1.52a32.8,32.8,0,0,0,1,3.88c.19.69.4,1.4.56,2.09.31,1.24.65,2.51,1,3.76s.69,2.48,1,3.76l.15.62C82.64,74.4,83.29,77,85.12,79a11.4,11.4,0,0,0,3.17,2.65.3.3,0,0,1,.16.4.4.4,0,0,1-.35.22"/></clipPath><clipPath id="clip-path-248"><path class="cls-1" d="M90.16,66a.33.33,0,0,1-.28-.16c-.44-.84-1-1.71-1.53-2.64a23.3,23.3,0,0,1-2.86-5.94A10.77,10.77,0,0,1,85.31,56c-.13-1.06-.25-2.39-.9-2.86a.33.33,0,0,1-.07-.43.34.34,0,0,1,.44-.07c.84.63,1,2,1.12,3.3.06.43.09.87.15,1.18a22.3,22.3,0,0,0,2.77,5.75c.56.93,1.12,1.83,1.55,2.7a.3.3,0,0,1-.12.41Z"/></clipPath><clipPath id="clip-path-250"><path class="cls-1" d="M78,110.13a.34.34,0,0,1-.32-.25,88.49,88.49,0,0,1-1.42-9.32c-.78-6.28-1.68-13.42-3.49-17.28-1.21-2.58-3.72-5-6.61-4.72-3.7.4-6.37,3.7-8.74,6.62-.74.93-1.46,1.8-2.2,2.58S54,89,53.3,89.53s-1.12,1-1.65,1.49a.3.3,0,1,1-.43-.43c.53-.53,1.12-1,1.68-1.53a23.89,23.89,0,0,0,1.89-1.74c.72-.74,1.43-1.61,2.18-2.54,2.42-3,5.19-6.41,9.16-6.84,3.17-.34,5.94,2.3,7.24,5.06,1.87,4,2.77,11.13,3.55,17.47a91.66,91.66,0,0,0,1.43,9.26.33.33,0,0,1-.22.37.11.11,0,0,1-.09,0"/></clipPath><clipPath id="clip-path-252"><path class="cls-1" d="M64.67,109.48a.37.37,0,0,1-.31-.22c-.68-2.17-1.33-4.25-1.89-6.12-2-6.31-3.48-11.28-4.42-11.9a.32.32,0,1,1,.35-.53c1.05.72,2.26,4.48,4.66,12.24.56,1.84,1.21,4,1.89,6.13a.31.31,0,0,1-.21.4s0,0-.07,0"/></clipPath><clipPath id="clip-path-254"><path class="cls-1" d="M76.79,93.26a5.2,5.2,0,0,1-1-.09.32.32,0,0,1,.12-.63c2,.41,3.8-.68,5.66-1.8,1.62-1,3.29-2,5.13-2a.32.32,0,0,1,0,.63c-1.68,0-3.2.93-4.82,1.89s-3.29,2-5.13,2"/></clipPath><clipPath id="clip-path-256"><path class="cls-1" d="M93.73,108.92a.29.29,0,0,1-.31-.31c0-6.25-1.74-11.84-4.54-18.83a.31.31,0,0,1,.59-.22c2.83,7.06,4.57,12.71,4.57,19a.31.31,0,0,1-.31.31"/></clipPath><clipPath id="clip-path-258"><path class="cls-1" d="M49.07,101.12a.39.39,0,0,1-.28-.15c-1.33-2.27-.09-7.49,1-9.26a.3.3,0,0,1,.43-.1.31.31,0,0,1,.1.44c-1.06,1.64-2.18,6.65-1,8.61a.33.33,0,0,1-.09.43s-.09,0-.16,0"/></clipPath><clipPath id="clip-path-260"><path class="cls-1" d="M75.3,27.72a2.43,2.43,0,0,1-.65-.09.24.24,0,0,1-.16-.28.24.24,0,0,1,.28-.16,3.65,3.65,0,0,0,2.49-.53.24.24,0,0,1,.31.1.25.25,0,0,1-.09.31,5.4,5.4,0,0,1-2.18.65"/></clipPath><clipPath id="clip-path-262"><path class="cls-1" d="M74.8,28.06a.11.11,0,0,1-.09,0c-.22-.09-.31-.09-.34-.12a.36.36,0,0,1-.28-.22l0,0a.24.24,0,0,1,.06-.31.23.23,0,0,1,.31.06l0,0v0l.41.13a.23.23,0,0,1,.12.31.17.17,0,0,1-.19.15"/></clipPath><clipPath id="clip-path-264"><path class="cls-1" d="M70.36,29.09c-.31,0-.62,0-.93-.06a6,6,0,0,0-.84-.07.24.24,0,0,1-.25-.25.22.22,0,0,1,.25-.24,8.48,8.48,0,0,1,.87.06,3.19,3.19,0,0,0,2.42-.41.25.25,0,0,1,.35,0,.24.24,0,0,1,0,.34,2.67,2.67,0,0,1-1.83.59"/></clipPath><clipPath id="clip-path-266"><path class="cls-1" d="M81.33,41.67a.29.29,0,0,1-.22-.09.3.3,0,0,1,0-.43c.9-.91,2.61-2.62,2.61-4.08a.3.3,0,0,1,.31-.31.29.29,0,0,1,.31.31c0,1.74-1.74,3.48-2.79,4.51a.35.35,0,0,1-.22.09"/></clipPath><clipPath id="clip-path-268"><path class="cls-1" d="M81,34.09c-.5,0-.81-1.37-.84-1.52a.2.2,0,0,1,.22-.25.21.21,0,0,1,.25.22,3.43,3.43,0,0,0,.28.9v-.16a.24.24,0,0,1,.24-.25.23.23,0,0,1,.25.25c0,.28,0,.81-.4.81h0"/></clipPath><clipPath id="clip-path-270"><path class="cls-1" d="M58.46,29.49a.32.32,0,0,1-.31-.22.26.26,0,0,1,0-.21L58,28.93a1.91,1.91,0,0,0-.5-.22.29.29,0,0,1-.31-.12.29.29,0,0,1,0-.37,1.12,1.12,0,0,0,0-.38c-.68.72-1.24,1.25-1.71,1-.31-.19-.28-.5-.21-.78-.47.72-.94,1.21-1.46,1.09a.61.61,0,0,1-.38-.25c-.18-.31,0-.75.1-1.18,0-.12.06-.25.09-.34a3.18,3.18,0,0,1,.15-.59c-.18.25-.37.49-.62.84,0,0-.06.09-.12.15-.25.34-.56.75-.93.81a.58.58,0,0,1-.44-.12c-.34-.25-.37-.84-.15-1.71a19.61,19.61,0,0,1,2.23-5.44c.72-1.15,1.22-1.24,1.53-1.09.46.22.49,1,.12,2a15.31,15.31,0,0,1-.81,1.8,7.08,7.08,0,0,1-.46.81c-.07.12-.16.25-.22.37-.5.84-.68,1.18-.78,1.37a4.93,4.93,0,0,1-.34.53,18,18,0,0,0,1.55-2.33c.19-.31.41-.66.69-1.09l.22-.47A4.71,4.71,0,0,1,55.85,22a1.3,1.3,0,0,0,.12-.21c.22-.35.34-.59.62-.5a.33.33,0,0,1,.25.34A2.76,2.76,0,0,1,56,23.31c-.15.21-.34.4-.46.59,0,0,0,0,0,.06A18.77,18.77,0,0,0,54.2,27.5a1.86,1.86,0,0,1-.12.38,2.14,2.14,0,0,0-.16.65c.16,0,.59-.31,1.55-2.33a2.57,2.57,0,0,0,.19-.41c.09-.15.22-.4.34-.65.38-.75.44-.9.72-.78.09,0,.25.16.15.47l-.46,1.43c-.19.56-.41,1.12-.56,1.68,0,0,0,.06,0,.12s0,.09,0,.13a10.54,10.54,0,0,0,1-.87c.34-.38.43-.47.65-.41a.3.3,0,0,1,.22.25,5.24,5.24,0,0,1,.12,1,3.2,3.2,0,0,1,.5.22,1.39,1.39,0,0,1,.53.44c.06,0,.15,0,.28,0s.31.09.34.28a.31.31,0,0,1-.28.34l-.59.06C58.49,29.49,58.49,29.49,58.46,29.49Zm-3.58-8.61c-.09,0-.34.19-.71.84A19.42,19.42,0,0,0,52,27c-.19.68-.13,1-.07,1a2.54,2.54,0,0,0,.5-.56s.06-.06.06-.09a.33.33,0,0,1-.37,0,.3.3,0,0,1-.09-.44l.06-.06a5.08,5.08,0,0,0,.37-.59c.1-.19.31-.56.81-1.4.06-.12.16-.25.22-.37s.31-.5.43-.75c.31-.62.56-1.18.78-1.74A1.7,1.7,0,0,0,54.88,20.88Z"/></clipPath></defs><g class="cls-3"><g class="cls-4"><rect class="cls-5" x="38.82" y="95.22" width="29.94" height="16.53"/></g></g><g class="cls-6"><g class="cls-4"><rect class="cls-5" x="87.99" y="93.79" width="14" height="11.65"/></g></g><g class="cls-7"><g class="cls-4"><rect class="cls-5" x="10.52" y="38.29" width="49.8" height="59.26"/></g></g><g class="cls-8"><g class="cls-4"><rect class="cls-5" x="97.64" y="42.37" width="43.68" height="52.6"/></g></g><g class="cls-9"><g class="cls-4"><rect class="cls-10" x="22.36" y="31.98" width="56.02" height="73.93"/></g></g><g class="cls-11"><g class="cls-4"><rect class="cls-10" x="72.62" y="33.76" width="67.48" height="71.16"/></g></g><g class="cls-12"><g class="cls-4"><rect class="cls-13" x="39.97" y="86.39" width="15.19" height="19.95"/></g></g><g class="cls-14"><g class="cls-4"><rect class="cls-13" x="45.5" y="73.01" width="25.14" height="22.92"/></g></g><g class="cls-15"><g class="cls-4"><rect class="cls-13" x="39.65" y="65.63" width="19.61" height="17.08"/></g></g><g class="cls-16"><g class="cls-4"><rect class="cls-13" x="79.22" y="33.35" width="22.43" height="15.36"/></g></g><g class="cls-17"><g class="cls-4"><rect class="cls-13" x="72.69" y="53.54" width="21.91" height="40.87"/></g></g><g class="cls-18"><g class="cls-4"><rect class="cls-13" x="107.41" y="87.76" width="32.91" height="17.15"/></g></g><g class="cls-19"><g class="cls-4"><rect class="cls-13" x="103.61" y="63.76" width="13.87" height="15.6"/></g></g><g class="cls-20"><g class="cls-4"><rect class="cls-13" x="79.59" y="39.19" width="18" height="21.79"/></g></g><g class="cls-21"><g class="cls-4"><rect class="cls-13" x="80.95" y="47.92" width="23.78" height="24.46"/></g></g><g class="cls-22"><g class="cls-4"><rect class="cls-13" x="96.85" y="74.81" width="16.73" height="16.15"/></g></g><g class="cls-23"><g class="cls-4"><rect class="cls-13" x="22.23" y="82" width="24.36" height="23.95"/></g></g><g class="cls-24"><g class="cls-4"><rect class="cls-13" x="46.33" y="68.93" width="18.51" height="15.17"/></g></g><g class="cls-25"><g class="cls-4"><rect class="cls-13" x="52.8" y="31.65" width="22.91" height="33.64"/></g></g><g class="cls-26"><g class="cls-4"><rect class="cls-13" x="60.23" y="66.14" width="17.38" height="20.95"/></g></g><g class="cls-27"><g class="cls-4"><rect class="cls-13" x="89.78" y="63.99" width="24.28" height="31.28"/></g></g><g class="cls-4"><g class="cls-28"><g class="cls-29"><g class="cls-30"><rect class="cls-31" x="43.54" y="73.34" width="55.28" height="42.69"/></g></g></g></g><g class="cls-32"><g class="cls-4"><rect class="cls-33" x="43.73" y="79.39" width="24.89" height="32.08"/></g></g><g class="cls-34"><g class="cls-4"><rect class="cls-33" x="70.7" y="85.62" width="17" height="17.75"/></g></g><g class="cls-35"><g class="cls-4"><rect class="cls-33" x="81.52" y="87.02" width="11.74" height="11.74"/></g></g><g class="cls-36"><g class="cls-4"><rect class="cls-33" x="82.51" y="89.28" width="11.74" height="11.74"/></g></g><g class="cls-37"><g class="cls-4"><rect class="cls-38" x="63.96" y="76.36" width="11.74" height="11.74"/></g></g><g class="cls-39"><g class="cls-4"><rect class="cls-38" x="64.96" y="78.63" width="11.74" height="11.74"/></g></g><g class="cls-40"><g class="cls-4"><rect class="cls-13" x="88.05" y="65.37" width="11.72" height="11.77"/></g></g><g class="cls-41"><g class="cls-4"><rect class="cls-13" x="88.53" y="67.79" width="11.71" height="11.77"/></g></g><g class="cls-42"><g class="cls-4"><rect class="cls-43" x="90.72" y="36.89" width="11.71" height="11.77"/></g></g><g class="cls-44"><g class="cls-4"><rect class="cls-43" x="92.62" y="38.48" width="11.71" height="11.77"/></g></g><g class="cls-45"><g class="cls-4"><rect class="cls-13" x="50.51" y="40.15" width="11.77" height="11.75"/></g></g><g class="cls-46"><g class="cls-4"><rect class="cls-13" x="49.1" y="42.2" width="11.78" height="11.75"/></g></g><g class="cls-47"><g class="cls-4"><rect class="cls-43" x="39" y="75.32" width="11.76" height="11.72"/></g></g><g class="cls-48"><g class="cls-4"><rect class="cls-43" x="41.08" y="73.99" width="11.76" height="11.72"/></g></g><g class="cls-49"><g class="cls-4"><rect class="cls-50" x="64.79" y="26.39" width="30.88" height="71.57"/></g></g><g class="cls-51"><g class="cls-4"><rect class="cls-52" x="76.26" y="32.44" width="14.05" height="19.27"/></g></g><g class="cls-53"><g class="cls-4"><rect class="cls-52" x="65.08" y="32.98" width="17.76" height="64.94"/></g></g><g class="cls-54"><g class="cls-4"><rect class="cls-52" x="72.82" y="47.57" width="16.93" height="14.22"/></g></g><g class="cls-55"><g class="cls-4"><rect class="cls-52" x="79.72" y="59.7" width="15.99" height="27.41"/></g></g><g class="cls-56"><g class="cls-4"><rect class="cls-57" x="80.3" y="56.24" width="11.72" height="11.75"/></g></g><g class="cls-58"><g class="cls-4"><rect class="cls-57" x="81.54" y="58.39" width="11.72" height="11.75"/></g></g><g class="cls-59"><g class="cls-4"><rect class="cls-52" x="68.25" y="66.94" width="11.76" height="11.74"/></g></g><g class="cls-60"><g class="cls-4"><rect class="cls-52" x="70.71" y="66.54" width="11.76" height="11.74"/></g></g><g class="cls-61"><g class="cls-4"><rect class="cls-62" x="51.66" y="59.44" width="20.58" height="24.47"/></g></g><g class="cls-63"><g class="cls-4"><rect class="cls-64" x="52.65" y="60.35" width="18.55" height="11.46"/></g></g><g class="cls-65"><g class="cls-4"><rect class="cls-66" x="45.08" y="60.72" width="22.17" height="20.69"/></g></g><g class="cls-67"><g class="cls-4"><rect class="cls-68" x="51.88" y="62.64" width="15.31" height="18.67"/></g></g><g class="cls-69"><g class="cls-4"><rect class="cls-70" x="57.72" y="5.78" width="41.25" height="40.01"/></g></g><g class="cls-71"><g class="cls-4"><rect class="cls-72" x="59.23" y="16" width="15.98" height="28.05"/></g></g><g class="cls-73"><g class="cls-4"><rect class="cls-72" x="77.88" y="25.14" width="11.25" height="14.69"/></g></g><g class="cls-74"><g class="cls-4"><rect class="cls-72" x="79.83" y="29.45" width="19.06" height="16.16"/></g></g><g class="cls-75"><g class="cls-4"><rect class="cls-66" x="61.6" y="16.36" width="27.57" height="39.76"/></g></g><g class="cls-76"><g class="cls-4"><rect class="cls-68" x="75.52" y="27.71" width="13.55" height="18.56"/></g></g><g class="cls-77"><g class="cls-4"><rect class="cls-68" x="64.05" y="16.53" width="25.22" height="20.67"/></g></g><g class="cls-78"><g class="cls-4"><rect class="cls-68" x="63.87" y="30.97" width="14.1" height="14.04"/></g></g><g class="cls-79"><g class="cls-4"><rect class="cls-68" x="66.79" y="32.85" width="14.18" height="17.62"/></g></g><g class="cls-80"><g class="cls-4"><rect class="cls-68" x="72.72" y="42.71" width="14.17" height="13.38"/></g></g><g class="cls-81"><g class="cls-4"><rect class="cls-82" x="64.05" y="27.38" width="12.71" height="11.57"/></g></g><g class="cls-83"><g class="cls-4"><rect class="cls-82" x="71.38" y="25.68" width="12.71" height="11.56"/></g></g><g class="cls-84"><g class="cls-4"><rect class="cls-82" x="68.89" y="26.25" width="11.13" height="12.66"/></g></g><g class="cls-85"><g class="cls-4"><rect class="cls-72" x="58.51" y="14.8" width="10.98" height="13.42"/></g></g><g class="cls-86"><g class="cls-4"><rect class="cls-72" x="59.69" y="14.78" width="11.05" height="13.71"/></g></g><g class="cls-87"><g class="cls-4"><rect class="cls-88" x="76.96" y="10.8" width="11.92" height="12.45"/></g></g><g class="cls-89"><g class="cls-4"><rect class="cls-88" x="77.7" y="9.92" width="12.34" height="13.01"/></g></g><g class="cls-90"><g class="cls-4"><rect class="cls-72" x="80.6" y="28.96" width="11.28" height="12.71"/></g></g><g class="cls-91"><g class="cls-4"><rect class="cls-88" x="79.53" y="28.97" width="11.36" height="13.7"/></g></g><g class="cls-92"><g class="cls-4"><rect class="cls-50" x="45.1" y="60.79" width="16.72" height="18.71"/></g></g><g class="cls-93"><g class="cls-4"><rect class="cls-52" x="45.25" y="60.75" width="16.31" height="16.01"/></g></g><g class="cls-94"><g class="cls-4"><rect class="cls-95" x="58.81" y="63.3" width="11.71" height="11.78"/></g></g><g class="cls-96"><g class="cls-4"><rect class="cls-95" x="58.89" y="65.79" width="11.72" height="11.78"/></g></g><g class="cls-97"><g class="cls-4"><rect class="cls-98" x="57.38" y="5.46" width="41.81" height="40.31"/></g></g><g class="cls-99"><g class="cls-4"><rect class="cls-98" x="68.64" y="25.32" width="11.18" height="13.8"/></g></g><g class="cls-100"><g class="cls-4"><rect class="cls-98" x="77.88" y="26.86" width="11.24" height="10.7"/></g></g><g class="cls-101"><g class="cls-4"><rect class="cls-98" x="62.26" y="8.31" width="12.28" height="16.98"/></g></g><g class="cls-102"><g class="cls-4"><rect class="cls-98" x="62.63" y="15.69" width="26.13" height="18.55"/></g></g><g class="cls-103"><g class="cls-4"><rect class="cls-98" x="61.34" y="16.19" width="13.52" height="20.82"/></g></g><g class="cls-104"><g class="cls-4"><rect class="cls-98" x="78.26" y="24.79" width="10.75" height="10.82"/></g></g><g class="cls-105"><g class="cls-4"><rect class="cls-98" x="75.76" y="18.48" width="21.86" height="27.6"/></g></g><g class="cls-106"><g class="cls-4"><rect class="cls-98" x="83.29" y="16.78" width="16.97" height="29.17"/></g></g><g class="cls-107"><g class="cls-4"><rect class="cls-98" x="66.54" y="17.37" width="22.45" height="17.37"/></g></g><g class="cls-108"><g class="cls-4"><rect class="cls-98" x="61.8" y="26.65" width="13.41" height="16.01"/></g></g><g class="cls-109"><g class="cls-4"><rect class="cls-98" x="75.38" y="25.48" width="13.1" height="17.12"/></g></g><g class="cls-110"><g class="cls-4"><rect class="cls-98" x="63.86" y="25.98" width="12.24" height="10.99"/></g></g><g class="cls-111"><g class="cls-4"><rect class="cls-98" x="64.73" y="26.39" width="11.06" height="10.68"/></g></g><g class="cls-112"><g class="cls-4"><rect class="cls-98" x="71.07" y="24.59" width="12.36" height="10.96"/></g></g><g class="cls-113"><g class="cls-4"><rect class="cls-98" x="71.82" y="25.05" width="10.94" height="10.68"/></g></g><g class="cls-114"><g class="cls-4"><rect class="cls-98" x="77.69" y="27.22" width="11.43" height="12.93"/></g></g><g class="cls-115"><g class="cls-4"><rect class="cls-98" x="39.38" y="31.66" width="30.73" height="51.31"/></g></g><g class="cls-116"><g class="cls-4"><rect class="cls-98" x="65.03" y="34.78" width="13.71" height="52.16"/></g></g><g class="cls-117"><g class="cls-4"><rect class="cls-98" x="51.38" y="59.2" width="21.13" height="12.98"/></g></g><g class="cls-118"><g class="cls-4"><rect class="cls-98" x="52.91" y="60.41" width="19.59" height="23.8"/></g></g><g class="cls-119"><g class="cls-4"><rect class="cls-98" x="51.38" y="60.35" width="10.78" height="12.36"/></g></g><g class="cls-120"><g class="cls-4"><rect class="cls-98" x="44.75" y="65.76" width="16.61" height="14.01"/></g></g><g class="cls-121"><g class="cls-4"><rect class="cls-98" x="50.69" y="67.19" width="16.58" height="14.35"/></g></g><g class="cls-122"><g class="cls-4"><rect class="cls-98" x="50.98" y="66.33" width="16.48" height="13.66"/></g></g><g class="cls-123"><g class="cls-4"><rect class="cls-98" x="50.76" y="63.93" width="16.46" height="13.81"/></g></g><g class="cls-124"><g class="cls-4"><rect class="cls-98" x="50.75" y="62.26" width="15.08" height="12.98"/></g></g><g class="cls-125"><g class="cls-4"><rect class="cls-126" x="48.64" y="48.7" width="18.66" height="21.95"/></g></g><g class="cls-127"><g class="cls-4"><rect class="cls-126" x="53.58" y="53.33" width="14.28" height="15.73"/></g></g><g class="cls-128"><g class="cls-4"><rect class="cls-126" x="49.26" y="44.81" width="15.96" height="19.36"/></g></g><g class="cls-129"><g class="cls-4"><rect class="cls-98" x="44.37" y="60.41" width="17.25" height="20.51"/></g></g><g class="cls-130"><g class="cls-4"><rect class="cls-98" x="33.3" y="69.03" width="25.36" height="29.1"/></g></g><g class="cls-131"><g class="cls-4"><rect class="cls-98" x="22.03" y="72.79" width="42.08" height="33.42"/></g></g><g class="cls-132"><g class="cls-4"><rect class="cls-98" x="56.11" y="34.94" width="16.39" height="29.94"/></g></g><g class="cls-133"><g class="cls-4"><rect class="cls-98" x="89.52" y="34.11" width="25.21" height="44.54"/></g></g><g class="cls-134"><g class="cls-4"><rect class="cls-98" x="84.31" y="58.55" width="31.89" height="20.97"/></g></g><g class="cls-135"><g class="cls-4"><rect class="cls-98" x="98.91" y="63.4" width="19.84" height="25.82"/></g></g><g class="cls-136"><g class="cls-4"><rect class="cls-98" x="83.49" y="58.59" width="51.71" height="46.94"/></g></g><g class="cls-137"><g class="cls-4"><rect class="cls-98" x="101.16" y="76.39" width="39.43" height="28.68"/></g></g><g class="cls-138"><g class="cls-4"><rect class="cls-98" x="89.51" y="63.93" width="24.79" height="31.53"/></g></g><g class="cls-139"><g class="cls-4"><rect class="cls-98" x="63.43" y="29.86" width="23.8" height="23.37"/></g></g><g class="cls-140"><g class="cls-4"><rect class="cls-98" x="66.37" y="32.07" width="15.71" height="14.61"/></g></g><g class="cls-141"><g class="cls-4"><rect class="cls-98" x="66.82" y="33.94" width="15.04" height="13.69"/></g></g><g class="cls-142"><g class="cls-4"><rect class="cls-98" x="67.28" y="35.85" width="14.37" height="15.14"/></g></g><g class="cls-143"><g class="cls-4"><rect class="cls-98" x="68.33" y="38.12" width="14.82" height="17.57"/></g></g><g class="cls-144"><g class="cls-4"><rect class="cls-98" x="80.54" y="39.04" width="17.32" height="22.37"/></g></g><g class="cls-145"><g class="cls-4"><rect class="cls-98" x="83.65" y="48.96" width="21.29" height="18.88"/></g></g><g class="cls-146"><g class="cls-4"><rect class="cls-98" x="76.72" y="34.57" width="13.73" height="17.35"/></g></g><g class="cls-147"><g class="cls-4"><rect class="cls-98" x="72.36" y="53.73" width="22.05" height="40.92"/></g></g><g class="cls-148"><g class="cls-4"><rect class="cls-98" x="71.9" y="42.06" width="17.48" height="19"/></g></g><g class="cls-149"><g class="cls-4"><rect class="cls-98" x="72.66" y="50.66" width="20.81" height="36.56"/></g></g><g class="cls-150"><g class="cls-4"><rect class="cls-98" x="79.29" y="47.62" width="16.11" height="23.39"/></g></g><g class="cls-151"><g class="cls-4"><rect class="cls-98" x="46.12" y="72.91" width="37.23" height="42.22"/></g></g><g class="cls-152"><g class="cls-4"><rect class="cls-98" x="52.91" y="85.66" width="17.06" height="28.82"/></g></g><g class="cls-153"><g class="cls-4"><rect class="cls-98" x="70.58" y="83.75" width="21.47" height="14.51"/></g></g><g class="cls-154"><g class="cls-4"><rect class="cls-98" x="83.86" y="84.35" width="15.18" height="29.57"/></g></g><g class="cls-155"><g class="cls-4"><rect class="cls-98" x="43.21" y="86.56" width="12.19" height="19.56"/></g></g><g class="cls-156"><g class="cls-4"><rect class="cls-98" x="69.49" y="21.64" width="13.11" height="11.08"/></g></g><g class="cls-157"><g class="cls-4"><rect class="cls-98" x="69.03" y="22.31" width="10.99" height="10.75"/></g></g><g class="cls-158"><g class="cls-4"><rect class="cls-98" x="63.34" y="23.07" width="13.94" height="11.02"/></g></g><g class="cls-159"><g class="cls-4"><rect class="cls-98" x="76.02" y="31.76" width="13.33" height="14.91"/></g></g><g class="cls-160"><g class="cls-4"><rect class="cls-98" x="75.14" y="27.31" width="11.25" height="11.78"/></g></g><g class="cls-161"><g class="cls-4"><rect class="cls-98" x="46.33" y="15.17" width="18.07" height="19.32"/></g></g></svg>