<svg id="Layer_1" data-name="Layer 1" xmlns="http://www.w3.org/2000/svg" xmlns:xlink="http://www.w3.org/1999/xlink" viewBox="0 0 150 120"><defs><style>.cls-1,.cls-2{fill:none;}.cls-1{clip-rule:evenodd;}.cls-3{clip-path:url(#clip-path);}.cls-4{clip-path:url(#clip-path-2);}.cls-5{fill:#fee4d6;}.cls-6{clip-path:url(#clip-path-3);}.cls-7{clip-path:url(#clip-path-5);}.cls-8{fill:#ffdfac;}.cls-9{clip-path:url(#clip-path-7);}.cls-10{fill:#fff;}.cls-11{clip-path:url(#clip-path-9);}.cls-12{clip-path:url(#clip-path-11);}.cls-13{fill:#fc9001;}.cls-14{clip-path:url(#clip-path-13);}.cls-15{fill:#a09085;}.cls-16{clip-path:url(#clip-path-15);}.cls-17{fill:#714449;}.cls-18{clip-path:url(#clip-path-17);}.cls-19{clip-path:url(#clip-path-19);}.cls-20{clip-path:url(#clip-path-21);}.cls-21{clip-path:url(#clip-path-23);}.cls-22{clip-path:url(#clip-path-25);}.cls-23{clip-path:url(#clip-path-27);}.cls-24{clip-path:url(#clip-path-29);}.cls-25{clip-path:url(#clip-path-31);}.cls-26{clip-path:url(#clip-path-33);}.cls-27{clip-path:url(#clip-path-35);}.cls-28{isolation:isolate;}.cls-29{clip-path:url(#clip-path-37);}.cls-30{clip-path:url(#clip-path-38);}.cls-31{clip-path:url(#clip-path-39);}.cls-32{clip-path:url(#clip-path-40);}.cls-33{clip-path:url(#clip-path-42);}.cls-34{clip-path:url(#clip-path-44);}.cls-35{clip-path:url(#clip-path-46);}.cls-36{clip-path:url(#clip-path-48);}.cls-37{clip-path:url(#clip-path-50);}.cls-38{clip-path:url(#clip-path-52);}.cls-39{clip-path:url(#clip-path-54);}.cls-40{clip-path:url(#clip-path-56);}.cls-41{clip-path:url(#clip-path-58);}.cls-42{clip-path:url(#clip-path-60);}.cls-43{clip-path:url(#clip-path-61);}.cls-44{clip-path:url(#clip-path-63);}.cls-45{clip-path:url(#clip-path-65);}.cls-46{clip-path:url(#clip-path-66);}.cls-47{clip-path:url(#clip-path-67);}.cls-48{clip-path:url(#clip-path-68);}.cls-49{clip-path:url(#clip-path-70);}.cls-50{clip-path:url(#clip-path-72);}.cls-51{clip-path:url(#clip-path-74);}.cls-52{clip-path:url(#clip-path-76);}.cls-53{clip-path:url(#clip-path-78);}.cls-54{clip-path:url(#clip-path-80);}.cls-55{clip-path:url(#clip-path-81);}.cls-56{clip-path:url(#clip-path-82);}.cls-57{clip-path:url(#clip-path-83);}.cls-58{clip-path:url(#clip-path-85);}.cls-59{clip-path:url(#clip-path-87);}.cls-60{clip-path:url(#clip-path-89);}.cls-61{clip-path:url(#clip-path-91);}.cls-62{clip-path:url(#clip-path-93);}.cls-63{clip-path:url(#clip-path-95);}.cls-64{clip-path:url(#clip-path-97);}.cls-65{clip-path:url(#clip-path-99);}.cls-66{clip-path:url(#clip-path-101);}.cls-67{clip-path:url(#clip-path-103);}.cls-68{clip-path:url(#clip-path-105);}.cls-69{clip-path:url(#clip-path-106);}.cls-70{clip-path:url(#clip-path-107);}.cls-71{clip-path:url(#clip-path-108);}.cls-72{clip-path:url(#clip-path-109);}.cls-73{clip-path:url(#clip-path-110);}.cls-74{clip-path:url(#clip-path-111);}.cls-75{clip-path:url(#clip-path-112);}.cls-76{clip-path:url(#clip-path-113);}.cls-77{clip-path:url(#clip-path-114);}.cls-78{clip-path:url(#clip-path-115);}.cls-79{clip-path:url(#clip-path-116);}.cls-80{clip-path:url(#clip-path-117);}.cls-81{clip-path:url(#clip-path-118);}.cls-82{clip-path:url(#clip-path-119);}.cls-83{clip-path:url(#clip-path-120);}.cls-84{clip-path:url(#clip-path-121);}.cls-85{clip-path:url(#clip-path-122);}.cls-86{clip-path:url(#clip-path-123);}.cls-87{clip-path:url(#clip-path-124);}.cls-88{clip-path:url(#clip-path-125);}.cls-89{clip-path:url(#clip-path-126);}.cls-90{clip-path:url(#clip-path-127);}.cls-91{clip-path:url(#clip-path-128);}.cls-92{clip-path:url(#clip-path-129);}.cls-93{clip-path:url(#clip-path-130);}.cls-94{clip-path:url(#clip-path-131);}.cls-95{clip-path:url(#clip-path-132);}.cls-96{clip-path:url(#clip-path-133);}.cls-97{clip-path:url(#clip-path-134);}.cls-98{clip-path:url(#clip-path-135);}.cls-99{clip-path:url(#clip-path-136);}.cls-100{clip-path:url(#clip-path-137);}.cls-101{clip-path:url(#clip-path-138);}.cls-102{clip-path:url(#clip-path-139);}.cls-103{clip-path:url(#clip-path-140);}.cls-104{clip-path:url(#clip-path-141);}.cls-105{clip-path:url(#clip-path-142);}.cls-106{clip-path:url(#clip-path-143);}.cls-107{clip-path:url(#clip-path-144);}.cls-108{clip-path:url(#clip-path-145);}.cls-109{clip-path:url(#clip-path-146);}.cls-110{clip-path:url(#clip-path-147);}.cls-111{clip-path:url(#clip-path-148);}.cls-112{clip-path:url(#clip-path-149);}.cls-113{clip-path:url(#clip-path-150);}</style><clipPath id="clip-path"><path class="cls-1" d="M75.34,43.29c0-1.52,1.88-1,2.19-3.86a9.77,9.77,0,0,0-.23-3.15c-.19-2.19-.62-5,3-7,3.46-1.92,15.57,8.65,18.3,13.93,2.05,4,9.73,14.71,6.56,18.79-2.18,2.8-8.9,10.78-15.92,9.86C82.67,71,84.78,63,85.4,62.63c5.21-3.12,1.61-6.55,1.28-6.94-1-1.17-4.8-.85-6.18-.76a2.46,2.46,0,0,1-2.74-2.7,18.2,18.2,0,0,0-1.44-7c-.59-1-1-1.28-1-1.89"/></clipPath><clipPath id="clip-path-2"><rect class="cls-2" x="-570.33" y="-1331.27" width="1600" height="7432"/></clipPath><clipPath id="clip-path-3"><path class="cls-1" d="M61.94,85.86c-.26-.13-4.94-1.2-6.49-1.67a50.22,50.22,0,0,1-11.25-5,38.49,38.49,0,0,1-4-2.79c-1.09-.85-2.85-1.58-3.17-3a11.44,11.44,0,0,1,.23-3.73c.24-1.83,1.18-3.55,1.17-6,0-.72-.32-1.43-.28-2.13a12.77,12.77,0,0,0,.17-3c-.35-2.18-1.58-3.87-2.19-5.92-.17-.59-.57-1.87-1.36-1.23s-.32,1.82-.13,2.62c.34,1.38,1.21,2.58,1.23,4,0,1-1.17.42-1.78,1-.28.27-.31.88-.39,1.21-.13.58-.63.9-.91,1.44s.31,1.81.33,2.47c0,.11.12.72-.09.74-.58.06-1.15-1.8-1.23-2.13a11.71,11.71,0,0,0-1.38-4.14c-.17-.25-.64-.86-1-.77-1.47.32-1.28,2.15-.88,3.18.51,1.33,1.28,2.81,1.24,4.2-.07,2.27-.72,3.73.25,7.5.44,1.69,1,4.09,2.56,5.42.87.74,2.92,2.26,6.13,4.79S52.54,94,58,97.32c4.88,2.94,7,2.84,7.71,2.69,1-.23.84-3.48.77-5.44-.13-3.92-3.73-8.26-4.58-8.71"/></clipPath><clipPath id="clip-path-5"><path class="cls-1" d="M76.92,33.52a12.87,12.87,0,0,1-.84-2.88,5.34,5.34,0,0,1,2.78-5.17c1.75-1.13,3.89-1.56,5.79-2.37,4.61-2,8.24-3.29,14.46-1.29,4.62,1.48,6.48,4.88,8,8.3,1.55,3.6,2.34,8,3.33,11.59s3.5,11.89.63,16.43c-1.86,2.92-6.76,4.8-10.61,5.93-1,.29-1.6.67-2.42.84-1.71.37-4.33,1-5.81-.47-2.76-2.69.77-9.07,1.62-12.68A8.68,8.68,0,0,0,94,47.62c-.21-.68,1-1.57,1.72-2.9A3.73,3.73,0,0,0,96,41.84a2.8,2.8,0,0,0-1.57-1.7,2.84,2.84,0,0,0-2.91,1c-.91.91-3.86-.72-4.67-1.27C84.23,38.12,82,31,79.94,32c-.81.4-2.28-2-3,1.51"/></clipPath><clipPath id="clip-path-7"><path class="cls-1" d="M63.48,87.38a18.53,18.53,0,0,1,2.9,7,14.4,14.4,0,0,1-.53,6.2c-.12.42.47.92,1,.77,2.23-.61,5.4-3.45,6.65-4.59.68-.61,2.3-2.16,2.37-2.12s2.83,10,2.6,15.07c-.06,1.35-.12,2.14-.16,2.59h47.78c0-.77-.13-2.88-.33-5.14-.3-3.2-.77-6.79-.7-9,.12-3.63.1-9.15-.22-14-.41-6.13-1.66-11.4-5-15.09-2.83-3.16-5.71-4.5-9.72-6.18a28.52,28.52,0,0,1-4.4-2.33c-.57-.39-1.24,1.45-2.08,2.51-1.78,2.25-5.77,7-12.39,8.55A5.61,5.61,0,0,1,86,69.14a8.53,8.53,0,0,1-.9-4.9c.24-1.27.5-1.64-.34-1.38a34.77,34.77,0,0,0-5.79,2.67A18.81,18.81,0,0,0,72.73,72c-2,2.87-4.94,7.56-6,9-1,1.29-4.51,3.91-4.85,4.59s.9.71,1.61,1.82"/></clipPath><clipPath id="clip-path-9"><path class="cls-1" d="M24.2,56.85l-.27-19.94,2.57-.79,10.13.61.46,17.87a21,21,0,0,0-1.39-2.82c-.36-.39-1-1-1-.18s-.5,1.25-.14,2.27,1.12,2.27.77,2.48-2.34.72-3,1a15.33,15.33,0,0,1-4,.16c-.86-.09-1.2.05-2-.07a14.72,14.72,0,0,1-2.09-.56"/></clipPath><clipPath id="clip-path-11"><polygon class="cls-1" points="28.41 49.91 28.47 38.64 35.52 38.96 35.75 48.78 28.41 49.91"/></clipPath><clipPath id="clip-path-13"><polygon class="cls-1" points="28.55 54.93 28.47 53.71 34.25 52.6 34.5 53.59 28.55 54.93"/></clipPath><clipPath id="clip-path-15"><path class="cls-1" d="M77.2,36.53a.28.28,0,0,1-.27-.23,10.26,10.26,0,0,1,.54-5.15.27.27,0,0,1,.37-.14.28.28,0,0,1,.14.37,9.67,9.67,0,0,0-.51,4.82.27.27,0,0,1-.22.32h0"/></clipPath><clipPath id="clip-path-17"><path class="cls-1" d="M76.05,44.67a.29.29,0,0,1-.18-.07A1.89,1.89,0,0,1,75,43.27c0-.57.44-1,.92-1.41a6,6,0,0,0,.68-.66,2.38,2.38,0,0,0,.12-2.12.29.29,0,0,1,.18-.36.29.29,0,0,1,.35.18,2.87,2.87,0,0,1-.22,2.66,9.81,9.81,0,0,1-.73.72c-.41.36-.75.67-.75,1s.22.55.65.92a.28.28,0,0,1,0,.39.32.32,0,0,1-.21.1"/></clipPath><clipPath id="clip-path-19"><path class="cls-1" d="M91.46,48.11a.28.28,0,0,1,0-.56,4.85,4.85,0,0,0,3.46-2.07A4.24,4.24,0,0,0,95.69,42a2,2,0,0,0-1.49-1.65,2.91,2.91,0,0,0-2.73,1,.28.28,0,0,1-.4,0,.28.28,0,0,1,0-.39,3.47,3.47,0,0,1,3.29-1.23,2.6,2.6,0,0,1,1.9,2.06,4.75,4.75,0,0,1-.88,3.92,5.45,5.45,0,0,1-3.87,2.31h0"/></clipPath><clipPath id="clip-path-21"><path class="cls-1" d="M92.07,44.7l-.1,0a.29.29,0,0,1-.16-.36A3.18,3.18,0,0,1,94,42.49a.27.27,0,0,1,.3.26.27.27,0,0,1-.26.29,2.69,2.69,0,0,0-1.75,1.49.27.27,0,0,1-.26.17"/></clipPath><clipPath id="clip-path-23"><path class="cls-1" d="M80.69,40.68c-.11-.53-.46-.91-.79-.85s-.51.55-.4,1.09.46.91.78.84.51-.55.41-1.08"/></clipPath><clipPath id="clip-path-25"><path class="cls-1" d="M77.57,48.28a2.29,2.29,0,0,1-.54-.06.29.29,0,0,1-.21-.34.28.28,0,0,1,.34-.2,2.52,2.52,0,0,0,1.78-.34.28.28,0,0,1,.35.44,3,3,0,0,1-1.72.5"/></clipPath><clipPath id="clip-path-27"><path class="cls-1" d="M32.42,78.34a.27.27,0,0,1-.22-.11c-2.11-2.81-2.75-5.67-3.06-9.11A10.12,10.12,0,0,1,29.25,67a7.39,7.39,0,0,0,.06-2.43,13.49,13.49,0,0,0-.5-1.55c-.64-1.71-1.43-3.84-.13-5.13a.85.85,0,0,1,.73-.25,2.2,2.2,0,0,1,1.33,1,12.57,12.57,0,0,1,1.16,3.31c.15.58.28,1.13.45,1.63a3.27,3.27,0,0,0,.79,1.23,2.07,2.07,0,0,0,.46-1,3.59,3.59,0,0,1,.24-.68c.1-.21.22-.43.33-.66C35,60.78,36.1,58.72,35.45,57c-.1-.27-.23-.57-.36-.89-.62-1.44-1.39-3.22-.71-4.59a.8.8,0,0,1,.68-.48,1,1,0,0,1,.82.55,16.3,16.3,0,0,1,.78,1.78l.39,1,.36.77a11.93,11.93,0,0,1,1.17,3.4,14.08,14.08,0,0,1-.15,3.17,19,19,0,0,0-.18,2.24.29.29,0,0,1-.28.28.28.28,0,0,1-.28-.28,20,20,0,0,1,.19-2.31,13.61,13.61,0,0,0,.14-3,11.4,11.4,0,0,0-1.12-3.23c-.12-.27-.25-.53-.36-.78s-.27-.65-.4-1a15.28,15.28,0,0,0-.75-1.71.47.47,0,0,0-.32-.26c-.09,0-.15.09-.19.17-.57,1.13.14,2.79.72,4.12.14.32.27.63.38.91.73,1.95-.4,4.13-1.31,5.88-.12.22-.23.44-.33.64a2.89,2.89,0,0,0-.2.59,2.41,2.41,0,0,1-.68,1.31.49.49,0,0,1-.47.07c-.63-.19-1.16-1.57-1.17-1.58-.17-.52-.31-1.08-.46-1.67a12,12,0,0,0-1.1-3.16,1.67,1.67,0,0,0-.92-.71.33.33,0,0,0-.27.09c-1,1-.32,3,.26,4.55a12,12,0,0,1,.52,1.63,7.88,7.88,0,0,1,0,2.61,9.23,9.23,0,0,0-.12,2c.31,3.34.92,6.12,2.95,8.83a.28.28,0,0,1,0,.39.34.34,0,0,1-.17,0"/></clipPath><clipPath id="clip-path-29"><path class="cls-1" d="M37.51,74.75a.27.27,0,0,1-.2-.08c-1.05-1-.72-4.43.19-7A9.31,9.31,0,0,0,38,63.35C38,63,38,62.6,38,62.21a.28.28,0,0,1,.56,0c0,.37,0,.73.05,1.11A9.7,9.7,0,0,1,38,67.89c-.94,2.63-1.09,5.61-.31,6.39a.29.29,0,0,1,0,.39.27.27,0,0,1-.2.08"/></clipPath><clipPath id="clip-path-31"><path class="cls-1" d="M76.17,96.76c1.24,5.17,2.53,10.52,1.8,15.51h.56c.72-5.08-.57-10.45-1.82-15.64l-.57-2.39c-.81-3.52,0-7.73.68-11.12.6-3.07,1.08-5.5.34-6.79a.28.28,0,1,0-.48.28c.63,1.11.15,3.56-.41,6.41-.67,3.43-1.51,7.71-.67,11.34l.57,2.4"/></clipPath><clipPath id="clip-path-33"><path class="cls-1" d="M46.36,111.06a.28.28,0,0,1-.28-.27L46,89.26a.28.28,0,0,1,.28-.28h0a.27.27,0,0,1,.28.27l.1,21.53a.27.27,0,0,1-.28.28Z"/></clipPath><clipPath id="clip-path-35"><rect class="cls-2" x="45.5" y="7.73" width="1" height="72.74"/></clipPath><clipPath id="clip-path-37"><rect class="cls-2" x="44.67" y="6.73" width="2" height="74"/></clipPath><clipPath id="clip-path-38"><path class="cls-1" d="M46.21,80.47a.28.28,0,0,1-.28-.28L45.52,8a.27.27,0,0,1,.27-.28h0a.27.27,0,0,1,.28.28l.42,72.18a.28.28,0,0,1-.28.28Z"/></clipPath><clipPath id="clip-path-39"><rect class="cls-2" x="44.67" y="7.73" width="2" height="73"/></clipPath><clipPath id="clip-path-40"><path class="cls-1" d="M61.89,86.16h-.07c-.56-.15-1.17-.29-1.81-.43-4.9-1.13-12.3-2.83-22.67-11a.28.28,0,1,1,.34-.44C48,82.38,55.28,84.06,60.13,85.17c.65.15,1.26.29,1.83.44a.27.27,0,0,1,.2.34.28.28,0,0,1-.27.21"/></clipPath><clipPath id="clip-path-42"><path class="cls-1" d="M65,100.35c-5.24,0-17.77-10.16-26.25-17-3-2.44-5.39-4.37-6.34-4.92a.28.28,0,0,1,.28-.48c1,.57,3.38,2.51,6.41,5,8.45,6.85,22.6,18.32,26.72,16.78a.28.28,0,0,1,.36.16.27.27,0,0,1-.16.36,3,3,0,0,1-1,.17"/></clipPath><clipPath id="clip-path-44"><path class="cls-1" d="M88.75,40.7a3.58,3.58,0,0,1-.87-.11c-2.16-.52-3.5-3-4.69-5.1-1.1-2-2-3.72-3.29-3.3a.29.29,0,0,1-.35-.18.28.28,0,0,1,.17-.35c1.68-.56,2.79,1.44,4,3.57s2.41,4.35,4.33,4.82a4.53,4.53,0,0,0,3.59-.95.28.28,0,0,1,.31.46,5.77,5.77,0,0,1-3.16,1.14"/></clipPath><clipPath id="clip-path-46"><path class="cls-1" d="M78.42,32.06a.27.27,0,0,1-.27-.21,2.49,2.49,0,0,1,.33-2,3.12,3.12,0,0,1,2-1.33,11.28,11.28,0,0,1,3,0c1.77.15,3.29.28,4.81-1.49a.28.28,0,0,1,.4,0,.28.28,0,0,1,0,.39c-1.71,2-3.45,1.84-5.29,1.69a10.63,10.63,0,0,0-2.87,0A2.53,2.53,0,0,0,79,30.18a1.93,1.93,0,0,0-.26,1.54.29.29,0,0,1-.2.34h-.07"/></clipPath><clipPath id="clip-path-48"><path class="cls-1" d="M77,33.64a.3.3,0,0,1-.2-.08,4.14,4.14,0,0,1-.91-2.67c-.25-4.51,2.72-6,6.64-7.38l.36-.14c1.41-.49,3.53-1.24,3.53-2.86a.28.28,0,0,1,.28-.27.27.27,0,0,1,.28.27c0,2-2.35,2.84-3.9,3.39l-.36.13c-3.82,1.39-6.5,2.69-6.27,6.83a3.45,3.45,0,0,0,.74,2.3.28.28,0,0,1,0,.4.27.27,0,0,1-.19.08"/></clipPath><clipPath id="clip-path-50"><path class="cls-1" d="M107.08,30.64a.28.28,0,0,1-.26-.18c-2.31-6.24-6.65-9.28-13.27-9.28A15.35,15.35,0,0,0,87,22.47a.27.27,0,0,1-.37-.12A.29.29,0,0,1,86.7,22a16,16,0,0,1,6.85-1.35c6.88,0,11.39,3.16,13.79,9.65a.29.29,0,0,1-.16.36h-.1"/></clipPath><clipPath id="clip-path-52"><path class="cls-1" d="M81.42,37.06a.27.27,0,0,1-.12,0L81.17,37a2.55,2.55,0,0,0-2.27-.35.28.28,0,0,1-.35-.19.28.28,0,0,1,.18-.35,3.11,3.11,0,0,1,2.69.39l.12.06a.27.27,0,0,1,.13.37.27.27,0,0,1-.25.16"/></clipPath><clipPath id="clip-path-54"><path class="cls-1" d="M90.41,71.85A5.3,5.3,0,0,1,86.33,70a7.49,7.49,0,0,1-1.24-7.21.28.28,0,1,1,.53.17,7,7,0,0,0,1.13,6.67,5,5,0,0,0,4.91,1.49c4.84-1,11-5.93,13.47-10.84a.27.27,0,0,1,.37-.13.29.29,0,0,1,.13.38c-2.52,5-8.87,10.14-13.86,11.14a7.22,7.22,0,0,1-1.36.14"/></clipPath><clipPath id="clip-path-56"><path class="cls-1" d="M66.47,101.56a.92.92,0,0,1-.38-.07c-.3-.13-.6-.49-.35-1.42a14,14,0,0,0-1.46-11,8.52,8.52,0,0,0-2.58-3,.35.35,0,0,1-.32-.27c-.1-.36.31-.72,1.74-1.94A23.68,23.68,0,0,0,67,80.14c1-1.42,1.9-2.86,2.79-4.26,3.43-5.44,6.68-10.59,14-13l.36-.11c1.36-.44,2.66-.86,3.4-2.55s.32-2.76-.84-4.15c-1-1.2-3.08-1.06-4.91-.93a5.26,5.26,0,0,1-2.93-.24,3.15,3.15,0,0,1-1.26-2.69.28.28,0,1,1,.55,0,2.62,2.62,0,0,0,1,2.19,5.3,5.3,0,0,0,2.57.14c1.87-.13,4.19-.29,5.38,1.13s1.8,2.75.92,4.74-2.39,2.41-3.74,2.85l-.36.11c-7.14,2.35-10.33,7.41-13.71,12.77-.89,1.4-1.81,2.85-2.81,4.28a24.09,24.09,0,0,1-3.93,3.89A17.79,17.79,0,0,0,62,85.67,9,9,0,0,1,64.5,88.4a14.61,14.61,0,0,1,1.78,11.81c-.06.2-.16.68,0,.77,1.21.54,8-4.83,9.18-6.63a.27.27,0,0,1,.38-.08.28.28,0,0,1,.09.38c-.9,1.39-7.26,6.91-9.5,6.91"/></clipPath><clipPath id="clip-path-58"><rect class="cls-2" x="105.3" y="60.19" width="21.03" height="52.08"/></clipPath><clipPath id="clip-path-60"><rect class="cls-2" x="104.67" y="59.73" width="22" height="53"/></clipPath><clipPath id="clip-path-61"><path class="cls-1" d="M105.43,60.7a42.18,42.18,0,0,0,6.74,3.36,22.46,22.46,0,0,1,3.32,1.58c9.11,6.27,9.14,14.46,9.19,25.79,0,2.57,0,5.21.14,8,.07,1.83.29,3.81.49,5.72a48,48,0,0,1,.45,6.8.27.27,0,0,0,.19.28h.16a.27.27,0,0,0,.2-.25,48.79,48.79,0,0,0-.44-6.89c-.21-1.9-.42-3.87-.5-5.68-.11-2.82-.12-5.46-.13-8,0-11.07-.08-19.81-9.44-26.25a21.3,21.3,0,0,0-3.42-1.64,41.32,41.32,0,0,1-6.65-3.3.27.27,0,1,0-.3.46"/></clipPath><clipPath id="clip-path-63"><rect class="cls-2" x="109.28" y="78.74" width="2.95" height="33.53"/></clipPath><clipPath id="clip-path-65"><rect class="cls-2" x="108.67" y="77.73" width="4" height="35"/></clipPath><clipPath id="clip-path-66"><path class="cls-1" d="M110,112.27a9.33,9.33,0,0,1,0-3.63c.07-.7.16-1.5.21-2.38.16-2.53.1-5.55,0-8.74-.13-6.9-.27-14.72,1.94-18.36a.27.27,0,0,0-.1-.38.28.28,0,0,0-.38.09c-2.29,3.78-2.15,11.34-2,18.66.06,3.18.11,6.19,0,8.7-.06.86-.14,1.65-.21,2.35a10.8,10.8,0,0,0,0,3.69Z"/></clipPath><clipPath id="clip-path-67"><rect class="cls-2" x="108.67" y="78.73" width="4" height="34"/></clipPath><clipPath id="clip-path-68"><path class="cls-1" d="M92.7,65.1a.25.25,0,0,1-.16-.06c-2.75-2.06-1.53-5.6-.25-9.35.94-2.72,1.9-5.54,1.42-8a.27.27,0,0,1,.22-.32.27.27,0,0,1,.33.21c.51,2.57-.48,5.46-1.44,8.25-1.22,3.56-2.37,6.91.05,8.73a.28.28,0,0,1,.06.39.3.3,0,0,1-.23.11"/></clipPath><clipPath id="clip-path-70"><path class="cls-1" d="M98.21,65.36a4.2,4.2,0,0,1-2.4-.73,5.13,5.13,0,0,1-2-3.45.28.28,0,0,1,.55-.09,4.56,4.56,0,0,0,1.78,3.08,3.89,3.89,0,0,0,3,.54.27.27,0,0,1,.32.21.27.27,0,0,1-.21.33,5.41,5.41,0,0,1-1,.11"/></clipPath><clipPath id="clip-path-72"><path class="cls-1" d="M107.44,61.23a.28.28,0,0,1-.26-.18.29.29,0,0,1,.17-.36c7.13-2.59,4.32-13,2.06-21.45a56.26,56.26,0,0,1-1.67-7.33.28.28,0,1,1,.55-.06,57.8,57.8,0,0,0,1.65,7.25c2.32,8.62,5.21,19.35-2.4,22.12h-.1"/></clipPath><clipPath id="clip-path-74"><path class="cls-1" d="M100,64.35a.27.27,0,0,1-.26-.2.27.27,0,0,1,.18-.35,7.71,7.71,0,0,0,5.62-7,.28.28,0,0,1,.29-.26.27.27,0,0,1,.26.3,8.24,8.24,0,0,1-6,7.45l-.08,0"/></clipPath><clipPath id="clip-path-76"><path class="cls-1" d="M29.14,57.9a6.52,6.52,0,0,1-2.36-.32.34.34,0,0,1-.15-.2c-.15-1-.48-20.05-.19-21.15.07-.28.1-.37,4.38-.15,2.15.12,4.52.28,5.48.36.5.05.65.06.67.31.09,1.21.14,6.22.18,10.64,0,3.19.06,6.2.11,7.2a.29.29,0,0,1-.27.29.27.27,0,0,1-.29-.27c0-1-.07-4-.1-7.22,0-4.17-.09-8.87-.17-10.38-1.31-.13-8.32-.57-9.48-.48-.2,2,.07,18.61.22,20.6.62.15,3.58.72,8.08-1.07a.28.28,0,0,1,.2.52,17.31,17.31,0,0,1-6.31,1.32"/></clipPath><clipPath id="clip-path-78"><rect class="cls-2" x="23.67" y="35.96" width="3.52" height="21.82"/></clipPath><clipPath id="clip-path-80"><rect class="cls-2" x="22.67" y="35.73" width="5" height="23"/></clipPath><clipPath id="clip-path-81"><path class="cls-1" d="M26.91,57.79h0c-3-.31-3-.69-3-.9-.21-3.16-.23-16.78-.18-19.71,0-.86,2.1-1.14,3-1.21a.28.28,0,1,1,0,.55,4.6,4.6,0,0,0-2.48.67c-.05,2.89,0,16.28.17,19.58a11.52,11.52,0,0,0,2.52.46.28.28,0,0,1,.24.31A.27.27,0,0,1,26.91,57.79Z"/></clipPath><clipPath id="clip-path-82"><rect class="cls-2" x="23.67" y="35.73" width="4" height="23"/></clipPath><clipPath id="clip-path-83"><path class="cls-1" d="M28.44,50.34a.3.3,0,0,1-.18-.06.3.3,0,0,1-.1-.22l0-11.39a.29.29,0,0,1,.09-.21.25.25,0,0,1,.2-.07l7,.32a.29.29,0,0,1,.27.28l.15,9.72a.29.29,0,0,1-.23.28l-7.18,1.35ZM28.7,39l0,10.77,6.62-1.25-.15-9.22Z"/></clipPath><clipPath id="clip-path-85"><path class="cls-1" d="M28.49,55.19a.27.27,0,0,1-.28-.27l0-1.11a.28.28,0,0,1,.22-.28l5.68-1.14a.27.27,0,0,1,.32.22.28.28,0,0,1-.21.33L28.74,54l0,.53L34.2,53.3a.29.29,0,0,1,.34.21.28.28,0,0,1-.21.33l-5.78,1.34h-.06"/></clipPath><clipPath id="clip-path-87"><path class="cls-1" d="M30.67,46.69a.28.28,0,0,1-.28-.27l-.09-3.3a.27.27,0,0,1,.27-.28.27.27,0,0,1,.28.27L31,46.4a.29.29,0,0,1-.27.29Z"/></clipPath><clipPath id="clip-path-89"><path class="cls-1" d="M32.52,45a.52.52,0,0,1-.37-.12.43.43,0,0,1-.16-.33v-.22a6.61,6.61,0,0,1,0-.86.52.52,0,0,1,.19-.39,1,1,0,0,1,.78-.09l.25,0a.27.27,0,0,1,.26.3.28.28,0,0,1-.3.25,2.4,2.4,0,0,1-.28,0,2.24,2.24,0,0,0-.35,0c0,.19,0,.53,0,.78v.14h.15l.23,0a.29.29,0,0,1,.27.29.27.27,0,0,1-.28.27h-.16l-.23,0"/></clipPath><clipPath id="clip-path-91"><path class="cls-1" d="M32.55,46.63a2,2,0,0,1-.45-.05.28.28,0,0,1-.2-.34.28.28,0,0,1,.33-.2,1.28,1.28,0,0,0,.69,0c0-.39,0-2.37,0-2.71a.28.28,0,0,1,.25-.3.27.27,0,0,1,.3.25c0,.21.09,2.69,0,3s-.51.4-.9.4"/></clipPath><clipPath id="clip-path-93"><path class="cls-1" d="M83,40.7a.29.29,0,0,1-.26-.16.28.28,0,0,1,.14-.37,6.06,6.06,0,0,1,.78-.27l.38-.12a.29.29,0,0,1,.35.18.27.27,0,0,1-.18.35l-.39.13a5,5,0,0,0-.71.24.23.23,0,0,1-.11,0"/></clipPath><clipPath id="clip-path-95"><path class="cls-1" d="M83.85,41.83h-.59a.28.28,0,1,1,0-.55h.56l.24-.05h.16a.28.28,0,0,1,.28.28.27.27,0,0,1-.28.28h-.08l-.24,0h-.05"/></clipPath><clipPath id="clip-path-97"><path class="cls-1" d="M77.29,41.51a.29.29,0,0,1-.22-.11l-.14-.17,0,0,0-.06-.13-.08-.21,0,0,0a.28.28,0,0,1-.25.24.27.27,0,0,1-.3-.25l0-.12a.29.29,0,0,1,.14-.26l.23-.15.12,0,.36,0a.37.37,0,0,1,.18,0l.26.16.09.09.06.11.13.15a.28.28,0,0,1-.05.39.23.23,0,0,1-.17.07"/></clipPath><clipPath id="clip-path-99"><path class="cls-1" d="M79.51,45.37a1,1,0,0,1-.54-.16c-.9-.56-1.33-2.54-1.48-3.36a10,10,0,0,1-.09-1.33c0-.28,0-.56,0-.83a.27.27,0,0,1,.25-.3.28.28,0,0,1,.31.25c0,.29,0,.59,0,.87A7.18,7.18,0,0,0,78,41.75c.2,1.15.64,2.63,1.22,3a.47.47,0,0,0,.38,0c.64-.19.85-1.15,1-2.09s.43-2,1.26-2.28a15.17,15.17,0,0,1,5.15,0,22.6,22.6,0,0,0,3.74.16.28.28,0,1,1,0,.55,22.35,22.35,0,0,1-3.84-.16,15.06,15.06,0,0,0-5,0c-.5.15-.68,1-.87,1.86-.22,1-.47,2.23-1.44,2.52a.9.9,0,0,1-.28,0"/></clipPath><clipPath id="clip-path-101"><path class="cls-1" d="M33.56,64.07h0a.29.29,0,0,1-.24-.32,25.19,25.19,0,0,0,.3-3.45c.05-1.76.21-1.9,2.13-1.9a.28.28,0,0,1,0,.56c-.77,0-1.24,0-1.4.15s-.16.54-.17,1.2a28.44,28.44,0,0,1-.31,3.52.28.28,0,0,1-.27.24"/></clipPath><clipPath id="clip-path-103"><path class="cls-1" d="M33.27,65A.27.27,0,0,1,33,64.8a7.91,7.91,0,0,1-.5-3.11,5,5,0,0,1,.55-.94c.13-.2.26-.38.35-.55a.27.27,0,0,1,.37-.12.28.28,0,0,1,.12.38c-.11.2-.25.4-.38.6a4.6,4.6,0,0,0-.49.83,8.74,8.74,0,0,0,.49,2.69.27.27,0,0,1-.14.36.27.27,0,0,1-.12,0"/></clipPath><clipPath id="clip-path-105"><path class="cls-1" d="M59.71,429.56c0-1.52,1.88-1,2.19-3.86a9.77,9.77,0,0,0-.23-3.15c-.19-2.19-.62-5,3-7S80.23,424.2,83,429.49c2,4,9.73,14.71,6.56,18.79-2.18,2.8-8.9,10.78-15.92,9.86-6.57-.86-4.46-8.87-3.84-9.24,5.21-3.12,1.61-6.55,1.28-6.95-1-1.16-4.8-.84-6.18-.75a2.46,2.46,0,0,1-2.74-2.7,18.2,18.2,0,0,0-1.44-7.05c-.59-1-1-1.28-1-1.89"/></clipPath><clipPath id="clip-path-106"><path class="cls-1" d="M89.53,472.13c-.26-.13-5-1.2-6.49-1.67a50.67,50.67,0,0,1-11.25-5,41.43,41.43,0,0,1-4-2.79c-1.08-.85-2.85-1.58-3.17-3a11.39,11.39,0,0,1,.23-3.72c.24-1.83,1.19-3.55,1.17-6,0-.72-.31-1.43-.27-2.14a13.8,13.8,0,0,0,.17-3c-.35-2.18-1.58-3.87-2.19-5.92-.18-.59-.58-1.87-1.37-1.23s-.32,1.82-.12,2.61c.34,1.39,1.2,2.59,1.23,4,0,1.05-1.17.42-1.79,1-.28.27-.31.88-.38,1.21-.14.58-.64.9-.91,1.44s.3,1.81.33,2.47c0,.1.11.72-.09.74-.58.06-1.16-1.8-1.24-2.13A11.54,11.54,0,0,0,58,444.89c-.17-.24-.65-.85-1-.76-1.46.32-1.27,2.15-.88,3.18.51,1.33,1.28,2.81,1.24,4.2-.07,2.27-.72,3.73.26,7.5.43,1.69,1,4.09,2.56,5.42.87.74,2.91,2.26,6.13,4.79s13.82,11.07,19.32,14.37c4.89,2.94,7,2.84,7.72,2.69,1-.24.84-3.48.77-5.44-.14-3.92-3.74-8.26-4.58-8.71"/></clipPath><clipPath id="clip-path-107"><path class="cls-1" d="M57.71,419.78a13.11,13.11,0,0,1-.84-2.87,5.36,5.36,0,0,1,2.78-5.17c1.75-1.14,3.9-1.56,5.79-2.37,4.62-2,8.24-3.3,14.47-1.29,4.62,1.48,6.47,4.88,7.94,8.29,1.56,3.61,2.34,8.05,3.33,11.6s3.51,11.89.63,16.43c-1.85,2.92-6.76,4.8-10.6,5.93-1,.29-1.61.67-2.42.84-1.72.37-4.34,1-5.81-.47-2.77-2.69.77-9.07,1.62-12.68a8.79,8.79,0,0,0,.18-4.13c-.2-.68,1-1.57,1.73-2.9a3.73,3.73,0,0,0,.23-2.88,2.82,2.82,0,0,0-1.57-1.71,2.86,2.86,0,0,0-2.91,1c-.9.91-3.85-.72-4.66-1.27-2.57-1.75-4.83-8.84-6.86-7.85-.81.4-2.29-2-3,1.5"/></clipPath><clipPath id="clip-path-108"><path class="cls-1" d="M44.51,473.65a18.48,18.48,0,0,1,2.89,7,14.3,14.3,0,0,1-.52,6.2c-.12.42.47.92,1,.77,2.23-.61,5.4-3.45,6.65-4.59.68-.61,2.29-2.17,2.37-2.12s2.82,10,2.59,15.07c-.06,1.35-.11,2.14-.15,2.59h47.78c0-.77-.13-2.88-.34-5.14-.29-3.2-.77-6.79-.69-9,.12-3.63.1-9.15-.22-14-.41-6.13-1.66-11.4-5-15.09-2.82-3.16-5.71-4.5-9.71-6.18a28.64,28.64,0,0,1-4.41-2.33c-.57-.39-1.23,1.45-2.07,2.51-1.78,2.25-5.77,7-12.39,8.55A5.61,5.61,0,0,1,67,455.41a8.46,8.46,0,0,1-.9-4.9c.24-1.27.49-1.64-.34-1.38A35.3,35.3,0,0,0,60,451.8a18.86,18.86,0,0,0-6.19,6.43c-1.95,2.87-4.94,7.56-6,9-1,1.29-4.5,3.91-4.84,4.59s.9.71,1.61,1.82"/></clipPath><clipPath id="clip-path-109"><path class="cls-1" d="M68.69,443.11l-.27-19.93,2.57-.79,10.13.61.46,17.86a19.82,19.82,0,0,0-1.39-2.81c-.36-.39-1-1-1-.19s-.5,1.25-.14,2.28,1.12,2.27.78,2.47-2.34.73-3,1a15.31,15.31,0,0,1-4,.16c-.86-.09-1.2.05-2-.07a14.24,14.24,0,0,1-2.09-.57"/></clipPath><clipPath id="clip-path-110"><polygon class="cls-1" points="71.33 436.18 71.4 424.91 78.44 425.23 78.67 435.05 71.33 436.18"/></clipPath><clipPath id="clip-path-111"><polygon class="cls-1" points="72.07 441.2 71.99 439.98 77.76 438.87 78.01 439.86 72.07 441.2"/></clipPath><clipPath id="clip-path-112"><path class="cls-1" d="M74.79,422.8a.29.29,0,0,1-.27-.23,10.37,10.37,0,0,1,.55-5.15.28.28,0,1,1,.5.23,9.65,9.65,0,0,0-.5,4.81.28.28,0,0,1-.22.33h-.06"/></clipPath><clipPath id="clip-path-113"><path class="cls-1" d="M74.78,430.94a.34.34,0,0,1-.18-.07,2,2,0,0,1-.84-1.33c0-.57.45-1,.93-1.41a7,7,0,0,0,.68-.66,2.38,2.38,0,0,0,.12-2.12.28.28,0,0,1,.18-.36.28.28,0,0,1,.35.18,2.84,2.84,0,0,1-.23,2.66,7.05,7.05,0,0,1-.73.72c-.4.36-.74.67-.74,1s.22.55.65.92a.28.28,0,0,1,0,.39.32.32,0,0,1-.22.1"/></clipPath><clipPath id="clip-path-114"><path class="cls-1" d="M72.8,434.38a.28.28,0,0,1-.28-.26.28.28,0,0,1,.26-.3,4.9,4.9,0,0,0,3.46-2.07,4.25,4.25,0,0,0,.79-3.47,2.05,2.05,0,0,0-1.49-1.65,2.92,2.92,0,0,0-2.74,1.05.28.28,0,0,1-.42-.36,3.46,3.46,0,0,1,3.29-1.23,2.6,2.6,0,0,1,1.9,2.06,4.75,4.75,0,0,1-.88,3.92,5.45,5.45,0,0,1-3.87,2.31h0"/></clipPath><clipPath id="clip-path-115"><path class="cls-1" d="M74,431l-.11,0a.28.28,0,0,1-.15-.36A3.17,3.17,0,0,1,76,428.76a.28.28,0,0,1,0,.55,2.7,2.7,0,0,0-1.76,1.49A.27.27,0,0,1,74,431"/></clipPath><clipPath id="clip-path-116"><path class="cls-1" d="M75.6,427c-.11-.53-.46-.91-.79-.85s-.51.55-.4,1.08.45.91.78.85.51-.55.41-1.08"/></clipPath><clipPath id="clip-path-117"><path class="cls-1" d="M74.47,434.55a2.38,2.38,0,0,1-.55-.06.28.28,0,1,1,.14-.54,2.53,2.53,0,0,0,1.78-.34.27.27,0,0,1,.39.05.28.28,0,0,1,0,.39,3.06,3.06,0,0,1-1.71.5"/></clipPath><clipPath id="clip-path-118"><path class="cls-1" d="M74.12,464.61a.3.3,0,0,1-.23-.11c-2.1-2.81-2.74-5.67-3-9.11a9.46,9.46,0,0,1,.11-2.13,7.67,7.67,0,0,0,.06-2.43,13.49,13.49,0,0,0-.5-1.55c-.64-1.71-1.43-3.84-.14-5.13a.88.88,0,0,1,.74-.25,2.16,2.16,0,0,1,1.33,1,12.81,12.81,0,0,1,1.16,3.31c.14.58.28,1.13.45,1.63a3.27,3.27,0,0,0,.79,1.23,2.06,2.06,0,0,0,.46-1,3.86,3.86,0,0,1,.24-.68l.33-.65c.86-1.65,1.93-3.71,1.28-5.42-.1-.27-.23-.57-.37-.89-.61-1.44-1.39-3.22-.7-4.59a.8.8,0,0,1,.68-.48,1,1,0,0,1,.82.55,16.3,16.3,0,0,1,.78,1.78l.39,1,.35.78a11.66,11.66,0,0,1,1.18,3.4,14.1,14.1,0,0,1-.15,3.17,19,19,0,0,0-.18,2.24.29.29,0,0,1-.28.28.28.28,0,0,1-.28-.28,20,20,0,0,1,.19-2.31,13.61,13.61,0,0,0,.14-3,11.3,11.3,0,0,0-1.12-3.23q-.19-.41-.36-.78c-.14-.32-.27-.65-.4-1a15.28,15.28,0,0,0-.75-1.71.47.47,0,0,0-.32-.26c-.09,0-.15.09-.19.16-.57,1.14.14,2.8.72,4.13.14.32.27.63.37.91.74,1.95-.4,4.13-1.3,5.88-.12.22-.23.44-.33.64a2.89,2.89,0,0,0-.2.59,2.41,2.41,0,0,1-.68,1.3.5.5,0,0,1-.47.08c-.63-.19-1.17-1.57-1.17-1.59-.17-.51-.31-1.07-.46-1.66a12.37,12.37,0,0,0-1.1-3.16,1.67,1.67,0,0,0-.92-.71.32.32,0,0,0-.27.09c-1,1-.32,3,.26,4.55a12,12,0,0,1,.52,1.63,7.88,7.88,0,0,1,0,2.61,9.23,9.23,0,0,0-.12,2c.3,3.34.92,6.12,3,8.83a.28.28,0,0,1-.06.39.3.3,0,0,1-.16.05"/></clipPath><clipPath id="clip-path-119"><path class="cls-1" d="M74.86,461a.26.26,0,0,1-.2-.08c-1-1.05-.72-4.44.19-7a9.23,9.23,0,0,0,.53-4.35c0-.37,0-.75,0-1.14a.27.27,0,0,1,.28-.28.28.28,0,0,1,.28.28c0,.37,0,.73,0,1.1a9.86,9.86,0,0,1-.57,4.58c-.94,2.63-1.09,5.61-.32,6.39a.27.27,0,0,1,0,.39.24.24,0,0,1-.19.08"/></clipPath><clipPath id="clip-path-120"><path class="cls-1" d="M74.18,483c1.24,5.18,2.53,10.53,1.79,15.52h.57c.72-5.08-.57-10.45-1.82-15.64l-.57-2.39c-.82-3.52,0-7.74.68-11.12.6-3.07,1.08-5.5.34-6.79a.28.28,0,0,0-.49.28c.64,1.11.16,3.56-.4,6.4-.67,3.44-1.51,7.72-.67,11.35l.57,2.39"/></clipPath><clipPath id="clip-path-121"><path class="cls-1" d="M75.05,497.33a.28.28,0,0,1-.28-.28l-.1-21.53a.29.29,0,0,1,.28-.28h0a.29.29,0,0,1,.28.28l.1,21.53a.27.27,0,0,1-.28.28Z"/></clipPath><clipPath id="clip-path-122"><rect class="cls-2" x="74.5" y="394" width="1" height="72.74"/></clipPath><clipPath id="clip-path-123"><path class="cls-1" d="M87.19,472.42h-.07c-.57-.15-1.17-.29-1.82-.43-4.89-1.13-12.29-2.83-22.66-11a.28.28,0,1,1,.34-.44c10.28,8.07,17.6,9.75,22.45,10.86.65.15,1.26.29,1.83.44a.27.27,0,0,1-.07.54"/></clipPath><clipPath id="clip-path-124"><path class="cls-1" d="M90.77,486.62c-5.25,0-17.77-10.16-26.26-17-3-2.44-5.39-4.37-6.34-4.92a.29.29,0,0,1-.1-.38.28.28,0,0,1,.38-.1c1,.57,3.38,2.51,6.41,5,8.46,6.85,22.6,18.32,26.73,16.78a.28.28,0,1,1,.19.52,2.89,2.89,0,0,1-1,.17"/></clipPath><clipPath id="clip-path-125"><path class="cls-1" d="M78,427a3.58,3.58,0,0,1-.87-.11c-2.16-.53-3.5-2.95-4.69-5.1-1.1-2-2-3.72-3.29-3.31a.28.28,0,1,1-.18-.52c1.68-.56,2.79,1.44,4,3.56s2.4,4.36,4.33,4.83a4.53,4.53,0,0,0,3.59-.95.27.27,0,0,1,.38.07.28.28,0,0,1-.07.39A5.77,5.77,0,0,1,78,427"/></clipPath><clipPath id="clip-path-126"><path class="cls-1" d="M70,418.33a.27.27,0,0,1-.27-.21,2.46,2.46,0,0,1,.34-2,3,3,0,0,1,2-1.33,11.28,11.28,0,0,1,3,0c1.77.15,3.29.28,4.82-1.5a.28.28,0,0,1,.39,0,.29.29,0,0,1,0,.4c-1.71,2-3.45,1.84-5.28,1.69a10.7,10.7,0,0,0-2.88,0,2.53,2.53,0,0,0-1.67,1.08,1.93,1.93,0,0,0-.26,1.54.28.28,0,0,1-.2.34H70"/></clipPath><clipPath id="clip-path-127"><path class="cls-1" d="M70.57,419.91a.32.32,0,0,1-.2-.08,4.14,4.14,0,0,1-.91-2.67c-.25-4.52,2.72-6,6.64-7.39l.36-.13c1.41-.49,3.53-1.24,3.53-2.86a.29.29,0,0,1,.28-.28.28.28,0,0,1,.28.28c0,2-2.35,2.84-3.9,3.39l-.36.13c-3.82,1.38-6.5,2.69-6.27,6.83a3.4,3.4,0,0,0,.75,2.3.3.3,0,0,1,0,.4.32.32,0,0,1-.2.08"/></clipPath><clipPath id="clip-path-128"><path class="cls-1" d="M85.13,416.91a.27.27,0,0,1-.26-.18c-2.32-6.25-6.66-9.28-13.27-9.28a15.35,15.35,0,0,0-6.6,1.29.27.27,0,0,1-.37-.12.28.28,0,0,1,.12-.38,16,16,0,0,1,6.85-1.35c6.87,0,11.38,3.16,13.79,9.65a.27.27,0,0,1-.17.35.15.15,0,0,1-.09,0"/></clipPath><clipPath id="clip-path-129"><path class="cls-1" d="M76.3,423.32a.25.25,0,0,1-.12,0l-.12-.06a2.54,2.54,0,0,0-2.28-.35.29.29,0,0,1-.35-.19.28.28,0,0,1,.18-.35,3.14,3.14,0,0,1,2.69.38l.13.07a.29.29,0,0,1,.13.37.28.28,0,0,1-.26.15"/></clipPath><clipPath id="clip-path-130"><path class="cls-1" d="M70.24,458.12a5.28,5.28,0,0,1-4.07-1.81,7.46,7.46,0,0,1-1.24-7.22.27.27,0,0,1,.35-.17.28.28,0,0,1,.17.35,7,7,0,0,0,1.13,6.67,5,5,0,0,0,4.91,1.49c4.85-1,11-5.93,13.47-10.84a.28.28,0,0,1,.37-.13.28.28,0,0,1,.13.38c-2.52,5-8.87,10.14-13.86,11.14a7.14,7.14,0,0,1-1.36.14"/></clipPath><clipPath id="clip-path-131"><path class="cls-1" d="M66.56,487.83a.92.92,0,0,1-.38-.07c-.3-.13-.6-.49-.35-1.43a13.94,13.94,0,0,0-1.46-11,8.41,8.41,0,0,0-2.58-3,.36.36,0,0,1-.32-.27c-.1-.36.31-.72,1.74-1.94a23.68,23.68,0,0,0,3.84-3.78c1-1.42,1.9-2.86,2.79-4.26,3.43-5.45,6.68-10.59,14-13l.36-.11c1.36-.44,2.66-.86,3.4-2.55s.32-2.76-.84-4.15c-1-1.21-3.08-1.06-4.91-.93a5.26,5.26,0,0,1-2.93-.24,3.16,3.16,0,0,1-1.26-2.69.28.28,0,0,1,.3-.26.27.27,0,0,1,.25.3,2.62,2.62,0,0,0,1,2.19,5.3,5.3,0,0,0,2.57.14c1.87-.13,4.19-.29,5.38,1.13s1.8,2.75.92,4.74-2.39,2.41-3.74,2.85l-.36.11c-7.14,2.35-10.33,7.41-13.71,12.77-.89,1.4-1.81,2.85-2.81,4.28a24.5,24.5,0,0,1-3.93,3.89,17.79,17.79,0,0,0-1.47,1.32,8.85,8.85,0,0,1,2.49,2.73,14.61,14.61,0,0,1,1.78,11.81c-.06.2-.16.68,0,.77,1.21.54,8-4.83,9.18-6.63a.27.27,0,0,1,.38-.08.28.28,0,0,1,.09.38c-.9,1.39-7.26,6.91-9.5,6.91"/></clipPath><clipPath id="clip-path-132"><rect class="cls-2" x="64.48" y="446.46" width="21.03" height="52.08"/></clipPath><clipPath id="clip-path-133"><rect class="cls-2" x="73.52" y="465.01" width="2.95" height="33.53"/></clipPath><clipPath id="clip-path-134"><path class="cls-1" d="M75.06,451.37a.27.27,0,0,1-.16-.06c-2.75-2.06-1.53-5.6-.25-9.35.94-2.72,1.91-5.54,1.42-8a.28.28,0,1,1,.55-.11c.51,2.57-.48,5.46-1.44,8.25-1.22,3.55-2.37,6.91,0,8.73a.28.28,0,0,1,.06.39.3.3,0,0,1-.23.11"/></clipPath><clipPath id="clip-path-135"><path class="cls-1" d="M76.59,451.63a4.2,4.2,0,0,1-2.41-.73,5.13,5.13,0,0,1-2-3.45.28.28,0,0,1,.23-.32.27.27,0,0,1,.32.23,4.57,4.57,0,0,0,1.79,3.08,3.86,3.86,0,0,0,3,.54.28.28,0,0,1,.33.21.28.28,0,0,1-.22.33,5.31,5.31,0,0,1-1,.11"/></clipPath><clipPath id="clip-path-136"><path class="cls-1" d="M72.63,447.5a.27.27,0,0,1-.26-.18.28.28,0,0,1,.16-.36c7.13-2.59,4.32-13,2.06-21.45a56.26,56.26,0,0,1-1.67-7.33.3.3,0,0,1,.25-.31.29.29,0,0,1,.31.25,56.45,56.45,0,0,0,1.65,7.25c2.32,8.62,5.2,19.35-2.41,22.12h-.09"/></clipPath><clipPath id="clip-path-137"><path class="cls-1" d="M72.09,450.61a.26.26,0,0,1-.26-.19.27.27,0,0,1,.18-.35,7.71,7.71,0,0,0,5.62-7,.28.28,0,0,1,.29-.26.28.28,0,0,1,.27.3,8.25,8.25,0,0,1-6,7.45h-.08"/></clipPath><clipPath id="clip-path-138"><path class="cls-1" d="M72.35,444.17a6.47,6.47,0,0,1-2.36-.32.28.28,0,0,1-.15-.2c-.15-1-.48-20-.19-21.15.07-.28.1-.37,4.38-.15,2.15.11,4.52.28,5.48.36.5.05.65.06.67.31.09,1.21.14,6.22.18,10.64,0,3.19.06,6.2.1,7.2a.28.28,0,0,1-.26.29.27.27,0,0,1-.29-.27c0-1-.07-4-.1-7.22,0-4.17-.09-8.87-.17-10.38-1.31-.13-8.32-.58-9.48-.48-.2,2,.07,18.61.22,20.6.62.15,3.58.71,8.08-1.07a.27.27,0,0,1,.36.16.29.29,0,0,1-.16.36,17.31,17.31,0,0,1-6.31,1.32"/></clipPath><clipPath id="clip-path-139"><rect class="cls-2" x="73.24" y="422.23" width="3.52" height="21.82"/></clipPath><clipPath id="clip-path-140"><path class="cls-1" d="M71.42,436.61a.28.28,0,0,1-.18-.06.32.32,0,0,1-.1-.22l0-11.39a.29.29,0,0,1,.09-.21.25.25,0,0,1,.2-.07l7,.32a.29.29,0,0,1,.27.28l.15,9.72a.29.29,0,0,1-.23.28l-7.18,1.35Zm.26-11.38,0,10.77,6.62-1.25-.15-9.22Z"/></clipPath><clipPath id="clip-path-141"><path class="cls-1" d="M72.12,441.46a.27.27,0,0,1-.17-.06.33.33,0,0,1-.11-.21l0-1.11a.27.27,0,0,1,.22-.28l5.67-1.14a.28.28,0,0,1,.33.22.28.28,0,0,1-.22.33l-5.44,1.09v.53l5.45-1.26a.29.29,0,0,1,.34.21.28.28,0,0,1-.21.33l-5.79,1.34h-.06"/></clipPath><clipPath id="clip-path-142"><path class="cls-1" d="M75.05,433a.28.28,0,0,1-.28-.27l-.09-3.3a.28.28,0,1,1,.55,0l.09,3.29a.28.28,0,0,1-.27.29Z"/></clipPath><clipPath id="clip-path-143"><path class="cls-1" d="M74.84,431.23a.54.54,0,0,1-.38-.12.46.46,0,0,1-.15-.33l0-.22c0-.29,0-.65,0-.86a.53.53,0,0,1,.19-.39,1,1,0,0,1,.79-.09l.25,0a.28.28,0,0,1,0,.55l-.28,0a2.18,2.18,0,0,0-.34,0,7,7,0,0,0,0,.77v.15H75l.23,0a.3.3,0,0,1,.28.29.28.28,0,0,1-.28.27h-.17l-.22,0"/></clipPath><clipPath id="clip-path-144"><path class="cls-1" d="M74.87,432.9a2.09,2.09,0,0,1-.46,0,.28.28,0,1,1,.14-.54,1.35,1.35,0,0,0,.68,0c0-.39,0-2.37,0-2.71a.28.28,0,0,1,.26-.3.27.27,0,0,1,.3.25,29.34,29.34,0,0,1,0,3c-.09.3-.51.4-.89.4"/></clipPath><clipPath id="clip-path-145"><path class="cls-1" d="M74.44,427a.29.29,0,0,1-.26-.16.28.28,0,0,1,.14-.37,5.58,5.58,0,0,1,.78-.27l.38-.12a.29.29,0,0,1,.35.18.27.27,0,0,1-.18.35,3,3,0,0,1-.4.12,6.52,6.52,0,0,0-.7.25.23.23,0,0,1-.11,0"/></clipPath><clipPath id="clip-path-146"><path class="cls-1" d="M75.11,428.1h-.59a.28.28,0,1,1,0-.55h.56l.24-.05h.16a.28.28,0,1,1,0,.56H75.4l-.24.05h0"/></clipPath><clipPath id="clip-path-147"><path class="cls-1" d="M75.53,427.78a.26.26,0,0,1-.21-.11l-.14-.17,0,0,0-.06-.12-.08-.21,0,0,0a.27.27,0,0,1-.25.25.27.27,0,0,1-.3-.25v-.12a.26.26,0,0,1,.13-.26l.23-.15.12,0,.37,0a.25.25,0,0,1,.17,0l.26.16a.38.38,0,0,1,.09.09l.06.1.13.16a.27.27,0,0,1,0,.39.31.31,0,0,1-.18.07"/></clipPath><clipPath id="clip-path-148"><path class="cls-1" d="M70.25,431.64a1,1,0,0,1-.54-.16c-.9-.56-1.33-2.54-1.47-3.36a8.69,8.69,0,0,1-.1-1.33c0-.29,0-.56,0-.83a.28.28,0,0,1,.25-.31.27.27,0,0,1,.3.26c0,.29,0,.59,0,.87a8.32,8.32,0,0,0,.09,1.24c.2,1.15.64,2.63,1.22,3a.44.44,0,0,0,.37.05c.65-.19.85-1.16,1.05-2.09s.44-2,1.26-2.29a15.2,15.2,0,0,1,5.15,0,22.68,22.68,0,0,0,3.75.16.27.27,0,0,1,.3.25.27.27,0,0,1-.25.3,22.43,22.43,0,0,1-3.85-.16,15,15,0,0,0-4.94,0c-.51.15-.68,1-.87,1.86-.22,1.05-.48,2.23-1.44,2.52a1.45,1.45,0,0,1-.29,0"/></clipPath><clipPath id="clip-path-149"><path class="cls-1" d="M73.93,450.34h-.05a.27.27,0,0,1-.23-.31,25.19,25.19,0,0,0,.3-3.45c0-1.76.21-1.9,2.12-1.9a.28.28,0,0,1,0,.56c-.76,0-1.24,0-1.39.15s-.16.53-.18,1.2a26.11,26.11,0,0,1-.3,3.52.28.28,0,0,1-.27.24"/></clipPath><clipPath id="clip-path-150"><path class="cls-1" d="M75.07,451.24a.28.28,0,0,1-.26-.17,7.91,7.91,0,0,1-.49-3.11,4.47,4.47,0,0,1,.54-.94,6.23,6.23,0,0,0,.35-.56.28.28,0,0,1,.49.27,5.91,5.91,0,0,1-.38.6,4.52,4.52,0,0,0-.48.83,8.41,8.41,0,0,0,.48,2.69.27.27,0,0,1-.14.36l-.11,0"/></clipPath></defs><g class="cls-3"><g class="cls-4"><rect class="cls-5" x="70.34" y="24.06" width="40.57" height="52.89"/></g></g><g class="cls-6"><g class="cls-4"><rect class="cls-5" x="23.24" y="46.27" width="48.34" height="58.8"/></g></g><g class="cls-7"><g class="cls-4"><rect class="cls-8" x="71.06" y="15.81" width="46.29" height="54.53"/></g></g><g class="cls-9"><g class="cls-4"><rect class="cls-10" x="56.83" y="55.5" width="74.29" height="61.77"/></g></g><g class="cls-11"><g class="cls-4"><rect class="cls-10" x="18.93" y="31.12" width="23.16" height="31.42"/></g></g><g class="cls-12"><g class="cls-4"><rect class="cls-13" x="23.41" y="33.64" width="17.34" height="21.27"/></g></g><g class="cls-14"><g class="cls-4"><rect class="cls-15" x="23.47" y="47.6" width="16.02" height="12.34"/></g></g><g class="cls-16"><g class="cls-4"><rect class="cls-17" x="71.81" y="25.98" width="11.2" height="15.54"/></g></g><g class="cls-18"><g class="cls-4"><rect class="cls-17" x="70.03" y="33.71" width="12.47" height="15.96"/></g></g><g class="cls-19"><g class="cls-4"><rect class="cls-17" x="85.98" y="34.75" width="15.38" height="18.36"/></g></g><g class="cls-20"><g class="cls-4"><rect class="cls-17" x="86.79" y="37.49" width="12.55" height="12.21"/></g></g><g class="cls-21"><g class="cls-4"><rect class="cls-17" x="74.47" y="34.83" width="11.25" height="11.94"/></g></g><g class="cls-22"><g class="cls-4"><rect class="cls-17" x="71.82" y="42.28" width="12.58" height="11"/></g></g><g class="cls-23"><g class="cls-4"><rect class="cls-17" x="22.98" y="46.05" width="20.64" height="37.29"/></g></g><g class="cls-24"><g class="cls-4"><rect class="cls-17" x="31.66" y="56.93" width="11.99" height="22.82"/></g></g><g class="cls-25"><g class="cls-4"><rect class="cls-17" x="70.25" y="71.19" width="13.49" height="46.08"/></g></g><g class="cls-26"><g class="cls-4"><rect class="cls-17" x="40.98" y="83.98" width="10.66" height="32.09"/></g></g><g class="cls-27"><g class="cls-4"><g class="cls-28"><g class="cls-29"><g class="cls-30"><g class="cls-31"><rect class="cls-17" x="40.52" y="2.73" width="10.97" height="82.74"/></g></g></g></g></g></g><g class="cls-32"><g class="cls-4"><rect class="cls-17" x="32.23" y="69.25" width="34.94" height="21.9"/></g></g><g class="cls-33"><g class="cls-4"><rect class="cls-17" x="27.27" y="72.88" width="43.93" height="32.46"/></g></g><g class="cls-34"><g class="cls-4"><rect class="cls-17" x="74.53" y="26.56" width="22.5" height="19.14"/></g></g><g class="cls-35"><g class="cls-4"><rect class="cls-17" x="73.07" y="21.93" width="20.77" height="15.14"/></g></g><g class="cls-36"><g class="cls-4"><rect class="cls-17" x="70.84" y="15.24" width="21.1" height="23.4"/></g></g><g class="cls-37"><g class="cls-4"><rect class="cls-17" x="81.55" y="15.62" width="30.81" height="20.02"/></g></g><g class="cls-38"><g class="cls-4"><rect class="cls-17" x="73.53" y="30.92" width="13.17" height="11.13"/></g></g><g class="cls-39"><g class="cls-4"><rect class="cls-17" x="79.68" y="55.16" width="30.98" height="21.68"/></g></g><g class="cls-40"><g class="cls-4"><rect class="cls-17" x="56.36" y="46.95" width="37.1" height="59.61"/></g></g><g class="cls-41"><g class="cls-4"><g class="cls-28"><g class="cls-42"><g class="cls-43"><g class="cls-42"><rect class="cls-17" x="100.3" y="55.19" width="31.03" height="62.08"/></g></g></g></g></g></g><g class="cls-44"><g class="cls-4"><g class="cls-28"><g class="cls-45"><g class="cls-46"><g class="cls-47"><rect class="cls-17" x="104.28" y="73.74" width="12.95" height="43.53"/></g></g></g></g></g></g><g class="cls-48"><g class="cls-4"><rect class="cls-17" x="85.88" y="42.4" width="13.52" height="27.7"/></g></g><g class="cls-49"><g class="cls-4"><rect class="cls-17" x="88.79" y="55.86" width="15.68" height="14.5"/></g></g><g class="cls-50"><g class="cls-4"><rect class="cls-17" x="102.17" y="26.6" width="15.3" height="39.63"/></g></g><g class="cls-51"><g class="cls-4"><rect class="cls-17" x="94.71" y="51.58" width="16.37" height="17.76"/></g></g><g class="cls-52"><g class="cls-4"><rect class="cls-17" x="21.33" y="30.96" width="20.93" height="31.94"/></g></g><g class="cls-53"><g class="cls-4"><g class="cls-28"><g class="cls-54"><g class="cls-55"><g class="cls-56"><rect class="cls-17" x="18.67" y="30.96" width="13.52" height="31.82"/></g></g></g></g></g></g><g class="cls-57"><g class="cls-4"><rect class="cls-17" x="23.14" y="33.39" width="17.75" height="21.95"/></g></g><g class="cls-58"><g class="cls-4"><rect class="cls-17" x="23.18" y="47.39" width="16.37" height="12.8"/></g></g><g class="cls-59"><g class="cls-4"><rect class="cls-17" x="25.3" y="37.84" width="10.65" height="13.85"/></g></g><g class="cls-60"><g class="cls-4"><rect class="cls-17" x="26.94" y="37.92" width="11.49" height="12.04"/></g></g><g class="cls-61"><g class="cls-4"><rect class="cls-17" x="26.89" y="38.01" width="11.59" height="13.63"/></g></g><g class="cls-62"><g class="cls-4"><rect class="cls-17" x="77.71" y="34.77" width="11.69" height="10.93"/></g></g><g class="cls-63"><g class="cls-4"><rect class="cls-17" x="77.98" y="36.22" width="11.52" height="10.61"/></g></g><g class="cls-64"><g class="cls-4"><rect class="cls-17" x="70.94" y="35.5" width="11.62" height="11.01"/></g></g><g class="cls-65"><g class="cls-4"><rect class="cls-17" x="72.36" y="34.38" width="23.79" height="15.99"/></g></g><g class="cls-66"><g class="cls-4"><rect class="cls-17" x="28.28" y="53.4" width="12.7" height="15.67"/></g></g><g class="cls-67"><g class="cls-4"><rect class="cls-17" x="27.47" y="55.05" width="11.47" height="14.92"/></g></g></svg>