<svg version="1.1" id="Layer_2" xmlns="http://www.w3.org/2000/svg" x="0" y="0" viewBox="0 0 140 160" xml:space="preserve" enable-background="new 0 0 140 160"><style>.st0,.st2,.st4{fill-rule:evenodd;clip-rule:evenodd;fill:#feede5}.st2,.st4{fill:#fff}.st4{fill:#463b39}</style><g id="Group-185" transform="translate(870 1396)"><path id="Fill-1_00000062154004333823839010000001040528248236767626_" class="st0" d="M-815.2-1349.3c0-8.8 6.1-13.5 11-13.5s12.7 4.6 12.7 13.3c0 3.2-2.2 7.6-3.7 13-2.6 9.1-5.5 19.5-8.6 19.5-4.9 0-11.4-23.5-11.4-32.3"/><path id="Fill-3_00000119810203130781791080000000926990922231641261_" class="st0" d="M-820-1298c1-.7 3.3-4.2 4.5-6.8 1.2-2.6 2.2-6.6 4.9-6.6s8.2-.2 6.6 2.5c-1.6 2.7-6.6 11.7-7.8 12.6-1.3 1-3.5 4-5.1 5-1.6 1-3-.9-3.4-2.7-.6-1.7-.7-3.3.3-4"/><path id="Fill-5_00000115501561258411261670000003119398944782538665_" class="st0" d="M-777.8-1297.1c.1 2-.1 5-2.5 5.9-2.5.9-2.5 1.6-4.4.4-1.9-1.1-2.2-1.6-7.1-5.3-4.8-3.6-7.9-3.9-6.4-6.6 1.6-2.6 5.7-3.6 8.1-2.8 2.4.8.5-1 1.9-2.6s4.4-.8 5.4.5 1.5 1.3 3 .2 2.2-1.8 2.1.9c-.1 2.8-.3 7.5-.1 9.4"/><path id="Fill-7_00000041257852502197977020000016783474367187291275_" d="M-813.4-1315.9c-1.1-1.3-1-1.3-.6-2.3 1-2-2.4-2.4-2-4.9.2-1.3.7-2.6.4-3.3-.2-.4-1-.8-1.5-1.8-.3-.7-.1-1.3-.3-2.2-.2-.7-.5-.7-.7-1.6-.2-.8.7-1.4.2-1.8-.3-.3-1.2-1.2-.5-2.5.2-.4-1.4-1.6-1.7-2.8-.3-1.1-.3-1.6-.2-2.8.1-1 .8-2.7 1.3-4.7.2-.7.3-1.7.5-3.1.3-1.7.2-4 .5-6 .2-1.8 1-3.8 1.6-5.4.6-1.7.8-2.4 1.9-4.4 1.6-2.7 3.3-4.3 5.2-5.4 1.2-.7 3.4-1.2 5.4-1.1 1.2 0 2.2.3 3.2.7.6.3 1.5.4 3 1 .9.4 3.2 2.5 4.2 4 .9 1.5 1.7 2.8 2.4 4.4 1.7 4.2 2 7.7 2.3 11.6.1 1 .2 2.3.3 3.2.3 1.9.7 3.2.7 4.8 0 1.6-.7 3.3-1.4 3.8-1 .7-1.1.5-1.9.5-.2 0 0 .5 0 1.1.1 1 .3 2.5.3 3.5 0 3.6.7 6.2 1.1 10.5.4 4.3-.9 3.7-2.4 4.5-1.4.8-2.4.5-2.3-2.7.1-3.3.5-5.6.4-7.4-.1-.7-.5-1.2-.8-2.3-.4-1.5-.7-3.8-.7-5.8 0-1-2-1.3-1.3-2.1.9-1 1.8-2.2 1.9-2.6.6-1.3 1.4-3.8 1.6-5.2.3-2 .1-3.7-.7-6.1-.2-.5-.1-1.3-.4-1.8-.9-1.8-1.3-4-2.7-4.2-.8-.1-2.1-1.2-3.4-.4-1.3.9-2.3 2-3.1 3.2-1.3 2-4.3 5-6.5 5.4-3.4.7-4.5-.5-4.4 1 .1 1.4.4 1.9.7 2.2.6.6 1.3 0 1.5 1.5.1 1.5.2 3.2.2 4.8 0 1.1-.7 2.9-1.4 3.6-1.9 1.8-.8.8-.7 4.9.1 4.1 1 7.6 2.3 10.6.8 1.8.2 3.2-.8 4.2-.5.8-.3 2.2-.7 1.7" fill-rule="evenodd" clip-rule="evenodd" fill="#002f57"/><path id="Fill-9_00000110437906446733373160000009185416060656809102_" class="st2" d="M-827.3-1303s1.2 2.8 1.8 4.7c.5 1.8.6 2.9.5 3-.1.2-3.4 1.2-3.4 1.1 0-.3.3-6.5.8-8.6 0 0 .1-.2.3-.2m31.3-35.6c-.4 0-.9.2-1.4.7-1.5 1.2-1.5 1.5-2.1 2.4-1.4 2.1-2.2 4.5-2.5 6.8-.1 1.3-.3 3.7-.5 5.4-.2 1.3-.5 1.9-.7 2.8-.2.9-.6 2-.9 1.1-.4-1.4-1.6-3.7-1.9-4.6-.4-1-.3-2.4-.5-4.1-.2-1.5-2.1-4-3-5.2-1.1-1.5-2.5-2.6-2.9-3.4-.6-1.2-1.3-.1-2.2.8-.3.3.6 1.5.6 1.9 0 .5-.3.9-.1 1.4.2.4.2.4.2.8.1 1-.2 1.2-.1 1.7s.2.8.2 1.3c.1 1-.4 2-.4 2.8 0 1.4 1 2 1.8 3.3.7 1 1.1 2.7.7 3.9-.3.8-1.3 1.8-1.4 2.3-.2 1.1-1.7-.8-1.1-1.2.4-.3.5-.9.3-1.6-.2-.6-.7-.9-1.2-1.4-.3-.3-.6-.8-.8-1.2-.4-1.1.3-3.6.4-4.1.1-.5-.6-1-1-1.3-.8-.6-1-1.6-.9-2.5.1-.6 0-.7-.4-1.2-.3-.5-.6-1-.4-1.4.4-.8.5-1.1.3-1.2-.4-.3-.7-.9-.6-1.4.1-.5.3-.9.3-1.2 0-.3-.9.3-2.6.9-2 .7-4 1.2-6.8 2.3-2.4.9-3.5 1.2-4.7 2.1-1.4 1.2-3.6 3.6-4.7 6-2.2 4.8-1.6 10.4-2.5 14.4-.4 1.7-1.1 4.1-1.4 6.7-.4 3.5-.4 8.3-.8 12.1-.8 6.7.2 7.2.9 11.2.2 1.4 2.3 1.2 3.9 1.1 3-.2 5.9-1.7 7.8-2.7 1.3-.7 4.7-2.7 6.7-4.5.9-.8 1.4-1.9 1.9-1.5.9.7 1.4.7 1.5.4.2-.9 1.5-1.6 2.5-2.8.8-1 .6-1.9.2-2.4-.3-.3-1.5 1.7-2.1 1.5-.5-.2-1.7-3.2-1.8-4.2-.2-2 0-2.2.7-2.6.6-.3 1.2-1.2 1.6-1.7 1.1-1.5 2.1-4.1 3.3-6.6.4-.9 1.7-1.6 2.1-2.3.4-.8 1-1.5 1.4-1.8.6-.5.6.6.7.7.1.4.8.6 1.3.5.6-.1.9.3 1.3-.2.9-.8 2.9 1.6 3.6 1.8 1.5.3 14.6-5.4 17.8-4.7 2.3.5 7.9 3.1 7.3 6.7-.3 1.7.5 3.4.4 4.3-.2 2.3-.6 2.4-.3 3.8.1.6.6 1.3.6 2.3.1 4.2-5.8 5.2-6.5 5.3-.7 0 0 .7.5 1.9.4 1 .6 2.5 2 3.8.8.8 1.3 1.1 2.4 1.8 4.4 3.1 5 .5 6.5-1.4 1-1.4 1.9-3.9 1.9-5.8 0-1.8-.3-3.8-.5-6.4-.2-2.6-.4-5.7-.5-8.2-.3-5.7-.2-10.3-.9-15.1-.3-2.1-1.1-5.3-1.4-6.7-.4-2.1-2.2-5-3-5.9-1.8-1.9-3.8-2.2-6.7-2.7-1.4-.2-3.3-.4-4.5-.8-2-.6-2.1-.4-2.1 0 0 .3-.3.7-.2.9.2.4.5.7.5 1.2 0 1.1-.6 1.7-.4 2.1.1.4.2.7.3 1.1 0 .7-.2 1.3-.4 1.8-.4 1.3-1.1 2.1 0 3.6.4.5 1.1 1.9 1.1 3 0 1.4-1.4 2.6-1.8 3.1-.6.8-1.3 1.7-1.8.7-.2-.3-.4-.7-.2-1.6.2-.9 1.1-.9 1.1-1.5 0-1-.8-1.9-1-2.5-.2-.6.2-1.9.4-2.2.4-.7.7-1 .4-1.7-.2-.5-.9-1.2-1.3-2-.2-.5-.4-1.2-.3-1.9.2-.8.3-1.1.1-1.3-.3-.3-.8-1.1-.7-1.7.2-1 .7-1.2.4-1.4-.3-.2-.5-.8-.4-1.5 0-.9-.2-1.2-.6-1.2"/><path id="Fill-11_00000167358293722333358040000004760790381136652688_" class="st2" d="M-825.5-1269.1h44.9c-.4-2-1.5-6.4-2-9.1-.7-3.4-.4-4.6-1-7.1-.6-2.9-.2-4.9-.9-5.7-1.2-1.5-2.4-1.8-4-2.5-.6-.3-1.2-.9-2.3-1.5-2.6-1.5-16.9-2.8-21.2-1.9-.5.1-1.6 1.4-1.8 1.5-1.9 1.6-7.3 6.4-9.6 9.2-.7.8-.9 5-.8 7.2.2 2.9-.9 8-1.3 9.9"/><path id="Fill-13_00000078760783112572227730000003449811028507542680_" class="st2" d="M-806.1-1306.4c-.2.2-.8-.8-.6-1.1.1-.1.9.3.9.4.2.3-.2.6-.3.7"/><path id="Fill-15_00000030481025485184175930000004761916091862560915_" d="M-792.1-1296.8c-.7-.6-1.2-.7-2.1-1.3-.7-.5-1.9-1.4-2.3-1.9-.2-.3-.1-.4-.3-.7-.3-.4-.8-.7-.9-1-.2-.5.7-1.1 1.3-1 1.8.2 2.5.4 2 .2-.9-.4-1.9-1.2-1.7-1.7.3-.7 2.1-.4 2.5-.4 2.9.1 6.9 2.1 7.5 2.3 1.1.3 1.5 0 1.6-.7 0-.8-1.8-2.5-2.2-3.1-.5-.6-.9-1.6-.5-1.9.9-.9 2.3.3 2.7.5 1.5 1 2.2 2.4 2.4 2.9.1.2.6 0 .6 0 3.3-4.4 6.4-8.6 6.4-8.6 0-.5-.4-.9-.9-.9l-24.1-1c-.5 0-12.5 19.2-12.5 19.2 0 .5.4.9.9.9l20.3.4 1.5-.1s-.8-1-2.2-2.1" fill-rule="evenodd" clip-rule="evenodd" fill="#d8d6d7"/><path id="Fill-17" class="st2" d="M-766.9-1368.6h7.4c.3 0 .6.3.6.6v7.1c0 .3-.3.6-.6.6h-7.4c-.3 0-.6-.3-.6-.6v-7.1c0-.3.2-.6.6-.6"/><path id="Fill-19" class="st2" d="M-767.1-1347.8h7.4c.3 0 .6.3.6.6v7.1c0 .3-.3.6-.6.6h-7.4c-.3 0-.6-.3-.6-.6v-7.1c0-.4.3-.6.6-.6"/><path id="Fill-21" class="st2" d="M-766.8-1329.9h7.4c.3 0 .6.3.6.6v7.1c0 .3-.3.6-.6.6h-7.4c-.3 0-.6-.3-.6-.6v-7.1c0-.3.3-.6.6-.6"/><path id="Fill-23" class="st4" d="M-803.4-1335.1c-.3 0-.6 0-.8-.1-.1 0-2.5-.5-4.8-2.6-.1-.1-.1-.3 0-.4.1-.1.3-.1.4 0 1.7 1.6 3.7 2.3 4.5 2.5 1.3.2 3.6-.2 5.7-1.8 2-1.4 4.4-4.3 5-9.7 0-.2.2-.3.3-.3.2 0 .3.2.3.3-.6 5.6-3.2 8.6-5.3 10.1-1.8 1.5-3.8 2-5.3 2"/><path id="Fill-25" class="st4" d="M-811-1340.8c-.1 0-.2-.1-.3-.2-1-1.9-1.4-4.2-1.3-6.6 0-.2.1-.3.3-.3.2 0 .3.1.3.3-.1 2.4.3 4.5 1.2 6.4.1.1 0 .3-.1.4h-.1"/><path id="Fill-27" class="st4" d="M-812.5-1346.2c-.9-.2-2-.8-2.2-3.2 0-.2.1-.3.3-.3.2 0 .3.1.3.3.1 1.6.7 2.4 1.6 2.6.2 0 .3.2.2.3.1.2 0 .3-.2.3"/><path id="Fill-29" class="st4" d="M-801.7-1343.8h-.2c-.1-.1-.2-.3-.1-.4.1-.2.3-.3.4-.4.2-.2.5-.4.5-.5 0 0-.1-.1-.1-.2-.1-.1-.2-.2-.3-.4-.2-.7-.1-1.5.4-2.2.1-.1.3-.2.4-.1.1.1.2.3.1.4-.4.5-.5 1.2-.3 1.7 0 .1.1.1.2.2.1.2.3.3.3.6 0 .5-.4.8-.7 1-.1.1-.3.2-.3.3-.1-.1-.2 0-.3 0z"/><path id="Fill-31" class="st4" d="M-798.4-1350.2c-.1 0-.2-.1-.3-.2-.1-.1 0-.3.1-.4.9-.4 2.3-.7 3.2-.2.1.1.2.3.1.4-.1.1-.3.2-.4.1-.7-.4-1.9-.1-2.7.2v.1"/><path id="Fill-33" class="st4" d="M-798.7-1363.8c-.1 0-.3-.1-.3-.3 0-.3-.1-.5-.1-.8-.2-1.8-.4-3.7-1.4-5.2-.1-.1 0-.3.1-.4.1-.1.3 0 .4.1 1 1.6 1.3 3.6 1.5 5.4 0 .3.1.5.1.8 0 .3-.2.4-.3.4"/><path id="Fill-35" class="st4" d="M-803.3-1350.7h-.1c-.8-.4-1.9-.5-3.2-.4-.2 0-.3-.1-.3-.3 0-.2.1-.3.3-.3 1.4-.1 2.6 0 3.5.4.2.1.2.2.2.4-.2.1-.3.2-.4.2"/><path id="Fill-37" class="st4" d="M-805.9-1347.9c-.6 0-1.4-.1-1.7-.5-.1-.1-.1-.3 0-.4.1-.1.3-.1.4 0 .3.4 1.5.4 2.5.2.2 0 .3.1.3.2 0 .2-.1.3-.2.3-.1.1-.7.2-1.3.2"/><path id="Fill-39" class="st4" d="M-797-1347.6c-.3 0-.7 0-1.1-.1-.2 0-.3-.2-.2-.4 0-.2.2-.3.3-.2.9.2 1.5.1 2-.1.1-.1.3 0 .4.1.1.1 0 .3-.1.4-.3.2-.7.3-1.3.3"/><path id="Fill-41" class="st4" d="M-806.5-1327.5c-.2 0-.3-.1-.3-.3 0-1.1-.6-2-1.2-3-.1-.1-.1-.2-.2-.3-.7-1.1-2-2.6-3.1-3.9-.7-.8-1.3-1.5-1.7-2.1-.1-.1-.1-.3.1-.4.1-.1.3-.1.4.1.5.6 1.1 1.3 1.7 2.1 1.1 1.3 2.4 2.9 3.1 4 .1.1.1.2.2.3.6 1 1.3 2.1 1.3 3.3 0 .1-.2.2-.3.2"/><path id="Fill-43" class="st4" d="M-803.7-1317.9c-.3 0-.4-.3-.8-1.8 0-.1-.1-.3-.1-.3-.2-.7-.6-1.4-.9-2-.3-.7-.7-1.3-.9-2.1-.3-.8-.5-2.2-.5-3.6 0-.2.1-.3.3-.3.2 0 .3.1.3.3 0 1.3.2 2.7.5 3.4.2.7.5 1.3.9 2 .3.7.7 1.4.9 2.1 0 .1 0 .2.1.4 0 .1.1.3.1.4v-.2c.1-.5.3-1 .4-1.5.2-.5.3-1 .5-1.6.3-1.3.4-2.6.4-3.9.1-1.5.2-3 .6-4.4.3-1.2 1.3-3 2.1-4.5.2-.5.5-.9.7-1.3.1-.1.3-.2.4-.1.1.1.2.3.1.4-.2.3-.4.8-.7 1.3-.7 1.4-1.7 3.3-2 4.4-.3 1.4-.4 2.9-.5 4.3-.1 1.3-.2 2.6-.5 3.9-.1.6-.3 1.1-.5 1.6-.1.5-.3.9-.4 1.4-.1.3-.1.6-.2.9v.1c0 .1.1.3 0 .4-.1.2-.2.3-.3.3z"/><path id="Fill-45" class="st4" d="M-810.8-1326.5c-.1 0-.2 0-.2-.1-.1-.1-.1-.3.1-.4.6-.4 1-1.4 1.3-1.9.1-.2.2-.3.2-.4.3-.4.7-.7 1.2-.6.4.1.8.3.9.8.1.2 0 .3-.2.4-.2.1-.3 0-.4-.2-.1-.2-.2-.4-.4-.4s-.5.1-.6.4c0 .1-.1.2-.2.4-.3.6-.8 1.6-1.5 2.2-.1-.2-.1-.2-.2-.2"/><path id="Fill-47" class="st4" d="M-796-1327.8c-.6 0-1.9-1.1-1.9-1.1-.2-.2-.3-.4-.5-.7-.3-.5-.7-1.1-1.2-1.2-.2 0-.4 0-.6.2-.1.1-.3.2-.4.4-.1.1-.1.2-.2.2-.1.1-.3.1-.4 0-.1-.1-.1-.3 0-.4l.2-.2c.1-.2.3-.3.5-.5.3-.3.7-.4 1-.3.7.1 1.2.8 1.6 1.4.2.2.3.5.4.6.1.1.7.6 1.2.8-.2-.6-.3-1.2-.4-1.7-.1-1.4.1-2.9.2-4.2.1-1.1.2-2.2.2-3.3 0-.2.1-.3.3-.3.2 0 .3.1.3.3 0 1.1-.1 2.3-.2 3.4-.1 1.4-.3 2.8-.2 4.1 0 .5.2 1.1.4 1.7v.1c.1.1.2.4 0 .6-.1 0-.2.1-.3.1"/><path id="Fill-49" class="st4" d="M-841.8-1287.2c-.2 0-.3-.1-.3-.3 0-1.8.1-3.6.3-5.4 0-.3 0-.6.1-.9.1-1.3.1-2.6.2-3.9.1-2.1.2-4.2.5-6.3.2-1.5.5-3 .8-4.4.4-2.1.9-4.3 1-6.5.3-5.2 1.1-11.1 5.6-15.2 2.4-2.2 5.5-3.1 8.4-4 1.8-.5 3.7-1.1 5.3-1.9.2-.1.4-.2.5-.3l.6-.3c.1-.1.3 0 .4.1.1.1 0 .3-.1.4l-.6.3c-.2.1-.4.2-.5.3-1.7.9-3.6 1.4-5.4 2-2.9.9-5.9 1.8-8.2 3.9-4.4 4-5.1 9.7-5.4 14.8-.1 2.2-.6 4.4-1.1 6.6-.3 1.4-.6 2.9-.8 4.4-.3 2.1-.4 4.2-.4 6.3 0 1.3-.1 2.6-.2 3.9 0 .3 0 .6-.1.9-.1 1.8-.3 3.6-.3 5.3 0 .1-.1.2-.3.2"/><path id="Fill-51" class="st4" d="M-828.4-1294.3c-.2 0-.3-.1-.3-.3 0-1.9.2-3.9.4-5.7.3-2.4.6-4.9.4-7.3-.2-2.4-1-4.8-1.9-7-.4-1.2-.9-2.4-1.2-3.6 0-.2 0-.3.2-.4.2 0 .3 0 .4.2.3 1.2.8 2.4 1.2 3.6.8 2.3 1.7 4.7 1.9 7.2.2 2.5-.1 5-.4 7.4-.2 1.9-.4 3.8-.4 5.7 0 .1-.2.2-.3.2"/><path id="Fill-53" class="st4" d="M-776.5-1281.2c-.2 0-.3-.1-.3-.3 0-.2.1-.3.3-.3.9-.1 1.6-1.1 2.2-2 .2-.2.3-.5.5-.6 2.5-3.1 2.1-6.4 1.6-10.2v-.4c-.3-2.2-.5-4.5-.6-7-.1-2.2-.2-4.4-.3-6.5 0-.8 0-1.5-.1-2.2v-.7c-.1-3.1-.2-6.4-.8-9.5-.1-.5-.2-1-.3-1.6-.6-3.1-1.2-6.3-3.1-8.9-2-2.6-5-3-8.1-3.5-1.7-.2-3.4-.5-5-1.1-.2-.1-.2-.2-.2-.4.1-.2.2-.2.4-.2 1.6.6 3.3.8 4.9 1 3.2.5 6.3.9 8.5 3.7 2.1 2.7 2.7 6 3.3 9.1l.3 1.5c.6 3.2.7 6.4.8 9.6v.7c0 .7.1 1.5.1 2.2.1 2.1.1 4.3.3 6.5.2 2.5.4 4.8.6 7v.4c.4 3.8.9 7.3-1.8 10.7-.1.2-.3.4-.4.6-.7 1.1-1.5 2.3-2.8 2.4"/><path id="Fill-55" class="st4" d="M-776.9-1281.2c-.7 0-1.4-.4-2-.7-.1-.1-.3-.2-.4-.2-1.8-.9-3.1-2-4-3.4-.5-.7-.8-1.5-1.1-2.3-.3-.8-.6-1.5-1-2.2-.1-.1-.1-.3.1-.4.1-.1.3-.1.4.1.5.7.8 1.5 1.1 2.3.3.8.6 1.5 1 2.2.9 1.3 2.1 2.4 3.8 3.2.1.1.3.2.4.2.6.3 1.3.7 1.9.6.2 0 .3.1.3.3 0 .2-.1.3-.3.3h-.2"/><path id="Fill-57" class="st4" d="M-782-1285.1c-.1 0-.3-.1-.3-.3 0-.2.1-.3.3-.3 3.2-.4 5.2-1.8 6.5-4.8.2-.5.9-2 .6-2.9-.1-.2-.3-.4-.5-.6-.2-.2-.3-.4-.4-.5 0-.1-.1-.1-.1-.2-.4-.6-.8-1.4-1.4-1.7-.4-.2-.7-.3-.9-.4.1.1.1.1.1.2.2.6.2 1.5 0 2.1-.5 2.2-2.8 3.7-4.8 4.1-.2 0-.3.1-.5.1-.7.2-1.4.4-2.1.2-.2 0-.3-.2-.2-.4 0-.2.2-.3.4-.2.6.1 1.2-.1 1.9-.2.2 0 .3-.1.5-.1 1.8-.4 3.9-1.7 4.4-3.7.1-.5.2-1.3 0-1.7l-.1-.1c-.1-.2-.3-.4-.2-.6 0-.2.1-.3.3-.3.3-.1.9 0 1.7.5.7.4 1.2 1.3 1.6 2 0 .1.1.1.1.2.1.1.2.3.4.4.3.3.5.5.6.9.3 1-.2 2.4-.6 3.3-1.7 3.1-3.9 4.6-7.3 5"/><path id="Fill-59" class="st4" d="M-773.6-1295.3c-.1 0-.1 0-.2-.1-.6-.5-1.5-.7-2.5-.6-.2 0-.3-.1-.3-.3 0-.2.1-.3.3-.3 1.3-.1 2.2.1 3 .7.1.1.2.3 0 .4-.1.2-.2.2-.3.2"/><path id="Fill-61" class="st4" d="M-781.8-1314.4h-.1c-.2-.1-.2-.2-.2-.4.1-.4.3-.8.4-1.3.6-1.7 1.2-3.5 2.1-4.8.1-.1.3-.2.4 0 .1.1.2.3 0 .4-.9 1.1-1.5 3-2 4.6-.2.5-.3.9-.4 1.3.1.1-.1.2-.2.2"/><path id="Fill-63" class="st4" d="M-840.1-1288.8h-.1c-.1-.1-.2-.3-.1-.4.4-.7 1-1.2 1.7-1.6.1-.1.3-.2.4-.3 2.2-1.6 4.3-2.2 7.1-2.7 2.2-.4 4.3-1 6.3-1.8.2-.1.3 0 .4.2.1.2 0 .3-.2.4-2.1.9-4.2 1.5-6.4 1.9-2.7.4-4.7 1-6.8 2.5-.1.1-.3.2-.4.3-.6.4-1.2.8-1.5 1.4-.2.1-.3.1-.4.1"/><path id="Fill-65" class="st4" d="M-820.2-1297.4c-.1 0-.2 0-.2-.1-.1-.1-.1-.3.1-.4.1 0 .2-.1.3-.2.5-.3 1.4-.9 1.7-1.5.1-.1.3-.2.4-.1.1.1.2.3.1.4-.4.8-1.4 1.4-1.9 1.8-.1.1-.2.1-.2.1h-.3"/><path id="Fill-67" class="st4" d="M-818-1291.1c-.1 0-.1 0-.2-.1s-.1-.3 0-.4c.2-.3.5-.5.7-.7.4-.4.8-.7 1.2-1 .4-.3.8-.6 1.1-.9.1-.1.3-.1.4 0 .1.1.1.3 0 .4-.4.4-.8.7-1.1 1-.4.3-.8.6-1.1 1l-.7.7c-.2-.1-.3 0-.3 0"/><path id="Fill-69" class="st4" d="M-838.7-1279.1c-.7 0-1.4-.1-1.8-.5-.4-.4-.6-1.2-.7-1.8v-.2c-.3-1.2-.7-4-.7-5.9 0-.2.1-.3.3-.3.2 0 .3.1.3.3.1 1.7.4 4.4.7 5.8v.2c.1.5.2 1.2.5 1.5.3.3 1.2.3 1.8.3h.3c2 0 4-.4 5.9-1.3 2.3-1 4.5-2.3 6.6-3.8.3-.2.7-.5 1-.7.7-.5 1.5-1 2.1-1.5.4-.4.9-.9 1.4-1.5.1-.1.3-.1.4 0s.1.3 0 .4c-.5.6-1 1.1-1.4 1.5-.6.6-1.4 1.1-2.2 1.6-.3.2-.7.4-1 .7-2.1 1.5-4.4 2.8-6.7 3.8-2 .9-4 1.3-6.1 1.3h-.3c-.2.1-.3.1-.4.1"/><path id="Fill-71" class="st4" d="M-814.5-1294.3c-.1 0-.2 0-.2-.1-.1-.1-.1-.3.1-.4 1.6-1.2 2.3-3.2 1.9-5.4 0-.2.1-.3.2-.3.2 0 .3.1.3.2.4 2.4-.4 4.7-2.2 6h-.1"/><path id="Fill-73_00000000217377234166004110000003159867245855871404_" class="st4" d="M-818.1-1299.3c-.1 0-.1 0-.2-.1s-.1-.3 0-.4c1-1.2 1.6-2.5 2.2-3.9.4-.9.7-1.7 1.2-2.6.5-.9 1.2-1.5 1.8-2.2l.3-.3c.3-.3.5-.6.7-.9.2-.3.4-.7.7-1 .2-.2.5-.4.8-.3.2 0 .4.2.5.4.6 1.5-.5 2.8-1.3 3.9-.2.2-.4.5-.5.7-.7 1-.7 2.1-.7 3.3 0 .2-.1.3-.3.3-.2 0-.3-.1-.3-.3 0-1.3.1-2.5.9-3.6.2-.2.3-.4.5-.7.8-1 1.7-2.1 1.2-3.3 0 0-.2 0-.3.2-.3.3-.4.6-.7.9-.2.3-.4.7-.7 1l-.3.3c-.7.7-1.3 1.3-1.7 2.1-.5.8-.8 1.7-1.2 2.5-.6 1.4-1.2 2.8-2.3 4.1-.1-.1-.2-.1-.3-.1"/><path id="Fill-75_00000182528732730761733500000005464732086957210757_" class="st4" d="M-807.4-1304.4c-.7 0-1.5-.8-1.5-.8-.2-.2-.3-.4-.4-.6-.1-.1-.1-.2-.2-.2-.1-.1-.2-.2-.3-.4-.3-.4-.7-.8-.8-1.3 0-.2 0-.3.2-.4.2 0 .3 0 .4.2.1.4.4.7.7 1.1.1.1.2.3.3.4.1.1.1.2.2.3.1.2.2.3.4.5.3.3.9.7 1.1.6v-.1c0-.2-.2-.5-.3-.8-.1-.1-.2-.3-.2-.4-.1-.2-.2-.4-.3-.7-.5-1.3-1-2.5-1.8-2.3-.2 0-.3 0-.4-.2 0-.2 0-.3.2-.4 1.4-.4 2.1 1.4 2.5 2.6.1.3.2.5.3.7 0 .1.1.2.2.3.2.4.5.8.4 1.1 0 .4-.3.6-.4.6-.1.1-.2.2-.3.2"/><path id="Fill-77_00000129884971684770208180000010227768122065521302_" class="st4" d="M-806.3-1306.2c-.1 0-.2 0-.2-.1-.4-.4-.6-1-.7-1.6-.1-.5-.2-.9-.5-1.2-.1-.1-.6-.2-.8-.2h-.4c-.2 0-.3-.2-.2-.3 0-.2.2-.3.3-.2h.4c.4 0 1 0 1.3.4.3.4.5.9.6 1.4.1.5.3 1 .6 1.3.1.1.1.3 0 .4-.3.1-.3.1-.4.1"/><path id="Fill-79_00000066483594778301546080000003954525647806879663_" class="st4" d="M-805.1-1308.2h-.1c-.3-.2-.6-.4-.9-.7-.5-.5-.9-.8-1.5-.6-.2 0-.3 0-.4-.2 0-.2 0-.3.2-.4 1-.3 1.6.2 2.1.7.2.2.5.4.7.6.1.1.2.3.1.4 0 .2-.1.2-.2.2"/><path id="Fill-81_00000078013655469667942630000007807464788119508389_" class="st4" d="M-805.7-1306.8h-.1c-.4-.2-.7-.3-.9-.5-.1-.1-.1-.3 0-.4.1-.1.3-.1.4 0 .2.2.4.3.8.4.2.1.2.2.2.4-.2.1-.3.1-.4.1"/><path id="Fill-83_00000034778011238961739740000006092771922301981084_" class="st4" d="M-810.8-1304.6c-.2 0-.3-.2-.3-.4 0-.1.1-.2.1-.3.1-.6.3-1.2.7-1.8.1-.1.3-.2.4-.1.1.1.2.3.1.4-.3.4-.4 1-.6 1.5 0 .1-.1.2-.1.3 0 .4-.1.4-.3.4"/><path id="Fill-85_00000023961971625635959040000007250307865466450563_" class="st4" d="M-809.5-1304.5c-.2-.1-.3-.2-.3-.4 0-.1 0-.1.1-.2.1-.3.1-.5.3-.8.1-.1.3-.2.4-.1.1.1.2.3.1.4l-.3.6c0 .1 0 .1-.1.2.1.2-.1.3-.2.3"/><path id="Fill-87_00000016788184302910674480000007289251778902548146_" class="st4" d="M-817.7-1290.8c-.3 0-.6-.1-.8-.3-.5-.3-.7-.9-.9-1.3 0-.1-.1-.2-.1-.3-.7-1.5-1.1-3-1-4.5 0-.7.1-2.4 1.3-2.5.2 0 .3.1.3.3 0 .2-.1.3-.3.3-.6.1-.8 1-.8 1.9-.1 1.4.2 2.8.9 4.2.1.1.1.2.2.3.2.4.4.8.7 1.1.4.3.8.1 1 0 .4-.2.7-.8.7-1.2 0-.2.1-.3.3-.3.2 0 .3.1.3.3.1.7-.3 1.4-1 1.8-.3.1-.5.2-.8.2"/><path id="Fill-89_00000000211810012015086030000007143532126672685191_" class="st4" d="M-819.4-1287.4c-.9-.1-1.7-1-2.3-1.7l-.3-.3c-1.3-1.5-2.2-3-2.6-4.8 0-.1 0-.1-.1-.2-.2-.7-.4-1.6-.2-2.2.2-.4.7-.7 1.2-.9.1-.1.2-.1.3-.1.3-.2.6-.3 1-.5.7-.3 1.4-.7 1.9-1.1.1-.1.3-.1.4 0 .1.1.1.3 0 .4-.6.5-1.3.9-2 1.2-.3.2-.7.3-.9.5-.1.1-.2.1-.3.2-.3.1-.8.4-.9.6-.2.5 0 1.3.2 1.9 0 .1 0 .2.1.2.4 1.7 1.2 3.1 2.5 4.6l.3.3c.5.6 1.2 1.4 1.9 1.5.1 0 .3-.3.4-.5.1-.2.2-.3.3-.4.2-.2.4-.3.6-.5.7-.6 1.5-1.3 1.7-2 .1-.3 0-.7 0-1.1v-.3c0-.2.1-.3.3-.3.2 0 .3.1.3.3v.3c.1.4.1.9 0 1.3-.2.9-1.2 1.7-1.9 2.3-.2.2-.4.3-.6.5-.1.1-.1.2-.2.3-.4.1-.7.5-1.1.5"/><path id="Fill-91_00000119831071016263793270000008667551320626538682_" class="st4" d="M-778.4-1296.2c-.1 0-.2 0-.2-.1-.5-.5-.7-1.7-.7-2.3 0-.6.1-1.1.2-1.7.1-.7.3-1.3.2-2 0-.2-.1-.5-.1-.8-.2-1.5-.5-3.7-.2-4.7 0-.2.2-.2.4-.2s.2.2.2.4c-.2.9 0 3.1.2 4.5 0 .3.1.6.1.8.1.8-.1 1.5-.2 2.2-.1.5-.2 1-.2 1.6 0 .6.2 1.5.5 1.9.1.1.1.3 0 .4h-.2"/><path id="Fill-93_00000090979527318905730200000001259916927639445425_" class="st4" d="M-785-1302c-.1 0-.3-.1-.3-.2 0-.2.1-.3.2-.3.3-.1.4-.2.4-.2.1-.2 0-.6-.3-1.1-.2-.2-.5-.6-.8-.9-1-1-2.1-2.2-1.5-3.3.3-.6 1.3-.6 1.9-.4.9.5 2.1 1.2 3 2.4.2.3.4.7.6 1 .5.9 1.1 1.9 1.9 2.2.2.1.2.2.2.4-.1.2-.2.2-.4.2-1-.4-1.6-1.5-2.2-2.5-.2-.4-.4-.7-.6-1-.8-1.1-1.9-1.8-2.8-2.2-.3-.2-.9-.2-1.1.1-.4.7.6 1.8 1.4 2.6.4.4.7.7.9 1 .1.2.6 1 .3 1.6 0 .3-.3.5-.8.6"/><path id="Fill-95_00000147209627766550587120000002484268975185435290_" class="st4" d="M-786.8-1298.7c-.1 0-.2 0-.2-.1-.2-.2-1.7-1-2.3-1.2-.3-.1-.4-.2-.6-.3-.9-.4-1.8-.8-2.6-1.2-.5-.2-1.1-.5-1.6-.7-.1 0-.1-.1-.2-.1-.6-.3-1.3-.6-1.7-1.2-.3-.4-.2-.7-.1-.9.5-.8 2.5-.6 2.5-.6 2.9.3 5.4 1.3 7.9 2.5.1.1.2.2.1.4s-.2.2-.4.1c-2.5-1.1-4.9-2.1-7.7-2.4-.6-.1-1.8 0-2 .3 0 .1 0 .2.1.2.3.4 1 .7 1.5 1 .1 0 .1.1.2.1.5.2 1.1.5 1.6.7.9.4 1.8.7 2.7 1.2.1 0 .3.1.5.3 1.5.7 2.3 1.1 2.5 1.4.1.1.1.3 0 .4-.1 0-.1.1-.2.1"/><path id="Fill-97_00000081629927787712331940000003815739665869267849_" class="st4" d="M-788.3-1296.4c-.1 0-.1 0-.2-.1-.3-.2-.8-.4-1.3-.7-.3-.1-.6-.3-.8-.4-1.1-.6-2.3-1.2-3.4-1.7-.9-.4-1.9-.9-2.9-1.4-.6-.3-1.1-.9-1-1.5 0-.2.2-.6.8-.8.6-.2 1.3 0 1.9.2.1 0 .2 0 .2.1.6.2 1.2.3 2 .6.2 0 .2.2.2.4s-.2.2-.4.2c-.8-.2-1.4-.4-2-.6-.1 0-.2 0-.2-.1-.5-.1-1.2-.3-1.6-.2-.2.1-.4.2-.4.3 0 .3.3.7.7.9.9.5 1.9.9 2.8 1.4 1.2.5 2.3 1.1 3.5 1.7.2.1.5.2.8.4.5.2 1.1.5 1.4.7.1.1.2.3 0 .4.1.2 0 .2-.1.2"/><path id="Fill-99_00000016065058402629521810000009169424703250756256_" class="st4" d="M-784.1-1290.3c-.1 0-.2 0-.3-.1-.7-1.1-1.6-1.5-2.7-2-.5-.2-1-.5-1.6-.8-.8-.5-1.5-1.2-2.2-1.9-.7-.7-1.4-1.4-2.2-1.9-1.1-.7-2.2-1.3-3.2-2.3l-.1-.1c-.4-.4-.7-.8-.7-1.1 0-.2.1-.3.3-.3.2 0 .3.1.3.3 0 .2.4.6.6.7l.1.1c.9.9 2 1.6 3.1 2.2.9.5 1.6 1.3 2.3 2 .7.7 1.3 1.3 2.1 1.8.5.3 1 .5 1.5.8 1.1.5 2.2 1 3 2.3.1.1 0 .3-.1.4-.1-.1-.1-.1-.2-.1"/><path id="Fill-101_00000111913728487904233300000010261667572333906098_" class="st4" d="M-817.4-1335.4h-.2c-.6-.4-1.1-.9-1.5-1.4-2.3-2.6-1.3-5.5-.4-8.3.1-.4.2-.7.3-1.1.2-.7.3-1.5.4-2.2 0-.4.1-.8.2-1.2.2-1 .2-2.1.3-3.2.1-1.5.2-3 .5-4.4.9-3.6 2.2-6.7 3.7-9.1 2.1-3.3 4.6-5.2 7.5-5.7 1.5-.3 3-.3 4.2-.1.4.1.8.2 1.1.4.3.1.6.2.8.3.2 0 .3.2.2.4 0 .2-.2.3-.4.2-.3-.1-.7-.2-1-.3-.3-.1-.6-.3-1-.3-1.1-.2-2.6-.1-4 .1-2.7.5-5.1 2.3-7.1 5.5-1.5 2.3-2.7 5.3-3.6 8.9-.3 1.3-.4 2.8-.5 4.2-.1 1.1-.1 2.2-.3 3.3-.1.4-.1.8-.2 1.1-.1.8-.2 1.6-.4 2.3-.1.4-.2.7-.3 1.1-.9 2.7-1.7 5.3.3 7.7.4.5.8.9 1.4 1.3.1.1.2.3.1.4.1.1 0 .1-.1.1"/><g id="Group-105" transform="translate(39 83.28)"><defs><filter id="Adobe_OpacityMaskFilter" filterUnits="userSpaceOnUse" x="-841.9" y="-1377.3" width="2.7" height="25"><feColorMatrix values="1 0 0 0 0 0 1 0 0 0 0 0 1 0 0 0 0 0 1 0"/></filter></defs><mask maskUnits="userSpaceOnUse" x="-841.9" y="-1377.3" width="2.7" height="25" id="mask-4_00000068671878354538582210000003537359657235669668_"><g filter="url(#Adobe_OpacityMaskFilter)"><path id="path-3_00000158021405662589346990000001332936333099371703_" class="st2" d="M-841.9-1377.3h2.6v25h-2.6z"/></g></mask><path id="Fill-103_00000059288146461557828360000012937999632295840921_" d="M-841.8-1374.1v1.5c0 2 1.3 16.2 2 20.3h.6c-.6-3.9-1.9-18.6-2-20.3v-1.4c0-1 .1-2-.1-3 0-.2-.2-.3-.4-.2-.2 0-.3.2-.2.4.2.8.1 1.7.1 2.7" mask="url(#mask-4_00000068671878354538582210000003537359657235669668_)" fill-rule="evenodd" clip-rule="evenodd" fill="#463b39"/></g><path id="Fill-106" class="st4" d="M-790.3-1294.3h-1.1l-20.3-.4c-.7 0-1.2-.6-1.2-1.2v-.2s3-4.8 6.1-9.6c1.8-2.8 3.2-5 4.3-6.6 2.1-3.1 2.2-3.1 2.4-3.1l24.1 1c.7 0 1.2.6 1.2 1.2 0 .1 0 .1-.1.2 0 0-3.1 4.2-6.4 8.6-.1.1-.3.2-.4.1-.1-.1-.2-.3-.1-.4 3-4 5.8-7.9 6.3-8.5 0-.3-.3-.6-.6-.6l-24-1c-.9.9-7.8 11.7-12.3 18.9 0 .3.3.6.6.6l21.4.5c.2 0 .3.1.3.3.1.1 0 .2-.2.2"/><path id="Fill-108_00000136384526391538643900000001605528540543599236_" class="st4" d="M-812.4-1349.7c-.7 0-1.4-.1-2.2-.3-.2 0-.3-.2-.2-.4 0-.2.2-.3.4-.2 2.4.6 5 .1 7.1-1.5 1-.7 1.8-1.6 2.5-2.6l.2-.2c.3-.3.6-.7.8-1.1 1.3-1.7 2.8-3.7 4.9-3.7.2 0 .3.1.3.3 0 .2-.1.3-.3.3-1.8 0-3.3 1.9-4.4 3.5-.3.4-.6.8-.9 1.1l-.2.2c-.8.9-1.6 1.9-2.6 2.7-1.6 1.3-3.5 1.9-5.4 1.9"/><path id="Fill-110_00000137810423468725255340000014364611928216937364_" class="st4" d="M-803.5-1310.5c-.2 0-.3-.1-.3-.3 0-1 0-2.4-.1-3.7 0-1.3-.1-2.7-.1-3.7 0-.2.1-.3.3-.3.2 0 .3.1.3.3 0 1 0 2.4.1 3.7 0 1.3.1 2.6.1 3.7 0 .1-.2.3-.3.3"/><path id="Fill-112" class="st4" d="M-796.8-1347.2s-.1 0 0 0c-.3 0-.5-.2-.6-.4-.1-.1-.1-.3.1-.4.1-.1.3-.1.4.1l.1.1.1-.1c.1-.1.3-.1.4 0 .1.1.1.3 0 .4-.2.2-.4.3-.5.3"/><path id="Fill-114" class="st4" d="M-805.7-1347.5c-.1 0-.2 0-.3-.1-.2-.1-.3-.2-.4-.4-.1-.2 0-.3.2-.4.2-.1.3 0 .4.2h.3c.1-.1.3 0 .4.1.1.1 0 .3-.1.4-.1.2-.3.2-.5.2"/><path id="Fill-116" class="st4" d="M-825-1295.5c-.2 0-.3-.1-.3-.3 0-1.6-.7-3.1-1.3-4.6-.5-1.1-1-2.2-1.2-3.4 0-.2.1-.3.2-.4.2 0 .3.1.4.2.2 1.1.7 2.2 1.2 3.3.7 1.6 1.4 3.2 1.4 4.9-.1.2-.3.3-.4.3"/><path id="Fill-118" class="st4" d="M-825-1269.1c.2-.8.5-2.7.9-6.7.3-3.8.6-7.7.6-9.4 0-.2-.1-.3-.3-.3-.2 0-.3.1-.3.3 0 1.7-.3 5.5-.6 9.3-.4 4.5-.7 6.2-.9 6.8h.6z"/><path id="Fill-120" class="st4" d="M-781-1269.1h.6c-.8-2.2-2.7-14.3-2.9-16.4 0-.2-.2-.3-.3-.3-.2 0-.3.2-.3.3.2 1.1 2 13.4 2.9 16.4"/><path id="Fill-122" class="st4" d="M-790.7-1337.6h-1.2c-.2 0-.3-.1-.3-.3 0-.2.1-.3.3-.3h.8c.4 0 .8 0 1.2-.1.9-.3 1.5-1.5 1.8-2.6.3-1.3 0-2.9-.4-4.4-.2-.8-.4-1.7-.4-2.4-.1-.6-.1-1.3-.2-1.9-.4-5.1-.9-9.9-3.5-14.6-1.4-2.5-3.3-5.3-6.8-6.3-.2 0-.2-.2-.2-.4s.2-.2.4-.2c3.7 1.1 5.7 3.9 7.1 6.6 2.7 4.8 3.1 9.7 3.6 14.8.1.6.1 1.2.2 1.9s.2 1.5.4 2.4c.3 1.6.7 3.2.4 4.7-.3 1.1-1 2.5-2.1 3-.5.1-.8.1-1.1.1"/><path id="Fill-124" class="st4" d="M-810.9-1326.2c-.1 0-.3-.1-.3-.3-.3-2.3-1.3-4.2-2.3-6.2-.4-.7-.7-1.4-1.1-2.2-.1-.1 0-.3.1-.4.1-.1.3 0 .4.1.3.8.7 1.5 1.1 2.2 1 2.1 2 4 2.3 6.4.1.2 0 .4-.2.4"/><path id="Fill-126" class="st4" d="M-812.7-1338c-.1 0-.2 0-.2-.1-.1-.1-.1-.3 0-.4.8-.8.7-2.5.6-3.9 0-.4-.1-.8-.1-1.2 0-.2.1-.3.3-.3.2 0 .3.1.3.3 0 .3 0 .7.1 1.2.1 1.5.3 3.3-.8 4.4 0-.1-.1 0-.2 0"/><path id="Fill-128" class="st4" d="M-816-1333.6c-.2 0-.3-.2-.3-.3.2-1.2 1.2-2.1 2.1-2.8.3-.3.6-.5.9-.8.1-.1.3-.1.4 0 .1.1.1.3 0 .4-.3.3-.6.6-1 .9-.8.7-1.7 1.4-1.8 2.4 0 .1-.1.2-.3.2"/><path id="Fill-130" class="st4" d="M-816.2-1331.6c-.1 0-.2-.1-.3-.2-.2-.5-.6-.8-1-1.2-.6-.5-1.4-1.1-1.2-2.3 0-.2.2-.3.3-.3.2 0 .3.2.3.3-.1.8.4 1.2 1 1.7.5.4.9.8 1.2 1.4.1.2 0 .3-.2.4 0 .2-.1.2-.1.2"/><path id="Fill-132" class="st4" d="M-815.8-1329.8c-.1 0-.1 0 0 0-.2 0-.3-.2-.3-.3.1-.7.5-1.4.9-2 .3-.5.6-.9.8-1.4.1-.4 0-.7-.2-1.1-.1-.3-.3-.6-.2-1 0-.2.2-.3.3-.3.2 0 .3.2.3.3 0 .2.1.4.2.7.2.4.4.9.2 1.5s-.5 1.1-.8 1.5c-.4.6-.8 1.1-.8 1.7-.2.3-.3.4-.4.4"/><path id="Fill-134" class="st4" d="M-815.9-1328.7c-.1 0-.2-.1-.3-.2-.2-.4-.5-.7-.9-1-.6-.6-1.2-1.1-1.3-2 0-.4-.1-1.1.3-1.4.1-.1.3-.1.4.1.1.1.1.3-.1.4-.2.1-.1.6-.1.9.1.7.6 1.2 1.1 1.7.4.3.7.7 1 1.1.1.1 0 .3-.1.4.1 0 0 0 0 0"/><path id="Fill-136" class="st4" d="M-815.1-1327.5c-.2 0-.3-.2-.3-.3.1-.7.4-1.2.7-1.8.2-.4.4-.8.6-1.3.1-.4 0-.7-.1-1.1 0-.2-.1-.4-.1-.5 0-.2.1-.3.3-.3.2 0 .3.1.3.3 0 .2.1.3.1.5.1.4.2.9.1 1.4-.1.5-.4 1-.6 1.4-.3.5-.5 1-.6 1.6-.1 0-.3.1-.4.1"/><path id="Fill-138" class="st4" d="M-815.6-1326.4h-.1c-1.5-.7-2.1-2-1.9-3.9 0-.2.2-.3.3-.3.2 0 .3.2.3.3-.2 1.6.3 2.7 1.5 3.3.1.1.2.2.1.4 0 .2-.1.2-.2.2"/><path id="Fill-140" class="st4" d="M-814.3-1326h-.1c-.2-.1-.2-.2-.2-.4.1-.1.1-.3.2-.4.4-1.1.7-1.7.1-3-.1-.1 0-.3.1-.4.1-.1.3 0 .4.1.7 1.5.4 2.3-.1 3.5-.1.1-.1.3-.2.4 0 .1-.1.2-.2.2"/><path id="Fill-142" class="st4" d="M-814.6-1317.1c-.1 0-.2-.1-.3-.2-.1-.1 0-.3.1-.4.7-.4.6-1.2.5-1.5-.1-.5-.4-.8-.8-1.1-.3-.3-.6-.5-.9-1-.7-1.2-.4-2.3-.2-3.4.1-.4.2-.8.2-1.2 0-.2.2-.3.3-.3.2 0 .3.2.3.3-.1.4-.2.8-.2 1.2-.2 1-.5 1.9.1 2.9.2.3.4.6.7.8.4.4.9.7 1 1.5.2.9-.1 1.7-.8 2.1.1.3.1.3 0 .3"/><path id="Fill-144" class="st4" d="M-813.2-1315.8c-.2 0-.3-.2-.3-.3.1-.7.5-1.2.9-1.7.2-.3.5-.6.6-1 .2-.4.2-1.2 0-2-.2-.9-.6-1.7-1.3-2.5l-.3-.3c-.4-.5-1-1.1-.9-1.8 0-.2.2-.3.3-.3.2 0 .3.2.3.3-.1.5.3.9.7 1.4.1.1.2.2.3.4.7.9 1.1 1.8 1.4 2.8.1.6.3 1.6 0 2.4-.2.4-.5.8-.7 1.1-.4.5-.7.9-.8 1.5.1-.1 0 0-.2 0"/><path id="Fill-146" class="st4" d="M-793.2-1333.3c-.2 0-.3-.1-.3-.3-.1-.7-.1-1-.6-1.6-.1-.2-.4-.3-.6-.5-.4-.3-.7-.6-.9-1-.4-.9-.1-2 .2-2.9 0-.2.2-.2.4-.2s.2.2.2.4c-.2.8-.5 1.7-.2 2.5.1.3.4.5.7.8.2.2.5.4.7.6.6.7.6 1.1.7 1.9.1.1-.1.3-.3.3.1 0 0 0 0 0"/><path id="Fill-148" class="st4" d="M-792.7-1332.5s-.1 0 0 0c-.2-.1-.3-.2-.3-.4.2-.6.5-1.1.9-1.6.6-.9 1.1-1.8.6-2.9-.1-.2 0-.3.2-.4.2-.1.3 0 .4.2.6 1.4 0 2.4-.7 3.4-.3.5-.6 1-.8 1.5-.1.1-.2.2-.3.2"/><path id="Fill-150" class="st4" d="M-793.1-1330.6c-.2 0-.3-.1-.3-.3 0-.7-.5-1.1-1-1.6-.4-.4-.8-.8-1.1-1.3-.2-.5-.3-1.6.2-2 .1-.1.3-.1.4 0 .1.1.1.3 0 .4-.2.2-.2 1 0 1.4.2.4.5.8.9 1.1.5.5 1.2 1.1 1.2 2 0 .2-.1.3-.3.3"/><path id="Fill-152" class="st4" d="M-792.6-1329.5h-.2c-.1-.1-.2-.3-.1-.4.1-.2.2-.4.4-.6.8-1.3 1.7-2.7.9-4-.1-.1-.1-.3.1-.4.1-.1.3-.1.4.1 1.1 1.6 0 3.3-.9 4.7-.1.2-.3.4-.4.6 0-.1-.1 0-.2 0"/><path id="Fill-154" class="st4" d="M-793-1327.4c-.1 0-.2-.1-.3-.2-.2-.5-.5-.9-.8-1.3-.2-.3-.5-.7-.7-1.1-.4-.7-.4-1.7-.1-2.9 0-.2.2-.3.4-.2.2 0 .3.2.2.4-.3 1.1-.3 1.9 0 2.5.2.4.4.7.6 1 .3.4.6.9.8 1.4.1.2 0 .3-.2.4h.1"/><path id="Fill-156" class="st4" d="M-792.2-1327.1h-.2c-.1-.1-.2-.3-.1-.4.9-1.4 1.4-2.4.8-3.8-.1-.2 0-.3.2-.4.2-.1.3 0 .4.2.8 1.8 0 3-.9 4.4 0-.1-.1 0-.2 0"/><path id="Fill-158" class="st4" d="M-793.7-1320.3c-.1 0-.2-.1-.3-.2-.1-.2 0-.3.2-.4.3-.1.6-.3.6-.4.1-.4-.2-.9-.5-1.5-.3-.5-.5-.9-.6-1.4-.1-1 .2-1.6.6-2.4.1-.1.1-.2.2-.4.1-.1.3-.2.4-.1.1.1.2.3.1.4-.1.1-.1.3-.2.4-.4.7-.6 1.2-.5 2 0 .3.3.7.5 1.1.4.7.8 1.4.5 2-.1.4-.4.7-1 .9 0-.1 0 0 0 0"/><path id="Fill-160" class="st4" d="M-792.4-1317.6c-.1 0-.2 0-.2-.1-.4-.5 0-1.1.2-1.3.2-.2.4-.4.6-.7.5-.6 1.2-1.4 1.3-2 .1-1.2-.4-2.1-.9-3-.1-.1-.2-.2-.2-.4-.3-.5-.8-1.1-.4-1.8.1-.1.3-.2.4-.1.1.1.2.3.1.4-.2.3 0 .7.4 1.2.1.1.2.3.3.4.5 1 1.1 2 .9 3.3-.1.8-.8 1.6-1.4 2.3-.2.2-.4.5-.6.7-.2.3-.3.5-.2.6.1.1.1.3-.1.4-.1.1-.1.1-.2.1"/><path id="Fill-162" class="st4" d="M-793.7-1317.7c-.2 0-.3-.1-.3-.3 0-.8.2-1.3.7-1.9.1-.1.3-.1.4 0 .1.1.1.3 0 .4-.4.4-.6.8-.6 1.5.1.1 0 .3-.2.3"/><path id="Fill-164" class="st4" d="M-792.9-1355.3h-.1c-.7-.4-1.2-.9-1.8-1.4-.7-.7-1.4-1.3-2.3-1.5-.2 0-.3-.2-.2-.3 0-.2.2-.3.3-.2 1.1.2 1.9.9 2.6 1.6.5.5 1 1 1.6 1.3.1.1.2.3.1.4 0 .1-.1.1-.2.1"/><path id="Fill-166" class="st4" d="M-791-1345.8c-.2-.1-.3-.2-.3-.4.4-1.5-.5-2.7-1.5-4-.5-.6-.9-1.2-1.2-1.8-.3-.6-.4-1.3-.5-1.9 0-.2-.1-.3-.1-.5s.1-.3.2-.3c.2 0 .3.1.3.2 0 .2.1.4.1.5.1.6.2 1.2.5 1.7.3.6.7 1.1 1.2 1.7 1 1.3 2.1 2.7 1.6 4.5 0 .2-.1.3-.3.3"/><path id="Fill-168" class="st4" d="M-812.5-1348.3c-.1 0-.2-.1-.3-.2-.1-.2-.3-.3-.5-.4 0 0-.1 0-.1-.1-.1-.1-.2-.3-.1-.4.1-.1.3-.2.4-.1 0 0 .1 0 .1.1.3.2.6.4.7.7.1.2 0 .3-.2.4"/><path id="Fill-170" class="st4" d="M-766.9-1368.3c-.2 0-.3.1-.3.3v7.1c0 .2.1.3.3.3h7.4c.2 0 .3-.1.3-.3v-7.1c0-.2-.1-.3-.3-.3h-7.4zm7.4 8.3h-7.4c-.5 0-.9-.4-.9-.9v-7.1c0-.5.4-.9.9-.9h7.4c.5 0 .9.4.9.9v7.1c0 .5-.4.9-.9.9z"/><path id="Fill-172" class="st4" d="M-767.1-1347.6c-.2 0-.3.1-.3.3v7.1c0 .2.1.3.3.3h7.4c.2 0 .3-.1.3-.3v-7.1c0-.2-.1-.3-.3-.3h-7.4zm7.4 8.3h-7.4c-.5 0-.9-.4-.9-.9v-7.1c0-.5.4-.9.9-.9h7.4c.5 0 .9.4.9.9v7.1c.1.5-.4.9-.9.9z"/><path id="Fill-174" class="st4" d="M-766.8-1329.6c-.2 0-.3.1-.3.3v7.1c0 .2.1.3.3.3h7.4c.2 0 .3-.1.3-.3v-7.1c0-.2-.1-.3-.3-.3h-7.4zm7.4 8.3h-7.4c-.5 0-.9-.4-.9-.9v-7.1c0-.5.4-.9.9-.9h7.4c.5 0 .9.4.9.9v7.1c0 .5-.4.9-.9.9z"/><g id="Group-178" transform="translate(75 .28)"><defs><filter id="Adobe_OpacityMaskFilter_00000047059648693278796430000004661992655575216568_" filterUnits="userSpaceOnUse" x="-841.3" y="-1376.6" width="10.3" height="14.3"><feColorMatrix values="1 0 0 0 0 0 1 0 0 0 0 0 1 0 0 0 0 0 1 0"/></filter></defs><mask maskUnits="userSpaceOnUse" x="-841.3" y="-1376.6" width="10.3" height="14.3" id="mask-6_00000147187223910578092130000012309329988565522600_"><g filter="url(#Adobe_OpacityMaskFilter_00000047059648693278796430000004661992655575216568_)"><path id="path-5_00000067925050747266652070000001220361933296457351_" class="st2" d="M-841.3-1376.6h10.3v14.3h-10.3z"/></g></mask><path id="Fill-176" d="M-838.2-1362.3c-.9 0-1.6-.9-2.2-2-.1-.1-.1-.2-.2-.3 0-.1-.1-.1-.2-.2-.2-.2-.4-.5-.6-.9-.1-.4.1-.9.5-1.1.3-.1.6 0 .8.1.2-.2.6-.2.8 0 .4.2.6.5.8.8h.1c.2-.5.5-.9.7-1.4l.2-.4c.6-1.2 1.2-2.4 1.8-3.5.4-.7.8-1.4 1.1-2.1l.3-.6c.3-.7.7-1.5 1.3-2.1l.2-.2c0-.1.1-.1.1-.2.2-.4.7-.5 1.1-.3.4.2.5.7.3 1.1-.2.4-.5.8-.6 1.2-.1.2-.2.4-.3.7-.2.5-.4.9-.5 1.4-.3.8-.6 1.7-1 2.5-.1.2-.2.3-.2.5-.5 1-1 2-1.6 3-.1.4-.3.8-.4 1.1-.4.9-.4 1-.9 1.7l-.1.2c-.2.4-.6.9-1.3 1 .1 0 .1 0 0 0" mask="url(#mask-6_00000147187223910578092130000012309329988565522600_)" fill-rule="evenodd" clip-rule="evenodd" fill="#a3db76"/></g><path id="Fill-179" d="M-762.9-1341.2c-.9 0-1.6-.9-2.2-2-.1-.1-.1-.2-.2-.3 0-.1-.1-.1-.2-.2-.2-.2-.4-.5-.6-.9-.2-.4.1-.9.5-1.1.3-.1.6 0 .8.1.2-.2.6-.2.8 0 .4.2.6.5.8.8h.1c.2-.5.5-.9.7-1.4l.2-.4c.6-1.2 1.2-2.4 1.8-3.5.4-.7.8-1.4 1.1-2.1l.3-.6c.3-.7.7-1.5 1.3-2.1l.2-.2c0-.1.1-.1.1-.2.2-.4.7-.5 1.1-.3.4.2.5.7.3 1.1-.2.4-.5.8-.6 1.2-.1.2-.2.4-.3.7-.2.5-.4.9-.5 1.4-.3.8-.6 1.7-1 2.5-.1.2-.2.3-.2.5-.5 1-1 2-1.6 3-.1.4-.3.8-.4 1.1-.4.9-.4 1-.9 1.7l-.1.2c-.3.4-.7 1-1.3 1" fill-rule="evenodd" clip-rule="evenodd" fill="#a3db76"/><path id="Fill-181" class="st2" d="M-804.5-1341.1s.5 2.2 2.4 2.1c1.6-.1 2.3-2.2 2.3-2.2s-1 0-2.1.1c-1.2.1-2.6 0-2.6 0"/><path id="Fill-183" d="M-802-1340.8h-2.1c.2.6.8 1.7 2 1.6 1 0 1.6-1.1 1.9-1.6h-1.8m-2.6-.2v-.2c.1 0 .1-.1.2-.1 0 0 1.3 0 2.4.1 1.2 0 2.1-.1 2.1-.1.1 0 .2 0 .2.1v.2c0 .1-.8 2.3-2.5 2.3h-.4c-1.2-.1-1.9-1.6-2-2.3" fill-rule="evenodd" clip-rule="evenodd" fill="#2f3541"/></g></svg>