<?xml version="1.0" encoding="utf-8"?>
<!-- Generator: Adobe Illustrator 25.4.1, SVG Export Plug-In . SVG Version: 6.00 Build 0)  -->
<svg version="1.1" id="Layer_1" xmlns="http://www.w3.org/2000/svg" xmlns:xlink="http://www.w3.org/1999/xlink" x="0px" y="0px"
	 viewBox="0 0 750 320" style="enable-background:new 0 0 750 320;" xml:space="preserve">
<style type="text/css">
	.st0{fill:#333D5A;}
	.st1{fill-rule:evenodd;clip-rule:evenodd;fill:#2AB8C3;}
	.st2{fill-rule:evenodd;clip-rule:evenodd;fill:#FFFFFF;}
</style>
<g>
	<path class="st0" d="M72.5,0h605c39.7,0,71.9,24.7,71.9,55.3v209.4c0,30.6-32.2,55.3-71.9,55.3h-605c-39.7,0-71.9-24.7-71.9-55.3
		V55.4C0.6,24.7,32.8,0,72.5,0z"/>
	<g id="propensio_web">
		<g id="propensio_home">
			<g id="propensio_logo_rev">
				<polygon id="Fill-1" class="st1" points="110.5,150.8 94.6,141.7 94.6,160.1 94.6,178.5 110.5,169.3 126.5,160.1 				"/>
				<polygon id="Fill-2" class="st2" points="57.7,242.4 76.2,231.7 76.2,210.4 76.2,191 76.2,109.7 163.4,160.1 94.6,199.8 
					94.6,221.1 200.3,160.1 57.7,77.7 				"/>
				<path id="Fill-3" class="st2" d="M252.4,155.3c7.4,0,11.1-3.1,11.1-9.4c0.3-2.8-0.8-5.5-2.9-7.3c-2.4-1.5-5.3-2.2-8.1-2.1h-10.1
					v18.8H252.4z M229.2,125.6h25.3c6-0.3,11.8,1.6,16.4,5.4c4.2,3.8,6.4,9.3,6.1,15c0.4,5.7-1.9,11.2-6.1,15.1
					c-4.6,3.7-10.5,5.6-16.4,5.3h-12.2v19.6h-13.1V125.6z"/>
				<path id="Fill-5" class="st2" d="M282.9,144.4h12.6v6c1.9-2.2,4.3-3.7,7-4.6c3.3-1.2,6.7-1.7,10.2-1.6v10
					c-3.6-0.1-7.1,0.5-10.5,1.8c-2.8,0.9-5.2,2.9-6.5,5.6v24.4h-13.1L282.9,144.4z"/>
				<path id="Fill-7" class="st2" d="M348.4,173.7c2.1-2.3,3.2-5.4,3.1-8.6c0.2-3.2-0.9-6.3-3.1-8.6c-2.3-2.1-5.3-3.2-8.4-2.9
					c-3.1-0.2-6.2,1-8.4,3.1c-4.3,4.9-4.3,12.3,0,17.2c4.7,4.4,12,4.4,16.8,0 M326.8,184.6c-3.6-1.7-6.6-4.3-8.7-7.7
					c-4.1-7.2-4.1-16,0-23.1c2.1-3.4,5.1-6.1,8.7-7.7c8.3-3.7,17.9-3.7,26.2,0c3.6,1.6,6.6,4.2,8.8,7.4c4,7.2,4,15.9,0,23.1
					c-2.1,3.3-5.1,6-8.7,7.7c-4.1,1.9-8.6,2.8-13.1,2.7c-4.5,0.1-9-0.8-13.1-2.7"/>
				<path id="Fill-9" class="st2" d="M462.1,161.3c0-2.5-1.1-4.9-3.1-6.5c-2.3-1.6-5.1-2.4-7.9-2.3c-2.8-0.2-5.6,0.7-7.8,2.4
					c-1.9,1.6-3.1,4-3.1,6.5L462.1,161.3z M434.7,181.4c-4.5-4.1-6.9-10-6.5-16.1c-0.3-6,1.9-11.9,6.1-16.2c4.8-4.2,11.1-6.4,17.4-6
					c4.4-0.1,8.7,0.9,12.6,2.8c3.1,1.8,5.7,4.4,7.3,7.6c1.8,3.4,2.7,7.2,2.7,11v5.3h-33.9c0.9,5.2,5.8,7.9,14.9,7.9
					c2.7,0,5.5-0.3,8.2-0.7c2.5-0.4,5-1,7.3-1.9v9.2c-2.5,1-5.1,1.7-7.8,2c-3.1,0.5-6.3,0.8-9.5,0.8
					C446.7,187.5,440,185.5,434.7,181.4z"/>
				<path id="Fill-11" class="st2" d="M481.7,144.4h12.6v5.1c1.8-2.1,4-3.7,6.5-4.8c2.6-1.1,5.4-1.6,8.3-1.6
					c4.7-0.3,9.3,1.3,12.6,4.6c2.9,3.4,4.4,7.7,4.2,12.2v26.2h-13.1v-24.8c0-5.3-2.5-8-7.4-8c-2.2,0-4.3,0.5-6.2,1.6
					c-2,1.1-3.6,2.8-4.8,4.7v26.2h-13.1L481.7,144.4z"/>
				<path id="Fill-13" class="st2" d="M541.8,186.3c-2.9-0.4-5.7-1.4-8.3-2.8v-10.3c2.6,1.5,5.4,2.6,8.3,3.3c2.9,0.8,5.9,1.3,9,1.3
					c1.7,0.1,3.5-0.1,5.2-0.6c1-0.3,1.7-1.2,1.6-2.2c-0.1-0.7-0.4-1.3-0.9-1.8c-0.9-0.6-1.9-1.1-2.9-1.4l-6.5-2
					c-2.8-0.8-5.6-1.8-8.3-3.1c-1.8-0.9-3.4-2.3-4.5-4c-1.1-2-1.6-4.3-1.5-6.5c-0.2-3.9,1.8-7.7,5.2-9.7c4.2-2.4,9-3.5,13.9-3.3
					c3,0,6,0.3,9,0.9c2.5,0.4,4.9,1.2,7.1,2.4v9.9c-2-1.3-4.2-2.2-6.5-2.7c-2.5-0.7-5.2-1-7.8-1c-1.9-0.1-3.7,0.2-5.5,0.7
					c-1.2,0.3-2,1.3-2,2.6c0,1.2,0.8,2.2,1.9,2.6c2.3,0.9,4.6,1.6,6.9,2.2l1.7,0.4c2.9,0.7,5.8,1.8,8.4,3.3c1.8,0.9,3.3,2.4,4.3,4.2
					c0.9,1.9,1.4,4,1.3,6.2c0.1,3.7-1.8,7.2-5,9.1c-4.3,2.5-9.2,3.7-14.2,3.4c-3.3,0-6.7-0.4-10-1"/>
				<path id="Fill-15" class="st2" d="M578.9,185.9H592v-41.5h-13.1V185.9z M580.3,136c-1.4-1.3-2.1-3.1-2.1-5c0-1.9,0.7-3.7,2.1-5
					c2.9-2.7,7.3-2.7,10.2,0c1.4,1.3,2.1,3.1,2,5c0.1,1.9-0.7,3.7-2,5C587.7,138.7,583.2,138.7,580.3,136z"/>
				<path id="Fill-17" class="st2" d="M633.1,173.7c2.2-2.3,3.3-5.4,3.1-8.6c0.2-3.2-0.9-6.3-3.1-8.6c-2.3-2.1-5.3-3.2-8.4-2.9
					c-3.1-0.2-6.2,1-8.5,3.1c-2.1,2.4-3.2,5.5-3.1,8.6c-0.2,3.2,1,6.3,3.1,8.6c2.2,2.2,5.3,3.4,8.4,3.3c3.1,0.1,6.1-1,8.3-3.3
					 M611.6,184.6c-3.6-1.7-6.6-4.3-8.7-7.7c-2.1-3.5-3.2-7.6-3.1-11.7c-0.1-4,1-8,3.1-11.5c2.1-3.4,5.1-6.1,8.7-7.7
					c8.3-3.8,17.9-3.8,26.2,0c3.6,1.6,6.6,4.1,8.7,7.4c4.1,7.2,4.1,16,0,23.1c-2.1,3.3-5.1,6-8.6,7.7c-8.4,3.6-17.8,3.6-26.2,0"/>
				<path id="Fill-18" class="st2" d="M405.6,173.7c-2.3,2.2-5.4,3.4-8.6,3.3c-2.6,0-5.1-0.7-7.3-2.2c-2.1-1.4-3.7-3.4-4.6-5.8v-7.9
					c0.9-2.3,2.5-4.3,4.6-5.7c2.2-1.4,4.7-2,7.3-2c3.2-0.1,6.3,1,8.6,3.2c2.3,2.2,3.5,5.3,3.3,8.5c0.1,3.2-1.1,6.4-3.3,8.6
					 M419.5,153.5c-1.8-3.2-4.5-5.9-7.7-7.7c-3.5-1.9-7.4-2.8-11.4-2.8c-5.7-0.2-11.3,2-15.5,5.9v-4.6h-12.6v66.8l13.1-7.5v-21.5
					c1.9,1.7,4.1,2.9,6.5,3.7c2.7,0.8,5.5,1.3,8.4,1.2c4,0.1,7.9-0.9,11.4-2.8c3.3-1.8,6-4.6,7.7-7.9c3.8-7.2,3.8-15.8,0-23"/>
				<polygon id="Fill-19" class="st1" points="432.8,205.4 450.1,205.4 450.1,209.2 437.5,209.2 437.5,216.4 446.8,216.4 
					446.8,219.9 437.5,219.9 437.5,230.9 432.8,230.9 				"/>
				<polygon id="Fill-20" class="st1" points="464,230.9 468.7,230.9 468.7,205.4 464,205.4 				"/>
				<polygon id="Fill-21" class="st1" points="484,205.4 488.4,205.4 500.3,223.2 500.3,205.4 505,205.4 505,230.9 500.6,230.9 
					488.7,213 488.7,230.9 484,230.9 				"/>
				<path id="Fill-22" class="st1" d="M536.2,221.2l-4.1-10.9l-4.1,10.9H536.2z M529.7,205.3h4.5l10.2,25.6h-4.7l-2.4-5.9h-10.9
					l-2.3,5.9h-4.7L529.7,205.3z"/>
				<polygon id="Fill-23" class="st1" points="559.2,205.4 563.6,205.4 575.6,223.2 575.6,205.4 580.2,205.4 580.2,230.9 
					575.8,230.9 563.9,213 563.9,230.9 559.2,230.9 				"/>
				<path id="Fill-24" class="st1" d="M601.4,229.8c-2-1-3.7-2.7-4.8-4.6c-1.2-2.1-1.8-4.6-1.7-7c0-2.5,0.5-4.9,1.7-7.1
					c1.2-2,2.8-3.6,4.8-4.6c2.2-1.1,4.7-1.7,7.1-1.6c3.1-0.1,6.2,0.8,8.8,2.6v4.4c-2.4-1.9-5.4-2.8-8.4-2.7c-1.7,0-3.4,0.3-4.9,1.1
					c-1.4,0.7-2.6,1.8-3.3,3.1c-0.8,1.5-1.2,3.2-1.2,4.8c0,1.7,0.4,3.4,1.2,4.8c0.8,1.3,1.9,2.4,3.3,3.1c1.5,0.8,3.2,1.1,4.9,1.1
					c1.6,0,3.3-0.2,4.8-0.7c1.4-0.5,2.7-1.2,3.9-2.2v4.5c-2.6,1.9-5.9,2.8-9.1,2.6C606.1,231.5,603.6,230.9,601.4,229.8"/>
				<polygon id="Fill-25" class="st1" points="632.3,205.4 649.6,205.4 649.6,209.2 637,209.2 637,216.2 646.3,216.2 646.3,220.1 
					637,220.1 637,227.1 649.6,227.1 649.6,230.9 632.3,230.9 				"/>
			</g>
		</g>
	</g>
</g>
</svg>
