<?xml version="1.0" encoding="utf-8"?>
<!-- Generator: Adobe Illustrator 25.4.1, SVG Export Plug-In . SVG Version: 6.00 Build 0)  -->
<svg version="1.1" id="Layer_2" xmlns="http://www.w3.org/2000/svg" xmlns:xlink="http://www.w3.org/1999/xlink" x="0px" y="0px"
	 viewBox="0 0 750 320" style="enable-background:new 0 0 750 320;" xml:space="preserve">
<style type="text/css">
	.st0{fill:#FFB3C7;}
	.st1{fill:#0A0B09;}
</style>
<g>
	<path class="st0" d="M142.3,0h465.5C638.3,0,663,24.7,663,55.3v209.4c0,30.6-24.7,55.3-55.3,55.3H142.3
		c-30.6,0-55.3-24.7-55.3-55.3V55.3C87,24.7,111.7,0,142.3,0z"/>
	<path class="st1" d="M609.2,186c-7.5,0-13.7,6.1-13.7,13.7c0,7.6,6.1,13.7,13.7,13.7s13.7-6.1,13.7-13.7
		C622.8,192.2,616.7,186,609.2,186z M564.3,175.4c0-10.4-8.8-18.8-19.7-18.8s-19.7,8.4-19.7,18.8c0,10.4,8.8,18.8,19.7,18.8
		S564.3,185.8,564.3,175.4z M564.4,138.7h21.7V212h-21.7v-4.7c-6.1,4.2-13.6,6.7-21.6,6.7c-21.2,0-38.3-17.3-38.3-38.6
		s17.1-38.6,38.3-38.6c8,0,15.4,2.5,21.6,6.7V138.7z M390.4,148.2v-9.5h-22.3V212h22.3v-34.2c0-11.5,12.4-17.7,21-17.7h0.2v-21.4
		C402.8,138.7,394.8,142.6,390.4,148.2L390.4,148.2z M334.9,175.4c0-10.4-8.8-18.8-19.7-18.8c-10.9,0-19.7,8.4-19.7,18.8
		c0,10.4,8.8,18.8,19.7,18.8C326.1,194.3,334.9,185.8,334.9,175.4z M335,138.7h21.7V212H335v-4.7c-6.1,4.2-13.5,6.7-21.6,6.7
		c-21.2,0-38.3-17.3-38.3-38.6s17.1-38.6,38.3-38.6c8,0,15.4,2.5,21.6,6.7V138.7z M465.9,136.7c-8.7,0-16.9,2.7-22.4,10.2v-8.2
		h-21.7V212h21.9v-38.5c0-11.1,7.4-16.6,16.3-16.6c9.5,0,15.1,5.8,15.1,16.4V212h21.7v-46.6C496.8,148.3,483.4,136.7,465.9,136.7
		L465.9,136.7z M243.4,212h22.7V106.1h-22.7V212z M143.5,212h24.1V106h-24.1L143.5,212L143.5,212z M227.8,106.1
		c0,23-8.8,44.3-24.7,60.1l33.3,45.9h-29.8l-36.2-49.9l9.4-7.1c15.5-11.7,24.3-29.6,24.3-49.1H227.8z"/>
</g>
</svg>
