<svg version="1.1" id="Layer_1" xmlns="http://www.w3.org/2000/svg" x="0" y="0" viewBox="0 0 140 160" xml:space="preserve" enable-background="new 0 0 140 160"><style>.st1,.st2,.st3,.st6,.st9{fill-rule:evenodd;clip-rule:evenodd;fill:#002f57}.st2,.st3,.st6,.st9{fill:#ffe1c7}.st3,.st6,.st9{fill:#fff}.st6,.st9{fill:#332e3c}.st9{fill:#2ab8c3}</style><g id="Group-112" transform="translate(618 1412)"><path id="Fill-1" d="m-576.2-1348.4.5-.6 1.1-.3 53.9.1.7.3.3 1v30.6l14.6 15.2s0 .7-.3.9c-.3.3-.9.2-.9.2h-83.5s-.6-.1-.8-.5c-.2-.4-.1-1-.1-1l14.5-14.9v-31z" fill-rule="evenodd" clip-rule="evenodd" fill="#cfd3dc"/><path id="Fill-3" class="st1" d="m-575.2-1346.8.6-.5h53.5l.4.5v27.3l-.5.5-53.6-.1-.4-.4z"/><path id="Fill-5" class="st2" d="M-506.4-1354c.6-.2 1.2-.1 1.5.2.4.5.3 1.1.4 2.5 0 .8.2 2 .3 3.1.1.9.8 2.6.9 3.5.2 1.2.6 2.5.9 3.6.3 1 .7 1.8 1.2 2.7.9 1.8 2.2 3.6 3.1 4.9 1.2 1.8 2.1 3.1 3.1 3.9.8.8 1.9 1.2 1.9 1.2l-2.5 6-2.2 5.4s-.4-.2-.9-.3c-.9-.2-2.3-.4-3.2-.9-2.3-1.2-5.2-3.2-5.2-3.2s-.7.9-1.8 1.3c-.6.2-1.4.2-2 .1-.6-.1-1.4-.3-1.8-.7-.9-.8-1.1-2.1-1.1-2.1s-1.5-.3-2.1-1.4c-.3-.5-.5-1.3-.4-1.9 0-.7.3-1.2.3-1.2s-.7-.4-1-1.5c-.3-1.1-.1-3-.1-3s-.8-.5-1.2-1.7c-.2-.8-.3-2.3.5-3 2-1.9 8.9-3 8.9-3s.7-2.4.9-4.3c.2-1.4-.4-3-.6-4.4-.2-1.2 0-2.2.3-3.2.4-1.1 1.2-2.4 1.9-2.6"/><path id="Fill-7" class="st3" d="M-496.3-1324.2c.8-1.6 2-3.1 2.9-3.8.8-.7 1.2-.7 1.2-.7l3.6 2.1-6.1 12.5s-.7-.6-1.4-1c-.7-.5-1.6-.8-1.7-1.1-.3-1.2-.2-2.2 0-3.2.3-1.8.9-3.5 1.5-4.8"/><path id="Fill-9" class="st1" d="m-487.4-1327 9.2 4.2s.9 4.6-1.7 9.5c-3 5.5-6.9 6.7-6.9 6.7s-4.1-2.9-7.2-5.5c-.6-.5-.6-1.4-.6-2.5.2-2.7 1.9-6.7 3.6-9.2 1.1-1.6 2.3-2.6 2.9-2.9.5-.4.7-.3.7-.3"/><path id="Fill-11" class="st2" d="M-589.7-1353.8c-.6-.2-1.2-.1-1.5.2-.4.5-.3 1.1-.4 2.5 0 .8-.2 2-.3 3.1-.1.9-.8 2.6-.9 3.5-.2 1.2-.6 2.5-.9 3.6-.3 1-.7 1.8-1.2 2.7-.9 1.8-2.2 3.6-3.1 4.9-1.2 1.8-2.1 3.1-3.1 3.9-.8.8-1.9 1.2-1.9 1.2l2.5 6 2.2 5.4s.4-.2.9-.3c.9-.2 2.3-.4 3.2-.9 1.4-.7 2.8-1.7 3.9-2.5.7-.5 1.3-.9 1.3-.9s.8.9 1.9 1.3c.6.2 1.3.2 1.8.1.6-.1 1.4-.3 1.8-.7.9-.8 1.1-2.1 1.1-2.1s1.5-.3 2.1-1.4c.3-.5.5-1.3.4-1.9 0-.7-.3-1.2-.3-1.2s.7-.4 1-1.5c.3-1.1.1-3 .1-3s.8-.5 1.2-1.7c.2-.8.3-2.3-.5-3-2-1.9-8.9-3-8.9-3s-.7-2.4-.9-4.3c-.2-1.4.4-3 .6-4.4.2-1.2 0-2.2-.3-3.2-.2-1-1-2.2-1.8-2.4"/><path id="Fill-13" class="st3" d="M-599.8-1324c-.8-1.6-2-3.1-2.9-3.8-.8-.7-1.2-.7-1.2-.7l-3.6 2.1 6.1 12.5s.7-.6 1.4-1c.7-.5 1.6-.8 1.7-1.1.3-1.2.2-2.1 0-3.2-.3-1.8-.9-3.5-1.5-4.8"/><g id="Group-17" transform="translate(0 47.13)"><defs><filter id="Adobe_OpacityMaskFilter" filterUnits="userSpaceOnUse" x="-618" y="-1373.9" width="16.6" height="20.3"><feColorMatrix values="1 0 0 0 0 0 1 0 0 0 0 0 1 0 0 0 0 0 1 0"/></filter></defs><mask maskUnits="userSpaceOnUse" x="-618" y="-1373.9" width="16.6" height="20.3" id="mask-2_00000089568593391990021800000005588101077506240926_"><g filter="url(#Adobe_OpacityMaskFilter)"><path id="path-1_00000036949342752499847680000003212916998691318957_" class="st3" d="M-618-1373.9h16.6v20.3H-618z"/></g></mask><path id="Fill-15" d="m-608.6-1373.9-9.2 4.2s-.9 4.6 1.7 9.5c3 5.5 6.9 6.7 6.9 6.7s4.1-2.9 7.2-5.5c.6-.5.6-1.4.6-2.5-.2-2.7-1.9-6.7-3.6-9.2-1.1-1.6-2.3-2.6-2.9-2.9-.5-.4-.7-.3-.7-.3" mask="url(#mask-2_00000089568593391990021800000005588101077506240926_)" fill-rule="evenodd" clip-rule="evenodd" fill="#002f57"/></g><path id="Fill-18" class="st6" d="M-576.2-1317.2c-.1 0-.2-.1-.2-.2v-30.3c0-.3 0-.9.4-1.3.5-.5 1.4-.4 1.5-.4h53.3c.1 0 .9 0 1.3.5s.4 1.2.4 1.3v30.3c0 .1-.1.2-.2.2s-.2-.1-.2-.2v-30.3s0-.6-.3-1c-.2-.3-.7-.3-.9-.3h-53.3c-.2 0-.8 0-1.1.3-.3.3-.3.7-.3 1v30.3c-.2 0-.3.1-.4.1"/><path id="Fill-20" class="st6" d="M-590.1-1301.6c-.2 0-.7 0-.7-.4-.1-.3.1-.6.2-.7l14.4-14.9c.1-.1.2-.1.3 0 .1.1.1.2 0 .3l-14.4 14.9-.1.2c.1 0 .2.1.4 0h84.5s.1 0 .1-.1v-.1c-.1-.1 0-.3.1-.3.1-.1.3 0 .3.1.1.2.1.4 0 .5-.1.2-.4.3-.4.3H-590c0 .2-.1.2-.1.2"/><path id="Fill-22" class="st6" d="M-519.8-1317.2h-56.4c-.1 0-.2-.1-.2-.2s.1-.2.2-.2h56.4c.1 0 .2.1.2.2.1.1 0 .2-.2.2"/><path id="Fill-24" class="st6" d="M-560.1-1303.3h22.8l-2.2-4.2h-18.7l-1.9 4.2zm23.2.5h-23.5c-.1 0-.2 0-.2-.1v-.2l2.1-4.7c0-.1.1-.1.2-.1h18.9c.1 0 .2 0 .2.1l2.4 4.7v.2c0 .1-.1.1-.1.1z"/><path id="Fill-26" class="st6" d="M-575-1346.5c0 .1.1.1 0 0v26.6c0 .1 0 .3.1.4.1.1.2.1.3.1l53.2.1c.1 0 .3 0 .4-.1.1-.1.1-.3.1-.4v-26.7c0-.1 0-.4-.1-.5-.1-.1-.2-.1-.3-.1h-53c-.1 0-.4 0-.5.1-.2.2-.2.4-.2.5zm53.7 27.7c-.1 0-.1 0 0 0l-53.3-.1s-.4 0-.6-.3c-.2-.2-.2-.6-.2-.7v-26.5c0-.2 0-.6.2-.9.3-.3.8-.3.9-.3h53s.5 0 .7.3c.2.3.2.7.2.8v26.7s0 .5-.2.7c-.3.3-.6.3-.7.3z"/><path id="Fill-28" class="st6" d="M-506.3-1300.8h-82.8c-.7 0-1.1-.1-1.4-.4-.4-.4-.3-1-.3-1 0-.1.1-.2.3-.2.1 0 .2.1.2.3 0 0-.1.4.2.6.2.2.4.3 1.1.3h82.7c.6 0 .7-.1.8-.1.2-.1.4-.3.4-.5v-.2c-.4-.6-9.8-10.2-14.6-15.2-.1-.1-.1-.2 0-.3.1-.1.2-.1.3 0 .6.6 14.1 14.6 14.7 15.3.1.1.2.3.1.6-.1.4-.4.7-.6.8h-1.1"/><path id="Fill-30" class="st6" d="M-581.5-1309h67.1l-6.3-7.1h-54.5l-6.3 7.1zm67.6.5H-582c-.1 0-.2-.1-.2-.1v-.2l6.7-7.5s.1-.1.2-.1h54.7c.1 0 .1 0 .2.1l6.7 7.5c.1.1.1.2 0 .3 0-.1-.1 0-.2 0z"/><path id="Fill-32" class="st6" d="M-593.4-1322.4c-.1 0-.1 0-.2-.1s0-.2 0-.3c3.2-2.3 5.1-7.5 5.4-8.5.5-1.6 1.1-4.2.8-7-.2-1.7-.4-2.5-.5-3.2-.1-.5-.2-.9-.3-1.5-.2-1.4.1-2.8.3-4 .1-.3.1-.5.1-.8.2-1.2.3-2.5-.5-4.3-.5-1.1-1.2-1.6-1.6-1.7-.4-.1-.8-.2-1.1 0-.4.2-.4 1.3-.5 2.4 0 .6 0 1.2-.1 1.7-.1 1.3-.5 2.8-.9 4.3-.1.6-.3 1.1-.4 1.7-.1.2-.1.5-.2.7-.2 1.1-.5 2.3-1.2 3.7-.8 1.7-2.6 4.4-4 6.4-.2.3-.3.5-.5.7-1.1 1.6-2 2.9-4.2 3.9-.1 0-.2 0-.2-.1s0-.2.1-.2c2.1-.9 3-2.2 4-3.7.2-.2.3-.5.5-.7 1.4-1.9 3.1-4.6 4-6.3.7-1.4 1-2.6 1.2-3.6.1-.3.1-.5.2-.7.1-.6.3-1.2.4-1.7.4-1.5.8-3 .9-4.3.1-.5.1-1.1.1-1.7 0-1.3.1-2.5.7-2.8.4-.2.9-.2 1.4 0 .8.3 1.4 1 1.8 1.9.8 1.9.7 3.3.5 4.5 0 .2-.1.5-.1.8-.2 1.2-.5 2.6-.3 3.9.1.6.2 1 .3 1.5.2.8.4 1.5.6 3.3.3 2.9-.3 5.5-.8 7.1-.3 1-2.2 6.3-5.5 8.7h-.2"/><path id="Fill-34" class="st6" d="M-584-1329.9c-.9 0-2.1-.2-4-.8-.1 0-.2-.1-.1-.2 0-.1.1-.2.2-.1 3.6 1.1 4.7.8 5.9.4l.2-.1c1.4-.5 3-1.2 3.4-1.8.4-.7 1-2.7 0-3.8-1-1-4.1-2-8.8-2.9-.1 0-.2-.1-.2-.2s.1-.2.2-.2c3.3.6 7.6 1.6 9 3 1.3 1.3.5 3.6.1 4.2-.5.7-2.2 1.5-3.6 1.9l-.2.1c-.5.3-1.1.5-2.1.5"/><path id="Fill-36" class="st6" d="M-585.4-1333.7c-.5 0-1 0-1.7-.1-.1 0-.2-.1-.2-.2s.1-.2.2-.2c1.1.1 1.8.1 2.8 0 .6 0 1-.3 1.7-.8.4-.3.9-.6 1.6-1 .1-.1.2 0 .3.1.1.1 0 .2-.1.3-.7.4-1.2.7-1.6 1-.7.5-1.2.8-1.9.9h-1.1"/><path id="Fill-38" class="st6" d="M-584.2-1333.9c-.1 0-.2-.1-.2-.2.1-.7-.1-1.4-.6-2.1-.1-.1 0-.2.1-.3.1-.1.2 0 .3.1.5.8.7 1.6.6 2.3 0 .1-.1.2-.2.2"/><path id="Fill-40" class="st6" d="M-583.9-1325.9c-.6 0-1.3-.1-1.9-.3-.5-.1-2.2-.7-3.5-1.6-.1-.1-.1-.2-.1-.3s.2-.1.3-.1c1.2.8 2.8 1.4 3.4 1.5 1.1.3 2.3.3 3.4 0 .7-.2 2.1-.6 2.6-1.3.4-.7.7-2.2.5-3.8 0-.1.1-.2.2-.2s.2.1.2.2c.3 1.5.1 3.2-.5 4.1-.6.9-2 1.2-2.8 1.5-.6.2-1.2.3-1.8.3"/><path id="Fill-42" class="st6" d="M-585.3-1321.9c-.5 0-1-.1-1.5-.2-.7-.3-1.7-1.2-2.3-2-.8-.9-1.1-1.3-1.1-2.2 0-.1.1-.2.2-.2s.2.1.2.2c0 .6.2 1 1 1.9.9 1.1 1.7 1.7 2.2 1.9 1.4.5 3.1 0 4-.2 1.3-.3 2.1-.8 2.3-1.3.3-.7.6-1.8.1-2.9 0-.1 0-.2.1-.3.1 0 .2 0 .3.1.6 1.2.3 2.4-.1 3.2-.3.7-1.1 1.2-2.6 1.5-.7.2-1.8.5-2.8.5"/><path id="Fill-44" class="st6" d="M-586.3-1319.6h-.3c-1.1-.2-1.9-.8-3-2.1-1-1.2-1.9-2.5-1.3-3.7 0-.1.2-.1.3-.1.1 0 .1.2.1.3-.5 1 .3 2.1 1.3 3.3 1 1.3 1.7 1.8 2.7 2 .4.1 2-.1 2.8-.6.8-.4 1-1 1.3-2 0-.1.1-.2.2-.1.1 0 .2.1.1.2-.3 1.1-.6 1.7-1.4 2.2-.9.4-2.2.6-2.8.6"/><path id="Fill-46" class="st6" d="M-598.1-1316.7c-.1 0-.2 0-.2-.1s0-.2.1-.2c.7-.2 1.2-.3 1.6-.4.7-.1 1.4-.2 2.7-.9 1.4-.8 2.5-1.5 3.2-2.1.7-.5 1.2-.8 1.6-1 .1 0 .2 0 .3.1 0 .1 0 .2-.1.3-.4.2-.9.5-1.5 1-.8.5-1.8 1.2-3.2 2.1-1.3.8-2.1.9-2.8 1-.6-.1-1 0-1.7.2"/><path id="Fill-48" class="st6" d="M-601.4-1313.8c-.1 0-.1 0-.1-.1-.1-.1-.1-.2 0-.3.6-.6 1.3-.9 1.8-1.2.6-.3 1.1-.6 1.2-1.1.2-1.3 0-4.2-.8-6.2-1.4-3.1-3.2-5.2-4.1-5.6-.2-.1-.3-.1-.5 0-.4.2-.7.4-1 .6-.5.3-1.2.8-2.4 1.3-.1 0-.2 0-.3-.1 0-.1 0-.2.1-.3 1.2-.5 1.9-1 2.4-1.3.4-.2.7-.4 1-.6.2-.1.5-.1.8 0 1.3.5 3.1 2.9 4.4 5.8.9 2.1 1.1 5 .9 6.4-.1.7-.7 1-1.4 1.3-.5.3-1.1.6-1.7 1.2-.2.1-.2.2-.3.2"/><path id="Fill-50" class="st6" d="M-609.3-1306.4c-.1 0-.1 0-.1-.1-.1-.1-.1-.2 0-.3 1.9-1.5 3.4-2.5 4.5-3.4 1.9-1.4 2.9-2.1 3.1-2.9.5-1.3-.3-6-3.2-10.5-.6-.9-2.9-3.5-3.7-3.3-.3.1-1.9.8-3.9 1.8-1.4.7-3 1.4-4.6 2.2-.1 0-.2 0-.3-.1 0-.1 0-.2.1-.3 1.6-.8 3.2-1.5 4.6-2.2 2.4-1.2 3.7-1.8 4-1.8 1.3-.4 4.1 3.4 4.1 3.4 2.9 4.4 3.9 9.2 3.3 10.8-.3.9-1.2 1.6-3.3 3-1.2.8-2.6 1.9-4.5 3.4 0 .3 0 .3-.1.3"/><path id="Fill-52" class="st6" d="M-502.7-1322.5h-.1c-3.3-2.3-5.2-7.6-5.5-8.7-.5-1.7-1.1-4.3-.8-7.1.2-1.7.4-2.5.6-3.3.1-.5.2-.9.3-1.5.2-1.3-.1-2.7-.3-3.9-.1-.3-.1-.5-.1-.8-.2-1.2-.3-2.6.5-4.5.4-.9 1.1-1.6 1.8-1.9.5-.2 1-.2 1.4 0 .6.3.7 1.4.7 2.8 0 .6 0 1.2.1 1.7.1 1.3.5 2.7.9 4.3.1.6.3 1.1.4 1.7.1.2.1.5.2.7.2 1 .5 2.2 1.2 3.6.8 1.7 2.6 4.4 4 6.3.2.3.3.5.5.7 1.1 1.6 1.9 2.8 4 3.7.1 0 .1.2.1.2 0 .1-.2.1-.2.1-2.2-1-3.1-2.3-4.2-3.9-.2-.2-.3-.5-.5-.7-1.4-2-3.1-4.7-4-6.4-.7-1.5-1-2.7-1.2-3.7-.1-.2-.1-.5-.2-.7-.1-.6-.3-1.2-.4-1.7-.4-1.6-.8-3-.9-4.3-.1-.6-.1-1.2-.1-1.7 0-1.1-.1-2.3-.5-2.4-.3-.1-.7-.1-1.1 0-.4.1-1.1.6-1.6 1.7-.8 1.8-.7 3.1-.5 4.3 0 .3.1.5.1.8.2 1.3.5 2.7.3 4-.1.6-.2 1.1-.3 1.5-.2.7-.4 1.5-.5 3.2-.3 2.8.3 5.3.8 7 .3 1 2.2 6.2 5.4 8.5.1.1.1.2 0 .3-.2 0-.2.1-.3.1"/><path id="Fill-54" class="st6" d="M-512.1-1330c-.9 0-1.5-.2-2.1-.4l-.2-.1c-1.4-.4-3.1-1.2-3.6-2-.4-.6-1.2-2.9.1-4.2 1.5-1.5 6.3-2.5 9-3 .1 0 .2.1.2.2s0 .2-.2.2c-4.5.8-7.7 1.9-8.8 2.9-1.1 1.1-.5 3.1-.1 3.8.4.6 2 1.3 3.4 1.8l.2.1c1.2.4 2.3.7 5.9-.4.1 0 .2 0 .2.1s0 .2-.1.2c-1.8.6-3 .8-3.9.8"/><path id="Fill-56" class="st6" d="M-510.7-1333.9h-1.2c-.7-.1-1.2-.4-1.9-.9-.4-.3-.9-.6-1.6-1-.1-.1-.1-.2-.1-.3.1-.1.2-.1.3-.1.7.4 1.2.7 1.6 1 .7.5 1.1.8 1.7.8 1 .1 1.7.1 2.8 0 .1 0 .2.1.2.2s-.1.2-.2.2c-.5.1-1 .1-1.6.1"/><path id="Fill-58" class="st6" d="M-516-1334c-.1 0-.2-.1-.2-.2-.1-.8.1-1.6.6-2.3.1-.1.2-.1.3-.1.1.1.1.2.1.3-.4.7-.6 1.4-.6 2.1 0 .1-.1.2-.2.2"/><path id="Fill-60" class="st6" d="M-512.2-1326c-.6 0-1.2-.1-1.8-.2-.8-.2-2.3-.6-2.8-1.5-.6-.9-.8-2.6-.5-4.1 0-.1.1-.2.2-.2s.2.1.2.2c-.3 1.6 0 3.1.5 3.8.5.7 1.9 1.1 2.6 1.3 1.1.3 2.4.3 3.4 0 .6-.2 2.2-.8 3.4-1.5.1-.1.2 0 .3.1.1.1 0 .2-.1.3-1.3.9-3 1.4-3.5 1.6-.6.1-1.2.2-1.9.2"/><path id="Fill-62" class="st6" d="M-510.7-1322.1c-1.1 0-2.1-.3-2.7-.4-1.4-.4-2.3-.9-2.6-1.5-.4-.8-.6-2-.1-3.2 0-.1.2-.1.3-.1.1 0 .1.2.1.3-.5 1.1-.2 2.1.1 2.9.2.5 1 1 2.3 1.3.9.2 2.6.7 4 .2.5-.2 1.3-.9 2.2-1.9.8-.9 1-1.3 1-1.9 0-.1.1-.2.2-.2s.2.1.2.2c0 .8-.3 1.3-1.1 2.2-.7.8-1.6 1.8-2.3 2-.6.1-1.1.1-1.6.1"/><path id="Fill-64" class="st6" d="M-509.7-1319.7c-.7 0-2-.2-2.7-.7-1-.5-1.2-1.3-1.5-2.3 0-.1 0-.2.1-.2s.2 0 .2.1c.3 1.1.5 1.6 1.3 2 .8.5 2.3.7 2.8.6 1-.2 1.7-.7 2.7-2 .9-1.2 1.8-2.3 1.3-3.3 0-.1 0-.2.1-.3.1 0 .2 0 .3.1.6 1.2-.4 2.5-1.3 3.7-1.1 1.3-1.9 1.9-2.9 2.1-.2.2-.3.2-.4.2"/><path id="Fill-66" class="st6" d="M-497.9-1316.8c-.1 0-.1 0 0 0-.7-.2-1.2-.3-1.6-.3-.8-.1-1.5-.2-2.8-1-1.4-.8-2.5-1.6-3.2-2.1-.7-.4-1.1-.8-1.5-1-.1 0-.1-.2-.1-.3 0-.1.2-.1.3-.1.4.2.9.5 1.6 1 .8.5 1.8 1.2 3.2 2.1 1.3.7 2 .8 2.7.9.5.1 1 .1 1.6.4.1 0 .2.1.1.2-.2.1-.3.2-.3.2"/><path id="Fill-68" class="st6" d="M-494.7-1314s-.1 0-.1-.1c-.6-.6-1.2-.9-1.7-1.2-.7-.4-1.3-.7-1.4-1.3-.2-1.4-.1-4.3.9-6.4 1.3-2.9 3.1-5.3 4.4-5.8.3-.1.5-.1.8 0 .4.2.7.4 1 .6.5.3 1.2.7 2.4 1.3.1 0 .1.2.1.3 0 .1-.2.1-.3.1-1.2-.6-1.9-1-2.4-1.3-.3-.2-.6-.4-1-.6-.1-.1-.3 0-.5 0-1 .4-2.8 2.5-4.1 5.6-.9 2-1 4.9-.8 6.2.1.5.5.7 1.2 1.1.5.3 1.2.6 1.8 1.2.1.1.1.2 0 .3h-.3"/><g id="Group-72" transform="translate(161 47.13)"><defs><filter id="Adobe_OpacityMaskFilter_00000090994428916002258490000009012174105421412999_" filterUnits="userSpaceOnUse" x="-655.8" y="-1374.3" width="16.8" height="20.7"><feColorMatrix values="1 0 0 0 0 0 1 0 0 0 0 0 1 0 0 0 0 0 1 0"/></filter></defs><mask maskUnits="userSpaceOnUse" x="-655.8" y="-1374.3" width="16.8" height="20.7" id="mask-4_00000029012562753109880540000001742373339722355645_"><g filter="url(#Adobe_OpacityMaskFilter_00000090994428916002258490000009012174105421412999_)"><path id="path-3_00000100372895493979918280000007436489690014122640_" class="st3" d="M-655.8-1374.3h16.8v20.7h-16.8z"/></g></mask><path id="Fill-70" d="M-647.8-1353.6h-.1c-1.9-1.5-3.3-2.5-4.5-3.4-2-1.5-2.9-2.1-3.3-3-.6-1.6.4-6.5 3.3-10.8 0 0 2.8-3.8 4.1-3.4.3.1 2.4 1 5.7 2.6 1.1.5 2.3 1.1 3.5 1.6.1 0 .1.2.1.3 0 .1-.2.1-.3.1-1.2-.5-2.4-1.1-3.5-1.6-2.7-1.3-5.3-2.5-5.6-2.6-.8-.2-3.1 2.3-3.7 3.3-3 4.5-3.7 9.2-3.2 10.5.3.8 1.2 1.5 3.1 2.9 1.2.8 2.6 1.9 4.5 3.4.1.1.1.2 0 .3 0-.3 0-.2-.1-.2" mask="url(#mask-4_00000029012562753109880540000001742373339722355645_)" fill-rule="evenodd" clip-rule="evenodd" fill="#332e3c"/></g><path id="Fill-73" class="st6" d="M-565.2-1355.3c-.1 0-.1 0-.2-.1l-3.3-3.9c-.1-.1-.1-.2 0-.3.1-.1.2-.1.3 0l3.3 3.9c.1.1.1.2 0 .3l-.1.1"/><path id="Fill-75" class="st6" d="M-555.1-1357.9c-.1 0-.2-.1-.2-.2l-1.3-4.9c0-.1 0-.3.2-.3.1 0 .3 0 .3.2l1.3 4.9c0 .1-.1.2-.3.3.1 0 .1 0 0 0"/><path id="Fill-77" class="st6" d="M-543-1357.8c-.1 0-.1 0 0 0-.2 0-.3-.2-.2-.3l1.1-4.7c0-.1.2-.2.3-.2.1 0 .2.2.2.3l-1.1 4.7c-.1.1-.2.2-.3.2"/><path id="Fill-79" class="st6" d="M-535.5-1355.4c-.1 0-.1 0-.1-.1-.1-.1-.1-.2 0-.3l3.3-4c.1-.1.2-.1.3 0 .1.1.1.2 0 .3l-3.3 4c-.1.1-.2.1-.2.1"/><path id="Fill-81" class="st9" d="m-567.2-1333.6-1.3-.7v3l1.3-.8 1.3-.7z"/><path id="Fill-83" class="st3" d="m-571.5-1326.2 1.5-.9v-9.8l7 4.1-5.5 3.2v1.7l8.5-4.9-11.5-6.6z"/><path id="Fill-85" class="st3" d="M-557.8-1335.6h2c.5 0 1 .1 1.3.4.3.3.5.7.5 1.2s-.2.9-.5 1.2c-.3.3-.8.4-1.3.4h-1v1.6h-1v-4.8zm1.9 2.4c.6 0 .9-.3.9-.8 0-.3-.1-.5-.2-.6-.2-.1-.4-.2-.7-.2h-.8v1.5h.8z"/><path id="Fill-87" class="st3" d="M-553.4-1334.1h1v.5c.1-.2.3-.3.6-.4.2-.1.5-.1.8-.1v.8c-.3 0-.6 0-.8.1-.2.1-.4.2-.5.4v2h-1v-3.3z"/><path id="Fill-89" class="st3" d="M-549.9-1330.9c-.3-.1-.5-.3-.7-.6-.2-.3-.2-.6-.2-.9 0-.3.1-.7.2-.9.2-.3.4-.5.7-.6.3-.1.7-.2 1.1-.2.4 0 .7.1 1 .2.3.1.5.4.7.6.2.3.2.6.2.9 0 .4-.1.7-.2.9-.2.3-.4.5-.7.6s-.6.2-1 .2c-.5 0-.8 0-1.1-.2m1.7-.8c.2-.2.2-.4.2-.7 0-.3-.1-.5-.2-.7-.2-.2-.4-.3-.7-.3-.3 0-.5.1-.7.3-.2.2-.2.4-.2.7 0 .3.1.5.3.7.2.2.4.3.7.3l.6-.3"/><path id="Fill-91" class="st3" d="M-541.3-1331.1c-.4-.3-.5-.7-.5-1.3 0-.5.2-1 .5-1.3.3-.3.8-.5 1.4-.5.4 0 .7.1 1 .2.3.1.5.4.6.6.1.3.2.6.2.9v.4h-2.7c.1.4.5.6 1.2.6.2 0 .4 0 .7-.1.2 0 .4-.1.6-.2v.7c-.2.1-.4.1-.6.2-.3 0-.5.1-.8.1-.7.1-1.2 0-1.6-.3zm2.2-1.6c0-.2-.1-.4-.2-.5-.2-.1-.4-.2-.6-.2-.3 0-.5.1-.6.2-.2.1-.2.3-.2.5h1.6z"/><path id="Fill-93" class="st3" d="M-537.5-1334.1h1v.4c.2-.2.3-.3.5-.4.2-.1.4-.1.7-.1.5 0 .8.1 1 .4.2.2.3.6.3 1v2.1h-1v-2c0-.4-.2-.6-.6-.6-.2 0-.3 0-.5.1s-.3.2-.4.4v2.1h-1v-3.4z"/><path id="Fill-95" class="st3" d="M-532.7-1330.7c-.3-.1-.5-.1-.7-.2v-.8c.2.1.4.2.7.3.3.1.5.1.7.1h.4c.1 0 .1-.1.1-.2s0-.1-.1-.2c-.1 0-.1-.1-.2-.1s-.3-.1-.5-.2c-.3-.1-.5-.2-.7-.3-.2-.1-.3-.2-.4-.3-.1-.1-.1-.3-.1-.5 0-.3.1-.6.4-.8.3-.2.6-.3 1.1-.3.2 0 .5 0 .7.1.2 0 .4.1.6.2v.8c-.1-.1-.3-.2-.5-.2-.2-.1-.4-.1-.6-.1-.2 0-.3 0-.4.1-.1 0-.2.1-.2.2s.1.2.1.2c.1 0 .3.1.6.2h.1c.3.1.5.2.7.3.2.1.3.2.3.3.1.1.1.3.1.5 0 .3-.1.5-.4.7-.3.2-.6.3-1.1.3-.2-.1-.4-.1-.7-.1"/><path id="Fill-97" class="st3" d="M-529.6-1334.7c-.1-.1-.2-.2-.2-.4s.1-.3.2-.4c.1-.1.2-.2.4-.2s.3.1.4.2c.1.1.2.2.2.4s-.1.3-.2.4c-.1.1-.2.2-.4.2-.2-.1-.3-.1-.4-.2zm-.2 3.9h1v-3.3h-1v3.3z"/><path id="Fill-99" class="st3" d="M-527.1-1330.9c-.3-.1-.5-.3-.7-.6-.2-.3-.2-.6-.2-.9 0-.3.1-.7.2-.9.2-.3.4-.5.7-.6.3-.1.7-.2 1.1-.2.4 0 .7.1 1 .2.3.1.5.4.7.6.2.3.2.6.2.9 0 .4-.1.7-.2.9-.2.3-.4.5-.7.6-.3.1-.6.2-1 .2-.5 0-.8 0-1.1-.2m1.7-.8c.2-.2.2-.4.2-.7 0-.3-.1-.5-.2-.7-.2-.2-.4-.3-.7-.3-.3 0-.5.1-.7.3-.2.2-.2.4-.2.7 0 .3.1.5.3.7.2.2.4.3.7.3s.4-.2.6-.3"/><path id="Fill-101" class="st3" d="M-542.5-1333.3c-.1-.3-.4-.5-.6-.6-.3-.1-.6-.2-.9-.2-.5 0-.9.2-1.2.5v-.4h-1v5.3l1-.6v-1.7c.1.1.3.2.5.3.2.1.4.1.7.1.3 0 .6-.1.9-.2.3-.1.5-.4.6-.6.1-.3.2-.6.2-.9 0-.5-.1-.8-.2-1m-1.1 1.6c-.2.2-.4.3-.7.3-.2 0-.4-.1-.6-.2-.2-.1-.3-.3-.4-.5v-.6c.1-.2.2-.3.4-.5.2-.1.4-.2.6-.2.3 0 .5.1.7.3.2.2.3.4.3.7s-.1.5-.3.7"/><path id="Fill-103" class="st9" d="M-541.4-1329.2h1.3v.3h-1v.6h.8v.3h-.8v.8h-.3z"/><defs><filter id="Adobe_OpacityMaskFilter_00000026870436911893752560000013710423671372141455_" filterUnits="userSpaceOnUse" x="-539" y="-1329.2" width=".4" height="2"><feColorMatrix values="1 0 0 0 0 0 1 0 0 0 0 0 1 0 0 0 0 0 1 0"/></filter></defs><mask maskUnits="userSpaceOnUse" x="-539" y="-1329.2" width=".4" height="2" id="mask-6_00000124158611874329518040000010001540683094570687_"><g filter="url(#Adobe_OpacityMaskFilter_00000026870436911893752560000013710423671372141455_)"><path id="path-5_00000143617719046378913410000006401370546110101177_" class="st3" d="M-618-1300.8h140v-62.4h-140z"/></g></mask><path id="Fill-105" mask="url(#mask-6_00000124158611874329518040000010001540683094570687_)" fill-rule="evenodd" clip-rule="evenodd" fill="#2ab8c3" d="M-539-1327.2h.4v-2h-.4z"/><defs><filter id="Adobe_OpacityMaskFilter_00000158006874121645179140000008713517688636947328_" filterUnits="userSpaceOnUse" x="-537.4" y="-1329.2" width="1.7" height="2"><feColorMatrix values="1 0 0 0 0 0 1 0 0 0 0 0 1 0 0 0 0 0 1 0"/></filter></defs><mask maskUnits="userSpaceOnUse" x="-537.4" y="-1329.2" width="1.7" height="2" id="mask-6_00000090262608601245171170000010409795177628070555_"><g filter="url(#Adobe_OpacityMaskFilter_00000158006874121645179140000008713517688636947328_)"><path id="path-5_00000181068329178385215610000005871793955180472254_" class="st3" d="M-618-1300.8h140v-62.4h-140z"/></g></mask><path id="Fill-107" mask="url(#mask-6_00000090262608601245171170000010409795177628070555_)" fill-rule="evenodd" clip-rule="evenodd" fill="#2ab8c3" d="M-537.4-1329.2h.4l1 1.4v-1.4h.3v2h-.3l-1-1.4v1.4h-.4z"/><defs><filter id="Adobe_OpacityMaskFilter_00000170277569627993639990000013767735496996494510_" filterUnits="userSpaceOnUse" x="-534.5" y="-1329.2" width="2" height="2"><feColorMatrix values="1 0 0 0 0 0 1 0 0 0 0 0 1 0 0 0 0 0 1 0"/></filter></defs><mask maskUnits="userSpaceOnUse" x="-534.5" y="-1329.2" width="2" height="2" id="mask-6_00000125602284540606332400000011267885917632200606_"><g filter="url(#Adobe_OpacityMaskFilter_00000170277569627993639990000013767735496996494510_)"><path id="path-5_00000182501136718638969010000010542764537969234851_" class="st3" d="M-618-1300.8h140v-62.4h-140z"/></g></mask><path id="Fill-108" d="M-533.7-1329.2h.4l.8 2h-.4l-.2-.5h-.9l-.2.5h-.4l.9-2zm.5 1.3-.3-.9-.3.9h.6z" mask="url(#mask-6_00000125602284540606332400000011267885917632200606_)" fill-rule="evenodd" clip-rule="evenodd" fill="#2ab8c3"/><defs><filter id="Adobe_OpacityMaskFilter_00000039823633732918609860000011737336670101698743_" filterUnits="userSpaceOnUse" x="-531.3" y="-1329.2" width="1.7" height="2"><feColorMatrix values="1 0 0 0 0 0 1 0 0 0 0 0 1 0 0 0 0 0 1 0"/></filter></defs><mask maskUnits="userSpaceOnUse" x="-531.3" y="-1329.2" width="1.7" height="2" id="mask-6_00000145759644822235881160000002626239622644368535_"><g filter="url(#Adobe_OpacityMaskFilter_00000039823633732918609860000011737336670101698743_)"><path id="path-5_00000078732456420999337860000004779002504818618508_" class="st3" d="M-618-1300.8h140v-62.4h-140z"/></g></mask><path id="Fill-109" mask="url(#mask-6_00000145759644822235881160000002626239622644368535_)" fill-rule="evenodd" clip-rule="evenodd" fill="#2ab8c3" d="M-531.3-1329.2h.3l1 1.4v-1.4h.3v2h-.3l-1-1.4v1.4h-.3z"/><defs><filter id="Adobe_OpacityMaskFilter_00000161625896859570403250000012710269130532282523_" filterUnits="userSpaceOnUse" x="-528.5" y="-1329.2" width="1.8" height="2.1"><feColorMatrix values="1 0 0 0 0 0 1 0 0 0 0 0 1 0 0 0 0 0 1 0"/></filter></defs><mask maskUnits="userSpaceOnUse" x="-528.5" y="-1329.2" width="1.8" height="2.1" id="mask-6_00000173127855933290940210000003984241393435727529_"><g filter="url(#Adobe_OpacityMaskFilter_00000161625896859570403250000012710269130532282523_)"><path id="path-5_00000081649410797087733640000015083366256644793224_" class="st3" d="M-618-1300.8h140v-62.4h-140z"/></g></mask><path id="Fill-110" d="M-528-1327.2c-.2-.1-.3-.2-.4-.4-.1-.2-.1-.3-.1-.6 0-.2 0-.4.1-.6.1-.2.2-.3.4-.4.2-.1.4-.1.6-.1.3 0 .5.1.7.2v.4c-.2-.1-.4-.2-.7-.2-.1 0-.3 0-.4.1s-.2.1-.3.3c-.1.1-.1.2-.1.4 0 .1 0 .3.1.4l.3.3c.1.1.2.1.4.1.1 0 .3 0 .4-.1.1 0 .2-.1.3-.2v.4c-.2.1-.4.2-.7.2-.2-.1-.4-.2-.6-.2" mask="url(#mask-6_00000173127855933290940210000003984241393435727529_)" fill-rule="evenodd" clip-rule="evenodd" fill="#2ab8c3"/><defs><filter id="Adobe_OpacityMaskFilter_00000163051292589250849760000005512271308825793470_" filterUnits="userSpaceOnUse" x="-525.5" y="-1329.2" width="1.4" height="2"><feColorMatrix values="1 0 0 0 0 0 1 0 0 0 0 0 1 0 0 0 0 0 1 0"/></filter></defs><mask maskUnits="userSpaceOnUse" x="-525.5" y="-1329.2" width="1.4" height="2" id="mask-6_00000101825434816638425570000000061892194778082228_"><g filter="url(#Adobe_OpacityMaskFilter_00000163051292589250849760000005512271308825793470_)"><path id="path-5_00000024712598543496697150000005897719194737825157_" class="st3" d="M-618-1300.8h140v-62.4h-140z"/></g></mask><path id="Fill-111" mask="url(#mask-6_00000101825434816638425570000000061892194778082228_)" fill-rule="evenodd" clip-rule="evenodd" fill="#2ab8c3" d="M-525.5-1329.2h1.4v.3h-1v.6h.7v.3h-.7v.5h1v.3h-1.4z"/></g></svg>