<svg id="Layer_1" data-name="Layer 1" xmlns="http://www.w3.org/2000/svg" viewBox="0 0 640 400"><defs><style>.cls-1{fill:#303b4b;}.cls-2{fill:#c6f2c4;}.cls-3{fill:#89b999;}.cls-4{fill:#88b999;}.cls-5{fill:#c1e1d6;}.cls-6{fill:#83ab96;}.cls-7{fill:#7c8d97;}.cls-8{fill:#313e4b;}.cls-30,.cls-9{fill:#02274d;}.cls-10,.cls-11,.cls-12,.cls-14,.cls-28,.cls-29,.cls-9{fill-rule:evenodd;}.cls-10{fill:#ffe2c9;}.cls-11,.cls-21{fill:#fff;}.cls-12{fill:#d59169;}.cls-13,.cls-14{fill:#2f3541;}.cls-15{fill:#2da853;}.cls-16{fill:#4f4f4f;}.cls-17{fill:#ededed;}.cls-18{fill:#ddd;}.cls-19{fill:#f2f2f2;}.cls-20{fill:#033259;}.cls-22{fill:#f99702;}.cls-23{fill:#e5e5e5;}.cls-24{fill:#e0b38f;}.cls-25{fill:#fdfdfd;}.cls-26{fill:#e1e6eb;}.cls-27{fill:#7c94a8;}.cls-28{fill:#a5a7b2;}.cls-29{fill:#ffdd8f;}</style></defs><g id="_9rxUlk" data-name="9rxUlk"><path class="cls-1" d="M224.19,152a67.1,67.1,0,0,0,4.4-9.07,138.65,138.65,0,0,0,6-18.71c1.23-4.6,2.36-9.22,3.43-13.85a2,2,0,0,1,.08-.35c.16-.42,0-.61-.42-.75a45.16,45.16,0,0,0-6.68-1.82,39,39,0,0,0-13.24,0c-1.64.24-3.28.56-4.9.91-.39.09-.55.24-.55.64s-.08,1-.05,1.43-.18.63-.6.76a62.52,62.52,0,0,0-6.23,2.25.62.62,0,0,0-.45.77A182.63,182.63,0,0,0,209.24,136a115.92,115.92,0,0,0,5.08,14.73c.18.42.13.53-.33.49"/><path class="cls-1" d="M216.24,152.15c2.23.35,4.46.63,6.71.79"/><path class="cls-2" d="M222.34,144.39c-.21,0-.34.14-.5.23a4.3,4.3,0,0,1-6.41-4,4,4,0,0,1,3.18-3.53,4.94,4.94,0,0,1,3.48.35c.12.06.22.2.39,0s.4-.09.45.2a9.49,9.49,0,0,1,.18,1.77,1.29,1.29,0,0,0,.24.75A4,4,0,0,1,223,145a1.06,1.06,0,0,0-.3.57,34.37,34.37,0,0,1-1.49,6.08c-.13.37-.05.47.32.48a7.78,7.78,0,0,1,1.27.11c.39.06.53-.08.62-.45a74.63,74.63,0,0,0,1.45-8.12c.74-5.79,1.07-11.6,1.23-17.43.11-3.67.1-7.34.08-11,0-.55-.17-.72-.69-.79a23.85,23.85,0,0,0-10.77,1c-1.32.44-2.65.84-3.93,1.4a.82.82,0,0,0-.58.87,74.4,74.4,0,0,0,.71,10,201.26,201.26,0,0,0,4.48,23.1.62.62,0,0,0,.63.56c1.28.16,2.56.36,3.83.56.51.09.78,0,1-.57a42.2,42.2,0,0,0,1.56-6.85A.44.44,0,0,0,222.34,144.39Z"/><path class="cls-2" d="M226.25,145.24a39.37,39.37,0,0,0,1.23-5.45c1.3-8.14,1.86-16.34,2.36-24.55.09-1.44.13-2.89.24-4.33,0-.41-.12-.5-.49-.57a37.42,37.42,0,0,0-19.27,1.78c-1.5.53-3,1.07-4.48,1.69-.28.11-.39.23-.34.56a185.84,185.84,0,0,0,4.22,21.54q.9,3.32,2,6.57a1.07,1.07,0,0,0,.25.42c-.28-1.09-.58-2.18-.86-3.28a152.12,152.12,0,0,1-3.22-17.32c-.26-1.83-.47-3.67-.72-5.51a.56.56,0,0,1,.35-.68,42.91,42.91,0,0,1,11.09-3.52,29.77,29.77,0,0,1,9.74.29c.39.07.54.22.53.63-.18,5.11-.41,10.22-.77,15.33-.28,3.86-.61,7.72-1.16,11.56-.21,1.47-.49,2.94-.74,4.41a.35.35,0,0,1-.08.13C226.13,145.06,226,145.21,226.25,145.24Z"/><path class="cls-3" d="M214.4,148.91c-.37-1.63-.75-3.26-1.11-4.9a155.32,155.32,0,0,1-3.45-22.29c-.09-1.37-.11-2.75-.13-4.12a1.06,1.06,0,0,1,.73-1.12,43.79,43.79,0,0,1,5.69-1.93A23.55,23.55,0,0,1,226,114c.48.07.65.26.66.75.08,6.33,0,12.65-.4,19a123,123,0,0,1-1.58,14.32.56.56,0,0,0,.06.52c.22-.84.43-1.6.63-2.36a71.79,71.79,0,0,0,1.74-10.71c.56-5.71.91-11.44,1.13-17.18.06-1.46.1-2.92.19-4.38,0-.48-.14-.64-.6-.72a28.77,28.77,0,0,0-14.23,1c-1.85.63-3.68,1.3-5.47,2.1a.58.58,0,0,0-.41.69c.36,2.92.75,5.83,1.2,8.73.58,3.77,1.21,7.52,2.08,11.22.92,3.91,2,7.76,3.24,11.58,0,.11.09.21.13.32Z"/><path class="cls-2" d="M228.2,142.67c.41-1,.84-2.09,1.23-3.15a208.16,208.16,0,0,0,6.26-21.46c.66-2.6,1.25-5.22,1.9-7.82.09-.39,0-.53-.37-.66a36.33,36.33,0,0,0-16.69-2c-2.43.3-4.85.68-7.24,1.19-.36.08-.53.2-.51.59a6.34,6.34,0,0,1-.05,1.07c0,.37.08.43.43.32a35.59,35.59,0,0,1,6.39-1.26,40.3,40.3,0,0,1,10.46.44c.45.07.64.25.55.69s.11.62.58.69a18,18,0,0,1,4.09,1.22.58.58,0,0,1,.4.78q-1.24,6.27-2.75,12.48c-1.35,5.56-2.86,11.08-4.69,16.51,0,.11-.06.22-.09.33Z"/><path class="cls-4" d="M222.68,140.31c0-.35-.08-.86-.07-1.37a1,1,0,0,0-.53-.91,4.36,4.36,0,0,0-5.71,1.19,3.71,3.71,0,0,0,2.57,5.39,4.12,4.12,0,0,0,3.18-.74.82.82,0,0,0,.39-.66C222.6,142.3,222.65,141.38,222.68,140.31Z"/><path class="cls-4" d="M227.4,142.84c.78-1.94,1.41-3.93,2-5.93,2.27-7.68,4.12-15.46,5.68-23.31.09-.44,0-.64-.43-.79a18.56,18.56,0,0,0-3.56-1c-.24,0-.54-.22-.6.26s0,.62.49.65a7.55,7.55,0,0,1,1.87.47.56.56,0,0,1,.43.73c-.64,3.83-1.3,7.67-2.06,11.48-1,4.87-2,9.71-3.24,14.52C227.73,140.86,227.59,141.85,227.4,142.84Z"/><path class="cls-5" d="M228.9,134c.34-1.59.69-3.18,1-4.77,1.06-5,2-10,2.82-15.11.07-.39,0-.54-.39-.65a14.19,14.19,0,0,0-1.43-.35c-.37-.07-.5,0-.52.43-.21,3.44-.43,6.88-.68,10.32q-.34,4.77-.89,9.53c0,.19,0,.39,0,.58Z"/><path class="cls-6" d="M223.16,141.07c-.06,1.05-.16,2.09-.28,3.18A3,3,0,0,0,223.16,141.07Z"/><path class="cls-7" d="M226.25,145.24l-.1-.3a12.49,12.49,0,0,0-.45,1.9A5.42,5.42,0,0,0,226.25,145.24Z"/><path class="cls-8" d="M218.31,126.61a2.74,2.74,0,0,0,2.82-2.68,2.79,2.79,0,0,0-2.82-2.7,2.76,2.76,0,0,0-2.81,2.7A2.72,2.72,0,0,0,218.31,126.61Z"/><path class="cls-4" d="M216,124a2.34,2.34,0,1,0,2.36-2.24A2.28,2.28,0,0,0,216,124Z"/></g><g id="_ÎÓÈ_4" data-name="—ÎÓÈ_4"><path class="cls-9" d="M220.28,259.66s-.67,12-.58,13.38c.24,3.29.13,13,.29,16.33.43,9.16,2.45,24.09,3.46,33.56.28,2.63.5,6.77.6,9.28,0,.15,0,.29,0,.42H98.83c-.29-3.55-.35-10.22-.46-12-.58-9,0-20.88,0-25,0-5.17-.11-10.58-.49-13.94s-1.54-10.92-1.54-10.92-2.41,10-2.46,10.11c-1.06,2.47-1.06,5-2.56,7.24-1,1.56-6.13,1.85-6.13,1.85l4-9.71S81.41,270.09,75.11,268c-1.67-.55-3.57-.51-5.14-1.38a11,11,0,0,0-2.45-.78s-1.39-4.14-2.21-6.24c-2.74-7-4.37-15-.86-22,7.34-14.69,21.6-24.14,35.34-32a81.92,81.92,0,0,1,20.14-8.49c4.28-1.07,7.17-2,11.49-2.82,1.53-.28,5.42-3.18,5.42-3.18s5.3,5.18,6.58,6.4a37.49,37.49,0,0,0,10.27,7.3c7.34,3.37,15.23,1.78,22.11-2,3.77-2.06,10.6-8.29,10.6-8.29s9.94,2.42,14.75,3.23,12.36,1.67,17.9,3.73c8.69,3.22,17.13,9.39,23.86,11.58a90.29,90.29,0,0,0,11.15,2.9l1.23,4.72a58.07,58.07,0,0,0-3.08,8.19c-.68,2.9-.84,5.77-1.38,8.69-.78,4.21-3.16,17.6-3.16,17.6l16.47,8.07a33.4,33.4,0,0,1-3.66,5.39,5.87,5.87,0,0,1-4.12,2.18c-8.08.54-19.35-3.95-27-6.24C227,263.87,220.28,259.66,220.28,259.66Z"/><path class="cls-10" d="M255.46,220.44s-2.56-9.34-4-13.46a100,100,0,0,0-6.93-16.55c-1.24-2.28-3.69-4.37-5.72-6.06-3.34-2.78-6.95-1.63-11.3-2.2-3.94-.53-8.41-2.39-9.7-2.46-2.72-.15-6.87,0-8.34-1.27a3.06,3.06,0,0,1-1.28-2.8,14.26,14.26,0,0,1,.55-2.38,6.91,6.91,0,0,1-2.7-3.18c-.84-2.45,1.49-4.29,1.49-4.29s-2.16-2.7-2.28-4.25c-.17-2.28,3.25-4.24,3.25-4.24a9.34,9.34,0,0,1-2.59-2.62,3.63,3.63,0,0,1-.45-2.7c1.31-2,4.41-2.57,7-3.43,3-1,6-2.24,8.95-2.4,1.8-.1,8.05,1.4,8.05,1.4a20.5,20.5,0,0,0,.19-3.24,44,44,0,0,0-.48-4.42c-.2-2.23-1-7,.34-11.06.54-1.71,2.1-4.47,4.22-4,1.84.39,1,6.56,1.55,9.12,1,4.89,3.5,9.82,5.79,14.58,1.91,4,3.49,7.78,5.46,11.36,3.86,7,9.47,12,14.55,18.68,5.83,7.69,11.48,16,13.68,19.18a214,214,0,0,1,13.18,21.52c3.71,7.31,8.78,16.56,10.5,25.12.72,3.56,1.65,6.48.88,10.09-.47,2.17-.56,4.77-1.81,6.59a13.1,13.1,0,0,1-4.11,4.43c-8.16,5-21,.76-28.93-2.22-5.42-2-16.79-8.08-16.79-8.08s-.82-4.68-1.23-9.11a48,48,0,0,1,.33-11.64,23.11,23.11,0,0,1,2.65-7.15C250.76,224.79,255.46,220.44,255.46,220.44Z"/><path class="cls-10" d="M187,195a11.74,11.74,0,0,1-4.48-5.59,24.53,24.53,0,0,1-1.62-7.42,69,69,0,0,1,0-8.29,47.85,47.85,0,0,0,4.17-6.61c1.15-2.54,2.65-9.92,2.65-9.92a7.17,7.17,0,0,0,3.95-1.22,12.37,12.37,0,0,0,4.49-7.44,10.44,10.44,0,0,0-.39-4.88c-.62-1.61-1.22-2.58-2.85-3.19-1.38-.53-3.06-.35-3.91-1.52-4.69-6.45-7.49-13.65-13.77-18.82a47,47,0,0,0-8.19-5.58c-11.44-6.1-31.41-8-37.82,6.1a25.29,25.29,0,0,0-1.74,13.07c.43,3.45,1.24,12.69,1.24,12.69s-3,.84-3.88,2.19c-1.37,2.16-.31,4.76,0,7.26s3.08,5.27,5.49,6.54a8.41,8.41,0,0,0,4.28,1s1.61,3.35,2.54,5a27.34,27.34,0,0,0,3.43,4.53s.72,9.16-.07,12.3c-.69,2.79-4,6-4,6s3.6,4.94,4.84,6.32c5.82,6.42,14.16,9.94,22.6,10.94a23.84,23.84,0,0,0,14-3.33C182.66,202.24,187,195,187,195Z"/><path class="cls-10" d="M89.66,280.69s-2.89,6.48-5,10.18a51.09,51.09,0,0,1-7.53,9.75,44.25,44.25,0,0,1-6.59,5.07c-3,1.54-4.41,2.55-7.86,2.21a14.69,14.69,0,0,1-6.15-2.32c-6.46-4.41-10.27-10.23-13.43-17.11-3.39-7.38-4.08-15.88-4.71-24.7-.42-5.85-1-12.08-1.66-17.35-.83-6.76-1.79-13.83-3.21-20.55-.56-2.62-1.18-5.87-3.79-8.43C25,212.74,17.42,209.31,15,203.28c-.78-1.94,2.33-6.07,2.33-6.07a15.61,15.61,0,0,1-.41-4,8.36,8.36,0,0,1,.44-2s-1.2-2.3-1.63-3.26a4.64,4.64,0,0,1-.38-3.23s-4.78-3-4.78-4.94c0-1.63,4.47-3.37,5.31-3.34,4,.18,6.43.94,10.43.94,1,0,4.24.47,5.12,1.13,1.67,1.25,2.46,6,3,7.64,1.95,5.85,4.26,11.53,6.69,17.2,3.11,7.25,5.73,14.65,8.28,22.13,1.9,5.59,3.21,12.06,6.53,17a99.08,99.08,0,0,0,7.16,8.66s1.14,5.16,1.93,7.86c.46,1.59,2.36,6.62,2.36,6.62s3.94-.32,4.72-.2a14.8,14.8,0,0,1,6.27,2.95c2.09,1.54,5.64,5.39,8.17,8.28C87.58,277.83,89.66,280.69,89.66,280.69Z"/><path class="cls-11" d="M96.65,100.77,6.51,127.15l15,50a33.14,33.14,0,0,0,3.33.7c2.63.37,5.33.15,5.73,1.78s-.94,2.42-2.64,3.19A18.53,18.53,0,0,1,21.84,184l5.51,1.89c3.41,1.16,6.64,2.36,7.23,3.67.46,1-1,2.44-3,3A19,19,0,0,1,26,193s2.17,1.31,4.43,2.59,4.36,2.38,4.9,3.71c1.35,3.37-3.25,3.76-3.25,3.76s1.46,1.74,1,2.92-2.74,1.8-2.74,1.8L44.68,257l89.87-25.88Z"/><path class="cls-11" d="M154.87,165.38l4.61-.21c1.42-.06,5.72-.62,7.13-.85.68-.12,3.46-.76,3.46-.76a26.48,26.48,0,0,1-1,4.89,13.42,13.42,0,0,1-2.87,3.11c-2.83,2.2-7.41.54-9.13-1.22A10.56,10.56,0,0,1,154.87,165.38Z"/><path class="cls-12" d="M190.87,139.43c.9-3.3,1.11-13.66.63-18.64a34.37,34.37,0,0,0-10-21.35c-5.43-5.63-14.46-8.33-22.1-8.18-5,.09-8.49,1.79-12.93,3.27-3.65,1.22-7.29,1.94-10.89,3.14a19.14,19.14,0,0,0-11.24,10.89c-4.08,10-2,18.54.39,28.39.59,2.5,3.26,10,3.26,10a5.11,5.11,0,0,0,4.45-2.72c2.23-4.12,3.41-6.94,4-11.08,1.69-11.68,4.8-8.5,13.45-7,8,1.4,11.05-1.16,18.26-1.78s12.47,6.3,15.18,10.85S190.19,141.9,190.87,139.43Z"/></g><g id="_ÎÓÈ_2_1_" data-name="—ÎÓÈ_2_1_"><path class="cls-13" d="M33.26,225.23l.12,0a.51.51,0,0,0,.38-.64c-1.65-6.53-4.23-8.36-8.13-11.14l-1.13-.8c-4.54-3.28-9.31-7.95-9-10.44a6.65,6.65,0,0,1,2.49-4.53,2.44,2.44,0,0,1,1.92-.51,16,16,0,0,1,4.2,2c1,.57,2,1.21,3.35,1.9,1.08.57,2.13,1,3.05,1.39,2.22.92,3.37,1.45,3.26,2.49a1.55,1.55,0,0,1-.89,1.3c-2.76,1.43-10.52-1.44-12-2.29a.53.53,0,0,0-.52.92c1.42.8,9.64,4.05,13,2.31a2.59,2.59,0,0,0,1.45-2.12c.2-1.87-1.61-2.63-3.9-3.58-.9-.38-1.92-.8-3-1.35-1.29-.67-2.36-1.31-3.31-1.87a16.54,16.54,0,0,0-4.49-2.15,3.39,3.39,0,0,0-2.76.67,7.77,7.77,0,0,0-2.94,5.28c-.42,4,7.83,10.2,9.48,11.4l1.14.81c3.84,2.73,6.16,4.38,7.73,10.54A.52.52,0,0,0,33.26,225.23Z"/><path class="cls-13" d="M33.25,203a4,4,0,0,0,3.23-1.26,2.81,2.81,0,0,0,.27-3.06c-.72-1.57-2.58-2.57-5.16-3.94-1.3-.69-2.78-1.48-4.34-2.47s-6.72-4-9.39-2.1c-1.48,1-1.85,3.29-1.09,6.71a.52.52,0,0,0,.63.4.52.52,0,0,0,.39-.63c-.64-2.92-.41-4.86.67-5.62,1.7-1.2,5.37.31,8.23,2.13,1.59,1,3.09,1.8,4.4,2.51,2.4,1.27,4.14,2.2,4.71,3.44a1.82,1.82,0,0,1-.13,2c-.69.85-2.24,1.1-4.15.66a.52.52,0,0,0-.63.4.53.53,0,0,0,.4.63A9.46,9.46,0,0,0,33.25,203Z"/><path class="cls-13" d="M30.18,193c3,0,5.1-1.09,5.78-2.57a2.21,2.21,0,0,0-1-2.9c-1.92-1.17-6.17-2.5-9.39-3.41s-8.59-2-10.29.35c-1,1.38-.5,3.5,1.52,6.49a.53.53,0,0,0,.87-.59c-1.69-2.5-2.23-4.33-1.54-5.28.95-1.32,4.38-1.31,9.16,0a44.78,44.78,0,0,1,9.12,3.29A1.17,1.17,0,0,1,35,190c-.69,1.51-4.08,2.87-9.43,1.16a.54.54,0,0,0-.66.34.52.52,0,0,0,.34.66A16.12,16.12,0,0,0,30.18,193Z"/><path class="cls-13" d="M15.48,185.19a.54.54,0,0,0,.44-.24.52.52,0,0,0-.15-.73c-1-.63-2.12-1.45-3.45-2.42a1.9,1.9,0,0,1-1-2.12c.44-1.42,2.57-2.63,4.75-2.71a28.71,28.71,0,0,1,6.6.56,61,61,0,0,0,6.74.85c.85.06,1.45.34,1.63.76a1.32,1.32,0,0,1-.36,1.3c-1.11,1.38-4.91,3.32-12.16,1.89a.53.53,0,1,0-.21,1c7.24,1.43,11.63-.33,13.19-2.26a2.33,2.33,0,0,0,.51-2.38c-.21-.47-.81-1.27-2.53-1.39a62.41,62.41,0,0,1-6.63-.83,29.4,29.4,0,0,0-6.82-.58c-2.64.1-5.15,1.61-5.71,3.45a2.84,2.84,0,0,0,1.34,3.27c1.34,1,2.52,1.82,3.5,2.46A.47.47,0,0,0,15.48,185.19Z"/><path class="cls-13" d="M45.73,257.18a.32.32,0,0,0,.14,0l89.89-26a.54.54,0,0,0,.35-.66L98.34,100.12a.54.54,0,0,0-.25-.32.51.51,0,0,0-.4,0L7.81,125.81a.52.52,0,0,0-.36.65l13.87,47.87.77,2.54a.52.52,0,1,0,1-.31L22.33,174,8.6,126.67l88.88-25.76L135,230.25,46.09,256,32,207.33a.53.53,0,1,0-1,.29l14.25,49.19A.52.52,0,0,0,45.73,257.18Z"/><path class="cls-13" d="M269,252.7a.51.51,0,0,0,.37-.15.52.52,0,0,0,0-.74c-6.1-6.24-10.85-22.53-14.67-35.62-1.73-5.91-3.35-11.48-4.9-15.48-4.66-12.1-6.94-13.88-10.08-16.34l-.8-.63c-2.66-2.12-5.6-2.13-8.21-2.14a20.5,20.5,0,0,1-3-.16c-1.74-.28-3.48-.7-5.17-1.11-1.54-.37-3.12-.76-4.71-1-.83-.14-1.79-.21-2.8-.28-2.29-.16-4.88-.33-5.66-1.52a3.52,3.52,0,0,1-.83-2.53,1.3,1.3,0,0,1,.78-.84,5.3,5.3,0,0,1,2.77-.48c.39,0,.83,0,1.29,0l.41,0a23.8,23.8,0,0,0,6-1,.52.52,0,1,0-.33-1,23,23,0,0,1-5.69.89l-.41,0c-.44,0-.84,0-1.22,0a6.53,6.53,0,0,0-3.25.6,2.36,2.36,0,0,0-1.32,1.51,4.32,4.32,0,0,0,1,3.38c1.07,1.62,3.81,1.81,6.47,2,1,.07,1.91.13,2.69.27,1.55.27,3.12.65,4.64,1,1.71.41,3.48.84,5.25,1.13a21.73,21.73,0,0,0,3.18.17c2.55,0,5.18,0,7.55,1.91l.81.64c3,2.36,5.19,4.06,9.76,15.89,1.52,3.95,3.14,9.51,4.86,15.39,4,13.9,8.65,29.64,14.93,36.06A.5.5,0,0,0,269,252.7Z"/><path class="cls-13" d="M209.51,173.9a.52.52,0,0,0,.19-1,5,5,0,0,1-3.26-4.14,2.06,2.06,0,0,1,1-2,17.31,17.31,0,0,1,5.43-1.43,17.45,17.45,0,0,0,5.93-1.63.53.53,0,0,0,.21-.72.53.53,0,0,0-.72-.2,16.21,16.21,0,0,1-5.58,1.51,18.41,18.41,0,0,0-5.76,1.53,3.07,3.07,0,0,0-1.57,3,6,6,0,0,0,3.91,5.07A.69.69,0,0,0,209.51,173.9Z"/><path class="cls-13" d="M208,166.31a.52.52,0,0,0,.49-.33.52.52,0,0,0-.3-.68,3.6,3.6,0,0,1-2.24-3,3.49,3.49,0,0,1,1.07-3.21,7.4,7.4,0,0,1,3.18-1.14,19.64,19.64,0,0,0,3.07-.81,16.81,16.81,0,0,0,2.44-1.2c1.5-.84,2.68-1.51,4.5-1.14a.52.52,0,0,0,.62-.41.53.53,0,0,0-.41-.62c-2.2-.44-3.67.38-5.22,1.25a15.38,15.38,0,0,1-2.3,1.13,17.55,17.55,0,0,1-2.9.77,8.22,8.22,0,0,0-3.6,1.33,4.44,4.44,0,0,0-1.49,4.19,4.67,4.67,0,0,0,2.9,3.86A.63.63,0,0,0,208,166.31Z"/><path class="cls-13" d="M209,157.91a.53.53,0,0,0,.47-.29.53.53,0,0,0-.25-.71,7.39,7.39,0,0,1-3-2.64,2.1,2.1,0,0,1-.14-1.86c.77-1.73,4.11-2.67,5.54-3.08,1-.28,2-.63,3-1,2.51-.88,5.09-1.78,7.69-1.54a42.78,42.78,0,0,1,5.42,1c1.55.35,3.15.72,4.76.93.33,0,.65.1,1,.16a8.2,8.2,0,0,0,2.76.18.51.51,0,0,0,.44-.59.52.52,0,0,0-.59-.45,7.43,7.43,0,0,1-2.42-.17l-1-.17a45.88,45.88,0,0,1-4.67-.92,43.17,43.17,0,0,0-5.55-1c-2.83-.27-5.52.68-8.13,1.59-1,.34-1.95.68-2.91.95-2.59.73-5.36,1.74-6.21,3.67a3.09,3.09,0,0,0,.16,2.75,8.39,8.39,0,0,0,3.5,3.12A.48.48,0,0,0,209,157.91Z"/><path class="cls-13" d="M284.5,268.18c5.79,0,10.15-1.88,12.7-5.53,4.84-6.92,3.11-19.74-4.89-36.09a212.11,212.11,0,0,0-22.08-36.13c-1.76-2.4-3.42-4.66-5-7a142.11,142.11,0,0,0-10.34-13.32c-1.78-2.08-3.47-4-5.3-6.51a54.3,54.3,0,0,1-6.14-11.13c-.86-1.93-1.74-3.92-2.85-6a65.79,65.79,0,0,1-3.78-8.39,21.28,21.28,0,0,1-1.3-6.3c0-.41,0-.93,0-1.5,0-3.25-.11-5.41-1.12-5.84a2.8,2.8,0,0,0-2.72.22c-2.52,1.64-3.39,7.11-3.41,8.51,0,2.61.89,9.82.92,10.13a16.39,16.39,0,0,1-.26,3.87.52.52,0,1,0,1,.32,18.11,18.11,0,0,0,.31-4.28c0-.12-1-7.49-.92-10,0-1.6,1-6.37,2.94-7.65a1.72,1.72,0,0,1,1.73-.13c.45.37.47,3.53.48,4.88,0,.58,0,1.11,0,1.53a22.46,22.46,0,0,0,1.36,6.62,67.4,67.4,0,0,0,3.85,8.54c1.08,2,2,4,2.81,5.86a54.27,54.27,0,0,0,6.26,11.33c1.85,2.5,3.55,4.48,5.34,6.57A139.1,139.1,0,0,1,264.34,184c1.62,2.34,3.28,4.61,5,7a210.47,210.47,0,0,1,22,36c7.82,16,9.58,28.44,5,35-2.8,4-7.81,5.66-14.89,4.92-11.56-1.22-23-6.63-33.59-12.31a.52.52,0,0,0-.71.22.53.53,0,0,0,.21.71c10.71,5.72,22.24,11.19,34,12.42A29,29,0,0,0,284.5,268.18Z"/><path class="cls-13" d="M244.4,119.93l.12,0a.52.52,0,0,0,.39-.63s-1-4.42,1.8-5.59c3.68-1.54,11.27,0,13.76.58,1.18.24,1.25.26,1.47,0a.51.51,0,0,0,.13-.47c-.06-.3-.14-.33-1.11-.74-6.75-2.9-10.39-5.59-10.82-8-.68-3.82,5-9,6.8-10.72.79-.72.87-.8.87-1.08a.54.54,0,0,0-.17-.39c-.25-.23-.37-.19-1.29.14-7.68,2.7-13,3.07-15.86,1.1s-3.91-8.26-3.22-17.44c0-.41,0-.54-.12-.71a.51.51,0,0,0-.4-.16c-.38,0-.42.13-.81,1.23-3,8.37-6,13-9,13.81-2.33.62-5.48-.8-9.37-4.22a2.52,2.52,0,0,0-.57-.45.52.52,0,0,0-.63.15c-.26.32-.08.57.25,1,2.95,4,4.61,7.6,4.95,10.75s-3.93,4.81-4,4.83a.52.52,0,1,0,.36,1c.21-.07,5.09-1.91,4.66-5.93a21.13,21.13,0,0,0-3.35-8.61c2.16,1.57,5.2,3.23,7.94,2.5,4.09-1.08,7.19-7.89,8.82-12.11-.17,5.59.36,12.82,3.83,15.23,4.11,2.85,11.51.81,15.34-.47-2.54,2.42-6.8,6.92-6.12,10.74.53,3,4.89,5.67,8.27,7.33-3.48-.59-8.2-1.08-11.07.12-3.61,1.51-2.47,6.59-2.42,6.8A.52.52,0,0,0,244.4,119.93Z"/><path class="cls-13" d="M162.07,184.18a23.53,23.53,0,0,0,15.45-6.08,31.07,31.07,0,0,0,10.67-24,.53.53,0,1,0-1.05,0,30,30,0,0,1-10.31,23.22c-5.46,4.72-12,6.67-18.51,5.47-7.29-1.34-19.61-8.2-23.67-21.58a.53.53,0,0,0-.65-.35.53.53,0,0,0-.35.66c4.19,13.83,16.94,20.92,24.48,22.3A21,21,0,0,0,162.07,184.18Z"/><path class="cls-13" d="M188.2,157.62h.05c6-.62,8.74-7.42,8.44-12.09a6.25,6.25,0,0,0-2.72-5,5.13,5.13,0,0,0-4.39-.67.53.53,0,0,0,.36,1,4.05,4.05,0,0,1,3.45.56,5.24,5.24,0,0,1,2.25,4.19c.28,4.26-2.18,10.44-7.49,11a.52.52,0,0,0-.47.57A.53.53,0,0,0,188.2,157.62Z"/><path class="cls-13" d="M133.56,163.89a3.86,3.86,0,0,0,.6,0,.53.53,0,0,0-.15-1c-2.76.42-7.73-3.45-8.91-7.83-.73-2.74-.62-4.87.34-6.14a4.75,4.75,0,0,1,3.91-1.54.52.52,0,0,0,.52-.53.53.53,0,0,0-.53-.52h0a5.67,5.67,0,0,0-4.72,2c-1.18,1.56-1.36,3.93-.52,7C125.27,159.64,130,163.89,133.56,163.89Z"/><path class="cls-13" d="M189.66,149.57a.53.53,0,0,0,.43-.22,13.36,13.36,0,0,1,1.44-1.85.53.53,0,0,0,.09-.74.51.51,0,0,0-.73-.09,13.93,13.93,0,0,0-1.67,2.08.53.53,0,0,0,.14.73A.48.48,0,0,0,189.66,149.57Z"/><path class="cls-13" d="M161.2,155.58a.51.51,0,0,0,.41-.2,5,5,0,0,0,1.37-3.79,3.59,3.59,0,0,0-1.26-2.08,3.58,3.58,0,0,1-1.3-3.44.52.52,0,1,0-1-.11,4.58,4.58,0,0,0,1.6,4.29,2.69,2.69,0,0,1,1,1.49,4.06,4.06,0,0,1-1.15,3,.53.53,0,0,0,.09.74A.54.54,0,0,0,161.2,155.58Z"/><path class="cls-13" d="M154.09,165.39a.53.53,0,0,1,.11-.44.51.51,0,0,1,.4-.19h0a76,76,0,0,0,7.82-.43,65.6,65.6,0,0,0,7.45-1.37.5.5,0,0,1,.44.09.49.49,0,0,1,.21.4c0,.08.23,8.24-6.95,9.53a8.19,8.19,0,0,1-1.52.14C155.78,173.12,154.11,165.47,154.09,165.39Zm8.46,0a72.21,72.21,0,0,1-7.27.42c.55,1.87,2.59,7.14,8.12,6.15,5.23-.94,6-6,6.07-7.81A66.62,66.62,0,0,1,162.55,165.38Z"/><path class="cls-13" d="M169.14,133.9a.53.53,0,0,0,.3-.09,7.34,7.34,0,0,1,6.95-.18.53.53,0,0,0,.73-.17.52.52,0,0,0-.17-.72,8.39,8.39,0,0,0-8.1.2.53.53,0,0,0-.14.73A.52.52,0,0,0,169.14,133.9Z"/><path class="cls-13" d="M141.13,138.56a.53.53,0,0,0,.37-.15,7.47,7.47,0,0,1,6.63-1.71.52.52,0,0,0,.32-1,8.5,8.5,0,0,0-7.68,2,.52.52,0,0,0,.36.9Z"/><path class="cls-13" d="M191.15,136.71a.52.52,0,0,0,.52-.45c3.54-24.4-6.64-42.1-25.93-45.12-2-.3-10.83-1-15.4,1.61a.52.52,0,0,0,.51.91c4.32-2.43,12.84-1.77,14.72-1.48,18.68,2.92,28.51,20.16,25.06,43.93a.53.53,0,0,0,.45.59Z"/><path class="cls-13" d="M126.84,143.74a.39.39,0,0,0,.18,0,.52.52,0,0,0,.31-.67c-7.65-20.18-4.65-31.53-.79-37.5a18.7,18.7,0,0,1,14.73-8.59.52.52,0,0,0,.49-.55.53.53,0,0,0-.55-.5A19.74,19.74,0,0,0,125.66,105c-4,6.17-7.12,17.85.68,38.44A.53.53,0,0,0,126.84,143.74Z"/><path class="cls-13" d="M149.55,126.28a.52.52,0,0,0,.53-.51.54.54,0,0,0-.52-.54c-6.21-.13-12-5.69-13.75-10.77a.53.53,0,0,0-.67-.32.53.53,0,0,0-.33.67c1.64,4.67,7.29,11.32,14.73,11.47Z"/><path class="cls-13" d="M167.3,126.88a.53.53,0,0,0,.52-.45.54.54,0,0,0-.46-.59,23.26,23.26,0,0,1-17.16-11.49.52.52,0,0,0-.71-.21.52.52,0,0,0-.2.71,24.27,24.27,0,0,0,17.94,12Z"/><path class="cls-13" d="M183.9,133a.54.54,0,0,0,.48-.29.53.53,0,0,0-.25-.7c-4.24-2.05-8.35-6.85-11-12.86a.52.52,0,0,0-1,.42c2.74,6.23,7,11.23,11.5,13.38A.44.44,0,0,0,183.9,133Z"/><path class="cls-13" d="M132.43,141.29a.54.54,0,0,0,.27-.07c3.68-2.2,4.57-9.22,4.28-13.4a.55.55,0,0,0-.57-.48.52.52,0,0,0-.48.56c.28,4-.7,10.58-3.77,12.42a.52.52,0,0,0-.18.72A.52.52,0,0,0,132.43,141.29Z"/><path class="cls-14" d="M148.87,147.68a2,2,0,1,0-1.44,2.8A2.24,2.24,0,0,0,148.87,147.68Z"/><path class="cls-14" d="M175.44,144.81a2,2,0,1,0-2,2.45A2.24,2.24,0,0,0,175.44,144.81Z"/><path class="cls-13" d="M131,156.25a.51.51,0,0,0,.36-.15.52.52,0,0,0,0-.74,13.17,13.17,0,0,0-2-1.79.53.53,0,0,0-.72.21.54.54,0,0,0,.21.71,14.46,14.46,0,0,1,1.72,1.59A.52.52,0,0,0,131,156.25Z"/><path class="cls-13" d="M99.32,332.63H98.26c-.69-6.27-.54-13.95-.38-22,.19-9.31.38-18.94-.59-28.14a.52.52,0,0,1,.47-.57.5.5,0,0,1,.57.46c1,9.27.79,18.93.6,28.27C98.77,318.72,98.62,326.4,99.32,332.63Z"/><path class="cls-13" d="M222.45,308.47c1,8.15,1.9,15.88,2.12,24.16h-1c-.22-8.22-1.13-15.92-2.11-24-1-8.28-2-16.84-2.34-26.48-.17-5.15.1-11.68.41-19.24s.66-16.33.66-25.78a.53.53,0,0,1,.53-.53.52.52,0,0,1,.52.53c0,9.47-.35,18.16-.66,25.82s-.58,14.05-.41,19.16C220.43,291.68,221.46,300.22,222.45,308.47Z"/><path class="cls-13" d="M72.5,284.86h0a.53.53,0,0,0,.51-.54c-.13-6.13-2.22-11.53-4.44-17.25a83.67,83.67,0,0,1-4.66-14.86.52.52,0,0,0-.61-.42.52.52,0,0,0-.42.61,84.25,84.25,0,0,0,4.71,15c2.18,5.63,4.24,10.95,4.37,16.89A.53.53,0,0,0,72.5,284.86Z"/><path class="cls-13" d="M63.33,308.39a10.64,10.64,0,0,0,3.36-.55c6.43-2.11,15.72-8.51,23.49-27a.52.52,0,0,0-.28-.69.53.53,0,0,0-.68.28c-7.63,18.13-16.64,24.37-22.85,26.41-6.37,2.08-11.72-2.68-16.1-7.63-6.52-7.35-10.07-17.43-11.15-31.73-1.45-19.11-2.84-32.46-5.66-44.13a.53.53,0,1,0-1,.25c2.82,11.6,4.2,24.91,5.64,44,1.1,14.54,4.73,24.82,11.41,32.35C53.11,304,57.81,308.39,63.33,308.39Z"/><path class="cls-13" d="M125.5,196.29h.11c6.83-1.45,9.18-3,11.74-5,3.89-3.08,5.27-9.76,3.79-18.34a.52.52,0,0,0-1,.18c1.41,8.19.17,14.5-3.41,17.33-2.45,1.94-4.7,3.43-11.31,4.83a.53.53,0,0,0-.4.63A.52.52,0,0,0,125.5,196.29Z"/><path class="cls-13" d="M250.48,216.05a.53.53,0,0,0,.11-1c-7.1-1.53-13-4.84-18.64-8-4.73-2.67-9.19-5.19-14.12-6.58a112.78,112.78,0,0,0-15.17-2.83c-5.94-.82-11.54-1.6-15.67-3.4-5.09-2.22-6.43-11.86-5.49-20.42a.53.53,0,0,0-.47-.58.52.52,0,0,0-.58.47c-1,8.94.54,19.05,6.12,21.49,4.26,1.86,9.94,2.65,15.94,3.48a113.11,113.11,0,0,1,15,2.8c4.81,1.36,9.21,3.85,13.88,6.48,5.74,3.24,11.68,6.59,18.94,8.16Z"/><path class="cls-13" d="M166,209.07c8.83,0,16.19-4.66,21.27-13.49a.53.53,0,0,0-.19-.72.53.53,0,0,0-.72.19c-4.94,8.58-12.09,13.1-20.64,13-11.56-.13-24-8.85-28.45-16.91a.52.52,0,0,0-.71-.21.53.53,0,0,0-.21.71c4.53,8.29,17,17.32,29.36,17.46Z"/><path class="cls-13" d="M256.18,271.45h.21c2.8-.13,5.56-2.8,8.21-7.93a.52.52,0,0,0-.22-.71.53.53,0,0,0-.71.23c-2.43,4.7-5,7.25-7.33,7.36-1.82.06-3.66-1.27-5.42-4-1.47-2.31-2.77-8.69-3.58-17.52l0-.43c-.61-6.8-1.26-13.83,2-19.87a43,43,0,0,1,6.26-7.85.52.52,0,0,0-.74-.74,44,44,0,0,0-6.44,8.09c-3.42,6.32-2.74,13.83-2.13,20.46l0,.43c.48,5.29,1.6,14.65,3.74,18C252,269.93,254,271.45,256.18,271.45Z"/><path class="cls-13" d="M255.25,271.37a.52.52,0,0,0,.52-.46.51.51,0,0,0-.46-.58c-5.3-.68-25.74-4.62-31.13-9.52a.52.52,0,1,0-.7.78c6,5.44,27.91,9.29,31.7,9.78Z"/><path class="cls-13" d="M86.43,290.5c2.25,0,4.67-.81,5.67-2.77.82-1.58.93-4.43-3.14-9-.82-.91-1.65-1.89-2.49-2.9-5-5.94-10.7-12.66-18.91-10.75a.53.53,0,1,0,.23,1c7.59-1.77,13,4.69,17.88,10.4.85,1,1.69,2,2.51,2.92,2.87,3.19,3.93,6,3,7.79s-3.56,2.37-5.63,2.14a.55.55,0,0,0-.58.47.53.53,0,0,0,.47.58C85.75,290.48,86.09,290.5,86.43,290.5Z"/><path class="cls-13" d="M91.62,288a.54.54,0,0,0,.47-.29,40.69,40.69,0,0,0,3-10,50.81,50.81,0,0,1,2.1-7.94c.37-1,1-2.34,1.71-3.93,2-4.53,4.79-10.72,6.09-16.41a.53.53,0,0,0-1-.23c-1.27,5.59-4,11.72-6,16.21-.72,1.6-1.35,3-1.73,4a51.72,51.72,0,0,0-2.15,8.09,38.94,38.94,0,0,1-2.91,9.72.53.53,0,0,0,.23.71A.69.69,0,0,0,91.62,288Z"/><path class="cls-13" d="M75.06,125.56a.39.39,0,0,0,.15,0l17.86-5.2a.53.53,0,0,0,.35-.65.52.52,0,0,0-.65-.36l-17.86,5.2a.53.53,0,0,0-.35.66A.52.52,0,0,0,75.06,125.56Z"/><path class="cls-13" d="M94,128.58a.54.54,0,0,1-.25-.32l-1.13-3.94a.52.52,0,0,1,.36-.65l4.16-1.2a.51.51,0,0,1,.4,0,.52.52,0,0,1,.25.31L99,126.77a.52.52,0,0,1-.36.65l-4.16,1.2-.14,0A.58.58,0,0,1,94,128.58Zm2.92-5-3.15.9.85,2.94,3.15-.91Z"/><path class="cls-13" d="M96.11,135.22a.55.55,0,0,1-.25-.31L94.72,131a.53.53,0,0,1,.36-.65l4.16-1.19a.5.5,0,0,1,.4,0,.54.54,0,0,1,.25.32l1.14,3.94a.52.52,0,0,1-.36.65l-4.16,1.2-.15,0A.45.45,0,0,1,96.11,135.22ZM99,130.27l-3.15.91.84,2.93,3.15-.91Z"/><path class="cls-13" d="M98.3,142.05a.52.52,0,0,1-.25-.31l-1.13-3.94a.52.52,0,0,1,.36-.65l4.16-1.2a.55.55,0,0,1,.4,0,.54.54,0,0,1,.25.32l1.13,3.94a.52.52,0,0,1-.36.65l-4.16,1.2-.14,0A.48.48,0,0,1,98.3,142.05Zm2.93-5-3.16.91.85,2.93,3.15-.9Z"/><path class="cls-13" d="M83.19,153l.15,0,17.85-5.2a.54.54,0,0,0,.36-.66.52.52,0,0,0-.65-.35L83,151.94a.52.52,0,0,0-.36.65A.53.53,0,0,0,83.19,153Z"/><path class="cls-13" d="M102.16,156a.52.52,0,0,1-.25-.31l-1.13-3.94a.5.5,0,0,1,0-.4.55.55,0,0,1,.31-.25l4.17-1.2a.56.56,0,0,1,.4,0,.54.54,0,0,1,.25.32l1.13,3.94a.52.52,0,0,1-.36.65l-4.16,1.2-.15,0A.47.47,0,0,1,102.16,156Zm2.92-4.95-3.15.91.84,2.93,3.16-.9Z"/><path class="cls-13" d="M104.24,162.63a.52.52,0,0,1-.26-.32l-1.13-3.94a.52.52,0,0,1,.36-.65l4.16-1.2a.53.53,0,0,1,.65.36l1.13,4a.53.53,0,0,1-.35.65l-4.16,1.19a.39.39,0,0,1-.15,0A.51.51,0,0,1,104.24,162.63Zm2.92-4.95-3.15.91.84,2.93,3.15-.91Z"/><path class="cls-13" d="M106.43,169.46a.55.55,0,0,1-.25-.31l-1.13-4a.52.52,0,0,1,.36-.65l4.16-1.19a.51.51,0,0,1,.4,0,.54.54,0,0,1,.25.32l1.13,3.94a.52.52,0,0,1-.36.65l-4.16,1.2-.14,0A.59.59,0,0,1,106.43,169.46Zm2.92-5-3.15.91.85,2.93,3.15-.91Z"/><path class="cls-13" d="M91.52,180.45l.15,0,17.85-5.21a.53.53,0,0,0-.29-1l-17.86,5.21a.52.52,0,0,0-.36.65A.53.53,0,0,0,91.52,180.45Z"/><path class="cls-13" d="M110.24,183.15l-1.13-4a.51.51,0,0,1,0-.4.54.54,0,0,1,.32-.25l4.16-1.19a.52.52,0,0,1,.65.36l1.13,3.94a.55.55,0,0,1,0,.4.54.54,0,0,1-.32.25l-4.16,1.19-.14,0A.53.53,0,0,1,110.24,183.15Zm3.17-4.64-3.15.91.85,2.93,3.15-.91Z"/><path class="cls-13" d="M112.31,189.79l-1.13-3.94a.51.51,0,0,1,0-.4.52.52,0,0,1,.31-.25l4.16-1.2a.52.52,0,0,1,.65.36l1.13,3.94a.5.5,0,0,1,0,.4.47.47,0,0,1-.32.25l-4.16,1.2-.14,0A.53.53,0,0,1,112.31,189.79Zm3.18-4.63-3.15.9.84,2.94,3.15-.91Z"/><path class="cls-13" d="M114.51,196.62l-1.13-3.94a.5.5,0,0,1,0-.4.54.54,0,0,1,.32-.25l4.16-1.2a.53.53,0,0,1,.65.36l1.13,3.95a.53.53,0,0,1,0,.39.52.52,0,0,1-.32.26L115.16,197l-.14,0A.53.53,0,0,1,114.51,196.62Zm3.17-4.63-3.15.9.85,2.94,3.15-.91Z"/><path class="cls-13" d="M54.93,221.39l.15,0,62.34-18.68a.51.51,0,0,0,.35-.65.52.52,0,0,0-.65-.36L54.78,220.36a.52.52,0,0,0-.35.65A.53.53,0,0,0,54.93,221.39Z"/><path class="cls-13" d="M56.41,225.81a.4.4,0,0,0,.15,0L118.9,207.1a.52.52,0,1,0-.3-1L56.26,224.78a.52.52,0,0,0-.35.65A.53.53,0,0,0,56.41,225.81Z"/><path class="cls-13" d="M58,230.7l.15,0L120.45,212a.53.53,0,0,0-.31-1L57.81,229.67a.52.52,0,0,0,.15,1Z"/><path class="cls-13" d="M59.64,235.87l.15,0,62.33-18.69a.52.52,0,1,0-.3-1L59.49,234.84a.53.53,0,0,0-.36.65A.53.53,0,0,0,59.64,235.87Z"/><path class="cls-13" d="M53.57,246.9l.15,0,17.86-5.2a.52.52,0,0,0,.36-.65.53.53,0,0,0-.66-.36l-17.85,5.2a.53.53,0,0,0,.14,1Z"/><path class="cls-13" d="M58.71,137a.39.39,0,0,0,.15,0l31.51-9.18a.53.53,0,0,0-.29-1L58.56,136a.51.51,0,0,0-.35.65A.5.5,0,0,0,58.71,137Z"/><path class="cls-13" d="M60.72,143.75a.36.36,0,0,0,.14,0l31.52-9.18a.53.53,0,0,0-.29-1l-31.52,9.19a.52.52,0,0,0,.15,1Z"/><path class="cls-13" d="M62.71,150.42l.15,0,31.51-9.18a.53.53,0,0,0-.29-1l-31.52,9.18a.53.53,0,0,0,.15,1Z"/><path class="cls-13" d="M66.87,164.84a.36.36,0,0,0,.14,0l31.52-9.18a.53.53,0,1,0-.29-1l-31.52,9.18a.53.53,0,0,0-.36.65A.53.53,0,0,0,66.87,164.84Z"/><path class="cls-13" d="M68.87,171.58a.39.39,0,0,0,.15,0l31.52-9.18a.53.53,0,0,0-.3-1l-31.51,9.18a.53.53,0,0,0-.36.65A.52.52,0,0,0,68.87,171.58Z"/><path class="cls-13" d="M70.87,178.25l.14,0L102.53,169a.52.52,0,0,0,.36-.65.51.51,0,0,0-.65-.35l-31.52,9.18a.52.52,0,0,0-.36.65A.53.53,0,0,0,70.87,178.25Z"/><path class="cls-13" d="M74.45,192.31a.32.32,0,0,0,.14,0l31.52-9.18a.53.53,0,1,0-.29-1L74.3,191.28a.53.53,0,0,0-.36.65A.53.53,0,0,0,74.45,192.31Z"/><path class="cls-13" d="M76.45,199.05a.39.39,0,0,0,.15,0l31.52-9.18a.53.53,0,1,0-.29-1L76.31,198a.53.53,0,0,0,.14,1Z"/><path class="cls-13" d="M78.45,205.72l.15,0,31.51-9.19a.52.52,0,0,0,.36-.65.51.51,0,0,0-.65-.35L78.3,204.69a.52.52,0,0,0-.36.65A.53.53,0,0,0,78.45,205.72Z"/><path class="cls-13" d="M98,133.48a.52.52,0,0,0,.24,0c.37-.17.41-.45.7-2.88l.07-.65a.53.53,0,0,0-.45-.59.54.54,0,0,0-.59.46l-.08.65c-.06.57-.14,1.23-.21,1.69l-.88-.63c-.82-.59-1.77-1.27-2.38-1.67a.52.52,0,1,0-.58.87c.6.4,1.54,1.07,2.35,1.66s1.26.9,1.52,1.06A.49.49,0,0,0,98,133.48Z"/><path class="cls-13" d="M103.58,154.46h0a.67.67,0,0,0,.44-.2,4.9,4.9,0,0,0,.7-2.7,7.4,7.4,0,0,1,.19-1.37.53.53,0,0,0-1-.3,7.92,7.92,0,0,0-.22,1.59,7.78,7.78,0,0,1-.26,1.72c-.37-.35-1-1-1.42-1.51a18,18,0,0,0-2.15-2.16.52.52,0,1,0-.61.85,19.23,19.23,0,0,1,2,2C102.74,154.06,103.14,154.46,103.58,154.46Z"/><path class="cls-13" d="M116.81,195.52a.65.65,0,0,0,.35-.09c.41-.27.43-.89.42-2.66a11.7,11.7,0,0,1,.08-1.89.52.52,0,0,0-1-.3,9.38,9.38,0,0,0-.13,2.19c0,.31,0,.69,0,1a31.82,31.82,0,0,0-4.49-4.58.53.53,0,0,0-.65.83,32.45,32.45,0,0,1,5,5.26.5.5,0,0,0,.44.21Z"/><path class="cls-13" d="M174.14,157.35a9.22,9.22,0,0,0,2-.2c5.63-1.17,9.28-7.16,8.11-13.36a13.56,13.56,0,0,0-.49-1.85.54.54,0,0,0-.67-.32.52.52,0,0,0-.32.67,11.65,11.65,0,0,1,.45,1.69c1.06,5.64-2.22,11.09-7.3,12.14a8.68,8.68,0,0,1-6.66-1.35,10.75,10.75,0,0,1-4.46-6.94,11.69,11.69,0,0,1-.19-2.36.53.53,0,0,0-.52-.53.51.51,0,0,0-.53.52,12.24,12.24,0,0,0,.21,2.56,11.78,11.78,0,0,0,4.9,7.62A9.87,9.87,0,0,0,174.14,157.35Z"/><path class="cls-13" d="M147.12,161.29a9.22,9.22,0,0,0,1.95-.2c5.64-1.17,9.28-7.16,8.12-13.36a14.24,14.24,0,0,0-.42-1.62.51.51,0,0,0-.66-.33.52.52,0,0,0-.34.66,10.71,10.71,0,0,1,.38,1.48c1.06,5.64-2.21,11.09-7.29,12.14a8.69,8.69,0,0,1-6.67-1.35,10.7,10.7,0,0,1-4.45-6.94,11.49,11.49,0,0,1-.2-1.93.53.53,0,0,0-1,0,13.48,13.48,0,0,0,.22,2.1,11.78,11.78,0,0,0,4.9,7.63A9.93,9.93,0,0,0,147.12,161.29Z"/><path class="cls-13" d="M156.94,149.4a.53.53,0,0,0,.35-.13,5.64,5.64,0,0,1,6.5-.81.53.53,0,0,0,.72-.17.51.51,0,0,0-.17-.72c-2.58-1.62-5.92-.73-7.76.92a.52.52,0,0,0,0,.74A.49.49,0,0,0,156.94,149.4Z"/><path class="cls-13" d="M184,146.1a.52.52,0,0,0,.45-.26l2.79-4.75a.53.53,0,0,0-.19-.72.52.52,0,0,0-.72.19l-2.78,4.75a.52.52,0,0,0,.18.72A.54.54,0,0,0,184,146.1Z"/><path class="cls-13" d="M137.12,152.39a.51.51,0,0,0,.43-.23.52.52,0,0,0-.13-.73l-4.59-3.12a.52.52,0,1,0-.59.86l4.59,3.13A.52.52,0,0,0,137.12,152.39Z"/><path class="cls-15" d="M32.4,160.49A10.56,10.56,0,0,1,21.34,149.7a11.63,11.63,0,0,1,3.37-8,11.83,11.83,0,0,1,4.13-2.77,10.93,10.93,0,0,1,11.69,2.18h0a11.21,11.21,0,0,1-.2,15.82,11.81,11.81,0,0,1-3.79,2.63A11.48,11.48,0,0,1,32.4,160.49Zm7.39-18.65a9.88,9.88,0,0,0-10.56-2,10.86,10.86,0,0,0-6.84,9.82,9.5,9.5,0,0,0,10,9.73,10.66,10.66,0,0,0,7.22-3.26,10.15,10.15,0,0,0,.21-14.34Z"/></g><path class="cls-15" d="M27.91,149.34a14.44,14.44,0,0,1,5.77,3.39c.53.5,1.44,0,1.51-.66.37-3.79,2.87-7,5.18-9.9a55.45,55.45,0,0,1,8.9-8.76c1-.75-.23-2.24-1.2-1.48a57.74,57.74,0,0,0-9.41,9.34c-2.46,3.08-5,6.54-5.37,10.57l1.51-.65a15.67,15.67,0,0,0-6.2-3.62c-1.16-.37-1.87,1.4-.69,1.77Z"/><path class="cls-13" d="M29.13,131.48l.92,3.11-1.83.54-2.33-7.9,4.53-1.34.45,1.52-2.7.79.52,1.76,2.7-.79.44,1.51Z"/><path class="cls-13" d="M35.07,133.12l-2.33-7.91,1.83-.54,2.33,7.91Z"/><path class="cls-13" d="M44.8,130.25l-4.69-3.6,1.35,4.59-1.83.53-2.33-7.9,1.62-.48L43.65,127l-1.36-4.61,1.83-.54,2.33,7.91Z"/><path class="cls-13" d="M54.16,127.5l-.88-1.25-2.6.76-.09,1.54-2,.59,1-8.87,1.45-.43,5.28,7Zm-3.38-2.1,1.58-.46-1.43-2.06h0Z"/><path class="cls-13" d="M63.54,124.74l-4.69-3.6,1.35,4.58-1.83.54L56,118.35l1.62-.47,4.73,3.61L61,116.88l1.83-.53,2.32,7.9Z"/><path class="cls-13" d="M71.79,116a2.71,2.71,0,0,0-1.86-.17A2.44,2.44,0,0,0,68.41,119a2.32,2.32,0,0,0,3,1.84,2.55,2.55,0,0,0,1.46-1.17l1.42,1a4.68,4.68,0,0,1-2.5,1.78,4.12,4.12,0,0,1-5.31-2.88,4.28,4.28,0,0,1,3-5.32,4.79,4.79,0,0,1,2.8.08Z"/><path class="cls-13" d="M76.68,120.87,74.36,113l5.19-1.52L80,113l-3.37,1,.46,1.57,3.37-1L80.9,116l-3.36,1,.53,1.8,3.36-1,.45,1.51Z"/><path class="cls-2" d="M432.3,276.16c-.66.22-13-14.29-13-14.29a112.6,112.6,0,0,1,29.16-25.09l12.93,10.78A127.85,127.85,0,0,0,432.3,276.16Z"/><path class="cls-16" d="M431.93,276.42a105,105,0,0,1-12.87-14.35l-.17-.22.18-.21c7.7-8.7,17.2-18.49,29.25-25.16l.23-.12.19.18a76.11,76.11,0,0,0,12.87,10.73l.44.29-.44.29c-11.62,7.62-20.89,18.21-29.18,28.53l-.23.29Zm16.5-39.21c-11.76,6.56-21.08,16.13-28.66,24.67a103.41,103.41,0,0,0,12.36,13.78c8.16-10.14,17.28-20.52,28.66-28.1A77.74,77.74,0,0,1,448.43,237.21Z"/><path class="cls-16" d="M432.17,273.77A105.65,105.65,0,0,1,421.45,262l-.18-.22.19-.22c6.58-7.34,15.55-16.62,26.69-23.22l.22-.14.19.19a81.12,81.12,0,0,0,10.72,9.06l.41.28-.41.28c-11.07,7.67-20,17.8-26.61,25.77l-.23.29ZM448.27,239c-10.84,6.49-19.62,15.52-26.1,22.74A102.83,102.83,0,0,0,432.38,273c6.49-7.86,15.28-17.74,26.1-25.33A80.87,80.87,0,0,1,448.27,239Z"/><path class="cls-16" d="M435.9,258.31a6.44,6.44,0,0,1-1.75-4.73,6.21,6.21,0,0,1,2-4.45c2.58-2.29,6.7-1.5,9,.54a5.06,5.06,0,0,1,1.72,3.75,6,6,0,0,1-1.86,4.42A7.68,7.68,0,0,1,439.9,260,5.46,5.46,0,0,1,435.9,258.31Zm.71-8.66a5.51,5.51,0,0,0-1.77,4,5.71,5.71,0,0,0,1.55,4.22h0c2.28,2.33,6,1.56,8.18-.49a5.35,5.35,0,0,0,1.66-3.91,4.4,4.4,0,0,0-1.49-3.24,7.4,7.4,0,0,0-4.7-1.77A5.08,5.08,0,0,0,436.61,249.65Z"/><path class="cls-16" d="M441.69,257.06a2.44,2.44,0,0,0,1.53-.59,2.33,2.33,0,0,0,1-2.08.35.35,0,0,0-.41-.26.33.33,0,0,0-.26.4,1.69,1.69,0,0,1-.74,1.41,1.54,1.54,0,0,1-1.56.33,1.3,1.3,0,0,1-.69-.73,1.36,1.36,0,0,1,.07-1.08l.11-.25c.51-1.05,1-2,.33-2.9a2.06,2.06,0,0,0-2.37-.71,2.51,2.51,0,0,0-1.55,2.42.33.33,0,0,0,.34.33h0a.33.33,0,0,0,.33-.35,1.84,1.84,0,0,1,1.11-1.76,1.37,1.37,0,0,1,1.6.5c.37.49.1,1.11-.41,2.17l-.12.25a2,2,0,0,0-.09,1.62,2,2,0,0,0,1.06,1.13A1.88,1.88,0,0,0,441.69,257.06Z"/><path class="cls-16" d="M444.41,256.7a.35.35,0,0,0,.26-.13.34.34,0,0,0,0-.48,83.57,83.57,0,0,1-6.61-6.4.34.34,0,0,0-.48,0,.35.35,0,0,0,0,.49,84.83,84.83,0,0,0,6.67,6.45A.31.31,0,0,0,444.41,256.7Z"/><path class="cls-16" d="M443.45,257.61a.32.32,0,0,0,.26-.12.35.35,0,0,0,0-.49,83.78,83.78,0,0,1-6.61-6.46.35.35,0,0,0-.49,0,.36.36,0,0,0,0,.49,85.15,85.15,0,0,0,6.66,6.51A.31.31,0,0,0,443.45,257.61Z"/><path class="cls-2" d="M459.61,221a228.63,228.63,0,0,1-42.29-12.67l-8,22.56c-1.56.75,45.11,7.62,49.64,6.52C459,234.57,459.61,221,459.61,221Z"/><path class="cls-16" d="M459,237.72a244.75,244.75,0,0,1-49.7-6.53l-.37-.09.12-.35c2.56-7.45,5.25-15,8-22.56l.12-.34.33.14a230.73,230.73,0,0,0,42.23,12.65l.29.06V221c-.29,5.51-.5,11-.65,16.4v.34Zm-41.44-29c-2.65,7.28-5.26,14.63-7.74,21.85A245.21,245.21,0,0,0,458.64,237c.14-5.18.34-10.48.61-15.78A230.67,230.67,0,0,1,417.52,208.76Z"/><path class="cls-16" d="M456.85,236.29A245.11,245.11,0,0,1,412,229.85l-.36-.08.12-.36c2-6.14,4.17-12.4,6.34-18.6l.12-.33.33.13a232.79,232.79,0,0,0,39.1,11.08l.3.05,0,.31c-.3,4.65-.56,9.34-.76,13.91l0,.34Zm-38.18-24.92c-2.08,6-4.13,12-6.1,17.9a243.88,243.88,0,0,0,44,6.31c.2-4.37.44-8.83.73-13.28A232.09,232.09,0,0,1,418.67,211.37Z"/><path class="cls-16" d="M434.8,232.45a7.4,7.4,0,0,1-5.07-3.19,6.51,6.51,0,0,1-.89-5.24h0a7.11,7.11,0,0,1,3.34-4.43,7,7,0,0,1,5.4-.74c3.3.89,6.48,4.29,5.88,8.21-.54,3.49-4,5.48-7.42,5.48A8.52,8.52,0,0,1,434.8,232.45Zm-2.27-12.27a6.43,6.43,0,0,0-3,4h0a5.8,5.8,0,0,0,.79,4.69,6.75,6.75,0,0,0,4.6,2.89c3.37.51,7.34-1.3,7.88-4.81s-2.36-6.63-5.38-7.45a6.53,6.53,0,0,0-1.64-.21A6.43,6.43,0,0,0,432.53,220.18Z"/><path class="cls-16" d="M436,231.22a.33.33,0,0,0,.33-.28c.63-3.25,1.3-6.65,2-10.11a.34.34,0,1,0-.67-.14c-.71,3.46-1.39,6.87-2,10.13a.34.34,0,0,0,.27.4Z"/><path class="cls-16" d="M434.37,231a.34.34,0,0,0,.34-.27c.61-3,1.29-6.28,2.14-10.23a.35.35,0,1,0-.68-.14c-.84,4-1.52,7.2-2.14,10.23a.34.34,0,0,0,.27.4Z"/><path class="cls-2" d="M402.71,244.34c-.32-1.94,5.73-19.7,5.73-19.7.68-2.09-41.57-15.43-42.31-12.7-.18.65-5.52,19.6-5.52,19.6A129.79,129.79,0,0,1,402.71,244.34Z"/><path class="cls-16" d="M402.55,244.65c-11.58-6.16-24.93-10.21-42-12.77l-.36-.06.07-.35a172.12,172.12,0,0,1,5.53-19.64l.1-.27.28,0c17.2,2.52,30.68,6.57,42.42,12.74l.26.14-.1.28a169.19,169.19,0,0,0-5.71,19.66l-.1.44Zm-36.19-32.33A167.8,167.8,0,0,0,361,231.25c16.78,2.55,30,6.55,41.45,12.58a172.27,172.27,0,0,1,5.54-19C396.47,218.78,383.22,214.81,366.36,212.32Z"/><path class="cls-16" d="M401.42,242.3c-10.8-5.46-23-9.17-38.33-11.65l-.36-.06.08-.35c1.19-5.26,2.7-10.61,4.61-16.36l.09-.27.29,0c15.46,2.46,27.76,6.15,38.69,11.63l.27.14-.1.28c-2,5.74-3.51,11.1-4.75,16.37l-.1.42ZM368,214.38c-1.81,5.48-3.26,10.61-4.42,15.65,15.07,2.47,27.09,6.11,37.78,11.46,1.21-5.07,2.71-10.22,4.57-15.73C395.18,220.42,383.11,216.8,368,214.38Z"/><path class="cls-16" d="M384.45,233.66c-3.37-1-6.3-4.61-5.17-8.55h0a7.51,7.51,0,0,1,9.05-5c3.87,1.16,5.3,5.59,4.41,9a6.32,6.32,0,0,1-3.09,3.93,6.7,6.7,0,0,1-3.28.86A6.57,6.57,0,0,1,384.45,233.66Zm-1.28-12.26a6.65,6.65,0,0,0-3.23,3.9c-1,3.54,1.65,6.76,4.72,7.7a6,6,0,0,0,4.66-.51,5.61,5.61,0,0,0,2.75-3.5c.82-3.13-.46-7.16-3.94-8.2a6,6,0,0,0-1.69-.24A6.87,6.87,0,0,0,383.17,221.4Z"/><path class="cls-2" d="M235.79,243c-.75-1.82,1.22-20.48,1.22-20.48.21-2.19-44-5.84-44.07-3,0,.67-1.05,20.33-1.05,20.33A129.72,129.72,0,0,1,235.79,243Z"/><path class="cls-16" d="M235.7,243.33c-12.66-3.43-26.57-4.43-43.78-3.15l-.36,0v-.37a168.86,168.86,0,0,1,1-20.37l0-.28.28,0c17.33-1.35,31.37-.39,44.19,3l.28.08,0,.29A169.63,169.63,0,0,0,236.13,243v.45Zm-42.45-23.5a168.73,168.73,0,0,0-1,19.64c16.93-1.24,30.68-.26,43.21,3.08a170.45,170.45,0,0,1,1.19-19.77C224.05,219.46,210.24,218.52,193.25,219.83Z"/><path class="cls-16" d="M234.08,241.29c-11.75-2.93-24.45-3.84-40-2.87l-.37,0v-.37c0-5.39.29-10.94.88-17l0-.29.29,0c15.62-1,28.43-.15,40.3,2.78l.29.07,0,.3c-.63,6-1,11.6-1,17v.44Zm-38.8-19.82c-.55,5.75-.83,11.08-.84,16.25,15.24-.94,27.77-.05,39.38,2.8.06-5.21.38-10.57,1-16.35C223.15,221.34,210.58,220.48,195.28,221.47Z"/><path class="cls-16" d="M215.62,236.63c-3.52-.27-7.17-3.1-6.94-7.19h0a7.49,7.49,0,0,1,7.72-6.86c4,.27,6.41,4.27,6.3,7.83a6.26,6.26,0,0,1-2.14,4.51,6.72,6.72,0,0,1-4.46,1.72Zm-4-11.67a6.62,6.62,0,0,0-2.28,4.52c-.21,3.67,3.1,6.21,6.3,6.46a6,6,0,0,0,4.43-1.53,5.57,5.57,0,0,0,1.91-4c.1-3.24-2-6.89-5.65-7.13H216A6.6,6.6,0,0,0,211.65,225Z"/><path class="cls-2" d="M382.17,263.52a230.13,230.13,0,0,1-43.53,7.35s2.45,23.18,2.82,23.76c.84,1.31,47.72-14.22,47.4-16.11Z"/><path class="cls-16" d="M341.12,294.67c-1-7.81-1.95-15.81-2.82-23.76l0-.36.36,0a230.31,230.31,0,0,0,43.47-7.34l.28-.08.12.28c2.18,5.05,4.42,10.1,6.68,15l.14.31-.31.14A245,245,0,0,1,341.53,295l-.37.09ZM382,263.93a230.58,230.58,0,0,1-43,7.26c.84,7.7,1.76,15.44,2.73,23a245,245,0,0,0,46.65-15.86C386.23,273.64,384.07,268.79,382,263.93Z"/><path class="cls-16" d="M343,292.24c-.88-6.41-1.74-13-2.53-19.48l0-.35.35,0a232.39,232.39,0,0,0,40-7.36l.29-.08.12.28c1.79,4.32,3.63,8.63,5.47,12.81l.14.32-.32.14a245.18,245.18,0,0,1-43,14l-.36.08Zm37.64-26.49A232.34,232.34,0,0,1,341.21,273c.77,6.28,1.59,12.59,2.44,18.76A245.33,245.33,0,0,0,385.88,278C384.13,274,382.37,269.87,380.66,265.75Z"/><path class="cls-16" d="M359,284.17a6.48,6.48,0,0,1-3.12-4.3h0a7.18,7.18,0,0,1,1-5.46,7,7,0,0,1,4.51-3c3.36-.66,7.72,1,8.91,4.76s-1.82,7.53-5.39,8.66a7.57,7.57,0,0,1-2.3.36A7.21,7.21,0,0,1,359,284.17ZM361.61,272a6.33,6.33,0,0,0-4.07,2.75,6.44,6.44,0,0,0-1,4.93,5.84,5.84,0,0,0,2.8,3.86,6.72,6.72,0,0,0,5.4.55c3.25-1,6-4.4,4.94-7.79-.9-2.86-4-4.43-6.79-4.43A7.31,7.31,0,0,0,361.61,272Zm-5.35,7.75Z"/><path class="cls-2" d="M350.3,206.68A231.07,231.07,0,0,1,306.77,214s2.44,23.18,2.81,23.76c.84,1.31,47.73-14.22,47.4-16.11Z"/><path class="cls-16" d="M309.24,237.83c-1-7.81-1.95-15.81-2.81-23.77l0-.35.35,0a229.36,229.36,0,0,0,43.47-7.33l.29-.08.12.28c2.17,5,4.42,10.1,6.67,15l.15.32-.32.14a244.91,244.91,0,0,1-47.46,16.13l-.37.09Zm40.86-30.74a229.78,229.78,0,0,1-43,7.25c.84,7.71,1.75,15.45,2.72,23a245,245,0,0,0,46.65-15.86C354.36,216.8,352.2,212,350.1,207.09Z"/><path class="cls-16" d="M311.15,235.4c-.89-6.41-1.74-13-2.54-19.49l0-.35.35,0a232.39,232.39,0,0,0,40-7.36l.29-.08.12.28c1.79,4.31,3.64,8.62,5.47,12.81l.14.32-.31.14a245.72,245.72,0,0,1-43,14.05l-.37.08Zm37.63-26.49a233.22,233.22,0,0,1-39.44,7.27c.77,6.28,1.59,12.58,2.44,18.76A245.23,245.23,0,0,0,354,221.14C352.25,217.14,350.5,213,348.78,208.91Z"/><path class="cls-16" d="M327.17,227.33a6.48,6.48,0,0,1-3.12-4.31l.33-.07-.33.07a7.16,7.16,0,0,1,5.55-8.5c3.35-.65,7.71,1,8.91,4.77s-1.82,7.53-5.39,8.66a7.6,7.6,0,0,1-2.3.35A7.15,7.15,0,0,1,327.17,227.33Zm2.56-12.13a6.32,6.32,0,0,0-4.07,2.75,6.47,6.47,0,0,0-.94,4.93,5.84,5.84,0,0,0,2.79,3.86,6.72,6.72,0,0,0,5.4.55c3.25-1,6-4.4,4.94-7.8-.9-2.85-4-4.42-6.78-4.42A6.55,6.55,0,0,0,329.73,215.2Z"/><path class="cls-17" d="M447.79,208.38c-.08-1-.28-1.84-1.28-2.07l-4.59.08a3.9,3.9,0,0,0-3.08,2.87c-5.7,22.69-6,44.86.29,66.37a9,9,0,0,0,2.64,2.21l4.46.15a2.55,2.55,0,0,0,1.77-2.06Z"/><path class="cls-18" d="M627.67,208H447.49c-1.9.1-3.9.71-4.58,4.85a113.68,113.68,0,0,0,.83,61.09,10.59,10.59,0,0,0,3.75,1.61H627.67"/><path class="cls-19" d="M550.5,181.22a11.67,11.67,0,0,1,9.45,3.27c.39,1.92-.13,3.55-2.87,4.46v16.14a6.93,6.93,0,0,1,4.25,2.94v6.05c-3.15,3.83-17.34,3.87-20.28,0l0-5.7c.17-1.85,1.82-2.79,4.2-3.28V189.67c-3-.77-4.12-2.21-4.24-4C541.48,182.43,545.16,181.29,550.5,181.22Z"/><path class="cls-16" d="M551.18,210.18a13.21,13.21,0,0,0,5.12-1.07,1.83,1.83,0,0,0,1.12-1.68V192.8a.34.34,0,0,0-.34-.34.35.35,0,0,0-.35.34v14.63a1.11,1.11,0,0,1-.69,1,12.06,12.06,0,0,1-9.71,0,1.12,1.12,0,0,1-.7-1V189.67a.34.34,0,0,0-.68,0v17.76a1.82,1.82,0,0,0,1.11,1.68A13.21,13.21,0,0,0,551.18,210.18Z"/><path class="cls-2" d="M302.48,302.16s-11.13-20.52-11.08-21.83c.07-1.78,39-23.07,40.13-21.62l13.56,15.77A183.67,183.67,0,0,0,302.48,302.16Z"/><path class="cls-16" d="M302.18,302.34a179.6,179.6,0,0,1-11.09-21.87l-.11-.26.23-.16c15.24-10.55,28.47-17.15,41.61-20.78l.23-.07.14.2a101.07,101.07,0,0,0,12.14,14.84l.36.35-.46.21c-13.46,5.92-26.57,14.45-42.53,27.63l-.31.25ZM332.76,260c-12.92,3.61-25.94,10.12-40.93,20.47a178.52,178.52,0,0,0,10.74,21.18c15.69-12.93,28.66-21.36,41.92-27.27A102.53,102.53,0,0,1,332.76,260Z"/><path class="cls-16" d="M303.19,299.11a177.49,177.49,0,0,1-9.29-17.95l-.12-.27.23-.16c13.86-9.53,25.95-15.72,38.05-19.5l.24-.07.14.21A97.61,97.61,0,0,0,342.52,274l.34.35-.45.2c-12.19,5.46-24.5,13.3-38.71,24.68l-.31.25ZM332,262c-11.88,3.74-23.77,9.84-37.38,19.17a175,175,0,0,0,8.94,17.29c14-11.15,26.09-18.89,38.11-24.33A97.88,97.88,0,0,1,332,262Z"/><path class="cls-16" d="M315.87,284.43a6.49,6.49,0,0,1-4.15-3.06l.3-.18-.3.18a8,8,0,0,1-.73-6.23,7.13,7.13,0,0,1,3.51-4.46c3.4-1.8,8.12-.46,10.51,3a6,6,0,0,1,1,4.77,7.7,7.7,0,0,1-3.53,4.87,9.07,9.07,0,0,1-4.74,1.36A7.86,7.86,0,0,1,315.87,284.43Zm-1.05-13.15a6.5,6.5,0,0,0-3.17,4.05,7.37,7.37,0,0,0,.66,5.69,5.81,5.81,0,0,0,3.73,2.74,8.1,8.1,0,0,0,6.08-1.05,7,7,0,0,0,3.22-4.43,5.34,5.34,0,0,0-.89-4.23,8.39,8.39,0,0,0-6.61-3.5A6.43,6.43,0,0,0,314.82,271.28Z"/><path class="cls-20" d="M458.37,193.94a33.82,33.82,0,0,0-4.81,14.44h58.1l-.91-6.44Z"/><path class="cls-21" d="M498.45,121.93c-.25,0-2.33.06-4.07,0-8.74-.34-14.41,1.49-16.47,2.44-12.58,12.63-23.29,25.43-28.49,38.77-1.92,4.46-1.93,8.66.41,12.52,1.63,2.22,7.33,5.36,11.56,7.08l-3.06,8.11a2.73,2.73,0,0,0,.23,3.34c7.38,7.27,17,10.6,28.07,11.25a74.37,74.37,0,0,0,25.21-3.52c1.87-1.19,2-3.1,1.73-5.2,5.82-17.88,11.65-37.07,17.36-44.46l19.18,8.23,6.55,4,26.68,11.35c-.22,1.2.73,1.55,2.17,1.54l2.11,1.71,1-1.71,1.61-3a7.26,7.26,0,0,1,5.21-3.17,3.33,3.33,0,0,0,.1-2l-2-1c-1-1.27-2-2.24-3.21-1.54-7.88-6.25-18-12.8-29.23-19.5l-28-21c-5.75-3.77-10.94-5.11-15.46-3.54Z"/><path class="cls-16" d="M515.78,189.64a.34.34,0,0,0,.33-.24c.07-.22,7.25-22.23,10.47-29.35a53.52,53.52,0,0,1,7.85-12.29.34.34,0,0,0,0-.48.34.34,0,0,0-.48,0,54.07,54.07,0,0,0-8,12.47c-3.23,7.15-10.42,29.2-10.5,29.42a.36.36,0,0,0,.22.44Z"/><path class="cls-16" d="M540.7,185c0-2.31,4.31-4.12,9.8-4.12s9.8,1.81,9.8,4.12-4.31,4.13-9.8,4.13S540.7,187.31,540.7,185Zm.69,0c0,1.66,3.66,3.44,9.11,3.44s9.11-1.78,9.11-3.44-3.66-3.44-9.11-3.44S541.39,183.34,541.39,185Z"/><path class="cls-16" d="M540.7,185c0-2.31,4.31-4.12,9.8-4.12s9.8,1.81,9.8,4.12-4.31,4.13-9.8,4.13S540.7,187.31,540.7,185Zm.69,0c0,1.66,3.66,3.44,9.11,3.44s9.11-1.78,9.11-3.44-3.66-3.44-9.11-3.44S541.39,183.34,541.39,185Z"/><path class="cls-16" d="M489,205.66A79.47,79.47,0,0,0,511.75,202h0c.09,0,2.13-.81,2-4a.35.35,0,0,0-.69,0c.15,2.55-1.35,3.21-1.49,3.27-15.43,4.62-37,7.12-52.22-7.2a7.87,7.87,0,0,0-.76-.67c-1.25-.84.1-3.12.11-3.15l0-.07c1-2.92,1.7-4.92,2.82-7.64a.35.35,0,0,0-.19-.45.36.36,0,0,0-.45.19c-1.12,2.72-1.86,4.73-2.82,7.66-.2.34-1.59,2.89.12,4,.11.08.36.31.67.6a37.47,37.47,0,0,0,15,8.79A50.22,50.22,0,0,0,489,205.66Z"/><path class="cls-22" d="M502.55,196.29c-.4.25,5.8,11.18,7.29,10.29.75-.46,1.28-8,.78-8.49l0-7.18a22.28,22.28,0,0,0-8.48-1.06Z"/><path class="cls-22" d="M503.08,136.39a9.1,9.1,0,0,0,1,5.79c-.07,5.82-.57,16.66-.69,21.51-1,6.46-.1,8.6-1,14.59l1.45.25,6.43-2.78c.14-4.28-.8-7.36-.8-11.17-.8-9.91-1.45-23.07-2.6-22.23,1.85-.77,2.2-2.75,2.13-5.77Z"/><path class="cls-16" d="M509.37,207.1a1.07,1.07,0,0,0,.52-.14.87.87,0,0,0,.45-.65,55.85,55.85,0,0,0,.55-6.59c.05-1.07.11-2.27.19-3.66.26-4.31-.51-31.08-3.24-54a.34.34,0,1,0-.68.08c2.73,22.88,3.49,49.59,3.23,53.88-.08,1.39-.14,2.6-.19,3.66a54.35,54.35,0,0,1-.54,6.52.25.25,0,0,1-.11.17.46.46,0,0,1-.31,0c-1.95-1.85-6.08-8.48-6.56-10.9-.55-2.78.24-18.37.94-32.13.67-13.29,1-20.85.7-21.67a.34.34,0,0,0-.45-.18.33.33,0,0,0-.18.44c.29.81-.25,11.27-.76,21.38-.7,13.79-1.49,29.43-.92,32.3.51,2.58,4.78,9.44,6.82,11.32l0,0,.06,0A1.12,1.12,0,0,0,509.37,207.1Z"/><path class="cls-23" d="M507.61,180.18c5.78-4.17,25.36-6.61,32-6.61,18.6-.48,38.88,1.24,51.12,6l-.56,2.19c-13.12-4.09-32.3-5.63-48.25-5.14-10.4-.17-29.54,2.51-32.66,5.61C508.7,182.74,507.61,180.18,507.61,180.18Z"/><path class="cls-19" d="M599.76,190.85c-10.73,6.5-26.76,9.88-48.58,9.86-25-.62-43.06-3.78-50.91-10.68a20.5,20.5,0,0,1,7.81.42c10.62,5,26,6.58,43.58,6.57,23.17-.4,39.39-3.26,44-10.22C597.79,187.74,599.45,188.94,599.76,190.85Z"/><path class="cls-24" d="M590.82,180.75a4.06,4.06,0,0,0-2.33-3.65c.83-3.26,3.3-5.15,6.82-6.19a52,52,0,0,1,9,7.56,25,25,0,0,1,1,12.15l-.54,4.35-3.14,1.82L599.5,198l-3-2.13a5,5,0,0,1-4.6-.85l5.65-2.67a4.14,4.14,0,0,0,2-1.34c.53-.51.13-1-.66-1.86a6.28,6.28,0,0,0-3.3-2.3l-2.59,2.72-3.6,1.85-1.06-3.25Z"/><path class="cls-19" d="M545.86,170.32c-11.24-1.24-37.43,4.44-42.28,8.17l4,1.69c9.57-4.23,22.87-6.39,39.68-6.59,16.61-.22,31.27,1.51,43.09,6,0,0,.54.55-4.2-1.76-.83-.4-1.84-.73-2.75-1.08-.43-.17-.06-1.16-.4-1.31-1.09-.46-7-3.35-8.44-3.59C562.22,169.71,546.81,170.43,545.86,170.32Z"/><path class="cls-20" d="M495,313.79l-6.34-37.87H513.3a302.82,302.82,0,0,1,0,37.87A54.69,54.69,0,0,1,495,313.79Z"/><path class="cls-20" d="M451.33,275.93l22.73,0c0,8.08-2.64,21-5.63,38a52.47,52.47,0,0,1-17.1,0C451.66,302.1,449.48,289.27,451.33,275.93Z"/><path class="cls-16" d="M550.5,201.05c22.53,0,42-3.89,49.48-9.93a.35.35,0,0,0,0-.48.34.34,0,0,0-.48-.06c-7.42,5.95-26.67,9.79-49,9.79-14,0-27.19-1.58-37.09-4.44-9.64-2.78-15.16-6.58-15.16-10.41s5.52-7.63,15.16-10.42c9.9-2.86,23.07-4.43,37.09-4.43a174.71,174.71,0,0,1,24,1.57.34.34,0,0,0,.09-.68A175.88,175.88,0,0,0,550.5,170c-14.08,0-27.32,1.58-37.28,4.46s-15.66,6.85-15.66,11.08,5.56,8.15,15.66,11.07S536.42,201.05,550.5,201.05Z"/><path class="cls-16" d="M590.16,182.06a.34.34,0,0,0,.32-.21.35.35,0,0,0-.19-.45c-8.17-3.19-23.81-5.16-40.82-5.16a192.28,192.28,0,0,0-30.28,2.33.35.35,0,0,0-.28.39.36.36,0,0,0,.4.29,190.71,190.71,0,0,1,30.16-2.33c16.93,0,32.48,2,40.57,5.12A.25.25,0,0,0,590.16,182.06Z"/><path class="cls-16" d="M627.67,275.58H447.49a3.94,3.94,0,0,1-3.79-2.88,113,113,0,0,1,0-61.1,3.94,3.94,0,0,1,3.79-2.88h93.6a.35.35,0,0,0,.35-.34.35.35,0,0,0-.35-.35h-93.6a4.62,4.62,0,0,0-4.45,3.39,113.22,113.22,0,0,0,0,61.46,4.62,4.62,0,0,0,4.45,3.39H627.67"/><path class="cls-17" d="M499.09,208l-.9-1.77c-2.83.06-5.71.08-7,1.06l-.64,1c-6,23.06-6.35,45.51,0,67.25a3.46,3.46,0,0,0,2.36,2c1,.49,3,.46,5.22.35l1.28-1.72h-3.27c-7.44-22.91-6.95-45.64.28-68.2Z"/><path class="cls-17" d="M579.07,208l-.91-1.77c-2.82.06-5.7.08-7,1.06l-.64,1c-6,23.06-6.36,45.51,0,67.25a3.46,3.46,0,0,0,2.36,2c1,.49,3.06.46,5.23.35l1.28-1.72h-3.28c-7.44-22.91-6.95-45.64.28-68.2Z"/><path class="cls-17" d="M621.45,276.22c-7.42-21.64-6.88-51.24.28-68.2"/><path class="cls-17" d="M635.6,277.59c-.09,1-17.48.78-18.09-.32-8-6-7.61-45.44-1.72-68.55a2.51,2.51,0,0,1,.28-.65h0A2.29,2.29,0,0,1,617.6,207c3.09-.55,11.52-.66,15.84-.71a2.31,2.31,0,0,1,2.34,2.14C636.44,216.81,638.51,248,635.6,277.59Z"/><path class="cls-16" d="M505.63,136.13h.08a.34.34,0,0,0,.26-.4,4.6,4.6,0,0,0-2.42-2.68c-1.92-1.12-6.39-5.57-6-8.11a.34.34,0,0,0-.68-.11c-.49,3.08,4.5,7.75,6.31,8.81a4.12,4.12,0,0,1,2.1,2.23A.34.34,0,0,0,505.63,136.13Z"/><path class="cls-16" d="M497.79,141c1.29,0,3.07-2.49,3.64-3.45.78-1.32,1.57-2.15,2.11-2.22a.51.51,0,0,1,.46.18,1.76,1.76,0,0,1,.47.68.36.36,0,0,0,.43.24.35.35,0,0,0,.24-.42,2.51,2.51,0,0,0-.65-1,1.21,1.21,0,0,0-1-.37c-1,.12-2,1.45-2.62,2.55-1.11,1.88-2.68,3.3-3.13,3.1s-.69-2.46-1-4.08a38.61,38.61,0,0,0-1-5c-1-3.07-1.59-7.08-.85-8.14a2.3,2.3,0,0,1,2-.92.34.34,0,0,0,.38-.3.35.35,0,0,0-.31-.38,2.93,2.93,0,0,0-2.62,1.2c-1,1.51-.09,6.17.75,8.76a37.43,37.43,0,0,1,1,4.92c.48,2.92.73,4.33,1.36,4.6A.84.84,0,0,0,497.79,141Z"/><path class="cls-16" d="M507.45,136.39c-.1-.29-.19-1.37,3.17-2.75,3.15-1.29,5.83-4.94,5.66-6.41a.33.33,0,0,1,.3-.38.35.35,0,0,1,.38.3c.22,1.89-2.75,5.76-6.08,7.13-2.66,1.09-2.77,1.85-2.77,1.91a.35.35,0,0,1-.22.41l-.11,0A.36.36,0,0,1,507.45,136.39Zm.66-.19Zm0,0Zm0,0Z"/><path class="cls-16" d="M514,143.15c-.93,0-1.45-1.36-2.1-3.07-.57-1.48-1.22-3.16-2.07-3.48a.92.92,0,0,0-.78.09.35.35,0,0,1-.47-.14.33.33,0,0,1,.14-.46,1.56,1.56,0,0,1,1.35-.13c1.14.42,1.82,2.18,2.47,3.88.44,1.15,1,2.58,1.46,2.62.06,0,.39-.33.82-2.34.27-1.31.49-2.85.65-4,.09-.69.16-1.18.22-1.42a4.72,4.72,0,0,1,.5-1c1.13-2,3.47-6.11,1-11.29a.34.34,0,0,1,.62-.29c2.61,5.5.05,10-1,11.92a6.07,6.07,0,0,0-.43.84c-.05.21-.12.72-.21,1.37-.65,4.57-1.15,6.9-2.14,6.9Zm0-.68Z"/><path class="cls-16" d="M504.72,142.76a3.43,3.43,0,0,1-1.85-2.57c-.37-1.43-.43-3.49-.1-3.87.12-.14.4-.46,6-.14a.49.49,0,0,1,.46.51c.2,3.5-.83,5-1.72,5.71a2.85,2.85,0,0,1-1.71.56A3.24,3.24,0,0,1,504.72,142.76Zm-1.42-6a8.73,8.73,0,0,0,.52,4,2.18,2.18,0,0,0,1.13,1.28,2.28,2.28,0,0,0,2.19-.28c1.05-.79,1.57-2.55,1.45-5A38.11,38.11,0,0,0,503.3,136.8Zm0-.07Zm5.47-.2Z"/><path class="cls-16" d="M479.69,186.89a.35.35,0,0,0,.34-.31.34.34,0,0,0-.31-.37c-.3,0-30.49-3.21-31.49-15.16-.52-6.26,3.82-15.7,12.54-27.32A179.71,179.71,0,0,1,477,125.09c3.47-3.3,17.05-3.07,17.18-3.07a.34.34,0,0,0,.35-.34.34.34,0,0,0-.33-.35c-.57,0-14-.23-17.67,3.26a179.36,179.36,0,0,0-16.31,18.73c-9,11.92-13.22,21.27-12.67,27.79.24,2.93,2.11,5.59,5.55,7.89a40.46,40.46,0,0,0,11,4.78,96.37,96.37,0,0,0,15.57,3.11Z"/><path class="cls-16" d="M483.81,174.69a.36.36,0,0,0,.32-.21A.34.34,0,0,0,484,174c-.89-.39-21.81-9.66-25.67-8.61a.34.34,0,1,0,.18.66c2.9-.79,17.76,5.27,25.21,8.58Z"/><path class="cls-16" d="M466.11,165.41a.35.35,0,0,0,.23-.09c.11-.1,10.9-9.72,15-15.53s1.21-14.39,1.08-14.75a.34.34,0,0,0-.65.23c0,.09,3,8.5-1,14.13s-14.79,15.31-14.9,15.41a.34.34,0,0,0,0,.48A.34.34,0,0,0,466.11,165.41Z"/><path class="cls-16" d="M590.38,166.58a.35.35,0,0,0,.27-.14.34.34,0,0,0-.07-.48s-.74-.55-1.54-1.17c-6.63-5.13-17.09-11.56-23.33-15.39-1.81-1.11-3.23-2-4-2.5-1.35-.88-5.18-3.83-9.6-7.26-6.85-5.28-15.36-11.87-19.62-14.57-7.09-4.49-11.26-3.69-11.43-3.66a.35.35,0,1,0,.14.68c.07,0,4.12-.75,10.92,3.56,4.24,2.69,12.74,9.26,19.56,14.54,4.44,3.43,8.28,6.39,9.65,7.29.8.51,2.23,1.39,4,2.5,6.23,3.83,16.66,10.24,23.27,15.36l1.55,1.17A.31.31,0,0,0,590.38,166.58Z"/><path class="cls-16" d="M583.16,175.89a.34.34,0,0,0,.13-.66c-.19-.08-19-8.1-24.75-10.48a34.88,34.88,0,0,1-6.81-3.73,20.61,20.61,0,0,0-4-2.29c-3.4-1.36-14.49-6.14-14.6-6.19a.35.35,0,1,0-.28.64c.11,0,11.22,4.83,14.62,6.19a19.75,19.75,0,0,1,3.9,2.22,35.25,35.25,0,0,0,6.93,3.79c5.77,2.38,24.55,10.4,24.74,10.48A.35.35,0,0,0,583.16,175.89Z"/><path class="cls-16" d="M467.84,168.28a.34.34,0,0,0,.31-.19c2.06-4.1,3.57-6.78,3.59-6.81a.34.34,0,0,0-.6-.34s-1.54,2.73-3.6,6.84a.34.34,0,0,0,.15.46A.42.42,0,0,0,467.84,168.28Z"/><path class="cls-16" d="M589.13,191.49l-1-2.59c-.54-1.46,1.17-5.63,2.25-8a1.55,1.55,0,0,0,0-1.25,5.38,5.38,0,0,0-2-2.23.35.35,0,0,1,.09-.68,5.32,5.32,0,0,1,2.2,2,2.53,2.53,0,0,1,.34,2.47c-1.7,3.74-2.55,6.6-2.22,7.47l1,2.59a.35.35,0,0,1-.2.44.25.25,0,0,1-.12,0A.36.36,0,0,1,589.13,191.49Zm-.64-14.05Zm0,0h0Z"/><path class="cls-16" d="M599.72,198.11a1.23,1.23,0,0,0,.39-.06c1.62-.54,5.55-5.81,5.73-8.73s0-9.07-1.25-11-8.54-7.42-8.85-7.66a.35.35,0,0,0-.48.07.33.33,0,0,0,.07.48c.07.06,7.52,5.66,8.68,7.47s1.32,7.92,1.15,10.63-3.86,7.64-5.27,8.11c-.92.31-3.35-1.86-4.79-3.51a.34.34,0,1,0-.51.46C595.17,195,598,198.11,599.72,198.11Z"/><path class="cls-16" d="M598.71,193.19a.9.9,0,0,0,.28,0,1.56,1.56,0,0,0,1-1.17c.41-1.28-.29-2.85-1.87-4.21-1.09-.94-2.64-1.77-3.47-1.36a.34.34,0,0,0-.15.46.35.35,0,0,0,.46.16c.32-.16,1.48.19,2.72,1.26.51.44,2.13,2,1.65,3.48-.13.42-.32.66-.54.72-.37.09-.87-.29-1-.44a.35.35,0,0,0-.48.5A2.32,2.32,0,0,0,598.71,193.19Z"/><path class="cls-16" d="M593.06,189.86a.33.33,0,0,0,.17,0,.35.35,0,0,0,.14-.47,1.13,1.13,0,0,1-.12-1,3,3,0,0,1,1.7-1.29.35.35,0,0,0,.22-.44.34.34,0,0,0-.43-.22,3.72,3.72,0,0,0-2.13,1.69,1.83,1.83,0,0,0,.15,1.6A.33.33,0,0,0,593.06,189.86Z"/><path class="cls-16" d="M601,197.38a.27.27,0,0,0,.12,0,14.55,14.55,0,0,0,3.74-2c.92-.93.79-4.39.76-5.08a.34.34,0,0,0-.36-.32.35.35,0,0,0-.33.36c.08,1.47,0,4-.56,4.55a13.67,13.67,0,0,1-3.49,1.81.35.35,0,0,0,.12.67Z"/><path class="cls-16" d="M594.5,196.52a3.84,3.84,0,0,0,2.23-.43.34.34,0,0,0-.41-.55h0a3.83,3.83,0,0,1-1.82.29,3.43,3.43,0,0,1-2.32-1.08.34.34,0,0,0-.48,0,.35.35,0,0,0,0,.48A4,4,0,0,0,594.5,196.52Z"/><path class="cls-16" d="M587.33,179.16c-.62,0-1.13-.73-1.53-1.3l-.14-.2c-.17-.23-.59-.28-1-.33a3.29,3.29,0,0,1-1.34-.37.91.91,0,0,1-.38-.65c-.23-1.29.81-4.53,2.45-6.63,1.5-1.93,4.21-3.76,5.79-3.92a1.34,1.34,0,0,1,1,.24,6.38,6.38,0,0,1,.8.86,3.61,3.61,0,0,0,2,1.44,1.28,1.28,0,0,1,1,1.59,1.87,1.87,0,0,1-1.38,1.41c-3.84,1-5.35,4.66-6.08,6.43a4.56,4.56,0,0,1-.5,1,.86.86,0,0,1-.7.39Zm3.89-12.71c-1.26.12-3.81,1.72-5.32,3.65-1.88,2.41-2.65,5.92-2.25,6.28a2.85,2.85,0,0,0,1.07.27,2,2,0,0,1,1.49.61l.15.2c.23.33.71,1,1,1,0,0,.11,0,.17-.12a5.26,5.26,0,0,0,.4-.88c.77-1.87,2.38-5.78,6.55-6.83h0a1.21,1.21,0,0,0,.88-.89c.06-.3,0-.62-.57-.79a4.3,4.3,0,0,1-2.35-1.67,6.31,6.31,0,0,0-.7-.76.56.56,0,0,0-.35-.09Z"/><path class="cls-16" d="M490.34,178.13a.35.35,0,0,0,.35-.35,5.09,5.09,0,0,0-.37-1.51.36.36,0,0,0-.46-.18.35.35,0,0,0-.18.45,4.05,4.05,0,0,1,.32,1.24.35.35,0,0,0,.34.35Z"/><path class="cls-16" d="M485.26,188.88l.11,0a9.58,9.58,0,0,0,2.49-1.1.35.35,0,0,0,0-.49.36.36,0,0,0-.49,0,8.45,8.45,0,0,1-2.23.95.35.35,0,0,0,.1.68Z"/><polygon class="cls-23" points="520.29 194.4 584.62 177.71 584.62 180.01 524.18 195.14 520.29 194.4"/><path class="cls-16" d="M451.33,314.25h0a.35.35,0,0,0,.32-.37c-.74-9.45-1.26-32.23,0-37.33a.35.35,0,1,0-.67-.17c-1.26,5.17-.75,28.06,0,37.55A.35.35,0,0,0,451.33,314.25Z"/><path class="cls-16" d="M453.56,208.72a.34.34,0,0,0,.34-.3,38.52,38.52,0,0,1,4.77-14.3.34.34,0,0,0-.11-.47.35.35,0,0,0-.48.11,39.45,39.45,0,0,0-4.86,14.57.36.36,0,0,0,.3.39Z"/><path class="cls-16" d="M513.3,314.14a.34.34,0,0,0,.34-.32c.39-5.3,1.11-24.12,0-37.92a.35.35,0,0,0-.37-.32.34.34,0,0,0-.31.37c1.1,13.77.38,32.54,0,37.82a.33.33,0,0,0,.31.36Z"/><path class="cls-16" d="M511.66,208.72h.06a.33.33,0,0,0,.27-.4c-.16-.84-.67-5.59-.68-5.64a.35.35,0,0,0-.38-.31.34.34,0,0,0-.3.38c0,.2.52,4.84.69,5.7A.34.34,0,0,0,511.66,208.72Z"/><path class="cls-16" d="M495,314.14H495a.34.34,0,0,0,.28-.39c-.84-5.18-1.83-10.85-2.78-16.34-1.42-8.17-2.76-15.88-3.56-21.52a.36.36,0,0,0-.39-.3.34.34,0,0,0-.29.39c.8,5.66,2.14,13.38,3.56,21.54,1,5.49,1.94,11.16,2.79,16.34A.33.33,0,0,0,495,314.14Z"/><path class="cls-16" d="M468.43,314.25a.34.34,0,0,0,.33-.28c2.3-11.2,5-27.08,5.78-38a.35.35,0,0,0-.69-.05c-.76,10.91-3.47,26.75-5.76,37.93a.34.34,0,0,0,.27.41Z"/><path class="cls-16" d="M550.5,190.5c5.49,0,9.8-1.81,9.8-4.12A.35.35,0,0,0,560,186a.35.35,0,0,0-.34.35c0,1.66-3.66,3.43-9.11,3.43s-9.11-1.77-9.11-3.43v-1.17a.34.34,0,0,0-.34-.34.35.35,0,0,0-.35.34v1.17C540.7,188.69,545,190.5,550.5,190.5Z"/><polygon class="cls-19" points="574.94 195.14 533.74 174.34 529.53 174.76 567.52 196.13 574.94 195.14"/><path class="cls-16" d="M574.94,195.49a.37.37,0,0,0,.31-.19.36.36,0,0,0-.16-.47L533.56,174a.34.34,0,1,0-.31.61l41.53,20.8A.47.47,0,0,0,574.94,195.49Z"/><polygon class="cls-23" points="567.52 196.13 529.08 174.76 529.74 177.54 563.53 196.47 567.52 196.13"/><path class="cls-16" d="M567.52,196.47a.35.35,0,0,0,.3-.17.35.35,0,0,0-.14-.47l-38.43-21.37a.35.35,0,0,0-.47.14.34.34,0,0,0,.14.46l38.43,21.37A.33.33,0,0,0,567.52,196.47Z"/><path class="cls-16" d="M547.38,187.69a.34.34,0,0,0,.3-.17.33.33,0,0,0-.13-.47l-17.65-9.81a.34.34,0,0,0-.47.13.35.35,0,0,0,.14.47l17.65,9.81A.32.32,0,0,0,547.38,187.69Z"/><path class="cls-16" d="M563.79,196.82a.34.34,0,0,0,.31-.18.35.35,0,0,0-.14-.47l-14-7.79a.33.33,0,0,0-.47.13.35.35,0,0,0,.13.47l14,7.8A.32.32,0,0,0,563.79,196.82Z"/><polygon class="cls-19" points="578.01 176.01 513.71 192.8 520.13 194.4 556.18 185.07 584.62 177.71 578.01 176.01"/><path class="cls-16" d="M551,183.4a1,1,0,0,0,.33-.06l26.79-7a.35.35,0,1,0-.17-.67l-26.87,7H551a.45.45,0,0,1-.2-.05.34.34,0,0,0-.46.15.35.35,0,0,0,.15.47A1.16,1.16,0,0,0,551,183.4Z"/><path class="cls-16" d="M520.13,194.74h.08L550.12,187h0a.87.87,0,0,1,.33.07.34.34,0,1,0,.25-.64,1.25,1.25,0,0,0-.82-.08L520,194.07a.34.34,0,0,0,.09.67Z"/><path class="cls-16" d="M555.66,185.83a.35.35,0,0,0,.34-.25s0-.07,0-.11L585,178a.33.33,0,0,0,.24-.41.34.34,0,0,0-.42-.25l-30,7.77.22.39a.94.94,0,0,0,.6.34Z"/><path class="cls-16" d="M523.89,195.44H524L549.86,189a.35.35,0,0,0,.25-.42.35.35,0,0,0-.42-.25l-25.89,6.43a.35.35,0,0,0,.09.68Z"/><path class="cls-16" d="M558.62,186.81h.08l26-6.45a.36.36,0,0,0,.25-.42.35.35,0,0,0-.42-.25l-26,6.46a.34.34,0,0,0,.09.67Z"/><path class="cls-16" d="M551.19,212c5.88,0,10.48-1.74,10.48-4,0-1.35-1.64-2.54-4.51-3.27a.35.35,0,0,0-.42.25.36.36,0,0,0,.25.42c2.46.62,4,1.62,4,2.6,0,1.58-3.94,3.27-9.8,3.27s-9.8-1.69-9.8-3.27c0-.93,1.42-1.9,3.7-2.53a.34.34,0,0,0,.24-.42.34.34,0,0,0-.42-.24c-2.67.73-4.21,1.9-4.21,3.19C540.7,210.25,545.31,212,551.19,212Z"/><path class="cls-16" d="M551.19,217.49c5.88,0,10.48-1.74,10.48-4V208a.34.34,0,1,0-.68,0v5.5c0,1.58-3.94,3.27-9.8,3.27s-9.8-1.69-9.8-3.27l.05-5.15a.35.35,0,0,0-.34-.35h0a.34.34,0,0,0-.34.34l0,5.16C540.7,215.75,545.31,217.49,551.19,217.49Z"/><path class="cls-16" d="M561.28,208.72h9.43a.34.34,0,0,0,.34-.34.35.35,0,0,0-.34-.35h-9.43a.35.35,0,0,0-.34.35A.34.34,0,0,0,561.28,208.72Z"/><path class="cls-16" d="M576.22,208.72H616a.35.35,0,0,0,.35-.34A.35.35,0,0,0,616,208H576.22a.35.35,0,0,0-.34.35A.34.34,0,0,0,576.22,208.72Z"/><path class="cls-16" d="M442.85,278.33h3.66a.35.35,0,0,0,.35-.34.35.35,0,0,0-.35-.35h-3.66a4,4,0,0,1-3.79-3.06.34.34,0,0,0-.42-.25.34.34,0,0,0-.24.42A4.67,4.67,0,0,0,442.85,278.33Z"/><path class="cls-16" d="M438.73,275h.09a.34.34,0,0,0,.24-.42,127.08,127.08,0,0,1,0-64.86.34.34,0,0,0-.24-.42.35.35,0,0,0-.42.25,127.16,127.16,0,0,0,0,65.2A.34.34,0,0,0,438.73,275Z"/><path class="cls-16" d="M438.73,210a.34.34,0,0,0,.33-.26,3.64,3.64,0,0,1,3.79-3.06h3.66a.35.35,0,0,0,.35-.35.35.35,0,0,0-.35-.34h-3.66a4.31,4.31,0,0,0-4.45,3.58.34.34,0,0,0,.24.42Z"/><path class="cls-16" d="M443.59,211.3a.34.34,0,0,0,.33-.24c.51-1.59,1.68-4.19,2.67-4.41a.25.25,0,0,1,.22,0,3.13,3.13,0,0,1,.64,1.72.35.35,0,0,0,.38.3.33.33,0,0,0,.3-.38c0-.17-.2-1.69-.92-2.2a.93.93,0,0,0-.77-.16c-1.69.37-3,4.41-3.17,4.87a.34.34,0,0,0,.22.43Z"/><path class="cls-16" d="M446.38,278.35l.21,0a2.34,2.34,0,0,0,1.76-2.4.35.35,0,0,0-.69,0,1.69,1.69,0,0,1-1.22,1.7c-.81.18-2-2.57-2.58-4.49a.35.35,0,0,0-.43-.24.35.35,0,0,0-.23.43C443.45,274.21,444.75,278.35,446.38,278.35Z"/><path class="cls-16" d="M494.24,278.33h3.67a.34.34,0,0,0,.34-.34.35.35,0,0,0-.34-.35h-3.67a4,4,0,0,1-3.79-3.06.33.33,0,0,0-.42-.25.34.34,0,0,0-.24.42A4.67,4.67,0,0,0,494.24,278.33Z"/><path class="cls-16" d="M490.12,210a.34.34,0,0,0,.33-.26c.56-2.12,1.71-3.06,3.75-3.06h3.71a.35.35,0,0,0,.34-.35.34.34,0,0,0-.34-.34H494.2c-2.34,0-3.78,1.17-4.41,3.58a.34.34,0,0,0,.24.42Z"/><path class="cls-16" d="M495,211.3a.34.34,0,0,0,.33-.24c.51-1.59,1.69-4.19,2.67-4.41a.25.25,0,0,1,.22,0,3.13,3.13,0,0,1,.64,1.72.35.35,0,0,0,.69-.08c0-.17-.21-1.69-.93-2.2a.93.93,0,0,0-.77-.16c-1.69.37-3,4.41-3.17,4.87a.34.34,0,0,0,.22.43Z"/><path class="cls-16" d="M497.77,278.35l.21,0a2.34,2.34,0,0,0,1.76-2.4.35.35,0,0,0-.69,0,1.69,1.69,0,0,1-1.22,1.7c-.8.18-2-2.57-2.58-4.49a.35.35,0,0,0-.43-.24.35.35,0,0,0-.23.43C494.84,274.21,496.14,278.35,497.77,278.35Z"/><path class="cls-16" d="M494.92,273.6l.09,0a.34.34,0,0,0,.24-.42,116.41,116.41,0,0,1,.07-62.11.35.35,0,0,0-.67-.19,117.17,117.17,0,0,0-.06,62.48A.34.34,0,0,0,494.92,273.6Z"/><path class="cls-16" d="M490.12,275h.09a.34.34,0,0,0,.24-.42,127.08,127.08,0,0,1,0-64.86.34.34,0,0,0-.24-.42.35.35,0,0,0-.42.25,127.16,127.16,0,0,0,0,65.2A.34.34,0,0,0,490.12,275Z"/><path class="cls-16" d="M574.33,278.33H578a.35.35,0,0,0,.35-.34.35.35,0,0,0-.35-.35h-3.66a4,4,0,0,1-3.79-3.06.34.34,0,0,0-.42-.25.34.34,0,0,0-.24.42A4.67,4.67,0,0,0,574.33,278.33Z"/><path class="cls-16" d="M570.21,210a.34.34,0,0,0,.33-.26,3.72,3.72,0,0,1,3.79-3.06H578a.35.35,0,0,0,.35-.35A.35.35,0,0,0,578,206h-3.66a4.4,4.4,0,0,0-4.45,3.58.34.34,0,0,0,.24.42Z"/><path class="cls-16" d="M575.07,211.3a.34.34,0,0,0,.33-.24c.51-1.59,1.68-4.19,2.67-4.41a.25.25,0,0,1,.22,0,3.13,3.13,0,0,1,.64,1.72.35.35,0,0,0,.38.3.33.33,0,0,0,.3-.38c0-.17-.2-1.69-.92-2.2a.93.93,0,0,0-.77-.16c-1.69.37-3,4.41-3.17,4.87a.34.34,0,0,0,.22.43Z"/><path class="cls-16" d="M577.86,278.35l.21,0a2.32,2.32,0,0,0,1.75-2.4.33.33,0,0,0-.35-.33.35.35,0,0,0-.33.36,1.69,1.69,0,0,1-1.22,1.7c-.81.18-2-2.57-2.58-4.49a.35.35,0,0,0-.43-.24.35.35,0,0,0-.23.43C574.93,274.21,576.23,278.35,577.86,278.35Z"/><path class="cls-16" d="M575,273.6l.09,0a.34.34,0,0,0,.24-.42,116.51,116.51,0,0,1,.06-62.11.34.34,0,1,0-.66-.19,117.28,117.28,0,0,0-.07,62.48A.35.35,0,0,0,575,273.6Z"/><path class="cls-16" d="M570.21,275h.09a.34.34,0,0,0,.24-.42,127.08,127.08,0,0,1,0-64.86.34.34,0,0,0-.24-.42.35.35,0,0,0-.42.25,127.16,127.16,0,0,0,0,65.2A.34.34,0,0,0,570.21,275Z"/><path class="cls-16" d="M619.61,277.64a4,4,0,0,1-3.79-3.06.34.34,0,0,0-.42-.25.34.34,0,0,0-.24.42,4.67,4.67,0,0,0,4.45,3.58"/><path class="cls-16" d="M619.61,206c-2.34,0-3.83,1.19-4.45,3.58a.34.34,0,0,0,.24.42h.09a.34.34,0,0,0,.33-.26,3.58,3.58,0,0,1,3.75-3.06"/><path class="cls-16" d="M615.49,275h.09a.34.34,0,0,0,.24-.42,127.08,127.08,0,0,1,0-64.86.34.34,0,0,0-.24-.42.35.35,0,0,0-.42.25,127.16,127.16,0,0,0,0,65.2A.34.34,0,0,0,615.49,275Z"/><path class="cls-2" d="M302.8,227c-16.08-3.52-31.63-5.23-46.52-4.66l2.89,22.87a165.85,165.85,0,0,1,41.3-3.49Z"/><path class="cls-16" d="M258.83,245.26c-1-7.56-1.94-15.25-2.89-22.88l-.05-.37h.38a184.9,184.9,0,0,1,46.6,4.67l.32.07-.05.32c-.78,4.83-1.56,9.78-2.33,14.71l-.05.3h-.31a166.43,166.43,0,0,0-41.21,3.49l-.36.08Zm41.34-3.9c.74-4.72,1.49-9.46,2.24-14.1a185.16,185.16,0,0,0-45.74-4.59c.92,7.38,1.86,14.82,2.79,22.13a166.42,166.42,0,0,1,34.3-3.56C295.89,241.24,298,241.28,300.17,241.36Z"/><path class="cls-16" d="M260.38,243c-.72-6.22-1.45-12.54-2.16-18.77l0-.38h.37a184.72,184.72,0,0,1,42.14,3.64l.32.07-.05.32c-.6,4.13-1.2,8.36-1.8,12.57l0,.31h-.32a168,168,0,0,0-38,2.56l-.36.06Zm38.14-3c.57-4,1.15-8,1.72-12a183.68,183.68,0,0,0-41.3-3.57l2.08,18a168.61,168.61,0,0,1,30-2.69Q294.79,239.85,298.52,240Z"/><path class="cls-16" d="M274.92,237.44a6.83,6.83,0,0,1-2.22-4.78,6.22,6.22,0,0,1,1.91-4.79,6.72,6.72,0,0,1,5.16-1.82c3.5.27,7.13,3.06,7,6.79s-3.79,6.14-7,6.32h-.36A6.54,6.54,0,0,1,274.92,237.44Zm.16-9.07a5.54,5.54,0,0,0-1.7,4.26h0a6.18,6.18,0,0,0,2,4.3,5.81,5.81,0,0,0,4.28,1.54c2.95-.16,6.21-2.47,6.37-5.67s-3.13-5.82-6.31-6.06l-.48,0A6,6,0,0,0,275.08,228.37Z"/><path class="cls-2" d="M343,196.05A184,184,0,0,0,304,170.36l-8,21.61a165.47,165.47,0,0,1,38.21,16Z"/><path class="cls-16" d="M334,208.31a166,166,0,0,0-38.13-16l-.36-.1.13-.35c2.64-7.16,5.35-14.43,8-21.61l.14-.36.34.17a185.14,185.14,0,0,1,39.13,25.74l.24.21-.19.25c-2.93,3.94-5.92,8-8.88,12l-.18.25Zm-29.82-37.48c-2.59,7-5.21,14-7.77,20.91a166.78,166.78,0,0,1,37.67,15.82c2.83-3.83,5.69-7.69,8.51-11.46A184.84,184.84,0,0,0,304.15,170.83Z"/><path class="cls-16" d="M333.13,206.35A168.44,168.44,0,0,0,298.26,191l-.35-.11.13-.34c2.24-5.85,4.52-11.79,6.78-17.64l.13-.35.34.17A184.61,184.61,0,0,1,341,195.48l.25.21L341,196c-2.47,3.41-5,6.88-7.43,10.3l-.18.26Zm-27.8-32.84c-2.17,5.62-4.36,11.32-6.52,17a169.14,169.14,0,0,1,34.4,15.14c2.34-3.26,4.71-6.55,7.05-9.79A183.61,183.61,0,0,0,305.33,173.51Z"/><path class="cls-16" d="M316.93,196.12a6.58,6.58,0,0,1-3.45-3.74,6.88,6.88,0,0,1,.25-5.27h0a6.24,6.24,0,0,1,3.91-3.36,6.74,6.74,0,0,1,5.42.78c3,1.86,4.9,6,3,9.24a6.61,6.61,0,0,1-5.84,3A8.06,8.06,0,0,1,316.93,196.12Zm.91-11.71a5.58,5.58,0,0,0-3.49,3h0a6.19,6.19,0,0,0-.22,4.74,5.87,5.87,0,0,0,3.08,3.35c2.69,1.22,6.65.68,8.27-2.07s-.08-6.61-2.78-8.3a6.09,6.09,0,0,0-3.23-.94A6,6,0,0,0,317.84,184.41Z"/><path class="cls-2" d="M361.74,302.75c-1.86-.65-14.51-14.51-14.51-14.51-1.49-1.61-33.55,29-31.51,30.95.48.46,14.51,14.28,14.51,14.28A129.45,129.45,0,0,1,361.74,302.75Z"/><path class="cls-16" d="M330,333.73a168.92,168.92,0,0,1-14.54-14.31l-.19-.21.17-.23c10.5-13.86,20.54-23.72,31.6-31l.25-.16.2.22A171.78,171.78,0,0,0,362,302.49l.34.3-.37.25c-11,7.18-21,16.92-31.43,30.64l-.22.29Zm17.18-45c-10.84,7.21-20.71,16.9-31,30.48a170.34,170.34,0,0,0,14,13.8c10.32-13.48,20.19-23.11,31-30.26A169.81,169.81,0,0,1,347.18,288.69Z"/><path class="cls-16" d="M330.14,330.91c-4-3.58-8-7.48-12.1-11.92l-.2-.21.18-.23c9.6-12.37,18.77-21.36,28.84-28.3l.24-.17.21.22c4.09,4.49,8,8.43,12.05,12.05l.32.3-.36.24c-10,6.84-19.1,15.73-28.68,28l-.22.29ZM347,291c-9.85,6.83-18.84,15.66-28.26,27.75,3.94,4.23,7.73,8,11.59,11.42,9.42-12,18.41-20.8,28.25-27.59C354.72,299.07,350.93,295.28,347,291Z"/><path class="cls-16" d="M333.59,314h0a7.37,7.37,0,0,1-2.06-5.2,7.29,7.29,0,0,1,2.06-5.13c2.88-2.83,7.45-1.95,10,.49a6.32,6.32,0,0,1,1.95,4.6,6.69,6.69,0,0,1-2,4.83,8.1,8.1,0,0,1-5.49,2.24A6.26,6.26,0,0,1,333.59,314Zm.49-9.84a6.51,6.51,0,0,0-1.86,4.64,6.59,6.59,0,0,0,1.86,4.71c2.61,2.6,6.71,1.81,9-.42a6,6,0,0,0,1.8-4.33,5.63,5.63,0,0,0-1.74-4.1A7.7,7.7,0,0,0,338,302.6,5.49,5.49,0,0,0,334.08,304.17Zm-.24,9.6Z"/><path class="cls-2" d="M352.4,252.38c-1.29-1.49-5.4-19.79-5.4-19.79-.5-2.14-43.51,8.53-42.71,11.25.19.64,5.52,19.6,5.52,19.6A129.82,129.82,0,0,1,352.4,252.38Z"/><path class="cls-16" d="M309.48,263.55A170,170,0,0,1,304,243.92l-.06-.28.26-.11c16-6.84,29.6-10.42,42.83-11.28l.29,0,.07.29a169.54,169.54,0,0,0,5.39,19.75l.14.43-.45,0c-13.09.8-26.59,4.31-42.48,11l-.34.15ZM346.73,233c-13,.89-26.37,4.42-42.05,11.1A170.13,170.13,0,0,0,310,263c15.64-6.59,29-10.06,41.92-10.91A170.81,170.81,0,0,1,346.73,233Z"/><path class="cls-16" d="M311,261.18c-1.72-5.11-3.23-10.46-4.6-16.36l-.06-.28.27-.11c14.47-6,26.88-9.25,39.07-10.28l.29,0,.07.29c1.33,5.92,2.8,11.3,4.49,16.44l.14.41-.43,0c-12.07,1-24.39,4.18-38.78,10.08l-.34.14Zm34.44-26.32c-11.95,1-24.13,4.26-38.3,10.09,1.31,5.63,2.76,10.76,4.4,15.66,14.13-5.76,26.3-8.93,38.21-10C348.13,245.71,346.72,240.53,345.44,234.86Z"/><path class="cls-16" d="M322.38,248.21h0a7.35,7.35,0,0,1,.78-5.54,7.27,7.27,0,0,1,4.34-3.43c3.9-1,7.44,2,8.47,5.4a6.31,6.31,0,0,1-.58,5,6.7,6.7,0,0,1-4.14,3.2,7.81,7.81,0,0,1-1.94.24A6.92,6.92,0,0,1,322.38,248.21Zm5.29-8.31a6.58,6.58,0,0,0-3.91,3.11,6.68,6.68,0,0,0-.72,5l-.33.09L323,248c1,3.55,4.94,4.89,8,4.1a6,6,0,0,0,3.71-2.87,5.59,5.59,0,0,0,.52-4.42c-.81-2.68-3.31-5.12-6.25-5.12A5.64,5.64,0,0,0,327.67,239.9Z"/><path class="cls-2" d="M386,298.83c-.75.25-14.59-16.08-14.59-16.08a126.54,126.54,0,0,1,32.79-28.21,107.25,107.25,0,0,0,14.54,12.12A143.56,143.56,0,0,0,386,298.83Z"/><path class="cls-16" d="M385.65,299.08A117.74,117.74,0,0,1,371.17,283l-.17-.23.19-.21c8.66-9.78,19.33-20.78,32.88-28.28l.23-.13.19.19A85.79,85.79,0,0,0,419,266.37l.44.29L419,267c-13.07,8.57-23.5,20.49-32.82,32.1l-.23.28ZM404.18,255c-13.26,7.39-23.75,18.17-32.29,27.8a118.1,118.1,0,0,0,13.95,15.56c9.2-11.43,19.48-23.14,32.32-31.67A87.9,87.9,0,0,1,404.18,255Z"/><path class="cls-16" d="M385.92,296.1a118.41,118.41,0,0,1-12.06-13.28l-.18-.23.2-.21c7.39-8.26,17.48-18.69,30-26.11l.23-.14.18.19a90.9,90.9,0,0,0,12.06,10.2l.41.28-.41.28c-12.45,8.63-22.54,20-29.93,29l-.23.28ZM404,257c-12.22,7.31-22.12,17.5-29.42,25.63a118.55,118.55,0,0,0,11.54,12.73c7.32-8.86,17.23-20,29.44-28.55A91.48,91.48,0,0,1,404,257Z"/><path class="cls-16" d="M390.11,278.72h0a7.18,7.18,0,0,1-1.95-5.29,6.93,6.93,0,0,1,2.24-5c2.89-2.56,7.49-1.68,10.1.61a5.6,5.6,0,0,1,1.92,4.18,6.73,6.73,0,0,1-2.08,4.94,8.59,8.59,0,0,1-5.76,2.36A6.12,6.12,0,0,1,390.11,278.72Zm.74-9.75a6.34,6.34,0,0,0-2,4.49,6.53,6.53,0,0,0,1.76,4.78h0c2.58,2.64,6.82,1.78,9.27-.55a6.07,6.07,0,0,0,1.87-4.43,4.94,4.94,0,0,0-1.69-3.67,8.32,8.32,0,0,0-5.31-2A5.78,5.78,0,0,0,390.85,269Zm-.5,9.51Z"/><path class="cls-2" d="M373.56,262.45c-.69-1.9-3.73-16.78-3.73-16.78a126.6,126.6,0,0,0-49.21,9.21l8.8,22.23C344,269.29,358.7,264,373.56,262.45Z"/><path class="cls-16" d="M329.2,277.5c-2.79-7.38-5.78-14.95-8.9-22.49l-.13-.32.32-.13a126.14,126.14,0,0,1,49.08-9.19h.26l.06.26c1.43,5.66,2.78,11.29,4,16.75l.08.37-.38,0a112.81,112.81,0,0,0-43.91,14.88l-.35.21Zm40.09-31.45a125.23,125.23,0,0,0-48.22,9c3,7.31,5.92,14.64,8.62,21.8a113.42,113.42,0,0,1,43.45-14.71C372,256.9,370.66,251.49,369.29,246.05Z"/><path class="cls-16" d="M330.29,274.64c-2.28-6.09-4.7-12.33-7.19-18.54l-.13-.32.32-.12a125.59,125.59,0,0,1,44.43-8.83H368l.06.26c1.23,4.77,2.39,9.54,3.48,14.17l.09.37-.38.05a114.35,114.35,0,0,0-40.46,13.14l-.35.2Zm37.17-27.12a125.1,125.1,0,0,0-43.6,8.65c2.41,6,4.74,12,6.93,17.86a114.89,114.89,0,0,1,40-13C369.73,256.62,368.62,252.07,367.46,247.52Z"/><path class="cls-16" d="M340.39,260h0a7,7,0,0,1,.55-5.73,7,7,0,0,1,4.62-3.33c3.69-.75,8.44,1.15,9.63,5.19,1.12,3.8-1.93,7.33-5.4,8.42a8,8,0,0,1-2.4.37A7.31,7.31,0,0,1,340.39,260Zm5.31-8.38a6.23,6.23,0,0,0-4.65,8.16h0a6.73,6.73,0,0,0,8.54,4.11c3.16-1,6-4.16,4.94-7.57-.93-3.14-4.24-4.85-7.3-4.85A7.71,7.71,0,0,0,345.7,251.63Zm-5,8.27Z"/><path class="cls-2" d="M305.37,287.94c-.69-1.9-3.73-16.79-3.73-16.79a126.78,126.78,0,0,0-49.21,9.21l8.79,22.24C275.81,294.78,290.5,289.46,305.37,287.94Z"/><path class="cls-16" d="M261,303c-2.78-7.39-5.78-14.95-8.89-22.5l-.13-.32.32-.13a126.11,126.11,0,0,1,49.07-9.18h.27l.06.26c1.43,5.65,2.77,11.29,4,16.74l.09.38-.38,0a112.59,112.59,0,0,0-43.91,14.88l-.35.21Zm40.1-31.45a125.4,125.4,0,0,0-48.22,9c3,7.31,5.91,14.65,8.62,21.81A113.19,113.19,0,0,1,305,287.65C303.76,282.39,302.47,277,301.1,271.54Z"/><path class="cls-16" d="M262.1,300.13c-2.28-6.09-4.7-12.33-7.19-18.54l-.13-.32.32-.13a125.79,125.79,0,0,1,44.42-8.82h.27l.07.26c1.22,4.78,2.39,9.55,3.48,14.18l.08.37-.38.05a114.21,114.21,0,0,0-40.46,13.14l-.34.19ZM299.26,273a124.86,124.86,0,0,0-43.59,8.65c2.41,6,4.74,12,6.93,17.86a114.68,114.68,0,0,1,40-13C301.54,282.11,300.43,277.56,299.26,273Z"/><path class="cls-16" d="M272.2,285.5h0a7,7,0,0,1,.55-5.73,6.93,6.93,0,0,1,4.62-3.33c3.69-.76,8.43,1.15,9.63,5.19,1.12,3.8-1.93,7.33-5.4,8.41a8,8,0,0,1-2.4.37A7.3,7.3,0,0,1,272.2,285.5Zm5.31-8.39a6.26,6.26,0,0,0-4.66,8.17,6.75,6.75,0,0,0,8.54,4.11c3.16-1,5.95-4.17,4.95-7.57-.93-3.14-4.25-4.86-7.3-4.86A7.71,7.71,0,0,0,277.51,277.11Zm-5,8.28Z"/><path class="cls-2" d="M323.72,209.78c-.34-2-.65-17.19-.65-17.19a126.73,126.73,0,0,0-50.07.22l4.66,23.45C293.41,211.19,308.82,208.61,323.72,209.78Z"/><path class="cls-16" d="M277.37,216.61c-1.41-7.77-3-15.75-4.71-23.73l-.07-.34.34-.07a126.2,126.2,0,0,1,49.93-.22l.26.05v.27c.39,5.81.7,11.6.93,17.19l0,.38-.38,0a112.51,112.51,0,0,0-45.87,6.75l-.39.14Zm46-7.2c-.23-5.39-.53-10.94-.89-16.53a125.2,125.2,0,0,0-49.06.2c1.65,7.73,3.19,15.47,4.56,23a113.07,113.07,0,0,1,38.84-6.85Q320.08,209.23,323.36,209.41Z"/><path class="cls-16" d="M279,214c-1.14-6.4-2.4-13-3.74-19.53l-.07-.33.34-.07a125.54,125.54,0,0,1,45.29-.7l.26,0,0,.27c.35,4.92.64,9.82.87,14.57l0,.38-.38,0a114,114,0,0,0-42.16,5.66l-.38.12Zm42.27-6.1c-.23-4.53-.51-9.21-.83-13.9a124.94,124.94,0,0,0-44.44.68c1.29,6.31,2.5,12.64,3.61,18.81a114.64,114.64,0,0,1,35.85-5.73C317.35,207.75,319.29,207.8,321.23,207.89Z"/><path class="cls-16" d="M291.53,201.41h0a6.94,6.94,0,0,1,6.71-8h.17c3.72,0,7.93,2.71,8.37,6.83.42,4-3.21,6.87-6.82,7.32a8.51,8.51,0,0,1-1,.06A7.37,7.37,0,0,1,291.53,201.41Zm6.73-7.29a6.23,6.23,0,0,0-4.63,2.2,6.31,6.31,0,0,0-1.42,5h0a6.73,6.73,0,0,0,7.66,5.58c3.29-.4,6.61-3,6.23-6.55-.41-3.76-4.27-6.22-7.69-6.22Zm-6.39,7.24Z"/><path class="cls-2" d="M379,199.47a229,229,0,0,1-44.14-.22s-1.57,23.26-1.3,23.9c.61,1.43,49.46-5.84,49.46-7.76Z"/><path class="cls-16" d="M333.23,223.13c.35-7.87.78-15.91,1.29-23.9l0-.35.35,0a229.37,229.37,0,0,0,44.08.22l.3,0,.07.29c1.28,5.37,2.63,10.72,4,15.91l.09.34-.33.09a246.09,246.09,0,0,1-49.53,7.76l-.38,0Zm45.52-23.29a229.66,229.66,0,0,1-43.56-.21c-.5,7.74-.92,15.53-1.26,23.15a244.3,244.3,0,0,0,48.68-7.63C381.28,210.15,380,205,378.75,199.84Z"/><path class="cls-16" d="M335.52,221.06c.23-6.46.51-13.07.84-19.63l0-.35.35,0a232.78,232.78,0,0,0,40.64-.41l.3,0,.07.29c1,4.56,2.1,9.12,3.2,13.57l.08.33-.34.08a245.79,245.79,0,0,1-44.8,6.48l-.37,0Zm41.62-19.65a233.64,233.64,0,0,1-40.11.41c-.32,6.31-.59,12.66-.81,18.89a245,245,0,0,0,44-6.35C379.14,210.11,378.12,205.76,377.14,201.41Z"/><path class="cls-16" d="M352.69,215.86a6.49,6.49,0,0,1-2.34-4.78h0a7.12,7.12,0,0,1,2-5.19,7,7,0,0,1,5-2.23c3.41-.08,7.43,2.28,8,6.21s-3.09,7.11-6.8,7.61a7,7,0,0,1-1,.07A7.31,7.31,0,0,1,352.69,215.86Zm4.6-11.52a6.34,6.34,0,0,0-4.48,2,6.41,6.41,0,0,0-1.77,4.69,5.78,5.78,0,0,0,2.09,4.28,6.7,6.7,0,0,0,5.22,1.47c3.38-.45,6.68-3.31,6.2-6.83s-4-5.63-7.12-5.63Zm-6.6,6.73Z"/><path class="cls-2" d="M261.27,197.56a230.18,230.18,0,0,1-43-9.84s-6.6,22.35-6.48,23c.28,1.53,49.54,5.1,50,3.22Z"/><path class="cls-16" d="M211.7,211.09l-.38-.07.1-.36c2.06-7.6,4.24-15.36,6.48-23l.1-.34.34.11a230,230,0,0,0,43,9.83l.3,0v.3c.08,5.5.23,11,.44,16.4l0,.35h-.35q-4.64.18-9.29.18A246.68,246.68,0,0,1,211.7,211.09Zm49.23-13.22a230.6,230.6,0,0,1-42.47-9.72c-2.17,7.45-4.28,14.95-6.28,22.32a244.54,244.54,0,0,0,49.17,3.17C261.15,208.47,261,203.16,260.93,197.87Z"/><path class="cls-16" d="M214.39,209.57l-.37-.07.09-.36c1.63-6.26,3.35-12.64,5.11-19l.09-.34.34.1a231.84,231.84,0,0,0,39.75,8.47l.3,0v.3c0,4.67.06,9.36.16,13.93V213h-.35c-1.32,0-2.64,0-4,0A245.31,245.31,0,0,1,214.39,209.57ZM259,199a232.11,232.11,0,0,1-39.23-8.35c-1.68,6.09-3.34,12.23-4.91,18.26a245.06,245.06,0,0,0,44.3,3.39C259.07,208,259,203.5,259,199Z"/><path class="cls-16" d="M237.26,210.65a7.42,7.42,0,0,1-5.26-2.84,6.49,6.49,0,0,1-1.24-5.18h0a7.15,7.15,0,0,1,3.05-4.64,7,7,0,0,1,5.33-1.09c3.35.67,6.76,3.85,6.41,7.81-.32,3.7-4.05,6-7.59,6C237.72,210.68,237.49,210.67,237.26,210.65Zm-3.07-12.09a6.42,6.42,0,0,0-2.75,4.2h0a5.78,5.78,0,0,0,1.11,4.63,6.69,6.69,0,0,0,4.77,2.57c3.4.3,7.24-1.77,7.55-5.31s-2.79-6.46-5.86-7.08a6.59,6.59,0,0,0-1.24-.12A6.38,6.38,0,0,0,234.19,198.56Z"/><path class="cls-2" d="M277.71,265c-.24,1.71-44.1-.92-44.1-2l-2.27,23.82c.33,1.48,50.07-3.84,49.73-5.73C281,280.68,277.71,265,277.71,265Z"/><path class="cls-16" d="M231,286.72c.67-7.85,1.43-15.86,2.27-23.82l0-.36.35,0a229.74,229.74,0,0,0,44,2h.3l.06.29c1.06,5.41,2.19,10.81,3.36,16.06l.07.34-.33.07a244.36,244.36,0,0,1-49.81,5.73H231Zm46.43-21.41a231,231,0,0,1-43.52-2c-.8,7.72-1.54,15.48-2.2,23.08a244.54,244.54,0,0,0,49-5.64C279.54,275.71,278.45,270.51,277.43,265.31Z"/><path class="cls-16" d="M233.37,284.75c.49-6.45,1-13,1.64-19.58l0-.35.35,0A232.51,232.51,0,0,0,276,266.11l.3,0,.06.3c.84,4.59,1.73,9.19,2.64,13.68l.07.34-.34.07a245.66,245.66,0,0,1-45,4.64h-.37Zm42.39-17.94a232.34,232.34,0,0,1-40.09-1.23c-.58,6.3-1.11,12.63-1.58,18.85a244.71,244.71,0,0,0,44.19-4.56C277.41,275.58,276.56,271.19,275.76,266.81Z"/><path class="cls-16" d="M250.74,280.25a6.45,6.45,0,0,1-2.14-4.87h0a7.1,7.1,0,0,1,2.17-5.11,7,7,0,0,1,5-2c3.42.07,7.33,2.59,7.7,6.54s-3.37,7-7.1,7.33l-.71,0A7.34,7.34,0,0,1,250.74,280.25Zm.51-9.49a6.45,6.45,0,0,0-2,4.62h0a5.79,5.79,0,0,0,1.91,4.36,6.71,6.71,0,0,0,5.16,1.68c3.39-.31,6.81-3,6.48-6.57s-3.9-5.86-7-5.92h-.12A6.33,6.33,0,0,0,251.25,270.76Z"/><path class="cls-2" d="M272.28,299.16c.54,1.63-39.93,18.76-40.41,17.77l8.54,22.35c1,1.18,43.16-25.67,42-27.22C282.22,311.78,272.28,299.16,272.28,299.16Z"/><path class="cls-16" d="M240.09,339.41c-2.89-7.34-5.76-14.86-8.55-22.36l-.12-.33.34-.11a230.32,230.32,0,0,0,40.35-17.75l.26-.15.18.24c3.36,4.38,6.77,8.72,10.14,12.9l.22.27-.27.21a245.4,245.4,0,0,1-42.08,27.26l-.33.17Zm32.1-39.81a231.58,231.58,0,0,1-39.88,17.55c2.7,7.26,5.49,14.55,8.28,21.65A243.86,243.86,0,0,0,281.94,312C278.69,308,275.41,303.81,272.19,299.6Z"/><path class="cls-16" d="M241.34,336.59c-2.42-6-4.85-12.15-7.22-18.28L234,318l.33-.12a232.58,232.58,0,0,0,37-16.92l.26-.15.18.25c2.79,3.74,5.63,7.47,8.44,11.08l.22.28-.28.21a245.43,245.43,0,0,1-38.28,24.15l-.34.17Zm30-34.9a232.94,232.94,0,0,1-36.46,16.7c2.28,5.9,4.62,11.81,7,17.59a244.43,244.43,0,0,0,37.57-23.71C276.73,308.82,274,305.26,271.35,301.69Z"/><path class="cls-16" d="M254.9,324.84a6.52,6.52,0,0,1-4.08-3.41,7.11,7.11,0,0,1-.32-5.54,7,7,0,0,1,3.63-4.06c3.08-1.46,7.71-.94,9.8,2.44S264,322,260.82,324a7.51,7.51,0,0,1-3.95,1.14A6.9,6.9,0,0,1,254.9,324.84Zm-.48-12.39a6.32,6.32,0,0,0-3.27,3.66,6.44,6.44,0,0,0,.29,5h0a5.82,5.82,0,0,0,3.65,3.05,6.72,6.72,0,0,0,5.37-.78c2.9-1.8,4.75-5.75,2.88-8.77a6.58,6.58,0,0,0-5.71-2.87A7.64,7.64,0,0,0,254.42,312.45Z"/><path class="cls-2" d="M427.81,236.57c-14.54-1.9-35.9,1.89-49.4,9.17,0,0,10.51,23.83,10.33,23.2,5.1-5.84,29.23-16.7,42.52-15.94Z"/><path class="cls-16" d="M388.42,269.07c-3.19-7.62-6.66-15.42-10.32-23.19l-.15-.3.3-.15a90.86,90.86,0,0,1,49.59-9.2l.25,0,.06.24c1.27,5.59,2.43,11.12,3.44,16.43l.08.38-.39,0a77.74,77.74,0,0,0-42.34,15.87l-.35.27Zm39.11-32.18a90.18,90.18,0,0,0-48.67,9c3.55,7.53,6.92,15.1,10,22.5a78.33,78.33,0,0,1,42-15.72C429.87,247.57,428.75,242.26,427.53,236.89Z"/><path class="cls-16" d="M389.28,266c-2.59-6.28-5.38-12.71-8.29-19.11l-.14-.31.3-.14a90,90,0,0,1,44.77-8.92h.25l.06.25c1.11,4.74,2.14,9.44,3.06,14l.08.38-.39,0a79.08,79.08,0,0,0-39.19,14l-.35.24Zm36.34-27.81a89.34,89.34,0,0,0-43.86,8.72c2.8,6.17,5.49,12.37,8,18.43a79.58,79.58,0,0,1,38.79-13.82C427.66,247.16,426.68,242.68,425.62,238.17Z"/><path class="cls-16" d="M398.46,250.2a7.37,7.37,0,0,1,.49-6.08,6.59,6.59,0,0,1,4.48-3.29,9,9,0,0,1,5.86.87,7.43,7.43,0,0,1,3.85,4.46c1.1,3.76-1.89,7.34-5.29,8.51a7.73,7.73,0,0,1-2.48.42A7.3,7.3,0,0,1,398.46,250.2Zm5.11-8.7a5.93,5.93,0,0,0-4,2.95,6.66,6.66,0,0,0-.44,5.52h0a6.65,6.65,0,0,0,8.51,4.05c3.11-1.06,5.85-4.3,4.86-7.67-.93-3.2-4.37-5-7.44-5A7.8,7.8,0,0,0,403.57,241.5Z"/><path class="cls-2" d="M375.07,177.75A71.65,71.65,0,0,1,346.56,152l-15.08,8.79c6,12.06,15.38,22,27.44,30.34Z"/><path class="cls-16" d="M358.73,191.44A80.73,80.73,0,0,1,331.18,161l-.16-.3.3-.16c5-2.73,10.09-5.69,15.06-8.78l.29-.18.18.29a71.5,71.5,0,0,0,28.37,25.6l.46.23-.38.34c-5.26,4.65-10.69,9.16-16.17,13.41l-.19.15Zm-12.27-38.95c-4.79,3-9.67,5.82-14.52,8.46a80.11,80.11,0,0,0,27,29.78c5.27-4.09,10.5-8.43,15.56-12.9A72.17,72.17,0,0,1,346.46,152.49Z"/><path class="cls-16" d="M358.72,189.37a80.54,80.54,0,0,1-25.28-27.47l-.17-.3.3-.17c4.22-2.36,8.46-4.87,12.62-7.46l.28-.18.18.28a71.93,71.93,0,0,0,25.86,23.74l.44.23-.38.33c-4.39,3.78-8.91,7.47-13.45,11l-.2.15Zm-12.45-34.64c-4,2.47-8,4.87-12.06,7.13a79.85,79.85,0,0,0,24.68,26.8c4.34-3.36,8.66-6.89,12.85-10.49A72.47,72.47,0,0,1,346.27,154.73Z"/><path class="cls-16" d="M346.11,176.47a5.32,5.32,0,0,1-1.36-4.4,5.81,5.81,0,0,1,2.65-4.21h0a8.48,8.48,0,0,1,9.56.95,5,5,0,0,1,1.66,4,5.46,5.46,0,0,1-2.29,4.13,8.92,8.92,0,0,1-5.06,1.57A7,7,0,0,1,346.11,176.47Zm1.65-8h0a5.12,5.12,0,0,0-2.33,3.71,4.65,4.65,0,0,0,1.18,3.84c2.47,2.6,6.77,2.24,9.32.42a4.74,4.74,0,0,0,2-3.61,4.27,4.27,0,0,0-1.43-3.49,7.65,7.65,0,0,0-5.09-1.84A6.88,6.88,0,0,0,347.76,168.45Z"/><path class="cls-2" d="M228.15,286.48a71.84,71.84,0,0,1-36.46,12.07l.19,17.45c13.44.77,26.74-2.49,39.93-8.86Z"/><path class="cls-16" d="M191.87,316.34h-.34V316c.11-5.72.05-11.58-.18-17.43v-.34l.33,0a71.4,71.4,0,0,0,36.28-12l.43-.29.1.5c1.45,6.87,2.69,13.83,3.67,20.69l0,.24-.22.11a80.15,80.15,0,0,1-37.45,8.94C193.64,316.38,192.75,316.37,191.87,316.34Zm36-29.29a72.19,72.19,0,0,1-35.86,11.82c.22,5.63.28,11.28.18,16.8a80.05,80.05,0,0,0,39.21-8.73C230.48,300.34,229.3,293.65,227.91,287.05Z"/><path class="cls-16" d="M193.45,314.48c0-4.82,0-9.75-.26-14.64v-.34l.33,0a71.92,71.92,0,0,0,33.42-10.75l.42-.26.1.49c1.11,5.67,2.09,11.43,2.9,17.12l0,.24-.23.11a80.46,80.46,0,0,1-36.37,8.4h-.34Zm33.42-24.9a72.51,72.51,0,0,1-33,10.56c.18,4.68.27,9.38.24,14a79.83,79.83,0,0,0,35.5-8.21C228.86,300.5,227.93,295,226.87,289.58Z"/><path class="cls-16" d="M208.23,310a5.87,5.87,0,0,1-2.36-4.38h0a8.48,8.48,0,0,1,5.55-7.85,5,5,0,0,1,4.34.56,5.41,5.41,0,0,1,2.45,4c.35,3.41-1.64,7.69-5.48,8.64a5,5,0,0,1-1.21.15A5.49,5.49,0,0,1,208.23,310Zm3.41-11.58a7.76,7.76,0,0,0-5.08,7.17,5.13,5.13,0,0,0,2.08,3.86,4.65,4.65,0,0,0,3.92.87c3.48-.86,5.29-4.77,5-7.9a4.82,4.82,0,0,0-2.15-3.52,4.34,4.34,0,0,0-2.36-.71A4.44,4.44,0,0,0,211.64,298.45Zm-5.43,7.19h0Z"/><path class="cls-24" d="M491.27,189.18l-5.37-3.31a15.31,15.31,0,0,1,2.76-8.19h4.14c5.31.16,10.31.49,13.58,1.68a6.49,6.49,0,0,1,2.84,3.13c1.3.88,1.77,1.86,1.21,3a2.77,2.77,0,0,1,1.08,2.93c1.49,1,1.72,2.23.41,3.81-2-1.56-4.79-2.24-9-2.46A27.54,27.54,0,0,1,491.27,189.18Z"/><path class="cls-16" d="M509.42,182.94l.11,0a.34.34,0,0,0,.22-.43,6.42,6.42,0,0,0-2.36-2.92c-1.75-1.29-4.88-1.63-6.05-1.75l-.3,0c-1.39-.18-7.9-.35-9-.35-.32,0-.61,0-.9.05a6.09,6.09,0,0,1-2.41-.14.34.34,0,0,0-.42.24.34.34,0,0,0,.24.42,6.88,6.88,0,0,0,2.65.17,8,8,0,0,1,.84-.05c1.05,0,7.57.17,8.9.34l.3,0c1.13.12,4.13.44,5.72,1.62a5.87,5.87,0,0,1,2.12,2.58A.33.33,0,0,0,509.42,182.94Z"/><path class="cls-16" d="M510.7,186.29a.34.34,0,0,0,.31-.19,2.44,2.44,0,0,0-.56-2.61c-1.09-1.27-6.17-2.09-6.74-2.18a.34.34,0,1,0-.11.68c1.5.23,5.55,1,6.32,1.94a1.76,1.76,0,0,1,.47,1.86.35.35,0,0,0,.16.46A.42.42,0,0,0,510.7,186.29Z"/><path class="cls-16" d="M511.66,188.61a.35.35,0,0,0,.32-.22,3,3,0,0,0-.55-2.54c-.93-1.49-6.37-1.69-7-1.71a.35.35,0,1,0,0,.69c2.19.06,5.86.5,6.42,1.38a2.4,2.4,0,0,1,.49,1.93.35.35,0,0,0,.2.45Z"/><path class="cls-16" d="M512.17,192.22a.31.31,0,0,0,.2-.07,2.36,2.36,0,0,0,.46-3c-.93-2-6.86-2.1-7.53-2.1a.35.35,0,0,0-.35.35.35.35,0,0,0,.35.34c2.37,0,6.34.46,6.9,1.69.66,1.46-.2,2.13-.23,2.16a.34.34,0,0,0,.2.62Z"/><path class="cls-16" d="M510.66,191.26a.35.35,0,0,0,.09-.68c-.24-.06-5.91-1.48-8.43-1.11-3.2.48-9.42.55-12.48-1.32a16.76,16.76,0,0,1-2.16-1.51,6.57,6.57,0,0,0-1.64-1.08.34.34,0,0,0-.46.18.35.35,0,0,0,.18.45,5.91,5.91,0,0,1,1.49,1,16.87,16.87,0,0,0,2.23,1.57c3.24,2,9.52,1.93,12.95,1.41,2.37-.35,8.09,1.08,8.15,1.1Z"/><path class="cls-16" d="M483.8,188.5a3.85,3.85,0,0,0-1.53-.45,2.85,2.85,0,0,1-2-.45l-.12-.08a2,2,0,0,1-.75-1.43c-.48-2.79,1-8.45,2.73-10.63s2.93-1.87,3.87-1.22l0,0a1.54,1.54,0,0,0,.74.23,10.15,10.15,0,0,1,1.57.36,3.55,3.55,0,0,1,1.62.95.88.88,0,0,1,0,1.18h0c-.12.12-.27.24-.44.38a8.07,8.07,0,0,0-2.66,3.73,9.92,9.92,0,0,0-.69,5.21c.09,1,.15,1.79-.43,2.3a1.1,1.1,0,0,1-.72.27A3.22,3.22,0,0,1,483.8,188.5Zm5.68-12a.17.17,0,0,0,0-.25,2.66,2.66,0,0,0-1.3-.75,9.35,9.35,0,0,0-1.47-.34,2,2,0,0,1-1-.35l0,0c-.65-.46-1.32-.93-2.93,1.08s-3,7.54-2.59,10.08a1.38,1.38,0,0,0,.44,1l.15.11c.21.15.46.32,1.56.32a4.39,4.39,0,0,1,1.81.51c.62.28,1,.43,1.23.22s.28-.77.19-1.72a10.63,10.63,0,0,1,.74-5.53,8.71,8.71,0,0,1,2.87-4c.15-.13.28-.23.37-.32Z"/><path class="cls-16" d="M509.25,182.54a.47.47,0,0,0,.16,0,38.71,38.71,0,0,1,9.91-3.26.34.34,0,1,0-.13-.67,38.83,38.83,0,0,0-10.09,3.32.34.34,0,0,0-.15.46A.34.34,0,0,0,509.25,182.54Z"/><path class="cls-16" d="M513.71,193.14h.09l32.44-8.47c.32,0,.4-.21.41-.36,0-.33-.36-.41-.53-.44a.35.35,0,0,0-.4.23l-32.1,8.38a.34.34,0,0,0,.09.67Z"/><path class="cls-16" d="M549.56,197.38c12,0,22.58-.88,30.53-2.55,8.68-1.81,14-4.46,15.86-7.87a.34.34,0,1,0-.6-.33c-3.41,6.3-20.53,10.06-45.79,10.06-20.31,0-31.86-1.52-38.65-5.08a.34.34,0,0,0-.46.14.35.35,0,0,0,.14.47C517.57,195.88,528.86,197.38,549.56,197.38Z"/><path class="cls-16" d="M507.61,180.53a.42.42,0,0,0,.16,0c7.71-4,24.11-6.57,41.79-6.57,16.92,0,32.51,2.31,40.68,6a.34.34,0,0,0,.28-.62c-8.25-3.76-23.95-6.1-41-6.1-18,0-34.18,2.55-42.1,6.65a.34.34,0,0,0-.15.46A.34.34,0,0,0,507.61,180.53Z"/><path class="cls-16" d="M419,189.05a.36.36,0,0,0,.32-.21.34.34,0,0,0-.19-.45c-.19-.08-19.32-8.13-34.38-22.28a.34.34,0,0,0-.47.5c15.15,14.24,34.39,22.33,34.59,22.41A.28.28,0,0,0,419,189.05Z"/><path class="cls-16" d="M407.39,177.33a.37.37,0,0,0,.32-.22.35.35,0,0,0-.19-.45,45.24,45.24,0,0,1-10.95-6.78.35.35,0,0,0-.45.53,46.11,46.11,0,0,0,11.14,6.89A.28.28,0,0,0,407.39,177.33Z"/><path class="cls-16" d="M267.45,341.59a.34.34,0,0,0,.25-.11A115.19,115.19,0,0,1,293.81,320a98.29,98.29,0,0,1,13.08-6.79.35.35,0,1,0-.26-.64,100.24,100.24,0,0,0-13.16,6.83A115.84,115.84,0,0,0,267.19,341a.35.35,0,0,0,0,.49A.38.38,0,0,0,267.45,341.59Z"/><path class="cls-16" d="M283.22,334.57a.32.32,0,0,0,.26-.12c3.8-4.31,10.39-7,10.46-7.07a.34.34,0,0,0,.18-.45.33.33,0,0,0-.44-.18c-.28.11-6.81,2.81-10.71,7.25a.34.34,0,0,0,0,.48A.31.31,0,0,0,283.22,334.57Z"/><path class="cls-16" d="M526.08,168.76h0c.12,0,12.43-1.42,21.26-1.42a.35.35,0,0,0,.35-.35.35.35,0,0,0-.35-.34c-8.87,0-21.21,1.41-21.34,1.42a.35.35,0,0,0-.3.38A.35.35,0,0,0,526.08,168.76Z"/><path class="cls-16" d="M533,166h0s4.67-.4,8-.31a.35.35,0,0,0,.35-.34.33.33,0,0,0-.33-.35c-3.41-.08-8.07.31-8.12.31a.35.35,0,0,0,0,.69Z"/><path class="cls-16" d="M564.51,203.05h0c12-.42,17.45-2.24,17.67-2.32a.34.34,0,0,0-.22-.65c-.06,0-5.56,1.87-17.48,2.28a.35.35,0,0,0,0,.69Z"/><path class="cls-16" d="M569.07,205a21.16,21.16,0,0,0,5.12-.65.35.35,0,0,0-.18-.67,19.69,19.69,0,0,1-7.29.46.34.34,0,0,0-.1.68A15.89,15.89,0,0,0,569.07,205Z"/><g id="bIple8"><path class="cls-25" d="M526.18,151.79c-.17.75-.35,1.5-.52,2.25,0,.1,0,.13-.15.1l-12-2.74c-.12,0-.13-.05-.11-.16.36-1.54.71-3.08,1.06-4.62,0-.11,0-.13.16-.1,4,.91,8,1.83,12,2.73.2.05.06.16.07.24s-.08-.12-.15,0-.08-.13-.13-.06-.15.06-.12.14a.16.16,0,0,0,.14.11l.1,0c0,.11.05.08.11.07l-.43,1.9c-.05,0-.05-.07-.07-.11l-.93-2.29c0-.1-.08-.19-.2-.22l-2.35-.53c-.12,0-.17,0-.2.11s-.07.34-.11.51,0,.2.15.24l1.81.41a.25.25,0,0,1,.22.17c.18.47.37.94.56,1.4a.18.18,0,0,1-.05.25c-.38.33-.75.67-1.12,1a.25.25,0,0,1-.27.07c-.6-.14-1.19-.26-1.78-.41-.19-.05-.26,0-.28.18a1.8,1.8,0,0,1-.1.4c-.06.2,0,.27.21.32.71.15,1.42.31,2.12.48a.4.4,0,0,0,.43-.11C524.89,152.93,525.54,152.36,526.18,151.79Zm-8.52-4.46-2.88-.66c-.16,0-.25,0-.28.16a2.42,2.42,0,0,1-.1.45c0,.14,0,.21.15.24l1.12.25c.14,0,.18.08.14.22-.18.76-.35,1.52-.52,2.28-.09.36-.16.72-.25,1.09,0,.15,0,.22.16.25a4.54,4.54,0,0,1,.53.12c.18.06.25,0,.29-.18.25-1.12.51-2.23.76-3.35,0-.14.08-.17.22-.13.34.09.69.16,1,.23.13,0,.16.07.13.2-.08.29-.14.59-.21.88-.19.83-.37,1.66-.57,2.48,0,.17,0,.26.18.29a5.41,5.41,0,0,1,.55.12c.16,0,.23,0,.26-.16.07-.33.16-.66.22-1,0-.16.09-.18.23-.14s.54.13.81.19a1.61,1.61,0,0,0,2.12-1.46,1.57,1.57,0,0,0-1.27-1.73Zm8.71,2.37s0,0,0,0h0a.06.06,0,0,0,0,0Z"/><path class="cls-22" d="M526.18,151.79c-.64.57-1.29,1.14-1.92,1.72a.4.4,0,0,1-.43.11c-.7-.17-1.41-.33-2.12-.48-.2,0-.27-.12-.21-.32a1.8,1.8,0,0,0,.1-.4c0-.18.09-.23.28-.18.59.15,1.18.27,1.78.41a.25.25,0,0,0,.27-.07c.37-.34.74-.68,1.12-1a.18.18,0,0,0,.05-.25c-.19-.46-.38-.93-.56-1.4a.25.25,0,0,0-.22-.17l-1.81-.41c-.15,0-.2-.09-.15-.24s.08-.34.11-.51.08-.14.2-.11L525,149c.12,0,.16.12.2.22l.93,2.29s0,.08.07.11Z"/><path class="cls-26" d="M526.55,149.45c.07-.08.1,0,.15,0l-.05.24c-.06,0-.13,0-.11-.07Z"/><path class="cls-20" d="M517.66,147.33l2.82.65a1.57,1.57,0,0,1,1.27,1.73,1.61,1.61,0,0,1-2.12,1.46c-.27-.06-.54-.11-.81-.19s-.2,0-.23.14c-.06.33-.15.66-.22,1,0,.16-.1.21-.26.16a5.41,5.41,0,0,0-.55-.12c-.19,0-.22-.12-.18-.29.2-.82.38-1.65.57-2.48.07-.29.13-.59.21-.88,0-.13,0-.17-.13-.2-.34-.07-.69-.14-1-.23-.14,0-.19,0-.22.13-.25,1.12-.51,2.23-.76,3.35,0,.19-.11.24-.29.18a4.54,4.54,0,0,0-.53-.12c-.16,0-.21-.1-.16-.25.09-.37.16-.73.25-1.09.17-.76.34-1.52.52-2.28,0-.14,0-.19-.14-.22l-1.12-.25c-.15,0-.19-.1-.15-.24a2.42,2.42,0,0,0,.1-.45c0-.17.12-.2.28-.16Zm1.35,2-.15.62c0,.09,0,.15.08.17.32.06.63.15.94.2a.68.68,0,0,0,.85-.6.71.71,0,0,0-.54-.9l-.89-.22c-.11,0-.14,0-.15.11S519.05,149.11,519,149.32Z"/><path class="cls-27" d="M526.55,149.45v.21l-.1,0a.16.16,0,0,1-.14-.11c0-.08.08-.1.12-.14S526.51,149.41,526.55,149.45Z"/><path class="cls-26" d="M526.37,149.7h0a.06.06,0,0,1,0,0h0S526.37,149.72,526.37,149.7Z"/><path class="cls-25" d="M519,149.32l.15-.62c0-.1,0-.13.15-.11l.89.22a.71.71,0,0,1,.54.9.68.68,0,0,1-.85.6c-.31-.05-.62-.14-.94-.2-.11,0-.1-.08-.08-.17S519,149.53,519,149.32Z"/></g><g id="ëÎÓÈ_2" data-name="ëÎÓÈ 2"><path class="cls-28" d="M498.22,120.6s3,2.65,10,2.33c6.81-.31,8.29-2,8.29-2a2.72,2.72,0,0,1,.62,1.61,13.51,13.51,0,0,1-.22,4.3,7,7,0,0,1-1.3,3.85c-1.07,1.7-2.37,1.93-2.77,3.09-.72,2-.23,0-.59,1.7-2.11,1.11-6.39.57-6.39.57a6.93,6.93,0,0,0-2.49-2.71c-3.36-2.37-3.91-4.28-4.49-4.82s-1.22-2.91-1.89-3.35c.13-2.18-.29-.73.16-2.22,1.14-3.37,0-.1,0-.1a6.34,6.34,0,0,1,.36-1.74C497.82,120.56,498.22,120.6,498.22,120.6Z"/><path class="cls-29" d="M486.36,88.41a31.1,31.1,0,0,1,1.12-7.88,20.71,20.71,0,0,1,5.68-9.59,23.65,23.65,0,0,1,10.75-4.88,24.25,24.25,0,0,1,6.18-.09,20.61,20.61,0,0,1,13.34,6.59c3.63,4.12,5.51,11.33,5.38,15,0,1.26-.18,6.67-2.15,11.11-2.2,5-6.32,9.18-8.29,13.92a28.74,28.74,0,0,0-2.32,8.78,6,6,0,0,1-2.56,1.16,27.89,27.89,0,0,1-7.39.54c-6.49-.45-7.65-2.28-7.65-2.28a47.53,47.53,0,0,0-2.91-10.08c-2.06-4.34-4.57-7-6.5-11.37C487.48,96,486.27,90.65,486.36,88.41Z"/><path class="cls-13" d="M535.88,109a.28.28,0,0,1-.15,0l-5.24-2.73a.33.33,0,0,1-.14-.45.33.33,0,0,1,.45-.15L536,108.4a.33.33,0,0,1,.14.45A.35.35,0,0,1,535.88,109Z"/><path class="cls-13" d="M478.83,108.36a.35.35,0,0,1-.31-.21.34.34,0,0,1,.18-.44l5.47-2.28a.34.34,0,0,1,.26.62L479,108.33A.28.28,0,0,1,478.83,108.36Z"/><path class="cls-13" d="M541.84,95.37h-.05L536,94.52a.34.34,0,1,1,.1-.67l5.82.85a.34.34,0,0,1,0,.67Z"/><path class="cls-13" d="M472.43,92.82a.33.33,0,0,1-.33-.32.33.33,0,0,1,.31-.35l5.91-.36a.34.34,0,1,1,0,.67l-5.91.36Z"/><path class="cls-13" d="M480.09,77.42a.27.27,0,0,1-.12,0l-5.51-2.15a.33.33,0,0,1-.19-.43.32.32,0,0,1,.43-.19l5.51,2.15a.33.33,0,0,1,.19.43A.34.34,0,0,1,480.09,77.42Z"/><path class="cls-13" d="M536,79.39a.34.34,0,0,1-.32-.25.33.33,0,0,1,.23-.41l5.64-1.66a.34.34,0,0,1,.42.23.33.33,0,0,1-.23.41l-5.64,1.66Z"/><path class="cls-13" d="M528.76,68.46a.32.32,0,0,1-.26-.13.33.33,0,0,1,0-.47l4.61-3.71a.34.34,0,0,1,.48,0,.34.34,0,0,1,0,.47L529,68.38A.32.32,0,0,1,528.76,68.46Z"/><path class="cls-13" d="M487.61,67.29a.33.33,0,0,1-.23-.09l-4.26-4.07a.35.35,0,0,1,0-.48.34.34,0,0,1,.48,0l4.25,4.08a.32.32,0,0,1,0,.47A.31.31,0,0,1,487.61,67.29Z"/><path class="cls-13" d="M500.46,60.62a.34.34,0,0,1-.32-.23l-1.79-5.64a.34.34,0,1,1,.64-.21l1.79,5.65a.33.33,0,0,1-.22.42Z"/><path class="cls-13" d="M516.58,61.29a.4.4,0,0,1-.15,0,.34.34,0,0,1-.15-.45l2.64-5.29a.34.34,0,0,1,.61.31l-2.65,5.28A.32.32,0,0,1,516.58,61.29Z"/><path class="cls-13" d="M511.25,140.91a.41.41,0,0,1-.18,0,.34.34,0,0,1-.1-.47,11.58,11.58,0,0,0,1.12-4.43c.07-.54.14-1.09.22-1.62a3.49,3.49,0,0,1,1.51-2.21,6.15,6.15,0,0,0,1.19-1.2c1.56-2.19,1.66-4,1.8-6.36,0-.52.06-1.06.11-1.62a.34.34,0,0,1,.36-.31.34.34,0,0,1,.31.37c-.05.55-.08,1.09-.11,1.6-.14,2.34-.25,4.36-1.92,6.71a6.82,6.82,0,0,1-1.31,1.32,2.92,2.92,0,0,0-1.28,1.81c-.08.52-.15,1.06-.22,1.59a11.53,11.53,0,0,1-1.22,4.72A.32.32,0,0,1,511.25,140.91Z"/><path class="cls-13" d="M516,121.48h0a.34.34,0,0,1-.3-.37,32.73,32.73,0,0,1,3.12-10.41,30.88,30.88,0,0,1,2.8-4.47c3.19-4.57,7.17-10.26,6.75-19.51-.7-14.76-11.69-21-21.64-20.63-14.17.6-20.22,12-19.92,23,.21,7.16,3.51,12.31,6.15,16.45a29.8,29.8,0,0,1,3,5.34l.24.67a39.45,39.45,0,0,1,2.46,8.86.33.33,0,0,1-.3.36.34.34,0,0,1-.37-.3,39.38,39.38,0,0,0-2.42-8.69l-.24-.68a30.75,30.75,0,0,0-2.9-5.2c-2.69-4.21-6-9.44-6.26-16.8-.2-7.53,2.06-13.75,6.53-18a22,22,0,0,1,14-5.74C516.92,65,528.29,71.47,529,86.69c.43,9.48-3.79,15.51-6.87,19.92a31.93,31.93,0,0,0-2.75,4.37,32.8,32.8,0,0,0-3.06,10.2A.33.33,0,0,1,516,121.48Z"/><path class="cls-13" d="M508,123.3c-3.89,0-8-.79-10-2.49a.33.33,0,0,1,0-.47.35.35,0,0,1,.48,0c3.61,3.1,15.25,3,17.63.48a.33.33,0,0,1,.47,0,.34.34,0,0,1,0,.48C515.25,122.57,511.7,123.3,508,123.3Z"/><path class="cls-13" d="M517.08,125.69h0a.33.33,0,0,1-.32-.35l.09-2c0-2-.87-2.45-.88-2.46a.34.34,0,0,1,.27-.62s1.28.57,1.28,3.09l-.09,2A.34.34,0,0,1,517.08,125.69Z"/><path class="cls-13" d="M509.37,136.61a.33.33,0,0,1-.33-.29.34.34,0,0,1,.3-.38,22.15,22.15,0,0,0,3-.53.34.34,0,0,1,.4.25.33.33,0,0,1-.24.41,25.32,25.32,0,0,1-3.09.54Z"/><path class="cls-13" d="M497.33,123.13h0a.34.34,0,0,1-.33-.34c.05-1.66.28-2,.95-2.65a.34.34,0,1,1,.48.48c-.55.54-.72.71-.76,2.19A.32.32,0,0,1,497.33,123.13Z"/><path class="cls-13" d="M507.15,128.15a21.31,21.31,0,0,1-7.85-1.33.33.33,0,0,1-.18-.43.32.32,0,0,1,.44-.18c5.62,2.34,14.18,1.29,17.26-1.21a.33.33,0,0,1,.47,0,.33.33,0,0,1,0,.47C515,127.32,511.06,128.15,507.15,128.15Z"/><path class="cls-13" d="M507.09,132.48l-1.23,0a.33.33,0,0,1-.31-.35.32.32,0,0,1,.35-.32c4,.19,7.7-.58,9.87-2.05a.33.33,0,0,1,.46.09.33.33,0,0,1-.09.47C514.09,131.68,510.77,132.48,507.09,132.48Z"/><path class="cls-21" d="M510.9,105.45a.37.37,0,0,1-.18,0,.34.34,0,0,1-.11-.47c.08-.12,7.6-12.28,8.74-17.14a.33.33,0,0,1,.4-.25A.35.35,0,0,1,520,88c-1.16,5-8.51,16.84-8.82,17.34A.33.33,0,0,1,510.9,105.45Z"/><path class="cls-21" d="M504,105.45a.34.34,0,0,1-.3-.18c-.29-.55-7.06-13.53-7.92-17.78a.35.35,0,0,1,.27-.4.34.34,0,0,1,.39.27c.84,4.16,7.78,17.46,7.85,17.6a.33.33,0,0,1-.14.45A.42.42,0,0,1,504,105.45Z"/><path class="cls-21" d="M504.72,94.21a.35.35,0,0,1-.31-.2l-.11-.25a36.54,36.54,0,0,1-2.83-8.21.34.34,0,0,1,.28-.38.33.33,0,0,1,.39.27,35.79,35.79,0,0,0,2.77,8l.11.25a.34.34,0,0,1-.17.45A.31.31,0,0,1,504.72,94.21Z"/><path class="cls-21" d="M510.27,94.43a.32.32,0,0,1-.16,0,.34.34,0,0,1-.14-.45,38.87,38.87,0,0,0,3.24-7.77.34.34,0,0,1,.42-.23.32.32,0,0,1,.23.41,40.77,40.77,0,0,1-3.29,7.9A.33.33,0,0,1,510.27,94.43Z"/><path class="cls-21" d="M519.54,88.21a.35.35,0,0,1-.14,0,2.8,2.8,0,0,1-1.31-1.28,1.07,1.07,0,0,1-1.24,0,.61.61,0,0,1-.25-.33,1.53,1.53,0,0,1-.48.23,1.25,1.25,0,0,1-1-.12.91.91,0,0,1-.37-.39,1.51,1.51,0,0,1-1.35.15.8.8,0,0,1-.57-.51,1.35,1.35,0,0,1-1,.06,1.13,1.13,0,0,1-.75-.64,1.71,1.71,0,0,1-1.6,0,.73.73,0,0,1-.28-.3,1.51,1.51,0,0,1-.79.48,1,1,0,0,1-.91-.2l0,0a1.65,1.65,0,0,1-1.69.43l-.06,0a2,2,0,0,1-.59-.55,1.65,1.65,0,0,1-.66.4,1.26,1.26,0,0,1-1.29-.31l-.2.14a1.25,1.25,0,0,1-1.75-.07,2.05,2.05,0,0,1-.65.53,1.13,1.13,0,0,1-.62.09,1.7,1.7,0,0,1-1,.74,1.59,1.59,0,0,1-1.09-.1l-.28-.09a2,2,0,0,1-1.43,1.22.34.34,0,0,1-.42-.22.33.33,0,0,1,.22-.42c.79-.26.92-.61,1-.85a.53.53,0,0,1,.48-.42,1.81,1.81,0,0,1,.65.15,1,1,0,0,0,.67.09,1.12,1.12,0,0,0,.62-.51.89.89,0,0,1-.05-.32.64.64,0,0,1,0-.2.38.38,0,0,1,.36-.29.39.39,0,0,1,.36.25.71.71,0,0,1,0,.3l.12,0a1.27,1.27,0,0,0,.39-.31.92.92,0,0,0,0-.16c0-.14,0-.39.25-.47a.39.39,0,0,1,.38.12h0l.05,0c.51.57.7.73,1.26.35a.87.87,0,0,0,.27-.27,1.22,1.22,0,0,1,.1-.45.37.37,0,0,1,.45-.22c.31.11.24.44.19.7l0,.08h0l.07.09a.58.58,0,0,0,.59.16,1.14,1.14,0,0,0,.61-.51v0a.5.5,0,0,1,.1-.4.4.4,0,0,1,.27-.12.34.34,0,0,1,.34.29l.08.55a1,1,0,0,0,.4.4,1,1,0,0,0,1-.3.83.83,0,0,1,.08-.12l.07-.1v-.22h0a.34.34,0,0,1,.34-.34.33.33,0,0,1,.33.33h0v.23a.45.45,0,0,0,.1.24.47.47,0,0,0,.35,0,1.27,1.27,0,0,0,.62-.54,1.83,1.83,0,0,1,.13-.24,1.38,1.38,0,0,0,0-.14.35.35,0,0,1,.35-.33.35.35,0,0,1,.32.37v.11c0,.4,0,.63.1.67a1.18,1.18,0,0,0,1.16-.17.88.88,0,0,1,.36-.66.41.41,0,0,1,.44,0l0,0c.18.18.1.44,0,.63l0,0a.87.87,0,0,1-.17.21.48.48,0,0,0,.38.41.79.79,0,0,0,.7-.15c0-.17.08-.48.32-.58a.39.39,0,0,1,.43.1c.1.11.23.34-.08.75,0,.28,0,.29.17.33a.85.85,0,0,0,.86-.13,1.81,1.81,0,0,0,.29-.5.35.35,0,0,1,.42-.17.34.34,0,0,1,.22.39,1.08,1.08,0,0,0,0,.19v0c-.05.35,0,.42.1.47a.64.64,0,0,0,.49,0,1.45,1.45,0,0,0,.79-.73.37.37,0,0,1,.43-.17c.13.05.27.17.19.48,0,0,0,.1,0,.13a.15.15,0,0,1,0,.07,1.26,1.26,0,0,0-.07.42.42.42,0,0,0,.54,0l.1-.09a.19.19,0,0,1,0-.08.38.38,0,0,1,.35-.3.38.38,0,0,1,.37.27.36.36,0,0,1,0,.27,2.2,2.2,0,0,0,1.08,1.19.34.34,0,0,1-.13.65Zm-2.34-1.93h0Zm-17.41-1.16h0Zm0,0Zm0,0Zm5.11-.74h0Z"/><path class="cls-13" d="M503.78,122.87h0a.35.35,0,0,1-.33-.34c.05-4,0-8.18,0-11.23,0-3.42,0-5.08,0-5.45a2.17,2.17,0,0,1,1.15-1.42,1.78,1.78,0,0,0,1.08-1.57c0-.46,0-2.49,0-5.59,0-.36-.31-.5-.85-.63l-.1,0a.62.62,0,0,1-.39-.37,3.58,3.58,0,0,1,0-2.22,1,1,0,0,1,.7-.4c1.29-.31,4.74-.32,5.44.19.46.33.33,1.5.31,1.63-.07.61-.26,1-.56,1.11l-.26.09c-.5.17-.65.26-.65.53s0,1.49,0,2.71,0,2.74,0,3.16c0,.57.49.94,1,1.34s1.21.9,1.21,1.71v.35c0,6.77,0,12.31.14,16a.34.34,0,0,1-.33.34.32.32,0,0,1-.34-.33c-.11-3.72-.16-9.27-.14-16v-.35c0-.47-.43-.8-.94-1.18a2.42,2.42,0,0,1-1.3-1.87c0-.42,0-1.82,0-3.15s0-2.39,0-2.72c0-.79.69-1,1.1-1.17l.23-.08a2.59,2.59,0,0,0,.08-1.59,12.33,12.33,0,0,0-5.13,0A3.22,3.22,0,0,0,505,96h0c.41.1,1.38.33,1.38,1.29,0,1.83,0,5,0,5.62A2.43,2.43,0,0,1,505,105c-.5.33-.8.55-.87,1s0,2.64,0,5.32c0,3.06.07,7.24,0,11.24A.34.34,0,0,1,503.78,122.87Zm1.16-28.49Z"/></g><path class="cls-30" d="M98,332.57s.21.2.64.55c3.07,2.48,17.33,12.57,46.09,12.57,32.79,0,78.71-13.12,78.71-13.12"/></svg>